<?xml version="1.0" encoding="UTF-8" standalone="no"?>
<!DOCTYPE svg PUBLIC "-//W3C//DTD SVG 1.1//EN"
 "http://www.w3.org/Graphics/SVG/1.1/DTD/svg11.dtd">
<!-- Generated by graphviz version 2.43.0 (0)
 -->
<!-- Title: AnalyticalSolution.h Pages: 1 -->
<svg width="2780pt" height="756pt"
 viewBox="0.00 0.00 2780.00 756.00" xmlns="http://www.w3.org/2000/svg" xmlns:xlink="http://www.w3.org/1999/xlink">
<g id="graph0" class="graph" transform="scale(1 1) rotate(0) translate(4 752)">
<title>AnalyticalSolution.h</title>
<!-- Node1 -->
<g id="node1" class="node">
<title>Node1</title>
<g id="a_node1"><a xlink:title=" ">
<polygon fill="#bfbfbf" stroke="black" points="1594,-728.5 1594,-747.5 1708,-747.5 1708,-728.5 1594,-728.5"/>
<text text-anchor="middle" x="1651" y="-735.5" font-family="Helvetica,sans-Serif" font-size="10.00">AnalyticalSolution.h</text>
</a>
</g>
</g>
<!-- Node2 -->
<g id="node2" class="node">
<title>Node2</title>
<g id="a_node2"><a xlink:title=" ">
<polygon fill="none" stroke="#bfbfbf" points="2252.5,-168.5 2252.5,-187.5 2313.5,-187.5 2313.5,-168.5 2252.5,-168.5"/>
<text text-anchor="middle" x="2283" y="-175.5" font-family="Helvetica,sans-Serif" font-size="10.00">petscpf.h</text>
</a>
</g>
</g>
<!-- Node1&#45;&gt;Node2 -->
<g id="edge1" class="edge">
<title>Node1&#45;&gt;Node2</title>
<path fill="none" stroke="midnightblue" d="M1708.36,-736.55C1916.52,-734.18 2620,-719.33 2620,-627 2620,-627 2620,-627 2620,-401 2620,-279.95 2522.13,-276.37 2413,-224 2383.98,-210.07 2349.48,-198.34 2323.32,-190.35"/>
<polygon fill="midnightblue" stroke="midnightblue" points="2324.31,-186.99 2313.73,-187.47 2322.3,-193.69 2324.31,-186.99"/>
</g>
<!-- Node3 -->
<g id="node3" class="node">
<title>Node3</title>
<g id="a_node3"><a xlink:title=" ">
<polygon fill="none" stroke="#bfbfbf" points="1329.5,-0.5 1329.5,-19.5 1430.5,-19.5 1430.5,-0.5 1329.5,-0.5"/>
<text text-anchor="middle" x="1380" y="-7.5" font-family="Helvetica,sans-Serif" font-size="10.00">petscdmswarm.h</text>
</a>
</g>
</g>
<!-- Node1&#45;&gt;Node3 -->
<g id="edge2" class="edge">
<title>Node1&#45;&gt;Node3</title>
<path fill="none" stroke="midnightblue" d="M1593.8,-736.35C1397.24,-733.87 750.27,-723.45 545,-692 435.34,-675.2 304,-737.94 304,-627 304,-627 304,-627 304,-401 304,-183.42 1091.51,-52.68 1319.09,-19.45"/>
<polygon fill="midnightblue" stroke="midnightblue" points="1319.79,-22.88 1329.19,-17.98 1318.79,-15.95 1319.79,-22.88"/>
</g>
<!-- Node4 -->
<g id="node4" class="node">
<title>Node4</title>
<g id="a_node4"><a xlink:title=" ">
<polygon fill="none" stroke="#bfbfbf" points="2574.5,-0.5 2574.5,-19.5 2627.5,-19.5 2627.5,-0.5 2574.5,-0.5"/>
<text text-anchor="middle" x="2601" y="-7.5" font-family="Helvetica,sans-Serif" font-size="10.00">stdlib.h</text>
</a>
</g>
</g>
<!-- Node1&#45;&gt;Node4 -->
<g id="edge3" class="edge">
<title>Node1&#45;&gt;Node4</title>
<path fill="none" stroke="midnightblue" d="M1708.13,-737.45C1936.57,-738.52 2772,-735.04 2772,-627 2772,-627 2772,-627 2772,-121 2772,-57.59 2687.81,-29.01 2637.58,-17.6"/>
<polygon fill="midnightblue" stroke="midnightblue" points="2638.23,-14.16 2627.72,-15.48 2636.76,-21 2638.23,-14.16"/>
</g>
<!-- Node5 -->
<g id="node5" class="node">
<title>Node5</title>
<g id="a_node5"><a xlink:title=" ">
<polygon fill="none" stroke="#bfbfbf" points="2036,-168.5 2036,-187.5 2084,-187.5 2084,-168.5 2036,-168.5"/>
<text text-anchor="middle" x="2060" y="-175.5" font-family="Helvetica,sans-Serif" font-size="10.00">time.h</text>
</a>
</g>
</g>
<!-- Node1&#45;&gt;Node5 -->
<g id="edge4" class="edge">
<title>Node1&#45;&gt;Node5</title>
<path fill="none" stroke="midnightblue" d="M1708.13,-735.33C1893.75,-729.14 2468,-703.79 2468,-627 2468,-627 2468,-627 2468,-401 2468,-316.11 2192.01,-220.69 2094.02,-189.48"/>
<polygon fill="midnightblue" stroke="midnightblue" points="2094.89,-186.09 2084.3,-186.41 2092.78,-192.76 2094.89,-186.09"/>
</g>
<!-- Node6 -->
<g id="node6" class="node">
<title>Node6</title>
<g id="a_node6"><a xlink:title=" ">
<polygon fill="none" stroke="#bfbfbf" points="1344.5,-168.5 1344.5,-187.5 1395.5,-187.5 1395.5,-168.5 1344.5,-168.5"/>
<text text-anchor="middle" x="1370" y="-175.5" font-family="Helvetica,sans-Serif" font-size="10.00">math.h</text>
</a>
</g>
</g>
<!-- Node1&#45;&gt;Node6 -->
<g id="edge5" class="edge">
<title>Node1&#45;&gt;Node6</title>
<path fill="none" stroke="midnightblue" d="M1639.76,-728.2C1606.4,-701.43 1507.18,-617.1 1458,-524 1397.48,-409.43 1377.07,-251.17 1371.66,-197.59"/>
<polygon fill="midnightblue" stroke="midnightblue" points="1375.14,-197.16 1370.7,-187.54 1368.17,-197.83 1375.14,-197.16"/>
</g>
<!-- Node7 -->
<g id="node7" class="node">
<title>Node7</title>
<g id="a_node7"><a xlink:title=" ">
<polygon fill="none" stroke="#bfbfbf" points="2140,-168.5 2140,-187.5 2214,-187.5 2214,-168.5 2140,-168.5"/>
<text text-anchor="middle" x="2177" y="-175.5" font-family="Helvetica,sans-Serif" font-size="10.00">petsctime.h</text>
</a>
</g>
</g>
<!-- Node1&#45;&gt;Node7 -->
<g id="edge6" class="edge">
<title>Node1&#45;&gt;Node7</title>
<path fill="none" stroke="midnightblue" d="M1708.22,-735.99C1905.31,-731.76 2544,-711.55 2544,-627 2544,-627 2544,-627 2544,-401 2544,-253.2 2323.4,-201.14 2224.26,-185.2"/>
<polygon fill="midnightblue" stroke="midnightblue" points="2224.63,-181.72 2214.21,-183.64 2223.56,-188.63 2224.63,-181.72"/>
</g>
<!-- Node8 -->
<g id="node8" class="node">
<title>Node8</title>
<g id="a_node8"><a xlink:title=" ">
<polygon fill="none" stroke="#bfbfbf" points="2331.5,-168.5 2331.5,-187.5 2450.5,-187.5 2450.5,-168.5 2331.5,-168.5"/>
<text text-anchor="middle" x="2391" y="-175.5" font-family="Helvetica,sans-Serif" font-size="10.00">petscdmcomposite.h</text>
</a>
</g>
</g>
<!-- Node1&#45;&gt;Node8 -->
<g id="edge7" class="edge">
<title>Node1&#45;&gt;Node8</title>
<path fill="none" stroke="midnightblue" d="M1708.3,-737.04C1926.87,-736.43 2696,-727.16 2696,-627 2696,-627 2696,-627 2696,-457 2696,-311.68 2504.55,-222.13 2425.01,-191.19"/>
<polygon fill="midnightblue" stroke="midnightblue" points="2426.03,-187.84 2415.44,-187.54 2423.54,-194.38 2426.03,-187.84"/>
</g>
<!-- Node9 -->
<g id="node9" class="node">
<title>Node9</title>
<g id="a_node9"><a xlink:href="variables_8h.html" target="_top" xlink:title="Main header file for a complex fluid dynamics solver.">
<polygon fill="none" stroke="black" points="754.5,-56.5 754.5,-75.5 825.5,-75.5 825.5,-56.5 754.5,-56.5"/>
<text text-anchor="middle" x="790" y="-63.5" font-family="Helvetica,sans-Serif" font-size="10.00">variables.h</text>
</a>
</g>
</g>
<!-- Node1&#45;&gt;Node9 -->
<g id="edge8" class="edge">
<title>Node1&#45;&gt;Node9</title>
<path fill="none" stroke="midnightblue" d="M1593.75,-736.47C1351.57,-734.06 417.84,-722.83 290,-692 224.09,-676.11 152,-694.8 152,-627 152,-627 152,-627 152,-457 152,-229.22 320.36,-198.68 531,-112 601.83,-82.85 691.09,-72.58 744.18,-68.96"/>
<polygon fill="midnightblue" stroke="midnightblue" points="744.55,-72.45 754.3,-68.33 744.1,-65.46 744.55,-72.45"/>
</g>
<!-- Node17 -->
<g id="node17" class="node">
<title>Node17</title>
<g id="a_node17"><a xlink:href="ParticleSwarm_8h.html" target="_top" xlink:title="Header file for Particle Motion and migration related functions.">
<polygon fill="none" stroke="black" points="879,-672.5 879,-691.5 975,-691.5 975,-672.5 879,-672.5"/>
<text text-anchor="middle" x="927" y="-679.5" font-family="Helvetica,sans-Serif" font-size="10.00">ParticleSwarm.h</text>
</a>
</g>
</g>
<!-- Node1&#45;&gt;Node17 -->
<g id="edge18" class="edge">
<title>Node1&#45;&gt;Node17</title>
<path fill="none" stroke="midnightblue" d="M1593.86,-732.77C1486.52,-724.83 1247.39,-707.11 1046,-692 1026.21,-690.52 1004.57,-688.88 985.23,-687.42"/>
<polygon fill="midnightblue" stroke="midnightblue" points="985.29,-683.91 975.06,-686.65 984.76,-690.89 985.29,-683.91"/>
</g>
<!-- Node20 -->
<g id="node20" class="node">
<title>Node20</title>
<g id="a_node20"><a xlink:href="logging_8h.html" target="_top" xlink:title="Logging utilities and macros for PETSc&#45;based applications.">
<polygon fill="none" stroke="black" points="672,-560.5 672,-579.5 734,-579.5 734,-560.5 672,-560.5"/>
<text text-anchor="middle" x="703" y="-567.5" font-family="Helvetica,sans-Serif" font-size="10.00">logging.h</text>
</a>
</g>
</g>
<!-- Node1&#45;&gt;Node20 -->
<g id="edge142" class="edge">
<title>Node1&#45;&gt;Node20</title>
<path fill="none" stroke="midnightblue" d="M1593.82,-736.73C1364.68,-735.07 522.07,-723.02 446,-636 440.15,-629.31 440.3,-622.82 446,-616 472.62,-584.12 596.14,-574.77 661.88,-572.07"/>
<polygon fill="midnightblue" stroke="midnightblue" points="662.05,-575.57 671.91,-571.7 661.78,-568.58 662.05,-575.57"/>
</g>
<!-- Node25 -->
<g id="node25" class="node">
<title>Node25</title>
<g id="a_node25"><a xlink:href="walkingsearch_8h.html" target="_top" xlink:title="Header file for particle location functions using the walking search algorithm.">
<polygon fill="none" stroke="black" points="1034,-336.5 1034,-355.5 1130,-355.5 1130,-336.5 1034,-336.5"/>
<text text-anchor="middle" x="1082" y="-343.5" font-family="Helvetica,sans-Serif" font-size="10.00">walkingsearch.h</text>
</a>
</g>
</g>
<!-- Node1&#45;&gt;Node25 -->
<g id="edge140" class="edge">
<title>Node1&#45;&gt;Node25</title>
<path fill="none" stroke="midnightblue" d="M1593.81,-734.46C1537.84,-730.39 1451.02,-719.75 1381,-692 1214.49,-626.02 1130.4,-625.97 1046,-468 1027.5,-433.38 1052.51,-387.97 1069.2,-363.82"/>
<polygon fill="midnightblue" stroke="midnightblue" points="1072.07,-365.82 1075.09,-355.67 1066.39,-361.73 1072.07,-365.82"/>
</g>
<!-- Node26 -->
<g id="node26" class="node">
<title>Node26</title>
<g id="a_node26"><a xlink:href="setup_8h.html" target="_top" xlink:title=" ">
<polygon fill="none" stroke="black" points="1718.5,-280.5 1718.5,-299.5 1771.5,-299.5 1771.5,-280.5 1718.5,-280.5"/>
<text text-anchor="middle" x="1745" y="-287.5" font-family="Helvetica,sans-Serif" font-size="10.00">setup.h</text>
</a>
</g>
</g>
<!-- Node1&#45;&gt;Node26 -->
<g id="edge144" class="edge">
<title>Node1&#45;&gt;Node26</title>
<path fill="none" stroke="midnightblue" d="M1708.09,-731.75C1852.79,-718.18 2222,-679.33 2222,-627 2222,-627 2222,-627 2222,-401 2222,-302.67 1897.12,-318.39 1781.92,-300.71"/>
<polygon fill="midnightblue" stroke="midnightblue" points="1782.22,-297.21 1771.76,-298.95 1781.02,-304.1 1782.22,-297.21"/>
</g>
<!-- Node27 -->
<g id="node27" class="node">
<title>Node27</title>
<g id="a_node27"><a xlink:href="grid_8h.html" target="_top" xlink:title="Public interface for grid, solver, and metric setup routines.">
<polygon fill="none" stroke="black" points="740,-168.5 740,-187.5 784,-187.5 784,-168.5 740,-168.5"/>
<text text-anchor="middle" x="762" y="-175.5" font-family="Helvetica,sans-Serif" font-size="10.00">grid.h</text>
</a>
</g>
</g>
<!-- Node1&#45;&gt;Node27 -->
<g id="edge141" class="edge">
<title>Node1&#45;&gt;Node27</title>
<path fill="none" stroke="midnightblue" d="M1593.7,-736.38C1320.66,-733.28 163.83,-718.6 138,-692 -20.69,-528.53 251.11,-402.82 443,-280 491.97,-248.66 659.37,-204.58 730.07,-186.85"/>
<polygon fill="midnightblue" stroke="midnightblue" points="730.92,-190.24 739.78,-184.43 729.23,-183.45 730.92,-190.24"/>
</g>
<!-- Node28 -->
<g id="node28" class="node">
<title>Node28</title>
<g id="a_node28"><a xlink:href="io_8h.html" target="_top" xlink:title="Public interface for data input/output routines.">
<polygon fill="none" stroke="black" points="557.5,-112.5 557.5,-131.5 592.5,-131.5 592.5,-112.5 557.5,-112.5"/>
<text text-anchor="middle" x="575" y="-119.5" font-family="Helvetica,sans-Serif" font-size="10.00">io.h</text>
</a>
</g>
</g>
<!-- Node1&#45;&gt;Node28 -->
<g id="edge143" class="edge">
<title>Node1&#45;&gt;Node28</title>
<path fill="none" stroke="midnightblue" d="M1593.63,-736.91C1332.43,-736.29 262.17,-731.34 118,-692 60.24,-676.24 0,-686.87 0,-627 0,-627 0,-627 0,-401 0,-154.75 432.74,-126.53 547.4,-123.38"/>
<polygon fill="midnightblue" stroke="midnightblue" points="547.56,-126.88 557.48,-123.15 547.4,-119.88 547.56,-126.88"/>
</g>
<!-- Node29 -->
<g id="node29" class="node">
<title>Node29</title>
<g id="a_node29"><a xlink:href="interpolation_8h.html" target="_top" xlink:title=" ">
<polygon fill="none" stroke="black" points="1592,-224.5 1592,-243.5 1680,-243.5 1680,-224.5 1592,-224.5"/>
<text text-anchor="middle" x="1636" y="-231.5" font-family="Helvetica,sans-Serif" font-size="10.00">interpolation.h</text>
</a>
</g>
</g>
<!-- Node1&#45;&gt;Node29 -->
<g id="edge145" class="edge">
<title>Node1&#45;&gt;Node29</title>
<path fill="none" stroke="midnightblue" d="M1708.23,-734.06C1875.86,-724.67 2354,-692.2 2354,-627 2354,-627 2354,-627 2354,-513 2354,-407.55 2289.86,-384.05 2196,-336 2026.39,-249.17 1794.47,-235.85 1690.42,-234.56"/>
<polygon fill="midnightblue" stroke="midnightblue" points="1690.19,-231.05 1680.16,-234.46 1690.12,-238.05 1690.19,-231.05"/>
</g>
<!-- Node9&#45;&gt;Node3 -->
<g id="edge13" class="edge">
<title>Node9&#45;&gt;Node3</title>
<path fill="none" stroke="midnightblue" d="M825.58,-61.74C923.36,-52.79 1197,-27.75 1319.44,-16.54"/>
<polygon fill="midnightblue" stroke="midnightblue" points="1319.76,-20.03 1329.4,-15.63 1319.13,-13.06 1319.76,-20.03"/>
</g>
<!-- Node9&#45;&gt;Node4 -->
<g id="edge15" class="edge">
<title>Node9&#45;&gt;Node4</title>
<path fill="none" stroke="midnightblue" d="M825.77,-63.93C1056.29,-57.06 2330.34,-19.07 2564.14,-12.1"/>
<polygon fill="midnightblue" stroke="midnightblue" points="2564.58,-15.59 2574.48,-11.79 2564.38,-8.59 2564.58,-15.59"/>
</g>
<!-- Node10 -->
<g id="node10" class="node">
<title>Node10</title>
<g id="a_node10"><a xlink:title=" ">
<polygon fill="none" stroke="#bfbfbf" points="708.5,-0.5 708.5,-19.5 777.5,-19.5 777.5,-0.5 708.5,-0.5"/>
<text text-anchor="middle" x="743" y="-7.5" font-family="Helvetica,sans-Serif" font-size="10.00">petscvec.h</text>
</a>
</g>
</g>
<!-- Node9&#45;&gt;Node10 -->
<g id="edge9" class="edge">
<title>Node9&#45;&gt;Node10</title>
<path fill="none" stroke="midnightblue" d="M782.24,-56.08C775.46,-48.3 765.46,-36.8 757.24,-27.37"/>
<polygon fill="midnightblue" stroke="midnightblue" points="759.82,-25 750.62,-19.75 754.54,-29.59 759.82,-25"/>
</g>
<!-- Node11 -->
<g id="node11" class="node">
<title>Node11</title>
<g id="a_node11"><a xlink:title=" ">
<polygon fill="none" stroke="#bfbfbf" points="796,-0.5 796,-19.5 876,-19.5 876,-0.5 796,-0.5"/>
<text text-anchor="middle" x="836" y="-7.5" font-family="Helvetica,sans-Serif" font-size="10.00">petscdmda.h</text>
</a>
</g>
</g>
<!-- Node9&#45;&gt;Node11 -->
<g id="edge10" class="edge">
<title>Node9&#45;&gt;Node11</title>
<path fill="none" stroke="midnightblue" d="M797.6,-56.08C804.23,-48.3 814.02,-36.8 822.06,-27.37"/>
<polygon fill="midnightblue" stroke="midnightblue" points="824.73,-29.63 828.55,-19.75 819.4,-25.09 824.73,-29.63"/>
</g>
<!-- Node12 -->
<g id="node12" class="node">
<title>Node12</title>
<g id="a_node12"><a xlink:title=" ">
<polygon fill="none" stroke="#bfbfbf" points="894.5,-0.5 894.5,-19.5 963.5,-19.5 963.5,-0.5 894.5,-0.5"/>
<text text-anchor="middle" x="929" y="-7.5" font-family="Helvetica,sans-Serif" font-size="10.00">petscksp.h</text>
</a>
</g>
</g>
<!-- Node9&#45;&gt;Node12 -->
<g id="edge11" class="edge">
<title>Node9&#45;&gt;Node12</title>
<path fill="none" stroke="midnightblue" d="M812.02,-56.44C835.1,-47.48 871.56,-33.31 897.64,-23.18"/>
<polygon fill="midnightblue" stroke="midnightblue" points="899.02,-26.4 907.08,-19.52 896.49,-19.88 899.02,-26.4"/>
</g>
<!-- Node13 -->
<g id="node13" class="node">
<title>Node13</title>
<g id="a_node13"><a xlink:title=" ">
<polygon fill="none" stroke="#bfbfbf" points="982,-0.5 982,-19.5 1056,-19.5 1056,-0.5 982,-0.5"/>
<text text-anchor="middle" x="1019" y="-7.5" font-family="Helvetica,sans-Serif" font-size="10.00">petscsnes.h</text>
</a>
</g>
</g>
<!-- Node9&#45;&gt;Node13 -->
<g id="edge12" class="edge">
<title>Node9&#45;&gt;Node13</title>
<path fill="none" stroke="midnightblue" d="M825.78,-56.56C865.46,-47.21 929.58,-32.08 972.97,-21.85"/>
<polygon fill="midnightblue" stroke="midnightblue" points="973.78,-25.26 982.71,-19.56 972.18,-18.45 973.78,-25.26"/>
</g>
<!-- Node14 -->
<g id="node14" class="node">
<title>Node14</title>
<g id="a_node14"><a xlink:title=" ">
<polygon fill="none" stroke="#bfbfbf" points="566,-0.5 566,-19.5 616,-19.5 616,-0.5 566,-0.5"/>
<text text-anchor="middle" x="591" y="-7.5" font-family="Helvetica,sans-Serif" font-size="10.00">stdio.h</text>
</a>
</g>
</g>
<!-- Node9&#45;&gt;Node14 -->
<g id="edge14" class="edge">
<title>Node9&#45;&gt;Node14</title>
<path fill="none" stroke="midnightblue" d="M758.47,-56.44C722.4,-46.66 663.52,-30.68 626.05,-20.51"/>
<polygon fill="midnightblue" stroke="midnightblue" points="626.65,-17.05 616.08,-17.81 624.82,-23.8 626.65,-17.05"/>
</g>
<!-- Node15 -->
<g id="node15" class="node">
<title>Node15</title>
<g id="a_node15"><a xlink:title=" ">
<polygon fill="none" stroke="#bfbfbf" points="290.5,-0.5 290.5,-19.5 343.5,-19.5 343.5,-0.5 290.5,-0.5"/>
<text text-anchor="middle" x="317" y="-7.5" font-family="Helvetica,sans-Serif" font-size="10.00">string.h</text>
</a>
</g>
</g>
<!-- Node9&#45;&gt;Node15 -->
<g id="edge16" class="edge">
<title>Node9&#45;&gt;Node15</title>
<path fill="none" stroke="midnightblue" d="M754.45,-60.94C667.01,-50.96 442.21,-25.29 353.64,-15.18"/>
<polygon fill="midnightblue" stroke="midnightblue" points="353.87,-11.69 343.54,-14.03 353.07,-18.64 353.87,-11.69"/>
</g>
<!-- Node16 -->
<g id="node16" class="node">
<title>Node16</title>
<g id="a_node16"><a xlink:title=" ">
<polygon fill="none" stroke="#bfbfbf" points="634,-0.5 634,-19.5 690,-19.5 690,-0.5 634,-0.5"/>
<text text-anchor="middle" x="662" y="-7.5" font-family="Helvetica,sans-Serif" font-size="10.00">unistd.h</text>
</a>
</g>
</g>
<!-- Node9&#45;&gt;Node16 -->
<g id="edge17" class="edge">
<title>Node9&#45;&gt;Node16</title>
<path fill="none" stroke="midnightblue" d="M769.72,-56.44C748.65,-47.56 715.48,-33.56 691.51,-23.45"/>
<polygon fill="midnightblue" stroke="midnightblue" points="692.76,-20.18 682.19,-19.52 690.04,-26.63 692.76,-20.18"/>
</g>
<!-- Node17&#45;&gt;Node3 -->
<g id="edge20" class="edge">
<title>Node17&#45;&gt;Node3</title>
<path fill="none" stroke="midnightblue" d="M950.47,-672.47C968.94,-664.93 994.56,-652.54 1013,-636 1057.59,-595.99 1070.58,-581.32 1088,-524 1097.89,-491.46 1058.25,-474.95 1079,-448 1117.14,-398.45 1176.86,-461.55 1215,-412 1220.42,-404.96 1216.44,-400.77 1215,-392 1203.74,-323.49 1176.26,-312.51 1165,-244 1159.47,-210.38 1163.17,-199.95 1175,-168 1197.37,-107.59 1212.74,-90.72 1267,-56 1289.62,-41.53 1317.66,-30.33 1340.14,-22.72"/>
<polygon fill="midnightblue" stroke="midnightblue" points="1341.31,-26.02 1349.72,-19.58 1339.13,-19.37 1341.31,-26.02"/>
</g>
<!-- Node17&#45;&gt;Node6 -->
<g id="edge22" class="edge">
<title>Node17&#45;&gt;Node6</title>
<path fill="none" stroke="midnightblue" d="M942.69,-672.4C969.67,-656.31 1022,-618.94 1022,-571 1022,-571 1022,-571 1022,-513 1022,-474.58 1046.34,-468.24 1079,-448 1132.15,-415.06 1164.16,-448.39 1215,-412 1295.29,-354.52 1345.79,-241.45 1363.19,-197.29"/>
<polygon fill="midnightblue" stroke="midnightblue" points="1366.51,-198.43 1366.82,-187.84 1359.97,-195.92 1366.51,-198.43"/>
</g>
<!-- Node17&#45;&gt;Node9 -->
<g id="edge23" class="edge">
<title>Node17&#45;&gt;Node9</title>
<path fill="none" stroke="midnightblue" d="M878.75,-680.17C721.82,-676.72 228.32,-659.62 94,-580 61.2,-560.56 38,-553.13 38,-515 38,-515 38,-515 38,-401 38,-264.94 20.64,-179.1 139,-112 191.29,-82.36 604.27,-70.94 743.98,-67.9"/>
<polygon fill="midnightblue" stroke="midnightblue" points="744.41,-71.39 754.34,-67.68 744.26,-64.39 744.41,-71.39"/>
</g>
<!-- Node18 -->
<g id="node18" class="node">
<title>Node18</title>
<g id="a_node18"><a xlink:title=" ">
<polygon fill="none" stroke="#bfbfbf" points="452,-280.5 452,-299.5 504,-299.5 504,-280.5 452,-280.5"/>
<text text-anchor="middle" x="478" y="-287.5" font-family="Helvetica,sans-Serif" font-size="10.00">petsc.h</text>
</a>
</g>
</g>
<!-- Node17&#45;&gt;Node18 -->
<g id="edge19" class="edge">
<title>Node17&#45;&gt;Node18</title>
<path fill="none" stroke="midnightblue" d="M878.87,-679.86C764.6,-676.66 484.31,-665.84 455,-636 365.1,-544.49 441.32,-365.35 468.96,-308.65"/>
<polygon fill="midnightblue" stroke="midnightblue" points="472.17,-310.05 473.51,-299.54 465.91,-306.92 472.17,-310.05"/>
</g>
<!-- Node19 -->
<g id="node19" class="node">
<title>Node19</title>
<g id="a_node19"><a xlink:title=" ">
<polygon fill="none" stroke="#bfbfbf" points="954,-280.5 954,-299.5 1016,-299.5 1016,-280.5 954,-280.5"/>
<text text-anchor="middle" x="985" y="-287.5" font-family="Helvetica,sans-Serif" font-size="10.00">stdbool.h</text>
</a>
</g>
</g>
<!-- Node17&#45;&gt;Node19 -->
<g id="edge21" class="edge">
<title>Node17&#45;&gt;Node19</title>
<path fill="none" stroke="midnightblue" d="M878.8,-679.26C794.76,-673.84 633.07,-651.53 663,-560 708.51,-420.8 881.13,-334.33 953.15,-303.62"/>
<polygon fill="midnightblue" stroke="midnightblue" points="954.74,-306.75 962.62,-299.66 952.04,-300.29 954.74,-306.75"/>
</g>
<!-- Node17&#45;&gt;Node20 -->
<g id="edge24" class="edge">
<title>Node17&#45;&gt;Node20</title>
<path fill="none" stroke="midnightblue" d="M909.42,-672.37C870.33,-653.17 775.99,-606.84 729.62,-584.07"/>
<polygon fill="midnightblue" stroke="midnightblue" points="731.01,-580.86 720.5,-579.59 727.93,-587.14 731.01,-580.86"/>
</g>
<!-- Node17&#45;&gt;Node25 -->
<g id="edge131" class="edge">
<title>Node17&#45;&gt;Node25</title>
<path fill="none" stroke="midnightblue" d="M918.83,-672.38C903.07,-654.81 870,-612.94 870,-571 870,-571 870,-571 870,-513 870,-427.09 979.25,-378.98 1040.89,-358.67"/>
<polygon fill="midnightblue" stroke="midnightblue" points="1042.26,-361.91 1050.72,-355.54 1040.13,-355.24 1042.26,-361.91"/>
</g>
<!-- Node17&#45;&gt;Node28 -->
<g id="edge139" class="edge">
<title>Node17&#45;&gt;Node28</title>
<path fill="none" stroke="midnightblue" d="M878.76,-680.01C790.2,-677.43 596.06,-668.26 436,-636 355.12,-619.7 337.22,-606.26 259,-580 177.18,-552.53 76,-601.31 76,-515 76,-515 76,-515 76,-457 76,-228.45 441.99,-146.4 547.09,-127.54"/>
<polygon fill="midnightblue" stroke="midnightblue" points="547.99,-130.94 557.24,-125.78 546.79,-124.04 547.99,-130.94"/>
</g>
<!-- Node34 -->
<g id="node34" class="node">
<title>Node34</title>
<g id="a_node34"><a xlink:href="Metric_8h.html" target="_top" xlink:title=" ">
<polygon fill="none" stroke="black" points="464,-616.5 464,-635.5 520,-635.5 520,-616.5 464,-616.5"/>
<text text-anchor="middle" x="492" y="-623.5" font-family="Helvetica,sans-Serif" font-size="10.00">Metric.h</text>
</a>
</g>
</g>
<!-- Node17&#45;&gt;Node34 -->
<g id="edge132" class="edge">
<title>Node17&#45;&gt;Node34</title>
<path fill="none" stroke="midnightblue" d="M878.69,-676.99C804.34,-670.48 657.51,-656.26 534,-636 532.76,-635.8 531.5,-635.58 530.23,-635.35"/>
<polygon fill="midnightblue" stroke="midnightblue" points="530.87,-631.92 520.4,-633.48 529.56,-638.79 530.87,-631.92"/>
</g>
<!-- Node20&#45;&gt;Node1 -->
<g id="edge31" class="edge">
<title>Node20&#45;&gt;Node1</title>
<path fill="none" stroke="midnightblue" d="M671.75,-572.11C613.05,-574.86 490.5,-584.26 464,-616 458.3,-622.82 458.15,-629.31 464,-636 538.27,-720.97 1343.33,-734.46 1583.68,-736.6"/>
<polygon fill="midnightblue" stroke="midnightblue" points="1583.66,-740.1 1593.69,-736.68 1583.72,-733.1 1583.66,-740.1"/>
</g>
<!-- Node20&#45;&gt;Node4 -->
<g id="edge26" class="edge">
<title>Node20&#45;&gt;Node4</title>
<path fill="none" stroke="midnightblue" d="M734.13,-568.34C858.2,-565.56 1329.4,-553.54 1716,-524 1946.01,-506.43 2006.07,-514.58 2232,-468 2448.17,-423.44 2696,-511.72 2696,-291 2696,-291 2696,-291 2696,-121 2696,-77.74 2653.39,-43.09 2625.25,-24.91"/>
<polygon fill="midnightblue" stroke="midnightblue" points="2627.03,-21.9 2616.69,-19.6 2623.34,-27.85 2627.03,-21.9"/>
</g>
<!-- Node20&#45;&gt;Node9 -->
<g id="edge30" class="edge">
<title>Node20&#45;&gt;Node9</title>
<path fill="none" stroke="midnightblue" d="M671.85,-564.79C639.3,-559.31 587.68,-547.51 549,-524 347.34,-401.4 53.75,-285.26 214,-112 249.77,-73.33 614.66,-67.82 744.47,-67.09"/>
<polygon fill="midnightblue" stroke="midnightblue" points="744.5,-70.59 754.49,-67.04 744.47,-63.59 744.5,-70.59"/>
</g>
<!-- Node20&#45;&gt;Node15 -->
<g id="edge27" class="edge">
<title>Node20&#45;&gt;Node15</title>
<path fill="none" stroke="midnightblue" d="M671.64,-564.6C564.31,-547.6 212.08,-475.14 100,-244 73.31,-188.96 93.8,-153.22 139,-112 183.83,-71.13 248.04,-39.85 285.84,-23.54"/>
<polygon fill="midnightblue" stroke="midnightblue" points="287.46,-26.66 295.31,-19.54 284.73,-20.21 287.46,-26.66"/>
</g>
<!-- Node20&#45;&gt;Node18 -->
<g id="edge25" class="edge">
<title>Node20&#45;&gt;Node18</title>
<path fill="none" stroke="midnightblue" d="M671.54,-562.37C647.8,-555.99 615.72,-544.24 594,-524 527.24,-461.78 493.62,-352.73 482.4,-309.45"/>
<polygon fill="midnightblue" stroke="midnightblue" points="485.74,-308.36 479.92,-299.51 478.94,-310.06 485.74,-308.36"/>
</g>
<!-- Node21 -->
<g id="node21" class="node">
<title>Node21</title>
<g id="a_node21"><a xlink:title=" ">
<polygon fill="none" stroke="#bfbfbf" points="1195,-168.5 1195,-187.5 1263,-187.5 1263,-168.5 1195,-168.5"/>
<text text-anchor="middle" x="1229" y="-175.5" font-family="Helvetica,sans-Serif" font-size="10.00">petscsys.h</text>
</a>
</g>
</g>
<!-- Node20&#45;&gt;Node21 -->
<g id="edge28" class="edge">
<title>Node20&#45;&gt;Node21</title>
<path fill="none" stroke="midnightblue" d="M701.03,-560.12C698.6,-547.16 695.74,-522.56 704,-504 763.45,-370.4 819.97,-355.84 945,-280 1023.08,-232.63 1126.69,-202.91 1184.74,-188.79"/>
<polygon fill="midnightblue" stroke="midnightblue" points="1185.77,-192.14 1194.68,-186.41 1184.14,-185.33 1185.77,-192.14"/>
</g>
<!-- Node22 -->
<g id="node22" class="node">
<title>Node22</title>
<g id="a_node22"><a xlink:title=" ">
<polygon fill="none" stroke="#bfbfbf" points="750.5,-504.5 750.5,-523.5 803.5,-523.5 803.5,-504.5 750.5,-504.5"/>
<text text-anchor="middle" x="777" y="-511.5" font-family="Helvetica,sans-Serif" font-size="10.00">ctype.h</text>
</a>
</g>
</g>
<!-- Node20&#45;&gt;Node22 -->
<g id="edge29" class="edge">
<title>Node20&#45;&gt;Node22</title>
<path fill="none" stroke="midnightblue" d="M714.89,-560.32C726.15,-552.11 743.29,-539.6 756.71,-529.81"/>
<polygon fill="midnightblue" stroke="midnightblue" points="758.88,-532.56 764.89,-523.83 754.75,-526.9 758.88,-532.56"/>
</g>
<!-- Node23 -->
<g id="node23" class="node">
<title>Node23</title>
<g id="a_node23"><a xlink:href="Boundaries_8h.html" target="_top" xlink:title=" ">
<polygon fill="none" stroke="black" points="1467,-504.5 1467,-523.5 1547,-523.5 1547,-504.5 1467,-504.5"/>
<text text-anchor="middle" x="1507" y="-511.5" font-family="Helvetica,sans-Serif" font-size="10.00">Boundaries.h</text>
</a>
</g>
</g>
<!-- Node20&#45;&gt;Node23 -->
<g id="edge32" class="edge">
<title>Node20&#45;&gt;Node23</title>
<path fill="none" stroke="midnightblue" d="M734.1,-566.71C856.43,-558.17 1304.36,-528.07 1456.28,-518.18"/>
<polygon fill="midnightblue" stroke="midnightblue" points="1456.95,-521.64 1466.7,-517.5 1456.49,-514.66 1456.95,-521.64"/>
</g>
<!-- Node23&#45;&gt;Node1 -->
<g id="edge105" class="edge">
<title>Node23&#45;&gt;Node1</title>
<path fill="none" stroke="midnightblue" d="M1512.76,-523.88C1534.37,-557.2 1610.85,-675.11 1639.79,-719.72"/>
<polygon fill="midnightblue" stroke="midnightblue" points="1636.98,-721.81 1645.36,-728.3 1642.85,-718 1636.98,-721.81"/>
</g>
<!-- Node23&#45;&gt;Node2 -->
<g id="edge33" class="edge">
<title>Node23&#45;&gt;Node2</title>
<path fill="none" stroke="midnightblue" d="M1547.3,-510.99C1639.1,-506.04 1861.27,-491.92 1932,-468 2023.29,-437.13 2222.75,-263.87 2241,-244 2254.31,-229.51 2266.14,-210.32 2273.82,-196.56"/>
<polygon fill="midnightblue" stroke="midnightblue" points="2276.97,-198.1 2278.65,-187.64 2270.81,-194.77 2276.97,-198.1"/>
</g>
<!-- Node23&#45;&gt;Node3 -->
<g id="edge34" class="edge">
<title>Node23&#45;&gt;Node3</title>
<path fill="none" stroke="midnightblue" d="M1547.03,-512.48C1757.99,-508.44 2721.37,-473.23 2460,-168 2392.9,-89.64 1658.29,-30.98 1440.5,-15.21"/>
<polygon fill="midnightblue" stroke="midnightblue" points="1440.76,-11.72 1430.53,-14.49 1440.25,-18.7 1440.76,-11.72"/>
</g>
<!-- Node23&#45;&gt;Node4 -->
<g id="edge35" class="edge">
<title>Node23&#45;&gt;Node4</title>
<path fill="none" stroke="midnightblue" d="M1547.05,-512.95C1650.33,-512.25 1933.82,-506.66 2166,-468 2260.86,-452.21 2285.99,-448.41 2375,-412 2525.79,-350.32 2658,-341.92 2658,-179 2658,-179 2658,-179 2658,-121 2658,-84.3 2632.68,-47.66 2615.79,-27.3"/>
<polygon fill="midnightblue" stroke="midnightblue" points="2618.35,-24.9 2609.17,-19.62 2613.05,-29.48 2618.35,-24.9"/>
</g>
<!-- Node23&#45;&gt;Node5 -->
<g id="edge36" class="edge">
<title>Node23&#45;&gt;Node5</title>
<path fill="none" stroke="midnightblue" d="M1547.24,-513.23C1612.82,-512.4 1745.98,-505.69 1851,-468 1939.33,-436.3 1967.13,-425.67 2030,-356 2067.15,-314.83 2072.45,-298.02 2085,-244 2087.01,-235.34 2087.23,-232.6 2085,-224 2082.45,-214.18 2077.25,-204.21 2072.24,-196.17"/>
<polygon fill="midnightblue" stroke="midnightblue" points="2075.08,-194.11 2066.63,-187.73 2069.25,-197.99 2075.08,-194.11"/>
</g>
<!-- Node23&#45;&gt;Node6 -->
<g id="edge37" class="edge">
<title>Node23&#45;&gt;Node6</title>
<path fill="none" stroke="midnightblue" d="M1507.3,-504.43C1507.53,-491.84 1507.15,-467.71 1502,-448 1475.39,-346.21 1408.44,-237.36 1381.5,-196.14"/>
<polygon fill="midnightblue" stroke="midnightblue" points="1384.4,-194.18 1375.97,-187.77 1378.56,-198.04 1384.4,-194.18"/>
</g>
<!-- Node23&#45;&gt;Node7 -->
<g id="edge38" class="edge">
<title>Node23&#45;&gt;Node7</title>
<path fill="none" stroke="midnightblue" d="M1547.07,-513.12C1618.17,-512.3 1770.38,-505.78 1892,-468 1942.88,-452.19 1955.42,-444.02 1998,-412 2081.03,-349.56 2145.25,-238.99 2168.03,-196.4"/>
<polygon fill="midnightblue" stroke="midnightblue" points="2171.14,-198.01 2172.7,-187.53 2164.94,-194.75 2171.14,-198.01"/>
</g>
<!-- Node23&#45;&gt;Node8 -->
<g id="edge40" class="edge">
<title>Node23&#45;&gt;Node8</title>
<path fill="none" stroke="midnightblue" d="M1547.32,-511.34C1644.54,-506.96 1889.49,-493.66 1967,-468 2148.02,-408.06 2322.75,-246.31 2375.16,-194.91"/>
<polygon fill="midnightblue" stroke="midnightblue" points="2377.86,-197.16 2382.5,-187.64 2372.93,-192.19 2377.86,-197.16"/>
</g>
<!-- Node23&#45;&gt;Node9 -->
<g id="edge42" class="edge">
<title>Node23&#45;&gt;Node9</title>
<path fill="none" stroke="midnightblue" d="M1475.26,-504.49C1443.43,-495.81 1393.09,-481.72 1350,-468 1324.42,-459.85 1319.1,-454.3 1293,-448 1178.75,-420.4 1142.02,-450.6 1031,-412 984.71,-395.91 977.14,-382.64 936,-356 871.37,-314.15 812,-312 812,-235 812,-235 812,-235 812,-177 812,-144.33 802.55,-107.24 796.04,-85.55"/>
<polygon fill="midnightblue" stroke="midnightblue" points="799.29,-84.22 792.97,-75.72 792.61,-86.31 799.29,-84.22"/>
</g>
<!-- Node23&#45;&gt;Node17 -->
<g id="edge43" class="edge">
<title>Node23&#45;&gt;Node17</title>
<path fill="none" stroke="midnightblue" d="M1500.54,-523.71C1482.85,-546.81 1430.89,-609.68 1371,-636 1303.3,-665.75 1089.68,-676.15 985.41,-679.52"/>
<polygon fill="midnightblue" stroke="midnightblue" points="985.25,-676.02 975.37,-679.84 985.47,-683.02 985.25,-676.02"/>
</g>
<!-- Node23&#45;&gt;Node20 -->
<g id="edge102" class="edge">
<title>Node23&#45;&gt;Node20</title>
<path fill="none" stroke="midnightblue" d="M1466.74,-517.92C1329.79,-527.44 883.41,-557.41 744.54,-566.42"/>
<polygon fill="midnightblue" stroke="midnightblue" points="744.08,-562.94 734.33,-567.08 744.53,-569.93 744.08,-562.94"/>
</g>
<!-- Node23&#45;&gt;Node21 -->
<g id="edge39" class="edge">
<title>Node23&#45;&gt;Node21</title>
<path fill="none" stroke="midnightblue" d="M1499.85,-504.41C1462.83,-459.93 1292.72,-255.56 1242.81,-195.59"/>
<polygon fill="midnightblue" stroke="midnightblue" points="1245.19,-192.98 1236.1,-187.54 1239.81,-197.46 1245.19,-192.98"/>
</g>
<!-- Node24 -->
<g id="node24" class="node">
<title>Node24</title>
<g id="a_node24"><a xlink:title=" ">
<polygon fill="none" stroke="#bfbfbf" points="1964.5,-224.5 1964.5,-243.5 2059.5,-243.5 2059.5,-224.5 1964.5,-224.5"/>
<text text-anchor="middle" x="2012" y="-231.5" font-family="Helvetica,sans-Serif" font-size="10.00">petscsystypes.h</text>
</a>
</g>
</g>
<!-- Node23&#45;&gt;Node24 -->
<g id="edge41" class="edge">
<title>Node23&#45;&gt;Node24</title>
<path fill="none" stroke="midnightblue" d="M1547.27,-504.8C1577.5,-497.67 1619.29,-485.67 1653,-468 1772.7,-405.26 1774.23,-346.29 1892,-280 1917.19,-265.82 1947.73,-254.44 1971.69,-246.67"/>
<polygon fill="midnightblue" stroke="midnightblue" points="1973.04,-249.92 1981.52,-243.57 1970.93,-243.24 1973.04,-249.92"/>
</g>
<!-- Node23&#45;&gt;Node25 -->
<g id="edge44" class="edge">
<title>Node23&#45;&gt;Node25</title>
<path fill="none" stroke="midnightblue" d="M1481.56,-504.4C1457.21,-495.94 1419.62,-482.24 1388,-468 1370.6,-460.17 1368.15,-453.9 1350,-448 1243.65,-413.46 1185.43,-485.31 1101,-412 1087.84,-400.58 1083.55,-380.59 1082.27,-365.79"/>
<polygon fill="midnightblue" stroke="midnightblue" points="1085.76,-365.52 1081.78,-355.71 1078.77,-365.86 1085.76,-365.52"/>
</g>
<!-- Node23&#45;&gt;Node27 -->
<g id="edge101" class="edge">
<title>Node23&#45;&gt;Node27</title>
<path fill="none" stroke="midnightblue" d="M1471.78,-504.44C1401.1,-487.28 1247.69,-450.12 1236,-448 1107.33,-424.71 1069.38,-449.13 944,-412 860.07,-387.15 824.93,-376.28 782,-300 769.11,-277.1 767.48,-269.9 763,-244 760.35,-228.69 760.26,-211.05 760.75,-198.01"/>
<polygon fill="midnightblue" stroke="midnightblue" points="764.25,-198.08 761.27,-187.91 757.26,-197.72 764.25,-198.08"/>
</g>
<!-- Node23&#45;&gt;Node28 -->
<g id="edge103" class="edge">
<title>Node23&#45;&gt;Node28</title>
<path fill="none" stroke="midnightblue" d="M1466.91,-509.63C1411.79,-504.02 1310.45,-491.02 1227,-468 1203.53,-461.53 1199.62,-453.92 1176,-448 1043.17,-414.73 999.35,-456.94 870,-412 753.12,-371.39 734.15,-332.82 648,-244 624.77,-220.05 616.65,-215.67 598,-188 588.11,-173.33 579.43,-155.17 575.11,-141.77"/>
<polygon fill="midnightblue" stroke="midnightblue" points="578.43,-140.65 572.57,-131.82 571.65,-142.38 578.43,-140.65"/>
</g>
<!-- Node23&#45;&gt;Node29 -->
<g id="edge104" class="edge">
<title>Node23&#45;&gt;Node29</title>
<path fill="none" stroke="midnightblue" d="M1525.64,-504.44C1556.29,-488.93 1614,-453.09 1614,-403 1614,-403 1614,-403 1614,-345 1614,-312.33 1623.45,-275.24 1629.96,-253.55"/>
<polygon fill="midnightblue" stroke="midnightblue" points="1633.39,-254.31 1633.03,-243.72 1626.71,-252.22 1633.39,-254.31"/>
</g>
<!-- Node31 -->
<g id="node31" class="node">
<title>Node31</title>
<g id="a_node31"><a xlink:href="ParticleMotion_8h.html" target="_top" xlink:title=" ">
<polygon fill="none" stroke="black" points="1110,-392.5 1110,-411.5 1206,-411.5 1206,-392.5 1110,-392.5"/>
<text text-anchor="middle" x="1158" y="-399.5" font-family="Helvetica,sans-Serif" font-size="10.00">ParticleMotion.h</text>
</a>
</g>
</g>
<!-- Node23&#45;&gt;Node31 -->
<g id="edge106" class="edge">
<title>Node23&#45;&gt;Node31</title>
<path fill="none" stroke="midnightblue" d="M1494.41,-504.41C1473.34,-490.45 1429.18,-462.87 1388,-448 1331.49,-427.59 1263.65,-415.75 1216.35,-409.39"/>
<polygon fill="midnightblue" stroke="midnightblue" points="1216.65,-405.9 1206.28,-408.08 1215.74,-412.84 1216.65,-405.9"/>
</g>
<!-- Node32 -->
<g id="node32" class="node">
<title>Node32</title>
<g id="a_node32"><a xlink:href="BC__Handlers_8h.html" target="_top" xlink:title=" ">
<polygon fill="none" stroke="black" points="1088,-448.5 1088,-467.5 1176,-467.5 1176,-448.5 1088,-448.5"/>
<text text-anchor="middle" x="1132" y="-455.5" font-family="Helvetica,sans-Serif" font-size="10.00">BC_Handlers.h</text>
</a>
</g>
</g>
<!-- Node23&#45;&gt;Node32 -->
<g id="edge107" class="edge">
<title>Node23&#45;&gt;Node32</title>
<path fill="none" stroke="midnightblue" d="M1466.75,-508.22C1406.85,-500.41 1291.07,-484.28 1186.21,-468.77"/>
<polygon fill="midnightblue" stroke="midnightblue" points="1186.5,-465.27 1176.1,-467.27 1185.48,-472.2 1186.5,-465.27"/>
</g>
<!-- Node33 -->
<g id="node33" class="node">
<title>Node33</title>
<g id="a_node33"><a xlink:href="wallfunction_8h.html" target="_top" xlink:title=" ">
<polygon fill="none" stroke="black" points="1756,-448.5 1756,-467.5 1842,-467.5 1842,-448.5 1756,-448.5"/>
<text text-anchor="middle" x="1799" y="-455.5" font-family="Helvetica,sans-Serif" font-size="10.00">wallfunction.h</text>
</a>
</g>
</g>
<!-- Node23&#45;&gt;Node33 -->
<g id="edge111" class="edge">
<title>Node23&#45;&gt;Node33</title>
<path fill="none" stroke="midnightblue" d="M1547.26,-504.62C1598.97,-494.64 1688.65,-478.05 1745.9,-467.87"/>
<polygon fill="midnightblue" stroke="midnightblue" points="1746.61,-471.3 1755.84,-466.1 1745.38,-464.4 1746.61,-471.3"/>
</g>
<!-- Node25&#45;&gt;Node6 -->
<g id="edge47" class="edge">
<title>Node25&#45;&gt;Node6</title>
<path fill="none" stroke="midnightblue" d="M1087.07,-336.39C1100.67,-314.07 1140.35,-254 1190,-224 1235.11,-196.74 1296.08,-185.95 1334.22,-181.7"/>
<polygon fill="midnightblue" stroke="midnightblue" points="1334.74,-185.17 1344.34,-180.67 1334.03,-178.2 1334.74,-185.17"/>
</g>
<!-- Node25&#45;&gt;Node9 -->
<g id="edge48" class="edge">
<title>Node25&#45;&gt;Node9</title>
<path fill="none" stroke="midnightblue" d="M1074.54,-336.26C1059.86,-318.96 1026.35,-279.01 1000,-244 956.99,-186.87 964.35,-156.03 908,-112 886.76,-95.41 858.71,-84.37 835.28,-77.38"/>
<polygon fill="midnightblue" stroke="midnightblue" points="836.14,-73.99 825.56,-74.63 834.23,-80.72 836.14,-73.99"/>
</g>
<!-- Node25&#45;&gt;Node18 -->
<g id="edge45" class="edge">
<title>Node25&#45;&gt;Node18</title>
<path fill="none" stroke="midnightblue" d="M1033.85,-340.69C916.45,-330.2 617.52,-303.47 513.97,-294.22"/>
<polygon fill="midnightblue" stroke="midnightblue" points="514.28,-290.73 504,-293.32 513.65,-297.7 514.28,-290.73"/>
</g>
<!-- Node25&#45;&gt;Node19 -->
<g id="edge46" class="edge">
<title>Node25&#45;&gt;Node19</title>
<path fill="none" stroke="midnightblue" d="M1066.42,-336.32C1051,-327.74 1027.19,-314.49 1009.29,-304.52"/>
<polygon fill="midnightblue" stroke="midnightblue" points="1010.99,-301.46 1000.55,-299.65 1007.58,-307.58 1010.99,-301.46"/>
</g>
<!-- Node25&#45;&gt;Node20 -->
<g id="edge49" class="edge">
<title>Node25&#45;&gt;Node20</title>
<path fill="none" stroke="midnightblue" d="M1033.83,-352.78C981.42,-359.9 901.88,-373.38 878,-392 826.27,-432.33 860.02,-479.32 812,-524 793.15,-541.53 766.52,-552.7 744.3,-559.52"/>
<polygon fill="midnightblue" stroke="midnightblue" points="743.09,-556.23 734.45,-562.36 745.03,-562.96 743.09,-556.23"/>
</g>
<!-- Node25&#45;&gt;Node26 -->
<g id="edge50" class="edge">
<title>Node25&#45;&gt;Node26</title>
<path fill="none" stroke="midnightblue" d="M1130.18,-340.76C1256.66,-330.13 1595.66,-302.54 1708.21,-293.74"/>
<polygon fill="midnightblue" stroke="midnightblue" points="1708.68,-297.21 1718.38,-292.95 1708.13,-290.23 1708.68,-297.21"/>
</g>
<!-- Node26&#45;&gt;Node1 -->
<g id="edge90" class="edge">
<title>Node26&#45;&gt;Node1</title>
<path fill="none" stroke="midnightblue" d="M1771.73,-295.21C1779.4,-296.79 1787.56,-298.54 1795,-300 1894.51,-319.48 2240,-299.6 2240,-401 2240,-627 2240,-627 2240,-627 2240,-679.16 1873.24,-717.92 1718.49,-731.61"/>
<polygon fill="midnightblue" stroke="midnightblue" points="1717.82,-728.16 1708.16,-732.52 1718.43,-735.13 1717.82,-728.16"/>
</g>
<!-- Node26&#45;&gt;Node2 -->
<g id="edge51" class="edge">
<title>Node26&#45;&gt;Node2</title>
<path fill="none" stroke="midnightblue" d="M1771.53,-280.89C1798.58,-272.42 1841.62,-258.38 1878,-244 1897.98,-236.1 1901.31,-229.79 1922,-224 2051.75,-187.7 2089.48,-206 2223,-188 2229.23,-187.16 2235.82,-186.22 2242.27,-185.28"/>
<polygon fill="midnightblue" stroke="midnightblue" points="2242.82,-188.73 2252.19,-183.8 2241.79,-181.81 2242.82,-188.73"/>
</g>
<!-- Node26&#45;&gt;Node3 -->
<g id="edge52" class="edge">
<title>Node26&#45;&gt;Node3</title>
<path fill="none" stroke="midnightblue" d="M1745.13,-280.44C1745.4,-261.94 1746,-216.81 1746,-179 1746,-179 1746,-179 1746,-121 1746,-57.99 1544.55,-27.93 1440.56,-16.61"/>
<polygon fill="midnightblue" stroke="midnightblue" points="1440.82,-13.12 1430.51,-15.54 1440.08,-20.08 1440.82,-13.12"/>
</g>
<!-- Node26&#45;&gt;Node4 -->
<g id="edge53" class="edge">
<title>Node26&#45;&gt;Node4</title>
<path fill="none" stroke="midnightblue" d="M1750.39,-280.39C1759.62,-266.38 1779.8,-238.75 1804,-224 2065.46,-64.61 2446.09,-22.89 2564.48,-13.46"/>
<polygon fill="midnightblue" stroke="midnightblue" points="2564.77,-16.95 2574.47,-12.7 2564.23,-9.97 2564.77,-16.95"/>
</g>
<!-- Node26&#45;&gt;Node5 -->
<g id="edge54" class="edge">
<title>Node26&#45;&gt;Node5</title>
<path fill="none" stroke="midnightblue" d="M1755.48,-280.38C1773.06,-266.37 1810.12,-238.73 1846,-224 1906.51,-199.16 1982.51,-187.37 2025.73,-182.32"/>
<polygon fill="midnightblue" stroke="midnightblue" points="2026.18,-185.79 2035.73,-181.2 2025.4,-178.83 2026.18,-185.79"/>
</g>
<!-- Node26&#45;&gt;Node6 -->
<g id="edge55" class="edge">
<title>Node26&#45;&gt;Node6</title>
<path fill="none" stroke="midnightblue" d="M1718.44,-284.34C1680.56,-277.36 1609.05,-262.97 1550,-244 1528,-236.93 1523.62,-232.18 1502,-224 1469.67,-211.77 1432.35,-199.19 1405.66,-190.45"/>
<polygon fill="midnightblue" stroke="midnightblue" points="1406.57,-187.06 1395.98,-187.29 1404.4,-193.72 1406.57,-187.06"/>
</g>
<!-- Node26&#45;&gt;Node7 -->
<g id="edge56" class="edge">
<title>Node26&#45;&gt;Node7</title>
<path fill="none" stroke="midnightblue" d="M1763.33,-280.41C1800.91,-262.8 1883.21,-224.24 1884,-224 1929,-210.33 2059.08,-193.24 2129.83,-184.59"/>
<polygon fill="midnightblue" stroke="midnightblue" points="2130.31,-188.05 2139.82,-183.37 2129.47,-181.1 2130.31,-188.05"/>
</g>
<!-- Node26&#45;&gt;Node8 -->
<g id="edge58" class="edge">
<title>Node26&#45;&gt;Node8</title>
<path fill="none" stroke="midnightblue" d="M1771.55,-283.6C1805.25,-276.37 1864.93,-262.31 1914,-244 1933,-236.91 1935.49,-229.52 1955,-224 2109.89,-180.18 2157.78,-205.69 2320.91,-188.17"/>
<polygon fill="midnightblue" stroke="midnightblue" points="2321.76,-191.6 2331.31,-187.02 2320.98,-184.64 2321.76,-191.6"/>
</g>
<!-- Node26&#45;&gt;Node9 -->
<g id="edge60" class="edge">
<title>Node26&#45;&gt;Node9</title>
<path fill="none" stroke="midnightblue" d="M1739.1,-280.35C1722.45,-256.81 1672.4,-191.82 1612,-168 1468.48,-111.4 987.95,-78.72 836.28,-69.63"/>
<polygon fill="midnightblue" stroke="midnightblue" points="836.13,-66.11 825.94,-69.02 835.71,-73.1 836.13,-66.11"/>
</g>
<!-- Node26&#45;&gt;Node17 -->
<g id="edge61" class="edge">
<title>Node26&#45;&gt;Node17</title>
<path fill="none" stroke="midnightblue" d="M1771.62,-296.86C1861.18,-316.75 2146,-381.53 2146,-401 2146,-571 2146,-571 2146,-571 2146,-630.02 1227.78,-669.45 985.19,-678.84"/>
<polygon fill="midnightblue" stroke="midnightblue" points="985.02,-675.34 975.16,-679.22 985.29,-682.34 985.02,-675.34"/>
</g>
<!-- Node26&#45;&gt;Node20 -->
<g id="edge71" class="edge">
<title>Node26&#45;&gt;Node20</title>
<path fill="none" stroke="midnightblue" d="M1757.54,-299.65C1794.7,-326.3 1898.68,-408.9 1851,-468 1777.04,-559.65 1708.75,-508.53 1592,-524 1507.49,-535.2 908.2,-560.52 744.33,-567.3"/>
<polygon fill="midnightblue" stroke="midnightblue" points="744.02,-563.81 734.17,-567.72 744.31,-570.81 744.02,-563.81"/>
</g>
<!-- Node26&#45;&gt;Node21 -->
<g id="edge57" class="edge">
<title>Node26&#45;&gt;Node21</title>
<path fill="none" stroke="midnightblue" d="M1718.22,-284.63C1672.78,-277.11 1577.74,-260.88 1498,-244 1417.41,-226.94 1324.11,-203.57 1271.27,-190"/>
<polygon fill="midnightblue" stroke="midnightblue" points="1272.13,-186.61 1261.58,-187.51 1270.39,-193.39 1272.13,-186.61"/>
</g>
<!-- Node26&#45;&gt;Node23 -->
<g id="edge100" class="edge">
<title>Node26&#45;&gt;Node23</title>
<path fill="none" stroke="midnightblue" d="M1741.57,-299.77C1730.01,-328.22 1689.72,-418.96 1628,-468 1607.42,-484.35 1580.31,-495.16 1556.97,-502.08"/>
<polygon fill="midnightblue" stroke="midnightblue" points="1555.91,-498.74 1547.23,-504.81 1557.8,-505.48 1555.91,-498.74"/>
</g>
<!-- Node26&#45;&gt;Node24 -->
<g id="edge59" class="edge">
<title>Node26&#45;&gt;Node24</title>
<path fill="none" stroke="midnightblue" d="M1771.58,-283.62C1815.38,-274.77 1903.49,-256.95 1960.02,-245.51"/>
<polygon fill="midnightblue" stroke="midnightblue" points="1960.73,-248.94 1969.84,-243.53 1959.34,-242.08 1960.73,-248.94"/>
</g>
<!-- Node26&#45;&gt;Node25 -->
<g id="edge62" class="edge">
<title>Node26&#45;&gt;Node25</title>
<path fill="none" stroke="midnightblue" d="M1718.45,-293.41C1620.47,-301.77 1278.65,-329.63 1140.5,-340.55"/>
<polygon fill="midnightblue" stroke="midnightblue" points="1139.82,-337.1 1130.13,-341.37 1140.37,-344.08 1139.82,-337.1"/>
</g>
<!-- Node26&#45;&gt;Node27 -->
<g id="edge63" class="edge">
<title>Node26&#45;&gt;Node27</title>
<path fill="none" stroke="midnightblue" d="M1718.41,-286.28C1580.08,-271.45 944.66,-200.36 794.03,-182.89"/>
<polygon fill="midnightblue" stroke="midnightblue" points="794.37,-179.4 784.03,-181.72 793.56,-186.36 794.37,-179.4"/>
</g>
<!-- Node26&#45;&gt;Node28 -->
<g id="edge72" class="edge">
<title>Node26&#45;&gt;Node28</title>
<path fill="none" stroke="midnightblue" d="M1718.49,-283.05C1686.05,-275.46 1629.7,-261.21 1583,-244 1563.22,-236.71 1559.52,-231.96 1540,-224 1495.49,-205.84 1481.59,-208.28 1438,-188 1422.1,-180.6 1420.78,-173.06 1404,-168 1325.98,-144.47 738.9,-127.4 603.02,-123.73"/>
<polygon fill="midnightblue" stroke="midnightblue" points="602.74,-120.22 592.65,-123.46 602.55,-127.22 602.74,-120.22"/>
</g>
<!-- Node26&#45;&gt;Node29 -->
<g id="edge73" class="edge">
<title>Node26&#45;&gt;Node29</title>
<path fill="none" stroke="midnightblue" d="M1722.64,-280.44C1703.37,-271.83 1676.04,-258.43 1657.14,-248.41"/>
<polygon fill="midnightblue" stroke="midnightblue" points="1658.57,-245.2 1648.11,-243.52 1655.24,-251.36 1658.57,-245.2"/>
</g>
<!-- Node26&#45;&gt;Node31 -->
<g id="edge91" class="edge">
<title>Node26&#45;&gt;Node31</title>
<path fill="none" stroke="midnightblue" d="M1718.32,-296C1628.62,-312.81 1336.65,-367.52 1213.55,-390.59"/>
<polygon fill="midnightblue" stroke="midnightblue" points="1212.76,-387.18 1203.57,-392.46 1214.05,-394.06 1212.76,-387.18"/>
</g>
<!-- Node27&#45;&gt;Node9 -->
<g id="edge64" class="edge">
<title>Node27&#45;&gt;Node9</title>
<path fill="none" stroke="midnightblue" d="M764.2,-168.37C768.72,-150.62 779.14,-109.67 785.27,-85.6"/>
<polygon fill="midnightblue" stroke="midnightblue" points="788.74,-86.15 787.81,-75.59 781.95,-84.42 788.74,-86.15"/>
</g>
<!-- Node27&#45;&gt;Node20 -->
<g id="edge65" class="edge">
<title>Node27&#45;&gt;Node20</title>
<path fill="none" stroke="midnightblue" d="M751.27,-187.73C719.58,-214.29 626.57,-298.11 594,-392 573.99,-449.68 594.26,-476.02 632,-524 642.81,-537.74 659.04,-548.47 673.26,-556"/>
<polygon fill="midnightblue" stroke="midnightblue" points="671.73,-559.15 682.24,-560.49 674.86,-552.89 671.73,-559.15"/>
</g>
<!-- Node27&#45;&gt;Node26 -->
<g id="edge70" class="edge">
<title>Node27&#45;&gt;Node26</title>
<path fill="none" stroke="midnightblue" d="M784.18,-181.25C911.44,-194.82 1547.14,-265.93 1708.02,-284.54"/>
<polygon fill="midnightblue" stroke="midnightblue" points="1708.01,-288.06 1718.34,-285.74 1708.81,-281.11 1708.01,-288.06"/>
</g>
<!-- Node27&#45;&gt;Node28 -->
<g id="edge66" class="edge">
<title>Node27&#45;&gt;Node28</title>
<path fill="none" stroke="midnightblue" d="M739.81,-170.59C705.5,-160.69 639.64,-141.67 602.41,-130.91"/>
<polygon fill="midnightblue" stroke="midnightblue" points="603.29,-127.53 592.71,-128.12 601.35,-134.25 603.29,-127.53"/>
</g>
<!-- Node28&#45;&gt;Node9 -->
<g id="edge67" class="edge">
<title>Node28&#45;&gt;Node9</title>
<path fill="none" stroke="midnightblue" d="M592.59,-116.58C625.86,-108.23 698.86,-89.89 746.16,-78.01"/>
<polygon fill="midnightblue" stroke="midnightblue" points="747.29,-81.34 756.13,-75.51 745.58,-74.55 747.29,-81.34"/>
</g>
<!-- Node28&#45;&gt;Node20 -->
<g id="edge68" class="edge">
<title>Node28&#45;&gt;Node20</title>
<path fill="none" stroke="midnightblue" d="M560.2,-131.52C521.84,-154.83 423.51,-223.08 443,-300 456.55,-353.48 525.81,-488.28 573,-524 599.09,-543.75 634.49,-555.24 661.76,-561.67"/>
<polygon fill="midnightblue" stroke="midnightblue" points="661.25,-565.14 671.77,-563.89 662.77,-558.31 661.25,-565.14"/>
</g>
<!-- Node28&#45;&gt;Node23 -->
<g id="edge69" class="edge">
<title>Node28&#45;&gt;Node23</title>
<path fill="none" stroke="midnightblue" d="M584.31,-131.82C592.67,-144.72 603.34,-169.23 616,-188 634.65,-215.67 642.77,-220.05 666,-244 752.15,-332.82 771.12,-371.39 888,-412 1017.35,-456.94 1061.17,-414.73 1194,-448 1217.62,-453.92 1221.53,-461.53 1245,-468 1317.41,-487.97 1403.3,-500.4 1456.58,-507.01"/>
<polygon fill="midnightblue" stroke="midnightblue" points="1456.44,-510.52 1466.79,-508.26 1457.28,-503.57 1456.44,-510.52"/>
</g>
<!-- Node29&#45;&gt;Node2 -->
<g id="edge74" class="edge">
<title>Node29&#45;&gt;Node2</title>
<path fill="none" stroke="midnightblue" d="M1680.29,-230.7C1778.3,-225.38 2020.89,-210.87 2223,-188 2229.25,-187.29 2235.85,-186.43 2242.3,-185.51"/>
<polygon fill="midnightblue" stroke="midnightblue" points="2242.84,-188.97 2252.22,-184.05 2241.82,-182.04 2242.84,-188.97"/>
</g>
<!-- Node29&#45;&gt;Node3 -->
<g id="edge75" class="edge">
<title>Node29&#45;&gt;Node3</title>
<path fill="none" stroke="midnightblue" d="M1634.53,-224.17C1631.94,-210.81 1625.51,-185.23 1612,-168 1556.14,-96.74 1458.83,-46.09 1409.9,-23.76"/>
<polygon fill="midnightblue" stroke="midnightblue" points="1411.06,-20.45 1400.5,-19.56 1408.2,-26.84 1411.06,-20.45"/>
</g>
<!-- Node29&#45;&gt;Node4 -->
<g id="edge76" class="edge">
<title>Node29&#45;&gt;Node4</title>
<path fill="none" stroke="midnightblue" d="M1647.29,-224.45C1687.36,-194.64 1827.49,-95.03 1961,-56 2075.41,-22.55 2445.9,-13.58 2564.28,-11.53"/>
<polygon fill="midnightblue" stroke="midnightblue" points="2564.35,-15.03 2574.29,-11.37 2564.23,-8.03 2564.35,-15.03"/>
</g>
<!-- Node29&#45;&gt;Node5 -->
<g id="edge77" class="edge">
<title>Node29&#45;&gt;Node5</title>
<path fill="none" stroke="midnightblue" d="M1680.18,-227.37C1765.05,-216.56 1949.28,-193.1 2025.71,-183.37"/>
<polygon fill="midnightblue" stroke="midnightblue" points="2026.28,-186.82 2035.75,-182.09 2025.39,-179.88 2026.28,-186.82"/>
</g>
<!-- Node29&#45;&gt;Node6 -->
<g id="edge78" class="edge">
<title>Node29&#45;&gt;Node6</title>
<path fill="none" stroke="midnightblue" d="M1593.85,-224.44C1541.85,-213.89 1454.36,-196.13 1405.59,-186.22"/>
<polygon fill="midnightblue" stroke="midnightblue" points="1406,-182.74 1395.5,-184.18 1404.61,-189.6 1406,-182.74"/>
</g>
<!-- Node29&#45;&gt;Node7 -->
<g id="edge79" class="edge">
<title>Node29&#45;&gt;Node7</title>
<path fill="none" stroke="midnightblue" d="M1680.13,-228.78C1761.69,-220.96 1941.53,-203.57 2093,-188 2104.85,-186.78 2117.63,-185.43 2129.57,-184.15"/>
<polygon fill="midnightblue" stroke="midnightblue" points="2130.22,-187.6 2139.79,-183.06 2129.47,-180.64 2130.22,-187.6"/>
</g>
<!-- Node29&#45;&gt;Node8 -->
<g id="edge80" class="edge">
<title>Node29&#45;&gt;Node8</title>
<path fill="none" stroke="midnightblue" d="M1680.29,-231.12C1788.11,-226.31 2073.01,-212.31 2321.03,-188.14"/>
<polygon fill="midnightblue" stroke="midnightblue" points="2321.71,-191.59 2331.32,-187.13 2321.03,-184.62 2321.71,-191.59"/>
</g>
<!-- Node29&#45;&gt;Node9 -->
<g id="edge83" class="edge">
<title>Node29&#45;&gt;Node9</title>
<path fill="none" stroke="midnightblue" d="M1612.5,-224.5C1588.74,-215.78 1551.06,-201.6 1519,-188 1499.6,-179.77 1496.23,-173.91 1476,-168 1360.65,-134.27 1326.94,-149.23 1208,-132 1072.64,-112.39 913,-86.91 836.05,-74.48"/>
<polygon fill="midnightblue" stroke="midnightblue" points="836.18,-70.96 825.75,-72.81 835.06,-77.87 836.18,-70.96"/>
</g>
<!-- Node29&#45;&gt;Node17 -->
<g id="edge84" class="edge">
<title>Node29&#45;&gt;Node17</title>
<path fill="none" stroke="midnightblue" d="M1630.39,-243.59C1595.15,-297.27 1402.92,-585.88 1312,-636 1257.18,-666.22 1078.74,-676.28 985.28,-679.52"/>
<polygon fill="midnightblue" stroke="midnightblue" points="985.02,-676.03 975.14,-679.86 985.25,-683.03 985.02,-676.03"/>
</g>
<!-- Node29&#45;&gt;Node20 -->
<g id="edge87" class="edge">
<title>Node29&#45;&gt;Node20</title>
<path fill="none" stroke="midnightblue" d="M1614.05,-243.66C1591.43,-252.61 1555.17,-267.08 1524,-280 1386.04,-337.17 1356.22,-363.43 1215,-412 1155.87,-432.33 1139,-430.42 1079,-448 952.25,-485.14 803.38,-534.89 737.43,-557.25"/>
<polygon fill="midnightblue" stroke="midnightblue" points="736.28,-553.94 727.94,-560.47 738.54,-560.57 736.28,-553.94"/>
</g>
<!-- Node29&#45;&gt;Node21 -->
<g id="edge82" class="edge">
<title>Node29&#45;&gt;Node21</title>
<path fill="none" stroke="midnightblue" d="M1591.67,-227.12C1513.29,-216.72 1351.17,-195.21 1273.02,-184.84"/>
<polygon fill="midnightblue" stroke="midnightblue" points="1273.39,-181.36 1263.01,-183.51 1272.47,-188.3 1273.39,-181.36"/>
</g>
<!-- Node29&#45;&gt;Node25 -->
<g id="edge85" class="edge">
<title>Node29&#45;&gt;Node25</title>
<path fill="none" stroke="midnightblue" d="M1593.02,-243.53C1492.83,-263.43 1244.03,-312.83 1134.82,-334.51"/>
<polygon fill="midnightblue" stroke="midnightblue" points="1134.14,-331.08 1125.01,-336.46 1135.5,-337.95 1134.14,-331.08"/>
</g>
<!-- Node29&#45;&gt;Node26 -->
<g id="edge89" class="edge">
<title>Node29&#45;&gt;Node26</title>
<path fill="none" stroke="midnightblue" d="M1658.58,-243.65C1677.75,-252.23 1704.78,-265.48 1723.6,-275.45"/>
<polygon fill="midnightblue" stroke="midnightblue" points="1722.14,-278.64 1732.6,-280.32 1725.47,-272.49 1722.14,-278.64"/>
</g>
<!-- Node29&#45;&gt;Node27 -->
<g id="edge86" class="edge">
<title>Node29&#45;&gt;Node27</title>
<path fill="none" stroke="midnightblue" d="M1591.76,-230.27C1437.86,-220.76 928.02,-189.26 794.33,-181"/>
<polygon fill="midnightblue" stroke="midnightblue" points="794.51,-177.5 784.31,-180.38 794.07,-184.49 794.51,-177.5"/>
</g>
<!-- Node29&#45;&gt;Node28 -->
<g id="edge88" class="edge">
<title>Node29&#45;&gt;Node28</title>
<path fill="none" stroke="midnightblue" d="M1604.09,-224.46C1573.51,-216.03 1526.2,-202.36 1486,-188 1464.24,-180.22 1460.54,-173.12 1438,-168 1355.03,-149.15 741.42,-128.37 602.78,-123.88"/>
<polygon fill="midnightblue" stroke="midnightblue" points="602.69,-120.38 592.58,-123.56 602.46,-127.38 602.69,-120.38"/>
</g>
<!-- Node30 -->
<g id="node30" class="node">
<title>Node30</title>
<g id="a_node30"><a xlink:title=" ">
<polygon fill="none" stroke="#bfbfbf" points="1528.5,-168.5 1528.5,-187.5 1603.5,-187.5 1603.5,-168.5 1528.5,-168.5"/>
<text text-anchor="middle" x="1566" y="-175.5" font-family="Helvetica,sans-Serif" font-size="10.00">petscerror.h</text>
</a>
</g>
</g>
<!-- Node29&#45;&gt;Node30 -->
<g id="edge81" class="edge">
<title>Node29&#45;&gt;Node30</title>
<path fill="none" stroke="midnightblue" d="M1624.75,-224.32C1614.2,-216.18 1598.2,-203.84 1585.56,-194.09"/>
<polygon fill="midnightblue" stroke="midnightblue" points="1587.51,-191.17 1577.45,-187.83 1583.23,-196.71 1587.51,-191.17"/>
</g>
<!-- Node31&#45;&gt;Node3 -->
<g id="edge93" class="edge">
<title>Node31&#45;&gt;Node3</title>
<path fill="none" stroke="midnightblue" d="M1158.18,-392.36C1159.09,-355.05 1164.02,-207.76 1186,-168 1224.88,-97.67 1309.25,-46.84 1352.79,-24.17"/>
<polygon fill="midnightblue" stroke="midnightblue" points="1354.61,-27.17 1361.93,-19.51 1351.43,-20.93 1354.61,-27.17"/>
</g>
<!-- Node31&#45;&gt;Node6 -->
<g id="edge96" class="edge">
<title>Node31&#45;&gt;Node6</title>
<path fill="none" stroke="midnightblue" d="M1165.64,-392.33C1188.68,-366.28 1259.68,-286.69 1322,-224 1331.97,-213.98 1343.51,-203.13 1352.78,-194.59"/>
<polygon fill="midnightblue" stroke="midnightblue" points="1355.23,-197.1 1360.25,-187.77 1350.51,-191.93 1355.23,-197.1"/>
</g>
<!-- Node31&#45;&gt;Node9 -->
<g id="edge97" class="edge">
<title>Node31&#45;&gt;Node9</title>
<path fill="none" stroke="midnightblue" d="M1109.84,-393.27C1077.96,-386.7 1036.09,-375.18 1003,-356 895.01,-293.42 945.88,-206.19 864,-112 852.19,-98.41 835.23,-87.69 820.53,-80.12"/>
<polygon fill="midnightblue" stroke="midnightblue" points="821.79,-76.84 811.27,-75.61 818.72,-83.14 821.79,-76.84"/>
</g>
<!-- Node31&#45;&gt;Node18 -->
<g id="edge92" class="edge">
<title>Node31&#45;&gt;Node18</title>
<path fill="none" stroke="midnightblue" d="M1109.91,-393.22C980.69,-372.32 627.99,-315.26 514.03,-296.83"/>
<polygon fill="midnightblue" stroke="midnightblue" points="514.5,-293.36 504.07,-295.22 513.38,-300.27 514.5,-293.36"/>
</g>
<!-- Node31&#45;&gt;Node19 -->
<g id="edge94" class="edge">
<title>Node31&#45;&gt;Node19</title>
<path fill="none" stroke="midnightblue" d="M1109.8,-393.08C1082.65,-386.69 1049.4,-375.44 1025,-356 1009.66,-343.78 998.68,-323.95 992.15,-309.4"/>
<polygon fill="midnightblue" stroke="midnightblue" points="995.28,-307.8 988.19,-299.93 988.82,-310.5 995.28,-307.8"/>
</g>
<!-- Node31&#45;&gt;Node20 -->
<g id="edge98" class="edge">
<title>Node31&#45;&gt;Node20</title>
<path fill="none" stroke="midnightblue" d="M1109.88,-407.75C1007.78,-418.81 774.3,-449.53 719,-504 706.85,-515.97 703.37,-535.58 702.62,-550.13"/>
<polygon fill="midnightblue" stroke="midnightblue" points="699.11,-550.44 702.48,-560.48 706.11,-550.53 699.11,-550.44"/>
</g>
<!-- Node31&#45;&gt;Node21 -->
<g id="edge95" class="edge">
<title>Node31&#45;&gt;Node21</title>
<path fill="none" stroke="midnightblue" d="M1154.65,-392.12C1144.96,-364.82 1119.56,-280.54 1152,-224 1160.62,-208.99 1176.39,-198.5 1191.43,-191.46"/>
<polygon fill="midnightblue" stroke="midnightblue" points="1192.82,-194.67 1200.63,-187.51 1190.06,-188.24 1192.82,-194.67"/>
</g>
<!-- Node31&#45;&gt;Node25 -->
<g id="edge99" class="edge">
<title>Node31&#45;&gt;Node25</title>
<path fill="none" stroke="midnightblue" d="M1145.79,-392.32C1134.22,-384.11 1116.62,-371.6 1102.84,-361.81"/>
<polygon fill="midnightblue" stroke="midnightblue" points="1104.61,-358.77 1094.43,-355.83 1100.56,-364.48 1104.61,-358.77"/>
</g>
<!-- Node32&#45;&gt;Node9 -->
<g id="edge108" class="edge">
<title>Node32&#45;&gt;Node9</title>
<path fill="none" stroke="midnightblue" d="M1087.66,-455.68C987.3,-452.2 745.62,-440.99 670,-412 630.82,-396.98 622.11,-387.15 594,-356 520.07,-274.07 477.46,-196.87 548,-112 572.45,-82.58 681.06,-72.3 744.16,-68.78"/>
<polygon fill="midnightblue" stroke="midnightblue" points="744.45,-72.27 754.25,-68.25 744.08,-65.28 744.45,-72.27"/>
</g>
<!-- Node32&#45;&gt;Node20 -->
<g id="edge110" class="edge">
<title>Node32&#45;&gt;Node20</title>
<path fill="none" stroke="midnightblue" d="M1087.8,-461.86C991.61,-468.41 769.58,-485.35 741,-504 724.62,-514.69 714.4,-535.1 708.74,-550.21"/>
<polygon fill="midnightblue" stroke="midnightblue" points="705.3,-549.46 705.4,-560.06 711.93,-551.71 705.3,-549.46"/>
</g>
<!-- Node32&#45;&gt;Node23 -->
<g id="edge109" class="edge">
<title>Node32&#45;&gt;Node23</title>
<path fill="none" stroke="midnightblue" d="M1176.05,-464.55C1183.76,-465.71 1191.64,-466.91 1199,-468 1289.96,-481.51 1395.74,-496.35 1456.77,-505.16"/>
<polygon fill="midnightblue" stroke="midnightblue" points="1456.5,-508.66 1466.9,-506.63 1457.5,-501.73 1456.5,-508.66"/>
</g>
<!-- Node33&#45;&gt;Node1 -->
<g id="edge128" class="edge">
<title>Node33&#45;&gt;Node1</title>
<path fill="none" stroke="midnightblue" d="M1794.46,-467.52C1773.85,-506.23 1688.87,-665.87 1660.37,-719.41"/>
<polygon fill="midnightblue" stroke="midnightblue" points="1657.2,-717.9 1655.59,-728.38 1663.38,-721.19 1657.2,-717.9"/>
</g>
<!-- Node33&#45;&gt;Node2 -->
<g id="edge112" class="edge">
<title>Node33&#45;&gt;Node2</title>
<path fill="none" stroke="midnightblue" d="M1826.98,-448.45C1853.03,-440.18 1892.75,-426.74 1926,-412 2062.18,-351.64 2097.97,-334.87 2216,-244 2235.54,-228.96 2255.52,-208.84 2268.51,-194.99"/>
<polygon fill="midnightblue" stroke="midnightblue" points="2271.08,-197.36 2275.3,-187.64 2265.94,-192.61 2271.08,-197.36"/>
</g>
<!-- Node33&#45;&gt;Node3 -->
<g id="edge113" class="edge">
<title>Node33&#45;&gt;Node3</title>
<path fill="none" stroke="midnightblue" d="M1812.26,-448.45C1825.9,-439.57 1847.68,-425.16 1866,-412 1878.45,-403.05 2077.26,-257.24 2085,-244 2102.15,-214.68 2114.65,-194.17 2093,-168 2038.48,-102.12 1986.46,-154.62 1904,-132 1808.28,-105.74 1790.3,-80.06 1694,-56 1607.45,-34.38 1504.72,-22.1 1440.93,-16"/>
<polygon fill="midnightblue" stroke="midnightblue" points="1440.93,-12.49 1430.65,-15.04 1440.28,-19.46 1440.93,-12.49"/>
</g>
<!-- Node33&#45;&gt;Node4 -->
<g id="edge114" class="edge">
<title>Node33&#45;&gt;Node4</title>
<path fill="none" stroke="midnightblue" d="M1842,-450.6C2000.65,-425.82 2544,-329.91 2544,-179 2544,-179 2544,-179 2544,-121 2544,-84.3 2569.32,-47.66 2586.21,-27.3"/>
<polygon fill="midnightblue" stroke="midnightblue" points="2588.95,-29.48 2592.83,-19.62 2583.65,-24.9 2588.95,-29.48"/>
</g>
<!-- Node33&#45;&gt;Node5 -->
<g id="edge115" class="edge">
<title>Node33&#45;&gt;Node5</title>
<path fill="none" stroke="midnightblue" d="M1808.05,-448.11C1820.87,-435.54 1845.1,-411.89 1866,-392 1918.85,-341.71 1924.98,-319.99 1986,-280 2019.63,-257.96 2046.94,-277.62 2069,-244 2078.07,-230.19 2073.97,-211.16 2068.72,-197.27"/>
<polygon fill="midnightblue" stroke="midnightblue" points="2071.82,-195.63 2064.67,-187.81 2065.39,-198.38 2071.82,-195.63"/>
</g>
<!-- Node33&#45;&gt;Node6 -->
<g id="edge116" class="edge">
<title>Node33&#45;&gt;Node6</title>
<path fill="none" stroke="midnightblue" d="M1789.09,-448.29C1750.64,-414.54 1612.36,-293.57 1590,-280 1553.88,-258.07 1540.53,-261.34 1502,-244 1464.45,-227.1 1421.85,-205.71 1395.45,-192.19"/>
<polygon fill="midnightblue" stroke="midnightblue" points="1396.99,-189.04 1386.49,-187.58 1393.79,-195.27 1396.99,-189.04"/>
</g>
<!-- Node33&#45;&gt;Node7 -->
<g id="edge117" class="edge">
<title>Node33&#45;&gt;Node7</title>
<path fill="none" stroke="midnightblue" d="M1819.48,-448.41C1839.05,-439.95 1869.15,-426.26 1894,-412 2008.85,-346.13 2050.28,-341.36 2140,-244 2152.76,-230.15 2162.94,-211.13 2169.36,-197.25"/>
<polygon fill="midnightblue" stroke="midnightblue" points="2172.7,-198.36 2173.53,-187.8 2166.29,-195.54 2172.7,-198.36"/>
</g>
<!-- Node33&#45;&gt;Node8 -->
<g id="edge119" class="edge">
<title>Node33&#45;&gt;Node8</title>
<path fill="none" stroke="midnightblue" d="M1837.74,-448.48C1871.37,-440.58 1921.12,-427.71 1963,-412 2128.77,-349.84 2309.51,-233.62 2369.98,-193.25"/>
<polygon fill="midnightblue" stroke="midnightblue" points="2371.97,-196.13 2378.33,-187.65 2368.07,-190.32 2371.97,-196.13"/>
</g>
<!-- Node33&#45;&gt;Node9 -->
<g id="edge121" class="edge">
<title>Node33&#45;&gt;Node9</title>
<path fill="none" stroke="midnightblue" d="M1755.79,-456.16C1623.63,-453.27 1226.27,-442.25 1101,-412 1040.24,-397.33 1023.75,-391.06 972,-356 908.77,-313.17 850,-311.37 850,-235 850,-235 850,-235 850,-177 850,-139.88 823.35,-103.38 805.57,-83.16"/>
<polygon fill="midnightblue" stroke="midnightblue" points="807.93,-80.55 798.6,-75.53 802.76,-85.28 807.93,-80.55"/>
</g>
<!-- Node33&#45;&gt;Node17 -->
<g id="edge122" class="edge">
<title>Node33&#45;&gt;Node17</title>
<path fill="none" stroke="midnightblue" d="M1784.5,-467.58C1733.9,-497.05 1559.65,-594.58 1402,-636 1255.43,-674.51 1075.76,-680.96 985.16,-681.51"/>
<polygon fill="midnightblue" stroke="midnightblue" points="985.07,-678.01 975.08,-681.54 985.1,-685.01 985.07,-678.01"/>
</g>
<!-- Node33&#45;&gt;Node20 -->
<g id="edge125" class="edge">
<title>Node33&#45;&gt;Node20</title>
<path fill="none" stroke="midnightblue" d="M1755.74,-465.97C1714.73,-473.22 1651.72,-486.04 1599,-504 1579.05,-510.8 1576.45,-518.91 1556,-524 1516.26,-533.89 909.98,-560.22 744.47,-567.25"/>
<polygon fill="midnightblue" stroke="midnightblue" points="744.06,-563.77 734.21,-567.69 744.35,-570.76 744.06,-563.77"/>
</g>
<!-- Node33&#45;&gt;Node21 -->
<g id="edge118" class="edge">
<title>Node33&#45;&gt;Node21</title>
<path fill="none" stroke="midnightblue" d="M1781.32,-448.38C1699.12,-408.29 1354.22,-240.07 1255.5,-191.93"/>
<polygon fill="midnightblue" stroke="midnightblue" points="1257,-188.76 1246.48,-187.52 1253.93,-195.05 1257,-188.76"/>
</g>
<!-- Node33&#45;&gt;Node23 -->
<g id="edge130" class="edge">
<title>Node33&#45;&gt;Node23</title>
<path fill="none" stroke="midnightblue" d="M1757.78,-467.56C1705.05,-477.73 1614.03,-494.56 1557.29,-504.63"/>
<polygon fill="midnightblue" stroke="midnightblue" points="1556.35,-501.24 1547.11,-506.43 1557.57,-508.14 1556.35,-501.24"/>
</g>
<!-- Node33&#45;&gt;Node24 -->
<g id="edge120" class="edge">
<title>Node33&#45;&gt;Node24</title>
<path fill="none" stroke="midnightblue" d="M1802.45,-448.44C1807.61,-435.87 1817.81,-411.77 1828,-392 1857.65,-334.49 1867.79,-316.8 1921,-280 1939.8,-267 1962.91,-255.62 1981.13,-247.56"/>
<polygon fill="midnightblue" stroke="midnightblue" points="1982.64,-250.72 1990.43,-243.54 1979.86,-244.29 1982.64,-250.72"/>
</g>
<!-- Node33&#45;&gt;Node25 -->
<g id="edge123" class="edge">
<title>Node33&#45;&gt;Node25</title>
<path fill="none" stroke="midnightblue" d="M1755.76,-450.37C1632.74,-431.49 1280.63,-377.47 1140.53,-355.98"/>
<polygon fill="midnightblue" stroke="midnightblue" points="1140.83,-352.48 1130.42,-354.43 1139.77,-359.4 1140.83,-352.48"/>
</g>
<!-- Node33&#45;&gt;Node27 -->
<g id="edge124" class="edge">
<title>Node33&#45;&gt;Node27</title>
<path fill="none" stroke="midnightblue" d="M1755.87,-456.68C1614.89,-455.28 1168.83,-448.06 1030,-412 919.18,-383.22 872.21,-387.19 798,-300 772.87,-270.47 765.28,-223.97 762.99,-198.06"/>
<polygon fill="midnightblue" stroke="midnightblue" points="766.46,-197.47 762.27,-187.73 759.47,-197.95 766.46,-197.47"/>
</g>
<!-- Node33&#45;&gt;Node28 -->
<g id="edge126" class="edge">
<title>Node33&#45;&gt;Node28</title>
<path fill="none" stroke="midnightblue" d="M1755.87,-456.99C1604.75,-456.62 1099.97,-452.3 944,-412 774.59,-368.22 629.43,-194.09 587.31,-139.47"/>
<polygon fill="midnightblue" stroke="midnightblue" points="590.09,-137.34 581.25,-131.51 584.52,-141.58 590.09,-137.34"/>
</g>
<!-- Node33&#45;&gt;Node29 -->
<g id="edge127" class="edge">
<title>Node33&#45;&gt;Node29</title>
<path fill="none" stroke="midnightblue" d="M1792.61,-448.3C1768.27,-415.15 1681.09,-296.41 1648.45,-251.96"/>
<polygon fill="midnightblue" stroke="midnightblue" points="1651.26,-249.87 1642.52,-243.88 1645.62,-254.02 1651.26,-249.87"/>
</g>
<!-- Node33&#45;&gt;Node31 -->
<g id="edge129" class="edge">
<title>Node33&#45;&gt;Node31</title>
<path fill="none" stroke="midnightblue" d="M1755.95,-453.37C1644.01,-443.94 1343.69,-418.64 1216.36,-407.92"/>
<polygon fill="midnightblue" stroke="midnightblue" points="1216.29,-404.4 1206.04,-407.05 1215.71,-411.37 1216.29,-404.4"/>
</g>
<!-- Node34&#45;&gt;Node4 -->
<g id="edge136" class="edge">
<title>Node34&#45;&gt;Node4</title>
<path fill="none" stroke="midnightblue" d="M520.35,-624.59C779.88,-620.43 2734,-581.35 2734,-347 2734,-347 2734,-347 2734,-121 2734,-70.59 2676.56,-38.93 2637.17,-23.14"/>
<polygon fill="midnightblue" stroke="midnightblue" points="2638.19,-19.78 2627.59,-19.47 2635.68,-26.32 2638.19,-19.78"/>
</g>
<!-- Node34&#45;&gt;Node9 -->
<g id="edge134" class="edge">
<title>Node34&#45;&gt;Node9</title>
<path fill="none" stroke="midnightblue" d="M463.9,-619.05C376.29,-599.71 114,-535.42 114,-459 114,-459 114,-459 114,-177 114,-130.84 152.06,-128.94 195,-112 294.84,-72.6 622.87,-67.5 744.28,-66.99"/>
<polygon fill="midnightblue" stroke="midnightblue" points="744.37,-70.49 754.36,-66.95 744.35,-63.49 744.37,-70.49"/>
</g>
<!-- Node34&#45;&gt;Node18 -->
<g id="edge133" class="edge">
<title>Node34&#45;&gt;Node18</title>
<path fill="none" stroke="midnightblue" d="M487.14,-616.47C477.32,-598.39 456,-554.59 456,-515 456,-515 456,-515 456,-401 456,-368.33 465.45,-331.24 471.96,-309.55"/>
<polygon fill="midnightblue" stroke="midnightblue" points="475.39,-310.31 475.03,-299.72 468.71,-308.22 475.39,-310.31"/>
</g>
<!-- Node34&#45;&gt;Node20 -->
<g id="edge135" class="edge">
<title>Node34&#45;&gt;Node20</title>
<path fill="none" stroke="midnightblue" d="M520.02,-617.83C556.37,-608.53 620.07,-592.22 661.9,-581.52"/>
<polygon fill="midnightblue" stroke="midnightblue" points="662.95,-584.86 671.77,-578.99 661.22,-578.08 662.95,-584.86"/>
</g>
<!-- Node34&#45;&gt;Node26 -->
<g id="edge138" class="edge">
<title>Node34&#45;&gt;Node26</title>
<path fill="none" stroke="midnightblue" d="M520.19,-624.24C709.41,-618.85 1789.36,-583.13 1870,-468 1905.4,-417.46 1873.83,-376.17 1827,-336 1811.54,-322.74 1791.56,-311.68 1775.18,-303.84"/>
<polygon fill="midnightblue" stroke="midnightblue" points="1776.57,-300.62 1766.02,-299.6 1773.63,-306.97 1776.57,-300.62"/>
</g>
<!-- Node34&#45;&gt;Node28 -->
<g id="edge137" class="edge">
<title>Node34&#45;&gt;Node28</title>
<path fill="none" stroke="midnightblue" d="M473.92,-616.4C408.01,-583.8 187.73,-463.19 252,-336 258.67,-322.8 393.74,-222.22 484,-168 504.87,-155.46 529.72,-143.35 548.18,-134.85"/>
<polygon fill="midnightblue" stroke="midnightblue" points="549.79,-137.97 557.45,-130.64 546.89,-131.59 549.79,-137.97"/>
</g>
</g>
</svg>
