<?xml version="1.0" encoding="UTF-8" standalone="no"?>
<!DOCTYPE svg PUBLIC "-//W3C//DTD SVG 1.1//EN"
 "http://www.w3.org/Graphics/SVG/1.1/DTD/svg11.dtd">
<!-- Generated by graphviz version 2.43.0 (0)
 -->
<!-- Title: BC_Handlers.h Pages: 1 -->
<svg width="3056pt" height="756pt"
 viewBox="0.00 0.00 3056.00 756.00" xmlns="http://www.w3.org/2000/svg" xmlns:xlink="http://www.w3.org/1999/xlink">
<g id="graph0" class="graph" transform="scale(1 1) rotate(0) translate(4 752)">
<title>BC_Handlers.h</title>
<!-- Node1 -->
<g id="node1" class="node">
<title>Node1</title>
<g id="a_node1"><a xlink:title=" ">
<polygon fill="#bfbfbf" stroke="black" points="741,-728.5 741,-747.5 829,-747.5 829,-728.5 741,-728.5"/>
<text text-anchor="middle" x="785" y="-735.5" font-family="Helvetica,sans-Serif" font-size="10.00">BC_Handlers.h</text>
</a>
</g>
</g>
<!-- Node2 -->
<g id="node2" class="node">
<title>Node2</title>
<g id="a_node2"><a xlink:href="variables_8h.html" target="_top" xlink:title="Main header file for a complex fluid dynamics solver.">
<polygon fill="none" stroke="black" points="1158.5,-56.5 1158.5,-75.5 1229.5,-75.5 1229.5,-56.5 1158.5,-56.5"/>
<text text-anchor="middle" x="1194" y="-63.5" font-family="Helvetica,sans-Serif" font-size="10.00">variables.h</text>
</a>
</g>
</g>
<!-- Node1&#45;&gt;Node2 -->
<g id="edge1" class="edge">
<title>Node1&#45;&gt;Node2</title>
<path fill="none" stroke="midnightblue" d="M740.83,-735.5C575.14,-729.31 0,-702.39 0,-627 0,-627 0,-627 0,-345 0,-222.08 31.85,-149.2 149,-112 244.97,-81.52 959.12,-70.08 1148.19,-67.56"/>
<polygon fill="midnightblue" stroke="midnightblue" points="1148.39,-71.06 1158.34,-67.43 1148.29,-64.06 1148.39,-71.06"/>
</g>
<!-- Node12 -->
<g id="node12" class="node">
<title>Node12</title>
<g id="a_node12"><a xlink:href="Boundaries_8h.html" target="_top" xlink:title=" ">
<polygon fill="none" stroke="black" points="1173,-672.5 1173,-691.5 1253,-691.5 1253,-672.5 1173,-672.5"/>
<text text-anchor="middle" x="1213" y="-679.5" font-family="Helvetica,sans-Serif" font-size="10.00">Boundaries.h</text>
</a>
</g>
</g>
<!-- Node1&#45;&gt;Node12 -->
<g id="edge11" class="edge">
<title>Node1&#45;&gt;Node12</title>
<path fill="none" stroke="midnightblue" d="M829.2,-730.86C909.43,-720.35 1078.18,-699.06 1162.68,-688.8"/>
<polygon fill="midnightblue" stroke="midnightblue" points="1163.3,-692.25 1172.8,-687.57 1162.46,-685.3 1163.3,-692.25"/>
</g>
<!-- Node23 -->
<g id="node23" class="node">
<title>Node23</title>
<g id="a_node23"><a xlink:href="logging_8h.html" target="_top" xlink:title="Logging utilities and macros for PETSc&#45;based applications.">
<polygon fill="none" stroke="black" points="1182,-504.5 1182,-523.5 1244,-523.5 1244,-504.5 1182,-504.5"/>
<text text-anchor="middle" x="1213" y="-511.5" font-family="Helvetica,sans-Serif" font-size="10.00">logging.h</text>
</a>
</g>
</g>
<!-- Node1&#45;&gt;Node23 -->
<g id="edge145" class="edge">
<title>Node1&#45;&gt;Node23</title>
<path fill="none" stroke="midnightblue" d="M801.52,-728.43C866.78,-694.58 1107.04,-569.96 1186.95,-528.51"/>
<polygon fill="midnightblue" stroke="midnightblue" points="1189.04,-531.37 1196.3,-523.66 1185.81,-525.16 1189.04,-531.37"/>
</g>
<!-- Node3 -->
<g id="node3" class="node">
<title>Node3</title>
<g id="a_node3"><a xlink:title=" ">
<polygon fill="none" stroke="#bfbfbf" points="1020.5,-0.5 1020.5,-19.5 1089.5,-19.5 1089.5,-0.5 1020.5,-0.5"/>
<text text-anchor="middle" x="1055" y="-7.5" font-family="Helvetica,sans-Serif" font-size="10.00">petscvec.h</text>
</a>
</g>
</g>
<!-- Node2&#45;&gt;Node3 -->
<g id="edge2" class="edge">
<title>Node2&#45;&gt;Node3</title>
<path fill="none" stroke="midnightblue" d="M1171.98,-56.44C1148.9,-47.48 1112.44,-33.31 1086.36,-23.18"/>
<polygon fill="midnightblue" stroke="midnightblue" points="1087.51,-19.88 1076.92,-19.52 1084.98,-26.4 1087.51,-19.88"/>
</g>
<!-- Node4 -->
<g id="node4" class="node">
<title>Node4</title>
<g id="a_node4"><a xlink:title=" ">
<polygon fill="none" stroke="#bfbfbf" points="1108,-0.5 1108,-19.5 1188,-19.5 1188,-0.5 1108,-0.5"/>
<text text-anchor="middle" x="1148" y="-7.5" font-family="Helvetica,sans-Serif" font-size="10.00">petscdmda.h</text>
</a>
</g>
</g>
<!-- Node2&#45;&gt;Node4 -->
<g id="edge3" class="edge">
<title>Node2&#45;&gt;Node4</title>
<path fill="none" stroke="midnightblue" d="M1186.4,-56.08C1179.77,-48.3 1169.98,-36.8 1161.94,-27.37"/>
<polygon fill="midnightblue" stroke="midnightblue" points="1164.6,-25.09 1155.45,-19.75 1159.27,-29.63 1164.6,-25.09"/>
</g>
<!-- Node5 -->
<g id="node5" class="node">
<title>Node5</title>
<g id="a_node5"><a xlink:title=" ">
<polygon fill="none" stroke="#bfbfbf" points="1206.5,-0.5 1206.5,-19.5 1275.5,-19.5 1275.5,-0.5 1206.5,-0.5"/>
<text text-anchor="middle" x="1241" y="-7.5" font-family="Helvetica,sans-Serif" font-size="10.00">petscksp.h</text>
</a>
</g>
</g>
<!-- Node2&#45;&gt;Node5 -->
<g id="edge4" class="edge">
<title>Node2&#45;&gt;Node5</title>
<path fill="none" stroke="midnightblue" d="M1201.76,-56.08C1208.54,-48.3 1218.54,-36.8 1226.76,-27.37"/>
<polygon fill="midnightblue" stroke="midnightblue" points="1229.46,-29.59 1233.38,-19.75 1224.18,-25 1229.46,-29.59"/>
</g>
<!-- Node6 -->
<g id="node6" class="node">
<title>Node6</title>
<g id="a_node6"><a xlink:title=" ">
<polygon fill="none" stroke="#bfbfbf" points="1294,-0.5 1294,-19.5 1368,-19.5 1368,-0.5 1294,-0.5"/>
<text text-anchor="middle" x="1331" y="-7.5" font-family="Helvetica,sans-Serif" font-size="10.00">petscsnes.h</text>
</a>
</g>
</g>
<!-- Node2&#45;&gt;Node6 -->
<g id="edge5" class="edge">
<title>Node2&#45;&gt;Node6</title>
<path fill="none" stroke="midnightblue" d="M1215.71,-56.44C1238.35,-47.52 1274.07,-33.44 1299.75,-23.32"/>
<polygon fill="midnightblue" stroke="midnightblue" points="1301.37,-26.44 1309.39,-19.52 1298.81,-19.93 1301.37,-26.44"/>
</g>
<!-- Node7 -->
<g id="node7" class="node">
<title>Node7</title>
<g id="a_node7"><a xlink:title=" ">
<polygon fill="none" stroke="#bfbfbf" points="2698.5,-0.5 2698.5,-19.5 2799.5,-19.5 2799.5,-0.5 2698.5,-0.5"/>
<text text-anchor="middle" x="2749" y="-7.5" font-family="Helvetica,sans-Serif" font-size="10.00">petscdmswarm.h</text>
</a>
</g>
</g>
<!-- Node2&#45;&gt;Node7 -->
<g id="edge6" class="edge">
<title>Node2&#45;&gt;Node7</title>
<path fill="none" stroke="midnightblue" d="M1229.77,-63.76C1431.75,-56.74 2429.54,-22.09 2687.85,-13.12"/>
<polygon fill="midnightblue" stroke="midnightblue" points="2688.29,-16.61 2698.16,-12.77 2688.05,-9.61 2688.29,-16.61"/>
</g>
<!-- Node8 -->
<g id="node8" class="node">
<title>Node8</title>
<g id="a_node8"><a xlink:title=" ">
<polygon fill="none" stroke="#bfbfbf" points="1386,-0.5 1386,-19.5 1436,-19.5 1436,-0.5 1386,-0.5"/>
<text text-anchor="middle" x="1411" y="-7.5" font-family="Helvetica,sans-Serif" font-size="10.00">stdio.h</text>
</a>
</g>
</g>
<!-- Node2&#45;&gt;Node8 -->
<g id="edge7" class="edge">
<title>Node2&#45;&gt;Node8</title>
<path fill="none" stroke="midnightblue" d="M1229.47,-56.47C1264.35,-48.05 1319.37,-34.64 1375.93,-20.24"/>
<polygon fill="midnightblue" stroke="midnightblue" points="1376.94,-23.6 1385.76,-17.73 1375.21,-16.81 1376.94,-23.6"/>
</g>
<!-- Node9 -->
<g id="node9" class="node">
<title>Node9</title>
<g id="a_node9"><a xlink:title=" ">
<polygon fill="none" stroke="#bfbfbf" points="1635.5,-0.5 1635.5,-19.5 1688.5,-19.5 1688.5,-0.5 1635.5,-0.5"/>
<text text-anchor="middle" x="1662" y="-7.5" font-family="Helvetica,sans-Serif" font-size="10.00">stdlib.h</text>
</a>
</g>
</g>
<!-- Node2&#45;&gt;Node9 -->
<g id="edge8" class="edge">
<title>Node2&#45;&gt;Node9</title>
<path fill="none" stroke="midnightblue" d="M1229.51,-59.02C1236.3,-57.95 1243.36,-56.9 1250,-56 1388.03,-37.38 1552.87,-21.19 1625.06,-14.4"/>
<polygon fill="midnightblue" stroke="midnightblue" points="1625.8,-17.85 1635.43,-13.43 1625.15,-10.88 1625.8,-17.85"/>
</g>
<!-- Node10 -->
<g id="node10" class="node">
<title>Node10</title>
<g id="a_node10"><a xlink:title=" ">
<polygon fill="none" stroke="#bfbfbf" points="404.5,-0.5 404.5,-19.5 457.5,-19.5 457.5,-0.5 404.5,-0.5"/>
<text text-anchor="middle" x="431" y="-7.5" font-family="Helvetica,sans-Serif" font-size="10.00">string.h</text>
</a>
</g>
</g>
<!-- Node2&#45;&gt;Node10 -->
<g id="edge9" class="edge">
<title>Node2&#45;&gt;Node10</title>
<path fill="none" stroke="midnightblue" d="M1158.48,-62.49C1031,-53.46 597.3,-22.77 467.8,-13.6"/>
<polygon fill="midnightblue" stroke="midnightblue" points="467.84,-10.1 457.62,-12.88 467.34,-17.08 467.84,-10.1"/>
</g>
<!-- Node11 -->
<g id="node11" class="node">
<title>Node11</title>
<g id="a_node11"><a xlink:title=" ">
<polygon fill="none" stroke="#bfbfbf" points="946,-0.5 946,-19.5 1002,-19.5 1002,-0.5 946,-0.5"/>
<text text-anchor="middle" x="974" y="-7.5" font-family="Helvetica,sans-Serif" font-size="10.00">unistd.h</text>
</a>
</g>
</g>
<!-- Node2&#45;&gt;Node11 -->
<g id="edge10" class="edge">
<title>Node2&#45;&gt;Node11</title>
<path fill="none" stroke="midnightblue" d="M1159.14,-56.44C1119.04,-46.6 1053.43,-30.5 1012.04,-20.34"/>
<polygon fill="midnightblue" stroke="midnightblue" points="1012.61,-16.87 1002.06,-17.89 1010.94,-23.67 1012.61,-16.87"/>
</g>
<!-- Node12&#45;&gt;Node1 -->
<g id="edge124" class="edge">
<title>Node12&#45;&gt;Node1</title>
<path fill="none" stroke="midnightblue" d="M1172.92,-688.6C1095.59,-698.76 926.11,-720.15 838.96,-730.76"/>
<polygon fill="midnightblue" stroke="midnightblue" points="838.52,-727.29 829.01,-731.97 839.36,-734.24 838.52,-727.29"/>
</g>
<!-- Node12&#45;&gt;Node2 -->
<g id="edge21" class="edge">
<title>Node12&#45;&gt;Node2</title>
<path fill="none" stroke="midnightblue" d="M1172.85,-680.37C995.11,-677.43 283.62,-664 188,-636 132.77,-619.83 76,-628.55 76,-571 76,-571 76,-571 76,-177 76,-67.38 938.32,-65.46 1148.31,-66.62"/>
<polygon fill="midnightblue" stroke="midnightblue" points="1148.36,-70.12 1158.38,-66.68 1148.4,-63.12 1148.36,-70.12"/>
</g>
<!-- Node12&#45;&gt;Node7 -->
<g id="edge13" class="edge">
<title>Node12&#45;&gt;Node7</title>
<path fill="none" stroke="midnightblue" d="M1253.16,-680.71C1491.13,-678.88 2711.5,-667.99 2875,-636 2955.61,-620.23 3048,-653.14 3048,-571 3048,-571 3048,-571 3048,-121 3048,-87.08 3036.08,-75.03 3008,-56 2976.49,-34.64 2876.06,-22.01 2809.91,-15.8"/>
<polygon fill="midnightblue" stroke="midnightblue" points="2809.89,-12.29 2799.61,-14.86 2809.25,-19.26 2809.89,-12.29"/>
</g>
<!-- Node12&#45;&gt;Node9 -->
<g id="edge14" class="edge">
<title>Node12&#45;&gt;Node9</title>
<path fill="none" stroke="midnightblue" d="M1253.05,-681.29C1465.42,-682.59 2461.44,-685.91 2765,-636 2860.15,-620.35 2972,-667.43 2972,-571 2972,-571 2972,-571 2972,-121 2972,-55.28 1911.26,-18.77 1698.79,-12.11"/>
<polygon fill="midnightblue" stroke="midnightblue" points="1698.87,-8.61 1688.76,-11.8 1698.65,-15.61 1698.87,-8.61"/>
</g>
<!-- Node13 -->
<g id="node13" class="node">
<title>Node13</title>
<g id="a_node13"><a xlink:title=" ">
<polygon fill="none" stroke="#bfbfbf" points="984.5,-168.5 984.5,-187.5 1045.5,-187.5 1045.5,-168.5 984.5,-168.5"/>
<text text-anchor="middle" x="1015" y="-175.5" font-family="Helvetica,sans-Serif" font-size="10.00">petscpf.h</text>
</a>
</g>
</g>
<!-- Node12&#45;&gt;Node13 -->
<g id="edge12" class="edge">
<title>Node12&#45;&gt;Node13</title>
<path fill="none" stroke="midnightblue" d="M1172.92,-679.47C1056.33,-674.79 718.77,-659.52 611,-636 529.94,-618.31 436,-653.97 436,-571 436,-571 436,-571 436,-513 436,-473.37 610.82,-244.05 645,-224 704.44,-189.13 884.67,-196.95 953,-188 959.88,-187.1 967.19,-186.09 974.28,-185.08"/>
<polygon fill="midnightblue" stroke="midnightblue" points="975.04,-188.5 984.43,-183.61 974.04,-181.57 975.04,-188.5"/>
</g>
<!-- Node14 -->
<g id="node14" class="node">
<title>Node14</title>
<g id="a_node14"><a xlink:title=" ">
<polygon fill="none" stroke="#bfbfbf" points="810,-168.5 810,-187.5 858,-187.5 858,-168.5 810,-168.5"/>
<text text-anchor="middle" x="834" y="-175.5" font-family="Helvetica,sans-Serif" font-size="10.00">time.h</text>
</a>
</g>
</g>
<!-- Node12&#45;&gt;Node14 -->
<g id="edge15" class="edge">
<title>Node12&#45;&gt;Node14</title>
<path fill="none" stroke="midnightblue" d="M1172.73,-680.86C1031.64,-680.05 560.39,-674.44 415,-636 352.16,-619.39 284,-636 284,-571 284,-571 284,-571 284,-513 284,-270.63 679.01,-199.18 799.52,-183.03"/>
<polygon fill="midnightblue" stroke="midnightblue" points="800.19,-186.47 809.66,-181.71 799.29,-179.53 800.19,-186.47"/>
</g>
<!-- Node15 -->
<g id="node15" class="node">
<title>Node15</title>
<g id="a_node15"><a xlink:title=" ">
<polygon fill="none" stroke="#bfbfbf" points="2163.5,-112.5 2163.5,-131.5 2214.5,-131.5 2214.5,-112.5 2163.5,-112.5"/>
<text text-anchor="middle" x="2189" y="-119.5" font-family="Helvetica,sans-Serif" font-size="10.00">math.h</text>
</a>
</g>
</g>
<!-- Node12&#45;&gt;Node15 -->
<g id="edge16" class="edge">
<title>Node12&#45;&gt;Node15</title>
<path fill="none" stroke="midnightblue" d="M1253.21,-680.4C1449.79,-677.37 2311.11,-662.79 2578,-636 2738.03,-619.94 2934,-731.84 2934,-571 2934,-571 2934,-571 2934,-401 2934,-195.16 2510.57,-171.22 2497,-168 2399.98,-144.98 2282.81,-131.77 2224.94,-126.18"/>
<polygon fill="midnightblue" stroke="midnightblue" points="2225.13,-122.68 2214.84,-125.23 2224.47,-129.65 2225.13,-122.68"/>
</g>
<!-- Node16 -->
<g id="node16" class="node">
<title>Node16</title>
<g id="a_node16"><a xlink:title=" ">
<polygon fill="none" stroke="#bfbfbf" points="1728,-168.5 1728,-187.5 1802,-187.5 1802,-168.5 1728,-168.5"/>
<text text-anchor="middle" x="1765" y="-175.5" font-family="Helvetica,sans-Serif" font-size="10.00">petsctime.h</text>
</a>
</g>
</g>
<!-- Node12&#45;&gt;Node16 -->
<g id="edge17" class="edge">
<title>Node12&#45;&gt;Node16</title>
<path fill="none" stroke="midnightblue" d="M1253.19,-680.56C1409.74,-678.64 1978.84,-669.43 2156,-636 2232.51,-621.56 2276.59,-643.25 2322,-580 2472.29,-370.69 1971.21,-228.86 1811.98,-189.86"/>
<polygon fill="midnightblue" stroke="midnightblue" points="1812.54,-186.4 1802,-187.44 1810.89,-193.2 1812.54,-186.4"/>
</g>
<!-- Node17 -->
<g id="node17" class="node">
<title>Node17</title>
<g id="a_node17"><a xlink:title=" ">
<polygon fill="none" stroke="#bfbfbf" points="876,-168.5 876,-187.5 944,-187.5 944,-168.5 876,-168.5"/>
<text text-anchor="middle" x="910" y="-175.5" font-family="Helvetica,sans-Serif" font-size="10.00">petscsys.h</text>
</a>
</g>
</g>
<!-- Node12&#45;&gt;Node17 -->
<g id="edge18" class="edge">
<title>Node12&#45;&gt;Node17</title>
<path fill="none" stroke="midnightblue" d="M1172.95,-680.49C1025.28,-678.34 516.51,-668.63 452,-636 418.49,-619.05 398,-608.56 398,-571 398,-571 398,-571 398,-457 398,-313.97 492.94,-289.69 620,-224 715.66,-174.54 755.42,-205.43 865.6,-188.07"/>
<polygon fill="midnightblue" stroke="midnightblue" points="866.49,-191.47 875.77,-186.36 865.33,-184.57 866.49,-191.47"/>
</g>
<!-- Node18 -->
<g id="node18" class="node">
<title>Node18</title>
<g id="a_node18"><a xlink:title=" ">
<polygon fill="none" stroke="#bfbfbf" points="1820.5,-168.5 1820.5,-187.5 1939.5,-187.5 1939.5,-168.5 1820.5,-168.5"/>
<text text-anchor="middle" x="1880" y="-175.5" font-family="Helvetica,sans-Serif" font-size="10.00">petscdmcomposite.h</text>
</a>
</g>
</g>
<!-- Node12&#45;&gt;Node18 -->
<g id="edge19" class="edge">
<title>Node12&#45;&gt;Node18</title>
<path fill="none" stroke="midnightblue" d="M1253.22,-680.24C1430.45,-676.77 2137.22,-661.41 2233,-636 2285.64,-622.03 2306.1,-620.96 2342,-580 2397.72,-516.42 2371.75,-452.79 2313,-392 2200.44,-275.53 2010.91,-213.49 1924.89,-190.1"/>
<polygon fill="midnightblue" stroke="midnightblue" points="1925.73,-186.7 1915.17,-187.5 1923.92,-193.47 1925.73,-186.7"/>
</g>
<!-- Node19 -->
<g id="node19" class="node">
<title>Node19</title>
<g id="a_node19"><a xlink:title=" ">
<polygon fill="none" stroke="#bfbfbf" points="654.5,-224.5 654.5,-243.5 749.5,-243.5 749.5,-224.5 654.5,-224.5"/>
<text text-anchor="middle" x="702" y="-231.5" font-family="Helvetica,sans-Serif" font-size="10.00">petscsystypes.h</text>
</a>
</g>
</g>
<!-- Node12&#45;&gt;Node19 -->
<g id="edge20" class="edge">
<title>Node12&#45;&gt;Node19</title>
<path fill="none" stroke="midnightblue" d="M1172.65,-679.19C1070.87,-674.33 805.77,-659.72 721,-636 657.64,-618.27 588,-636.79 588,-571 588,-571 588,-571 588,-457 588,-371.92 655.07,-286.75 686.32,-251.68"/>
<polygon fill="midnightblue" stroke="midnightblue" points="689.28,-253.62 693.43,-243.88 684.11,-248.91 689.28,-253.62"/>
</g>
<!-- Node20 -->
<g id="node20" class="node">
<title>Node20</title>
<g id="a_node20"><a xlink:href="ParticleSwarm_8h.html" target="_top" xlink:title="Header file for Particle Motion and migration related functions.">
<polygon fill="none" stroke="black" points="1994,-392.5 1994,-411.5 2090,-411.5 2090,-392.5 1994,-392.5"/>
<text text-anchor="middle" x="2042" y="-399.5" font-family="Helvetica,sans-Serif" font-size="10.00">ParticleSwarm.h</text>
</a>
</g>
</g>
<!-- Node12&#45;&gt;Node20 -->
<g id="edge22" class="edge">
<title>Node12&#45;&gt;Node20</title>
<path fill="none" stroke="midnightblue" d="M1253.24,-680.4C1441.6,-677.18 2229.97,-659.02 2302,-580 2374.67,-500.28 2180.35,-438.19 2087.83,-414"/>
<polygon fill="midnightblue" stroke="midnightblue" points="2088.7,-410.61 2078.14,-411.51 2086.96,-417.39 2088.7,-410.61"/>
</g>
<!-- Node12&#45;&gt;Node23 -->
<g id="edge119" class="edge">
<title>Node12&#45;&gt;Node23</title>
<path fill="none" stroke="midnightblue" d="M1209.74,-672.08C1205.52,-645.95 1205.13,-569.21 1208.55,-533.58"/>
<polygon fill="midnightblue" stroke="midnightblue" points="1212.03,-533.92 1209.8,-523.57 1205.09,-533.06 1212.03,-533.92"/>
</g>
<!-- Node25 -->
<g id="node25" class="node">
<title>Node25</title>
<g id="a_node25"><a xlink:href="AnalyticalSolution_8h.html" target="_top" xlink:title=" ">
<polygon fill="none" stroke="black" points="1291,-448.5 1291,-467.5 1405,-467.5 1405,-448.5 1291,-448.5"/>
<text text-anchor="middle" x="1348" y="-455.5" font-family="Helvetica,sans-Serif" font-size="10.00">AnalyticalSolution.h</text>
</a>
</g>
</g>
<!-- Node12&#45;&gt;Node25 -->
<g id="edge122" class="edge">
<title>Node12&#45;&gt;Node25</title>
<path fill="none" stroke="midnightblue" d="M1218.29,-672.3C1238.37,-639.29 1310.05,-521.4 1337.34,-476.52"/>
<polygon fill="midnightblue" stroke="midnightblue" points="1340.39,-478.25 1342.6,-467.88 1334.41,-474.61 1340.39,-478.25"/>
</g>
<!-- Node26 -->
<g id="node26" class="node">
<title>Node26</title>
<g id="a_node26"><a xlink:href="walkingsearch_8h.html" target="_top" xlink:title="Header file for particle location functions using the walking search algorithm.">
<polygon fill="none" stroke="black" points="2240,-168.5 2240,-187.5 2336,-187.5 2336,-168.5 2240,-168.5"/>
<text text-anchor="middle" x="2288" y="-175.5" font-family="Helvetica,sans-Serif" font-size="10.00">walkingsearch.h</text>
</a>
</g>
</g>
<!-- Node12&#45;&gt;Node26 -->
<g id="edge117" class="edge">
<title>Node12&#45;&gt;Node26</title>
<path fill="none" stroke="midnightblue" d="M1253.16,-680.56C1459.92,-678.16 2399.65,-665.69 2526,-636 2584.47,-622.26 2609.8,-625.52 2649,-580 2740.44,-473.82 2654.86,-375.17 2552,-280 2518.52,-249.02 2507.79,-242.28 2466,-224 2427.73,-207.26 2381.99,-195.86 2346.46,-188.73"/>
<polygon fill="midnightblue" stroke="midnightblue" points="2346.74,-185.22 2336.25,-186.74 2345.4,-192.09 2346.74,-185.22"/>
</g>
<!-- Node28 -->
<g id="node28" class="node">
<title>Node28</title>
<g id="a_node28"><a xlink:href="grid_8h.html" target="_top" xlink:title="Public interface for grid, solver, and metric setup routines.">
<polygon fill="none" stroke="black" points="706,-168.5 706,-187.5 750,-187.5 750,-168.5 706,-168.5"/>
<text text-anchor="middle" x="728" y="-175.5" font-family="Helvetica,sans-Serif" font-size="10.00">grid.h</text>
</a>
</g>
</g>
<!-- Node12&#45;&gt;Node28 -->
<g id="edge118" class="edge">
<title>Node12&#45;&gt;Node28</title>
<path fill="none" stroke="midnightblue" d="M1172.89,-680.79C1007.73,-679.67 385.17,-673.03 306,-636 270.39,-619.34 246,-610.32 246,-571 246,-571 246,-571 246,-345 246,-249.61 587.78,-197.16 695.73,-182.98"/>
<polygon fill="midnightblue" stroke="midnightblue" points="696.25,-186.44 705.72,-181.69 695.35,-179.5 696.25,-186.44"/>
</g>
<!-- Node29 -->
<g id="node29" class="node">
<title>Node29</title>
<g id="a_node29"><a xlink:href="io_8h.html" target="_top" xlink:title="Public interface for data input/output routines.">
<polygon fill="none" stroke="black" points="760.5,-112.5 760.5,-131.5 795.5,-131.5 795.5,-112.5 760.5,-112.5"/>
<text text-anchor="middle" x="778" y="-119.5" font-family="Helvetica,sans-Serif" font-size="10.00">io.h</text>
</a>
</g>
</g>
<!-- Node12&#45;&gt;Node29 -->
<g id="edge120" class="edge">
<title>Node12&#45;&gt;Node29</title>
<path fill="none" stroke="midnightblue" d="M1172.85,-680.35C1002.36,-677.31 343.97,-663.5 256,-636 203.98,-619.73 152,-625.51 152,-571 152,-571 152,-571 152,-289 152,-226.55 629.48,-145.51 750.49,-126.92"/>
<polygon fill="midnightblue" stroke="midnightblue" points="751.08,-130.37 760.45,-125.41 750.04,-123.45 751.08,-130.37"/>
</g>
<!-- Node30 -->
<g id="node30" class="node">
<title>Node30</title>
<g id="a_node30"><a xlink:href="interpolation_8h.html" target="_top" xlink:title=" ">
<polygon fill="none" stroke="black" points="1356,-224.5 1356,-243.5 1444,-243.5 1444,-224.5 1356,-224.5"/>
<text text-anchor="middle" x="1400" y="-231.5" font-family="Helvetica,sans-Serif" font-size="10.00">interpolation.h</text>
</a>
</g>
</g>
<!-- Node12&#45;&gt;Node30 -->
<g id="edge121" class="edge">
<title>Node12&#45;&gt;Node30</title>
<path fill="none" stroke="midnightblue" d="M1172.65,-677.73C1040.03,-666.44 626,-626.73 626,-571 626,-571 626,-571 626,-513 626,-359.8 1169.9,-268.09 1345.82,-242.44"/>
<polygon fill="midnightblue" stroke="midnightblue" points="1346.49,-245.88 1355.89,-240.99 1345.49,-238.95 1346.49,-245.88"/>
</g>
<!-- Node32 -->
<g id="node32" class="node">
<title>Node32</title>
<g id="a_node32"><a xlink:href="ParticleMotion_8h.html" target="_top" xlink:title=" ">
<polygon fill="none" stroke="black" points="2544,-560.5 2544,-579.5 2640,-579.5 2640,-560.5 2544,-560.5"/>
<text text-anchor="middle" x="2592" y="-567.5" font-family="Helvetica,sans-Serif" font-size="10.00">ParticleMotion.h</text>
</a>
</g>
</g>
<!-- Node12&#45;&gt;Node32 -->
<g id="edge123" class="edge">
<title>Node12&#45;&gt;Node32</title>
<path fill="none" stroke="midnightblue" d="M1253.22,-680.86C1457.11,-680 2371.63,-674 2492,-636 2524.36,-625.78 2556.28,-602.01 2575.05,-586.22"/>
<polygon fill="midnightblue" stroke="midnightblue" points="2577.43,-588.79 2582.71,-579.61 2572.85,-583.49 2577.43,-588.79"/>
</g>
<!-- Node34 -->
<g id="node34" class="node">
<title>Node34</title>
<g id="a_node34"><a xlink:href="wallfunction_8h.html" target="_top" xlink:title=" ">
<polygon fill="none" stroke="black" points="1302,-616.5 1302,-635.5 1388,-635.5 1388,-616.5 1302,-616.5"/>
<text text-anchor="middle" x="1345" y="-623.5" font-family="Helvetica,sans-Serif" font-size="10.00">wallfunction.h</text>
</a>
</g>
</g>
<!-- Node12&#45;&gt;Node34 -->
<g id="edge125" class="edge">
<title>Node12&#45;&gt;Node34</title>
<path fill="none" stroke="midnightblue" d="M1228.83,-672.44C1248.78,-663.48 1283.18,-649.31 1309.47,-639.18"/>
<polygon fill="midnightblue" stroke="midnightblue" points="1311,-642.34 1319.1,-635.52 1308.51,-635.8 1311,-642.34"/>
</g>
<!-- Node20&#45;&gt;Node2 -->
<g id="edge27" class="edge">
<title>Node20&#45;&gt;Node2</title>
<path fill="none" stroke="midnightblue" d="M2041.52,-392.44C2039.07,-357.82 2024.92,-227.17 1949,-168 1837.57,-81.16 1386.26,-68.92 1239.99,-67.25"/>
<polygon fill="midnightblue" stroke="midnightblue" points="1239.63,-63.74 1229.6,-67.14 1239.56,-70.74 1239.63,-63.74"/>
</g>
<!-- Node20&#45;&gt;Node7 -->
<g id="edge24" class="edge">
<title>Node20&#45;&gt;Node7</title>
<path fill="none" stroke="midnightblue" d="M2070.92,-392.49C2160.55,-365.18 2439.26,-273.22 2632,-132 2674.83,-100.62 2715.8,-52.84 2735.97,-27.74"/>
<polygon fill="midnightblue" stroke="midnightblue" points="2738.96,-29.6 2742.43,-19.59 2733.48,-25.25 2738.96,-29.6"/>
</g>
<!-- Node20&#45;&gt;Node15 -->
<g id="edge26" class="edge">
<title>Node20&#45;&gt;Node15</title>
<path fill="none" stroke="midnightblue" d="M2046.56,-392.38C2067.14,-353.46 2151.56,-193.81 2179.77,-140.45"/>
<polygon fill="midnightblue" stroke="midnightblue" points="2182.91,-142 2184.49,-131.52 2176.72,-138.73 2182.91,-142"/>
</g>
<!-- Node21 -->
<g id="node21" class="node">
<title>Node21</title>
<g id="a_node21"><a xlink:title=" ">
<polygon fill="none" stroke="#bfbfbf" points="2452,-112.5 2452,-131.5 2504,-131.5 2504,-112.5 2452,-112.5"/>
<text text-anchor="middle" x="2478" y="-119.5" font-family="Helvetica,sans-Serif" font-size="10.00">petsc.h</text>
</a>
</g>
</g>
<!-- Node20&#45;&gt;Node21 -->
<g id="edge23" class="edge">
<title>Node20&#45;&gt;Node21</title>
<path fill="none" stroke="midnightblue" d="M2056.96,-392.38C2072.36,-383.45 2097.01,-369 2118,-356 2247.83,-275.59 2400.75,-174.44 2456.39,-137.42"/>
<polygon fill="midnightblue" stroke="midnightblue" points="2458.66,-140.11 2465.04,-131.65 2454.78,-134.28 2458.66,-140.11"/>
</g>
<!-- Node22 -->
<g id="node22" class="node">
<title>Node22</title>
<g id="a_node22"><a xlink:title=" ">
<polygon fill="none" stroke="#bfbfbf" points="2561,-112.5 2561,-131.5 2623,-131.5 2623,-112.5 2561,-112.5"/>
<text text-anchor="middle" x="2592" y="-119.5" font-family="Helvetica,sans-Serif" font-size="10.00">stdbool.h</text>
</a>
</g>
</g>
<!-- Node20&#45;&gt;Node22 -->
<g id="edge25" class="edge">
<title>Node20&#45;&gt;Node22</title>
<path fill="none" stroke="midnightblue" d="M2063.53,-392.34C2084.91,-383.62 2118.52,-369.53 2147,-356 2310.28,-278.41 2500.93,-173.69 2567.55,-136.66"/>
<polygon fill="midnightblue" stroke="midnightblue" points="2569.42,-139.62 2576.46,-131.7 2566.02,-133.51 2569.42,-139.62"/>
</g>
<!-- Node20&#45;&gt;Node23 -->
<g id="edge28" class="edge">
<title>Node20&#45;&gt;Node23</title>
<path fill="none" stroke="midnightblue" d="M2032.67,-411.5C2015.96,-426.15 1979.16,-455.73 1942,-468 1813.05,-510.59 1389.52,-513.41 1254.65,-513.2"/>
<polygon fill="midnightblue" stroke="midnightblue" points="1254.34,-509.7 1244.34,-513.18 1254.33,-516.7 1254.34,-509.7"/>
</g>
<!-- Node20&#45;&gt;Node26 -->
<g id="edge108" class="edge">
<title>Node20&#45;&gt;Node26</title>
<path fill="none" stroke="midnightblue" d="M2052,-392.4C2062.48,-383.37 2079.44,-368.73 2094,-356 2132.4,-322.42 2140.79,-312.62 2180,-280 2199.96,-263.4 2206.77,-261.44 2226,-244 2243.22,-228.38 2261.41,-208.92 2273.6,-195.38"/>
<polygon fill="midnightblue" stroke="midnightblue" points="2276.31,-197.59 2280.35,-187.8 2271.08,-192.94 2276.31,-197.59"/>
</g>
<!-- Node20&#45;&gt;Node29 -->
<g id="edge116" class="edge">
<title>Node20&#45;&gt;Node29</title>
<path fill="none" stroke="midnightblue" d="M1993.83,-401.31C1895.05,-401.06 1662.84,-395.83 1473,-356 1398.85,-340.44 1381.8,-329.45 1312,-300 1209.44,-256.74 1185.8,-241.14 1088,-188 1072.6,-179.63 1070.49,-173.96 1054,-168 967.01,-136.57 856.63,-127 805.86,-124.16"/>
<polygon fill="midnightblue" stroke="midnightblue" points="805.84,-120.65 795.68,-123.64 805.49,-127.64 805.84,-120.65"/>
</g>
<!-- Node33 -->
<g id="node33" class="node">
<title>Node33</title>
<g id="a_node33"><a xlink:href="Metric_8h.html" target="_top" xlink:title=" ">
<polygon fill="none" stroke="black" points="1558,-336.5 1558,-355.5 1614,-355.5 1614,-336.5 1558,-336.5"/>
<text text-anchor="middle" x="1586" y="-343.5" font-family="Helvetica,sans-Serif" font-size="10.00">Metric.h</text>
</a>
</g>
</g>
<!-- Node20&#45;&gt;Node33 -->
<g id="edge109" class="edge">
<title>Node20&#45;&gt;Node33</title>
<path fill="none" stroke="midnightblue" d="M1993.63,-395.27C1902.41,-384.47 1706.71,-361.29 1624.07,-351.51"/>
<polygon fill="midnightblue" stroke="midnightblue" points="1624.45,-348.03 1614.11,-350.33 1623.63,-354.98 1624.45,-348.03"/>
</g>
<!-- Node23&#45;&gt;Node2 -->
<g id="edge34" class="edge">
<title>Node23&#45;&gt;Node2</title>
<path fill="none" stroke="midnightblue" d="M1181.68,-510.59C1063.17,-500.72 645.29,-458.96 574,-356 500.31,-249.59 611.21,-155.83 733,-112 808.64,-84.78 1047.3,-72.63 1148.22,-68.61"/>
<polygon fill="midnightblue" stroke="midnightblue" points="1148.55,-72.1 1158.4,-68.22 1148.28,-65.11 1148.55,-72.1"/>
</g>
<!-- Node23&#45;&gt;Node9 -->
<g id="edge30" class="edge">
<title>Node23&#45;&gt;Node9</title>
<path fill="none" stroke="midnightblue" d="M1244.23,-511.97C1332.88,-508.12 1592.45,-490.43 1790,-412 1872.38,-379.3 1907.94,-375.11 1955,-300 1986.44,-249.83 2004.03,-218.43 1973,-168 1911.94,-68.78 1766.71,-29.99 1698.53,-16.86"/>
<polygon fill="midnightblue" stroke="midnightblue" points="1699.13,-13.41 1688.66,-15.04 1697.86,-20.3 1699.13,-13.41"/>
</g>
<!-- Node23&#45;&gt;Node10 -->
<g id="edge31" class="edge">
<title>Node23&#45;&gt;Node10</title>
<path fill="none" stroke="midnightblue" d="M1181.8,-511.36C991.93,-500.52 0,-431.83 0,-179 0,-179 0,-179 0,-121 0,-39.9 290.13,-17.83 394.31,-12.52"/>
<polygon fill="midnightblue" stroke="midnightblue" points="394.55,-16.01 404.36,-12.03 394.21,-9.02 394.55,-16.01"/>
</g>
<!-- Node23&#45;&gt;Node12 -->
<g id="edge107" class="edge">
<title>Node23&#45;&gt;Node12</title>
<path fill="none" stroke="midnightblue" d="M1216.2,-523.57C1220.45,-549.23 1220.88,-625.92 1217.5,-661.93"/>
<polygon fill="midnightblue" stroke="midnightblue" points="1214,-661.73 1216.26,-672.08 1220.94,-662.57 1214,-661.73"/>
</g>
<!-- Node23&#45;&gt;Node17 -->
<g id="edge32" class="edge">
<title>Node23&#45;&gt;Node17</title>
<path fill="none" stroke="midnightblue" d="M1181.96,-509.53C1132.89,-503.47 1040.42,-489.5 1016,-468 932.47,-394.46 914.69,-249.32 910.97,-197.74"/>
<polygon fill="midnightblue" stroke="midnightblue" points="914.46,-197.47 910.34,-187.71 907.47,-197.91 914.46,-197.47"/>
</g>
<!-- Node23&#45;&gt;Node21 -->
<g id="edge29" class="edge">
<title>Node23&#45;&gt;Node21</title>
<path fill="none" stroke="midnightblue" d="M1244.43,-512.93C1374.44,-512.39 1870.38,-507.73 2021,-468 2230.8,-412.67 2415.06,-200.9 2464.81,-139.67"/>
<polygon fill="midnightblue" stroke="midnightblue" points="2467.63,-141.75 2471.17,-131.77 2462.17,-137.37 2467.63,-141.75"/>
</g>
<!-- Node24 -->
<g id="node24" class="node">
<title>Node24</title>
<g id="a_node24"><a xlink:title=" ">
<polygon fill="none" stroke="#bfbfbf" points="1025.5,-448.5 1025.5,-467.5 1078.5,-467.5 1078.5,-448.5 1025.5,-448.5"/>
<text text-anchor="middle" x="1052" y="-455.5" font-family="Helvetica,sans-Serif" font-size="10.00">ctype.h</text>
</a>
</g>
</g>
<!-- Node23&#45;&gt;Node24 -->
<g id="edge33" class="edge">
<title>Node23&#45;&gt;Node24</title>
<path fill="none" stroke="midnightblue" d="M1187.49,-504.44C1160.4,-495.36 1117.41,-480.94 1087.13,-470.78"/>
<polygon fill="midnightblue" stroke="midnightblue" points="1087.99,-467.38 1077.39,-467.52 1085.76,-474.01 1087.99,-467.38"/>
</g>
<!-- Node23&#45;&gt;Node25 -->
<g id="edge35" class="edge">
<title>Node23&#45;&gt;Node25</title>
<path fill="none" stroke="midnightblue" d="M1229.3,-504.44C1249.84,-495.44 1285.25,-481.19 1312.15,-471.05"/>
<polygon fill="midnightblue" stroke="midnightblue" points="1313.48,-474.29 1321.63,-467.52 1311.04,-467.73 1313.48,-474.29"/>
</g>
<!-- Node25&#45;&gt;Node2 -->
<g id="edge43" class="edge">
<title>Node25&#45;&gt;Node2</title>
<path fill="none" stroke="midnightblue" d="M1343.36,-448.22C1323.87,-411.02 1247.79,-262.31 1207,-132 1202.21,-116.71 1198.79,-98.83 1196.66,-85.69"/>
<polygon fill="midnightblue" stroke="midnightblue" points="1200.08,-84.92 1195.12,-75.56 1193.16,-85.97 1200.08,-84.92"/>
</g>
<!-- Node25&#45;&gt;Node7 -->
<g id="edge37" class="edge">
<title>Node25&#45;&gt;Node7</title>
<path fill="none" stroke="midnightblue" d="M1405.16,-455.56C1556.71,-451.43 1966.28,-438.12 2099,-412 2256.35,-381.04 2782,-339.37 2782,-179 2782,-179 2782,-179 2782,-121 2782,-87.25 2767.57,-50.03 2757.79,-28.69"/>
<polygon fill="midnightblue" stroke="midnightblue" points="2760.91,-27.1 2753.45,-19.58 2754.59,-30.11 2760.91,-27.1"/>
</g>
<!-- Node25&#45;&gt;Node9 -->
<g id="edge38" class="edge">
<title>Node25&#45;&gt;Node9</title>
<path fill="none" stroke="midnightblue" d="M1405.34,-451.06C1505.08,-439.12 1700,-407.98 1700,-347 1700,-347 1700,-347 1700,-121 1700,-86.81 1683.4,-49.76 1672.14,-28.57"/>
<polygon fill="midnightblue" stroke="midnightblue" points="1675.18,-26.83 1667.28,-19.77 1669.05,-30.22 1675.18,-26.83"/>
</g>
<!-- Node25&#45;&gt;Node13 -->
<g id="edge36" class="edge">
<title>Node25&#45;&gt;Node13</title>
<path fill="none" stroke="midnightblue" d="M1335.6,-448.36C1323.09,-439.53 1303.35,-425.27 1287,-412 1238.24,-372.43 1124.76,-263.57 1076,-224 1062.97,-213.43 1047.79,-202.22 1035.83,-193.64"/>
<polygon fill="midnightblue" stroke="midnightblue" points="1037.58,-190.59 1027.4,-187.64 1033.52,-196.29 1037.58,-190.59"/>
</g>
<!-- Node25&#45;&gt;Node14 -->
<g id="edge39" class="edge">
<title>Node25&#45;&gt;Node14</title>
<path fill="none" stroke="midnightblue" d="M1330.73,-448.35C1312.93,-439.39 1284.42,-424.92 1260,-412 1106.2,-330.64 923.48,-229.01 858.45,-192.69"/>
<polygon fill="midnightblue" stroke="midnightblue" points="859.83,-189.44 849.39,-187.62 856.41,-195.55 859.83,-189.44"/>
</g>
<!-- Node25&#45;&gt;Node15 -->
<g id="edge40" class="edge">
<title>Node25&#45;&gt;Node15</title>
<path fill="none" stroke="midnightblue" d="M1405.05,-454.2C1502.77,-448.85 1697.86,-435.53 1762,-412 1767.82,-409.87 2083.04,-195.2 2168.06,-137.27"/>
<polygon fill="midnightblue" stroke="midnightblue" points="2170.12,-140.1 2176.41,-131.58 2166.18,-134.32 2170.12,-140.1"/>
</g>
<!-- Node25&#45;&gt;Node16 -->
<g id="edge41" class="edge">
<title>Node25&#45;&gt;Node16</title>
<path fill="none" stroke="midnightblue" d="M1405.03,-457.03C1495.73,-455.95 1667.38,-448.91 1714,-412 1738.14,-392.88 1738,-377.8 1738,-347 1738,-347 1738,-347 1738,-289 1738,-255.86 1749.7,-218.68 1757.7,-197.14"/>
<polygon fill="midnightblue" stroke="midnightblue" points="1761.02,-198.25 1761.36,-187.66 1754.49,-195.73 1761.02,-198.25"/>
</g>
<!-- Node25&#45;&gt;Node18 -->
<g id="edge42" class="edge">
<title>Node25&#45;&gt;Node18</title>
<path fill="none" stroke="midnightblue" d="M1405.33,-456.39C1499.66,-454.4 1682.46,-446.12 1736,-412 1764.61,-393.77 1776,-380.92 1776,-347 1776,-347 1776,-347 1776,-289 1776,-244.22 1822.06,-210.32 1852.88,-192.66"/>
<polygon fill="midnightblue" stroke="midnightblue" points="1854.81,-195.59 1861.88,-187.7 1851.44,-189.46 1854.81,-195.59"/>
</g>
<!-- Node25&#45;&gt;Node20 -->
<g id="edge44" class="edge">
<title>Node25&#45;&gt;Node20</title>
<path fill="none" stroke="midnightblue" d="M1405.09,-452.56C1535.15,-442.44 1852.37,-417.76 1983.64,-407.54"/>
<polygon fill="midnightblue" stroke="midnightblue" points="1984.19,-411.01 1993.89,-406.74 1983.65,-404.03 1984.19,-411.01"/>
</g>
<!-- Node25&#45;&gt;Node23 -->
<g id="edge103" class="edge">
<title>Node25&#45;&gt;Node23</title>
<path fill="none" stroke="midnightblue" d="M1331.79,-467.52C1311.29,-476.51 1275.9,-490.75 1248.97,-500.91"/>
<polygon fill="midnightblue" stroke="midnightblue" points="1247.63,-497.67 1239.48,-504.44 1250.07,-504.23 1247.63,-497.67"/>
</g>
<!-- Node25&#45;&gt;Node26 -->
<g id="edge45" class="edge">
<title>Node25&#45;&gt;Node26</title>
<path fill="none" stroke="midnightblue" d="M1405.1,-454.32C1514.56,-448.75 1750,-434.53 1828,-412 2009.2,-359.67 2203.71,-235.66 2266.9,-193.4"/>
<polygon fill="midnightblue" stroke="midnightblue" points="2269.23,-196.05 2275.57,-187.56 2265.32,-190.24 2269.23,-196.05"/>
</g>
<!-- Node27 -->
<g id="node27" class="node">
<title>Node27</title>
<g id="a_node27"><a xlink:href="setup_8h.html" target="_top" xlink:title=" ">
<polygon fill="none" stroke="black" points="1321.5,-280.5 1321.5,-299.5 1374.5,-299.5 1374.5,-280.5 1321.5,-280.5"/>
<text text-anchor="middle" x="1348" y="-287.5" font-family="Helvetica,sans-Serif" font-size="10.00">setup.h</text>
</a>
</g>
</g>
<!-- Node25&#45;&gt;Node27 -->
<g id="edge105" class="edge">
<title>Node25&#45;&gt;Node27</title>
<path fill="none" stroke="midnightblue" d="M1344.74,-448.08C1340.52,-421.95 1340.13,-345.21 1343.55,-309.58"/>
<polygon fill="midnightblue" stroke="midnightblue" points="1347.03,-309.92 1344.8,-299.57 1340.09,-309.06 1347.03,-309.92"/>
</g>
<!-- Node25&#45;&gt;Node28 -->
<g id="edge102" class="edge">
<title>Node25&#45;&gt;Node28</title>
<path fill="none" stroke="midnightblue" d="M1290.75,-449.83C1239.43,-442.67 1162.38,-430.11 1097,-412 1005.36,-386.61 986.11,-369.19 897,-336 785.27,-294.38 713.34,-341.7 645,-244 627.94,-219.61 666.05,-199.98 696.11,-188.9"/>
<polygon fill="midnightblue" stroke="midnightblue" points="697.63,-192.08 705.91,-185.48 695.32,-185.47 697.63,-192.08"/>
</g>
<!-- Node25&#45;&gt;Node29 -->
<g id="edge104" class="edge">
<title>Node25&#45;&gt;Node29</title>
<path fill="none" stroke="midnightblue" d="M1319.81,-448.46C1293.55,-440.19 1253.53,-426.75 1220,-412 1026.72,-326.96 938.64,-348.14 801,-188 789.67,-174.82 783.8,-155.68 780.83,-141.58"/>
<polygon fill="midnightblue" stroke="midnightblue" points="784.24,-140.79 779.03,-131.57 777.35,-142.03 784.24,-140.79"/>
</g>
<!-- Node25&#45;&gt;Node30 -->
<g id="edge106" class="edge">
<title>Node25&#45;&gt;Node30</title>
<path fill="none" stroke="midnightblue" d="M1353.43,-448.39C1358.73,-439.58 1366.62,-425.34 1371,-412 1389.27,-356.41 1396.34,-287.05 1398.81,-254.1"/>
<polygon fill="midnightblue" stroke="midnightblue" points="1402.33,-253.91 1399.53,-243.7 1395.35,-253.44 1402.33,-253.91"/>
</g>
<!-- Node26&#45;&gt;Node2 -->
<g id="edge49" class="edge">
<title>Node26&#45;&gt;Node2</title>
<path fill="none" stroke="midnightblue" d="M2282.61,-168.24C2272.97,-153.48 2251.2,-124.1 2224,-112 2133.36,-71.7 1427.33,-67.45 1239.68,-67.04"/>
<polygon fill="midnightblue" stroke="midnightblue" points="1239.6,-63.54 1229.6,-67.02 1239.59,-70.54 1239.6,-63.54"/>
</g>
<!-- Node26&#45;&gt;Node15 -->
<g id="edge48" class="edge">
<title>Node26&#45;&gt;Node15</title>
<path fill="none" stroke="midnightblue" d="M2272.09,-168.32C2256.36,-159.74 2232.06,-146.49 2213.79,-136.52"/>
<polygon fill="midnightblue" stroke="midnightblue" points="2215.32,-133.37 2204.87,-131.65 2211.97,-139.52 2215.32,-133.37"/>
</g>
<!-- Node26&#45;&gt;Node21 -->
<g id="edge46" class="edge">
<title>Node26&#45;&gt;Node21</title>
<path fill="none" stroke="midnightblue" d="M2318.11,-168.44C2351.63,-158.92 2405.8,-143.52 2441.66,-133.33"/>
<polygon fill="midnightblue" stroke="midnightblue" points="2443.04,-136.57 2451.71,-130.47 2441.13,-129.84 2443.04,-136.57"/>
</g>
<!-- Node26&#45;&gt;Node22 -->
<g id="edge47" class="edge">
<title>Node26&#45;&gt;Node22</title>
<path fill="none" stroke="midnightblue" d="M2336.17,-168.44C2395.43,-157.92 2495.03,-140.23 2550.87,-130.31"/>
<polygon fill="midnightblue" stroke="midnightblue" points="2551.53,-133.74 2560.76,-128.55 2550.3,-126.85 2551.53,-133.74"/>
</g>
<!-- Node26&#45;&gt;Node23 -->
<g id="edge50" class="edge">
<title>Node26&#45;&gt;Node23</title>
<path fill="none" stroke="midnightblue" d="M2283.61,-187.76C2277.02,-200.58 2263.87,-225 2250,-244 2157.26,-371.04 2128.67,-430.14 1976,-468 1837.45,-502.36 1392.88,-510.75 1254.51,-512.55"/>
<polygon fill="midnightblue" stroke="midnightblue" points="1254.28,-509.06 1244.33,-512.68 1254.37,-516.05 1254.28,-509.06"/>
</g>
<!-- Node26&#45;&gt;Node27 -->
<g id="edge51" class="edge">
<title>Node26&#45;&gt;Node27</title>
<path fill="none" stroke="midnightblue" d="M2239.94,-187.42C2157.54,-200.68 1984.39,-226.69 1837,-244 1668.77,-263.76 1466.54,-280.4 1384.77,-286.51"/>
<polygon fill="midnightblue" stroke="midnightblue" points="1384.43,-283.02 1374.72,-287.25 1384.95,-290 1384.43,-283.02"/>
</g>
<!-- Node27&#45;&gt;Node2 -->
<g id="edge61" class="edge">
<title>Node27&#45;&gt;Node2</title>
<path fill="none" stroke="midnightblue" d="M1337.67,-280.47C1318.41,-264.15 1276.56,-226.67 1250,-188 1226.94,-154.43 1209.12,-109.84 1200.24,-85.24"/>
<polygon fill="midnightblue" stroke="midnightblue" points="1203.51,-84.01 1196.89,-75.74 1196.91,-86.33 1203.51,-84.01"/>
</g>
<!-- Node27&#45;&gt;Node7 -->
<g id="edge53" class="edge">
<title>Node27&#45;&gt;Node7</title>
<path fill="none" stroke="midnightblue" d="M1374.84,-284.96C1425.54,-277.29 1538.82,-259.95 1634,-244 1774.24,-220.5 1811.76,-225.2 1949,-188 2043.19,-162.47 2060.72,-137.18 2155,-112 2346.41,-60.89 2579.71,-30.12 2688.16,-17.57"/>
<polygon fill="midnightblue" stroke="midnightblue" points="2688.72,-21.03 2698.26,-16.42 2687.93,-14.08 2688.72,-21.03"/>
</g>
<!-- Node27&#45;&gt;Node9 -->
<g id="edge54" class="edge">
<title>Node27&#45;&gt;Node9</title>
<path fill="none" stroke="midnightblue" d="M1342.07,-280.38C1328.52,-259.51 1298.16,-205.25 1321,-168 1387.56,-59.43 1551.16,-25.13 1624.9,-14.98"/>
<polygon fill="midnightblue" stroke="midnightblue" points="1625.64,-18.41 1635.11,-13.65 1624.74,-11.47 1625.64,-18.41"/>
</g>
<!-- Node27&#45;&gt;Node12 -->
<g id="edge101" class="edge">
<title>Node27&#45;&gt;Node12</title>
<path fill="none" stroke="midnightblue" d="M1321.36,-299.49C1248.95,-323.18 1051.52,-391.91 1016,-448 957.92,-539.71 1119.05,-633.89 1185.67,-667.83"/>
<polygon fill="midnightblue" stroke="midnightblue" points="1184.26,-671.04 1194.77,-672.39 1187.4,-664.78 1184.26,-671.04"/>
</g>
<!-- Node27&#45;&gt;Node13 -->
<g id="edge52" class="edge">
<title>Node27&#45;&gt;Node13</title>
<path fill="none" stroke="midnightblue" d="M1322.15,-280.46C1263.13,-260.97 1118.41,-213.16 1050.84,-190.84"/>
<polygon fill="midnightblue" stroke="midnightblue" points="1051.66,-187.42 1041.07,-187.61 1049.46,-194.07 1051.66,-187.42"/>
</g>
<!-- Node27&#45;&gt;Node14 -->
<g id="edge55" class="edge">
<title>Node27&#45;&gt;Node14</title>
<path fill="none" stroke="midnightblue" d="M1321.18,-285.58C1271.65,-279.06 1162.61,-263.7 1072,-244 998.46,-228.01 913.75,-203.35 867.85,-189.45"/>
<polygon fill="midnightblue" stroke="midnightblue" points="868.7,-186.05 858.12,-186.49 866.67,-192.75 868.7,-186.05"/>
</g>
<!-- Node27&#45;&gt;Node15 -->
<g id="edge56" class="edge">
<title>Node27&#45;&gt;Node15</title>
<path fill="none" stroke="midnightblue" d="M1369.49,-280.47C1402.48,-267.53 1467.67,-242.46 1524,-224 1609.68,-195.92 1630.41,-184.81 1719,-168 1878.98,-137.64 2073.7,-127.3 2152.9,-124.19"/>
<polygon fill="midnightblue" stroke="midnightblue" points="2153.43,-127.67 2163.29,-123.8 2153.17,-120.68 2153.43,-127.67"/>
</g>
<!-- Node27&#45;&gt;Node16 -->
<g id="edge57" class="edge">
<title>Node27&#45;&gt;Node16</title>
<path fill="none" stroke="midnightblue" d="M1374.57,-282.32C1409.05,-273.63 1471.08,-257.9 1524,-244 1594.43,-225.5 1676.25,-203.28 1724.15,-190.19"/>
<polygon fill="midnightblue" stroke="midnightblue" points="1725.11,-193.56 1733.84,-187.54 1723.27,-186.81 1725.11,-193.56"/>
</g>
<!-- Node27&#45;&gt;Node17 -->
<g id="edge58" class="edge">
<title>Node27&#45;&gt;Node17</title>
<path fill="none" stroke="midnightblue" d="M1321.38,-283.41C1282.97,-275.26 1209.82,-259.39 1148,-244 1077.72,-226.51 996.45,-203.76 949.36,-190.34"/>
<polygon fill="midnightblue" stroke="midnightblue" points="950.15,-186.92 939.57,-187.54 948.22,-193.65 950.15,-186.92"/>
</g>
<!-- Node27&#45;&gt;Node18 -->
<g id="edge59" class="edge">
<title>Node27&#45;&gt;Node18</title>
<path fill="none" stroke="midnightblue" d="M1374.81,-283.78C1417.15,-275.5 1502.09,-258.8 1574,-244 1664.52,-225.38 1769.89,-202.79 1830.39,-189.74"/>
<polygon fill="midnightblue" stroke="midnightblue" points="1831.39,-193.11 1840.42,-187.58 1829.91,-186.26 1831.39,-193.11"/>
</g>
<!-- Node27&#45;&gt;Node19 -->
<g id="edge60" class="edge">
<title>Node27&#45;&gt;Node19</title>
<path fill="none" stroke="midnightblue" d="M1321.29,-286.87C1242.07,-280.54 1001.47,-261.2 802,-244 788.37,-242.82 773.69,-241.52 759.9,-240.29"/>
<polygon fill="midnightblue" stroke="midnightblue" points="759.83,-236.76 749.55,-239.35 759.2,-243.74 759.83,-236.76"/>
</g>
<!-- Node27&#45;&gt;Node20 -->
<g id="edge62" class="edge">
<title>Node27&#45;&gt;Node20</title>
<path fill="none" stroke="midnightblue" d="M1369,-299.51C1405.12,-313.75 1481.63,-342.21 1549,-356 1630.65,-372.71 1871.55,-389.93 1983.53,-397.3"/>
<polygon fill="midnightblue" stroke="midnightblue" points="1983.43,-400.8 1993.64,-397.96 1983.89,-393.81 1983.43,-400.8"/>
</g>
<!-- Node27&#45;&gt;Node23 -->
<g id="edge72" class="edge">
<title>Node27&#45;&gt;Node23</title>
<path fill="none" stroke="midnightblue" d="M1342.56,-299.84C1327.88,-323.7 1286.26,-391.43 1252,-448 1242.33,-463.97 1231.4,-482.19 1223.58,-495.28"/>
<polygon fill="midnightblue" stroke="midnightblue" points="1220.4,-493.77 1218.28,-504.15 1226.41,-497.37 1220.4,-493.77"/>
</g>
<!-- Node27&#45;&gt;Node25 -->
<g id="edge91" class="edge">
<title>Node27&#45;&gt;Node25</title>
<path fill="none" stroke="midnightblue" d="M1351.2,-299.57C1355.45,-325.23 1355.88,-401.92 1352.5,-437.93"/>
<polygon fill="midnightblue" stroke="midnightblue" points="1349,-437.73 1351.26,-448.08 1355.94,-438.57 1349,-437.73"/>
</g>
<!-- Node27&#45;&gt;Node26 -->
<g id="edge63" class="edge">
<title>Node27&#45;&gt;Node26</title>
<path fill="none" stroke="midnightblue" d="M1374.72,-286.58C1446.8,-280.54 1650.04,-263.85 1819,-244 1966.94,-226.62 2140.84,-200.49 2229.62,-187.28"/>
<polygon fill="midnightblue" stroke="midnightblue" points="2230.38,-190.7 2239.76,-185.77 2229.35,-183.78 2230.38,-190.7"/>
</g>
<!-- Node27&#45;&gt;Node28 -->
<g id="edge64" class="edge">
<title>Node27&#45;&gt;Node28</title>
<path fill="none" stroke="midnightblue" d="M1321.18,-287.13C1259.89,-282.19 1106.28,-267.55 980,-244 899.81,-229.04 807.53,-204.23 759.86,-189.98"/>
<polygon fill="midnightblue" stroke="midnightblue" points="760.69,-186.58 750.11,-187.02 758.66,-193.28 760.69,-186.58"/>
</g>
<!-- Node27&#45;&gt;Node29 -->
<g id="edge73" class="edge">
<title>Node27&#45;&gt;Node29</title>
<path fill="none" stroke="midnightblue" d="M1333.96,-280.45C1311.92,-267.25 1267.63,-241.6 1228,-224 1184.06,-204.49 1170.05,-207.25 1126,-188 1108.51,-180.36 1106.15,-173.9 1088,-168 987.39,-135.29 860.68,-126.31 805.63,-123.88"/>
<polygon fill="midnightblue" stroke="midnightblue" points="805.74,-120.38 795.61,-123.48 805.46,-127.38 805.74,-120.38"/>
</g>
<!-- Node27&#45;&gt;Node30 -->
<g id="edge74" class="edge">
<title>Node27&#45;&gt;Node30</title>
<path fill="none" stroke="midnightblue" d="M1351.42,-280.08C1357.45,-272.06 1368.63,-260.1 1378.89,-250.51"/>
<polygon fill="midnightblue" stroke="midnightblue" points="1381.32,-253.03 1386.44,-243.75 1376.66,-247.81 1381.32,-253.03"/>
</g>
<!-- Node27&#45;&gt;Node32 -->
<g id="edge92" class="edge">
<title>Node27&#45;&gt;Node32</title>
<path fill="none" stroke="midnightblue" d="M1361.29,-299.58C1383.51,-313.54 1430.02,-341.09 1473,-356 1864.64,-491.82 2365.14,-548.02 2533.67,-563.93"/>
<polygon fill="midnightblue" stroke="midnightblue" points="2533.53,-567.43 2543.81,-564.88 2534.18,-560.46 2533.53,-567.43"/>
</g>
<!-- Node28&#45;&gt;Node2 -->
<g id="edge65" class="edge">
<title>Node28&#45;&gt;Node2</title>
<path fill="none" stroke="midnightblue" d="M728.29,-168.16C729.28,-153.84 733.49,-125.76 751,-112 781.77,-87.82 1041.07,-73.74 1148.09,-68.91"/>
<polygon fill="midnightblue" stroke="midnightblue" points="1148.42,-72.39 1158.26,-68.45 1148.11,-65.4 1148.42,-72.39"/>
</g>
<!-- Node28&#45;&gt;Node23 -->
<g id="edge66" class="edge">
<title>Node28&#45;&gt;Node23</title>
<path fill="none" stroke="midnightblue" d="M705.89,-183.03C684.1,-188.31 651.97,-199.9 637,-224 617.08,-256.08 643.49,-279.18 675,-300 744.52,-345.94 785.16,-297.38 859,-336 933.64,-375.03 920.56,-428.58 995,-468 1051.56,-497.95 1126.16,-507.98 1171.8,-511.33"/>
<polygon fill="midnightblue" stroke="midnightblue" points="1171.71,-514.83 1181.92,-512 1172.17,-507.85 1171.71,-514.83"/>
</g>
<!-- Node28&#45;&gt;Node27 -->
<g id="edge71" class="edge">
<title>Node28&#45;&gt;Node27</title>
<path fill="none" stroke="midnightblue" d="M750.14,-184.15C796.38,-196.23 905.27,-226.71 998,-244 1111.48,-265.16 1247.03,-279.13 1311.16,-285.33"/>
<polygon fill="midnightblue" stroke="midnightblue" points="1310.9,-288.82 1321.19,-286.29 1311.57,-281.85 1310.9,-288.82"/>
</g>
<!-- Node28&#45;&gt;Node29 -->
<g id="edge67" class="edge">
<title>Node28&#45;&gt;Node29</title>
<path fill="none" stroke="midnightblue" d="M736.26,-168.08C743.46,-160.3 754.11,-148.8 762.85,-139.37"/>
<polygon fill="midnightblue" stroke="midnightblue" points="765.67,-141.47 769.9,-131.75 760.53,-136.71 765.67,-141.47"/>
</g>
<!-- Node29&#45;&gt;Node2 -->
<g id="edge68" class="edge">
<title>Node29&#45;&gt;Node2</title>
<path fill="none" stroke="midnightblue" d="M795.61,-118.71C856.14,-110.86 1056.95,-84.79 1148.19,-72.95"/>
<polygon fill="midnightblue" stroke="midnightblue" points="1148.77,-76.4 1158.23,-71.64 1147.87,-69.46 1148.77,-76.4"/>
</g>
<!-- Node29&#45;&gt;Node12 -->
<g id="edge70" class="edge">
<title>Node29&#45;&gt;Node12</title>
<path fill="none" stroke="midnightblue" d="M760.44,-126.2C660.49,-143.31 170,-225.7 170,-289 170,-571 170,-571 170,-571 170,-625.51 221.98,-619.73 274,-636 359.23,-662.65 979.96,-676.43 1162.63,-680.03"/>
<polygon fill="midnightblue" stroke="midnightblue" points="1162.7,-683.53 1172.77,-680.23 1162.84,-676.54 1162.7,-683.53"/>
</g>
<!-- Node29&#45;&gt;Node23 -->
<g id="edge69" class="edge">
<title>Node29&#45;&gt;Node23</title>
<path fill="none" stroke="midnightblue" d="M760.38,-128.2C726.55,-139.29 653.5,-168.85 627,-224 611.92,-255.38 623.43,-273.49 646,-300 786.04,-464.49 1066.48,-502.15 1171.78,-510.61"/>
<polygon fill="midnightblue" stroke="midnightblue" points="1171.76,-514.11 1182,-511.38 1172.29,-507.13 1171.76,-514.11"/>
</g>
<!-- Node30&#45;&gt;Node2 -->
<g id="edge84" class="edge">
<title>Node30&#45;&gt;Node2</title>
<path fill="none" stroke="midnightblue" d="M1382.3,-224.49C1365.77,-216.19 1340.76,-202.7 1321,-188 1309.11,-179.16 1241.91,-113.83 1210.36,-83.01"/>
<polygon fill="midnightblue" stroke="midnightblue" points="1212.41,-80.13 1202.82,-75.64 1207.52,-85.13 1212.41,-80.13"/>
</g>
<!-- Node30&#45;&gt;Node7 -->
<g id="edge76" class="edge">
<title>Node30&#45;&gt;Node7</title>
<path fill="none" stroke="midnightblue" d="M1416.12,-224.48C1443.6,-210.35 1501.63,-182.22 1554,-168 1921.72,-68.13 2026.19,-105.53 2404,-56 2503.55,-42.95 2619.27,-27.88 2688.19,-18.91"/>
<polygon fill="midnightblue" stroke="midnightblue" points="2688.96,-22.34 2698.43,-17.58 2688.06,-15.39 2688.96,-22.34"/>
</g>
<!-- Node30&#45;&gt;Node9 -->
<g id="edge77" class="edge">
<title>Node30&#45;&gt;Node9</title>
<path fill="none" stroke="midnightblue" d="M1405.39,-224.22C1418.74,-203 1455.2,-148.03 1496,-112 1539.57,-73.53 1599.69,-41.09 1634.34,-23.99"/>
<polygon fill="midnightblue" stroke="midnightblue" points="1635.94,-27.1 1643.41,-19.58 1632.88,-20.81 1635.94,-27.1"/>
</g>
<!-- Node30&#45;&gt;Node13 -->
<g id="edge75" class="edge">
<title>Node30&#45;&gt;Node13</title>
<path fill="none" stroke="midnightblue" d="M1355.84,-226.81C1280.63,-216.26 1128.77,-194.96 1055.87,-184.73"/>
<polygon fill="midnightblue" stroke="midnightblue" points="1056.1,-181.23 1045.71,-183.31 1055.12,-188.16 1056.1,-181.23"/>
</g>
<!-- Node30&#45;&gt;Node14 -->
<g id="edge78" class="edge">
<title>Node30&#45;&gt;Node14</title>
<path fill="none" stroke="midnightblue" d="M1355.78,-231.98C1265.61,-229.32 1054.06,-220.11 868,-187.85"/>
<polygon fill="midnightblue" stroke="midnightblue" points="868.49,-184.39 858.04,-186.1 867.28,-191.28 868.49,-184.39"/>
</g>
<!-- Node30&#45;&gt;Node15 -->
<g id="edge79" class="edge">
<title>Node30&#45;&gt;Node15</title>
<path fill="none" stroke="midnightblue" d="M1426.46,-224.44C1471.45,-210.26 1565.96,-182.05 1648,-168 1836.61,-135.69 2066.33,-126.33 2153.33,-123.83"/>
<polygon fill="midnightblue" stroke="midnightblue" points="2153.55,-127.33 2163.45,-123.56 2153.36,-120.33 2153.55,-127.33"/>
</g>
<!-- Node30&#45;&gt;Node16 -->
<g id="edge80" class="edge">
<title>Node30&#45;&gt;Node16</title>
<path fill="none" stroke="midnightblue" d="M1444.03,-226.49C1513.24,-216.25 1646.92,-196.47 1717.96,-185.96"/>
<polygon fill="midnightblue" stroke="midnightblue" points="1718.59,-189.4 1727.97,-184.48 1717.57,-182.48 1718.59,-189.4"/>
</g>
<!-- Node30&#45;&gt;Node17 -->
<g id="edge83" class="edge">
<title>Node30&#45;&gt;Node17</title>
<path fill="none" stroke="midnightblue" d="M1355.9,-228.8C1278.64,-221.34 1113.83,-204.96 975,-188 968.24,-187.17 961.09,-186.24 954.1,-185.3"/>
<polygon fill="midnightblue" stroke="midnightblue" points="954.43,-181.81 944.05,-183.92 953.48,-188.75 954.43,-181.81"/>
</g>
<!-- Node30&#45;&gt;Node18 -->
<g id="edge81" class="edge">
<title>Node30&#45;&gt;Node18</title>
<path fill="none" stroke="midnightblue" d="M1444.13,-228.47C1517.67,-220.86 1670.18,-204.78 1810.12,-188.08"/>
<polygon fill="midnightblue" stroke="midnightblue" points="1810.66,-191.54 1820.17,-186.88 1809.83,-184.59 1810.66,-191.54"/>
</g>
<!-- Node30&#45;&gt;Node20 -->
<g id="edge85" class="edge">
<title>Node30&#45;&gt;Node20</title>
<path fill="none" stroke="midnightblue" d="M1432.97,-243.52C1540.09,-271.22 1878.38,-358.69 1998.87,-389.85"/>
<polygon fill="midnightblue" stroke="midnightblue" points="1998.28,-393.31 2008.84,-392.42 2000.03,-386.53 1998.28,-393.31"/>
</g>
<!-- Node30&#45;&gt;Node23 -->
<g id="edge88" class="edge">
<title>Node30&#45;&gt;Node23</title>
<path fill="none" stroke="midnightblue" d="M1372.35,-243.61C1353.3,-250.75 1328.53,-262.57 1312,-280 1251.19,-344.11 1224.84,-451.22 1216.32,-494.25"/>
<polygon fill="midnightblue" stroke="midnightblue" points="1212.86,-493.71 1214.46,-504.18 1219.74,-495 1212.86,-493.71"/>
</g>
<!-- Node30&#45;&gt;Node26 -->
<g id="edge86" class="edge">
<title>Node30&#45;&gt;Node26</title>
<path fill="none" stroke="midnightblue" d="M1444.04,-230.32C1590.92,-221.39 2064.12,-192.61 2229.94,-182.53"/>
<polygon fill="midnightblue" stroke="midnightblue" points="2230.18,-186.02 2239.95,-181.92 2229.75,-179.04 2230.18,-186.02"/>
</g>
<!-- Node30&#45;&gt;Node27 -->
<g id="edge90" class="edge">
<title>Node30&#45;&gt;Node27</title>
<path fill="none" stroke="midnightblue" d="M1396.64,-243.83C1390.61,-251.87 1379.36,-263.91 1369.06,-273.54"/>
<polygon fill="midnightblue" stroke="midnightblue" points="1366.59,-271.05 1361.47,-280.32 1371.26,-276.27 1366.59,-271.05"/>
</g>
<!-- Node30&#45;&gt;Node28 -->
<g id="edge87" class="edge">
<title>Node30&#45;&gt;Node28</title>
<path fill="none" stroke="midnightblue" d="M1355.97,-230.41C1256.78,-224.43 1008.3,-208.55 801,-188 787.6,-186.67 772.85,-184.91 760.14,-183.3"/>
<polygon fill="midnightblue" stroke="midnightblue" points="760.38,-179.8 750.01,-181.99 759.48,-186.74 760.38,-179.8"/>
</g>
<!-- Node30&#45;&gt;Node29 -->
<g id="edge89" class="edge">
<title>Node30&#45;&gt;Node29</title>
<path fill="none" stroke="midnightblue" d="M1368.58,-224.42C1317.88,-210.82 1214.73,-184.22 1126,-168 1007.81,-146.4 865.18,-131.37 805.92,-125.61"/>
<polygon fill="midnightblue" stroke="midnightblue" points="806.14,-122.12 795.85,-124.64 805.47,-129.08 806.14,-122.12"/>
</g>
<!-- Node31 -->
<g id="node31" class="node">
<title>Node31</title>
<g id="a_node31"><a xlink:title=" ">
<polygon fill="none" stroke="#bfbfbf" points="1330.5,-168.5 1330.5,-187.5 1405.5,-187.5 1405.5,-168.5 1330.5,-168.5"/>
<text text-anchor="middle" x="1368" y="-175.5" font-family="Helvetica,sans-Serif" font-size="10.00">petscerror.h</text>
</a>
</g>
</g>
<!-- Node30&#45;&gt;Node31 -->
<g id="edge82" class="edge">
<title>Node30&#45;&gt;Node31</title>
<path fill="none" stroke="midnightblue" d="M1394.72,-224.08C1390.29,-216.61 1383.84,-205.72 1378.38,-196.52"/>
<polygon fill="midnightblue" stroke="midnightblue" points="1381.29,-194.57 1373.19,-187.75 1375.27,-198.14 1381.29,-194.57"/>
</g>
<!-- Node32&#45;&gt;Node2 -->
<g id="edge98" class="edge">
<title>Node32&#45;&gt;Node2</title>
<path fill="none" stroke="midnightblue" d="M2640.07,-566.61C2706.97,-560.41 2820,-538.22 2820,-459 2820,-459 2820,-459 2820,-401 2820,-346.86 2852.25,-330.97 2834,-280 2794.64,-170.07 2745.11,-141.01 2632,-112 2494.69,-76.78 1470.14,-68.64 1239.86,-67.25"/>
<polygon fill="midnightblue" stroke="midnightblue" points="1239.83,-63.75 1229.81,-67.19 1239.79,-70.75 1239.83,-63.75"/>
</g>
<!-- Node32&#45;&gt;Node7 -->
<g id="edge94" class="edge">
<title>Node32&#45;&gt;Node7</title>
<path fill="none" stroke="midnightblue" d="M2640.17,-569.69C2716.82,-567.99 2858,-552.2 2858,-459 2858,-459 2858,-459 2858,-401 2858,-319.86 2934,-316.14 2934,-235 2934,-235 2934,-235 2934,-121 2934,-61.9 2863.39,-33.84 2809.42,-21.02"/>
<polygon fill="midnightblue" stroke="midnightblue" points="2810.08,-17.59 2799.55,-18.8 2808.54,-24.41 2810.08,-17.59"/>
</g>
<!-- Node32&#45;&gt;Node15 -->
<g id="edge97" class="edge">
<title>Node32&#45;&gt;Node15</title>
<path fill="none" stroke="midnightblue" d="M2603.54,-560.43C2624.8,-543.57 2668,-503.8 2668,-459 2668,-459 2668,-459 2668,-289 2668,-195.21 2336.01,-142.53 2224.81,-127.52"/>
<polygon fill="midnightblue" stroke="midnightblue" points="2225.13,-124.03 2214.75,-126.18 2224.21,-130.97 2225.13,-124.03"/>
</g>
<!-- Node32&#45;&gt;Node17 -->
<g id="edge96" class="edge">
<title>Node32&#45;&gt;Node17</title>
<path fill="none" stroke="midnightblue" d="M2543.89,-568.46C2328.03,-565.88 1447.45,-553.71 1173,-524 1037.72,-509.36 995.72,-524.64 872,-468 809.83,-439.54 771.48,-400.9 793,-336 812.87,-276.09 865.46,-220.5 892.86,-194.47"/>
<polygon fill="midnightblue" stroke="midnightblue" points="895.25,-197.03 900.18,-187.65 890.48,-191.91 895.25,-197.03"/>
</g>
<!-- Node32&#45;&gt;Node21 -->
<g id="edge93" class="edge">
<title>Node32&#45;&gt;Node21</title>
<path fill="none" stroke="midnightblue" d="M2629.1,-560.46C2648.44,-553.92 2670.43,-542.72 2682,-524 2752.1,-410.58 2752.32,-337.28 2682,-224 2645.2,-164.72 2562.14,-139.17 2514.12,-129.02"/>
<polygon fill="midnightblue" stroke="midnightblue" points="2514.64,-125.55 2504.15,-127.02 2513.27,-132.42 2514.64,-125.55"/>
</g>
<!-- Node32&#45;&gt;Node22 -->
<g id="edge95" class="edge">
<title>Node32&#45;&gt;Node22</title>
<path fill="none" stroke="midnightblue" d="M2640.2,-561.07C2666.28,-554.72 2697.64,-543.52 2720,-524 2765.52,-484.26 2782,-463.43 2782,-403 2782,-403 2782,-403 2782,-345 2782,-261.65 2778.91,-226.97 2720,-168 2696.8,-144.77 2660.92,-133.5 2633.04,-128.05"/>
<polygon fill="midnightblue" stroke="midnightblue" points="2633.63,-124.6 2623.17,-126.29 2632.4,-131.49 2633.63,-124.6"/>
</g>
<!-- Node32&#45;&gt;Node23 -->
<g id="edge99" class="edge">
<title>Node32&#45;&gt;Node23</title>
<path fill="none" stroke="midnightblue" d="M2543.73,-567.11C2328.07,-558.66 1454.55,-524.46 1254.12,-516.61"/>
<polygon fill="midnightblue" stroke="midnightblue" points="1254.15,-513.11 1244.02,-516.21 1253.87,-520.1 1254.15,-513.11"/>
</g>
<!-- Node32&#45;&gt;Node26 -->
<g id="edge100" class="edge">
<title>Node32&#45;&gt;Node26</title>
<path fill="none" stroke="midnightblue" d="M2592,-560.44C2592,-541.94 2592,-496.81 2592,-459 2592,-459 2592,-459 2592,-401 2592,-275.43 2420.75,-213.29 2335.31,-190.11"/>
<polygon fill="midnightblue" stroke="midnightblue" points="2336.14,-186.71 2325.58,-187.54 2334.35,-193.48 2336.14,-186.71"/>
</g>
<!-- Node33&#45;&gt;Node2 -->
<g id="edge111" class="edge">
<title>Node33&#45;&gt;Node2</title>
<path fill="none" stroke="midnightblue" d="M1583.97,-336.15C1580.78,-323.21 1573.79,-298.65 1563,-280 1546.59,-251.62 1538.57,-246.78 1515,-224 1486.35,-196.31 1479.4,-188.09 1445,-168 1374.08,-126.58 1282.95,-94.62 1232.3,-78.53"/>
<polygon fill="midnightblue" stroke="midnightblue" points="1233.32,-75.18 1222.73,-75.52 1231.22,-81.86 1233.32,-75.18"/>
</g>
<!-- Node33&#45;&gt;Node9 -->
<g id="edge113" class="edge">
<title>Node33&#45;&gt;Node9</title>
<path fill="none" stroke="midnightblue" d="M1587.96,-336.41C1597.97,-292.38 1643.63,-91.74 1657.79,-29.48"/>
<polygon fill="midnightblue" stroke="midnightblue" points="1661.25,-30.06 1660.06,-19.54 1654.43,-28.51 1661.25,-30.06"/>
</g>
<!-- Node33&#45;&gt;Node21 -->
<g id="edge110" class="edge">
<title>Node33&#45;&gt;Node21</title>
<path fill="none" stroke="midnightblue" d="M1613.75,-336.44C1702.8,-309.19 1989.56,-223.01 2231,-168 2305.44,-151.04 2393.64,-136.22 2441.92,-128.56"/>
<polygon fill="midnightblue" stroke="midnightblue" points="2442.55,-132 2451.89,-126.99 2441.46,-125.08 2442.55,-132"/>
</g>
<!-- Node33&#45;&gt;Node23 -->
<g id="edge112" class="edge">
<title>Node33&#45;&gt;Node23</title>
<path fill="none" stroke="midnightblue" d="M1557.88,-352.09C1502.11,-363.06 1374.88,-392.56 1282,-448 1260.26,-460.97 1239.74,-481.82 1226.82,-496.4"/>
<polygon fill="midnightblue" stroke="midnightblue" points="1224.01,-494.29 1220.13,-504.15 1229.31,-498.86 1224.01,-494.29"/>
</g>
<!-- Node33&#45;&gt;Node27 -->
<g id="edge115" class="edge">
<title>Node33&#45;&gt;Node27</title>
<path fill="none" stroke="midnightblue" d="M1557.76,-338.59C1514.63,-328.81 1432.33,-310.13 1384.65,-299.31"/>
<polygon fill="midnightblue" stroke="midnightblue" points="1385.26,-295.87 1374.74,-297.07 1383.72,-302.69 1385.26,-295.87"/>
</g>
<!-- Node33&#45;&gt;Node29 -->
<g id="edge114" class="edge">
<title>Node33&#45;&gt;Node29</title>
<path fill="none" stroke="midnightblue" d="M1580.86,-336.24C1562.68,-306.2 1497.93,-207.02 1414,-168 1358.33,-142.12 921.54,-127.3 805.97,-123.81"/>
<polygon fill="midnightblue" stroke="midnightblue" points="805.91,-120.3 795.81,-123.5 805.71,-127.3 805.91,-120.3"/>
</g>
<!-- Node34&#45;&gt;Node2 -->
<g id="edge135" class="edge">
<title>Node34&#45;&gt;Node2</title>
<path fill="none" stroke="midnightblue" d="M1301.72,-624.78C1111.62,-623.27 360,-611.2 360,-515 360,-515 360,-515 360,-457 360,-246.95 484.64,-181.1 683,-112 768.34,-82.27 1039.54,-71.4 1148.26,-68.17"/>
<polygon fill="midnightblue" stroke="midnightblue" points="1148.37,-71.66 1158.27,-67.88 1148.17,-64.67 1148.37,-71.66"/>
</g>
<!-- Node34&#45;&gt;Node7 -->
<g id="edge127" class="edge">
<title>Node34&#45;&gt;Node7</title>
<path fill="none" stroke="midnightblue" d="M1388.27,-624.8C1585.16,-623.7 2397.57,-616.95 2649,-580 2761.31,-563.5 2896,-628.52 2896,-515 2896,-515 2896,-515 2896,-401 2896,-311.5 3010,-324.5 3010,-235 3010,-235 3010,-235 3010,-121 3010,-90.2 3009.51,-75.89 2986,-56 2959.97,-33.97 2871.17,-21.76 2809.98,-15.79"/>
<polygon fill="midnightblue" stroke="midnightblue" points="2809.94,-12.27 2799.66,-14.82 2809.29,-19.24 2809.94,-12.27"/>
</g>
<!-- Node34&#45;&gt;Node9 -->
<g id="edge128" class="edge">
<title>Node34&#45;&gt;Node9</title>
<path fill="none" stroke="midnightblue" d="M1388.1,-624.33C1522.82,-621.91 1934.71,-612.02 2064,-580 2358.27,-507.13 2411.37,-428.39 2686,-300 2745.96,-271.97 2820,-301.19 2820,-235 2820,-235 2820,-235 2820,-177 2820,-60.9 1896.07,-19.76 1698.78,-12.3"/>
<polygon fill="midnightblue" stroke="midnightblue" points="1698.76,-8.8 1688.64,-11.92 1698.5,-15.79 1698.76,-8.8"/>
</g>
<!-- Node34&#45;&gt;Node12 -->
<g id="edge144" class="edge">
<title>Node34&#45;&gt;Node12</title>
<path fill="none" stroke="midnightblue" d="M1329.26,-635.52C1309.36,-644.47 1274.96,-658.63 1248.65,-668.77"/>
<polygon fill="midnightblue" stroke="midnightblue" points="1247.1,-665.61 1239,-672.44 1249.6,-672.16 1247.1,-665.61"/>
</g>
<!-- Node34&#45;&gt;Node13 -->
<g id="edge126" class="edge">
<title>Node34&#45;&gt;Node13</title>
<path fill="none" stroke="midnightblue" d="M1301.9,-625.89C1205.58,-625.26 973.4,-608.49 872,-468 803.11,-372.54 943.89,-238.9 996.36,-194.22"/>
<polygon fill="midnightblue" stroke="midnightblue" points="998.84,-196.71 1004.25,-187.61 994.34,-191.35 998.84,-196.71"/>
</g>
<!-- Node34&#45;&gt;Node14 -->
<g id="edge129" class="edge">
<title>Node34&#45;&gt;Node14</title>
<path fill="none" stroke="midnightblue" d="M1301.82,-623.57C1177.92,-619.18 827.24,-604.7 782,-580 647.1,-506.35 587.43,-432.03 610,-280 613.82,-254.27 607.88,-241.64 627,-224 639.63,-212.35 744.21,-193.71 799.7,-184.51"/>
<polygon fill="midnightblue" stroke="midnightblue" points="800.48,-187.93 809.78,-182.85 799.35,-181.02 800.48,-187.93"/>
</g>
<!-- Node34&#45;&gt;Node15 -->
<g id="edge130" class="edge">
<title>Node34&#45;&gt;Node15</title>
<path fill="none" stroke="midnightblue" d="M1388.29,-625.28C1500.61,-625.36 1810.35,-621.46 2064,-580 2269.24,-546.45 2516,-666.96 2516,-459 2516,-459 2516,-459 2516,-401 2516,-272.55 2450.34,-241.51 2345,-168 2308.81,-142.75 2258.54,-131.55 2224.95,-126.66"/>
<polygon fill="midnightblue" stroke="midnightblue" points="2225.04,-123.14 2214.67,-125.29 2224.11,-130.08 2225.04,-123.14"/>
</g>
<!-- Node34&#45;&gt;Node16 -->
<g id="edge131" class="edge">
<title>Node34&#45;&gt;Node16</title>
<path fill="none" stroke="midnightblue" d="M1388.17,-621.93C1529,-611.35 1966,-573.78 1966,-515 1966,-515 1966,-515 1966,-401 1966,-298.25 1846.21,-221.83 1791.58,-192.33"/>
<polygon fill="midnightblue" stroke="midnightblue" points="1792.96,-189.11 1782.49,-187.53 1789.69,-195.3 1792.96,-189.11"/>
</g>
<!-- Node34&#45;&gt;Node17 -->
<g id="edge132" class="edge">
<title>Node34&#45;&gt;Node17</title>
<path fill="none" stroke="midnightblue" d="M1301.88,-625.63C1190.34,-626.58 895.1,-624.69 810,-580 781.48,-565.03 781.53,-551.02 764,-524 685.91,-403.68 552.04,-333.24 645,-224 675.62,-188.02 802.82,-196.05 865.55,-187.9"/>
<polygon fill="midnightblue" stroke="midnightblue" points="866.42,-191.31 875.76,-186.31 865.34,-184.39 866.42,-191.31"/>
</g>
<!-- Node34&#45;&gt;Node18 -->
<g id="edge133" class="edge">
<title>Node34&#45;&gt;Node18</title>
<path fill="none" stroke="midnightblue" d="M1388.08,-624.31C1525.96,-621.78 1950.47,-611.51 2003,-580 2083.46,-531.75 2132.44,-479.66 2099,-392 2061.97,-294.93 1953.4,-221.71 1904.44,-192.67"/>
<polygon fill="midnightblue" stroke="midnightblue" points="1906.15,-189.61 1895.75,-187.61 1902.63,-195.66 1906.15,-189.61"/>
</g>
<!-- Node34&#45;&gt;Node19 -->
<g id="edge134" class="edge">
<title>Node34&#45;&gt;Node19</title>
<path fill="none" stroke="midnightblue" d="M1301.73,-623.26C1186.69,-618.34 879.36,-603.15 840,-580 720.64,-509.79 704.42,-314.74 702.3,-253.59"/>
<polygon fill="midnightblue" stroke="midnightblue" points="705.79,-253.41 702.04,-243.5 698.8,-253.59 705.79,-253.41"/>
</g>
<!-- Node34&#45;&gt;Node20 -->
<g id="edge136" class="edge">
<title>Node34&#45;&gt;Node20</title>
<path fill="none" stroke="midnightblue" d="M1388.29,-624.65C1523.73,-623.17 1933.18,-615.77 1980,-580 2030.2,-541.66 2039.92,-459.78 2041.68,-422.37"/>
<polygon fill="midnightblue" stroke="midnightblue" points="2045.2,-422 2042.02,-411.9 2038.2,-421.78 2045.2,-422"/>
</g>
<!-- Node34&#45;&gt;Node23 -->
<g id="edge139" class="edge">
<title>Node34&#45;&gt;Node23</title>
<path fill="none" stroke="midnightblue" d="M1334.64,-616.37C1312.28,-597.73 1259.24,-553.53 1231.16,-530.13"/>
<polygon fill="midnightblue" stroke="midnightblue" points="1233.23,-527.3 1223.31,-523.59 1228.75,-532.68 1233.23,-527.3"/>
</g>
<!-- Node34&#45;&gt;Node25 -->
<g id="edge142" class="edge">
<title>Node34&#45;&gt;Node25</title>
<path fill="none" stroke="midnightblue" d="M1345.16,-616.08C1345.63,-589.95 1347.02,-513.21 1347.66,-477.58"/>
<polygon fill="midnightblue" stroke="midnightblue" points="1351.16,-477.63 1347.85,-467.57 1344.16,-477.5 1351.16,-477.63"/>
</g>
<!-- Node34&#45;&gt;Node26 -->
<g id="edge137" class="edge">
<title>Node34&#45;&gt;Node26</title>
<path fill="none" stroke="midnightblue" d="M1388.14,-623.76C1529.42,-619.5 1972.61,-604.29 2032,-580 2199.28,-511.57 2267.63,-267.15 2283.95,-197.59"/>
<polygon fill="midnightblue" stroke="midnightblue" points="2287.41,-198.19 2286.2,-187.66 2280.58,-196.64 2287.41,-198.19"/>
</g>
<!-- Node34&#45;&gt;Node28 -->
<g id="edge138" class="edge">
<title>Node34&#45;&gt;Node28</title>
<path fill="none" stroke="midnightblue" d="M1301.66,-624.87C1181.65,-624.03 847.11,-618.22 745,-580 650.14,-544.5 620.15,-509 591,-412 566.52,-330.53 567.74,-285.03 627,-224 645.7,-204.74 674.11,-193.09 696.04,-186.49"/>
<polygon fill="midnightblue" stroke="midnightblue" points="697.23,-189.79 705.91,-183.72 695.34,-183.05 697.23,-189.79"/>
</g>
<!-- Node34&#45;&gt;Node29 -->
<g id="edge140" class="edge">
<title>Node34&#45;&gt;Node29</title>
<path fill="none" stroke="midnightblue" d="M1301.7,-625.41C1174.93,-626.07 806.57,-624.04 696,-580 659.63,-565.51 652.4,-554.62 628,-524 573.75,-455.91 556.8,-421.54 573,-336 582.95,-283.45 593.57,-272.08 617,-224 629.65,-198.03 627.69,-186.35 650,-168 679.36,-143.86 722.57,-132.27 750.5,-127"/>
<polygon fill="midnightblue" stroke="midnightblue" points="751.15,-130.44 760.4,-125.28 749.95,-123.55 751.15,-130.44"/>
</g>
<!-- Node34&#45;&gt;Node30 -->
<g id="edge141" class="edge">
<title>Node34&#45;&gt;Node30</title>
<path fill="none" stroke="midnightblue" d="M1369.29,-616.47C1405.91,-601.88 1471,-568.43 1471,-515 1471,-515 1471,-515 1471,-345 1471,-306.1 1439.27,-270.05 1418.23,-250.43"/>
<polygon fill="midnightblue" stroke="midnightblue" points="1420.56,-247.81 1410.78,-243.74 1415.89,-253.02 1420.56,-247.81"/>
</g>
<!-- Node34&#45;&gt;Node32 -->
<g id="edge143" class="edge">
<title>Node34&#45;&gt;Node32</title>
<path fill="none" stroke="midnightblue" d="M1388.09,-623.63C1536.35,-618.85 2039.09,-601.94 2454,-580 2480.12,-578.62 2509,-576.78 2533.56,-575.13"/>
<polygon fill="midnightblue" stroke="midnightblue" points="2534.06,-578.6 2543.8,-574.43 2533.58,-571.62 2534.06,-578.6"/>
</g>
</g>
</svg>
