<?xml version="1.0" encoding="UTF-8" standalone="no"?>
<!DOCTYPE svg PUBLIC "-//W3C//DTD SVG 1.1//EN"
 "http://www.w3.org/Graphics/SVG/1.1/DTD/svg11.dtd">
<!-- Generated by graphviz version 2.43.0 (0)
 -->
<!-- Title: InflowFlux Pages: 1 -->
<svg width="213pt" height="104pt"
 viewBox="0.00 0.00 213.00 104.00" xmlns="http://www.w3.org/2000/svg" xmlns:xlink="http://www.w3.org/1999/xlink">
<g id="graph0" class="graph" transform="scale(1 1) rotate(0) translate(4 100)">
<title>InflowFlux</title>
<!-- Node1 -->
<g id="node1" class="node">
<title>Node1</title>
<g id="a_node1"><a xlink:title="Applies inlet boundary conditions based on the modern BC handling system.">
<polygon fill="#bfbfbf" stroke="black" points="0,-38.5 0,-57.5 68,-57.5 68,-38.5 0,-38.5"/>
<text text-anchor="middle" x="34" y="-45.5" font-family="Helvetica,sans-Serif" font-size="10.00">InflowFlux</text>
</a>
</g>
</g>
<!-- Node2 -->
<g id="node2" class="node">
<title>Node2</title>
<g id="a_node2"><a xlink:href="logging_8h.html#a9b417fe56a110c0f6a3e64860e3e5cdb" target="_top" xlink:title="Helper function to convert BCFace enum to a string representation.">
<polygon fill="none" stroke="black" points="108.5,-76.5 108.5,-95.5 200.5,-95.5 200.5,-76.5 108.5,-76.5"/>
<text text-anchor="middle" x="154.5" y="-83.5" font-family="Helvetica,sans-Serif" font-size="10.00">BCFaceToString</text>
</a>
</g>
</g>
<!-- Node1&#45;&gt;Node2 -->
<g id="edge1" class="edge">
<title>Node1&#45;&gt;Node2</title>
<path fill="none" stroke="midnightblue" d="M64.9,-57.59C79.78,-62.36 97.96,-68.19 113.97,-73.32"/>
<polygon fill="midnightblue" stroke="midnightblue" points="113.02,-76.69 123.61,-76.41 115.15,-70.03 113.02,-76.69"/>
</g>
<!-- Node3 -->
<g id="node3" class="node">
<title>Node3</title>
<g id="a_node3"><a xlink:href="io_8h.html#a1ac7631f5ff3a878c3f5788d6880c22c" target="_top" xlink:title="Searches a BC_Param linked list for a key and returns its value as a double.">
<polygon fill="none" stroke="black" points="104,-38.5 104,-57.5 205,-57.5 205,-38.5 104,-38.5"/>
<text text-anchor="middle" x="154.5" y="-45.5" font-family="Helvetica,sans-Serif" font-size="10.00">GetBCParamReal</text>
</a>
</g>
</g>
<!-- Node1&#45;&gt;Node3 -->
<g id="edge2" class="edge">
<title>Node1&#45;&gt;Node3</title>
<path fill="none" stroke="midnightblue" d="M68.01,-48C75.98,-48 84.75,-48 93.54,-48"/>
<polygon fill="midnightblue" stroke="midnightblue" points="93.82,-51.5 103.82,-48 93.82,-44.5 93.82,-51.5"/>
</g>
<!-- Node4 -->
<g id="node4" class="node">
<title>Node4</title>
<g id="a_node4"><a xlink:href="wallfunction_8h.html#a61e5145bbc7aa0f76c074b4e9e91e06b" target="_top" xlink:title=" ">
<polygon fill="none" stroke="black" points="136,-0.5 136,-19.5 173,-19.5 173,-0.5 136,-0.5"/>
<text text-anchor="middle" x="154.5" y="-7.5" font-family="Helvetica,sans-Serif" font-size="10.00">sign</text>
</a>
</g>
</g>
<!-- Node1&#45;&gt;Node4 -->
<g id="edge3" class="edge">
<title>Node1&#45;&gt;Node4</title>
<path fill="none" stroke="midnightblue" d="M64.9,-38.41C83.67,-32.39 107.7,-24.69 126,-18.82"/>
<polygon fill="midnightblue" stroke="midnightblue" points="127.31,-22.07 135.77,-15.69 125.18,-15.41 127.31,-22.07"/>
</g>
</g>
</svg>
