<?xml version="1.0" encoding="UTF-8" standalone="no"?>
<!DOCTYPE svg PUBLIC "-//W3C//DTD SVG 1.1//EN"
 "http://www.w3.org/Graphics/SVG/1.1/DTD/svg11.dtd">
<!-- Generated by graphviz version 2.43.0 (0)
 -->
<!-- Title: BoundarySystem_ExecuteStep_Legacy Pages: 1 -->
<svg width="899pt" height="123pt"
 viewBox="0.00 0.00 899.00 123.00" xmlns="http://www.w3.org/2000/svg" xmlns:xlink="http://www.w3.org/1999/xlink">
<g id="graph0" class="graph" transform="scale(1 1) rotate(0) translate(4 119)">
<title>BoundarySystem_ExecuteStep_Legacy</title>
<!-- Node1 -->
<g id="node1" class="node">
<title>Node1</title>
<g id="a_node1"><a xlink:title="Acts as a temporary bridge to the legacy boundary condition implementation.">
<polygon fill="#bfbfbf" stroke="black" points="0,-52 0,-82 166,-82 166,-52 0,-52"/>
<text text-anchor="start" x="8" y="-70" font-family="Helvetica,sans-Serif" font-size="10.00">BoundarySystem_ExecuteStep</text>
<text text-anchor="middle" x="83" y="-59" font-family="Helvetica,sans-Serif" font-size="10.00">_Legacy</text>
</a>
</g>
</g>
<!-- Node2 -->
<g id="node2" class="node">
<title>Node2</title>
<g id="a_node2"><a xlink:href="Boundaries_8c.html#adcd96cff4b9e15e03cdff9f5ea695dec" target="_top" xlink:title=" ">
<polygon fill="none" stroke="black" points="202,-57.5 202,-76.5 263,-76.5 263,-57.5 202,-57.5"/>
<text text-anchor="middle" x="232.5" y="-64.5" font-family="Helvetica,sans-Serif" font-size="10.00">FormBCS</text>
</a>
</g>
</g>
<!-- Node1&#45;&gt;Node2 -->
<g id="edge1" class="edge">
<title>Node1&#45;&gt;Node2</title>
<path fill="none" stroke="midnightblue" d="M166.37,-67C175.18,-67 183.83,-67 191.79,-67"/>
<polygon fill="midnightblue" stroke="midnightblue" points="191.83,-70.5 201.83,-67 191.83,-63.5 191.83,-70.5"/>
</g>
<!-- Node3 -->
<g id="node3" class="node">
<title>Node3</title>
<g id="a_node3"><a xlink:href="setup_8h.html#a515c9a96eb4bcac29f79e78c8882d7aa" target="_top" xlink:title="Reconstructs Cartesian velocity (Ucat) at cell centers from contravariant velocity (Ucont) defined on...">
<polygon fill="none" stroke="black" points="321,-95.5 321,-114.5 396,-114.5 396,-95.5 321,-95.5"/>
<text text-anchor="middle" x="358.5" y="-102.5" font-family="Helvetica,sans-Serif" font-size="10.00">Contra2Cart</text>
</a>
</g>
</g>
<!-- Node2&#45;&gt;Node3 -->
<g id="edge2" class="edge">
<title>Node2&#45;&gt;Node3</title>
<path fill="none" stroke="midnightblue" d="M263.2,-76.1C279.13,-80.98 299.01,-87.08 316.41,-92.41"/>
<polygon fill="midnightblue" stroke="midnightblue" points="315.72,-95.86 326.31,-95.44 317.78,-89.17 315.72,-95.86"/>
</g>
<!-- Node4 -->
<g id="node4" class="node">
<title>Node4</title>
<g id="a_node4"><a xlink:href="wallfunction_8h.html#a82a96fd4f826d93b926bea9bb776b93e" target="_top" xlink:title=" ">
<polygon fill="none" stroke="black" points="335.5,-57.5 335.5,-76.5 381.5,-76.5 381.5,-57.5 335.5,-57.5"/>
<text text-anchor="middle" x="358.5" y="-64.5" font-family="Helvetica,sans-Serif" font-size="10.00">noslip</text>
</a>
</g>
</g>
<!-- Node2&#45;&gt;Node4 -->
<g id="edge3" class="edge">
<title>Node2&#45;&gt;Node4</title>
<path fill="none" stroke="midnightblue" d="M263.2,-67C281.94,-67 306.14,-67 325.34,-67"/>
<polygon fill="midnightblue" stroke="midnightblue" points="325.42,-70.5 335.42,-67 325.42,-63.5 325.42,-70.5"/>
</g>
<!-- Node5 -->
<g id="node5" class="node">
<title>Node5</title>
<g id="a_node5"><a xlink:href="wallfunction_8h.html#aae67d9282b09691fffdea6f1012e6df7" target="_top" xlink:title=" ">
<polygon fill="none" stroke="black" points="299,-19.5 299,-38.5 418,-38.5 418,-19.5 299,-19.5"/>
<text text-anchor="middle" x="358.5" y="-26.5" font-family="Helvetica,sans-Serif" font-size="10.00">wall_function_loglaw</text>
</a>
</g>
</g>
<!-- Node2&#45;&gt;Node5 -->
<g id="edge4" class="edge">
<title>Node2&#45;&gt;Node5</title>
<path fill="none" stroke="midnightblue" d="M263.2,-57.9C279.13,-53.02 299.01,-46.92 316.41,-41.59"/>
<polygon fill="midnightblue" stroke="midnightblue" points="317.78,-44.83 326.31,-38.56 315.72,-38.14 317.78,-44.83"/>
</g>
<!-- Node6 -->
<g id="node6" class="node">
<title>Node6</title>
<g id="a_node6"><a xlink:href="wallfunction_8c.html#aa22aca64a54a00ccaf354357cc1c0760" target="_top" xlink:title=" ">
<polygon fill="none" stroke="black" points="454,-38.5 454,-57.5 555,-57.5 555,-38.5 454,-38.5"/>
<text text-anchor="middle" x="504.5" y="-45.5" font-family="Helvetica,sans-Serif" font-size="10.00">find_utau_hydset</text>
</a>
</g>
</g>
<!-- Node5&#45;&gt;Node6 -->
<g id="edge5" class="edge">
<title>Node5&#45;&gt;Node6</title>
<path fill="none" stroke="midnightblue" d="M418.07,-36.73C426.48,-37.84 435.15,-38.98 443.59,-40.1"/>
<polygon fill="midnightblue" stroke="midnightblue" points="443.37,-43.6 453.74,-41.43 444.29,-36.66 443.37,-43.6"/>
</g>
<!-- Node10 -->
<g id="node10" class="node">
<title>Node10</title>
<g id="a_node10"><a xlink:href="wallfunction_8c.html#a071e294d71e268c014aa6047acb64730" target="_top" xlink:title=" ">
<polygon fill="none" stroke="black" points="591,-0.5 591,-19.5 707,-19.5 707,-0.5 591,-0.5"/>
<text text-anchor="middle" x="649" y="-7.5" font-family="Helvetica,sans-Serif" font-size="10.00">u_hydset_roughness</text>
</a>
</g>
</g>
<!-- Node5&#45;&gt;Node10 -->
<g id="edge10" class="edge">
<title>Node5&#45;&gt;Node10</title>
<path fill="none" stroke="midnightblue" d="M418.23,-25.13C465.3,-22.03 531.37,-17.68 580.59,-14.44"/>
<polygon fill="midnightblue" stroke="midnightblue" points="581.08,-17.91 590.83,-13.77 580.62,-10.93 581.08,-17.91"/>
</g>
<!-- Node7 -->
<g id="node7" class="node">
<title>Node7</title>
<g id="a_node7"><a xlink:href="wallfunction_8c.html#a39f08431792fc8f96ea8659756dfd749" target="_top" xlink:title=" ">
<polygon fill="none" stroke="black" points="616.5,-76.5 616.5,-95.5 681.5,-95.5 681.5,-76.5 616.5,-76.5"/>
<text text-anchor="middle" x="649" y="-83.5" font-family="Helvetica,sans-Serif" font-size="10.00">df_hydset</text>
</a>
</g>
</g>
<!-- Node6&#45;&gt;Node7 -->
<g id="edge6" class="edge">
<title>Node6&#45;&gt;Node7</title>
<path fill="none" stroke="midnightblue" d="M541.46,-57.59C561.3,-62.88 586.02,-69.47 606.66,-74.98"/>
<polygon fill="midnightblue" stroke="midnightblue" points="605.85,-78.38 616.42,-77.58 607.66,-71.62 605.85,-78.38"/>
</g>
<!-- Node8 -->
<g id="node8" class="node">
<title>Node8</title>
<g id="a_node8"><a xlink:href="wallfunction_8c.html#ac7ee38b34b5a56a4e5c01a02c290229b" target="_top" xlink:title=" ">
<polygon fill="none" stroke="black" points="743,-38.5 743,-57.5 802,-57.5 802,-38.5 743,-38.5"/>
<text text-anchor="middle" x="772.5" y="-45.5" font-family="Helvetica,sans-Serif" font-size="10.00">f_hydset</text>
</a>
</g>
</g>
<!-- Node6&#45;&gt;Node8 -->
<g id="edge9" class="edge">
<title>Node6&#45;&gt;Node8</title>
<path fill="none" stroke="midnightblue" d="M555.22,-48C606.67,-48 685.93,-48 732.86,-48"/>
<polygon fill="midnightblue" stroke="midnightblue" points="732.93,-51.5 742.93,-48 732.93,-44.5 732.93,-51.5"/>
</g>
<!-- Node7&#45;&gt;Node8 -->
<g id="edge7" class="edge">
<title>Node7&#45;&gt;Node8</title>
<path fill="none" stroke="midnightblue" d="M680.66,-76.41C696.64,-71.41 716.35,-65.25 733.31,-59.94"/>
<polygon fill="midnightblue" stroke="midnightblue" points="734.44,-63.26 742.94,-56.93 732.35,-56.58 734.44,-63.26"/>
</g>
<!-- Node9 -->
<g id="node9" class="node">
<title>Node9</title>
<g id="a_node9"><a xlink:href="wallfunction_8c.html#a5a5ea51c16915866975995631c0d2923" target="_top" xlink:title=" ">
<polygon fill="none" stroke="black" points="838,-19.5 838,-38.5 891,-38.5 891,-19.5 838,-19.5"/>
<text text-anchor="middle" x="864.5" y="-26.5" font-family="Helvetica,sans-Serif" font-size="10.00">E_coeff</text>
</a>
</g>
</g>
<!-- Node8&#45;&gt;Node9 -->
<g id="edge8" class="edge">
<title>Node8&#45;&gt;Node9</title>
<path fill="none" stroke="midnightblue" d="M802.47,-41.88C810.58,-40.17 819.49,-38.29 827.94,-36.51"/>
<polygon fill="midnightblue" stroke="midnightblue" points="828.86,-39.89 837.92,-34.4 827.41,-33.04 828.86,-39.89"/>
</g>
<!-- Node10&#45;&gt;Node9 -->
<g id="edge11" class="edge">
<title>Node10&#45;&gt;Node9</title>
<path fill="none" stroke="midnightblue" d="M707.21,-15.09C745.55,-18.5 794.85,-22.89 827.72,-25.82"/>
<polygon fill="midnightblue" stroke="midnightblue" points="827.52,-29.31 837.79,-26.71 828.14,-22.34 827.52,-29.31"/>
</g>
</g>
</svg>
