<?xml version="1.0" encoding="UTF-8" standalone="no"?>
<!DOCTYPE svg PUBLIC "-//W3C//DTD SVG 1.1//EN"
 "http://www.w3.org/Graphics/SVG/1.1/DTD/svg11.dtd">
<!-- Generated by graphviz version 2.43.0 (0)
 -->
<!-- Title: SetFinestLevelCoordinates Pages: 1 -->
<svg width="517pt" height="66pt"
 viewBox="0.00 0.00 517.00 66.00" xmlns="http://www.w3.org/2000/svg" xmlns:xlink="http://www.w3.org/1999/xlink">
<g id="graph0" class="graph" transform="scale(1 1) rotate(0) translate(4 62)">
<title>SetFinestLevelCoordinates</title>
<!-- Node1 -->
<g id="node1" class="node">
<title>Node1</title>
<g id="a_node1"><a xlink:title="A router that populates the coordinates for a single finest&#45;level DMDA.">
<polygon fill="#bfbfbf" stroke="black" points="0,-19.5 0,-38.5 146,-38.5 146,-19.5 0,-19.5"/>
<text text-anchor="middle" x="73" y="-26.5" font-family="Helvetica,sans-Serif" font-size="10.00">SetFinestLevelCoordinates</text>
</a>
</g>
</g>
<!-- Node2 -->
<g id="node2" class="node">
<title>Node2</title>
<g id="a_node2"><a xlink:href="grid_8c.html#ac44553fe1434663c5211cc6ac32ef004" target="_top" xlink:title="Programmatically generates and sets grid coordinates based on user parameters.">
<polygon fill="none" stroke="black" points="182,-38.5 182,-57.5 337,-57.5 337,-38.5 182,-38.5"/>
<text text-anchor="middle" x="259.5" y="-45.5" font-family="Helvetica,sans-Serif" font-size="10.00">GenerateAndSetCoordinates</text>
</a>
</g>
</g>
<!-- Node1&#45;&gt;Node2 -->
<g id="edge1" class="edge">
<title>Node1&#45;&gt;Node2</title>
<path fill="none" stroke="midnightblue" d="M146.13,-36.43C154.55,-37.3 163.21,-38.19 171.81,-39.07"/>
<polygon fill="midnightblue" stroke="midnightblue" points="171.55,-42.56 181.86,-40.11 172.27,-35.6 171.55,-42.56"/>
</g>
<!-- Node4 -->
<g id="node4" class="node">
<title>Node4</title>
<g id="a_node4"><a xlink:href="grid_8c.html#ac693c757c4fd3cb75e6e06e05e25d775" target="_top" xlink:title="Reads physical coordinates from a file and populates the DMDA for a specific block.">
<polygon fill="none" stroke="black" points="192.5,-0.5 192.5,-19.5 326.5,-19.5 326.5,-0.5 192.5,-0.5"/>
<text text-anchor="middle" x="259.5" y="-7.5" font-family="Helvetica,sans-Serif" font-size="10.00">ReadAndSetCoordinates</text>
</a>
</g>
</g>
<!-- Node1&#45;&gt;Node4 -->
<g id="edge3" class="edge">
<title>Node1&#45;&gt;Node4</title>
<path fill="none" stroke="midnightblue" d="M146.13,-21.57C158.05,-20.34 170.44,-19.07 182.46,-17.83"/>
<polygon fill="midnightblue" stroke="midnightblue" points="182.85,-21.31 192.44,-16.8 182.14,-14.35 182.85,-21.31"/>
</g>
<!-- Node3 -->
<g id="node3" class="node">
<title>Node3</title>
<g id="a_node3"><a xlink:href="grid_8c.html#a54a2529affe522c9e29161aef1ca3847" target="_top" xlink:title="Computes a stretched coordinate along one dimension.">
<polygon fill="none" stroke="black" points="373,-38.5 373,-57.5 509,-57.5 509,-38.5 373,-38.5"/>
<text text-anchor="middle" x="441" y="-45.5" font-family="Helvetica,sans-Serif" font-size="10.00">ComputeStretchedCoord</text>
</a>
</g>
</g>
<!-- Node2&#45;&gt;Node3 -->
<g id="edge2" class="edge">
<title>Node2&#45;&gt;Node3</title>
<path fill="none" stroke="midnightblue" d="M337.14,-48C345.61,-48 354.24,-48 362.72,-48"/>
<polygon fill="midnightblue" stroke="midnightblue" points="362.96,-51.5 372.96,-48 362.96,-44.5 362.96,-51.5"/>
</g>
</g>
</svg>
