<?xml version="1.0" encoding="UTF-8" standalone="no"?>
<!DOCTYPE svg PUBLIC "-//W3C//DTD SVG 1.1//EN"
 "http://www.w3.org/Graphics/SVG/1.1/DTD/svg11.dtd">
<!-- Generated by graphviz version 2.43.0 (0)
 -->
<!-- Title: ComputeStretchedCoord Pages: 1 -->
<svg width="925pt" height="28pt"
 viewBox="0.00 0.00 925.00 28.00" xmlns="http://www.w3.org/2000/svg" xmlns:xlink="http://www.w3.org/1999/xlink">
<g id="graph0" class="graph" transform="scale(1 1) rotate(0) translate(4 24)">
<title>ComputeStretchedCoord</title>
<!-- Node1 -->
<g id="node1" class="node">
<title>Node1</title>
<g id="a_node1"><a xlink:title="Computes a stretched coordinate along one dimension.">
<polygon fill="#bfbfbf" stroke="black" points="781,-0.5 781,-19.5 917,-19.5 917,-0.5 781,-0.5"/>
<text text-anchor="middle" x="849" y="-7.5" font-family="Helvetica,sans-Serif" font-size="10.00">ComputeStretchedCoord</text>
</a>
</g>
</g>
<!-- Node2 -->
<g id="node2" class="node">
<title>Node2</title>
<g id="a_node2"><a xlink:href="grid_8c.html#ac44553fe1434663c5211cc6ac32ef004" target="_top" xlink:title="Programmatically generates and sets grid coordinates based on user parameters.">
<polygon fill="none" stroke="black" points="590,-0.5 590,-19.5 745,-19.5 745,-0.5 590,-0.5"/>
<text text-anchor="middle" x="667.5" y="-7.5" font-family="Helvetica,sans-Serif" font-size="10.00">GenerateAndSetCoordinates</text>
</a>
</g>
</g>
<!-- Node1&#45;&gt;Node2 -->
<g id="edge1" class="edge">
<title>Node1&#45;&gt;Node2</title>
<path fill="none" stroke="midnightblue" d="M770.69,-10C762.23,-10 753.62,-10 745.18,-10"/>
<polygon fill="midnightblue" stroke="midnightblue" points="770.91,-13.5 780.91,-10 770.91,-6.5 770.91,-13.5"/>
</g>
<!-- Node3 -->
<g id="node3" class="node">
<title>Node3</title>
<g id="a_node3"><a xlink:href="grid_8c.html#acb950cd51656702b75ea84d6477d0d97" target="_top" xlink:title="A router that populates the coordinates for a single finest&#45;level DMDA.">
<polygon fill="none" stroke="black" points="408,-0.5 408,-19.5 554,-19.5 554,-0.5 408,-0.5"/>
<text text-anchor="middle" x="481" y="-7.5" font-family="Helvetica,sans-Serif" font-size="10.00">SetFinestLevelCoordinates</text>
</a>
</g>
</g>
<!-- Node2&#45;&gt;Node3 -->
<g id="edge2" class="edge">
<title>Node2&#45;&gt;Node3</title>
<path fill="none" stroke="midnightblue" d="M579.85,-10C571.29,-10 562.66,-10 554.26,-10"/>
<polygon fill="midnightblue" stroke="midnightblue" points="579.86,-13.5 589.86,-10 579.86,-6.5 579.86,-13.5"/>
</g>
<!-- Node4 -->
<g id="node4" class="node">
<title>Node4</title>
<g id="a_node4"><a xlink:href="grid_8c.html#ab2aef4bb6fc2d2223a52ff6a45c7c600" target="_top" xlink:title="Orchestrates the assignment of physical coordinates to all DMDA objects.">
<polygon fill="none" stroke="black" points="232,-0.5 232,-19.5 372,-19.5 372,-0.5 232,-0.5"/>
<text text-anchor="middle" x="302" y="-7.5" font-family="Helvetica,sans-Serif" font-size="10.00">AssignAllGridCoordinates</text>
</a>
</g>
</g>
<!-- Node3&#45;&gt;Node4 -->
<g id="edge3" class="edge">
<title>Node3&#45;&gt;Node4</title>
<path fill="none" stroke="midnightblue" d="M397.48,-10C389.01,-10 380.46,-10 372.16,-10"/>
<polygon fill="midnightblue" stroke="midnightblue" points="397.75,-13.5 407.75,-10 397.75,-6.5 397.75,-13.5"/>
</g>
<!-- Node5 -->
<g id="node5" class="node">
<title>Node5</title>
<g id="a_node5"><a xlink:href="setup_8c.html#a2be2815aeb79afe9b95caf39c7b3312c" target="_top" xlink:title="The main orchestrator for setting up all grid&#45;related components.">
<polygon fill="none" stroke="black" points="77,-0.5 77,-19.5 196,-19.5 196,-0.5 77,-0.5"/>
<text text-anchor="middle" x="136.5" y="-7.5" font-family="Helvetica,sans-Serif" font-size="10.00">SetupGridAndSolvers</text>
</a>
</g>
</g>
<!-- Node4&#45;&gt;Node5 -->
<g id="edge4" class="edge">
<title>Node4&#45;&gt;Node5</title>
<path fill="none" stroke="midnightblue" d="M221.61,-10C213.02,-10 204.39,-10 196.11,-10"/>
<polygon fill="midnightblue" stroke="midnightblue" points="221.66,-13.5 231.66,-10 221.66,-6.5 221.66,-13.5"/>
</g>
<!-- Node6 -->
<g id="node6" class="node">
<title>Node6</title>
<g id="a_node6"><a xlink:href="picsolver_8c.html#a3c04138a5bfe5d72780bb7e82a18e627" target="_top" xlink:title=" ">
<polygon fill="none" stroke="black" points="0,-0.5 0,-19.5 41,-19.5 41,-0.5 0,-0.5"/>
<text text-anchor="middle" x="20.5" y="-7.5" font-family="Helvetica,sans-Serif" font-size="10.00">main</text>
</a>
</g>
</g>
<!-- Node5&#45;&gt;Node6 -->
<g id="edge5" class="edge">
<title>Node5&#45;&gt;Node6</title>
<path fill="none" stroke="midnightblue" d="M66.64,-10C57.37,-10 48.53,-10 41.18,-10"/>
<polygon fill="midnightblue" stroke="midnightblue" points="66.83,-13.5 76.83,-10 66.83,-6.5 66.83,-13.5"/>
</g>
</g>
</svg>
