<?xml version="1.0" encoding="UTF-8" standalone="no"?>
<!DOCTYPE svg PUBLIC "-//W3C//DTD SVG 1.1//EN"
 "http://www.w3.org/Graphics/SVG/1.1/DTD/svg11.dtd">
<!-- Generated by graphviz version 2.43.0 (0)
 -->
<!-- Title: DefineAllGridDimensions Pages: 1 -->
<svg width="494pt" height="66pt"
 viewBox="0.00 0.00 494.00 66.00" xmlns="http://www.w3.org/2000/svg" xmlns:xlink="http://www.w3.org/1999/xlink">
<g id="graph0" class="graph" transform="scale(1 1) rotate(0) translate(4 62)">
<title>DefineAllGridDimensions</title>
<!-- Node1 -->
<g id="node1" class="node">
<title>Node1</title>
<g id="a_node1"><a xlink:title="Orchestrates the parsing and setting of grid dimensions for all blocks.">
<polygon fill="#bfbfbf" stroke="black" points="0,-19.5 0,-38.5 140,-38.5 140,-19.5 0,-19.5"/>
<text text-anchor="middle" x="70" y="-26.5" font-family="Helvetica,sans-Serif" font-size="10.00">DefineAllGridDimensions</text>
</a>
</g>
</g>
<!-- Node2 -->
<g id="node2" class="node">
<title>Node2</title>
<g id="a_node2"><a xlink:href="grid_8c.html#a526448d3a1e34b608f7167a59f1d7e04" target="_top" xlink:title="Determines the grid source and calls the appropriate parsing routine.">
<polygon fill="none" stroke="black" points="176,-19.5 176,-38.5 304,-38.5 304,-19.5 176,-19.5"/>
<text text-anchor="middle" x="240" y="-26.5" font-family="Helvetica,sans-Serif" font-size="10.00">ParseAndSetGridInputs</text>
</a>
</g>
</g>
<!-- Node1&#45;&gt;Node2 -->
<g id="edge1" class="edge">
<title>Node1&#45;&gt;Node2</title>
<path fill="none" stroke="midnightblue" d="M140.3,-29C148.66,-29 157.21,-29 165.62,-29"/>
<polygon fill="midnightblue" stroke="midnightblue" points="165.78,-32.5 175.78,-29 165.78,-25.5 165.78,-32.5"/>
</g>
<!-- Node3 -->
<g id="node3" class="node">
<title>Node3</title>
<g id="a_node3"><a xlink:href="io_8h.html#a1454fbb30915c3284cbf5ecb100351d1" target="_top" xlink:title="Sets grid dimensions from a file for a SINGLE block using a one&#45;time read cache.">
<polygon fill="none" stroke="black" points="374,-38.5 374,-57.5 452,-57.5 452,-38.5 374,-38.5"/>
<text text-anchor="middle" x="413" y="-45.5" font-family="Helvetica,sans-Serif" font-size="10.00">ReadGridFile</text>
</a>
</g>
</g>
<!-- Node2&#45;&gt;Node3 -->
<g id="edge2" class="edge">
<title>Node2&#45;&gt;Node3</title>
<path fill="none" stroke="midnightblue" d="M304.19,-36.02C323.94,-38.22 345.39,-40.6 363.92,-42.66"/>
<polygon fill="midnightblue" stroke="midnightblue" points="363.56,-46.14 373.89,-43.77 364.34,-39.18 363.56,-46.14"/>
</g>
<!-- Node4 -->
<g id="node4" class="node">
<title>Node4</title>
<g id="a_node4"><a xlink:href="io_8h.html#a7dd125436244f23eba5c6b06fdd35031" target="_top" xlink:title="Parses command&#45;line options for a programmatically generated grid for a SINGLE block.">
<polygon fill="none" stroke="black" points="340,-0.5 340,-19.5 486,-19.5 486,-0.5 340,-0.5"/>
<text text-anchor="middle" x="413" y="-7.5" font-family="Helvetica,sans-Serif" font-size="10.00">ReadGridGenerationInputs</text>
</a>
</g>
</g>
<!-- Node2&#45;&gt;Node4 -->
<g id="edge3" class="edge">
<title>Node2&#45;&gt;Node4</title>
<path fill="none" stroke="midnightblue" d="M304.19,-21.98C312.53,-21.05 321.18,-20.09 329.78,-19.14"/>
<polygon fill="midnightblue" stroke="midnightblue" points="330.29,-22.6 339.84,-18.02 329.51,-15.64 330.29,-22.6"/>
</g>
</g>
</svg>
