<?xml version="1.0" encoding="UTF-8" standalone="no"?>
<!DOCTYPE svg PUBLIC "-//W3C//DTD SVG 1.1//EN"
 "http://www.w3.org/Graphics/SVG/1.1/DTD/svg11.dtd">
<!-- Generated by graphviz version 2.43.0 (0)
 -->
<!-- Title: AssignAllGridCoordinates Pages: 1 -->
<svg width="693pt" height="85pt"
 viewBox="0.00 0.00 693.00 85.00" xmlns="http://www.w3.org/2000/svg" xmlns:xlink="http://www.w3.org/1999/xlink">
<g id="graph0" class="graph" transform="scale(1 1) rotate(0) translate(4 81)">
<title>AssignAllGridCoordinates</title>
<!-- Node1 -->
<g id="node1" class="node">
<title>Node1</title>
<g id="a_node1"><a xlink:title="Orchestrates the assignment of physical coordinates to all DMDA objects.">
<polygon fill="#bfbfbf" stroke="black" points="0,-38.5 0,-57.5 140,-57.5 140,-38.5 0,-38.5"/>
<text text-anchor="middle" x="70" y="-45.5" font-family="Helvetica,sans-Serif" font-size="10.00">AssignAllGridCoordinates</text>
</a>
</g>
</g>
<!-- Node2 -->
<g id="node2" class="node">
<title>Node2</title>
<g id="a_node2"><a xlink:href="grid_8c.html#a5b5fe86ae6791885769361fca4ad6b2f" target="_top" xlink:title="Populates coarse grid coordinates by restricting from a fine grid.">
<polygon fill="none" stroke="black" points="192.5,-57.5 192.5,-76.5 305.5,-76.5 305.5,-57.5 192.5,-57.5"/>
<text text-anchor="middle" x="249" y="-64.5" font-family="Helvetica,sans-Serif" font-size="10.00">RestrictCoordinates</text>
</a>
</g>
</g>
<!-- Node1&#45;&gt;Node2 -->
<g id="edge1" class="edge">
<title>Node1&#45;&gt;Node2</title>
<path fill="none" stroke="midnightblue" d="M140.19,-55.43C153.95,-56.9 168.35,-58.45 182,-59.91"/>
<polygon fill="midnightblue" stroke="midnightblue" points="181.94,-63.43 192.26,-61.02 182.69,-56.47 181.94,-63.43"/>
</g>
<!-- Node3 -->
<g id="node3" class="node">
<title>Node3</title>
<g id="a_node3"><a xlink:href="grid_8c.html#acb950cd51656702b75ea84d6477d0d97" target="_top" xlink:title="A router that populates the coordinates for a single finest&#45;level DMDA.">
<polygon fill="none" stroke="black" points="176,-19.5 176,-38.5 322,-38.5 322,-19.5 176,-19.5"/>
<text text-anchor="middle" x="249" y="-26.5" font-family="Helvetica,sans-Serif" font-size="10.00">SetFinestLevelCoordinates</text>
</a>
</g>
</g>
<!-- Node1&#45;&gt;Node3 -->
<g id="edge2" class="edge">
<title>Node1&#45;&gt;Node3</title>
<path fill="none" stroke="midnightblue" d="M140.19,-40.57C148.63,-39.67 157.3,-38.74 165.9,-37.81"/>
<polygon fill="midnightblue" stroke="midnightblue" points="166.37,-41.28 175.94,-36.74 165.62,-34.32 166.37,-41.28"/>
</g>
<!-- Node4 -->
<g id="node4" class="node">
<title>Node4</title>
<g id="a_node4"><a xlink:href="grid_8c.html#ac44553fe1434663c5211cc6ac32ef004" target="_top" xlink:title="Programmatically generates and sets grid coordinates based on user parameters.">
<polygon fill="none" stroke="black" points="358,-38.5 358,-57.5 513,-57.5 513,-38.5 358,-38.5"/>
<text text-anchor="middle" x="435.5" y="-45.5" font-family="Helvetica,sans-Serif" font-size="10.00">GenerateAndSetCoordinates</text>
</a>
</g>
</g>
<!-- Node3&#45;&gt;Node4 -->
<g id="edge3" class="edge">
<title>Node3&#45;&gt;Node4</title>
<path fill="none" stroke="midnightblue" d="M322.13,-36.43C330.55,-37.3 339.21,-38.19 347.81,-39.07"/>
<polygon fill="midnightblue" stroke="midnightblue" points="347.55,-42.56 357.86,-40.11 348.27,-35.6 347.55,-42.56"/>
</g>
<!-- Node6 -->
<g id="node6" class="node">
<title>Node6</title>
<g id="a_node6"><a xlink:href="grid_8c.html#ac693c757c4fd3cb75e6e06e05e25d775" target="_top" xlink:title="Reads physical coordinates from a file and populates the DMDA for a specific block.">
<polygon fill="none" stroke="black" points="368.5,-0.5 368.5,-19.5 502.5,-19.5 502.5,-0.5 368.5,-0.5"/>
<text text-anchor="middle" x="435.5" y="-7.5" font-family="Helvetica,sans-Serif" font-size="10.00">ReadAndSetCoordinates</text>
</a>
</g>
</g>
<!-- Node3&#45;&gt;Node6 -->
<g id="edge5" class="edge">
<title>Node3&#45;&gt;Node6</title>
<path fill="none" stroke="midnightblue" d="M322.13,-21.57C334.05,-20.34 346.44,-19.07 358.46,-17.83"/>
<polygon fill="midnightblue" stroke="midnightblue" points="358.85,-21.31 368.44,-16.8 358.14,-14.35 358.85,-21.31"/>
</g>
<!-- Node5 -->
<g id="node5" class="node">
<title>Node5</title>
<g id="a_node5"><a xlink:href="grid_8c.html#a54a2529affe522c9e29161aef1ca3847" target="_top" xlink:title="Computes a stretched coordinate along one dimension.">
<polygon fill="none" stroke="black" points="549,-38.5 549,-57.5 685,-57.5 685,-38.5 549,-38.5"/>
<text text-anchor="middle" x="617" y="-45.5" font-family="Helvetica,sans-Serif" font-size="10.00">ComputeStretchedCoord</text>
</a>
</g>
</g>
<!-- Node4&#45;&gt;Node5 -->
<g id="edge4" class="edge">
<title>Node4&#45;&gt;Node5</title>
<path fill="none" stroke="midnightblue" d="M513.14,-48C521.61,-48 530.24,-48 538.72,-48"/>
<polygon fill="midnightblue" stroke="midnightblue" points="538.96,-51.5 548.96,-48 538.96,-44.5 538.96,-51.5"/>
</g>
</g>
</svg>
