<?xml version="1.0" encoding="UTF-8" standalone="no"?>
<!DOCTYPE svg PUBLIC "-//W3C//DTD SVG 1.1//EN"
 "http://www.w3.org/Graphics/SVG/1.1/DTD/svg11.dtd">
<!-- Generated by graphviz version 2.43.0 (0)
 -->
<!-- Title: ScatterParticleFieldToEulerField_Internal Pages: 1 -->
<svg width="352pt" height="104pt"
 viewBox="0.00 0.00 352.00 104.00" xmlns="http://www.w3.org/2000/svg" xmlns:xlink="http://www.w3.org/1999/xlink">
<g id="graph0" class="graph" transform="scale(1 1) rotate(0) translate(4 100)">
<title>ScatterParticleFieldToEulerField_Internal</title>
<!-- Node1 -->
<g id="node1" class="node">
<title>Node1</title>
<g id="a_node1"><a xlink:title="Internal helper function to orchestrate the scatter operation (accumulate + normalize).">
<polygon fill="#bfbfbf" stroke="black" points="0,-33 0,-63 146,-63 146,-33 0,-33"/>
<text text-anchor="start" x="8" y="-51" font-family="Helvetica,sans-Serif" font-size="10.00">ScatterParticleFieldToEuler</text>
<text text-anchor="middle" x="73" y="-40" font-family="Helvetica,sans-Serif" font-size="10.00">Field_Internal</text>
</a>
</g>
</g>
<!-- Node2 -->
<g id="node2" class="node">
<title>Node2</title>
<g id="a_node2"><a xlink:href="group__scatter__module__internal.html#gaa0d28beb3e582a9140180983a227bc1c" target="_top" xlink:title="Accumulates a particle field (scalar or vector) into a target grid sum vector.">
<polygon fill="none" stroke="black" points="196,-76.5 196,-95.5 330,-95.5 330,-76.5 196,-76.5"/>
<text text-anchor="middle" x="263" y="-83.5" font-family="Helvetica,sans-Serif" font-size="10.00">AccumulateParticleField</text>
</a>
</g>
</g>
<!-- Node1&#45;&gt;Node2 -->
<g id="edge1" class="edge">
<title>Node1&#45;&gt;Node2</title>
<path fill="none" stroke="midnightblue" d="M146.15,-62.58C165.54,-66.5 186.25,-70.69 204.72,-74.42"/>
<polygon fill="midnightblue" stroke="midnightblue" points="204.23,-77.89 214.73,-76.44 205.62,-71.03 204.23,-77.89"/>
</g>
<!-- Node3 -->
<g id="node3" class="node">
<title>Node3</title>
<g id="a_node3"><a xlink:href="group__scatter__module.html#ga81cfdf7b32472d8f614b44e30005ec6c" target="_top" xlink:title="Counts particles in each cell of the DMDA &#39;da&#39; and stores the result in user&#45;&gt;ParticleCount.">
<polygon fill="none" stroke="black" points="182,-38.5 182,-57.5 344,-57.5 344,-38.5 182,-38.5"/>
<text text-anchor="middle" x="263" y="-45.5" font-family="Helvetica,sans-Serif" font-size="10.00">CalculateParticleCountPerCell</text>
</a>
</g>
</g>
<!-- Node1&#45;&gt;Node3 -->
<g id="edge2" class="edge">
<title>Node1&#45;&gt;Node3</title>
<path fill="none" stroke="midnightblue" d="M146.15,-48C154.56,-48 163.22,-48 171.83,-48"/>
<polygon fill="midnightblue" stroke="midnightblue" points="171.9,-51.5 181.9,-48 171.9,-44.5 171.9,-51.5"/>
</g>
<!-- Node4 -->
<g id="node4" class="node">
<title>Node4</title>
<g id="a_node4"><a xlink:href="group__scatter__module__internal.html#ga95939f29ec3dfbb729bcceee7f138958" target="_top" xlink:title="Normalizes a grid vector of sums by a grid vector of counts to produce an average.">
<polygon fill="none" stroke="black" points="183,-0.5 183,-19.5 343,-19.5 343,-0.5 183,-0.5"/>
<text text-anchor="middle" x="263" y="-7.5" font-family="Helvetica,sans-Serif" font-size="10.00">NormalizeGridVectorByCount</text>
</a>
</g>
</g>
<!-- Node1&#45;&gt;Node4 -->
<g id="edge3" class="edge">
<title>Node1&#45;&gt;Node4</title>
<path fill="none" stroke="midnightblue" d="M146.15,-33.42C165.54,-29.5 186.25,-25.31 204.72,-21.58"/>
<polygon fill="midnightblue" stroke="midnightblue" points="205.62,-24.97 214.73,-19.56 204.23,-18.11 205.62,-24.97"/>
</g>
</g>
</svg>
