<?xml version="1.0" encoding="UTF-8" standalone="no"?>
<!DOCTYPE svg PUBLIC "-//W3C//DTD SVG 1.1//EN"
 "http://www.w3.org/Graphics/SVG/1.1/DTD/svg11.dtd">
<!-- Generated by graphviz version 2.43.0 (0)
 -->
<!-- Title: ScatterParticleFieldToEulerField_Internal Pages: 1 -->
<svg width="918pt" height="114pt"
 viewBox="0.00 0.00 918.00 114.00" xmlns="http://www.w3.org/2000/svg" xmlns:xlink="http://www.w3.org/1999/xlink">
<g id="graph0" class="graph" transform="scale(1 1) rotate(0) translate(4 110)">
<title>ScatterParticleFieldToEulerField_Internal</title>
<!-- Node1 -->
<g id="node1" class="node">
<title>Node1</title>
<g id="a_node1"><a xlink:title="Internal helper function to orchestrate the scatter operation (accumulate + normalize).">
<polygon fill="#bfbfbf" stroke="black" points="764,-39 764,-69 910,-69 910,-39 764,-39"/>
<text text-anchor="start" x="772" y="-57" font-family="Helvetica,sans-Serif" font-size="10.00">ScatterParticleFieldToEuler</text>
<text text-anchor="middle" x="837" y="-46" font-family="Helvetica,sans-Serif" font-size="10.00">Field_Internal</text>
</a>
</g>
</g>
<!-- Node2 -->
<g id="node2" class="node">
<title>Node2</title>
<g id="a_node2"><a xlink:href="group__scatter__module.html#gaa6642e53fe1be75dcc180dab3cf3f692" target="_top" xlink:title="Scatters a particle field (scalar or vector) to the corresponding Eulerian field average.">
<polygon fill="none" stroke="black" points="582,-39 582,-69 728,-69 728,-39 582,-39"/>
<text text-anchor="start" x="590" y="-57" font-family="Helvetica,sans-Serif" font-size="10.00">ScatterParticleFieldToEuler</text>
<text text-anchor="middle" x="655" y="-46" font-family="Helvetica,sans-Serif" font-size="10.00">Field</text>
</a>
</g>
</g>
<!-- Node1&#45;&gt;Node2 -->
<g id="edge1" class="edge">
<title>Node1&#45;&gt;Node2</title>
<path fill="none" stroke="midnightblue" d="M753.56,-54C745.09,-54 736.54,-54 728.19,-54"/>
<polygon fill="midnightblue" stroke="midnightblue" points="753.82,-57.5 763.82,-54 753.82,-50.5 753.82,-57.5"/>
</g>
<!-- Node3 -->
<g id="node3" class="node">
<title>Node3</title>
<g id="a_node3"><a xlink:href="group__scatter__module.html#ga84b852e1186804ff34e9228fab1764c6" target="_top" xlink:title="Scatters a predefined set of particle fields to their corresponding Eulerian fields.">
<polygon fill="none" stroke="black" points="418,-39 418,-69 546,-69 546,-39 418,-39"/>
<text text-anchor="start" x="426" y="-57" font-family="Helvetica,sans-Serif" font-size="10.00">ScatterAllParticleFields</text>
<text text-anchor="middle" x="482" y="-46" font-family="Helvetica,sans-Serif" font-size="10.00">ToEulerFields</text>
</a>
</g>
</g>
<!-- Node2&#45;&gt;Node3 -->
<g id="edge2" class="edge">
<title>Node2&#45;&gt;Node3</title>
<path fill="none" stroke="midnightblue" d="M571.9,-54C563.28,-54 554.62,-54 546.26,-54"/>
<polygon fill="midnightblue" stroke="midnightblue" points="571.98,-57.5 581.98,-54 571.98,-50.5 571.98,-57.5"/>
</g>
<!-- Node4 -->
<g id="node4" class="node">
<title>Node4</title>
<g id="a_node4"><a xlink:href="simulation_8c.html#a5cfb2f783604af7f20171d19f969d5d3" target="_top" xlink:title="Executes the main time&#45;marching loop for the coupled Euler&#45;Lagrange simulation.">
<polygon fill="none" stroke="black" points="78.5,-86.5 78.5,-105.5 189.5,-105.5 189.5,-86.5 78.5,-86.5"/>
<text text-anchor="middle" x="134" y="-93.5" font-family="Helvetica,sans-Serif" font-size="10.00">AdvanceSimulation</text>
</a>
</g>
</g>
<!-- Node3&#45;&gt;Node4 -->
<g id="edge3" class="edge">
<title>Node3&#45;&gt;Node4</title>
<path fill="none" stroke="midnightblue" d="M418.7,-71.53C406.6,-74.42 393.97,-77.09 382,-79 316.42,-89.45 240.03,-93.48 189.77,-95.03"/>
<polygon fill="midnightblue" stroke="midnightblue" points="419.83,-74.86 428.7,-69.06 418.15,-68.06 419.83,-74.86"/>
</g>
<!-- Node6 -->
<g id="node6" class="node">
<title>Node6</title>
<g id="a_node6"><a xlink:href="simulation_8c.html#aa5b3c3a0cd447931b47a01267c36acdd" target="_top" xlink:title="Finalizes the simulation setup at t=0, ensuring a consistent state before time marching.">
<polygon fill="none" stroke="black" points="234.5,-39 234.5,-69 374.5,-69 374.5,-39 234.5,-39"/>
<text text-anchor="start" x="242.5" y="-57" font-family="Helvetica,sans-Serif" font-size="10.00">PerformInitializedParticle</text>
<text text-anchor="middle" x="304.5" y="-46" font-family="Helvetica,sans-Serif" font-size="10.00">Setup</text>
</a>
</g>
</g>
<!-- Node3&#45;&gt;Node6 -->
<g id="edge5" class="edge">
<title>Node3&#45;&gt;Node6</title>
<path fill="none" stroke="midnightblue" d="M407.38,-54C396.55,-54 385.43,-54 374.7,-54"/>
<polygon fill="midnightblue" stroke="midnightblue" points="407.64,-57.5 417.64,-54 407.64,-50.5 407.64,-57.5"/>
</g>
<!-- Node8 -->
<g id="node8" class="node">
<title>Node8</title>
<g id="a_node8"><a xlink:href="simulation_8c.html#ad8038ca2fcc4f0534e04d144c4ffbbef" target="_top" xlink:title="Finalizes the simulation state after particle and fluid data have been loaded from a restart.">
<polygon fill="none" stroke="black" points="227,-0.5 227,-19.5 382,-19.5 382,-0.5 227,-0.5"/>
<text text-anchor="middle" x="304.5" y="-7.5" font-family="Helvetica,sans-Serif" font-size="10.00">PerformLoadedParticleSetup</text>
</a>
</g>
</g>
<!-- Node3&#45;&gt;Node8 -->
<g id="edge9" class="edge">
<title>Node3&#45;&gt;Node8</title>
<path fill="none" stroke="midnightblue" d="M411.71,-36.46C401.74,-33.95 391.61,-31.41 382,-29 369.65,-25.91 356.18,-22.56 344.03,-19.54"/>
<polygon fill="midnightblue" stroke="midnightblue" points="411.04,-39.91 421.59,-38.96 412.75,-33.12 411.04,-39.91"/>
</g>
<!-- Node5 -->
<g id="node5" class="node">
<title>Node5</title>
<g id="a_node5"><a xlink:href="picsolver_8c.html#a3c04138a5bfe5d72780bb7e82a18e627" target="_top" xlink:title=" ">
<polygon fill="none" stroke="black" points="0,-45.5 0,-64.5 41,-64.5 41,-45.5 0,-45.5"/>
<text text-anchor="middle" x="20.5" y="-52.5" font-family="Helvetica,sans-Serif" font-size="10.00">main</text>
</a>
</g>
</g>
<!-- Node4&#45;&gt;Node5 -->
<g id="edge4" class="edge">
<title>Node4&#45;&gt;Node5</title>
<path fill="none" stroke="midnightblue" d="M97.51,-82.95C78.93,-76.12 56.86,-68 41.31,-62.28"/>
<polygon fill="midnightblue" stroke="midnightblue" points="96.55,-86.32 107.14,-86.49 98.96,-79.75 96.55,-86.32"/>
</g>
<!-- Node6&#45;&gt;Node5 -->
<g id="edge8" class="edge">
<title>Node6&#45;&gt;Node5</title>
<path fill="none" stroke="midnightblue" d="M223.88,-54.28C161.19,-54.5 78.38,-54.8 41.13,-54.93"/>
<polygon fill="midnightblue" stroke="midnightblue" points="224.17,-57.78 234.15,-54.25 224.14,-50.78 224.17,-57.78"/>
</g>
<!-- Node7 -->
<g id="node7" class="node">
<title>Node7</title>
<g id="a_node7"><a xlink:href="simulation_8c.html#a7bc2bae7b01f179706b367c8637534c2" target="_top" xlink:title="Performs post&#45;load/post&#45;init consistency checks for a restarted simulation.">
<polygon fill="none" stroke="black" points="77,-7.5 77,-26.5 191,-26.5 191,-7.5 77,-7.5"/>
<text text-anchor="middle" x="134" y="-14.5" font-family="Helvetica,sans-Serif" font-size="10.00">FinalizeRestartState</text>
</a>
</g>
</g>
<!-- Node6&#45;&gt;Node7 -->
<g id="edge6" class="edge">
<title>Node6&#45;&gt;Node7</title>
<path fill="none" stroke="midnightblue" d="M225.02,-36.77C208.96,-33.24 192.61,-29.65 178.34,-26.52"/>
<polygon fill="midnightblue" stroke="midnightblue" points="224.45,-40.22 234.96,-38.95 225.95,-33.39 224.45,-40.22"/>
</g>
<!-- Node7&#45;&gt;Node5 -->
<g id="edge7" class="edge">
<title>Node7&#45;&gt;Node5</title>
<path fill="none" stroke="midnightblue" d="M95.15,-29.9C77.03,-36.07 56.1,-43.21 41.19,-48.29"/>
<polygon fill="midnightblue" stroke="midnightblue" points="96.53,-33.13 104.86,-26.59 94.27,-26.5 96.53,-33.13"/>
</g>
<!-- Node8&#45;&gt;Node7 -->
<g id="edge10" class="edge">
<title>Node8&#45;&gt;Node7</title>
<path fill="none" stroke="midnightblue" d="M216.51,-13.61C207.88,-13.97 199.28,-14.33 191.09,-14.67"/>
<polygon fill="midnightblue" stroke="midnightblue" points="216.8,-17.1 226.65,-13.19 216.51,-10.11 216.8,-17.1"/>
</g>
</g>
</svg>
