<?xml version="1.0" encoding="UTF-8" standalone="no"?>
<!DOCTYPE svg PUBLIC "-//W3C//DTD SVG 1.1//EN"
 "http://www.w3.org/Graphics/SVG/1.1/DTD/svg11.dtd">
<!-- Generated by graphviz version 2.43.0 (0)
 -->
<!-- Title: ScatterParticleFieldToEulerField Pages: 1 -->
<svg width="534pt" height="110pt"
 viewBox="0.00 0.00 534.00 110.00" xmlns="http://www.w3.org/2000/svg" xmlns:xlink="http://www.w3.org/1999/xlink">
<g id="graph0" class="graph" transform="scale(1 1) rotate(0) translate(4 106)">
<title>ScatterParticleFieldToEulerField</title>
<!-- Node1 -->
<g id="node1" class="node">
<title>Node1</title>
<g id="a_node1"><a xlink:title="Scatters a particle field (scalar or vector) to the corresponding Eulerian field average.">
<polygon fill="#bfbfbf" stroke="black" points="0,-55 0,-85 146,-85 146,-55 0,-55"/>
<text text-anchor="start" x="8" y="-73" font-family="Helvetica,sans-Serif" font-size="10.00">ScatterParticleFieldToEuler</text>
<text text-anchor="middle" x="73" y="-62" font-family="Helvetica,sans-Serif" font-size="10.00">Field</text>
</a>
</g>
</g>
<!-- Node2 -->
<g id="node2" class="node">
<title>Node2</title>
<g id="a_node2"><a xlink:href="group__scatter__module__internal.html#ga16dc04f7710ac752691f269400381913" target="_top" xlink:title="Determines the target Eulerian DM and expected DOF for scattering a given particle field.">
<polygon fill="none" stroke="black" points="196.5,-82.5 196.5,-101.5 313.5,-101.5 313.5,-82.5 196.5,-82.5"/>
<text text-anchor="middle" x="255" y="-89.5" font-family="Helvetica,sans-Serif" font-size="10.00">GetScatterTargetInfo</text>
</a>
</g>
</g>
<!-- Node1&#45;&gt;Node2 -->
<g id="edge1" class="edge">
<title>Node1&#45;&gt;Node2</title>
<path fill="none" stroke="midnightblue" d="M146.18,-78.82C159.37,-80.43 173.1,-82.11 186.17,-83.71"/>
<polygon fill="midnightblue" stroke="midnightblue" points="186.13,-87.23 196.48,-84.97 186.98,-80.28 186.13,-87.23"/>
</g>
<!-- Node3 -->
<g id="node3" class="node">
<title>Node3</title>
<g id="a_node3"><a xlink:href="group__scatter__module__internal.html#gac35f52bb41ee862f912a146e86f1affd" target="_top" xlink:title="Internal helper function to orchestrate the scatter operation (accumulate + normalize).">
<polygon fill="none" stroke="black" points="182,-33 182,-63 328,-63 328,-33 182,-33"/>
<text text-anchor="start" x="190" y="-51" font-family="Helvetica,sans-Serif" font-size="10.00">ScatterParticleFieldToEuler</text>
<text text-anchor="middle" x="255" y="-40" font-family="Helvetica,sans-Serif" font-size="10.00">Field_Internal</text>
</a>
</g>
</g>
<!-- Node1&#45;&gt;Node3 -->
<g id="edge2" class="edge">
<title>Node1&#45;&gt;Node3</title>
<path fill="none" stroke="midnightblue" d="M146.18,-61.18C154.61,-60.15 163.27,-59.09 171.82,-58.04"/>
<polygon fill="midnightblue" stroke="midnightblue" points="172.31,-61.51 181.81,-56.82 171.46,-54.56 172.31,-61.51"/>
</g>
<!-- Node4 -->
<g id="node4" class="node">
<title>Node4</title>
<g id="a_node4"><a xlink:href="group__scatter__module__internal.html#gaa0d28beb3e582a9140180983a227bc1c" target="_top" xlink:title="Accumulates a particle field (scalar or vector) into a target grid sum vector.">
<polygon fill="none" stroke="black" points="378,-76.5 378,-95.5 512,-95.5 512,-76.5 378,-76.5"/>
<text text-anchor="middle" x="445" y="-83.5" font-family="Helvetica,sans-Serif" font-size="10.00">AccumulateParticleField</text>
</a>
</g>
</g>
<!-- Node3&#45;&gt;Node4 -->
<g id="edge3" class="edge">
<title>Node3&#45;&gt;Node4</title>
<path fill="none" stroke="midnightblue" d="M328.15,-62.58C347.54,-66.5 368.25,-70.69 386.72,-74.42"/>
<polygon fill="midnightblue" stroke="midnightblue" points="386.23,-77.89 396.73,-76.44 387.62,-71.03 386.23,-77.89"/>
</g>
<!-- Node5 -->
<g id="node5" class="node">
<title>Node5</title>
<g id="a_node5"><a xlink:href="group__scatter__module.html#ga81cfdf7b32472d8f614b44e30005ec6c" target="_top" xlink:title="Counts particles in each cell of the DMDA &#39;da&#39; and stores the result in user&#45;&gt;ParticleCount.">
<polygon fill="none" stroke="black" points="364,-38.5 364,-57.5 526,-57.5 526,-38.5 364,-38.5"/>
<text text-anchor="middle" x="445" y="-45.5" font-family="Helvetica,sans-Serif" font-size="10.00">CalculateParticleCountPerCell</text>
</a>
</g>
</g>
<!-- Node3&#45;&gt;Node5 -->
<g id="edge4" class="edge">
<title>Node3&#45;&gt;Node5</title>
<path fill="none" stroke="midnightblue" d="M328.15,-48C336.56,-48 345.22,-48 353.83,-48"/>
<polygon fill="midnightblue" stroke="midnightblue" points="353.9,-51.5 363.9,-48 353.9,-44.5 353.9,-51.5"/>
</g>
<!-- Node6 -->
<g id="node6" class="node">
<title>Node6</title>
<g id="a_node6"><a xlink:href="group__scatter__module__internal.html#ga95939f29ec3dfbb729bcceee7f138958" target="_top" xlink:title="Normalizes a grid vector of sums by a grid vector of counts to produce an average.">
<polygon fill="none" stroke="black" points="365,-0.5 365,-19.5 525,-19.5 525,-0.5 365,-0.5"/>
<text text-anchor="middle" x="445" y="-7.5" font-family="Helvetica,sans-Serif" font-size="10.00">NormalizeGridVectorByCount</text>
</a>
</g>
</g>
<!-- Node3&#45;&gt;Node6 -->
<g id="edge5" class="edge">
<title>Node3&#45;&gt;Node6</title>
<path fill="none" stroke="midnightblue" d="M328.15,-33.42C347.54,-29.5 368.25,-25.31 386.72,-21.58"/>
<polygon fill="midnightblue" stroke="midnightblue" points="387.62,-24.97 396.73,-19.56 386.23,-18.11 387.62,-24.97"/>
</g>
</g>
</svg>
