<?xml version="1.0" encoding="UTF-8" standalone="no"?>
<!DOCTYPE svg PUBLIC "-//W3C//DTD SVG 1.1//EN"
 "http://www.w3.org/Graphics/SVG/1.1/DTD/svg11.dtd">
<!-- Generated by graphviz version 2.43.0 (0)
 -->
<!-- Title: RungeKutta Pages: 1 -->
<svg width="937pt" height="294pt"
 viewBox="0.00 0.00 937.00 294.00" xmlns="http://www.w3.org/2000/svg" xmlns:xlink="http://www.w3.org/1999/xlink">
<g id="graph0" class="graph" transform="scale(1 1) rotate(0) translate(4 290)">
<title>RungeKutta</title>
<!-- Node1 -->
<g id="node1" class="node">
<title>Node1</title>
<g id="a_node1"><a xlink:title="Advances the momentum equations using an explicit 4th&#45;order Runge&#45;Kutta scheme.">
<polygon fill="#bfbfbf" stroke="black" points="0,-114.5 0,-133.5 73,-133.5 73,-114.5 0,-114.5"/>
<text text-anchor="middle" x="36.5" y="-121.5" font-family="Helvetica,sans-Serif" font-size="10.00">RungeKutta</text>
</a>
</g>
</g>
<!-- Node2 -->
<g id="node2" class="node">
<title>Node2</title>
<g id="a_node2"><a xlink:href="rhs_8h.html#af191235c93d0d91fa83f8e3b0e9274d8" target="_top" xlink:title="Computes the Right&#45;Hand Side (RHS) of the momentum equations.">
<polygon fill="none" stroke="black" points="109,-199.5 109,-218.5 190,-218.5 190,-199.5 109,-199.5"/>
<text text-anchor="middle" x="149.5" y="-206.5" font-family="Helvetica,sans-Serif" font-size="10.00">ComputeRHS</text>
</a>
</g>
</g>
<!-- Node1&#45;&gt;Node2 -->
<g id="edge1" class="edge">
<title>Node1&#45;&gt;Node2</title>
<path fill="none" stroke="midnightblue" d="M50.23,-133.75C69.22,-148.29 105.15,-175.8 127.9,-193.23"/>
<polygon fill="midnightblue" stroke="midnightblue" points="125.85,-196.06 135.92,-199.36 130.1,-190.5 125.85,-196.06"/>
</g>
<!-- Node10 -->
<g id="node10" class="node">
<title>Node10</title>
<g id="a_node10"><a xlink:href="Boundaries_8h.html#adcd96cff4b9e15e03cdff9f5ea695dec" target="_top" xlink:title=" ">
<polygon fill="none" stroke="black" points="119,-142.5 119,-161.5 180,-161.5 180,-142.5 119,-142.5"/>
<text text-anchor="middle" x="149.5" y="-149.5" font-family="Helvetica,sans-Serif" font-size="10.00">FormBCS</text>
</a>
</g>
</g>
<!-- Node1&#45;&gt;Node10 -->
<g id="edge9" class="edge">
<title>Node1&#45;&gt;Node10</title>
<path fill="none" stroke="midnightblue" d="M73.23,-133.01C84.6,-135.88 97.25,-139.07 108.88,-142.01"/>
<polygon fill="midnightblue" stroke="midnightblue" points="108.23,-145.45 118.78,-144.5 109.94,-138.66 108.23,-145.45"/>
</g>
<!-- Node18 -->
<g id="node18" class="node">
<title>Node18</title>
<g id="a_node18"><a xlink:href="Boundaries_8h.html#abd9b573f8f42ea93e265da37a0673f24" target="_top" xlink:title="Applies inlet boundary conditions based on the modern BC handling system.">
<polygon fill="none" stroke="black" points="115.5,-76.5 115.5,-95.5 183.5,-95.5 183.5,-76.5 115.5,-76.5"/>
<text text-anchor="middle" x="149.5" y="-83.5" font-family="Helvetica,sans-Serif" font-size="10.00">InflowFlux</text>
</a>
</g>
</g>
<!-- Node1&#45;&gt;Node18 -->
<g id="edge20" class="edge">
<title>Node1&#45;&gt;Node18</title>
<path fill="none" stroke="midnightblue" d="M65.51,-114.41C79.18,-109.73 95.83,-104.03 110.62,-98.97"/>
<polygon fill="midnightblue" stroke="midnightblue" points="112.17,-102.14 120.5,-95.59 109.9,-95.51 112.17,-102.14"/>
</g>
<!-- Node22 -->
<g id="node22" class="node">
<title>Node22</title>
<g id="a_node22"><a xlink:href="Boundaries_8h.html#a684320111be78b3001fda2ba25638e79" target="_top" xlink:title="Calculates the total outgoing flux through all OUTLET faces for reporting.">
<polygon fill="none" stroke="black" points="111.5,-38.5 111.5,-57.5 187.5,-57.5 187.5,-38.5 111.5,-38.5"/>
<text text-anchor="middle" x="149.5" y="-45.5" font-family="Helvetica,sans-Serif" font-size="10.00">OutflowFlux</text>
</a>
</g>
</g>
<!-- Node1&#45;&gt;Node22 -->
<g id="edge24" class="edge">
<title>Node1&#45;&gt;Node22</title>
<path fill="none" stroke="midnightblue" d="M48.07,-114.31C61.55,-102.26 85.88,-81.52 109,-67 111.62,-65.35 114.41,-63.75 117.24,-62.22"/>
<polygon fill="midnightblue" stroke="midnightblue" points="118.98,-65.26 126.3,-57.6 115.8,-59.02 118.98,-65.26"/>
</g>
<!-- Node3 -->
<g id="node3" class="node">
<title>Node3</title>
<g id="a_node3"><a xlink:href="setup_8h.html#a515c9a96eb4bcac29f79e78c8882d7aa" target="_top" xlink:title="Reconstructs Cartesian velocity (Ucat) at cell centers from contravariant velocity (Ucont) defined on...">
<polygon fill="none" stroke="black" points="248,-190.5 248,-209.5 323,-209.5 323,-190.5 248,-190.5"/>
<text text-anchor="middle" x="285.5" y="-197.5" font-family="Helvetica,sans-Serif" font-size="10.00">Contra2Cart</text>
</a>
</g>
</g>
<!-- Node2&#45;&gt;Node3 -->
<g id="edge2" class="edge">
<title>Node2&#45;&gt;Node3</title>
<path fill="none" stroke="midnightblue" d="M190.34,-206.32C205.13,-205.33 222.05,-204.19 237.43,-203.16"/>
<polygon fill="midnightblue" stroke="midnightblue" points="238.04,-206.63 247.79,-202.47 237.57,-199.64 238.04,-206.63"/>
</g>
<!-- Node4 -->
<g id="node4" class="node">
<title>Node4</title>
<g id="a_node4"><a xlink:href="rhs_8c.html#a59a4e489633014a0f4e1e85318d395d3" target="_top" xlink:title=" ">
<polygon fill="none" stroke="black" points="250,-266.5 250,-285.5 321,-285.5 321,-266.5 250,-266.5"/>
<text text-anchor="middle" x="285.5" y="-273.5" font-family="Helvetica,sans-Serif" font-size="10.00">Convection</text>
</a>
</g>
</g>
<!-- Node2&#45;&gt;Node4 -->
<g id="edge3" class="edge">
<title>Node2&#45;&gt;Node4</title>
<path fill="none" stroke="midnightblue" d="M163.28,-218.55C177.85,-229.09 202.67,-246.01 226,-257 230.65,-259.19 235.62,-261.23 240.63,-263.1"/>
<polygon fill="midnightblue" stroke="midnightblue" points="239.62,-266.45 250.22,-266.47 241.95,-259.85 239.62,-266.45"/>
</g>
<!-- Node5 -->
<g id="node5" class="node">
<title>Node5</title>
<g id="a_node5"><a xlink:href="rhs_8c.html#a3e0cf2a027c25bb1f6510d4a7e5d4870" target="_top" xlink:title=" ">
<polygon fill="none" stroke="black" points="258.5,-228.5 258.5,-247.5 312.5,-247.5 312.5,-228.5 258.5,-228.5"/>
<text text-anchor="middle" x="285.5" y="-235.5" font-family="Helvetica,sans-Serif" font-size="10.00">Viscous</text>
</a>
</g>
</g>
<!-- Node2&#45;&gt;Node5 -->
<g id="edge4" class="edge">
<title>Node2&#45;&gt;Node5</title>
<path fill="none" stroke="midnightblue" d="M190.34,-217.62C208.74,-221.6 230.43,-226.3 248.36,-230.18"/>
<polygon fill="midnightblue" stroke="midnightblue" points="247.63,-233.6 258.15,-232.3 249.11,-226.76 247.63,-233.6"/>
</g>
<!-- Node6 -->
<g id="node6" class="node">
<title>Node6</title>
<g id="a_node6"><a xlink:href="rhs_8c.html#a619998e3b8a88fe90548745b983ade78" target="_top" xlink:title=" ">
<polygon fill="none" stroke="black" points="382.5,-247.5 382.5,-266.5 480.5,-266.5 480.5,-247.5 382.5,-247.5"/>
<text text-anchor="middle" x="431.5" y="-254.5" font-family="Helvetica,sans-Serif" font-size="10.00">Calculatedxdydz</text>
</a>
</g>
</g>
<!-- Node5&#45;&gt;Node6 -->
<g id="edge5" class="edge">
<title>Node5&#45;&gt;Node6</title>
<path fill="none" stroke="midnightblue" d="M312.58,-241.44C329.29,-243.65 351.68,-246.6 372.45,-249.34"/>
<polygon fill="midnightblue" stroke="midnightblue" points="372.12,-252.83 382.49,-250.67 373.03,-245.89 372.12,-252.83"/>
</g>
<!-- Node9 -->
<g id="node9" class="node">
<title>Node9</title>
<g id="a_node9"><a xlink:href="wallfunction_8h.html#adc08703381597f75ccb620bf30d90ae1" target="_top" xlink:title=" ">
<polygon fill="none" stroke="black" points="412.5,-209.5 412.5,-228.5 450.5,-228.5 450.5,-209.5 412.5,-209.5"/>
<text text-anchor="middle" x="431.5" y="-216.5" font-family="Helvetica,sans-Serif" font-size="10.00">nu_t</text>
</a>
</g>
</g>
<!-- Node5&#45;&gt;Node9 -->
<g id="edge8" class="edge">
<title>Node5&#45;&gt;Node9</title>
<path fill="none" stroke="midnightblue" d="M312.58,-234.56C337.94,-231.21 376.34,-226.15 402.37,-222.71"/>
<polygon fill="midnightblue" stroke="midnightblue" points="402.91,-226.17 412.36,-221.39 401.99,-219.23 402.91,-226.17"/>
</g>
<!-- Node7 -->
<g id="node7" class="node">
<title>Node7</title>
<g id="a_node7"><a xlink:href="rhs_8c.html#aecbb71daf364f9c5810052e4b9ad1840" target="_top" xlink:title=" ">
<polygon fill="none" stroke="black" points="518,-247.5 518,-266.5 658,-266.5 658,-247.5 518,-247.5"/>
<text text-anchor="middle" x="588" y="-254.5" font-family="Helvetica,sans-Serif" font-size="10.00">CalculateNormalAndArea</text>
</a>
</g>
</g>
<!-- Node6&#45;&gt;Node7 -->
<g id="edge6" class="edge">
<title>Node6&#45;&gt;Node7</title>
<path fill="none" stroke="midnightblue" d="M480.54,-257C489.19,-257 498.42,-257 507.68,-257"/>
<polygon fill="midnightblue" stroke="midnightblue" points="507.72,-260.5 517.72,-257 507.72,-253.5 507.72,-260.5"/>
</g>
<!-- Node8 -->
<g id="node8" class="node">
<title>Node8</title>
<g id="a_node8"><a xlink:href="rhs_8c.html#aa8f3b644af5c8201570f3fa7d5ae350a" target="_top" xlink:title=" ">
<polygon fill="none" stroke="black" points="694,-247.5 694,-266.5 840,-266.5 840,-247.5 694,-247.5"/>
<text text-anchor="middle" x="767" y="-254.5" font-family="Helvetica,sans-Serif" font-size="10.00">CalculateCovariantMetrics</text>
</a>
</g>
</g>
<!-- Node7&#45;&gt;Node8 -->
<g id="edge7" class="edge">
<title>Node7&#45;&gt;Node8</title>
<path fill="none" stroke="midnightblue" d="M658.19,-257C666.63,-257 675.3,-257 683.9,-257"/>
<polygon fill="midnightblue" stroke="midnightblue" points="683.94,-260.5 693.94,-257 683.94,-253.5 683.94,-260.5"/>
</g>
<!-- Node10&#45;&gt;Node3 -->
<g id="edge10" class="edge">
<title>Node10&#45;&gt;Node3</title>
<path fill="none" stroke="midnightblue" d="M174.52,-161.6C189.3,-167.41 208.66,-174.86 226,-181 231.95,-183.11 238.26,-185.25 244.46,-187.31"/>
<polygon fill="midnightblue" stroke="midnightblue" points="243.44,-190.66 254.03,-190.44 245.62,-184 243.44,-190.66"/>
</g>
<!-- Node11 -->
<g id="node11" class="node">
<title>Node11</title>
<g id="a_node11"><a xlink:href="wallfunction_8h.html#a82a96fd4f826d93b926bea9bb776b93e" target="_top" xlink:title=" ">
<polygon fill="none" stroke="black" points="262.5,-152.5 262.5,-171.5 308.5,-171.5 308.5,-152.5 262.5,-152.5"/>
<text text-anchor="middle" x="285.5" y="-159.5" font-family="Helvetica,sans-Serif" font-size="10.00">noslip</text>
</a>
</g>
</g>
<!-- Node10&#45;&gt;Node11 -->
<g id="edge11" class="edge">
<title>Node10&#45;&gt;Node11</title>
<path fill="none" stroke="midnightblue" d="M180.24,-154.22C201.58,-155.81 230.3,-157.96 252.2,-159.59"/>
<polygon fill="midnightblue" stroke="midnightblue" points="252.11,-163.09 262.34,-160.35 252.63,-156.11 252.11,-163.09"/>
</g>
<!-- Node12 -->
<g id="node12" class="node">
<title>Node12</title>
<g id="a_node12"><a xlink:href="wallfunction_8h.html#aae67d9282b09691fffdea6f1012e6df7" target="_top" xlink:title=" ">
<polygon fill="none" stroke="black" points="226,-114.5 226,-133.5 345,-133.5 345,-114.5 226,-114.5"/>
<text text-anchor="middle" x="285.5" y="-121.5" font-family="Helvetica,sans-Serif" font-size="10.00">wall_function_loglaw</text>
</a>
</g>
</g>
<!-- Node10&#45;&gt;Node12 -->
<g id="edge12" class="edge">
<title>Node10&#45;&gt;Node12</title>
<path fill="none" stroke="midnightblue" d="M180.24,-145.79C194.48,-142.81 212.01,-139.15 228.61,-135.68"/>
<polygon fill="midnightblue" stroke="midnightblue" points="229.71,-139.02 238.78,-133.55 228.28,-132.17 229.71,-139.02"/>
</g>
<!-- Node13 -->
<g id="node13" class="node">
<title>Node13</title>
<g id="a_node13"><a xlink:href="wallfunction_8c.html#aa22aca64a54a00ccaf354357cc1c0760" target="_top" xlink:title=" ">
<polygon fill="none" stroke="black" points="381,-133.5 381,-152.5 482,-152.5 482,-133.5 381,-133.5"/>
<text text-anchor="middle" x="431.5" y="-140.5" font-family="Helvetica,sans-Serif" font-size="10.00">find_utau_hydset</text>
</a>
</g>
</g>
<!-- Node12&#45;&gt;Node13 -->
<g id="edge13" class="edge">
<title>Node12&#45;&gt;Node13</title>
<path fill="none" stroke="midnightblue" d="M345.07,-131.73C353.48,-132.84 362.15,-133.98 370.59,-135.1"/>
<polygon fill="midnightblue" stroke="midnightblue" points="370.37,-138.6 380.74,-136.43 371.29,-131.66 370.37,-138.6"/>
</g>
<!-- Node17 -->
<g id="node17" class="node">
<title>Node17</title>
<g id="a_node17"><a xlink:href="wallfunction_8c.html#a071e294d71e268c014aa6047acb64730" target="_top" xlink:title=" ">
<polygon fill="none" stroke="black" points="530,-95.5 530,-114.5 646,-114.5 646,-95.5 530,-95.5"/>
<text text-anchor="middle" x="588" y="-102.5" font-family="Helvetica,sans-Serif" font-size="10.00">u_hydset_roughness</text>
</a>
</g>
</g>
<!-- Node12&#45;&gt;Node17 -->
<g id="edge18" class="edge">
<title>Node12&#45;&gt;Node17</title>
<path fill="none" stroke="midnightblue" d="M345.15,-120.29C395.19,-117.13 467.15,-112.58 519.56,-109.26"/>
<polygon fill="midnightblue" stroke="midnightblue" points="520.01,-112.74 529.77,-108.62 519.57,-105.76 520.01,-112.74"/>
</g>
<!-- Node14 -->
<g id="node14" class="node">
<title>Node14</title>
<g id="a_node14"><a xlink:href="wallfunction_8c.html#a39f08431792fc8f96ea8659756dfd749" target="_top" xlink:title=" ">
<polygon fill="none" stroke="black" points="555.5,-171.5 555.5,-190.5 620.5,-190.5 620.5,-171.5 555.5,-171.5"/>
<text text-anchor="middle" x="588" y="-178.5" font-family="Helvetica,sans-Serif" font-size="10.00">df_hydset</text>
</a>
</g>
</g>
<!-- Node13&#45;&gt;Node14 -->
<g id="edge14" class="edge">
<title>Node13&#45;&gt;Node14</title>
<path fill="none" stroke="midnightblue" d="M471.49,-152.59C494.07,-158.14 522.49,-165.13 545.49,-170.79"/>
<polygon fill="midnightblue" stroke="midnightblue" points="544.76,-174.21 555.3,-173.2 546.43,-167.42 544.76,-174.21"/>
</g>
<!-- Node15 -->
<g id="node15" class="node">
<title>Node15</title>
<g id="a_node15"><a xlink:href="wallfunction_8c.html#ac7ee38b34b5a56a4e5c01a02c290229b" target="_top" xlink:title=" ">
<polygon fill="none" stroke="black" points="737.5,-133.5 737.5,-152.5 796.5,-152.5 796.5,-133.5 737.5,-133.5"/>
<text text-anchor="middle" x="767" y="-140.5" font-family="Helvetica,sans-Serif" font-size="10.00">f_hydset</text>
</a>
</g>
</g>
<!-- Node13&#45;&gt;Node15 -->
<g id="edge17" class="edge">
<title>Node13&#45;&gt;Node15</title>
<path fill="none" stroke="midnightblue" d="M482.07,-143C548.83,-143 666.25,-143 727.06,-143"/>
<polygon fill="midnightblue" stroke="midnightblue" points="727.37,-146.5 737.37,-143 727.37,-139.5 727.37,-146.5"/>
</g>
<!-- Node14&#45;&gt;Node15 -->
<g id="edge15" class="edge">
<title>Node14&#45;&gt;Node15</title>
<path fill="none" stroke="midnightblue" d="M620.64,-174.21C650.52,-167.79 695.4,-158.16 727.37,-151.29"/>
<polygon fill="midnightblue" stroke="midnightblue" points="728.22,-154.69 737.27,-149.17 726.75,-147.85 728.22,-154.69"/>
</g>
<!-- Node16 -->
<g id="node16" class="node">
<title>Node16</title>
<g id="a_node16"><a xlink:href="wallfunction_8c.html#a5a5ea51c16915866975995631c0d2923" target="_top" xlink:title=" ">
<polygon fill="none" stroke="black" points="876,-114.5 876,-133.5 929,-133.5 929,-114.5 876,-114.5"/>
<text text-anchor="middle" x="902.5" y="-121.5" font-family="Helvetica,sans-Serif" font-size="10.00">E_coeff</text>
</a>
</g>
</g>
<!-- Node15&#45;&gt;Node16 -->
<g id="edge16" class="edge">
<title>Node15&#45;&gt;Node16</title>
<path fill="none" stroke="midnightblue" d="M796.64,-138.92C816.79,-136.06 843.9,-132.2 865.51,-129.12"/>
<polygon fill="midnightblue" stroke="midnightblue" points="866.21,-132.56 875.62,-127.68 865.23,-125.63 866.21,-132.56"/>
</g>
<!-- Node17&#45;&gt;Node16 -->
<g id="edge19" class="edge">
<title>Node17&#45;&gt;Node16</title>
<path fill="none" stroke="midnightblue" d="M646.32,-108.48C710.41,-112.38 812.23,-118.57 865.83,-121.83"/>
<polygon fill="midnightblue" stroke="midnightblue" points="865.68,-125.33 875.88,-122.44 866.11,-118.34 865.68,-125.33"/>
</g>
<!-- Node19 -->
<g id="node19" class="node">
<title>Node19</title>
<g id="a_node19"><a xlink:href="logging_8h.html#a9b417fe56a110c0f6a3e64860e3e5cdb" target="_top" xlink:title="Helper function to convert BCFace enum to a string representation.">
<polygon fill="none" stroke="black" points="239.5,-76.5 239.5,-95.5 331.5,-95.5 331.5,-76.5 239.5,-76.5"/>
<text text-anchor="middle" x="285.5" y="-83.5" font-family="Helvetica,sans-Serif" font-size="10.00">BCFaceToString</text>
</a>
</g>
</g>
<!-- Node18&#45;&gt;Node19 -->
<g id="edge21" class="edge">
<title>Node18&#45;&gt;Node19</title>
<path fill="none" stroke="midnightblue" d="M183.62,-86C197.42,-86 213.82,-86 229.34,-86"/>
<polygon fill="midnightblue" stroke="midnightblue" points="229.37,-89.5 239.37,-86 229.37,-82.5 229.37,-89.5"/>
</g>
<!-- Node20 -->
<g id="node20" class="node">
<title>Node20</title>
<g id="a_node20"><a xlink:href="io_8h.html#a1ac7631f5ff3a878c3f5788d6880c22c" target="_top" xlink:title="Searches a BC_Param linked list for a key and returns its value as a double.">
<polygon fill="none" stroke="black" points="235,-38.5 235,-57.5 336,-57.5 336,-38.5 235,-38.5"/>
<text text-anchor="middle" x="285.5" y="-45.5" font-family="Helvetica,sans-Serif" font-size="10.00">GetBCParamReal</text>
</a>
</g>
</g>
<!-- Node18&#45;&gt;Node20 -->
<g id="edge22" class="edge">
<title>Node18&#45;&gt;Node20</title>
<path fill="none" stroke="midnightblue" d="M183.62,-76.61C200.97,-71.69 222.42,-65.6 241.08,-60.31"/>
<polygon fill="midnightblue" stroke="midnightblue" points="242.16,-63.64 250.83,-57.55 240.25,-56.91 242.16,-63.64"/>
</g>
<!-- Node21 -->
<g id="node21" class="node">
<title>Node21</title>
<g id="a_node21"><a xlink:href="wallfunction_8h.html#a61e5145bbc7aa0f76c074b4e9e91e06b" target="_top" xlink:title=" ">
<polygon fill="none" stroke="black" points="267,-0.5 267,-19.5 304,-19.5 304,-0.5 267,-0.5"/>
<text text-anchor="middle" x="285.5" y="-7.5" font-family="Helvetica,sans-Serif" font-size="10.00">sign</text>
</a>
</g>
</g>
<!-- Node18&#45;&gt;Node21 -->
<g id="edge23" class="edge">
<title>Node18&#45;&gt;Node21</title>
<path fill="none" stroke="midnightblue" d="M173.87,-76.5C179.38,-73.79 185.08,-70.59 190,-67 208.79,-53.29 206.33,-41.42 226,-29 235.41,-23.06 246.86,-18.8 257.12,-15.85"/>
<polygon fill="midnightblue" stroke="midnightblue" points="258.08,-19.22 266.88,-13.31 256.32,-12.44 258.08,-19.22"/>
</g>
</g>
</svg>
