<?xml version="1.0" encoding="UTF-8" standalone="no"?>
<!DOCTYPE svg PUBLIC "-//W3C//DTD SVG 1.1//EN"
 "http://www.w3.org/Graphics/SVG/1.1/DTD/svg11.dtd">
<!-- Generated by graphviz version 2.43.0 (0)
 -->
<!-- Title: ImpRK Pages: 1 -->
<!--zoomable 294 -->
<svg id="main" version="1.1" xmlns="http://www.w3.org/2000/svg" xmlns:xlink="http://www.w3.org/1999/xlink" xml:space="preserve" onload="init(evt)">
<style type="text/css"><![CDATA[
.edge:hover path { stroke: red; }
.edge:hover polygon { stroke: red; fill: red; }
]]></style>
<script type="text/javascript"><![CDATA[
var edges = document.getElementsByTagName('g');
if (edges && edges.length) {
  for (var i=0;i<edges.length;i++) {
    if (edges[i].id.substr(0,4)=='edge') {
      edges[i].setAttribute('class','edge');
    }
  }
}
]]></script>
        <defs>
                <circle id="rim" cx="0" cy="0" r="7"/>
                <circle id="rim2" cx="0" cy="0" r="3.5"/>
                <g id="zoomPlus">
                        <use xlink:href="#rim" fill="#404040">
                                <set attributeName="fill" to="#808080" begin="zoomplus.mouseover" end="zoomplus.mouseout"/>
                        </use>
                        <path d="M-4,0h8M0,-4v8" fill="none" stroke="white" stroke-width="1.5" pointer-events="none"/>
                </g>
                <g id="zoomMin">
                        <use xlink:href="#rim" fill="#404040">
                                <set attributeName="fill" to="#808080" begin="zoomminus.mouseover" end="zoomminus.mouseout"/>
                        </use>
                        <path d="M-4,0h8" fill="none" stroke="white" stroke-width="1.5" pointer-events="none"/>
                </g>
                <g id="dirArrow">
                        <path fill="none" stroke="white" stroke-width="1.5" d="M0,-3.0v7 M-2.5,-0.5L0,-3.0L2.5,-0.5"/>
                </g>
               <g id="resetDef">
                       <use xlink:href="#rim2" fill="#404040">
                               <set attributeName="fill" to="#808080" begin="reset.mouseover" end="reset.mouseout"/>
                       </use>
               </g>
        </defs>

<script type="text/javascript">
var viewWidth = 913;
var viewHeight = 294;
var sectionId = 'dynsection-3';
</script>
<script xlink:href="svgpan.js"/>
<svg id="graph" class="graph">
<g id="viewport">
<title>ImpRK</title>
<!-- Node1 -->
<g id="node1" class="node">
<title>Node1</title>
<g id="a_node1"><a xlink:title="Advances the momentum equations using an iterative explicit Runge&#45;Kutta scheme.">
<polygon fill="#bfbfbf" stroke="black" points="0,-114.5 0,-133.5 49,-133.5 49,-114.5 0,-114.5"/>
<text text-anchor="middle" x="24.5" y="-121.5" font-family="Helvetica,sans-Serif" font-size="10.00">ImpRK</text>
</a>
</g>
</g>
<!-- Node2 -->
<g id="node2" class="node">
<title>Node2</title>
<g id="a_node2"><a xlink:href="rhs_8h.html#af191235c93d0d91fa83f8e3b0e9274d8" target="_top" xlink:title="Computes the Right&#45;Hand Side (RHS) of the momentum equations.">
<polygon fill="none" stroke="black" points="85,-199.5 85,-218.5 166,-218.5 166,-199.5 85,-199.5"/>
<text text-anchor="middle" x="125.5" y="-206.5" font-family="Helvetica,sans-Serif" font-size="10.00">ComputeRHS</text>
</a>
</g>
</g>
<!-- Node1&#45;&gt;Node2 -->
<g id="edge1" class="edge">
<title>Node1&#45;&gt;Node2</title>
<path fill="none" stroke="midnightblue" d="M36.86,-133.75C53.64,-148.16 85.27,-175.32 105.59,-192.76"/>
<polygon fill="midnightblue" stroke="midnightblue" points="103.41,-195.5 113.28,-199.36 107.97,-190.19 103.41,-195.5"/>
</g>
<!-- Node10 -->
<g id="node10" class="node">
<title>Node10</title>
<g id="a_node10"><a xlink:href="Boundaries_8h.html#adcd96cff4b9e15e03cdff9f5ea695dec" target="_top" xlink:title=" ">
<polygon fill="none" stroke="black" points="95,-142.5 95,-161.5 156,-161.5 156,-142.5 95,-142.5"/>
<text text-anchor="middle" x="125.5" y="-149.5" font-family="Helvetica,sans-Serif" font-size="10.00">FormBCS</text>
</a>
</g>
</g>
<!-- Node1&#45;&gt;Node10 -->
<g id="edge9" class="edge">
<title>Node1&#45;&gt;Node10</title>
<path fill="none" stroke="midnightblue" d="M49.21,-130.71C59.94,-133.74 72.91,-137.41 85.03,-140.84"/>
<polygon fill="midnightblue" stroke="midnightblue" points="84.38,-144.29 94.96,-143.64 86.29,-137.55 84.38,-144.29"/>
</g>
<!-- Node18 -->
<g id="node18" class="node">
<title>Node18</title>
<g id="a_node18"><a xlink:href="Boundaries_8h.html#abd9b573f8f42ea93e265da37a0673f24" target="_top" xlink:title="Applies inlet boundary conditions based on the modern BC handling system.">
<polygon fill="none" stroke="black" points="91.5,-76.5 91.5,-95.5 159.5,-95.5 159.5,-76.5 91.5,-76.5"/>
<text text-anchor="middle" x="125.5" y="-83.5" font-family="Helvetica,sans-Serif" font-size="10.00">InflowFlux</text>
</a>
</g>
</g>
<!-- Node1&#45;&gt;Node18 -->
<g id="edge20" class="edge">
<title>Node1&#45;&gt;Node18</title>
<path fill="none" stroke="midnightblue" d="M49.21,-114.9C61.46,-110.2 76.62,-104.38 90.13,-99.19"/>
<polygon fill="midnightblue" stroke="midnightblue" points="91.52,-102.41 99.6,-95.56 89.01,-95.87 91.52,-102.41"/>
</g>
<!-- Node22 -->
<g id="node22" class="node">
<title>Node22</title>
<g id="a_node22"><a xlink:href="Boundaries_8h.html#a684320111be78b3001fda2ba25638e79" target="_top" xlink:title="Calculates the total outgoing flux through all OUTLET faces for reporting.">
<polygon fill="none" stroke="black" points="87.5,-38.5 87.5,-57.5 163.5,-57.5 163.5,-38.5 87.5,-38.5"/>
<text text-anchor="middle" x="125.5" y="-45.5" font-family="Helvetica,sans-Serif" font-size="10.00">OutflowFlux</text>
</a>
</g>
</g>
<!-- Node1&#45;&gt;Node22 -->
<g id="edge24" class="edge">
<title>Node1&#45;&gt;Node22</title>
<path fill="none" stroke="midnightblue" d="M33.98,-114.14C44.87,-101.93 64.78,-81.02 85,-67 87.27,-65.43 89.68,-63.92 92.16,-62.49"/>
<polygon fill="midnightblue" stroke="midnightblue" points="94.06,-65.45 101.26,-57.68 90.78,-59.26 94.06,-65.45"/>
</g>
<!-- Node3 -->
<g id="node3" class="node">
<title>Node3</title>
<g id="a_node3"><a xlink:href="setup_8h.html#a515c9a96eb4bcac29f79e78c8882d7aa" target="_top" xlink:title="Reconstructs Cartesian velocity (Ucat) at cell centers from contravariant velocity (Ucont) defined on...">
<polygon fill="none" stroke="black" points="224,-190.5 224,-209.5 299,-209.5 299,-190.5 224,-190.5"/>
<text text-anchor="middle" x="261.5" y="-197.5" font-family="Helvetica,sans-Serif" font-size="10.00">Contra2Cart</text>
</a>
</g>
</g>
<!-- Node2&#45;&gt;Node3 -->
<g id="edge2" class="edge">
<title>Node2&#45;&gt;Node3</title>
<path fill="none" stroke="midnightblue" d="M166.34,-206.32C181.13,-205.33 198.05,-204.19 213.43,-203.16"/>
<polygon fill="midnightblue" stroke="midnightblue" points="214.04,-206.63 223.79,-202.47 213.57,-199.64 214.04,-206.63"/>
</g>
<!-- Node4 -->
<g id="node4" class="node">
<title>Node4</title>
<g id="a_node4"><a xlink:href="rhs_8c.html#a59a4e489633014a0f4e1e85318d395d3" target="_top" xlink:title=" ">
<polygon fill="none" stroke="black" points="226,-266.5 226,-285.5 297,-285.5 297,-266.5 226,-266.5"/>
<text text-anchor="middle" x="261.5" y="-273.5" font-family="Helvetica,sans-Serif" font-size="10.00">Convection</text>
</a>
</g>
</g>
<!-- Node2&#45;&gt;Node4 -->
<g id="edge3" class="edge">
<title>Node2&#45;&gt;Node4</title>
<path fill="none" stroke="midnightblue" d="M139.28,-218.55C153.85,-229.09 178.67,-246.01 202,-257 206.65,-259.19 211.62,-261.23 216.63,-263.1"/>
<polygon fill="midnightblue" stroke="midnightblue" points="215.62,-266.45 226.22,-266.47 217.95,-259.85 215.62,-266.45"/>
</g>
<!-- Node5 -->
<g id="node5" class="node">
<title>Node5</title>
<g id="a_node5"><a xlink:href="rhs_8c.html#a3e0cf2a027c25bb1f6510d4a7e5d4870" target="_top" xlink:title=" ">
<polygon fill="none" stroke="black" points="234.5,-228.5 234.5,-247.5 288.5,-247.5 288.5,-228.5 234.5,-228.5"/>
<text text-anchor="middle" x="261.5" y="-235.5" font-family="Helvetica,sans-Serif" font-size="10.00">Viscous</text>
</a>
</g>
</g>
<!-- Node2&#45;&gt;Node5 -->
<g id="edge4" class="edge">
<title>Node2&#45;&gt;Node5</title>
<path fill="none" stroke="midnightblue" d="M166.34,-217.62C184.74,-221.6 206.43,-226.3 224.36,-230.18"/>
<polygon fill="midnightblue" stroke="midnightblue" points="223.63,-233.6 234.15,-232.3 225.11,-226.76 223.63,-233.6"/>
</g>
<!-- Node6 -->
<g id="node6" class="node">
<title>Node6</title>
<g id="a_node6"><a xlink:href="rhs_8c.html#a619998e3b8a88fe90548745b983ade78" target="_top" xlink:title=" ">
<polygon fill="none" stroke="black" points="358.5,-247.5 358.5,-266.5 456.5,-266.5 456.5,-247.5 358.5,-247.5"/>
<text text-anchor="middle" x="407.5" y="-254.5" font-family="Helvetica,sans-Serif" font-size="10.00">Calculatedxdydz</text>
</a>
</g>
</g>
<!-- Node5&#45;&gt;Node6 -->
<g id="edge5" class="edge">
<title>Node5&#45;&gt;Node6</title>
<path fill="none" stroke="midnightblue" d="M288.58,-241.44C305.29,-243.65 327.68,-246.6 348.45,-249.34"/>
<polygon fill="midnightblue" stroke="midnightblue" points="348.12,-252.83 358.49,-250.67 349.03,-245.89 348.12,-252.83"/>
</g>
<!-- Node9 -->
<g id="node9" class="node">
<title>Node9</title>
<g id="a_node9"><a xlink:href="wallfunction_8h.html#adc08703381597f75ccb620bf30d90ae1" target="_top" xlink:title=" ">
<polygon fill="none" stroke="black" points="388.5,-209.5 388.5,-228.5 426.5,-228.5 426.5,-209.5 388.5,-209.5"/>
<text text-anchor="middle" x="407.5" y="-216.5" font-family="Helvetica,sans-Serif" font-size="10.00">nu_t</text>
</a>
</g>
</g>
<!-- Node5&#45;&gt;Node9 -->
<g id="edge8" class="edge">
<title>Node5&#45;&gt;Node9</title>
<path fill="none" stroke="midnightblue" d="M288.58,-234.56C313.94,-231.21 352.34,-226.15 378.37,-222.71"/>
<polygon fill="midnightblue" stroke="midnightblue" points="378.91,-226.17 388.36,-221.39 377.99,-219.23 378.91,-226.17"/>
</g>
<!-- Node7 -->
<g id="node7" class="node">
<title>Node7</title>
<g id="a_node7"><a xlink:href="rhs_8c.html#aecbb71daf364f9c5810052e4b9ad1840" target="_top" xlink:title=" ">
<polygon fill="none" stroke="black" points="494,-247.5 494,-266.5 634,-266.5 634,-247.5 494,-247.5"/>
<text text-anchor="middle" x="564" y="-254.5" font-family="Helvetica,sans-Serif" font-size="10.00">CalculateNormalAndArea</text>
</a>
</g>
</g>
<!-- Node6&#45;&gt;Node7 -->
<g id="edge6" class="edge">
<title>Node6&#45;&gt;Node7</title>
<path fill="none" stroke="midnightblue" d="M456.54,-257C465.19,-257 474.42,-257 483.68,-257"/>
<polygon fill="midnightblue" stroke="midnightblue" points="483.72,-260.5 493.72,-257 483.72,-253.5 483.72,-260.5"/>
</g>
<!-- Node8 -->
<g id="node8" class="node">
<title>Node8</title>
<g id="a_node8"><a xlink:href="rhs_8c.html#aa8f3b644af5c8201570f3fa7d5ae350a" target="_top" xlink:title=" ">
<polygon fill="none" stroke="black" points="670,-247.5 670,-266.5 816,-266.5 816,-247.5 670,-247.5"/>
<text text-anchor="middle" x="743" y="-254.5" font-family="Helvetica,sans-Serif" font-size="10.00">CalculateCovariantMetrics</text>
</a>
</g>
</g>
<!-- Node7&#45;&gt;Node8 -->
<g id="edge7" class="edge">
<title>Node7&#45;&gt;Node8</title>
<path fill="none" stroke="midnightblue" d="M634.19,-257C642.63,-257 651.3,-257 659.9,-257"/>
<polygon fill="midnightblue" stroke="midnightblue" points="659.94,-260.5 669.94,-257 659.94,-253.5 659.94,-260.5"/>
</g>
<!-- Node10&#45;&gt;Node3 -->
<g id="edge10" class="edge">
<title>Node10&#45;&gt;Node3</title>
<path fill="none" stroke="midnightblue" d="M150.52,-161.6C165.3,-167.41 184.66,-174.86 202,-181 207.95,-183.11 214.26,-185.25 220.46,-187.31"/>
<polygon fill="midnightblue" stroke="midnightblue" points="219.44,-190.66 230.03,-190.44 221.62,-184 219.44,-190.66"/>
</g>
<!-- Node11 -->
<g id="node11" class="node">
<title>Node11</title>
<g id="a_node11"><a xlink:href="wallfunction_8h.html#a82a96fd4f826d93b926bea9bb776b93e" target="_top" xlink:title=" ">
<polygon fill="none" stroke="black" points="238.5,-152.5 238.5,-171.5 284.5,-171.5 284.5,-152.5 238.5,-152.5"/>
<text text-anchor="middle" x="261.5" y="-159.5" font-family="Helvetica,sans-Serif" font-size="10.00">noslip</text>
</a>
</g>
</g>
<!-- Node10&#45;&gt;Node11 -->
<g id="edge11" class="edge">
<title>Node10&#45;&gt;Node11</title>
<path fill="none" stroke="midnightblue" d="M156.24,-154.22C177.58,-155.81 206.3,-157.96 228.2,-159.59"/>
<polygon fill="midnightblue" stroke="midnightblue" points="228.11,-163.09 238.34,-160.35 228.63,-156.11 228.11,-163.09"/>
</g>
<!-- Node12 -->
<g id="node12" class="node">
<title>Node12</title>
<g id="a_node12"><a xlink:href="wallfunction_8h.html#aae67d9282b09691fffdea6f1012e6df7" target="_top" xlink:title=" ">
<polygon fill="none" stroke="black" points="202,-114.5 202,-133.5 321,-133.5 321,-114.5 202,-114.5"/>
<text text-anchor="middle" x="261.5" y="-121.5" font-family="Helvetica,sans-Serif" font-size="10.00">wall_function_loglaw</text>
</a>
</g>
</g>
<!-- Node10&#45;&gt;Node12 -->
<g id="edge12" class="edge">
<title>Node10&#45;&gt;Node12</title>
<path fill="none" stroke="midnightblue" d="M156.24,-145.79C170.48,-142.81 188.01,-139.15 204.61,-135.68"/>
<polygon fill="midnightblue" stroke="midnightblue" points="205.71,-139.02 214.78,-133.55 204.28,-132.17 205.71,-139.02"/>
</g>
<!-- Node13 -->
<g id="node13" class="node">
<title>Node13</title>
<g id="a_node13"><a xlink:href="wallfunction_8c.html#aa22aca64a54a00ccaf354357cc1c0760" target="_top" xlink:title=" ">
<polygon fill="none" stroke="black" points="357,-133.5 357,-152.5 458,-152.5 458,-133.5 357,-133.5"/>
<text text-anchor="middle" x="407.5" y="-140.5" font-family="Helvetica,sans-Serif" font-size="10.00">find_utau_hydset</text>
</a>
</g>
</g>
<!-- Node12&#45;&gt;Node13 -->
<g id="edge13" class="edge">
<title>Node12&#45;&gt;Node13</title>
<path fill="none" stroke="midnightblue" d="M321.07,-131.73C329.48,-132.84 338.15,-133.98 346.59,-135.1"/>
<polygon fill="midnightblue" stroke="midnightblue" points="346.37,-138.6 356.74,-136.43 347.29,-131.66 346.37,-138.6"/>
</g>
<!-- Node17 -->
<g id="node17" class="node">
<title>Node17</title>
<g id="a_node17"><a xlink:href="wallfunction_8c.html#a071e294d71e268c014aa6047acb64730" target="_top" xlink:title=" ">
<polygon fill="none" stroke="black" points="506,-95.5 506,-114.5 622,-114.5 622,-95.5 506,-95.5"/>
<text text-anchor="middle" x="564" y="-102.5" font-family="Helvetica,sans-Serif" font-size="10.00">u_hydset_roughness</text>
</a>
</g>
</g>
<!-- Node12&#45;&gt;Node17 -->
<g id="edge18" class="edge">
<title>Node12&#45;&gt;Node17</title>
<path fill="none" stroke="midnightblue" d="M321.15,-120.29C371.19,-117.13 443.15,-112.58 495.56,-109.26"/>
<polygon fill="midnightblue" stroke="midnightblue" points="496.01,-112.74 505.77,-108.62 495.57,-105.76 496.01,-112.74"/>
</g>
<!-- Node14 -->
<g id="node14" class="node">
<title>Node14</title>
<g id="a_node14"><a xlink:href="wallfunction_8c.html#a39f08431792fc8f96ea8659756dfd749" target="_top" xlink:title=" ">
<polygon fill="none" stroke="black" points="531.5,-171.5 531.5,-190.5 596.5,-190.5 596.5,-171.5 531.5,-171.5"/>
<text text-anchor="middle" x="564" y="-178.5" font-family="Helvetica,sans-Serif" font-size="10.00">df_hydset</text>
</a>
</g>
</g>
<!-- Node13&#45;&gt;Node14 -->
<g id="edge14" class="edge">
<title>Node13&#45;&gt;Node14</title>
<path fill="none" stroke="midnightblue" d="M447.49,-152.59C470.07,-158.14 498.49,-165.13 521.49,-170.79"/>
<polygon fill="midnightblue" stroke="midnightblue" points="520.76,-174.21 531.3,-173.2 522.43,-167.42 520.76,-174.21"/>
</g>
<!-- Node15 -->
<g id="node15" class="node">
<title>Node15</title>
<g id="a_node15"><a xlink:href="wallfunction_8c.html#ac7ee38b34b5a56a4e5c01a02c290229b" target="_top" xlink:title=" ">
<polygon fill="none" stroke="black" points="713.5,-133.5 713.5,-152.5 772.5,-152.5 772.5,-133.5 713.5,-133.5"/>
<text text-anchor="middle" x="743" y="-140.5" font-family="Helvetica,sans-Serif" font-size="10.00">f_hydset</text>
</a>
</g>
</g>
<!-- Node13&#45;&gt;Node15 -->
<g id="edge17" class="edge">
<title>Node13&#45;&gt;Node15</title>
<path fill="none" stroke="midnightblue" d="M458.07,-143C524.83,-143 642.25,-143 703.06,-143"/>
<polygon fill="midnightblue" stroke="midnightblue" points="703.37,-146.5 713.37,-143 703.37,-139.5 703.37,-146.5"/>
</g>
<!-- Node14&#45;&gt;Node15 -->
<g id="edge15" class="edge">
<title>Node14&#45;&gt;Node15</title>
<path fill="none" stroke="midnightblue" d="M596.64,-174.21C626.52,-167.79 671.4,-158.16 703.37,-151.29"/>
<polygon fill="midnightblue" stroke="midnightblue" points="704.22,-154.69 713.27,-149.17 702.75,-147.85 704.22,-154.69"/>
</g>
<!-- Node16 -->
<g id="node16" class="node">
<title>Node16</title>
<g id="a_node16"><a xlink:href="wallfunction_8c.html#a5a5ea51c16915866975995631c0d2923" target="_top" xlink:title=" ">
<polygon fill="none" stroke="black" points="852,-114.5 852,-133.5 905,-133.5 905,-114.5 852,-114.5"/>
<text text-anchor="middle" x="878.5" y="-121.5" font-family="Helvetica,sans-Serif" font-size="10.00">E_coeff</text>
</a>
</g>
</g>
<!-- Node15&#45;&gt;Node16 -->
<g id="edge16" class="edge">
<title>Node15&#45;&gt;Node16</title>
<path fill="none" stroke="midnightblue" d="M772.64,-138.92C792.79,-136.06 819.9,-132.2 841.51,-129.12"/>
<polygon fill="midnightblue" stroke="midnightblue" points="842.21,-132.56 851.62,-127.68 841.23,-125.63 842.21,-132.56"/>
</g>
<!-- Node17&#45;&gt;Node16 -->
<g id="edge19" class="edge">
<title>Node17&#45;&gt;Node16</title>
<path fill="none" stroke="midnightblue" d="M622.32,-108.48C686.41,-112.38 788.23,-118.57 841.83,-121.83"/>
<polygon fill="midnightblue" stroke="midnightblue" points="841.68,-125.33 851.88,-122.44 842.11,-118.34 841.68,-125.33"/>
</g>
<!-- Node19 -->
<g id="node19" class="node">
<title>Node19</title>
<g id="a_node19"><a xlink:href="logging_8h.html#a9b417fe56a110c0f6a3e64860e3e5cdb" target="_top" xlink:title="Helper function to convert BCFace enum to a string representation.">
<polygon fill="none" stroke="black" points="215.5,-76.5 215.5,-95.5 307.5,-95.5 307.5,-76.5 215.5,-76.5"/>
<text text-anchor="middle" x="261.5" y="-83.5" font-family="Helvetica,sans-Serif" font-size="10.00">BCFaceToString</text>
</a>
</g>
</g>
<!-- Node18&#45;&gt;Node19 -->
<g id="edge21" class="edge">
<title>Node18&#45;&gt;Node19</title>
<path fill="none" stroke="midnightblue" d="M159.62,-86C173.42,-86 189.82,-86 205.34,-86"/>
<polygon fill="midnightblue" stroke="midnightblue" points="205.37,-89.5 215.37,-86 205.37,-82.5 205.37,-89.5"/>
</g>
<!-- Node20 -->
<g id="node20" class="node">
<title>Node20</title>
<g id="a_node20"><a xlink:href="io_8h.html#a1ac7631f5ff3a878c3f5788d6880c22c" target="_top" xlink:title="Searches a BC_Param linked list for a key and returns its value as a double.">
<polygon fill="none" stroke="black" points="211,-38.5 211,-57.5 312,-57.5 312,-38.5 211,-38.5"/>
<text text-anchor="middle" x="261.5" y="-45.5" font-family="Helvetica,sans-Serif" font-size="10.00">GetBCParamReal</text>
</a>
</g>
</g>
<!-- Node18&#45;&gt;Node20 -->
<g id="edge22" class="edge">
<title>Node18&#45;&gt;Node20</title>
<path fill="none" stroke="midnightblue" d="M159.62,-76.61C176.97,-71.69 198.42,-65.6 217.08,-60.31"/>
<polygon fill="midnightblue" stroke="midnightblue" points="218.16,-63.64 226.83,-57.55 216.25,-56.91 218.16,-63.64"/>
</g>
<!-- Node21 -->
<g id="node21" class="node">
<title>Node21</title>
<g id="a_node21"><a xlink:href="wallfunction_8h.html#a61e5145bbc7aa0f76c074b4e9e91e06b" target="_top" xlink:title=" ">
<polygon fill="none" stroke="black" points="243,-0.5 243,-19.5 280,-19.5 280,-0.5 243,-0.5"/>
<text text-anchor="middle" x="261.5" y="-7.5" font-family="Helvetica,sans-Serif" font-size="10.00">sign</text>
</a>
</g>
</g>
<!-- Node18&#45;&gt;Node21 -->
<g id="edge23" class="edge">
<title>Node18&#45;&gt;Node21</title>
<path fill="none" stroke="midnightblue" d="M149.87,-76.5C155.38,-73.79 161.08,-70.59 166,-67 184.79,-53.29 182.33,-41.42 202,-29 211.41,-23.06 222.86,-18.8 233.12,-15.85"/>
<polygon fill="midnightblue" stroke="midnightblue" points="234.08,-19.22 242.88,-13.31 232.32,-12.44 234.08,-19.22"/>
</g>
</g>
</svg>
        <g id="navigator" transform="translate(0 0)" fill="#404254">
                <rect fill="#f2f5e9" fill-opacity="0.5" stroke="#606060" stroke-width=".5" x="0" y="0" width="60" height="60"/>
                <use id="zoomplus" xlink:href="#zoomPlus" x="17" y="9" onmousedown="handleZoom(evt,'in')"/>
                <use id="zoomminus" xlink:href="#zoomMin" x="42" y="9" onmousedown="handleZoom(evt,'out')"/>
                <use id="reset" xlink:href="#resetDef" x="30" y="36" onmousedown="handleReset()"/>
                <g id="arrowUp" xlink:href="#dirArrow" transform="translate(30 24)" onmousedown="handlePan(0,-1)">
                  <use xlink:href="#rim" fill="#404040">
                        <set attributeName="fill" to="#808080" begin="arrowUp.mouseover" end="arrowUp.mouseout"/>
                  </use>
                  <path fill="none" stroke="white" stroke-width="1.5" d="M0,-3.0v7 M-2.5,-0.5L0,-3.0L2.5,-0.5"/>
                </g>
                <g id="arrowRight" xlink:href="#dirArrow" transform="rotate(90) translate(36 -43)" onmousedown="handlePan(1,0)">
                  <use xlink:href="#rim" fill="#404040">
                        <set attributeName="fill" to="#808080" begin="arrowRight.mouseover" end="arrowRight.mouseout"/>
                  </use>
                  <path fill="none" stroke="white" stroke-width="1.5" d="M0,-3.0v7 M-2.5,-0.5L0,-3.0L2.5,-0.5"/>
                </g>
                <g id="arrowDown" xlink:href="#dirArrow" transform="rotate(180) translate(-30 -48)" onmousedown="handlePan(0,1)">
                  <use xlink:href="#rim" fill="#404040">
                        <set attributeName="fill" to="#808080" begin="arrowDown.mouseover" end="arrowDown.mouseout"/>
                  </use>
                  <path fill="none" stroke="white" stroke-width="1.5" d="M0,-3.0v7 M-2.5,-0.5L0,-3.0L2.5,-0.5"/>
                </g>
                <g id="arrowLeft" xlink:href="#dirArrow" transform="rotate(270) translate(-36 17)" onmousedown="handlePan(-1,0)">
                  <use xlink:href="#rim" fill="#404040">
                        <set attributeName="fill" to="#808080" begin="arrowLeft.mouseover" end="arrowLeft.mouseout"/>
                  </use>
                  <path fill="none" stroke="white" stroke-width="1.5" d="M0,-3.0v7 M-2.5,-0.5L0,-3.0L2.5,-0.5"/>
                </g>
        </g>
        <svg viewBox="0 0 15 15" width="100%" height="30px" preserveAspectRatio="xMaxYMin meet">
         <g id="arrow_out" transform="scale(0.3 0.3)">
          <a xlink:href="implicitsolvers_8c_a148a238901a4674420c87137c087e3ac_cgraph_org.svg" target="_base">
           <rect id="button" ry="5" rx="5" y="6" x="6" height="38" width="38"
                fill="#f2f5e9" fill-opacity="0.5" stroke="#606060" stroke-width="1.0"/>
           <path id="arrow"
             d="M 11.500037,31.436501 C 11.940474,20.09759 22.043105,11.32322 32.158766,21.979434 L 37.068811,17.246167 C 37.068811,17.246167 37.088388,32 37.088388,32 L 22.160133,31.978069 C 22.160133,31.978069 26.997745,27.140456 26.997745,27.140456 C 18.528582,18.264221 13.291696,25.230495 11.500037,31.436501 z"
             style="fill:#404040;"/>
          </a>
         </g>
        </svg>
</svg>
