<?xml version="1.0" encoding="UTF-8" standalone="no"?>
<!DOCTYPE svg PUBLIC "-//W3C//DTD SVG 1.1//EN"
 "http://www.w3.org/Graphics/SVG/1.1/DTD/svg11.dtd">
<!-- Generated by graphviz version 2.43.0 (0)
 -->
<!-- Title: InitializeEulerianState Pages: 1 -->
<!--zoomable 441 -->
<svg id="main" version="1.1" xmlns="http://www.w3.org/2000/svg" xmlns:xlink="http://www.w3.org/1999/xlink" xml:space="preserve" onload="init(evt)">
<style type="text/css"><![CDATA[
.edge:hover path { stroke: red; }
.edge:hover polygon { stroke: red; fill: red; }
]]></style>
<script type="text/javascript"><![CDATA[
var edges = document.getElementsByTagName('g');
if (edges && edges.length) {
  for (var i=0;i<edges.length;i++) {
    if (edges[i].id.substr(0,4)=='edge') {
      edges[i].setAttribute('class','edge');
    }
  }
}
]]></script>
        <defs>
                <circle id="rim" cx="0" cy="0" r="7"/>
                <circle id="rim2" cx="0" cy="0" r="3.5"/>
                <g id="zoomPlus">
                        <use xlink:href="#rim" fill="#404040">
                                <set attributeName="fill" to="#808080" begin="zoomplus.mouseover" end="zoomplus.mouseout"/>
                        </use>
                        <path d="M-4,0h8M0,-4v8" fill="none" stroke="white" stroke-width="1.5" pointer-events="none"/>
                </g>
                <g id="zoomMin">
                        <use xlink:href="#rim" fill="#404040">
                                <set attributeName="fill" to="#808080" begin="zoomminus.mouseover" end="zoomminus.mouseout"/>
                        </use>
                        <path d="M-4,0h8" fill="none" stroke="white" stroke-width="1.5" pointer-events="none"/>
                </g>
                <g id="dirArrow">
                        <path fill="none" stroke="white" stroke-width="1.5" d="M0,-3.0v7 M-2.5,-0.5L0,-3.0L2.5,-0.5"/>
                </g>
               <g id="resetDef">
                       <use xlink:href="#rim2" fill="#404040">
                               <set attributeName="fill" to="#808080" begin="reset.mouseover" end="reset.mouseout"/>
                       </use>
               </g>
        </defs>

<script type="text/javascript">
var viewWidth = 1269;
var viewHeight = 441;
var sectionId = 'dynsection-9';
</script>
<script xlink:href="svgpan.js"/>
<svg id="graph" class="graph">
<g id="viewport">
<title>InitializeEulerianState</title>
<!-- Node1 -->
<g id="node1" class="node">
<title>Node1</title>
<g id="a_node1"><a xlink:title="High&#45;level orchestrator to set the complete initial state of the Eulerian solver.">
<polygon fill="#bfbfbf" stroke="black" points="0,-171.5 0,-190.5 124,-190.5 124,-171.5 0,-171.5"/>
<text text-anchor="middle" x="62" y="-178.5" font-family="Helvetica,sans-Serif" font-size="10.00">InitializeEulerianState</text>
</a>
</g>
</g>
<!-- Node2 -->
<g id="node2" class="node">
<title>Node2</title>
<g id="a_node2"><a xlink:href="initialcondition_8c.html#a51d0251f84a962a611ff0c0a8797a3e4" target="_top" xlink:title="(HELPER) Sets the t=0 fluid state for all blocks.">
<polygon fill="none" stroke="black" points="182.5,-166 182.5,-196 292.5,-196 292.5,-166 182.5,-166"/>
<text text-anchor="start" x="190.5" y="-184" font-family="Helvetica,sans-Serif" font-size="10.00">SetInitialFluidState</text>
<text text-anchor="middle" x="237.5" y="-173" font-family="Helvetica,sans-Serif" font-size="10.00">_FreshStart</text>
</a>
</g>
</g>
<!-- Node1&#45;&gt;Node2 -->
<g id="edge1" class="edge">
<title>Node1&#45;&gt;Node2</title>
<path fill="none" stroke="midnightblue" d="M124.17,-181C139.7,-181 156.42,-181 172.1,-181"/>
<polygon fill="midnightblue" stroke="midnightblue" points="172.23,-184.5 182.23,-181 172.23,-177.5 172.23,-184.5"/>
</g>
<!-- Node24 -->
<g id="node24" class="node">
<title>Node24</title>
<g id="a_node24"><a xlink:href="initialcondition_8c.html#a095ad9c41ee9300bcfa152c411835a91" target="_top" xlink:title="(HELPER) Reads fluid state for all blocks from restart files.">
<polygon fill="none" stroke="black" points="168.5,-266.5 168.5,-285.5 306.5,-285.5 306.5,-266.5 168.5,-266.5"/>
<text text-anchor="middle" x="237.5" y="-273.5" font-family="Helvetica,sans-Serif" font-size="10.00">SetInitialFluidState_Load</text>
</a>
</g>
</g>
<!-- Node1&#45;&gt;Node24 -->
<g id="edge27" class="edge">
<title>Node1&#45;&gt;Node24</title>
<path fill="none" stroke="midnightblue" d="M80.59,-190.63C111.2,-207.39 174.39,-241.99 210.21,-261.61"/>
<polygon fill="midnightblue" stroke="midnightblue" points="208.67,-264.75 219.12,-266.48 212.03,-258.61 208.67,-264.75"/>
</g>
<!-- Node32 -->
<g id="node32" class="node">
<title>Node32</title>
<g id="a_node32"><a xlink:href="simulation_8h.html#a78d6ef98da860e3271d6b7277a54e642" target="_top" xlink:title="Copies the current time step&#39;s solution fields into history vectors (e.g., U(t_n) &#45;&gt; U_o,...">
<polygon fill="none" stroke="black" points="160,-127.5 160,-146.5 315,-146.5 315,-127.5 160,-127.5"/>
<text text-anchor="middle" x="237.5" y="-134.5" font-family="Helvetica,sans-Serif" font-size="10.00">UpdateSolverHistoryVectors</text>
</a>
</g>
</g>
<!-- Node1&#45;&gt;Node32 -->
<g id="edge40" class="edge">
<title>Node1&#45;&gt;Node32</title>
<path fill="none" stroke="midnightblue" d="M100.65,-171.45C126.57,-164.88 161.2,-156.1 189.02,-149.04"/>
<polygon fill="midnightblue" stroke="midnightblue" points="190.09,-152.38 198.93,-146.53 188.37,-145.59 190.09,-152.38"/>
</g>
<!-- Node3 -->
<g id="node3" class="node">
<title>Node3</title>
<g id="a_node3"><a xlink:href="initialcondition_8c.html#af6a26611066aa455efddcca2fd80fe35" target="_top" xlink:title="(HELPER) Finalizes a block&#39;s state by applying BCs, converting to Cartesian, and synchronizing ghost ...">
<polygon fill="none" stroke="black" points="359,-152.5 359,-171.5 465,-171.5 465,-152.5 359,-152.5"/>
<text text-anchor="middle" x="412" y="-159.5" font-family="Helvetica,sans-Serif" font-size="10.00">FinalizeBlockState</text>
</a>
</g>
</g>
<!-- Node2&#45;&gt;Node3 -->
<g id="edge2" class="edge">
<title>Node2&#45;&gt;Node3</title>
<path fill="none" stroke="midnightblue" d="M292.61,-175.04C310.45,-173.08 330.43,-170.87 348.82,-168.85"/>
<polygon fill="midnightblue" stroke="midnightblue" points="349.3,-172.32 358.85,-167.74 348.53,-165.36 349.3,-172.32"/>
</g>
<!-- Node13 -->
<g id="node13" class="node">
<title>Node13</title>
<g id="a_node13"><a xlink:href="setup_8h.html#ad5f82951adcce74b3d37cb5880acf43a" target="_top" xlink:title="Updates the local vector (including ghost points) from its corresponding global vector.">
<polygon fill="none" stroke="black" points="515.5,-228.5 515.5,-247.5 626.5,-247.5 626.5,-228.5 515.5,-228.5"/>
<text text-anchor="middle" x="571" y="-235.5" font-family="Helvetica,sans-Serif" font-size="10.00">UpdateLocalGhosts</text>
</a>
</g>
</g>
<!-- Node2&#45;&gt;Node13 -->
<g id="edge26" class="edge">
<title>Node2&#45;&gt;Node13</title>
<path fill="none" stroke="midnightblue" d="M275.63,-196.04C297.27,-204.17 325.27,-213.62 351,-219 402.18,-229.7 461.31,-234.39 505.22,-236.44"/>
<polygon fill="midnightblue" stroke="midnightblue" points="505.33,-239.95 515.47,-236.88 505.63,-232.95 505.33,-239.95"/>
</g>
<!-- Node16 -->
<g id="node16" class="node">
<title>Node16</title>
<g id="a_node16"><a xlink:href="Boundaries_8h.html#abd9b573f8f42ea93e265da37a0673f24" target="_top" xlink:title="Applies inlet boundary conditions based on the modern BC handling system.">
<polygon fill="none" stroke="black" points="378,-57.5 378,-76.5 446,-76.5 446,-57.5 378,-57.5"/>
<text text-anchor="middle" x="412" y="-64.5" font-family="Helvetica,sans-Serif" font-size="10.00">InflowFlux</text>
</a>
</g>
</g>
<!-- Node2&#45;&gt;Node16 -->
<g id="edge18" class="edge">
<title>Node2&#45;&gt;Node16</title>
<path fill="none" stroke="midnightblue" d="M292.5,-168.23C300.47,-165 308.26,-160.98 315,-156 337.32,-139.52 330.9,-124.12 351,-105 360.4,-96.06 372.2,-88.05 382.85,-81.72"/>
<polygon fill="midnightblue" stroke="midnightblue" points="384.87,-84.6 391.82,-76.6 381.4,-78.52 384.87,-84.6"/>
</g>
<!-- Node20 -->
<g id="node20" class="node">
<title>Node20</title>
<g id="a_node20"><a xlink:href="Boundaries_8h.html#a684320111be78b3001fda2ba25638e79" target="_top" xlink:title="Calculates the total outgoing flux through all OUTLET faces for reporting.">
<polygon fill="none" stroke="black" points="374,-190.5 374,-209.5 450,-209.5 450,-190.5 374,-190.5"/>
<text text-anchor="middle" x="412" y="-197.5" font-family="Helvetica,sans-Serif" font-size="10.00">OutflowFlux</text>
</a>
</g>
</g>
<!-- Node2&#45;&gt;Node20 -->
<g id="edge22" class="edge">
<title>Node2&#45;&gt;Node20</title>
<path fill="none" stroke="midnightblue" d="M292.61,-186.96C315.38,-189.47 341.64,-192.36 363.64,-194.78"/>
<polygon fill="midnightblue" stroke="midnightblue" points="363.42,-198.28 373.74,-195.9 364.18,-191.32 363.42,-198.28"/>
</g>
<!-- Node21 -->
<g id="node21" class="node">
<title>Node21</title>
<g id="a_node21"><a xlink:href="initialcondition_8c.html#a62dfa993750dc34d1729c575bb1dde66" target="_top" xlink:title="Sets the initial values for the INTERIOR of a specified Eulerian field.">
<polygon fill="none" stroke="black" points="353,-114.5 353,-133.5 471,-133.5 471,-114.5 353,-114.5"/>
<text text-anchor="middle" x="412" y="-121.5" font-family="Helvetica,sans-Serif" font-size="10.00">SetInitialInteriorField</text>
</a>
</g>
</g>
<!-- Node2&#45;&gt;Node21 -->
<g id="edge23" class="edge">
<title>Node2&#45;&gt;Node21</title>
<path fill="none" stroke="midnightblue" d="M285.51,-165.89C295.27,-162.68 305.49,-159.27 315,-156 331.09,-150.47 334.89,-148.46 351,-143 357.18,-140.91 363.74,-138.76 370.17,-136.69"/>
<polygon fill="midnightblue" stroke="midnightblue" points="371.63,-139.9 380.09,-133.53 369.5,-133.23 371.63,-139.9"/>
</g>
<!-- Node4 -->
<g id="node4" class="node">
<title>Node4</title>
<g id="a_node4"><a xlink:href="setup_8h.html#a515c9a96eb4bcac29f79e78c8882d7aa" target="_top" xlink:title="Reconstructs Cartesian velocity (Ucat) at cell centers from contravariant velocity (Ucont) defined on...">
<polygon fill="none" stroke="black" points="691,-190.5 691,-209.5 766,-209.5 766,-190.5 691,-190.5"/>
<text text-anchor="middle" x="728.5" y="-197.5" font-family="Helvetica,sans-Serif" font-size="10.00">Contra2Cart</text>
</a>
</g>
</g>
<!-- Node3&#45;&gt;Node4 -->
<g id="edge3" class="edge">
<title>Node3&#45;&gt;Node4</title>
<path fill="none" stroke="midnightblue" d="M455.84,-171.51C472.38,-174.91 491.51,-178.52 509,-181 567.81,-189.35 636.08,-194.58 680.44,-197.39"/>
<polygon fill="midnightblue" stroke="midnightblue" points="680.44,-200.9 690.63,-198.02 680.87,-193.91 680.44,-200.9"/>
</g>
<!-- Node5 -->
<g id="node5" class="node">
<title>Node5</title>
<g id="a_node5"><a xlink:href="Boundaries_8h.html#adcd96cff4b9e15e03cdff9f5ea695dec" target="_top" xlink:title=" ">
<polygon fill="none" stroke="black" points="540.5,-152.5 540.5,-171.5 601.5,-171.5 601.5,-152.5 540.5,-152.5"/>
<text text-anchor="middle" x="571" y="-159.5" font-family="Helvetica,sans-Serif" font-size="10.00">FormBCS</text>
</a>
</g>
</g>
<!-- Node3&#45;&gt;Node5 -->
<g id="edge4" class="edge">
<title>Node3&#45;&gt;Node5</title>
<path fill="none" stroke="midnightblue" d="M465.28,-162C486.45,-162 510.5,-162 530.2,-162"/>
<polygon fill="midnightblue" stroke="midnightblue" points="530.37,-165.5 540.37,-162 530.37,-158.5 530.37,-165.5"/>
</g>
<!-- Node3&#45;&gt;Node13 -->
<g id="edge15" class="edge">
<title>Node3&#45;&gt;Node13</title>
<path fill="none" stroke="midnightblue" d="M451.83,-171.56C459.11,-174.11 466.47,-177.23 473,-181 491.79,-191.87 490.59,-202.5 509,-214 515.44,-218.02 522.66,-221.58 529.82,-224.63"/>
<polygon fill="midnightblue" stroke="midnightblue" points="528.89,-228.03 539.47,-228.49 531.49,-221.53 528.89,-228.03"/>
</g>
<!-- Node5&#45;&gt;Node4 -->
<g id="edge5" class="edge">
<title>Node5&#45;&gt;Node4</title>
<path fill="none" stroke="midnightblue" d="M601.61,-169.24C624.02,-174.71 655.21,-182.34 680.95,-188.62"/>
<polygon fill="midnightblue" stroke="midnightblue" points="680.33,-192.07 690.87,-191.05 681.99,-185.27 680.33,-192.07"/>
</g>
<!-- Node6 -->
<g id="node6" class="node">
<title>Node6</title>
<g id="a_node6"><a xlink:href="wallfunction_8h.html#a82a96fd4f826d93b926bea9bb776b93e" target="_top" xlink:title=" ">
<polygon fill="none" stroke="black" points="705.5,-152.5 705.5,-171.5 751.5,-171.5 751.5,-152.5 705.5,-152.5"/>
<text text-anchor="middle" x="728.5" y="-159.5" font-family="Helvetica,sans-Serif" font-size="10.00">noslip</text>
</a>
</g>
</g>
<!-- Node5&#45;&gt;Node6 -->
<g id="edge6" class="edge">
<title>Node5&#45;&gt;Node6</title>
<path fill="none" stroke="midnightblue" d="M601.61,-162C628.22,-162 667.22,-162 694.75,-162"/>
<polygon fill="midnightblue" stroke="midnightblue" points="695.05,-165.5 705.05,-162 695.05,-158.5 695.05,-165.5"/>
</g>
<!-- Node7 -->
<g id="node7" class="node">
<title>Node7</title>
<g id="a_node7"><a xlink:href="wallfunction_8h.html#aae67d9282b09691fffdea6f1012e6df7" target="_top" xlink:title=" ">
<polygon fill="none" stroke="black" points="669,-114.5 669,-133.5 788,-133.5 788,-114.5 669,-114.5"/>
<text text-anchor="middle" x="728.5" y="-121.5" font-family="Helvetica,sans-Serif" font-size="10.00">wall_function_loglaw</text>
</a>
</g>
</g>
<!-- Node5&#45;&gt;Node7 -->
<g id="edge7" class="edge">
<title>Node5&#45;&gt;Node7</title>
<path fill="none" stroke="midnightblue" d="M601.61,-154.76C623.4,-149.44 653.49,-142.09 678.79,-135.9"/>
<polygon fill="midnightblue" stroke="midnightblue" points="679.7,-139.28 688.58,-133.51 678.04,-132.48 679.7,-139.28"/>
</g>
<!-- Node8 -->
<g id="node8" class="node">
<title>Node8</title>
<g id="a_node8"><a xlink:href="wallfunction_8c.html#aa22aca64a54a00ccaf354357cc1c0760" target="_top" xlink:title=" ">
<polygon fill="none" stroke="black" points="824,-133.5 824,-152.5 925,-152.5 925,-133.5 824,-133.5"/>
<text text-anchor="middle" x="874.5" y="-140.5" font-family="Helvetica,sans-Serif" font-size="10.00">find_utau_hydset</text>
</a>
</g>
</g>
<!-- Node7&#45;&gt;Node8 -->
<g id="edge8" class="edge">
<title>Node7&#45;&gt;Node8</title>
<path fill="none" stroke="midnightblue" d="M788.07,-131.73C796.48,-132.84 805.15,-133.98 813.59,-135.1"/>
<polygon fill="midnightblue" stroke="midnightblue" points="813.37,-138.6 823.74,-136.43 814.29,-131.66 813.37,-138.6"/>
</g>
<!-- Node12 -->
<g id="node12" class="node">
<title>Node12</title>
<g id="a_node12"><a xlink:href="wallfunction_8c.html#a071e294d71e268c014aa6047acb64730" target="_top" xlink:title=" ">
<polygon fill="none" stroke="black" points="961,-95.5 961,-114.5 1077,-114.5 1077,-95.5 961,-95.5"/>
<text text-anchor="middle" x="1019" y="-102.5" font-family="Helvetica,sans-Serif" font-size="10.00">u_hydset_roughness</text>
</a>
</g>
</g>
<!-- Node7&#45;&gt;Node12 -->
<g id="edge13" class="edge">
<title>Node7&#45;&gt;Node12</title>
<path fill="none" stroke="midnightblue" d="M788.23,-120.13C835.3,-117.03 901.37,-112.68 950.59,-109.44"/>
<polygon fill="midnightblue" stroke="midnightblue" points="951.08,-112.91 960.83,-108.77 950.62,-105.93 951.08,-112.91"/>
</g>
<!-- Node9 -->
<g id="node9" class="node">
<title>Node9</title>
<g id="a_node9"><a xlink:href="wallfunction_8c.html#a39f08431792fc8f96ea8659756dfd749" target="_top" xlink:title=" ">
<polygon fill="none" stroke="black" points="986.5,-133.5 986.5,-152.5 1051.5,-152.5 1051.5,-133.5 986.5,-133.5"/>
<text text-anchor="middle" x="1019" y="-140.5" font-family="Helvetica,sans-Serif" font-size="10.00">df_hydset</text>
</a>
</g>
</g>
<!-- Node8&#45;&gt;Node9 -->
<g id="edge9" class="edge">
<title>Node8&#45;&gt;Node9</title>
<path fill="none" stroke="midnightblue" d="M925.34,-143C941.93,-143 960.23,-143 976.15,-143"/>
<polygon fill="midnightblue" stroke="midnightblue" points="976.23,-146.5 986.23,-143 976.23,-139.5 976.23,-146.5"/>
</g>
<!-- Node10 -->
<g id="node10" class="node">
<title>Node10</title>
<g id="a_node10"><a xlink:href="wallfunction_8c.html#ac7ee38b34b5a56a4e5c01a02c290229b" target="_top" xlink:title=" ">
<polygon fill="none" stroke="black" points="1113,-133.5 1113,-152.5 1172,-152.5 1172,-133.5 1113,-133.5"/>
<text text-anchor="middle" x="1142.5" y="-140.5" font-family="Helvetica,sans-Serif" font-size="10.00">f_hydset</text>
</a>
</g>
</g>
<!-- Node8&#45;&gt;Node10 -->
<g id="edge12" class="edge">
<title>Node8&#45;&gt;Node10</title>
<path fill="none" stroke="midnightblue" d="M910.15,-152.51C925.59,-156.27 944.07,-160.14 961,-162 1012.25,-167.63 1025.97,-169.36 1077,-162 1086.5,-160.63 1096.56,-158.18 1105.83,-155.48"/>
<polygon fill="midnightblue" stroke="midnightblue" points="1106.99,-158.79 1115.52,-152.5 1104.93,-152.1 1106.99,-158.79"/>
</g>
<!-- Node9&#45;&gt;Node10 -->
<g id="edge10" class="edge">
<title>Node9&#45;&gt;Node10</title>
<path fill="none" stroke="midnightblue" d="M1051.61,-143C1067.18,-143 1086.1,-143 1102.56,-143"/>
<polygon fill="midnightblue" stroke="midnightblue" points="1102.96,-146.5 1112.96,-143 1102.96,-139.5 1102.96,-146.5"/>
</g>
<!-- Node11 -->
<g id="node11" class="node">
<title>Node11</title>
<g id="a_node11"><a xlink:href="wallfunction_8c.html#a5a5ea51c16915866975995631c0d2923" target="_top" xlink:title=" ">
<polygon fill="none" stroke="black" points="1208,-114.5 1208,-133.5 1261,-133.5 1261,-114.5 1208,-114.5"/>
<text text-anchor="middle" x="1234.5" y="-121.5" font-family="Helvetica,sans-Serif" font-size="10.00">E_coeff</text>
</a>
</g>
</g>
<!-- Node10&#45;&gt;Node11 -->
<g id="edge11" class="edge">
<title>Node10&#45;&gt;Node11</title>
<path fill="none" stroke="midnightblue" d="M1172.47,-136.88C1180.58,-135.17 1189.49,-133.29 1197.94,-131.51"/>
<polygon fill="midnightblue" stroke="midnightblue" points="1198.86,-134.89 1207.92,-129.4 1197.41,-128.04 1198.86,-134.89"/>
</g>
<!-- Node12&#45;&gt;Node11 -->
<g id="edge14" class="edge">
<title>Node12&#45;&gt;Node11</title>
<path fill="none" stroke="midnightblue" d="M1077.21,-110.09C1115.55,-113.5 1164.85,-117.89 1197.72,-120.82"/>
<polygon fill="midnightblue" stroke="midnightblue" points="1197.52,-124.31 1207.79,-121.71 1198.14,-117.34 1197.52,-124.31"/>
</g>
<!-- Node14 -->
<g id="node14" class="node">
<title>Node14</title>
<g id="a_node14"><a xlink:href="logging_8h.html#a9585f583c260f40a73f2490914edc689" target="_top" xlink:title="Retrieves the current logging level from the environment variable LOG_LEVEL.">
<polygon fill="none" stroke="black" points="687.5,-266.5 687.5,-285.5 769.5,-285.5 769.5,-266.5 687.5,-266.5"/>
<text text-anchor="middle" x="728.5" y="-273.5" font-family="Helvetica,sans-Serif" font-size="10.00">get_log_level</text>
</a>
</g>
</g>
<!-- Node13&#45;&gt;Node14 -->
<g id="edge16" class="edge">
<title>Node13&#45;&gt;Node14</title>
<path fill="none" stroke="midnightblue" d="M611.24,-247.59C631.76,-252.6 657.07,-258.79 678.83,-264.11"/>
<polygon fill="midnightblue" stroke="midnightblue" points="678,-267.51 688.54,-266.48 679.66,-260.71 678,-267.51"/>
</g>
<!-- Node15 -->
<g id="node15" class="node">
<title>Node15</title>
<g id="a_node15"><a xlink:href="logging_8h.html#a2358badbcda33fc9d80ebd6a59d2a2cd" target="_top" xlink:title="Checks if a given function is in the allow&#45;list.">
<polygon fill="none" stroke="black" points="672,-228.5 672,-247.5 785,-247.5 785,-228.5 672,-228.5"/>
<text text-anchor="middle" x="728.5" y="-235.5" font-family="Helvetica,sans-Serif" font-size="10.00">is_function_allowed</text>
</a>
</g>
</g>
<!-- Node13&#45;&gt;Node15 -->
<g id="edge17" class="edge">
<title>Node13&#45;&gt;Node15</title>
<path fill="none" stroke="midnightblue" d="M626.82,-238C638.12,-238 650.12,-238 661.76,-238"/>
<polygon fill="midnightblue" stroke="midnightblue" points="661.86,-241.5 671.86,-238 661.86,-234.5 661.86,-241.5"/>
</g>
<!-- Node17 -->
<g id="node17" class="node">
<title>Node17</title>
<g id="a_node17"><a xlink:href="logging_8h.html#a9b417fe56a110c0f6a3e64860e3e5cdb" target="_top" xlink:title="Helper function to convert BCFace enum to a string representation.">
<polygon fill="none" stroke="black" points="525,-0.5 525,-19.5 617,-19.5 617,-0.5 525,-0.5"/>
<text text-anchor="middle" x="571" y="-7.5" font-family="Helvetica,sans-Serif" font-size="10.00">BCFaceToString</text>
</a>
</g>
</g>
<!-- Node16&#45;&gt;Node17 -->
<g id="edge19" class="edge">
<title>Node16&#45;&gt;Node17</title>
<path fill="none" stroke="midnightblue" d="M435.71,-57.45C455.05,-49.46 483.65,-37.95 509,-29 515.11,-26.84 521.61,-24.68 527.99,-22.63"/>
<polygon fill="midnightblue" stroke="midnightblue" points="529.39,-25.86 537.88,-19.51 527.29,-19.18 529.39,-25.86"/>
</g>
<!-- Node18 -->
<g id="node18" class="node">
<title>Node18</title>
<g id="a_node18"><a xlink:href="io_8h.html#a1ac7631f5ff3a878c3f5788d6880c22c" target="_top" xlink:title="Searches a BC_Param linked list for a key and returns its value as a double.">
<polygon fill="none" stroke="black" points="520.5,-76.5 520.5,-95.5 621.5,-95.5 621.5,-76.5 520.5,-76.5"/>
<text text-anchor="middle" x="571" y="-83.5" font-family="Helvetica,sans-Serif" font-size="10.00">GetBCParamReal</text>
</a>
</g>
</g>
<!-- Node16&#45;&gt;Node18 -->
<g id="edge20" class="edge">
<title>Node16&#45;&gt;Node18</title>
<path fill="none" stroke="midnightblue" d="M446.3,-71.03C464.87,-73.28 488.56,-76.14 510.23,-78.77"/>
<polygon fill="midnightblue" stroke="midnightblue" points="510,-82.26 520.34,-79.99 510.84,-75.31 510,-82.26"/>
</g>
<!-- Node19 -->
<g id="node19" class="node">
<title>Node19</title>
<g id="a_node19"><a xlink:href="wallfunction_8h.html#a61e5145bbc7aa0f76c074b4e9e91e06b" target="_top" xlink:title=" ">
<polygon fill="none" stroke="black" points="552.5,-38.5 552.5,-57.5 589.5,-57.5 589.5,-38.5 552.5,-38.5"/>
<text text-anchor="middle" x="571" y="-45.5" font-family="Helvetica,sans-Serif" font-size="10.00">sign</text>
</a>
</g>
</g>
<!-- Node16&#45;&gt;Node19 -->
<g id="edge21" class="edge">
<title>Node16&#45;&gt;Node19</title>
<path fill="none" stroke="midnightblue" d="M446.3,-62.97C474.78,-59.52 515.3,-54.62 542.1,-51.38"/>
<polygon fill="midnightblue" stroke="midnightblue" points="542.83,-54.81 552.33,-50.14 541.99,-47.86 542.83,-54.81"/>
</g>
<!-- Node22 -->
<g id="node22" class="node">
<title>Node22</title>
<g id="a_node22"><a xlink:href="setup_8h.html#a25ce912d8aafa319a8c915cd350c7322" target="_top" xlink:title="Gets the global cell range for a rank, including boundary cells.">
<polygon fill="none" stroke="black" points="509,-114.5 509,-133.5 633,-133.5 633,-114.5 509,-114.5"/>
<text text-anchor="middle" x="571" y="-121.5" font-family="Helvetica,sans-Serif" font-size="10.00">GetGhostedCellRange</text>
</a>
</g>
</g>
<!-- Node21&#45;&gt;Node22 -->
<g id="edge24" class="edge">
<title>Node21&#45;&gt;Node22</title>
<path fill="none" stroke="midnightblue" d="M471.01,-124C480.06,-124 489.49,-124 498.79,-124"/>
<polygon fill="midnightblue" stroke="midnightblue" points="498.8,-127.5 508.8,-124 498.8,-120.5 498.8,-127.5"/>
</g>
<!-- Node23 -->
<g id="node23" class="node">
<title>Node23</title>
<g id="a_node23"><a xlink:href="setup_8c.html#a135027905841ed83f1a3ef2279d865cc" target="_top" xlink:title="Gets the global starting index of cells owned by this rank and the number of such cells.">
<polygon fill="none" stroke="black" points="670,-76.5 670,-95.5 787,-95.5 787,-76.5 670,-76.5"/>
<text text-anchor="middle" x="728.5" y="-83.5" font-family="Helvetica,sans-Serif" font-size="10.00">GetOwnedCellRange</text>
</a>
</g>
</g>
<!-- Node22&#45;&gt;Node23 -->
<g id="edge25" class="edge">
<title>Node22&#45;&gt;Node23</title>
<path fill="none" stroke="midnightblue" d="M611.24,-114.41C631.76,-109.4 657.07,-103.21 678.83,-97.89"/>
<polygon fill="midnightblue" stroke="midnightblue" points="679.66,-101.29 688.54,-95.52 678,-94.49 679.66,-101.29"/>
</g>
<!-- Node24&#45;&gt;Node13 -->
<g id="edge39" class="edge">
<title>Node24&#45;&gt;Node13</title>
<path fill="none" stroke="midnightblue" d="M306.57,-269.78C353.42,-265.32 417.05,-258.9 473,-252 483.43,-250.71 494.47,-249.23 505.23,-247.73"/>
<polygon fill="midnightblue" stroke="midnightblue" points="506.01,-251.15 515.42,-246.28 505.03,-244.22 506.01,-251.15"/>
</g>
<!-- Node25 -->
<g id="node25" class="node">
<title>Node25</title>
<g id="a_node25"><a xlink:href="io_8h.html#a3a009dabc71ccfa59f196e1bc045de45" target="_top" xlink:title="Reads binary field data for velocity, pressure, and other required vectors.">
<polygon fill="none" stroke="black" points="351,-323.5 351,-342.5 473,-342.5 473,-323.5 351,-323.5"/>
<text text-anchor="middle" x="412" y="-330.5" font-family="Helvetica,sans-Serif" font-size="10.00">ReadSimulationFields</text>
</a>
</g>
</g>
<!-- Node24&#45;&gt;Node25 -->
<g id="edge28" class="edge">
<title>Node24&#45;&gt;Node25</title>
<path fill="none" stroke="midnightblue" d="M267.37,-285.54C296.11,-295.03 340.39,-309.67 372.18,-320.17"/>
<polygon fill="midnightblue" stroke="midnightblue" points="371.44,-323.61 382.03,-323.43 373.64,-316.97 371.44,-323.61"/>
</g>
<!-- Node26 -->
<g id="node26" class="node">
<title>Node26</title>
<g id="a_node26"><a xlink:href="io_8c.html#a570806d7e0694b5d996e0c6018b48908" target="_top" xlink:title="Reads data for a specific field from a file into the provided vector.">
<polygon fill="none" stroke="black" points="831,-399.5 831,-418.5 918,-418.5 918,-399.5 831,-399.5"/>
<text text-anchor="middle" x="874.5" y="-406.5" font-family="Helvetica,sans-Serif" font-size="10.00">ReadFieldData</text>
</a>
</g>
</g>
<!-- Node25&#45;&gt;Node26 -->
<g id="edge29" class="edge">
<title>Node25&#45;&gt;Node26</title>
<path fill="none" stroke="midnightblue" d="M421.01,-342.63C436.09,-359.92 470.65,-395.66 509,-409 614.53,-445.72 747.88,-431.78 820.48,-419.6"/>
<polygon fill="midnightblue" stroke="midnightblue" points="821.48,-422.98 830.74,-417.83 820.29,-416.09 821.48,-422.98"/>
</g>
<!-- Node27 -->
<g id="node27" class="node">
<title>Node27</title>
<g id="a_node27"><a xlink:href="io_8c.html#a45ad89f26c78131d2990f09126abba4b" target="_top" xlink:title="Reads LES&#45;related fields.">
<polygon fill="none" stroke="black" points="528,-266.5 528,-285.5 614,-285.5 614,-266.5 528,-266.5"/>
<text text-anchor="middle" x="571" y="-273.5" font-family="Helvetica,sans-Serif" font-size="10.00">ReadLESFields</text>
</a>
</g>
</g>
<!-- Node25&#45;&gt;Node27 -->
<g id="edge30" class="edge">
<title>Node25&#45;&gt;Node27</title>
<path fill="none" stroke="midnightblue" d="M439.28,-323.46C465.2,-314.05 505.03,-299.59 533.92,-289.1"/>
<polygon fill="midnightblue" stroke="midnightblue" points="535.43,-292.27 543.64,-285.57 533.04,-285.69 535.43,-292.27"/>
</g>
<!-- Node28 -->
<g id="node28" class="node">
<title>Node28</title>
<g id="a_node28"><a xlink:href="io_8c.html#ac414e8adc74c5fb5e149b42c95baf495" target="_top" xlink:title="Checks for and reads an optional Eulerian field from a file into a Vec.">
<polygon fill="none" stroke="black" points="676,-342.5 676,-361.5 781,-361.5 781,-342.5 676,-342.5"/>
<text text-anchor="middle" x="728.5" y="-349.5" font-family="Helvetica,sans-Serif" font-size="10.00">ReadOptionalField</text>
</a>
</g>
</g>
<!-- Node25&#45;&gt;Node28 -->
<g id="edge34" class="edge">
<title>Node25&#45;&gt;Node28</title>
<path fill="none" stroke="midnightblue" d="M473.39,-329.79C517.68,-328.21 579.22,-327.65 633,-333 648.15,-334.51 664.47,-337.35 679.22,-340.38"/>
<polygon fill="midnightblue" stroke="midnightblue" points="678.63,-343.83 689.14,-342.49 680.09,-336.98 678.63,-343.83"/>
</g>
<!-- Node30 -->
<g id="node30" class="node">
<title>Node30</title>
<g id="a_node30"><a xlink:href="io_8c.html#a19e2e0b57afae458bae068610141c031" target="_top" xlink:title="Reads RANS&#45;related fields.">
<polygon fill="none" stroke="black" points="523,-380.5 523,-399.5 619,-399.5 619,-380.5 523,-380.5"/>
<text text-anchor="middle" x="571" y="-387.5" font-family="Helvetica,sans-Serif" font-size="10.00">ReadRANSFields</text>
</a>
</g>
</g>
<!-- Node25&#45;&gt;Node30 -->
<g id="edge35" class="edge">
<title>Node25&#45;&gt;Node30</title>
<path fill="none" stroke="midnightblue" d="M435.71,-342.55C455.05,-350.54 483.65,-362.05 509,-371 515.11,-373.16 521.61,-375.32 527.99,-377.37"/>
<polygon fill="midnightblue" stroke="midnightblue" points="527.29,-380.82 537.88,-380.49 529.39,-374.14 527.29,-380.82"/>
</g>
<!-- Node31 -->
<g id="node31" class="node">
<title>Node31</title>
<g id="a_node31"><a xlink:href="io_8c.html#a03f5b76975eea55434d764a23fd42623" target="_top" xlink:title="Reads statistical fields for averaging purposes.">
<polygon fill="none" stroke="black" points="512,-342.5 512,-361.5 630,-361.5 630,-342.5 512,-342.5"/>
<text text-anchor="middle" x="571" y="-349.5" font-family="Helvetica,sans-Serif" font-size="10.00">ReadStatisticalFields</text>
</a>
</g>
</g>
<!-- Node25&#45;&gt;Node31 -->
<g id="edge37" class="edge">
<title>Node25&#45;&gt;Node31</title>
<path fill="none" stroke="midnightblue" d="M473.25,-340.29C482.59,-341.42 492.29,-342.6 501.78,-343.74"/>
<polygon fill="midnightblue" stroke="midnightblue" points="501.63,-347.25 511.98,-344.98 502.47,-340.3 501.63,-347.25"/>
</g>
<!-- Node27&#45;&gt;Node28 -->
<g id="edge31" class="edge">
<title>Node27&#45;&gt;Node28</title>
<path fill="none" stroke="midnightblue" d="M598.43,-285.55C609.28,-289.69 621.87,-294.78 633,-300 657.22,-311.37 683.83,-326.24 702.63,-337.17"/>
<polygon fill="midnightblue" stroke="midnightblue" points="701.04,-340.3 711.44,-342.33 704.58,-334.26 701.04,-340.3"/>
</g>
<!-- Node28&#45;&gt;Node26 -->
<g id="edge33" class="edge">
<title>Node28&#45;&gt;Node26</title>
<path fill="none" stroke="midnightblue" d="M753.6,-361.54C777.17,-370.87 813.28,-385.16 839.71,-395.62"/>
<polygon fill="midnightblue" stroke="midnightblue" points="838.73,-399 849.32,-399.43 841.31,-392.49 838.73,-399"/>
</g>
<!-- Node29 -->
<g id="node29" class="node">
<title>Node29</title>
<g id="a_node29"><a xlink:href="io_8c.html#ab7d7097c8ad047feb1d460e4694b8b4f" target="_top" xlink:title="Checks for a data file&#39;s existence in a parallel&#45;safe manner.">
<polygon fill="none" stroke="black" points="831.5,-342.5 831.5,-361.5 917.5,-361.5 917.5,-342.5 831.5,-342.5"/>
<text text-anchor="middle" x="874.5" y="-349.5" font-family="Helvetica,sans-Serif" font-size="10.00">CheckDataFile</text>
</a>
</g>
</g>
<!-- Node28&#45;&gt;Node29 -->
<g id="edge32" class="edge">
<title>Node28&#45;&gt;Node29</title>
<path fill="none" stroke="midnightblue" d="M781.08,-352C794.07,-352 808.03,-352 821.06,-352"/>
<polygon fill="midnightblue" stroke="midnightblue" points="821.28,-355.5 831.28,-352 821.28,-348.5 821.28,-355.5"/>
</g>
<!-- Node30&#45;&gt;Node28 -->
<g id="edge36" class="edge">
<title>Node30&#45;&gt;Node28</title>
<path fill="none" stroke="midnightblue" d="M611.24,-380.41C631.76,-375.4 657.07,-369.21 678.83,-363.89"/>
<polygon fill="midnightblue" stroke="midnightblue" points="679.66,-367.29 688.54,-361.52 678,-360.49 679.66,-367.29"/>
</g>
<!-- Node31&#45;&gt;Node28 -->
<g id="edge38" class="edge">
<title>Node31&#45;&gt;Node28</title>
<path fill="none" stroke="midnightblue" d="M630.34,-352C641.94,-352 654.16,-352 665.86,-352"/>
<polygon fill="midnightblue" stroke="midnightblue" points="665.99,-355.5 675.99,-352 665.99,-348.5 665.99,-355.5"/>
</g>
</g>
</svg>
        <g id="navigator" transform="translate(0 0)" fill="#404254">
                <rect fill="#f2f5e9" fill-opacity="0.5" stroke="#606060" stroke-width=".5" x="0" y="0" width="60" height="60"/>
                <use id="zoomplus" xlink:href="#zoomPlus" x="17" y="9" onmousedown="handleZoom(evt,'in')"/>
                <use id="zoomminus" xlink:href="#zoomMin" x="42" y="9" onmousedown="handleZoom(evt,'out')"/>
                <use id="reset" xlink:href="#resetDef" x="30" y="36" onmousedown="handleReset()"/>
                <g id="arrowUp" xlink:href="#dirArrow" transform="translate(30 24)" onmousedown="handlePan(0,-1)">
                  <use xlink:href="#rim" fill="#404040">
                        <set attributeName="fill" to="#808080" begin="arrowUp.mouseover" end="arrowUp.mouseout"/>
                  </use>
                  <path fill="none" stroke="white" stroke-width="1.5" d="M0,-3.0v7 M-2.5,-0.5L0,-3.0L2.5,-0.5"/>
                </g>
                <g id="arrowRight" xlink:href="#dirArrow" transform="rotate(90) translate(36 -43)" onmousedown="handlePan(1,0)">
                  <use xlink:href="#rim" fill="#404040">
                        <set attributeName="fill" to="#808080" begin="arrowRight.mouseover" end="arrowRight.mouseout"/>
                  </use>
                  <path fill="none" stroke="white" stroke-width="1.5" d="M0,-3.0v7 M-2.5,-0.5L0,-3.0L2.5,-0.5"/>
                </g>
                <g id="arrowDown" xlink:href="#dirArrow" transform="rotate(180) translate(-30 -48)" onmousedown="handlePan(0,1)">
                  <use xlink:href="#rim" fill="#404040">
                        <set attributeName="fill" to="#808080" begin="arrowDown.mouseover" end="arrowDown.mouseout"/>
                  </use>
                  <path fill="none" stroke="white" stroke-width="1.5" d="M0,-3.0v7 M-2.5,-0.5L0,-3.0L2.5,-0.5"/>
                </g>
                <g id="arrowLeft" xlink:href="#dirArrow" transform="rotate(270) translate(-36 17)" onmousedown="handlePan(-1,0)">
                  <use xlink:href="#rim" fill="#404040">
                        <set attributeName="fill" to="#808080" begin="arrowLeft.mouseover" end="arrowLeft.mouseout"/>
                  </use>
                  <path fill="none" stroke="white" stroke-width="1.5" d="M0,-3.0v7 M-2.5,-0.5L0,-3.0L2.5,-0.5"/>
                </g>
        </g>
        <svg viewBox="0 0 15 15" width="100%" height="30px" preserveAspectRatio="xMaxYMin meet">
         <g id="arrow_out" transform="scale(0.3 0.3)">
          <a xlink:href="initialcondition_8c_ad0dd7d3f2528b6a7802fcd551e88ea99_cgraph_org.svg" target="_base">
           <rect id="button" ry="5" rx="5" y="6" x="6" height="38" width="38"
                fill="#f2f5e9" fill-opacity="0.5" stroke="#606060" stroke-width="1.0"/>
           <path id="arrow"
             d="M 11.500037,31.436501 C 11.940474,20.09759 22.043105,11.32322 32.158766,21.979434 L 37.068811,17.246167 C 37.068811,17.246167 37.088388,32 37.088388,32 L 22.160133,31.978069 C 22.160133,31.978069 26.997745,27.140456 26.997745,27.140456 C 18.528582,18.264221 13.291696,25.230495 11.500037,31.436501 z"
             style="fill:#404040;"/>
          </a>
         </g>
        </svg>
</svg>
