<?xml version="1.0" encoding="UTF-8" standalone="no"?>
<!DOCTYPE svg PUBLIC "-//W3C//DTD SVG 1.1//EN"
 "http://www.w3.org/Graphics/SVG/1.1/DTD/svg11.dtd">
<!-- Generated by graphviz version 2.43.0 (0)
 -->
<!-- Title: SetInitialFluidState_Load Pages: 1 -->
<!--zoomable 249 -->
<svg id="main" version="1.1" xmlns="http://www.w3.org/2000/svg" xmlns:xlink="http://www.w3.org/1999/xlink" xml:space="preserve" onload="init(evt)">
<style type="text/css"><![CDATA[
.edge:hover path { stroke: red; }
.edge:hover polygon { stroke: red; fill: red; }
]]></style>
<script type="text/javascript"><![CDATA[
var edges = document.getElementsByTagName('g');
if (edges && edges.length) {
  for (var i=0;i<edges.length;i++) {
    if (edges[i].id.substr(0,4)=='edge') {
      edges[i].setAttribute('class','edge');
    }
  }
}
]]></script>
        <defs>
                <circle id="rim" cx="0" cy="0" r="7"/>
                <circle id="rim2" cx="0" cy="0" r="3.5"/>
                <g id="zoomPlus">
                        <use xlink:href="#rim" fill="#404040">
                                <set attributeName="fill" to="#808080" begin="zoomplus.mouseover" end="zoomplus.mouseout"/>
                        </use>
                        <path d="M-4,0h8M0,-4v8" fill="none" stroke="white" stroke-width="1.5" pointer-events="none"/>
                </g>
                <g id="zoomMin">
                        <use xlink:href="#rim" fill="#404040">
                                <set attributeName="fill" to="#808080" begin="zoomminus.mouseover" end="zoomminus.mouseout"/>
                        </use>
                        <path d="M-4,0h8" fill="none" stroke="white" stroke-width="1.5" pointer-events="none"/>
                </g>
                <g id="dirArrow">
                        <path fill="none" stroke="white" stroke-width="1.5" d="M0,-3.0v7 M-2.5,-0.5L0,-3.0L2.5,-0.5"/>
                </g>
               <g id="resetDef">
                       <use xlink:href="#rim2" fill="#404040">
                               <set attributeName="fill" to="#808080" begin="reset.mouseover" end="reset.mouseout"/>
                       </use>
               </g>
        </defs>

<script type="text/javascript">
var viewWidth = 722;
var viewHeight = 249;
var sectionId = 'dynsection-7';
</script>
<script xlink:href="svgpan.js"/>
<svg id="graph" class="graph">
<g id="viewport">
<title>SetInitialFluidState_Load</title>
<!-- Node1 -->
<g id="node1" class="node">
<title>Node1</title>
<g id="a_node1"><a xlink:title="(HELPER) Reads fluid state for all blocks from restart files.">
<polygon fill="#bfbfbf" stroke="black" points="0,-76.5 0,-95.5 138,-95.5 138,-76.5 0,-76.5"/>
<text text-anchor="middle" x="69" y="-83.5" font-family="Helvetica,sans-Serif" font-size="10.00">SetInitialFluidState_Load</text>
</a>
</g>
</g>
<!-- Node2 -->
<g id="node2" class="node">
<title>Node2</title>
<g id="a_node2"><a xlink:href="io_8h.html#a3a009dabc71ccfa59f196e1bc045de45" target="_top" xlink:title="Reads binary field data for velocity, pressure, and other required vectors.">
<polygon fill="none" stroke="black" points="174,-133.5 174,-152.5 296,-152.5 296,-133.5 174,-133.5"/>
<text text-anchor="middle" x="235" y="-140.5" font-family="Helvetica,sans-Serif" font-size="10.00">ReadSimulationFields</text>
</a>
</g>
</g>
<!-- Node1&#45;&gt;Node2 -->
<g id="edge1" class="edge">
<title>Node1&#45;&gt;Node2</title>
<path fill="none" stroke="midnightblue" d="M97.45,-95.54C124.65,-104.99 166.5,-119.54 196.7,-130.04"/>
<polygon fill="midnightblue" stroke="midnightblue" points="195.87,-133.45 206.46,-133.43 198.16,-126.84 195.87,-133.45"/>
</g>
<!-- Node9 -->
<g id="node9" class="node">
<title>Node9</title>
<g id="a_node9"><a xlink:href="setup_8h.html#ad5f82951adcce74b3d37cb5880acf43a" target="_top" xlink:title="Updates the local vector (including ghost points) from its corresponding global vector.">
<polygon fill="none" stroke="black" points="179.5,-38.5 179.5,-57.5 290.5,-57.5 290.5,-38.5 179.5,-38.5"/>
<text text-anchor="middle" x="235" y="-45.5" font-family="Helvetica,sans-Serif" font-size="10.00">UpdateLocalGhosts</text>
</a>
</g>
</g>
<!-- Node1&#45;&gt;Node9 -->
<g id="edge12" class="edge">
<title>Node1&#45;&gt;Node9</title>
<path fill="none" stroke="midnightblue" d="M111.38,-76.41C133.12,-71.37 159.96,-65.16 182.97,-59.82"/>
<polygon fill="midnightblue" stroke="midnightblue" points="183.96,-63.19 192.91,-57.52 182.38,-56.37 183.96,-63.19"/>
</g>
<!-- Node3 -->
<g id="node3" class="node">
<title>Node3</title>
<g id="a_node3"><a xlink:href="io_8c.html#a570806d7e0694b5d996e0c6018b48908" target="_top" xlink:title="Reads data for a specific field from a file into the provided vector.">
<polygon fill="none" stroke="black" points="627,-209.5 627,-228.5 714,-228.5 714,-209.5 627,-209.5"/>
<text text-anchor="middle" x="670.5" y="-216.5" font-family="Helvetica,sans-Serif" font-size="10.00">ReadFieldData</text>
</a>
</g>
</g>
<!-- Node2&#45;&gt;Node3 -->
<g id="edge2" class="edge">
<title>Node2&#45;&gt;Node3</title>
<path fill="none" stroke="midnightblue" d="M244.01,-152.63C259.09,-169.92 293.65,-205.66 332,-219 428.06,-252.42 549.03,-240.52 616.96,-229.39"/>
<polygon fill="midnightblue" stroke="midnightblue" points="617.71,-232.81 626.99,-227.69 616.54,-225.91 617.71,-232.81"/>
</g>
<!-- Node4 -->
<g id="node4" class="node">
<title>Node4</title>
<g id="a_node4"><a xlink:href="io_8c.html#a45ad89f26c78131d2990f09126abba4b" target="_top" xlink:title="Reads LES&#45;related fields.">
<polygon fill="none" stroke="black" points="348,-190.5 348,-209.5 434,-209.5 434,-190.5 348,-190.5"/>
<text text-anchor="middle" x="391" y="-197.5" font-family="Helvetica,sans-Serif" font-size="10.00">ReadLESFields</text>
</a>
</g>
</g>
<!-- Node2&#45;&gt;Node4 -->
<g id="edge3" class="edge">
<title>Node2&#45;&gt;Node4</title>
<path fill="none" stroke="midnightblue" d="M261.78,-152.54C287.21,-161.95 326.28,-176.41 354.61,-186.9"/>
<polygon fill="midnightblue" stroke="midnightblue" points="353.55,-190.24 364.14,-190.43 355.98,-183.67 353.55,-190.24"/>
</g>
<!-- Node5 -->
<g id="node5" class="node">
<title>Node5</title>
<g id="a_node5"><a xlink:href="io_8c.html#ac414e8adc74c5fb5e149b42c95baf495" target="_top" xlink:title="Checks for and reads an optional Eulerian field from a file into a Vec.">
<polygon fill="none" stroke="black" points="486,-152.5 486,-171.5 591,-171.5 591,-152.5 486,-152.5"/>
<text text-anchor="middle" x="538.5" y="-159.5" font-family="Helvetica,sans-Serif" font-size="10.00">ReadOptionalField</text>
</a>
</g>
</g>
<!-- Node2&#45;&gt;Node5 -->
<g id="edge7" class="edge">
<title>Node2&#45;&gt;Node5</title>
<path fill="none" stroke="midnightblue" d="M296.29,-146.8C348.33,-150.08 423.18,-154.8 475.67,-158.1"/>
<polygon fill="midnightblue" stroke="midnightblue" points="475.65,-161.61 485.85,-158.75 476.09,-154.62 475.65,-161.61"/>
</g>
<!-- Node7 -->
<g id="node7" class="node">
<title>Node7</title>
<g id="a_node7"><a xlink:href="io_8c.html#a19e2e0b57afae458bae068610141c031" target="_top" xlink:title="Reads RANS&#45;related fields.">
<polygon fill="none" stroke="black" points="343,-114.5 343,-133.5 439,-133.5 439,-114.5 343,-114.5"/>
<text text-anchor="middle" x="391" y="-121.5" font-family="Helvetica,sans-Serif" font-size="10.00">ReadRANSFields</text>
</a>
</g>
</g>
<!-- Node2&#45;&gt;Node7 -->
<g id="edge8" class="edge">
<title>Node2&#45;&gt;Node7</title>
<path fill="none" stroke="midnightblue" d="M296.42,-135.55C308.28,-134.08 320.7,-132.55 332.46,-131.1"/>
<polygon fill="midnightblue" stroke="midnightblue" points="333.11,-134.55 342.6,-129.85 332.25,-127.6 333.11,-134.55"/>
</g>
<!-- Node8 -->
<g id="node8" class="node">
<title>Node8</title>
<g id="a_node8"><a xlink:href="io_8c.html#a03f5b76975eea55434d764a23fd42623" target="_top" xlink:title="Reads statistical fields for averaging purposes.">
<polygon fill="none" stroke="black" points="332,-76.5 332,-95.5 450,-95.5 450,-76.5 332,-76.5"/>
<text text-anchor="middle" x="391" y="-83.5" font-family="Helvetica,sans-Serif" font-size="10.00">ReadStatisticalFields</text>
</a>
</g>
</g>
<!-- Node2&#45;&gt;Node8 -->
<g id="edge10" class="edge">
<title>Node2&#45;&gt;Node8</title>
<path fill="none" stroke="midnightblue" d="M259.13,-133.39C278.48,-125.46 306.88,-114.08 332,-105 337.75,-102.92 343.85,-100.82 349.85,-98.8"/>
<polygon fill="midnightblue" stroke="midnightblue" points="351.38,-101.98 359.78,-95.52 349.19,-95.34 351.38,-101.98"/>
</g>
<!-- Node4&#45;&gt;Node5 -->
<g id="edge4" class="edge">
<title>Node4&#45;&gt;Node5</title>
<path fill="none" stroke="midnightblue" d="M428.72,-190.41C447.66,-185.46 470.96,-179.38 491.13,-174.11"/>
<polygon fill="midnightblue" stroke="midnightblue" points="492.26,-177.43 501.05,-171.52 490.49,-170.66 492.26,-177.43"/>
</g>
<!-- Node5&#45;&gt;Node3 -->
<g id="edge6" class="edge">
<title>Node5&#45;&gt;Node3</title>
<path fill="none" stroke="midnightblue" d="M561.26,-171.54C582.35,-180.79 614.56,-194.91 638.36,-205.35"/>
<polygon fill="midnightblue" stroke="midnightblue" points="637.11,-208.62 647.67,-209.43 639.92,-202.21 637.11,-208.62"/>
</g>
<!-- Node6 -->
<g id="node6" class="node">
<title>Node6</title>
<g id="a_node6"><a xlink:href="io_8c.html#ab7d7097c8ad047feb1d460e4694b8b4f" target="_top" xlink:title="Checks for a data file&#39;s existence in a parallel&#45;safe manner.">
<polygon fill="none" stroke="black" points="627.5,-152.5 627.5,-171.5 713.5,-171.5 713.5,-152.5 627.5,-152.5"/>
<text text-anchor="middle" x="670.5" y="-159.5" font-family="Helvetica,sans-Serif" font-size="10.00">CheckDataFile</text>
</a>
</g>
</g>
<!-- Node5&#45;&gt;Node6 -->
<g id="edge5" class="edge">
<title>Node5&#45;&gt;Node6</title>
<path fill="none" stroke="midnightblue" d="M591.25,-162C599.71,-162 608.48,-162 616.96,-162"/>
<polygon fill="midnightblue" stroke="midnightblue" points="617.11,-165.5 627.11,-162 617.11,-158.5 617.11,-165.5"/>
</g>
<!-- Node7&#45;&gt;Node5 -->
<g id="edge9" class="edge">
<title>Node7&#45;&gt;Node5</title>
<path fill="none" stroke="midnightblue" d="M428.72,-133.59C447.66,-138.54 470.96,-144.62 491.13,-149.89"/>
<polygon fill="midnightblue" stroke="midnightblue" points="490.49,-153.34 501.05,-152.48 492.26,-146.57 490.49,-153.34"/>
</g>
<!-- Node8&#45;&gt;Node5 -->
<g id="edge11" class="edge">
<title>Node8&#45;&gt;Node5</title>
<path fill="none" stroke="midnightblue" d="M426.32,-95.6C434.25,-98.27 442.55,-101.43 450,-105 474.22,-116.61 499.72,-133.88 516.9,-146.36"/>
<polygon fill="midnightblue" stroke="midnightblue" points="514.95,-149.27 525.07,-152.4 519.11,-143.64 514.95,-149.27"/>
</g>
<!-- Node10 -->
<g id="node10" class="node">
<title>Node10</title>
<g id="a_node10"><a xlink:href="logging_8h.html#a9585f583c260f40a73f2490914edc689" target="_top" xlink:title="Retrieves the current logging level from the environment variable LOG_LEVEL.">
<polygon fill="none" stroke="black" points="350,-38.5 350,-57.5 432,-57.5 432,-38.5 350,-38.5"/>
<text text-anchor="middle" x="391" y="-45.5" font-family="Helvetica,sans-Serif" font-size="10.00">get_log_level</text>
</a>
</g>
</g>
<!-- Node9&#45;&gt;Node10 -->
<g id="edge13" class="edge">
<title>Node9&#45;&gt;Node10</title>
<path fill="none" stroke="midnightblue" d="M290.73,-48C306.76,-48 324.19,-48 339.92,-48"/>
<polygon fill="midnightblue" stroke="midnightblue" points="339.97,-51.5 349.97,-48 339.97,-44.5 339.97,-51.5"/>
</g>
<!-- Node11 -->
<g id="node11" class="node">
<title>Node11</title>
<g id="a_node11"><a xlink:href="logging_8h.html#a2358badbcda33fc9d80ebd6a59d2a2cd" target="_top" xlink:title="Checks if a given function is in the allow&#45;list.">
<polygon fill="none" stroke="black" points="334.5,-0.5 334.5,-19.5 447.5,-19.5 447.5,-0.5 334.5,-0.5"/>
<text text-anchor="middle" x="391" y="-7.5" font-family="Helvetica,sans-Serif" font-size="10.00">is_function_allowed</text>
</a>
</g>
</g>
<!-- Node9&#45;&gt;Node11 -->
<g id="edge14" class="edge">
<title>Node9&#45;&gt;Node11</title>
<path fill="none" stroke="midnightblue" d="M274.86,-38.41C295.09,-33.42 320.02,-27.27 341.5,-21.97"/>
<polygon fill="midnightblue" stroke="midnightblue" points="342.55,-25.31 351.42,-19.52 340.87,-18.52 342.55,-25.31"/>
</g>
</g>
</svg>
        <g id="navigator" transform="translate(0 0)" fill="#404254">
                <rect fill="#f2f5e9" fill-opacity="0.5" stroke="#606060" stroke-width=".5" x="0" y="0" width="60" height="60"/>
                <use id="zoomplus" xlink:href="#zoomPlus" x="17" y="9" onmousedown="handleZoom(evt,'in')"/>
                <use id="zoomminus" xlink:href="#zoomMin" x="42" y="9" onmousedown="handleZoom(evt,'out')"/>
                <use id="reset" xlink:href="#resetDef" x="30" y="36" onmousedown="handleReset()"/>
                <g id="arrowUp" xlink:href="#dirArrow" transform="translate(30 24)" onmousedown="handlePan(0,-1)">
                  <use xlink:href="#rim" fill="#404040">
                        <set attributeName="fill" to="#808080" begin="arrowUp.mouseover" end="arrowUp.mouseout"/>
                  </use>
                  <path fill="none" stroke="white" stroke-width="1.5" d="M0,-3.0v7 M-2.5,-0.5L0,-3.0L2.5,-0.5"/>
                </g>
                <g id="arrowRight" xlink:href="#dirArrow" transform="rotate(90) translate(36 -43)" onmousedown="handlePan(1,0)">
                  <use xlink:href="#rim" fill="#404040">
                        <set attributeName="fill" to="#808080" begin="arrowRight.mouseover" end="arrowRight.mouseout"/>
                  </use>
                  <path fill="none" stroke="white" stroke-width="1.5" d="M0,-3.0v7 M-2.5,-0.5L0,-3.0L2.5,-0.5"/>
                </g>
                <g id="arrowDown" xlink:href="#dirArrow" transform="rotate(180) translate(-30 -48)" onmousedown="handlePan(0,1)">
                  <use xlink:href="#rim" fill="#404040">
                        <set attributeName="fill" to="#808080" begin="arrowDown.mouseover" end="arrowDown.mouseout"/>
                  </use>
                  <path fill="none" stroke="white" stroke-width="1.5" d="M0,-3.0v7 M-2.5,-0.5L0,-3.0L2.5,-0.5"/>
                </g>
                <g id="arrowLeft" xlink:href="#dirArrow" transform="rotate(270) translate(-36 17)" onmousedown="handlePan(-1,0)">
                  <use xlink:href="#rim" fill="#404040">
                        <set attributeName="fill" to="#808080" begin="arrowLeft.mouseover" end="arrowLeft.mouseout"/>
                  </use>
                  <path fill="none" stroke="white" stroke-width="1.5" d="M0,-3.0v7 M-2.5,-0.5L0,-3.0L2.5,-0.5"/>
                </g>
        </g>
        <svg viewBox="0 0 15 15" width="100%" height="30px" preserveAspectRatio="xMaxYMin meet">
         <g id="arrow_out" transform="scale(0.3 0.3)">
          <a xlink:href="initialcondition_8c_a095ad9c41ee9300bcfa152c411835a91_cgraph_org.svg" target="_base">
           <rect id="button" ry="5" rx="5" y="6" x="6" height="38" width="38"
                fill="#f2f5e9" fill-opacity="0.5" stroke="#606060" stroke-width="1.0"/>
           <path id="arrow"
             d="M 11.500037,31.436501 C 11.940474,20.09759 22.043105,11.32322 32.158766,21.979434 L 37.068811,17.246167 C 37.068811,17.246167 37.088388,32 37.088388,32 L 22.160133,31.978069 C 22.160133,31.978069 26.997745,27.140456 26.997745,27.140456 C 18.528582,18.264221 13.291696,25.230495 11.500037,31.436501 z"
             style="fill:#404040;"/>
          </a>
         </g>
        </svg>
</svg>
