<?xml version="1.0" encoding="UTF-8" standalone="no"?>
<!DOCTYPE svg PUBLIC "-//W3C//DTD SVG 1.1//EN"
 "http://www.w3.org/Graphics/SVG/1.1/DTD/svg11.dtd">
<!-- Generated by graphviz version 2.43.0 (0)
 -->
<!-- Title: initialcondition.h Pages: 1 -->
<svg width="243pt" height="140pt"
 viewBox="0.00 0.00 242.50 140.00" xmlns="http://www.w3.org/2000/svg" xmlns:xlink="http://www.w3.org/1999/xlink">
<g id="graph0" class="graph" transform="scale(1 1) rotate(0) translate(4 136)">
<title>initialcondition.h</title>
<!-- Node1 -->
<g id="node1" class="node">
<title>Node1</title>
<g id="a_node1"><a xlink:title=" ">
<polygon fill="#bfbfbf" stroke="black" points="30.5,-112.5 30.5,-131.5 128.5,-131.5 128.5,-112.5 30.5,-112.5"/>
<text text-anchor="middle" x="79.5" y="-119.5" font-family="Helvetica,sans-Serif" font-size="10.00">initialcondition.h</text>
</a>
</g>
</g>
<!-- Node2 -->
<g id="node2" class="node">
<title>Node2</title>
<g id="a_node2"><a xlink:href="simulation_8h.html" target="_top" xlink:title=" ">
<polygon fill="none" stroke="black" points="41,-56.5 41,-75.5 118,-75.5 118,-56.5 41,-56.5"/>
<text text-anchor="middle" x="79.5" y="-63.5" font-family="Helvetica,sans-Serif" font-size="10.00">simulation.h</text>
</a>
</g>
</g>
<!-- Node1&#45;&gt;Node2 -->
<g id="edge1" class="edge">
<title>Node1&#45;&gt;Node2</title>
<path fill="none" stroke="midnightblue" d="M73.03,-102.1C72.4,-93.14 72.84,-82.86 74.37,-75.75"/>
<polygon fill="midnightblue" stroke="midnightblue" points="69.57,-102.62 74.33,-112.08 76.51,-101.71 69.57,-102.62"/>
</g>
<!-- Node5 -->
<g id="node5" class="node">
<title>Node5</title>
<g id="a_node5"><a xlink:href="initialcondition_8c.html" target="_top" xlink:title="Test program for DMSwarm interpolation using the fdf&#45;curvIB method.">
<polygon fill="none" stroke="black" points="136.5,-56.5 136.5,-75.5 234.5,-75.5 234.5,-56.5 136.5,-56.5"/>
<text text-anchor="middle" x="185.5" y="-63.5" font-family="Helvetica,sans-Serif" font-size="10.00">initialcondition.c</text>
</a>
</g>
</g>
<!-- Node1&#45;&gt;Node5 -->
<g id="edge5" class="edge">
<title>Node1&#45;&gt;Node5</title>
<path fill="none" stroke="midnightblue" d="M105.56,-107.73C125.18,-97.73 151.53,-84.31 168.51,-75.65"/>
<polygon fill="midnightblue" stroke="midnightblue" points="103.85,-104.67 96.53,-112.32 107.03,-110.9 103.85,-104.67"/>
</g>
<!-- Node2&#45;&gt;Node1 -->
<g id="edge2" class="edge">
<title>Node2&#45;&gt;Node1</title>
<path fill="none" stroke="midnightblue" d="M85.96,-85.69C86.61,-94.64 86.18,-104.93 84.67,-112.08"/>
<polygon fill="midnightblue" stroke="midnightblue" points="89.42,-85.2 84.63,-75.75 82.48,-86.13 89.42,-85.2"/>
</g>
<!-- Node3 -->
<g id="node3" class="node">
<title>Node3</title>
<g id="a_node3"><a xlink:href="picsolver_8c.html" target="_top" xlink:title=" ">
<polygon fill="none" stroke="black" points="0,-0.5 0,-19.5 69,-19.5 69,-0.5 0,-0.5"/>
<text text-anchor="middle" x="34.5" y="-7.5" font-family="Helvetica,sans-Serif" font-size="10.00">picsolver.c</text>
</a>
</g>
</g>
<!-- Node2&#45;&gt;Node3 -->
<g id="edge3" class="edge">
<title>Node2&#45;&gt;Node3</title>
<path fill="none" stroke="midnightblue" d="M65.45,-48.14C57.61,-38.74 48.17,-27.4 41.79,-19.75"/>
<polygon fill="midnightblue" stroke="midnightblue" points="62.98,-50.64 72.07,-56.08 68.36,-46.16 62.98,-50.64"/>
</g>
<!-- Node4 -->
<g id="node4" class="node">
<title>Node4</title>
<g id="a_node4"><a xlink:href="simulation_8c.html" target="_top" xlink:title="Test program for DMSwarm interpolation using the fdf&#45;curvIB method. Provides the setup to start any s...">
<polygon fill="none" stroke="black" points="87,-0.5 87,-19.5 164,-19.5 164,-0.5 87,-0.5"/>
<text text-anchor="middle" x="125.5" y="-7.5" font-family="Helvetica,sans-Serif" font-size="10.00">simulation.c</text>
</a>
</g>
</g>
<!-- Node2&#45;&gt;Node4 -->
<g id="edge4" class="edge">
<title>Node2&#45;&gt;Node4</title>
<path fill="none" stroke="midnightblue" d="M93.61,-48.43C101.68,-38.97 111.46,-27.48 118.05,-19.75"/>
<polygon fill="midnightblue" stroke="midnightblue" points="90.92,-46.2 87.1,-56.08 96.25,-50.74 90.92,-46.2"/>
</g>
</g>
</svg>
