<?xml version="1.0" encoding="UTF-8" standalone="no"?>
<!DOCTYPE svg PUBLIC "-//W3C//DTD SVG 1.1//EN"
 "http://www.w3.org/Graphics/SVG/1.1/DTD/svg11.dtd">
<!-- Generated by graphviz version 2.43.0 (0)
 -->
<!-- Title: FinalizeBlockState Pages: 1 -->
<svg width="889pt" height="180pt"
 viewBox="0.00 0.00 889.00 180.00" xmlns="http://www.w3.org/2000/svg" xmlns:xlink="http://www.w3.org/1999/xlink">
<g id="graph0" class="graph" transform="scale(1 1) rotate(0) translate(4 176)">
<title>FinalizeBlockState</title>
<!-- Node1 -->
<g id="node1" class="node">
<title>Node1</title>
<g id="a_node1"><a xlink:title="(HELPER) Finalizes a block&#39;s state by applying BCs, converting to Cartesian, and synchronizing ghost ...">
<polygon fill="#bfbfbf" stroke="black" points="0,-114.5 0,-133.5 106,-133.5 106,-114.5 0,-114.5"/>
<text text-anchor="middle" x="53" y="-121.5" font-family="Helvetica,sans-Serif" font-size="10.00">FinalizeBlockState</text>
</a>
</g>
</g>
<!-- Node2 -->
<g id="node2" class="node">
<title>Node2</title>
<g id="a_node2"><a xlink:href="setup_8h.html#a515c9a96eb4bcac29f79e78c8882d7aa" target="_top" xlink:title="Reconstructs Cartesian velocity (Ucat) at cell centers from contravariant velocity (Ucont) defined on...">
<polygon fill="none" stroke="black" points="311,-152.5 311,-171.5 386,-171.5 386,-152.5 311,-152.5"/>
<text text-anchor="middle" x="348.5" y="-159.5" font-family="Helvetica,sans-Serif" font-size="10.00">Contra2Cart</text>
</a>
</g>
</g>
<!-- Node1&#45;&gt;Node2 -->
<g id="edge1" class="edge">
<title>Node1&#45;&gt;Node2</title>
<path fill="none" stroke="midnightblue" d="M93.24,-133.53C108.4,-136.93 125.93,-140.53 142,-143 196.19,-151.32 259.03,-156.49 300.81,-159.29"/>
<polygon fill="midnightblue" stroke="midnightblue" points="300.75,-162.8 310.96,-159.95 301.21,-155.81 300.75,-162.8"/>
</g>
<!-- Node3 -->
<g id="node3" class="node">
<title>Node3</title>
<g id="a_node3"><a xlink:href="Boundaries_8h.html#adcd96cff4b9e15e03cdff9f5ea695dec" target="_top" xlink:title=" ">
<polygon fill="none" stroke="black" points="167,-114.5 167,-133.5 228,-133.5 228,-114.5 167,-114.5"/>
<text text-anchor="middle" x="197.5" y="-121.5" font-family="Helvetica,sans-Serif" font-size="10.00">FormBCS</text>
</a>
</g>
</g>
<!-- Node1&#45;&gt;Node3 -->
<g id="edge2" class="edge">
<title>Node1&#45;&gt;Node3</title>
<path fill="none" stroke="midnightblue" d="M106.25,-124C122.77,-124 140.77,-124 156.31,-124"/>
<polygon fill="midnightblue" stroke="midnightblue" points="156.63,-127.5 166.63,-124 156.63,-120.5 156.63,-127.5"/>
</g>
<!-- Node11 -->
<g id="node11" class="node">
<title>Node11</title>
<g id="a_node11"><a xlink:href="setup_8h.html#ad5f82951adcce74b3d37cb5880acf43a" target="_top" xlink:title="Updates the local vector (including ghost points) from its corresponding global vector.">
<polygon fill="none" stroke="black" points="142,-38.5 142,-57.5 253,-57.5 253,-38.5 142,-38.5"/>
<text text-anchor="middle" x="197.5" y="-45.5" font-family="Helvetica,sans-Serif" font-size="10.00">UpdateLocalGhosts</text>
</a>
</g>
</g>
<!-- Node1&#45;&gt;Node11 -->
<g id="edge13" class="edge">
<title>Node1&#45;&gt;Node11</title>
<path fill="none" stroke="midnightblue" d="M72.05,-114.37C96.67,-101.24 141,-77.6 169.57,-62.36"/>
<polygon fill="midnightblue" stroke="midnightblue" points="171.42,-65.34 178.6,-57.55 168.13,-59.16 171.42,-65.34"/>
</g>
<!-- Node3&#45;&gt;Node2 -->
<g id="edge3" class="edge">
<title>Node3&#45;&gt;Node2</title>
<path fill="none" stroke="midnightblue" d="M228.29,-131.6C249.1,-136.9 277.29,-144.09 301.03,-150.15"/>
<polygon fill="midnightblue" stroke="midnightblue" points="300.35,-153.59 310.9,-152.67 302.08,-146.8 300.35,-153.59"/>
</g>
<!-- Node4 -->
<g id="node4" class="node">
<title>Node4</title>
<g id="a_node4"><a xlink:href="wallfunction_8h.html#a82a96fd4f826d93b926bea9bb776b93e" target="_top" xlink:title=" ">
<polygon fill="none" stroke="black" points="325.5,-114.5 325.5,-133.5 371.5,-133.5 371.5,-114.5 325.5,-114.5"/>
<text text-anchor="middle" x="348.5" y="-121.5" font-family="Helvetica,sans-Serif" font-size="10.00">noslip</text>
</a>
</g>
</g>
<!-- Node3&#45;&gt;Node4 -->
<g id="edge4" class="edge">
<title>Node3&#45;&gt;Node4</title>
<path fill="none" stroke="midnightblue" d="M228.29,-124C253.37,-124 289.18,-124 314.99,-124"/>
<polygon fill="midnightblue" stroke="midnightblue" points="315.04,-127.5 325.04,-124 315.04,-120.5 315.04,-127.5"/>
</g>
<!-- Node5 -->
<g id="node5" class="node">
<title>Node5</title>
<g id="a_node5"><a xlink:href="wallfunction_8h.html#aae67d9282b09691fffdea6f1012e6df7" target="_top" xlink:title=" ">
<polygon fill="none" stroke="black" points="289,-76.5 289,-95.5 408,-95.5 408,-76.5 289,-76.5"/>
<text text-anchor="middle" x="348.5" y="-83.5" font-family="Helvetica,sans-Serif" font-size="10.00">wall_function_loglaw</text>
</a>
</g>
</g>
<!-- Node3&#45;&gt;Node5 -->
<g id="edge5" class="edge">
<title>Node3&#45;&gt;Node5</title>
<path fill="none" stroke="midnightblue" d="M228.29,-116.4C248.88,-111.15 276.69,-104.06 300.27,-98.05"/>
<polygon fill="midnightblue" stroke="midnightblue" points="301.26,-101.41 310.08,-95.54 299.53,-94.62 301.26,-101.41"/>
</g>
<!-- Node6 -->
<g id="node6" class="node">
<title>Node6</title>
<g id="a_node6"><a xlink:href="wallfunction_8c.html#aa22aca64a54a00ccaf354357cc1c0760" target="_top" xlink:title=" ">
<polygon fill="none" stroke="black" points="444,-95.5 444,-114.5 545,-114.5 545,-95.5 444,-95.5"/>
<text text-anchor="middle" x="494.5" y="-102.5" font-family="Helvetica,sans-Serif" font-size="10.00">find_utau_hydset</text>
</a>
</g>
</g>
<!-- Node5&#45;&gt;Node6 -->
<g id="edge6" class="edge">
<title>Node5&#45;&gt;Node6</title>
<path fill="none" stroke="midnightblue" d="M408.07,-93.73C416.48,-94.84 425.15,-95.98 433.59,-97.1"/>
<polygon fill="midnightblue" stroke="midnightblue" points="433.37,-100.6 443.74,-98.43 434.29,-93.66 433.37,-100.6"/>
</g>
<!-- Node10 -->
<g id="node10" class="node">
<title>Node10</title>
<g id="a_node10"><a xlink:href="wallfunction_8c.html#a071e294d71e268c014aa6047acb64730" target="_top" xlink:title=" ">
<polygon fill="none" stroke="black" points="581,-57.5 581,-76.5 697,-76.5 697,-57.5 581,-57.5"/>
<text text-anchor="middle" x="639" y="-64.5" font-family="Helvetica,sans-Serif" font-size="10.00">u_hydset_roughness</text>
</a>
</g>
</g>
<!-- Node5&#45;&gt;Node10 -->
<g id="edge11" class="edge">
<title>Node5&#45;&gt;Node10</title>
<path fill="none" stroke="midnightblue" d="M408.23,-82.13C455.3,-79.03 521.37,-74.68 570.59,-71.44"/>
<polygon fill="midnightblue" stroke="midnightblue" points="571.08,-74.91 580.83,-70.77 570.62,-67.93 571.08,-74.91"/>
</g>
<!-- Node7 -->
<g id="node7" class="node">
<title>Node7</title>
<g id="a_node7"><a xlink:href="wallfunction_8c.html#a39f08431792fc8f96ea8659756dfd749" target="_top" xlink:title=" ">
<polygon fill="none" stroke="black" points="606.5,-133.5 606.5,-152.5 671.5,-152.5 671.5,-133.5 606.5,-133.5"/>
<text text-anchor="middle" x="639" y="-140.5" font-family="Helvetica,sans-Serif" font-size="10.00">df_hydset</text>
</a>
</g>
</g>
<!-- Node6&#45;&gt;Node7 -->
<g id="edge7" class="edge">
<title>Node6&#45;&gt;Node7</title>
<path fill="none" stroke="midnightblue" d="M531.46,-114.59C551.3,-119.88 576.02,-126.47 596.66,-131.98"/>
<polygon fill="midnightblue" stroke="midnightblue" points="595.85,-135.38 606.42,-134.58 597.66,-128.62 595.85,-135.38"/>
</g>
<!-- Node8 -->
<g id="node8" class="node">
<title>Node8</title>
<g id="a_node8"><a xlink:href="wallfunction_8c.html#ac7ee38b34b5a56a4e5c01a02c290229b" target="_top" xlink:title=" ">
<polygon fill="none" stroke="black" points="733,-95.5 733,-114.5 792,-114.5 792,-95.5 733,-95.5"/>
<text text-anchor="middle" x="762.5" y="-102.5" font-family="Helvetica,sans-Serif" font-size="10.00">f_hydset</text>
</a>
</g>
</g>
<!-- Node6&#45;&gt;Node8 -->
<g id="edge10" class="edge">
<title>Node6&#45;&gt;Node8</title>
<path fill="none" stroke="midnightblue" d="M545.22,-105C596.67,-105 675.93,-105 722.86,-105"/>
<polygon fill="midnightblue" stroke="midnightblue" points="722.93,-108.5 732.93,-105 722.93,-101.5 722.93,-108.5"/>
</g>
<!-- Node7&#45;&gt;Node8 -->
<g id="edge8" class="edge">
<title>Node7&#45;&gt;Node8</title>
<path fill="none" stroke="midnightblue" d="M670.66,-133.41C686.64,-128.41 706.35,-122.25 723.31,-116.94"/>
<polygon fill="midnightblue" stroke="midnightblue" points="724.44,-120.26 732.94,-113.93 722.35,-113.58 724.44,-120.26"/>
</g>
<!-- Node9 -->
<g id="node9" class="node">
<title>Node9</title>
<g id="a_node9"><a xlink:href="wallfunction_8c.html#a5a5ea51c16915866975995631c0d2923" target="_top" xlink:title=" ">
<polygon fill="none" stroke="black" points="828,-76.5 828,-95.5 881,-95.5 881,-76.5 828,-76.5"/>
<text text-anchor="middle" x="854.5" y="-83.5" font-family="Helvetica,sans-Serif" font-size="10.00">E_coeff</text>
</a>
</g>
</g>
<!-- Node8&#45;&gt;Node9 -->
<g id="edge9" class="edge">
<title>Node8&#45;&gt;Node9</title>
<path fill="none" stroke="midnightblue" d="M792.47,-98.88C800.58,-97.17 809.49,-95.29 817.94,-93.51"/>
<polygon fill="midnightblue" stroke="midnightblue" points="818.86,-96.89 827.92,-91.4 817.41,-90.04 818.86,-96.89"/>
</g>
<!-- Node10&#45;&gt;Node9 -->
<g id="edge12" class="edge">
<title>Node10&#45;&gt;Node9</title>
<path fill="none" stroke="midnightblue" d="M697.21,-72.09C735.55,-75.5 784.85,-79.89 817.72,-82.82"/>
<polygon fill="midnightblue" stroke="midnightblue" points="817.52,-86.31 827.79,-83.71 818.14,-79.34 817.52,-86.31"/>
</g>
<!-- Node12 -->
<g id="node12" class="node">
<title>Node12</title>
<g id="a_node12"><a xlink:href="logging_8h.html#a9585f583c260f40a73f2490914edc689" target="_top" xlink:title="Retrieves the current logging level from the environment variable LOG_LEVEL.">
<polygon fill="none" stroke="black" points="307.5,-38.5 307.5,-57.5 389.5,-57.5 389.5,-38.5 307.5,-38.5"/>
<text text-anchor="middle" x="348.5" y="-45.5" font-family="Helvetica,sans-Serif" font-size="10.00">get_log_level</text>
</a>
</g>
</g>
<!-- Node11&#45;&gt;Node12 -->
<g id="edge14" class="edge">
<title>Node11&#45;&gt;Node12</title>
<path fill="none" stroke="midnightblue" d="M253.14,-48C267.57,-48 283.08,-48 297.27,-48"/>
<polygon fill="midnightblue" stroke="midnightblue" points="297.34,-51.5 307.34,-48 297.34,-44.5 297.34,-51.5"/>
</g>
<!-- Node13 -->
<g id="node13" class="node">
<title>Node13</title>
<g id="a_node13"><a xlink:href="logging_8h.html#a2358badbcda33fc9d80ebd6a59d2a2cd" target="_top" xlink:title="Checks if a given function is in the allow&#45;list.">
<polygon fill="none" stroke="black" points="292,-0.5 292,-19.5 405,-19.5 405,-0.5 292,-0.5"/>
<text text-anchor="middle" x="348.5" y="-7.5" font-family="Helvetica,sans-Serif" font-size="10.00">is_function_allowed</text>
</a>
</g>
</g>
<!-- Node11&#45;&gt;Node13 -->
<g id="edge15" class="edge">
<title>Node11&#45;&gt;Node13</title>
<path fill="none" stroke="midnightblue" d="M236.1,-38.41C255.58,-33.44 279.57,-27.32 300.3,-22.04"/>
<polygon fill="midnightblue" stroke="midnightblue" points="301.35,-25.38 310.17,-19.52 299.62,-18.6 301.35,-25.38"/>
</g>
</g>
</svg>
