<?xml version="1.0" encoding="UTF-8" standalone="no"?>
<!DOCTYPE svg PUBLIC "-//W3C//DTD SVG 1.1//EN"
 "http://www.w3.org/Graphics/SVG/1.1/DTD/svg11.dtd">
<!-- Generated by graphviz version 2.43.0 (0)
 -->
<!-- Title: SetInitialFluidState_FreshStart Pages: 1 -->
<!--zoomable 289 -->
<svg id="main" version="1.1" xmlns="http://www.w3.org/2000/svg" xmlns:xlink="http://www.w3.org/1999/xlink" xml:space="preserve" onload="init(evt)">
<style type="text/css"><![CDATA[
.edge:hover path { stroke: red; }
.edge:hover polygon { stroke: red; fill: red; }
]]></style>
<script type="text/javascript"><![CDATA[
var edges = document.getElementsByTagName('g');
if (edges && edges.length) {
  for (var i=0;i<edges.length;i++) {
    if (edges[i].id.substr(0,4)=='edge') {
      edges[i].setAttribute('class','edge');
    }
  }
}
]]></script>
        <defs>
                <circle id="rim" cx="0" cy="0" r="7"/>
                <circle id="rim2" cx="0" cy="0" r="3.5"/>
                <g id="zoomPlus">
                        <use xlink:href="#rim" fill="#404040">
                                <set attributeName="fill" to="#808080" begin="zoomplus.mouseover" end="zoomplus.mouseout"/>
                        </use>
                        <path d="M-4,0h8M0,-4v8" fill="none" stroke="white" stroke-width="1.5" pointer-events="none"/>
                </g>
                <g id="zoomMin">
                        <use xlink:href="#rim" fill="#404040">
                                <set attributeName="fill" to="#808080" begin="zoomminus.mouseover" end="zoomminus.mouseout"/>
                        </use>
                        <path d="M-4,0h8" fill="none" stroke="white" stroke-width="1.5" pointer-events="none"/>
                </g>
                <g id="dirArrow">
                        <path fill="none" stroke="white" stroke-width="1.5" d="M0,-3.0v7 M-2.5,-0.5L0,-3.0L2.5,-0.5"/>
                </g>
               <g id="resetDef">
                       <use xlink:href="#rim2" fill="#404040">
                               <set attributeName="fill" to="#808080" begin="reset.mouseover" end="reset.mouseout"/>
                       </use>
               </g>
        </defs>

<script type="text/javascript">
var viewWidth = 1060;
var viewHeight = 289;
var sectionId = 'dynsection-5';
</script>
<script xlink:href="svgpan.js"/>
<svg id="graph" class="graph">
<g id="viewport">
<title>SetInitialFluidState_FreshStart</title>
<!-- Node1 -->
<g id="node1" class="node">
<title>Node1</title>
<g id="a_node1"><a xlink:title="(HELPER) Sets the t=0 fluid state for all blocks.">
<polygon fill="#bfbfbf" stroke="black" points="0,-71 0,-101 110,-101 110,-71 0,-71"/>
<text text-anchor="start" x="8" y="-89" font-family="Helvetica,sans-Serif" font-size="10.00">SetInitialFluidState</text>
<text text-anchor="middle" x="55" y="-78" font-family="Helvetica,sans-Serif" font-size="10.00">_FreshStart</text>
</a>
</g>
</g>
<!-- Node2 -->
<g id="node2" class="node">
<title>Node2</title>
<g id="a_node2"><a xlink:href="initialcondition_8c.html#af6a26611066aa455efddcca2fd80fe35" target="_top" xlink:title="(HELPER) Finalizes a block&#39;s state by applying BCs, converting to Cartesian, and synchronizing ghost ...">
<polygon fill="none" stroke="black" points="152,-171.5 152,-190.5 258,-190.5 258,-171.5 152,-171.5"/>
<text text-anchor="middle" x="205" y="-178.5" font-family="Helvetica,sans-Serif" font-size="10.00">FinalizeBlockState</text>
</a>
</g>
</g>
<!-- Node1&#45;&gt;Node2 -->
<g id="edge1" class="edge">
<title>Node1&#45;&gt;Node2</title>
<path fill="none" stroke="midnightblue" d="M76.75,-101.05C94.78,-113.94 121.73,-132.78 146,-148 156.04,-154.3 167.32,-160.83 177.24,-166.41"/>
<polygon fill="midnightblue" stroke="midnightblue" points="175.82,-169.62 186.26,-171.42 179.22,-163.5 175.82,-169.62"/>
</g>
<!-- Node12 -->
<g id="node12" class="node">
<title>Node12</title>
<g id="a_node12"><a xlink:href="setup_8h.html#ad5f82951adcce74b3d37cb5880acf43a" target="_top" xlink:title="Updates the local vector (including ghost points) from its corresponding global vector.">
<polygon fill="none" stroke="black" points="306.5,-152.5 306.5,-171.5 417.5,-171.5 417.5,-152.5 306.5,-152.5"/>
<text text-anchor="middle" x="362" y="-159.5" font-family="Helvetica,sans-Serif" font-size="10.00">UpdateLocalGhosts</text>
</a>
</g>
</g>
<!-- Node1&#45;&gt;Node12 -->
<g id="edge25" class="edge">
<title>Node1&#45;&gt;Node12</title>
<path fill="none" stroke="midnightblue" d="M110.18,-99.5C167.71,-113.84 257.78,-136.28 312.89,-150.01"/>
<polygon fill="midnightblue" stroke="midnightblue" points="312.21,-153.45 322.76,-152.47 313.9,-146.66 312.21,-153.45"/>
</g>
<!-- Node15 -->
<g id="node15" class="node">
<title>Node15</title>
<g id="a_node15"><a xlink:href="Boundaries_8h.html#abd9b573f8f42ea93e265da37a0673f24" target="_top" xlink:title="Applies inlet boundary conditions based on the modern BC handling system.">
<polygon fill="none" stroke="black" points="171,-76.5 171,-95.5 239,-95.5 239,-76.5 171,-76.5"/>
<text text-anchor="middle" x="205" y="-83.5" font-family="Helvetica,sans-Serif" font-size="10.00">InflowFlux</text>
</a>
</g>
</g>
<!-- Node1&#45;&gt;Node15 -->
<g id="edge17" class="edge">
<title>Node1&#45;&gt;Node15</title>
<path fill="none" stroke="midnightblue" d="M110.27,-86C126.92,-86 145,-86 160.81,-86"/>
<polygon fill="midnightblue" stroke="midnightblue" points="160.82,-89.5 170.82,-86 160.82,-82.5 160.82,-89.5"/>
</g>
<!-- Node19 -->
<g id="node19" class="node">
<title>Node19</title>
<g id="a_node19"><a xlink:href="Boundaries_8h.html#a684320111be78b3001fda2ba25638e79" target="_top" xlink:title="Calculates the total outgoing flux through all OUTLET faces for reporting.">
<polygon fill="none" stroke="black" points="167,-38.5 167,-57.5 243,-57.5 243,-38.5 167,-38.5"/>
<text text-anchor="middle" x="205" y="-45.5" font-family="Helvetica,sans-Serif" font-size="10.00">OutflowFlux</text>
</a>
</g>
</g>
<!-- Node1&#45;&gt;Node19 -->
<g id="edge21" class="edge">
<title>Node1&#45;&gt;Node19</title>
<path fill="none" stroke="midnightblue" d="M110.27,-72.07C125.55,-68.14 142.05,-63.91 156.87,-60.1"/>
<polygon fill="midnightblue" stroke="midnightblue" points="158.02,-63.42 166.84,-57.54 156.28,-56.64 158.02,-63.42"/>
</g>
<!-- Node20 -->
<g id="node20" class="node">
<title>Node20</title>
<g id="a_node20"><a xlink:href="initialcondition_8c.html#a62dfa993750dc34d1729c575bb1dde66" target="_top" xlink:title="Sets the initial values for the INTERIOR of a specified Eulerian field.">
<polygon fill="none" stroke="black" points="146,-0.5 146,-19.5 264,-19.5 264,-0.5 146,-0.5"/>
<text text-anchor="middle" x="205" y="-7.5" font-family="Helvetica,sans-Serif" font-size="10.00">SetInitialInteriorField</text>
</a>
</g>
</g>
<!-- Node1&#45;&gt;Node20 -->
<g id="edge22" class="edge">
<title>Node1&#45;&gt;Node20</title>
<path fill="none" stroke="midnightblue" d="M76.61,-70.86C94.32,-58.37 120.91,-40.83 146,-29 150.61,-26.82 155.54,-24.8 160.51,-22.93"/>
<polygon fill="midnightblue" stroke="midnightblue" points="161.76,-26.2 170.02,-19.57 159.42,-19.61 161.76,-26.2"/>
</g>
<!-- Node3 -->
<g id="node3" class="node">
<title>Node3</title>
<g id="a_node3"><a xlink:href="setup_8h.html#a515c9a96eb4bcac29f79e78c8882d7aa" target="_top" xlink:title="Reconstructs Cartesian velocity (Ucat) at cell centers from contravariant velocity (Ucont) defined on...">
<polygon fill="none" stroke="black" points="482,-261.5 482,-280.5 557,-280.5 557,-261.5 482,-261.5"/>
<text text-anchor="middle" x="519.5" y="-268.5" font-family="Helvetica,sans-Serif" font-size="10.00">Contra2Cart</text>
</a>
</g>
</g>
<!-- Node2&#45;&gt;Node3 -->
<g id="edge2" class="edge">
<title>Node2&#45;&gt;Node3</title>
<path fill="none" stroke="midnightblue" d="M218.26,-190.65C235.46,-203.65 268.24,-226.5 300,-238 356.89,-258.61 426.61,-266.35 471.77,-269.25"/>
<polygon fill="midnightblue" stroke="midnightblue" points="471.66,-272.75 481.85,-269.85 472.08,-265.77 471.66,-272.75"/>
</g>
<!-- Node4 -->
<g id="node4" class="node">
<title>Node4</title>
<g id="a_node4"><a xlink:href="Boundaries_8h.html#adcd96cff4b9e15e03cdff9f5ea695dec" target="_top" xlink:title=" ">
<polygon fill="none" stroke="black" points="331.5,-209.5 331.5,-228.5 392.5,-228.5 392.5,-209.5 331.5,-209.5"/>
<text text-anchor="middle" x="362" y="-216.5" font-family="Helvetica,sans-Serif" font-size="10.00">FormBCS</text>
</a>
</g>
</g>
<!-- Node2&#45;&gt;Node4 -->
<g id="edge3" class="edge">
<title>Node2&#45;&gt;Node4</title>
<path fill="none" stroke="midnightblue" d="M245.11,-190.59C268.39,-196.3 297.86,-203.52 321.25,-209.25"/>
<polygon fill="midnightblue" stroke="midnightblue" points="320.65,-212.71 331.19,-211.69 322.32,-205.91 320.65,-212.71"/>
</g>
<!-- Node2&#45;&gt;Node12 -->
<g id="edge14" class="edge">
<title>Node2&#45;&gt;Node12</title>
<path fill="none" stroke="midnightblue" d="M258.04,-174.62C270.33,-173.11 283.57,-171.49 296.33,-169.93"/>
<polygon fill="midnightblue" stroke="midnightblue" points="296.94,-173.38 306.44,-168.69 296.09,-166.43 296.94,-173.38"/>
</g>
<!-- Node4&#45;&gt;Node3 -->
<g id="edge4" class="edge">
<title>Node4&#45;&gt;Node3</title>
<path fill="none" stroke="midnightblue" d="M390.98,-228.63C410.34,-235.27 436.71,-244.26 460,-252 466.12,-254.03 472.6,-256.17 478.94,-258.24"/>
<polygon fill="midnightblue" stroke="midnightblue" points="478.12,-261.65 488.71,-261.41 480.29,-254.99 478.12,-261.65"/>
</g>
<!-- Node5 -->
<g id="node5" class="node">
<title>Node5</title>
<g id="a_node5"><a xlink:href="wallfunction_8h.html#a82a96fd4f826d93b926bea9bb776b93e" target="_top" xlink:title=" ">
<polygon fill="none" stroke="black" points="496.5,-223.5 496.5,-242.5 542.5,-242.5 542.5,-223.5 496.5,-223.5"/>
<text text-anchor="middle" x="519.5" y="-230.5" font-family="Helvetica,sans-Serif" font-size="10.00">noslip</text>
</a>
</g>
</g>
<!-- Node4&#45;&gt;Node5 -->
<g id="edge5" class="edge">
<title>Node4&#45;&gt;Node5</title>
<path fill="none" stroke="midnightblue" d="M392.61,-221.67C419.22,-224.06 458.22,-227.57 485.75,-230.05"/>
<polygon fill="midnightblue" stroke="midnightblue" points="485.77,-233.57 496.05,-230.98 486.4,-226.6 485.77,-233.57"/>
</g>
<!-- Node6 -->
<g id="node6" class="node">
<title>Node6</title>
<g id="a_node6"><a xlink:href="wallfunction_8h.html#aae67d9282b09691fffdea6f1012e6df7" target="_top" xlink:title=" ">
<polygon fill="none" stroke="black" points="460,-185.5 460,-204.5 579,-204.5 579,-185.5 460,-185.5"/>
<text text-anchor="middle" x="519.5" y="-192.5" font-family="Helvetica,sans-Serif" font-size="10.00">wall_function_loglaw</text>
</a>
</g>
</g>
<!-- Node4&#45;&gt;Node6 -->
<g id="edge6" class="edge">
<title>Node4&#45;&gt;Node6</title>
<path fill="none" stroke="midnightblue" d="M392.61,-214.43C408.82,-211.93 429.63,-208.72 449.64,-205.63"/>
<polygon fill="midnightblue" stroke="midnightblue" points="450.34,-209.06 459.69,-204.08 449.27,-202.14 450.34,-209.06"/>
</g>
<!-- Node7 -->
<g id="node7" class="node">
<title>Node7</title>
<g id="a_node7"><a xlink:href="wallfunction_8c.html#aa22aca64a54a00ccaf354357cc1c0760" target="_top" xlink:title=" ">
<polygon fill="none" stroke="black" points="615,-204.5 615,-223.5 716,-223.5 716,-204.5 615,-204.5"/>
<text text-anchor="middle" x="665.5" y="-211.5" font-family="Helvetica,sans-Serif" font-size="10.00">find_utau_hydset</text>
</a>
</g>
</g>
<!-- Node6&#45;&gt;Node7 -->
<g id="edge7" class="edge">
<title>Node6&#45;&gt;Node7</title>
<path fill="none" stroke="midnightblue" d="M579.07,-202.73C587.48,-203.84 596.15,-204.98 604.59,-206.1"/>
<polygon fill="midnightblue" stroke="midnightblue" points="604.37,-209.6 614.74,-207.43 605.29,-202.66 604.37,-209.6"/>
</g>
<!-- Node11 -->
<g id="node11" class="node">
<title>Node11</title>
<g id="a_node11"><a xlink:href="wallfunction_8c.html#a071e294d71e268c014aa6047acb64730" target="_top" xlink:title=" ">
<polygon fill="none" stroke="black" points="752,-166.5 752,-185.5 868,-185.5 868,-166.5 752,-166.5"/>
<text text-anchor="middle" x="810" y="-173.5" font-family="Helvetica,sans-Serif" font-size="10.00">u_hydset_roughness</text>
</a>
</g>
</g>
<!-- Node6&#45;&gt;Node11 -->
<g id="edge12" class="edge">
<title>Node6&#45;&gt;Node11</title>
<path fill="none" stroke="midnightblue" d="M579.23,-191.13C626.3,-188.03 692.37,-183.68 741.59,-180.44"/>
<polygon fill="midnightblue" stroke="midnightblue" points="742.08,-183.91 751.83,-179.77 741.62,-176.93 742.08,-183.91"/>
</g>
<!-- Node8 -->
<g id="node8" class="node">
<title>Node8</title>
<g id="a_node8"><a xlink:href="wallfunction_8c.html#a39f08431792fc8f96ea8659756dfd749" target="_top" xlink:title=" ">
<polygon fill="none" stroke="black" points="777.5,-242.5 777.5,-261.5 842.5,-261.5 842.5,-242.5 777.5,-242.5"/>
<text text-anchor="middle" x="810" y="-249.5" font-family="Helvetica,sans-Serif" font-size="10.00">df_hydset</text>
</a>
</g>
</g>
<!-- Node7&#45;&gt;Node8 -->
<g id="edge8" class="edge">
<title>Node7&#45;&gt;Node8</title>
<path fill="none" stroke="midnightblue" d="M702.46,-223.59C722.3,-228.88 747.02,-235.47 767.66,-240.98"/>
<polygon fill="midnightblue" stroke="midnightblue" points="766.85,-244.38 777.42,-243.58 768.66,-237.62 766.85,-244.38"/>
</g>
<!-- Node9 -->
<g id="node9" class="node">
<title>Node9</title>
<g id="a_node9"><a xlink:href="wallfunction_8c.html#ac7ee38b34b5a56a4e5c01a02c290229b" target="_top" xlink:title=" ">
<polygon fill="none" stroke="black" points="904,-204.5 904,-223.5 963,-223.5 963,-204.5 904,-204.5"/>
<text text-anchor="middle" x="933.5" y="-211.5" font-family="Helvetica,sans-Serif" font-size="10.00">f_hydset</text>
</a>
</g>
</g>
<!-- Node7&#45;&gt;Node9 -->
<g id="edge11" class="edge">
<title>Node7&#45;&gt;Node9</title>
<path fill="none" stroke="midnightblue" d="M716.22,-214C767.67,-214 846.93,-214 893.86,-214"/>
<polygon fill="midnightblue" stroke="midnightblue" points="893.93,-217.5 903.93,-214 893.93,-210.5 893.93,-217.5"/>
</g>
<!-- Node8&#45;&gt;Node9 -->
<g id="edge9" class="edge">
<title>Node8&#45;&gt;Node9</title>
<path fill="none" stroke="midnightblue" d="M841.66,-242.41C857.64,-237.41 877.35,-231.25 894.31,-225.94"/>
<polygon fill="midnightblue" stroke="midnightblue" points="895.44,-229.26 903.94,-222.93 893.35,-222.58 895.44,-229.26"/>
</g>
<!-- Node10 -->
<g id="node10" class="node">
<title>Node10</title>
<g id="a_node10"><a xlink:href="wallfunction_8c.html#a5a5ea51c16915866975995631c0d2923" target="_top" xlink:title=" ">
<polygon fill="none" stroke="black" points="999,-185.5 999,-204.5 1052,-204.5 1052,-185.5 999,-185.5"/>
<text text-anchor="middle" x="1025.5" y="-192.5" font-family="Helvetica,sans-Serif" font-size="10.00">E_coeff</text>
</a>
</g>
</g>
<!-- Node9&#45;&gt;Node10 -->
<g id="edge10" class="edge">
<title>Node9&#45;&gt;Node10</title>
<path fill="none" stroke="midnightblue" d="M963.47,-207.88C971.58,-206.17 980.49,-204.29 988.94,-202.51"/>
<polygon fill="midnightblue" stroke="midnightblue" points="989.86,-205.89 998.92,-200.4 988.41,-199.04 989.86,-205.89"/>
</g>
<!-- Node11&#45;&gt;Node10 -->
<g id="edge13" class="edge">
<title>Node11&#45;&gt;Node10</title>
<path fill="none" stroke="midnightblue" d="M868.21,-181.09C906.55,-184.5 955.85,-188.89 988.72,-191.82"/>
<polygon fill="midnightblue" stroke="midnightblue" points="988.52,-195.31 998.79,-192.71 989.14,-188.34 988.52,-195.31"/>
</g>
<!-- Node13 -->
<g id="node13" class="node">
<title>Node13</title>
<g id="a_node13"><a xlink:href="logging_8h.html#a9585f583c260f40a73f2490914edc689" target="_top" xlink:title="Retrieves the current logging level from the environment variable LOG_LEVEL.">
<polygon fill="none" stroke="black" points="478.5,-147.5 478.5,-166.5 560.5,-166.5 560.5,-147.5 478.5,-147.5"/>
<text text-anchor="middle" x="519.5" y="-154.5" font-family="Helvetica,sans-Serif" font-size="10.00">get_log_level</text>
</a>
</g>
</g>
<!-- Node12&#45;&gt;Node13 -->
<g id="edge15" class="edge">
<title>Node12&#45;&gt;Node13</title>
<path fill="none" stroke="midnightblue" d="M417.82,-160.24C434.18,-159.71 452.02,-159.14 468.08,-158.62"/>
<polygon fill="midnightblue" stroke="midnightblue" points="468.46,-162.11 478.34,-158.29 468.23,-155.11 468.46,-162.11"/>
</g>
<!-- Node14 -->
<g id="node14" class="node">
<title>Node14</title>
<g id="a_node14"><a xlink:href="logging_8h.html#a2358badbcda33fc9d80ebd6a59d2a2cd" target="_top" xlink:title="Checks if a given function is in the allow&#45;list.">
<polygon fill="none" stroke="black" points="463,-109.5 463,-128.5 576,-128.5 576,-109.5 463,-109.5"/>
<text text-anchor="middle" x="519.5" y="-116.5" font-family="Helvetica,sans-Serif" font-size="10.00">is_function_allowed</text>
</a>
</g>
</g>
<!-- Node12&#45;&gt;Node14 -->
<g id="edge16" class="edge">
<title>Node12&#45;&gt;Node14</title>
<path fill="none" stroke="midnightblue" d="M397.51,-152.46C420.16,-146.19 449.99,-137.95 474.36,-131.21"/>
<polygon fill="midnightblue" stroke="midnightblue" points="475.38,-134.56 484.09,-128.52 473.51,-127.81 475.38,-134.56"/>
</g>
<!-- Node16 -->
<g id="node16" class="node">
<title>Node16</title>
<g id="a_node16"><a xlink:href="logging_8h.html#a9b417fe56a110c0f6a3e64860e3e5cdb" target="_top" xlink:title="Helper function to convert BCFace enum to a string representation.">
<polygon fill="none" stroke="black" points="316,-114.5 316,-133.5 408,-133.5 408,-114.5 316,-114.5"/>
<text text-anchor="middle" x="362" y="-121.5" font-family="Helvetica,sans-Serif" font-size="10.00">BCFaceToString</text>
</a>
</g>
</g>
<!-- Node15&#45;&gt;Node16 -->
<g id="edge18" class="edge">
<title>Node15&#45;&gt;Node16</title>
<path fill="none" stroke="midnightblue" d="M239.25,-94.15C260.5,-99.36 288.42,-106.21 312.17,-112.03"/>
<polygon fill="midnightblue" stroke="midnightblue" points="311.51,-115.47 322.06,-114.45 313.18,-108.67 311.51,-115.47"/>
</g>
<!-- Node17 -->
<g id="node17" class="node">
<title>Node17</title>
<g id="a_node17"><a xlink:href="io_8h.html#a1ac7631f5ff3a878c3f5788d6880c22c" target="_top" xlink:title="Searches a BC_Param linked list for a key and returns its value as a double.">
<polygon fill="none" stroke="black" points="311.5,-76.5 311.5,-95.5 412.5,-95.5 412.5,-76.5 311.5,-76.5"/>
<text text-anchor="middle" x="362" y="-83.5" font-family="Helvetica,sans-Serif" font-size="10.00">GetBCParamReal</text>
</a>
</g>
</g>
<!-- Node15&#45;&gt;Node17 -->
<g id="edge19" class="edge">
<title>Node15&#45;&gt;Node17</title>
<path fill="none" stroke="midnightblue" d="M239.25,-86C257.29,-86 280.14,-86 301.16,-86"/>
<polygon fill="midnightblue" stroke="midnightblue" points="301.31,-89.5 311.31,-86 301.31,-82.5 301.31,-89.5"/>
</g>
<!-- Node18 -->
<g id="node18" class="node">
<title>Node18</title>
<g id="a_node18"><a xlink:href="wallfunction_8h.html#a61e5145bbc7aa0f76c074b4e9e91e06b" target="_top" xlink:title=" ">
<polygon fill="none" stroke="black" points="343.5,-38.5 343.5,-57.5 380.5,-57.5 380.5,-38.5 343.5,-38.5"/>
<text text-anchor="middle" x="362" y="-45.5" font-family="Helvetica,sans-Serif" font-size="10.00">sign</text>
</a>
</g>
</g>
<!-- Node15&#45;&gt;Node18 -->
<g id="edge20" class="edge">
<title>Node15&#45;&gt;Node18</title>
<path fill="none" stroke="midnightblue" d="M239.25,-77.85C267.36,-70.96 307.16,-61.2 333.5,-54.74"/>
<polygon fill="midnightblue" stroke="midnightblue" points="334.35,-58.14 343.23,-52.36 332.68,-51.34 334.35,-58.14"/>
</g>
<!-- Node21 -->
<g id="node21" class="node">
<title>Node21</title>
<g id="a_node21"><a xlink:href="setup_8h.html#a25ce912d8aafa319a8c915cd350c7322" target="_top" xlink:title="Gets the global cell range for a rank, including boundary cells.">
<polygon fill="none" stroke="black" points="300,-0.5 300,-19.5 424,-19.5 424,-0.5 300,-0.5"/>
<text text-anchor="middle" x="362" y="-7.5" font-family="Helvetica,sans-Serif" font-size="10.00">GetGhostedCellRange</text>
</a>
</g>
</g>
<!-- Node20&#45;&gt;Node21 -->
<g id="edge23" class="edge">
<title>Node20&#45;&gt;Node21</title>
<path fill="none" stroke="midnightblue" d="M264.16,-10C272.55,-10 281.27,-10 289.89,-10"/>
<polygon fill="midnightblue" stroke="midnightblue" points="289.93,-13.5 299.93,-10 289.93,-6.5 289.93,-13.5"/>
</g>
<!-- Node22 -->
<g id="node22" class="node">
<title>Node22</title>
<g id="a_node22"><a xlink:href="setup_8c.html#a135027905841ed83f1a3ef2279d865cc" target="_top" xlink:title="Gets the global starting index of cells owned by this rank and the number of such cells.">
<polygon fill="none" stroke="black" points="461,-0.5 461,-19.5 578,-19.5 578,-0.5 461,-0.5"/>
<text text-anchor="middle" x="519.5" y="-7.5" font-family="Helvetica,sans-Serif" font-size="10.00">GetOwnedCellRange</text>
</a>
</g>
</g>
<!-- Node21&#45;&gt;Node22 -->
<g id="edge24" class="edge">
<title>Node21&#45;&gt;Node22</title>
<path fill="none" stroke="midnightblue" d="M424.01,-10C432.85,-10 442,-10 450.95,-10"/>
<polygon fill="midnightblue" stroke="midnightblue" points="450.97,-13.5 460.97,-10 450.97,-6.5 450.97,-13.5"/>
</g>
</g>
</svg>
        <g id="navigator" transform="translate(0 0)" fill="#404254">
                <rect fill="#f2f5e9" fill-opacity="0.5" stroke="#606060" stroke-width=".5" x="0" y="0" width="60" height="60"/>
                <use id="zoomplus" xlink:href="#zoomPlus" x="17" y="9" onmousedown="handleZoom(evt,'in')"/>
                <use id="zoomminus" xlink:href="#zoomMin" x="42" y="9" onmousedown="handleZoom(evt,'out')"/>
                <use id="reset" xlink:href="#resetDef" x="30" y="36" onmousedown="handleReset()"/>
                <g id="arrowUp" xlink:href="#dirArrow" transform="translate(30 24)" onmousedown="handlePan(0,-1)">
                  <use xlink:href="#rim" fill="#404040">
                        <set attributeName="fill" to="#808080" begin="arrowUp.mouseover" end="arrowUp.mouseout"/>
                  </use>
                  <path fill="none" stroke="white" stroke-width="1.5" d="M0,-3.0v7 M-2.5,-0.5L0,-3.0L2.5,-0.5"/>
                </g>
                <g id="arrowRight" xlink:href="#dirArrow" transform="rotate(90) translate(36 -43)" onmousedown="handlePan(1,0)">
                  <use xlink:href="#rim" fill="#404040">
                        <set attributeName="fill" to="#808080" begin="arrowRight.mouseover" end="arrowRight.mouseout"/>
                  </use>
                  <path fill="none" stroke="white" stroke-width="1.5" d="M0,-3.0v7 M-2.5,-0.5L0,-3.0L2.5,-0.5"/>
                </g>
                <g id="arrowDown" xlink:href="#dirArrow" transform="rotate(180) translate(-30 -48)" onmousedown="handlePan(0,1)">
                  <use xlink:href="#rim" fill="#404040">
                        <set attributeName="fill" to="#808080" begin="arrowDown.mouseover" end="arrowDown.mouseout"/>
                  </use>
                  <path fill="none" stroke="white" stroke-width="1.5" d="M0,-3.0v7 M-2.5,-0.5L0,-3.0L2.5,-0.5"/>
                </g>
                <g id="arrowLeft" xlink:href="#dirArrow" transform="rotate(270) translate(-36 17)" onmousedown="handlePan(-1,0)">
                  <use xlink:href="#rim" fill="#404040">
                        <set attributeName="fill" to="#808080" begin="arrowLeft.mouseover" end="arrowLeft.mouseout"/>
                  </use>
                  <path fill="none" stroke="white" stroke-width="1.5" d="M0,-3.0v7 M-2.5,-0.5L0,-3.0L2.5,-0.5"/>
                </g>
        </g>
        <svg viewBox="0 0 15 15" width="100%" height="30px" preserveAspectRatio="xMaxYMin meet">
         <g id="arrow_out" transform="scale(0.3 0.3)">
          <a xlink:href="initialcondition_8c_a51d0251f84a962a611ff0c0a8797a3e4_cgraph_org.svg" target="_base">
           <rect id="button" ry="5" rx="5" y="6" x="6" height="38" width="38"
                fill="#f2f5e9" fill-opacity="0.5" stroke="#606060" stroke-width="1.0"/>
           <path id="arrow"
             d="M 11.500037,31.436501 C 11.940474,20.09759 22.043105,11.32322 32.158766,21.979434 L 37.068811,17.246167 C 37.068811,17.246167 37.088388,32 37.088388,32 L 22.160133,31.978069 C 22.160133,31.978069 26.997745,27.140456 26.997745,27.140456 C 18.528582,18.264221 13.291696,25.230495 11.500037,31.436501 z"
             style="fill:#404040;"/>
          </a>
         </g>
        </svg>
</svg>
