<?xml version="1.0" encoding="UTF-8" standalone="no"?>
<!DOCTYPE svg PUBLIC "-//W3C//DTD SVG 1.1//EN"
 "http://www.w3.org/Graphics/SVG/1.1/DTD/svg11.dtd">
<!-- Generated by graphviz version 2.43.0 (0)
 -->
<!-- Title: InterpolateAllFieldsToSwarm Pages: 1 -->
<svg width="557pt" height="116pt"
 viewBox="0.00 0.00 557.00 116.00" xmlns="http://www.w3.org/2000/svg" xmlns:xlink="http://www.w3.org/1999/xlink">
<g id="graph0" class="graph" transform="scale(1 1) rotate(0) translate(4 112)">
<title>InterpolateAllFieldsToSwarm</title>
<!-- Node1 -->
<g id="node1" class="node">
<title>Node1</title>
<g id="a_node1"><a xlink:title="Interpolates all relevant fields from the DMDA to the DMSwarm.">
<polygon fill="#bfbfbf" stroke="black" points="0,-44.5 0,-63.5 155,-63.5 155,-44.5 0,-44.5"/>
<text text-anchor="middle" x="77.5" y="-51.5" font-family="Helvetica,sans-Serif" font-size="10.00">InterpolateAllFieldsToSwarm</text>
</a>
</g>
</g>
<!-- Node2 -->
<g id="node2" class="node">
<title>Node2</title>
<g id="a_node2"><a xlink:href="interpolation_8c.html#ad200d31b74c511e4388b757fb0359001" target="_top" xlink:title="Interpolates a cell&#45;centered field (scalar or vector) onto DMSwarm particles, using a robust,...">
<polygon fill="none" stroke="black" points="191,-44.5 191,-63.5 352,-63.5 352,-44.5 191,-44.5"/>
<text text-anchor="middle" x="271.5" y="-51.5" font-family="Helvetica,sans-Serif" font-size="10.00">InterpolateEulerFieldToSwarm</text>
</a>
</g>
</g>
<!-- Node1&#45;&gt;Node2 -->
<g id="edge1" class="edge">
<title>Node1&#45;&gt;Node2</title>
<path fill="none" stroke="midnightblue" d="M155.21,-54C163.53,-54 172.05,-54 180.5,-54"/>
<polygon fill="midnightblue" stroke="midnightblue" points="180.77,-57.5 190.77,-54 180.77,-50.5 180.77,-57.5"/>
</g>
<!-- Node3 -->
<g id="node3" class="node">
<title>Node3</title>
<g id="a_node3"><a xlink:href="logging_8h.html#a9585f583c260f40a73f2490914edc689" target="_top" xlink:title="Retrieves the current logging level from the environment variable LOG_LEVEL.">
<polygon fill="none" stroke="black" points="427.5,-88.5 427.5,-107.5 509.5,-107.5 509.5,-88.5 427.5,-88.5"/>
<text text-anchor="middle" x="468.5" y="-95.5" font-family="Helvetica,sans-Serif" font-size="10.00">get_log_level</text>
</a>
</g>
</g>
<!-- Node2&#45;&gt;Node3 -->
<g id="edge2" class="edge">
<title>Node2&#45;&gt;Node3</title>
<path fill="none" stroke="midnightblue" d="M314.81,-63.55C344.93,-70.34 385.53,-79.5 417.29,-86.67"/>
<polygon fill="midnightblue" stroke="midnightblue" points="416.74,-90.14 427.27,-88.92 418.29,-83.31 416.74,-90.14"/>
</g>
<!-- Node4 -->
<g id="node4" class="node">
<title>Node4</title>
<g id="a_node4"><a xlink:href="interpolation_8c.html#a556572fc2b40494da8bdb48d977dbaa1" target="_top" xlink:title="Interpolates a single field (scalar or vector) for one particle, storing the result in a swarm array.">
<polygon fill="none" stroke="black" points="388,-39 388,-69 549,-69 549,-39 388,-39"/>
<text text-anchor="start" x="396" y="-57" font-family="Helvetica,sans-Serif" font-size="10.00">InterpolateEulerFieldToSwarm</text>
<text text-anchor="middle" x="468.5" y="-46" font-family="Helvetica,sans-Serif" font-size="10.00">ForParticle</text>
</a>
</g>
</g>
<!-- Node2&#45;&gt;Node4 -->
<g id="edge3" class="edge">
<title>Node2&#45;&gt;Node4</title>
<path fill="none" stroke="midnightblue" d="M352.1,-54C360.57,-54 369.24,-54 377.82,-54"/>
<polygon fill="midnightblue" stroke="midnightblue" points="377.84,-57.5 387.84,-54 377.84,-50.5 377.84,-57.5"/>
</g>
<!-- Node5 -->
<g id="node5" class="node">
<title>Node5</title>
<g id="a_node5"><a xlink:href="logging_8h.html#a2358badbcda33fc9d80ebd6a59d2a2cd" target="_top" xlink:title="Checks if a given function is in the allow&#45;list.">
<polygon fill="none" stroke="black" points="412,-0.5 412,-19.5 525,-19.5 525,-0.5 412,-0.5"/>
<text text-anchor="middle" x="468.5" y="-7.5" font-family="Helvetica,sans-Serif" font-size="10.00">is_function_allowed</text>
</a>
</g>
</g>
<!-- Node2&#45;&gt;Node5 -->
<g id="edge4" class="edge">
<title>Node2&#45;&gt;Node5</title>
<path fill="none" stroke="midnightblue" d="M314.81,-44.45C344.33,-37.79 383.9,-28.86 415.36,-21.76"/>
<polygon fill="midnightblue" stroke="midnightblue" points="416.29,-25.14 425.27,-19.53 414.75,-18.32 416.29,-25.14"/>
</g>
</g>
</svg>
