<?xml version="1.0" encoding="UTF-8" standalone="no"?>
<!DOCTYPE svg PUBLIC "-//W3C//DTD SVG 1.1//EN"
 "http://www.w3.org/Graphics/SVG/1.1/DTD/svg11.dtd">
<!-- Generated by graphviz version 2.43.0 (0)
 -->
<!-- Title: InterpolateEulerFieldToSwarm Pages: 1 -->
<svg width="366pt" height="116pt"
 viewBox="0.00 0.00 366.00 116.00" xmlns="http://www.w3.org/2000/svg" xmlns:xlink="http://www.w3.org/1999/xlink">
<g id="graph0" class="graph" transform="scale(1 1) rotate(0) translate(4 112)">
<title>InterpolateEulerFieldToSwarm</title>
<!-- Node1 -->
<g id="node1" class="node">
<title>Node1</title>
<g id="a_node1"><a xlink:title="Interpolates a cell&#45;centered field (scalar or vector) onto DMSwarm particles, using a robust,...">
<polygon fill="#bfbfbf" stroke="black" points="0,-44.5 0,-63.5 161,-63.5 161,-44.5 0,-44.5"/>
<text text-anchor="middle" x="80.5" y="-51.5" font-family="Helvetica,sans-Serif" font-size="10.00">InterpolateEulerFieldToSwarm</text>
</a>
</g>
</g>
<!-- Node2 -->
<g id="node2" class="node">
<title>Node2</title>
<g id="a_node2"><a xlink:href="logging_8h.html#a9585f583c260f40a73f2490914edc689" target="_top" xlink:title="Retrieves the current logging level from the environment variable LOG_LEVEL.">
<polygon fill="none" stroke="black" points="236.5,-88.5 236.5,-107.5 318.5,-107.5 318.5,-88.5 236.5,-88.5"/>
<text text-anchor="middle" x="277.5" y="-95.5" font-family="Helvetica,sans-Serif" font-size="10.00">get_log_level</text>
</a>
</g>
</g>
<!-- Node1&#45;&gt;Node2 -->
<g id="edge1" class="edge">
<title>Node1&#45;&gt;Node2</title>
<path fill="none" stroke="midnightblue" d="M123.81,-63.55C153.93,-70.34 194.53,-79.5 226.29,-86.67"/>
<polygon fill="midnightblue" stroke="midnightblue" points="225.74,-90.14 236.27,-88.92 227.29,-83.31 225.74,-90.14"/>
</g>
<!-- Node3 -->
<g id="node3" class="node">
<title>Node3</title>
<g id="a_node3"><a xlink:href="interpolation_8c.html#a556572fc2b40494da8bdb48d977dbaa1" target="_top" xlink:title="Interpolates a single field (scalar or vector) for one particle, storing the result in a swarm array.">
<polygon fill="none" stroke="black" points="197,-39 197,-69 358,-69 358,-39 197,-39"/>
<text text-anchor="start" x="205" y="-57" font-family="Helvetica,sans-Serif" font-size="10.00">InterpolateEulerFieldToSwarm</text>
<text text-anchor="middle" x="277.5" y="-46" font-family="Helvetica,sans-Serif" font-size="10.00">ForParticle</text>
</a>
</g>
</g>
<!-- Node1&#45;&gt;Node3 -->
<g id="edge2" class="edge">
<title>Node1&#45;&gt;Node3</title>
<path fill="none" stroke="midnightblue" d="M161.1,-54C169.57,-54 178.24,-54 186.82,-54"/>
<polygon fill="midnightblue" stroke="midnightblue" points="186.84,-57.5 196.84,-54 186.84,-50.5 186.84,-57.5"/>
</g>
<!-- Node4 -->
<g id="node4" class="node">
<title>Node4</title>
<g id="a_node4"><a xlink:href="logging_8h.html#a2358badbcda33fc9d80ebd6a59d2a2cd" target="_top" xlink:title="Checks if a given function is in the allow&#45;list.">
<polygon fill="none" stroke="black" points="221,-0.5 221,-19.5 334,-19.5 334,-0.5 221,-0.5"/>
<text text-anchor="middle" x="277.5" y="-7.5" font-family="Helvetica,sans-Serif" font-size="10.00">is_function_allowed</text>
</a>
</g>
</g>
<!-- Node1&#45;&gt;Node4 -->
<g id="edge3" class="edge">
<title>Node1&#45;&gt;Node4</title>
<path fill="none" stroke="midnightblue" d="M123.81,-44.45C153.33,-37.79 192.9,-28.86 224.36,-21.76"/>
<polygon fill="midnightblue" stroke="midnightblue" points="225.29,-25.14 234.27,-19.53 223.75,-18.32 225.29,-25.14"/>
</g>
</g>
</svg>
