<?xml version="1.0" encoding="UTF-8" standalone="no"?>
<!DOCTYPE svg PUBLIC "-//W3C//DTD SVG 1.1//EN"
 "http://www.w3.org/Graphics/SVG/1.1/DTD/svg11.dtd">
<!-- Generated by graphviz version 2.43.0 (0)
 -->
<!-- Title: CheckDataFile Pages: 1 -->
<svg width="997pt" height="180pt"
 viewBox="0.00 0.00 997.00 180.00" xmlns="http://www.w3.org/2000/svg" xmlns:xlink="http://www.w3.org/1999/xlink">
<g id="graph0" class="graph" transform="scale(1 1) rotate(0) translate(4 176)">
<title>CheckDataFile</title>
<!-- Node1 -->
<g id="node1" class="node">
<title>Node1</title>
<g id="a_node1"><a xlink:title="Checks for a data file&#39;s existence in a parallel&#45;safe manner.">
<polygon fill="#bfbfbf" stroke="black" points="903,-38.5 903,-57.5 989,-57.5 989,-38.5 903,-38.5"/>
<text text-anchor="middle" x="946" y="-45.5" font-family="Helvetica,sans-Serif" font-size="10.00">CheckDataFile</text>
</a>
</g>
</g>
<!-- Node2 -->
<g id="node2" class="node">
<title>Node2</title>
<g id="a_node2"><a xlink:href="io_8c.html#ac414e8adc74c5fb5e149b42c95baf495" target="_top" xlink:title="Checks for and reads an optional Eulerian field from a file into a Vec.">
<polygon fill="none" stroke="black" points="745,-76.5 745,-95.5 850,-95.5 850,-76.5 745,-76.5"/>
<text text-anchor="middle" x="797.5" y="-83.5" font-family="Helvetica,sans-Serif" font-size="10.00">ReadOptionalField</text>
</a>
</g>
</g>
<!-- Node1&#45;&gt;Node2 -->
<g id="edge1" class="edge">
<title>Node1&#45;&gt;Node2</title>
<path fill="none" stroke="midnightblue" d="M898.3,-60.11C877.9,-65.4 854.32,-71.52 835.2,-76.48"/>
<polygon fill="midnightblue" stroke="midnightblue" points="899.23,-63.49 908.03,-57.59 897.47,-56.71 899.23,-63.49"/>
</g>
<!-- Node12 -->
<g id="node12" class="node">
<title>Node12</title>
<g id="a_node12"><a xlink:href="io_8c.html#aed3ed919a52fa88c62e1201b4316b2c4" target="_top" xlink:title="Checks for and reads an optional DMSwarm field from a file.">
<polygon fill="none" stroke="black" points="728,-19.5 728,-38.5 867,-38.5 867,-19.5 728,-19.5"/>
<text text-anchor="middle" x="797.5" y="-26.5" font-family="Helvetica,sans-Serif" font-size="10.00">ReadOptionalSwarmField</text>
</a>
</g>
</g>
<!-- Node1&#45;&gt;Node12 -->
<g id="edge15" class="edge">
<title>Node1&#45;&gt;Node12</title>
<path fill="none" stroke="midnightblue" d="M892.5,-41.19C884.31,-40.13 875.75,-39.02 867.27,-37.92"/>
<polygon fill="midnightblue" stroke="midnightblue" points="892.26,-44.69 902.63,-42.5 893.16,-37.75 892.26,-44.69"/>
</g>
<!-- Node3 -->
<g id="node3" class="node">
<title>Node3</title>
<g id="a_node3"><a xlink:href="io_8c.html#a45ad89f26c78131d2990f09126abba4b" target="_top" xlink:title="Reads LES&#45;related fields.">
<polygon fill="none" stroke="black" points="590,-152.5 590,-171.5 676,-171.5 676,-152.5 590,-152.5"/>
<text text-anchor="middle" x="633" y="-159.5" font-family="Helvetica,sans-Serif" font-size="10.00">ReadLESFields</text>
</a>
</g>
</g>
<!-- Node2&#45;&gt;Node3 -->
<g id="edge2" class="edge">
<title>Node2&#45;&gt;Node3</title>
<path fill="none" stroke="midnightblue" d="M769.23,-100.22C748.29,-110.98 718.55,-125.92 692,-138 680.99,-143.01 668.62,-148.19 658.15,-152.45"/>
<polygon fill="midnightblue" stroke="midnightblue" points="770.91,-103.29 778.19,-95.6 767.7,-97.07 770.91,-103.29"/>
</g>
<!-- Node4 -->
<g id="node4" class="node">
<title>Node4</title>
<g id="a_node4"><a xlink:href="io_8c.html#a3a009dabc71ccfa59f196e1bc045de45" target="_top" xlink:title="Reads simulation fields from files into their respective PETSc vectors.">
<polygon fill="none" stroke="black" points="416,-76.5 416,-95.5 538,-95.5 538,-76.5 416,-76.5"/>
<text text-anchor="middle" x="477" y="-83.5" font-family="Helvetica,sans-Serif" font-size="10.00">ReadSimulationFields</text>
</a>
</g>
</g>
<!-- Node2&#45;&gt;Node4 -->
<g id="edge12" class="edge">
<title>Node2&#45;&gt;Node4</title>
<path fill="none" stroke="midnightblue" d="M743.99,-97.45C727.44,-100.55 709.03,-103.46 692,-105 639.77,-109.71 626.19,-110.12 574,-105 555.06,-103.14 534.32,-99.28 516.98,-95.51"/>
<polygon fill="midnightblue" stroke="midnightblue" points="744.87,-100.85 754.03,-95.51 743.55,-93.97 744.87,-100.85"/>
</g>
<!-- Node10 -->
<g id="node10" class="node">
<title>Node10</title>
<g id="a_node10"><a xlink:href="io_8c.html#a19e2e0b57afae458bae068610141c031" target="_top" xlink:title="Reads RANS&#45;related fields.">
<polygon fill="none" stroke="black" points="585,-76.5 585,-95.5 681,-95.5 681,-76.5 585,-76.5"/>
<text text-anchor="middle" x="633" y="-83.5" font-family="Helvetica,sans-Serif" font-size="10.00">ReadRANSFields</text>
</a>
</g>
</g>
<!-- Node2&#45;&gt;Node10 -->
<g id="edge10" class="edge">
<title>Node2&#45;&gt;Node10</title>
<path fill="none" stroke="midnightblue" d="M734.42,-86C716.78,-86 697.85,-86 681.24,-86"/>
<polygon fill="midnightblue" stroke="midnightblue" points="734.64,-89.5 744.64,-86 734.64,-82.5 734.64,-89.5"/>
</g>
<!-- Node11 -->
<g id="node11" class="node">
<title>Node11</title>
<g id="a_node11"><a xlink:href="io_8c.html#a03f5b76975eea55434d764a23fd42623" target="_top" xlink:title="Reads statistical fields for averaging purposes.">
<polygon fill="none" stroke="black" points="574,-38.5 574,-57.5 692,-57.5 692,-38.5 574,-38.5"/>
<text text-anchor="middle" x="633" y="-45.5" font-family="Helvetica,sans-Serif" font-size="10.00">ReadStatisticalFields</text>
</a>
</g>
</g>
<!-- Node2&#45;&gt;Node11 -->
<g id="edge13" class="edge">
<title>Node2&#45;&gt;Node11</title>
<path fill="none" stroke="midnightblue" d="M745.63,-74.1C722.79,-68.76 696.2,-62.55 674.71,-57.52"/>
<polygon fill="midnightblue" stroke="midnightblue" points="744.96,-77.54 755.49,-76.41 746.55,-70.73 744.96,-77.54"/>
</g>
<!-- Node3&#45;&gt;Node4 -->
<g id="edge3" class="edge">
<title>Node3&#45;&gt;Node4</title>
<path fill="none" stroke="midnightblue" d="M597.85,-148.56C589.95,-145.26 581.62,-141.63 574,-138 545.42,-124.39 513.28,-106.41 494.38,-95.55"/>
<polygon fill="midnightblue" stroke="midnightblue" points="596.62,-151.84 607.2,-152.4 599.28,-145.36 596.62,-151.84"/>
</g>
<!-- Node5 -->
<g id="node5" class="node">
<title>Node5</title>
<g id="a_node5"><a xlink:href="simulation_8c.html#a5cfb2f783604af7f20171d19f969d5d3" target="_top" xlink:title="Executes the main time&#45;marching loop for the coupled Euler&#45;Lagrange simulation.">
<polygon fill="none" stroke="black" points="86,-114.5 86,-133.5 197,-133.5 197,-114.5 86,-114.5"/>
<text text-anchor="middle" x="141.5" y="-121.5" font-family="Helvetica,sans-Serif" font-size="10.00">AdvanceSimulation</text>
</a>
</g>
</g>
<!-- Node4&#45;&gt;Node5 -->
<g id="edge4" class="edge">
<title>Node4&#45;&gt;Node5</title>
<path fill="none" stroke="midnightblue" d="M423.21,-97.59C409.22,-100.34 394.08,-103.05 380,-105 317.72,-113.62 245.67,-118.71 197.41,-121.41"/>
<polygon fill="midnightblue" stroke="midnightblue" points="424.06,-100.99 433.17,-95.58 422.67,-94.12 424.06,-100.99"/>
</g>
<!-- Node7 -->
<g id="node7" class="node">
<title>Node7</title>
<g id="a_node7"><a xlink:href="postprocessor_8c.html#a3c04138a5bfe5d72780bb7e82a18e627" target="_top" xlink:title=" ">
<polygon fill="none" stroke="black" points="290.5,-38.5 290.5,-57.5 331.5,-57.5 331.5,-38.5 290.5,-38.5"/>
<text text-anchor="middle" x="311" y="-45.5" font-family="Helvetica,sans-Serif" font-size="10.00">main</text>
</a>
</g>
</g>
<!-- Node4&#45;&gt;Node7 -->
<g id="edge6" class="edge">
<title>Node4&#45;&gt;Node7</title>
<path fill="none" stroke="midnightblue" d="M424.63,-74.1C393.03,-66.78 354.35,-57.81 331.52,-52.52"/>
<polygon fill="midnightblue" stroke="midnightblue" points="424.08,-77.56 434.62,-76.41 425.66,-70.74 424.08,-77.56"/>
</g>
<!-- Node8 -->
<g id="node8" class="node">
<title>Node8</title>
<g id="a_node8"><a xlink:href="initialcondition_8c.html#a095ad9c41ee9300bcfa152c411835a91" target="_top" xlink:title="(HELPER) Reads fluid state for all blocks from restart files.">
<polygon fill="none" stroke="black" points="242,-76.5 242,-95.5 380,-95.5 380,-76.5 242,-76.5"/>
<text text-anchor="middle" x="311" y="-83.5" font-family="Helvetica,sans-Serif" font-size="10.00">SetInitialFluidState_Load</text>
</a>
</g>
</g>
<!-- Node4&#45;&gt;Node8 -->
<g id="edge7" class="edge">
<title>Node4&#45;&gt;Node8</title>
<path fill="none" stroke="midnightblue" d="M405.66,-86C397.21,-86 388.59,-86 380.17,-86"/>
<polygon fill="midnightblue" stroke="midnightblue" points="405.86,-89.5 415.86,-86 405.86,-82.5 405.86,-89.5"/>
</g>
<!-- Node6 -->
<g id="node6" class="node">
<title>Node6</title>
<g id="a_node6"><a xlink:href="picsolver_8c.html#a3c04138a5bfe5d72780bb7e82a18e627" target="_top" xlink:title=" ">
<polygon fill="none" stroke="black" points="0,-76.5 0,-95.5 41,-95.5 41,-76.5 0,-76.5"/>
<text text-anchor="middle" x="20.5" y="-83.5" font-family="Helvetica,sans-Serif" font-size="10.00">main</text>
</a>
</g>
</g>
<!-- Node5&#45;&gt;Node6 -->
<g id="edge5" class="edge">
<title>Node5&#45;&gt;Node6</title>
<path fill="none" stroke="midnightblue" d="M97.78,-111.47C90.82,-109.35 83.7,-107.15 77,-105 65.07,-101.18 51.79,-96.64 41.22,-92.96"/>
<polygon fill="midnightblue" stroke="midnightblue" points="97.21,-114.95 107.79,-114.48 99.23,-108.25 97.21,-114.95"/>
</g>
<!-- Node9 -->
<g id="node9" class="node">
<title>Node9</title>
<g id="a_node9"><a xlink:href="initialcondition_8c.html#ad0dd7d3f2528b6a7802fcd551e88ea99" target="_top" xlink:title="High&#45;level orchestrator to set the complete initial state of the Eulerian solver.">
<polygon fill="none" stroke="black" points="79.5,-76.5 79.5,-95.5 203.5,-95.5 203.5,-76.5 79.5,-76.5"/>
<text text-anchor="middle" x="141.5" y="-83.5" font-family="Helvetica,sans-Serif" font-size="10.00">InitializeEulerianState</text>
</a>
</g>
</g>
<!-- Node8&#45;&gt;Node9 -->
<g id="edge8" class="edge">
<title>Node8&#45;&gt;Node9</title>
<path fill="none" stroke="midnightblue" d="M231.68,-86C222.24,-86 212.71,-86 203.56,-86"/>
<polygon fill="midnightblue" stroke="midnightblue" points="231.87,-89.5 241.87,-86 231.87,-82.5 231.87,-89.5"/>
</g>
<!-- Node9&#45;&gt;Node6 -->
<g id="edge9" class="edge">
<title>Node9&#45;&gt;Node6</title>
<path fill="none" stroke="midnightblue" d="M68.99,-86C58.84,-86 49.18,-86 41.25,-86"/>
<polygon fill="midnightblue" stroke="midnightblue" points="69.26,-89.5 79.26,-86 69.26,-82.5 69.26,-89.5"/>
</g>
<!-- Node10&#45;&gt;Node4 -->
<g id="edge11" class="edge">
<title>Node10&#45;&gt;Node4</title>
<path fill="none" stroke="midnightblue" d="M574.68,-86C562.75,-86 550.15,-86 538.12,-86"/>
<polygon fill="midnightblue" stroke="midnightblue" points="574.96,-89.5 584.96,-86 574.96,-82.5 574.96,-89.5"/>
</g>
<!-- Node11&#45;&gt;Node4 -->
<g id="edge14" class="edge">
<title>Node11&#45;&gt;Node4</title>
<path fill="none" stroke="midnightblue" d="M583.21,-60.04C561.69,-65.35 536.77,-71.5 516.58,-76.48"/>
<polygon fill="midnightblue" stroke="midnightblue" points="584.27,-63.38 593.14,-57.59 582.59,-56.59 584.27,-63.38"/>
</g>
<!-- Node13 -->
<g id="node13" class="node">
<title>Node13</title>
<g id="a_node13"><a xlink:href="io_8c.html#a64286adf953993b2a0c5c3fbee40d5a2" target="_top" xlink:title="Reads multiple fields into a DMSwarm, gracefully handling missing optional files.">
<polygon fill="none" stroke="black" points="419,-0.5 419,-19.5 535,-19.5 535,-0.5 419,-0.5"/>
<text text-anchor="middle" x="477" y="-7.5" font-family="Helvetica,sans-Serif" font-size="10.00">ReadAllSwarmFields</text>
</a>
</g>
</g>
<!-- Node12&#45;&gt;Node13 -->
<g id="edge16" class="edge">
<title>Node12&#45;&gt;Node13</title>
<path fill="none" stroke="midnightblue" d="M717.79,-24.3C661.17,-20.93 586.11,-16.45 535.15,-13.41"/>
<polygon fill="midnightblue" stroke="midnightblue" points="717.59,-27.8 727.78,-24.9 718.01,-20.81 717.59,-27.8"/>
</g>
<!-- Node13&#45;&gt;Node7 -->
<g id="edge19" class="edge">
<title>Node13&#45;&gt;Node7</title>
<path fill="none" stroke="midnightblue" d="M424.63,-21.9C393.03,-29.22 354.35,-38.19 331.52,-43.48"/>
<polygon fill="midnightblue" stroke="midnightblue" points="425.66,-25.26 434.62,-19.59 424.08,-18.44 425.66,-25.26"/>
</g>
<!-- Node14 -->
<g id="node14" class="node">
<title>Node14</title>
<g id="a_node14"><a xlink:href="ParticleSwarm_8c.html#ada215a5db25227a8fd2cd2596e7d3e57" target="_top" xlink:title="Perform particle swarm initialization, particle&#45;grid interaction, and related operations.">
<polygon fill="none" stroke="black" points="77,-19.5 77,-38.5 206,-38.5 206,-19.5 77,-19.5"/>
<text text-anchor="middle" x="141.5" y="-26.5" font-family="Helvetica,sans-Serif" font-size="10.00">InitializeParticleSwarm</text>
</a>
</g>
</g>
<!-- Node13&#45;&gt;Node14 -->
<g id="edge17" class="edge">
<title>Node13&#45;&gt;Node14</title>
<path fill="none" stroke="midnightblue" d="M408.68,-13.84C349.57,-17.2 264.19,-22.07 206.18,-25.37"/>
<polygon fill="midnightblue" stroke="midnightblue" points="408.88,-17.33 418.67,-13.27 408.49,-10.34 408.88,-17.33"/>
</g>
<!-- Node14&#45;&gt;Node6 -->
<g id="edge18" class="edge">
<title>Node14&#45;&gt;Node6</title>
<path fill="none" stroke="midnightblue" d="M111.43,-42.92C89.57,-53.39 60.22,-67.45 41.09,-76.62"/>
<polygon fill="midnightblue" stroke="midnightblue" points="113.08,-46.02 120.58,-38.54 110.05,-39.7 113.08,-46.02"/>
</g>
</g>
</svg>
