<?xml version="1.0" encoding="UTF-8" standalone="no"?>
<!DOCTYPE svg PUBLIC "-//W3C//DTD SVG 1.1//EN"
 "http://www.w3.org/Graphics/SVG/1.1/DTD/svg11.dtd">
<!-- Generated by graphviz version 2.43.0 (0)
 -->
<!-- Title: ReadStatisticalFields Pages: 1 -->
<svg width="390pt" height="66pt"
 viewBox="0.00 0.00 390.00 66.00" xmlns="http://www.w3.org/2000/svg" xmlns:xlink="http://www.w3.org/1999/xlink">
<g id="graph0" class="graph" transform="scale(1 1) rotate(0) translate(4 62)">
<title>ReadStatisticalFields</title>
<!-- Node1 -->
<g id="node1" class="node">
<title>Node1</title>
<g id="a_node1"><a xlink:title="Reads statistical fields used for time&#45;averaged simulations.">
<polygon fill="#bfbfbf" stroke="black" points="0,-19.5 0,-38.5 118,-38.5 118,-19.5 0,-19.5"/>
<text text-anchor="middle" x="59" y="-26.5" font-family="Helvetica,sans-Serif" font-size="10.00">ReadStatisticalFields</text>
</a>
</g>
</g>
<!-- Node2 -->
<g id="node2" class="node">
<title>Node2</title>
<g id="a_node2"><a xlink:href="io_8c.html#ac414e8adc74c5fb5e149b42c95baf495" target="_top" xlink:title="Checks for and reads an optional Eulerian field from a file into a Vec.">
<polygon fill="none" stroke="black" points="154,-19.5 154,-38.5 259,-38.5 259,-19.5 154,-19.5"/>
<text text-anchor="middle" x="206.5" y="-26.5" font-family="Helvetica,sans-Serif" font-size="10.00">ReadOptionalField</text>
</a>
</g>
</g>
<!-- Node1&#45;&gt;Node2 -->
<g id="edge1" class="edge">
<title>Node1&#45;&gt;Node2</title>
<path fill="none" stroke="midnightblue" d="M118.34,-29C126.66,-29 135.24,-29 143.62,-29"/>
<polygon fill="midnightblue" stroke="midnightblue" points="143.72,-32.5 153.72,-29 143.72,-25.5 143.72,-32.5"/>
</g>
<!-- Node3 -->
<g id="node3" class="node">
<title>Node3</title>
<g id="a_node3"><a xlink:href="io_8c.html#ab7d7097c8ad047feb1d460e4694b8b4f" target="_top" xlink:title="Checks for a data file&#39;s existence in a parallel&#45;safe manner.">
<polygon fill="none" stroke="black" points="295.5,-38.5 295.5,-57.5 381.5,-57.5 381.5,-38.5 295.5,-38.5"/>
<text text-anchor="middle" x="338.5" y="-45.5" font-family="Helvetica,sans-Serif" font-size="10.00">CheckDataFile</text>
</a>
</g>
</g>
<!-- Node2&#45;&gt;Node3 -->
<g id="edge2" class="edge">
<title>Node2&#45;&gt;Node3</title>
<path fill="none" stroke="midnightblue" d="M259.25,-36.56C267.71,-37.8 276.48,-39.08 284.96,-40.32"/>
<polygon fill="midnightblue" stroke="midnightblue" points="284.71,-43.82 295.11,-41.8 285.72,-36.89 284.71,-43.82"/>
</g>
<!-- Node4 -->
<g id="node4" class="node">
<title>Node4</title>
<g id="a_node4"><a xlink:href="io_8c.html#a570806d7e0694b5d996e0c6018b48908" target="_top" xlink:title="Reads data for a specific field from a file into the provided vector.">
<polygon fill="none" stroke="black" points="295,-0.5 295,-19.5 382,-19.5 382,-0.5 295,-0.5"/>
<text text-anchor="middle" x="338.5" y="-7.5" font-family="Helvetica,sans-Serif" font-size="10.00">ReadFieldData</text>
</a>
</g>
</g>
<!-- Node2&#45;&gt;Node4 -->
<g id="edge3" class="edge">
<title>Node2&#45;&gt;Node4</title>
<path fill="none" stroke="midnightblue" d="M259.25,-21.44C267.61,-20.21 276.27,-18.95 284.65,-17.72"/>
<polygon fill="midnightblue" stroke="midnightblue" points="285.31,-21.17 294.7,-16.26 284.3,-14.24 285.31,-21.17"/>
</g>
</g>
</svg>
