<?xml version="1.0" encoding="UTF-8" standalone="no"?>
<!DOCTYPE svg PUBLIC "-//W3C//DTD SVG 1.1//EN"
 "http://www.w3.org/Graphics/SVG/1.1/DTD/svg11.dtd">
<!-- Generated by graphviz version 2.43.0 (0)
 -->
<!-- Title: ReadFieldData Pages: 1 -->
<!--zoomable 294 -->
<svg id="main" version="1.1" xmlns="http://www.w3.org/2000/svg" xmlns:xlink="http://www.w3.org/1999/xlink" xml:space="preserve" onload="init(evt)">
<style type="text/css"><![CDATA[
.edge:hover path { stroke: red; }
.edge:hover polygon { stroke: red; fill: red; }
]]></style>
<script type="text/javascript"><![CDATA[
var edges = document.getElementsByTagName('g');
if (edges && edges.length) {
  for (var i=0;i<edges.length;i++) {
    if (edges[i].id.substr(0,4)=='edge') {
      edges[i].setAttribute('class','edge');
    }
  }
}
]]></script>
        <defs>
                <circle id="rim" cx="0" cy="0" r="7"/>
                <circle id="rim2" cx="0" cy="0" r="3.5"/>
                <g id="zoomPlus">
                        <use xlink:href="#rim" fill="#404040">
                                <set attributeName="fill" to="#808080" begin="zoomplus.mouseover" end="zoomplus.mouseout"/>
                        </use>
                        <path d="M-4,0h8M0,-4v8" fill="none" stroke="white" stroke-width="1.5" pointer-events="none"/>
                </g>
                <g id="zoomMin">
                        <use xlink:href="#rim" fill="#404040">
                                <set attributeName="fill" to="#808080" begin="zoomminus.mouseover" end="zoomminus.mouseout"/>
                        </use>
                        <path d="M-4,0h8" fill="none" stroke="white" stroke-width="1.5" pointer-events="none"/>
                </g>
                <g id="dirArrow">
                        <path fill="none" stroke="white" stroke-width="1.5" d="M0,-3.0v7 M-2.5,-0.5L0,-3.0L2.5,-0.5"/>
                </g>
               <g id="resetDef">
                       <use xlink:href="#rim2" fill="#404040">
                               <set attributeName="fill" to="#808080" begin="reset.mouseover" end="reset.mouseout"/>
                       </use>
               </g>
        </defs>

<script type="text/javascript">
var viewWidth = 1008;
var viewHeight = 294;
var sectionId = 'dynsection-6';
</script>
<script xlink:href="svgpan.js"/>
<svg id="graph" class="graph">
<g id="viewport">
<title>ReadFieldData</title>
<!-- Node1 -->
<g id="node1" class="node">
<title>Node1</title>
<g id="a_node1"><a xlink:title="Reads data for a specific field from a file into the provided vector.">
<polygon fill="#bfbfbf" stroke="black" points="913,-95.5 913,-114.5 1000,-114.5 1000,-95.5 913,-95.5"/>
<text text-anchor="middle" x="956.5" y="-102.5" font-family="Helvetica,sans-Serif" font-size="10.00">ReadFieldData</text>
</a>
</g>
</g>
<!-- Node2 -->
<g id="node2" class="node">
<title>Node2</title>
<g id="a_node2"><a xlink:href="io_8c.html#a9b18cb531c659ac173987ed73b1c1d24" target="_top" xlink:title="Reads a named field from file into a PETSc Vec, then gathers it to rank 0.">
<polygon fill="none" stroke="black" points="749,-209.5 749,-228.5 877,-228.5 877,-209.5 749,-209.5"/>
<text text-anchor="middle" x="813" y="-216.5" font-family="Helvetica,sans-Serif" font-size="10.00">ReadFieldDataToRank0</text>
</a>
</g>
</g>
<!-- Node1&#45;&gt;Node2 -->
<g id="edge1" class="edge">
<title>Node1&#45;&gt;Node2</title>
<path fill="none" stroke="midnightblue" d="M944.92,-123.49C931.71,-144.95 907.13,-179.97 877,-200 871.2,-203.86 864.58,-206.95 857.87,-209.44"/>
<polygon fill="midnightblue" stroke="midnightblue" points="948.06,-125.06 950.17,-114.68 942.04,-121.48 948.06,-125.06"/>
</g>
<!-- Node3 -->
<g id="node3" class="node">
<title>Node3</title>
<g id="a_node3"><a xlink:href="io_8c.html#ac414e8adc74c5fb5e149b42c95baf495" target="_top" xlink:title="Checks for and reads an optional Eulerian field from a file into a Vec.">
<polygon fill="none" stroke="black" points="760.5,-171.5 760.5,-190.5 865.5,-190.5 865.5,-171.5 760.5,-171.5"/>
<text text-anchor="middle" x="813" y="-178.5" font-family="Helvetica,sans-Serif" font-size="10.00">ReadOptionalField</text>
</a>
</g>
</g>
<!-- Node1&#45;&gt;Node3 -->
<g id="edge2" class="edge">
<title>Node1&#45;&gt;Node3</title>
<path fill="none" stroke="midnightblue" d="M928.59,-119.46C900.16,-134.72 856.15,-158.36 831.78,-171.45"/>
<polygon fill="midnightblue" stroke="midnightblue" points="930.43,-122.44 937.58,-114.63 927.11,-116.27 930.43,-122.44"/>
</g>
<!-- Node5 -->
<g id="node5" class="node">
<title>Node5</title>
<g id="a_node5"><a xlink:href="io_8c.html#a3a009dabc71ccfa59f196e1bc045de45" target="_top" xlink:title="Reads simulation fields from files into their respective PETSc vectors.">
<polygon fill="none" stroke="black" points="416,-171.5 416,-190.5 538,-190.5 538,-171.5 416,-171.5"/>
<text text-anchor="middle" x="477" y="-178.5" font-family="Helvetica,sans-Serif" font-size="10.00">ReadSimulationFields</text>
</a>
</g>
</g>
<!-- Node1&#45;&gt;Node5 -->
<g id="edge17" class="edge">
<title>Node1&#45;&gt;Node5</title>
<path fill="none" stroke="midnightblue" d="M902.75,-105.66C828.42,-107.61 689.06,-115.08 574,-143 546.48,-149.68 516.36,-162.59 497.33,-171.49"/>
<polygon fill="midnightblue" stroke="midnightblue" points="902.89,-109.15 912.8,-105.41 902.72,-102.15 902.89,-109.15"/>
</g>
<!-- Node13 -->
<g id="node13" class="node">
<title>Node13</title>
<g id="a_node13"><a xlink:href="io_8c.html#abbdec83c0db92b3f9a78ccaf8ec06d60" target="_top" xlink:title="Reads coordinate data (for particles) from file into a PETSc Vec, then gathers it to rank 0.">
<polygon fill="none" stroke="black" points="749.5,-76.5 749.5,-95.5 876.5,-95.5 876.5,-76.5 749.5,-76.5"/>
<text text-anchor="middle" x="813" y="-83.5" font-family="Helvetica,sans-Serif" font-size="10.00">ReadPositionsFromFile</text>
</a>
</g>
</g>
<!-- Node1&#45;&gt;Node13 -->
<g id="edge16" class="edge">
<title>Node1&#45;&gt;Node13</title>
<path fill="none" stroke="midnightblue" d="M902.53,-97.89C894.05,-96.75 885.21,-95.56 876.53,-94.4"/>
<polygon fill="midnightblue" stroke="midnightblue" points="902.28,-101.39 912.66,-99.25 903.22,-94.45 902.28,-101.39"/>
</g>
<!-- Node14 -->
<g id="node14" class="node">
<title>Node14</title>
<g id="a_node14"><a xlink:href="io_8c.html#a84fff45b8cbd148ed2429ba8fe12428f" target="_top" xlink:title="Reads data from a file into a specified field of a PETSc DMSwarm.">
<polygon fill="none" stroke="black" points="764,-38.5 764,-57.5 862,-57.5 862,-38.5 764,-38.5"/>
<text text-anchor="middle" x="813" y="-45.5" font-family="Helvetica,sans-Serif" font-size="10.00">ReadSwarmField</text>
</a>
</g>
</g>
<!-- Node1&#45;&gt;Node14 -->
<g id="edge18" class="edge">
<title>Node1&#45;&gt;Node14</title>
<path fill="none" stroke="midnightblue" d="M928.61,-90.68C913.67,-83.05 894.59,-73.86 877,-67 868.17,-63.55 858.44,-60.35 849.32,-57.58"/>
<polygon fill="midnightblue" stroke="midnightblue" points="927.29,-93.93 937.78,-95.42 930.5,-87.72 927.29,-93.93"/>
</g>
<!-- Node18 -->
<g id="node18" class="node">
<title>Node18</title>
<g id="a_node18"><a xlink:href="io_8c.html#a2b23e672a36206721d69d7ff16d797c5" target="_top" xlink:title="Reads integer swarm data by using ReadFieldData and casting the result.">
<polygon fill="none" stroke="black" points="758,-0.5 758,-19.5 868,-19.5 868,-0.5 758,-0.5"/>
<text text-anchor="middle" x="813" y="-7.5" font-family="Helvetica,sans-Serif" font-size="10.00">ReadSwarmIntField</text>
</a>
</g>
</g>
<!-- Node1&#45;&gt;Node18 -->
<g id="edge25" class="edge">
<title>Node1&#45;&gt;Node18</title>
<path fill="none" stroke="midnightblue" d="M941.5,-87.19C927.06,-69.97 903.05,-44.3 877,-29 870.5,-25.18 863.16,-22.07 855.85,-19.55"/>
<polygon fill="midnightblue" stroke="midnightblue" points="939.1,-89.79 948.13,-95.33 944.52,-85.37 939.1,-89.79"/>
</g>
<!-- Node4 -->
<g id="node4" class="node">
<title>Node4</title>
<g id="a_node4"><a xlink:href="io_8c.html#a45ad89f26c78131d2990f09126abba4b" target="_top" xlink:title="Reads LES&#45;related fields.">
<polygon fill="none" stroke="black" points="600.5,-266.5 600.5,-285.5 686.5,-285.5 686.5,-266.5 600.5,-266.5"/>
<text text-anchor="middle" x="643.5" y="-273.5" font-family="Helvetica,sans-Serif" font-size="10.00">ReadLESFields</text>
</a>
</g>
</g>
<!-- Node3&#45;&gt;Node4 -->
<g id="edge3" class="edge">
<title>Node3&#45;&gt;Node4</title>
<path fill="none" stroke="midnightblue" d="M757.56,-194.73C754.56,-196.3 751.68,-198.05 749,-200 726.27,-216.54 735.36,-234.96 713,-252 704.78,-258.26 694.8,-262.98 685.03,-266.49"/>
<polygon fill="midnightblue" stroke="midnightblue" points="759.18,-197.83 766.85,-190.52 756.3,-191.46 759.18,-197.83"/>
</g>
<!-- Node3&#45;&gt;Node5 -->
<g id="edge13" class="edge">
<title>Node3&#45;&gt;Node5</title>
<path fill="none" stroke="midnightblue" d="M766.18,-193.68C760.33,-195.63 754.48,-197.75 749,-200 732.26,-206.87 730.56,-214.65 713,-219 653.03,-233.85 634.68,-230.57 574,-219 545.65,-213.59 514.99,-199.96 496.14,-190.58"/>
<polygon fill="midnightblue" stroke="midnightblue" points="767.47,-196.95 775.93,-190.57 765.34,-190.28 767.47,-196.95"/>
</g>
<!-- Node11 -->
<g id="node11" class="node">
<title>Node11</title>
<g id="a_node11"><a xlink:href="io_8c.html#a19e2e0b57afae458bae068610141c031" target="_top" xlink:title="Reads RANS&#45;related fields.">
<polygon fill="none" stroke="black" points="595.5,-190.5 595.5,-209.5 691.5,-209.5 691.5,-190.5 595.5,-190.5"/>
<text text-anchor="middle" x="643.5" y="-197.5" font-family="Helvetica,sans-Serif" font-size="10.00">ReadRANSFields</text>
</a>
</g>
</g>
<!-- Node3&#45;&gt;Node11 -->
<g id="edge11" class="edge">
<title>Node3&#45;&gt;Node11</title>
<path fill="none" stroke="midnightblue" d="M750.41,-187.99C731.02,-190.19 709.91,-192.58 691.68,-194.65"/>
<polygon fill="midnightblue" stroke="midnightblue" points="750.84,-191.46 760.38,-186.86 750.05,-184.51 750.84,-191.46"/>
</g>
<!-- Node12 -->
<g id="node12" class="node">
<title>Node12</title>
<g id="a_node12"><a xlink:href="io_8c.html#a03f5b76975eea55434d764a23fd42623" target="_top" xlink:title="Reads statistical fields for averaging purposes.">
<polygon fill="none" stroke="black" points="584.5,-152.5 584.5,-171.5 702.5,-171.5 702.5,-152.5 584.5,-152.5"/>
<text text-anchor="middle" x="643.5" y="-159.5" font-family="Helvetica,sans-Serif" font-size="10.00">ReadStatisticalFields</text>
</a>
</g>
</g>
<!-- Node3&#45;&gt;Node12 -->
<g id="edge14" class="edge">
<title>Node3&#45;&gt;Node12</title>
<path fill="none" stroke="midnightblue" d="M750.32,-174C734.75,-172.24 718.08,-170.35 702.68,-168.6"/>
<polygon fill="midnightblue" stroke="midnightblue" points="750.05,-177.49 760.38,-175.14 750.84,-170.54 750.05,-177.49"/>
</g>
<!-- Node4&#45;&gt;Node5 -->
<g id="edge4" class="edge">
<title>Node4&#45;&gt;Node5</title>
<path fill="none" stroke="midnightblue" d="M599.35,-263.1C590.75,-259.92 581.93,-256.2 574,-252 540.47,-234.25 505.82,-205.6 488.79,-190.7"/>
<polygon fill="midnightblue" stroke="midnightblue" points="598.31,-266.44 608.9,-266.46 600.63,-259.84 598.31,-266.44"/>
</g>
<!-- Node6 -->
<g id="node6" class="node">
<title>Node6</title>
<g id="a_node6"><a xlink:href="simulation_8c.html#a5cfb2f783604af7f20171d19f969d5d3" target="_top" xlink:title="Executes the main time&#45;marching loop for the coupled Euler&#45;Lagrange simulation.">
<polygon fill="none" stroke="black" points="86,-181.5 86,-200.5 197,-200.5 197,-181.5 86,-181.5"/>
<text text-anchor="middle" x="141.5" y="-188.5" font-family="Helvetica,sans-Serif" font-size="10.00">AdvanceSimulation</text>
</a>
</g>
</g>
<!-- Node5&#45;&gt;Node6 -->
<g id="edge5" class="edge">
<title>Node5&#45;&gt;Node6</title>
<path fill="none" stroke="midnightblue" d="M405.87,-183.1C343.65,-184.97 254.05,-187.66 197.05,-189.36"/>
<polygon fill="midnightblue" stroke="midnightblue" points="406.1,-186.6 415.99,-182.8 405.89,-179.6 406.1,-186.6"/>
</g>
<!-- Node8 -->
<g id="node8" class="node">
<title>Node8</title>
<g id="a_node8"><a xlink:href="postprocessor_8c.html#a3c04138a5bfe5d72780bb7e82a18e627" target="_top" xlink:title=" ">
<polygon fill="none" stroke="black" points="290.5,-105.5 290.5,-124.5 331.5,-124.5 331.5,-105.5 290.5,-105.5"/>
<text text-anchor="middle" x="311" y="-112.5" font-family="Helvetica,sans-Serif" font-size="10.00">main</text>
</a>
</g>
</g>
<!-- Node5&#45;&gt;Node8 -->
<g id="edge7" class="edge">
<title>Node5&#45;&gt;Node8</title>
<path fill="none" stroke="midnightblue" d="M449.81,-166.55C430.83,-156.49 404.33,-143.27 380,-134 364.08,-127.94 345.4,-122.86 331.65,-119.48"/>
<polygon fill="midnightblue" stroke="midnightblue" points="448.27,-169.7 458.74,-171.35 451.58,-163.53 448.27,-169.7"/>
</g>
<!-- Node9 -->
<g id="node9" class="node">
<title>Node9</title>
<g id="a_node9"><a xlink:href="initialcondition_8c.html#a095ad9c41ee9300bcfa152c411835a91" target="_top" xlink:title="(HELPER) Reads fluid state for all blocks from restart files.">
<polygon fill="none" stroke="black" points="242,-143.5 242,-162.5 380,-162.5 380,-143.5 242,-143.5"/>
<text text-anchor="middle" x="311" y="-150.5" font-family="Helvetica,sans-Serif" font-size="10.00">SetInitialFluidState_Load</text>
</a>
</g>
</g>
<!-- Node5&#45;&gt;Node9 -->
<g id="edge8" class="edge">
<title>Node5&#45;&gt;Node9</title>
<path fill="none" stroke="midnightblue" d="M409.96,-169.72C395.96,-167.33 381.3,-164.83 367.73,-162.51"/>
<polygon fill="midnightblue" stroke="midnightblue" points="409.57,-173.21 420.02,-171.44 410.75,-166.31 409.57,-173.21"/>
</g>
<!-- Node7 -->
<g id="node7" class="node">
<title>Node7</title>
<g id="a_node7"><a xlink:href="picsolver_8c.html#a3c04138a5bfe5d72780bb7e82a18e627" target="_top" xlink:title=" ">
<polygon fill="none" stroke="black" points="0,-143.5 0,-162.5 41,-162.5 41,-143.5 0,-143.5"/>
<text text-anchor="middle" x="20.5" y="-150.5" font-family="Helvetica,sans-Serif" font-size="10.00">main</text>
</a>
</g>
</g>
<!-- Node6&#45;&gt;Node7 -->
<g id="edge6" class="edge">
<title>Node6&#45;&gt;Node7</title>
<path fill="none" stroke="midnightblue" d="M97.78,-178.47C90.82,-176.35 83.7,-174.15 77,-172 65.07,-168.18 51.79,-163.64 41.22,-159.96"/>
<polygon fill="midnightblue" stroke="midnightblue" points="97.21,-181.95 107.79,-181.48 99.23,-175.25 97.21,-181.95"/>
</g>
<!-- Node10 -->
<g id="node10" class="node">
<title>Node10</title>
<g id="a_node10"><a xlink:href="initialcondition_8c.html#ad0dd7d3f2528b6a7802fcd551e88ea99" target="_top" xlink:title="High&#45;level orchestrator to set the complete initial state of the Eulerian solver.">
<polygon fill="none" stroke="black" points="79.5,-143.5 79.5,-162.5 203.5,-162.5 203.5,-143.5 79.5,-143.5"/>
<text text-anchor="middle" x="141.5" y="-150.5" font-family="Helvetica,sans-Serif" font-size="10.00">InitializeEulerianState</text>
</a>
</g>
</g>
<!-- Node9&#45;&gt;Node10 -->
<g id="edge9" class="edge">
<title>Node9&#45;&gt;Node10</title>
<path fill="none" stroke="midnightblue" d="M231.68,-153C222.24,-153 212.71,-153 203.56,-153"/>
<polygon fill="midnightblue" stroke="midnightblue" points="231.87,-156.5 241.87,-153 231.87,-149.5 231.87,-156.5"/>
</g>
<!-- Node10&#45;&gt;Node7 -->
<g id="edge10" class="edge">
<title>Node10&#45;&gt;Node7</title>
<path fill="none" stroke="midnightblue" d="M68.99,-153C58.84,-153 49.18,-153 41.25,-153"/>
<polygon fill="midnightblue" stroke="midnightblue" points="69.26,-156.5 79.26,-153 69.26,-149.5 69.26,-156.5"/>
</g>
<!-- Node11&#45;&gt;Node5 -->
<g id="edge12" class="edge">
<title>Node11&#45;&gt;Node5</title>
<path fill="none" stroke="midnightblue" d="M585.06,-193.37C569.86,-191.61 553.41,-189.71 538.07,-187.94"/>
<polygon fill="midnightblue" stroke="midnightblue" points="585.03,-196.88 595.36,-194.56 585.83,-189.93 585.03,-196.88"/>
</g>
<!-- Node12&#45;&gt;Node5 -->
<g id="edge15" class="edge">
<title>Node12&#45;&gt;Node5</title>
<path fill="none" stroke="midnightblue" d="M573.79,-169.94C561.97,-171.3 549.78,-172.71 538.22,-174.04"/>
<polygon fill="midnightblue" stroke="midnightblue" points="574.51,-173.38 584.04,-168.75 573.7,-166.42 574.51,-173.38"/>
</g>
<!-- Node15 -->
<g id="node15" class="node">
<title>Node15</title>
<g id="a_node15"><a xlink:href="io_8c.html#a64286adf953993b2a0c5c3fbee40d5a2" target="_top" xlink:title="Reads multiple fields into a DMSwarm, gracefully handling missing optional files.">
<polygon fill="none" stroke="black" points="419,-67.5 419,-86.5 535,-86.5 535,-67.5 419,-67.5"/>
<text text-anchor="middle" x="477" y="-74.5" font-family="Helvetica,sans-Serif" font-size="10.00">ReadAllSwarmFields</text>
</a>
</g>
</g>
<!-- Node14&#45;&gt;Node15 -->
<g id="edge19" class="edge">
<title>Node14&#45;&gt;Node15</title>
<path fill="none" stroke="midnightblue" d="M753.86,-54.07C740.44,-55.41 726.23,-56.8 713,-58 652.26,-63.52 582.62,-69.05 535.01,-72.71"/>
<polygon fill="midnightblue" stroke="midnightblue" points="754.33,-57.54 763.93,-53.05 753.63,-50.57 754.33,-57.54"/>
</g>
<!-- Node17 -->
<g id="node17" class="node">
<title>Node17</title>
<g id="a_node17"><a xlink:href="io_8c.html#aed3ed919a52fa88c62e1201b4316b2c4" target="_top" xlink:title="Checks for and reads an optional DMSwarm field from a file.">
<polygon fill="none" stroke="black" points="574,-29.5 574,-48.5 713,-48.5 713,-29.5 574,-29.5"/>
<text text-anchor="middle" x="643.5" y="-36.5" font-family="Helvetica,sans-Serif" font-size="10.00">ReadOptionalSwarmField</text>
</a>
</g>
</g>
<!-- Node14&#45;&gt;Node17 -->
<g id="edge23" class="edge">
<title>Node14&#45;&gt;Node17</title>
<path fill="none" stroke="midnightblue" d="M753.34,-44.85C740.34,-44.15 726.44,-43.4 713.08,-42.69"/>
<polygon fill="midnightblue" stroke="midnightblue" points="753.38,-48.36 763.55,-45.4 753.75,-41.37 753.38,-48.36"/>
</g>
<!-- Node15&#45;&gt;Node8 -->
<g id="edge22" class="edge">
<title>Node15&#45;&gt;Node8</title>
<path fill="none" stroke="midnightblue" d="M424.63,-88.9C393.03,-96.22 354.35,-105.19 331.52,-110.48"/>
<polygon fill="midnightblue" stroke="midnightblue" points="425.66,-92.26 434.62,-86.59 424.08,-85.44 425.66,-92.26"/>
</g>
<!-- Node16 -->
<g id="node16" class="node">
<title>Node16</title>
<g id="a_node16"><a xlink:href="ParticleSwarm_8c.html#ada215a5db25227a8fd2cd2596e7d3e57" target="_top" xlink:title="Perform particle swarm initialization, particle&#45;grid interaction, and related operations.">
<polygon fill="none" stroke="black" points="77,-86.5 77,-105.5 206,-105.5 206,-86.5 77,-86.5"/>
<text text-anchor="middle" x="141.5" y="-93.5" font-family="Helvetica,sans-Serif" font-size="10.00">InitializeParticleSwarm</text>
</a>
</g>
</g>
<!-- Node15&#45;&gt;Node16 -->
<g id="edge20" class="edge">
<title>Node15&#45;&gt;Node16</title>
<path fill="none" stroke="midnightblue" d="M408.68,-80.84C349.57,-84.2 264.19,-89.07 206.18,-92.37"/>
<polygon fill="midnightblue" stroke="midnightblue" points="408.88,-84.33 418.67,-80.27 408.49,-77.34 408.88,-84.33"/>
</g>
<!-- Node16&#45;&gt;Node7 -->
<g id="edge21" class="edge">
<title>Node16&#45;&gt;Node7</title>
<path fill="none" stroke="midnightblue" d="M111.43,-109.92C89.57,-120.39 60.22,-134.45 41.09,-143.62"/>
<polygon fill="midnightblue" stroke="midnightblue" points="113.08,-113.02 120.58,-105.54 110.05,-106.7 113.08,-113.02"/>
</g>
<!-- Node17&#45;&gt;Node15 -->
<g id="edge24" class="edge">
<title>Node17&#45;&gt;Node15</title>
<path fill="none" stroke="midnightblue" d="M591,-50.9C567.88,-56.24 540.97,-62.45 519.21,-67.48"/>
<polygon fill="midnightblue" stroke="midnightblue" points="592.03,-54.25 600.99,-48.59 590.46,-47.43 592.03,-54.25"/>
</g>
<!-- Node18&#45;&gt;Node17 -->
<g id="edge26" class="edge">
<title>Node18&#45;&gt;Node17</title>
<path fill="none" stroke="midnightblue" d="M747.39,-21.19C731.57,-23.93 714.79,-26.83 699.47,-29.48"/>
<polygon fill="midnightblue" stroke="midnightblue" points="748.36,-24.57 757.62,-19.42 747.17,-17.67 748.36,-24.57"/>
</g>
</g>
</svg>
        <g id="navigator" transform="translate(0 0)" fill="#404254">
                <rect fill="#f2f5e9" fill-opacity="0.5" stroke="#606060" stroke-width=".5" x="0" y="0" width="60" height="60"/>
                <use id="zoomplus" xlink:href="#zoomPlus" x="17" y="9" onmousedown="handleZoom(evt,'in')"/>
                <use id="zoomminus" xlink:href="#zoomMin" x="42" y="9" onmousedown="handleZoom(evt,'out')"/>
                <use id="reset" xlink:href="#resetDef" x="30" y="36" onmousedown="handleReset()"/>
                <g id="arrowUp" xlink:href="#dirArrow" transform="translate(30 24)" onmousedown="handlePan(0,-1)">
                  <use xlink:href="#rim" fill="#404040">
                        <set attributeName="fill" to="#808080" begin="arrowUp.mouseover" end="arrowUp.mouseout"/>
                  </use>
                  <path fill="none" stroke="white" stroke-width="1.5" d="M0,-3.0v7 M-2.5,-0.5L0,-3.0L2.5,-0.5"/>
                </g>
                <g id="arrowRight" xlink:href="#dirArrow" transform="rotate(90) translate(36 -43)" onmousedown="handlePan(1,0)">
                  <use xlink:href="#rim" fill="#404040">
                        <set attributeName="fill" to="#808080" begin="arrowRight.mouseover" end="arrowRight.mouseout"/>
                  </use>
                  <path fill="none" stroke="white" stroke-width="1.5" d="M0,-3.0v7 M-2.5,-0.5L0,-3.0L2.5,-0.5"/>
                </g>
                <g id="arrowDown" xlink:href="#dirArrow" transform="rotate(180) translate(-30 -48)" onmousedown="handlePan(0,1)">
                  <use xlink:href="#rim" fill="#404040">
                        <set attributeName="fill" to="#808080" begin="arrowDown.mouseover" end="arrowDown.mouseout"/>
                  </use>
                  <path fill="none" stroke="white" stroke-width="1.5" d="M0,-3.0v7 M-2.5,-0.5L0,-3.0L2.5,-0.5"/>
                </g>
                <g id="arrowLeft" xlink:href="#dirArrow" transform="rotate(270) translate(-36 17)" onmousedown="handlePan(-1,0)">
                  <use xlink:href="#rim" fill="#404040">
                        <set attributeName="fill" to="#808080" begin="arrowLeft.mouseover" end="arrowLeft.mouseout"/>
                  </use>
                  <path fill="none" stroke="white" stroke-width="1.5" d="M0,-3.0v7 M-2.5,-0.5L0,-3.0L2.5,-0.5"/>
                </g>
        </g>
        <svg viewBox="0 0 15 15" width="100%" height="30px" preserveAspectRatio="xMaxYMin meet">
         <g id="arrow_out" transform="scale(0.3 0.3)">
          <a xlink:href="io_8h_a570806d7e0694b5d996e0c6018b48908_icgraph_org.svg" target="_base">
           <rect id="button" ry="5" rx="5" y="6" x="6" height="38" width="38"
                fill="#f2f5e9" fill-opacity="0.5" stroke="#606060" stroke-width="1.0"/>
           <path id="arrow"
             d="M 11.500037,31.436501 C 11.940474,20.09759 22.043105,11.32322 32.158766,21.979434 L 37.068811,17.246167 C 37.068811,17.246167 37.088388,32 37.088388,32 L 22.160133,31.978069 C 22.160133,31.978069 26.997745,27.140456 26.997745,27.140456 C 18.528582,18.264221 13.291696,25.230495 11.500037,31.436501 z"
             style="fill:#404040;"/>
          </a>
         </g>
        </svg>
</svg>
