<?xml version="1.0" encoding="UTF-8" standalone="no"?>
<!DOCTYPE svg PUBLIC "-//W3C//DTD SVG 1.1//EN"
 "http://www.w3.org/Graphics/SVG/1.1/DTD/svg11.dtd">
<!-- Generated by graphviz version 2.43.0 (0)
 -->
<!-- Title: WriteAllSwarmFields Pages: 1 -->
<svg width="398pt" height="66pt"
 viewBox="0.00 0.00 398.00 66.00" xmlns="http://www.w3.org/2000/svg" xmlns:xlink="http://www.w3.org/1999/xlink">
<g id="graph0" class="graph" transform="scale(1 1) rotate(0) translate(4 62)">
<title>WriteAllSwarmFields</title>
<!-- Node1 -->
<g id="node1" class="node">
<title>Node1</title>
<g id="a_node1"><a xlink:title="Writes a predefined set of PETSc Swarm fields to files.">
<polygon fill="#bfbfbf" stroke="black" points="0,-19.5 0,-38.5 117,-38.5 117,-19.5 0,-19.5"/>
<text text-anchor="middle" x="58.5" y="-26.5" font-family="Helvetica,sans-Serif" font-size="10.00">WriteAllSwarmFields</text>
</a>
</g>
</g>
<!-- Node2 -->
<g id="node2" class="node">
<title>Node2</title>
<g id="a_node2"><a xlink:href="io_8c.html#a2c3ac50e182d193208800c89201ff236" target="_top" xlink:title="Writes data from a specific field in a PETSc Swarm to a file.">
<polygon fill="none" stroke="black" points="159.5,-38.5 159.5,-57.5 258.5,-57.5 258.5,-38.5 159.5,-38.5"/>
<text text-anchor="middle" x="209" y="-45.5" font-family="Helvetica,sans-Serif" font-size="10.00">WriteSwarmField</text>
</a>
</g>
</g>
<!-- Node1&#45;&gt;Node2 -->
<g id="edge1" class="edge">
<title>Node1&#45;&gt;Node2</title>
<path fill="none" stroke="midnightblue" d="M117.34,-36.4C127.83,-37.74 138.78,-39.14 149.3,-40.49"/>
<polygon fill="midnightblue" stroke="midnightblue" points="148.85,-43.96 159.22,-41.76 149.74,-37.02 148.85,-43.96"/>
</g>
<!-- Node4 -->
<g id="node4" class="node">
<title>Node4</title>
<g id="a_node4"><a xlink:href="io_8c.html#aa66be4f86c7c18609e457dd542541dd3" target="_top" xlink:title="Writes integer swarm data by casting it to a temporary Vec and using WriteFieldData.">
<polygon fill="none" stroke="black" points="153,-0.5 153,-19.5 265,-19.5 265,-0.5 153,-0.5"/>
<text text-anchor="middle" x="209" y="-7.5" font-family="Helvetica,sans-Serif" font-size="10.00">WriteSwarmIntField</text>
</a>
</g>
</g>
<!-- Node1&#45;&gt;Node4 -->
<g id="edge3" class="edge">
<title>Node1&#45;&gt;Node4</title>
<path fill="none" stroke="midnightblue" d="M117.34,-21.6C125.77,-20.52 134.49,-19.4 143.05,-18.31"/>
<polygon fill="midnightblue" stroke="midnightblue" points="143.52,-21.78 152.99,-17.04 142.63,-14.84 143.52,-21.78"/>
</g>
<!-- Node3 -->
<g id="node3" class="node">
<title>Node3</title>
<g id="a_node3"><a xlink:href="io_8c.html#a3f37cf6ed1f13d0656740b8cff2b4ed8" target="_top" xlink:title="Writes data from a specific PETSc vector to a single, sequential file.">
<polygon fill="none" stroke="black" points="301,-19.5 301,-38.5 390,-38.5 390,-19.5 301,-19.5"/>
<text text-anchor="middle" x="345.5" y="-26.5" font-family="Helvetica,sans-Serif" font-size="10.00">WriteFieldData</text>
</a>
</g>
</g>
<!-- Node2&#45;&gt;Node3 -->
<g id="edge2" class="edge">
<title>Node2&#45;&gt;Node3</title>
<path fill="none" stroke="midnightblue" d="M258.56,-41.14C269.05,-39.66 280.2,-38.08 290.87,-36.58"/>
<polygon fill="midnightblue" stroke="midnightblue" points="291.51,-40.02 300.92,-35.16 290.53,-33.09 291.51,-40.02"/>
</g>
<!-- Node4&#45;&gt;Node3 -->
<g id="edge4" class="edge">
<title>Node4&#45;&gt;Node3</title>
<path fill="none" stroke="midnightblue" d="M265.09,-17.78C273.55,-18.98 282.28,-20.21 290.71,-21.4"/>
<polygon fill="midnightblue" stroke="midnightblue" points="290.41,-24.89 300.81,-22.83 291.39,-17.96 290.41,-24.89"/>
</g>
</g>
</svg>
