<?xml version="1.0" encoding="UTF-8" standalone="no"?>
<!DOCTYPE svg PUBLIC "-//W3C//DTD SVG 1.1//EN"
 "http://www.w3.org/Graphics/SVG/1.1/DTD/svg11.dtd">
<!-- Generated by graphviz version 2.43.0 (0)
 -->
<!-- Title: TrimWhitespace Pages: 1 -->
<svg width="580pt" height="219pt"
 viewBox="0.00 0.00 580.00 218.91" xmlns="http://www.w3.org/2000/svg" xmlns:xlink="http://www.w3.org/1999/xlink">
<g id="graph0" class="graph" transform="scale(1 1) rotate(0) translate(4 214.91)">
<title>TrimWhitespace</title>
<!-- Node1 -->
<g id="node1" class="node">
<title>Node1</title>
<g id="a_node1"><a xlink:title="Helper function to trim leading/trailing whitespace from a string.">
<polygon fill="#bfbfbf" stroke="black" points="477,-96.41 477,-115.41 572,-115.41 572,-96.41 477,-96.41"/>
<text text-anchor="middle" x="524.5" y="-103.41" font-family="Helvetica,sans-Serif" font-size="10.00">TrimWhitespace</text>
</a>
</g>
</g>
<!-- Node2 -->
<g id="node2" class="node">
<title>Node2</title>
<g id="a_node2"><a xlink:href="postprocessor_8c.html#a059ce04ba04e66a5f1ef982fdf375e80" target="_top" xlink:title="Parses the processing pipeline string from the config and executes the requested kernels in sequence.">
<polygon fill="none" stroke="black" points="77,-153.41 77,-172.41 248,-172.41 248,-153.41 77,-153.41"/>
<text text-anchor="middle" x="162.5" y="-160.41" font-family="Helvetica,sans-Serif" font-size="10.00">EulerianDataProcessingPipeline</text>
</a>
</g>
</g>
<!-- Node1&#45;&gt;Node2 -->
<g id="edge1" class="edge">
<title>Node1&#45;&gt;Node2</title>
<path fill="none" stroke="midnightblue" d="M498.26,-120.46C482.37,-128.87 461.12,-138.78 441,-143.91 377.72,-160.07 303.85,-164.46 248.24,-165"/>
<polygon fill="midnightblue" stroke="midnightblue" points="500.3,-123.33 507.41,-115.47 496.95,-117.19 500.3,-123.33"/>
</g>
<!-- Node4 -->
<g id="node4" class="node">
<title>Node4</title>
<g id="a_node4"><a xlink:href="io_8c.html#a048b921bc98a7354369a176193c2bd62" target="_top" xlink:title="Initializes post&#45;processing settings from a config file and command&#45;line overrides.">
<polygon fill="none" stroke="black" points="284,-191.41 284,-210.41 441,-210.41 441,-191.41 284,-191.41"/>
<text text-anchor="middle" x="362.5" y="-198.41" font-family="Helvetica,sans-Serif" font-size="10.00">ParsePostProcessingSettings</text>
</a>
</g>
</g>
<!-- Node1&#45;&gt;Node4 -->
<g id="edge3" class="edge">
<title>Node1&#45;&gt;Node4</title>
<path fill="none" stroke="midnightblue" d="M507.58,-123.21C492.01,-139.19 466.91,-162.58 441,-176.91 430.03,-182.98 417.32,-187.73 405.41,-191.35"/>
<polygon fill="midnightblue" stroke="midnightblue" points="510.45,-125.26 514.81,-115.61 505.38,-120.44 510.45,-125.26"/>
</g>
<!-- Node7 -->
<g id="node7" class="node">
<title>Node7</title>
<g id="a_node7"><a xlink:href="postprocessor_8c.html#a5866209129dc3d2532fb7905777079af" target="_top" xlink:title="Parses and executes the particle pipeline using a robust two&#45;pass approach.">
<polygon fill="none" stroke="black" points="78.5,-77.41 78.5,-96.41 246.5,-96.41 246.5,-77.41 78.5,-77.41"/>
<text text-anchor="middle" x="162.5" y="-84.41" font-family="Helvetica,sans-Serif" font-size="10.00">ParticleDataProcessingPipeline</text>
</a>
</g>
</g>
<!-- Node1&#45;&gt;Node7 -->
<g id="edge6" class="edge">
<title>Node1&#45;&gt;Node7</title>
<path fill="none" stroke="midnightblue" d="M466.52,-102.91C407.29,-99.78 314,-94.86 246.57,-91.3"/>
<polygon fill="midnightblue" stroke="midnightblue" points="466.63,-106.42 476.81,-103.45 467,-99.43 466.63,-106.42"/>
</g>
<!-- Node8 -->
<g id="node8" class="node">
<title>Node8</title>
<g id="a_node8"><a xlink:href="vtk__io_8c.html#af1bf47e0b45318d43a97d2bdbf766888" target="_top" xlink:title="Gathers, merges, subsamples, and prepares particle data for VTK output.">
<polygon fill="none" stroke="black" points="289,-39.41 289,-58.41 436,-58.41 436,-39.41 289,-39.41"/>
<text text-anchor="middle" x="362.5" y="-46.41" font-family="Helvetica,sans-Serif" font-size="10.00">PrepareOutputParticleData</text>
</a>
</g>
</g>
<!-- Node1&#45;&gt;Node8 -->
<g id="edge8" class="edge">
<title>Node1&#45;&gt;Node8</title>
<path fill="none" stroke="midnightblue" d="M491.47,-92.41C476.28,-86.18 457.82,-78.87 441,-72.91 426.53,-67.79 410.33,-62.68 396.5,-58.5"/>
<polygon fill="midnightblue" stroke="midnightblue" points="490.35,-95.73 500.92,-96.32 493.02,-89.26 490.35,-95.73"/>
</g>
<!-- Node10 -->
<g id="node10" class="node">
<title>Node10</title>
<g id="a_node10"><a xlink:href="postprocessor_8c.html#ac3854bbfeab13a489af2f23b95b456d2" target="_top" xlink:title="Creates a new, dedicated DMSwarm for post&#45;processing tasks.">
<polygon fill="none" stroke="black" points="294,-1.41 294,-20.41 431,-20.41 431,-1.41 294,-1.41"/>
<text text-anchor="middle" x="362.5" y="-8.41" font-family="Helvetica,sans-Serif" font-size="10.00">SetupPostProcessSwarm</text>
</a>
</g>
</g>
<!-- Node1&#45;&gt;Node10 -->
<g id="edge11" class="edge">
<title>Node1&#45;&gt;Node10</title>
<path fill="none" stroke="midnightblue" d="M509.42,-88.59C494.31,-71.16 468.72,-44.79 441,-29.91 433.8,-26.05 425.8,-22.96 417.75,-20.49"/>
<polygon fill="midnightblue" stroke="midnightblue" points="506.84,-90.95 515.96,-96.34 512.19,-86.44 506.84,-90.95"/>
</g>
<!-- Node11 -->
<g id="node11" class="node">
<title>Node11</title>
<g id="a_node11"><a xlink:href="postprocessor_8c.html#a06bd0048200cbc80db1d02bc5d276a8f" target="_top" xlink:title="Orchestrates the writing of a combined, multi&#45;field VTK file for a single time step.">
<polygon fill="none" stroke="black" points="313,-115.41 313,-134.41 412,-134.41 412,-115.41 313,-115.41"/>
<text text-anchor="middle" x="362.5" y="-122.41" font-family="Helvetica,sans-Serif" font-size="10.00">WriteEulerianFile</text>
</a>
</g>
</g>
<!-- Node1&#45;&gt;Node11 -->
<g id="edge13" class="edge">
<title>Node1&#45;&gt;Node11</title>
<path fill="none" stroke="midnightblue" d="M466.55,-112.68C448.79,-114.79 429.36,-117.09 412.21,-119.13"/>
<polygon fill="midnightblue" stroke="midnightblue" points="467.27,-116.12 476.79,-111.46 466.45,-109.16 467.27,-116.12"/>
</g>
<!-- Node3 -->
<g id="node3" class="node">
<title>Node3</title>
<g id="a_node3"><a xlink:href="postprocessor_8c.html#a3c04138a5bfe5d72780bb7e82a18e627" target="_top" xlink:title=" ">
<polygon fill="none" stroke="black" points="0,-77.41 0,-96.41 41,-96.41 41,-77.41 0,-77.41"/>
<text text-anchor="middle" x="20.5" y="-84.41" font-family="Helvetica,sans-Serif" font-size="10.00">main</text>
</a>
</g>
</g>
<!-- Node2&#45;&gt;Node3 -->
<g id="edge2" class="edge">
<title>Node2&#45;&gt;Node3</title>
<path fill="none" stroke="midnightblue" d="M103.18,-150.32C94.12,-147.25 85.09,-143.49 77,-138.91 57.23,-127.73 38.97,-108.1 29.12,-96.42"/>
<polygon fill="midnightblue" stroke="midnightblue" points="102.39,-153.74 112.98,-153.38 104.48,-147.06 102.39,-153.74"/>
</g>
<!-- Node5 -->
<g id="node5" class="node">
<title>Node5</title>
<g id="a_node5"><a xlink:href="setup_8c.html#a977df65dac293c1308451334cb198693" target="_top" xlink:title="Allocates and populates the master SimulationContext object.">
<polygon fill="none" stroke="black" points="92.5,-191.41 92.5,-210.41 232.5,-210.41 232.5,-191.41 92.5,-191.41"/>
<text text-anchor="middle" x="162.5" y="-198.41" font-family="Helvetica,sans-Serif" font-size="10.00">CreateSimulationContext</text>
</a>
</g>
</g>
<!-- Node4&#45;&gt;Node5 -->
<g id="edge4" class="edge">
<title>Node4&#45;&gt;Node5</title>
<path fill="none" stroke="midnightblue" d="M273.42,-200.91C259.74,-200.91 245.78,-200.91 232.6,-200.91"/>
<polygon fill="midnightblue" stroke="midnightblue" points="273.81,-204.41 283.81,-200.91 273.81,-197.41 273.81,-204.41"/>
</g>
<!-- Node6 -->
<g id="node6" class="node">
<title>Node6</title>
<g id="a_node6"><a xlink:href="picsolver_8c.html#a3c04138a5bfe5d72780bb7e82a18e627" target="_top" xlink:title=" ">
<polygon fill="none" stroke="black" points="0,-191.41 0,-210.41 41,-210.41 41,-191.41 0,-191.41"/>
<text text-anchor="middle" x="20.5" y="-198.41" font-family="Helvetica,sans-Serif" font-size="10.00">main</text>
</a>
</g>
</g>
<!-- Node5&#45;&gt;Node6 -->
<g id="edge5" class="edge">
<title>Node5&#45;&gt;Node6</title>
<path fill="none" stroke="midnightblue" d="M82.24,-200.91C66.99,-200.91 52.34,-200.91 41.24,-200.91"/>
<polygon fill="midnightblue" stroke="midnightblue" points="82.32,-204.41 92.32,-200.91 82.32,-197.41 82.32,-204.41"/>
</g>
<!-- Node7&#45;&gt;Node3 -->
<g id="edge7" class="edge">
<title>Node7&#45;&gt;Node3</title>
<path fill="none" stroke="midnightblue" d="M68.19,-86.91C58.14,-86.91 48.82,-86.91 41.19,-86.91"/>
<polygon fill="midnightblue" stroke="midnightblue" points="68.44,-90.41 78.44,-86.91 68.44,-83.41 68.44,-90.41"/>
</g>
<!-- Node9 -->
<g id="node9" class="node">
<title>Node9</title>
<g id="a_node9"><a xlink:href="postprocessor_8c.html#a90f52cd32d5560474c4892cf669c6ef8" target="_top" xlink:title="Writes particle data to a VTP file using the Prepare&#45;Write&#45;Cleanup pattern.">
<polygon fill="none" stroke="black" points="114.5,-39.41 114.5,-58.41 210.5,-58.41 210.5,-39.41 114.5,-39.41"/>
<text text-anchor="middle" x="162.5" y="-46.41" font-family="Helvetica,sans-Serif" font-size="10.00">WriteParticleFile</text>
</a>
</g>
</g>
<!-- Node8&#45;&gt;Node9 -->
<g id="edge9" class="edge">
<title>Node8&#45;&gt;Node9</title>
<path fill="none" stroke="midnightblue" d="M278.67,-48.91C255.4,-48.91 230.91,-48.91 210.53,-48.91"/>
<polygon fill="midnightblue" stroke="midnightblue" points="278.9,-52.41 288.9,-48.91 278.9,-45.41 278.9,-52.41"/>
</g>
<!-- Node9&#45;&gt;Node3 -->
<g id="edge10" class="edge">
<title>Node9&#45;&gt;Node3</title>
<path fill="none" stroke="midnightblue" d="M104.78,-60.77C95.46,-62.98 85.93,-65.39 77,-67.91 64.95,-71.32 51.66,-75.84 41.11,-79.62"/>
<polygon fill="midnightblue" stroke="midnightblue" points="105.83,-64.13 114.78,-58.47 104.25,-57.3 105.83,-64.13"/>
</g>
<!-- Node10&#45;&gt;Node3 -->
<g id="edge12" class="edge">
<title>Node10&#45;&gt;Node3</title>
<path fill="none" stroke="midnightblue" d="M283.72,-1.53C224.36,2.27 142,0.11 77,-29.91 54.68,-40.22 36.57,-63.75 27.6,-77.13"/>
<polygon fill="midnightblue" stroke="midnightblue" points="283.56,-5.02 293.79,-2.24 284.06,1.96 283.56,-5.02"/>
</g>
<!-- Node11&#45;&gt;Node3 -->
<g id="edge14" class="edge">
<title>Node11&#45;&gt;Node3</title>
<path fill="none" stroke="midnightblue" d="M302.85,-125.47C244.91,-124.98 154.03,-121.39 77,-105.91 64.82,-103.47 51.64,-99.04 41.19,-95.07"/>
<polygon fill="midnightblue" stroke="midnightblue" points="302.9,-128.97 312.92,-125.53 302.94,-121.97 302.9,-128.97"/>
</g>
</g>
</svg>
