<?xml version="1.0" encoding="UTF-8" standalone="no"?>
<!DOCTYPE svg PUBLIC "-//W3C//DTD SVG 1.1//EN"
 "http://www.w3.org/Graphics/SVG/1.1/DTD/svg11.dtd">
<!-- Generated by graphviz version 2.43.0 (0)
 -->
<!-- Title: ReadSimulationFields Pages: 1 -->
<!--zoomable 169 -->
<svg id="main" version="1.1" xmlns="http://www.w3.org/2000/svg" xmlns:xlink="http://www.w3.org/1999/xlink" xml:space="preserve" onload="init(evt)">
<style type="text/css"><![CDATA[
.edge:hover path { stroke: red; }
.edge:hover polygon { stroke: red; fill: red; }
]]></style>
<script type="text/javascript"><![CDATA[
var edges = document.getElementsByTagName('g');
if (edges && edges.length) {
  for (var i=0;i<edges.length;i++) {
    if (edges[i].id.substr(0,4)=='edge') {
      edges[i].setAttribute('class','edge');
    }
  }
}
]]></script>
        <defs>
                <circle id="rim" cx="0" cy="0" r="7"/>
                <circle id="rim2" cx="0" cy="0" r="3.5"/>
                <g id="zoomPlus">
                        <use xlink:href="#rim" fill="#404040">
                                <set attributeName="fill" to="#808080" begin="zoomplus.mouseover" end="zoomplus.mouseout"/>
                        </use>
                        <path d="M-4,0h8M0,-4v8" fill="none" stroke="white" stroke-width="1.5" pointer-events="none"/>
                </g>
                <g id="zoomMin">
                        <use xlink:href="#rim" fill="#404040">
                                <set attributeName="fill" to="#808080" begin="zoomminus.mouseover" end="zoomminus.mouseout"/>
                        </use>
                        <path d="M-4,0h8" fill="none" stroke="white" stroke-width="1.5" pointer-events="none"/>
                </g>
                <g id="dirArrow">
                        <path fill="none" stroke="white" stroke-width="1.5" d="M0,-3.0v7 M-2.5,-0.5L0,-3.0L2.5,-0.5"/>
                </g>
               <g id="resetDef">
                       <use xlink:href="#rim2" fill="#404040">
                               <set attributeName="fill" to="#808080" begin="reset.mouseover" end="reset.mouseout"/>
                       </use>
               </g>
        </defs>

<script type="text/javascript">
var viewWidth = 548;
var viewHeight = 169;
var sectionId = 'dynsection-18';
</script>
<script xlink:href="svgpan.js"/>
<svg id="graph" class="graph">
<g id="viewport">
<title>ReadSimulationFields</title>
<!-- Node1 -->
<g id="node1" class="node">
<title>Node1</title>
<g id="a_node1"><a xlink:title="Reads simulation fields from files into their respective PETSc vectors.">
<polygon fill="#bfbfbf" stroke="black" points="0,-76.5 0,-95.5 122,-95.5 122,-76.5 0,-76.5"/>
<text text-anchor="middle" x="61" y="-83.5" font-family="Helvetica,sans-Serif" font-size="10.00">ReadSimulationFields</text>
</a>
</g>
</g>
<!-- Node2 -->
<g id="node2" class="node">
<title>Node2</title>
<g id="a_node2"><a xlink:href="io_8c.html#a570806d7e0694b5d996e0c6018b48908" target="_top" xlink:title="Reads data for a specific field from a file into the provided vector.">
<polygon fill="none" stroke="black" points="453,-133.5 453,-152.5 540,-152.5 540,-133.5 453,-133.5"/>
<text text-anchor="middle" x="496.5" y="-140.5" font-family="Helvetica,sans-Serif" font-size="10.00">ReadFieldData</text>
</a>
</g>
</g>
<!-- Node1&#45;&gt;Node2 -->
<g id="edge1" class="edge">
<title>Node1&#45;&gt;Node2</title>
<path fill="none" stroke="midnightblue" d="M73.46,-95.65C90.56,-109.34 124.35,-133.76 158,-143 255.82,-169.85 375.67,-160.39 443.03,-151.44"/>
<polygon fill="midnightblue" stroke="midnightblue" points="443.55,-154.91 452.98,-150.08 442.6,-147.97 443.55,-154.91"/>
</g>
<!-- Node3 -->
<g id="node3" class="node">
<title>Node3</title>
<g id="a_node3"><a xlink:href="io_8c.html#a45ad89f26c78131d2990f09126abba4b" target="_top" xlink:title="Reads LES&#45;related fields.">
<polygon fill="none" stroke="black" points="174,-114.5 174,-133.5 260,-133.5 260,-114.5 174,-114.5"/>
<text text-anchor="middle" x="217" y="-121.5" font-family="Helvetica,sans-Serif" font-size="10.00">ReadLESFields</text>
</a>
</g>
</g>
<!-- Node1&#45;&gt;Node3 -->
<g id="edge2" class="edge">
<title>Node1&#45;&gt;Node3</title>
<path fill="none" stroke="midnightblue" d="M100.86,-95.59C121.09,-100.58 146.02,-106.73 167.5,-112.03"/>
<polygon fill="midnightblue" stroke="midnightblue" points="166.87,-115.48 177.42,-114.48 168.55,-108.69 166.87,-115.48"/>
</g>
<!-- Node4 -->
<g id="node4" class="node">
<title>Node4</title>
<g id="a_node4"><a xlink:href="io_8c.html#ac414e8adc74c5fb5e149b42c95baf495" target="_top" xlink:title="Checks for and reads an optional Eulerian field from a file into a Vec.">
<polygon fill="none" stroke="black" points="312,-76.5 312,-95.5 417,-95.5 417,-76.5 312,-76.5"/>
<text text-anchor="middle" x="364.5" y="-83.5" font-family="Helvetica,sans-Serif" font-size="10.00">ReadOptionalField</text>
</a>
</g>
</g>
<!-- Node1&#45;&gt;Node4 -->
<g id="edge6" class="edge">
<title>Node1&#45;&gt;Node4</title>
<path fill="none" stroke="midnightblue" d="M122.29,-86C174.33,-86 249.18,-86 301.67,-86"/>
<polygon fill="midnightblue" stroke="midnightblue" points="301.85,-89.5 311.85,-86 301.85,-82.5 301.85,-89.5"/>
</g>
<!-- Node6 -->
<g id="node6" class="node">
<title>Node6</title>
<g id="a_node6"><a xlink:href="io_8c.html#a19e2e0b57afae458bae068610141c031" target="_top" xlink:title="Reads RANS&#45;related fields.">
<polygon fill="none" stroke="black" points="169,-38.5 169,-57.5 265,-57.5 265,-38.5 169,-38.5"/>
<text text-anchor="middle" x="217" y="-45.5" font-family="Helvetica,sans-Serif" font-size="10.00">ReadRANSFields</text>
</a>
</g>
</g>
<!-- Node1&#45;&gt;Node6 -->
<g id="edge7" class="edge">
<title>Node1&#45;&gt;Node6</title>
<path fill="none" stroke="midnightblue" d="M100.86,-76.41C121.09,-71.42 146.02,-65.27 167.5,-59.97"/>
<polygon fill="midnightblue" stroke="midnightblue" points="168.55,-63.31 177.42,-57.52 166.87,-56.52 168.55,-63.31"/>
</g>
<!-- Node7 -->
<g id="node7" class="node">
<title>Node7</title>
<g id="a_node7"><a xlink:href="io_8c.html#a03f5b76975eea55434d764a23fd42623" target="_top" xlink:title="Reads statistical fields for averaging purposes.">
<polygon fill="none" stroke="black" points="158,-0.5 158,-19.5 276,-19.5 276,-0.5 158,-0.5"/>
<text text-anchor="middle" x="217" y="-7.5" font-family="Helvetica,sans-Serif" font-size="10.00">ReadStatisticalFields</text>
</a>
</g>
</g>
<!-- Node1&#45;&gt;Node7 -->
<g id="edge9" class="edge">
<title>Node1&#45;&gt;Node7</title>
<path fill="none" stroke="midnightblue" d="M75.79,-76.49C93.98,-64.26 127.29,-42.94 158,-29 162.76,-26.84 167.84,-24.8 172.95,-22.93"/>
<polygon fill="midnightblue" stroke="midnightblue" points="174.41,-26.12 182.7,-19.52 172.11,-19.51 174.41,-26.12"/>
</g>
<!-- Node3&#45;&gt;Node4 -->
<g id="edge3" class="edge">
<title>Node3&#45;&gt;Node4</title>
<path fill="none" stroke="midnightblue" d="M254.72,-114.41C273.66,-109.46 296.96,-103.38 317.13,-98.11"/>
<polygon fill="midnightblue" stroke="midnightblue" points="318.26,-101.43 327.05,-95.52 316.49,-94.66 318.26,-101.43"/>
</g>
<!-- Node4&#45;&gt;Node2 -->
<g id="edge5" class="edge">
<title>Node4&#45;&gt;Node2</title>
<path fill="none" stroke="midnightblue" d="M387.26,-95.54C408.35,-104.79 440.56,-118.91 464.36,-129.35"/>
<polygon fill="midnightblue" stroke="midnightblue" points="463.11,-132.62 473.67,-133.43 465.92,-126.21 463.11,-132.62"/>
</g>
<!-- Node5 -->
<g id="node5" class="node">
<title>Node5</title>
<g id="a_node5"><a xlink:href="io_8c.html#ab7d7097c8ad047feb1d460e4694b8b4f" target="_top" xlink:title="Checks for a data file&#39;s existence in a parallel&#45;safe manner.">
<polygon fill="none" stroke="black" points="453.5,-76.5 453.5,-95.5 539.5,-95.5 539.5,-76.5 453.5,-76.5"/>
<text text-anchor="middle" x="496.5" y="-83.5" font-family="Helvetica,sans-Serif" font-size="10.00">CheckDataFile</text>
</a>
</g>
</g>
<!-- Node4&#45;&gt;Node5 -->
<g id="edge4" class="edge">
<title>Node4&#45;&gt;Node5</title>
<path fill="none" stroke="midnightblue" d="M417.25,-86C425.71,-86 434.48,-86 442.96,-86"/>
<polygon fill="midnightblue" stroke="midnightblue" points="443.11,-89.5 453.11,-86 443.11,-82.5 443.11,-89.5"/>
</g>
<!-- Node6&#45;&gt;Node4 -->
<g id="edge8" class="edge">
<title>Node6&#45;&gt;Node4</title>
<path fill="none" stroke="midnightblue" d="M254.72,-57.59C273.66,-62.54 296.96,-68.62 317.13,-73.89"/>
<polygon fill="midnightblue" stroke="midnightblue" points="316.49,-77.34 327.05,-76.48 318.26,-70.57 316.49,-77.34"/>
</g>
<!-- Node7&#45;&gt;Node4 -->
<g id="edge10" class="edge">
<title>Node7&#45;&gt;Node4</title>
<path fill="none" stroke="midnightblue" d="M252.32,-19.6C260.25,-22.27 268.55,-25.43 276,-29 300.22,-40.61 325.72,-57.88 342.9,-70.36"/>
<polygon fill="midnightblue" stroke="midnightblue" points="340.95,-73.27 351.07,-76.4 345.11,-67.64 340.95,-73.27"/>
</g>
</g>
</svg>
        <g id="navigator" transform="translate(0 0)" fill="#404254">
                <rect fill="#f2f5e9" fill-opacity="0.5" stroke="#606060" stroke-width=".5" x="0" y="0" width="60" height="60"/>
                <use id="zoomplus" xlink:href="#zoomPlus" x="17" y="9" onmousedown="handleZoom(evt,'in')"/>
                <use id="zoomminus" xlink:href="#zoomMin" x="42" y="9" onmousedown="handleZoom(evt,'out')"/>
                <use id="reset" xlink:href="#resetDef" x="30" y="36" onmousedown="handleReset()"/>
                <g id="arrowUp" xlink:href="#dirArrow" transform="translate(30 24)" onmousedown="handlePan(0,-1)">
                  <use xlink:href="#rim" fill="#404040">
                        <set attributeName="fill" to="#808080" begin="arrowUp.mouseover" end="arrowUp.mouseout"/>
                  </use>
                  <path fill="none" stroke="white" stroke-width="1.5" d="M0,-3.0v7 M-2.5,-0.5L0,-3.0L2.5,-0.5"/>
                </g>
                <g id="arrowRight" xlink:href="#dirArrow" transform="rotate(90) translate(36 -43)" onmousedown="handlePan(1,0)">
                  <use xlink:href="#rim" fill="#404040">
                        <set attributeName="fill" to="#808080" begin="arrowRight.mouseover" end="arrowRight.mouseout"/>
                  </use>
                  <path fill="none" stroke="white" stroke-width="1.5" d="M0,-3.0v7 M-2.5,-0.5L0,-3.0L2.5,-0.5"/>
                </g>
                <g id="arrowDown" xlink:href="#dirArrow" transform="rotate(180) translate(-30 -48)" onmousedown="handlePan(0,1)">
                  <use xlink:href="#rim" fill="#404040">
                        <set attributeName="fill" to="#808080" begin="arrowDown.mouseover" end="arrowDown.mouseout"/>
                  </use>
                  <path fill="none" stroke="white" stroke-width="1.5" d="M0,-3.0v7 M-2.5,-0.5L0,-3.0L2.5,-0.5"/>
                </g>
                <g id="arrowLeft" xlink:href="#dirArrow" transform="rotate(270) translate(-36 17)" onmousedown="handlePan(-1,0)">
                  <use xlink:href="#rim" fill="#404040">
                        <set attributeName="fill" to="#808080" begin="arrowLeft.mouseover" end="arrowLeft.mouseout"/>
                  </use>
                  <path fill="none" stroke="white" stroke-width="1.5" d="M0,-3.0v7 M-2.5,-0.5L0,-3.0L2.5,-0.5"/>
                </g>
        </g>
        <svg viewBox="0 0 15 15" width="100%" height="30px" preserveAspectRatio="xMaxYMin meet">
         <g id="arrow_out" transform="scale(0.3 0.3)">
          <a xlink:href="io_8c_a3a009dabc71ccfa59f196e1bc045de45_cgraph_org.svg" target="_base">
           <rect id="button" ry="5" rx="5" y="6" x="6" height="38" width="38"
                fill="#f2f5e9" fill-opacity="0.5" stroke="#606060" stroke-width="1.0"/>
           <path id="arrow"
             d="M 11.500037,31.436501 C 11.940474,20.09759 22.043105,11.32322 32.158766,21.979434 L 37.068811,17.246167 C 37.068811,17.246167 37.088388,32 37.088388,32 L 22.160133,31.978069 C 22.160133,31.978069 26.997745,27.140456 26.997745,27.140456 C 18.528582,18.264221 13.291696,25.230495 11.500037,31.436501 z"
             style="fill:#404040;"/>
          </a>
         </g>
        </svg>
</svg>
