<?xml version="1.0" encoding="UTF-8" standalone="no"?>
<!DOCTYPE svg PUBLIC "-//W3C//DTD SVG 1.1//EN"
 "http://www.w3.org/Graphics/SVG/1.1/DTD/svg11.dtd">
<!-- Generated by graphviz version 2.43.0 (0)
 -->
<!-- Title: WriteLESFields Pages: 1 -->
<svg width="673pt" height="192pt"
 viewBox="0.00 0.00 673.00 191.50" xmlns="http://www.w3.org/2000/svg" xmlns:xlink="http://www.w3.org/1999/xlink">
<g id="graph0" class="graph" transform="scale(1 1) rotate(0) translate(4 187.5)">
<title>WriteLESFields</title>
<!-- Node1 -->
<g id="node1" class="node">
<title>Node1</title>
<g id="a_node1"><a xlink:title="Writes LES&#45;related fields.">
<polygon fill="#bfbfbf" stroke="black" points="577,-88 577,-107 665,-107 665,-88 577,-88"/>
<text text-anchor="middle" x="621" y="-95" font-family="Helvetica,sans-Serif" font-size="10.00">WriteLESFields</text>
</a>
</g>
</g>
<!-- Node2 -->
<g id="node2" class="node">
<title>Node2</title>
<g id="a_node2"><a xlink:href="io_8c.html#a6228caf497c8e6134362aab6ba62828c" target="_top" xlink:title="Writes simulation fields to files.">
<polygon fill="none" stroke="black" points="418,-88 418,-107 541,-107 541,-88 418,-88"/>
<text text-anchor="middle" x="479.5" y="-95" font-family="Helvetica,sans-Serif" font-size="10.00">WriteSimulationFields</text>
</a>
</g>
</g>
<!-- Node1&#45;&gt;Node2 -->
<g id="edge1" class="edge">
<title>Node1&#45;&gt;Node2</title>
<path fill="none" stroke="midnightblue" d="M566.61,-97.5C558.24,-97.5 549.53,-97.5 541.01,-97.5"/>
<polygon fill="midnightblue" stroke="midnightblue" points="566.63,-101 576.63,-97.5 566.63,-94 566.63,-101"/>
</g>
<!-- Node3 -->
<g id="node3" class="node">
<title>Node3</title>
<g id="a_node3"><a xlink:href="simulation_8c.html#a5cfb2f783604af7f20171d19f969d5d3" target="_top" xlink:title="Executes the main time&#45;marching loop for the coupled Euler&#45;Lagrange simulation.">
<polygon fill="none" stroke="black" points="78.5,-164 78.5,-183 189.5,-183 189.5,-164 78.5,-164"/>
<text text-anchor="middle" x="134" y="-171" font-family="Helvetica,sans-Serif" font-size="10.00">AdvanceSimulation</text>
</a>
</g>
</g>
<!-- Node2&#45;&gt;Node3 -->
<g id="edge2" class="edge">
<title>Node2&#45;&gt;Node3</title>
<path fill="none" stroke="midnightblue" d="M456.44,-112.7C437.57,-124.86 409.22,-141.21 382,-149.5 317.91,-169.01 240.55,-173.68 189.68,-174.33"/>
<polygon fill="midnightblue" stroke="midnightblue" points="458.47,-115.55 464.89,-107.12 454.62,-109.71 458.47,-115.55"/>
</g>
<!-- Node4 -->
<g id="node4" class="node">
<title>Node4</title>
<g id="a_node4"><a xlink:href="picsolver_8c.html#a3c04138a5bfe5d72780bb7e82a18e627" target="_top" xlink:title=" ">
<polygon fill="none" stroke="black" points="0,-107 0,-126 41,-126 41,-107 0,-107"/>
<text text-anchor="middle" x="20.5" y="-114" font-family="Helvetica,sans-Serif" font-size="10.00">main</text>
</a>
</g>
</g>
<!-- Node2&#45;&gt;Node4 -->
<g id="edge6" class="edge">
<title>Node2&#45;&gt;Node4</title>
<path fill="none" stroke="midnightblue" d="M407.75,-100.44C300.8,-104.89 103.79,-113.08 41.16,-115.68"/>
<polygon fill="midnightblue" stroke="midnightblue" points="407.97,-103.94 417.81,-100.02 407.68,-96.94 407.97,-103.94"/>
</g>
<!-- Node5 -->
<g id="node5" class="node">
<title>Node5</title>
<g id="a_node5"><a xlink:href="simulation_8c.html#a7bc2bae7b01f179706b367c8637534c2" target="_top" xlink:title="Performs post&#45;load/post&#45;init consistency checks for a restarted simulation.">
<polygon fill="none" stroke="black" points="77,-69 77,-88 191,-88 191,-69 77,-69"/>
<text text-anchor="middle" x="134" y="-76" font-family="Helvetica,sans-Serif" font-size="10.00">FinalizeRestartState</text>
</a>
</g>
</g>
<!-- Node2&#45;&gt;Node5 -->
<g id="edge4" class="edge">
<title>Node2&#45;&gt;Node5</title>
<path fill="none" stroke="midnightblue" d="M407.84,-93.59C343.65,-90.04 250.21,-84.87 191.03,-81.6"/>
<polygon fill="midnightblue" stroke="midnightblue" points="407.7,-97.09 417.88,-94.15 408.09,-90.1 407.7,-97.09"/>
</g>
<!-- Node6 -->
<g id="node6" class="node">
<title>Node6</title>
<g id="a_node6"><a xlink:href="simulation_8c.html#aa5b3c3a0cd447931b47a01267c36acdd" target="_top" xlink:title="Finalizes the simulation setup at t=0, ensuring a consistent state before time marching.">
<polygon fill="none" stroke="black" points="234.5,-0.5 234.5,-30.5 374.5,-30.5 374.5,-0.5 234.5,-0.5"/>
<text text-anchor="start" x="242.5" y="-18.5" font-family="Helvetica,sans-Serif" font-size="10.00">PerformInitializedParticle</text>
<text text-anchor="middle" x="304.5" y="-7.5" font-family="Helvetica,sans-Serif" font-size="10.00">Setup</text>
</a>
</g>
</g>
<!-- Node2&#45;&gt;Node6 -->
<g id="edge7" class="edge">
<title>Node2&#45;&gt;Node6</title>
<path fill="none" stroke="midnightblue" d="M456.07,-82.34C436.98,-69.92 408.51,-52.49 382,-40.5 373.98,-36.87 365.27,-33.52 356.71,-30.52"/>
<polygon fill="midnightblue" stroke="midnightblue" points="454.36,-85.41 464.64,-88 458.21,-79.57 454.36,-85.41"/>
</g>
<!-- Node7 -->
<g id="node7" class="node">
<title>Node7</title>
<g id="a_node7"><a xlink:href="simulation_8c.html#ad8038ca2fcc4f0534e04d144c4ffbbef" target="_top" xlink:title="Finalizes the simulation state after particle and fluid data have been loaded from a restart.">
<polygon fill="none" stroke="black" points="227,-50 227,-69 382,-69 382,-50 227,-50"/>
<text text-anchor="middle" x="304.5" y="-57" font-family="Helvetica,sans-Serif" font-size="10.00">PerformLoadedParticleSetup</text>
</a>
</g>
</g>
<!-- Node2&#45;&gt;Node7 -->
<g id="edge10" class="edge">
<title>Node2&#45;&gt;Node7</title>
<path fill="none" stroke="midnightblue" d="M424.99,-85.75C400.53,-80.37 371.93,-74.09 348.84,-69.02"/>
<polygon fill="midnightblue" stroke="midnightblue" points="424.33,-89.18 434.84,-87.91 425.83,-82.35 424.33,-89.18"/>
</g>
<!-- Node3&#45;&gt;Node4 -->
<g id="edge3" class="edge">
<title>Node3&#45;&gt;Node4</title>
<path fill="none" stroke="midnightblue" d="M99.48,-159.99C92,-156.74 84.16,-153.14 77,-149.5 62.81,-142.28 47.29,-132.92 36.28,-126.01"/>
<polygon fill="midnightblue" stroke="midnightblue" points="98.13,-163.21 108.7,-163.9 100.87,-156.77 98.13,-163.21"/>
</g>
<!-- Node5&#45;&gt;Node4 -->
<g id="edge5" class="edge">
<title>Node5&#45;&gt;Node4</title>
<path fill="none" stroke="midnightblue" d="M95.15,-91.4C77.03,-97.57 56.1,-104.71 41.19,-109.79"/>
<polygon fill="midnightblue" stroke="midnightblue" points="96.53,-94.63 104.86,-88.09 94.27,-88 96.53,-94.63"/>
</g>
<!-- Node6&#45;&gt;Node4 -->
<g id="edge9" class="edge">
<title>Node6&#45;&gt;Node4</title>
<path fill="none" stroke="midnightblue" d="M224.4,-19.19C179,-24.08 122.22,-35.07 77,-59.5 55.61,-71.05 37.4,-93.66 28.11,-106.66"/>
<polygon fill="midnightblue" stroke="midnightblue" points="224.89,-22.66 234.5,-18.18 224.2,-15.69 224.89,-22.66"/>
</g>
<!-- Node6&#45;&gt;Node5 -->
<g id="edge8" class="edge">
<title>Node6&#45;&gt;Node5</title>
<path fill="none" stroke="midnightblue" d="M245.67,-33.88C239.34,-36.05 233.02,-38.28 227,-40.5 202.68,-49.48 175.28,-60.98 156.75,-68.97"/>
<polygon fill="midnightblue" stroke="midnightblue" points="247.2,-37.06 255.56,-30.55 244.97,-30.42 247.2,-37.06"/>
</g>
<!-- Node7&#45;&gt;Node5 -->
<g id="edge11" class="edge">
<title>Node7&#45;&gt;Node5</title>
<path fill="none" stroke="midnightblue" d="M216.51,-69.31C207.88,-70.28 199.28,-71.25 191.09,-72.18"/>
<polygon fill="midnightblue" stroke="midnightblue" points="217.1,-72.76 226.65,-68.17 216.32,-65.81 217.1,-72.76"/>
</g>
</g>
</svg>
