<?xml version="1.0" encoding="UTF-8" standalone="no"?>
<!DOCTYPE svg PUBLIC "-//W3C//DTD SVG 1.1//EN"
 "http://www.w3.org/Graphics/SVG/1.1/DTD/svg11.dtd">
<!-- Generated by graphviz version 2.43.0 (0)
 -->
<!-- Title: ReadOptionalField Pages: 1 -->
<svg width="836pt" height="142pt"
 viewBox="0.00 0.00 836.00 142.00" xmlns="http://www.w3.org/2000/svg" xmlns:xlink="http://www.w3.org/1999/xlink">
<g id="graph0" class="graph" transform="scale(1 1) rotate(0) translate(4 138)">
<title>ReadOptionalField</title>
<!-- Node1 -->
<g id="node1" class="node">
<title>Node1</title>
<g id="a_node1"><a xlink:title="Checks for and reads an optional Eulerian field from a file into a Vec.">
<polygon fill="#bfbfbf" stroke="black" points="723,-57.5 723,-76.5 828,-76.5 828,-57.5 723,-57.5"/>
<text text-anchor="middle" x="775.5" y="-64.5" font-family="Helvetica,sans-Serif" font-size="10.00">ReadOptionalField</text>
</a>
</g>
</g>
<!-- Node2 -->
<g id="node2" class="node">
<title>Node2</title>
<g id="a_node2"><a xlink:href="io_8c.html#a45ad89f26c78131d2990f09126abba4b" target="_top" xlink:title="Reads LES&#45;related fields.">
<polygon fill="none" stroke="black" points="585,-114.5 585,-133.5 671,-133.5 671,-114.5 585,-114.5"/>
<text text-anchor="middle" x="628" y="-121.5" font-family="Helvetica,sans-Serif" font-size="10.00">ReadLESFields</text>
</a>
</g>
</g>
<!-- Node1&#45;&gt;Node2 -->
<g id="edge1" class="edge">
<title>Node1&#45;&gt;Node2</title>
<path fill="none" stroke="midnightblue" d="M740.8,-80.2C714.08,-90.67 677.38,-105.05 653.43,-114.43"/>
<polygon fill="midnightblue" stroke="midnightblue" points="742.11,-83.45 750.15,-76.54 739.56,-76.93 742.11,-83.45"/>
</g>
<!-- Node3 -->
<g id="node3" class="node">
<title>Node3</title>
<g id="a_node3"><a xlink:href="io_8c.html#a3a009dabc71ccfa59f196e1bc045de45" target="_top" xlink:title="Reads simulation fields from files into their respective PETSc vectors.">
<polygon fill="none" stroke="black" points="411,-57.5 411,-76.5 533,-76.5 533,-57.5 411,-57.5"/>
<text text-anchor="middle" x="472" y="-64.5" font-family="Helvetica,sans-Serif" font-size="10.00">ReadSimulationFields</text>
</a>
</g>
</g>
<!-- Node1&#45;&gt;Node3 -->
<g id="edge11" class="edge">
<title>Node1&#45;&gt;Node3</title>
<path fill="none" stroke="midnightblue" d="M712.48,-67C659.98,-67 585.19,-67 533.21,-67"/>
<polygon fill="midnightblue" stroke="midnightblue" points="712.67,-70.5 722.67,-67 712.67,-63.5 712.67,-70.5"/>
</g>
<!-- Node9 -->
<g id="node9" class="node">
<title>Node9</title>
<g id="a_node9"><a xlink:href="io_8c.html#a19e2e0b57afae458bae068610141c031" target="_top" xlink:title="Reads RANS&#45;related fields.">
<polygon fill="none" stroke="black" points="580,-38.5 580,-57.5 676,-57.5 676,-38.5 580,-38.5"/>
<text text-anchor="middle" x="628" y="-45.5" font-family="Helvetica,sans-Serif" font-size="10.00">ReadRANSFields</text>
</a>
</g>
</g>
<!-- Node1&#45;&gt;Node9 -->
<g id="edge9" class="edge">
<title>Node1&#45;&gt;Node9</title>
<path fill="none" stroke="midnightblue" d="M712.66,-58.92C700.45,-57.33 687.81,-55.68 676.17,-54.16"/>
<polygon fill="midnightblue" stroke="midnightblue" points="712.42,-62.42 722.79,-60.25 713.33,-55.48 712.42,-62.42"/>
</g>
<!-- Node10 -->
<g id="node10" class="node">
<title>Node10</title>
<g id="a_node10"><a xlink:href="io_8c.html#a03f5b76975eea55434d764a23fd42623" target="_top" xlink:title="Reads statistical fields for averaging purposes.">
<polygon fill="none" stroke="black" points="569,-0.5 569,-19.5 687,-19.5 687,-0.5 569,-0.5"/>
<text text-anchor="middle" x="628" y="-7.5" font-family="Helvetica,sans-Serif" font-size="10.00">ReadStatisticalFields</text>
</a>
</g>
</g>
<!-- Node1&#45;&gt;Node10 -->
<g id="edge12" class="edge">
<title>Node1&#45;&gt;Node10</title>
<path fill="none" stroke="midnightblue" d="M744.57,-53.18C727.8,-45.64 706.41,-36.38 687,-29 678.28,-25.69 668.71,-22.41 659.89,-19.53"/>
<polygon fill="midnightblue" stroke="midnightblue" points="743.31,-56.45 753.86,-57.39 746.2,-50.07 743.31,-56.45"/>
</g>
<!-- Node2&#45;&gt;Node3 -->
<g id="edge2" class="edge">
<title>Node2&#45;&gt;Node3</title>
<path fill="none" stroke="midnightblue" d="M591.7,-110.93C563.39,-100.46 524.32,-85.99 498.86,-76.57"/>
<polygon fill="midnightblue" stroke="midnightblue" points="590.63,-114.27 601.22,-114.46 593.06,-107.71 590.63,-114.27"/>
</g>
<!-- Node4 -->
<g id="node4" class="node">
<title>Node4</title>
<g id="a_node4"><a xlink:href="simulation_8c.html#a5cfb2f783604af7f20171d19f969d5d3" target="_top" xlink:title="Executes the main time&#45;marching loop for the coupled Euler&#45;Lagrange simulation.">
<polygon fill="none" stroke="black" points="83.5,-85.5 83.5,-104.5 194.5,-104.5 194.5,-85.5 83.5,-85.5"/>
<text text-anchor="middle" x="139" y="-92.5" font-family="Helvetica,sans-Serif" font-size="10.00">AdvanceSimulation</text>
</a>
</g>
</g>
<!-- Node3&#45;&gt;Node4 -->
<g id="edge3" class="edge">
<title>Node3&#45;&gt;Node4</title>
<path fill="none" stroke="midnightblue" d="M420.29,-78.58C405.74,-81.48 389.81,-84.26 375,-86 313.57,-93.21 242.54,-95.04 194.8,-95.33"/>
<polygon fill="midnightblue" stroke="midnightblue" points="421.02,-82 430.11,-76.56 419.61,-75.15 421.02,-82"/>
</g>
<!-- Node6 -->
<g id="node6" class="node">
<title>Node6</title>
<g id="a_node6"><a xlink:href="postprocessor_8c.html#a3c04138a5bfe5d72780bb7e82a18e627" target="_top" xlink:title=" ">
<polygon fill="none" stroke="black" points="285.5,-57.5 285.5,-76.5 326.5,-76.5 326.5,-57.5 285.5,-57.5"/>
<text text-anchor="middle" x="306" y="-64.5" font-family="Helvetica,sans-Serif" font-size="10.00">main</text>
</a>
</g>
</g>
<!-- Node3&#45;&gt;Node6 -->
<g id="edge5" class="edge">
<title>Node3&#45;&gt;Node6</title>
<path fill="none" stroke="midnightblue" d="M400.66,-67C373.77,-67 345.17,-67 326.75,-67"/>
<polygon fill="midnightblue" stroke="midnightblue" points="400.86,-70.5 410.86,-67 400.86,-63.5 400.86,-70.5"/>
</g>
<!-- Node7 -->
<g id="node7" class="node">
<title>Node7</title>
<g id="a_node7"><a xlink:href="initialcondition_8c.html#a095ad9c41ee9300bcfa152c411835a91" target="_top" xlink:title="(HELPER) Reads fluid state for all blocks from restart files.">
<polygon fill="none" stroke="black" points="237,-19.5 237,-38.5 375,-38.5 375,-19.5 237,-19.5"/>
<text text-anchor="middle" x="306" y="-26.5" font-family="Helvetica,sans-Serif" font-size="10.00">SetInitialFluidState_Load</text>
</a>
</g>
</g>
<!-- Node3&#45;&gt;Node7 -->
<g id="edge6" class="edge">
<title>Node3&#45;&gt;Node7</title>
<path fill="none" stroke="midnightblue" d="M419.66,-55.1C396.61,-49.76 369.78,-43.55 348.09,-38.52"/>
<polygon fill="midnightblue" stroke="midnightblue" points="419.08,-58.56 429.62,-57.41 420.66,-51.74 419.08,-58.56"/>
</g>
<!-- Node5 -->
<g id="node5" class="node">
<title>Node5</title>
<g id="a_node5"><a xlink:href="picsolver_8c.html#a3c04138a5bfe5d72780bb7e82a18e627" target="_top" xlink:title=" ">
<polygon fill="none" stroke="black" points="0,-57.5 0,-76.5 41,-76.5 41,-57.5 0,-57.5"/>
<text text-anchor="middle" x="20.5" y="-64.5" font-family="Helvetica,sans-Serif" font-size="10.00">main</text>
</a>
</g>
</g>
<!-- Node4&#45;&gt;Node5 -->
<g id="edge4" class="edge">
<title>Node4&#45;&gt;Node5</title>
<path fill="none" stroke="midnightblue" d="M88.09,-83C71.53,-79.03 54.06,-74.83 41.17,-71.73"/>
<polygon fill="midnightblue" stroke="midnightblue" points="87.69,-86.51 98.23,-85.44 89.33,-79.7 87.69,-86.51"/>
</g>
<!-- Node8 -->
<g id="node8" class="node">
<title>Node8</title>
<g id="a_node8"><a xlink:href="initialcondition_8c.html#ad0dd7d3f2528b6a7802fcd551e88ea99" target="_top" xlink:title="High&#45;level orchestrator to set the complete initial state of the Eulerian solver.">
<polygon fill="none" stroke="black" points="77,-38.5 77,-57.5 201,-57.5 201,-38.5 77,-38.5"/>
<text text-anchor="middle" x="139" y="-45.5" font-family="Helvetica,sans-Serif" font-size="10.00">InitializeEulerianState</text>
</a>
</g>
</g>
<!-- Node7&#45;&gt;Node8 -->
<g id="edge7" class="edge">
<title>Node7&#45;&gt;Node8</title>
<path fill="none" stroke="midnightblue" d="M226.82,-38C218.17,-39 209.44,-40 201.04,-40.97"/>
<polygon fill="midnightblue" stroke="midnightblue" points="227.4,-41.46 236.94,-36.84 226.6,-34.5 227.4,-41.46"/>
</g>
<!-- Node8&#45;&gt;Node5 -->
<g id="edge8" class="edge">
<title>Node8&#45;&gt;Node5</title>
<path fill="none" stroke="midnightblue" d="M69.41,-59.19C59.08,-60.87 49.2,-62.48 41.12,-63.8"/>
<polygon fill="midnightblue" stroke="midnightblue" points="70.1,-62.62 79.41,-57.56 68.98,-55.71 70.1,-62.62"/>
</g>
<!-- Node9&#45;&gt;Node3 -->
<g id="edge10" class="edge">
<title>Node9&#45;&gt;Node3</title>
<path fill="none" stroke="midnightblue" d="M569.68,-55.07C557.75,-56.54 545.15,-58.1 533.12,-59.58"/>
<polygon fill="midnightblue" stroke="midnightblue" points="570.46,-58.5 579.96,-53.8 569.6,-51.55 570.46,-58.5"/>
</g>
<!-- Node10&#45;&gt;Node3 -->
<g id="edge13" class="edge">
<title>Node10&#45;&gt;Node3</title>
<path fill="none" stroke="midnightblue" d="M586.85,-22.8C580.85,-24.82 574.75,-26.92 569,-29 543.88,-38.08 515.48,-49.46 496.13,-57.39"/>
<polygon fill="midnightblue" stroke="midnightblue" points="588.38,-25.98 596.78,-19.52 586.19,-19.34 588.38,-25.98"/>
</g>
</g>
</svg>
