<?xml version="1.0" encoding="UTF-8" standalone="no"?>
<!DOCTYPE svg PUBLIC "-//W3C//DTD SVG 1.1//EN"
 "http://www.w3.org/Graphics/SVG/1.1/DTD/svg11.dtd">
<!-- Generated by graphviz version 2.43.0 (0)
 -->
<!-- Title: ParseAllBoundaryConditions Pages: 1 -->
<svg width="359pt" height="218pt"
 viewBox="0.00 0.00 359.00 218.00" xmlns="http://www.w3.org/2000/svg" xmlns:xlink="http://www.w3.org/1999/xlink">
<g id="graph0" class="graph" transform="scale(1 1) rotate(0) translate(4 214)">
<title>ParseAllBoundaryConditions</title>
<!-- Node1 -->
<g id="node1" class="node">
<title>Node1</title>
<g id="a_node1"><a xlink:title="Parses the boundary conditions file to configure the type, handler, and any associated parameters for...">
<polygon fill="#bfbfbf" stroke="black" points="0,-95.5 0,-114.5 155,-114.5 155,-95.5 0,-95.5"/>
<text text-anchor="middle" x="77.5" y="-102.5" font-family="Helvetica,sans-Serif" font-size="10.00">ParseAllBoundaryConditions</text>
</a>
</g>
</g>
<!-- Node2 -->
<g id="node2" class="node">
<title>Node2</title>
<g id="a_node2"><a xlink:href="logging_8h.html#ab17ab5ac0ff52ba6a344790a496f6111" target="_top" xlink:title="Converts a BCHandlerType enum to its string representation.">
<polygon fill="none" stroke="black" points="206,-190.5 206,-209.5 336,-209.5 336,-190.5 206,-190.5"/>
<text text-anchor="middle" x="271" y="-197.5" font-family="Helvetica,sans-Serif" font-size="10.00">BCHandlerTypeToString</text>
</a>
</g>
</g>
<!-- Node1&#45;&gt;Node2 -->
<g id="edge1" class="edge">
<title>Node1&#45;&gt;Node2</title>
<path fill="none" stroke="midnightblue" d="M89.82,-114.71C109.23,-130.87 150.67,-163.23 191,-181 196.68,-183.5 202.73,-185.7 208.87,-187.64"/>
<polygon fill="midnightblue" stroke="midnightblue" points="207.96,-191.02 218.54,-190.46 209.92,-184.3 207.96,-191.02"/>
</g>
<!-- Node3 -->
<g id="node3" class="node">
<title>Node3</title>
<g id="a_node3"><a xlink:href="io_8c.html#acee53553fb7d51eb948f1d4030518860" target="_top" xlink:title="Frees the memory allocated for a linked list of BC_Param structs.">
<polygon fill="none" stroke="black" points="218.5,-152.5 218.5,-171.5 323.5,-171.5 323.5,-152.5 218.5,-152.5"/>
<text text-anchor="middle" x="271" y="-159.5" font-family="Helvetica,sans-Serif" font-size="10.00">FreeBC_ParamList</text>
</a>
</g>
</g>
<!-- Node1&#45;&gt;Node3 -->
<g id="edge2" class="edge">
<title>Node1&#45;&gt;Node3</title>
<path fill="none" stroke="midnightblue" d="M104.66,-114.58C127.32,-122.7 161.09,-134.37 191,-143 199.47,-145.44 208.51,-147.83 217.34,-150.03"/>
<polygon fill="midnightblue" stroke="midnightblue" points="216.63,-153.46 227.18,-152.44 218.3,-146.66 216.63,-153.46"/>
</g>
<!-- Node4 -->
<g id="node4" class="node">
<title>Node4</title>
<g id="a_node4"><a xlink:href="io_8c.html#ab6896c293521673fcbff33001706d3ec" target="_top" xlink:title="Converts a string representation of a face to a BCFace enum.">
<polygon fill="none" stroke="black" points="225,-114.5 225,-133.5 317,-133.5 317,-114.5 225,-114.5"/>
<text text-anchor="middle" x="271" y="-121.5" font-family="Helvetica,sans-Serif" font-size="10.00">StringToBCFace</text>
</a>
</g>
</g>
<!-- Node1&#45;&gt;Node4 -->
<g id="edge3" class="edge">
<title>Node1&#45;&gt;Node4</title>
<path fill="none" stroke="midnightblue" d="M155.01,-112.59C174.97,-114.57 196.08,-116.67 214.7,-118.51"/>
<polygon fill="midnightblue" stroke="midnightblue" points="214.46,-122.01 224.76,-119.51 215.16,-115.04 214.46,-122.01"/>
</g>
<!-- Node5 -->
<g id="node5" class="node">
<title>Node5</title>
<g id="a_node5"><a xlink:href="io_8c.html#a15bdb2122be30f52df280e1d7204f578" target="_top" xlink:title="Converts a string representation of a handler to a BCHandlerType enum.">
<polygon fill="none" stroke="black" points="206,-76.5 206,-95.5 336,-95.5 336,-76.5 206,-76.5"/>
<text text-anchor="middle" x="271" y="-83.5" font-family="Helvetica,sans-Serif" font-size="10.00">StringToBCHandlerType</text>
</a>
</g>
</g>
<!-- Node1&#45;&gt;Node5 -->
<g id="edge4" class="edge">
<title>Node1&#45;&gt;Node5</title>
<path fill="none" stroke="midnightblue" d="M155.01,-97.41C168.46,-96.07 182.44,-94.69 195.82,-93.36"/>
<polygon fill="midnightblue" stroke="midnightblue" points="196.32,-96.83 205.92,-92.36 195.63,-89.86 196.32,-96.83"/>
</g>
<!-- Node6 -->
<g id="node6" class="node">
<title>Node6</title>
<g id="a_node6"><a xlink:href="io_8c.html#ad5fc2fe7ae3aa77361c5ab62343358a7" target="_top" xlink:title="Converts a string representation of a BC type to a BCType enum.">
<polygon fill="none" stroke="black" points="225,-38.5 225,-57.5 317,-57.5 317,-38.5 225,-38.5"/>
<text text-anchor="middle" x="271" y="-45.5" font-family="Helvetica,sans-Serif" font-size="10.00">StringToBCType</text>
</a>
</g>
</g>
<!-- Node1&#45;&gt;Node6 -->
<g id="edge5" class="edge">
<title>Node1&#45;&gt;Node6</title>
<path fill="none" stroke="midnightblue" d="M104.66,-95.42C127.32,-87.3 161.09,-75.63 191,-67 199.47,-64.56 208.51,-62.17 217.34,-59.97"/>
<polygon fill="midnightblue" stroke="midnightblue" points="218.3,-63.34 227.18,-57.56 216.63,-56.54 218.3,-63.34"/>
</g>
<!-- Node7 -->
<g id="node7" class="node">
<title>Node7</title>
<g id="a_node7"><a xlink:href="io_8c.html#a5fe767286174b757deb2d404f2b4843f" target="_top" xlink:title="Validates that a specific handler is compatible with a general BC type.">
<polygon fill="none" stroke="black" points="191,-0.5 191,-19.5 351,-19.5 351,-0.5 191,-0.5"/>
<text text-anchor="middle" x="271" y="-7.5" font-family="Helvetica,sans-Serif" font-size="10.00">ValidateBCHandlerForBCType</text>
</a>
</g>
</g>
<!-- Node1&#45;&gt;Node7 -->
<g id="edge6" class="edge">
<title>Node1&#45;&gt;Node7</title>
<path fill="none" stroke="midnightblue" d="M89.82,-95.29C109.23,-79.13 150.67,-46.77 191,-29 196.68,-26.5 202.73,-24.3 208.87,-22.36"/>
<polygon fill="midnightblue" stroke="midnightblue" points="209.92,-25.7 218.54,-19.54 207.96,-18.98 209.92,-25.7"/>
</g>
</g>
</svg>
