<?xml version="1.0" encoding="UTF-8" standalone="no"?>
<!DOCTYPE svg PUBLIC "-//W3C//DTD SVG 1.1//EN"
 "http://www.w3.org/Graphics/SVG/1.1/DTD/svg11.dtd">
<!-- Generated by graphviz version 2.43.0 (0)
 -->
<!-- Title: VecToArrayOnRank0 Pages: 1 -->
<svg width="545pt" height="142pt"
 viewBox="0.00 0.00 545.00 142.00" xmlns="http://www.w3.org/2000/svg" xmlns:xlink="http://www.w3.org/1999/xlink">
<g id="graph0" class="graph" transform="scale(1 1) rotate(0) translate(4 138)">
<title>VecToArrayOnRank0</title>
<!-- Node1 -->
<g id="node1" class="node">
<title>Node1</title>
<g id="a_node1"><a xlink:title="Gathers the contents of a distributed PETSc Vec into a single array on rank 0.">
<polygon fill="#bfbfbf" stroke="black" points="421,-57.5 421,-76.5 537,-76.5 537,-57.5 421,-57.5"/>
<text text-anchor="middle" x="479" y="-64.5" font-family="Helvetica,sans-Serif" font-size="10.00">VecToArrayOnRank0</text>
</a>
</g>
</g>
<!-- Node2 -->
<g id="node2" class="node">
<title>Node2</title>
<g id="a_node2"><a xlink:href="vtk__io_8c.html#a53beb8d06e750522a2381c7666c5011c" target="_top" xlink:title="Creates a C array of coordinates corresponding to a subsampled (legacy&#45;style) grid.">
<polygon fill="none" stroke="black" points="225.5,-114.5 225.5,-133.5 371.5,-133.5 371.5,-114.5 225.5,-114.5"/>
<text text-anchor="middle" x="298.5" y="-121.5" font-family="Helvetica,sans-Serif" font-size="10.00">PrepareOutputCoordinates</text>
</a>
</g>
</g>
<!-- Node1&#45;&gt;Node2 -->
<g id="edge1" class="edge">
<title>Node1&#45;&gt;Node2</title>
<path fill="none" stroke="midnightblue" d="M447.94,-80.8C429.95,-88.67 406.49,-98.28 385,-105 373.54,-108.59 361,-111.77 349.16,-114.46"/>
<polygon fill="midnightblue" stroke="midnightblue" points="449.6,-83.89 457.32,-76.63 446.76,-77.49 449.6,-83.89"/>
</g>
<!-- Node5 -->
<g id="node5" class="node">
<title>Node5</title>
<g id="a_node5"><a xlink:href="vtk__io_8c.html#a20704fac26a2ed14228875d307f002aa" target="_top" xlink:title="Creates a C array of field data corresponding to a subsampled (legacy&#45;style) grid.">
<polygon fill="none" stroke="black" points="212,-76.5 212,-95.5 385,-95.5 385,-76.5 212,-76.5"/>
<text text-anchor="middle" x="298.5" y="-83.5" font-family="Helvetica,sans-Serif" font-size="10.00">PrepareOutputEulerianFieldData</text>
</a>
</g>
</g>
<!-- Node1&#45;&gt;Node5 -->
<g id="edge4" class="edge">
<title>Node1&#45;&gt;Node5</title>
<path fill="none" stroke="midnightblue" d="M410.55,-74.18C402.24,-75.06 393.66,-75.98 385.12,-76.89"/>
<polygon fill="midnightblue" stroke="midnightblue" points="410.97,-77.66 420.54,-73.12 410.22,-70.69 410.97,-77.66"/>
</g>
<!-- Node6 -->
<g id="node6" class="node">
<title>Node6</title>
<g id="a_node6"><a xlink:href="io_8c.html#a9b18cb531c659ac173987ed73b1c1d24" target="_top" xlink:title="Reads a named field from file into a PETSc Vec, then gathers it to rank 0.">
<polygon fill="none" stroke="black" points="234.5,-38.5 234.5,-57.5 362.5,-57.5 362.5,-38.5 234.5,-38.5"/>
<text text-anchor="middle" x="298.5" y="-45.5" font-family="Helvetica,sans-Serif" font-size="10.00">ReadFieldDataToRank0</text>
</a>
</g>
</g>
<!-- Node1&#45;&gt;Node6 -->
<g id="edge6" class="edge">
<title>Node1&#45;&gt;Node6</title>
<path fill="none" stroke="midnightblue" d="M410.41,-59.81C394.77,-58.14 378.18,-56.37 362.72,-54.73"/>
<polygon fill="midnightblue" stroke="midnightblue" points="410.22,-63.31 420.54,-60.88 410.97,-56.34 410.22,-63.31"/>
</g>
<!-- Node7 -->
<g id="node7" class="node">
<title>Node7</title>
<g id="a_node7"><a xlink:href="io_8c.html#abbdec83c0db92b3f9a78ccaf8ec06d60" target="_top" xlink:title="Reads coordinate data (for particles) from file into a PETSc Vec, then gathers it to rank 0.">
<polygon fill="none" stroke="black" points="235,-0.5 235,-19.5 362,-19.5 362,-0.5 235,-0.5"/>
<text text-anchor="middle" x="298.5" y="-7.5" font-family="Helvetica,sans-Serif" font-size="10.00">ReadPositionsFromFile</text>
</a>
</g>
</g>
<!-- Node1&#45;&gt;Node7 -->
<g id="edge7" class="edge">
<title>Node1&#45;&gt;Node7</title>
<path fill="none" stroke="midnightblue" d="M447.94,-53.2C429.95,-45.33 406.49,-35.72 385,-29 373.54,-25.41 361,-22.23 349.16,-19.54"/>
<polygon fill="midnightblue" stroke="midnightblue" points="446.76,-56.51 457.32,-57.37 449.6,-50.11 446.76,-56.51"/>
</g>
<!-- Node3 -->
<g id="node3" class="node">
<title>Node3</title>
<g id="a_node3"><a xlink:href="postprocessor_8c.html#a06bd0048200cbc80db1d02bc5d276a8f" target="_top" xlink:title="Orchestrates the writing of a combined, multi&#45;field VTK file for a single time step.">
<polygon fill="none" stroke="black" points="77,-95.5 77,-114.5 176,-114.5 176,-95.5 77,-95.5"/>
<text text-anchor="middle" x="126.5" y="-102.5" font-family="Helvetica,sans-Serif" font-size="10.00">WriteEulerianFile</text>
</a>
</g>
</g>
<!-- Node2&#45;&gt;Node3 -->
<g id="edge2" class="edge">
<title>Node2&#45;&gt;Node3</title>
<path fill="none" stroke="midnightblue" d="M215.2,-114.8C201.8,-113.3 188.3,-111.8 176.06,-110.43"/>
<polygon fill="midnightblue" stroke="midnightblue" points="215.08,-118.31 225.4,-115.94 215.86,-111.35 215.08,-118.31"/>
</g>
<!-- Node4 -->
<g id="node4" class="node">
<title>Node4</title>
<g id="a_node4"><a xlink:href="postprocessor_8c.html#a3c04138a5bfe5d72780bb7e82a18e627" target="_top" xlink:title=" ">
<polygon fill="none" stroke="black" points="0,-95.5 0,-114.5 41,-114.5 41,-95.5 0,-95.5"/>
<text text-anchor="middle" x="20.5" y="-102.5" font-family="Helvetica,sans-Serif" font-size="10.00">main</text>
</a>
</g>
</g>
<!-- Node3&#45;&gt;Node4 -->
<g id="edge3" class="edge">
<title>Node3&#45;&gt;Node4</title>
<path fill="none" stroke="midnightblue" d="M66.74,-105C57.48,-105 48.5,-105 41.02,-105"/>
<polygon fill="midnightblue" stroke="midnightblue" points="66.85,-108.5 76.85,-105 66.85,-101.5 66.85,-108.5"/>
</g>
<!-- Node5&#45;&gt;Node3 -->
<g id="edge5" class="edge">
<title>Node5&#45;&gt;Node3</title>
<path fill="none" stroke="midnightblue" d="M201.99,-96.67C193.16,-97.66 184.48,-98.63 176.35,-99.54"/>
<polygon fill="midnightblue" stroke="midnightblue" points="202.45,-100.14 212,-95.56 201.68,-93.19 202.45,-100.14"/>
</g>
</g>
</svg>
