<?xml version="1.0" encoding="UTF-8" standalone="no"?>
<!DOCTYPE svg PUBLIC "-//W3C//DTD SVG 1.1//EN"
 "http://www.w3.org/Graphics/SVG/1.1/DTD/svg11.dtd">
<!-- Generated by graphviz version 2.43.0 (0)
 -->
<!-- Title: ReadSimulationFields Pages: 1 -->
<svg width="541pt" height="94pt"
 viewBox="0.00 0.00 541.00 94.00" xmlns="http://www.w3.org/2000/svg" xmlns:xlink="http://www.w3.org/1999/xlink">
<g id="graph0" class="graph" transform="scale(1 1) rotate(0) translate(4 90)">
<title>ReadSimulationFields</title>
<!-- Node1 -->
<g id="node1" class="node">
<title>Node1</title>
<g id="a_node1"><a xlink:title="Reads binary field data for velocity, pressure, and other required vectors.">
<polygon fill="#bfbfbf" stroke="black" points="411,-38.5 411,-57.5 533,-57.5 533,-38.5 411,-38.5"/>
<text text-anchor="middle" x="472" y="-45.5" font-family="Helvetica,sans-Serif" font-size="10.00">ReadSimulationFields</text>
</a>
</g>
</g>
<!-- Node2 -->
<g id="node2" class="node">
<title>Node2</title>
<g id="a_node2"><a xlink:href="simulation_8c.html#a5cfb2f783604af7f20171d19f969d5d3" target="_top" xlink:title="Executes the main time&#45;marching loop for the coupled Euler&#45;Lagrange simulation.">
<polygon fill="none" stroke="black" points="83.5,-66.5 83.5,-85.5 194.5,-85.5 194.5,-66.5 83.5,-66.5"/>
<text text-anchor="middle" x="139" y="-73.5" font-family="Helvetica,sans-Serif" font-size="10.00">AdvanceSimulation</text>
</a>
</g>
</g>
<!-- Node1&#45;&gt;Node2 -->
<g id="edge1" class="edge">
<title>Node1&#45;&gt;Node2</title>
<path fill="none" stroke="midnightblue" d="M420.29,-59.58C405.74,-62.48 389.81,-65.26 375,-67 313.57,-74.21 242.54,-76.04 194.8,-76.33"/>
<polygon fill="midnightblue" stroke="midnightblue" points="421.02,-63 430.11,-57.56 419.61,-56.15 421.02,-63"/>
</g>
<!-- Node4 -->
<g id="node4" class="node">
<title>Node4</title>
<g id="a_node4"><a xlink:href="postprocessor_8c.html#a3c04138a5bfe5d72780bb7e82a18e627" target="_top" xlink:title=" ">
<polygon fill="none" stroke="black" points="285.5,-38.5 285.5,-57.5 326.5,-57.5 326.5,-38.5 285.5,-38.5"/>
<text text-anchor="middle" x="306" y="-45.5" font-family="Helvetica,sans-Serif" font-size="10.00">main</text>
</a>
</g>
</g>
<!-- Node1&#45;&gt;Node4 -->
<g id="edge3" class="edge">
<title>Node1&#45;&gt;Node4</title>
<path fill="none" stroke="midnightblue" d="M400.66,-48C373.77,-48 345.17,-48 326.75,-48"/>
<polygon fill="midnightblue" stroke="midnightblue" points="400.86,-51.5 410.86,-48 400.86,-44.5 400.86,-51.5"/>
</g>
<!-- Node5 -->
<g id="node5" class="node">
<title>Node5</title>
<g id="a_node5"><a xlink:href="initialcondition_8c.html#a095ad9c41ee9300bcfa152c411835a91" target="_top" xlink:title="(HELPER) Reads fluid state for all blocks from restart files.">
<polygon fill="none" stroke="black" points="237,-0.5 237,-19.5 375,-19.5 375,-0.5 237,-0.5"/>
<text text-anchor="middle" x="306" y="-7.5" font-family="Helvetica,sans-Serif" font-size="10.00">SetInitialFluidState_Load</text>
</a>
</g>
</g>
<!-- Node1&#45;&gt;Node5 -->
<g id="edge4" class="edge">
<title>Node1&#45;&gt;Node5</title>
<path fill="none" stroke="midnightblue" d="M419.66,-36.1C396.61,-30.76 369.78,-24.55 348.09,-19.52"/>
<polygon fill="midnightblue" stroke="midnightblue" points="419.08,-39.56 429.62,-38.41 420.66,-32.74 419.08,-39.56"/>
</g>
<!-- Node3 -->
<g id="node3" class="node">
<title>Node3</title>
<g id="a_node3"><a xlink:href="picsolver_8c.html#a3c04138a5bfe5d72780bb7e82a18e627" target="_top" xlink:title=" ">
<polygon fill="none" stroke="black" points="0,-38.5 0,-57.5 41,-57.5 41,-38.5 0,-38.5"/>
<text text-anchor="middle" x="20.5" y="-45.5" font-family="Helvetica,sans-Serif" font-size="10.00">main</text>
</a>
</g>
</g>
<!-- Node2&#45;&gt;Node3 -->
<g id="edge2" class="edge">
<title>Node2&#45;&gt;Node3</title>
<path fill="none" stroke="midnightblue" d="M88.09,-64C71.53,-60.03 54.06,-55.83 41.17,-52.73"/>
<polygon fill="midnightblue" stroke="midnightblue" points="87.69,-67.51 98.23,-66.44 89.33,-60.7 87.69,-67.51"/>
</g>
<!-- Node6 -->
<g id="node6" class="node">
<title>Node6</title>
<g id="a_node6"><a xlink:href="initialcondition_8c.html#ad0dd7d3f2528b6a7802fcd551e88ea99" target="_top" xlink:title="High&#45;level orchestrator to set the complete initial state of the Eulerian solver.">
<polygon fill="none" stroke="black" points="77,-19.5 77,-38.5 201,-38.5 201,-19.5 77,-19.5"/>
<text text-anchor="middle" x="139" y="-26.5" font-family="Helvetica,sans-Serif" font-size="10.00">InitializeEulerianState</text>
</a>
</g>
</g>
<!-- Node5&#45;&gt;Node6 -->
<g id="edge5" class="edge">
<title>Node5&#45;&gt;Node6</title>
<path fill="none" stroke="midnightblue" d="M226.82,-19C218.17,-20 209.44,-21 201.04,-21.97"/>
<polygon fill="midnightblue" stroke="midnightblue" points="227.4,-22.46 236.94,-17.84 226.6,-15.5 227.4,-22.46"/>
</g>
<!-- Node6&#45;&gt;Node3 -->
<g id="edge6" class="edge">
<title>Node6&#45;&gt;Node3</title>
<path fill="none" stroke="midnightblue" d="M69.41,-40.19C59.08,-41.87 49.2,-43.48 41.12,-44.8"/>
<polygon fill="midnightblue" stroke="midnightblue" points="70.1,-43.62 79.41,-38.56 68.98,-36.71 70.1,-43.62"/>
</g>
</g>
</svg>
