<?xml version="1.0" encoding="UTF-8" standalone="no"?>
<!DOCTYPE svg PUBLIC "-//W3C//DTD SVG 1.1//EN"
 "http://www.w3.org/Graphics/SVG/1.1/DTD/svg11.dtd">
<!-- Generated by graphviz version 2.43.0 (0)
 -->
<!-- Title: WriteFieldData Pages: 1 -->
<!--zoomable 218 -->
<svg id="main" version="1.1" xmlns="http://www.w3.org/2000/svg" xmlns:xlink="http://www.w3.org/1999/xlink" xml:space="preserve" onload="init(evt)">
<style type="text/css"><![CDATA[
.edge:hover path { stroke: red; }
.edge:hover polygon { stroke: red; fill: red; }
]]></style>
<script type="text/javascript"><![CDATA[
var edges = document.getElementsByTagName('g');
if (edges && edges.length) {
  for (var i=0;i<edges.length;i++) {
    if (edges[i].id.substr(0,4)=='edge') {
      edges[i].setAttribute('class','edge');
    }
  }
}
]]></script>
        <defs>
                <circle id="rim" cx="0" cy="0" r="7"/>
                <circle id="rim2" cx="0" cy="0" r="3.5"/>
                <g id="zoomPlus">
                        <use xlink:href="#rim" fill="#404040">
                                <set attributeName="fill" to="#808080" begin="zoomplus.mouseover" end="zoomplus.mouseout"/>
                        </use>
                        <path d="M-4,0h8M0,-4v8" fill="none" stroke="white" stroke-width="1.5" pointer-events="none"/>
                </g>
                <g id="zoomMin">
                        <use xlink:href="#rim" fill="#404040">
                                <set attributeName="fill" to="#808080" begin="zoomminus.mouseover" end="zoomminus.mouseout"/>
                        </use>
                        <path d="M-4,0h8" fill="none" stroke="white" stroke-width="1.5" pointer-events="none"/>
                </g>
                <g id="dirArrow">
                        <path fill="none" stroke="white" stroke-width="1.5" d="M0,-3.0v7 M-2.5,-0.5L0,-3.0L2.5,-0.5"/>
                </g>
               <g id="resetDef">
                       <use xlink:href="#rim2" fill="#404040">
                               <set attributeName="fill" to="#808080" begin="reset.mouseover" end="reset.mouseout"/>
                       </use>
               </g>
        </defs>

<script type="text/javascript">
var viewWidth = 829;
var viewHeight = 218;
var sectionId = 'dynsection-13';
</script>
<script xlink:href="svgpan.js"/>
<svg id="graph" class="graph">
<g id="viewport">
<title>WriteFieldData</title>
<!-- Node1 -->
<g id="node1" class="node">
<title>Node1</title>
<g id="a_node1"><a xlink:title="Writes data from a specific PETSc vector to a file.">
<polygon fill="#bfbfbf" stroke="black" points="732,-95.5 732,-114.5 821,-114.5 821,-95.5 732,-95.5"/>
<text text-anchor="middle" x="776.5" y="-102.5" font-family="Helvetica,sans-Serif" font-size="10.00">WriteFieldData</text>
</a>
</g>
</g>
<!-- Node2 -->
<g id="node2" class="node">
<title>Node2</title>
<g id="a_node2"><a xlink:href="io_8c.html#aa7fe2d107007076b401d19ba9145a354" target="_top" xlink:title="Writes LES&#45;related fields.">
<polygon fill="none" stroke="black" points="592.5,-76.5 592.5,-95.5 680.5,-95.5 680.5,-76.5 592.5,-76.5"/>
<text text-anchor="middle" x="636.5" y="-83.5" font-family="Helvetica,sans-Serif" font-size="10.00">WriteLESFields</text>
</a>
</g>
</g>
<!-- Node1&#45;&gt;Node2 -->
<g id="edge1" class="edge">
<title>Node1&#45;&gt;Node2</title>
<path fill="none" stroke="midnightblue" d="M721.69,-97.59C708.17,-95.73 693.82,-93.75 680.88,-91.97"/>
<polygon fill="midnightblue" stroke="midnightblue" points="721.45,-101.09 731.84,-98.99 722.41,-94.16 721.45,-101.09"/>
</g>
<!-- Node3 -->
<g id="node3" class="node">
<title>Node3</title>
<g id="a_node3"><a xlink:href="io_8c.html#a6228caf497c8e6134362aab6ba62828c" target="_top" xlink:title="Writes simulation fields to files.">
<polygon fill="none" stroke="black" points="418,-114.5 418,-133.5 541,-133.5 541,-114.5 418,-114.5"/>
<text text-anchor="middle" x="479.5" y="-121.5" font-family="Helvetica,sans-Serif" font-size="10.00">WriteSimulationFields</text>
</a>
</g>
</g>
<!-- Node1&#45;&gt;Node3 -->
<g id="edge15" class="edge">
<title>Node1&#45;&gt;Node3</title>
<path fill="none" stroke="midnightblue" d="M721.81,-108.46C670.83,-111.74 594.27,-116.67 541.12,-120.1"/>
<polygon fill="midnightblue" stroke="midnightblue" points="722.22,-111.94 731.97,-107.8 721.77,-104.95 722.22,-111.94"/>
</g>
<!-- Node9 -->
<g id="node9" class="node">
<title>Node9</title>
<g id="a_node9"><a xlink:href="io_8c.html#a87768b32e2f93a36633fe104cebcdfe8" target="_top" xlink:title="Writes RANS&#45;related fields.">
<polygon fill="none" stroke="black" points="587.5,-190.5 587.5,-209.5 685.5,-209.5 685.5,-190.5 587.5,-190.5"/>
<text text-anchor="middle" x="636.5" y="-197.5" font-family="Helvetica,sans-Serif" font-size="10.00">WriteRANSFields</text>
</a>
</g>
</g>
<!-- Node1&#45;&gt;Node9 -->
<g id="edge13" class="edge">
<title>Node1&#45;&gt;Node9</title>
<path fill="none" stroke="midnightblue" d="M761.2,-122.68C746.49,-139.81 722.1,-165.41 696,-181 689.67,-184.78 682.51,-187.9 675.42,-190.45"/>
<polygon fill="midnightblue" stroke="midnightblue" points="764.23,-124.51 767.97,-114.6 758.87,-120.02 764.23,-124.51"/>
</g>
<!-- Node10 -->
<g id="node10" class="node">
<title>Node10</title>
<g id="a_node10"><a xlink:href="io_8c.html#a3515d51bdd91f00faf8e5023bc82534b" target="_top" xlink:title="Writes statistical fields for averaging purposes.">
<polygon fill="none" stroke="black" points="577,-152.5 577,-171.5 696,-171.5 696,-152.5 577,-152.5"/>
<text text-anchor="middle" x="636.5" y="-159.5" font-family="Helvetica,sans-Serif" font-size="10.00">WriteStatisticalFields</text>
</a>
</g>
</g>
<!-- Node1&#45;&gt;Node10 -->
<g id="edge16" class="edge">
<title>Node1&#45;&gt;Node10</title>
<path fill="none" stroke="midnightblue" d="M743.07,-118.5C728.66,-124.48 711.49,-131.61 696,-138 684.43,-142.77 671.57,-148.06 660.85,-152.45"/>
<polygon fill="midnightblue" stroke="midnightblue" points="744.66,-121.63 752.55,-114.56 741.97,-115.16 744.66,-121.63"/>
</g>
<!-- Node11 -->
<g id="node11" class="node">
<title>Node11</title>
<g id="a_node11"><a xlink:href="io_8c.html#a2c3ac50e182d193208800c89201ff236" target="_top" xlink:title="Writes data from a specific field in a PETSc Swarm to a file.">
<polygon fill="none" stroke="black" points="587,-38.5 587,-57.5 686,-57.5 686,-38.5 587,-38.5"/>
<text text-anchor="middle" x="636.5" y="-45.5" font-family="Helvetica,sans-Serif" font-size="10.00">WriteSwarmField</text>
</a>
</g>
</g>
<!-- Node1&#45;&gt;Node11 -->
<g id="edge18" class="edge">
<title>Node1&#45;&gt;Node11</title>
<path fill="none" stroke="midnightblue" d="M747.89,-90.7C732.78,-83.15 713.6,-74.03 696,-67 687.47,-63.59 678.07,-60.33 669.35,-57.5"/>
<polygon fill="midnightblue" stroke="midnightblue" points="746.67,-94 757.18,-95.39 749.83,-87.76 746.67,-94"/>
</g>
<!-- Node13 -->
<g id="node13" class="node">
<title>Node13</title>
<g id="a_node13"><a xlink:href="io_8c.html#aa66be4f86c7c18609e457dd542541dd3" target="_top" xlink:title="Writes integer swarm data by casting it to a temporary Vec and using WriteFieldData.">
<polygon fill="none" stroke="black" points="580.5,-0.5 580.5,-19.5 692.5,-19.5 692.5,-0.5 580.5,-0.5"/>
<text text-anchor="middle" x="636.5" y="-7.5" font-family="Helvetica,sans-Serif" font-size="10.00">WriteSwarmIntField</text>
</a>
</g>
</g>
<!-- Node1&#45;&gt;Node13 -->
<g id="edge23" class="edge">
<title>Node1&#45;&gt;Node13</title>
<path fill="none" stroke="midnightblue" d="M761.2,-87.32C746.49,-70.19 722.1,-44.59 696,-29 689.67,-25.22 682.51,-22.1 675.42,-19.55"/>
<polygon fill="midnightblue" stroke="midnightblue" points="758.87,-89.98 767.97,-95.4 764.23,-85.49 758.87,-89.98"/>
</g>
<!-- Node2&#45;&gt;Node3 -->
<g id="edge2" class="edge">
<title>Node2&#45;&gt;Node3</title>
<path fill="none" stroke="midnightblue" d="M586.39,-98.04C564.74,-103.35 539.65,-109.5 519.33,-114.48"/>
<polygon fill="midnightblue" stroke="midnightblue" points="587.51,-101.37 596.39,-95.59 585.84,-94.57 587.51,-101.37"/>
</g>
<!-- Node4 -->
<g id="node4" class="node">
<title>Node4</title>
<g id="a_node4"><a xlink:href="simulation_8c.html#a5cfb2f783604af7f20171d19f969d5d3" target="_top" xlink:title="Executes the main time&#45;marching loop for the coupled Euler&#45;Lagrange simulation.">
<polygon fill="none" stroke="black" points="249,-10.5 249,-29.5 360,-29.5 360,-10.5 249,-10.5"/>
<text text-anchor="middle" x="304.5" y="-17.5" font-family="Helvetica,sans-Serif" font-size="10.00">AdvanceSimulation</text>
</a>
</g>
</g>
<!-- Node3&#45;&gt;Node4 -->
<g id="edge3" class="edge">
<title>Node3&#45;&gt;Node4</title>
<path fill="none" stroke="midnightblue" d="M460.59,-107.39C435.22,-84 390.92,-43.68 382,-39 374.61,-35.12 366.39,-32.02 358.17,-29.53"/>
<polygon fill="midnightblue" stroke="midnightblue" points="458.37,-110.1 468.09,-114.32 463.12,-104.96 458.37,-110.1"/>
</g>
<!-- Node5 -->
<g id="node5" class="node">
<title>Node5</title>
<g id="a_node5"><a xlink:href="picsolver_8c.html#a3c04138a5bfe5d72780bb7e82a18e627" target="_top" xlink:title=" ">
<polygon fill="none" stroke="black" points="0,-77.5 0,-96.5 41,-96.5 41,-77.5 0,-77.5"/>
<text text-anchor="middle" x="20.5" y="-84.5" font-family="Helvetica,sans-Serif" font-size="10.00">main</text>
</a>
</g>
</g>
<!-- Node3&#45;&gt;Node5 -->
<g id="edge7" class="edge">
<title>Node3&#45;&gt;Node5</title>
<path fill="none" stroke="midnightblue" d="M429.19,-135.63C414.13,-138.66 397.47,-141.49 382,-143 246.82,-156.18 204.25,-171.46 77,-124 60.07,-117.69 43.17,-105.33 32.54,-96.64"/>
<polygon fill="midnightblue" stroke="midnightblue" points="430.24,-138.98 439.32,-133.51 428.81,-132.13 430.24,-138.98"/>
</g>
<!-- Node6 -->
<g id="node6" class="node">
<title>Node6</title>
<g id="a_node6"><a xlink:href="simulation_8c.html#a7bc2bae7b01f179706b367c8637534c2" target="_top" xlink:title="Performs post&#45;load/post&#45;init consistency checks for a restarted simulation.">
<polygon fill="none" stroke="black" points="77,-95.5 77,-114.5 191,-114.5 191,-95.5 77,-95.5"/>
<text text-anchor="middle" x="134" y="-102.5" font-family="Helvetica,sans-Serif" font-size="10.00">FinalizeRestartState</text>
</a>
</g>
</g>
<!-- Node3&#45;&gt;Node6 -->
<g id="edge5" class="edge">
<title>Node3&#45;&gt;Node6</title>
<path fill="none" stroke="midnightblue" d="M407.63,-129.71C357.1,-132.59 287.65,-134.15 227,-127 206.78,-124.62 184.56,-119.38 167.02,-114.61"/>
<polygon fill="midnightblue" stroke="midnightblue" points="408.03,-133.19 417.8,-129.09 407.6,-126.2 408.03,-133.19"/>
</g>
<!-- Node7 -->
<g id="node7" class="node">
<title>Node7</title>
<g id="a_node7"><a xlink:href="simulation_8c.html#aa5b3c3a0cd447931b47a01267c36acdd" target="_top" xlink:title="Finalizes the simulation setup at t=0, ensuring a consistent state before time marching.">
<polygon fill="none" stroke="black" points="234.5,-49 234.5,-79 374.5,-79 374.5,-49 234.5,-49"/>
<text text-anchor="start" x="242.5" y="-67" font-family="Helvetica,sans-Serif" font-size="10.00">PerformInitializedParticle</text>
<text text-anchor="middle" x="304.5" y="-56" font-family="Helvetica,sans-Serif" font-size="10.00">Setup</text>
</a>
</g>
</g>
<!-- Node3&#45;&gt;Node7 -->
<g id="edge8" class="edge">
<title>Node3&#45;&gt;Node7</title>
<path fill="none" stroke="midnightblue" d="M443.15,-110.87C424.93,-104.18 402.33,-96.01 382,-89 372.49,-85.72 362.28,-82.31 352.51,-79.1"/>
<polygon fill="midnightblue" stroke="midnightblue" points="442.18,-114.24 452.78,-114.42 444.6,-107.68 442.18,-114.24"/>
</g>
<!-- Node8 -->
<g id="node8" class="node">
<title>Node8</title>
<g id="a_node8"><a xlink:href="simulation_8c.html#ad8038ca2fcc4f0534e04d144c4ffbbef" target="_top" xlink:title="Finalizes the simulation state after particle and fluid data have been loaded from a restart.">
<polygon fill="none" stroke="black" points="227,-98.5 227,-117.5 382,-117.5 382,-98.5 227,-98.5"/>
<text text-anchor="middle" x="304.5" y="-105.5" font-family="Helvetica,sans-Serif" font-size="10.00">PerformLoadedParticleSetup</text>
</a>
</g>
</g>
<!-- Node3&#45;&gt;Node8 -->
<g id="edge11" class="edge">
<title>Node3&#45;&gt;Node8</title>
<path fill="none" stroke="midnightblue" d="M407.79,-117.46C399.32,-116.68 390.64,-115.87 382.09,-115.08"/>
<polygon fill="midnightblue" stroke="midnightblue" points="407.71,-120.97 417.99,-118.4 408.36,-114 407.71,-120.97"/>
</g>
<!-- Node4&#45;&gt;Node5 -->
<g id="edge4" class="edge">
<title>Node4&#45;&gt;Node5</title>
<path fill="none" stroke="midnightblue" d="M245,-31.57C199.08,-40.98 133.66,-55.09 77,-70 65.01,-73.15 51.73,-77.2 41.17,-80.56"/>
<polygon fill="midnightblue" stroke="midnightblue" points="245.97,-34.95 255.07,-29.52 244.57,-28.09 245.97,-34.95"/>
</g>
<!-- Node6&#45;&gt;Node5 -->
<g id="edge6" class="edge">
<title>Node6&#45;&gt;Node5</title>
<path fill="none" stroke="midnightblue" d="M66.99,-94.34C57.56,-92.82 48.53,-91.36 41.04,-90.15"/>
<polygon fill="midnightblue" stroke="midnightblue" points="66.49,-97.81 76.92,-95.95 67.61,-90.9 66.49,-97.81"/>
</g>
<!-- Node7&#45;&gt;Node5 -->
<g id="edge10" class="edge">
<title>Node7&#45;&gt;Node5</title>
<path fill="none" stroke="midnightblue" d="M223.88,-70.49C161.19,-75.61 78.38,-82.36 41.13,-85.4"/>
<polygon fill="midnightblue" stroke="midnightblue" points="224.47,-73.96 234.15,-69.66 223.9,-66.98 224.47,-73.96"/>
</g>
<!-- Node7&#45;&gt;Node6 -->
<g id="edge9" class="edge">
<title>Node7&#45;&gt;Node6</title>
<path fill="none" stroke="midnightblue" d="M231.82,-81.44C212.09,-86.24 191.42,-91.27 174.27,-95.45"/>
<polygon fill="midnightblue" stroke="midnightblue" points="232.82,-84.8 241.71,-79.03 231.17,-78 232.82,-84.8"/>
</g>
<!-- Node8&#45;&gt;Node6 -->
<g id="edge12" class="edge">
<title>Node8&#45;&gt;Node6</title>
<path fill="none" stroke="midnightblue" d="M216.51,-106.45C207.88,-106.3 199.28,-106.14 191.09,-106"/>
<polygon fill="midnightblue" stroke="midnightblue" points="216.59,-109.95 226.65,-106.63 216.71,-102.95 216.59,-109.95"/>
</g>
<!-- Node9&#45;&gt;Node3 -->
<g id="edge14" class="edge">
<title>Node9&#45;&gt;Node3</title>
<path fill="none" stroke="midnightblue" d="M592.08,-187.08C586.93,-185.21 581.8,-183.17 577,-181 546.14,-167.08 512.65,-145.75 494.36,-133.51"/>
<polygon fill="midnightblue" stroke="midnightblue" points="591.32,-190.53 601.92,-190.49 593.61,-183.91 591.32,-190.53"/>
</g>
<!-- Node10&#45;&gt;Node3 -->
<g id="edge17" class="edge">
<title>Node10&#45;&gt;Node3</title>
<path fill="none" stroke="midnightblue" d="M586.39,-149.96C564.74,-144.65 539.65,-138.5 519.33,-133.52"/>
<polygon fill="midnightblue" stroke="midnightblue" points="585.84,-153.43 596.39,-152.41 587.51,-146.63 585.84,-153.43"/>
</g>
<!-- Node12 -->
<g id="node12" class="node">
<title>Node12</title>
<g id="a_node12"><a xlink:href="io_8c.html#a07b0fa84e3d8c749c5e337aba7c0366a" target="_top" xlink:title="Writes a predefined set of PETSc Swarm fields to files.">
<polygon fill="none" stroke="black" points="421,-38.5 421,-57.5 538,-57.5 538,-38.5 421,-38.5"/>
<text text-anchor="middle" x="479.5" y="-45.5" font-family="Helvetica,sans-Serif" font-size="10.00">WriteAllSwarmFields</text>
</a>
</g>
</g>
<!-- Node11&#45;&gt;Node12 -->
<g id="edge19" class="edge">
<title>Node11&#45;&gt;Node12</title>
<path fill="none" stroke="midnightblue" d="M576.52,-48C563.95,-48 550.69,-48 538.18,-48"/>
<polygon fill="midnightblue" stroke="midnightblue" points="576.88,-51.5 586.88,-48 576.88,-44.5 576.88,-51.5"/>
</g>
<!-- Node12&#45;&gt;Node4 -->
<g id="edge20" class="edge">
<title>Node12&#45;&gt;Node4</title>
<path fill="none" stroke="midnightblue" d="M410.63,-37.02C393.92,-34.31 376.22,-31.45 360.22,-28.86"/>
<polygon fill="midnightblue" stroke="midnightblue" points="410.46,-40.53 420.89,-38.68 411.58,-33.62 410.46,-40.53"/>
</g>
<!-- Node12&#45;&gt;Node7 -->
<g id="edge21" class="edge">
<title>Node12&#45;&gt;Node7</title>
<path fill="none" stroke="midnightblue" d="M410.63,-54.28C398.78,-55.37 386.45,-56.51 374.57,-57.61"/>
<polygon fill="midnightblue" stroke="midnightblue" points="411.26,-57.73 420.89,-53.33 410.61,-50.76 411.26,-57.73"/>
</g>
<!-- Node12&#45;&gt;Node8 -->
<g id="edge22" class="edge">
<title>Node12&#45;&gt;Node8</title>
<path fill="none" stroke="midnightblue" d="M448.48,-61.69C429.64,-69.98 404.69,-80.37 382,-88 370.55,-91.85 357.93,-95.42 346.3,-98.44"/>
<polygon fill="midnightblue" stroke="midnightblue" points="450.02,-64.84 457.73,-57.58 447.17,-58.45 450.02,-64.84"/>
</g>
<!-- Node13&#45;&gt;Node12 -->
<g id="edge24" class="edge">
<title>Node13&#45;&gt;Node12</title>
<path fill="none" stroke="midnightblue" d="M586.39,-22.04C564.74,-27.35 539.65,-33.5 519.33,-38.48"/>
<polygon fill="midnightblue" stroke="midnightblue" points="587.51,-25.37 596.39,-19.59 585.84,-18.57 587.51,-25.37"/>
</g>
</g>
</svg>
        <g id="navigator" transform="translate(0 0)" fill="#404254">
                <rect fill="#f2f5e9" fill-opacity="0.5" stroke="#606060" stroke-width=".5" x="0" y="0" width="60" height="60"/>
                <use id="zoomplus" xlink:href="#zoomPlus" x="17" y="9" onmousedown="handleZoom(evt,'in')"/>
                <use id="zoomminus" xlink:href="#zoomMin" x="42" y="9" onmousedown="handleZoom(evt,'out')"/>
                <use id="reset" xlink:href="#resetDef" x="30" y="36" onmousedown="handleReset()"/>
                <g id="arrowUp" xlink:href="#dirArrow" transform="translate(30 24)" onmousedown="handlePan(0,-1)">
                  <use xlink:href="#rim" fill="#404040">
                        <set attributeName="fill" to="#808080" begin="arrowUp.mouseover" end="arrowUp.mouseout"/>
                  </use>
                  <path fill="none" stroke="white" stroke-width="1.5" d="M0,-3.0v7 M-2.5,-0.5L0,-3.0L2.5,-0.5"/>
                </g>
                <g id="arrowRight" xlink:href="#dirArrow" transform="rotate(90) translate(36 -43)" onmousedown="handlePan(1,0)">
                  <use xlink:href="#rim" fill="#404040">
                        <set attributeName="fill" to="#808080" begin="arrowRight.mouseover" end="arrowRight.mouseout"/>
                  </use>
                  <path fill="none" stroke="white" stroke-width="1.5" d="M0,-3.0v7 M-2.5,-0.5L0,-3.0L2.5,-0.5"/>
                </g>
                <g id="arrowDown" xlink:href="#dirArrow" transform="rotate(180) translate(-30 -48)" onmousedown="handlePan(0,1)">
                  <use xlink:href="#rim" fill="#404040">
                        <set attributeName="fill" to="#808080" begin="arrowDown.mouseover" end="arrowDown.mouseout"/>
                  </use>
                  <path fill="none" stroke="white" stroke-width="1.5" d="M0,-3.0v7 M-2.5,-0.5L0,-3.0L2.5,-0.5"/>
                </g>
                <g id="arrowLeft" xlink:href="#dirArrow" transform="rotate(270) translate(-36 17)" onmousedown="handlePan(-1,0)">
                  <use xlink:href="#rim" fill="#404040">
                        <set attributeName="fill" to="#808080" begin="arrowLeft.mouseover" end="arrowLeft.mouseout"/>
                  </use>
                  <path fill="none" stroke="white" stroke-width="1.5" d="M0,-3.0v7 M-2.5,-0.5L0,-3.0L2.5,-0.5"/>
                </g>
        </g>
        <svg viewBox="0 0 15 15" width="100%" height="30px" preserveAspectRatio="xMaxYMin meet">
         <g id="arrow_out" transform="scale(0.3 0.3)">
          <a xlink:href="io_8h_a3f37cf6ed1f13d0656740b8cff2b4ed8_icgraph_org.svg" target="_base">
           <rect id="button" ry="5" rx="5" y="6" x="6" height="38" width="38"
                fill="#f2f5e9" fill-opacity="0.5" stroke="#606060" stroke-width="1.0"/>
           <path id="arrow"
             d="M 11.500037,31.436501 C 11.940474,20.09759 22.043105,11.32322 32.158766,21.979434 L 37.068811,17.246167 C 37.068811,17.246167 37.088388,32 37.088388,32 L 22.160133,31.978069 C 22.160133,31.978069 26.997745,27.140456 26.997745,27.140456 C 18.528582,18.264221 13.291696,25.230495 11.500037,31.436501 z"
             style="fill:#404040;"/>
          </a>
         </g>
        </svg>
</svg>
