<?xml version="1.0" encoding="UTF-8" standalone="no"?>
<!DOCTYPE svg PUBLIC "-//W3C//DTD SVG 1.1//EN"
 "http://www.w3.org/Graphics/SVG/1.1/DTD/svg11.dtd">
<!-- Generated by graphviz version 2.43.0 (0)
 -->
<!-- Title: DisplayBanner Pages: 1 -->
<svg width="271pt" height="154pt"
 viewBox="0.00 0.00 271.00 153.50" xmlns="http://www.w3.org/2000/svg" xmlns:xlink="http://www.w3.org/1999/xlink">
<g id="graph0" class="graph" transform="scale(1 1) rotate(0) translate(4 149.5)">
<title>DisplayBanner</title>
<!-- Node1 -->
<g id="node1" class="node">
<title>Node1</title>
<g id="a_node1"><a xlink:title="Displays a structured banner summarizing the simulation configuration.">
<polygon fill="#bfbfbf" stroke="black" points="0,-69 0,-88 88,-88 88,-69 0,-69"/>
<text text-anchor="middle" x="44" y="-76" font-family="Helvetica,sans-Serif" font-size="10.00">DisplayBanner</text>
</a>
</g>
</g>
<!-- Node2 -->
<g id="node2" class="node">
<title>Node2</title>
<g id="a_node2"><a xlink:href="logging_8h.html#a9b417fe56a110c0f6a3e64860e3e5cdb" target="_top" xlink:title="Helper function to convert BCFace enum to a string representation.">
<polygon fill="none" stroke="black" points="147.5,-126 147.5,-145 239.5,-145 239.5,-126 147.5,-126"/>
<text text-anchor="middle" x="193.5" y="-133" font-family="Helvetica,sans-Serif" font-size="10.00">BCFaceToString</text>
</a>
</g>
</g>
<!-- Node1&#45;&gt;Node2 -->
<g id="edge1" class="edge">
<title>Node1&#45;&gt;Node2</title>
<path fill="none" stroke="midnightblue" d="M62.49,-88.03C78.24,-96.34 102.2,-108.31 124,-116.5 130.29,-118.86 137,-121.08 143.67,-123.11"/>
<polygon fill="midnightblue" stroke="midnightblue" points="142.77,-126.49 153.35,-125.93 144.73,-119.77 142.77,-126.49"/>
</g>
<!-- Node3 -->
<g id="node3" class="node">
<title>Node3</title>
<g id="a_node3"><a xlink:href="logging_8h.html#a804d193057ea6054b3911ae508808821" target="_top" xlink:title="Helper function to convert BCType enum to a string representation.">
<polygon fill="none" stroke="black" points="147.5,-88 147.5,-107 239.5,-107 239.5,-88 147.5,-88"/>
<text text-anchor="middle" x="193.5" y="-95" font-family="Helvetica,sans-Serif" font-size="10.00">BCTypeToString</text>
</a>
</g>
</g>
<!-- Node1&#45;&gt;Node3 -->
<g id="edge2" class="edge">
<title>Node1&#45;&gt;Node3</title>
<path fill="none" stroke="midnightblue" d="M88.06,-84.05C103.48,-86.03 121.08,-88.3 137.38,-90.4"/>
<polygon fill="midnightblue" stroke="midnightblue" points="136.97,-93.88 147.33,-91.68 137.86,-86.93 136.97,-93.88"/>
</g>
<!-- Node4 -->
<g id="node4" class="node">
<title>Node4</title>
<g id="a_node4"><a xlink:href="logging_8h.html#a80e6374d64447a79c3e41ed67f24020b" target="_top" xlink:title="Helper function to convert FieldInitialization to a string representation.">
<polygon fill="none" stroke="black" points="124,-50 124,-69 263,-69 263,-50 124,-50"/>
<text text-anchor="middle" x="193.5" y="-57" font-family="Helvetica,sans-Serif" font-size="10.00">FieldInitializationToString</text>
</a>
</g>
</g>
<!-- Node1&#45;&gt;Node4 -->
<g id="edge3" class="edge">
<title>Node1&#45;&gt;Node4</title>
<path fill="none" stroke="midnightblue" d="M88.06,-72.95C96.21,-71.9 104.98,-70.77 113.84,-69.63"/>
<polygon fill="midnightblue" stroke="midnightblue" points="114.38,-73.09 123.85,-68.34 113.49,-66.15 114.38,-73.09"/>
</g>
<!-- Node5 -->
<g id="node5" class="node">
<title>Node5</title>
<g id="a_node5"><a xlink:href="logging_8h.html#a7a9f51ee7d4e08776019ee1a4482eb58" target="_top" xlink:title="Helper function to convert ParticleInitialization to a string representation.">
<polygon fill="none" stroke="black" points="131,-0.5 131,-30.5 256,-30.5 256,-0.5 131,-0.5"/>
<text text-anchor="start" x="139" y="-18.5" font-family="Helvetica,sans-Serif" font-size="10.00">ParticleInitializationTo</text>
<text text-anchor="middle" x="193.5" y="-7.5" font-family="Helvetica,sans-Serif" font-size="10.00">String</text>
</a>
</g>
</g>
<!-- Node1&#45;&gt;Node5 -->
<g id="edge4" class="edge">
<title>Node1&#45;&gt;Node5</title>
<path fill="none" stroke="midnightblue" d="M63.6,-68.91C79.46,-60.89 102.97,-49.37 124,-40.5 129.03,-38.38 134.31,-36.26 139.61,-34.21"/>
<polygon fill="midnightblue" stroke="midnightblue" points="141.02,-37.42 149.13,-30.6 138.54,-30.87 141.02,-37.42"/>
</g>
</g>
</svg>
