<?xml version="1.0" encoding="UTF-8" standalone="no"?>
<!DOCTYPE svg PUBLIC "-//W3C//DTD SVG 1.1//EN"
 "http://www.w3.org/Graphics/SVG/1.1/DTD/svg11.dtd">
<!-- Generated by graphviz version 2.43.0 (0)
 -->
<!-- Title: ReadSwarmIntField Pages: 1 -->
<svg width="687pt" height="66pt"
 viewBox="0.00 0.00 687.00 66.00" xmlns="http://www.w3.org/2000/svg" xmlns:xlink="http://www.w3.org/1999/xlink">
<g id="graph0" class="graph" transform="scale(1 1) rotate(0) translate(4 62)">
<title>ReadSwarmIntField</title>
<!-- Node1 -->
<g id="node1" class="node">
<title>Node1</title>
<g id="a_node1"><a xlink:title="Reads integer swarm data by using ReadFieldData and casting the result.">
<polygon fill="#bfbfbf" stroke="black" points="569,-19.5 569,-38.5 679,-38.5 679,-19.5 569,-19.5"/>
<text text-anchor="middle" x="624" y="-26.5" font-family="Helvetica,sans-Serif" font-size="10.00">ReadSwarmIntField</text>
</a>
</g>
</g>
<!-- Node2 -->
<g id="node2" class="node">
<title>Node2</title>
<g id="a_node2"><a xlink:href="io_8c.html#aed3ed919a52fa88c62e1201b4316b2c4" target="_top" xlink:title="Checks for and reads an optional DMSwarm field from a file.">
<polygon fill="none" stroke="black" points="394,-19.5 394,-38.5 533,-38.5 533,-19.5 394,-19.5"/>
<text text-anchor="middle" x="463.5" y="-26.5" font-family="Helvetica,sans-Serif" font-size="10.00">ReadOptionalSwarmField</text>
</a>
</g>
</g>
<!-- Node1&#45;&gt;Node2 -->
<g id="edge1" class="edge">
<title>Node1&#45;&gt;Node2</title>
<path fill="none" stroke="midnightblue" d="M558.77,-29C550.35,-29 541.7,-29 533.21,-29"/>
<polygon fill="midnightblue" stroke="midnightblue" points="558.9,-32.5 568.9,-29 558.9,-25.5 558.9,-32.5"/>
</g>
<!-- Node3 -->
<g id="node3" class="node">
<title>Node3</title>
<g id="a_node3"><a xlink:href="io_8c.html#a64286adf953993b2a0c5c3fbee40d5a2" target="_top" xlink:title="Reads multiple fields into a DMSwarm, gracefully handling missing optional files.">
<polygon fill="none" stroke="black" points="242,-19.5 242,-38.5 358,-38.5 358,-19.5 242,-19.5"/>
<text text-anchor="middle" x="300" y="-26.5" font-family="Helvetica,sans-Serif" font-size="10.00">ReadAllSwarmFields</text>
</a>
</g>
</g>
<!-- Node2&#45;&gt;Node3 -->
<g id="edge2" class="edge">
<title>Node2&#45;&gt;Node3</title>
<path fill="none" stroke="midnightblue" d="M383.5,-29C374.92,-29 366.31,-29 358.06,-29"/>
<polygon fill="midnightblue" stroke="midnightblue" points="383.54,-32.5 393.54,-29 383.54,-25.5 383.54,-32.5"/>
</g>
<!-- Node4 -->
<g id="node4" class="node">
<title>Node4</title>
<g id="a_node4"><a xlink:href="ParticleSwarm_8c.html#ada215a5db25227a8fd2cd2596e7d3e57" target="_top" xlink:title="Perform particle swarm initialization, particle&#45;grid interaction, and related operations.">
<polygon fill="none" stroke="black" points="77,-38.5 77,-57.5 206,-57.5 206,-38.5 77,-38.5"/>
<text text-anchor="middle" x="141.5" y="-45.5" font-family="Helvetica,sans-Serif" font-size="10.00">InitializeParticleSwarm</text>
</a>
</g>
</g>
<!-- Node3&#45;&gt;Node4 -->
<g id="edge3" class="edge">
<title>Node3&#45;&gt;Node4</title>
<path fill="none" stroke="midnightblue" d="M231.49,-37.2C223.1,-38.21 214.55,-39.25 206.22,-40.26"/>
<polygon fill="midnightblue" stroke="midnightblue" points="232.11,-40.65 241.61,-35.97 231.26,-33.7 232.11,-40.65"/>
</g>
<!-- Node6 -->
<g id="node6" class="node">
<title>Node6</title>
<g id="a_node6"><a xlink:href="postprocessor_8c.html#a3c04138a5bfe5d72780bb7e82a18e627" target="_top" xlink:title=" ">
<polygon fill="none" stroke="black" points="121,-0.5 121,-19.5 162,-19.5 162,-0.5 121,-0.5"/>
<text text-anchor="middle" x="141.5" y="-7.5" font-family="Helvetica,sans-Serif" font-size="10.00">main</text>
</a>
</g>
</g>
<!-- Node3&#45;&gt;Node6 -->
<g id="edge5" class="edge">
<title>Node3&#45;&gt;Node6</title>
<path fill="none" stroke="midnightblue" d="M231.67,-20.83C206.42,-17.76 179.63,-14.51 162.08,-12.38"/>
<polygon fill="midnightblue" stroke="midnightblue" points="231.26,-24.3 241.61,-22.03 232.11,-17.35 231.26,-24.3"/>
</g>
<!-- Node5 -->
<g id="node5" class="node">
<title>Node5</title>
<g id="a_node5"><a xlink:href="picsolver_8c.html#a3c04138a5bfe5d72780bb7e82a18e627" target="_top" xlink:title=" ">
<polygon fill="none" stroke="black" points="0,-38.5 0,-57.5 41,-57.5 41,-38.5 0,-38.5"/>
<text text-anchor="middle" x="20.5" y="-45.5" font-family="Helvetica,sans-Serif" font-size="10.00">main</text>
</a>
</g>
</g>
<!-- Node4&#45;&gt;Node5 -->
<g id="edge4" class="edge">
<title>Node4&#45;&gt;Node5</title>
<path fill="none" stroke="midnightblue" d="M66.53,-48C57.19,-48 48.35,-48 41.03,-48"/>
<polygon fill="midnightblue" stroke="midnightblue" points="66.82,-51.5 76.82,-48 66.82,-44.5 66.82,-51.5"/>
</g>
</g>
</svg>
