<?xml version="1.0" encoding="UTF-8" standalone="no"?>
<!DOCTYPE svg PUBLIC "-//W3C//DTD SVG 1.1//EN"
 "http://www.w3.org/Graphics/SVG/1.1/DTD/svg11.dtd">
<!-- Generated by graphviz version 2.43.0 (0)
 -->
<!-- Title: SwarmFieldToArrayOnRank0 Pages: 1 -->
<svg width="554pt" height="28pt"
 viewBox="0.00 0.00 554.00 28.00" xmlns="http://www.w3.org/2000/svg" xmlns:xlink="http://www.w3.org/1999/xlink">
<g id="graph0" class="graph" transform="scale(1 1) rotate(0) translate(4 24)">
<title>SwarmFieldToArrayOnRank0</title>
<!-- Node1 -->
<g id="node1" class="node">
<title>Node1</title>
<g id="a_node1"><a xlink:title="Gathers any DMSwarm field from all ranks to a single, contiguous array on rank 0.">
<polygon fill="#bfbfbf" stroke="black" points="392,-0.5 392,-19.5 546,-19.5 546,-0.5 392,-0.5"/>
<text text-anchor="middle" x="469" y="-7.5" font-family="Helvetica,sans-Serif" font-size="10.00">SwarmFieldToArrayOnRank0</text>
</a>
</g>
</g>
<!-- Node2 -->
<g id="node2" class="node">
<title>Node2</title>
<g id="a_node2"><a xlink:href="vtk__io_8c.html#af1bf47e0b45318d43a97d2bdbf766888" target="_top" xlink:title="Gathers, merges, subsamples, and prepares particle data for VTK output.">
<polygon fill="none" stroke="black" points="209,-0.5 209,-19.5 356,-19.5 356,-0.5 209,-0.5"/>
<text text-anchor="middle" x="282.5" y="-7.5" font-family="Helvetica,sans-Serif" font-size="10.00">PrepareOutputParticleData</text>
</a>
</g>
</g>
<!-- Node1&#45;&gt;Node2 -->
<g id="edge1" class="edge">
<title>Node1&#45;&gt;Node2</title>
<path fill="none" stroke="midnightblue" d="M381.86,-10C373.26,-10 364.6,-10 356.17,-10"/>
<polygon fill="midnightblue" stroke="midnightblue" points="381.89,-13.5 391.89,-10 381.89,-6.5 381.89,-13.5"/>
</g>
<!-- Node3 -->
<g id="node3" class="node">
<title>Node3</title>
<g id="a_node3"><a xlink:href="postprocessor_8c.html#a90f52cd32d5560474c4892cf669c6ef8" target="_top" xlink:title="Writes particle data to a VTP file using the Prepare&#45;Write&#45;Cleanup pattern.">
<polygon fill="none" stroke="black" points="77,-0.5 77,-19.5 173,-19.5 173,-0.5 77,-0.5"/>
<text text-anchor="middle" x="125" y="-7.5" font-family="Helvetica,sans-Serif" font-size="10.00">WriteParticleFile</text>
</a>
</g>
</g>
<!-- Node2&#45;&gt;Node3 -->
<g id="edge2" class="edge">
<title>Node2&#45;&gt;Node3</title>
<path fill="none" stroke="midnightblue" d="M198.61,-10C189.97,-10 181.42,-10 173.39,-10"/>
<polygon fill="midnightblue" stroke="midnightblue" points="198.76,-13.5 208.76,-10 198.76,-6.5 198.76,-13.5"/>
</g>
<!-- Node4 -->
<g id="node4" class="node">
<title>Node4</title>
<g id="a_node4"><a xlink:href="postprocessor_8c.html#a3c04138a5bfe5d72780bb7e82a18e627" target="_top" xlink:title=" ">
<polygon fill="none" stroke="black" points="0,-0.5 0,-19.5 41,-19.5 41,-0.5 0,-0.5"/>
<text text-anchor="middle" x="20.5" y="-7.5" font-family="Helvetica,sans-Serif" font-size="10.00">main</text>
</a>
</g>
</g>
<!-- Node3&#45;&gt;Node4 -->
<g id="edge3" class="edge">
<title>Node3&#45;&gt;Node4</title>
<path fill="none" stroke="midnightblue" d="M66.87,-10C57.62,-10 48.63,-10 41.13,-10"/>
<polygon fill="midnightblue" stroke="midnightblue" points="66.95,-13.5 76.95,-10 66.95,-6.5 66.95,-13.5"/>
</g>
</g>
</svg>
