<?xml version="1.0" encoding="UTF-8" standalone="no"?>
<!DOCTYPE svg PUBLIC "-//W3C//DTD SVG 1.1//EN"
 "http://www.w3.org/Graphics/SVG/1.1/DTD/svg11.dtd">
<!-- Generated by graphviz version 2.43.0 (0)
 -->
<!-- Title: ReadAllSwarmFields Pages: 1 -->
<svg width="568pt" height="104pt"
 viewBox="0.00 0.00 568.00 104.00" xmlns="http://www.w3.org/2000/svg" xmlns:xlink="http://www.w3.org/1999/xlink">
<g id="graph0" class="graph" transform="scale(1 1) rotate(0) translate(4 100)">
<title>ReadAllSwarmFields</title>
<!-- Node1 -->
<g id="node1" class="node">
<title>Node1</title>
<g id="a_node1"><a xlink:title="Reads multiple fields (positions, velocity, CellID, and weight) into a DMSwarm.">
<polygon fill="#bfbfbf" stroke="black" points="0,-19.5 0,-38.5 116,-38.5 116,-19.5 0,-19.5"/>
<text text-anchor="middle" x="58" y="-26.5" font-family="Helvetica,sans-Serif" font-size="10.00">ReadAllSwarmFields</text>
</a>
</g>
</g>
<!-- Node2 -->
<g id="node2" class="node">
<title>Node2</title>
<g id="a_node2"><a xlink:href="io_8c.html#aed3ed919a52fa88c62e1201b4316b2c4" target="_top" xlink:title="Checks for and reads an optional DMSwarm field from a file.">
<polygon fill="none" stroke="black" points="152,-38.5 152,-57.5 291,-57.5 291,-38.5 152,-38.5"/>
<text text-anchor="middle" x="221.5" y="-45.5" font-family="Helvetica,sans-Serif" font-size="10.00">ReadOptionalSwarmField</text>
</a>
</g>
</g>
<!-- Node1&#45;&gt;Node2 -->
<g id="edge1" class="edge">
<title>Node1&#45;&gt;Node2</title>
<path fill="none" stroke="midnightblue" d="M116.39,-35.75C124.67,-36.73 133.3,-37.74 141.9,-38.75"/>
<polygon fill="midnightblue" stroke="midnightblue" points="141.62,-42.24 151.96,-39.94 142.44,-35.29 141.62,-42.24"/>
</g>
<!-- Node4 -->
<g id="node4" class="node">
<title>Node4</title>
<g id="a_node4"><a xlink:href="io_8c.html#a84fff45b8cbd148ed2429ba8fe12428f" target="_top" xlink:title="Reads data from a file into a specified field of a PETSc DMSwarm.">
<polygon fill="none" stroke="black" points="333,-0.5 333,-19.5 431,-19.5 431,-0.5 333,-0.5"/>
<text text-anchor="middle" x="382" y="-7.5" font-family="Helvetica,sans-Serif" font-size="10.00">ReadSwarmField</text>
</a>
</g>
</g>
<!-- Node1&#45;&gt;Node4 -->
<g id="edge7" class="edge">
<title>Node1&#45;&gt;Node4</title>
<path fill="none" stroke="midnightblue" d="M116.2,-25.63C174.42,-22.19 264.21,-16.89 322.79,-13.43"/>
<polygon fill="midnightblue" stroke="midnightblue" points="323.22,-16.92 332.99,-12.83 322.81,-9.93 323.22,-16.92"/>
</g>
<!-- Node3 -->
<g id="node3" class="node">
<title>Node3</title>
<g id="a_node3"><a xlink:href="io_8c.html#ab7d7097c8ad047feb1d460e4694b8b4f" target="_top" xlink:title="Checks for a data file&#39;s existence in a parallel&#45;safe manner.">
<polygon fill="none" stroke="black" points="339,-76.5 339,-95.5 425,-95.5 425,-76.5 339,-76.5"/>
<text text-anchor="middle" x="382" y="-83.5" font-family="Helvetica,sans-Serif" font-size="10.00">CheckDataFile</text>
</a>
</g>
</g>
<!-- Node2&#45;&gt;Node3 -->
<g id="edge2" class="edge">
<title>Node2&#45;&gt;Node3</title>
<path fill="none" stroke="midnightblue" d="M262.5,-57.59C283.41,-62.6 309.21,-68.79 331.39,-74.11"/>
<polygon fill="midnightblue" stroke="midnightblue" points="330.75,-77.55 341.29,-76.48 332.38,-70.74 330.75,-77.55"/>
</g>
<!-- Node2&#45;&gt;Node4 -->
<g id="edge3" class="edge">
<title>Node2&#45;&gt;Node4</title>
<path fill="none" stroke="midnightblue" d="M262.5,-38.41C283.41,-33.4 309.21,-27.21 331.39,-21.89"/>
<polygon fill="midnightblue" stroke="midnightblue" points="332.38,-25.26 341.29,-19.52 330.75,-18.45 332.38,-25.26"/>
</g>
<!-- Node6 -->
<g id="node6" class="node">
<title>Node6</title>
<g id="a_node6"><a xlink:href="io_8c.html#a2b23e672a36206721d69d7ff16d797c5" target="_top" xlink:title="Reads integer swarm data by using ReadFieldData and casting the result.">
<polygon fill="none" stroke="black" points="327,-38.5 327,-57.5 437,-57.5 437,-38.5 327,-38.5"/>
<text text-anchor="middle" x="382" y="-45.5" font-family="Helvetica,sans-Serif" font-size="10.00">ReadSwarmIntField</text>
</a>
</g>
</g>
<!-- Node2&#45;&gt;Node6 -->
<g id="edge5" class="edge">
<title>Node2&#45;&gt;Node6</title>
<path fill="none" stroke="midnightblue" d="M291.1,-48C299.54,-48 308.16,-48 316.54,-48"/>
<polygon fill="midnightblue" stroke="midnightblue" points="316.62,-51.5 326.62,-48 316.62,-44.5 316.62,-51.5"/>
</g>
<!-- Node5 -->
<g id="node5" class="node">
<title>Node5</title>
<g id="a_node5"><a xlink:href="io_8c.html#a570806d7e0694b5d996e0c6018b48908" target="_top" xlink:title="Reads data for a specific field from a file into the provided vector.">
<polygon fill="none" stroke="black" points="473,-19.5 473,-38.5 560,-38.5 560,-19.5 473,-19.5"/>
<text text-anchor="middle" x="516.5" y="-26.5" font-family="Helvetica,sans-Serif" font-size="10.00">ReadFieldData</text>
</a>
</g>
</g>
<!-- Node4&#45;&gt;Node5 -->
<g id="edge4" class="edge">
<title>Node4&#45;&gt;Node5</title>
<path fill="none" stroke="midnightblue" d="M431.21,-16.91C441.42,-18.38 452.25,-19.93 462.63,-21.42"/>
<polygon fill="midnightblue" stroke="midnightblue" points="462.41,-24.92 472.81,-22.88 463.4,-17.99 462.41,-24.92"/>
</g>
<!-- Node6&#45;&gt;Node5 -->
<g id="edge6" class="edge">
<title>Node6&#45;&gt;Node5</title>
<path fill="none" stroke="midnightblue" d="M437.28,-40.22C445.71,-39.01 454.41,-37.76 462.81,-36.56"/>
<polygon fill="midnightblue" stroke="midnightblue" points="463.46,-40 472.87,-35.11 462.47,-33.07 463.46,-40"/>
</g>
</g>
</svg>
