<?xml version="1.0" encoding="UTF-8" standalone="no"?>
<!DOCTYPE svg PUBLIC "-//W3C//DTD SVG 1.1//EN"
 "http://www.w3.org/Graphics/SVG/1.1/DTD/svg11.dtd">
<!-- Generated by graphviz version 2.43.0 (0)
 -->
<!-- Title: ParticleInitializationToString Pages: 1 -->
<svg width="334pt" height="39pt"
 viewBox="0.00 0.00 334.00 39.00" xmlns="http://www.w3.org/2000/svg" xmlns:xlink="http://www.w3.org/1999/xlink">
<g id="graph0" class="graph" transform="scale(1 1) rotate(0) translate(4 35)">
<title>ParticleInitializationToString</title>
<!-- Node1 -->
<g id="node1" class="node">
<title>Node1</title>
<g id="a_node1"><a xlink:title="Helper function to convert ParticleInitialization to a string representation.">
<polygon fill="#bfbfbf" stroke="black" points="201,-0.5 201,-30.5 326,-30.5 326,-0.5 201,-0.5"/>
<text text-anchor="start" x="209" y="-18.5" font-family="Helvetica,sans-Serif" font-size="10.00">ParticleInitializationTo</text>
<text text-anchor="middle" x="263.5" y="-7.5" font-family="Helvetica,sans-Serif" font-size="10.00">String</text>
</a>
</g>
</g>
<!-- Node2 -->
<g id="node2" class="node">
<title>Node2</title>
<g id="a_node2"><a xlink:href="io_8c.html#adde32528a690c023bc98c9e56ae2f2fb" target="_top" xlink:title="Displays a structured banner summarizing the simulation configuration.">
<polygon fill="none" stroke="black" points="77,-6 77,-25 165,-25 165,-6 77,-6"/>
<text text-anchor="middle" x="121" y="-13" font-family="Helvetica,sans-Serif" font-size="10.00">DisplayBanner</text>
</a>
</g>
</g>
<!-- Node1&#45;&gt;Node2 -->
<g id="edge1" class="edge">
<title>Node1&#45;&gt;Node2</title>
<path fill="none" stroke="midnightblue" d="M190.62,-15.5C181.87,-15.5 173.16,-15.5 165.02,-15.5"/>
<polygon fill="midnightblue" stroke="midnightblue" points="190.87,-19 200.87,-15.5 190.87,-12 190.87,-19"/>
</g>
<!-- Node3 -->
<g id="node3" class="node">
<title>Node3</title>
<g id="a_node3"><a xlink:href="picsolver_8c.html#a3c04138a5bfe5d72780bb7e82a18e627" target="_top" xlink:title=" ">
<polygon fill="none" stroke="black" points="0,-6 0,-25 41,-25 41,-6 0,-6"/>
<text text-anchor="middle" x="20.5" y="-13" font-family="Helvetica,sans-Serif" font-size="10.00">main</text>
</a>
</g>
</g>
<!-- Node2&#45;&gt;Node3 -->
<g id="edge2" class="edge">
<title>Node2&#45;&gt;Node3</title>
<path fill="none" stroke="midnightblue" d="M66.57,-15.5C57.52,-15.5 48.67,-15.5 41.23,-15.5"/>
<polygon fill="midnightblue" stroke="midnightblue" points="66.8,-19 76.8,-15.5 66.8,-12 66.8,-19"/>
</g>
</g>
</svg>
