<?xml version="1.0" encoding="UTF-8" standalone="no"?>
<!DOCTYPE svg PUBLIC "-//W3C//DTD SVG 1.1//EN"
 "http://www.w3.org/Graphics/SVG/1.1/DTD/svg11.dtd">
<!-- Generated by graphviz version 2.43.0 (0)
 -->
<!-- Title: ProfilingLogTimestepSummary Pages: 1 -->
<svg width="399pt" height="47pt"
 viewBox="0.00 0.00 399.00 47.00" xmlns="http://www.w3.org/2000/svg" xmlns:xlink="http://www.w3.org/1999/xlink">
<g id="graph0" class="graph" transform="scale(1 1) rotate(0) translate(4 43)">
<title>ProfilingLogTimestepSummary</title>
<!-- Node1 -->
<g id="node1" class="node">
<title>Node1</title>
<g id="a_node1"><a xlink:title="Logs the performance summary for the current timestep and resets timers.">
<polygon fill="#bfbfbf" stroke="black" points="224,-0.5 224,-19.5 391,-19.5 391,-0.5 224,-0.5"/>
<text text-anchor="middle" x="307.5" y="-7.5" font-family="Helvetica,sans-Serif" font-size="10.00">ProfilingLogTimestepSummary</text>
</a>
</g>
</g>
<!-- Node2 -->
<g id="node2" class="node">
<title>Node2</title>
<g id="a_node2"><a xlink:href="simulation_8c.html#a5cfb2f783604af7f20171d19f969d5d3" target="_top" xlink:title="Executes the main time&#45;marching loop for the coupled Euler&#45;Lagrange simulation.">
<polygon fill="none" stroke="black" points="77,-19.5 77,-38.5 188,-38.5 188,-19.5 77,-19.5"/>
<text text-anchor="middle" x="132.5" y="-26.5" font-family="Helvetica,sans-Serif" font-size="10.00">AdvanceSimulation</text>
</a>
</g>
</g>
<!-- Node1&#45;&gt;Node2 -->
<g id="edge1" class="edge">
<title>Node1&#45;&gt;Node2</title>
<path fill="none" stroke="midnightblue" d="M213.68,-20.19C205.08,-21.14 196.56,-22.07 188.47,-22.96"/>
<polygon fill="midnightblue" stroke="midnightblue" points="214.24,-23.65 223.8,-19.08 213.48,-16.7 214.24,-23.65"/>
</g>
<!-- Node3 -->
<g id="node3" class="node">
<title>Node3</title>
<g id="a_node3"><a xlink:href="picsolver_8c.html#a3c04138a5bfe5d72780bb7e82a18e627" target="_top" xlink:title=" ">
<polygon fill="none" stroke="black" points="0,-0.5 0,-19.5 41,-19.5 41,-0.5 0,-0.5"/>
<text text-anchor="middle" x="20.5" y="-7.5" font-family="Helvetica,sans-Serif" font-size="10.00">main</text>
</a>
</g>
</g>
<!-- Node1&#45;&gt;Node3 -->
<g id="edge3" class="edge">
<title>Node1&#45;&gt;Node3</title>
<path fill="none" stroke="midnightblue" d="M213.55,-10C152.03,-10 76.44,-10 41.26,-10"/>
<polygon fill="midnightblue" stroke="midnightblue" points="213.68,-13.5 223.68,-10 213.68,-6.5 213.68,-13.5"/>
</g>
<!-- Node2&#45;&gt;Node3 -->
<g id="edge2" class="edge">
<title>Node2&#45;&gt;Node3</title>
<path fill="none" stroke="midnightblue" d="M66.94,-17.85C57.54,-16.23 48.53,-14.67 41.05,-13.38"/>
<polygon fill="midnightblue" stroke="midnightblue" points="66.37,-21.3 76.82,-19.56 67.56,-14.4 66.37,-21.3"/>
</g>
</g>
</svg>
