<?xml version="1.0" encoding="UTF-8" standalone="no"?>
<!DOCTYPE svg PUBLIC "-//W3C//DTD SVG 1.1//EN"
 "http://www.w3.org/Graphics/SVG/1.1/DTD/svg11.dtd">
<!-- Generated by graphviz version 2.43.0 (0)
 -->
<!-- Title: FieldInitializationToString Pages: 1 -->
<svg width="348pt" height="28pt"
 viewBox="0.00 0.00 348.00 28.00" xmlns="http://www.w3.org/2000/svg" xmlns:xlink="http://www.w3.org/1999/xlink">
<g id="graph0" class="graph" transform="scale(1 1) rotate(0) translate(4 24)">
<title>FieldInitializationToString</title>
<!-- Node1 -->
<g id="node1" class="node">
<title>Node1</title>
<g id="a_node1"><a xlink:title="Helper function to convert FieldInitialization to a string representation.">
<polygon fill="#bfbfbf" stroke="black" points="201,-0.5 201,-19.5 340,-19.5 340,-0.5 201,-0.5"/>
<text text-anchor="middle" x="270.5" y="-7.5" font-family="Helvetica,sans-Serif" font-size="10.00">FieldInitializationToString</text>
</a>
</g>
</g>
<!-- Node2 -->
<g id="node2" class="node">
<title>Node2</title>
<g id="a_node2"><a xlink:href="io_8c.html#adde32528a690c023bc98c9e56ae2f2fb" target="_top" xlink:title="Displays a structured banner summarizing the simulation configuration.">
<polygon fill="none" stroke="black" points="77,-0.5 77,-19.5 165,-19.5 165,-0.5 77,-0.5"/>
<text text-anchor="middle" x="121" y="-7.5" font-family="Helvetica,sans-Serif" font-size="10.00">DisplayBanner</text>
</a>
</g>
</g>
<!-- Node1&#45;&gt;Node2 -->
<g id="edge1" class="edge">
<title>Node1&#45;&gt;Node2</title>
<path fill="none" stroke="midnightblue" d="M190.92,-10C182.06,-10 173.3,-10 165.14,-10"/>
<polygon fill="midnightblue" stroke="midnightblue" points="190.93,-13.5 200.93,-10 190.93,-6.5 190.93,-13.5"/>
</g>
<!-- Node3 -->
<g id="node3" class="node">
<title>Node3</title>
<g id="a_node3"><a xlink:href="picsolver_8c.html#a3c04138a5bfe5d72780bb7e82a18e627" target="_top" xlink:title=" ">
<polygon fill="none" stroke="black" points="0,-0.5 0,-19.5 41,-19.5 41,-0.5 0,-0.5"/>
<text text-anchor="middle" x="20.5" y="-7.5" font-family="Helvetica,sans-Serif" font-size="10.00">main</text>
</a>
</g>
</g>
<!-- Node2&#45;&gt;Node3 -->
<g id="edge2" class="edge">
<title>Node2&#45;&gt;Node3</title>
<path fill="none" stroke="midnightblue" d="M66.57,-10C57.52,-10 48.67,-10 41.23,-10"/>
<polygon fill="midnightblue" stroke="midnightblue" points="66.8,-13.5 76.8,-10 66.8,-6.5 66.8,-13.5"/>
</g>
</g>
</svg>
