<?xml version="1.0" encoding="UTF-8" standalone="no"?>
<!DOCTYPE svg PUBLIC "-//W3C//DTD SVG 1.1//EN"
 "http://www.w3.org/Graphics/SVG/1.1/DTD/svg11.dtd">
<!-- Generated by graphviz version 2.43.0 (0)
 -->
<!-- Title: is_function_allowed Pages: 1 -->
<svg width="1168pt" height="658pt"
 viewBox="0.00 0.00 1168.00 658.00" xmlns="http://www.w3.org/2000/svg" xmlns:xlink="http://www.w3.org/1999/xlink">
<g id="graph0" class="graph" transform="scale(1 1) rotate(0) translate(4 654)">
<title>is_function_allowed</title>
<!-- Node1 -->
<g id="node1" class="node">
<title>Node1</title>
<g id="a_node1"><a xlink:title="Checks if the given function name is in the allow&#45;list.">
<polygon fill="#bfbfbf" stroke="black" points="1047,-523.5 1047,-542.5 1160,-542.5 1160,-523.5 1047,-523.5"/>
<text text-anchor="middle" x="1103.5" y="-530.5" font-family="Helvetica,sans-Serif" font-size="10.00">is_function_allowed</text>
</a>
</g>
</g>
<!-- Node2 -->
<g id="node2" class="node">
<title>Node2</title>
<g id="a_node2"><a xlink:href="ParticleSwarm_8c.html#a063f4fd13a24b248fabd0268c49fd38c" target="_top" xlink:title="Creates and initializes a Particle Swarm.">
<polygon fill="none" stroke="black" points="871,-630.5 871,-649.5 990,-649.5 990,-630.5 871,-630.5"/>
<text text-anchor="middle" x="930.5" y="-637.5" font-family="Helvetica,sans-Serif" font-size="10.00">CreateParticleSwarm</text>
</a>
</g>
</g>
<!-- Node1&#45;&gt;Node2 -->
<g id="edge1" class="edge">
<title>Node1&#45;&gt;Node2</title>
<path fill="none" stroke="midnightblue" d="M1088.29,-550.49C1071.7,-569.78 1042.5,-600.41 1011,-618 1001.62,-623.24 990.92,-627.29 980.46,-630.41"/>
<polygon fill="midnightblue" stroke="midnightblue" points="1091.04,-552.66 1094.79,-542.75 1085.68,-548.16 1091.04,-552.66"/>
</g>
<!-- Node5 -->
<g id="node5" class="node">
<title>Node5</title>
<g id="a_node5"><a xlink:href="walkingsearch_8c.html#a556871801ba0b3214285a2ca1fe622ac" target="_top" xlink:title="Determines the spatial relationship of a particle relative to a cubic cell.">
<polygon fill="none" stroke="black" points="863,-589.5 863,-608.5 998,-608.5 998,-589.5 863,-589.5"/>
<text text-anchor="middle" x="930.5" y="-596.5" font-family="Helvetica,sans-Serif" font-size="10.00">EvaluateParticlePosition</text>
</a>
</g>
</g>
<!-- Node1&#45;&gt;Node5 -->
<g id="edge4" class="edge">
<title>Node1&#45;&gt;Node5</title>
<path fill="none" stroke="midnightblue" d="M1078.13,-547.56C1060.1,-557.82 1034.67,-571.24 1011,-580 1001.02,-583.69 990.06,-586.86 979.56,-589.48"/>
<polygon fill="midnightblue" stroke="midnightblue" points="1079.93,-550.56 1086.83,-542.53 1076.42,-544.5 1079.93,-550.56"/>
</g>
<!-- Node12 -->
<g id="node12" class="node">
<title>Node12</title>
<g id="a_node12"><a xlink:href="interpolation_8c.html#ad200d31b74c511e4388b757fb0359001" target="_top" xlink:title="Interpolates a cell&#45;centered field (scalar or vector) onto DMSwarm particles, using a robust,...">
<polygon fill="none" stroke="black" points="850,-501.5 850,-520.5 1011,-520.5 1011,-501.5 850,-501.5"/>
<text text-anchor="middle" x="930.5" y="-508.5" font-family="Helvetica,sans-Serif" font-size="10.00">InterpolateEulerFieldToSwarm</text>
</a>
</g>
</g>
<!-- Node1&#45;&gt;Node12 -->
<g id="edge15" class="edge">
<title>Node1&#45;&gt;Node12</title>
<path fill="none" stroke="midnightblue" d="M1036.85,-524.55C1026.56,-523.23 1015.87,-521.85 1005.41,-520.51"/>
<polygon fill="midnightblue" stroke="midnightblue" points="1036.62,-528.05 1046.98,-525.86 1037.51,-521.11 1036.62,-528.05"/>
</g>
<!-- Node14 -->
<g id="node14" class="node">
<title>Node14</title>
<g id="a_node14"><a xlink:href="interpolation_8c.html#a8e20ad6b773e06f8cc29773322297095" target="_top" xlink:title="Interpolates a vector field from cell centers to corner nodes.">
<polygon fill="none" stroke="black" points="856,-248 856,-278 1005,-278 1005,-248 856,-248"/>
<text text-anchor="start" x="864" y="-266" font-family="Helvetica,sans-Serif" font-size="10.00">InterpolateFieldFromCenter</text>
<text text-anchor="middle" x="930.5" y="-255" font-family="Helvetica,sans-Serif" font-size="10.00">ToCorner_Vector</text>
</a>
</g>
</g>
<!-- Node1&#45;&gt;Node14 -->
<g id="edge20" class="edge">
<title>Node1&#45;&gt;Node14</title>
<path fill="none" stroke="midnightblue" d="M1100.88,-513.25C1096.02,-467.05 1077.51,-351.09 1011,-288 1006.91,-284.12 1002.21,-280.84 997.2,-278.07"/>
<polygon fill="midnightblue" stroke="midnightblue" points="1097.41,-513.79 1101.84,-523.41 1104.38,-513.13 1097.41,-513.79"/>
</g>
<!-- Node15 -->
<g id="node15" class="node">
<title>Node15</title>
<g id="a_node15"><a xlink:href="walkingsearch_8c.html#ae8ed9e0a01de5ee0f332170562b1f9ea" target="_top" xlink:title="Updates the cell indices based on the signed distances to each face.">
<polygon fill="none" stroke="black" points="856,-540 856,-570 1005,-570 1005,-540 856,-540"/>
<text text-anchor="start" x="864" y="-558" font-family="Helvetica,sans-Serif" font-size="10.00">UpdateCellIndicesBasedOn</text>
<text text-anchor="middle" x="930.5" y="-547" font-family="Helvetica,sans-Serif" font-size="10.00">DistancesTEST</text>
</a>
</g>
</g>
<!-- Node1&#45;&gt;Node15 -->
<g id="edge21" class="edge">
<title>Node1&#45;&gt;Node15</title>
<path fill="none" stroke="midnightblue" d="M1036.78,-541.46C1026.41,-542.79 1015.63,-544.18 1005.1,-545.53"/>
<polygon fill="midnightblue" stroke="midnightblue" points="1037.51,-544.89 1046.98,-540.14 1036.62,-537.95 1037.51,-544.89"/>
</g>
<!-- Node16 -->
<g id="node16" class="node">
<title>Node16</title>
<g id="a_node16"><a xlink:href="setup_8c.html#ad5f82951adcce74b3d37cb5880acf43a" target="_top" xlink:title="Updates the local vector (including ghost points) from its corresponding global vector.">
<polygon fill="none" stroke="black" points="875,-297.5 875,-316.5 986,-316.5 986,-297.5 875,-297.5"/>
<text text-anchor="middle" x="930.5" y="-304.5" font-family="Helvetica,sans-Serif" font-size="10.00">UpdateLocalGhosts</text>
</a>
</g>
</g>
<!-- Node1&#45;&gt;Node16 -->
<g id="edge23" class="edge">
<title>Node1&#45;&gt;Node16</title>
<path fill="none" stroke="midnightblue" d="M1089.08,-515.26C1054.84,-470.01 965.09,-351.39 938.82,-316.67"/>
<polygon fill="midnightblue" stroke="midnightblue" points="1086.33,-517.43 1095.15,-523.29 1091.91,-513.2 1086.33,-517.43"/>
</g>
<!-- Node3 -->
<g id="node3" class="node">
<title>Node3</title>
<g id="a_node3"><a xlink:href="ParticleSwarm_8c.html#ada215a5db25227a8fd2cd2596e7d3e57" target="_top" xlink:title="Perform particle swarm initialization, particle&#45;grid interaction, and related operations.">
<polygon fill="none" stroke="black" points="77,-623.5 77,-642.5 206,-642.5 206,-623.5 77,-623.5"/>
<text text-anchor="middle" x="141.5" y="-630.5" font-family="Helvetica,sans-Serif" font-size="10.00">InitializeParticleSwarm</text>
</a>
</g>
</g>
<!-- Node2&#45;&gt;Node3 -->
<g id="edge2" class="edge">
<title>Node2&#45;&gt;Node3</title>
<path fill="none" stroke="midnightblue" d="M860.94,-639.39C710.23,-638.05 351.97,-634.86 206.02,-633.57"/>
<polygon fill="midnightblue" stroke="midnightblue" points="860.96,-642.89 870.99,-639.48 861.02,-635.89 860.96,-642.89"/>
</g>
<!-- Node4 -->
<g id="node4" class="node">
<title>Node4</title>
<g id="a_node4"><a xlink:href="picsolver_8c.html#a3c04138a5bfe5d72780bb7e82a18e627" target="_top" xlink:title=" ">
<polygon fill="none" stroke="black" points="0,-519.5 0,-538.5 41,-538.5 41,-519.5 0,-519.5"/>
<text text-anchor="middle" x="20.5" y="-526.5" font-family="Helvetica,sans-Serif" font-size="10.00">main</text>
</a>
</g>
</g>
<!-- Node3&#45;&gt;Node4 -->
<g id="edge3" class="edge">
<title>Node3&#45;&gt;Node4</title>
<path fill="none" stroke="midnightblue" d="M100.9,-619.39C92.53,-615.49 84.09,-610.71 77,-605 53.33,-585.95 34.76,-554.46 26.37,-538.67"/>
<polygon fill="midnightblue" stroke="midnightblue" points="99.68,-622.67 110.25,-623.42 102.45,-616.24 99.68,-622.67"/>
</g>
<!-- Node6 -->
<g id="node6" class="node">
<title>Node6</title>
<g id="a_node6"><a xlink:href="walkingsearch_8c.html#a0b63dfe82e0fdee5c2c3bdd477f9901f" target="_top" xlink:title="Locates a particle&#39;s host cell or identifies its migration target using a robust walk search.">
<polygon fill="none" stroke="black" points="645.5,-583 645.5,-613 808.5,-613 808.5,-583 645.5,-583"/>
<text text-anchor="start" x="653.5" y="-601" font-family="Helvetica,sans-Serif" font-size="10.00">LocateParticleOrFindMigration</text>
<text text-anchor="middle" x="727" y="-590" font-family="Helvetica,sans-Serif" font-size="10.00">Target_TEST</text>
</a>
</g>
</g>
<!-- Node5&#45;&gt;Node6 -->
<g id="edge5" class="edge">
<title>Node5&#45;&gt;Node6</title>
<path fill="none" stroke="midnightblue" d="M852.66,-598.62C838.33,-598.55 823.31,-598.47 808.85,-598.4"/>
<polygon fill="midnightblue" stroke="midnightblue" points="852.95,-602.12 862.96,-598.67 852.98,-595.12 852.95,-602.12"/>
</g>
<!-- Node7 -->
<g id="node7" class="node">
<title>Node7</title>
<g id="a_node7"><a xlink:href="ParticleMotion_8c.html#a727054a4a467fd8504a19caed5a5916b" target="_top" xlink:title="Orchestrates the complete particle location and migration process for one timestep.">
<polygon fill="none" stroke="black" points="437.5,-585.5 437.5,-604.5 599.5,-604.5 599.5,-585.5 437.5,-585.5"/>
<text text-anchor="middle" x="518.5" y="-592.5" font-family="Helvetica,sans-Serif" font-size="10.00">LocateAllParticlesInGrid_TEST</text>
</a>
</g>
</g>
<!-- Node6&#45;&gt;Node7 -->
<g id="edge6" class="edge">
<title>Node6&#45;&gt;Node7</title>
<path fill="none" stroke="midnightblue" d="M635.04,-596.68C623.31,-596.51 611.37,-596.33 599.83,-596.17"/>
<polygon fill="midnightblue" stroke="midnightblue" points="635.22,-600.18 645.27,-596.83 635.33,-593.18 635.22,-600.18"/>
</g>
<!-- Node8 -->
<g id="node8" class="node">
<title>Node8</title>
<g id="a_node8"><a xlink:href="simulation_8c.html#a5cfb2f783604af7f20171d19f969d5d3" target="_top" xlink:title="Executes the main time&#45;marching loop for the coupled Euler&#45;Lagrange simulation.">
<polygon fill="none" stroke="black" points="264,-500.5 264,-519.5 375,-519.5 375,-500.5 264,-500.5"/>
<text text-anchor="middle" x="319.5" y="-507.5" font-family="Helvetica,sans-Serif" font-size="10.00">AdvanceSimulation</text>
</a>
</g>
</g>
<!-- Node7&#45;&gt;Node8 -->
<g id="edge7" class="edge">
<title>Node7&#45;&gt;Node8</title>
<path fill="none" stroke="midnightblue" d="M451.38,-582.12C444.93,-579.6 438.68,-576.59 433,-573 411.94,-559.67 418.05,-543.34 397,-530 390.16,-525.67 382.41,-522.27 374.53,-519.6"/>
<polygon fill="midnightblue" stroke="midnightblue" points="450.33,-585.47 460.92,-585.47 452.65,-578.86 450.33,-585.47"/>
</g>
<!-- Node9 -->
<g id="node9" class="node">
<title>Node9</title>
<g id="a_node9"><a xlink:href="simulation_8c.html#aa5b3c3a0cd447931b47a01267c36acdd" target="_top" xlink:title="Finalizes the simulation setup at t=0, ensuring a consistent state before time marching.">
<polygon fill="none" stroke="black" points="249.5,-539 249.5,-569 389.5,-569 389.5,-539 249.5,-539"/>
<text text-anchor="start" x="257.5" y="-557" font-family="Helvetica,sans-Serif" font-size="10.00">PerformInitializedParticle</text>
<text text-anchor="middle" x="319.5" y="-546" font-family="Helvetica,sans-Serif" font-size="10.00">Setup</text>
</a>
</g>
</g>
<!-- Node7&#45;&gt;Node9 -->
<g id="edge9" class="edge">
<title>Node7&#45;&gt;Node9</title>
<path fill="none" stroke="midnightblue" d="M461.77,-583.4C439.3,-578.73 413.15,-573.28 389.5,-568.36"/>
<polygon fill="midnightblue" stroke="midnightblue" points="461.31,-586.88 471.81,-585.49 462.73,-580.03 461.31,-586.88"/>
</g>
<!-- Node11 -->
<g id="node11" class="node">
<title>Node11</title>
<g id="a_node11"><a xlink:href="simulation_8c.html#ad8038ca2fcc4f0534e04d144c4ffbbef" target="_top" xlink:title="Finalizes the simulation state after particle and fluid data have been loaded from a restart.">
<polygon fill="none" stroke="black" points="242,-588.5 242,-607.5 397,-607.5 397,-588.5 242,-588.5"/>
<text text-anchor="middle" x="319.5" y="-595.5" font-family="Helvetica,sans-Serif" font-size="10.00">PerformLoadedParticleSetup</text>
</a>
</g>
</g>
<!-- Node7&#45;&gt;Node11 -->
<g id="edge13" class="edge">
<title>Node7&#45;&gt;Node11</title>
<path fill="none" stroke="midnightblue" d="M427.31,-596.37C417.2,-596.53 406.97,-596.68 397.05,-596.83"/>
<polygon fill="midnightblue" stroke="midnightblue" points="427.43,-599.87 437.37,-596.22 427.32,-592.87 427.43,-599.87"/>
</g>
<!-- Node8&#45;&gt;Node4 -->
<g id="edge8" class="edge">
<title>Node8&#45;&gt;Node4</title>
<path fill="none" stroke="midnightblue" d="M253.54,-514.16C185.83,-518.49 83.8,-525.01 41.24,-527.74"/>
<polygon fill="midnightblue" stroke="midnightblue" points="253.92,-517.64 263.68,-513.51 253.48,-510.65 253.92,-517.64"/>
</g>
<!-- Node9&#45;&gt;Node4 -->
<g id="edge12" class="edge">
<title>Node9&#45;&gt;Node4</title>
<path fill="none" stroke="midnightblue" d="M239.12,-547.57C192,-543.72 131.08,-538.68 77,-534 65.05,-532.97 51.65,-531.76 41.02,-530.79"/>
<polygon fill="midnightblue" stroke="midnightblue" points="239.01,-551.07 249.26,-548.4 239.58,-544.1 239.01,-551.07"/>
</g>
<!-- Node10 -->
<g id="node10" class="node">
<title>Node10</title>
<g id="a_node10"><a xlink:href="simulation_8c.html#a7bc2bae7b01f179706b367c8637534c2" target="_top" xlink:title="Performs post&#45;load/post&#45;init consistency checks for a restarted simulation.">
<polygon fill="none" stroke="black" points="84.5,-576.5 84.5,-595.5 198.5,-595.5 198.5,-576.5 84.5,-576.5"/>
<text text-anchor="middle" x="141.5" y="-583.5" font-family="Helvetica,sans-Serif" font-size="10.00">FinalizeRestartState</text>
</a>
</g>
</g>
<!-- Node9&#45;&gt;Node10 -->
<g id="edge10" class="edge">
<title>Node9&#45;&gt;Node10</title>
<path fill="none" stroke="midnightblue" d="M239.54,-568.36C224.37,-571.12 208.83,-573.94 194.75,-576.5"/>
<polygon fill="midnightblue" stroke="midnightblue" points="240.23,-571.79 249.45,-566.56 238.98,-564.9 240.23,-571.79"/>
</g>
<!-- Node10&#45;&gt;Node4 -->
<g id="edge11" class="edge">
<title>Node10&#45;&gt;Node4</title>
<path fill="none" stroke="midnightblue" d="M102.53,-572.89C94.01,-569.61 85.1,-565.9 77,-562 62.66,-555.09 47.15,-545.69 36.18,-538.69"/>
<polygon fill="midnightblue" stroke="midnightblue" points="101.33,-576.18 111.92,-576.41 103.78,-569.62 101.33,-576.18"/>
</g>
<!-- Node11&#45;&gt;Node10 -->
<g id="edge14" class="edge">
<title>Node11&#45;&gt;Node10</title>
<path fill="none" stroke="midnightblue" d="M231.54,-592.07C220.32,-591.31 209.09,-590.54 198.55,-589.82"/>
<polygon fill="midnightblue" stroke="midnightblue" points="231.6,-595.58 241.82,-592.77 232.08,-588.6 231.6,-595.58"/>
</g>
<!-- Node13 -->
<g id="node13" class="node">
<title>Node13</title>
<g id="a_node13"><a xlink:href="interpolation_8c.html#a25d384c0bcf5426864f90ab568e37511" target="_top" xlink:title="Interpolates all relevant fields from the DMDA to the DMSwarm.">
<polygon fill="none" stroke="black" points="441,-544.5 441,-563.5 596,-563.5 596,-544.5 441,-544.5"/>
<text text-anchor="middle" x="518.5" y="-551.5" font-family="Helvetica,sans-Serif" font-size="10.00">InterpolateAllFieldsToSwarm</text>
</a>
</g>
</g>
<!-- Node12&#45;&gt;Node13 -->
<g id="edge16" class="edge">
<title>Node12&#45;&gt;Node13</title>
<path fill="none" stroke="midnightblue" d="M880.43,-522.79C860,-527.28 835.96,-532.02 814,-535 740.38,-544.97 655.68,-549.74 596.07,-552.01"/>
<polygon fill="midnightblue" stroke="midnightblue" points="881.45,-526.14 890.44,-520.54 879.92,-519.31 881.45,-526.14"/>
</g>
<!-- Node13&#45;&gt;Node8 -->
<g id="edge17" class="edge">
<title>Node13&#45;&gt;Node8</title>
<path fill="none" stroke="midnightblue" d="M464.74,-542.22C432.94,-535.11 392.96,-526.18 363.16,-519.53"/>
<polygon fill="midnightblue" stroke="midnightblue" points="464.23,-545.69 474.75,-544.45 465.76,-538.86 464.23,-545.69"/>
</g>
<!-- Node13&#45;&gt;Node9 -->
<g id="edge18" class="edge">
<title>Node13&#45;&gt;Node9</title>
<path fill="none" stroke="midnightblue" d="M430.41,-554C416.76,-554 402.81,-554 389.63,-554"/>
<polygon fill="midnightblue" stroke="midnightblue" points="430.77,-557.5 440.77,-554 430.77,-550.5 430.77,-557.5"/>
</g>
<!-- Node13&#45;&gt;Node11 -->
<g id="edge19" class="edge">
<title>Node13&#45;&gt;Node11</title>
<path fill="none" stroke="midnightblue" d="M464.74,-565.78C432.94,-572.89 392.96,-581.82 363.16,-588.47"/>
<polygon fill="midnightblue" stroke="midnightblue" points="465.76,-569.14 474.75,-563.55 464.23,-562.31 465.76,-569.14"/>
</g>
<!-- Node15&#45;&gt;Node6 -->
<g id="edge22" class="edge">
<title>Node15&#45;&gt;Node6</title>
<path fill="none" stroke="midnightblue" d="M849.24,-572.13C832.44,-575.71 814.85,-579.47 798.44,-582.97"/>
<polygon fill="midnightblue" stroke="midnightblue" points="849.98,-575.55 859.03,-570.04 848.51,-568.7 849.98,-575.55"/>
</g>
<!-- Node17 -->
<g id="node17" class="node">
<title>Node17</title>
<g id="a_node17"><a xlink:href="Metric_8c.html#a436bb94905ee06971f632571f5bc8cbb" target="_top" xlink:title="Ensure a right&#45;handed metric basis (Csi, Eta, Zet) and a positive Jacobian (Aj) over the whole domain...">
<polygon fill="none" stroke="black" points="650,-0.5 650,-19.5 804,-19.5 804,-0.5 650,-0.5"/>
<text text-anchor="middle" x="727" y="-7.5" font-family="Helvetica,sans-Serif" font-size="10.00">CheckAndFixGridOrientation</text>
</a>
</g>
</g>
<!-- Node16&#45;&gt;Node17 -->
<g id="edge24" class="edge">
<title>Node16&#45;&gt;Node17</title>
<path fill="none" stroke="midnightblue" d="M865.33,-298.4C859.57,-295.52 854.3,-291.8 850,-287 772.66,-200.84 892.58,-114.03 814,-29 810.58,-25.29 806.6,-22.23 802.29,-19.7"/>
<polygon fill="midnightblue" stroke="midnightblue" points="864.13,-301.7 874.71,-302.27 866.8,-295.22 864.13,-301.7"/>
</g>
<!-- Node20 -->
<g id="node20" class="node">
<title>Node20</title>
<g id="a_node20"><a xlink:href="Metric_8c.html#a92d28e2f14645b0eb563144f4ccf2b49" target="_top" xlink:title="Calculates the cell&#45;centered inverse Jacobian determinant (1/J), including boundary extrapolation,...">
<polygon fill="none" stroke="black" points="644.5,-229 644.5,-259 809.5,-259 809.5,-229 644.5,-229"/>
<text text-anchor="start" x="652.5" y="-247" font-family="Helvetica,sans-Serif" font-size="10.00">ComputeCellCenteredJacobian</text>
<text text-anchor="middle" x="727" y="-236" font-family="Helvetica,sans-Serif" font-size="10.00">Inverse</text>
</a>
</g>
</g>
<!-- Node16&#45;&gt;Node20 -->
<g id="edge28" class="edge">
<title>Node16&#45;&gt;Node20</title>
<path fill="none" stroke="midnightblue" d="M878.31,-294.93C868.85,-292.47 859.09,-289.78 850,-287 833.73,-282.03 830.03,-279.69 814,-274 800.14,-269.08 785,-263.78 771.34,-259.02"/>
<polygon fill="midnightblue" stroke="midnightblue" points="877.47,-298.32 888.02,-297.4 879.19,-291.54 877.47,-298.32"/>
</g>
<!-- Node21 -->
<g id="node21" class="node">
<title>Node21</title>
<g id="a_node21"><a xlink:href="Metric_8c.html#a46e70c0ae8f36f97321c5c892fc56be5" target="_top" xlink:title="Computes the physical location of cell centers and the spacing between them.">
<polygon fill="none" stroke="black" points="640,-190.5 640,-209.5 814,-209.5 814,-190.5 640,-190.5"/>
<text text-anchor="middle" x="727" y="-197.5" font-family="Helvetica,sans-Serif" font-size="10.00">ComputeCellCentersAndSpacing</text>
</a>
</g>
</g>
<!-- Node16&#45;&gt;Node21 -->
<g id="edge30" class="edge">
<title>Node16&#45;&gt;Node21</title>
<path fill="none" stroke="midnightblue" d="M865.43,-296.11C859.91,-293.65 854.66,-290.66 850,-287 823.09,-265.89 841.21,-239.71 814,-219 809.01,-215.2 803.42,-212.13 797.53,-209.66"/>
<polygon fill="midnightblue" stroke="midnightblue" points="864.34,-299.44 874.93,-299.75 866.84,-292.9 864.34,-299.44"/>
</g>
<!-- Node22 -->
<g id="node22" class="node">
<title>Node22</title>
<g id="a_node22"><a xlink:href="Metric_8c.html#a6f0dfb324211e230a387501f93cfd316" target="_top" xlink:title="Computes the primary face metric components (Csi, Eta, Zet), including boundary extrapolation,...">
<polygon fill="none" stroke="black" points="667.5,-152.5 667.5,-171.5 786.5,-171.5 786.5,-152.5 667.5,-152.5"/>
<text text-anchor="middle" x="727" y="-159.5" font-family="Helvetica,sans-Serif" font-size="10.00">ComputeFaceMetrics</text>
</a>
</g>
</g>
<!-- Node16&#45;&gt;Node22 -->
<g id="edge32" class="edge">
<title>Node16&#45;&gt;Node22</title>
<path fill="none" stroke="midnightblue" d="M865.29,-297.11C859.71,-294.46 854.49,-291.14 850,-287 813.42,-253.27 851.06,-214.19 814,-181 806.37,-174.16 796.84,-169.61 786.93,-166.6"/>
<polygon fill="midnightblue" stroke="midnightblue" points="864.36,-300.5 874.95,-300.96 866.96,-294 864.36,-300.5"/>
</g>
<!-- Node23 -->
<g id="node23" class="node">
<title>Node23</title>
<g id="a_node23"><a xlink:href="Metric_8c.html#af935307ea3e9727a63b6ef9a3932caa8" target="_top" xlink:title="Computes metrics centered on constant&#45;i faces (i&#45;faces).">
<polygon fill="none" stroke="black" points="666,-114.5 666,-133.5 788,-133.5 788,-114.5 666,-114.5"/>
<text text-anchor="middle" x="727" y="-121.5" font-family="Helvetica,sans-Serif" font-size="10.00">ComputeIFaceMetrics</text>
</a>
</g>
</g>
<!-- Node16&#45;&gt;Node23 -->
<g id="edge34" class="edge">
<title>Node16&#45;&gt;Node23</title>
<path fill="none" stroke="midnightblue" d="M865.58,-297.8C859.83,-295.03 854.49,-291.49 850,-287 803.39,-240.32 861.29,-189 814,-143 806.88,-136.07 797.83,-131.43 788.29,-128.37"/>
<polygon fill="midnightblue" stroke="midnightblue" points="864.33,-301.07 874.91,-301.56 866.95,-294.58 864.33,-301.07"/>
</g>
<!-- Node24 -->
<g id="node24" class="node">
<title>Node24</title>
<g id="a_node24"><a xlink:href="Metric_8c.html#a4ecbe44ffb23d82193f9278ab61c1b47" target="_top" xlink:title="Computes metrics centered on constant&#45;j faces (j&#45;faces).">
<polygon fill="none" stroke="black" points="666,-76.5 666,-95.5 788,-95.5 788,-76.5 666,-76.5"/>
<text text-anchor="middle" x="727" y="-83.5" font-family="Helvetica,sans-Serif" font-size="10.00">ComputeJFaceMetrics</text>
</a>
</g>
</g>
<!-- Node16&#45;&gt;Node24 -->
<g id="edge36" class="edge">
<title>Node16&#45;&gt;Node24</title>
<path fill="none" stroke="midnightblue" d="M865.35,-298.03C859.64,-295.21 854.37,-291.6 850,-287 793.21,-227.22 871.66,-163.95 814,-105 806.94,-97.79 797.81,-93.03 788.14,-89.94"/>
<polygon fill="midnightblue" stroke="midnightblue" points="864.05,-301.28 874.63,-301.84 866.71,-294.8 864.05,-301.28"/>
</g>
<!-- Node25 -->
<g id="node25" class="node">
<title>Node25</title>
<g id="a_node25"><a xlink:href="Metric_8c.html#a95e22e5238b2cd02b992366766730687" target="_top" xlink:title="Computes metrics centered on constant&#45;k faces (k&#45;faces).">
<polygon fill="none" stroke="black" points="664,-38.5 664,-57.5 790,-57.5 790,-38.5 664,-38.5"/>
<text text-anchor="middle" x="727" y="-45.5" font-family="Helvetica,sans-Serif" font-size="10.00">ComputeKFaceMetrics</text>
</a>
</g>
</g>
<!-- Node16&#45;&gt;Node25 -->
<g id="edge38" class="edge">
<title>Node16&#45;&gt;Node25</title>
<path fill="none" stroke="midnightblue" d="M865.45,-298.3C859.67,-295.44 854.36,-291.74 850,-287 782.95,-214.05 882.1,-138.97 814,-67 807.48,-60.11 799.08,-55.45 790.08,-52.33"/>
<polygon fill="midnightblue" stroke="midnightblue" points="864.27,-301.6 874.85,-302.15 866.92,-295.12 864.27,-301.6"/>
</g>
<!-- Node26 -->
<g id="node26" class="node">
<title>Node26</title>
<g id="a_node26"><a xlink:href="postprocessing__kernels_8c.html#ad5b0c0f1721b13944b83a57f2471cd02" target="_top" xlink:title="Computes node&#45;centered data by averaging 8 surrounding cell&#45;centered values, exactly replicating the ...">
<polygon fill="none" stroke="black" points="662.5,-392.5 662.5,-411.5 791.5,-411.5 791.5,-392.5 662.5,-392.5"/>
<text text-anchor="middle" x="727" y="-399.5" font-family="Helvetica,sans-Serif" font-size="10.00">ComputeNodalAverage</text>
</a>
</g>
</g>
<!-- Node16&#45;&gt;Node26 -->
<g id="edge40" class="edge">
<title>Node16&#45;&gt;Node26</title>
<path fill="none" stroke="midnightblue" d="M908.24,-322.6C885.79,-338.45 848.88,-362.77 814,-378 800.5,-383.89 785.18,-388.72 771.25,-392.45"/>
<polygon fill="midnightblue" stroke="midnightblue" points="910.56,-325.24 916.65,-316.58 906.48,-319.55 910.56,-325.24"/>
</g>
<!-- Node29 -->
<g id="node29" class="node">
<title>Node29</title>
<g id="a_node29"><a xlink:href="postprocessing__kernels_8c.html#a303c5afb89d6fdaab3e40f9371d8f1b2" target="_top" xlink:title="Computes the Q&#45;Criterion, a scalar value identifying vortex cores.">
<polygon fill="none" stroke="black" points="672,-430.5 672,-449.5 782,-449.5 782,-430.5 672,-430.5"/>
<text text-anchor="middle" x="727" y="-437.5" font-family="Helvetica,sans-Serif" font-size="10.00">ComputeQCriterion</text>
</a>
</g>
</g>
<!-- Node16&#45;&gt;Node29 -->
<g id="edge43" class="edge">
<title>Node16&#45;&gt;Node29</title>
<path fill="none" stroke="midnightblue" d="M916.72,-324.85C897.47,-350.36 858.5,-396.8 814,-421 804.33,-426.26 793.29,-430.06 782.43,-432.82"/>
<polygon fill="midnightblue" stroke="midnightblue" points="919.56,-326.9 922.69,-316.78 913.93,-322.74 919.56,-326.9"/>
</g>
<!-- Node30 -->
<g id="node30" class="node">
<title>Node30</title>
<g id="a_node30"><a xlink:href="initialcondition_8c.html#af6a26611066aa455efddcca2fd80fe35" target="_top" xlink:title="(HELPER) Finalizes a block&#39;s state by applying BCs, converting to Cartesian, and synchronizing ghost ...">
<polygon fill="none" stroke="black" points="674,-316.5 674,-335.5 780,-335.5 780,-316.5 674,-316.5"/>
<text text-anchor="middle" x="727" y="-323.5" font-family="Helvetica,sans-Serif" font-size="10.00">FinalizeBlockState</text>
</a>
</g>
</g>
<!-- Node16&#45;&gt;Node30 -->
<g id="edge45" class="edge">
<title>Node16&#45;&gt;Node30</title>
<path fill="none" stroke="midnightblue" d="M864.71,-313.11C837.37,-315.69 805.95,-318.65 780.14,-321.08"/>
<polygon fill="midnightblue" stroke="midnightblue" points="865.34,-316.57 874.97,-312.14 864.69,-309.6 865.34,-316.57"/>
</g>
<!-- Node31 -->
<g id="node31" class="node">
<title>Node31</title>
<g id="a_node31"><a xlink:href="initialcondition_8c.html#a51d0251f84a962a611ff0c0a8797a3e4" target="_top" xlink:title="(HELPER) Sets the t=0 fluid state for all blocks.">
<polygon fill="none" stroke="black" points="463.5,-308 463.5,-338 573.5,-338 573.5,-308 463.5,-308"/>
<text text-anchor="start" x="471.5" y="-326" font-family="Helvetica,sans-Serif" font-size="10.00">SetInitialFluidState</text>
<text text-anchor="middle" x="518.5" y="-315" font-family="Helvetica,sans-Serif" font-size="10.00">_FreshStart</text>
</a>
</g>
</g>
<!-- Node16&#45;&gt;Node31 -->
<g id="edge51" class="edge">
<title>Node16&#45;&gt;Node31</title>
<path fill="none" stroke="midnightblue" d="M864.49,-304.55C805.77,-302.93 717,-301.91 640,-307 618.21,-308.44 594.34,-311.33 573.63,-314.26"/>
<polygon fill="midnightblue" stroke="midnightblue" points="864.64,-308.06 874.74,-304.85 864.84,-301.06 864.64,-308.06"/>
</g>
<!-- Node33 -->
<g id="node33" class="node">
<title>Node33</title>
<g id="a_node33"><a xlink:href="solvers_8c.html#a2ed4825273a593f371a3d48071708255" target="_top" xlink:title="Orchestrates a single time step of the Eulerian fluid solver.">
<polygon fill="none" stroke="black" points="480.5,-500.5 480.5,-519.5 556.5,-519.5 556.5,-500.5 480.5,-500.5"/>
<text text-anchor="middle" x="518.5" y="-507.5" font-family="Helvetica,sans-Serif" font-size="10.00">Flow_Solver</text>
</a>
</g>
</g>
<!-- Node16&#45;&gt;Node33 -->
<g id="edge49" class="edge">
<title>Node16&#45;&gt;Node33</title>
<path fill="none" stroke="midnightblue" d="M920.8,-326.31C904.81,-359.41 867.41,-426.53 814,-459 792.25,-472.23 630.77,-495.14 556.58,-505.12"/>
<polygon fill="midnightblue" stroke="midnightblue" points="924.16,-327.39 925.24,-316.85 917.82,-324.42 924.16,-327.39"/>
</g>
<!-- Node34 -->
<g id="node34" class="node">
<title>Node34</title>
<g id="a_node34"><a xlink:href="initialcondition_8c.html#a095ad9c41ee9300bcfa152c411835a91" target="_top" xlink:title="(HELPER) Reads fluid state for all blocks from restart files.">
<polygon fill="none" stroke="black" points="449.5,-357.5 449.5,-376.5 587.5,-376.5 587.5,-357.5 449.5,-357.5"/>
<text text-anchor="middle" x="518.5" y="-364.5" font-family="Helvetica,sans-Serif" font-size="10.00">SetInitialFluidState_Load</text>
</a>
</g>
</g>
<!-- Node16&#45;&gt;Node34 -->
<g id="edge52" class="edge">
<title>Node16&#45;&gt;Node34</title>
<path fill="none" stroke="midnightblue" d="M896.53,-320.23C873.74,-328.78 842.5,-339.34 814,-345 737.44,-360.22 647.78,-365.12 587.68,-366.59"/>
<polygon fill="midnightblue" stroke="midnightblue" points="897.97,-323.42 906.06,-316.58 895.47,-316.89 897.97,-323.42"/>
</g>
<!-- Node35 -->
<g id="node35" class="node">
<title>Node35</title>
<g id="a_node35"><a xlink:href="poisson_8c.html#a7cf2cfc0383ba0076f827f7d3856f2ed" target="_top" xlink:title="Updates the pressure field and handles periodic boundary conditions.">
<polygon fill="none" stroke="black" points="680,-506.5 680,-525.5 774,-525.5 774,-506.5 680,-506.5"/>
<text text-anchor="middle" x="727" y="-513.5" font-family="Helvetica,sans-Serif" font-size="10.00">UpdatePressure</text>
</a>
</g>
</g>
<!-- Node16&#45;&gt;Node35 -->
<g id="edge54" class="edge">
<title>Node16&#45;&gt;Node35</title>
<path fill="none" stroke="midnightblue" d="M922.78,-326.63C908.77,-364.56 872.77,-448.02 814,-492 802.46,-500.64 787.95,-506.17 774.16,-509.71"/>
<polygon fill="midnightblue" stroke="midnightblue" points="926.22,-327.41 926.28,-316.82 919.62,-325.06 926.22,-327.41"/>
</g>
<!-- Node18 -->
<g id="node18" class="node">
<title>Node18</title>
<g id="a_node18"><a xlink:href="Metric_8c.html#a063043da47b68702c78c7e0769325b36" target="_top" xlink:title="Orchestrates the calculation of all grid metrics.">
<polygon fill="none" stroke="black" points="453,-133.5 453,-152.5 584,-152.5 584,-133.5 453,-133.5"/>
<text text-anchor="middle" x="518.5" y="-140.5" font-family="Helvetica,sans-Serif" font-size="10.00">CalculateAllGridMetrics</text>
</a>
</g>
</g>
<!-- Node17&#45;&gt;Node18 -->
<g id="edge25" class="edge">
<title>Node17&#45;&gt;Node18</title>
<path fill="none" stroke="midnightblue" d="M653.65,-22.91C648.93,-24.68 644.33,-26.7 640,-29 588.86,-56.12 543.74,-110.93 526.71,-133.23"/>
<polygon fill="midnightblue" stroke="midnightblue" points="655.13,-26.1 663.49,-19.6 652.9,-19.47 655.13,-26.1"/>
</g>
<!-- Node19 -->
<g id="node19" class="node">
<title>Node19</title>
<g id="a_node19"><a xlink:href="setup_8c.html#a2be2815aeb79afe9b95caf39c7b3312c" target="_top" xlink:title="The main orchestrator for setting up all grid&#45;related components.">
<polygon fill="none" stroke="black" points="82,-277.5 82,-296.5 201,-296.5 201,-277.5 82,-277.5"/>
<text text-anchor="middle" x="141.5" y="-284.5" font-family="Helvetica,sans-Serif" font-size="10.00">SetupGridAndSolvers</text>
</a>
</g>
</g>
<!-- Node18&#45;&gt;Node19 -->
<g id="edge26" class="edge">
<title>Node18&#45;&gt;Node19</title>
<path fill="none" stroke="midnightblue" d="M483.18,-156.18C408.57,-184.83 233.03,-252.24 167.63,-277.35"/>
<polygon fill="midnightblue" stroke="midnightblue" points="484.52,-159.41 492.6,-152.56 482.01,-152.88 484.52,-159.41"/>
</g>
<!-- Node19&#45;&gt;Node4 -->
<g id="edge27" class="edge">
<title>Node19&#45;&gt;Node4</title>
<path fill="none" stroke="midnightblue" d="M130.41,-305.72C117.64,-329.55 95.15,-372.06 77,-409 57.07,-449.59 34.95,-498.77 25.81,-519.28"/>
<polygon fill="midnightblue" stroke="midnightblue" points="133.59,-307.19 135.24,-296.73 127.43,-303.88 133.59,-307.19"/>
</g>
<!-- Node20&#45;&gt;Node18 -->
<g id="edge29" class="edge">
<title>Node20&#45;&gt;Node18</title>
<path fill="none" stroke="midnightblue" d="M656.46,-225.62C650.82,-223.58 645.27,-221.37 640,-219 598.05,-200.12 553.45,-168.56 532.19,-152.71"/>
<polygon fill="midnightblue" stroke="midnightblue" points="655.41,-228.96 666,-228.91 657.69,-222.34 655.41,-228.96"/>
</g>
<!-- Node21&#45;&gt;Node18 -->
<g id="edge31" class="edge">
<title>Node21&#45;&gt;Node18</title>
<path fill="none" stroke="midnightblue" d="M669.62,-188.29C659.71,-186.02 649.53,-183.55 640,-181 608,-172.44 571.83,-160.76 547.54,-152.61"/>
<polygon fill="midnightblue" stroke="midnightblue" points="668.88,-191.71 679.4,-190.49 670.41,-184.88 668.88,-191.71"/>
</g>
<!-- Node22&#45;&gt;Node18 -->
<g id="edge33" class="edge">
<title>Node22&#45;&gt;Node18</title>
<path fill="none" stroke="midnightblue" d="M657.11,-155.66C633.54,-153.49 607.28,-151.08 584.07,-148.94"/>
<polygon fill="midnightblue" stroke="midnightblue" points="657.1,-159.18 667.38,-156.61 657.74,-152.2 657.1,-159.18"/>
</g>
<!-- Node23&#45;&gt;Node18 -->
<g id="edge35" class="edge">
<title>Node23&#45;&gt;Node18</title>
<path fill="none" stroke="midnightblue" d="M655.89,-130.45C632.74,-132.58 607.09,-134.94 584.35,-137.03"/>
<polygon fill="midnightblue" stroke="midnightblue" points="656.36,-133.92 665.99,-129.52 655.72,-126.95 656.36,-133.92"/>
</g>
<!-- Node24&#45;&gt;Node18 -->
<g id="edge37" class="edge">
<title>Node24&#45;&gt;Node18</title>
<path fill="none" stroke="midnightblue" d="M669.62,-97.71C659.71,-99.98 649.53,-102.45 640,-105 608,-113.56 571.83,-125.24 547.54,-133.39"/>
<polygon fill="midnightblue" stroke="midnightblue" points="670.41,-101.12 679.4,-95.51 668.88,-94.29 670.41,-101.12"/>
</g>
<!-- Node25&#45;&gt;Node18 -->
<g id="edge39" class="edge">
<title>Node25&#45;&gt;Node18</title>
<path fill="none" stroke="midnightblue" d="M659.71,-60.2C652.95,-62.17 646.27,-64.42 640,-67 597.22,-84.59 552.64,-117.03 531.72,-133.25"/>
<polygon fill="midnightblue" stroke="midnightblue" points="660.88,-63.51 669.63,-57.52 659.06,-56.75 660.88,-63.51"/>
</g>
<!-- Node27 -->
<g id="node27" class="node">
<title>Node27</title>
<g id="a_node27"><a xlink:href="postprocessor_8c.html#a059ce04ba04e66a5f1ef982fdf375e80" target="_top" xlink:title="Parses the processing pipeline string from the config and executes the requested kernels in sequence.">
<polygon fill="none" stroke="black" points="433,-412.5 433,-431.5 604,-431.5 604,-412.5 433,-412.5"/>
<text text-anchor="middle" x="518.5" y="-419.5" font-family="Helvetica,sans-Serif" font-size="10.00">EulerianDataProcessingPipeline</text>
</a>
</g>
</g>
<!-- Node26&#45;&gt;Node27 -->
<g id="edge41" class="edge">
<title>Node26&#45;&gt;Node27</title>
<path fill="none" stroke="midnightblue" d="M652.28,-409.14C636.71,-410.65 620.16,-412.25 604.22,-413.8"/>
<polygon fill="midnightblue" stroke="midnightblue" points="652.74,-412.61 662.36,-408.16 652.07,-405.64 652.74,-412.61"/>
</g>
<!-- Node28 -->
<g id="node28" class="node">
<title>Node28</title>
<g id="a_node28"><a xlink:href="postprocessor_8c.html#a3c04138a5bfe5d72780bb7e82a18e627" target="_top" xlink:title=" ">
<polygon fill="none" stroke="black" points="299,-412.5 299,-431.5 340,-431.5 340,-412.5 299,-412.5"/>
<text text-anchor="middle" x="319.5" y="-419.5" font-family="Helvetica,sans-Serif" font-size="10.00">main</text>
</a>
</g>
</g>
<!-- Node27&#45;&gt;Node28 -->
<g id="edge42" class="edge">
<title>Node27&#45;&gt;Node28</title>
<path fill="none" stroke="midnightblue" d="M422.74,-422C391.62,-422 360,-422 340.34,-422"/>
<polygon fill="midnightblue" stroke="midnightblue" points="422.81,-425.5 432.81,-422 422.81,-418.5 422.81,-425.5"/>
</g>
<!-- Node29&#45;&gt;Node27 -->
<g id="edge44" class="edge">
<title>Node29&#45;&gt;Node27</title>
<path fill="none" stroke="midnightblue" d="M661.57,-434.38C643.39,-432.8 623.33,-431.05 604.16,-429.38"/>
<polygon fill="midnightblue" stroke="midnightblue" points="661.48,-437.89 671.74,-435.27 662.09,-430.92 661.48,-437.89"/>
</g>
<!-- Node30&#45;&gt;Node31 -->
<g id="edge46" class="edge">
<title>Node30&#45;&gt;Node31</title>
<path fill="none" stroke="midnightblue" d="M663.59,-325.09C634.95,-324.68 601.32,-324.19 573.76,-323.79"/>
<polygon fill="midnightblue" stroke="midnightblue" points="663.84,-328.6 673.89,-325.24 663.94,-321.6 663.84,-328.6"/>
</g>
<!-- Node32 -->
<g id="node32" class="node">
<title>Node32</title>
<g id="a_node32"><a xlink:href="initialcondition_8c.html#ad0dd7d3f2528b6a7802fcd551e88ea99" target="_top" xlink:title="High&#45;level orchestrator to set the complete initial state of the Eulerian solver.">
<polygon fill="none" stroke="black" points="257.5,-357.5 257.5,-376.5 381.5,-376.5 381.5,-357.5 257.5,-357.5"/>
<text text-anchor="middle" x="319.5" y="-364.5" font-family="Helvetica,sans-Serif" font-size="10.00">InitializeEulerianState</text>
</a>
</g>
</g>
<!-- Node31&#45;&gt;Node32 -->
<g id="edge47" class="edge">
<title>Node31&#45;&gt;Node32</title>
<path fill="none" stroke="midnightblue" d="M453.58,-337.28C423.99,-343.89 389.63,-351.56 363.24,-357.45"/>
<polygon fill="midnightblue" stroke="midnightblue" points="454.41,-340.68 463.41,-335.08 452.89,-333.85 454.41,-340.68"/>
</g>
<!-- Node32&#45;&gt;Node4 -->
<g id="edge48" class="edge">
<title>Node32&#45;&gt;Node4</title>
<path fill="none" stroke="midnightblue" d="M287.61,-380.86C273.57,-387.33 256.81,-395.3 242,-403 163.76,-443.68 73.19,-497.7 37.31,-519.39"/>
<polygon fill="midnightblue" stroke="midnightblue" points="289.2,-383.98 296.84,-376.64 286.29,-377.61 289.2,-383.98"/>
</g>
<!-- Node33&#45;&gt;Node8 -->
<g id="edge50" class="edge">
<title>Node33&#45;&gt;Node8</title>
<path fill="none" stroke="midnightblue" d="M470.3,-510C441.71,-510 405.12,-510 375.26,-510"/>
<polygon fill="midnightblue" stroke="midnightblue" points="470.45,-513.5 480.45,-510 470.45,-506.5 470.45,-513.5"/>
</g>
<!-- Node34&#45;&gt;Node32 -->
<g id="edge53" class="edge">
<title>Node34&#45;&gt;Node32</title>
<path fill="none" stroke="midnightblue" d="M439.22,-367C420.08,-367 399.86,-367 381.65,-367"/>
<polygon fill="midnightblue" stroke="midnightblue" points="439.43,-370.5 449.43,-367 439.43,-363.5 439.43,-370.5"/>
</g>
<!-- Node35&#45;&gt;Node33 -->
<g id="edge55" class="edge">
<title>Node35&#45;&gt;Node33</title>
<path fill="none" stroke="midnightblue" d="M669.56,-514.36C633.56,-513.31 587.94,-511.99 556.5,-511.08"/>
<polygon fill="midnightblue" stroke="midnightblue" points="669.82,-517.87 679.91,-514.66 670.02,-510.87 669.82,-517.87"/>
</g>
</g>
</svg>
