<?xml version="1.0" encoding="UTF-8" standalone="no"?>
<!DOCTYPE svg PUBLIC "-//W3C//DTD SVG 1.1//EN"
 "http://www.w3.org/Graphics/SVG/1.1/DTD/svg11.dtd">
<!-- Generated by graphviz version 2.43.0 (0)
 -->
<!-- Title: _FindOrCreateEntry Pages: 1 -->
<svg width="506pt" height="104pt"
 viewBox="0.00 0.00 506.00 104.00" xmlns="http://www.w3.org/2000/svg" xmlns:xlink="http://www.w3.org/1999/xlink">
<g id="graph0" class="graph" transform="scale(1 1) rotate(0) translate(4 100)">
<title>_FindOrCreateEntry</title>
<!-- Node1 -->
<g id="node1" class="node">
<title>Node1</title>
<g id="a_node1"><a xlink:title=" ">
<polygon fill="#bfbfbf" stroke="black" points="388,-38.5 388,-57.5 498,-57.5 498,-38.5 388,-38.5"/>
<text text-anchor="middle" x="443" y="-45.5" font-family="Helvetica,sans-Serif" font-size="10.00">_FindOrCreateEntry</text>
</a>
</g>
</g>
<!-- Node2 -->
<g id="node2" class="node">
<title>Node2</title>
<g id="a_node2"><a xlink:href="logging_8c.html#a9c70e2531bc267a24b49832bd6683181" target="_top" xlink:title=" ">
<polygon fill="none" stroke="black" points="262.5,-76.5 262.5,-95.5 342.5,-95.5 342.5,-76.5 262.5,-76.5"/>
<text text-anchor="middle" x="302.5" y="-83.5" font-family="Helvetica,sans-Serif" font-size="10.00">_ProfilingEnd</text>
</a>
</g>
</g>
<!-- Node1&#45;&gt;Node2 -->
<g id="edge1" class="edge">
<title>Node1&#45;&gt;Node2</title>
<path fill="none" stroke="midnightblue" d="M397.37,-60.25C378.28,-65.48 356.32,-71.51 338.44,-76.41"/>
<polygon fill="midnightblue" stroke="midnightblue" points="398.33,-63.61 407.05,-57.59 396.48,-56.86 398.33,-63.61"/>
</g>
<!-- Node3 -->
<g id="node3" class="node">
<title>Node3</title>
<g id="a_node3"><a xlink:href="logging_8c.html#af85d22d104cdcdeb5014361278b25fdb" target="_top" xlink:title=" ">
<polygon fill="none" stroke="black" points="259.5,-38.5 259.5,-57.5 345.5,-57.5 345.5,-38.5 259.5,-38.5"/>
<text text-anchor="middle" x="302.5" y="-45.5" font-family="Helvetica,sans-Serif" font-size="10.00">_ProfilingStart</text>
</a>
</g>
</g>
<!-- Node1&#45;&gt;Node3 -->
<g id="edge2" class="edge">
<title>Node1&#45;&gt;Node3</title>
<path fill="none" stroke="midnightblue" d="M377.41,-48C366.64,-48 355.72,-48 345.7,-48"/>
<polygon fill="midnightblue" stroke="midnightblue" points="377.66,-51.5 387.66,-48 377.66,-44.5 377.66,-51.5"/>
</g>
<!-- Node4 -->
<g id="node4" class="node">
<title>Node4</title>
<g id="a_node4"><a xlink:href="logging_8c.html#ac4f5428199f6cd908056ad3e0ead934f" target="_top" xlink:title="Initializes the custom profiling system using configuration from SimCtx.">
<polygon fill="none" stroke="black" points="253,-0.5 253,-19.5 352,-19.5 352,-0.5 253,-0.5"/>
<text text-anchor="middle" x="302.5" y="-7.5" font-family="Helvetica,sans-Serif" font-size="10.00">ProfilingInitialize</text>
</a>
</g>
</g>
<!-- Node1&#45;&gt;Node4 -->
<g id="edge3" class="edge">
<title>Node1&#45;&gt;Node4</title>
<path fill="none" stroke="midnightblue" d="M397.37,-35.75C378.28,-30.52 356.32,-24.49 338.44,-19.59"/>
<polygon fill="midnightblue" stroke="midnightblue" points="396.48,-39.14 407.05,-38.41 398.33,-32.39 396.48,-39.14"/>
</g>
<!-- Node5 -->
<g id="node5" class="node">
<title>Node5</title>
<g id="a_node5"><a xlink:href="setup_8c.html#a977df65dac293c1308451334cb198693" target="_top" xlink:title="Allocates and populates the master SimulationContext object.">
<polygon fill="none" stroke="black" points="77,-0.5 77,-19.5 217,-19.5 217,-0.5 77,-0.5"/>
<text text-anchor="middle" x="147" y="-7.5" font-family="Helvetica,sans-Serif" font-size="10.00">CreateSimulationContext</text>
</a>
</g>
</g>
<!-- Node4&#45;&gt;Node5 -->
<g id="edge4" class="edge">
<title>Node4&#45;&gt;Node5</title>
<path fill="none" stroke="midnightblue" d="M242.82,-10C234.38,-10 225.62,-10 217,-10"/>
<polygon fill="midnightblue" stroke="midnightblue" points="242.93,-13.5 252.93,-10 242.93,-6.5 242.93,-13.5"/>
</g>
<!-- Node6 -->
<g id="node6" class="node">
<title>Node6</title>
<g id="a_node6"><a xlink:href="picsolver_8c.html#a3c04138a5bfe5d72780bb7e82a18e627" target="_top" xlink:title=" ">
<polygon fill="none" stroke="black" points="0,-0.5 0,-19.5 41,-19.5 41,-0.5 0,-0.5"/>
<text text-anchor="middle" x="20.5" y="-7.5" font-family="Helvetica,sans-Serif" font-size="10.00">main</text>
</a>
</g>
</g>
<!-- Node5&#45;&gt;Node6 -->
<g id="edge5" class="edge">
<title>Node5&#45;&gt;Node6</title>
<path fill="none" stroke="midnightblue" d="M66.83,-10C57.38,-10 48.5,-10 41.14,-10"/>
<polygon fill="midnightblue" stroke="midnightblue" points="66.83,-13.5 76.83,-10 66.83,-6.5 66.83,-13.5"/>
</g>
</g>
</svg>
