<?xml version="1.0" encoding="UTF-8" standalone="no"?>
<!DOCTYPE svg PUBLIC "-//W3C//DTD SVG 1.1//EN"
 "http://www.w3.org/Graphics/SVG/1.1/DTD/svg11.dtd">
<!-- Generated by graphviz version 2.43.0 (0)
 -->
<!-- Title: LOG_PARTICLE_FIELDS Pages: 1 -->
<svg width="450pt" height="208pt"
 viewBox="0.00 0.00 450.00 208.00" xmlns="http://www.w3.org/2000/svg" xmlns:xlink="http://www.w3.org/1999/xlink">
<g id="graph0" class="graph" transform="scale(1 1) rotate(0) translate(4 204)">
<title>LOG_PARTICLE_FIELDS</title>
<!-- Node1 -->
<g id="node1" class="node">
<title>Node1</title>
<g id="a_node1"><a xlink:title="Prints particle fields in a table that automatically adjusts its column widths.">
<polygon fill="#bfbfbf" stroke="black" points="0,-104.5 0,-123.5 128,-123.5 128,-104.5 0,-104.5"/>
<text text-anchor="middle" x="64" y="-111.5" font-family="Helvetica,sans-Serif" font-size="10.00">LOG_PARTICLE_FIELDS</text>
</a>
</g>
</g>
<!-- Node2 -->
<g id="node2" class="node">
<title>Node2</title>
<g id="a_node2"><a xlink:href="logging_8c.html#a7b3c43abc3eb1a2e0a5c1c74a9143b65" target="_top" xlink:title=" ">
<polygon fill="none" stroke="black" points="188,-180.5 188,-199.5 293,-199.5 293,-180.5 188,-180.5"/>
<text text-anchor="middle" x="240.5" y="-187.5" font-family="Helvetica,sans-Serif" font-size="10.00">BuildHeaderString</text>
</a>
</g>
</g>
<!-- Node1&#45;&gt;Node2 -->
<g id="edge1" class="edge">
<title>Node1&#45;&gt;Node2</title>
<path fill="none" stroke="midnightblue" d="M78.8,-123.6C97.38,-136.13 131.83,-157.98 164,-171 170.15,-173.49 176.71,-175.72 183.3,-177.7"/>
<polygon fill="midnightblue" stroke="midnightblue" points="182.36,-181.07 192.94,-180.43 184.27,-174.34 182.36,-181.07"/>
</g>
<!-- Node3 -->
<g id="node3" class="node">
<title>Node3</title>
<g id="a_node3"><a xlink:href="logging_8c.html#a64b10fa3837fcdfcbf13820eed2577ff" target="_top" xlink:title=" ">
<polygon fill="none" stroke="black" points="178,-142.5 178,-161.5 303,-161.5 303,-142.5 178,-142.5"/>
<text text-anchor="middle" x="240.5" y="-149.5" font-family="Helvetica,sans-Serif" font-size="10.00">BuildRowFormatString</text>
</a>
</g>
</g>
<!-- Node1&#45;&gt;Node3 -->
<g id="edge2" class="edge">
<title>Node1&#45;&gt;Node3</title>
<path fill="none" stroke="midnightblue" d="M109.03,-123.59C132.37,-128.67 161.23,-134.96 185.87,-140.32"/>
<polygon fill="midnightblue" stroke="midnightblue" points="185.27,-143.77 195.78,-142.48 186.76,-136.93 185.27,-143.77"/>
</g>
<!-- Node4 -->
<g id="node4" class="node">
<title>Node4</title>
<g id="a_node4"><a xlink:href="logging_8c.html#a90c3c89c64920d436a9079a419523e21" target="_top" xlink:title=" ">
<polygon fill="none" stroke="black" points="368,-114.5 368,-133.5 427,-133.5 427,-114.5 368,-114.5"/>
<text text-anchor="middle" x="397.5" y="-121.5" font-family="Helvetica,sans-Serif" font-size="10.00">CellToStr</text>
</a>
</g>
</g>
<!-- Node1&#45;&gt;Node4 -->
<g id="edge3" class="edge">
<title>Node1&#45;&gt;Node4</title>
<path fill="none" stroke="midnightblue" d="M128.13,-115.9C195.73,-117.94 300.85,-121.11 357.38,-122.82"/>
<polygon fill="midnightblue" stroke="midnightblue" points="357.58,-126.33 367.68,-123.13 357.79,-119.33 357.58,-126.33"/>
</g>
<!-- Node5 -->
<g id="node5" class="node">
<title>Node5</title>
<g id="a_node5"><a xlink:href="logging_8c.html#adc65395a00600e3e88641101c90725bf" target="_top" xlink:title=" ">
<polygon fill="none" stroke="black" points="164,-66.5 164,-85.5 317,-85.5 317,-66.5 164,-66.5"/>
<text text-anchor="middle" x="240.5" y="-73.5" font-family="Helvetica,sans-Serif" font-size="10.00">ComputeMaxColumnWidths</text>
</a>
</g>
</g>
<!-- Node1&#45;&gt;Node5 -->
<g id="edge4" class="edge">
<title>Node1&#45;&gt;Node5</title>
<path fill="none" stroke="midnightblue" d="M109.03,-104.41C132.37,-99.33 161.23,-93.04 185.87,-87.68"/>
<polygon fill="midnightblue" stroke="midnightblue" points="186.76,-91.07 195.78,-85.52 185.27,-84.23 186.76,-91.07"/>
</g>
<!-- Node8 -->
<g id="node8" class="node">
<title>Node8</title>
<g id="a_node8"><a xlink:href="logging_8c.html#a9cd4e0aea4743cc718e597959fec0774" target="_top" xlink:title=" ">
<polygon fill="none" stroke="black" points="353,-0.5 353,-19.5 442,-19.5 442,-0.5 353,-0.5"/>
<text text-anchor="middle" x="397.5" y="-7.5" font-family="Helvetica,sans-Serif" font-size="10.00">TripleRealToStr</text>
</a>
</g>
</g>
<!-- Node1&#45;&gt;Node8 -->
<g id="edge9" class="edge">
<title>Node1&#45;&gt;Node8</title>
<path fill="none" stroke="midnightblue" d="M78.39,-104.39C96.8,-91.65 131.34,-69.33 164,-57 223.05,-34.71 294.72,-22.27 342.74,-15.86"/>
<polygon fill="midnightblue" stroke="midnightblue" points="343.45,-19.3 352.92,-14.55 342.55,-12.36 343.45,-19.3"/>
</g>
<!-- Node5&#45;&gt;Node4 -->
<g id="edge5" class="edge">
<title>Node5&#45;&gt;Node4</title>
<path fill="none" stroke="midnightblue" d="M272.49,-85.6C297.17,-93.24 331.83,-103.97 358.23,-112.15"/>
<polygon fill="midnightblue" stroke="midnightblue" points="357.32,-115.53 367.91,-115.15 359.39,-108.85 357.32,-115.53"/>
</g>
<!-- Node6 -->
<g id="node6" class="node">
<title>Node6</title>
<g id="a_node6"><a xlink:href="logging_8c.html#aa1977fc21fa13444d85147ec9798f76b" target="_top" xlink:title=" ">
<polygon fill="none" stroke="black" points="365,-76.5 365,-95.5 430,-95.5 430,-76.5 365,-76.5"/>
<text text-anchor="middle" x="397.5" y="-83.5" font-family="Helvetica,sans-Serif" font-size="10.00">Int64ToStr</text>
</a>
</g>
</g>
<!-- Node5&#45;&gt;Node6 -->
<g id="edge6" class="edge">
<title>Node5&#45;&gt;Node6</title>
<path fill="none" stroke="midnightblue" d="M317.18,-80.88C330.01,-81.71 342.9,-82.54 354.46,-83.29"/>
<polygon fill="midnightblue" stroke="midnightblue" points="354.44,-86.79 364.65,-83.95 354.89,-79.81 354.44,-86.79"/>
</g>
<!-- Node7 -->
<g id="node7" class="node">
<title>Node7</title>
<g id="a_node7"><a xlink:href="logging_8c.html#ad2ca09810919ecbbd0daceb827fe330e" target="_top" xlink:title=" ">
<polygon fill="none" stroke="black" points="371,-38.5 371,-57.5 424,-57.5 424,-38.5 371,-38.5"/>
<text text-anchor="middle" x="397.5" y="-45.5" font-family="Helvetica,sans-Serif" font-size="10.00">IntToStr</text>
</a>
</g>
</g>
<!-- Node5&#45;&gt;Node7 -->
<g id="edge7" class="edge">
<title>Node5&#45;&gt;Node7</title>
<path fill="none" stroke="midnightblue" d="M294.41,-66.44C316.26,-62.49 341.03,-58.02 360.7,-54.47"/>
<polygon fill="midnightblue" stroke="midnightblue" points="361.54,-57.87 370.76,-52.65 360.3,-50.98 361.54,-57.87"/>
</g>
<!-- Node5&#45;&gt;Node8 -->
<g id="edge8" class="edge">
<title>Node5&#45;&gt;Node8</title>
<path fill="none" stroke="midnightblue" d="M264.04,-66.4C290.52,-55.13 334.63,-36.35 364.61,-23.58"/>
<polygon fill="midnightblue" stroke="midnightblue" points="366.36,-26.64 374.19,-19.5 363.61,-20.2 366.36,-26.64"/>
</g>
</g>
</svg>
