<?xml version="1.0" encoding="UTF-8" standalone="no"?>
<!DOCTYPE svg PUBLIC "-//W3C//DTD SVG 1.1//EN"
 "http://www.w3.org/Graphics/SVG/1.1/DTD/svg11.dtd">
<!-- Generated by graphviz version 2.43.0 (0)
 -->
<!-- Title: BCFaceToString Pages: 1 -->
<svg width="860pt" height="169pt"
 viewBox="0.00 0.00 860.00 169.00" xmlns="http://www.w3.org/2000/svg" xmlns:xlink="http://www.w3.org/1999/xlink">
<g id="graph0" class="graph" transform="scale(1 1) rotate(0) translate(4 165)">
<title>BCFaceToString</title>
<!-- Node1 -->
<g id="node1" class="node">
<title>Node1</title>
<g id="a_node1"><a xlink:title="Helper function to convert BCFace enum to a string representation.">
<polygon fill="#bfbfbf" stroke="black" points="760,-84.5 760,-103.5 852,-103.5 852,-84.5 760,-84.5"/>
<text text-anchor="middle" x="806" y="-91.5" font-family="Helvetica,sans-Serif" font-size="10.00">BCFaceToString</text>
</a>
</g>
</g>
<!-- Node2 -->
<g id="node2" class="node">
<title>Node2</title>
<g id="a_node2"><a xlink:href="io_8c.html#adde32528a690c023bc98c9e56ae2f2fb" target="_top" xlink:title="Displays a structured banner summarizing the simulation configuration.">
<polygon fill="none" stroke="black" points="95,-141.5 95,-160.5 183,-160.5 183,-141.5 95,-141.5"/>
<text text-anchor="middle" x="139" y="-148.5" font-family="Helvetica,sans-Serif" font-size="10.00">DisplayBanner</text>
</a>
</g>
</g>
<!-- Node1&#45;&gt;Node2 -->
<g id="edge1" class="edge">
<title>Node1&#45;&gt;Node2</title>
<path fill="none" stroke="midnightblue" d="M756.03,-105.83C745.48,-108.28 734.38,-110.79 724,-113 636.36,-131.68 615.2,-142.52 526,-151 402.08,-162.78 254.77,-157.47 183.25,-153.66"/>
<polygon fill="midnightblue" stroke="midnightblue" points="757,-109.19 765.93,-103.5 755.4,-102.38 757,-109.19"/>
</g>
<!-- Node4 -->
<g id="node4" class="node">
<title>Node4</title>
<g id="a_node4"><a xlink:href="Boundaries_8c.html#abd9b573f8f42ea93e265da37a0673f24" target="_top" xlink:title="Applies inlet boundary conditions based on the modern BC handling system.">
<polygon fill="none" stroke="black" points="609,-84.5 609,-103.5 677,-103.5 677,-84.5 609,-84.5"/>
<text text-anchor="middle" x="643" y="-91.5" font-family="Helvetica,sans-Serif" font-size="10.00">InflowFlux</text>
</a>
</g>
</g>
<!-- Node1&#45;&gt;Node4 -->
<g id="edge3" class="edge">
<title>Node1&#45;&gt;Node4</title>
<path fill="none" stroke="midnightblue" d="M749.63,-94C725.52,-94 698.07,-94 677.2,-94"/>
<polygon fill="midnightblue" stroke="midnightblue" points="749.72,-97.5 759.72,-94 749.72,-90.5 749.72,-97.5"/>
</g>
<!-- Node11 -->
<g id="node11" class="node">
<title>Node11</title>
<g id="a_node11"><a xlink:href="Boundaries_8c.html#ae7f472e68b4ebad054e1391e5de8c9a0" target="_top" xlink:title=" ">
<polygon fill="none" stroke="black" points="562,-21.5 562,-40.5 724,-40.5 724,-21.5 562,-21.5"/>
<text text-anchor="middle" x="643" y="-28.5" font-family="Helvetica,sans-Serif" font-size="10.00">TranslateModernBCsToLegacy</text>
</a>
</g>
</g>
<!-- Node1&#45;&gt;Node11 -->
<g id="edge13" class="edge">
<title>Node1&#45;&gt;Node11</title>
<path fill="none" stroke="midnightblue" d="M771.09,-80.73C740.35,-68.7 695.79,-51.27 668.42,-40.55"/>
<polygon fill="midnightblue" stroke="midnightblue" points="769.96,-84.05 780.55,-84.43 772.51,-77.53 769.96,-84.05"/>
</g>
<!-- Node3 -->
<g id="node3" class="node">
<title>Node3</title>
<g id="a_node3"><a xlink:href="picsolver_8c.html#a3c04138a5bfe5d72780bb7e82a18e627" target="_top" xlink:title=" ">
<polygon fill="none" stroke="black" points="0,-64.5 0,-83.5 41,-83.5 41,-64.5 0,-64.5"/>
<text text-anchor="middle" x="20.5" y="-71.5" font-family="Helvetica,sans-Serif" font-size="10.00">main</text>
</a>
</g>
</g>
<!-- Node2&#45;&gt;Node3 -->
<g id="edge2" class="edge">
<title>Node2&#45;&gt;Node3</title>
<path fill="none" stroke="midnightblue" d="M114.61,-135.54C91.18,-120.06 55.86,-96.71 36.14,-83.67"/>
<polygon fill="midnightblue" stroke="midnightblue" points="112.97,-138.65 123.25,-141.25 116.83,-132.81 112.97,-138.65"/>
</g>
<!-- Node5 -->
<g id="node5" class="node">
<title>Node5</title>
<g id="a_node5"><a xlink:href="implicitsolvers_8c.html#a148a238901a4674420c87137c087e3ac" target="_top" xlink:title="Advances the momentum equations using an iterative explicit Runge&#45;Kutta scheme.">
<polygon fill="none" stroke="black" points="446.5,-122.5 446.5,-141.5 495.5,-141.5 495.5,-122.5 446.5,-122.5"/>
<text text-anchor="middle" x="471" y="-129.5" font-family="Helvetica,sans-Serif" font-size="10.00">ImpRK</text>
</a>
</g>
</g>
<!-- Node4&#45;&gt;Node5 -->
<g id="edge4" class="edge">
<title>Node4&#45;&gt;Node5</title>
<path fill="none" stroke="midnightblue" d="M599.02,-103.61C566.19,-110.95 522.19,-120.78 495.53,-126.74"/>
<polygon fill="midnightblue" stroke="midnightblue" points="599.82,-107.01 608.82,-101.42 598.3,-100.18 599.82,-107.01"/>
</g>
<!-- Node8 -->
<g id="node8" class="node">
<title>Node8</title>
<g id="a_node8"><a xlink:href="implicitsolvers_8c.html#a89ae58d48076ba82dc70438b5e389bf5" target="_top" xlink:title="Advances the momentum equations for ALL blocks by one time step using an explicit 4&#45;stage,...">
<polygon fill="none" stroke="black" points="434.5,-84.5 434.5,-103.5 507.5,-103.5 507.5,-84.5 434.5,-84.5"/>
<text text-anchor="middle" x="471" y="-91.5" font-family="Helvetica,sans-Serif" font-size="10.00">RungeKutta</text>
</a>
</g>
</g>
<!-- Node4&#45;&gt;Node8 -->
<g id="edge8" class="edge">
<title>Node4&#45;&gt;Node8</title>
<path fill="none" stroke="midnightblue" d="M598.47,-94C570.34,-94 534.18,-94 507.74,-94"/>
<polygon fill="midnightblue" stroke="midnightblue" points="598.82,-97.5 608.82,-94 598.82,-90.5 598.82,-97.5"/>
</g>
<!-- Node9 -->
<g id="node9" class="node">
<title>Node9</title>
<g id="a_node9"><a xlink:href="initialcondition_8c.html#a51d0251f84a962a611ff0c0a8797a3e4" target="_top" xlink:title="(HELPER) Sets the t=0 fluid state for all blocks.">
<polygon fill="none" stroke="black" points="416,-35 416,-65 526,-65 526,-35 416,-35"/>
<text text-anchor="start" x="424" y="-53" font-family="Helvetica,sans-Serif" font-size="10.00">SetInitialFluidState</text>
<text text-anchor="middle" x="471" y="-42" font-family="Helvetica,sans-Serif" font-size="10.00">_FreshStart</text>
</a>
</g>
</g>
<!-- Node4&#45;&gt;Node9 -->
<g id="edge10" class="edge">
<title>Node4&#45;&gt;Node9</title>
<path fill="none" stroke="midnightblue" d="M599.04,-82.88C576.92,-77.16 549.72,-70.12 526.17,-64.02"/>
<polygon fill="midnightblue" stroke="midnightblue" points="598.26,-86.29 608.82,-85.41 600.01,-79.52 598.26,-86.29"/>
</g>
<!-- Node6 -->
<g id="node6" class="node">
<title>Node6</title>
<g id="a_node6"><a xlink:href="solvers_8c.html#a2ed4825273a593f371a3d48071708255" target="_top" xlink:title="Orchestrates a single time step of the Eulerian fluid solver.">
<polygon fill="none" stroke="black" points="270.5,-84.5 270.5,-103.5 346.5,-103.5 346.5,-84.5 270.5,-84.5"/>
<text text-anchor="middle" x="308.5" y="-91.5" font-family="Helvetica,sans-Serif" font-size="10.00">Flow_Solver</text>
</a>
</g>
</g>
<!-- Node5&#45;&gt;Node6 -->
<g id="edge5" class="edge">
<title>Node5&#45;&gt;Node6</title>
<path fill="none" stroke="midnightblue" d="M436.46,-124.06C410.23,-117.85 373.8,-109.22 346.68,-102.8"/>
<polygon fill="midnightblue" stroke="midnightblue" points="435.78,-127.49 446.32,-126.39 437.39,-120.68 435.78,-127.49"/>
</g>
<!-- Node7 -->
<g id="node7" class="node">
<title>Node7</title>
<g id="a_node7"><a xlink:href="simulation_8c.html#a5cfb2f783604af7f20171d19f969d5d3" target="_top" xlink:title="Executes the main time&#45;marching loop for the coupled Euler&#45;Lagrange simulation.">
<polygon fill="none" stroke="black" points="83.5,-81.5 83.5,-100.5 194.5,-100.5 194.5,-81.5 83.5,-81.5"/>
<text text-anchor="middle" x="139" y="-88.5" font-family="Helvetica,sans-Serif" font-size="10.00">AdvanceSimulation</text>
</a>
</g>
</g>
<!-- Node6&#45;&gt;Node7 -->
<g id="edge6" class="edge">
<title>Node6&#45;&gt;Node7</title>
<path fill="none" stroke="midnightblue" d="M260.3,-93.15C239.85,-92.79 215.78,-92.36 194.56,-91.98"/>
<polygon fill="midnightblue" stroke="midnightblue" points="260.27,-96.65 270.33,-93.33 260.39,-89.66 260.27,-96.65"/>
</g>
<!-- Node7&#45;&gt;Node3 -->
<g id="edge7" class="edge">
<title>Node7&#45;&gt;Node3</title>
<path fill="none" stroke="midnightblue" d="M72.97,-81.51C61.43,-79.83 50.25,-78.2 41.27,-76.89"/>
<polygon fill="midnightblue" stroke="midnightblue" points="72.76,-85.02 83.16,-83 73.77,-78.09 72.76,-85.02"/>
</g>
<!-- Node8&#45;&gt;Node6 -->
<g id="edge9" class="edge">
<title>Node8&#45;&gt;Node6</title>
<path fill="none" stroke="midnightblue" d="M424.22,-94C399.66,-94 369.8,-94 346.69,-94"/>
<polygon fill="midnightblue" stroke="midnightblue" points="424.38,-97.5 434.38,-94 424.38,-90.5 424.38,-97.5"/>
</g>
<!-- Node10 -->
<g id="node10" class="node">
<title>Node10</title>
<g id="a_node10"><a xlink:href="initialcondition_8c.html#ad0dd7d3f2528b6a7802fcd551e88ea99" target="_top" xlink:title="High&#45;level orchestrator to set the complete initial state of the Eulerian solver.">
<polygon fill="none" stroke="black" points="77,-42.5 77,-61.5 201,-61.5 201,-42.5 77,-42.5"/>
<text text-anchor="middle" x="139" y="-49.5" font-family="Helvetica,sans-Serif" font-size="10.00">InitializeEulerianState</text>
</a>
</g>
</g>
<!-- Node9&#45;&gt;Node10 -->
<g id="edge11" class="edge">
<title>Node9&#45;&gt;Node10</title>
<path fill="none" stroke="midnightblue" d="M405.53,-50.39C346.35,-50.75 259.28,-51.28 201.17,-51.63"/>
<polygon fill="midnightblue" stroke="midnightblue" points="405.9,-53.89 415.88,-50.33 405.86,-46.89 405.9,-53.89"/>
</g>
<!-- Node10&#45;&gt;Node3 -->
<g id="edge12" class="edge">
<title>Node10&#45;&gt;Node3</title>
<path fill="none" stroke="midnightblue" d="M77.55,-63.42C64.42,-65.9 51.44,-68.35 41.28,-70.27"/>
<polygon fill="midnightblue" stroke="midnightblue" points="78.4,-66.82 87.58,-61.52 77.1,-59.94 78.4,-66.82"/>
</g>
<!-- Node12 -->
<g id="node12" class="node">
<title>Node12</title>
<g id="a_node12"><a xlink:href="setup_8c.html#ad9f399b16547eba3244159f7136a1eb9" target="_top" xlink:title="(Orchestrator) Sets up all boundary conditions for the simulation.">
<polygon fill="none" stroke="black" points="237,-0.5 237,-19.5 380,-19.5 380,-0.5 237,-0.5"/>
<text text-anchor="middle" x="308.5" y="-7.5" font-family="Helvetica,sans-Serif" font-size="10.00">SetupBoundaryConditions</text>
</a>
</g>
</g>
<!-- Node11&#45;&gt;Node12 -->
<g id="edge14" class="edge">
<title>Node11&#45;&gt;Node12</title>
<path fill="none" stroke="midnightblue" d="M551.68,-25.3C497.72,-21.89 430.16,-17.62 380.12,-14.46"/>
<polygon fill="midnightblue" stroke="midnightblue" points="551.73,-28.81 561.93,-25.94 552.18,-21.82 551.73,-28.81"/>
</g>
<!-- Node12&#45;&gt;Node3 -->
<g id="edge15" class="edge">
<title>Node12&#45;&gt;Node3</title>
<path fill="none" stroke="midnightblue" d="M226.85,-7.65C181.46,-8.86 124.53,-14.68 77,-33 58.89,-39.98 41.48,-54.54 31.13,-64.3"/>
<polygon fill="midnightblue" stroke="midnightblue" points="227.01,-11.15 236.94,-7.45 226.87,-4.15 227.01,-11.15"/>
</g>
</g>
</svg>
