<?xml version="1.0" encoding="UTF-8" standalone="no"?>
<!DOCTYPE svg PUBLIC "-//W3C//DTD SVG 1.1//EN"
 "http://www.w3.org/Graphics/SVG/1.1/DTD/svg11.dtd">
<!-- Generated by graphviz version 2.43.0 (0)
 -->
<!-- Title: logging.c Pages: 1 -->
<svg width="2957pt" height="812pt"
 viewBox="0.00 0.00 2956.50 812.00" xmlns="http://www.w3.org/2000/svg" xmlns:xlink="http://www.w3.org/1999/xlink">
<g id="graph0" class="graph" transform="scale(1 1) rotate(0) translate(4 808)">
<title>logging.c</title>
<!-- Node1 -->
<g id="node1" class="node">
<title>Node1</title>
<g id="a_node1"><a xlink:title=" ">
<polygon fill="#bfbfbf" stroke="black" points="1502.5,-784.5 1502.5,-803.5 1563.5,-803.5 1563.5,-784.5 1502.5,-784.5"/>
<text text-anchor="middle" x="1533" y="-791.5" font-family="Helvetica,sans-Serif" font-size="10.00">logging.c</text>
</a>
</g>
</g>
<!-- Node2 -->
<g id="node2" class="node">
<title>Node2</title>
<g id="a_node2"><a xlink:href="logging_8h.html" target="_top" xlink:title="Logging utilities and macros for PETSc&#45;based applications.">
<polygon fill="none" stroke="black" points="1502,-728.5 1502,-747.5 1564,-747.5 1564,-728.5 1502,-728.5"/>
<text text-anchor="middle" x="1533" y="-735.5" font-family="Helvetica,sans-Serif" font-size="10.00">logging.h</text>
</a>
</g>
</g>
<!-- Node1&#45;&gt;Node2 -->
<g id="edge1" class="edge">
<title>Node1&#45;&gt;Node2</title>
<path fill="none" stroke="midnightblue" d="M1533,-784.08C1533,-777.01 1533,-766.86 1533,-757.99"/>
<polygon fill="midnightblue" stroke="midnightblue" points="1536.5,-757.75 1533,-747.75 1529.5,-757.75 1536.5,-757.75"/>
</g>
<!-- Node3 -->
<g id="node3" class="node">
<title>Node3</title>
<g id="a_node3"><a xlink:title=" ">
<polygon fill="none" stroke="#bfbfbf" points="338,-168.5 338,-187.5 390,-187.5 390,-168.5 338,-168.5"/>
<text text-anchor="middle" x="364" y="-175.5" font-family="Helvetica,sans-Serif" font-size="10.00">petsc.h</text>
</a>
</g>
</g>
<!-- Node2&#45;&gt;Node3 -->
<g id="edge2" class="edge">
<title>Node2&#45;&gt;Node3</title>
<path fill="none" stroke="midnightblue" d="M1501.92,-736.71C1322.89,-734.93 427.02,-724.45 309,-692 250.89,-676.02 190,-687.26 190,-627 190,-627 190,-627 190,-457 190,-340.66 300.85,-232.93 345.6,-194.18"/>
<polygon fill="midnightblue" stroke="midnightblue" points="348.03,-196.71 353.38,-187.57 343.49,-191.38 348.03,-196.71"/>
</g>
<!-- Node4 -->
<g id="node4" class="node">
<title>Node4</title>
<g id="a_node4"><a xlink:title=" ">
<polygon fill="none" stroke="#bfbfbf" points="1890.5,-0.5 1890.5,-19.5 1943.5,-19.5 1943.5,-0.5 1890.5,-0.5"/>
<text text-anchor="middle" x="1917" y="-7.5" font-family="Helvetica,sans-Serif" font-size="10.00">stdlib.h</text>
</a>
</g>
</g>
<!-- Node2&#45;&gt;Node4 -->
<g id="edge3" class="edge">
<title>Node2&#45;&gt;Node4</title>
<path fill="none" stroke="midnightblue" d="M1564.07,-737.35C1686.83,-738.35 2149.83,-738.65 2527,-692 2663.26,-675.15 2829,-764.3 2829,-627 2829,-627 2829,-627 2829,-121 2829,-49.97 2752.01,-72.8 2683,-56 2542.01,-21.68 2086.27,-13.18 1953.57,-11.41"/>
<polygon fill="midnightblue" stroke="midnightblue" points="1953.56,-7.91 1943.51,-11.28 1953.47,-14.91 1953.56,-7.91"/>
</g>
<!-- Node5 -->
<g id="node5" class="node">
<title>Node5</title>
<g id="a_node5"><a xlink:title=" ">
<polygon fill="none" stroke="#bfbfbf" points="2401.5,-0.5 2401.5,-19.5 2454.5,-19.5 2454.5,-0.5 2401.5,-0.5"/>
<text text-anchor="middle" x="2428" y="-7.5" font-family="Helvetica,sans-Serif" font-size="10.00">string.h</text>
</a>
</g>
</g>
<!-- Node2&#45;&gt;Node5 -->
<g id="edge4" class="edge">
<title>Node2&#45;&gt;Node5</title>
<path fill="none" stroke="midnightblue" d="M1564.13,-737.08C1724.99,-737.27 2463.03,-735.71 2687,-692 2770.48,-675.71 2867,-712.06 2867,-627 2867,-627 2867,-627 2867,-121 2867,-38.39 2570.81,-17.28 2465.01,-12.37"/>
<polygon fill="midnightblue" stroke="midnightblue" points="2464.95,-8.86 2454.8,-11.92 2464.64,-15.85 2464.95,-8.86"/>
</g>
<!-- Node6 -->
<g id="node6" class="node">
<title>Node6</title>
<g id="a_node6"><a xlink:title=" ">
<polygon fill="none" stroke="#bfbfbf" points="1675,-112.5 1675,-131.5 1743,-131.5 1743,-112.5 1675,-112.5"/>
<text text-anchor="middle" x="1709" y="-119.5" font-family="Helvetica,sans-Serif" font-size="10.00">petscsys.h</text>
</a>
</g>
</g>
<!-- Node2&#45;&gt;Node6 -->
<g id="edge5" class="edge">
<title>Node2&#45;&gt;Node6</title>
<path fill="none" stroke="midnightblue" d="M1564.15,-736.57C1693.02,-734.59 2184.74,-724.97 2336,-692 2402.69,-677.46 2431.09,-684.61 2479,-636 2497.66,-617.07 2493.19,-605.69 2500,-580 2567.39,-325.7 2325.36,-248.81 2075,-168 2016.06,-148.98 1837.16,-133 1753.29,-126.34"/>
<polygon fill="midnightblue" stroke="midnightblue" points="1753.31,-122.83 1743.06,-125.53 1752.76,-129.81 1753.31,-122.83"/>
</g>
<!-- Node7 -->
<g id="node7" class="node">
<title>Node7</title>
<g id="a_node7"><a xlink:title=" ">
<polygon fill="none" stroke="#bfbfbf" points="2895.5,-672.5 2895.5,-691.5 2948.5,-691.5 2948.5,-672.5 2895.5,-672.5"/>
<text text-anchor="middle" x="2922" y="-679.5" font-family="Helvetica,sans-Serif" font-size="10.00">ctype.h</text>
</a>
</g>
</g>
<!-- Node2&#45;&gt;Node7 -->
<g id="edge6" class="edge">
<title>Node2&#45;&gt;Node7</title>
<path fill="none" stroke="midnightblue" d="M1564.19,-736.73C1740.54,-735.11 2614.1,-725.46 2881,-692 2882.3,-691.84 2883.62,-691.65 2884.95,-691.45"/>
<polygon fill="midnightblue" stroke="midnightblue" points="2885.99,-694.82 2895.22,-689.61 2884.76,-687.93 2885.99,-694.82"/>
</g>
<!-- Node8 -->
<g id="node8" class="node">
<title>Node8</title>
<g id="a_node8"><a xlink:href="variables_8h.html" target="_top" xlink:title="Main header file for a complex fluid dynamics solver.">
<polygon fill="none" stroke="black" points="1387.5,-56.5 1387.5,-75.5 1458.5,-75.5 1458.5,-56.5 1387.5,-56.5"/>
<text text-anchor="middle" x="1423" y="-63.5" font-family="Helvetica,sans-Serif" font-size="10.00">variables.h</text>
</a>
</g>
</g>
<!-- Node2&#45;&gt;Node8 -->
<g id="edge7" class="edge">
<title>Node2&#45;&gt;Node8</title>
<path fill="none" stroke="midnightblue" d="M1564.1,-735.96C1757.82,-729.26 2791,-690.58 2791,-627 2791,-627 2791,-627 2791,-289 2791,-161.07 2686.48,-148.96 2564,-112 2458.01,-80.01 1668.25,-69.59 1468.7,-67.45"/>
<polygon fill="midnightblue" stroke="midnightblue" points="1468.6,-63.95 1458.56,-67.34 1468.52,-70.95 1468.6,-63.95"/>
</g>
<!-- Node16 -->
<g id="node16" class="node">
<title>Node16</title>
<g id="a_node16"><a xlink:href="AnalyticalSolution_8h.html" target="_top" xlink:title=" ">
<polygon fill="none" stroke="black" points="1616,-672.5 1616,-691.5 1730,-691.5 1730,-672.5 1616,-672.5"/>
<text text-anchor="middle" x="1673" y="-679.5" font-family="Helvetica,sans-Serif" font-size="10.00">AnalyticalSolution.h</text>
</a>
</g>
</g>
<!-- Node2&#45;&gt;Node16 -->
<g id="edge17" class="edge">
<title>Node2&#45;&gt;Node16</title>
<path fill="none" stroke="midnightblue" d="M1550.09,-728.44C1571.56,-719.4 1608.52,-705.06 1636.4,-694.92"/>
<polygon fill="midnightblue" stroke="midnightblue" points="1637.62,-698.2 1645.84,-691.52 1635.25,-691.61 1637.62,-698.2"/>
</g>
<!-- Node29 -->
<g id="node29" class="node">
<title>Node29</title>
<g id="a_node29"><a xlink:href="Boundaries_8h.html" target="_top" xlink:title=" ">
<polygon fill="none" stroke="black" points="1176,-392.5 1176,-411.5 1256,-411.5 1256,-392.5 1176,-392.5"/>
<text text-anchor="middle" x="1216" y="-399.5" font-family="Helvetica,sans-Serif" font-size="10.00">Boundaries.h</text>
</a>
</g>
</g>
<!-- Node2&#45;&gt;Node29 -->
<g id="edge146" class="edge">
<title>Node2&#45;&gt;Node29</title>
<path fill="none" stroke="midnightblue" d="M1501.79,-736.21C1437.26,-732.86 1296,-715.56 1296,-627 1296,-627 1296,-627 1296,-513 1296,-471.21 1256.7,-436.39 1232.97,-417.73"/>
<polygon fill="midnightblue" stroke="midnightblue" points="1235.09,-414.94 1225.04,-411.6 1230.81,-420.48 1235.09,-414.94"/>
</g>
<!-- Node8&#45;&gt;Node4 -->
<g id="edge14" class="edge">
<title>Node8&#45;&gt;Node4</title>
<path fill="none" stroke="midnightblue" d="M1458.73,-58.22C1463.52,-57.42 1468.37,-56.65 1473,-56 1623.59,-34.85 1804.25,-19.68 1880.36,-13.75"/>
<polygon fill="midnightblue" stroke="midnightblue" points="1880.69,-17.24 1890.39,-12.98 1880.15,-10.26 1880.69,-17.24"/>
</g>
<!-- Node8&#45;&gt;Node5 -->
<g id="edge15" class="edge">
<title>Node8&#45;&gt;Node5</title>
<path fill="none" stroke="midnightblue" d="M1458.77,-63.08C1614.64,-54.7 2233.76,-21.44 2391.35,-12.97"/>
<polygon fill="midnightblue" stroke="midnightblue" points="2391.68,-16.46 2401.47,-12.43 2391.3,-9.47 2391.68,-16.46"/>
</g>
<!-- Node9 -->
<g id="node9" class="node">
<title>Node9</title>
<g id="a_node9"><a xlink:title=" ">
<polygon fill="none" stroke="#bfbfbf" points="1248.5,-0.5 1248.5,-19.5 1317.5,-19.5 1317.5,-0.5 1248.5,-0.5"/>
<text text-anchor="middle" x="1283" y="-7.5" font-family="Helvetica,sans-Serif" font-size="10.00">petscvec.h</text>
</a>
</g>
</g>
<!-- Node8&#45;&gt;Node9 -->
<g id="edge8" class="edge">
<title>Node8&#45;&gt;Node9</title>
<path fill="none" stroke="midnightblue" d="M1400.82,-56.44C1377.57,-47.48 1340.85,-33.31 1314.58,-23.18"/>
<polygon fill="midnightblue" stroke="midnightblue" points="1315.67,-19.85 1305.08,-19.52 1313.15,-26.38 1315.67,-19.85"/>
</g>
<!-- Node10 -->
<g id="node10" class="node">
<title>Node10</title>
<g id="a_node10"><a xlink:title=" ">
<polygon fill="none" stroke="#bfbfbf" points="1336,-0.5 1336,-19.5 1416,-19.5 1416,-0.5 1336,-0.5"/>
<text text-anchor="middle" x="1376" y="-7.5" font-family="Helvetica,sans-Serif" font-size="10.00">petscdmda.h</text>
</a>
</g>
</g>
<!-- Node8&#45;&gt;Node10 -->
<g id="edge9" class="edge">
<title>Node8&#45;&gt;Node10</title>
<path fill="none" stroke="midnightblue" d="M1415.24,-56.08C1408.46,-48.3 1398.46,-36.8 1390.24,-27.37"/>
<polygon fill="midnightblue" stroke="midnightblue" points="1392.82,-25 1383.62,-19.75 1387.54,-29.59 1392.82,-25"/>
</g>
<!-- Node11 -->
<g id="node11" class="node">
<title>Node11</title>
<g id="a_node11"><a xlink:title=" ">
<polygon fill="none" stroke="#bfbfbf" points="1434.5,-0.5 1434.5,-19.5 1503.5,-19.5 1503.5,-0.5 1434.5,-0.5"/>
<text text-anchor="middle" x="1469" y="-7.5" font-family="Helvetica,sans-Serif" font-size="10.00">petscksp.h</text>
</a>
</g>
</g>
<!-- Node8&#45;&gt;Node11 -->
<g id="edge10" class="edge">
<title>Node8&#45;&gt;Node11</title>
<path fill="none" stroke="midnightblue" d="M1430.6,-56.08C1437.23,-48.3 1447.02,-36.8 1455.06,-27.37"/>
<polygon fill="midnightblue" stroke="midnightblue" points="1457.73,-29.63 1461.55,-19.75 1452.4,-25.09 1457.73,-29.63"/>
</g>
<!-- Node12 -->
<g id="node12" class="node">
<title>Node12</title>
<g id="a_node12"><a xlink:title=" ">
<polygon fill="none" stroke="#bfbfbf" points="1522,-0.5 1522,-19.5 1596,-19.5 1596,-0.5 1522,-0.5"/>
<text text-anchor="middle" x="1559" y="-7.5" font-family="Helvetica,sans-Serif" font-size="10.00">petscsnes.h</text>
</a>
</g>
</g>
<!-- Node8&#45;&gt;Node12 -->
<g id="edge11" class="edge">
<title>Node8&#45;&gt;Node12</title>
<path fill="none" stroke="midnightblue" d="M1444.55,-56.44C1467.03,-47.52 1502.49,-33.44 1527.98,-23.32"/>
<polygon fill="midnightblue" stroke="midnightblue" points="1529.55,-26.46 1537.55,-19.52 1526.97,-19.95 1529.55,-26.46"/>
</g>
<!-- Node13 -->
<g id="node13" class="node">
<title>Node13</title>
<g id="a_node13"><a xlink:title=" ">
<polygon fill="none" stroke="#bfbfbf" points="753.5,-0.5 753.5,-19.5 854.5,-19.5 854.5,-0.5 753.5,-0.5"/>
<text text-anchor="middle" x="804" y="-7.5" font-family="Helvetica,sans-Serif" font-size="10.00">petscdmswarm.h</text>
</a>
</g>
</g>
<!-- Node8&#45;&gt;Node13 -->
<g id="edge12" class="edge">
<title>Node8&#45;&gt;Node13</title>
<path fill="none" stroke="midnightblue" d="M1387.29,-58.13C1382.5,-57.34 1377.64,-56.6 1373,-56 1188.73,-32.19 969.14,-19.12 864.83,-13.83"/>
<polygon fill="midnightblue" stroke="midnightblue" points="864.96,-10.33 854.79,-13.32 864.61,-17.32 864.96,-10.33"/>
</g>
<!-- Node14 -->
<g id="node14" class="node">
<title>Node14</title>
<g id="a_node14"><a xlink:title=" ">
<polygon fill="none" stroke="#bfbfbf" points="1614,-0.5 1614,-19.5 1664,-19.5 1664,-0.5 1614,-0.5"/>
<text text-anchor="middle" x="1639" y="-7.5" font-family="Helvetica,sans-Serif" font-size="10.00">stdio.h</text>
</a>
</g>
</g>
<!-- Node8&#45;&gt;Node14 -->
<g id="edge13" class="edge">
<title>Node8&#45;&gt;Node14</title>
<path fill="none" stroke="midnightblue" d="M1458.27,-56.46C1492.96,-48.02 1547.68,-34.6 1603.98,-20.23"/>
<polygon fill="midnightblue" stroke="midnightblue" points="1604.94,-23.6 1613.76,-17.73 1603.21,-16.82 1604.94,-23.6"/>
</g>
<!-- Node15 -->
<g id="node15" class="node">
<title>Node15</title>
<g id="a_node15"><a xlink:title=" ">
<polygon fill="none" stroke="#bfbfbf" points="1174,-0.5 1174,-19.5 1230,-19.5 1230,-0.5 1174,-0.5"/>
<text text-anchor="middle" x="1202" y="-7.5" font-family="Helvetica,sans-Serif" font-size="10.00">unistd.h</text>
</a>
</g>
</g>
<!-- Node8&#45;&gt;Node15 -->
<g id="edge16" class="edge">
<title>Node8&#45;&gt;Node15</title>
<path fill="none" stroke="midnightblue" d="M1387.98,-56.44C1347.62,-46.58 1281.51,-30.43 1239.94,-20.27"/>
<polygon fill="midnightblue" stroke="midnightblue" points="1240.74,-16.86 1230.19,-17.89 1239.08,-23.66 1240.74,-16.86"/>
</g>
<!-- Node16&#45;&gt;Node2 -->
<g id="edge142" class="edge">
<title>Node16&#45;&gt;Node2</title>
<path fill="none" stroke="midnightblue" d="M1656,-691.52C1634.58,-700.55 1597.63,-714.88 1569.73,-725.04"/>
<polygon fill="midnightblue" stroke="midnightblue" points="1568.49,-721.76 1560.27,-728.44 1570.87,-728.35 1568.49,-721.76"/>
</g>
<!-- Node16&#45;&gt;Node4 -->
<g id="edge20" class="edge">
<title>Node16&#45;&gt;Node4</title>
<path fill="none" stroke="midnightblue" d="M1730.3,-681.24C1953.58,-681.41 2753,-674.78 2753,-571 2753,-571 2753,-571 2753,-289 2753,-177 2748.59,-120.47 2657,-56 2599.24,-15.34 2096.36,-11.32 1954.26,-11"/>
<polygon fill="midnightblue" stroke="midnightblue" points="1953.91,-7.5 1943.9,-10.99 1953.89,-14.5 1953.91,-7.5"/>
</g>
<!-- Node16&#45;&gt;Node8 -->
<g id="edge25" class="edge">
<title>Node16&#45;&gt;Node8</title>
<path fill="none" stroke="midnightblue" d="M1730.2,-678.48C1895.88,-670.5 2373.32,-642.54 2515,-580 2607.52,-539.16 2658,-504.13 2658,-403 2658,-403 2658,-403 2658,-233 2658,-153.74 2600.21,-142.37 2527,-112 2428.32,-71.06 1665.35,-67.3 1468.97,-67.01"/>
<polygon fill="midnightblue" stroke="midnightblue" points="1468.72,-63.51 1458.72,-67 1468.71,-70.51 1468.72,-63.51"/>
</g>
<!-- Node16&#45;&gt;Node13 -->
<g id="edge19" class="edge">
<title>Node16&#45;&gt;Node13</title>
<path fill="none" stroke="midnightblue" d="M1615.81,-680.75C1409.73,-679.55 705.74,-672.79 484,-636 273.61,-601.1 38,-672.26 38,-459 38,-459 38,-459 38,-345 38,-269.31 0,-254.69 0,-179 0,-179 0,-179 0,-121 0,-43.01 86.97,-73.38 163,-56 272.3,-31.01 605.16,-17.52 743.11,-12.88"/>
<polygon fill="midnightblue" stroke="midnightblue" points="743.61,-16.36 753.49,-12.53 743.38,-9.37 743.61,-16.36"/>
</g>
<!-- Node17 -->
<g id="node17" class="node">
<title>Node17</title>
<g id="a_node17"><a xlink:title=" ">
<polygon fill="none" stroke="#bfbfbf" points="2247.5,-112.5 2247.5,-131.5 2308.5,-131.5 2308.5,-112.5 2247.5,-112.5"/>
<text text-anchor="middle" x="2278" y="-119.5" font-family="Helvetica,sans-Serif" font-size="10.00">petscpf.h</text>
</a>
</g>
</g>
<!-- Node16&#45;&gt;Node17 -->
<g id="edge18" class="edge">
<title>Node16&#45;&gt;Node17</title>
<path fill="none" stroke="midnightblue" d="M1687.74,-672.34C1702.93,-663.38 1727.24,-648.91 1748,-636 1865.16,-563.17 1905.02,-558.66 2009,-468 2058.42,-424.92 2063.83,-407.02 2105,-356 2144.24,-307.37 2152.73,-294.16 2190,-244 2217.49,-207 2249.15,-163.16 2265.99,-139.74"/>
<polygon fill="midnightblue" stroke="midnightblue" points="2268.88,-141.72 2271.87,-131.55 2263.19,-137.63 2268.88,-141.72"/>
</g>
<!-- Node18 -->
<g id="node18" class="node">
<title>Node18</title>
<g id="a_node18"><a xlink:title=" ">
<polygon fill="none" stroke="#bfbfbf" points="1590,-112.5 1590,-131.5 1638,-131.5 1638,-112.5 1590,-112.5"/>
<text text-anchor="middle" x="1614" y="-119.5" font-family="Helvetica,sans-Serif" font-size="10.00">time.h</text>
</a>
</g>
</g>
<!-- Node16&#45;&gt;Node18 -->
<g id="edge21" class="edge">
<title>Node16&#45;&gt;Node18</title>
<path fill="none" stroke="midnightblue" d="M1683.4,-672.18C1692.42,-663.87 1704.94,-650.53 1711,-636 1724.03,-604.76 1717.51,-593.82 1716,-560 1714.89,-535.04 1713.88,-528.82 1711,-504 1705.21,-454.05 1705.84,-441.1 1695,-392 1673.83,-296.05 1635.81,-184.52 1620.58,-141.36"/>
<polygon fill="midnightblue" stroke="midnightblue" points="1623.79,-139.95 1617.14,-131.7 1617.2,-142.29 1623.79,-139.95"/>
</g>
<!-- Node19 -->
<g id="node19" class="node">
<title>Node19</title>
<g id="a_node19"><a xlink:title=" ">
<polygon fill="none" stroke="#bfbfbf" points="1060.5,-112.5 1060.5,-131.5 1111.5,-131.5 1111.5,-112.5 1060.5,-112.5"/>
<text text-anchor="middle" x="1086" y="-119.5" font-family="Helvetica,sans-Serif" font-size="10.00">math.h</text>
</a>
</g>
</g>
<!-- Node16&#45;&gt;Node19 -->
<g id="edge22" class="edge">
<title>Node16&#45;&gt;Node19</title>
<path fill="none" stroke="midnightblue" d="M1615.86,-679.68C1440.44,-675.41 911.22,-660.78 741,-636 689.37,-628.48 318.99,-563.58 285,-524 210.45,-437.17 159.14,-318.09 329,-168 387.25,-116.53 934.59,-142.26 1050.06,-131.48"/>
<polygon fill="midnightblue" stroke="midnightblue" points="1050.61,-134.94 1060.13,-130.27 1049.78,-127.99 1050.61,-134.94"/>
</g>
<!-- Node20 -->
<g id="node20" class="node">
<title>Node20</title>
<g id="a_node20"><a xlink:title=" ">
<polygon fill="none" stroke="#bfbfbf" points="1899,-112.5 1899,-131.5 1973,-131.5 1973,-112.5 1899,-112.5"/>
<text text-anchor="middle" x="1936" y="-119.5" font-family="Helvetica,sans-Serif" font-size="10.00">petsctime.h</text>
</a>
</g>
</g>
<!-- Node16&#45;&gt;Node20 -->
<g id="edge23" class="edge">
<title>Node16&#45;&gt;Node20</title>
<path fill="none" stroke="midnightblue" d="M1687.35,-672.23C1699.57,-664.13 1716.87,-651.1 1728,-636 1852.77,-466.71 1916.21,-212.02 1932.01,-141.61"/>
<polygon fill="midnightblue" stroke="midnightblue" points="1935.48,-142.13 1934.2,-131.61 1928.64,-140.62 1935.48,-142.13"/>
</g>
<!-- Node21 -->
<g id="node21" class="node">
<title>Node21</title>
<g id="a_node21"><a xlink:title=" ">
<polygon fill="none" stroke="#bfbfbf" points="2370.5,-112.5 2370.5,-131.5 2489.5,-131.5 2489.5,-112.5 2370.5,-112.5"/>
<text text-anchor="middle" x="2430" y="-119.5" font-family="Helvetica,sans-Serif" font-size="10.00">petscdmcomposite.h</text>
</a>
</g>
</g>
<!-- Node16&#45;&gt;Node21 -->
<g id="edge24" class="edge">
<title>Node16&#45;&gt;Node21</title>
<path fill="none" stroke="midnightblue" d="M1730.01,-680.74C1843.68,-679.43 2094.21,-672.36 2171,-636 2372.11,-540.77 2419.38,-222.09 2428.23,-141.59"/>
<polygon fill="midnightblue" stroke="midnightblue" points="2431.72,-141.81 2429.27,-131.5 2424.76,-141.09 2431.72,-141.81"/>
</g>
<!-- Node22 -->
<g id="node22" class="node">
<title>Node22</title>
<g id="a_node22"><a xlink:href="ParticleSwarm_8h.html" target="_top" xlink:title="Header file for Particle Motion and migration related functions.">
<polygon fill="none" stroke="black" points="579,-560.5 579,-579.5 675,-579.5 675,-560.5 579,-560.5"/>
<text text-anchor="middle" x="627" y="-567.5" font-family="Helvetica,sans-Serif" font-size="10.00">ParticleSwarm.h</text>
</a>
</g>
</g>
<!-- Node16&#45;&gt;Node22 -->
<g id="edge26" class="edge">
<title>Node16&#45;&gt;Node22</title>
<path fill="none" stroke="midnightblue" d="M1615.82,-679.98C1450.63,-676.7 974.81,-664.96 822,-636 761.33,-624.5 693.59,-598.85 656.05,-583.43"/>
<polygon fill="midnightblue" stroke="midnightblue" points="657.31,-580.17 646.74,-579.56 654.63,-586.63 657.31,-580.17"/>
</g>
<!-- Node24 -->
<g id="node24" class="node">
<title>Node24</title>
<g id="a_node24"><a xlink:href="walkingsearch_8h.html" target="_top" xlink:title="Header file for particle location functions using the walking search algorithm.">
<polygon fill="none" stroke="black" points="1016,-224.5 1016,-243.5 1112,-243.5 1112,-224.5 1016,-224.5"/>
<text text-anchor="middle" x="1064" y="-231.5" font-family="Helvetica,sans-Serif" font-size="10.00">walkingsearch.h</text>
</a>
</g>
</g>
<!-- Node16&#45;&gt;Node24 -->
<g id="edge140" class="edge">
<title>Node16&#45;&gt;Node24</title>
<path fill="none" stroke="midnightblue" d="M1615.86,-674.66C1442.94,-654.29 930.26,-585 818,-468 776.28,-424.52 748.92,-382.71 787,-336 837.17,-274.45 888.41,-329.83 962,-300 993.39,-287.28 1025.72,-264.78 1045.34,-249.88"/>
<polygon fill="midnightblue" stroke="midnightblue" points="1047.65,-252.52 1053.41,-243.63 1043.36,-246.99 1047.65,-252.52"/>
</g>
<!-- Node25 -->
<g id="node25" class="node">
<title>Node25</title>
<g id="a_node25"><a xlink:href="setup_8h.html" target="_top" xlink:title=" ">
<polygon fill="none" stroke="black" points="1396.5,-168.5 1396.5,-187.5 1449.5,-187.5 1449.5,-168.5 1396.5,-168.5"/>
<text text-anchor="middle" x="1423" y="-175.5" font-family="Helvetica,sans-Serif" font-size="10.00">setup.h</text>
</a>
</g>
</g>
<!-- Node16&#45;&gt;Node25 -->
<g id="edge144" class="edge">
<title>Node16&#45;&gt;Node25</title>
<path fill="none" stroke="midnightblue" d="M1669.8,-672.22C1671.06,-663.28 1676.03,-648.94 1678,-636 1686.81,-578 1686.5,-562.05 1678,-504 1662.95,-401.18 1667.52,-367.2 1611,-280 1576.28,-226.44 1503.71,-199.87 1459.46,-187.81"/>
<polygon fill="midnightblue" stroke="midnightblue" points="1460.23,-184.39 1449.67,-185.25 1458.46,-191.16 1460.23,-184.39"/>
</g>
<!-- Node27 -->
<g id="node27" class="node">
<title>Node27</title>
<g id="a_node27"><a xlink:href="grid_8h.html" target="_top" xlink:title="Public interface for grid, solver, and metric setup routines.">
<polygon fill="none" stroke="black" points="998,-112.5 998,-131.5 1042,-131.5 1042,-112.5 998,-112.5"/>
<text text-anchor="middle" x="1020" y="-119.5" font-family="Helvetica,sans-Serif" font-size="10.00">grid.h</text>
</a>
</g>
</g>
<!-- Node16&#45;&gt;Node27 -->
<g id="edge141" class="edge">
<title>Node16&#45;&gt;Node27</title>
<path fill="none" stroke="midnightblue" d="M1615.85,-679.86C1426.14,-675.87 818.31,-661.39 624,-636 509.37,-621.02 478.37,-620.23 370,-580 245.98,-533.96 204.85,-484.64 174,-356 150.25,-256.97 213.86,-213.44 305,-168 366.58,-137.3 855.91,-126.05 987.51,-123.56"/>
<polygon fill="midnightblue" stroke="midnightblue" points="987.81,-127.06 997.74,-123.38 987.68,-120.06 987.81,-127.06"/>
</g>
<!-- Node28 -->
<g id="node28" class="node">
<title>Node28</title>
<g id="a_node28"><a xlink:href="io_8h.html" target="_top" xlink:title="Public interface for data input/output routines.">
<polygon fill="none" stroke="black" points="826.5,-448.5 826.5,-467.5 861.5,-467.5 861.5,-448.5 826.5,-448.5"/>
<text text-anchor="middle" x="844" y="-455.5" font-family="Helvetica,sans-Serif" font-size="10.00">io.h</text>
</a>
</g>
</g>
<!-- Node16&#45;&gt;Node28 -->
<g id="edge143" class="edge">
<title>Node16&#45;&gt;Node28</title>
<path fill="none" stroke="midnightblue" d="M1629.79,-672.5C1587.59,-664 1521.63,-650.18 1465,-636 1233.53,-578.04 957.68,-494.1 871.26,-467.45"/>
<polygon fill="midnightblue" stroke="midnightblue" points="872.26,-464.1 861.67,-464.49 870.19,-470.79 872.26,-464.1"/>
</g>
<!-- Node30 -->
<g id="node30" class="node">
<title>Node30</title>
<g id="a_node30"><a xlink:href="interpolation_8h.html" target="_top" xlink:title=" ">
<polygon fill="none" stroke="black" points="2074,-616.5 2074,-635.5 2162,-635.5 2162,-616.5 2074,-616.5"/>
<text text-anchor="middle" x="2118" y="-623.5" font-family="Helvetica,sans-Serif" font-size="10.00">interpolation.h</text>
</a>
</g>
</g>
<!-- Node16&#45;&gt;Node30 -->
<g id="edge145" class="edge">
<title>Node16&#45;&gt;Node30</title>
<path fill="none" stroke="midnightblue" d="M1730.04,-674.25C1803.39,-665.55 1934.71,-649.87 2047,-636 2052.39,-635.33 2058.02,-634.63 2063.64,-633.93"/>
<polygon fill="midnightblue" stroke="midnightblue" points="2064.21,-637.38 2073.69,-632.66 2063.33,-630.44 2064.21,-637.38"/>
</g>
<!-- Node22&#45;&gt;Node2 -->
<g id="edge32" class="edge">
<title>Node22&#45;&gt;Node2</title>
<path fill="none" stroke="midnightblue" d="M632.3,-579.84C646.93,-603.25 690.45,-666.83 746,-692 814.1,-722.85 1339.3,-733.82 1491.68,-736.37"/>
<polygon fill="midnightblue" stroke="midnightblue" points="1491.94,-739.88 1502,-736.54 1492.06,-732.88 1491.94,-739.88"/>
</g>
<!-- Node22&#45;&gt;Node3 -->
<g id="edge27" class="edge">
<title>Node22&#45;&gt;Node3</title>
<path fill="none" stroke="midnightblue" d="M583.13,-560.45C512.15,-543.77 380,-499.75 380,-403 380,-403 380,-403 380,-289 380,-256.63 373.13,-219.44 368.39,-197.66"/>
<polygon fill="midnightblue" stroke="midnightblue" points="371.78,-196.76 366.16,-187.78 364.95,-198.3 371.78,-196.76"/>
</g>
<!-- Node22&#45;&gt;Node8 -->
<g id="edge31" class="edge">
<title>Node22&#45;&gt;Node8</title>
<path fill="none" stroke="midnightblue" d="M596.61,-560.47C538.64,-542.13 418,-493.13 418,-403 418,-403 418,-403 418,-177 418,-79.14 1180.67,-68.3 1377.23,-67.13"/>
<polygon fill="midnightblue" stroke="midnightblue" points="1377.25,-70.63 1387.23,-67.08 1377.21,-63.63 1377.25,-70.63"/>
</g>
<!-- Node22&#45;&gt;Node13 -->
<g id="edge28" class="edge">
<title>Node22&#45;&gt;Node13</title>
<path fill="none" stroke="midnightblue" d="M578.59,-569.55C444.13,-569.77 76,-561.06 76,-459 76,-459 76,-459 76,-121 76,-53.72 568.48,-22.7 743.32,-13.81"/>
<polygon fill="midnightblue" stroke="midnightblue" points="743.57,-17.3 753.39,-13.3 743.22,-10.31 743.57,-17.3"/>
</g>
<!-- Node22&#45;&gt;Node19 -->
<g id="edge30" class="edge">
<title>Node22&#45;&gt;Node19</title>
<path fill="none" stroke="midnightblue" d="M622.83,-560.27C618.79,-551.37 612.87,-537.05 610,-524 597.41,-466.69 601.28,-450.29 608,-392 621.16,-277.87 636.55,-223.76 737,-168 856.94,-101.42 910.35,-154.92 1050.25,-131.8"/>
<polygon fill="midnightblue" stroke="midnightblue" points="1051.23,-135.18 1060.48,-130 1050.02,-128.28 1051.23,-135.18"/>
</g>
<!-- Node23 -->
<g id="node23" class="node">
<title>Node23</title>
<g id="a_node23"><a xlink:title=" ">
<polygon fill="none" stroke="#bfbfbf" points="767,-168.5 767,-187.5 829,-187.5 829,-168.5 767,-168.5"/>
<text text-anchor="middle" x="798" y="-175.5" font-family="Helvetica,sans-Serif" font-size="10.00">stdbool.h</text>
</a>
</g>
</g>
<!-- Node22&#45;&gt;Node23 -->
<g id="edge29" class="edge">
<title>Node22&#45;&gt;Node23</title>
<path fill="none" stroke="midnightblue" d="M624.83,-560.43C617.28,-528.81 594.56,-416.32 631,-336 661.47,-268.85 735.32,-216.66 773.79,-192.95"/>
<polygon fill="midnightblue" stroke="midnightblue" points="776.01,-195.7 782.76,-187.54 772.39,-189.7 776.01,-195.7"/>
</g>
<!-- Node22&#45;&gt;Node24 -->
<g id="edge33" class="edge">
<title>Node22&#45;&gt;Node24</title>
<path fill="none" stroke="midnightblue" d="M626.96,-560.37C627.26,-533.07 631.38,-447.19 670,-392 739.32,-292.94 811.36,-338.41 926,-300 947.94,-292.65 1004.23,-265.05 1037.75,-248.27"/>
<polygon fill="midnightblue" stroke="midnightblue" points="1039.59,-251.26 1046.96,-243.64 1036.45,-245 1039.59,-251.26"/>
</g>
<!-- Node22&#45;&gt;Node28 -->
<g id="edge139" class="edge">
<title>Node22&#45;&gt;Node28</title>
<path fill="none" stroke="midnightblue" d="M635.7,-560.23C649.76,-546.49 678.85,-519.84 708,-504 743.26,-484.83 788.11,-471.95 816.45,-465.04"/>
<polygon fill="midnightblue" stroke="midnightblue" points="817.52,-468.39 826.45,-462.69 815.91,-461.57 817.52,-468.39"/>
</g>
<!-- Node35 -->
<g id="node35" class="node">
<title>Node35</title>
<g id="a_node35"><a xlink:href="Metric_8h.html" target="_top" xlink:title=" ">
<polygon fill="none" stroke="black" points="294,-504.5 294,-523.5 350,-523.5 350,-504.5 294,-504.5"/>
<text text-anchor="middle" x="322" y="-511.5" font-family="Helvetica,sans-Serif" font-size="10.00">Metric.h</text>
</a>
</g>
</g>
<!-- Node22&#45;&gt;Node35 -->
<g id="edge132" class="edge">
<title>Node22&#45;&gt;Node35</title>
<path fill="none" stroke="midnightblue" d="M578.67,-560.44C518.08,-549.72 415.45,-531.54 360.1,-521.75"/>
<polygon fill="midnightblue" stroke="midnightblue" points="360.47,-518.26 350.01,-519.96 359.25,-525.15 360.47,-518.26"/>
</g>
<!-- Node24&#45;&gt;Node2 -->
<g id="edge38" class="edge">
<title>Node24&#45;&gt;Node2</title>
<path fill="none" stroke="midnightblue" d="M1032.44,-243.53C1004.08,-251.61 961.55,-264.74 926,-280 908.82,-287.37 906.62,-293.75 889,-300 807.59,-328.88 771.84,-291.18 698,-336 593.32,-399.54 516.76,-469.72 570,-580 604.79,-652.07 636.18,-663.58 711,-692 784.22,-719.81 1334.78,-732.99 1491.49,-736.2"/>
<polygon fill="midnightblue" stroke="midnightblue" points="1491.59,-739.7 1501.66,-736.41 1491.73,-732.71 1491.59,-739.7"/>
</g>
<!-- Node24&#45;&gt;Node3 -->
<g id="edge34" class="edge">
<title>Node24&#45;&gt;Node3</title>
<path fill="none" stroke="midnightblue" d="M1015.89,-229.29C883.79,-219.1 517.58,-190.85 400.49,-181.82"/>
<polygon fill="midnightblue" stroke="midnightblue" points="400.51,-178.31 390.27,-181.03 399.97,-185.29 400.51,-178.31"/>
</g>
<!-- Node24&#45;&gt;Node8 -->
<g id="edge37" class="edge">
<title>Node24&#45;&gt;Node8</title>
<path fill="none" stroke="midnightblue" d="M1068.4,-224.18C1080.28,-201.36 1115.45,-140.19 1164,-112 1199.42,-91.43 1312.51,-77.58 1376.93,-71.14"/>
<polygon fill="midnightblue" stroke="midnightblue" points="1377.61,-74.59 1387.22,-70.14 1376.93,-67.63 1377.61,-74.59"/>
</g>
<!-- Node24&#45;&gt;Node19 -->
<g id="edge36" class="edge">
<title>Node24&#45;&gt;Node19</title>
<path fill="none" stroke="midnightblue" d="M1065.73,-224.37C1069.28,-206.62 1077.47,-165.67 1082.28,-141.6"/>
<polygon fill="midnightblue" stroke="midnightblue" points="1085.75,-142.08 1084.28,-131.59 1078.89,-140.71 1085.75,-142.08"/>
</g>
<!-- Node24&#45;&gt;Node23 -->
<g id="edge35" class="edge">
<title>Node24&#45;&gt;Node23</title>
<path fill="none" stroke="midnightblue" d="M1021.85,-224.44C971.8,-214.28 888.85,-197.44 839.21,-187.37"/>
<polygon fill="midnightblue" stroke="midnightblue" points="839.64,-183.88 829.15,-185.32 838.25,-190.74 839.64,-183.88"/>
</g>
<!-- Node24&#45;&gt;Node25 -->
<g id="edge39" class="edge">
<title>Node24&#45;&gt;Node25</title>
<path fill="none" stroke="midnightblue" d="M1112.02,-225.03C1184.56,-213.72 1320.32,-193.34 1385.87,-183.97"/>
<polygon fill="midnightblue" stroke="midnightblue" points="1386.73,-187.38 1396.14,-182.51 1385.75,-180.45 1386.73,-187.38"/>
</g>
<!-- Node25&#45;&gt;Node2 -->
<g id="edge126" class="edge">
<title>Node25&#45;&gt;Node2</title>
<path fill="none" stroke="midnightblue" d="M1449.57,-180.43C1514.32,-184.23 1685.16,-196.3 1825,-224 2147.49,-287.89 2344.5,-262.3 2484,-560 2564.25,-731.26 1767.08,-738.18 1574.36,-737.37"/>
<polygon fill="midnightblue" stroke="midnightblue" points="1574.11,-733.86 1564.09,-737.31 1574.07,-740.86 1574.11,-733.86"/>
</g>
<!-- Node25&#45;&gt;Node4 -->
<g id="edge42" class="edge">
<title>Node25&#45;&gt;Node4</title>
<path fill="none" stroke="midnightblue" d="M1426.33,-168.37C1435.66,-145.45 1464.51,-83 1511,-56 1573.32,-19.81 1792.58,-12.72 1880.31,-11.33"/>
<polygon fill="midnightblue" stroke="midnightblue" points="1880.39,-14.83 1890.34,-11.19 1880.29,-7.83 1880.39,-14.83"/>
</g>
<!-- Node25&#45;&gt;Node6 -->
<g id="edge46" class="edge">
<title>Node25&#45;&gt;Node6</title>
<path fill="none" stroke="midnightblue" d="M1449.65,-171.97C1498.94,-162.66 1604.78,-142.68 1664.91,-131.33"/>
<polygon fill="midnightblue" stroke="midnightblue" points="1665.68,-134.74 1674.86,-129.45 1664.39,-127.86 1665.68,-134.74"/>
</g>
<!-- Node25&#45;&gt;Node8 -->
<g id="edge49" class="edge">
<title>Node25&#45;&gt;Node8</title>
<path fill="none" stroke="midnightblue" d="M1423,-168.37C1423,-150.62 1423,-109.67 1423,-85.6"/>
<polygon fill="midnightblue" stroke="midnightblue" points="1426.5,-85.59 1423,-75.59 1419.5,-85.59 1426.5,-85.59"/>
</g>
<!-- Node25&#45;&gt;Node13 -->
<g id="edge41" class="edge">
<title>Node25&#45;&gt;Node13</title>
<path fill="none" stroke="midnightblue" d="M1419.71,-168.3C1410.47,-145.22 1381.84,-82.4 1335,-56 1294.88,-33.39 995.96,-18.73 865.08,-13.33"/>
<polygon fill="midnightblue" stroke="midnightblue" points="864.95,-9.82 854.82,-12.91 864.67,-16.82 864.95,-9.82"/>
</g>
<!-- Node25&#45;&gt;Node16 -->
<g id="edge129" class="edge">
<title>Node25&#45;&gt;Node16</title>
<path fill="none" stroke="midnightblue" d="M1449.66,-182.83C1495.75,-191.56 1588.34,-217.27 1629,-280 1685.52,-367.2 1680.95,-401.18 1696,-504 1704.5,-562.05 1704.81,-578 1696,-636 1694.6,-645.2 1691.68,-655.11 1688.08,-663.28"/>
<polygon fill="midnightblue" stroke="midnightblue" points="1684.94,-661.74 1683.4,-672.22 1691.14,-664.98 1684.94,-661.74"/>
</g>
<!-- Node25&#45;&gt;Node17 -->
<g id="edge40" class="edge">
<title>Node25&#45;&gt;Node17</title>
<path fill="none" stroke="midnightblue" d="M1449.53,-175.32C1572.57,-167.55 2088.02,-135 2237.32,-125.57"/>
<polygon fill="midnightblue" stroke="midnightblue" points="2237.67,-129.05 2247.42,-124.93 2237.22,-122.07 2237.67,-129.05"/>
</g>
<!-- Node25&#45;&gt;Node18 -->
<g id="edge43" class="edge">
<title>Node25&#45;&gt;Node18</title>
<path fill="none" stroke="midnightblue" d="M1449.56,-169.49C1483.57,-159.88 1542.56,-143.2 1579.87,-132.65"/>
<polygon fill="midnightblue" stroke="midnightblue" points="1581.11,-135.94 1589.78,-129.85 1579.2,-129.2 1581.11,-135.94"/>
</g>
<!-- Node25&#45;&gt;Node19 -->
<g id="edge44" class="edge">
<title>Node25&#45;&gt;Node19</title>
<path fill="none" stroke="midnightblue" d="M1396.27,-172.72C1336.13,-163.08 1190.09,-139.68 1122.03,-128.77"/>
<polygon fill="midnightblue" stroke="midnightblue" points="1122.23,-125.26 1111.8,-127.13 1121.12,-132.17 1122.23,-125.26"/>
</g>
<!-- Node25&#45;&gt;Node20 -->
<g id="edge45" class="edge">
<title>Node25&#45;&gt;Node20</title>
<path fill="none" stroke="midnightblue" d="M1449.5,-174.21C1531.7,-165.56 1783.17,-139.09 1888.65,-127.98"/>
<polygon fill="midnightblue" stroke="midnightblue" points="1889.11,-131.46 1898.69,-126.93 1888.38,-124.49 1889.11,-131.46"/>
</g>
<!-- Node25&#45;&gt;Node21 -->
<g id="edge47" class="edge">
<title>Node25&#45;&gt;Node21</title>
<path fill="none" stroke="midnightblue" d="M1449.74,-175.95C1558.13,-171.62 1975.29,-154.38 2318,-132 2331.71,-131.1 2346.34,-130.02 2360.37,-128.92"/>
<polygon fill="midnightblue" stroke="midnightblue" points="2360.75,-132.4 2370.45,-128.12 2360.2,-125.42 2360.75,-132.4"/>
</g>
<!-- Node25&#45;&gt;Node22 -->
<g id="edge50" class="edge">
<title>Node25&#45;&gt;Node22</title>
<path fill="none" stroke="midnightblue" d="M1445.55,-187.51C1506.14,-211.62 1664.1,-283.33 1607,-356 1491.34,-503.2 878.48,-553.4 685.34,-565.69"/>
<polygon fill="midnightblue" stroke="midnightblue" points="684.88,-562.21 675.12,-566.33 685.31,-569.2 684.88,-562.21"/>
</g>
<!-- Node25&#45;&gt;Node24 -->
<g id="edge51" class="edge">
<title>Node25&#45;&gt;Node24</title>
<path fill="none" stroke="midnightblue" d="M1396.19,-183.63C1338.38,-192.83 1201.4,-213.48 1122.52,-224.95"/>
<polygon fill="midnightblue" stroke="midnightblue" points="1121.66,-221.53 1112.26,-226.43 1122.66,-228.46 1121.66,-221.53"/>
</g>
<!-- Node26 -->
<g id="node26" class="node">
<title>Node26</title>
<g id="a_node26"><a xlink:title=" ">
<polygon fill="none" stroke="#bfbfbf" points="1206.5,-112.5 1206.5,-131.5 1301.5,-131.5 1301.5,-112.5 1206.5,-112.5"/>
<text text-anchor="middle" x="1254" y="-119.5" font-family="Helvetica,sans-Serif" font-size="10.00">petscsystypes.h</text>
</a>
</g>
</g>
<!-- Node25&#45;&gt;Node26 -->
<g id="edge48" class="edge">
<title>Node25&#45;&gt;Node26</title>
<path fill="none" stroke="midnightblue" d="M1396.22,-168.44C1367.67,-159.32 1322.27,-144.81 1290.46,-134.65"/>
<polygon fill="midnightblue" stroke="midnightblue" points="1291.24,-131.23 1280.65,-131.52 1289.11,-137.89 1291.24,-131.23"/>
</g>
<!-- Node25&#45;&gt;Node27 -->
<g id="edge52" class="edge">
<title>Node25&#45;&gt;Node27</title>
<path fill="none" stroke="midnightblue" d="M1396.3,-175.49C1335.24,-171.42 1181.8,-158.82 1051.11,-133.57"/>
<polygon fill="midnightblue" stroke="midnightblue" points="1051.43,-130.07 1040.95,-131.57 1050.08,-136.94 1051.43,-130.07"/>
</g>
<!-- Node25&#45;&gt;Node28 -->
<g id="edge127" class="edge">
<title>Node25&#45;&gt;Node28</title>
<path fill="none" stroke="midnightblue" d="M1396.42,-185.21C1365.98,-192.72 1314.92,-206.55 1273,-224 1110.01,-291.86 928.23,-403.55 866.15,-442.82"/>
<polygon fill="midnightblue" stroke="midnightblue" points="864.12,-439.96 857.56,-448.28 867.87,-445.87 864.12,-439.96"/>
</g>
<!-- Node25&#45;&gt;Node29 -->
<g id="edge131" class="edge">
<title>Node25&#45;&gt;Node29</title>
<path fill="none" stroke="midnightblue" d="M1396.4,-185.88C1355.86,-197.81 1279.19,-226.39 1240,-280 1217.64,-310.59 1214.73,-356.68 1215.06,-382.25"/>
<polygon fill="midnightblue" stroke="midnightblue" points="1211.56,-382.53 1215.38,-392.42 1218.56,-382.31 1211.56,-382.53"/>
</g>
<!-- Node25&#45;&gt;Node30 -->
<g id="edge128" class="edge">
<title>Node25&#45;&gt;Node30</title>
<path fill="none" stroke="midnightblue" d="M1449.51,-181.11C1560.87,-191.04 1987.16,-236.99 2067,-336 2133.55,-418.53 2131.72,-556.41 2123.82,-606.28"/>
<polygon fill="midnightblue" stroke="midnightblue" points="2120.35,-605.78 2121.89,-616.27 2127.23,-607.11 2120.35,-605.78"/>
</g>
<!-- Node32 -->
<g id="node32" class="node">
<title>Node32</title>
<g id="a_node32"><a xlink:href="ParticleMotion_8h.html" target="_top" xlink:title=" ">
<polygon fill="none" stroke="black" points="750,-280.5 750,-299.5 846,-299.5 846,-280.5 750,-280.5"/>
<text text-anchor="middle" x="798" y="-287.5" font-family="Helvetica,sans-Serif" font-size="10.00">ParticleMotion.h</text>
</a>
</g>
</g>
<!-- Node25&#45;&gt;Node32 -->
<g id="edge130" class="edge">
<title>Node25&#45;&gt;Node32</title>
<path fill="none" stroke="midnightblue" d="M1396.23,-181.22C1305.79,-188.78 1014.97,-213.65 974,-224 951.59,-229.66 947.58,-235.72 926,-244 894.94,-255.92 859.18,-268.39 833.37,-277.17"/>
<polygon fill="midnightblue" stroke="midnightblue" points="832,-273.94 823.66,-280.46 834.25,-280.57 832,-273.94"/>
</g>
<!-- Node27&#45;&gt;Node2 -->
<g id="edge54" class="edge">
<title>Node27&#45;&gt;Node2</title>
<path fill="none" stroke="midnightblue" d="M997.89,-123C888.76,-123.2 406.99,-126.44 264,-168 173.51,-194.3 0,-259.89 0,-345 0,-627 0,-627 0,-627 0,-726.4 115.94,-675.72 214,-692 468.69,-734.28 1297.08,-736.99 1491.77,-737.04"/>
<polygon fill="midnightblue" stroke="midnightblue" points="1491.86,-740.54 1501.86,-737.04 1491.86,-733.54 1491.86,-740.54"/>
</g>
<!-- Node27&#45;&gt;Node8 -->
<g id="edge53" class="edge">
<title>Node27&#45;&gt;Node8</title>
<path fill="none" stroke="midnightblue" d="M1042.27,-114.26C1045.52,-113.42 1048.83,-112.63 1052,-112 1167.89,-88.82 1306.68,-75.84 1377.12,-70.29"/>
<polygon fill="midnightblue" stroke="midnightblue" points="1377.72,-73.75 1387.42,-69.49 1377.18,-66.77 1377.72,-73.75"/>
</g>
<!-- Node27&#45;&gt;Node25 -->
<g id="edge125" class="edge">
<title>Node27&#45;&gt;Node25</title>
<path fill="none" stroke="midnightblue" d="M1042.27,-127.41C1048.48,-129.05 1055,-130.8 1061,-132 1178.82,-155.57 1320.33,-168.59 1386.18,-173.99"/>
<polygon fill="midnightblue" stroke="midnightblue" points="1386.21,-177.5 1396.46,-174.82 1386.78,-170.52 1386.21,-177.5"/>
</g>
<!-- Node27&#45;&gt;Node28 -->
<g id="edge55" class="edge">
<title>Node27&#45;&gt;Node28</title>
<path fill="none" stroke="midnightblue" d="M997.7,-124.06C935.6,-127.37 762.06,-139.03 714,-168 661.16,-199.85 651.17,-221.36 632,-280 601.8,-372.38 752.36,-429.44 816.34,-449.19"/>
<polygon fill="midnightblue" stroke="midnightblue" points="815.59,-452.62 826.18,-452.15 817.61,-445.92 815.59,-452.62"/>
</g>
<!-- Node28&#45;&gt;Node2 -->
<g id="edge57" class="edge">
<title>Node28&#45;&gt;Node2</title>
<path fill="none" stroke="midnightblue" d="M837.6,-467.61C824.96,-485.5 798,-528.43 798,-569 798,-627 798,-627 798,-627 798,-697.71 1336.94,-727.98 1491.83,-735.22"/>
<polygon fill="midnightblue" stroke="midnightblue" points="1491.74,-738.72 1501.89,-735.68 1492.06,-731.73 1491.74,-738.72"/>
</g>
<!-- Node28&#45;&gt;Node8 -->
<g id="edge56" class="edge">
<title>Node28&#45;&gt;Node8</title>
<path fill="none" stroke="midnightblue" d="M833.5,-448.33C807.65,-426.39 740.61,-365.7 707,-300 680.25,-247.7 670.24,-207.19 714,-168 812.49,-79.79 1236.67,-68.44 1377.42,-67.12"/>
<polygon fill="midnightblue" stroke="midnightblue" points="1377.47,-70.62 1387.45,-67.04 1377.42,-63.62 1377.47,-70.62"/>
</g>
<!-- Node28&#45;&gt;Node29 -->
<g id="edge58" class="edge">
<title>Node28&#45;&gt;Node29</title>
<path fill="none" stroke="midnightblue" d="M861.83,-449.16C863.57,-448.74 865.3,-448.35 867,-448 971.98,-426.4 1097.43,-412.93 1165.79,-406.83"/>
<polygon fill="midnightblue" stroke="midnightblue" points="1166.2,-410.31 1175.86,-405.95 1165.59,-403.34 1166.2,-410.31"/>
</g>
<!-- Node29&#45;&gt;Node2 -->
<g id="edge72" class="edge">
<title>Node29&#45;&gt;Node2</title>
<path fill="none" stroke="midnightblue" d="M1235.56,-411.6C1264.46,-427.94 1314,-466.08 1314,-513 1314,-627 1314,-627 1314,-627 1314,-706.52 1427.88,-728.58 1491.5,-734.68"/>
<polygon fill="midnightblue" stroke="midnightblue" points="1491.37,-738.18 1501.63,-735.56 1491.97,-731.21 1491.37,-738.18"/>
</g>
<!-- Node29&#45;&gt;Node4 -->
<g id="edge61" class="edge">
<title>Node29&#45;&gt;Node4</title>
<path fill="none" stroke="midnightblue" d="M1222.42,-392.32C1231.94,-379.6 1250.57,-355.31 1268,-336 1291.8,-309.64 1297.9,-302.95 1325,-280 1357.29,-252.65 1366.93,-247.68 1402,-224 1406.86,-220.72 1575.66,-114.42 1581,-112 1685.32,-64.72 1817.66,-32.4 1880.58,-18.58"/>
<polygon fill="midnightblue" stroke="midnightblue" points="1881.4,-21.98 1890.43,-16.44 1879.91,-15.14 1881.4,-21.98"/>
</g>
<!-- Node29&#45;&gt;Node6 -->
<g id="edge65" class="edge">
<title>Node29&#45;&gt;Node6</title>
<path fill="none" stroke="midnightblue" d="M1231.3,-392.38C1302.1,-352.45 1598.29,-185.43 1685.03,-136.51"/>
<polygon fill="midnightblue" stroke="midnightblue" points="1686.89,-139.48 1693.88,-131.52 1683.45,-133.39 1686.89,-139.48"/>
</g>
<!-- Node29&#45;&gt;Node8 -->
<g id="edge68" class="edge">
<title>Node29&#45;&gt;Node8</title>
<path fill="none" stroke="midnightblue" d="M1211.76,-392.41C1193.63,-354.34 1126.77,-198.89 1198,-112 1220.22,-84.9 1318.17,-73.79 1377.26,-69.5"/>
<polygon fill="midnightblue" stroke="midnightblue" points="1377.73,-72.98 1387.46,-68.8 1377.24,-65.99 1377.73,-72.98"/>
</g>
<!-- Node29&#45;&gt;Node13 -->
<g id="edge60" class="edge">
<title>Node29&#45;&gt;Node13</title>
<path fill="none" stroke="midnightblue" d="M1175.85,-399.68C1118.73,-396.73 1011.45,-387.13 926,-356 909.89,-350.13 909,-342.17 893,-336 814.44,-305.71 767.63,-358.43 707,-300 626.31,-222.23 745.47,-75.39 789.07,-26.95"/>
<polygon fill="midnightblue" stroke="midnightblue" points="791.66,-29.3 795.83,-19.56 786.5,-24.58 791.66,-29.3"/>
</g>
<!-- Node29&#45;&gt;Node16 -->
<g id="edge91" class="edge">
<title>Node29&#45;&gt;Node16</title>
<path fill="none" stroke="midnightblue" d="M1241.6,-411.53C1264.76,-419.66 1299.5,-432.87 1328,-448 1459.89,-518.01 1603.59,-626.77 1654.15,-666.14"/>
<polygon fill="midnightblue" stroke="midnightblue" points="1652.19,-669.05 1662.22,-672.46 1656.5,-663.54 1652.19,-669.05"/>
</g>
<!-- Node29&#45;&gt;Node17 -->
<g id="edge59" class="edge">
<title>Node29&#45;&gt;Node17</title>
<path fill="none" stroke="midnightblue" d="M1256.25,-398.28C1327.45,-393.06 1480.09,-379.94 1607,-356 1793.05,-320.91 1837.49,-301.12 2018,-244 2089.43,-221.4 2109.71,-220.94 2177,-188 2206.88,-173.37 2238.75,-151.73 2258.52,-137.49"/>
<polygon fill="midnightblue" stroke="midnightblue" points="2260.69,-140.25 2266.7,-131.53 2256.56,-134.59 2260.69,-140.25"/>
</g>
<!-- Node29&#45;&gt;Node18 -->
<g id="edge62" class="edge">
<title>Node29&#45;&gt;Node18</title>
<path fill="none" stroke="midnightblue" d="M1226,-392.4C1236.48,-383.37 1253.44,-368.73 1268,-356 1306.4,-322.42 1312.89,-310.2 1354,-280 1435.51,-220.13 1540.81,-161.85 1588.52,-136.38"/>
<polygon fill="midnightblue" stroke="midnightblue" points="1590.34,-139.37 1597.53,-131.59 1587.05,-133.19 1590.34,-139.37"/>
</g>
<!-- Node29&#45;&gt;Node19 -->
<g id="edge63" class="edge">
<title>Node29&#45;&gt;Node19</title>
<path fill="none" stroke="midnightblue" d="M1175.65,-395.92C1131.93,-389.64 1060.58,-377.11 1002,-356 984.04,-349.53 982.1,-342.04 964,-336 916.39,-320.1 773.54,-338.22 741,-300 728.6,-285.44 699.78,-224.59 758,-168 803.02,-124.24 971.19,-142.44 1050.37,-131.61"/>
<polygon fill="midnightblue" stroke="midnightblue" points="1051.16,-135.03 1060.47,-129.97 1050.04,-128.12 1051.16,-135.03"/>
</g>
<!-- Node29&#45;&gt;Node20 -->
<g id="edge64" class="edge">
<title>Node29&#45;&gt;Node20</title>
<path fill="none" stroke="midnightblue" d="M1238.34,-392.38C1342.69,-352.08 1782.23,-182.37 1904.39,-135.21"/>
<polygon fill="midnightblue" stroke="midnightblue" points="1905.85,-138.39 1913.92,-131.52 1903.33,-131.86 1905.85,-138.39"/>
</g>
<!-- Node29&#45;&gt;Node21 -->
<g id="edge66" class="edge">
<title>Node29&#45;&gt;Node21</title>
<path fill="none" stroke="midnightblue" d="M1256.27,-399.05C1335.72,-394.75 1518.01,-382.65 1669,-356 1944.24,-307.43 2011.45,-281.05 2275,-188 2320.44,-171.96 2371.75,-149.57 2402.45,-135.69"/>
<polygon fill="midnightblue" stroke="midnightblue" points="2404.01,-138.83 2411.66,-131.51 2401.11,-132.46 2404.01,-138.83"/>
</g>
<!-- Node29&#45;&gt;Node22 -->
<g id="edge69" class="edge">
<title>Node29&#45;&gt;Node22</title>
<path fill="none" stroke="midnightblue" d="M1185.75,-411.52C1087.67,-439.17 778.36,-526.34 667.24,-557.66"/>
<polygon fill="midnightblue" stroke="midnightblue" points="666.1,-554.34 657.43,-560.42 668,-561.08 666.1,-554.34"/>
</g>
<!-- Node29&#45;&gt;Node24 -->
<g id="edge70" class="edge">
<title>Node29&#45;&gt;Node24</title>
<path fill="none" stroke="midnightblue" d="M1190.66,-392.37C1171.4,-384.91 1145.06,-372.69 1126,-356 1094.14,-328.11 1076.49,-279.9 1068.78,-253.54"/>
<polygon fill="midnightblue" stroke="midnightblue" points="1072.1,-252.41 1066.07,-243.7 1065.35,-254.27 1072.1,-252.41"/>
</g>
<!-- Node29&#45;&gt;Node26 -->
<g id="edge67" class="edge">
<title>Node29&#45;&gt;Node26</title>
<path fill="none" stroke="midnightblue" d="M1214.57,-392.15C1212.74,-379.63 1210.04,-356.03 1212,-336 1219.1,-263.25 1239.55,-178.48 1249.04,-141.66"/>
<polygon fill="midnightblue" stroke="midnightblue" points="1252.47,-142.4 1251.61,-131.84 1245.7,-140.63 1252.47,-142.4"/>
</g>
<!-- Node29&#45;&gt;Node27 -->
<g id="edge71" class="edge">
<title>Node29&#45;&gt;Node27</title>
<path fill="none" stroke="midnightblue" d="M1175.76,-397.66C1125.2,-392.6 1036.3,-380.81 964,-356 945.95,-349.8 944.05,-342.21 926,-336 840.59,-306.62 788.7,-365.01 726,-300 685.13,-257.63 692,-205.96 737,-168 774.37,-136.48 921.19,-126.83 987.36,-124.05"/>
<polygon fill="midnightblue" stroke="midnightblue" points="987.77,-127.54 997.62,-123.65 987.49,-120.55 987.77,-127.54"/>
</g>
<!-- Node29&#45;&gt;Node28 -->
<g id="edge73" class="edge">
<title>Node29&#45;&gt;Node28</title>
<path fill="none" stroke="midnightblue" d="M1175.96,-406.99C1113.33,-413.16 989.1,-426.59 885,-448 880.69,-448.89 876.1,-450.05 871.55,-451.23"/>
<polygon fill="midnightblue" stroke="midnightblue" points="870.55,-447.88 861.76,-453.79 872.32,-454.65 870.55,-447.88"/>
</g>
<!-- Node29&#45;&gt;Node30 -->
<g id="edge74" class="edge">
<title>Node29&#45;&gt;Node30</title>
<path fill="none" stroke="midnightblue" d="M1256.02,-408.11C1306.9,-415.04 1397.26,-428.8 1473,-448 1652.01,-493.39 1688.08,-534.25 1867,-580 1933.81,-597.08 2012.25,-610.04 2063.42,-617.56"/>
<polygon fill="midnightblue" stroke="midnightblue" points="2063.2,-621.07 2073.6,-619.04 2064.21,-614.14 2063.2,-621.07"/>
</g>
<!-- Node29&#45;&gt;Node32 -->
<g id="edge92" class="edge">
<title>Node29&#45;&gt;Node32</title>
<path fill="none" stroke="midnightblue" d="M1190.16,-392.44C1150.12,-379.34 1070.55,-353.94 1002,-336 951.11,-322.68 892.4,-310.01 851.07,-301.53"/>
<polygon fill="midnightblue" stroke="midnightblue" points="851.71,-298.09 841.21,-299.52 850.31,-304.94 851.71,-298.09"/>
</g>
<!-- Node33 -->
<g id="node33" class="node">
<title>Node33</title>
<g id="a_node33"><a xlink:href="BC__Handlers_8h.html" target="_top" xlink:title=" ">
<polygon fill="none" stroke="black" points="796,-336.5 796,-355.5 884,-355.5 884,-336.5 796,-336.5"/>
<text text-anchor="middle" x="840" y="-343.5" font-family="Helvetica,sans-Serif" font-size="10.00">BC_Handlers.h</text>
</a>
</g>
</g>
<!-- Node29&#45;&gt;Node33 -->
<g id="edge101" class="edge">
<title>Node29&#45;&gt;Node33</title>
<path fill="none" stroke="midnightblue" d="M1175.64,-396.22C1115.56,-388.42 999.42,-372.31 894.24,-356.77"/>
<polygon fill="midnightblue" stroke="midnightblue" points="894.5,-353.27 884.1,-355.27 893.48,-360.2 894.5,-353.27"/>
</g>
<!-- Node34 -->
<g id="node34" class="node">
<title>Node34</title>
<g id="a_node34"><a xlink:href="wallfunction_8h.html" target="_top" xlink:title=" ">
<polygon fill="none" stroke="black" points="1512,-336.5 1512,-355.5 1598,-355.5 1598,-336.5 1512,-336.5"/>
<text text-anchor="middle" x="1555" y="-343.5" font-family="Helvetica,sans-Serif" font-size="10.00">wallfunction.h</text>
</a>
</g>
</g>
<!-- Node29&#45;&gt;Node34 -->
<g id="edge105" class="edge">
<title>Node29&#45;&gt;Node34</title>
<path fill="none" stroke="midnightblue" d="M1256.26,-393.83C1317.46,-383.66 1433.7,-365.14 1501.79,-354.7"/>
<polygon fill="midnightblue" stroke="midnightblue" points="1502.52,-358.13 1511.88,-353.15 1501.47,-351.21 1502.52,-358.13"/>
</g>
<!-- Node30&#45;&gt;Node2 -->
<g id="edge88" class="edge">
<title>Node30&#45;&gt;Node2</title>
<path fill="none" stroke="midnightblue" d="M2074,-635.27C1964.41,-655.88 1680.46,-709.27 1574.06,-729.28"/>
<polygon fill="midnightblue" stroke="midnightblue" points="1573.22,-725.88 1564.04,-731.16 1574.51,-732.76 1573.22,-725.88"/>
</g>
<!-- Node30&#45;&gt;Node4 -->
<g id="edge77" class="edge">
<title>Node30&#45;&gt;Node4</title>
<path fill="none" stroke="midnightblue" d="M2162.06,-622.79C2251.52,-617.86 2451.37,-604.41 2515,-580 2595.03,-549.3 2632.76,-544.2 2672,-468 2733.05,-349.46 2693.71,-299.55 2672,-168 2663.44,-116.14 2675.74,-87.94 2634,-56 2579.7,-14.45 2092.33,-11.06 1953.66,-10.95"/>
<polygon fill="midnightblue" stroke="midnightblue" points="1953.55,-7.45 1943.54,-10.94 1953.54,-14.45 1953.55,-7.45"/>
</g>
<!-- Node30&#45;&gt;Node6 -->
<g id="edge83" class="edge">
<title>Node30&#45;&gt;Node6</title>
<path fill="none" stroke="midnightblue" d="M2139.91,-616.35C2157.84,-608.58 2183.21,-595.95 2202,-580 2225.92,-559.69 2232.58,-552.82 2245,-524 2288.24,-423.72 2288.39,-361.77 2216,-280 2093.72,-141.87 1852.61,-123.77 1753.33,-122.44"/>
<polygon fill="midnightblue" stroke="midnightblue" points="1753.08,-118.94 1743.05,-122.36 1753.02,-125.94 1753.08,-118.94"/>
</g>
<!-- Node30&#45;&gt;Node8 -->
<g id="edge84" class="edge">
<title>Node30&#45;&gt;Node8</title>
<path fill="none" stroke="midnightblue" d="M2143.24,-616.42C2165.64,-608.36 2198.93,-595.27 2226,-580 2378.61,-493.92 2544,-522.21 2544,-347 2544,-347 2544,-347 2544,-177 2544,-141.86 2529.78,-128.95 2499,-112 2453.27,-86.81 1668.1,-71.32 1468.74,-67.78"/>
<polygon fill="midnightblue" stroke="midnightblue" points="1468.67,-64.28 1458.6,-67.6 1468.54,-71.28 1468.67,-64.28"/>
</g>
<!-- Node30&#45;&gt;Node13 -->
<g id="edge76" class="edge">
<title>Node30&#45;&gt;Node13</title>
<path fill="none" stroke="midnightblue" d="M2157.81,-616.44C2276.54,-589.77 2620,-503.89 2620,-403 2620,-403 2620,-403 2620,-121 2620,-76.03 1182.21,-24 865.3,-13.07"/>
<polygon fill="midnightblue" stroke="midnightblue" points="865.06,-9.56 854.94,-12.72 864.82,-16.56 865.06,-9.56"/>
</g>
<!-- Node30&#45;&gt;Node17 -->
<g id="edge75" class="edge">
<title>Node30&#45;&gt;Node17</title>
<path fill="none" stroke="midnightblue" d="M2162.24,-625.74C2246.62,-626.17 2425.92,-621.96 2468,-580 2513.87,-534.26 2506,-355.78 2506,-291 2506,-291 2506,-291 2506,-233 2506,-191.91 2384.35,-152.16 2318.77,-133.71"/>
<polygon fill="midnightblue" stroke="midnightblue" points="2319.32,-130.23 2308.75,-130.94 2317.45,-136.98 2319.32,-130.23"/>
</g>
<!-- Node30&#45;&gt;Node18 -->
<g id="edge78" class="edge">
<title>Node30&#45;&gt;Node18</title>
<path fill="none" stroke="midnightblue" d="M2123.44,-616.43C2148.72,-575.42 2250.48,-396.36 2178,-280 2148.15,-232.09 2115.89,-246.23 2064,-224 1997.82,-195.65 1981.77,-185.75 1912,-168 1804.91,-140.75 1775.12,-149.42 1666,-132 1660.29,-131.09 1654.23,-130.08 1648.35,-129.08"/>
<polygon fill="midnightblue" stroke="midnightblue" points="1648.5,-125.55 1638.05,-127.3 1647.31,-132.45 1648.5,-125.55"/>
</g>
<!-- Node30&#45;&gt;Node19 -->
<g id="edge79" class="edge">
<title>Node30&#45;&gt;Node19</title>
<path fill="none" stroke="midnightblue" d="M2117.19,-616.22C2112.27,-562.82 2086.42,-283.62 2084,-280 2083.54,-279.31 1874.8,-168.22 1874,-168 1729.08,-127.65 1348.1,-142.03 1198,-132 1172.58,-130.3 1143.94,-127.99 1121.98,-126.14"/>
<polygon fill="midnightblue" stroke="midnightblue" points="1122.05,-122.63 1111.79,-125.27 1121.45,-129.61 1122.05,-122.63"/>
</g>
<!-- Node30&#45;&gt;Node20 -->
<g id="edge80" class="edge">
<title>Node30&#45;&gt;Node20</title>
<path fill="none" stroke="midnightblue" d="M2132.39,-616.38C2145.48,-608.1 2164.86,-594.7 2179,-580 2220.88,-536.44 2241,-519.43 2241,-459 2241,-459 2241,-459 2241,-401 2241,-346.09 2245.62,-326.24 2216,-280 2162.21,-196.03 2046.83,-152.75 1982.23,-134.29"/>
<polygon fill="midnightblue" stroke="midnightblue" points="1982.89,-130.84 1972.31,-131.54 1981.01,-137.59 1982.89,-130.84"/>
</g>
<!-- Node30&#45;&gt;Node21 -->
<g id="edge81" class="edge">
<title>Node30&#45;&gt;Node21</title>
<path fill="none" stroke="midnightblue" d="M2162.15,-624.64C2248.54,-623.13 2435.99,-615.72 2488,-580 2561.42,-529.57 2582,-492.07 2582,-403 2582,-403 2582,-403 2582,-233 2582,-179.44 2519.29,-149.3 2474.43,-134.59"/>
<polygon fill="midnightblue" stroke="midnightblue" points="2475.46,-131.25 2464.87,-131.6 2473.37,-137.93 2475.46,-131.25"/>
</g>
<!-- Node30&#45;&gt;Node22 -->
<g id="edge85" class="edge">
<title>Node30&#45;&gt;Node22</title>
<path fill="none" stroke="midnightblue" d="M2073.78,-623.4C1859.37,-615.63 928.34,-581.91 685.24,-573.11"/>
<polygon fill="midnightblue" stroke="midnightblue" points="685.31,-569.61 675.19,-572.75 685.06,-576.61 685.31,-569.61"/>
</g>
<!-- Node30&#45;&gt;Node24 -->
<g id="edge86" class="edge">
<title>Node30&#45;&gt;Node24</title>
<path fill="none" stroke="midnightblue" d="M2073.91,-616.43C2045.78,-609.59 2009.4,-598.09 1981,-580 1913.1,-536.77 1922.56,-494.7 1857,-448 1621.67,-280.38 1261.91,-244.66 1122.25,-237.06"/>
<polygon fill="midnightblue" stroke="midnightblue" points="1122.35,-233.56 1112.18,-236.54 1121.99,-240.55 1122.35,-233.56"/>
</g>
<!-- Node30&#45;&gt;Node25 -->
<g id="edge90" class="edge">
<title>Node30&#45;&gt;Node25</title>
<path fill="none" stroke="midnightblue" d="M2115.79,-616.27C2113.02,-578.23 2120.73,-424.95 2049,-336 1972.89,-241.62 1581.97,-195.46 1459.58,-182.74"/>
<polygon fill="midnightblue" stroke="midnightblue" points="1459.88,-179.25 1449.57,-181.71 1459.16,-186.21 1459.88,-179.25"/>
</g>
<!-- Node30&#45;&gt;Node27 -->
<g id="edge87" class="edge">
<title>Node30&#45;&gt;Node27</title>
<path fill="none" stroke="midnightblue" d="M2094.58,-616.42C2058.89,-601.66 1995,-567.86 1995,-515 1995,-515 1995,-515 1995,-457 1995,-378.12 2057.89,-341.1 2008,-280 1929.25,-183.56 1582.21,-185.96 1459,-168 1282.55,-142.28 1232.42,-163.91 1052.33,-131.67"/>
<polygon fill="midnightblue" stroke="midnightblue" points="1052.72,-128.18 1042.26,-129.83 1051.47,-135.07 1052.72,-128.18"/>
</g>
<!-- Node30&#45;&gt;Node28 -->
<g id="edge89" class="edge">
<title>Node30&#45;&gt;Node28</title>
<path fill="none" stroke="midnightblue" d="M2073.82,-619.04C2010.97,-610.54 1892.13,-594.36 1791,-580 1560.19,-547.22 1503.31,-533.08 1272,-504 1121.37,-485.06 940.23,-467.84 871.9,-461.54"/>
<polygon fill="midnightblue" stroke="midnightblue" points="871.84,-458.02 861.56,-460.59 871.2,-464.99 871.84,-458.02"/>
</g>
<!-- Node31 -->
<g id="node31" class="node">
<title>Node31</title>
<g id="a_node31"><a xlink:title=" ">
<polygon fill="none" stroke="#bfbfbf" points="2383.5,-560.5 2383.5,-579.5 2458.5,-579.5 2458.5,-560.5 2383.5,-560.5"/>
<text text-anchor="middle" x="2421" y="-567.5" font-family="Helvetica,sans-Serif" font-size="10.00">petscerror.h</text>
</a>
</g>
</g>
<!-- Node30&#45;&gt;Node31 -->
<g id="edge82" class="edge">
<title>Node30&#45;&gt;Node31</title>
<path fill="none" stroke="midnightblue" d="M2162.06,-617.15C2218.26,-607.13 2315.12,-589.87 2373.1,-579.54"/>
<polygon fill="midnightblue" stroke="midnightblue" points="2373.88,-582.95 2383.11,-577.75 2372.65,-576.06 2373.88,-582.95"/>
</g>
<!-- Node32&#45;&gt;Node2 -->
<g id="edge99" class="edge">
<title>Node32&#45;&gt;Node2</title>
<path fill="none" stroke="midnightblue" d="M749.81,-295.72C688.32,-302.44 586.07,-316.2 554,-336 443.57,-404.18 378,-439.22 378,-569 378,-627 378,-627 378,-627 378,-741.27 1285.58,-739.39 1491.7,-737.49"/>
<polygon fill="midnightblue" stroke="midnightblue" points="1491.84,-740.99 1501.81,-737.39 1491.77,-733.99 1491.84,-740.99"/>
</g>
<!-- Node32&#45;&gt;Node3 -->
<g id="edge93" class="edge">
<title>Node32&#45;&gt;Node3</title>
<path fill="none" stroke="midnightblue" d="M764.31,-280.46C684.09,-260.13 482.35,-209 399.93,-188.11"/>
<polygon fill="midnightblue" stroke="midnightblue" points="400.58,-184.66 390.03,-185.6 398.86,-191.45 400.58,-184.66"/>
</g>
<!-- Node32&#45;&gt;Node6 -->
<g id="edge96" class="edge">
<title>Node32&#45;&gt;Node6</title>
<path fill="none" stroke="midnightblue" d="M819.12,-280.44C839.29,-272.01 870.34,-258.33 896,-244 909.99,-236.19 910.99,-229.61 926,-224 1228.62,-110.97 1326.92,-175.65 1647,-132 1652.8,-131.21 1658.9,-130.35 1664.92,-129.49"/>
<polygon fill="midnightblue" stroke="midnightblue" points="1665.51,-132.95 1674.9,-128.06 1664.51,-126.02 1665.51,-132.95"/>
</g>
<!-- Node32&#45;&gt;Node8 -->
<g id="edge98" class="edge">
<title>Node32&#45;&gt;Node8</title>
<path fill="none" stroke="midnightblue" d="M803.98,-280.26C825.07,-250.26 899.56,-151.19 989,-112 1057.78,-81.86 1280.36,-71.41 1377.24,-68.23"/>
<polygon fill="midnightblue" stroke="midnightblue" points="1377.44,-71.73 1387.32,-67.92 1377.21,-64.73 1377.44,-71.73"/>
</g>
<!-- Node32&#45;&gt;Node13 -->
<g id="edge94" class="edge">
<title>Node32&#45;&gt;Node13</title>
<path fill="none" stroke="midnightblue" d="M793.3,-280.42C784.29,-263.41 764.86,-223.94 758,-188 746.72,-128.9 777.34,-60.31 794.02,-28.67"/>
<polygon fill="midnightblue" stroke="midnightblue" points="797.16,-30.2 798.87,-19.75 791.01,-26.86 797.16,-30.2"/>
</g>
<!-- Node32&#45;&gt;Node19 -->
<g id="edge97" class="edge">
<title>Node32&#45;&gt;Node19</title>
<path fill="none" stroke="midnightblue" d="M810.42,-280.45C829.12,-267.68 865.75,-243.1 898,-224 954.63,-190.46 1023.18,-154.84 1059.85,-136.17"/>
<polygon fill="midnightblue" stroke="midnightblue" points="1061.55,-139.23 1068.89,-131.59 1058.38,-132.99 1061.55,-139.23"/>
</g>
<!-- Node32&#45;&gt;Node23 -->
<g id="edge95" class="edge">
<title>Node32&#45;&gt;Node23</title>
<path fill="none" stroke="midnightblue" d="M798,-280.37C798,-262.62 798,-221.67 798,-197.6"/>
<polygon fill="midnightblue" stroke="midnightblue" points="801.5,-197.59 798,-187.59 794.5,-197.59 801.5,-197.59"/>
</g>
<!-- Node32&#45;&gt;Node24 -->
<g id="edge100" class="edge">
<title>Node32&#45;&gt;Node24</title>
<path fill="none" stroke="midnightblue" d="M840.15,-280.44C886.75,-270.98 961.84,-255.74 1012.05,-245.55"/>
<polygon fill="midnightblue" stroke="midnightblue" points="1012.94,-248.94 1022.05,-243.52 1011.55,-242.08 1012.94,-248.94"/>
</g>
<!-- Node33&#45;&gt;Node2 -->
<g id="edge104" class="edge">
<title>Node33&#45;&gt;Node2</title>
<path fill="none" stroke="midnightblue" d="M834.25,-355.89C815.9,-385.1 760,-481.33 760,-569 760,-627 760,-627 760,-627 760,-689.62 824.73,-675.03 885,-692 999.84,-724.33 1367.5,-733.96 1491.62,-736.33"/>
<polygon fill="midnightblue" stroke="midnightblue" points="1491.78,-739.83 1501.84,-736.51 1491.91,-732.83 1491.78,-739.83"/>
</g>
<!-- Node33&#45;&gt;Node8 -->
<g id="edge102" class="edge">
<title>Node33&#45;&gt;Node8</title>
<path fill="none" stroke="midnightblue" d="M795.95,-339C664.11,-319.97 284.4,-256.97 329,-168 347.64,-130.81 364.82,-125.98 404,-112 496.28,-79.07 1190.67,-69.44 1377.07,-67.44"/>
<polygon fill="midnightblue" stroke="midnightblue" points="1377.38,-70.94 1387.34,-67.33 1377.3,-63.94 1377.38,-70.94"/>
</g>
<!-- Node33&#45;&gt;Node29 -->
<g id="edge103" class="edge">
<title>Node33&#45;&gt;Node29</title>
<path fill="none" stroke="midnightblue" d="M884.05,-352.55C891.76,-353.71 899.64,-354.91 907,-356 998.24,-369.53 1104.35,-384.37 1165.59,-393.17"/>
<polygon fill="midnightblue" stroke="midnightblue" points="1165.36,-396.67 1175.75,-394.64 1166.35,-389.74 1165.36,-396.67"/>
</g>
<!-- Node34&#45;&gt;Node2 -->
<g id="edge119" class="edge">
<title>Node34&#45;&gt;Node2</title>
<path fill="none" stroke="midnightblue" d="M1598.15,-355.52C1775.45,-390.73 2439.96,-524.66 2468,-560 2473.53,-566.96 2473.67,-573.16 2468,-580 2351.97,-719.96 1740,-735.28 1574.37,-736.85"/>
<polygon fill="midnightblue" stroke="midnightblue" points="1574.08,-733.35 1564.11,-736.93 1574.14,-740.35 1574.08,-733.35"/>
</g>
<!-- Node34&#45;&gt;Node4 -->
<g id="edge108" class="edge">
<title>Node34&#45;&gt;Node4</title>
<path fill="none" stroke="midnightblue" d="M1586.6,-336.44C1616.05,-328.16 1661.02,-314.72 1699,-300 1840.77,-245.05 1931.14,-269.04 1997,-132 2016.76,-90.89 1968.51,-47.38 1938.6,-25.45"/>
<polygon fill="midnightblue" stroke="midnightblue" points="1940.54,-22.54 1930.36,-19.61 1936.49,-28.25 1940.54,-22.54"/>
</g>
<!-- Node34&#45;&gt;Node6 -->
<g id="edge112" class="edge">
<title>Node34&#45;&gt;Node6</title>
<path fill="none" stroke="midnightblue" d="M1561.04,-336.3C1583.98,-303.22 1666.05,-184.91 1697.04,-140.24"/>
<polygon fill="midnightblue" stroke="midnightblue" points="1700.01,-142.1 1702.84,-131.88 1694.26,-138.11 1700.01,-142.1"/>
</g>
<!-- Node34&#45;&gt;Node8 -->
<g id="edge115" class="edge">
<title>Node34&#45;&gt;Node8</title>
<path fill="none" stroke="midnightblue" d="M1578.04,-336.34C1600.49,-327.72 1635.47,-313.82 1665,-300 1701.1,-283.1 1961.45,-166.16 1982,-132 1986.58,-124.38 1988.03,-118.53 1982,-112 1947.48,-74.59 1596.34,-68.27 1468.9,-67.21"/>
<polygon fill="midnightblue" stroke="midnightblue" points="1468.72,-63.71 1458.69,-67.13 1468.66,-70.71 1468.72,-63.71"/>
</g>
<!-- Node34&#45;&gt;Node13 -->
<g id="edge107" class="edge">
<title>Node34&#45;&gt;Node13</title>
<path fill="none" stroke="midnightblue" d="M1547.05,-336.38C1535.29,-323.74 1512.45,-299.54 1492,-280 1447.38,-237.37 1433.09,-230.14 1388,-188 1352.87,-155.17 1353.48,-134.53 1311,-112 1163.98,-34 963.93,-16.01 864.81,-12.01"/>
<polygon fill="midnightblue" stroke="midnightblue" points="864.8,-8.51 854.68,-11.64 864.54,-15.51 864.8,-8.51"/>
</g>
<!-- Node34&#45;&gt;Node16 -->
<g id="edge122" class="edge">
<title>Node34&#45;&gt;Node16</title>
<path fill="none" stroke="midnightblue" d="M1576.92,-355.61C1611.04,-370.63 1673,-405.05 1673,-457 1673,-571 1673,-571 1673,-571 1673,-603.05 1673,-640.36 1673,-662.25"/>
<polygon fill="midnightblue" stroke="midnightblue" points="1669.5,-662.44 1673,-672.44 1676.5,-662.44 1669.5,-662.44"/>
</g>
<!-- Node34&#45;&gt;Node17 -->
<g id="edge106" class="edge">
<title>Node34&#45;&gt;Node17</title>
<path fill="none" stroke="midnightblue" d="M1598.15,-336.58C1696.35,-316.73 1943.23,-262.99 2140,-188 2180.33,-172.63 2225.25,-150.48 2252.56,-136.42"/>
<polygon fill="midnightblue" stroke="midnightblue" points="2254.52,-139.34 2261.78,-131.63 2251.29,-133.13 2254.52,-139.34"/>
</g>
<!-- Node34&#45;&gt;Node18 -->
<g id="edge109" class="edge">
<title>Node34&#45;&gt;Node18</title>
<path fill="none" stroke="midnightblue" d="M1557.31,-336.3C1566.01,-303.56 1596.89,-187.38 1609.04,-141.67"/>
<polygon fill="midnightblue" stroke="midnightblue" points="1612.45,-142.45 1611.64,-131.88 1605.69,-140.65 1612.45,-142.45"/>
</g>
<!-- Node34&#45;&gt;Node19 -->
<g id="edge110" class="edge">
<title>Node34&#45;&gt;Node19</title>
<path fill="none" stroke="midnightblue" d="M1536.9,-336.43C1465.01,-302.4 1199.37,-176.66 1113.19,-135.87"/>
<polygon fill="midnightblue" stroke="midnightblue" points="1114.58,-132.66 1104.04,-131.54 1111.59,-138.98 1114.58,-132.66"/>
</g>
<!-- Node34&#45;&gt;Node20 -->
<g id="edge111" class="edge">
<title>Node34&#45;&gt;Node20</title>
<path fill="none" stroke="midnightblue" d="M1569.94,-336.3C1628.27,-302.31 1841,-178.36 1912.43,-136.74"/>
<polygon fill="midnightblue" stroke="midnightblue" points="1914.29,-139.7 1921.17,-131.64 1910.77,-133.65 1914.29,-139.7"/>
</g>
<!-- Node34&#45;&gt;Node21 -->
<g id="edge113" class="edge">
<title>Node34&#45;&gt;Node21</title>
<path fill="none" stroke="midnightblue" d="M1598.26,-339.06C1650.77,-331.51 1741.89,-317.37 1819,-300 2041.23,-249.94 2302.01,-165.64 2394.94,-134.78"/>
<polygon fill="midnightblue" stroke="midnightblue" points="2396.29,-138.02 2404.68,-131.54 2394.08,-131.37 2396.29,-138.02"/>
</g>
<!-- Node34&#45;&gt;Node22 -->
<g id="edge116" class="edge">
<title>Node34&#45;&gt;Node22</title>
<path fill="none" stroke="midnightblue" d="M1527.06,-355.51C1484.2,-368.45 1399.59,-393.49 1327,-412 1107.59,-467.95 1050.98,-474.61 830,-524 777.22,-535.8 716.7,-549.2 675.57,-558.28"/>
<polygon fill="midnightblue" stroke="midnightblue" points="674.56,-554.92 665.55,-560.5 676.07,-561.76 674.56,-554.92"/>
</g>
<!-- Node34&#45;&gt;Node24 -->
<g id="edge117" class="edge">
<title>Node34&#45;&gt;Node24</title>
<path fill="none" stroke="midnightblue" d="M1511.95,-339.82C1457.18,-332.82 1359.87,-318.99 1278,-300 1213.53,-285.04 1140.04,-261.19 1098.13,-246.92"/>
<polygon fill="midnightblue" stroke="midnightblue" points="1099.02,-243.52 1088.42,-243.59 1096.75,-250.14 1099.02,-243.52"/>
</g>
<!-- Node34&#45;&gt;Node26 -->
<g id="edge114" class="edge">
<title>Node34&#45;&gt;Node26</title>
<path fill="none" stroke="midnightblue" d="M1543.2,-336.3C1497.49,-302.59 1331.79,-180.37 1274.03,-137.77"/>
<polygon fill="midnightblue" stroke="midnightblue" points="1275.84,-134.76 1265.72,-131.64 1271.69,-140.39 1275.84,-134.76"/>
</g>
<!-- Node34&#45;&gt;Node27 -->
<g id="edge118" class="edge">
<title>Node34&#45;&gt;Node27</title>
<path fill="none" stroke="midnightblue" d="M1525.17,-336.45C1496.6,-328.02 1452.43,-314.35 1415,-300 1273.47,-245.73 1109.74,-167.1 1046.66,-136.18"/>
<polygon fill="midnightblue" stroke="midnightblue" points="1047.94,-132.91 1037.42,-131.64 1044.86,-139.19 1047.94,-132.91"/>
</g>
<!-- Node34&#45;&gt;Node28 -->
<g id="edge120" class="edge">
<title>Node34&#45;&gt;Node28</title>
<path fill="none" stroke="midnightblue" d="M1522.62,-355.53C1469.28,-369.29 1359.44,-396.42 1265,-412 1117.98,-436.25 939.81,-450.31 872.02,-455.12"/>
<polygon fill="midnightblue" stroke="midnightblue" points="871.48,-451.64 861.74,-455.83 871.96,-458.63 871.48,-451.64"/>
</g>
<!-- Node34&#45;&gt;Node29 -->
<g id="edge124" class="edge">
<title>Node34&#45;&gt;Node29</title>
<path fill="none" stroke="midnightblue" d="M1511.83,-354.65C1449.09,-365.05 1333.22,-383.5 1266.57,-393.71"/>
<polygon fill="midnightblue" stroke="midnightblue" points="1265.67,-390.3 1256.31,-395.27 1266.73,-397.22 1265.67,-390.3"/>
</g>
<!-- Node34&#45;&gt;Node30 -->
<g id="edge121" class="edge">
<title>Node34&#45;&gt;Node30</title>
<path fill="none" stroke="midnightblue" d="M1589.25,-355.57C1616.61,-363.14 1655.45,-375.53 1687,-392 1812.15,-457.31 1815.44,-519.55 1943,-580 1981.44,-598.22 2028.27,-609.76 2063.8,-616.59"/>
<polygon fill="midnightblue" stroke="midnightblue" points="2063.51,-620.1 2073.98,-618.48 2064.78,-613.21 2063.51,-620.1"/>
</g>
<!-- Node34&#45;&gt;Node32 -->
<g id="edge123" class="edge">
<title>Node34&#45;&gt;Node32</title>
<path fill="none" stroke="midnightblue" d="M1511.86,-341.92C1383.29,-332.75 1002.6,-305.59 856.24,-295.15"/>
<polygon fill="midnightblue" stroke="midnightblue" points="856.33,-291.65 846.11,-294.43 855.84,-298.63 856.33,-291.65"/>
</g>
<!-- Node35&#45;&gt;Node2 -->
<g id="edge135" class="edge">
<title>Node35&#45;&gt;Node2</title>
<path fill="none" stroke="midnightblue" d="M318.71,-523.54C308.32,-552.08 279.62,-644.93 326,-692 367.77,-734.39 1284.91,-736.99 1491.79,-737.03"/>
<polygon fill="midnightblue" stroke="midnightblue" points="1491.93,-740.53 1501.93,-737.03 1491.93,-733.53 1491.93,-740.53"/>
</g>
<!-- Node35&#45;&gt;Node3 -->
<g id="edge133" class="edge">
<title>Node35&#45;&gt;Node3</title>
<path fill="none" stroke="midnightblue" d="M324.7,-504.26C330.16,-485.77 342,-441.24 342,-403 342,-403 342,-403 342,-289 342,-256.33 351.45,-219.24 357.96,-197.55"/>
<polygon fill="midnightblue" stroke="midnightblue" points="361.39,-198.31 361.03,-187.72 354.71,-196.22 361.39,-198.31"/>
</g>
<!-- Node35&#45;&gt;Node4 -->
<g id="edge136" class="edge">
<title>Node35&#45;&gt;Node4</title>
<path fill="none" stroke="midnightblue" d="M311.62,-504.38C274.71,-472.68 152,-358.05 152,-235 152,-235 152,-235 152,-177 152,-138.87 173.82,-128.91 208,-112 285.65,-73.59 1639.5,-21.37 1880.47,-12.35"/>
<polygon fill="midnightblue" stroke="midnightblue" points="1880.61,-15.85 1890.47,-11.98 1880.34,-8.85 1880.61,-15.85"/>
</g>
<!-- Node35&#45;&gt;Node8 -->
<g id="edge134" class="edge">
<title>Node35&#45;&gt;Node8</title>
<path fill="none" stroke="midnightblue" d="M316.66,-504.4C291.97,-464.31 190,-295.11 190,-235 190,-235 190,-235 190,-177 190,-98.18 277.89,-128.33 355,-112 554.7,-69.71 1199.87,-66.87 1377.41,-66.91"/>
<polygon fill="midnightblue" stroke="midnightblue" points="1377.45,-70.41 1387.46,-66.92 1377.46,-63.41 1377.45,-70.41"/>
</g>
<!-- Node35&#45;&gt;Node25 -->
<g id="edge138" class="edge">
<title>Node35&#45;&gt;Node25</title>
<path fill="none" stroke="midnightblue" d="M332.32,-504.12C367.34,-474.52 485.96,-378.69 602,-336 708.59,-296.78 746.58,-333.84 855,-300 873.03,-294.37 988.88,-229.32 1007,-224 1142.52,-184.19 1312.16,-178.9 1385.91,-178.65"/>
<polygon fill="midnightblue" stroke="midnightblue" points="1386.08,-182.15 1396.08,-178.65 1386.08,-175.15 1386.08,-182.15"/>
</g>
<!-- Node35&#45;&gt;Node28 -->
<g id="edge137" class="edge">
<title>Node35&#45;&gt;Node28</title>
<path fill="none" stroke="midnightblue" d="M350.06,-510.1C440.93,-500.7 726.37,-471.17 816.47,-461.85"/>
<polygon fill="midnightblue" stroke="midnightblue" points="816.87,-465.33 826.46,-460.81 816.15,-458.36 816.87,-465.33"/>
</g>
</g>
</svg>
