<?xml version="1.0" encoding="UTF-8" standalone="no"?>
<!DOCTYPE svg PUBLIC "-//W3C//DTD SVG 1.1//EN"
 "http://www.w3.org/Graphics/SVG/1.1/DTD/svg11.dtd">
<!-- Generated by graphviz version 2.43.0 (0)
 -->
<!-- Title: ComputeMaxColumnWidths Pages: 1 -->
<svg width="286pt" height="142pt"
 viewBox="0.00 0.00 286.00 142.00" xmlns="http://www.w3.org/2000/svg" xmlns:xlink="http://www.w3.org/1999/xlink">
<g id="graph0" class="graph" transform="scale(1 1) rotate(0) translate(4 138)">
<title>ComputeMaxColumnWidths</title>
<!-- Node1 -->
<g id="node1" class="node">
<title>Node1</title>
<g id="a_node1"><a xlink:title=" ">
<polygon fill="#bfbfbf" stroke="black" points="0,-57.5 0,-76.5 153,-76.5 153,-57.5 0,-57.5"/>
<text text-anchor="middle" x="76.5" y="-64.5" font-family="Helvetica,sans-Serif" font-size="10.00">ComputeMaxColumnWidths</text>
</a>
</g>
</g>
<!-- Node2 -->
<g id="node2" class="node">
<title>Node2</title>
<g id="a_node2"><a xlink:href="logging_8c.html#a90c3c89c64920d436a9079a419523e21" target="_top" xlink:title=" ">
<polygon fill="none" stroke="black" points="204,-114.5 204,-133.5 263,-133.5 263,-114.5 204,-114.5"/>
<text text-anchor="middle" x="233.5" y="-121.5" font-family="Helvetica,sans-Serif" font-size="10.00">CellToStr</text>
</a>
</g>
</g>
<!-- Node1&#45;&gt;Node2 -->
<g id="edge1" class="edge">
<title>Node1&#45;&gt;Node2</title>
<path fill="none" stroke="midnightblue" d="M103.44,-76.54C129.04,-85.95 168.36,-100.41 196.88,-110.9"/>
<polygon fill="midnightblue" stroke="midnightblue" points="195.88,-114.26 206.47,-114.43 198.29,-107.69 195.88,-114.26"/>
</g>
<!-- Node3 -->
<g id="node3" class="node">
<title>Node3</title>
<g id="a_node3"><a xlink:href="logging_8c.html#aa1977fc21fa13444d85147ec9798f76b" target="_top" xlink:title=" ">
<polygon fill="none" stroke="black" points="201,-76.5 201,-95.5 266,-95.5 266,-76.5 201,-76.5"/>
<text text-anchor="middle" x="233.5" y="-83.5" font-family="Helvetica,sans-Serif" font-size="10.00">Int64ToStr</text>
</a>
</g>
</g>
<!-- Node1&#45;&gt;Node3 -->
<g id="edge2" class="edge">
<title>Node1&#45;&gt;Node3</title>
<path fill="none" stroke="midnightblue" d="M153.18,-76.28C166.01,-77.85 178.9,-79.43 190.46,-80.85"/>
<polygon fill="midnightblue" stroke="midnightblue" points="190.3,-84.35 200.65,-82.1 191.15,-77.4 190.3,-84.35"/>
</g>
<!-- Node4 -->
<g id="node4" class="node">
<title>Node4</title>
<g id="a_node4"><a xlink:href="logging_8c.html#ad2ca09810919ecbbd0daceb827fe330e" target="_top" xlink:title=" ">
<polygon fill="none" stroke="black" points="207,-38.5 207,-57.5 260,-57.5 260,-38.5 207,-38.5"/>
<text text-anchor="middle" x="233.5" y="-45.5" font-family="Helvetica,sans-Serif" font-size="10.00">IntToStr</text>
</a>
</g>
</g>
<!-- Node1&#45;&gt;Node4 -->
<g id="edge3" class="edge">
<title>Node1&#45;&gt;Node4</title>
<path fill="none" stroke="midnightblue" d="M153.18,-57.72C168.46,-55.85 183.84,-53.96 196.93,-52.36"/>
<polygon fill="midnightblue" stroke="midnightblue" points="197.39,-55.83 206.89,-51.14 196.54,-48.88 197.39,-55.83"/>
</g>
<!-- Node5 -->
<g id="node5" class="node">
<title>Node5</title>
<g id="a_node5"><a xlink:href="logging_8c.html#a9cd4e0aea4743cc718e597959fec0774" target="_top" xlink:title=" ">
<polygon fill="none" stroke="black" points="189,-0.5 189,-19.5 278,-19.5 278,-0.5 189,-0.5"/>
<text text-anchor="middle" x="233.5" y="-7.5" font-family="Helvetica,sans-Serif" font-size="10.00">TripleRealToStr</text>
</a>
</g>
</g>
<!-- Node1&#45;&gt;Node5 -->
<g id="edge4" class="edge">
<title>Node1&#45;&gt;Node5</title>
<path fill="none" stroke="midnightblue" d="M103.44,-57.46C129.04,-48.05 168.36,-33.59 196.88,-23.1"/>
<polygon fill="midnightblue" stroke="midnightblue" points="198.29,-26.31 206.47,-19.57 195.88,-19.74 198.29,-26.31"/>
</g>
</g>
</svg>
