<?xml version="1.0" encoding="UTF-8" standalone="no"?>
<!DOCTYPE svg PUBLIC "-//W3C//DTD SVG 1.1//EN"
 "http://www.w3.org/Graphics/SVG/1.1/DTD/svg11.dtd">
<!-- Generated by graphviz version 2.43.0 (0)
 -->
<!-- Title: get_log_level Pages: 1 -->
<svg width="1148pt" height="1088pt"
 viewBox="0.00 0.00 1148.00 1088.15" xmlns="http://www.w3.org/2000/svg" xmlns:xlink="http://www.w3.org/1999/xlink">
<g id="graph0" class="graph" transform="scale(1 1) rotate(0) translate(4 1084.15)">
<title>get_log_level</title>
<!-- Node1 -->
<g id="node1" class="node">
<title>Node1</title>
<g id="a_node1"><a xlink:title="Retrieves the current logging level from the environment variable LOG_LEVEL.">
<polygon fill="#bfbfbf" stroke="black" points="1058,-307.65 1058,-326.65 1140,-326.65 1140,-307.65 1058,-307.65"/>
<text text-anchor="middle" x="1099" y="-314.65" font-family="Helvetica,sans-Serif" font-size="10.00">get_log_level</text>
</a>
</g>
</g>
<!-- Node2 -->
<g id="node2" class="node">
<title>Node2</title>
<g id="a_node2"><a xlink:href="simulation_8c.html#a5cfb2f783604af7f20171d19f969d5d3" target="_top" xlink:title="Executes the main time&#45;marching loop for the coupled Euler&#45;Lagrange simulation.">
<polygon fill="none" stroke="black" points="275,-250.65 275,-269.65 386,-269.65 386,-250.65 275,-250.65"/>
<text text-anchor="middle" x="330.5" y="-257.65" font-family="Helvetica,sans-Serif" font-size="10.00">AdvanceSimulation</text>
</a>
</g>
</g>
<!-- Node1&#45;&gt;Node2 -->
<g id="edge1" class="edge">
<title>Node1&#45;&gt;Node2</title>
<path fill="none" stroke="midnightblue" d="M1096.17,-296.96C1091.51,-258.9 1075.46,-177.22 1022,-142.15 909.12,-68.11 472.75,-211.22 358.83,-250.54"/>
<polygon fill="midnightblue" stroke="midnightblue" points="1092.73,-297.7 1097.28,-307.27 1099.69,-296.95 1092.73,-297.7"/>
</g>
<!-- Node4 -->
<g id="node4" class="node">
<title>Node4</title>
<g id="a_node4"><a xlink:href="setup_8c.html#acf739211501f0646c25ceb99a68a1163" target="_top" xlink:title="Allocates the memory for the UserMG and UserCtx hierarchy.">
<polygon fill="none" stroke="black" points="458.5,-1022.65 458.5,-1041.65 600.5,-1041.65 600.5,-1022.65 458.5,-1022.65"/>
<text text-anchor="middle" x="529.5" y="-1029.65" font-family="Helvetica,sans-Serif" font-size="10.00">AllocateContextHierarchy</text>
</a>
</g>
</g>
<!-- Node1&#45;&gt;Node4 -->
<g id="edge3" class="edge">
<title>Node1&#45;&gt;Node4</title>
<path fill="none" stroke="midnightblue" d="M1097.45,-337.11C1094.7,-425.54 1080.13,-781.75 1022,-874.15 933.23,-1015.26 713.99,-1034.73 600.74,-1034.82"/>
<polygon fill="midnightblue" stroke="midnightblue" points="1100.95,-337.16 1097.75,-327.07 1093.95,-336.96 1100.95,-337.16"/>
</g>
<!-- Node6 -->
<g id="node6" class="node">
<title>Node6</title>
<g id="a_node6"><a xlink:href="ParticleSwarm_8c.html#a063f4fd13a24b248fabd0268c49fd38c" target="_top" xlink:title="Creates and initializes a Particle Swarm.">
<polygon fill="none" stroke="black" points="882,-1060.65 882,-1079.65 1001,-1079.65 1001,-1060.65 882,-1060.65"/>
<text text-anchor="middle" x="941.5" y="-1067.65" font-family="Helvetica,sans-Serif" font-size="10.00">CreateParticleSwarm</text>
</a>
</g>
</g>
<!-- Node1&#45;&gt;Node6 -->
<g id="edge6" class="edge">
<title>Node1&#45;&gt;Node6</title>
<path fill="none" stroke="midnightblue" d="M1097.23,-336.98C1092.74,-448.03 1068.54,-989.85 1022,-1046.15 1016.49,-1052.82 1009.19,-1057.68 1001.25,-1061.21"/>
<polygon fill="midnightblue" stroke="midnightblue" points="1100.73,-336.98 1097.63,-326.85 1093.74,-336.7 1100.73,-336.98"/>
</g>
<!-- Node8 -->
<g id="node8" class="node">
<title>Node8</title>
<g id="a_node8"><a xlink:href="walkingsearch_8c.html#a556871801ba0b3214285a2ca1fe622ac" target="_top" xlink:title="Determines the spatial relationship of a particle relative to a cubic cell.">
<polygon fill="none" stroke="black" points="874,-200.65 874,-219.65 1009,-219.65 1009,-200.65 874,-200.65"/>
<text text-anchor="middle" x="941.5" y="-207.65" font-family="Helvetica,sans-Serif" font-size="10.00">EvaluateParticlePosition</text>
</a>
</g>
</g>
<!-- Node1&#45;&gt;Node8 -->
<g id="edge9" class="edge">
<title>Node1&#45;&gt;Node8</title>
<path fill="none" stroke="midnightblue" d="M1087.1,-299.12C1074.09,-279.19 1050.49,-247.6 1022,-230.15 1014.84,-225.76 1006.76,-222.34 998.56,-219.66"/>
<polygon fill="midnightblue" stroke="midnightblue" points="1084.16,-301.02 1092.45,-307.61 1090.08,-297.28 1084.16,-301.02"/>
</g>
<!-- Node11 -->
<g id="node11" class="node">
<title>Node11</title>
<g id="a_node11"><a xlink:href="simulation_8c.html#aa5b3c3a0cd447931b47a01267c36acdd" target="_top" xlink:title="Finalizes the simulation setup at t=0, ensuring a consistent state before time marching.">
<polygon fill="none" stroke="black" points="260.5,-327.15 260.5,-357.15 400.5,-357.15 400.5,-327.15 260.5,-327.15"/>
<text text-anchor="start" x="268.5" y="-345.15" font-family="Helvetica,sans-Serif" font-size="10.00">PerformInitializedParticle</text>
<text text-anchor="middle" x="330.5" y="-334.15" font-family="Helvetica,sans-Serif" font-size="10.00">Setup</text>
</a>
</g>
</g>
<!-- Node1&#45;&gt;Node11 -->
<g id="edge28" class="edge">
<title>Node1&#45;&gt;Node11</title>
<path fill="none" stroke="midnightblue" d="M1058.5,-329.44C1046.86,-332.54 1034.02,-335.47 1022,-337.15 796.42,-368.67 525.33,-356.15 400.54,-347.61"/>
<polygon fill="midnightblue" stroke="midnightblue" points="1059.68,-332.74 1068.37,-326.69 1057.8,-326 1059.68,-332.74"/>
</g>
<!-- Node13 -->
<g id="node13" class="node">
<title>Node13</title>
<g id="a_node13"><a xlink:href="simulation_8c.html#ad8038ca2fcc4f0534e04d144c4ffbbef" target="_top" xlink:title="Finalizes the simulation state after particle and fluid data have been loaded from a restart.">
<polygon fill="none" stroke="black" points="253,-288.65 253,-307.65 408,-307.65 408,-288.65 253,-288.65"/>
<text text-anchor="middle" x="330.5" y="-295.65" font-family="Helvetica,sans-Serif" font-size="10.00">PerformLoadedParticleSetup</text>
</a>
</g>
</g>
<!-- Node1&#45;&gt;Node13 -->
<g id="edge29" class="edge">
<title>Node1&#45;&gt;Node13</title>
<path fill="none" stroke="midnightblue" d="M1047.58,-320.01C937.69,-325.62 668.42,-335.97 444,-317.15 421.89,-315.3 397.6,-311.43 377.26,-307.66"/>
<polygon fill="midnightblue" stroke="midnightblue" points="1047.91,-323.5 1057.72,-319.48 1047.55,-316.51 1047.91,-323.5"/>
</g>
<!-- Node14 -->
<g id="node14" class="node">
<title>Node14</title>
<g id="a_node14"><a xlink:href="grid_8c.html#aa0b95ab3ac28c8df985e38b888c9bb52" target="_top" xlink:title="Orchestrates the creation of DMDA objects for every block and multigrid level.">
<polygon fill="none" stroke="black" points="885,-845.65 885,-864.65 998,-864.65 998,-845.65 885,-845.65"/>
<text text-anchor="middle" x="941.5" y="-852.65" font-family="Helvetica,sans-Serif" font-size="10.00">InitializeAllGridDMs</text>
</a>
</g>
</g>
<!-- Node1&#45;&gt;Node14 -->
<g id="edge19" class="edge">
<title>Node1&#45;&gt;Node14</title>
<path fill="none" stroke="midnightblue" d="M1095.94,-336.97C1089.59,-394.15 1067.93,-563.85 1022,-697.15 1001.6,-756.38 963.23,-821.54 948.48,-845.57"/>
<polygon fill="midnightblue" stroke="midnightblue" points="1099.44,-337.12 1097.04,-326.8 1092.48,-336.36 1099.44,-337.12"/>
</g>
<!-- Node15 -->
<g id="node15" class="node">
<title>Node15</title>
<g id="a_node15"><a xlink:href="interpolation_8c.html#ad200d31b74c511e4388b757fb0359001" target="_top" xlink:title="Interpolates a cell&#45;centered field (scalar or vector) onto DMSwarm particles, using a robust,...">
<polygon fill="none" stroke="black" points="861,-288.65 861,-307.65 1022,-307.65 1022,-288.65 861,-288.65"/>
<text text-anchor="middle" x="941.5" y="-295.65" font-family="Helvetica,sans-Serif" font-size="10.00">InterpolateEulerFieldToSwarm</text>
</a>
</g>
</g>
<!-- Node1&#45;&gt;Node15 -->
<g id="edge21" class="edge">
<title>Node1&#45;&gt;Node15</title>
<path fill="none" stroke="midnightblue" d="M1047.92,-311.03C1039.14,-309.96 1029.81,-308.82 1020.48,-307.68"/>
<polygon fill="midnightblue" stroke="midnightblue" points="1047.6,-314.52 1057.95,-312.26 1048.45,-307.57 1047.6,-314.52"/>
</g>
<!-- Node17 -->
<g id="node17" class="node">
<title>Node17</title>
<g id="a_node17"><a xlink:href="interpolation_8c.html#a8e20ad6b773e06f8cc29773322297095" target="_top" xlink:title="Interpolates a vector field from cell centers to corner nodes.">
<polygon fill="none" stroke="black" points="867,-239.15 867,-269.15 1016,-269.15 1016,-239.15 867,-239.15"/>
<text text-anchor="start" x="875" y="-257.15" font-family="Helvetica,sans-Serif" font-size="10.00">InterpolateFieldFromCenter</text>
<text text-anchor="middle" x="941.5" y="-246.15" font-family="Helvetica,sans-Serif" font-size="10.00">ToCorner_Vector</text>
</a>
</g>
</g>
<!-- Node1&#45;&gt;Node17 -->
<g id="edge26" class="edge">
<title>Node1&#45;&gt;Node17</title>
<path fill="none" stroke="midnightblue" d="M1071.99,-302.85C1057.52,-295.24 1039.05,-286.04 1022,-279.15 1013.28,-275.62 1003.86,-272.28 994.67,-269.25"/>
<polygon fill="midnightblue" stroke="midnightblue" points="1070.39,-305.97 1080.85,-307.59 1073.68,-299.79 1070.39,-305.97"/>
</g>
<!-- Node18 -->
<g id="node18" class="node">
<title>Node18</title>
<g id="a_node18"><a xlink:href="postprocessor_8c.html#a3c04138a5bfe5d72780bb7e82a18e627" target="_top" xlink:title=" ">
<polygon fill="none" stroke="black" points="310,-459.65 310,-478.65 351,-478.65 351,-459.65 310,-459.65"/>
<text text-anchor="middle" x="330.5" y="-466.65" font-family="Helvetica,sans-Serif" font-size="10.00">main</text>
</a>
</g>
</g>
<!-- Node1&#45;&gt;Node18 -->
<g id="edge27" class="edge">
<title>Node1&#45;&gt;Node18</title>
<path fill="none" stroke="midnightblue" d="M1075.34,-332.26C1060.73,-341.25 1040.97,-352.07 1022,-358.15 775.43,-437.18 696.36,-373.21 444,-431.15 410.65,-438.81 373.25,-452.51 351.07,-461.2"/>
<polygon fill="midnightblue" stroke="midnightblue" points="1077.57,-334.99 1084.14,-326.67 1073.82,-329.07 1077.57,-334.99"/>
</g>
<!-- Node19 -->
<g id="node19" class="node">
<title>Node19</title>
<g id="a_node19"><a xlink:href="logging_8c.html#a4d4a385a6fac09d0e106eeb2dfde18ba" target="_top" xlink:title="Prints the current logging level to the console.">
<polygon fill="none" stroke="black" points="897,-74.65 897,-93.65 986,-93.65 986,-74.65 897,-74.65"/>
<text text-anchor="middle" x="941.5" y="-81.65" font-family="Helvetica,sans-Serif" font-size="10.00">print_log_level</text>
</a>
</g>
</g>
<!-- Node1&#45;&gt;Node19 -->
<g id="edge30" class="edge">
<title>Node1&#45;&gt;Node19</title>
<path fill="none" stroke="midnightblue" d="M1096.58,-297.57C1092.54,-256.43 1077.38,-160.53 1022,-108.15 1012.26,-98.94 999.1,-93.25 986.3,-89.74"/>
<polygon fill="midnightblue" stroke="midnightblue" points="1093.1,-297.97 1097.45,-307.63 1100.08,-297.37 1093.1,-297.97"/>
</g>
<!-- Node21 -->
<g id="node21" class="node">
<title>Node21</title>
<g id="a_node21"><a xlink:href="logging_8c.html#af2d563ccb13b1830a29ad7d13647eecc" target="_top" xlink:title="Logs the performance summary for the current timestep and resets timers.">
<polygon fill="none" stroke="black" points="446,-36.65 446,-55.65 613,-55.65 613,-36.65 446,-36.65"/>
<text text-anchor="middle" x="529.5" y="-43.65" font-family="Helvetica,sans-Serif" font-size="10.00">ProfilingLogTimestepSummary</text>
</a>
</g>
</g>
<!-- Node1&#45;&gt;Node21 -->
<g id="edge33" class="edge">
<title>Node1&#45;&gt;Node21</title>
<path fill="none" stroke="midnightblue" d="M1095.03,-297.47C1086.44,-243.35 1059.71,-94.31 1022,-65.15 881.16,43.77 643.7,-12.13 560.44,-36.62"/>
<polygon fill="midnightblue" stroke="midnightblue" points="1091.6,-298.16 1096.59,-307.51 1098.52,-297.09 1091.6,-298.16"/>
</g>
<!-- Node22 -->
<g id="node22" class="node">
<title>Node22</title>
<g id="a_node22"><a xlink:href="walkingsearch_8c.html#ae8ed9e0a01de5ee0f332170562b1f9ea" target="_top" xlink:title="Updates the cell indices based on the signed distances to each face.">
<polygon fill="none" stroke="black" points="867,-151.15 867,-181.15 1016,-181.15 1016,-151.15 867,-151.15"/>
<text text-anchor="start" x="875" y="-169.15" font-family="Helvetica,sans-Serif" font-size="10.00">UpdateCellIndicesBasedOn</text>
<text text-anchor="middle" x="941.5" y="-158.15" font-family="Helvetica,sans-Serif" font-size="10.00">DistancesTEST</text>
</a>
</g>
</g>
<!-- Node1&#45;&gt;Node22 -->
<g id="edge36" class="edge">
<title>Node1&#45;&gt;Node22</title>
<path fill="none" stroke="midnightblue" d="M1091.3,-297.58C1080.83,-269.87 1057.99,-219.45 1022,-191.15 1017.11,-187.3 1011.62,-184.04 1005.87,-181.28"/>
<polygon fill="midnightblue" stroke="midnightblue" points="1088.13,-299.09 1094.82,-307.31 1094.71,-296.71 1088.13,-299.09"/>
</g>
<!-- Node23 -->
<g id="node23" class="node">
<title>Node23</title>
<g id="a_node23"><a xlink:href="setup_8c.html#ad5f82951adcce74b3d37cb5880acf43a" target="_top" xlink:title="Updates the local vector (including ghost points) from its corresponding global vector.">
<polygon fill="none" stroke="black" points="886,-668.65 886,-687.65 997,-687.65 997,-668.65 886,-668.65"/>
<text text-anchor="middle" x="941.5" y="-675.65" font-family="Helvetica,sans-Serif" font-size="10.00">UpdateLocalGhosts</text>
</a>
</g>
</g>
<!-- Node1&#45;&gt;Node23 -->
<g id="edge38" class="edge">
<title>Node1&#45;&gt;Node23</title>
<path fill="none" stroke="midnightblue" d="M1089.87,-336.02C1061.49,-401.9 967.41,-620.31 946.6,-668.63"/>
<polygon fill="midnightblue" stroke="midnightblue" points="1093.1,-337.37 1093.84,-326.8 1086.67,-334.6 1093.1,-337.37"/>
</g>
<!-- Node3 -->
<g id="node3" class="node">
<title>Node3</title>
<g id="a_node3"><a xlink:href="picsolver_8c.html#a3c04138a5bfe5d72780bb7e82a18e627" target="_top" xlink:title=" ">
<polygon fill="none" stroke="black" points="0,-313.65 0,-332.65 41,-332.65 41,-313.65 0,-313.65"/>
<text text-anchor="middle" x="20.5" y="-320.65" font-family="Helvetica,sans-Serif" font-size="10.00">main</text>
</a>
</g>
</g>
<!-- Node2&#45;&gt;Node3 -->
<g id="edge2" class="edge">
<title>Node2&#45;&gt;Node3</title>
<path fill="none" stroke="midnightblue" d="M264.44,-257.82C212.25,-258.01 137.92,-262.94 77,-285.15 59.67,-291.47 42.59,-304.46 32.05,-313.48"/>
<polygon fill="midnightblue" stroke="midnightblue" points="264.57,-261.32 274.57,-257.85 264.58,-254.32 264.57,-261.32"/>
</g>
<!-- Node5 -->
<g id="node5" class="node">
<title>Node5</title>
<g id="a_node5"><a xlink:href="setup_8c.html#a2be2815aeb79afe9b95caf39c7b3312c" target="_top" xlink:title="The main orchestrator for setting up all grid&#45;related components.">
<polygon fill="none" stroke="black" points="271,-927.65 271,-946.65 390,-946.65 390,-927.65 271,-927.65"/>
<text text-anchor="middle" x="330.5" y="-934.65" font-family="Helvetica,sans-Serif" font-size="10.00">SetupGridAndSolvers</text>
</a>
</g>
</g>
<!-- Node4&#45;&gt;Node5 -->
<g id="edge4" class="edge">
<title>Node4&#45;&gt;Node5</title>
<path fill="none" stroke="midnightblue" d="M476.16,-1019.81C465.32,-1016.56 454.13,-1012.67 444,-1008.15 405.19,-990.83 364.05,-961.73 343.98,-946.73"/>
<polygon fill="midnightblue" stroke="midnightblue" points="475.39,-1023.23 485.97,-1022.62 477.32,-1016.5 475.39,-1023.23"/>
</g>
<!-- Node5&#45;&gt;Node3 -->
<g id="edge5" class="edge">
<title>Node5&#45;&gt;Node3</title>
<path fill="none" stroke="midnightblue" d="M319.09,-918.48C283.55,-854.47 164.38,-637.72 77,-453.15 56,-408.79 33.94,-354.4 25.29,-332.72"/>
<polygon fill="midnightblue" stroke="midnightblue" points="316.14,-920.37 324.06,-927.41 322.26,-916.97 316.14,-920.37"/>
</g>
<!-- Node7 -->
<g id="node7" class="node">
<title>Node7</title>
<g id="a_node7"><a xlink:href="ParticleSwarm_8c.html#ada215a5db25227a8fd2cd2596e7d3e57" target="_top" xlink:title="Perform particle swarm initialization, particle&#45;grid interaction, and related operations.">
<polygon fill="none" stroke="black" points="82.5,-928.65 82.5,-947.65 211.5,-947.65 211.5,-928.65 82.5,-928.65"/>
<text text-anchor="middle" x="147" y="-935.65" font-family="Helvetica,sans-Serif" font-size="10.00">InitializeParticleSwarm</text>
</a>
</g>
</g>
<!-- Node6&#45;&gt;Node7 -->
<g id="edge7" class="edge">
<title>Node6&#45;&gt;Node7</title>
<path fill="none" stroke="midnightblue" d="M871.44,-1074.53C774.76,-1079.07 594.04,-1081.79 444,-1051.15 334.6,-1028.8 212.58,-970.84 166.74,-947.8"/>
<polygon fill="midnightblue" stroke="midnightblue" points="871.86,-1078.01 881.67,-1074.02 871.51,-1071.02 871.86,-1078.01"/>
</g>
<!-- Node7&#45;&gt;Node3 -->
<g id="edge8" class="edge">
<title>Node7&#45;&gt;Node3</title>
<path fill="none" stroke="midnightblue" d="M135.51,-919.54C120,-891.11 91.24,-834.71 77,-783.15 28.39,-607.14 22.35,-381.59 21.6,-332.74"/>
<polygon fill="midnightblue" stroke="midnightblue" points="132.49,-921.33 140.4,-928.38 138.62,-917.94 132.49,-921.33"/>
</g>
<!-- Node9 -->
<g id="node9" class="node">
<title>Node9</title>
<g id="a_node9"><a xlink:href="walkingsearch_8c.html#a0b63dfe82e0fdee5c2c3bdd477f9901f" target="_top" xlink:title="Locates a particle&#39;s host cell or identifies its migration target using a robust walk search.">
<polygon fill="none" stroke="black" points="656.5,-195.15 656.5,-225.15 819.5,-225.15 819.5,-195.15 656.5,-195.15"/>
<text text-anchor="start" x="664.5" y="-213.15" font-family="Helvetica,sans-Serif" font-size="10.00">LocateParticleOrFindMigration</text>
<text text-anchor="middle" x="738" y="-202.15" font-family="Helvetica,sans-Serif" font-size="10.00">Target_TEST</text>
</a>
</g>
</g>
<!-- Node8&#45;&gt;Node9 -->
<g id="edge10" class="edge">
<title>Node8&#45;&gt;Node9</title>
<path fill="none" stroke="midnightblue" d="M863.66,-210.15C849.33,-210.15 834.31,-210.15 819.85,-210.15"/>
<polygon fill="midnightblue" stroke="midnightblue" points="863.96,-213.65 873.96,-210.15 863.96,-206.65 863.96,-213.65"/>
</g>
<!-- Node10 -->
<g id="node10" class="node">
<title>Node10</title>
<g id="a_node10"><a xlink:href="ParticleMotion_8c.html#a727054a4a467fd8504a19caed5a5916b" target="_top" xlink:title="Orchestrates the complete particle location and migration process for one timestep.">
<polygon fill="none" stroke="black" points="448.5,-250.65 448.5,-269.65 610.5,-269.65 610.5,-250.65 448.5,-250.65"/>
<text text-anchor="middle" x="529.5" y="-257.65" font-family="Helvetica,sans-Serif" font-size="10.00">LocateAllParticlesInGrid_TEST</text>
</a>
</g>
</g>
<!-- Node9&#45;&gt;Node10 -->
<g id="edge11" class="edge">
<title>Node9&#45;&gt;Node10</title>
<path fill="none" stroke="midnightblue" d="M665.28,-227.51C633.31,-235.26 596.87,-244.08 569.95,-250.6"/>
<polygon fill="midnightblue" stroke="midnightblue" points="666.15,-230.91 675.04,-225.15 664.5,-224.1 666.15,-230.91"/>
</g>
<!-- Node10&#45;&gt;Node2 -->
<g id="edge12" class="edge">
<title>Node10&#45;&gt;Node2</title>
<path fill="none" stroke="midnightblue" d="M438.02,-260.15C420.34,-260.15 402.32,-260.15 386.24,-260.15"/>
<polygon fill="midnightblue" stroke="midnightblue" points="438.37,-263.65 448.37,-260.15 438.37,-256.65 438.37,-263.65"/>
</g>
<!-- Node10&#45;&gt;Node11 -->
<g id="edge13" class="edge">
<title>Node10&#45;&gt;Node11</title>
<path fill="none" stroke="midnightblue" d="M456.41,-273.21C452.1,-274.94 447.93,-276.92 444,-279.15 423.77,-290.64 427.66,-304.71 408,-317.15 401.98,-320.96 395.32,-324.24 388.52,-327.06"/>
<polygon fill="midnightblue" stroke="midnightblue" points="457.77,-276.43 465.99,-269.76 455.4,-269.85 457.77,-276.43"/>
</g>
<!-- Node10&#45;&gt;Node13 -->
<g id="edge17" class="edge">
<title>Node10&#45;&gt;Node13</title>
<path fill="none" stroke="midnightblue" d="M468.94,-271.64C440.83,-277.06 407.68,-283.45 380.98,-288.61"/>
<polygon fill="midnightblue" stroke="midnightblue" points="469.89,-275.02 479.04,-269.69 468.56,-268.15 469.89,-275.02"/>
</g>
<!-- Node11&#45;&gt;Node3 -->
<g id="edge16" class="edge">
<title>Node11&#45;&gt;Node3</title>
<path fill="none" stroke="midnightblue" d="M250.23,-337.26C180.06,-332.93 82.57,-326.92 41.26,-324.37"/>
<polygon fill="midnightblue" stroke="midnightblue" points="250.18,-340.76 260.38,-337.88 250.61,-333.78 250.18,-340.76"/>
</g>
<!-- Node12 -->
<g id="node12" class="node">
<title>Node12</title>
<g id="a_node12"><a xlink:href="simulation_8c.html#a7bc2bae7b01f179706b367c8637534c2" target="_top" xlink:title="Performs post&#45;load/post&#45;init consistency checks for a restarted simulation.">
<polygon fill="none" stroke="black" points="90,-294.65 90,-313.65 204,-313.65 204,-294.65 90,-294.65"/>
<text text-anchor="middle" x="147" y="-301.65" font-family="Helvetica,sans-Serif" font-size="10.00">FinalizeRestartState</text>
</a>
</g>
</g>
<!-- Node11&#45;&gt;Node12 -->
<g id="edge14" class="edge">
<title>Node11&#45;&gt;Node12</title>
<path fill="none" stroke="midnightblue" d="M250.31,-325.57C230.93,-321.51 210.83,-317.3 193.63,-313.7"/>
<polygon fill="midnightblue" stroke="midnightblue" points="249.86,-329.05 260.36,-327.67 251.29,-322.2 249.86,-329.05"/>
</g>
<!-- Node12&#45;&gt;Node3 -->
<g id="edge15" class="edge">
<title>Node12&#45;&gt;Node3</title>
<path fill="none" stroke="midnightblue" d="M79.7,-314.27C65.64,-316.41 51.86,-318.52 41.24,-320.14"/>
<polygon fill="midnightblue" stroke="midnightblue" points="80.58,-317.67 89.94,-312.7 79.53,-310.75 80.58,-317.67"/>
</g>
<!-- Node13&#45;&gt;Node12 -->
<g id="edge18" class="edge">
<title>Node13&#45;&gt;Node12</title>
<path fill="none" stroke="midnightblue" d="M242.77,-301.02C229.61,-301.45 216.34,-301.89 204.06,-302.3"/>
<polygon fill="midnightblue" stroke="midnightblue" points="242.91,-304.51 252.79,-300.68 242.68,-297.52 242.91,-304.51"/>
</g>
<!-- Node14&#45;&gt;Node5 -->
<g id="edge20" class="edge">
<title>Node14&#45;&gt;Node5</title>
<path fill="none" stroke="midnightblue" d="M929.67,-873.63C911.95,-901.8 873.79,-954.39 825,-975.15 657.96,-1046.22 430.55,-974.12 356.15,-946.74"/>
<polygon fill="midnightblue" stroke="midnightblue" points="932.85,-875.14 935.07,-864.78 926.87,-871.49 932.85,-875.14"/>
</g>
<!-- Node16 -->
<g id="node16" class="node">
<title>Node16</title>
<g id="a_node16"><a xlink:href="interpolation_8c.html#a25d384c0bcf5426864f90ab568e37511" target="_top" xlink:title="Interpolates all relevant fields from the DMDA to the DMSwarm.">
<polygon fill="none" stroke="black" points="452,-288.65 452,-307.65 607,-307.65 607,-288.65 452,-288.65"/>
<text text-anchor="middle" x="529.5" y="-295.65" font-family="Helvetica,sans-Serif" font-size="10.00">InterpolateAllFieldsToSwarm</text>
</a>
</g>
</g>
<!-- Node15&#45;&gt;Node16 -->
<g id="edge22" class="edge">
<title>Node15&#45;&gt;Node16</title>
<path fill="none" stroke="midnightblue" d="M850.87,-298.15C777.96,-298.15 676.18,-298.15 607.04,-298.15"/>
<polygon fill="midnightblue" stroke="midnightblue" points="850.96,-301.65 860.96,-298.15 850.96,-294.65 850.96,-301.65"/>
</g>
<!-- Node16&#45;&gt;Node2 -->
<g id="edge23" class="edge">
<title>Node16&#45;&gt;Node2</title>
<path fill="none" stroke="midnightblue" d="M468.94,-286.66C440.83,-281.24 407.68,-274.84 380.98,-269.69"/>
<polygon fill="midnightblue" stroke="midnightblue" points="468.56,-290.15 479.04,-288.61 469.89,-283.28 468.56,-290.15"/>
</g>
<!-- Node16&#45;&gt;Node11 -->
<g id="edge24" class="edge">
<title>Node16&#45;&gt;Node11</title>
<path fill="none" stroke="midnightblue" d="M475.93,-309.89C452.29,-315.17 424.12,-321.46 398.95,-327.08"/>
<polygon fill="midnightblue" stroke="midnightblue" points="476.76,-313.29 485.75,-307.7 475.23,-306.46 476.76,-313.29"/>
</g>
<!-- Node16&#45;&gt;Node13 -->
<g id="edge25" class="edge">
<title>Node16&#45;&gt;Node13</title>
<path fill="none" stroke="midnightblue" d="M441.58,-298.15C430.4,-298.15 419.02,-298.15 408.02,-298.15"/>
<polygon fill="midnightblue" stroke="midnightblue" points="441.77,-301.65 451.77,-298.15 441.77,-294.65 441.77,-301.65"/>
</g>
<!-- Node20 -->
<g id="node20" class="node">
<title>Node20</title>
<g id="a_node20"><a xlink:href="setup_8c.html#a977df65dac293c1308451334cb198693" target="_top" xlink:title="Allocates and populates the master SimulationContext object.">
<polygon fill="none" stroke="black" points="77,-146.65 77,-165.65 217,-165.65 217,-146.65 77,-146.65"/>
<text text-anchor="middle" x="147" y="-153.65" font-family="Helvetica,sans-Serif" font-size="10.00">CreateSimulationContext</text>
</a>
</g>
</g>
<!-- Node19&#45;&gt;Node20 -->
<g id="edge31" class="edge">
<title>Node19&#45;&gt;Node20</title>
<path fill="none" stroke="midnightblue" d="M886.72,-89.03C747.05,-101.72 372.82,-135.72 217.28,-149.85"/>
<polygon fill="midnightblue" stroke="midnightblue" points="887.12,-92.51 896.76,-88.12 886.49,-85.54 887.12,-92.51"/>
</g>
<!-- Node20&#45;&gt;Node3 -->
<g id="edge32" class="edge">
<title>Node20&#45;&gt;Node3</title>
<path fill="none" stroke="midnightblue" d="M132.29,-174.54C105.9,-209.94 48.86,-286.45 28.72,-313.46"/>
<polygon fill="midnightblue" stroke="midnightblue" points="135.41,-176.2 138.58,-166.1 129.8,-172.02 135.41,-176.2"/>
</g>
<!-- Node21&#45;&gt;Node2 -->
<g id="edge34" class="edge">
<title>Node21&#45;&gt;Node2</title>
<path fill="none" stroke="midnightblue" d="M503.8,-61.39C486.09,-72.99 462.23,-90 444,-108.15 396.08,-155.87 352.43,-225.21 337.21,-250.48"/>
<polygon fill="midnightblue" stroke="midnightblue" points="505.92,-64.19 512.45,-55.85 502.14,-58.3 505.92,-64.19"/>
</g>
<!-- Node21&#45;&gt;Node3 -->
<g id="edge35" class="edge">
<title>Node21&#45;&gt;Node3</title>
<path fill="none" stroke="midnightblue" d="M435.57,-36.01C332.21,-30.4 167.85,-39.34 77,-137.15 28.15,-189.74 22.17,-283.58 21.54,-313.62"/>
<polygon fill="midnightblue" stroke="midnightblue" points="435.5,-39.52 445.69,-36.62 435.92,-32.53 435.5,-39.52"/>
</g>
<!-- Node22&#45;&gt;Node9 -->
<g id="edge37" class="edge">
<title>Node22&#45;&gt;Node9</title>
<path fill="none" stroke="midnightblue" d="M861.91,-183.31C844.06,-187.21 825.23,-191.32 807.81,-195.12"/>
<polygon fill="midnightblue" stroke="midnightblue" points="862.7,-186.72 871.72,-181.17 861.2,-179.88 862.7,-186.72"/>
</g>
<!-- Node24 -->
<g id="node24" class="node">
<title>Node24</title>
<g id="a_node24"><a xlink:href="Metric_8c.html#a436bb94905ee06971f632571f5bc8cbb" target="_top" xlink:title="Ensure a right&#45;handed metric basis (Csi, Eta, Zet) and a positive Jacobian (Aj) over the whole domain...">
<polygon fill="none" stroke="black" points="661,-794.65 661,-813.65 815,-813.65 815,-794.65 661,-794.65"/>
<text text-anchor="middle" x="738" y="-801.65" font-family="Helvetica,sans-Serif" font-size="10.00">CheckAndFixGridOrientation</text>
</a>
</g>
</g>
<!-- Node23&#45;&gt;Node24 -->
<g id="edge39" class="edge">
<title>Node23&#45;&gt;Node24</title>
<path fill="none" stroke="midnightblue" d="M926.62,-695.92C906.77,-720.04 867.92,-762.68 825,-785.15 817.55,-789.05 809.33,-792.15 801.02,-794.62"/>
<polygon fill="midnightblue" stroke="midnightblue" points="929.49,-697.93 933.04,-687.95 924.04,-693.54 929.49,-697.93"/>
</g>
<!-- Node26 -->
<g id="node26" class="node">
<title>Node26</title>
<g id="a_node26"><a xlink:href="Metric_8c.html#a92d28e2f14645b0eb563144f4ccf2b49" target="_top" xlink:title="Calculates the cell&#45;centered inverse Jacobian determinant (1/J), including boundary extrapolation,...">
<polygon fill="none" stroke="black" points="655.5,-745.15 655.5,-775.15 820.5,-775.15 820.5,-745.15 655.5,-745.15"/>
<text text-anchor="start" x="663.5" y="-763.15" font-family="Helvetica,sans-Serif" font-size="10.00">ComputeCellCenteredJacobian</text>
<text text-anchor="middle" x="738" y="-752.15" font-family="Helvetica,sans-Serif" font-size="10.00">Inverse</text>
</a>
</g>
</g>
<!-- Node23&#45;&gt;Node26 -->
<g id="edge42" class="edge">
<title>Node23&#45;&gt;Node26</title>
<path fill="none" stroke="midnightblue" d="M914.51,-692.62C891.48,-705.04 856.69,-722.83 825,-735.15 815.72,-738.75 805.71,-742.12 795.91,-745.14"/>
<polygon fill="midnightblue" stroke="midnightblue" points="916.21,-695.68 923.32,-687.82 912.86,-689.53 916.21,-695.68"/>
</g>
<!-- Node27 -->
<g id="node27" class="node">
<title>Node27</title>
<g id="a_node27"><a xlink:href="Metric_8c.html#a46e70c0ae8f36f97321c5c892fc56be5" target="_top" xlink:title="Computes the physical location of cell centers and the spacing between them.">
<polygon fill="none" stroke="black" points="651,-706.65 651,-725.65 825,-725.65 825,-706.65 651,-706.65"/>
<text text-anchor="middle" x="738" y="-713.65" font-family="Helvetica,sans-Serif" font-size="10.00">ComputeCellCentersAndSpacing</text>
</a>
</g>
</g>
<!-- Node23&#45;&gt;Node27 -->
<g id="edge44" class="edge">
<title>Node23&#45;&gt;Node27</title>
<path fill="none" stroke="midnightblue" d="M879.95,-689.57C851.12,-695 817.04,-701.43 789.61,-706.61"/>
<polygon fill="midnightblue" stroke="midnightblue" points="880.73,-692.98 889.91,-687.69 879.44,-686.1 880.73,-692.98"/>
</g>
<!-- Node28 -->
<g id="node28" class="node">
<title>Node28</title>
<g id="a_node28"><a xlink:href="Metric_8c.html#a6f0dfb324211e230a387501f93cfd316" target="_top" xlink:title="Computes the primary face metric components (Csi, Eta, Zet), including boundary extrapolation,...">
<polygon fill="none" stroke="black" points="678.5,-946.65 678.5,-965.65 797.5,-965.65 797.5,-946.65 678.5,-946.65"/>
<text text-anchor="middle" x="738" y="-953.65" font-family="Helvetica,sans-Serif" font-size="10.00">ComputeFaceMetrics</text>
</a>
</g>
</g>
<!-- Node23&#45;&gt;Node28 -->
<g id="edge46" class="edge">
<title>Node23&#45;&gt;Node28</title>
<path fill="none" stroke="midnightblue" d="M930.05,-697.01C914.06,-726.28 883.04,-784.63 861,-836.15 842.25,-879.96 860.74,-905.62 825,-937.15 817.32,-943.93 807.77,-948.46 797.85,-951.45"/>
<polygon fill="midnightblue" stroke="midnightblue" points="933.29,-698.38 935.04,-687.93 927.16,-695.01 933.29,-698.38"/>
</g>
<!-- Node29 -->
<g id="node29" class="node">
<title>Node29</title>
<g id="a_node29"><a xlink:href="Metric_8c.html#af935307ea3e9727a63b6ef9a3932caa8" target="_top" xlink:title="Computes metrics centered on constant&#45;i faces (i&#45;faces).">
<polygon fill="none" stroke="black" points="677,-908.65 677,-927.65 799,-927.65 799,-908.65 677,-908.65"/>
<text text-anchor="middle" x="738" y="-915.65" font-family="Helvetica,sans-Serif" font-size="10.00">ComputeIFaceMetrics</text>
</a>
</g>
</g>
<!-- Node23&#45;&gt;Node29 -->
<g id="edge48" class="edge">
<title>Node23&#45;&gt;Node29</title>
<path fill="none" stroke="midnightblue" d="M931.18,-697.02C905.32,-749.24 833.98,-892.27 825,-899.15 817.47,-904.91 808.55,-909 799.34,-911.88"/>
<polygon fill="midnightblue" stroke="midnightblue" points="934.42,-698.37 935.71,-687.85 928.14,-695.27 934.42,-698.37"/>
</g>
<!-- Node30 -->
<g id="node30" class="node">
<title>Node30</title>
<g id="a_node30"><a xlink:href="Metric_8c.html#a4ecbe44ffb23d82193f9278ab61c1b47" target="_top" xlink:title="Computes metrics centered on constant&#45;j faces (j&#45;faces).">
<polygon fill="none" stroke="black" points="677,-870.65 677,-889.65 799,-889.65 799,-870.65 677,-870.65"/>
<text text-anchor="middle" x="738" y="-877.65" font-family="Helvetica,sans-Serif" font-size="10.00">ComputeJFaceMetrics</text>
</a>
</g>
</g>
<!-- Node23&#45;&gt;Node30 -->
<g id="edge50" class="edge">
<title>Node23&#45;&gt;Node30</title>
<path fill="none" stroke="midnightblue" d="M933.92,-697.86C920.16,-735.87 884.59,-819.27 825,-861.15 817.37,-866.51 808.49,-870.4 799.4,-873.21"/>
<polygon fill="midnightblue" stroke="midnightblue" points="937.37,-698.6 937.36,-688.01 930.76,-696.3 937.37,-698.6"/>
</g>
<!-- Node31 -->
<g id="node31" class="node">
<title>Node31</title>
<g id="a_node31"><a xlink:href="Metric_8c.html#a95e22e5238b2cd02b992366766730687" target="_top" xlink:title="Computes metrics centered on constant&#45;k faces (k&#45;faces).">
<polygon fill="none" stroke="black" points="675,-832.65 675,-851.65 801,-851.65 801,-832.65 675,-832.65"/>
<text text-anchor="middle" x="738" y="-839.65" font-family="Helvetica,sans-Serif" font-size="10.00">ComputeKFaceMetrics</text>
</a>
</g>
</g>
<!-- Node23&#45;&gt;Node31 -->
<g id="edge52" class="edge">
<title>Node23&#45;&gt;Node31</title>
<path fill="none" stroke="midnightblue" d="M931.16,-696.78C914.43,-728.15 876.25,-791.18 825,-823.15 817.74,-827.68 809.53,-831.14 801.15,-833.78"/>
<polygon fill="midnightblue" stroke="midnightblue" points="934.33,-698.28 935.83,-687.79 928.12,-695.06 934.33,-698.28"/>
</g>
<!-- Node32 -->
<g id="node32" class="node">
<title>Node32</title>
<g id="a_node32"><a xlink:href="postprocessing__kernels_8c.html#ad5b0c0f1721b13944b83a57f2471cd02" target="_top" xlink:title="Computes node&#45;centered data by averaging 8 surrounding cell&#45;centered values, exactly replicating the ...">
<polygon fill="none" stroke="black" points="673.5,-516.65 673.5,-535.65 802.5,-535.65 802.5,-516.65 673.5,-516.65"/>
<text text-anchor="middle" x="738" y="-523.65" font-family="Helvetica,sans-Serif" font-size="10.00">ComputeNodalAverage</text>
</a>
</g>
</g>
<!-- Node23&#45;&gt;Node32 -->
<g id="edge54" class="edge">
<title>Node23&#45;&gt;Node32</title>
<path fill="none" stroke="midnightblue" d="M930.02,-659.84C912.32,-630.7 873.65,-574.08 825,-545.15 818.17,-541.08 810.56,-537.89 802.78,-535.37"/>
<polygon fill="midnightblue" stroke="midnightblue" points="927.09,-661.77 935.2,-668.6 933.12,-658.21 927.09,-661.77"/>
</g>
<!-- Node34 -->
<g id="node34" class="node">
<title>Node34</title>
<g id="a_node34"><a xlink:href="postprocessing__kernels_8c.html#a303c5afb89d6fdaab3e40f9371d8f1b2" target="_top" xlink:title="Computes the Q&#45;Criterion, a scalar value identifying vortex cores.">
<polygon fill="none" stroke="black" points="683,-554.65 683,-573.65 793,-573.65 793,-554.65 683,-554.65"/>
<text text-anchor="middle" x="738" y="-561.65" font-family="Helvetica,sans-Serif" font-size="10.00">ComputeQCriterion</text>
</a>
</g>
</g>
<!-- Node23&#45;&gt;Node34 -->
<g id="edge57" class="edge">
<title>Node23&#45;&gt;Node34</title>
<path fill="none" stroke="midnightblue" d="M924.97,-661.16C904.29,-639.61 865.58,-602.89 825,-583.15 815.1,-578.33 803.97,-574.72 793.08,-572.02"/>
<polygon fill="midnightblue" stroke="midnightblue" points="922.58,-663.73 931.98,-668.61 927.68,-658.93 922.58,-663.73"/>
</g>
<!-- Node35 -->
<g id="node35" class="node">
<title>Node35</title>
<g id="a_node35"><a xlink:href="initialcondition_8c.html#af6a26611066aa455efddcca2fd80fe35" target="_top" xlink:title="(HELPER) Finalizes a block&#39;s state by applying BCs, converting to Cartesian, and synchronizing ghost ...">
<polygon fill="none" stroke="black" points="685,-592.65 685,-611.65 791,-611.65 791,-592.65 685,-592.65"/>
<text text-anchor="middle" x="738" y="-599.65" font-family="Helvetica,sans-Serif" font-size="10.00">FinalizeBlockState</text>
</a>
</g>
</g>
<!-- Node23&#45;&gt;Node35 -->
<g id="edge59" class="edge">
<title>Node23&#45;&gt;Node35</title>
<path fill="none" stroke="midnightblue" d="M912.45,-664.08C889.36,-652.86 855.57,-637.23 825,-626.15 809.84,-620.66 792.81,-615.67 777.92,-611.68"/>
<polygon fill="midnightblue" stroke="midnightblue" points="911.14,-667.34 921.65,-668.6 914.22,-661.05 911.14,-667.34"/>
</g>
<!-- Node36 -->
<g id="node36" class="node">
<title>Node36</title>
<g id="a_node36"><a xlink:href="initialcondition_8c.html#a51d0251f84a962a611ff0c0a8797a3e4" target="_top" xlink:title="(HELPER) Sets the t=0 fluid state for all blocks.">
<polygon fill="none" stroke="black" points="474.5,-595.15 474.5,-625.15 584.5,-625.15 584.5,-595.15 474.5,-595.15"/>
<text text-anchor="start" x="482.5" y="-613.15" font-family="Helvetica,sans-Serif" font-size="10.00">SetInitialFluidState</text>
<text text-anchor="middle" x="529.5" y="-602.15" font-family="Helvetica,sans-Serif" font-size="10.00">_FreshStart</text>
</a>
</g>
</g>
<!-- Node23&#45;&gt;Node36 -->
<g id="edge65" class="edge">
<title>Node23&#45;&gt;Node36</title>
<path fill="none" stroke="midnightblue" d="M875.63,-667.39C795.27,-654.06 659.81,-631.6 584.72,-619.14"/>
<polygon fill="midnightblue" stroke="midnightblue" points="875.19,-670.87 885.63,-669.05 876.34,-663.96 875.19,-670.87"/>
</g>
<!-- Node38 -->
<g id="node38" class="node">
<title>Node38</title>
<g id="a_node38"><a xlink:href="solvers_8c.html#a2ed4825273a593f371a3d48071708255" target="_top" xlink:title="Orchestrates a single time step of the Eulerian fluid solver.">
<polygon fill="none" stroke="black" points="491.5,-440.65 491.5,-459.65 567.5,-459.65 567.5,-440.65 491.5,-440.65"/>
<text text-anchor="middle" x="529.5" y="-447.65" font-family="Helvetica,sans-Serif" font-size="10.00">Flow_Solver</text>
</a>
</g>
</g>
<!-- Node23&#45;&gt;Node38 -->
<g id="edge63" class="edge">
<title>Node23&#45;&gt;Node38</title>
<path fill="none" stroke="midnightblue" d="M933.43,-659.08C919.02,-623.07 882.67,-545.26 825,-507.15 814.26,-500.05 644.39,-469.91 567.64,-456.56"/>
<polygon fill="midnightblue" stroke="midnightblue" points="930.18,-660.38 937.05,-668.44 936.71,-657.85 930.18,-660.38"/>
</g>
<!-- Node39 -->
<g id="node39" class="node">
<title>Node39</title>
<g id="a_node39"><a xlink:href="initialcondition_8c.html#a095ad9c41ee9300bcfa152c411835a91" target="_top" xlink:title="(HELPER) Reads fluid state for all blocks from restart files.">
<polygon fill="none" stroke="black" points="460.5,-652.65 460.5,-671.65 598.5,-671.65 598.5,-652.65 460.5,-652.65"/>
<text text-anchor="middle" x="529.5" y="-659.65" font-family="Helvetica,sans-Serif" font-size="10.00">SetInitialFluidState_Load</text>
</a>
</g>
</g>
<!-- Node23&#45;&gt;Node39 -->
<g id="edge66" class="edge">
<title>Node23&#45;&gt;Node39</title>
<path fill="none" stroke="midnightblue" d="M875.29,-675.6C799.66,-672.65 675.56,-667.81 598.69,-664.81"/>
<polygon fill="midnightblue" stroke="midnightblue" points="875.5,-679.12 885.63,-676.01 875.78,-672.12 875.5,-679.12"/>
</g>
<!-- Node40 -->
<g id="node40" class="node">
<title>Node40</title>
<g id="a_node40"><a xlink:href="poisson_8c.html#a7cf2cfc0383ba0076f827f7d3856f2ed" target="_top" xlink:title="Updates the pressure field and handles periodic boundary conditions.">
<polygon fill="none" stroke="black" points="691,-440.65 691,-459.65 785,-459.65 785,-440.65 691,-440.65"/>
<text text-anchor="middle" x="738" y="-447.65" font-family="Helvetica,sans-Serif" font-size="10.00">UpdatePressure</text>
</a>
</g>
</g>
<!-- Node23&#45;&gt;Node40 -->
<g id="edge68" class="edge">
<title>Node23&#45;&gt;Node40</title>
<path fill="none" stroke="midnightblue" d="M934.97,-658.47C922.48,-617.67 888.13,-523.54 825,-474.15 813.65,-465.27 799.19,-459.67 785.39,-456.14"/>
<polygon fill="midnightblue" stroke="midnightblue" points="931.68,-659.67 937.86,-668.28 938.39,-657.69 931.68,-659.67"/>
</g>
<!-- Node25 -->
<g id="node25" class="node">
<title>Node25</title>
<g id="a_node25"><a xlink:href="Metric_8c.html#a063043da47b68702c78c7e0769325b36" target="_top" xlink:title="Orchestrates the calculation of all grid metrics.">
<polygon fill="none" stroke="black" points="464,-851.65 464,-870.65 595,-870.65 595,-851.65 464,-851.65"/>
<text text-anchor="middle" x="529.5" y="-858.65" font-family="Helvetica,sans-Serif" font-size="10.00">CalculateAllGridMetrics</text>
</a>
</g>
</g>
<!-- Node24&#45;&gt;Node25 -->
<g id="edge40" class="edge">
<title>Node24&#45;&gt;Node25</title>
<path fill="none" stroke="midnightblue" d="M680.62,-815.86C670.71,-818.13 660.53,-820.6 651,-823.15 619,-831.71 582.83,-843.39 558.54,-851.54"/>
<polygon fill="midnightblue" stroke="midnightblue" points="681.41,-819.27 690.4,-813.66 679.88,-812.44 681.41,-819.27"/>
</g>
<!-- Node25&#45;&gt;Node5 -->
<g id="edge41" class="edge">
<title>Node25&#45;&gt;Node5</title>
<path fill="none" stroke="midnightblue" d="M494.08,-874.43C454.67,-889.63 391.07,-914.17 356.25,-927.6"/>
<polygon fill="midnightblue" stroke="midnightblue" points="495.48,-877.64 503.55,-870.77 492.96,-871.11 495.48,-877.64"/>
</g>
<!-- Node26&#45;&gt;Node25 -->
<g id="edge43" class="edge">
<title>Node26&#45;&gt;Node25</title>
<path fill="none" stroke="midnightblue" d="M667.46,-778.52C661.82,-780.57 656.27,-782.78 651,-785.15 609.05,-804.03 564.45,-835.59 543.19,-851.44"/>
<polygon fill="midnightblue" stroke="midnightblue" points="668.69,-781.8 677,-775.24 666.41,-775.19 668.69,-781.8"/>
</g>
<!-- Node27&#45;&gt;Node25 -->
<g id="edge45" class="edge">
<title>Node27&#45;&gt;Node25</title>
<path fill="none" stroke="midnightblue" d="M666.37,-729C661.02,-731.04 655.83,-733.41 651,-736.15 597.52,-766.5 552.75,-827.85 536.78,-851.53"/>
<polygon fill="midnightblue" stroke="midnightblue" points="667.79,-732.21 676.12,-725.66 665.53,-725.59 667.79,-732.21"/>
</g>
<!-- Node28&#45;&gt;Node25 -->
<g id="edge47" class="edge">
<title>Node28&#45;&gt;Node25</title>
<path fill="none" stroke="midnightblue" d="M670.71,-943.95C663.95,-941.98 657.27,-939.73 651,-937.15 608.22,-919.56 563.64,-887.12 542.72,-870.9"/>
<polygon fill="midnightblue" stroke="midnightblue" points="670.06,-947.4 680.63,-946.63 671.88,-940.64 670.06,-947.4"/>
</g>
<!-- Node29&#45;&gt;Node25 -->
<g id="edge49" class="edge">
<title>Node29&#45;&gt;Node25</title>
<path fill="none" stroke="midnightblue" d="M680.62,-906.44C670.71,-904.17 660.53,-901.7 651,-899.15 619,-890.59 582.83,-878.9 558.54,-870.76"/>
<polygon fill="midnightblue" stroke="midnightblue" points="679.88,-909.86 690.4,-908.64 681.41,-903.03 679.88,-909.86"/>
</g>
<!-- Node30&#45;&gt;Node25 -->
<g id="edge51" class="edge">
<title>Node30&#45;&gt;Node25</title>
<path fill="none" stroke="midnightblue" d="M666.89,-873.7C643.74,-871.57 618.09,-869.21 595.35,-867.12"/>
<polygon fill="midnightblue" stroke="midnightblue" points="666.72,-877.2 676.99,-874.63 667.36,-870.23 666.72,-877.2"/>
</g>
<!-- Node31&#45;&gt;Node25 -->
<g id="edge53" class="edge">
<title>Node31&#45;&gt;Node25</title>
<path fill="none" stroke="midnightblue" d="M664.54,-848.82C641.93,-850.9 617.15,-853.18 595.11,-855.2"/>
<polygon fill="midnightblue" stroke="midnightblue" points="665.13,-852.28 674.76,-847.88 664.48,-845.31 665.13,-852.28"/>
</g>
<!-- Node33 -->
<g id="node33" class="node">
<title>Node33</title>
<g id="a_node33"><a xlink:href="postprocessor_8c.html#a059ce04ba04e66a5f1ef982fdf375e80" target="_top" xlink:title="Parses the processing pipeline string from the config and executes the requested kernels in sequence.">
<polygon fill="none" stroke="black" points="444,-516.65 444,-535.65 615,-535.65 615,-516.65 444,-516.65"/>
<text text-anchor="middle" x="529.5" y="-523.65" font-family="Helvetica,sans-Serif" font-size="10.00">EulerianDataProcessingPipeline</text>
</a>
</g>
</g>
<!-- Node32&#45;&gt;Node33 -->
<g id="edge55" class="edge">
<title>Node32&#45;&gt;Node33</title>
<path fill="none" stroke="midnightblue" d="M663.28,-526.15C647.71,-526.15 631.16,-526.15 615.22,-526.15"/>
<polygon fill="midnightblue" stroke="midnightblue" points="663.36,-529.65 673.36,-526.15 663.36,-522.65 663.36,-529.65"/>
</g>
<!-- Node33&#45;&gt;Node18 -->
<g id="edge56" class="edge">
<title>Node33&#45;&gt;Node18</title>
<path fill="none" stroke="midnightblue" d="M485.89,-513.82C444.13,-501.74 382.31,-483.85 351.08,-474.82"/>
<polygon fill="midnightblue" stroke="midnightblue" points="484.95,-517.19 495.53,-516.61 486.89,-510.47 484.95,-517.19"/>
</g>
<!-- Node34&#45;&gt;Node33 -->
<g id="edge58" class="edge">
<title>Node34&#45;&gt;Node33</title>
<path fill="none" stroke="midnightblue" d="M674.95,-552.73C645.41,-547.29 610.47,-540.87 582.36,-535.69"/>
<polygon fill="midnightblue" stroke="midnightblue" points="674.69,-556.24 685.16,-554.61 675.96,-549.36 674.69,-556.24"/>
</g>
<!-- Node35&#45;&gt;Node36 -->
<g id="edge60" class="edge">
<title>Node35&#45;&gt;Node36</title>
<path fill="none" stroke="midnightblue" d="M674.59,-604.57C645.95,-605.68 612.32,-606.98 584.76,-608.05"/>
<polygon fill="midnightblue" stroke="midnightblue" points="675.03,-608.05 684.89,-604.17 674.76,-601.06 675.03,-608.05"/>
</g>
<!-- Node37 -->
<g id="node37" class="node">
<title>Node37</title>
<g id="a_node37"><a xlink:href="initialcondition_8c.html#ad0dd7d3f2528b6a7802fcd551e88ea99" target="_top" xlink:title="High&#45;level orchestrator to set the complete initial state of the Eulerian solver.">
<polygon fill="none" stroke="black" points="268.5,-600.65 268.5,-619.65 392.5,-619.65 392.5,-600.65 268.5,-600.65"/>
<text text-anchor="middle" x="330.5" y="-607.65" font-family="Helvetica,sans-Serif" font-size="10.00">InitializeEulerianState</text>
</a>
</g>
</g>
<!-- Node36&#45;&gt;Node37 -->
<g id="edge61" class="edge">
<title>Node36&#45;&gt;Node37</title>
<path fill="none" stroke="midnightblue" d="M464.4,-610.15C441.4,-610.15 415.53,-610.15 392.77,-610.15"/>
<polygon fill="midnightblue" stroke="midnightblue" points="464.41,-613.65 474.41,-610.15 464.41,-606.65 464.41,-613.65"/>
</g>
<!-- Node37&#45;&gt;Node3 -->
<g id="edge62" class="edge">
<title>Node37&#45;&gt;Node3</title>
<path fill="none" stroke="midnightblue" d="M311.72,-593.59C254.55,-540.31 76.53,-374.43 31.79,-332.73"/>
<polygon fill="midnightblue" stroke="midnightblue" points="309.55,-596.34 319.25,-600.6 314.32,-591.22 309.55,-596.34"/>
</g>
<!-- Node38&#45;&gt;Node2 -->
<g id="edge64" class="edge">
<title>Node38&#45;&gt;Node2</title>
<path fill="none" stroke="midnightblue" d="M517.72,-431.6C494.16,-391.68 437.84,-299.57 408,-279.15 401.45,-274.67 393.94,-271.24 386.24,-268.62"/>
<polygon fill="midnightblue" stroke="midnightblue" points="514.89,-433.69 522.96,-440.55 520.93,-430.15 514.89,-433.69"/>
</g>
<!-- Node39&#45;&gt;Node37 -->
<g id="edge67" class="edge">
<title>Node39&#45;&gt;Node37</title>
<path fill="none" stroke="midnightblue" d="M482.4,-649.98C447.43,-640.75 400.02,-628.24 367.74,-619.71"/>
<polygon fill="midnightblue" stroke="midnightblue" points="481.81,-653.44 492.37,-652.61 483.59,-646.68 481.81,-653.44"/>
</g>
<!-- Node40&#45;&gt;Node38 -->
<g id="edge69" class="edge">
<title>Node40&#45;&gt;Node38</title>
<path fill="none" stroke="midnightblue" d="M680.56,-450.15C644.56,-450.15 598.94,-450.15 567.5,-450.15"/>
<polygon fill="midnightblue" stroke="midnightblue" points="680.91,-453.65 690.91,-450.15 680.91,-446.65 680.91,-453.65"/>
</g>
</g>
</svg>
