<?xml version="1.0" encoding="UTF-8" standalone="no"?>
<!DOCTYPE svg PUBLIC "-//W3C//DTD SVG 1.1//EN"
 "http://www.w3.org/Graphics/SVG/1.1/DTD/svg11.dtd">
<!-- Generated by graphviz version 2.43.0 (0)
 -->
<!-- Title: TrilinearBlend Pages: 1 -->
<svg width="886pt" height="110pt"
 viewBox="0.00 0.00 886.00 109.50" xmlns="http://www.w3.org/2000/svg" xmlns:xlink="http://www.w3.org/1999/xlink">
<g id="graph0" class="graph" transform="scale(1 1) rotate(0) translate(4 105.5)">
<title>TrilinearBlend</title>
<!-- Node1 -->
<g id="node1" class="node">
<title>Node1</title>
<g id="a_node1"><a xlink:title="Map logical coordinates to physical space using trilinear basis.">
<polygon fill="#bfbfbf" stroke="black" points="794,-51.5 794,-70.5 878,-70.5 878,-51.5 794,-51.5"/>
<text text-anchor="middle" x="836" y="-58.5" font-family="Helvetica,sans-Serif" font-size="10.00">TrilinearBlend</text>
</a>
</g>
</g>
<!-- Node2 -->
<g id="node2" class="node">
<title>Node2</title>
<g id="a_node2"><a xlink:href="Metric_8c.html#af0ba1966641e609476ac6fc3d5cdbbfc" target="_top" xlink:title="Public wrapper: map (cell index, ξ,η,ζ) to (x,y,z).">
<polygon fill="none" stroke="black" points="625,-51.5 625,-70.5 758,-70.5 758,-51.5 625,-51.5"/>
<text text-anchor="middle" x="691.5" y="-58.5" font-family="Helvetica,sans-Serif" font-size="10.00">MetricLogicalToPhysical</text>
</a>
</g>
</g>
<!-- Node1&#45;&gt;Node2 -->
<g id="edge1" class="edge">
<title>Node1&#45;&gt;Node2</title>
<path fill="none" stroke="midnightblue" d="M783.54,-61C775.27,-61 766.61,-61 758.05,-61"/>
<polygon fill="midnightblue" stroke="midnightblue" points="783.78,-64.5 793.78,-61 783.78,-57.5 783.78,-64.5"/>
</g>
<!-- Node3 -->
<g id="node3" class="node">
<title>Node3</title>
<g id="a_node3"><a xlink:href="ParticleSwarm_8c.html#a95efc9f04a0187f2a1d920952bd610e0" target="_top" xlink:title="Initializes basic properties for particles on the local process.">
<polygon fill="none" stroke="black" points="418,-74.5 418,-93.5 589,-93.5 589,-74.5 418,-74.5"/>
<text text-anchor="middle" x="503.5" y="-81.5" font-family="Helvetica,sans-Serif" font-size="10.00">InitializeParticleBasicProperties</text>
</a>
</g>
</g>
<!-- Node2&#45;&gt;Node3 -->
<g id="edge2" class="edge">
<title>Node2&#45;&gt;Node3</title>
<path fill="none" stroke="midnightblue" d="M614.94,-70.34C603.94,-71.7 592.6,-73.11 581.58,-74.47"/>
<polygon fill="midnightblue" stroke="midnightblue" points="615.43,-73.81 624.92,-69.11 614.57,-66.86 615.43,-73.81"/>
</g>
<!-- Node7 -->
<g id="node7" class="node">
<title>Node7</title>
<g id="a_node7"><a xlink:href="ParticleMotion_8c.html#abb62172d12ae65122070a3674196c8e2" target="_top" xlink:title="Re&#45;initializes the positions of particles currently on this rank if this rank owns part of the design...">
<polygon fill="none" stroke="black" points="429,-24 429,-54 578,-54 578,-24 429,-24"/>
<text text-anchor="start" x="437" y="-42" font-family="Helvetica,sans-Serif" font-size="10.00">ReinitializeParticlesOnInlet</text>
<text text-anchor="middle" x="503.5" y="-31" font-family="Helvetica,sans-Serif" font-size="10.00">Surface</text>
</a>
</g>
</g>
<!-- Node2&#45;&gt;Node7 -->
<g id="edge6" class="edge">
<title>Node2&#45;&gt;Node7</title>
<path fill="none" stroke="midnightblue" d="M614.84,-52.05C602.69,-50.61 590.14,-49.13 578.04,-47.7"/>
<polygon fill="midnightblue" stroke="midnightblue" points="614.58,-55.54 624.92,-53.24 615.4,-48.59 614.58,-55.54"/>
</g>
<!-- Node4 -->
<g id="node4" class="node">
<title>Node4</title>
<g id="a_node4"><a xlink:href="ParticleSwarm_8c.html#af2b3080ee0e5c8e0175ac594a2c497b5" target="_top" xlink:title="Initializes all particle properties in the swarm.">
<polygon fill="none" stroke="black" points="243.5,-71 243.5,-101 380.5,-101 380.5,-71 243.5,-71"/>
<text text-anchor="start" x="251.5" y="-89" font-family="Helvetica,sans-Serif" font-size="10.00">AssignInitialPropertiesTo</text>
<text text-anchor="middle" x="312" y="-78" font-family="Helvetica,sans-Serif" font-size="10.00">Swarm</text>
</a>
</g>
</g>
<!-- Node3&#45;&gt;Node4 -->
<g id="edge3" class="edge">
<title>Node3&#45;&gt;Node4</title>
<path fill="none" stroke="midnightblue" d="M407.51,-85C398.44,-85.1 389.38,-85.19 380.65,-85.29"/>
<polygon fill="midnightblue" stroke="midnightblue" points="407.76,-88.5 417.73,-84.89 407.69,-81.5 407.76,-88.5"/>
</g>
<!-- Node5 -->
<g id="node5" class="node">
<title>Node5</title>
<g id="a_node5"><a xlink:href="ParticleSwarm_8c.html#ada215a5db25227a8fd2cd2596e7d3e57" target="_top" xlink:title="Perform particle swarm initialization, particle&#45;grid interaction, and related operations.">
<polygon fill="none" stroke="black" points="77,-76.5 77,-95.5 206,-95.5 206,-76.5 77,-76.5"/>
<text text-anchor="middle" x="141.5" y="-83.5" font-family="Helvetica,sans-Serif" font-size="10.00">InitializeParticleSwarm</text>
</a>
</g>
</g>
<!-- Node4&#45;&gt;Node5 -->
<g id="edge4" class="edge">
<title>Node4&#45;&gt;Node5</title>
<path fill="none" stroke="midnightblue" d="M233.28,-86C224.23,-86 215.08,-86 206.25,-86"/>
<polygon fill="midnightblue" stroke="midnightblue" points="233.44,-89.5 243.44,-86 233.44,-82.5 233.44,-89.5"/>
</g>
<!-- Node6 -->
<g id="node6" class="node">
<title>Node6</title>
<g id="a_node6"><a xlink:href="picsolver_8c.html#a3c04138a5bfe5d72780bb7e82a18e627" target="_top" xlink:title=" ">
<polygon fill="none" stroke="black" points="0,-38.5 0,-57.5 41,-57.5 41,-38.5 0,-38.5"/>
<text text-anchor="middle" x="20.5" y="-45.5" font-family="Helvetica,sans-Serif" font-size="10.00">main</text>
</a>
</g>
</g>
<!-- Node5&#45;&gt;Node6 -->
<g id="edge5" class="edge">
<title>Node5&#45;&gt;Node6</title>
<path fill="none" stroke="midnightblue" d="M100.92,-73.36C80.81,-66.94 57.27,-59.42 41.07,-54.25"/>
<polygon fill="midnightblue" stroke="midnightblue" points="99.88,-76.7 110.47,-76.41 102.01,-70.03 99.88,-76.7"/>
</g>
<!-- Node8 -->
<g id="node8" class="node">
<title>Node8</title>
<g id="a_node8"><a xlink:href="simulation_8c.html#aa5b3c3a0cd447931b47a01267c36acdd" target="_top" xlink:title="Finalizes the simulation setup at t=0, ensuring a consistent state before time marching.">
<polygon fill="none" stroke="black" points="242,-22 242,-52 382,-52 382,-22 242,-22"/>
<text text-anchor="start" x="250" y="-40" font-family="Helvetica,sans-Serif" font-size="10.00">PerformInitializedParticle</text>
<text text-anchor="middle" x="312" y="-29" font-family="Helvetica,sans-Serif" font-size="10.00">Setup</text>
</a>
</g>
</g>
<!-- Node7&#45;&gt;Node8 -->
<g id="edge7" class="edge">
<title>Node7&#45;&gt;Node8</title>
<path fill="none" stroke="midnightblue" d="M418.76,-38.12C406.53,-37.99 394.05,-37.86 382.15,-37.73"/>
<polygon fill="midnightblue" stroke="midnightblue" points="418.93,-41.62 428.96,-38.22 419,-34.62 418.93,-41.62"/>
</g>
<!-- Node8&#45;&gt;Node6 -->
<g id="edge10" class="edge">
<title>Node8&#45;&gt;Node6</title>
<path fill="none" stroke="midnightblue" d="M231.46,-40.02C166.65,-42.48 79.81,-45.78 41.31,-47.25"/>
<polygon fill="midnightblue" stroke="midnightblue" points="231.8,-43.51 241.66,-39.63 231.53,-36.52 231.8,-43.51"/>
</g>
<!-- Node9 -->
<g id="node9" class="node">
<title>Node9</title>
<g id="a_node9"><a xlink:href="simulation_8c.html#a7bc2bae7b01f179706b367c8637534c2" target="_top" xlink:title="Performs post&#45;load/post&#45;init consistency checks for a restarted simulation.">
<polygon fill="none" stroke="black" points="84.5,-0.5 84.5,-19.5 198.5,-19.5 198.5,-0.5 84.5,-0.5"/>
<text text-anchor="middle" x="141.5" y="-7.5" font-family="Helvetica,sans-Serif" font-size="10.00">FinalizeRestartState</text>
</a>
</g>
</g>
<!-- Node8&#45;&gt;Node9 -->
<g id="edge8" class="edge">
<title>Node8&#45;&gt;Node9</title>
<path fill="none" stroke="midnightblue" d="M232.08,-24.35C220.76,-22.54 209.31,-20.7 198.55,-18.98"/>
<polygon fill="midnightblue" stroke="midnightblue" points="231.55,-27.81 241.98,-25.94 232.66,-20.9 231.55,-27.81"/>
</g>
<!-- Node9&#45;&gt;Node6 -->
<g id="edge9" class="edge">
<title>Node9&#45;&gt;Node6</title>
<path fill="none" stroke="midnightblue" d="M100.92,-22.64C80.81,-29.06 57.27,-36.58 41.07,-41.75"/>
<polygon fill="midnightblue" stroke="midnightblue" points="102.01,-25.97 110.47,-19.59 99.88,-19.3 102.01,-25.97"/>
</g>
</g>
</svg>
