<?xml version="1.0" encoding="UTF-8" standalone="no"?>
<!DOCTYPE svg PUBLIC "-//W3C//DTD SVG 1.1//EN"
 "http://www.w3.org/Graphics/SVG/1.1/DTD/svg11.dtd">
<!-- Generated by graphviz version 2.43.0 (0)
 -->
<!-- Title: Gidx Pages: 1 -->
<svg width="634pt" height="66pt"
 viewBox="0.00 0.00 634.00 66.00" xmlns="http://www.w3.org/2000/svg" xmlns:xlink="http://www.w3.org/1999/xlink">
<g id="graph0" class="graph" transform="scale(1 1) rotate(0) translate(4 62)">
<title>Gidx</title>
<!-- Node1 -->
<g id="node1" class="node">
<title>Node1</title>
<g id="a_node1"><a xlink:title=" ">
<polygon fill="#bfbfbf" stroke="black" points="587,-19.5 587,-38.5 626,-38.5 626,-19.5 587,-19.5"/>
<text text-anchor="middle" x="606.5" y="-26.5" font-family="Helvetica,sans-Serif" font-size="10.00">Gidx</text>
</a>
</g>
</g>
<!-- Node2 -->
<g id="node2" class="node">
<title>Node2</title>
<g id="a_node2"><a xlink:href="Metric_8c.html#a2a99180f2d9db426e1cf73771b795498" target="_top" xlink:title="Computes the max&#45;min values of the grid metrics.">
<polygon fill="none" stroke="black" points="413,-38.5 413,-57.5 537,-57.5 537,-38.5 413,-38.5"/>
<text text-anchor="middle" x="475" y="-45.5" font-family="Helvetica,sans-Serif" font-size="10.00">ComputeMetricNorms</text>
</a>
</g>
</g>
<!-- Node1&#45;&gt;Node2 -->
<g id="edge1" class="edge">
<title>Node1&#45;&gt;Node2</title>
<path fill="none" stroke="midnightblue" d="M576.9,-33.2C565.17,-34.92 551.11,-36.98 537.26,-39.01"/>
<polygon fill="midnightblue" stroke="midnightblue" points="577.56,-36.64 586.95,-31.72 576.54,-29.71 577.56,-36.64"/>
</g>
<!-- Node6 -->
<g id="node6" class="node">
<title>Node6</title>
<g id="a_node6"><a xlink:href="Metric_8c.html#a63e70e9aa6a59c320cb2b1af6bd0a7e6" target="_top" xlink:title="Computes the divergence of the grid metrics and identifies the maximum value.">
<polygon fill="none" stroke="black" points="399,-0.5 399,-19.5 551,-19.5 551,-0.5 399,-0.5"/>
<text text-anchor="middle" x="475" y="-7.5" font-family="Helvetica,sans-Serif" font-size="10.00">ComputeMetricsDivergence</text>
</a>
</g>
</g>
<!-- Node1&#45;&gt;Node6 -->
<g id="edge5" class="edge">
<title>Node1&#45;&gt;Node6</title>
<path fill="none" stroke="midnightblue" d="M576.98,-24.82C566.29,-23.25 553.66,-21.39 541.02,-19.54"/>
<polygon fill="midnightblue" stroke="midnightblue" points="576.54,-28.29 586.95,-26.28 577.56,-21.36 576.54,-28.29"/>
</g>
<!-- Node3 -->
<g id="node3" class="node">
<title>Node3</title>
<g id="a_node3"><a xlink:href="Metric_8c.html#a063043da47b68702c78c7e0769325b36" target="_top" xlink:title="Orchestrates the calculation of all grid metrics.">
<polygon fill="none" stroke="black" points="232,-19.5 232,-38.5 363,-38.5 363,-19.5 232,-19.5"/>
<text text-anchor="middle" x="297.5" y="-26.5" font-family="Helvetica,sans-Serif" font-size="10.00">CalculateAllGridMetrics</text>
</a>
</g>
</g>
<!-- Node2&#45;&gt;Node3 -->
<g id="edge2" class="edge">
<title>Node2&#45;&gt;Node3</title>
<path fill="none" stroke="midnightblue" d="M402.34,-40.24C389.36,-38.84 375.89,-37.38 363.13,-36"/>
<polygon fill="midnightblue" stroke="midnightblue" points="402.3,-43.76 412.62,-41.35 403.05,-36.8 402.3,-43.76"/>
</g>
<!-- Node4 -->
<g id="node4" class="node">
<title>Node4</title>
<g id="a_node4"><a xlink:href="setup_8c.html#a2be2815aeb79afe9b95caf39c7b3312c" target="_top" xlink:title="The main orchestrator for setting up all grid&#45;related components.">
<polygon fill="none" stroke="black" points="77,-19.5 77,-38.5 196,-38.5 196,-19.5 77,-19.5"/>
<text text-anchor="middle" x="136.5" y="-26.5" font-family="Helvetica,sans-Serif" font-size="10.00">SetupGridAndSolvers</text>
</a>
</g>
</g>
<!-- Node3&#45;&gt;Node4 -->
<g id="edge3" class="edge">
<title>Node3&#45;&gt;Node4</title>
<path fill="none" stroke="midnightblue" d="M221.81,-29C213.22,-29 204.56,-29 196.23,-29"/>
<polygon fill="midnightblue" stroke="midnightblue" points="221.83,-32.5 231.83,-29 221.83,-25.5 221.83,-32.5"/>
</g>
<!-- Node5 -->
<g id="node5" class="node">
<title>Node5</title>
<g id="a_node5"><a xlink:href="picsolver_8c.html#a3c04138a5bfe5d72780bb7e82a18e627" target="_top" xlink:title=" ">
<polygon fill="none" stroke="black" points="0,-19.5 0,-38.5 41,-38.5 41,-19.5 0,-19.5"/>
<text text-anchor="middle" x="20.5" y="-26.5" font-family="Helvetica,sans-Serif" font-size="10.00">main</text>
</a>
</g>
</g>
<!-- Node4&#45;&gt;Node5 -->
<g id="edge4" class="edge">
<title>Node4&#45;&gt;Node5</title>
<path fill="none" stroke="midnightblue" d="M66.64,-29C57.37,-29 48.53,-29 41.18,-29"/>
<polygon fill="midnightblue" stroke="midnightblue" points="66.83,-32.5 76.83,-29 66.83,-25.5 66.83,-32.5"/>
</g>
<!-- Node6&#45;&gt;Node3 -->
<g id="edge6" class="edge">
<title>Node6&#45;&gt;Node3</title>
<path fill="none" stroke="midnightblue" d="M388.71,-19.23C380.07,-20.17 371.4,-21.11 363.04,-22.01"/>
<polygon fill="midnightblue" stroke="midnightblue" points="389.24,-22.7 398.81,-18.14 388.49,-15.74 389.24,-22.7"/>
</g>
</g>
</svg>
