<?xml version="1.0" encoding="UTF-8" standalone="no"?>
<!DOCTYPE svg PUBLIC "-//W3C//DTD SVG 1.1//EN"
 "http://www.w3.org/Graphics/SVG/1.1/DTD/svg11.dtd">
<!-- Generated by graphviz version 2.43.0 (0)
 -->
<!-- Title: MetricLogicalToPhysical Pages: 1 -->
<svg width="300pt" height="66pt"
 viewBox="0.00 0.00 300.00 66.00" xmlns="http://www.w3.org/2000/svg" xmlns:xlink="http://www.w3.org/1999/xlink">
<g id="graph0" class="graph" transform="scale(1 1) rotate(0) translate(4 62)">
<title>MetricLogicalToPhysical</title>
<!-- Node1 -->
<g id="node1" class="node">
<title>Node1</title>
<g id="a_node1"><a xlink:title="Public wrapper: map (cell index, ξ,η,ζ) to (x,y,z).">
<polygon fill="#bfbfbf" stroke="black" points="0,-19.5 0,-38.5 133,-38.5 133,-19.5 0,-19.5"/>
<text text-anchor="middle" x="66.5" y="-26.5" font-family="Helvetica,sans-Serif" font-size="10.00">MetricLogicalToPhysical</text>
</a>
</g>
</g>
<!-- Node2 -->
<g id="node2" class="node">
<title>Node2</title>
<g id="a_node2"><a xlink:href="Metric_8c.html#a4859ff8031c003e036eab9cf8fb351f6" target="_top" xlink:title="Extract the eight vertex coordinates of the hexahedral cell (i,j,k).">
<polygon fill="none" stroke="black" points="169,-38.5 169,-57.5 292,-57.5 292,-38.5 169,-38.5"/>
<text text-anchor="middle" x="230.5" y="-45.5" font-family="Helvetica,sans-Serif" font-size="10.00">MetricGetCellVertices</text>
</a>
</g>
</g>
<!-- Node1&#45;&gt;Node2 -->
<g id="edge1" class="edge">
<title>Node1&#45;&gt;Node2</title>
<path fill="none" stroke="midnightblue" d="M133.39,-36.73C141.74,-37.71 150.3,-38.71 158.72,-39.7"/>
<polygon fill="midnightblue" stroke="midnightblue" points="158.55,-43.2 168.89,-40.89 159.36,-36.25 158.55,-43.2"/>
</g>
<!-- Node3 -->
<g id="node3" class="node">
<title>Node3</title>
<g id="a_node3"><a xlink:href="Metric_8c.html#a379d85074cc67dd1230cecc94b9169aa" target="_top" xlink:title="Map logical coordinates to physical space using trilinear basis.">
<polygon fill="none" stroke="black" points="188.5,-0.5 188.5,-19.5 272.5,-19.5 272.5,-0.5 188.5,-0.5"/>
<text text-anchor="middle" x="230.5" y="-7.5" font-family="Helvetica,sans-Serif" font-size="10.00">TrilinearBlend</text>
</a>
</g>
</g>
<!-- Node1&#45;&gt;Node3 -->
<g id="edge2" class="edge">
<title>Node1&#45;&gt;Node3</title>
<path fill="none" stroke="midnightblue" d="M133.39,-21.27C148.34,-19.52 163.99,-17.68 178.22,-16.01"/>
<polygon fill="midnightblue" stroke="midnightblue" points="178.78,-19.47 188.31,-14.83 177.97,-12.52 178.78,-19.47"/>
</g>
</g>
</svg>
