<?xml version="1.0" encoding="UTF-8" standalone="no"?>
<!DOCTYPE svg PUBLIC "-//W3C//DTD SVG 1.1//EN"
 "http://www.w3.org/Graphics/SVG/1.1/DTD/svg11.dtd">
<!-- Generated by graphviz version 2.43.0 (0)
 -->
<!-- Title: ComputeFaceMetrics Pages: 1 -->
<svg width="526pt" height="28pt"
 viewBox="0.00 0.00 526.00 28.00" xmlns="http://www.w3.org/2000/svg" xmlns:xlink="http://www.w3.org/1999/xlink">
<g id="graph0" class="graph" transform="scale(1 1) rotate(0) translate(4 24)">
<title>ComputeFaceMetrics</title>
<!-- Node1 -->
<g id="node1" class="node">
<title>Node1</title>
<g id="a_node1"><a xlink:title="Computes the primary face metric components (Csi, Eta, Zet), including boundary extrapolation,...">
<polygon fill="#bfbfbf" stroke="black" points="399,-0.5 399,-19.5 518,-19.5 518,-0.5 399,-0.5"/>
<text text-anchor="middle" x="458.5" y="-7.5" font-family="Helvetica,sans-Serif" font-size="10.00">ComputeFaceMetrics</text>
</a>
</g>
</g>
<!-- Node2 -->
<g id="node2" class="node">
<title>Node2</title>
<g id="a_node2"><a xlink:href="Metric_8c.html#a063043da47b68702c78c7e0769325b36" target="_top" xlink:title="Orchestrates the calculation of all grid metrics.">
<polygon fill="none" stroke="black" points="232,-0.5 232,-19.5 363,-19.5 363,-0.5 232,-0.5"/>
<text text-anchor="middle" x="297.5" y="-7.5" font-family="Helvetica,sans-Serif" font-size="10.00">CalculateAllGridMetrics</text>
</a>
</g>
</g>
<!-- Node1&#45;&gt;Node2 -->
<g id="edge1" class="edge">
<title>Node1&#45;&gt;Node2</title>
<path fill="none" stroke="midnightblue" d="M388.56,-10C380.13,-10 371.53,-10 363.17,-10"/>
<polygon fill="midnightblue" stroke="midnightblue" points="388.75,-13.5 398.75,-10 388.75,-6.5 388.75,-13.5"/>
</g>
<!-- Node3 -->
<g id="node3" class="node">
<title>Node3</title>
<g id="a_node3"><a xlink:href="setup_8c.html#a2be2815aeb79afe9b95caf39c7b3312c" target="_top" xlink:title="The main orchestrator for setting up all grid&#45;related components.">
<polygon fill="none" stroke="black" points="77,-0.5 77,-19.5 196,-19.5 196,-0.5 77,-0.5"/>
<text text-anchor="middle" x="136.5" y="-7.5" font-family="Helvetica,sans-Serif" font-size="10.00">SetupGridAndSolvers</text>
</a>
</g>
</g>
<!-- Node2&#45;&gt;Node3 -->
<g id="edge2" class="edge">
<title>Node2&#45;&gt;Node3</title>
<path fill="none" stroke="midnightblue" d="M221.81,-10C213.22,-10 204.56,-10 196.23,-10"/>
<polygon fill="midnightblue" stroke="midnightblue" points="221.83,-13.5 231.83,-10 221.83,-6.5 221.83,-13.5"/>
</g>
<!-- Node4 -->
<g id="node4" class="node">
<title>Node4</title>
<g id="a_node4"><a xlink:href="picsolver_8c.html#a3c04138a5bfe5d72780bb7e82a18e627" target="_top" xlink:title=" ">
<polygon fill="none" stroke="black" points="0,-0.5 0,-19.5 41,-19.5 41,-0.5 0,-0.5"/>
<text text-anchor="middle" x="20.5" y="-7.5" font-family="Helvetica,sans-Serif" font-size="10.00">main</text>
</a>
</g>
</g>
<!-- Node3&#45;&gt;Node4 -->
<g id="edge3" class="edge">
<title>Node3&#45;&gt;Node4</title>
<path fill="none" stroke="midnightblue" d="M66.64,-10C57.37,-10 48.53,-10 41.18,-10"/>
<polygon fill="midnightblue" stroke="midnightblue" points="66.83,-13.5 76.83,-10 66.83,-6.5 66.83,-13.5"/>
</g>
</g>
</svg>
