<?xml version="1.0" encoding="UTF-8" standalone="no"?>
<!DOCTYPE svg PUBLIC "-//W3C//DTD SVG 1.1//EN"
 "http://www.w3.org/Graphics/SVG/1.1/DTD/svg11.dtd">
<!-- Generated by graphviz version 2.43.0 (0)
 -->
<!-- Title: ComputeJFaceMetrics Pages: 1 -->
<svg width="426pt" height="66pt"
 viewBox="0.00 0.00 426.00 66.00" xmlns="http://www.w3.org/2000/svg" xmlns:xlink="http://www.w3.org/1999/xlink">
<g id="graph0" class="graph" transform="scale(1 1) rotate(0) translate(4 62)">
<title>ComputeJFaceMetrics</title>
<!-- Node1 -->
<g id="node1" class="node">
<title>Node1</title>
<g id="a_node1"><a xlink:title="Computes metrics centered on constant&#45;j faces (j&#45;faces).">
<polygon fill="#bfbfbf" stroke="black" points="0,-19.5 0,-38.5 122,-38.5 122,-19.5 0,-19.5"/>
<text text-anchor="middle" x="61" y="-26.5" font-family="Helvetica,sans-Serif" font-size="10.00">ComputeJFaceMetrics</text>
</a>
</g>
</g>
<!-- Node2 -->
<g id="node2" class="node">
<title>Node2</title>
<g id="a_node2"><a xlink:href="setup_8h.html#ad5f82951adcce74b3d37cb5880acf43a" target="_top" xlink:title="Updates the local vector (including ghost points) from its corresponding global vector.">
<polygon fill="none" stroke="black" points="158,-19.5 158,-38.5 269,-38.5 269,-19.5 158,-19.5"/>
<text text-anchor="middle" x="213.5" y="-26.5" font-family="Helvetica,sans-Serif" font-size="10.00">UpdateLocalGhosts</text>
</a>
</g>
</g>
<!-- Node1&#45;&gt;Node2 -->
<g id="edge1" class="edge">
<title>Node1&#45;&gt;Node2</title>
<path fill="none" stroke="midnightblue" d="M122.35,-29C130.72,-29 139.35,-29 147.79,-29"/>
<polygon fill="midnightblue" stroke="midnightblue" points="147.98,-32.5 157.98,-29 147.98,-25.5 147.98,-32.5"/>
</g>
<!-- Node3 -->
<g id="node3" class="node">
<title>Node3</title>
<g id="a_node3"><a xlink:href="logging_8h.html#a9585f583c260f40a73f2490914edc689" target="_top" xlink:title="Retrieves the current logging level from the environment variable LOG_LEVEL.">
<polygon fill="none" stroke="black" points="320.5,-38.5 320.5,-57.5 402.5,-57.5 402.5,-38.5 320.5,-38.5"/>
<text text-anchor="middle" x="361.5" y="-45.5" font-family="Helvetica,sans-Serif" font-size="10.00">get_log_level</text>
</a>
</g>
</g>
<!-- Node2&#45;&gt;Node3 -->
<g id="edge2" class="edge">
<title>Node2&#45;&gt;Node3</title>
<path fill="none" stroke="midnightblue" d="M269.28,-36.13C282.69,-37.87 296.97,-39.73 310.16,-41.45"/>
<polygon fill="midnightblue" stroke="midnightblue" points="310.1,-44.97 320.46,-42.79 311,-38.03 310.1,-44.97"/>
</g>
<!-- Node4 -->
<g id="node4" class="node">
<title>Node4</title>
<g id="a_node4"><a xlink:href="logging_8h.html#a2358badbcda33fc9d80ebd6a59d2a2cd" target="_top" xlink:title="Checks if a given function is in the allow&#45;list.">
<polygon fill="none" stroke="black" points="305,-0.5 305,-19.5 418,-19.5 418,-0.5 305,-0.5"/>
<text text-anchor="middle" x="361.5" y="-7.5" font-family="Helvetica,sans-Serif" font-size="10.00">is_function_allowed</text>
</a>
</g>
</g>
<!-- Node2&#45;&gt;Node4 -->
<g id="edge3" class="edge">
<title>Node2&#45;&gt;Node4</title>
<path fill="none" stroke="midnightblue" d="M269.28,-21.87C277.66,-20.78 286.37,-19.65 294.95,-18.53"/>
<polygon fill="midnightblue" stroke="midnightblue" points="295.46,-21.99 304.93,-17.23 294.56,-15.05 295.46,-21.99"/>
</g>
</g>
</svg>
