<?xml version="1.0" encoding="UTF-8" standalone="no"?>
<!DOCTYPE svg PUBLIC "-//W3C//DTD SVG 1.1//EN"
 "http://www.w3.org/Graphics/SVG/1.1/DTD/svg11.dtd">
<!-- Generated by graphviz version 2.43.0 (0)
 -->
<!-- Title: InitializeParticleSwarm Pages: 1 -->
<!--zoomable 414 -->
<svg id="main" version="1.1" xmlns="http://www.w3.org/2000/svg" xmlns:xlink="http://www.w3.org/1999/xlink" xml:space="preserve" onload="init(evt)">
<style type="text/css"><![CDATA[
.edge:hover path { stroke: red; }
.edge:hover polygon { stroke: red; fill: red; }
]]></style>
<script type="text/javascript"><![CDATA[
var edges = document.getElementsByTagName('g');
if (edges && edges.length) {
  for (var i=0;i<edges.length;i++) {
    if (edges[i].id.substr(0,4)=='edge') {
      edges[i].setAttribute('class','edge');
    }
  }
}
]]></script>
        <defs>
                <circle id="rim" cx="0" cy="0" r="7"/>
                <circle id="rim2" cx="0" cy="0" r="3.5"/>
                <g id="zoomPlus">
                        <use xlink:href="#rim" fill="#404040">
                                <set attributeName="fill" to="#808080" begin="zoomplus.mouseover" end="zoomplus.mouseout"/>
                        </use>
                        <path d="M-4,0h8M0,-4v8" fill="none" stroke="white" stroke-width="1.5" pointer-events="none"/>
                </g>
                <g id="zoomMin">
                        <use xlink:href="#rim" fill="#404040">
                                <set attributeName="fill" to="#808080" begin="zoomminus.mouseover" end="zoomminus.mouseout"/>
                        </use>
                        <path d="M-4,0h8" fill="none" stroke="white" stroke-width="1.5" pointer-events="none"/>
                </g>
                <g id="dirArrow">
                        <path fill="none" stroke="white" stroke-width="1.5" d="M0,-3.0v7 M-2.5,-0.5L0,-3.0L2.5,-0.5"/>
                </g>
               <g id="resetDef">
                       <use xlink:href="#rim2" fill="#404040">
                               <set attributeName="fill" to="#808080" begin="reset.mouseover" end="reset.mouseout"/>
                       </use>
               </g>
        </defs>

<script type="text/javascript">
var viewWidth = 923;
var viewHeight = 414;
var sectionId = 'dynsection-17';
</script>
<script xlink:href="svgpan.js"/>
<svg id="graph" class="graph">
<g id="viewport">
<title>InitializeParticleSwarm</title>
<!-- Node1 -->
<g id="node1" class="node">
<title>Node1</title>
<g id="a_node1"><a xlink:title="Perform particle swarm initialization, particle&#45;grid interaction, and related operations.">
<polygon fill="#bfbfbf" stroke="black" points="0,-152.5 0,-171.5 129,-171.5 129,-152.5 0,-152.5"/>
<text text-anchor="middle" x="64.5" y="-159.5" font-family="Helvetica,sans-Serif" font-size="10.00">InitializeParticleSwarm</text>
</a>
</g>
</g>
<!-- Node2 -->
<g id="node2" class="node">
<title>Node2</title>
<g id="a_node2"><a xlink:href="ParticleSwarm_8c.html#af2b3080ee0e5c8e0175ac594a2c497b5" target="_top" xlink:title="Initializes all particle properties in the swarm.">
<polygon fill="none" stroke="black" points="173,-299 173,-329 310,-329 310,-299 173,-299"/>
<text text-anchor="start" x="181" y="-317" font-family="Helvetica,sans-Serif" font-size="10.00">AssignInitialPropertiesTo</text>
<text text-anchor="middle" x="241.5" y="-306" font-family="Helvetica,sans-Serif" font-size="10.00">Swarm</text>
</a>
</g>
</g>
<!-- Node1&#45;&gt;Node2 -->
<g id="edge1" class="edge">
<title>Node1&#45;&gt;Node2</title>
<path fill="none" stroke="midnightblue" d="M74.76,-171.55C91.96,-189.12 130.24,-227.46 165,-257 179.61,-269.42 196.6,-282.37 210.76,-292.78"/>
<polygon fill="midnightblue" stroke="midnightblue" points="209.02,-295.84 219.16,-298.91 213.15,-290.19 209.02,-295.84"/>
</g>
<!-- Node13 -->
<g id="node13" class="node">
<title>Node13</title>
<g id="a_node13"><a xlink:href="ParticleSwarm_8c.html#a063f4fd13a24b248fabd0268c49fd38c" target="_top" xlink:title="Creates and initializes a Particle Swarm.">
<polygon fill="none" stroke="black" points="182,-228.5 182,-247.5 301,-247.5 301,-228.5 182,-228.5"/>
<text text-anchor="middle" x="241.5" y="-235.5" font-family="Helvetica,sans-Serif" font-size="10.00">CreateParticleSwarm</text>
</a>
</g>
</g>
<!-- Node1&#45;&gt;Node13 -->
<g id="edge13" class="edge">
<title>Node1&#45;&gt;Node13</title>
<path fill="none" stroke="midnightblue" d="M79.38,-171.59C98.06,-184.12 132.69,-205.97 165,-219 171.15,-221.48 177.71,-223.71 184.31,-225.69"/>
<polygon fill="midnightblue" stroke="midnightblue" points="183.37,-229.06 193.94,-228.41 185.27,-222.32 183.37,-229.06"/>
</g>
<!-- Node20 -->
<g id="node20" class="node">
<title>Node20</title>
<g id="a_node20"><a xlink:href="ParticleSwarm_8c.html#a075e674353bc5b06344aa4c17063babf" target="_top" xlink:title="Finalizes the swarm setup by destroying random generators and logging completion.">
<polygon fill="none" stroke="black" points="184,-190.5 184,-209.5 299,-209.5 299,-190.5 184,-190.5"/>
<text text-anchor="middle" x="241.5" y="-197.5" font-family="Helvetica,sans-Serif" font-size="10.00">FinalizeSwarmSetup</text>
</a>
</g>
</g>
<!-- Node1&#45;&gt;Node20 -->
<g id="edge20" class="edge">
<title>Node1&#45;&gt;Node20</title>
<path fill="none" stroke="midnightblue" d="M109.66,-171.59C133.07,-176.67 162.01,-182.96 186.71,-188.32"/>
<polygon fill="midnightblue" stroke="midnightblue" points="186.14,-191.78 196.66,-190.48 187.63,-184.94 186.14,-191.78"/>
</g>
<!-- Node21 -->
<g id="node21" class="node">
<title>Node21</title>
<g id="a_node21"><a xlink:href="ParticleSwarm_8c.html#ab723e91906e01ec26aab97de6623000c" target="_top" xlink:title="Initializes random number generators for logical space operations [0.0, 1.0).">
<polygon fill="none" stroke="black" points="167,-152.5 167,-171.5 316,-171.5 316,-152.5 167,-152.5"/>
<text text-anchor="middle" x="241.5" y="-159.5" font-family="Helvetica,sans-Serif" font-size="10.00">InitializeLogicalSpaceRNGs</text>
</a>
</g>
</g>
<!-- Node1&#45;&gt;Node21 -->
<g id="edge21" class="edge">
<title>Node1&#45;&gt;Node21</title>
<path fill="none" stroke="midnightblue" d="M129.17,-162C138.15,-162 147.48,-162 156.75,-162"/>
<polygon fill="midnightblue" stroke="midnightblue" points="156.78,-165.5 166.78,-162 156.78,-158.5 156.78,-165.5"/>
</g>
<!-- Node22 -->
<g id="node22" class="node">
<title>Node22</title>
<g id="a_node22"><a xlink:href="ParticleSwarm_8c.html#a26fa0cca0aa8b05f2705cdd0e7d37658" target="_top" xlink:title="Initializes random number generators for assigning particle properties.">
<polygon fill="none" stroke="black" points="165,-114.5 165,-133.5 318,-133.5 318,-114.5 165,-114.5"/>
<text text-anchor="middle" x="241.5" y="-121.5" font-family="Helvetica,sans-Serif" font-size="10.00">InitializeRandomGenerators</text>
</a>
</g>
</g>
<!-- Node1&#45;&gt;Node22 -->
<g id="edge22" class="edge">
<title>Node1&#45;&gt;Node22</title>
<path fill="none" stroke="midnightblue" d="M109.66,-152.41C133.07,-147.33 162.01,-141.04 186.71,-135.68"/>
<polygon fill="midnightblue" stroke="midnightblue" points="187.63,-139.06 196.66,-133.52 186.14,-132.22 187.63,-139.06"/>
</g>
<!-- Node23 -->
<g id="node23" class="node">
<title>Node23</title>
<g id="a_node23"><a xlink:href="ParticleMotion_8h.html#ae0c7489fc52fda6c92cd1f22c3f50c38" target="_top" xlink:title="Checks particle count in the reference file and resizes the swarm if needed.">
<polygon fill="none" stroke="black" points="168,-76.5 168,-95.5 315,-95.5 315,-76.5 168,-76.5"/>
<text text-anchor="middle" x="241.5" y="-83.5" font-family="Helvetica,sans-Serif" font-size="10.00">PreCheckAndResizeSwarm</text>
</a>
</g>
</g>
<!-- Node1&#45;&gt;Node23 -->
<g id="edge23" class="edge">
<title>Node1&#45;&gt;Node23</title>
<path fill="none" stroke="midnightblue" d="M79.38,-152.41C98.06,-139.88 132.69,-118.03 165,-105 171.15,-102.52 177.71,-100.29 184.31,-98.31"/>
<polygon fill="midnightblue" stroke="midnightblue" points="185.27,-101.68 193.94,-95.59 183.37,-94.94 185.27,-101.68"/>
</g>
<!-- Node25 -->
<g id="node25" class="node">
<title>Node25</title>
<g id="a_node25"><a xlink:href="io_8h.html#a64286adf953993b2a0c5c3fbee40d5a2" target="_top" xlink:title="Reads multiple fields (positions, velocity, CellID, and weight) into a DMSwarm.">
<polygon fill="none" stroke="black" points="183.5,-38.5 183.5,-57.5 299.5,-57.5 299.5,-38.5 183.5,-38.5"/>
<text text-anchor="middle" x="241.5" y="-45.5" font-family="Helvetica,sans-Serif" font-size="10.00">ReadAllSwarmFields</text>
</a>
</g>
</g>
<!-- Node1&#45;&gt;Node25 -->
<g id="edge25" class="edge">
<title>Node1&#45;&gt;Node25</title>
<path fill="none" stroke="midnightblue" d="M72.81,-152.22C87.84,-132.85 124.23,-89.51 165,-67 169.15,-64.71 173.57,-62.69 178.12,-60.92"/>
<polygon fill="midnightblue" stroke="midnightblue" points="179.31,-64.21 187.59,-57.59 176.99,-57.6 179.31,-64.21"/>
</g>
<!-- Node3 -->
<g id="node3" class="node">
<title>Node3</title>
<g id="a_node3"><a xlink:href="ParticleSwarm_8c.html#a38c3c55ea49021ac59eea87b61e942d1" target="_top" xlink:title="Initializes a generic swarm field with point&#45;level updates.">
<polygon fill="none" stroke="black" points="368,-364.5 368,-383.5 511,-383.5 511,-364.5 368,-364.5"/>
<text text-anchor="middle" x="439.5" y="-371.5" font-family="Helvetica,sans-Serif" font-size="10.00">AssignInitialFieldToSwarm</text>
</a>
</g>
</g>
<!-- Node2&#45;&gt;Node3 -->
<g id="edge2" class="edge">
<title>Node2&#45;&gt;Node3</title>
<path fill="none" stroke="midnightblue" d="M291.71,-329.06C324.45,-339.09 366.95,-352.1 397.79,-361.54"/>
<polygon fill="midnightblue" stroke="midnightblue" points="396.78,-364.89 407.36,-364.47 398.82,-358.19 396.78,-364.89"/>
</g>
<!-- Node5 -->
<g id="node5" class="node">
<title>Node5</title>
<g id="a_node5"><a xlink:href="ParticleSwarm_8c.html#a95efc9f04a0187f2a1d920952bd610e0" target="_top" xlink:title="Initializes basic properties for particles on the local process.">
<polygon fill="none" stroke="black" points="354,-304.5 354,-323.5 525,-323.5 525,-304.5 354,-304.5"/>
<text text-anchor="middle" x="439.5" y="-311.5" font-family="Helvetica,sans-Serif" font-size="10.00">InitializeParticleBasicProperties</text>
</a>
</g>
</g>
<!-- Node2&#45;&gt;Node5 -->
<g id="edge4" class="edge">
<title>Node2&#45;&gt;Node5</title>
<path fill="none" stroke="midnightblue" d="M310.23,-314C320.99,-314 332.28,-314 343.53,-314"/>
<polygon fill="midnightblue" stroke="midnightblue" points="343.83,-317.5 353.83,-314 343.83,-310.5 343.83,-317.5"/>
</g>
<!-- Node4 -->
<g id="node4" class="node">
<title>Node4</title>
<g id="a_node4"><a xlink:href="ParticleSwarm_8c.html#a3d66def17ca5bb54005762184e28c684" target="_top" xlink:title="Helper function to Initialize a given particle’s field value.">
<polygon fill="none" stroke="black" points="587,-386.5 587,-405.5 730,-405.5 730,-386.5 587,-386.5"/>
<text text-anchor="middle" x="658.5" y="-393.5" font-family="Helvetica,sans-Serif" font-size="10.00">InitializeSwarmFieldValue</text>
</a>
</g>
</g>
<!-- Node3&#45;&gt;Node4 -->
<g id="edge3" class="edge">
<title>Node3&#45;&gt;Node4</title>
<path fill="none" stroke="midnightblue" d="M511.25,-381.17C532.18,-383.29 555.25,-385.63 576.76,-387.81"/>
<polygon fill="midnightblue" stroke="midnightblue" points="576.54,-391.31 586.84,-388.84 577.25,-384.35 576.54,-391.31"/>
</g>
<!-- Node6 -->
<g id="node6" class="node">
<title>Node6</title>
<g id="a_node6"><a xlink:href="Boundaries_8h.html#ab679d620b2d750179fbc2363fc562a1f" target="_top" xlink:title="Determines if the current MPI rank owns any part of the globally defined inlet face,...">
<polygon fill="none" stroke="black" points="588.5,-348.5 588.5,-367.5 728.5,-367.5 728.5,-348.5 588.5,-348.5"/>
<text text-anchor="middle" x="658.5" y="-355.5" font-family="Helvetica,sans-Serif" font-size="10.00">CanRankServiceInletFace</text>
</a>
</g>
</g>
<!-- Node5&#45;&gt;Node6 -->
<g id="edge5" class="edge">
<title>Node5&#45;&gt;Node6</title>
<path fill="none" stroke="midnightblue" d="M485.97,-323.55C508.52,-328.25 536.18,-333.98 561,-339 573.03,-341.43 585.91,-344 598.22,-346.43"/>
<polygon fill="midnightblue" stroke="midnightblue" points="597.9,-349.93 608.39,-348.43 599.25,-343.06 597.9,-349.93"/>
</g>
<!-- Node8 -->
<g id="node8" class="node">
<title>Node8</title>
<g id="a_node8"><a xlink:href="ParticleSwarm_8c.html#ae333eaf5cdf54d396fb84ef574a4945b" target="_top" xlink:title="Determines cell selection and intra&#45;cell logical coordinates for volumetric initialization (Mode 1).">
<polygon fill="none" stroke="black" points="567.5,-299 567.5,-329 749.5,-329 749.5,-299 567.5,-299"/>
<text text-anchor="start" x="575.5" y="-317" font-family="Helvetica,sans-Serif" font-size="10.00">DetermineVolumetricInitialization</text>
<text text-anchor="middle" x="658.5" y="-306" font-family="Helvetica,sans-Serif" font-size="10.00">Parameters</text>
</a>
</g>
</g>
<!-- Node5&#45;&gt;Node8 -->
<g id="edge7" class="edge">
<title>Node5&#45;&gt;Node8</title>
<path fill="none" stroke="midnightblue" d="M525.02,-314C535.57,-314 546.44,-314 557.2,-314"/>
<polygon fill="midnightblue" stroke="midnightblue" points="557.47,-317.5 567.47,-314 557.47,-310.5 557.47,-317.5"/>
</g>
<!-- Node9 -->
<g id="node9" class="node">
<title>Node9</title>
<g id="a_node9"><a xlink:href="Boundaries_8h.html#ac07befc354128d23bac8ed5f2612ffdf" target="_top" xlink:title="Assuming the current rank services the inlet face, this function selects a random cell (owned by this...">
<polygon fill="none" stroke="black" points="561,-260.5 561,-279.5 756,-279.5 756,-260.5 561,-260.5"/>
<text text-anchor="middle" x="658.5" y="-267.5" font-family="Helvetica,sans-Serif" font-size="10.00">GetRandomCellAndLogicOnInletFace</text>
</a>
</g>
</g>
<!-- Node5&#45;&gt;Node9 -->
<g id="edge8" class="edge">
<title>Node5&#45;&gt;Node9</title>
<path fill="none" stroke="midnightblue" d="M487.59,-304.45C520.71,-297.74 565.23,-288.71 600.39,-281.58"/>
<polygon fill="midnightblue" stroke="midnightblue" points="601.4,-284.95 610.51,-279.53 600.01,-278.09 601.4,-284.95"/>
</g>
<!-- Node10 -->
<g id="node10" class="node">
<title>Node10</title>
<g id="a_node10"><a xlink:href="Metric_8h.html#af0ba1966641e609476ac6fc3d5cdbbfc" target="_top" xlink:title="Public wrapper: map (cell index, ξ,η,ζ) to (x,y,z).">
<polygon fill="none" stroke="black" points="592,-222.5 592,-241.5 725,-241.5 725,-222.5 592,-222.5"/>
<text text-anchor="middle" x="658.5" y="-229.5" font-family="Helvetica,sans-Serif" font-size="10.00">MetricLogicalToPhysical</text>
</a>
</g>
</g>
<!-- Node5&#45;&gt;Node10 -->
<g id="edge10" class="edge">
<title>Node5&#45;&gt;Node10</title>
<path fill="none" stroke="midnightblue" d="M504.6,-304.41C511.77,-301.96 518.73,-298.87 525,-295 546.5,-281.73 539.32,-263.98 561,-251 567.45,-247.14 574.53,-244.04 581.83,-241.57"/>
<polygon fill="midnightblue" stroke="midnightblue" points="583.32,-244.77 591.9,-238.55 581.31,-238.07 583.32,-244.77"/>
</g>
<!-- Node7 -->
<g id="node7" class="node">
<title>Node7</title>
<g id="a_node7"><a xlink:href="setup_8h.html#a9b17552f79ebe16d0363986217a01ff3" target="_top" xlink:title="Determines the global starting index and number of CELLS owned by the current processor in a specifie...">
<polygon fill="none" stroke="black" points="795,-323.5 795,-342.5 912,-342.5 912,-323.5 795,-323.5"/>
<text text-anchor="middle" x="853.5" y="-330.5" font-family="Helvetica,sans-Serif" font-size="10.00">GetOwnedCellRange</text>
</a>
</g>
</g>
<!-- Node6&#45;&gt;Node7 -->
<g id="edge6" class="edge">
<title>Node6&#45;&gt;Node7</title>
<path fill="none" stroke="midnightblue" d="M728.63,-349.05C746.98,-346.67 766.76,-344.11 785.01,-341.74"/>
<polygon fill="midnightblue" stroke="midnightblue" points="785.51,-345.21 794.98,-340.45 784.61,-338.26 785.51,-345.21"/>
</g>
<!-- Node9&#45;&gt;Node7 -->
<g id="edge9" class="edge">
<title>Node9&#45;&gt;Node7</title>
<path fill="none" stroke="midnightblue" d="M715.65,-279.52C729.02,-282.36 743.14,-285.85 756,-290 780.04,-297.75 806.15,-309.61 825.14,-318.91"/>
<polygon fill="midnightblue" stroke="midnightblue" points="823.6,-322.05 834.11,-323.37 826.71,-315.78 823.6,-322.05"/>
</g>
<!-- Node11 -->
<g id="node11" class="node">
<title>Node11</title>
<g id="a_node11"><a xlink:href="Metric_8c.html#a4859ff8031c003e036eab9cf8fb351f6" target="_top" xlink:title="Extract the eight vertex coordinates of the hexahedral cell (i,j,k).">
<polygon fill="none" stroke="black" points="792,-241.5 792,-260.5 915,-260.5 915,-241.5 792,-241.5"/>
<text text-anchor="middle" x="853.5" y="-248.5" font-family="Helvetica,sans-Serif" font-size="10.00">MetricGetCellVertices</text>
</a>
</g>
</g>
<!-- Node10&#45;&gt;Node11 -->
<g id="edge11" class="edge">
<title>Node10&#45;&gt;Node11</title>
<path fill="none" stroke="midnightblue" d="M725.11,-238.46C743.37,-240.26 763.27,-242.22 781.81,-244.04"/>
<polygon fill="midnightblue" stroke="midnightblue" points="781.65,-247.54 791.94,-245.04 782.33,-240.58 781.65,-247.54"/>
</g>
<!-- Node12 -->
<g id="node12" class="node">
<title>Node12</title>
<g id="a_node12"><a xlink:href="Metric_8c.html#a379d85074cc67dd1230cecc94b9169aa" target="_top" xlink:title="Map logical coordinates to physical space using trilinear basis.">
<polygon fill="none" stroke="black" points="811.5,-203.5 811.5,-222.5 895.5,-222.5 895.5,-203.5 811.5,-203.5"/>
<text text-anchor="middle" x="853.5" y="-210.5" font-family="Helvetica,sans-Serif" font-size="10.00">TrilinearBlend</text>
</a>
</g>
</g>
<!-- Node10&#45;&gt;Node12 -->
<g id="edge12" class="edge">
<title>Node10&#45;&gt;Node12</title>
<path fill="none" stroke="midnightblue" d="M725.11,-225.54C749.96,-223.1 777.85,-220.35 801.2,-218.05"/>
<polygon fill="midnightblue" stroke="midnightblue" points="801.63,-221.53 811.23,-217.06 800.94,-214.56 801.63,-221.53"/>
</g>
<!-- Node14 -->
<g id="node14" class="node">
<title>Node14</title>
<g id="a_node14"><a xlink:href="ParticleSwarm_8c.html#a1cc0975a3eec2e2f817d0e3a09040620" target="_top" xlink:title="Distributes particles evenly across MPI processes, handling any remainders.">
<polygon fill="none" stroke="black" points="386,-266.5 386,-285.5 493,-285.5 493,-266.5 386,-266.5"/>
<text text-anchor="middle" x="439.5" y="-273.5" font-family="Helvetica,sans-Serif" font-size="10.00">DistributeParticles</text>
</a>
</g>
</g>
<!-- Node13&#45;&gt;Node14 -->
<g id="edge14" class="edge">
<title>Node13&#45;&gt;Node14</title>
<path fill="none" stroke="midnightblue" d="M291.71,-247.54C318.27,-252.69 351.25,-259.08 379.22,-264.51"/>
<polygon fill="midnightblue" stroke="midnightblue" points="378.79,-267.99 389.27,-266.46 380.12,-261.12 378.79,-267.99"/>
</g>
<!-- Node15 -->
<g id="node15" class="node">
<title>Node15</title>
<g id="a_node15"><a xlink:href="logging_8h.html#a9585f583c260f40a73f2490914edc689" target="_top" xlink:title="Retrieves the current logging level from the environment variable LOG_LEVEL.">
<polygon fill="none" stroke="black" points="398.5,-228.5 398.5,-247.5 480.5,-247.5 480.5,-228.5 398.5,-228.5"/>
<text text-anchor="middle" x="439.5" y="-235.5" font-family="Helvetica,sans-Serif" font-size="10.00">get_log_level</text>
</a>
</g>
</g>
<!-- Node13&#45;&gt;Node15 -->
<g id="edge15" class="edge">
<title>Node13&#45;&gt;Node15</title>
<path fill="none" stroke="midnightblue" d="M301.04,-238C328.73,-238 361.45,-238 388.03,-238"/>
<polygon fill="midnightblue" stroke="midnightblue" points="388.26,-241.5 398.26,-238 388.26,-234.5 388.26,-241.5"/>
</g>
<!-- Node16 -->
<g id="node16" class="node">
<title>Node16</title>
<g id="a_node16"><a xlink:href="ParticleSwarm_8c.html#ac3566e0b51587686bc6c1366a67c44af" target="_top" xlink:title="Initializes the DMSwarm object within the UserCtx structure.">
<polygon fill="none" stroke="black" points="393.5,-190.5 393.5,-209.5 485.5,-209.5 485.5,-190.5 393.5,-190.5"/>
<text text-anchor="middle" x="439.5" y="-197.5" font-family="Helvetica,sans-Serif" font-size="10.00">InitializeSwarm</text>
</a>
</g>
</g>
<!-- Node13&#45;&gt;Node16 -->
<g id="edge16" class="edge">
<title>Node13&#45;&gt;Node16</title>
<path fill="none" stroke="midnightblue" d="M291.71,-228.46C319.6,-223.05 354.58,-216.27 383.39,-210.68"/>
<polygon fill="midnightblue" stroke="midnightblue" points="384.15,-214.1 393.3,-208.76 382.82,-207.23 384.15,-214.1"/>
</g>
<!-- Node17 -->
<g id="node17" class="node">
<title>Node17</title>
<g id="a_node17"><a xlink:href="logging_8h.html#a2358badbcda33fc9d80ebd6a59d2a2cd" target="_top" xlink:title="Checks if a given function is in the allow&#45;list.">
<polygon fill="none" stroke="black" points="383,-152.5 383,-171.5 496,-171.5 496,-152.5 383,-152.5"/>
<text text-anchor="middle" x="439.5" y="-159.5" font-family="Helvetica,sans-Serif" font-size="10.00">is_function_allowed</text>
</a>
</g>
</g>
<!-- Node13&#45;&gt;Node17 -->
<g id="edge17" class="edge">
<title>Node13&#45;&gt;Node17</title>
<path fill="none" stroke="midnightblue" d="M296.38,-228.46C303.92,-225.99 311.35,-222.89 318,-219 338.08,-207.25 333.77,-192.49 354,-181 359.88,-177.66 366.31,-174.9 372.91,-172.63"/>
<polygon fill="midnightblue" stroke="midnightblue" points="374.12,-175.92 382.66,-169.64 372.07,-169.23 374.12,-175.92"/>
</g>
<!-- Node18 -->
<g id="node18" class="node">
<title>Node18</title>
<g id="a_node18"><a xlink:href="ParticleSwarm_8c.html#aeae3fd559e91d7379302acb6ccd13011" target="_top" xlink:title="Registers necessary particle fields within the DMSwarm.">
<polygon fill="none" stroke="black" points="378.5,-114.5 378.5,-133.5 500.5,-133.5 500.5,-114.5 378.5,-114.5"/>
<text text-anchor="middle" x="439.5" y="-121.5" font-family="Helvetica,sans-Serif" font-size="10.00">RegisterParticleFields</text>
</a>
</g>
</g>
<!-- Node13&#45;&gt;Node18 -->
<g id="edge18" class="edge">
<title>Node13&#45;&gt;Node18</title>
<path fill="none" stroke="midnightblue" d="M301.1,-228.91C307.2,-226.36 312.99,-223.12 318,-219 346.89,-195.28 324.82,-166.35 354,-143 358.4,-139.48 363.33,-136.58 368.53,-134.2"/>
<polygon fill="midnightblue" stroke="midnightblue" points="370.1,-137.34 378.14,-130.45 367.55,-130.82 370.1,-137.34"/>
</g>
<!-- Node19 -->
<g id="node19" class="node">
<title>Node19</title>
<g id="a_node19"><a xlink:href="ParticleSwarm_8c.html#adcaec962a8ff017ba9f859716405f51a" target="_top" xlink:title="Registers a swarm field without finalizing registration.">
<polygon fill="none" stroke="black" points="602,-114.5 602,-133.5 715,-133.5 715,-114.5 602,-114.5"/>
<text text-anchor="middle" x="658.5" y="-121.5" font-family="Helvetica,sans-Serif" font-size="10.00">RegisterSwarmField</text>
</a>
</g>
</g>
<!-- Node18&#45;&gt;Node19 -->
<g id="edge19" class="edge">
<title>Node18&#45;&gt;Node19</title>
<path fill="none" stroke="midnightblue" d="M500.66,-124C528.93,-124 562.71,-124 591.67,-124"/>
<polygon fill="midnightblue" stroke="midnightblue" points="591.69,-127.5 601.69,-124 591.69,-120.5 591.69,-127.5"/>
</g>
<!-- Node24 -->
<g id="node24" class="node">
<title>Node24</title>
<g id="a_node24"><a xlink:href="ParticleMotion_8c.html#a38b5e7348bc556d505e2c4b31c29b086" target="_top" xlink:title=" ">
<polygon fill="none" stroke="black" points="378,-76.5 378,-95.5 501,-95.5 501,-76.5 378,-76.5"/>
<text text-anchor="middle" x="439.5" y="-83.5" font-family="Helvetica,sans-Serif" font-size="10.00">ResizeSwarmGlobally</text>
</a>
</g>
</g>
<!-- Node23&#45;&gt;Node24 -->
<g id="edge24" class="edge">
<title>Node23&#45;&gt;Node24</title>
<path fill="none" stroke="midnightblue" d="M315.2,-86C332.26,-86 350.4,-86 367.39,-86"/>
<polygon fill="midnightblue" stroke="midnightblue" points="367.79,-89.5 377.79,-86 367.79,-82.5 367.79,-89.5"/>
</g>
<!-- Node26 -->
<g id="node26" class="node">
<title>Node26</title>
<g id="a_node26"><a xlink:href="io_8c.html#aed3ed919a52fa88c62e1201b4316b2c4" target="_top" xlink:title="Checks for and reads an optional DMSwarm field from a file.">
<polygon fill="none" stroke="black" points="370,-38.5 370,-57.5 509,-57.5 509,-38.5 370,-38.5"/>
<text text-anchor="middle" x="439.5" y="-45.5" font-family="Helvetica,sans-Serif" font-size="10.00">ReadOptionalSwarmField</text>
</a>
</g>
</g>
<!-- Node25&#45;&gt;Node26 -->
<g id="edge26" class="edge">
<title>Node25&#45;&gt;Node26</title>
<path fill="none" stroke="midnightblue" d="M299.72,-48C318.47,-48 339.65,-48 359.71,-48"/>
<polygon fill="midnightblue" stroke="midnightblue" points="359.76,-51.5 369.76,-48 359.76,-44.5 359.76,-51.5"/>
</g>
<!-- Node28 -->
<g id="node28" class="node">
<title>Node28</title>
<g id="a_node28"><a xlink:href="io_8c.html#a84fff45b8cbd148ed2429ba8fe12428f" target="_top" xlink:title="Reads data from a file into a specified field of a PETSc DMSwarm.">
<polygon fill="none" stroke="black" points="609.5,-0.5 609.5,-19.5 707.5,-19.5 707.5,-0.5 609.5,-0.5"/>
<text text-anchor="middle" x="658.5" y="-7.5" font-family="Helvetica,sans-Serif" font-size="10.00">ReadSwarmField</text>
</a>
</g>
</g>
<!-- Node25&#45;&gt;Node28 -->
<g id="edge32" class="edge">
<title>Node25&#45;&gt;Node28</title>
<path fill="none" stroke="midnightblue" d="M291.46,-38.5C310.87,-35.04 333.42,-31.39 354,-29 438.89,-19.14 537.79,-14.15 599.02,-11.82"/>
<polygon fill="midnightblue" stroke="midnightblue" points="599.4,-15.31 609.26,-11.44 599.14,-8.31 599.4,-15.31"/>
</g>
<!-- Node27 -->
<g id="node27" class="node">
<title>Node27</title>
<g id="a_node27"><a xlink:href="io_8c.html#ab7d7097c8ad047feb1d460e4694b8b4f" target="_top" xlink:title="Checks for a data file&#39;s existence in a parallel&#45;safe manner.">
<polygon fill="none" stroke="black" points="615.5,-76.5 615.5,-95.5 701.5,-95.5 701.5,-76.5 615.5,-76.5"/>
<text text-anchor="middle" x="658.5" y="-83.5" font-family="Helvetica,sans-Serif" font-size="10.00">CheckDataFile</text>
</a>
</g>
</g>
<!-- Node26&#45;&gt;Node27 -->
<g id="edge27" class="edge">
<title>Node26&#45;&gt;Node27</title>
<path fill="none" stroke="midnightblue" d="M494.98,-57.54C528.77,-63.46 571.95,-71.02 605.3,-76.86"/>
<polygon fill="midnightblue" stroke="midnightblue" points="604.87,-80.34 615.32,-78.61 606.07,-73.44 604.87,-80.34"/>
</g>
<!-- Node26&#45;&gt;Node28 -->
<g id="edge28" class="edge">
<title>Node26&#45;&gt;Node28</title>
<path fill="none" stroke="midnightblue" d="M494.98,-38.46C526.7,-32.91 566.69,-25.9 599.06,-20.23"/>
<polygon fill="midnightblue" stroke="midnightblue" points="600.04,-23.62 609.29,-18.44 598.83,-16.72 600.04,-23.62"/>
</g>
<!-- Node30 -->
<g id="node30" class="node">
<title>Node30</title>
<g id="a_node30"><a xlink:href="io_8c.html#a2b23e672a36206721d69d7ff16d797c5" target="_top" xlink:title="Reads integer swarm data by using ReadFieldData and casting the result.">
<polygon fill="none" stroke="black" points="603.5,-38.5 603.5,-57.5 713.5,-57.5 713.5,-38.5 603.5,-38.5"/>
<text text-anchor="middle" x="658.5" y="-45.5" font-family="Helvetica,sans-Serif" font-size="10.00">ReadSwarmIntField</text>
</a>
</g>
</g>
<!-- Node26&#45;&gt;Node30 -->
<g id="edge30" class="edge">
<title>Node26&#45;&gt;Node30</title>
<path fill="none" stroke="midnightblue" d="M509.16,-48C536.02,-48 566.65,-48 593.09,-48"/>
<polygon fill="midnightblue" stroke="midnightblue" points="593.37,-51.5 603.37,-48 593.37,-44.5 593.37,-51.5"/>
</g>
<!-- Node29 -->
<g id="node29" class="node">
<title>Node29</title>
<g id="a_node29"><a xlink:href="io_8c.html#a570806d7e0694b5d996e0c6018b48908" target="_top" xlink:title="Reads data for a specific field from a file into the provided vector.">
<polygon fill="none" stroke="black" points="810,-19.5 810,-38.5 897,-38.5 897,-19.5 810,-19.5"/>
<text text-anchor="middle" x="853.5" y="-26.5" font-family="Helvetica,sans-Serif" font-size="10.00">ReadFieldData</text>
</a>
</g>
</g>
<!-- Node28&#45;&gt;Node29 -->
<g id="edge29" class="edge">
<title>Node28&#45;&gt;Node29</title>
<path fill="none" stroke="midnightblue" d="M707.7,-14.75C735.65,-17.5 770.87,-20.96 799.58,-23.79"/>
<polygon fill="midnightblue" stroke="midnightblue" points="799.54,-27.3 809.83,-24.8 800.22,-20.34 799.54,-27.3"/>
</g>
<!-- Node30&#45;&gt;Node29 -->
<g id="edge31" class="edge">
<title>Node30&#45;&gt;Node29</title>
<path fill="none" stroke="midnightblue" d="M713.52,-42.68C740.51,-40.02 773.05,-36.82 799.85,-34.18"/>
<polygon fill="midnightblue" stroke="midnightblue" points="800.21,-37.66 809.82,-33.2 799.53,-30.7 800.21,-37.66"/>
</g>
</g>
</svg>
        <g id="navigator" transform="translate(0 0)" fill="#404254">
                <rect fill="#f2f5e9" fill-opacity="0.5" stroke="#606060" stroke-width=".5" x="0" y="0" width="60" height="60"/>
                <use id="zoomplus" xlink:href="#zoomPlus" x="17" y="9" onmousedown="handleZoom(evt,'in')"/>
                <use id="zoomminus" xlink:href="#zoomMin" x="42" y="9" onmousedown="handleZoom(evt,'out')"/>
                <use id="reset" xlink:href="#resetDef" x="30" y="36" onmousedown="handleReset()"/>
                <g id="arrowUp" xlink:href="#dirArrow" transform="translate(30 24)" onmousedown="handlePan(0,-1)">
                  <use xlink:href="#rim" fill="#404040">
                        <set attributeName="fill" to="#808080" begin="arrowUp.mouseover" end="arrowUp.mouseout"/>
                  </use>
                  <path fill="none" stroke="white" stroke-width="1.5" d="M0,-3.0v7 M-2.5,-0.5L0,-3.0L2.5,-0.5"/>
                </g>
                <g id="arrowRight" xlink:href="#dirArrow" transform="rotate(90) translate(36 -43)" onmousedown="handlePan(1,0)">
                  <use xlink:href="#rim" fill="#404040">
                        <set attributeName="fill" to="#808080" begin="arrowRight.mouseover" end="arrowRight.mouseout"/>
                  </use>
                  <path fill="none" stroke="white" stroke-width="1.5" d="M0,-3.0v7 M-2.5,-0.5L0,-3.0L2.5,-0.5"/>
                </g>
                <g id="arrowDown" xlink:href="#dirArrow" transform="rotate(180) translate(-30 -48)" onmousedown="handlePan(0,1)">
                  <use xlink:href="#rim" fill="#404040">
                        <set attributeName="fill" to="#808080" begin="arrowDown.mouseover" end="arrowDown.mouseout"/>
                  </use>
                  <path fill="none" stroke="white" stroke-width="1.5" d="M0,-3.0v7 M-2.5,-0.5L0,-3.0L2.5,-0.5"/>
                </g>
                <g id="arrowLeft" xlink:href="#dirArrow" transform="rotate(270) translate(-36 17)" onmousedown="handlePan(-1,0)">
                  <use xlink:href="#rim" fill="#404040">
                        <set attributeName="fill" to="#808080" begin="arrowLeft.mouseover" end="arrowLeft.mouseout"/>
                  </use>
                  <path fill="none" stroke="white" stroke-width="1.5" d="M0,-3.0v7 M-2.5,-0.5L0,-3.0L2.5,-0.5"/>
                </g>
        </g>
        <svg viewBox="0 0 15 15" width="100%" height="30px" preserveAspectRatio="xMaxYMin meet">
         <g id="arrow_out" transform="scale(0.3 0.3)">
          <a xlink:href="ParticleSwarm_8h_ada215a5db25227a8fd2cd2596e7d3e57_cgraph_org.svg" target="_base">
           <rect id="button" ry="5" rx="5" y="6" x="6" height="38" width="38"
                fill="#f2f5e9" fill-opacity="0.5" stroke="#606060" stroke-width="1.0"/>
           <path id="arrow"
             d="M 11.500037,31.436501 C 11.940474,20.09759 22.043105,11.32322 32.158766,21.979434 L 37.068811,17.246167 C 37.068811,17.246167 37.088388,32 37.088388,32 L 22.160133,31.978069 C 22.160133,31.978069 26.997745,27.140456 26.997745,27.140456 C 18.528582,18.264221 13.291696,25.230495 11.500037,31.436501 z"
             style="fill:#404040;"/>
          </a>
         </g>
        </svg>
</svg>
