<?xml version="1.0" encoding="UTF-8" standalone="no"?>
<!DOCTYPE svg PUBLIC "-//W3C//DTD SVG 1.1//EN"
 "http://www.w3.org/Graphics/SVG/1.1/DTD/svg11.dtd">
<!-- Generated by graphviz version 2.43.0 (0)
 -->
<!-- Title: RegisterSwarmField Pages: 1 -->
<svg width="691pt" height="66pt"
 viewBox="0.00 0.00 691.00 66.00" xmlns="http://www.w3.org/2000/svg" xmlns:xlink="http://www.w3.org/1999/xlink">
<g id="graph0" class="graph" transform="scale(1 1) rotate(0) translate(4 62)">
<title>RegisterSwarmField</title>
<!-- Node1 -->
<g id="node1" class="node">
<title>Node1</title>
<g id="a_node1"><a xlink:title="Registers a swarm field without finalizing registration.">
<polygon fill="#bfbfbf" stroke="black" points="570,-19.5 570,-38.5 683,-38.5 683,-19.5 570,-19.5"/>
<text text-anchor="middle" x="626.5" y="-26.5" font-family="Helvetica,sans-Serif" font-size="10.00">RegisterSwarmField</text>
</a>
</g>
</g>
<!-- Node2 -->
<g id="node2" class="node">
<title>Node2</title>
<g id="a_node2"><a xlink:href="ParticleSwarm_8c.html#aeae3fd559e91d7379302acb6ccd13011" target="_top" xlink:title="Registers necessary particle fields within the DMSwarm.">
<polygon fill="none" stroke="black" points="404.5,-38.5 404.5,-57.5 526.5,-57.5 526.5,-38.5 404.5,-38.5"/>
<text text-anchor="middle" x="465.5" y="-45.5" font-family="Helvetica,sans-Serif" font-size="10.00">RegisterParticleFields</text>
</a>
</g>
</g>
<!-- Node1&#45;&gt;Node2 -->
<g id="edge1" class="edge">
<title>Node1&#45;&gt;Node2</title>
<path fill="none" stroke="midnightblue" d="M559.91,-36.84C548.91,-38.15 537.54,-39.51 526.68,-40.81"/>
<polygon fill="midnightblue" stroke="midnightblue" points="560.38,-40.31 569.89,-35.65 559.54,-33.36 560.38,-40.31"/>
</g>
<!-- Node6 -->
<g id="node6" class="node">
<title>Node6</title>
<g id="a_node6"><a xlink:href="postprocessor_8c.html#ac3854bbfeab13a489af2f23b95b456d2" target="_top" xlink:title="Creates a new, dedicated DMSwarm for post&#45;processing tasks.">
<polygon fill="none" stroke="black" points="397,-0.5 397,-19.5 534,-19.5 534,-0.5 397,-0.5"/>
<text text-anchor="middle" x="465.5" y="-7.5" font-family="Helvetica,sans-Serif" font-size="10.00">SetupPostProcessSwarm</text>
</a>
</g>
</g>
<!-- Node1&#45;&gt;Node6 -->
<g id="edge5" class="edge">
<title>Node1&#45;&gt;Node6</title>
<path fill="none" stroke="midnightblue" d="M559.71,-21.14C551.26,-20.13 542.59,-19.09 534.11,-18.08"/>
<polygon fill="midnightblue" stroke="midnightblue" points="559.54,-24.64 569.89,-22.35 560.38,-17.69 559.54,-24.64"/>
</g>
<!-- Node3 -->
<g id="node3" class="node">
<title>Node3</title>
<g id="a_node3"><a xlink:href="ParticleSwarm_8c.html#a063f4fd13a24b248fabd0268c49fd38c" target="_top" xlink:title="Creates and initializes a Particle Swarm.">
<polygon fill="none" stroke="black" points="242,-38.5 242,-57.5 361,-57.5 361,-38.5 242,-38.5"/>
<text text-anchor="middle" x="301.5" y="-45.5" font-family="Helvetica,sans-Serif" font-size="10.00">CreateParticleSwarm</text>
</a>
</g>
</g>
<!-- Node2&#45;&gt;Node3 -->
<g id="edge2" class="edge">
<title>Node2&#45;&gt;Node3</title>
<path fill="none" stroke="midnightblue" d="M393.85,-48C382.97,-48 371.84,-48 361.26,-48"/>
<polygon fill="midnightblue" stroke="midnightblue" points="394.18,-51.5 404.18,-48 394.18,-44.5 394.18,-51.5"/>
</g>
<!-- Node4 -->
<g id="node4" class="node">
<title>Node4</title>
<g id="a_node4"><a xlink:href="ParticleSwarm_8c.html#ada215a5db25227a8fd2cd2596e7d3e57" target="_top" xlink:title="Perform particle swarm initialization, particle&#45;grid interaction, and related operations.">
<polygon fill="none" stroke="black" points="77,-38.5 77,-57.5 206,-57.5 206,-38.5 77,-38.5"/>
<text text-anchor="middle" x="141.5" y="-45.5" font-family="Helvetica,sans-Serif" font-size="10.00">InitializeParticleSwarm</text>
</a>
</g>
</g>
<!-- Node3&#45;&gt;Node4 -->
<g id="edge3" class="edge">
<title>Node3&#45;&gt;Node4</title>
<path fill="none" stroke="midnightblue" d="M231.49,-48C223.07,-48 214.49,-48 206.15,-48"/>
<polygon fill="midnightblue" stroke="midnightblue" points="231.67,-51.5 241.67,-48 231.67,-44.5 231.67,-51.5"/>
</g>
<!-- Node5 -->
<g id="node5" class="node">
<title>Node5</title>
<g id="a_node5"><a xlink:href="picsolver_8c.html#a3c04138a5bfe5d72780bb7e82a18e627" target="_top" xlink:title=" ">
<polygon fill="none" stroke="black" points="0,-38.5 0,-57.5 41,-57.5 41,-38.5 0,-38.5"/>
<text text-anchor="middle" x="20.5" y="-45.5" font-family="Helvetica,sans-Serif" font-size="10.00">main</text>
</a>
</g>
</g>
<!-- Node4&#45;&gt;Node5 -->
<g id="edge4" class="edge">
<title>Node4&#45;&gt;Node5</title>
<path fill="none" stroke="midnightblue" d="M66.53,-48C57.19,-48 48.35,-48 41.03,-48"/>
<polygon fill="midnightblue" stroke="midnightblue" points="66.82,-51.5 76.82,-48 66.82,-44.5 66.82,-51.5"/>
</g>
<!-- Node7 -->
<g id="node7" class="node">
<title>Node7</title>
<g id="a_node7"><a xlink:href="postprocessor_8c.html#a3c04138a5bfe5d72780bb7e82a18e627" target="_top" xlink:title=" ">
<polygon fill="none" stroke="black" points="281,-0.5 281,-19.5 322,-19.5 322,-0.5 281,-0.5"/>
<text text-anchor="middle" x="301.5" y="-7.5" font-family="Helvetica,sans-Serif" font-size="10.00">main</text>
</a>
</g>
</g>
<!-- Node6&#45;&gt;Node7 -->
<g id="edge6" class="edge">
<title>Node6&#45;&gt;Node7</title>
<path fill="none" stroke="midnightblue" d="M386.52,-10C362.58,-10 338.29,-10 322.02,-10"/>
<polygon fill="midnightblue" stroke="midnightblue" points="386.74,-13.5 396.74,-10 386.74,-6.5 386.74,-13.5"/>
</g>
</g>
</svg>
