<?xml version="1.0" encoding="UTF-8" standalone="no"?>
<!DOCTYPE svg PUBLIC "-//W3C//DTD SVG 1.1//EN"
 "http://www.w3.org/Graphics/SVG/1.1/DTD/svg11.dtd">
<!-- Generated by graphviz version 2.43.0 (0)
 -->
<!-- Title: ReinitializeParticlesOnInletSurface Pages: 1 -->
<svg width="560pt" height="53pt"
 viewBox="0.00 0.00 560.00 52.50" xmlns="http://www.w3.org/2000/svg" xmlns:xlink="http://www.w3.org/1999/xlink">
<g id="graph0" class="graph" transform="scale(1 1) rotate(0) translate(4 48.5)">
<title>ReinitializeParticlesOnInletSurface</title>
<!-- Node1 -->
<g id="node1" class="node">
<title>Node1</title>
<g id="a_node1"><a xlink:title="Re&#45;initializes the positions of particles currently on this rank if this rank owns part of the design...">
<polygon fill="#bfbfbf" stroke="black" points="403,-0.5 403,-30.5 552,-30.5 552,-0.5 403,-0.5"/>
<text text-anchor="start" x="411" y="-18.5" font-family="Helvetica,sans-Serif" font-size="10.00">ReinitializeParticlesOnInlet</text>
<text text-anchor="middle" x="477.5" y="-7.5" font-family="Helvetica,sans-Serif" font-size="10.00">Surface</text>
</a>
</g>
</g>
<!-- Node2 -->
<g id="node2" class="node">
<title>Node2</title>
<g id="a_node2"><a xlink:href="simulation_8c.html#aa5b3c3a0cd447931b47a01267c36acdd" target="_top" xlink:title="Finalizes the simulation setup at t=0, ensuring a consistent state before time marching.">
<polygon fill="none" stroke="black" points="227,-0.5 227,-30.5 367,-30.5 367,-0.5 227,-0.5"/>
<text text-anchor="start" x="235" y="-18.5" font-family="Helvetica,sans-Serif" font-size="10.00">PerformInitializedParticle</text>
<text text-anchor="middle" x="297" y="-7.5" font-family="Helvetica,sans-Serif" font-size="10.00">Setup</text>
</a>
</g>
</g>
<!-- Node1&#45;&gt;Node2 -->
<g id="edge1" class="edge">
<title>Node1&#45;&gt;Node2</title>
<path fill="none" stroke="midnightblue" d="M392.83,-15.5C384.24,-15.5 375.57,-15.5 367.16,-15.5"/>
<polygon fill="midnightblue" stroke="midnightblue" points="392.87,-19 402.87,-15.5 392.87,-12 392.87,-19"/>
</g>
<!-- Node3 -->
<g id="node3" class="node">
<title>Node3</title>
<g id="a_node3"><a xlink:href="simulation_8c.html#a7bc2bae7b01f179706b367c8637534c2" target="_top" xlink:title="Performs post&#45;load/post&#45;init consistency checks for a restarted simulation.">
<polygon fill="none" stroke="black" points="77,-25 77,-44 191,-44 191,-25 77,-25"/>
<text text-anchor="middle" x="134" y="-32" font-family="Helvetica,sans-Serif" font-size="10.00">FinalizeRestartState</text>
</a>
</g>
</g>
<!-- Node2&#45;&gt;Node3 -->
<g id="edge2" class="edge">
<title>Node2&#45;&gt;Node3</title>
<path fill="none" stroke="midnightblue" d="M216.66,-24.86C208.01,-25.88 199.34,-26.91 191.06,-27.88"/>
<polygon fill="midnightblue" stroke="midnightblue" points="217.27,-28.32 226.79,-23.67 216.45,-21.36 217.27,-28.32"/>
</g>
<!-- Node4 -->
<g id="node4" class="node">
<title>Node4</title>
<g id="a_node4"><a xlink:href="picsolver_8c.html#a3c04138a5bfe5d72780bb7e82a18e627" target="_top" xlink:title=" ">
<polygon fill="none" stroke="black" points="0,-6 0,-25 41,-25 41,-6 0,-6"/>
<text text-anchor="middle" x="20.5" y="-13" font-family="Helvetica,sans-Serif" font-size="10.00">main</text>
</a>
</g>
</g>
<!-- Node2&#45;&gt;Node4 -->
<g id="edge4" class="edge">
<title>Node2&#45;&gt;Node4</title>
<path fill="none" stroke="midnightblue" d="M216.44,-15.5C156.02,-15.5 77.38,-15.5 41.23,-15.5"/>
<polygon fill="midnightblue" stroke="midnightblue" points="216.73,-19 226.73,-15.5 216.73,-12 216.73,-19"/>
</g>
<!-- Node3&#45;&gt;Node4 -->
<g id="edge3" class="edge">
<title>Node3&#45;&gt;Node4</title>
<path fill="none" stroke="midnightblue" d="M66.99,-23.25C57.56,-21.64 48.53,-20.11 41.04,-18.83"/>
<polygon fill="midnightblue" stroke="midnightblue" points="66.48,-26.71 76.92,-24.94 67.65,-19.81 66.48,-26.71"/>
</g>
</g>
</svg>
