<?xml version="1.0" encoding="UTF-8" standalone="no"?>
<!DOCTYPE svg PUBLIC "-//W3C//DTD SVG 1.1//EN"
 "http://www.w3.org/Graphics/SVG/1.1/DTD/svg11.dtd">
<!-- Generated by graphviz version 2.43.0 (0)
 -->
<!-- Title: CreateParticleSwarm Pages: 1 -->
<svg width="434pt" height="180pt"
 viewBox="0.00 0.00 434.00 180.00" xmlns="http://www.w3.org/2000/svg" xmlns:xlink="http://www.w3.org/1999/xlink">
<g id="graph0" class="graph" transform="scale(1 1) rotate(0) translate(4 176)">
<title>CreateParticleSwarm</title>
<!-- Node1 -->
<g id="node1" class="node">
<title>Node1</title>
<g id="a_node1"><a xlink:title="Creates and initializes a Particle Swarm.">
<polygon fill="#bfbfbf" stroke="black" points="0,-76.5 0,-95.5 119,-95.5 119,-76.5 0,-76.5"/>
<text text-anchor="middle" x="59.5" y="-83.5" font-family="Helvetica,sans-Serif" font-size="10.00">CreateParticleSwarm</text>
</a>
</g>
</g>
<!-- Node2 -->
<g id="node2" class="node">
<title>Node2</title>
<g id="a_node2"><a xlink:href="ParticleSwarm_8c.html#a1cc0975a3eec2e2f817d0e3a09040620" target="_top" xlink:title="Distributes particles evenly across MPI processes, handling any remainders.">
<polygon fill="none" stroke="black" points="162.5,-152.5 162.5,-171.5 269.5,-171.5 269.5,-152.5 162.5,-152.5"/>
<text text-anchor="middle" x="216" y="-159.5" font-family="Helvetica,sans-Serif" font-size="10.00">DistributeParticles</text>
</a>
</g>
</g>
<!-- Node1&#45;&gt;Node2 -->
<g id="edge1" class="edge">
<title>Node1&#45;&gt;Node2</title>
<path fill="none" stroke="midnightblue" d="M74.03,-95.57C91.88,-107.87 124.62,-129.26 155,-143 159.79,-145.17 164.9,-147.19 170.05,-149.05"/>
<polygon fill="midnightblue" stroke="midnightblue" points="169.3,-152.49 179.89,-152.41 171.56,-145.87 169.3,-152.49"/>
</g>
<!-- Node3 -->
<g id="node3" class="node">
<title>Node3</title>
<g id="a_node3"><a xlink:href="logging_8h.html#a9585f583c260f40a73f2490914edc689" target="_top" xlink:title="Retrieves the current logging level from the environment variable LOG_LEVEL.">
<polygon fill="none" stroke="black" points="175,-114.5 175,-133.5 257,-133.5 257,-114.5 175,-114.5"/>
<text text-anchor="middle" x="216" y="-121.5" font-family="Helvetica,sans-Serif" font-size="10.00">get_log_level</text>
</a>
</g>
</g>
<!-- Node1&#45;&gt;Node3 -->
<g id="edge2" class="edge">
<title>Node1&#45;&gt;Node3</title>
<path fill="none" stroke="midnightblue" d="M99.49,-95.59C119.78,-100.58 144.79,-106.73 166.35,-112.03"/>
<polygon fill="midnightblue" stroke="midnightblue" points="165.75,-115.49 176.29,-114.48 167.42,-108.69 165.75,-115.49"/>
</g>
<!-- Node4 -->
<g id="node4" class="node">
<title>Node4</title>
<g id="a_node4"><a xlink:href="ParticleSwarm_8c.html#ac3566e0b51587686bc6c1366a67c44af" target="_top" xlink:title="Initializes the DMSwarm object within the UserCtx structure.">
<polygon fill="none" stroke="black" points="170,-76.5 170,-95.5 262,-95.5 262,-76.5 170,-76.5"/>
<text text-anchor="middle" x="216" y="-83.5" font-family="Helvetica,sans-Serif" font-size="10.00">InitializeSwarm</text>
</a>
</g>
</g>
<!-- Node1&#45;&gt;Node4 -->
<g id="edge3" class="edge">
<title>Node1&#45;&gt;Node4</title>
<path fill="none" stroke="midnightblue" d="M119.35,-86C132.54,-86 146.49,-86 159.53,-86"/>
<polygon fill="midnightblue" stroke="midnightblue" points="159.77,-89.5 169.77,-86 159.77,-82.5 159.77,-89.5"/>
</g>
<!-- Node5 -->
<g id="node5" class="node">
<title>Node5</title>
<g id="a_node5"><a xlink:href="logging_8h.html#a2358badbcda33fc9d80ebd6a59d2a2cd" target="_top" xlink:title="Checks if a given function is in the allow&#45;list.">
<polygon fill="none" stroke="black" points="159.5,-38.5 159.5,-57.5 272.5,-57.5 272.5,-38.5 159.5,-38.5"/>
<text text-anchor="middle" x="216" y="-45.5" font-family="Helvetica,sans-Serif" font-size="10.00">is_function_allowed</text>
</a>
</g>
</g>
<!-- Node1&#45;&gt;Node5 -->
<g id="edge4" class="edge">
<title>Node1&#45;&gt;Node5</title>
<path fill="none" stroke="midnightblue" d="M99.49,-76.41C119.78,-71.42 144.79,-65.27 166.35,-59.97"/>
<polygon fill="midnightblue" stroke="midnightblue" points="167.42,-63.31 176.29,-57.52 165.75,-56.51 167.42,-63.31"/>
</g>
<!-- Node6 -->
<g id="node6" class="node">
<title>Node6</title>
<g id="a_node6"><a xlink:href="ParticleSwarm_8c.html#aeae3fd559e91d7379302acb6ccd13011" target="_top" xlink:title="Registers necessary particle fields within the DMSwarm.">
<polygon fill="none" stroke="black" points="155,-0.5 155,-19.5 277,-19.5 277,-0.5 155,-0.5"/>
<text text-anchor="middle" x="216" y="-7.5" font-family="Helvetica,sans-Serif" font-size="10.00">RegisterParticleFields</text>
</a>
</g>
</g>
<!-- Node1&#45;&gt;Node6 -->
<g id="edge5" class="edge">
<title>Node1&#45;&gt;Node6</title>
<path fill="none" stroke="midnightblue" d="M74.03,-76.43C91.88,-64.13 124.62,-42.74 155,-29 159.79,-26.83 164.9,-24.81 170.05,-22.95"/>
<polygon fill="midnightblue" stroke="midnightblue" points="171.56,-26.13 179.89,-19.59 169.3,-19.51 171.56,-26.13"/>
</g>
<!-- Node7 -->
<g id="node7" class="node">
<title>Node7</title>
<g id="a_node7"><a xlink:href="ParticleSwarm_8c.html#adcaec962a8ff017ba9f859716405f51a" target="_top" xlink:title="Registers a swarm field without finalizing registration.">
<polygon fill="none" stroke="black" points="313,-0.5 313,-19.5 426,-19.5 426,-0.5 313,-0.5"/>
<text text-anchor="middle" x="369.5" y="-7.5" font-family="Helvetica,sans-Serif" font-size="10.00">RegisterSwarmField</text>
</a>
</g>
</g>
<!-- Node6&#45;&gt;Node7 -->
<g id="edge6" class="edge">
<title>Node6&#45;&gt;Node7</title>
<path fill="none" stroke="midnightblue" d="M277.31,-10C285.64,-10 294.23,-10 302.66,-10"/>
<polygon fill="midnightblue" stroke="midnightblue" points="302.82,-13.5 312.82,-10 302.82,-6.5 302.82,-13.5"/>
</g>
</g>
</svg>
