<?xml version="1.0" encoding="UTF-8" standalone="no"?>
<!DOCTYPE svg PUBLIC "-//W3C//DTD SVG 1.1//EN"
 "http://www.w3.org/Graphics/SVG/1.1/DTD/svg11.dtd">
<!-- Generated by graphviz version 2.43.0 (0)
 -->
<!-- Title: ResetAllParticleStatuses Pages: 1 -->
<svg width="547pt" height="104pt"
 viewBox="0.00 0.00 547.00 104.00" xmlns="http://www.w3.org/2000/svg" xmlns:xlink="http://www.w3.org/1999/xlink">
<g id="graph0" class="graph" transform="scale(1 1) rotate(0) translate(4 100)">
<title>ResetAllParticleStatuses</title>
<!-- Node1 -->
<g id="node1" class="node">
<title>Node1</title>
<g id="a_node1"><a xlink:title="This function is designed to be called at the end of a full timestep, after all particle&#45;based calcul...">
<polygon fill="#bfbfbf" stroke="black" points="403,-54.5 403,-73.5 539,-73.5 539,-54.5 403,-54.5"/>
<text text-anchor="middle" x="471" y="-61.5" font-family="Helvetica,sans-Serif" font-size="10.00">ResetAllParticleStatuses</text>
</a>
</g>
</g>
<!-- Node2 -->
<g id="node2" class="node">
<title>Node2</title>
<g id="a_node2"><a xlink:href="simulation_8c.html#a5cfb2f783604af7f20171d19f969d5d3" target="_top" xlink:title="Executes the main time&#45;marching loop for the coupled Euler&#45;Lagrange simulation.">
<polygon fill="none" stroke="black" points="78.5,-76.5 78.5,-95.5 189.5,-95.5 189.5,-76.5 78.5,-76.5"/>
<text text-anchor="middle" x="134" y="-83.5" font-family="Helvetica,sans-Serif" font-size="10.00">AdvanceSimulation</text>
</a>
</g>
</g>
<!-- Node1&#45;&gt;Node2 -->
<g id="edge1" class="edge">
<title>Node1&#45;&gt;Node2</title>
<path fill="none" stroke="midnightblue" d="M392.46,-69.09C330.31,-73.17 244.67,-78.8 189.56,-82.42"/>
<polygon fill="midnightblue" stroke="midnightblue" points="392.86,-72.57 402.61,-68.43 392.4,-65.59 392.86,-72.57"/>
</g>
<!-- Node4 -->
<g id="node4" class="node">
<title>Node4</title>
<g id="a_node4"><a xlink:href="simulation_8c.html#aa5b3c3a0cd447931b47a01267c36acdd" target="_top" xlink:title="Finalizes the simulation setup at t=0, ensuring a consistent state before time marching.">
<polygon fill="none" stroke="black" points="227,-27 227,-57 367,-57 367,-27 227,-27"/>
<text text-anchor="start" x="235" y="-45" font-family="Helvetica,sans-Serif" font-size="10.00">PerformInitializedParticle</text>
<text text-anchor="middle" x="297" y="-34" font-family="Helvetica,sans-Serif" font-size="10.00">Setup</text>
</a>
</g>
</g>
<!-- Node1&#45;&gt;Node4 -->
<g id="edge3" class="edge">
<title>Node1&#45;&gt;Node4</title>
<path fill="none" stroke="midnightblue" d="M392.38,-54.07C384.01,-53 375.53,-51.92 367.27,-50.86"/>
<polygon fill="midnightblue" stroke="midnightblue" points="392.15,-57.57 402.51,-55.37 393.04,-50.63 392.15,-57.57"/>
</g>
<!-- Node3 -->
<g id="node3" class="node">
<title>Node3</title>
<g id="a_node3"><a xlink:href="picsolver_8c.html#a3c04138a5bfe5d72780bb7e82a18e627" target="_top" xlink:title=" ">
<polygon fill="none" stroke="black" points="0,-38.5 0,-57.5 41,-57.5 41,-38.5 0,-38.5"/>
<text text-anchor="middle" x="20.5" y="-45.5" font-family="Helvetica,sans-Serif" font-size="10.00">main</text>
</a>
</g>
</g>
<!-- Node2&#45;&gt;Node3 -->
<g id="edge2" class="edge">
<title>Node2&#45;&gt;Node3</title>
<path fill="none" stroke="midnightblue" d="M95.15,-73.1C77.03,-66.93 56.1,-59.79 41.19,-54.71"/>
<polygon fill="midnightblue" stroke="midnightblue" points="94.27,-76.5 104.86,-76.41 96.53,-69.87 94.27,-76.5"/>
</g>
<!-- Node4&#45;&gt;Node3 -->
<g id="edge6" class="edge">
<title>Node4&#45;&gt;Node3</title>
<path fill="none" stroke="midnightblue" d="M216.44,-43.74C156.02,-45.06 77.38,-46.78 41.23,-47.57"/>
<polygon fill="midnightblue" stroke="midnightblue" points="216.81,-47.23 226.73,-43.51 216.66,-40.23 216.81,-47.23"/>
</g>
<!-- Node5 -->
<g id="node5" class="node">
<title>Node5</title>
<g id="a_node5"><a xlink:href="simulation_8c.html#a7bc2bae7b01f179706b367c8637534c2" target="_top" xlink:title="Performs post&#45;load/post&#45;init consistency checks for a restarted simulation.">
<polygon fill="none" stroke="black" points="77,-0.5 77,-19.5 191,-19.5 191,-0.5 77,-0.5"/>
<text text-anchor="middle" x="134" y="-7.5" font-family="Helvetica,sans-Serif" font-size="10.00">FinalizeRestartState</text>
</a>
</g>
</g>
<!-- Node4&#45;&gt;Node5 -->
<g id="edge4" class="edge">
<title>Node4&#45;&gt;Node5</title>
<path fill="none" stroke="midnightblue" d="M216.65,-26.23C205.08,-23.93 193.48,-21.62 182.8,-19.5"/>
<polygon fill="midnightblue" stroke="midnightblue" points="216.3,-29.73 226.79,-28.24 217.66,-22.86 216.3,-29.73"/>
</g>
<!-- Node5&#45;&gt;Node3 -->
<g id="edge5" class="edge">
<title>Node5&#45;&gt;Node3</title>
<path fill="none" stroke="midnightblue" d="M95.15,-22.9C77.03,-29.07 56.1,-36.21 41.19,-41.29"/>
<polygon fill="midnightblue" stroke="midnightblue" points="96.53,-26.13 104.86,-19.59 94.27,-19.5 96.53,-26.13"/>
</g>
</g>
</svg>
