<?xml version="1.0" encoding="UTF-8" standalone="no"?>
<!DOCTYPE svg PUBLIC "-//W3C//DTD SVG 1.1//EN"
 "http://www.w3.org/Graphics/SVG/1.1/DTD/svg11.dtd">
<!-- Generated by graphviz version 2.43.0 (0)
 -->
<!-- Title: ResizeSwarmGlobally Pages: 1 -->
<svg width="577pt" height="66pt"
 viewBox="0.00 0.00 577.00 66.00" xmlns="http://www.w3.org/2000/svg" xmlns:xlink="http://www.w3.org/1999/xlink">
<g id="graph0" class="graph" transform="scale(1 1) rotate(0) translate(4 62)">
<title>ResizeSwarmGlobally</title>
<!-- Node1 -->
<g id="node1" class="node">
<title>Node1</title>
<g id="a_node1"><a xlink:title=" ">
<polygon fill="#bfbfbf" stroke="black" points="446,-19.5 446,-38.5 569,-38.5 569,-19.5 446,-19.5"/>
<text text-anchor="middle" x="507.5" y="-26.5" font-family="Helvetica,sans-Serif" font-size="10.00">ResizeSwarmGlobally</text>
</a>
</g>
</g>
<!-- Node2 -->
<g id="node2" class="node">
<title>Node2</title>
<g id="a_node2"><a xlink:href="postprocessor_8c.html#a5866209129dc3d2532fb7905777079af" target="_top" xlink:title="Parses and executes the particle pipeline using a robust two&#45;pass approach.">
<polygon fill="none" stroke="black" points="242,-38.5 242,-57.5 410,-57.5 410,-38.5 242,-38.5"/>
<text text-anchor="middle" x="326" y="-45.5" font-family="Helvetica,sans-Serif" font-size="10.00">ParticleDataProcessingPipeline</text>
</a>
</g>
</g>
<!-- Node1&#45;&gt;Node2 -->
<g id="edge1" class="edge">
<title>Node1&#45;&gt;Node2</title>
<path fill="none" stroke="midnightblue" d="M435.7,-36.49C427.36,-37.38 418.8,-38.28 410.31,-39.18"/>
<polygon fill="midnightblue" stroke="midnightblue" points="436.15,-39.97 445.73,-35.43 435.42,-33 436.15,-39.97"/>
</g>
<!-- Node4 -->
<g id="node4" class="node">
<title>Node4</title>
<g id="a_node4"><a xlink:href="ParticleMotion_8c.html#ae0c7489fc52fda6c92cd1f22c3f50c38" target="_top" xlink:title="Checks particle count from a saved file and resizes the swarm globally.">
<polygon fill="none" stroke="black" points="252.5,-0.5 252.5,-19.5 399.5,-19.5 399.5,-0.5 252.5,-0.5"/>
<text text-anchor="middle" x="326" y="-7.5" font-family="Helvetica,sans-Serif" font-size="10.00">PreCheckAndResizeSwarm</text>
</a>
</g>
</g>
<!-- Node1&#45;&gt;Node4 -->
<g id="edge3" class="edge">
<title>Node1&#45;&gt;Node4</title>
<path fill="none" stroke="midnightblue" d="M435.48,-21.48C423.65,-20.23 411.37,-18.93 399.51,-17.67"/>
<polygon fill="midnightblue" stroke="midnightblue" points="435.42,-25 445.73,-22.57 436.15,-18.03 435.42,-25"/>
</g>
<!-- Node3 -->
<g id="node3" class="node">
<title>Node3</title>
<g id="a_node3"><a xlink:href="postprocessor_8c.html#a3c04138a5bfe5d72780bb7e82a18e627" target="_top" xlink:title=" ">
<polygon fill="none" stroke="black" points="121,-38.5 121,-57.5 162,-57.5 162,-38.5 121,-38.5"/>
<text text-anchor="middle" x="141.5" y="-45.5" font-family="Helvetica,sans-Serif" font-size="10.00">main</text>
</a>
</g>
</g>
<!-- Node2&#45;&gt;Node3 -->
<g id="edge2" class="edge">
<title>Node2&#45;&gt;Node3</title>
<path fill="none" stroke="midnightblue" d="M231.7,-48C205.44,-48 179.41,-48 162.31,-48"/>
<polygon fill="midnightblue" stroke="midnightblue" points="231.76,-51.5 241.76,-48 231.76,-44.5 231.76,-51.5"/>
</g>
<!-- Node4&#45;&gt;Node3 -->
<g id="edge6" class="edge">
<title>Node4&#45;&gt;Node3</title>
<path fill="none" stroke="midnightblue" d="M268.98,-21.67C232.72,-29.22 187.69,-38.59 162.31,-43.87"/>
<polygon fill="midnightblue" stroke="midnightblue" points="269.87,-25.05 278.95,-19.59 268.44,-18.2 269.87,-25.05"/>
</g>
<!-- Node5 -->
<g id="node5" class="node">
<title>Node5</title>
<g id="a_node5"><a xlink:href="ParticleSwarm_8c.html#ada215a5db25227a8fd2cd2596e7d3e57" target="_top" xlink:title="Perform particle swarm initialization, particle&#45;grid interaction, and related operations.">
<polygon fill="none" stroke="black" points="77,-0.5 77,-19.5 206,-19.5 206,-0.5 77,-0.5"/>
<text text-anchor="middle" x="141.5" y="-7.5" font-family="Helvetica,sans-Serif" font-size="10.00">InitializeParticleSwarm</text>
</a>
</g>
</g>
<!-- Node4&#45;&gt;Node5 -->
<g id="edge4" class="edge">
<title>Node4&#45;&gt;Node5</title>
<path fill="none" stroke="midnightblue" d="M242.22,-10C230.08,-10 217.73,-10 206.06,-10"/>
<polygon fill="midnightblue" stroke="midnightblue" points="242.35,-13.5 252.35,-10 242.35,-6.5 242.35,-13.5"/>
</g>
<!-- Node6 -->
<g id="node6" class="node">
<title>Node6</title>
<g id="a_node6"><a xlink:href="picsolver_8c.html#a3c04138a5bfe5d72780bb7e82a18e627" target="_top" xlink:title=" ">
<polygon fill="none" stroke="black" points="0,-0.5 0,-19.5 41,-19.5 41,-0.5 0,-0.5"/>
<text text-anchor="middle" x="20.5" y="-7.5" font-family="Helvetica,sans-Serif" font-size="10.00">main</text>
</a>
</g>
</g>
<!-- Node5&#45;&gt;Node6 -->
<g id="edge5" class="edge">
<title>Node5&#45;&gt;Node6</title>
<path fill="none" stroke="midnightblue" d="M66.53,-10C57.19,-10 48.35,-10 41.03,-10"/>
<polygon fill="midnightblue" stroke="midnightblue" points="66.82,-13.5 76.82,-10 66.82,-6.5 66.82,-13.5"/>
</g>
</g>
</svg>
