<?xml version="1.0" encoding="UTF-8" standalone="no"?>
<!DOCTYPE svg PUBLIC "-//W3C//DTD SVG 1.1//EN"
 "http://www.w3.org/Graphics/SVG/1.1/DTD/svg11.dtd">
<!-- Generated by graphviz version 2.43.0 (0)
 -->
<!-- Title: AssignInitialPropertiesToSwarm Pages: 1 -->
<!--zoomable 211 -->
<svg id="main" version="1.1" xmlns="http://www.w3.org/2000/svg" xmlns:xlink="http://www.w3.org/1999/xlink" xml:space="preserve" onload="init(evt)">
<style type="text/css"><![CDATA[
.edge:hover path { stroke: red; }
.edge:hover polygon { stroke: red; fill: red; }
]]></style>
<script type="text/javascript"><![CDATA[
var edges = document.getElementsByTagName('g');
if (edges && edges.length) {
  for (var i=0;i<edges.length;i++) {
    if (edges[i].id.substr(0,4)=='edge') {
      edges[i].setAttribute('class','edge');
    }
  }
}
]]></script>
        <defs>
                <circle id="rim" cx="0" cy="0" r="7"/>
                <circle id="rim2" cx="0" cy="0" r="3.5"/>
                <g id="zoomPlus">
                        <use xlink:href="#rim" fill="#404040">
                                <set attributeName="fill" to="#808080" begin="zoomplus.mouseover" end="zoomplus.mouseout"/>
                        </use>
                        <path d="M-4,0h8M0,-4v8" fill="none" stroke="white" stroke-width="1.5" pointer-events="none"/>
                </g>
                <g id="zoomMin">
                        <use xlink:href="#rim" fill="#404040">
                                <set attributeName="fill" to="#808080" begin="zoomminus.mouseover" end="zoomminus.mouseout"/>
                        </use>
                        <path d="M-4,0h8" fill="none" stroke="white" stroke-width="1.5" pointer-events="none"/>
                </g>
                <g id="dirArrow">
                        <path fill="none" stroke="white" stroke-width="1.5" d="M0,-3.0v7 M-2.5,-0.5L0,-3.0L2.5,-0.5"/>
                </g>
               <g id="resetDef">
                       <use xlink:href="#rim2" fill="#404040">
                               <set attributeName="fill" to="#808080" begin="reset.mouseover" end="reset.mouseout"/>
                       </use>
               </g>
        </defs>

<script type="text/javascript">
var viewWidth = 742;
var viewHeight = 211;
var sectionId = 'dynsection-13';
</script>
<script xlink:href="svgpan.js"/>
<svg id="graph" class="graph">
<g id="viewport">
<title>AssignInitialPropertiesToSwarm</title>
<!-- Node1 -->
<g id="node1" class="node">
<title>Node1</title>
<g id="a_node1"><a xlink:title="Initializes all particle properties in the swarm.">
<polygon fill="#bfbfbf" stroke="black" points="0,-115 0,-145 137,-145 137,-115 0,-115"/>
<text text-anchor="start" x="8" y="-133" font-family="Helvetica,sans-Serif" font-size="10.00">AssignInitialPropertiesTo</text>
<text text-anchor="middle" x="68.5" y="-122" font-family="Helvetica,sans-Serif" font-size="10.00">Swarm</text>
</a>
</g>
</g>
<!-- Node2 -->
<g id="node2" class="node">
<title>Node2</title>
<g id="a_node2"><a xlink:href="ParticleSwarm_8c.html#a38c3c55ea49021ac59eea87b61e942d1" target="_top" xlink:title="Initializes a generic swarm field with point&#45;level updates.">
<polygon fill="none" stroke="black" points="187,-161.5 187,-180.5 330,-180.5 330,-161.5 187,-161.5"/>
<text text-anchor="middle" x="258.5" y="-168.5" font-family="Helvetica,sans-Serif" font-size="10.00">AssignInitialFieldToSwarm</text>
</a>
</g>
</g>
<!-- Node1&#45;&gt;Node2 -->
<g id="edge1" class="edge">
<title>Node1&#45;&gt;Node2</title>
<path fill="none" stroke="midnightblue" d="M137.11,-144.74C159.09,-149.54 183.17,-154.79 203.98,-159.33"/>
<polygon fill="midnightblue" stroke="midnightblue" points="203.39,-162.78 213.91,-161.49 204.88,-155.94 203.39,-162.78"/>
</g>
<!-- Node4 -->
<g id="node4" class="node">
<title>Node4</title>
<g id="a_node4"><a xlink:href="ParticleSwarm_8c.html#a95efc9f04a0187f2a1d920952bd610e0" target="_top" xlink:title="Initializes basic properties for particles on the local process.">
<polygon fill="none" stroke="black" points="173,-101.5 173,-120.5 344,-120.5 344,-101.5 173,-101.5"/>
<text text-anchor="middle" x="258.5" y="-108.5" font-family="Helvetica,sans-Serif" font-size="10.00">InitializeParticleBasicProperties</text>
</a>
</g>
</g>
<!-- Node1&#45;&gt;Node4 -->
<g id="edge3" class="edge">
<title>Node1&#45;&gt;Node4</title>
<path fill="none" stroke="midnightblue" d="M137.11,-123.17C145.43,-122.33 154.05,-121.45 162.69,-120.58"/>
<polygon fill="midnightblue" stroke="midnightblue" points="163.21,-124.05 172.81,-119.56 162.5,-117.08 163.21,-124.05"/>
</g>
<!-- Node3 -->
<g id="node3" class="node">
<title>Node3</title>
<g id="a_node3"><a xlink:href="ParticleSwarm_8c.html#a3d66def17ca5bb54005762184e28c684" target="_top" xlink:title="Helper function to Initialize a given particle’s field value.">
<polygon fill="none" stroke="black" points="406,-183.5 406,-202.5 549,-202.5 549,-183.5 406,-183.5"/>
<text text-anchor="middle" x="477.5" y="-190.5" font-family="Helvetica,sans-Serif" font-size="10.00">InitializeSwarmFieldValue</text>
</a>
</g>
</g>
<!-- Node2&#45;&gt;Node3 -->
<g id="edge2" class="edge">
<title>Node2&#45;&gt;Node3</title>
<path fill="none" stroke="midnightblue" d="M330.25,-178.17C351.18,-180.29 374.25,-182.63 395.76,-184.81"/>
<polygon fill="midnightblue" stroke="midnightblue" points="395.54,-188.31 405.84,-185.84 396.25,-181.35 395.54,-188.31"/>
</g>
<!-- Node5 -->
<g id="node5" class="node">
<title>Node5</title>
<g id="a_node5"><a xlink:href="Boundaries_8h.html#ab679d620b2d750179fbc2363fc562a1f" target="_top" xlink:title="Determines if the current MPI rank owns any part of the globally defined inlet face,...">
<polygon fill="none" stroke="black" points="407.5,-145.5 407.5,-164.5 547.5,-164.5 547.5,-145.5 407.5,-145.5"/>
<text text-anchor="middle" x="477.5" y="-152.5" font-family="Helvetica,sans-Serif" font-size="10.00">CanRankServiceInletFace</text>
</a>
</g>
</g>
<!-- Node4&#45;&gt;Node5 -->
<g id="edge4" class="edge">
<title>Node4&#45;&gt;Node5</title>
<path fill="none" stroke="midnightblue" d="M304.97,-120.55C327.52,-125.25 355.18,-130.98 380,-136 392.03,-138.43 404.91,-141 417.22,-143.43"/>
<polygon fill="midnightblue" stroke="midnightblue" points="416.9,-146.93 427.39,-145.43 418.25,-140.06 416.9,-146.93"/>
</g>
<!-- Node7 -->
<g id="node7" class="node">
<title>Node7</title>
<g id="a_node7"><a xlink:href="ParticleSwarm_8c.html#ae333eaf5cdf54d396fb84ef574a4945b" target="_top" xlink:title="Determines cell selection and intra&#45;cell logical coordinates for volumetric initialization (Mode 1).">
<polygon fill="none" stroke="black" points="386.5,-96 386.5,-126 568.5,-126 568.5,-96 386.5,-96"/>
<text text-anchor="start" x="394.5" y="-114" font-family="Helvetica,sans-Serif" font-size="10.00">DetermineVolumetricInitialization</text>
<text text-anchor="middle" x="477.5" y="-103" font-family="Helvetica,sans-Serif" font-size="10.00">Parameters</text>
</a>
</g>
</g>
<!-- Node4&#45;&gt;Node7 -->
<g id="edge6" class="edge">
<title>Node4&#45;&gt;Node7</title>
<path fill="none" stroke="midnightblue" d="M344.02,-111C354.57,-111 365.44,-111 376.2,-111"/>
<polygon fill="midnightblue" stroke="midnightblue" points="376.47,-114.5 386.47,-111 376.47,-107.5 376.47,-114.5"/>
</g>
<!-- Node8 -->
<g id="node8" class="node">
<title>Node8</title>
<g id="a_node8"><a xlink:href="Boundaries_8h.html#ac07befc354128d23bac8ed5f2612ffdf" target="_top" xlink:title="Assuming the current rank services the inlet face, this function selects a random cell (owned by this...">
<polygon fill="none" stroke="black" points="380,-57.5 380,-76.5 575,-76.5 575,-57.5 380,-57.5"/>
<text text-anchor="middle" x="477.5" y="-64.5" font-family="Helvetica,sans-Serif" font-size="10.00">GetRandomCellAndLogicOnInletFace</text>
</a>
</g>
</g>
<!-- Node4&#45;&gt;Node8 -->
<g id="edge7" class="edge">
<title>Node4&#45;&gt;Node8</title>
<path fill="none" stroke="midnightblue" d="M306.59,-101.45C339.71,-94.74 384.23,-85.71 419.39,-78.58"/>
<polygon fill="midnightblue" stroke="midnightblue" points="420.4,-81.95 429.51,-76.53 419.01,-75.09 420.4,-81.95"/>
</g>
<!-- Node9 -->
<g id="node9" class="node">
<title>Node9</title>
<g id="a_node9"><a xlink:href="Metric_8h.html#af0ba1966641e609476ac6fc3d5cdbbfc" target="_top" xlink:title="Public wrapper: map (cell index, ξ,η,ζ) to (x,y,z).">
<polygon fill="none" stroke="black" points="411,-19.5 411,-38.5 544,-38.5 544,-19.5 411,-19.5"/>
<text text-anchor="middle" x="477.5" y="-26.5" font-family="Helvetica,sans-Serif" font-size="10.00">MetricLogicalToPhysical</text>
</a>
</g>
</g>
<!-- Node4&#45;&gt;Node9 -->
<g id="edge9" class="edge">
<title>Node4&#45;&gt;Node9</title>
<path fill="none" stroke="midnightblue" d="M274.46,-101.37C296.62,-87.51 339.91,-62.09 380,-48 387.82,-45.25 396.13,-42.86 404.49,-40.8"/>
<polygon fill="midnightblue" stroke="midnightblue" points="405.33,-44.19 414.27,-38.52 403.74,-37.38 405.33,-44.19"/>
</g>
<!-- Node6 -->
<g id="node6" class="node">
<title>Node6</title>
<g id="a_node6"><a xlink:href="setup_8h.html#a9b17552f79ebe16d0363986217a01ff3" target="_top" xlink:title="Determines the global starting index and number of CELLS owned by the current processor in a specifie...">
<polygon fill="none" stroke="black" points="614,-110.5 614,-129.5 731,-129.5 731,-110.5 614,-110.5"/>
<text text-anchor="middle" x="672.5" y="-117.5" font-family="Helvetica,sans-Serif" font-size="10.00">GetOwnedCellRange</text>
</a>
</g>
</g>
<!-- Node5&#45;&gt;Node6 -->
<g id="edge5" class="edge">
<title>Node5&#45;&gt;Node6</title>
<path fill="none" stroke="midnightblue" d="M530.98,-145.48C555.13,-141.1 583.95,-135.88 609.19,-131.3"/>
<polygon fill="midnightblue" stroke="midnightblue" points="609.81,-134.74 619.03,-129.52 608.56,-127.86 609.81,-134.74"/>
</g>
<!-- Node8&#45;&gt;Node6 -->
<g id="edge8" class="edge">
<title>Node8&#45;&gt;Node6</title>
<path fill="none" stroke="midnightblue" d="M530.37,-76.51C544.9,-79.51 560.64,-83.07 575,-87 595.75,-92.67 618.54,-100.4 636.76,-106.94"/>
<polygon fill="midnightblue" stroke="midnightblue" points="635.78,-110.31 646.37,-110.44 638.17,-103.73 635.78,-110.31"/>
</g>
<!-- Node10 -->
<g id="node10" class="node">
<title>Node10</title>
<g id="a_node10"><a xlink:href="Metric_8c.html#a4859ff8031c003e036eab9cf8fb351f6" target="_top" xlink:title="Extract the eight vertex coordinates of the hexahedral cell (i,j,k).">
<polygon fill="none" stroke="black" points="611,-38.5 611,-57.5 734,-57.5 734,-38.5 611,-38.5"/>
<text text-anchor="middle" x="672.5" y="-45.5" font-family="Helvetica,sans-Serif" font-size="10.00">MetricGetCellVertices</text>
</a>
</g>
</g>
<!-- Node9&#45;&gt;Node10 -->
<g id="edge10" class="edge">
<title>Node9&#45;&gt;Node10</title>
<path fill="none" stroke="midnightblue" d="M544.11,-35.46C562.37,-37.26 582.27,-39.22 600.81,-41.04"/>
<polygon fill="midnightblue" stroke="midnightblue" points="600.65,-44.54 610.94,-42.04 601.33,-37.58 600.65,-44.54"/>
</g>
<!-- Node11 -->
<g id="node11" class="node">
<title>Node11</title>
<g id="a_node11"><a xlink:href="Metric_8c.html#a379d85074cc67dd1230cecc94b9169aa" target="_top" xlink:title="Map logical coordinates to physical space using trilinear basis.">
<polygon fill="none" stroke="black" points="630.5,-0.5 630.5,-19.5 714.5,-19.5 714.5,-0.5 630.5,-0.5"/>
<text text-anchor="middle" x="672.5" y="-7.5" font-family="Helvetica,sans-Serif" font-size="10.00">TrilinearBlend</text>
</a>
</g>
</g>
<!-- Node9&#45;&gt;Node11 -->
<g id="edge11" class="edge">
<title>Node9&#45;&gt;Node11</title>
<path fill="none" stroke="midnightblue" d="M544.11,-22.54C568.96,-20.1 596.85,-17.35 620.2,-15.05"/>
<polygon fill="midnightblue" stroke="midnightblue" points="620.63,-18.53 630.23,-14.06 619.94,-11.56 620.63,-18.53"/>
</g>
</g>
</svg>
        <g id="navigator" transform="translate(0 0)" fill="#404254">
                <rect fill="#f2f5e9" fill-opacity="0.5" stroke="#606060" stroke-width=".5" x="0" y="0" width="60" height="60"/>
                <use id="zoomplus" xlink:href="#zoomPlus" x="17" y="9" onmousedown="handleZoom(evt,'in')"/>
                <use id="zoomminus" xlink:href="#zoomMin" x="42" y="9" onmousedown="handleZoom(evt,'out')"/>
                <use id="reset" xlink:href="#resetDef" x="30" y="36" onmousedown="handleReset()"/>
                <g id="arrowUp" xlink:href="#dirArrow" transform="translate(30 24)" onmousedown="handlePan(0,-1)">
                  <use xlink:href="#rim" fill="#404040">
                        <set attributeName="fill" to="#808080" begin="arrowUp.mouseover" end="arrowUp.mouseout"/>
                  </use>
                  <path fill="none" stroke="white" stroke-width="1.5" d="M0,-3.0v7 M-2.5,-0.5L0,-3.0L2.5,-0.5"/>
                </g>
                <g id="arrowRight" xlink:href="#dirArrow" transform="rotate(90) translate(36 -43)" onmousedown="handlePan(1,0)">
                  <use xlink:href="#rim" fill="#404040">
                        <set attributeName="fill" to="#808080" begin="arrowRight.mouseover" end="arrowRight.mouseout"/>
                  </use>
                  <path fill="none" stroke="white" stroke-width="1.5" d="M0,-3.0v7 M-2.5,-0.5L0,-3.0L2.5,-0.5"/>
                </g>
                <g id="arrowDown" xlink:href="#dirArrow" transform="rotate(180) translate(-30 -48)" onmousedown="handlePan(0,1)">
                  <use xlink:href="#rim" fill="#404040">
                        <set attributeName="fill" to="#808080" begin="arrowDown.mouseover" end="arrowDown.mouseout"/>
                  </use>
                  <path fill="none" stroke="white" stroke-width="1.5" d="M0,-3.0v7 M-2.5,-0.5L0,-3.0L2.5,-0.5"/>
                </g>
                <g id="arrowLeft" xlink:href="#dirArrow" transform="rotate(270) translate(-36 17)" onmousedown="handlePan(-1,0)">
                  <use xlink:href="#rim" fill="#404040">
                        <set attributeName="fill" to="#808080" begin="arrowLeft.mouseover" end="arrowLeft.mouseout"/>
                  </use>
                  <path fill="none" stroke="white" stroke-width="1.5" d="M0,-3.0v7 M-2.5,-0.5L0,-3.0L2.5,-0.5"/>
                </g>
        </g>
        <svg viewBox="0 0 15 15" width="100%" height="30px" preserveAspectRatio="xMaxYMin meet">
         <g id="arrow_out" transform="scale(0.3 0.3)">
          <a xlink:href="ParticleSwarm_8c_af2b3080ee0e5c8e0175ac594a2c497b5_cgraph_org.svg" target="_base">
           <rect id="button" ry="5" rx="5" y="6" x="6" height="38" width="38"
                fill="#f2f5e9" fill-opacity="0.5" stroke="#606060" stroke-width="1.0"/>
           <path id="arrow"
             d="M 11.500037,31.436501 C 11.940474,20.09759 22.043105,11.32322 32.158766,21.979434 L 37.068811,17.246167 C 37.068811,17.246167 37.088388,32 37.088388,32 L 22.160133,31.978069 C 22.160133,31.978069 26.997745,27.140456 26.997745,27.140456 C 18.528582,18.264221 13.291696,25.230495 11.500037,31.436501 z"
             style="fill:#404040;"/>
          </a>
         </g>
        </svg>
</svg>
