<?xml version="1.0" encoding="UTF-8" standalone="no"?>
<!DOCTYPE svg PUBLIC "-//W3C//DTD SVG 1.1//EN"
 "http://www.w3.org/Graphics/SVG/1.1/DTD/svg11.dtd">
<!-- Generated by graphviz version 2.43.0 (0)
 -->
<!-- Title: InitializeLogicalSpaceRNGs Pages: 1 -->
<svg width="745pt" height="104pt"
 viewBox="0.00 0.00 745.00 104.00" xmlns="http://www.w3.org/2000/svg" xmlns:xlink="http://www.w3.org/1999/xlink">
<g id="graph0" class="graph" transform="scale(1 1) rotate(0) translate(4 100)">
<title>InitializeLogicalSpaceRNGs</title>
<!-- Node1 -->
<g id="node1" class="node">
<title>Node1</title>
<g id="a_node1"><a xlink:title="Initializes random number generators for logical space operations [0.0, 1.0).">
<polygon fill="#bfbfbf" stroke="black" points="588,-54.5 588,-73.5 737,-73.5 737,-54.5 588,-54.5"/>
<text text-anchor="middle" x="662.5" y="-61.5" font-family="Helvetica,sans-Serif" font-size="10.00">InitializeLogicalSpaceRNGs</text>
</a>
</g>
</g>
<!-- Node2 -->
<g id="node2" class="node">
<title>Node2</title>
<g id="a_node2"><a xlink:href="ParticleSwarm_8c.html#ada215a5db25227a8fd2cd2596e7d3e57" target="_top" xlink:title="Perform particle swarm initialization, particle&#45;grid interaction, and related operations.">
<polygon fill="none" stroke="black" points="232.5,-76.5 232.5,-95.5 361.5,-95.5 361.5,-76.5 232.5,-76.5"/>
<text text-anchor="middle" x="297" y="-83.5" font-family="Helvetica,sans-Serif" font-size="10.00">InitializeParticleSwarm</text>
</a>
</g>
</g>
<!-- Node1&#45;&gt;Node2 -->
<g id="edge1" class="edge">
<title>Node1&#45;&gt;Node2</title>
<path fill="none" stroke="midnightblue" d="M577.6,-69.08C511.82,-73.06 421.69,-78.51 361.73,-82.14"/>
<polygon fill="midnightblue" stroke="midnightblue" points="578.17,-72.55 587.94,-68.45 577.75,-65.56 578.17,-72.55"/>
</g>
<!-- Node4 -->
<g id="node4" class="node">
<title>Node4</title>
<g id="a_node4"><a xlink:href="ParticleMotion_8c.html#abb62172d12ae65122070a3674196c8e2" target="_top" xlink:title="Re&#45;initializes the positions of particles currently on this rank if this rank owns part of the design...">
<polygon fill="none" stroke="black" points="403,-27 403,-57 552,-57 552,-27 403,-27"/>
<text text-anchor="start" x="411" y="-45" font-family="Helvetica,sans-Serif" font-size="10.00">ReinitializeParticlesOnInlet</text>
<text text-anchor="middle" x="477.5" y="-34" font-family="Helvetica,sans-Serif" font-size="10.00">Surface</text>
</a>
</g>
</g>
<!-- Node1&#45;&gt;Node4 -->
<g id="edge3" class="edge">
<title>Node1&#45;&gt;Node4</title>
<path fill="none" stroke="midnightblue" d="M577.89,-53.95C569.35,-52.92 560.72,-51.88 552.29,-50.87"/>
<polygon fill="midnightblue" stroke="midnightblue" points="577.51,-57.43 587.86,-55.15 578.35,-50.48 577.51,-57.43"/>
</g>
<!-- Node3 -->
<g id="node3" class="node">
<title>Node3</title>
<g id="a_node3"><a xlink:href="picsolver_8c.html#a3c04138a5bfe5d72780bb7e82a18e627" target="_top" xlink:title=" ">
<polygon fill="none" stroke="black" points="0,-38.5 0,-57.5 41,-57.5 41,-38.5 0,-38.5"/>
<text text-anchor="middle" x="20.5" y="-45.5" font-family="Helvetica,sans-Serif" font-size="10.00">main</text>
</a>
</g>
</g>
<!-- Node2&#45;&gt;Node3 -->
<g id="edge2" class="edge">
<title>Node2&#45;&gt;Node3</title>
<path fill="none" stroke="midnightblue" d="M222.05,-78.98C179.49,-74.5 125.07,-68.03 77,-60 65.04,-58 51.76,-55.15 41.19,-52.73"/>
<polygon fill="midnightblue" stroke="midnightblue" points="221.74,-82.47 232.05,-80.02 222.46,-75.51 221.74,-82.47"/>
</g>
<!-- Node5 -->
<g id="node5" class="node">
<title>Node5</title>
<g id="a_node5"><a xlink:href="simulation_8c.html#aa5b3c3a0cd447931b47a01267c36acdd" target="_top" xlink:title="Finalizes the simulation setup at t=0, ensuring a consistent state before time marching.">
<polygon fill="none" stroke="black" points="227,-27 227,-57 367,-57 367,-27 227,-27"/>
<text text-anchor="start" x="235" y="-45" font-family="Helvetica,sans-Serif" font-size="10.00">PerformInitializedParticle</text>
<text text-anchor="middle" x="297" y="-34" font-family="Helvetica,sans-Serif" font-size="10.00">Setup</text>
</a>
</g>
</g>
<!-- Node4&#45;&gt;Node5 -->
<g id="edge4" class="edge">
<title>Node4&#45;&gt;Node5</title>
<path fill="none" stroke="midnightblue" d="M392.83,-42C384.24,-42 375.57,-42 367.16,-42"/>
<polygon fill="midnightblue" stroke="midnightblue" points="392.87,-45.5 402.87,-42 392.87,-38.5 392.87,-45.5"/>
</g>
<!-- Node5&#45;&gt;Node3 -->
<g id="edge7" class="edge">
<title>Node5&#45;&gt;Node3</title>
<path fill="none" stroke="midnightblue" d="M216.44,-43.74C156.02,-45.06 77.38,-46.78 41.23,-47.57"/>
<polygon fill="midnightblue" stroke="midnightblue" points="216.81,-47.23 226.73,-43.51 216.66,-40.23 216.81,-47.23"/>
</g>
<!-- Node6 -->
<g id="node6" class="node">
<title>Node6</title>
<g id="a_node6"><a xlink:href="simulation_8c.html#a7bc2bae7b01f179706b367c8637534c2" target="_top" xlink:title="Performs post&#45;load/post&#45;init consistency checks for a restarted simulation.">
<polygon fill="none" stroke="black" points="77,-0.5 77,-19.5 191,-19.5 191,-0.5 77,-0.5"/>
<text text-anchor="middle" x="134" y="-7.5" font-family="Helvetica,sans-Serif" font-size="10.00">FinalizeRestartState</text>
</a>
</g>
</g>
<!-- Node5&#45;&gt;Node6 -->
<g id="edge5" class="edge">
<title>Node5&#45;&gt;Node6</title>
<path fill="none" stroke="midnightblue" d="M216.65,-26.23C205.08,-23.93 193.48,-21.62 182.8,-19.5"/>
<polygon fill="midnightblue" stroke="midnightblue" points="216.3,-29.73 226.79,-28.24 217.66,-22.86 216.3,-29.73"/>
</g>
<!-- Node6&#45;&gt;Node3 -->
<g id="edge6" class="edge">
<title>Node6&#45;&gt;Node3</title>
<path fill="none" stroke="midnightblue" d="M95.15,-22.9C77.03,-29.07 56.1,-36.21 41.19,-41.29"/>
<polygon fill="midnightblue" stroke="midnightblue" points="96.53,-26.13 104.86,-19.59 94.27,-19.5 96.53,-26.13"/>
</g>
</g>
</svg>
