<?xml version="1.0" encoding="UTF-8" standalone="no"?>
<!DOCTYPE svg PUBLIC "-//W3C//DTD SVG 1.1//EN"
 "http://www.w3.org/Graphics/SVG/1.1/DTD/svg11.dtd">
<!-- Generated by graphviz version 2.43.0 (0)
 -->
<!-- Title: LocateAllParticlesInGrid_TEST Pages: 1 -->
<!--zoomable 426 -->
<svg id="main" version="1.1" xmlns="http://www.w3.org/2000/svg" xmlns:xlink="http://www.w3.org/1999/xlink" xml:space="preserve" onload="init(evt)">
<style type="text/css"><![CDATA[
.edge:hover path { stroke: red; }
.edge:hover polygon { stroke: red; fill: red; }
]]></style>
<script type="text/javascript"><![CDATA[
var edges = document.getElementsByTagName('g');
if (edges && edges.length) {
  for (var i=0;i<edges.length;i++) {
    if (edges[i].id.substr(0,4)=='edge') {
      edges[i].setAttribute('class','edge');
    }
  }
}
]]></script>
        <defs>
                <circle id="rim" cx="0" cy="0" r="7"/>
                <circle id="rim2" cx="0" cy="0" r="3.5"/>
                <g id="zoomPlus">
                        <use xlink:href="#rim" fill="#404040">
                                <set attributeName="fill" to="#808080" begin="zoomplus.mouseover" end="zoomplus.mouseout"/>
                        </use>
                        <path d="M-4,0h8M0,-4v8" fill="none" stroke="white" stroke-width="1.5" pointer-events="none"/>
                </g>
                <g id="zoomMin">
                        <use xlink:href="#rim" fill="#404040">
                                <set attributeName="fill" to="#808080" begin="zoomminus.mouseover" end="zoomminus.mouseout"/>
                        </use>
                        <path d="M-4,0h8" fill="none" stroke="white" stroke-width="1.5" pointer-events="none"/>
                </g>
                <g id="dirArrow">
                        <path fill="none" stroke="white" stroke-width="1.5" d="M0,-3.0v7 M-2.5,-0.5L0,-3.0L2.5,-0.5"/>
                </g>
               <g id="resetDef">
                       <use xlink:href="#rim2" fill="#404040">
                               <set attributeName="fill" to="#808080" begin="reset.mouseover" end="reset.mouseout"/>
                       </use>
               </g>
        </defs>

<script type="text/javascript">
var viewWidth = 954;
var viewHeight = 426;
var sectionId = 'dynsection-21';
</script>
<script xlink:href="svgpan.js"/>
<svg id="graph" class="graph">
<g id="viewport">
<title>LocateAllParticlesInGrid_TEST</title>
<!-- Node1 -->
<g id="node1" class="node">
<title>Node1</title>
<g id="a_node1"><a xlink:title="Orchestrates the complete particle location and migration process for one timestep.">
<polygon fill="#bfbfbf" stroke="black" points="0,-171.5 0,-190.5 162,-190.5 162,-171.5 0,-171.5"/>
<text text-anchor="middle" x="81" y="-178.5" font-family="Helvetica,sans-Serif" font-size="10.00">LocateAllParticlesInGrid_TEST</text>
</a>
</g>
</g>
<!-- Node2 -->
<g id="node2" class="node">
<title>Node2</title>
<g id="a_node2"><a xlink:href="ParticleMotion_8c.html#a43df9caf0f5cbb317050f6258ac46fff" target="_top" xlink:title="Safely adds a new migration task to a dynamically sized list.">
<polygon fill="none" stroke="black" points="224.5,-329.5 224.5,-348.5 334.5,-348.5 334.5,-329.5 224.5,-329.5"/>
<text text-anchor="middle" x="279.5" y="-336.5" font-family="Helvetica,sans-Serif" font-size="10.00">AddToMigrationList</text>
</a>
</g>
</g>
<!-- Node1&#45;&gt;Node2 -->
<g id="edge1" class="edge">
<title>Node1&#45;&gt;Node2</title>
<path fill="none" stroke="midnightblue" d="M87.04,-190.57C100.97,-216.02 142.65,-285.79 198,-320 203.09,-323.14 208.65,-325.77 214.4,-327.96"/>
<polygon fill="midnightblue" stroke="midnightblue" points="213.6,-331.38 224.19,-331.25 215.83,-324.75 213.6,-331.38"/>
</g>
<!-- Node3 -->
<g id="node3" class="node">
<title>Node3</title>
<g id="a_node3"><a xlink:href="ParticleMotion_8c.html#ad247152a0dd47d07243fad4c2fd89c0a" target="_top" xlink:title="Identifies newly arrived particles after migration and flags them for a location search.">
<polygon fill="none" stroke="black" points="203.5,-291.5 203.5,-310.5 355.5,-310.5 355.5,-291.5 203.5,-291.5"/>
<text text-anchor="middle" x="279.5" y="-298.5" font-family="Helvetica,sans-Serif" font-size="10.00">FlagNewcomersForLocation</text>
</a>
</g>
</g>
<!-- Node1&#45;&gt;Node3 -->
<g id="edge2" class="edge">
<title>Node1&#45;&gt;Node3</title>
<path fill="none" stroke="midnightblue" d="M90.19,-190.79C107.73,-211.12 151.2,-257.98 198,-282 202.59,-284.36 207.48,-286.43 212.5,-288.24"/>
<polygon fill="midnightblue" stroke="midnightblue" points="211.66,-291.65 222.25,-291.43 213.83,-285 211.66,-291.65"/>
</g>
<!-- Node5 -->
<g id="node5" class="node">
<title>Node5</title>
<g id="a_node5"><a xlink:href="ParticleMotion_8c.html#a5d388b62daa726aa7ea467a71313a328" target="_top" xlink:title="Creates a sorted snapshot of all Particle IDs (PIDs) from a raw data array.">
<polygon fill="none" stroke="black" points="219,-253.5 219,-272.5 340,-272.5 340,-253.5 219,-253.5"/>
<text text-anchor="middle" x="279.5" y="-260.5" font-family="Helvetica,sans-Serif" font-size="10.00">GetLocalPIDSnapshot</text>
</a>
</g>
</g>
<!-- Node1&#45;&gt;Node5 -->
<g id="edge4" class="edge">
<title>Node1&#45;&gt;Node5</title>
<path fill="none" stroke="midnightblue" d="M96.77,-190.7C118.23,-204.4 159.68,-229.37 198,-244 204.73,-246.57 211.92,-248.86 219.12,-250.89"/>
<polygon fill="midnightblue" stroke="midnightblue" points="218.35,-254.3 228.92,-253.48 220.15,-247.54 218.35,-254.3"/>
</g>
<!-- Node6 -->
<g id="node6" class="node">
<title>Node6</title>
<g id="a_node6"><a xlink:href="ParticleMotion_8c.html#a1050c4075c2fb507d4579008921dd7b6" target="_top" xlink:title="Provides a fast, heuristic&#45;based guess for a particle&#39;s owner rank using bounding boxes.">
<polygon fill="none" stroke="black" points="198,-215.5 198,-234.5 361,-234.5 361,-215.5 198,-215.5"/>
<text text-anchor="middle" x="279.5" y="-222.5" font-family="Helvetica,sans-Serif" font-size="10.00">GuessParticleOwnerWithBBox</text>
</a>
</g>
</g>
<!-- Node1&#45;&gt;Node6 -->
<g id="edge5" class="edge">
<title>Node1&#45;&gt;Node6</title>
<path fill="none" stroke="midnightblue" d="M124.64,-190.55C154.38,-197.21 194.26,-206.14 225.96,-213.24"/>
<polygon fill="midnightblue" stroke="midnightblue" points="225.42,-216.7 235.95,-215.47 226.95,-209.87 225.42,-216.7"/>
</g>
<!-- Node8 -->
<g id="node8" class="node">
<title>Node8</title>
<g id="a_node8"><a xlink:href="walkingsearch_8h.html#a0b63dfe82e0fdee5c2c3bdd477f9901f" target="_top" xlink:title="Locates a particle&#39;s host cell or identifies its migration target using a robust walk search.">
<polygon fill="none" stroke="black" points="198,-166 198,-196 361,-196 361,-166 198,-166"/>
<text text-anchor="start" x="206" y="-184" font-family="Helvetica,sans-Serif" font-size="10.00">LocateParticleOrFindMigration</text>
<text text-anchor="middle" x="279.5" y="-173" font-family="Helvetica,sans-Serif" font-size="10.00">Target_TEST</text>
</a>
</g>
</g>
<!-- Node1&#45;&gt;Node8 -->
<g id="edge7" class="edge">
<title>Node1&#45;&gt;Node8</title>
<path fill="none" stroke="midnightblue" d="M162.21,-181C170.67,-181 179.33,-181 187.9,-181"/>
<polygon fill="midnightblue" stroke="midnightblue" points="187.91,-184.5 197.91,-181 187.91,-177.5 187.91,-184.5"/>
</g>
<!-- Node26 -->
<g id="node26" class="node">
<title>Node26</title>
<g id="a_node26"><a xlink:href="ParticleMotion_8c.html#af68865be3bc987bdf1be2c5c7a1903fa" target="_top" xlink:title="Performs particle migration based on the pre&#45;populated DMSwarmPICField_rank field.">
<polygon fill="none" stroke="black" points="228.5,-127.5 228.5,-146.5 330.5,-146.5 330.5,-127.5 228.5,-127.5"/>
<text text-anchor="middle" x="279.5" y="-134.5" font-family="Helvetica,sans-Serif" font-size="10.00">PerformMigration</text>
</a>
</g>
</g>
<!-- Node1&#45;&gt;Node26 -->
<g id="edge29" class="edge">
<title>Node1&#45;&gt;Node26</title>
<path fill="none" stroke="midnightblue" d="M124.64,-171.45C154.38,-164.79 194.26,-155.86 225.96,-148.76"/>
<polygon fill="midnightblue" stroke="midnightblue" points="226.95,-152.13 235.95,-146.53 225.42,-145.3 226.95,-152.13"/>
</g>
<!-- Node27 -->
<g id="node27" class="node">
<title>Node27</title>
<g id="a_node27"><a xlink:href="ParticleMotion_8c.html#a461def358c0f7c5337c283ba06dd65a0" target="_top" xlink:title="Sets the target rank field (DMSwarmPICField_rank) for particles scheduled for migration.">
<polygon fill="none" stroke="black" points="225,-89.5 225,-108.5 334,-108.5 334,-89.5 225,-89.5"/>
<text text-anchor="middle" x="279.5" y="-96.5" font-family="Helvetica,sans-Serif" font-size="10.00">SetMigrationRanks</text>
</a>
</g>
</g>
<!-- Node1&#45;&gt;Node27 -->
<g id="edge30" class="edge">
<title>Node1&#45;&gt;Node27</title>
<path fill="none" stroke="midnightblue" d="M96.77,-171.3C118.23,-157.6 159.68,-132.63 198,-118 204.73,-115.43 211.92,-113.14 219.12,-111.11"/>
<polygon fill="midnightblue" stroke="midnightblue" points="220.15,-114.46 228.92,-108.52 218.35,-107.7 220.15,-114.46"/>
</g>
<!-- Node28 -->
<g id="node28" class="node">
<title>Node28</title>
<g id="a_node28"><a xlink:href="ParticleSwarm_8h.html#aa353055e357151aab1542bbad367c657" target="_top" xlink:title="Initializes a Particle struct with data from DMSwarm fields.">
<polygon fill="none" stroke="black" points="222,-51.5 222,-70.5 337,-70.5 337,-51.5 222,-51.5"/>
<text text-anchor="middle" x="279.5" y="-58.5" font-family="Helvetica,sans-Serif" font-size="10.00">UnpackSwarmFields</text>
</a>
</g>
</g>
<!-- Node1&#45;&gt;Node28 -->
<g id="edge31" class="edge">
<title>Node1&#45;&gt;Node28</title>
<path fill="none" stroke="midnightblue" d="M90.19,-171.21C107.73,-150.88 151.2,-104.02 198,-80 202.59,-77.64 207.48,-75.57 212.5,-73.76"/>
<polygon fill="midnightblue" stroke="midnightblue" points="213.83,-77 222.25,-70.57 211.66,-70.35 213.83,-77"/>
</g>
<!-- Node29 -->
<g id="node29" class="node">
<title>Node29</title>
<g id="a_node29"><a xlink:href="ParticleSwarm_8h.html#ac52b9e4afa9d1f2ba3bf59dc45b610d1" target="_top" xlink:title="Updates DMSwarm fields with data from a Particle struct.">
<polygon fill="none" stroke="black" points="223,-13.5 223,-32.5 336,-32.5 336,-13.5 223,-13.5"/>
<text text-anchor="middle" x="279.5" y="-20.5" font-family="Helvetica,sans-Serif" font-size="10.00">UpdateSwarmFields</text>
</a>
</g>
</g>
<!-- Node1&#45;&gt;Node29 -->
<g id="edge32" class="edge">
<title>Node1&#45;&gt;Node29</title>
<path fill="none" stroke="midnightblue" d="M87.04,-171.43C100.97,-145.98 142.65,-76.21 198,-42 202.73,-39.07 207.88,-36.6 213.2,-34.51"/>
<polygon fill="midnightblue" stroke="midnightblue" points="214.62,-37.72 222.93,-31.13 212.33,-31.1 214.62,-37.72"/>
</g>
<!-- Node4 -->
<g id="node4" class="node">
<title>Node4</title>
<g id="a_node4"><a xlink:href="setup_8h.html#acd8d87dc85f19ba3e32811a623bf5b36" target="_top" xlink:title="Performs a binary search for a key in a sorted array of PetscInt64.">
<polygon fill="none" stroke="black" points="424,-354.5 424,-373.5 530,-373.5 530,-354.5 424,-354.5"/>
<text text-anchor="middle" x="477" y="-361.5" font-family="Helvetica,sans-Serif" font-size="10.00">BinarySearchInt64</text>
</a>
</g>
</g>
<!-- Node3&#45;&gt;Node4 -->
<g id="edge3" class="edge">
<title>Node3&#45;&gt;Node4</title>
<path fill="none" stroke="midnightblue" d="M333.83,-310.6C343.09,-313.1 352.48,-316.2 361,-320 378.79,-327.93 379.23,-337.03 397,-345 402.44,-347.44 408.24,-349.59 414.13,-351.49"/>
<polygon fill="midnightblue" stroke="midnightblue" points="413.5,-354.95 424.08,-354.43 415.49,-348.24 413.5,-354.95"/>
</g>
<!-- Node7 -->
<g id="node7" class="node">
<title>Node7</title>
<g id="a_node7"><a xlink:href="ParticleMotion_8c.html#ad2b9ac6b5e4d13799fa82dcd34432da4" target="_top" xlink:title="Checks if a particle position is within the bounds of a given bounding box.">
<polygon fill="none" stroke="black" points="432.5,-316.5 432.5,-335.5 521.5,-335.5 521.5,-316.5 432.5,-316.5"/>
<text text-anchor="middle" x="477" y="-323.5" font-family="Helvetica,sans-Serif" font-size="10.00">IsParticleInBox</text>
</a>
</g>
</g>
<!-- Node6&#45;&gt;Node7 -->
<g id="edge6" class="edge">
<title>Node6&#45;&gt;Node7</title>
<path fill="none" stroke="midnightblue" d="M343.86,-234.56C349.98,-237.04 355.82,-240.13 361,-244 386.83,-263.3 371.21,-287.64 397,-307 404.46,-312.6 413.33,-316.57 422.39,-319.38"/>
<polygon fill="midnightblue" stroke="midnightblue" points="421.67,-322.82 432.24,-322.01 423.47,-316.05 421.67,-322.82"/>
</g>
<!-- Node9 -->
<g id="node9" class="node">
<title>Node9</title>
<g id="a_node9"><a xlink:href="walkingsearch_8c.html#afae6265db91aa72254a050c0b6159dab" target="_top" xlink:title="Checks if the current GLOBAL CELL indices are within the LOCAL GHOSTED grid boundaries accessible by ...">
<polygon fill="none" stroke="black" points="593,-19.5 593,-38.5 736,-38.5 736,-19.5 593,-19.5"/>
<text text-anchor="middle" x="664.5" y="-26.5" font-family="Helvetica,sans-Serif" font-size="10.00">CheckCellWithinLocalGrid</text>
</a>
</g>
</g>
<!-- Node8&#45;&gt;Node9 -->
<g id="edge8" class="edge">
<title>Node8&#45;&gt;Node9</title>
<path fill="none" stroke="midnightblue" d="M346.91,-165.89C352.01,-163.13 356.8,-159.86 361,-156 392.4,-127.11 363.4,-93.3 397,-67 425.18,-44.95 515.01,-35.68 582.65,-31.79"/>
<polygon fill="midnightblue" stroke="midnightblue" points="583.08,-35.27 592.88,-31.24 582.7,-28.29 583.08,-35.27"/>
</g>
<!-- Node10 -->
<g id="node10" class="node">
<title>Node10</title>
<g id="a_node10"><a xlink:href="walkingsearch_8c.html#a556871801ba0b3214285a2ca1fe622ac" target="_top" xlink:title="Determines the spatial relationship of a particle relative to a cubic cell.">
<polygon fill="none" stroke="black" points="409.5,-278.5 409.5,-297.5 544.5,-297.5 544.5,-278.5 409.5,-278.5"/>
<text text-anchor="middle" x="477" y="-285.5" font-family="Helvetica,sans-Serif" font-size="10.00">EvaluateParticlePosition</text>
</a>
</g>
</g>
<!-- Node8&#45;&gt;Node10 -->
<g id="edge9" class="edge">
<title>Node8&#45;&gt;Node10</title>
<path fill="none" stroke="midnightblue" d="M345.16,-196.14C350.82,-198.89 356.21,-202.15 361,-206 386.15,-226.19 371.21,-249.64 397,-269 399.51,-270.89 402.19,-272.59 404.98,-274.12"/>
<polygon fill="midnightblue" stroke="midnightblue" points="403.68,-277.38 414.21,-278.48 406.66,-271.05 403.68,-277.38"/>
</g>
<!-- Node18 -->
<g id="node18" class="node">
<title>Node18</title>
<g id="a_node18"><a xlink:href="walkingsearch_8c.html#a9aedf40cb1545b554e113ebb0863859d" target="_top" xlink:title="Finds the MPI rank that owns a given global cell index.">
<polygon fill="none" stroke="black" points="428,-190.5 428,-209.5 526,-209.5 526,-190.5 428,-190.5"/>
<text text-anchor="middle" x="477" y="-197.5" font-family="Helvetica,sans-Serif" font-size="10.00">FindOwnerOfCell</text>
</a>
</g>
</g>
<!-- Node8&#45;&gt;Node18 -->
<g id="edge17" class="edge">
<title>Node8&#45;&gt;Node18</title>
<path fill="none" stroke="midnightblue" d="M361.15,-188.84C380.05,-190.67 399.83,-192.6 417.55,-194.32"/>
<polygon fill="midnightblue" stroke="midnightblue" points="417.43,-197.82 427.72,-195.31 418.11,-190.86 417.43,-197.82"/>
</g>
<!-- Node19 -->
<g id="node19" class="node">
<title>Node19</title>
<g id="a_node19"><a xlink:href="walkingsearch_8c.html#af9a2ec1317c83d6dfad52415b83cd6e6" target="_top" xlink:title="Initializes traversal parameters for locating a particle.">
<polygon fill="none" stroke="black" points="397,-0.5 397,-19.5 557,-19.5 557,-0.5 397,-0.5"/>
<text text-anchor="middle" x="477" y="-7.5" font-family="Helvetica,sans-Serif" font-size="10.00">InitializeTraversalParameters</text>
</a>
</g>
</g>
<!-- Node8&#45;&gt;Node19 -->
<g id="edge18" class="edge">
<title>Node8&#45;&gt;Node19</title>
<path fill="none" stroke="midnightblue" d="M348.1,-165.88C352.81,-163.12 357.2,-159.86 361,-156 400.69,-115.74 357.18,-74.13 397,-34 400.91,-30.06 405.45,-26.76 410.33,-24"/>
<polygon fill="midnightblue" stroke="midnightblue" points="411.96,-27.1 419.44,-19.59 408.91,-20.8 411.96,-27.1"/>
</g>
<!-- Node20 -->
<g id="node20" class="node">
<title>Node20</title>
<g id="a_node20"><a xlink:href="walkingsearch_8c.html#a64b2ff5399052580bffaa58562dc0bcd" target="_top" xlink:title="Logs the final outcome of the particle location search.">
<polygon fill="none" stroke="black" points="414,-152.5 414,-171.5 540,-171.5 540,-152.5 414,-152.5"/>
<text text-anchor="middle" x="477" y="-159.5" font-family="Helvetica,sans-Serif" font-size="10.00">ReportSearchOutcome</text>
</a>
</g>
</g>
<!-- Node8&#45;&gt;Node20 -->
<g id="edge20" class="edge">
<title>Node8&#45;&gt;Node20</title>
<path fill="none" stroke="midnightblue" d="M361.15,-173.16C375.28,-171.79 389.91,-170.37 403.79,-169.02"/>
<polygon fill="midnightblue" stroke="midnightblue" points="404.14,-172.5 413.76,-168.05 403.47,-165.53 404.14,-172.5"/>
</g>
<!-- Node21 -->
<g id="node21" class="node">
<title>Node21</title>
<g id="a_node21"><a xlink:href="walkingsearch_8c.html#acb77aa5204ab90392c67f10a55227bb6" target="_top" xlink:title="Retrieves the coordinates of the eight vertices of the current cell.">
<polygon fill="none" stroke="black" points="420.5,-114.5 420.5,-133.5 533.5,-133.5 533.5,-114.5 420.5,-114.5"/>
<text text-anchor="middle" x="477" y="-121.5" font-family="Helvetica,sans-Serif" font-size="10.00">RetrieveCurrentCell</text>
</a>
</g>
</g>
<!-- Node8&#45;&gt;Node21 -->
<g id="edge21" class="edge">
<title>Node8&#45;&gt;Node21</title>
<path fill="none" stroke="midnightblue" d="M330.43,-165.88C340.57,-162.7 351.15,-159.31 361,-156 377.13,-150.59 380.71,-147.89 397,-143 405.16,-140.55 413.86,-138.21 422.4,-136.04"/>
<polygon fill="midnightblue" stroke="midnightblue" points="423.44,-139.39 432.31,-133.6 421.76,-132.6 423.44,-139.39"/>
</g>
<!-- Node24 -->
<g id="node24" class="node">
<title>Node24</title>
<g id="a_node24"><a xlink:href="walkingsearch_8c.html#ae8ed9e0a01de5ee0f332170562b1f9ea" target="_top" xlink:title="Updates the cell indices based on the signed distances to each face.">
<polygon fill="none" stroke="black" points="402.5,-229 402.5,-259 551.5,-259 551.5,-229 402.5,-229"/>
<text text-anchor="start" x="410.5" y="-247" font-family="Helvetica,sans-Serif" font-size="10.00">UpdateCellIndicesBasedOn</text>
<text text-anchor="middle" x="477" y="-236" font-family="Helvetica,sans-Serif" font-size="10.00">DistancesTEST</text>
</a>
</g>
</g>
<!-- Node8&#45;&gt;Node24 -->
<g id="edge24" class="edge">
<title>Node8&#45;&gt;Node24</title>
<path fill="none" stroke="midnightblue" d="M330.43,-196.12C340.57,-199.3 351.15,-202.69 361,-206 377.13,-211.41 380.89,-213.54 397,-219 403.74,-221.28 410.83,-223.62 417.88,-225.9"/>
<polygon fill="midnightblue" stroke="midnightblue" points="416.84,-229.24 427.44,-228.97 418.99,-222.58 416.84,-229.24"/>
</g>
<!-- Node25 -->
<g id="node25" class="node">
<title>Node25</title>
<g id="a_node25"><a xlink:href="ParticleSwarm_8h.html#a0001e483238e2b600cb9aa23a6e5338c" target="_top" xlink:title="Updates a particle&#39;s interpolation weights based on distances to cell faces.">
<polygon fill="none" stroke="black" points="413,-76.5 413,-95.5 541,-95.5 541,-76.5 413,-76.5"/>
<text text-anchor="middle" x="477" y="-83.5" font-family="Helvetica,sans-Serif" font-size="10.00">UpdateParticleWeights</text>
</a>
</g>
</g>
<!-- Node8&#45;&gt;Node25 -->
<g id="edge28" class="edge">
<title>Node8&#45;&gt;Node25</title>
<path fill="none" stroke="midnightblue" d="M343.56,-165.94C349.73,-163.16 355.67,-159.87 361,-156 383.44,-139.69 374.04,-120.58 397,-105 399.95,-103 403.09,-101.21 406.34,-99.61"/>
<polygon fill="midnightblue" stroke="midnightblue" points="407.97,-102.71 415.79,-95.57 405.22,-96.28 407.97,-102.71"/>
</g>
<!-- Node11 -->
<g id="node11" class="node">
<title>Node11</title>
<g id="a_node11"><a xlink:href="walkingsearch_8c.html#a7af34c8e2ed4672f0e1f83829159bbe6" target="_top" xlink:title="Computes the signed distances from a point to each face of a cubic cell.">
<polygon fill="none" stroke="black" points="594.5,-349 594.5,-379 734.5,-379 734.5,-349 594.5,-349"/>
<text text-anchor="start" x="602.5" y="-367" font-family="Helvetica,sans-Serif" font-size="10.00">CalculateDistancesToCell</text>
<text text-anchor="middle" x="664.5" y="-356" font-family="Helvetica,sans-Serif" font-size="10.00">Faces</text>
</a>
</g>
</g>
<!-- Node10&#45;&gt;Node11 -->
<g id="edge10" class="edge">
<title>Node10&#45;&gt;Node11</title>
<path fill="none" stroke="midnightblue" d="M533.24,-297.59C541.45,-300.06 549.62,-303.15 557,-307 575.97,-316.91 574.57,-328.11 593,-339 596.58,-341.12 600.38,-343.1 604.27,-344.94"/>
<polygon fill="midnightblue" stroke="midnightblue" points="602.92,-348.17 613.48,-348.99 605.74,-341.76 602.92,-348.17"/>
</g>
<!-- Node13 -->
<g id="node13" class="node">
<title>Node13</title>
<g id="a_node13"><a xlink:href="walkingsearch_8c.html#a7db2c59feb52c21a5d3bcd2bd67bbb43" target="_top" xlink:title="Classifies a point based on precomputed face distances.">
<polygon fill="none" stroke="black" points="598.5,-310.5 598.5,-329.5 730.5,-329.5 730.5,-310.5 598.5,-310.5"/>
<text text-anchor="middle" x="664.5" y="-317.5" font-family="Helvetica,sans-Serif" font-size="10.00">DeterminePointPosition</text>
</a>
</g>
</g>
<!-- Node10&#45;&gt;Node13 -->
<g id="edge12" class="edge">
<title>Node10&#45;&gt;Node13</title>
<path fill="none" stroke="midnightblue" d="M533.15,-297.51C553.62,-301.05 577.03,-305.08 598.31,-308.75"/>
<polygon fill="midnightblue" stroke="midnightblue" points="597.79,-312.22 608.24,-310.47 598.98,-305.32 597.79,-312.22"/>
</g>
<!-- Node14 -->
<g id="node14" class="node">
<title>Node14</title>
<g id="a_node14"><a xlink:href="logging_8h.html#a9585f583c260f40a73f2490914edc689" target="_top" xlink:title="Retrieves the current logging level from the environment variable LOG_LEVEL.">
<polygon fill="none" stroke="black" points="623.5,-234.5 623.5,-253.5 705.5,-253.5 705.5,-234.5 623.5,-234.5"/>
<text text-anchor="middle" x="664.5" y="-241.5" font-family="Helvetica,sans-Serif" font-size="10.00">get_log_level</text>
</a>
</g>
</g>
<!-- Node10&#45;&gt;Node14 -->
<g id="edge13" class="edge">
<title>Node10&#45;&gt;Node14</title>
<path fill="none" stroke="midnightblue" d="M518.25,-278.45C546.21,-271.82 583.65,-262.94 613.51,-255.86"/>
<polygon fill="midnightblue" stroke="midnightblue" points="614.41,-259.24 623.33,-253.53 612.79,-252.43 614.41,-259.24"/>
</g>
<!-- Node15 -->
<g id="node15" class="node">
<title>Node15</title>
<g id="a_node15"><a xlink:href="walkingsearch_8c.html#a2ed7a27dd4de3fbd6bb46684482ce165" target="_top" xlink:title="Estimates a characteristic length of the cell for threshold scaling.">
<polygon fill="none" stroke="black" points="594.5,-398.5 594.5,-417.5 734.5,-417.5 734.5,-398.5 594.5,-398.5"/>
<text text-anchor="middle" x="664.5" y="-405.5" font-family="Helvetica,sans-Serif" font-size="10.00">GetCellCharacteristicSize</text>
</a>
</g>
</g>
<!-- Node10&#45;&gt;Node15 -->
<g id="edge14" class="edge">
<title>Node10&#45;&gt;Node15</title>
<path fill="none" stroke="midnightblue" d="M541.79,-297.66C547.28,-300.13 552.46,-303.2 557,-307 587.53,-332.54 562.82,-363.05 593,-389 594.98,-390.7 597.09,-392.25 599.31,-393.66"/>
<polygon fill="midnightblue" stroke="midnightblue" points="597.82,-396.83 608.29,-398.45 601.11,-390.66 597.82,-396.83"/>
</g>
<!-- Node16 -->
<g id="node16" class="node">
<title>Node16</title>
<g id="a_node16"><a xlink:href="logging_8h.html#a2358badbcda33fc9d80ebd6a59d2a2cd" target="_top" xlink:title="Checks if a given function is in the allow&#45;list.">
<polygon fill="none" stroke="black" points="608,-196.5 608,-215.5 721,-215.5 721,-196.5 608,-196.5"/>
<text text-anchor="middle" x="664.5" y="-203.5" font-family="Helvetica,sans-Serif" font-size="10.00">is_function_allowed</text>
</a>
</g>
</g>
<!-- Node10&#45;&gt;Node16 -->
<g id="edge15" class="edge">
<title>Node10&#45;&gt;Node16</title>
<path fill="none" stroke="midnightblue" d="M536.71,-278.46C543.84,-276 550.79,-272.9 557,-269 578.4,-255.57 571.78,-238.72 593,-225 596.17,-222.95 599.55,-221.12 603.05,-219.49"/>
<polygon fill="midnightblue" stroke="midnightblue" points="604.62,-222.63 612.56,-215.61 601.98,-216.15 604.62,-222.63"/>
</g>
<!-- Node17 -->
<g id="node17" class="node">
<title>Node17</title>
<g id="a_node17"><a xlink:href="logging_8h.html#a9baaed9103be8264832b39c7dbb2ce1a" target="_top" xlink:title="Prints the signed distances to each face of the cell.">
<polygon fill="none" stroke="black" points="601,-272.5 601,-291.5 728,-291.5 728,-272.5 601,-272.5"/>
<text text-anchor="middle" x="664.5" y="-279.5" font-family="Helvetica,sans-Serif" font-size="10.00">LOG_FACE_DISTANCES</text>
</a>
</g>
</g>
<!-- Node10&#45;&gt;Node17 -->
<g id="edge16" class="edge">
<title>Node10&#45;&gt;Node17</title>
<path fill="none" stroke="midnightblue" d="M544.71,-285.84C559.56,-285.36 575.38,-284.85 590.48,-284.36"/>
<polygon fill="midnightblue" stroke="midnightblue" points="590.91,-287.85 600.79,-284.03 590.68,-280.85 590.91,-287.85"/>
</g>
<!-- Node12 -->
<g id="node12" class="node">
<title>Node12</title>
<g id="a_node12"><a xlink:href="walkingsearch_8c.html#a621082a77ddbec81ffd282870175b603" target="_top" xlink:title="Computes the signed distance from a point to the plane approximating a quadrilateral face.">
<polygon fill="none" stroke="black" points="772,-354.5 772,-373.5 946,-373.5 946,-354.5 772,-354.5"/>
<text text-anchor="middle" x="859" y="-361.5" font-family="Helvetica,sans-Serif" font-size="10.00">ComputeSignedDistanceToPlane</text>
</a>
</g>
</g>
<!-- Node11&#45;&gt;Node12 -->
<g id="edge11" class="edge">
<title>Node11&#45;&gt;Node12</title>
<path fill="none" stroke="midnightblue" d="M734.72,-364C743.5,-364 752.59,-364 761.69,-364"/>
<polygon fill="midnightblue" stroke="midnightblue" points="761.95,-367.5 771.95,-364 761.95,-360.5 761.95,-367.5"/>
</g>
<!-- Node19&#45;&gt;Node9 -->
<g id="edge19" class="edge">
<title>Node19&#45;&gt;Node9</title>
<path fill="none" stroke="midnightblue" d="M557.21,-18.11C565.61,-18.97 574.16,-19.85 582.58,-20.71"/>
<polygon fill="midnightblue" stroke="midnightblue" points="582.46,-24.22 592.77,-21.76 583.18,-17.25 582.46,-24.22"/>
</g>
<!-- Node22 -->
<g id="node22" class="node">
<title>Node22</title>
<g id="a_node22"><a xlink:href="walkingsearch_8c.html#ae14b1946c4c34cae5455bdfd632eb98e" target="_top" xlink:title="Retrieves the coordinates of the eight vertices of a cell based on grid indices.">
<polygon fill="none" stroke="black" points="596,-95.5 596,-114.5 733,-114.5 733,-95.5 596,-95.5"/>
<text text-anchor="middle" x="664.5" y="-102.5" font-family="Helvetica,sans-Serif" font-size="10.00">GetCellVerticesFromGrid</text>
</a>
</g>
</g>
<!-- Node21&#45;&gt;Node22 -->
<g id="edge22" class="edge">
<title>Node21&#45;&gt;Node22</title>
<path fill="none" stroke="midnightblue" d="M533.66,-118.3C549.98,-116.63 568.14,-114.77 585.59,-112.98"/>
<polygon fill="midnightblue" stroke="midnightblue" points="586.16,-116.44 595.75,-111.94 585.45,-109.48 586.16,-116.44"/>
</g>
<!-- Node23 -->
<g id="node23" class="node">
<title>Node23</title>
<g id="a_node23"><a xlink:href="logging_8h.html#ad2278570e8ce1a71bb269a51f9a20d88" target="_top" xlink:title="Prints the coordinates of a cell&#39;s vertices.">
<polygon fill="none" stroke="black" points="605.5,-133.5 605.5,-152.5 723.5,-152.5 723.5,-133.5 605.5,-133.5"/>
<text text-anchor="middle" x="664.5" y="-140.5" font-family="Helvetica,sans-Serif" font-size="10.00">LOG_CELL_VERTICES</text>
</a>
</g>
</g>
<!-- Node21&#45;&gt;Node23 -->
<g id="edge23" class="edge">
<title>Node21&#45;&gt;Node23</title>
<path fill="none" stroke="midnightblue" d="M533.66,-129.7C553.01,-131.68 574.95,-133.93 595.2,-136"/>
<polygon fill="midnightblue" stroke="midnightblue" points="595,-139.5 605.31,-137.04 595.72,-132.54 595,-139.5"/>
</g>
<!-- Node24&#45;&gt;Node14 -->
<g id="edge25" class="edge">
<title>Node24&#45;&gt;Node14</title>
<path fill="none" stroke="midnightblue" d="M551.58,-244C572.24,-244 594.22,-244 613.18,-244"/>
<polygon fill="midnightblue" stroke="midnightblue" points="613.38,-247.5 623.38,-244 613.38,-240.5 613.38,-247.5"/>
</g>
<!-- Node24&#45;&gt;Node16 -->
<g id="edge26" class="edge">
<title>Node24&#45;&gt;Node16</title>
<path fill="none" stroke="midnightblue" d="M551.31,-228.98C569.85,-225.18 589.48,-221.16 607.04,-217.57"/>
<polygon fill="midnightblue" stroke="midnightblue" points="608.03,-220.94 617.12,-215.5 606.62,-214.08 608.03,-220.94"/>
</g>
<!-- Node24&#45;&gt;Node17 -->
<g id="edge27" class="edge">
<title>Node24&#45;&gt;Node17</title>
<path fill="none" stroke="midnightblue" d="M551.31,-259.02C569.85,-262.82 589.48,-266.84 607.04,-270.43"/>
<polygon fill="midnightblue" stroke="midnightblue" points="606.62,-273.92 617.12,-272.5 608.03,-267.06 606.62,-273.92"/>
</g>
</g>
</svg>
        <g id="navigator" transform="translate(0 0)" fill="#404254">
                <rect fill="#f2f5e9" fill-opacity="0.5" stroke="#606060" stroke-width=".5" x="0" y="0" width="60" height="60"/>
                <use id="zoomplus" xlink:href="#zoomPlus" x="17" y="9" onmousedown="handleZoom(evt,'in')"/>
                <use id="zoomminus" xlink:href="#zoomMin" x="42" y="9" onmousedown="handleZoom(evt,'out')"/>
                <use id="reset" xlink:href="#resetDef" x="30" y="36" onmousedown="handleReset()"/>
                <g id="arrowUp" xlink:href="#dirArrow" transform="translate(30 24)" onmousedown="handlePan(0,-1)">
                  <use xlink:href="#rim" fill="#404040">
                        <set attributeName="fill" to="#808080" begin="arrowUp.mouseover" end="arrowUp.mouseout"/>
                  </use>
                  <path fill="none" stroke="white" stroke-width="1.5" d="M0,-3.0v7 M-2.5,-0.5L0,-3.0L2.5,-0.5"/>
                </g>
                <g id="arrowRight" xlink:href="#dirArrow" transform="rotate(90) translate(36 -43)" onmousedown="handlePan(1,0)">
                  <use xlink:href="#rim" fill="#404040">
                        <set attributeName="fill" to="#808080" begin="arrowRight.mouseover" end="arrowRight.mouseout"/>
                  </use>
                  <path fill="none" stroke="white" stroke-width="1.5" d="M0,-3.0v7 M-2.5,-0.5L0,-3.0L2.5,-0.5"/>
                </g>
                <g id="arrowDown" xlink:href="#dirArrow" transform="rotate(180) translate(-30 -48)" onmousedown="handlePan(0,1)">
                  <use xlink:href="#rim" fill="#404040">
                        <set attributeName="fill" to="#808080" begin="arrowDown.mouseover" end="arrowDown.mouseout"/>
                  </use>
                  <path fill="none" stroke="white" stroke-width="1.5" d="M0,-3.0v7 M-2.5,-0.5L0,-3.0L2.5,-0.5"/>
                </g>
                <g id="arrowLeft" xlink:href="#dirArrow" transform="rotate(270) translate(-36 17)" onmousedown="handlePan(-1,0)">
                  <use xlink:href="#rim" fill="#404040">
                        <set attributeName="fill" to="#808080" begin="arrowLeft.mouseover" end="arrowLeft.mouseout"/>
                  </use>
                  <path fill="none" stroke="white" stroke-width="1.5" d="M0,-3.0v7 M-2.5,-0.5L0,-3.0L2.5,-0.5"/>
                </g>
        </g>
        <svg viewBox="0 0 15 15" width="100%" height="30px" preserveAspectRatio="xMaxYMin meet">
         <g id="arrow_out" transform="scale(0.3 0.3)">
          <a xlink:href="ParticleMotion_8c_a727054a4a467fd8504a19caed5a5916b_cgraph_org.svg" target="_base">
           <rect id="button" ry="5" rx="5" y="6" x="6" height="38" width="38"
                fill="#f2f5e9" fill-opacity="0.5" stroke="#606060" stroke-width="1.0"/>
           <path id="arrow"
             d="M 11.500037,31.436501 C 11.940474,20.09759 22.043105,11.32322 32.158766,21.979434 L 37.068811,17.246167 C 37.068811,17.246167 37.088388,32 37.088388,32 L 22.160133,31.978069 C 22.160133,31.978069 26.997745,27.140456 26.997745,27.140456 C 18.528582,18.264221 13.291696,25.230495 11.500037,31.436501 z"
             style="fill:#404040;"/>
          </a>
         </g>
        </svg>
</svg>
