<?xml version="1.0" encoding="UTF-8" standalone="no"?>
<!DOCTYPE svg PUBLIC "-//W3C//DTD SVG 1.1//EN"
 "http://www.w3.org/Graphics/SVG/1.1/DTD/svg11.dtd">
<!-- Generated by graphviz version 2.43.0 (0)
 -->
<!-- Title: UpdateParticlePosition Pages: 1 -->
<svg width="542pt" height="28pt"
 viewBox="0.00 0.00 542.00 28.00" xmlns="http://www.w3.org/2000/svg" xmlns:xlink="http://www.w3.org/1999/xlink">
<g id="graph0" class="graph" transform="scale(1 1) rotate(0) translate(4 24)">
<title>UpdateParticlePosition</title>
<!-- Node1 -->
<g id="node1" class="node">
<title>Node1</title>
<g id="a_node1"><a xlink:title="Updates a particle&#39;s position based on its velocity and the timestep dt (stored in user&#45;&gt;dt).">
<polygon fill="#bfbfbf" stroke="black" points="406,-0.5 406,-19.5 534,-19.5 534,-0.5 406,-0.5"/>
<text text-anchor="middle" x="470" y="-7.5" font-family="Helvetica,sans-Serif" font-size="10.00">UpdateParticlePosition</text>
</a>
</g>
</g>
<!-- Node2 -->
<g id="node2" class="node">
<title>Node2</title>
<g id="a_node2"><a xlink:href="ParticleMotion_8c.html#a74bec635d0f085bd2e8aef6c61aac629" target="_top" xlink:title="Loops over all local particles in the DMSwarm, updating their positions based on velocity and the glo...">
<polygon fill="none" stroke="black" points="224,-0.5 224,-19.5 370,-19.5 370,-0.5 224,-0.5"/>
<text text-anchor="middle" x="297" y="-7.5" font-family="Helvetica,sans-Serif" font-size="10.00">UpdateAllParticlePositions</text>
</a>
</g>
</g>
<!-- Node1&#45;&gt;Node2 -->
<g id="edge1" class="edge">
<title>Node1&#45;&gt;Node2</title>
<path fill="none" stroke="midnightblue" d="M395.62,-10C387.18,-10 378.58,-10 370.16,-10"/>
<polygon fill="midnightblue" stroke="midnightblue" points="395.81,-13.5 405.81,-10 395.81,-6.5 395.81,-13.5"/>
</g>
<!-- Node3 -->
<g id="node3" class="node">
<title>Node3</title>
<g id="a_node3"><a xlink:href="simulation_8c.html#a5cfb2f783604af7f20171d19f969d5d3" target="_top" xlink:title="Executes the main time&#45;marching loop for the coupled Euler&#45;Lagrange simulation.">
<polygon fill="none" stroke="black" points="77,-0.5 77,-19.5 188,-19.5 188,-0.5 77,-0.5"/>
<text text-anchor="middle" x="132.5" y="-7.5" font-family="Helvetica,sans-Serif" font-size="10.00">AdvanceSimulation</text>
</a>
</g>
</g>
<!-- Node2&#45;&gt;Node3 -->
<g id="edge2" class="edge">
<title>Node2&#45;&gt;Node3</title>
<path fill="none" stroke="midnightblue" d="M213.73,-10C205.15,-10 196.59,-10 188.43,-10"/>
<polygon fill="midnightblue" stroke="midnightblue" points="213.78,-13.5 223.78,-10 213.78,-6.5 213.78,-13.5"/>
</g>
<!-- Node4 -->
<g id="node4" class="node">
<title>Node4</title>
<g id="a_node4"><a xlink:href="picsolver_8c.html#a3c04138a5bfe5d72780bb7e82a18e627" target="_top" xlink:title=" ">
<polygon fill="none" stroke="black" points="0,-0.5 0,-19.5 41,-19.5 41,-0.5 0,-0.5"/>
<text text-anchor="middle" x="20.5" y="-7.5" font-family="Helvetica,sans-Serif" font-size="10.00">main</text>
</a>
</g>
</g>
<!-- Node3&#45;&gt;Node4 -->
<g id="edge3" class="edge">
<title>Node3&#45;&gt;Node4</title>
<path fill="none" stroke="midnightblue" d="M66.64,-10C57.35,-10 48.45,-10 41.05,-10"/>
<polygon fill="midnightblue" stroke="midnightblue" points="66.82,-13.5 76.82,-10 66.82,-6.5 66.82,-13.5"/>
</g>
</g>
</svg>
