<?xml version="1.0" encoding="UTF-8" standalone="no"?>
<!DOCTYPE svg PUBLIC "-//W3C//DTD SVG 1.1//EN"
 "http://www.w3.org/Graphics/SVG/1.1/DTD/svg11.dtd">
<!-- Generated by graphviz version 2.43.0 (0)
 -->
<!-- Title: InitializeParticleBasicProperties Pages: 1 -->
<svg width="594pt" height="39pt"
 viewBox="0.00 0.00 594.00 39.00" xmlns="http://www.w3.org/2000/svg" xmlns:xlink="http://www.w3.org/1999/xlink">
<g id="graph0" class="graph" transform="scale(1 1) rotate(0) translate(4 35)">
<title>InitializeParticleBasicProperties</title>
<!-- Node1 -->
<g id="node1" class="node">
<title>Node1</title>
<g id="a_node1"><a xlink:title="Initializes basic properties for particles on the local process.">
<polygon fill="#bfbfbf" stroke="black" points="415,-6 415,-25 586,-25 586,-6 415,-6"/>
<text text-anchor="middle" x="500.5" y="-13" font-family="Helvetica,sans-Serif" font-size="10.00">InitializeParticleBasicProperties</text>
</a>
</g>
</g>
<!-- Node2 -->
<g id="node2" class="node">
<title>Node2</title>
<g id="a_node2"><a xlink:href="ParticleSwarm_8c.html#af2b3080ee0e5c8e0175ac594a2c497b5" target="_top" xlink:title="Initializes all particle properties in the swarm.">
<polygon fill="none" stroke="black" points="242,-0.5 242,-30.5 379,-30.5 379,-0.5 242,-0.5"/>
<text text-anchor="start" x="250" y="-18.5" font-family="Helvetica,sans-Serif" font-size="10.00">AssignInitialPropertiesTo</text>
<text text-anchor="middle" x="310.5" y="-7.5" font-family="Helvetica,sans-Serif" font-size="10.00">Swarm</text>
</a>
</g>
</g>
<!-- Node1&#45;&gt;Node2 -->
<g id="edge1" class="edge">
<title>Node1&#45;&gt;Node2</title>
<path fill="none" stroke="midnightblue" d="M404.7,-15.5C396.05,-15.5 387.4,-15.5 379.06,-15.5"/>
<polygon fill="midnightblue" stroke="midnightblue" points="404.85,-19 414.85,-15.5 404.85,-12 404.85,-19"/>
</g>
<!-- Node3 -->
<g id="node3" class="node">
<title>Node3</title>
<g id="a_node3"><a xlink:href="ParticleSwarm_8c.html#ada215a5db25227a8fd2cd2596e7d3e57" target="_top" xlink:title="Perform particle swarm initialization, particle&#45;grid interaction, and related operations.">
<polygon fill="none" stroke="black" points="77,-6 77,-25 206,-25 206,-6 77,-6"/>
<text text-anchor="middle" x="141.5" y="-13" font-family="Helvetica,sans-Serif" font-size="10.00">InitializeParticleSwarm</text>
</a>
</g>
</g>
<!-- Node2&#45;&gt;Node3 -->
<g id="edge2" class="edge">
<title>Node2&#45;&gt;Node3</title>
<path fill="none" stroke="midnightblue" d="M231.31,-15.5C222.85,-15.5 214.31,-15.5 206.05,-15.5"/>
<polygon fill="midnightblue" stroke="midnightblue" points="231.57,-19 241.57,-15.5 231.57,-12 231.57,-19"/>
</g>
<!-- Node4 -->
<g id="node4" class="node">
<title>Node4</title>
<g id="a_node4"><a xlink:href="picsolver_8c.html#a3c04138a5bfe5d72780bb7e82a18e627" target="_top" xlink:title=" ">
<polygon fill="none" stroke="black" points="0,-6 0,-25 41,-25 41,-6 0,-6"/>
<text text-anchor="middle" x="20.5" y="-13" font-family="Helvetica,sans-Serif" font-size="10.00">main</text>
</a>
</g>
</g>
<!-- Node3&#45;&gt;Node4 -->
<g id="edge3" class="edge">
<title>Node3&#45;&gt;Node4</title>
<path fill="none" stroke="midnightblue" d="M66.53,-15.5C57.19,-15.5 48.35,-15.5 41.03,-15.5"/>
<polygon fill="midnightblue" stroke="midnightblue" points="66.82,-19 76.82,-15.5 66.82,-12 66.82,-19"/>
</g>
</g>
</svg>
