<?xml version="1.0" encoding="UTF-8" standalone="no"?>
<!DOCTYPE svg PUBLIC "-//W3C//DTD SVG 1.1//EN"
 "http://www.w3.org/Graphics/SVG/1.1/DTD/svg11.dtd">
<!-- Generated by graphviz version 2.43.0 (0)
 -->
<!-- Title: ReinitializeParticlesOnInletSurface Pages: 1 -->
<!--zoomable 161 -->
<svg id="main" version="1.1" xmlns="http://www.w3.org/2000/svg" xmlns:xlink="http://www.w3.org/1999/xlink" xml:space="preserve" onload="init(evt)">
<style type="text/css"><![CDATA[
.edge:hover path { stroke: red; }
.edge:hover polygon { stroke: red; fill: red; }
]]></style>
<script type="text/javascript"><![CDATA[
var edges = document.getElementsByTagName('g');
if (edges && edges.length) {
  for (var i=0;i<edges.length;i++) {
    if (edges[i].id.substr(0,4)=='edge') {
      edges[i].setAttribute('class','edge');
    }
  }
}
]]></script>
        <defs>
                <circle id="rim" cx="0" cy="0" r="7"/>
                <circle id="rim2" cx="0" cy="0" r="3.5"/>
                <g id="zoomPlus">
                        <use xlink:href="#rim" fill="#404040">
                                <set attributeName="fill" to="#808080" begin="zoomplus.mouseover" end="zoomplus.mouseout"/>
                        </use>
                        <path d="M-4,0h8M0,-4v8" fill="none" stroke="white" stroke-width="1.5" pointer-events="none"/>
                </g>
                <g id="zoomMin">
                        <use xlink:href="#rim" fill="#404040">
                                <set attributeName="fill" to="#808080" begin="zoomminus.mouseover" end="zoomminus.mouseout"/>
                        </use>
                        <path d="M-4,0h8" fill="none" stroke="white" stroke-width="1.5" pointer-events="none"/>
                </g>
                <g id="dirArrow">
                        <path fill="none" stroke="white" stroke-width="1.5" d="M0,-3.0v7 M-2.5,-0.5L0,-3.0L2.5,-0.5"/>
                </g>
               <g id="resetDef">
                       <use xlink:href="#rim2" fill="#404040">
                               <set attributeName="fill" to="#808080" begin="reset.mouseover" end="reset.mouseout"/>
                       </use>
               </g>
        </defs>

<script type="text/javascript">
var viewWidth = 547;
var viewHeight = 161;
var sectionId = 'dynsection-13';
</script>
<script xlink:href="svgpan.js"/>
<svg id="graph" class="graph">
<g id="viewport">
<title>ReinitializeParticlesOnInletSurface</title>
<!-- Node1 -->
<g id="node1" class="node">
<title>Node1</title>
<g id="a_node1"><a xlink:title="Re&#45;initializes the positions of particles currently on this rank if this rank owns part of the design...">
<polygon fill="#bfbfbf" stroke="black" points="0,-71 0,-101 149,-101 149,-71 0,-71"/>
<text text-anchor="start" x="8" y="-89" font-family="Helvetica,sans-Serif" font-size="10.00">ReinitializeParticlesOnInlet</text>
<text text-anchor="middle" x="74.5" y="-78" font-family="Helvetica,sans-Serif" font-size="10.00">Surface</text>
</a>
</g>
</g>
<!-- Node2 -->
<g id="node2" class="node">
<title>Node2</title>
<g id="a_node2"><a xlink:href="Boundaries_8h.html#ab679d620b2d750179fbc2363fc562a1f" target="_top" xlink:title="Determines if the current MPI rank owns any part of the globally defined inlet face,...">
<polygon fill="none" stroke="black" points="212.5,-133.5 212.5,-152.5 352.5,-152.5 352.5,-133.5 212.5,-133.5"/>
<text text-anchor="middle" x="282.5" y="-140.5" font-family="Helvetica,sans-Serif" font-size="10.00">CanRankServiceInletFace</text>
</a>
</g>
</g>
<!-- Node1&#45;&gt;Node2 -->
<g id="edge1" class="edge">
<title>Node1&#45;&gt;Node2</title>
<path fill="none" stroke="midnightblue" d="M114.62,-101.07C135.32,-108.66 161.3,-117.59 185,-124 194.99,-126.7 205.66,-129.19 216.13,-131.42"/>
<polygon fill="midnightblue" stroke="midnightblue" points="215.58,-134.87 226.08,-133.47 216.99,-128.02 215.58,-134.87"/>
</g>
<!-- Node4 -->
<g id="node4" class="node">
<title>Node4</title>
<g id="a_node4"><a xlink:href="Boundaries_8h.html#ac07befc354128d23bac8ed5f2612ffdf" target="_top" xlink:title="Assuming the current rank services the inlet face, this function selects a random cell (owned by this...">
<polygon fill="none" stroke="black" points="185,-95.5 185,-114.5 380,-114.5 380,-95.5 185,-95.5"/>
<text text-anchor="middle" x="282.5" y="-102.5" font-family="Helvetica,sans-Serif" font-size="10.00">GetRandomCellAndLogicOnInletFace</text>
</a>
</g>
</g>
<!-- Node1&#45;&gt;Node4 -->
<g id="edge3" class="edge">
<title>Node1&#45;&gt;Node4</title>
<path fill="none" stroke="midnightblue" d="M149.29,-92.81C157.59,-93.57 166.16,-94.36 174.77,-95.16"/>
<polygon fill="midnightblue" stroke="midnightblue" points="174.6,-98.65 184.88,-96.09 175.24,-91.68 174.6,-98.65"/>
</g>
<!-- Node5 -->
<g id="node5" class="node">
<title>Node5</title>
<g id="a_node5"><a xlink:href="ParticleSwarm_8h.html#ab723e91906e01ec26aab97de6623000c" target="_top" xlink:title="Initializes random number generators for logical space operations [0.0, 1.0).">
<polygon fill="none" stroke="black" points="208,-57.5 208,-76.5 357,-76.5 357,-57.5 208,-57.5"/>
<text text-anchor="middle" x="282.5" y="-64.5" font-family="Helvetica,sans-Serif" font-size="10.00">InitializeLogicalSpaceRNGs</text>
</a>
</g>
</g>
<!-- Node1&#45;&gt;Node5 -->
<g id="edge5" class="edge">
<title>Node1&#45;&gt;Node5</title>
<path fill="none" stroke="midnightblue" d="M149.29,-79.19C164.91,-77.75 181.52,-76.22 197.49,-74.75"/>
<polygon fill="midnightblue" stroke="midnightblue" points="198.24,-78.19 207.88,-73.79 197.6,-71.22 198.24,-78.19"/>
</g>
<!-- Node6 -->
<g id="node6" class="node">
<title>Node6</title>
<g id="a_node6"><a xlink:href="Metric_8h.html#af0ba1966641e609476ac6fc3d5cdbbfc" target="_top" xlink:title="Public wrapper: map (cell index, ξ,η,ζ) to (x,y,z).">
<polygon fill="none" stroke="black" points="216,-19.5 216,-38.5 349,-38.5 349,-19.5 216,-19.5"/>
<text text-anchor="middle" x="282.5" y="-26.5" font-family="Helvetica,sans-Serif" font-size="10.00">MetricLogicalToPhysical</text>
</a>
</g>
</g>
<!-- Node1&#45;&gt;Node6 -->
<g id="edge6" class="edge">
<title>Node1&#45;&gt;Node6</title>
<path fill="none" stroke="midnightblue" d="M114.62,-70.93C135.32,-63.34 161.3,-54.41 185,-48 194.99,-45.3 205.66,-42.81 216.13,-40.58"/>
<polygon fill="midnightblue" stroke="midnightblue" points="216.99,-43.98 226.08,-38.53 215.58,-37.13 216.99,-43.98"/>
</g>
<!-- Node3 -->
<g id="node3" class="node">
<title>Node3</title>
<g id="a_node3"><a xlink:href="setup_8h.html#a9b17552f79ebe16d0363986217a01ff3" target="_top" xlink:title="Determines the global starting index and number of CELLS owned by the current processor in a specifie...">
<polygon fill="none" stroke="black" points="419,-114.5 419,-133.5 536,-133.5 536,-114.5 419,-114.5"/>
<text text-anchor="middle" x="477.5" y="-121.5" font-family="Helvetica,sans-Serif" font-size="10.00">GetOwnedCellRange</text>
</a>
</g>
</g>
<!-- Node2&#45;&gt;Node3 -->
<g id="edge2" class="edge">
<title>Node2&#45;&gt;Node3</title>
<path fill="none" stroke="midnightblue" d="M352.63,-136.19C370.98,-134.39 390.76,-132.44 409.01,-130.64"/>
<polygon fill="midnightblue" stroke="midnightblue" points="409.37,-134.13 418.98,-129.66 408.68,-127.16 409.37,-134.13"/>
</g>
<!-- Node4&#45;&gt;Node3 -->
<g id="edge4" class="edge">
<title>Node4&#45;&gt;Node3</title>
<path fill="none" stroke="midnightblue" d="M380.28,-114.53C389.85,-115.47 399.41,-116.41 408.6,-117.32"/>
<polygon fill="midnightblue" stroke="midnightblue" points="408.49,-120.82 418.78,-118.32 409.17,-113.86 408.49,-120.82"/>
</g>
<!-- Node7 -->
<g id="node7" class="node">
<title>Node7</title>
<g id="a_node7"><a xlink:href="Metric_8c.html#a4859ff8031c003e036eab9cf8fb351f6" target="_top" xlink:title="Extract the eight vertex coordinates of the hexahedral cell (i,j,k).">
<polygon fill="none" stroke="black" points="416,-38.5 416,-57.5 539,-57.5 539,-38.5 416,-38.5"/>
<text text-anchor="middle" x="477.5" y="-45.5" font-family="Helvetica,sans-Serif" font-size="10.00">MetricGetCellVertices</text>
</a>
</g>
</g>
<!-- Node6&#45;&gt;Node7 -->
<g id="edge7" class="edge">
<title>Node6&#45;&gt;Node7</title>
<path fill="none" stroke="midnightblue" d="M349.11,-35.46C367.37,-37.26 387.27,-39.22 405.81,-41.04"/>
<polygon fill="midnightblue" stroke="midnightblue" points="405.65,-44.54 415.94,-42.04 406.33,-37.58 405.65,-44.54"/>
</g>
<!-- Node8 -->
<g id="node8" class="node">
<title>Node8</title>
<g id="a_node8"><a xlink:href="Metric_8c.html#a379d85074cc67dd1230cecc94b9169aa" target="_top" xlink:title="Map logical coordinates to physical space using trilinear basis.">
<polygon fill="none" stroke="black" points="435.5,-0.5 435.5,-19.5 519.5,-19.5 519.5,-0.5 435.5,-0.5"/>
<text text-anchor="middle" x="477.5" y="-7.5" font-family="Helvetica,sans-Serif" font-size="10.00">TrilinearBlend</text>
</a>
</g>
</g>
<!-- Node6&#45;&gt;Node8 -->
<g id="edge8" class="edge">
<title>Node6&#45;&gt;Node8</title>
<path fill="none" stroke="midnightblue" d="M349.11,-22.54C373.96,-20.1 401.85,-17.35 425.2,-15.05"/>
<polygon fill="midnightblue" stroke="midnightblue" points="425.63,-18.53 435.23,-14.06 424.94,-11.56 425.63,-18.53"/>
</g>
</g>
</svg>
        <g id="navigator" transform="translate(0 0)" fill="#404254">
                <rect fill="#f2f5e9" fill-opacity="0.5" stroke="#606060" stroke-width=".5" x="0" y="0" width="60" height="60"/>
                <use id="zoomplus" xlink:href="#zoomPlus" x="17" y="9" onmousedown="handleZoom(evt,'in')"/>
                <use id="zoomminus" xlink:href="#zoomMin" x="42" y="9" onmousedown="handleZoom(evt,'out')"/>
                <use id="reset" xlink:href="#resetDef" x="30" y="36" onmousedown="handleReset()"/>
                <g id="arrowUp" xlink:href="#dirArrow" transform="translate(30 24)" onmousedown="handlePan(0,-1)">
                  <use xlink:href="#rim" fill="#404040">
                        <set attributeName="fill" to="#808080" begin="arrowUp.mouseover" end="arrowUp.mouseout"/>
                  </use>
                  <path fill="none" stroke="white" stroke-width="1.5" d="M0,-3.0v7 M-2.5,-0.5L0,-3.0L2.5,-0.5"/>
                </g>
                <g id="arrowRight" xlink:href="#dirArrow" transform="rotate(90) translate(36 -43)" onmousedown="handlePan(1,0)">
                  <use xlink:href="#rim" fill="#404040">
                        <set attributeName="fill" to="#808080" begin="arrowRight.mouseover" end="arrowRight.mouseout"/>
                  </use>
                  <path fill="none" stroke="white" stroke-width="1.5" d="M0,-3.0v7 M-2.5,-0.5L0,-3.0L2.5,-0.5"/>
                </g>
                <g id="arrowDown" xlink:href="#dirArrow" transform="rotate(180) translate(-30 -48)" onmousedown="handlePan(0,1)">
                  <use xlink:href="#rim" fill="#404040">
                        <set attributeName="fill" to="#808080" begin="arrowDown.mouseover" end="arrowDown.mouseout"/>
                  </use>
                  <path fill="none" stroke="white" stroke-width="1.5" d="M0,-3.0v7 M-2.5,-0.5L0,-3.0L2.5,-0.5"/>
                </g>
                <g id="arrowLeft" xlink:href="#dirArrow" transform="rotate(270) translate(-36 17)" onmousedown="handlePan(-1,0)">
                  <use xlink:href="#rim" fill="#404040">
                        <set attributeName="fill" to="#808080" begin="arrowLeft.mouseover" end="arrowLeft.mouseout"/>
                  </use>
                  <path fill="none" stroke="white" stroke-width="1.5" d="M0,-3.0v7 M-2.5,-0.5L0,-3.0L2.5,-0.5"/>
                </g>
        </g>
        <svg viewBox="0 0 15 15" width="100%" height="30px" preserveAspectRatio="xMaxYMin meet">
         <g id="arrow_out" transform="scale(0.3 0.3)">
          <a xlink:href="ParticleMotion_8h_abb62172d12ae65122070a3674196c8e2_cgraph_org.svg" target="_base">
           <rect id="button" ry="5" rx="5" y="6" x="6" height="38" width="38"
                fill="#f2f5e9" fill-opacity="0.5" stroke="#606060" stroke-width="1.0"/>
           <path id="arrow"
             d="M 11.500037,31.436501 C 11.940474,20.09759 22.043105,11.32322 32.158766,21.979434 L 37.068811,17.246167 C 37.068811,17.246167 37.088388,32 37.088388,32 L 22.160133,31.978069 C 22.160133,31.978069 26.997745,27.140456 26.997745,27.140456 C 18.528582,18.264221 13.291696,25.230495 11.500037,31.436501 z"
             style="fill:#404040;"/>
          </a>
         </g>
        </svg>
</svg>
