<?xml version="1.0" encoding="UTF-8" standalone="no"?>
<!DOCTYPE svg PUBLIC "-//W3C//DTD SVG 1.1//EN"
 "http://www.w3.org/Graphics/SVG/1.1/DTD/svg11.dtd">
<!-- Generated by graphviz version 2.43.0 (0)
 -->
<!-- Title: picsolver.c Pages: 1 -->
<svg width="4034pt" height="924pt"
 viewBox="0.00 0.00 4034.00 924.00" xmlns="http://www.w3.org/2000/svg" xmlns:xlink="http://www.w3.org/1999/xlink">
<g id="graph0" class="graph" transform="scale(1 1) rotate(0) translate(4 920)">
<title>picsolver.c</title>
<!-- Node1 -->
<g id="node1" class="node">
<title>Node1</title>
<g id="a_node1"><a xlink:title=" ">
<polygon fill="#bfbfbf" stroke="black" points="2141.5,-896.5 2141.5,-915.5 2210.5,-915.5 2210.5,-896.5 2141.5,-896.5"/>
<text text-anchor="middle" x="2176" y="-903.5" font-family="Helvetica,sans-Serif" font-size="10.00">picsolver.c</text>
</a>
</g>
</g>
<!-- Node2 -->
<g id="node2" class="node">
<title>Node2</title>
<g id="a_node2"><a xlink:href="simulation_8h.html" target="_top" xlink:title=" ">
<polygon fill="none" stroke="black" points="2137.5,-840.5 2137.5,-859.5 2214.5,-859.5 2214.5,-840.5 2137.5,-840.5"/>
<text text-anchor="middle" x="2176" y="-847.5" font-family="Helvetica,sans-Serif" font-size="10.00">simulation.h</text>
</a>
</g>
</g>
<!-- Node1&#45;&gt;Node2 -->
<g id="edge1" class="edge">
<title>Node1&#45;&gt;Node2</title>
<path fill="none" stroke="midnightblue" d="M2176,-896.08C2176,-889.01 2176,-878.86 2176,-869.99"/>
<polygon fill="midnightblue" stroke="midnightblue" points="2179.5,-869.75 2176,-859.75 2172.5,-869.75 2179.5,-869.75"/>
</g>
<!-- Node3 -->
<g id="node3" class="node">
<title>Node3</title>
<g id="a_node3"><a xlink:title=" ">
<polygon fill="none" stroke="#bfbfbf" points="3235.5,-112.5 3235.5,-131.5 3296.5,-131.5 3296.5,-112.5 3235.5,-112.5"/>
<text text-anchor="middle" x="3266" y="-119.5" font-family="Helvetica,sans-Serif" font-size="10.00">petscpf.h</text>
</a>
</g>
</g>
<!-- Node2&#45;&gt;Node3 -->
<g id="edge2" class="edge">
<title>Node2&#45;&gt;Node3</title>
<path fill="none" stroke="midnightblue" d="M2214.75,-848.28C2395.25,-844.83 3154.86,-829.05 3391,-804 3556.6,-786.43 3760,-905.52 3760,-739 3760,-739 3760,-739 3760,-569 3760,-321.4 3413.88,-175.82 3301.08,-134.95"/>
<polygon fill="midnightblue" stroke="midnightblue" points="3302.11,-131.6 3291.52,-131.53 3299.76,-138.19 3302.11,-131.6"/>
</g>
<!-- Node4 -->
<g id="node4" class="node">
<title>Node4</title>
<g id="a_node4"><a xlink:title=" ">
<polygon fill="none" stroke="#bfbfbf" points="3424.5,-0.5 3424.5,-19.5 3525.5,-19.5 3525.5,-0.5 3424.5,-0.5"/>
<text text-anchor="middle" x="3475" y="-7.5" font-family="Helvetica,sans-Serif" font-size="10.00">petscdmswarm.h</text>
</a>
</g>
</g>
<!-- Node2&#45;&gt;Node4 -->
<g id="edge3" class="edge">
<title>Node2&#45;&gt;Node4</title>
<path fill="none" stroke="midnightblue" d="M2214.78,-848.86C2452.7,-847.91 3710.02,-841.15 3877,-804 3947.53,-788.31 4026,-811.25 4026,-739 4026,-739 4026,-739 4026,-121 4026,-22.03 3679.8,-10.84 3536.24,-10.46"/>
<polygon fill="midnightblue" stroke="midnightblue" points="3535.85,-6.96 3525.85,-10.45 3535.85,-13.96 3535.85,-6.96"/>
</g>
<!-- Node5 -->
<g id="node5" class="node">
<title>Node5</title>
<g id="a_node5"><a xlink:title=" ">
<polygon fill="none" stroke="#bfbfbf" points="2197.5,-0.5 2197.5,-19.5 2250.5,-19.5 2250.5,-0.5 2197.5,-0.5"/>
<text text-anchor="middle" x="2224" y="-7.5" font-family="Helvetica,sans-Serif" font-size="10.00">stdlib.h</text>
</a>
</g>
</g>
<!-- Node2&#45;&gt;Node5 -->
<g id="edge4" class="edge">
<title>Node2&#45;&gt;Node5</title>
<path fill="none" stroke="midnightblue" d="M2214.84,-848.79C2446.29,-847.45 3639.09,-838.85 3798,-804 3869.77,-788.26 3950,-812.47 3950,-739 3950,-739 3950,-739 3950,-289 3950,-246.86 3785.01,-140.65 3701,-112 3422.58,-17.06 2461.17,-11.15 2260.78,-10.96"/>
<polygon fill="midnightblue" stroke="midnightblue" points="2260.76,-7.46 2250.76,-10.96 2260.76,-14.46 2260.76,-7.46"/>
</g>
<!-- Node6 -->
<g id="node6" class="node">
<title>Node6</title>
<g id="a_node6"><a xlink:title=" ">
<polygon fill="none" stroke="#bfbfbf" points="3622,-112.5 3622,-131.5 3670,-131.5 3670,-112.5 3622,-112.5"/>
<text text-anchor="middle" x="3646" y="-119.5" font-family="Helvetica,sans-Serif" font-size="10.00">time.h</text>
</a>
</g>
</g>
<!-- Node2&#45;&gt;Node6 -->
<g id="edge5" class="edge">
<title>Node2&#45;&gt;Node6</title>
<path fill="none" stroke="midnightblue" d="M2214.72,-848.71C2439.06,-846.94 3567.2,-836.45 3718,-804 3791.43,-788.2 3874,-814.11 3874,-739 3874,-739 3874,-739 3874,-289 3874,-194.38 3744.09,-148.02 3680.39,-130.98"/>
<polygon fill="midnightblue" stroke="midnightblue" points="3680.96,-127.51 3670.4,-128.4 3679.21,-134.29 3680.96,-127.51"/>
</g>
<!-- Node7 -->
<g id="node7" class="node">
<title>Node7</title>
<g id="a_node7"><a xlink:title=" ">
<polygon fill="none" stroke="#bfbfbf" points="1521.5,-112.5 1521.5,-131.5 1572.5,-131.5 1572.5,-112.5 1521.5,-112.5"/>
<text text-anchor="middle" x="1547" y="-119.5" font-family="Helvetica,sans-Serif" font-size="10.00">math.h</text>
</a>
</g>
</g>
<!-- Node2&#45;&gt;Node7 -->
<g id="edge6" class="edge">
<title>Node2&#45;&gt;Node7</title>
<path fill="none" stroke="midnightblue" d="M2137.24,-848.51C1912.69,-845.56 783.42,-829.56 631,-804 548.79,-790.21 507.1,-810.55 452,-748 281.1,-553.99 300.9,-336.5 497,-168 536.27,-134.26 1331.4,-124.97 1511.11,-123.3"/>
<polygon fill="midnightblue" stroke="midnightblue" points="1511.38,-126.8 1521.35,-123.21 1511.31,-119.8 1511.38,-126.8"/>
</g>
<!-- Node8 -->
<g id="node8" class="node">
<title>Node8</title>
<g id="a_node8"><a xlink:title=" ">
<polygon fill="none" stroke="#bfbfbf" points="3381,-112.5 3381,-131.5 3455,-131.5 3455,-112.5 3381,-112.5"/>
<text text-anchor="middle" x="3418" y="-119.5" font-family="Helvetica,sans-Serif" font-size="10.00">petsctime.h</text>
</a>
</g>
</g>
<!-- Node2&#45;&gt;Node8 -->
<g id="edge7" class="edge">
<title>Node2&#45;&gt;Node8</title>
<path fill="none" stroke="midnightblue" d="M2214.58,-848.92C2411.89,-848.35 3309.58,-843.56 3585,-804 3699.06,-787.62 3836,-854.24 3836,-739 3836,-739 3836,-739 3836,-513 3836,-303.1 3550.73,-173.84 3451.52,-135.23"/>
<polygon fill="midnightblue" stroke="midnightblue" points="3452.57,-131.89 3441.97,-131.58 3450.06,-138.42 3452.57,-131.89"/>
</g>
<!-- Node9 -->
<g id="node9" class="node">
<title>Node9</title>
<g id="a_node9"><a xlink:title=" ">
<polygon fill="none" stroke="#bfbfbf" points="2186,-112.5 2186,-131.5 2254,-131.5 2254,-112.5 2186,-112.5"/>
<text text-anchor="middle" x="2220" y="-119.5" font-family="Helvetica,sans-Serif" font-size="10.00">petscsys.h</text>
</a>
</g>
</g>
<!-- Node2&#45;&gt;Node9 -->
<g id="edge8" class="edge">
<title>Node2&#45;&gt;Node9</title>
<path fill="none" stroke="midnightblue" d="M2214.72,-848.44C2368.77,-846.01 2938.47,-835.05 3116,-804 3234.73,-783.23 3291.77,-789.24 3363,-692 3393.45,-650.43 3389.79,-631.43 3393,-580 3395.1,-546.28 3407.07,-535.15 3394,-504 3380.26,-471.25 3365.86,-468.69 3337,-448 3292.09,-415.81 3275.87,-415.8 3226,-392 3061.91,-313.7 3025.56,-281.28 2853,-224 2743.7,-187.72 2713.55,-187.24 2600,-168 2479.45,-147.57 2335.82,-133.26 2264.61,-126.82"/>
<polygon fill="midnightblue" stroke="midnightblue" points="2264.5,-123.3 2254.23,-125.9 2263.88,-130.27 2264.5,-123.3"/>
</g>
<!-- Node10 -->
<g id="node10" class="node">
<title>Node10</title>
<g id="a_node10"><a xlink:title=" ">
<polygon fill="none" stroke="#bfbfbf" points="2914.5,-112.5 2914.5,-131.5 3033.5,-131.5 3033.5,-112.5 2914.5,-112.5"/>
<text text-anchor="middle" x="2974" y="-119.5" font-family="Helvetica,sans-Serif" font-size="10.00">petscdmcomposite.h</text>
</a>
</g>
</g>
<!-- Node2&#45;&gt;Node10 -->
<g id="edge9" class="edge">
<title>Node2&#45;&gt;Node10</title>
<path fill="none" stroke="midnightblue" d="M2214.56,-848.19C2446.5,-843.06 3646,-812.98 3646,-739 3646,-739 3646,-739 3646,-513 3646,-236.58 3215.42,-152.8 3043.59,-130.37"/>
<polygon fill="midnightblue" stroke="midnightblue" points="3044,-126.89 3033.64,-129.1 3043.11,-133.84 3044,-126.89"/>
</g>
<!-- Node11 -->
<g id="node11" class="node">
<title>Node11</title>
<g id="a_node11"><a xlink:title=" ">
<polygon fill="none" stroke="#bfbfbf" points="1966.5,-112.5 1966.5,-131.5 2061.5,-131.5 2061.5,-112.5 1966.5,-112.5"/>
<text text-anchor="middle" x="2014" y="-119.5" font-family="Helvetica,sans-Serif" font-size="10.00">petscsystypes.h</text>
</a>
</g>
</g>
<!-- Node2&#45;&gt;Node11 -->
<g id="edge10" class="edge">
<title>Node2&#45;&gt;Node11</title>
<path fill="none" stroke="midnightblue" d="M2137.42,-845.89C2006.61,-834.84 1588,-795.08 1588,-739 1588,-739 1588,-739 1588,-569 1588,-465.4 1539.51,-423.49 1595,-336 1676.6,-207.35 1862.03,-153.06 1956.45,-133.09"/>
<polygon fill="midnightblue" stroke="midnightblue" points="1957.31,-136.49 1966.4,-131.05 1955.89,-129.63 1957.31,-136.49"/>
</g>
<!-- Node12 -->
<g id="node12" class="node">
<title>Node12</title>
<g id="a_node12"><a xlink:href="variables_8h.html" target="_top" xlink:title="Main header file for a complex fluid dynamics solver.">
<polygon fill="none" stroke="black" points="743.5,-56.5 743.5,-75.5 814.5,-75.5 814.5,-56.5 743.5,-56.5"/>
<text text-anchor="middle" x="779" y="-63.5" font-family="Helvetica,sans-Serif" font-size="10.00">variables.h</text>
</a>
</g>
</g>
<!-- Node2&#45;&gt;Node12 -->
<g id="edge11" class="edge">
<title>Node2&#45;&gt;Node12</title>
<path fill="none" stroke="midnightblue" d="M2137.31,-849.17C1872.48,-850.19 331.64,-853.95 130,-804 67.3,-788.47 0,-803.6 0,-739 0,-739 0,-739 0,-177 0,-138.58 22.51,-128.94 57,-112 117.48,-82.29 583.92,-70.77 733.2,-67.82"/>
<polygon fill="midnightblue" stroke="midnightblue" points="733.46,-71.32 743.39,-67.62 733.33,-64.32 733.46,-71.32"/>
</g>
<!-- Node20 -->
<g id="node20" class="node">
<title>Node20</title>
<g id="a_node20"><a xlink:href="ParticleSwarm_8h.html" target="_top" xlink:title="Header file for Particle Motion and migration related functions.">
<polygon fill="none" stroke="black" points="1701,-728.5 1701,-747.5 1797,-747.5 1797,-728.5 1701,-728.5"/>
<text text-anchor="middle" x="1749" y="-735.5" font-family="Helvetica,sans-Serif" font-size="10.00">ParticleSwarm.h</text>
</a>
</g>
</g>
<!-- Node2&#45;&gt;Node20 -->
<g id="edge21" class="edge">
<title>Node2&#45;&gt;Node20</title>
<path fill="none" stroke="midnightblue" d="M2137.45,-843.71C2089.35,-836.67 2004.81,-822.9 1934,-804 1878.53,-789.19 1815.86,-765.69 1779.55,-751.37"/>
<polygon fill="midnightblue" stroke="midnightblue" points="1780.62,-748.03 1770.03,-747.59 1778.03,-754.53 1780.62,-748.03"/>
</g>
<!-- Node23 -->
<g id="node23" class="node">
<title>Node23</title>
<g id="a_node23"><a xlink:href="logging_8h.html" target="_top" xlink:title="Logging utilities and macros for PETSc&#45;based applications.">
<polygon fill="none" stroke="black" points="1279,-616.5 1279,-635.5 1341,-635.5 1341,-616.5 1279,-616.5"/>
<text text-anchor="middle" x="1310" y="-623.5" font-family="Helvetica,sans-Serif" font-size="10.00">logging.h</text>
</a>
</g>
</g>
<!-- Node2&#45;&gt;Node23 -->
<g id="edge160" class="edge">
<title>Node2&#45;&gt;Node23</title>
<path fill="none" stroke="midnightblue" d="M2137.45,-848.04C2022.07,-844.86 1680.92,-833.19 1574,-804 1465.47,-774.37 1428.87,-769.16 1347,-692 1333.15,-678.94 1323.02,-659.52 1316.9,-645.31"/>
<polygon fill="midnightblue" stroke="midnightblue" points="1319.99,-643.61 1313.01,-635.64 1313.5,-646.23 1319.99,-643.61"/>
</g>
<!-- Node26 -->
<g id="node26" class="node">
<title>Node26</title>
<g id="a_node26"><a xlink:href="walkingsearch_8h.html" target="_top" xlink:title="Header file for particle location functions using the walking search algorithm.">
<polygon fill="none" stroke="black" points="1092,-224.5 1092,-243.5 1188,-243.5 1188,-224.5 1092,-224.5"/>
<text text-anchor="middle" x="1140" y="-231.5" font-family="Helvetica,sans-Serif" font-size="10.00">walkingsearch.h</text>
</a>
</g>
</g>
<!-- Node2&#45;&gt;Node26 -->
<g id="edge158" class="edge">
<title>Node2&#45;&gt;Node26</title>
<path fill="none" stroke="midnightblue" d="M2137.25,-848.61C1882.35,-845.8 456,-826.19 456,-739 456,-739 456,-739 456,-569 456,-291.63 915.8,-244.56 1081.43,-236.61"/>
<polygon fill="midnightblue" stroke="midnightblue" points="1082.07,-240.08 1091.9,-236.14 1081.76,-233.09 1082.07,-240.08"/>
</g>
<!-- Node27 -->
<g id="node27" class="node">
<title>Node27</title>
<g id="a_node27"><a xlink:href="setup_8h.html" target="_top" xlink:title=" ">
<polygon fill="none" stroke="black" points="2274.5,-168.5 2274.5,-187.5 2327.5,-187.5 2327.5,-168.5 2274.5,-168.5"/>
<text text-anchor="middle" x="2301" y="-175.5" font-family="Helvetica,sans-Serif" font-size="10.00">setup.h</text>
</a>
</g>
</g>
<!-- Node2&#45;&gt;Node27 -->
<g id="edge186" class="edge">
<title>Node2&#45;&gt;Node27</title>
<path fill="none" stroke="midnightblue" d="M2214.71,-848.79C2363,-847.72 2894.72,-841.32 3059,-804 3230.91,-764.95 3380,-747.29 3380,-571 3380,-571 3380,-571 3380,-513 3380,-431.82 2787.97,-242.79 2709,-224 2574.81,-192.07 2410.29,-182.7 2338.02,-180.03"/>
<polygon fill="midnightblue" stroke="midnightblue" points="2337.75,-176.52 2327.64,-179.67 2337.51,-183.51 2337.75,-176.52"/>
</g>
<!-- Node28 -->
<g id="node28" class="node">
<title>Node28</title>
<g id="a_node28"><a xlink:href="grid_8h.html" target="_top" xlink:title="Public interface for grid, solver, and metric setup routines.">
<polygon fill="none" stroke="black" points="814,-112.5 814,-131.5 858,-131.5 858,-112.5 814,-112.5"/>
<text text-anchor="middle" x="836" y="-119.5" font-family="Helvetica,sans-Serif" font-size="10.00">grid.h</text>
</a>
</g>
</g>
<!-- Node2&#45;&gt;Node28 -->
<g id="edge159" class="edge">
<title>Node2&#45;&gt;Node28</title>
<path fill="none" stroke="midnightblue" d="M2137.26,-848.94C1880.25,-848.45 425.66,-843.92 233,-804 168.19,-790.57 131.97,-802.9 95,-748 47.5,-677.46 179.86,-317.06 415,-168 479.51,-127.1 716.75,-122.95 803.75,-122.84"/>
<polygon fill="midnightblue" stroke="midnightblue" points="803.82,-126.34 813.82,-122.84 803.83,-119.34 803.82,-126.34"/>
</g>
<!-- Node29 -->
<g id="node29" class="node">
<title>Node29</title>
<g id="a_node29"><a xlink:href="io_8h.html" target="_top" xlink:title="Public interface for data input/output routines.">
<polygon fill="none" stroke="black" points="1808.5,-448.5 1808.5,-467.5 1843.5,-467.5 1843.5,-448.5 1808.5,-448.5"/>
<text text-anchor="middle" x="1826" y="-455.5" font-family="Helvetica,sans-Serif" font-size="10.00">io.h</text>
</a>
</g>
</g>
<!-- Node2&#45;&gt;Node29 -->
<g id="edge161" class="edge">
<title>Node2&#45;&gt;Node29</title>
<path fill="none" stroke="midnightblue" d="M2137.32,-847.41C2072.27,-842.44 1948,-822.06 1948,-739 1948,-739 1948,-739 1948,-681 1948,-594.28 1875.61,-509.44 1842.36,-475.03"/>
<polygon fill="midnightblue" stroke="midnightblue" points="1844.69,-472.41 1835.17,-467.76 1839.71,-477.33 1844.69,-472.41"/>
</g>
<!-- Node30 -->
<g id="node30" class="node">
<title>Node30</title>
<g id="a_node30"><a xlink:href="Boundaries_8h.html" target="_top" xlink:title=" ">
<polygon fill="none" stroke="black" points="2020,-392.5 2020,-411.5 2100,-411.5 2100,-392.5 2020,-392.5"/>
<text text-anchor="middle" x="2060" y="-399.5" font-family="Helvetica,sans-Serif" font-size="10.00">Boundaries.h</text>
</a>
</g>
</g>
<!-- Node2&#45;&gt;Node30 -->
<g id="edge185" class="edge">
<title>Node2&#45;&gt;Node30</title>
<path fill="none" stroke="midnightblue" d="M2214.79,-848.21C2356.24,-845.12 2844.05,-832.58 2997,-804 3097.71,-785.18 3221.55,-768.09 3186,-672 3126.51,-511.19 2915.43,-484.3 2771,-448 2645.64,-416.49 2251,-406.44 2110.38,-403.81"/>
<polygon fill="midnightblue" stroke="midnightblue" points="2110.37,-400.31 2100.31,-403.62 2110.24,-407.3 2110.37,-400.31"/>
</g>
<!-- Node31 -->
<g id="node31" class="node">
<title>Node31</title>
<g id="a_node31"><a xlink:href="interpolation_8h.html" target="_top" xlink:title=" ">
<polygon fill="none" stroke="black" points="2617,-504.5 2617,-523.5 2705,-523.5 2705,-504.5 2617,-504.5"/>
<text text-anchor="middle" x="2661" y="-511.5" font-family="Helvetica,sans-Serif" font-size="10.00">interpolation.h</text>
</a>
</g>
</g>
<!-- Node2&#45;&gt;Node31 -->
<g id="edge162" class="edge">
<title>Node2&#45;&gt;Node31</title>
<path fill="none" stroke="midnightblue" d="M2214.53,-847.98C2387.35,-843.01 3085.28,-818.68 3149,-748 3281.05,-601.54 2867.87,-538.56 2715.29,-520.67"/>
<polygon fill="midnightblue" stroke="midnightblue" points="2715.53,-517.17 2705.19,-519.51 2714.73,-524.13 2715.53,-517.17"/>
</g>
<!-- Node33 -->
<g id="node33" class="node">
<title>Node33</title>
<g id="a_node33"><a xlink:href="ParticleMotion_8h.html" target="_top" xlink:title=" ">
<polygon fill="none" stroke="black" points="1282,-280.5 1282,-299.5 1378,-299.5 1378,-280.5 1282,-280.5"/>
<text text-anchor="middle" x="1330" y="-287.5" font-family="Helvetica,sans-Serif" font-size="10.00">ParticleMotion.h</text>
</a>
</g>
</g>
<!-- Node2&#45;&gt;Node33 -->
<g id="edge184" class="edge">
<title>Node2&#45;&gt;Node33</title>
<path fill="none" stroke="midnightblue" d="M2137.24,-848.23C1902.77,-843.31 684,-814.12 684,-739 684,-739 684,-739 684,-681 684,-407.63 1113.21,-320.8 1271.92,-298.03"/>
<polygon fill="midnightblue" stroke="midnightblue" points="1272.55,-301.48 1281.97,-296.62 1271.58,-294.54 1272.55,-301.48"/>
</g>
<!-- Node37 -->
<g id="node37" class="node">
<title>Node37</title>
<g id="a_node37"><a xlink:href="initialcondition_8h.html" target="_top" xlink:title=" ">
<polygon fill="none" stroke="black" points="2127,-784.5 2127,-803.5 2225,-803.5 2225,-784.5 2127,-784.5"/>
<text text-anchor="middle" x="2176" y="-791.5" font-family="Helvetica,sans-Serif" font-size="10.00">initialcondition.h</text>
</a>
</g>
</g>
<!-- Node2&#45;&gt;Node37 -->
<g id="edge163" class="edge">
<title>Node2&#45;&gt;Node37</title>
<path fill="none" stroke="midnightblue" d="M2170.83,-840.08C2169.32,-832.93 2168.89,-822.64 2169.54,-813.69"/>
<polygon fill="midnightblue" stroke="midnightblue" points="2173.02,-814.13 2170.87,-803.75 2166.08,-813.2 2173.02,-814.13"/>
</g>
<!-- Node38 -->
<g id="node38" class="node">
<title>Node38</title>
<g id="a_node38"><a xlink:href="solvers_8h.html" target="_top" xlink:title=" ">
<polygon fill="none" stroke="black" points="242.5,-784.5 242.5,-803.5 303.5,-803.5 303.5,-784.5 242.5,-784.5"/>
<text text-anchor="middle" x="273" y="-791.5" font-family="Helvetica,sans-Serif" font-size="10.00">solvers.h</text>
</a>
</g>
</g>
<!-- Node2&#45;&gt;Node38 -->
<g id="edge187" class="edge">
<title>Node2&#45;&gt;Node38</title>
<path fill="none" stroke="midnightblue" d="M2137.31,-848.67C1906.01,-846.63 703.79,-834.66 336,-804 328.73,-803.39 321.03,-802.5 313.59,-801.51"/>
<polygon fill="midnightblue" stroke="midnightblue" points="314.07,-798.05 303.68,-800.12 313.1,-804.98 314.07,-798.05"/>
</g>
<!-- Node12&#45;&gt;Node4 -->
<g id="edge16" class="edge">
<title>Node12&#45;&gt;Node4</title>
<path fill="none" stroke="midnightblue" d="M814.57,-64.29C1101.99,-58.53 3043.51,-19.64 3413.99,-12.22"/>
<polygon fill="midnightblue" stroke="midnightblue" points="3414.3,-15.72 3424.23,-12.02 3414.16,-8.72 3414.3,-15.72"/>
</g>
<!-- Node12&#45;&gt;Node5 -->
<g id="edge18" class="edge">
<title>Node12&#45;&gt;Node5</title>
<path fill="none" stroke="midnightblue" d="M814.72,-63.67C1013.9,-56.22 1985.66,-19.91 2187.32,-12.37"/>
<polygon fill="midnightblue" stroke="midnightblue" points="2187.53,-15.87 2197.39,-11.99 2187.27,-8.87 2187.53,-15.87"/>
</g>
<!-- Node13 -->
<g id="node13" class="node">
<title>Node13</title>
<g id="a_node13"><a xlink:title=" ">
<polygon fill="none" stroke="#bfbfbf" points="785.5,-0.5 785.5,-19.5 854.5,-19.5 854.5,-0.5 785.5,-0.5"/>
<text text-anchor="middle" x="820" y="-7.5" font-family="Helvetica,sans-Serif" font-size="10.00">petscvec.h</text>
</a>
</g>
</g>
<!-- Node12&#45;&gt;Node13 -->
<g id="edge12" class="edge">
<title>Node12&#45;&gt;Node13</title>
<path fill="none" stroke="midnightblue" d="M785.77,-56.08C791.56,-48.46 800.06,-37.26 807.14,-27.94"/>
<polygon fill="midnightblue" stroke="midnightblue" points="810.1,-29.83 813.36,-19.75 804.52,-25.6 810.1,-29.83"/>
</g>
<!-- Node14 -->
<g id="node14" class="node">
<title>Node14</title>
<g id="a_node14"><a xlink:title=" ">
<polygon fill="none" stroke="#bfbfbf" points="873,-0.5 873,-19.5 953,-19.5 953,-0.5 873,-0.5"/>
<text text-anchor="middle" x="913" y="-7.5" font-family="Helvetica,sans-Serif" font-size="10.00">petscdmda.h</text>
</a>
</g>
</g>
<!-- Node12&#45;&gt;Node14 -->
<g id="edge13" class="edge">
<title>Node12&#45;&gt;Node14</title>
<path fill="none" stroke="midnightblue" d="M800.23,-56.44C822.38,-47.52 857.32,-33.44 882.44,-23.32"/>
<polygon fill="midnightblue" stroke="midnightblue" points="883.9,-26.5 891.87,-19.52 881.28,-20.01 883.9,-26.5"/>
</g>
<!-- Node15 -->
<g id="node15" class="node">
<title>Node15</title>
<g id="a_node15"><a xlink:title=" ">
<polygon fill="none" stroke="#bfbfbf" points="971.5,-0.5 971.5,-19.5 1040.5,-19.5 1040.5,-0.5 971.5,-0.5"/>
<text text-anchor="middle" x="1006" y="-7.5" font-family="Helvetica,sans-Serif" font-size="10.00">petscksp.h</text>
</a>
</g>
</g>
<!-- Node12&#45;&gt;Node15 -->
<g id="edge14" class="edge">
<title>Node12&#45;&gt;Node15</title>
<path fill="none" stroke="midnightblue" d="M814.72,-56.5C854.37,-47.07 918.41,-31.84 961.34,-21.62"/>
<polygon fill="midnightblue" stroke="midnightblue" points="962.32,-24.99 971.23,-19.27 960.7,-18.18 962.32,-24.99"/>
</g>
<!-- Node16 -->
<g id="node16" class="node">
<title>Node16</title>
<g id="a_node16"><a xlink:title=" ">
<polygon fill="none" stroke="#bfbfbf" points="551,-0.5 551,-19.5 625,-19.5 625,-0.5 551,-0.5"/>
<text text-anchor="middle" x="588" y="-7.5" font-family="Helvetica,sans-Serif" font-size="10.00">petscsnes.h</text>
</a>
</g>
</g>
<!-- Node12&#45;&gt;Node16 -->
<g id="edge15" class="edge">
<title>Node12&#45;&gt;Node16</title>
<path fill="none" stroke="midnightblue" d="M748.74,-56.44C716.04,-47.2 663.82,-32.44 627.82,-22.26"/>
<polygon fill="midnightblue" stroke="midnightblue" points="628.7,-18.87 618.12,-19.52 626.79,-25.61 628.7,-18.87"/>
</g>
<!-- Node17 -->
<g id="node17" class="node">
<title>Node17</title>
<g id="a_node17"><a xlink:title=" ">
<polygon fill="none" stroke="#bfbfbf" points="643,-0.5 643,-19.5 693,-19.5 693,-0.5 643,-0.5"/>
<text text-anchor="middle" x="668" y="-7.5" font-family="Helvetica,sans-Serif" font-size="10.00">stdio.h</text>
</a>
</g>
</g>
<!-- Node12&#45;&gt;Node17 -->
<g id="edge17" class="edge">
<title>Node12&#45;&gt;Node17</title>
<path fill="none" stroke="midnightblue" d="M761.17,-56.32C743.28,-47.62 715.52,-34.12 694.95,-24.11"/>
<polygon fill="midnightblue" stroke="midnightblue" points="696.31,-20.88 685.79,-19.65 693.25,-27.18 696.31,-20.88"/>
</g>
<!-- Node18 -->
<g id="node18" class="node">
<title>Node18</title>
<g id="a_node18"><a xlink:title=" ">
<polygon fill="none" stroke="#bfbfbf" points="159.5,-0.5 159.5,-19.5 212.5,-19.5 212.5,-0.5 159.5,-0.5"/>
<text text-anchor="middle" x="186" y="-7.5" font-family="Helvetica,sans-Serif" font-size="10.00">string.h</text>
</a>
</g>
</g>
<!-- Node12&#45;&gt;Node18 -->
<g id="edge19" class="edge">
<title>Node12&#45;&gt;Node18</title>
<path fill="none" stroke="midnightblue" d="M743.24,-61.74C637.93,-52.15 329.66,-24.08 222.9,-14.36"/>
<polygon fill="midnightblue" stroke="midnightblue" points="222.9,-10.85 212.63,-13.42 222.27,-17.82 222.9,-10.85"/>
</g>
<!-- Node19 -->
<g id="node19" class="node">
<title>Node19</title>
<g id="a_node19"><a xlink:title=" ">
<polygon fill="none" stroke="#bfbfbf" points="711,-0.5 711,-19.5 767,-19.5 767,-0.5 711,-0.5"/>
<text text-anchor="middle" x="739" y="-7.5" font-family="Helvetica,sans-Serif" font-size="10.00">unistd.h</text>
</a>
</g>
</g>
<!-- Node12&#45;&gt;Node19 -->
<g id="edge20" class="edge">
<title>Node12&#45;&gt;Node19</title>
<path fill="none" stroke="midnightblue" d="M772.39,-56.08C766.74,-48.46 758.46,-37.26 751.55,-27.94"/>
<polygon fill="midnightblue" stroke="midnightblue" points="754.25,-25.7 745.48,-19.75 748.62,-29.87 754.25,-25.7"/>
</g>
<!-- Node20&#45;&gt;Node4 -->
<g id="edge23" class="edge">
<title>Node20&#45;&gt;Node4</title>
<path fill="none" stroke="midnightblue" d="M1797.25,-737.73C2016.1,-739.52 2934.45,-730.25 3622,-468 3788.5,-404.49 3964.63,-328.88 3888,-168 3826.43,-38.74 3635.11,-14.51 3535.96,-10.86"/>
<polygon fill="midnightblue" stroke="midnightblue" points="3535.89,-7.36 3525.79,-10.55 3535.68,-14.36 3535.89,-7.36"/>
</g>
<!-- Node20&#45;&gt;Node7 -->
<g id="edge25" class="edge">
<title>Node20&#45;&gt;Node7</title>
<path fill="none" stroke="midnightblue" d="M1700.87,-733.08C1564.47,-720.84 1180.85,-678.1 1113,-580 1093.85,-552.31 1138.05,-516.93 1149,-504 1220.76,-419.23 1246.74,-404.71 1334,-336 1356.37,-318.38 1365.53,-318.71 1387,-300 1446.54,-248.1 1452.96,-226.53 1506,-168 1514.71,-158.39 1524.5,-147.64 1532.32,-139.07"/>
<polygon fill="midnightblue" stroke="midnightblue" points="1534.97,-141.36 1539.13,-131.61 1529.8,-136.64 1534.97,-141.36"/>
</g>
<!-- Node20&#45;&gt;Node12 -->
<g id="edge26" class="edge">
<title>Node20&#45;&gt;Node12</title>
<path fill="none" stroke="midnightblue" d="M1700.99,-736.57C1535.38,-734.78 988.75,-726.36 817,-692 673.76,-663.34 319.84,-485.37 252,-356 217.45,-290.11 89.77,-308.33 496,-112 573.17,-74.71 674.64,-67.23 732.75,-66.32"/>
<polygon fill="midnightblue" stroke="midnightblue" points="733.12,-69.82 743.08,-66.23 733.05,-62.82 733.12,-69.82"/>
</g>
<!-- Node21 -->
<g id="node21" class="node">
<title>Node21</title>
<g id="a_node21"><a xlink:title=" ">
<polygon fill="none" stroke="#bfbfbf" points="506,-168.5 506,-187.5 558,-187.5 558,-168.5 506,-168.5"/>
<text text-anchor="middle" x="532" y="-175.5" font-family="Helvetica,sans-Serif" font-size="10.00">petsc.h</text>
</a>
</g>
</g>
<!-- Node20&#45;&gt;Node21 -->
<g id="edge22" class="edge">
<title>Node20&#45;&gt;Node21</title>
<path fill="none" stroke="midnightblue" d="M1700.72,-736.47C1542.91,-734.43 1043.4,-725.41 886,-692 852.01,-684.78 616.37,-606.59 594,-580 496.46,-464.03 519.07,-259.82 528.78,-197.55"/>
<polygon fill="midnightblue" stroke="midnightblue" points="532.24,-198.06 530.41,-187.62 525.33,-196.92 532.24,-198.06"/>
</g>
<!-- Node22 -->
<g id="node22" class="node">
<title>Node22</title>
<g id="a_node22"><a xlink:title=" ">
<polygon fill="none" stroke="#bfbfbf" points="1168,-168.5 1168,-187.5 1230,-187.5 1230,-168.5 1168,-168.5"/>
<text text-anchor="middle" x="1199" y="-175.5" font-family="Helvetica,sans-Serif" font-size="10.00">stdbool.h</text>
</a>
</g>
</g>
<!-- Node20&#45;&gt;Node22 -->
<g id="edge24" class="edge">
<title>Node20&#45;&gt;Node22</title>
<path fill="none" stroke="midnightblue" d="M1700.96,-737.26C1532.94,-737.8 978.27,-736.17 913,-692 729.73,-567.97 910.5,-362.62 1083,-224 1104.81,-206.48 1134.23,-195.17 1157.99,-188.27"/>
<polygon fill="midnightblue" stroke="midnightblue" points="1159.07,-191.6 1167.79,-185.58 1157.22,-184.85 1159.07,-191.6"/>
</g>
<!-- Node20&#45;&gt;Node23 -->
<g id="edge27" class="edge">
<title>Node20&#45;&gt;Node23</title>
<path fill="none" stroke="midnightblue" d="M1700.82,-732.22C1645.56,-726.03 1552.61,-713.4 1475,-692 1424.97,-678.21 1369.29,-654.4 1337.09,-639.74"/>
<polygon fill="midnightblue" stroke="midnightblue" points="1338.43,-636.51 1327.88,-635.51 1335.5,-642.87 1338.43,-636.51"/>
</g>
<!-- Node20&#45;&gt;Node26 -->
<g id="edge149" class="edge">
<title>Node20&#45;&gt;Node26</title>
<path fill="none" stroke="midnightblue" d="M1700.97,-737.42C1535.65,-738.46 996.9,-738.25 936,-692 782.09,-575.12 1049.63,-316.35 1122.45,-250.49"/>
<polygon fill="midnightblue" stroke="midnightblue" points="1124.86,-253.03 1129.97,-243.75 1120.19,-247.82 1124.86,-253.03"/>
</g>
<!-- Node20&#45;&gt;Node29 -->
<g id="edge157" class="edge">
<title>Node20&#45;&gt;Node29</title>
<path fill="none" stroke="midnightblue" d="M1751.39,-728.38C1762.1,-689.7 1805.84,-531.79 1820.89,-477.47"/>
<polygon fill="midnightblue" stroke="midnightblue" points="1824.34,-478.1 1823.64,-467.52 1817.6,-476.23 1824.34,-478.1"/>
</g>
<!-- Node36 -->
<g id="node36" class="node">
<title>Node36</title>
<g id="a_node36"><a xlink:href="Metric_8h.html" target="_top" xlink:title=" ">
<polygon fill="none" stroke="black" points="1484,-672.5 1484,-691.5 1540,-691.5 1540,-672.5 1484,-672.5"/>
<text text-anchor="middle" x="1512" y="-679.5" font-family="Helvetica,sans-Serif" font-size="10.00">Metric.h</text>
</a>
</g>
</g>
<!-- Node20&#45;&gt;Node36 -->
<g id="edge150" class="edge">
<title>Node20&#45;&gt;Node36</title>
<path fill="none" stroke="midnightblue" d="M1711.45,-728.44C1667.25,-718.37 1594.27,-701.75 1549.92,-691.64"/>
<polygon fill="midnightblue" stroke="midnightblue" points="1550.63,-688.21 1540.1,-689.4 1549.07,-695.04 1550.63,-688.21"/>
</g>
<!-- Node23&#45;&gt;Node5 -->
<g id="edge29" class="edge">
<title>Node23&#45;&gt;Node5</title>
<path fill="none" stroke="midnightblue" d="M1310,-616.44C1310,-597.94 1310,-552.81 1310,-515 1310,-515 1310,-515 1310,-401 1310,-370.2 1315.02,-360.25 1334,-336 1351.55,-313.57 1366.93,-320.2 1387,-300 1457.9,-228.65 1431.45,-170.88 1513,-112 1622.62,-32.84 2056.89,-15.32 2186.98,-11.81"/>
<polygon fill="midnightblue" stroke="midnightblue" points="2187.31,-15.3 2197.22,-11.55 2187.13,-8.3 2187.31,-15.3"/>
</g>
<!-- Node23&#45;&gt;Node9 -->
<g id="edge31" class="edge">
<title>Node23&#45;&gt;Node9</title>
<path fill="none" stroke="midnightblue" d="M1324.21,-616.46C1402.83,-569.33 1792.96,-336.99 2123,-168 2145.62,-156.42 2171.78,-144.36 2191.23,-135.64"/>
<polygon fill="midnightblue" stroke="midnightblue" points="2192.75,-138.79 2200.46,-131.53 2189.9,-132.4 2192.75,-138.79"/>
</g>
<!-- Node23&#45;&gt;Node12 -->
<g id="edge33" class="edge">
<title>Node23&#45;&gt;Node12</title>
<path fill="none" stroke="midnightblue" d="M1278.75,-625C1161.63,-623.09 746.76,-598.86 576,-356 523.87,-281.86 444.82,-242.11 497,-168 550.74,-91.67 667.77,-72.73 732.91,-68.22"/>
<polygon fill="midnightblue" stroke="midnightblue" points="733.51,-71.69 743.28,-67.59 733.09,-64.7 733.51,-71.69"/>
</g>
<!-- Node23&#45;&gt;Node18 -->
<g id="edge30" class="edge">
<title>Node23&#45;&gt;Node18</title>
<path fill="none" stroke="midnightblue" d="M1278.83,-625.05C1206.57,-624.46 1022.57,-618.9 875,-580 703.41,-534.77 310.69,-280.79 214,-132 193.32,-100.17 187.84,-54.9 186.44,-29.72"/>
<polygon fill="midnightblue" stroke="midnightblue" points="189.93,-29.55 186.04,-19.69 182.94,-29.82 189.93,-29.55"/>
</g>
<!-- Node23&#45;&gt;Node21 -->
<g id="edge28" class="edge">
<title>Node23&#45;&gt;Node21</title>
<path fill="none" stroke="midnightblue" d="M1278.69,-623.92C1223.43,-621.21 1105.61,-611.87 1012,-580 954.75,-560.51 827.38,-476.43 774,-448 694.7,-405.76 653.08,-423.69 594,-356 553.03,-309.06 538.67,-233.39 534.03,-198.17"/>
<polygon fill="midnightblue" stroke="midnightblue" points="537.46,-197.4 532.8,-187.88 530.51,-198.23 537.46,-197.4"/>
</g>
<!-- Node24 -->
<g id="node24" class="node">
<title>Node24</title>
<g id="a_node24"><a xlink:title=" ">
<polygon fill="none" stroke="#bfbfbf" points="1132.5,-560.5 1132.5,-579.5 1185.5,-579.5 1185.5,-560.5 1132.5,-560.5"/>
<text text-anchor="middle" x="1159" y="-567.5" font-family="Helvetica,sans-Serif" font-size="10.00">ctype.h</text>
</a>
</g>
</g>
<!-- Node23&#45;&gt;Node24 -->
<g id="edge32" class="edge">
<title>Node23&#45;&gt;Node24</title>
<path fill="none" stroke="midnightblue" d="M1286.07,-616.44C1260.78,-607.4 1220.7,-593.06 1192.32,-582.92"/>
<polygon fill="midnightblue" stroke="midnightblue" points="1193.41,-579.59 1182.81,-579.52 1191.05,-586.18 1193.41,-579.59"/>
</g>
<!-- Node25 -->
<g id="node25" class="node">
<title>Node25</title>
<g id="a_node25"><a xlink:href="AnalyticalSolution_8h.html" target="_top" xlink:title=" ">
<polygon fill="none" stroke="black" points="2347,-560.5 2347,-579.5 2461,-579.5 2461,-560.5 2347,-560.5"/>
<text text-anchor="middle" x="2404" y="-567.5" font-family="Helvetica,sans-Serif" font-size="10.00">AnalyticalSolution.h</text>
</a>
</g>
</g>
<!-- Node23&#45;&gt;Node25 -->
<g id="edge34" class="edge">
<title>Node23&#45;&gt;Node25</title>
<path fill="none" stroke="midnightblue" d="M1341.1,-623.34C1489.52,-615.75 2126.28,-584.31 2336.45,-574.17"/>
<polygon fill="midnightblue" stroke="midnightblue" points="2336.91,-577.65 2346.73,-573.67 2336.57,-570.66 2336.91,-577.65"/>
</g>
<!-- Node23&#45;&gt;Node30 -->
<g id="edge148" class="edge">
<title>Node23&#45;&gt;Node30</title>
<path fill="none" stroke="midnightblue" d="M1341.06,-617.16C1375.36,-609.24 1431.56,-595.93 1479,-580 1621.74,-532.08 1646.54,-490.45 1791,-448 1865.32,-426.16 1954.9,-413.54 2009.75,-407.49"/>
<polygon fill="midnightblue" stroke="midnightblue" points="2010.34,-410.94 2019.91,-406.4 2009.59,-403.98 2010.34,-410.94"/>
</g>
<!-- Node25&#45;&gt;Node3 -->
<g id="edge35" class="edge">
<title>Node25&#45;&gt;Node3</title>
<path fill="none" stroke="midnightblue" d="M2461.1,-567.03C2600.83,-561.87 2952.13,-546.78 3000,-524 3054.15,-498.23 3098.67,-431.18 3225,-244 3241.16,-220.05 3248.71,-215.35 3258,-188 3263.09,-173.01 3265.01,-155.1 3265.7,-141.88"/>
<polygon fill="midnightblue" stroke="midnightblue" points="3269.21,-141.77 3266.04,-131.66 3262.21,-141.54 3269.21,-141.77"/>
</g>
<!-- Node25&#45;&gt;Node4 -->
<g id="edge36" class="edge">
<title>Node25&#45;&gt;Node4</title>
<path fill="none" stroke="midnightblue" d="M2461.12,-567.86C2605.69,-564.58 2983.27,-553.38 3105,-524 3188.61,-503.82 3798,-265.01 3798,-179 3798,-179 3798,-179 3798,-121 3798,-71.66 3753.29,-75.58 3708,-56 3652.57,-32.03 3584.23,-20.76 3535.94,-15.5"/>
<polygon fill="midnightblue" stroke="midnightblue" points="3536.26,-12.01 3525.95,-14.47 3535.54,-18.98 3536.26,-12.01"/>
</g>
<!-- Node25&#45;&gt;Node5 -->
<g id="edge37" class="edge">
<title>Node25&#45;&gt;Node5</title>
<path fill="none" stroke="midnightblue" d="M2461.29,-564.87C2580.02,-555.19 2847.41,-527.24 2914,-468 2976.87,-412.07 3097.11,-176.44 3043,-112 2991.89,-51.13 2413.92,-19.89 2260.95,-12.66"/>
<polygon fill="midnightblue" stroke="midnightblue" points="2260.84,-9.15 2250.69,-12.18 2260.51,-16.14 2260.84,-9.15"/>
</g>
<!-- Node25&#45;&gt;Node6 -->
<g id="edge38" class="edge">
<title>Node25&#45;&gt;Node6</title>
<path fill="none" stroke="midnightblue" d="M2461.09,-568.38C2600.07,-566.36 2952.76,-557.93 3065,-524 3324.32,-445.61 3568.99,-203.62 3630.97,-139"/>
<polygon fill="midnightblue" stroke="midnightblue" points="3633.55,-141.37 3637.9,-131.71 3628.48,-136.54 3633.55,-141.37"/>
</g>
<!-- Node25&#45;&gt;Node7 -->
<g id="edge39" class="edge">
<title>Node25&#45;&gt;Node7</title>
<path fill="none" stroke="midnightblue" d="M2371.36,-560.47C2220.36,-520.99 1596.76,-357.85 1595,-356 1537.64,-295.44 1540.91,-185.43 1544.85,-141.67"/>
<polygon fill="midnightblue" stroke="midnightblue" points="1548.34,-141.92 1545.87,-131.61 1541.38,-141.21 1548.34,-141.92"/>
</g>
<!-- Node25&#45;&gt;Node8 -->
<g id="edge40" class="edge">
<title>Node25&#45;&gt;Node8</title>
<path fill="none" stroke="midnightblue" d="M2461.04,-569.19C2595.07,-568.95 2926.44,-564.17 3029,-524 3202.79,-455.93 3212.81,-378.72 3342,-244 3365.09,-219.92 3374.43,-216.36 3392,-188 3401.09,-173.33 3408.1,-154.93 3412.53,-141.45"/>
<polygon fill="midnightblue" stroke="midnightblue" points="3415.89,-142.46 3415.53,-131.87 3409.21,-140.37 3415.89,-142.46"/>
</g>
<!-- Node25&#45;&gt;Node10 -->
<g id="edge41" class="edge">
<title>Node25&#45;&gt;Node10</title>
<path fill="none" stroke="midnightblue" d="M2461.13,-568.18C2598.13,-565.71 2936.96,-556.36 2976,-524 3081.89,-436.22 3096.41,-354.18 3052,-224 3040.11,-189.14 3010.76,-156.96 2991.65,-138.68"/>
<polygon fill="midnightblue" stroke="midnightblue" points="2993.88,-135.97 2984.17,-131.73 2989.12,-141.1 2993.88,-135.97"/>
</g>
<!-- Node25&#45;&gt;Node12 -->
<g id="edge42" class="edge">
<title>Node25&#45;&gt;Node12</title>
<path fill="none" stroke="midnightblue" d="M2346.7,-566.95C2168.4,-559.47 1608.56,-527.7 1162,-412 1006.76,-371.78 941.21,-403.84 819,-300 755.41,-245.97 767.59,-130.81 775.3,-85.69"/>
<polygon fill="midnightblue" stroke="midnightblue" points="778.8,-86.05 777.16,-75.58 771.91,-84.78 778.8,-86.05"/>
</g>
<!-- Node25&#45;&gt;Node20 -->
<g id="edge43" class="edge">
<title>Node25&#45;&gt;Node20</title>
<path fill="none" stroke="midnightblue" d="M2346.84,-573.68C2289.07,-577.87 2197.99,-588.6 2124,-616 2063.38,-638.44 2060.41,-669.01 2000,-692 1936.58,-716.14 1859.12,-727.5 1807.17,-732.74"/>
<polygon fill="midnightblue" stroke="midnightblue" points="1806.75,-729.26 1797.13,-733.7 1807.42,-736.23 1806.75,-729.26"/>
</g>
<!-- Node25&#45;&gt;Node23 -->
<g id="edge144" class="edge">
<title>Node25&#45;&gt;Node23</title>
<path fill="none" stroke="midnightblue" d="M2346.67,-573.99C2151.94,-583.84 1519.22,-615.06 1351.22,-623.1"/>
<polygon fill="midnightblue" stroke="midnightblue" points="1350.88,-619.61 1341.06,-623.58 1351.21,-626.6 1350.88,-619.61"/>
</g>
<!-- Node25&#45;&gt;Node26 -->
<g id="edge44" class="edge">
<title>Node25&#45;&gt;Node26</title>
<path fill="none" stroke="midnightblue" d="M2362.09,-560.44C2279.84,-543.54 2091.56,-504.37 1934,-468 1897.87,-459.66 1889.21,-455.99 1853,-448 1771.2,-429.95 1750.14,-428.42 1668,-412 1546.54,-387.73 1515.87,-383.04 1395,-356 1291.91,-332.94 1242.9,-370.25 1164,-300 1150.68,-288.14 1144.74,-268.23 1142.1,-253.56"/>
<polygon fill="midnightblue" stroke="midnightblue" points="1145.55,-252.98 1140.65,-243.58 1138.62,-253.98 1145.55,-252.98"/>
</g>
<!-- Node25&#45;&gt;Node27 -->
<g id="edge146" class="edge">
<title>Node25&#45;&gt;Node27</title>
<path fill="none" stroke="midnightblue" d="M2424.23,-560.47C2471.51,-541.22 2584,-489.25 2584,-403 2584,-403 2584,-403 2584,-345 2584,-282.65 2563.73,-260.25 2513,-224 2484.93,-203.94 2390.76,-190.17 2337.74,-183.54"/>
<polygon fill="midnightblue" stroke="midnightblue" points="2338.07,-180.05 2327.72,-182.31 2337.22,-187 2338.07,-180.05"/>
</g>
<!-- Node25&#45;&gt;Node28 -->
<g id="edge143" class="edge">
<title>Node25&#45;&gt;Node28</title>
<path fill="none" stroke="midnightblue" d="M2346.72,-562.69C2273.76,-554.5 2143.85,-539.44 2033,-524 1579.25,-460.81 1460.19,-468.15 1016,-356 937.64,-336.22 899.62,-357.67 843,-300 801.02,-257.24 818.89,-177.04 829.82,-141.16"/>
<polygon fill="midnightblue" stroke="midnightblue" points="833.18,-142.13 832.92,-131.54 826.52,-139.98 833.18,-142.13"/>
</g>
<!-- Node25&#45;&gt;Node29 -->
<g id="edge145" class="edge">
<title>Node25&#45;&gt;Node29</title>
<path fill="none" stroke="midnightblue" d="M2348.63,-560.47C2249.62,-544.84 2035.93,-509.39 1858,-468 1856.52,-467.66 1855.02,-467.29 1853.49,-466.91"/>
<polygon fill="midnightblue" stroke="midnightblue" points="1854.1,-463.44 1843.53,-464.24 1852.29,-470.21 1854.1,-463.44"/>
</g>
<!-- Node25&#45;&gt;Node31 -->
<g id="edge147" class="edge">
<title>Node25&#45;&gt;Node31</title>
<path fill="none" stroke="midnightblue" d="M2444.72,-560.44C2489.65,-551 2562,-535.8 2610.5,-525.61"/>
<polygon fill="midnightblue" stroke="midnightblue" points="2611.4,-529 2620.47,-523.52 2609.96,-522.15 2611.4,-529"/>
</g>
<!-- Node26&#45;&gt;Node7 -->
<g id="edge47" class="edge">
<title>Node26&#45;&gt;Node7</title>
<path fill="none" stroke="midnightblue" d="M1139.74,-224.24C1139.83,-210.03 1142.29,-182.1 1159,-168 1211.73,-123.5 1425.83,-121.31 1511.41,-122.29"/>
<polygon fill="midnightblue" stroke="midnightblue" points="1511.38,-125.79 1521.42,-122.42 1511.47,-118.79 1511.38,-125.79"/>
</g>
<!-- Node26&#45;&gt;Node12 -->
<g id="edge48" class="edge">
<title>Node26&#45;&gt;Node12</title>
<path fill="none" stroke="midnightblue" d="M1138.35,-224.2C1133.57,-201.44 1117.48,-140.38 1078,-112 1038.39,-83.52 898.69,-72.68 825.12,-68.87"/>
<polygon fill="midnightblue" stroke="midnightblue" points="824.92,-65.36 814.76,-68.36 824.58,-72.35 824.92,-65.36"/>
</g>
<!-- Node26&#45;&gt;Node21 -->
<g id="edge45" class="edge">
<title>Node26&#45;&gt;Node21</title>
<path fill="none" stroke="midnightblue" d="M1091.78,-228.72C973.8,-218.24 672.6,-191.49 568.25,-182.22"/>
<polygon fill="midnightblue" stroke="midnightblue" points="568.48,-178.73 558.21,-181.33 567.86,-185.7 568.48,-178.73"/>
</g>
<!-- Node26&#45;&gt;Node22 -->
<g id="edge46" class="edge">
<title>Node26&#45;&gt;Node22</title>
<path fill="none" stroke="midnightblue" d="M1149.48,-224.32C1158.2,-216.34 1171.34,-204.31 1181.9,-194.65"/>
<polygon fill="midnightblue" stroke="midnightblue" points="1184.33,-197.17 1189.35,-187.83 1179.61,-192 1184.33,-197.17"/>
</g>
<!-- Node26&#45;&gt;Node23 -->
<g id="edge49" class="edge">
<title>Node26&#45;&gt;Node23</title>
<path fill="none" stroke="midnightblue" d="M1139.78,-243.6C1139.69,-256.22 1140.37,-280.39 1146,-300 1182.24,-426.16 1267.62,-561.53 1298.56,-608.13"/>
<polygon fill="midnightblue" stroke="midnightblue" points="1295.67,-610.1 1304.14,-616.46 1301.48,-606.2 1295.67,-610.1"/>
</g>
<!-- Node26&#45;&gt;Node27 -->
<g id="edge50" class="edge">
<title>Node26&#45;&gt;Node27</title>
<path fill="none" stroke="midnightblue" d="M1188.03,-230.63C1380.46,-221.44 2093.02,-188.3 2264,-180.6"/>
<polygon fill="midnightblue" stroke="midnightblue" points="2264.18,-184.1 2274.01,-180.16 2263.87,-177.11 2264.18,-184.1"/>
</g>
<!-- Node27&#45;&gt;Node3 -->
<g id="edge51" class="edge">
<title>Node27&#45;&gt;Node3</title>
<path fill="none" stroke="midnightblue" d="M2327.65,-173.54C2342.95,-171.66 2362.53,-169.44 2380,-168 2547.51,-154.22 3073.42,-131.23 3224.84,-124.75"/>
<polygon fill="midnightblue" stroke="midnightblue" points="3225.24,-128.23 3235.08,-124.31 3224.94,-121.24 3225.24,-128.23"/>
</g>
<!-- Node27&#45;&gt;Node4 -->
<g id="edge52" class="edge">
<title>Node27&#45;&gt;Node4</title>
<path fill="none" stroke="midnightblue" d="M2327.86,-170.86C2332.56,-169.85 2337.42,-168.86 2342,-168 2660.31,-108.36 2740.94,-98.44 3062,-56 3186.97,-39.48 3333.8,-24.54 3414.4,-16.73"/>
<polygon fill="midnightblue" stroke="midnightblue" points="3414.75,-20.21 3424.37,-15.76 3414.08,-13.24 3414.75,-20.21"/>
</g>
<!-- Node27&#45;&gt;Node5 -->
<g id="edge53" class="edge">
<title>Node27&#45;&gt;Node5</title>
<path fill="none" stroke="midnightblue" d="M2299.91,-168.32C2298.11,-155.59 2293.9,-131.29 2286,-112 2273.01,-80.28 2250.67,-47.06 2236.65,-27.74"/>
<polygon fill="midnightblue" stroke="midnightblue" points="2239.44,-25.63 2230.68,-19.66 2233.81,-29.79 2239.44,-25.63"/>
</g>
<!-- Node27&#45;&gt;Node6 -->
<g id="edge54" class="edge">
<title>Node27&#45;&gt;Node6</title>
<path fill="none" stroke="midnightblue" d="M2327.63,-176.08C2454.38,-171.65 3009.3,-152.04 3464,-132 3515.49,-129.73 3575.15,-126.7 3611.74,-124.8"/>
<polygon fill="midnightblue" stroke="midnightblue" points="3612.06,-128.29 3621.86,-124.28 3611.69,-121.3 3612.06,-128.29"/>
</g>
<!-- Node27&#45;&gt;Node7 -->
<g id="edge55" class="edge">
<title>Node27&#45;&gt;Node7</title>
<path fill="none" stroke="midnightblue" d="M2274.16,-175.08C2159.85,-166.89 1713.41,-134.92 1582.97,-125.58"/>
<polygon fill="midnightblue" stroke="midnightblue" points="1582.96,-122.07 1572.74,-124.84 1582.46,-129.05 1582.96,-122.07"/>
</g>
<!-- Node27&#45;&gt;Node8 -->
<g id="edge56" class="edge">
<title>Node27&#45;&gt;Node8</title>
<path fill="none" stroke="midnightblue" d="M2327.81,-176.15C2444.25,-172.38 2917.72,-156.29 3306,-132 3327.3,-130.67 3350.86,-128.83 3370.85,-127.16"/>
<polygon fill="midnightblue" stroke="midnightblue" points="3371.28,-130.64 3380.95,-126.31 3370.69,-123.66 3371.28,-130.64"/>
</g>
<!-- Node27&#45;&gt;Node9 -->
<g id="edge57" class="edge">
<title>Node27&#45;&gt;Node9</title>
<path fill="none" stroke="midnightblue" d="M2287.99,-168.32C2275.47,-159.98 2256.32,-147.21 2241.53,-137.35"/>
<polygon fill="midnightblue" stroke="midnightblue" points="2243.24,-134.29 2232.98,-131.65 2239.36,-140.11 2243.24,-134.29"/>
</g>
<!-- Node27&#45;&gt;Node10 -->
<g id="edge58" class="edge">
<title>Node27&#45;&gt;Node10</title>
<path fill="none" stroke="midnightblue" d="M2327.8,-170.53C2332.51,-169.56 2337.38,-168.67 2342,-168 2448.81,-152.56 2763.17,-134.35 2904.17,-126.69"/>
<polygon fill="midnightblue" stroke="midnightblue" points="2904.63,-130.17 2914.42,-126.13 2904.25,-123.18 2904.63,-130.17"/>
</g>
<!-- Node27&#45;&gt;Node11 -->
<g id="edge59" class="edge">
<title>Node27&#45;&gt;Node11</title>
<path fill="none" stroke="midnightblue" d="M2274.26,-171.97C2227.66,-163.2 2130.69,-144.96 2069.17,-133.38"/>
<polygon fill="midnightblue" stroke="midnightblue" points="2069.71,-129.92 2059.24,-131.51 2068.42,-136.8 2069.71,-129.92"/>
</g>
<!-- Node27&#45;&gt;Node12 -->
<g id="edge60" class="edge">
<title>Node27&#45;&gt;Node12</title>
<path fill="none" stroke="midnightblue" d="M2298.85,-168.33C2294.72,-153.72 2284.13,-124.55 2263,-112 2199.74,-74.42 1068.54,-68.08 824.97,-67.15"/>
<polygon fill="midnightblue" stroke="midnightblue" points="824.71,-63.65 814.7,-67.11 824.68,-70.65 824.71,-63.65"/>
</g>
<!-- Node27&#45;&gt;Node20 -->
<g id="edge61" class="edge">
<title>Node27&#45;&gt;Node20</title>
<path fill="none" stroke="midnightblue" d="M2327.54,-180.37C2461.1,-188.32 3048.2,-236.74 2914,-468 2799.84,-664.72 2027.41,-721.77 1807.38,-734.11"/>
<polygon fill="midnightblue" stroke="midnightblue" points="1807.12,-730.62 1797.33,-734.67 1807.5,-737.61 1807.12,-730.62"/>
</g>
<!-- Node27&#45;&gt;Node23 -->
<g id="edge137" class="edge">
<title>Node27&#45;&gt;Node23</title>
<path fill="none" stroke="midnightblue" d="M2304.38,-187.75C2314.44,-215.39 2341.27,-302.18 2304,-356 2138.87,-594.47 1973.45,-513.99 1691,-580 1569.47,-608.4 1421.72,-619.34 1351.25,-623.16"/>
<polygon fill="midnightblue" stroke="midnightblue" points="1350.83,-619.67 1341.02,-623.69 1351.19,-626.66 1350.83,-619.67"/>
</g>
<!-- Node27&#45;&gt;Node25 -->
<g id="edge140" class="edge">
<title>Node27&#45;&gt;Node25</title>
<path fill="none" stroke="midnightblue" d="M2327.83,-181.21C2381.59,-186.5 2499.06,-201.18 2531,-224 2581.73,-260.25 2602,-282.65 2602,-345 2602,-403 2602,-403 2602,-403 2602,-484.53 2501.48,-535.43 2443.56,-557.02"/>
<polygon fill="midnightblue" stroke="midnightblue" points="2442.19,-553.79 2433.97,-560.47 2444.56,-560.38 2442.19,-553.79"/>
</g>
<!-- Node27&#45;&gt;Node26 -->
<g id="edge62" class="edge">
<title>Node27&#45;&gt;Node26</title>
<path fill="none" stroke="midnightblue" d="M2274.09,-180.36C2125.93,-187.51 1409.68,-220.84 1198.6,-230.42"/>
<polygon fill="midnightblue" stroke="midnightblue" points="1198.18,-226.93 1188.35,-230.88 1198.49,-233.93 1198.18,-226.93"/>
</g>
<!-- Node27&#45;&gt;Node28 -->
<g id="edge63" class="edge">
<title>Node27&#45;&gt;Node28</title>
<path fill="none" stroke="midnightblue" d="M2274.26,-176.09C2094.5,-169.69 1064.49,-131.73 868.25,-124.27"/>
<polygon fill="midnightblue" stroke="midnightblue" points="868.15,-120.77 858.03,-123.88 867.89,-127.76 868.15,-120.77"/>
</g>
<!-- Node27&#45;&gt;Node29 -->
<g id="edge138" class="edge">
<title>Node27&#45;&gt;Node29</title>
<path fill="none" stroke="midnightblue" d="M2277.19,-187.62C2220.8,-208.59 2075.66,-265.69 1967,-336 1917.15,-368.26 1866.09,-416.69 1841.33,-441.35"/>
<polygon fill="midnightblue" stroke="midnightblue" points="1838.82,-438.92 1834.25,-448.48 1843.78,-443.85 1838.82,-438.92"/>
</g>
<!-- Node27&#45;&gt;Node30 -->
<g id="edge142" class="edge">
<title>Node27&#45;&gt;Node30</title>
<path fill="none" stroke="midnightblue" d="M2299.85,-187.88C2295.48,-217.46 2277.13,-313.24 2218,-356 2186.37,-378.87 2143.41,-390.15 2110.27,-395.69"/>
<polygon fill="midnightblue" stroke="midnightblue" points="2109.67,-392.24 2100.32,-397.23 2110.74,-399.16 2109.67,-392.24"/>
</g>
<!-- Node27&#45;&gt;Node31 -->
<g id="edge139" class="edge">
<title>Node27&#45;&gt;Node31</title>
<path fill="none" stroke="midnightblue" d="M2327.88,-178.41C2380.76,-177.98 2499.75,-181.73 2587,-224 2625.5,-242.65 2658,-246.22 2658,-289 2658,-403 2658,-403 2658,-403 2658,-435.24 2663.16,-472.49 2664.17,-494.32"/>
<polygon fill="midnightblue" stroke="midnightblue" points="2660.68,-494.51 2664.27,-504.48 2667.68,-494.45 2660.68,-494.51"/>
</g>
<!-- Node27&#45;&gt;Node33 -->
<g id="edge141" class="edge">
<title>Node27&#45;&gt;Node33</title>
<path fill="none" stroke="midnightblue" d="M2274.42,-182.77C2199.77,-193.28 1981.72,-223.52 1800,-244 1651.91,-260.69 1477.12,-276.37 1388.24,-284.06"/>
<polygon fill="midnightblue" stroke="midnightblue" points="1387.76,-280.59 1378.09,-284.93 1388.36,-287.56 1387.76,-280.59"/>
</g>
<!-- Node28&#45;&gt;Node12 -->
<g id="edge64" class="edge">
<title>Node28&#45;&gt;Node12</title>
<path fill="none" stroke="midnightblue" d="M826.84,-112.32C818.5,-104.42 805.97,-92.55 795.82,-82.94"/>
<polygon fill="midnightblue" stroke="midnightblue" points="797.99,-80.17 788.32,-75.83 793.18,-85.25 797.99,-80.17"/>
</g>
<!-- Node28&#45;&gt;Node23 -->
<g id="edge65" class="edge">
<title>Node28&#45;&gt;Node23</title>
<path fill="none" stroke="midnightblue" d="M816.22,-131.58C786.3,-145.8 730.6,-177.39 708,-224 680.84,-280.04 714.67,-308.55 755,-356 876.56,-499.01 939.53,-508.32 1113,-580 1164.6,-601.32 1228.18,-613.52 1268.9,-619.71"/>
<polygon fill="midnightblue" stroke="midnightblue" points="1268.59,-623.2 1278.99,-621.19 1269.61,-616.27 1268.59,-623.2"/>
</g>
<!-- Node28&#45;&gt;Node27 -->
<g id="edge136" class="edge">
<title>Node28&#45;&gt;Node27</title>
<path fill="none" stroke="midnightblue" d="M858.2,-123.75C1023.15,-129.6 2055.7,-167.65 2264.32,-175.56"/>
<polygon fill="midnightblue" stroke="midnightblue" points="2264.32,-179.06 2274.45,-175.95 2264.59,-172.07 2264.32,-179.06"/>
</g>
<!-- Node28&#45;&gt;Node29 -->
<g id="edge66" class="edge">
<title>Node28&#45;&gt;Node29</title>
<path fill="none" stroke="midnightblue" d="M834.1,-131.78C828.51,-160.26 815.15,-251.09 860,-300 909.26,-353.72 948.95,-319.74 1020,-336 1058.25,-344.75 1067.42,-348.82 1106,-356 1373.96,-405.85 1702.12,-443.46 1798.3,-454.01"/>
<polygon fill="midnightblue" stroke="midnightblue" points="1798.04,-457.51 1808.36,-455.11 1798.8,-450.55 1798.04,-457.51"/>
</g>
<!-- Node29&#45;&gt;Node12 -->
<g id="edge67" class="edge">
<title>Node29&#45;&gt;Node12</title>
<path fill="none" stroke="midnightblue" d="M1808.36,-455.66C1730.66,-449.7 1418.45,-425.38 1321,-412 1186.19,-393.5 1152,-389.03 1020,-356 939.96,-335.97 906.31,-352.91 843,-300 799.83,-263.92 798.63,-242.33 784,-188 774.56,-152.93 775.58,-110.1 777.25,-85.95"/>
<polygon fill="midnightblue" stroke="midnightblue" points="780.76,-85.95 778.07,-75.7 773.78,-85.39 780.76,-85.95"/>
</g>
<!-- Node29&#45;&gt;Node23 -->
<g id="edge68" class="edge">
<title>Node29&#45;&gt;Node23</title>
<path fill="none" stroke="midnightblue" d="M1817.5,-467.6C1794.33,-490.42 1727.2,-552.65 1658,-580 1602.97,-601.75 1431.04,-616.41 1351.34,-622.21"/>
<polygon fill="midnightblue" stroke="midnightblue" points="1350.9,-618.73 1341.18,-622.93 1351.4,-625.71 1350.9,-618.73"/>
</g>
<!-- Node29&#45;&gt;Node30 -->
<g id="edge69" class="edge">
<title>Node29&#45;&gt;Node30</title>
<path fill="none" stroke="midnightblue" d="M1843.87,-451.92C1878.98,-443.13 1957.43,-424.93 2009.59,-413.38"/>
<polygon fill="midnightblue" stroke="midnightblue" points="2010.63,-416.73 2019.65,-411.16 2009.13,-409.89 2010.63,-416.73"/>
</g>
<!-- Node30&#45;&gt;Node3 -->
<g id="edge70" class="edge">
<title>Node30&#45;&gt;Node3</title>
<path fill="none" stroke="midnightblue" d="M2100.34,-394.49C2148.87,-386.44 2232.73,-371.85 2304,-356 2626.84,-284.18 2701.22,-240.06 3024,-168 3094.33,-152.3 3177.01,-137.76 3225.25,-129.66"/>
<polygon fill="midnightblue" stroke="midnightblue" points="3226.01,-133.08 3235.3,-127.98 3224.86,-126.18 3226.01,-133.08"/>
</g>
<!-- Node30&#45;&gt;Node4 -->
<g id="edge71" class="edge">
<title>Node30&#45;&gt;Node4</title>
<path fill="none" stroke="midnightblue" d="M2100.22,-397.47C2301.51,-379.26 3190,-292.46 3190,-179 3190,-179 3190,-179 3190,-121 3190,-73.03 3332.31,-37.93 3415.8,-21.46"/>
<polygon fill="midnightblue" stroke="midnightblue" points="3416.53,-24.89 3425.68,-19.55 3415.2,-18.01 3416.53,-24.89"/>
</g>
<!-- Node30&#45;&gt;Node5 -->
<g id="edge72" class="edge">
<title>Node30&#45;&gt;Node5</title>
<path fill="none" stroke="midnightblue" d="M2065.37,-392.24C2070.73,-383.31 2078.99,-368.97 2085,-356 2133.72,-250.84 2132.08,-218.84 2177,-112 2189.45,-82.4 2205.52,-48.7 2215.28,-28.68"/>
<polygon fill="midnightblue" stroke="midnightblue" points="2218.5,-30.07 2219.76,-19.55 2212.21,-26.99 2218.5,-30.07"/>
</g>
<!-- Node30&#45;&gt;Node6 -->
<g id="edge73" class="edge">
<title>Node30&#45;&gt;Node6</title>
<path fill="none" stroke="midnightblue" d="M2100.24,-396.98C2169.98,-389.85 2317.76,-374.04 2442,-356 2909.12,-288.17 3470.16,-163.08 3612.11,-130.77"/>
<polygon fill="midnightblue" stroke="midnightblue" points="3613,-134.16 3621.97,-128.53 3611.44,-127.34 3613,-134.16"/>
</g>
<!-- Node30&#45;&gt;Node7 -->
<g id="edge74" class="edge">
<title>Node30&#45;&gt;Node7</title>
<path fill="none" stroke="midnightblue" d="M2030.14,-392.46C1953.67,-369.5 1747.22,-300.44 1610,-188 1591.68,-172.99 1573.09,-153.12 1560.91,-139.32"/>
<polygon fill="midnightblue" stroke="midnightblue" points="1563.41,-136.86 1554.2,-131.61 1558.12,-141.45 1563.41,-136.86"/>
</g>
<!-- Node30&#45;&gt;Node8 -->
<g id="edge75" class="edge">
<title>Node30&#45;&gt;Node8</title>
<path fill="none" stroke="midnightblue" d="M2100.16,-395.07C2157.57,-386.57 2266.4,-370.35 2359,-356 2515.11,-331.8 2555.23,-331.63 2710,-300 2776.75,-286.36 3231.12,-170.69 3374.65,-134.07"/>
<polygon fill="midnightblue" stroke="midnightblue" points="3375.61,-137.44 3384.43,-131.57 3373.88,-130.66 3375.61,-137.44"/>
</g>
<!-- Node30&#45;&gt;Node9 -->
<g id="edge76" class="edge">
<title>Node30&#45;&gt;Node9</title>
<path fill="none" stroke="midnightblue" d="M2064.96,-392.38C2087.36,-353.46 2179.25,-193.81 2209.95,-140.45"/>
<polygon fill="midnightblue" stroke="midnightblue" points="2213.14,-141.94 2215.09,-131.52 2207.07,-138.45 2213.14,-141.94"/>
</g>
<!-- Node30&#45;&gt;Node10 -->
<g id="edge77" class="edge">
<title>Node30&#45;&gt;Node10</title>
<path fill="none" stroke="midnightblue" d="M2100.23,-394.72C2181.16,-380.94 2356,-344.93 2356,-291 2356,-291 2356,-291 2356,-233 2356,-177.85 2742.42,-141.14 2904.14,-128.19"/>
<polygon fill="midnightblue" stroke="midnightblue" points="2904.77,-131.65 2914.46,-127.37 2904.22,-124.67 2904.77,-131.65"/>
</g>
<!-- Node30&#45;&gt;Node11 -->
<g id="edge78" class="edge">
<title>Node30&#45;&gt;Node11</title>
<path fill="none" stroke="midnightblue" d="M2063.18,-392.2C2067.3,-379.73 2073.66,-356.2 2071,-336 2061.32,-262.39 2033.59,-178.07 2020.72,-141.51"/>
<polygon fill="midnightblue" stroke="midnightblue" points="2023.9,-140 2017.24,-131.76 2017.31,-142.35 2023.9,-140"/>
</g>
<!-- Node30&#45;&gt;Node12 -->
<g id="edge79" class="edge">
<title>Node30&#45;&gt;Node12</title>
<path fill="none" stroke="midnightblue" d="M2019.89,-400.65C1957.12,-398.96 1832.67,-391.02 1734,-356 1717.84,-350.26 1717.35,-341.19 1701,-336 1483.58,-266.95 1408.55,-361.91 1189,-300 1128.73,-283 1064,-297.62 1064,-235 1064,-235 1064,-235 1064,-177 1064,-131.87 1026.55,-131.81 986,-112 934.15,-86.67 868.09,-75.48 824.72,-70.62"/>
<polygon fill="midnightblue" stroke="midnightblue" points="825.06,-67.14 814.74,-69.57 824.32,-74.1 825.06,-67.14"/>
</g>
<!-- Node30&#45;&gt;Node20 -->
<g id="edge80" class="edge">
<title>Node30&#45;&gt;Node20</title>
<path fill="none" stroke="midnightblue" d="M2060.26,-411.56C2060.8,-430.06 2062,-475.18 2062,-513 2062,-571 2062,-571 2062,-571 2062,-665.93 1971.07,-649.87 1886,-692 1856.53,-706.6 1821.23,-718.06 1793.84,-725.77"/>
<polygon fill="midnightblue" stroke="midnightblue" points="1792.85,-722.41 1784.14,-728.43 1794.71,-729.16 1792.85,-722.41"/>
</g>
<!-- Node30&#45;&gt;Node23 -->
<g id="edge83" class="edge">
<title>Node30&#45;&gt;Node23</title>
<path fill="none" stroke="midnightblue" d="M2019.79,-407.83C1969.62,-414 1881.96,-426.56 1809,-448 1664.54,-490.45 1639.74,-532.08 1497,-580 1447.9,-596.48 1389.42,-610.17 1350.95,-617.97"/>
<polygon fill="midnightblue" stroke="midnightblue" points="1350.26,-614.54 1341.14,-619.92 1351.63,-621.41 1350.26,-614.54"/>
</g>
<!-- Node30&#45;&gt;Node25 -->
<g id="edge102" class="edge">
<title>Node30&#45;&gt;Node25</title>
<path fill="none" stroke="midnightblue" d="M2100.02,-404.68C2166.74,-409.59 2301.14,-428.84 2380,-504 2392.77,-516.17 2398.78,-535.72 2401.59,-550.21"/>
<polygon fill="midnightblue" stroke="midnightblue" points="2398.14,-550.77 2403.17,-560.09 2405.05,-549.66 2398.14,-550.77"/>
</g>
<!-- Node30&#45;&gt;Node26 -->
<g id="edge81" class="edge">
<title>Node30&#45;&gt;Node26</title>
<path fill="none" stroke="midnightblue" d="M2019.97,-394.8C1970.44,-386.89 1883.63,-372.29 1810,-356 1775.9,-348.46 1768.46,-341.71 1734,-336 1512.45,-299.27 1441.08,-376.67 1230,-300 1200.73,-289.37 1172.56,-266.27 1155.76,-250.67"/>
<polygon fill="midnightblue" stroke="midnightblue" points="1158.12,-248.08 1148.47,-243.7 1153.28,-253.14 1158.12,-248.08"/>
</g>
<!-- Node30&#45;&gt;Node28 -->
<g id="edge82" class="edge">
<title>Node30&#45;&gt;Node28</title>
<path fill="none" stroke="midnightblue" d="M2019.97,-398.88C1838.64,-389.03 1099.01,-346.32 1007,-300 936.45,-264.48 944.42,-223.28 888,-168 877.34,-157.56 864.69,-146.58 854.54,-138.09"/>
<polygon fill="midnightblue" stroke="midnightblue" points="856.63,-135.27 846.7,-131.6 852.17,-140.67 856.63,-135.27"/>
</g>
<!-- Node30&#45;&gt;Node29 -->
<g id="edge84" class="edge">
<title>Node30&#45;&gt;Node29</title>
<path fill="none" stroke="midnightblue" d="M2027.94,-411.57C1981.69,-422.81 1897.38,-442.21 1853.67,-451.6"/>
<polygon fill="midnightblue" stroke="midnightblue" points="1852.79,-448.2 1843.74,-453.7 1854.24,-455.05 1852.79,-448.2"/>
</g>
<!-- Node30&#45;&gt;Node31 -->
<g id="edge85" class="edge">
<title>Node30&#45;&gt;Node31</title>
<path fill="none" stroke="midnightblue" d="M2100.46,-407.64C2160.59,-414.8 2276.99,-429.64 2375,-448 2413.57,-455.23 2422.75,-459.25 2461,-468 2512.81,-479.85 2572.24,-493.19 2612.76,-502.25"/>
<polygon fill="midnightblue" stroke="midnightblue" points="2612.12,-505.69 2622.64,-504.45 2613.64,-498.86 2612.12,-505.69"/>
</g>
<!-- Node30&#45;&gt;Node33 -->
<g id="edge103" class="edge">
<title>Node30&#45;&gt;Node33</title>
<path fill="none" stroke="midnightblue" d="M2019.97,-394.23C1978.82,-386.77 1913.14,-373.48 1858,-356 1835.97,-349.02 1832.43,-341.59 1810,-336 1661.22,-298.94 1479.58,-291.88 1388.29,-290.86"/>
<polygon fill="midnightblue" stroke="midnightblue" points="1388.18,-287.35 1378.15,-290.76 1388.11,-294.35 1388.18,-287.35"/>
</g>
<!-- Node34 -->
<g id="node34" class="node">
<title>Node34</title>
<g id="a_node34"><a xlink:href="BC__Handlers_8h.html" target="_top" xlink:title=" ">
<polygon fill="none" stroke="black" points="1604,-336.5 1604,-355.5 1692,-355.5 1692,-336.5 1604,-336.5"/>
<text text-anchor="middle" x="1648" y="-343.5" font-family="Helvetica,sans-Serif" font-size="10.00">BC_Handlers.h</text>
</a>
</g>
</g>
<!-- Node30&#45;&gt;Node34 -->
<g id="edge112" class="edge">
<title>Node30&#45;&gt;Node34</title>
<path fill="none" stroke="midnightblue" d="M2020,-396.91C1954.66,-389.56 1821.41,-373.41 1702.12,-356.71"/>
<polygon fill="midnightblue" stroke="midnightblue" points="1702.48,-353.22 1692.09,-355.3 1701.51,-360.16 1702.48,-353.22"/>
</g>
<!-- Node35 -->
<g id="node35" class="node">
<title>Node35</title>
<g id="a_node35"><a xlink:href="wallfunction_8h.html" target="_top" xlink:title=" ">
<polygon fill="none" stroke="black" points="1976,-336.5 1976,-355.5 2062,-355.5 2062,-336.5 1976,-336.5"/>
<text text-anchor="middle" x="2019" y="-343.5" font-family="Helvetica,sans-Serif" font-size="10.00">wallfunction.h</text>
</a>
</g>
</g>
<!-- Node30&#45;&gt;Node35 -->
<g id="edge116" class="edge">
<title>Node30&#45;&gt;Node35</title>
<path fill="none" stroke="midnightblue" d="M2048.06,-392.08C2040.82,-384.61 2032.15,-373.72 2025.94,-364.52"/>
<polygon fill="midnightblue" stroke="midnightblue" points="2028.75,-362.42 2020.51,-355.75 2022.8,-366.1 2028.75,-362.42"/>
</g>
<!-- Node31&#45;&gt;Node3 -->
<g id="edge86" class="edge">
<title>Node31&#45;&gt;Node3</title>
<path fill="none" stroke="midnightblue" d="M2705.38,-511.49C2757.41,-508.3 2845.26,-498.44 2914,-468 3062.91,-402.06 3099.92,-369.26 3204,-244 3230.68,-211.9 3250.08,-166.41 3259.53,-141.35"/>
<polygon fill="midnightblue" stroke="midnightblue" points="3262.92,-142.27 3263.07,-131.67 3256.35,-139.87 3262.92,-142.27"/>
</g>
<!-- Node31&#45;&gt;Node4 -->
<g id="edge87" class="edge">
<title>Node31&#45;&gt;Node4</title>
<path fill="none" stroke="midnightblue" d="M2705.2,-511.12C2774.51,-507.38 2912.58,-496.72 3026,-468 3149.86,-436.64 3760,-248.81 3760,-179 3760,-179 3760,-179 3760,-121 3760,-73.03 3617.69,-37.93 3534.2,-21.46"/>
<polygon fill="midnightblue" stroke="midnightblue" points="3534.8,-18.01 3524.32,-19.55 3533.47,-24.89 3534.8,-18.01"/>
</g>
<!-- Node31&#45;&gt;Node5 -->
<g id="edge88" class="edge">
<title>Node31&#45;&gt;Node5</title>
<path fill="none" stroke="midnightblue" d="M2705.32,-506.73C2760.61,-496.11 2848,-468.91 2848,-403 2848,-403 2848,-403 2848,-121 2848,-61.02 2395.11,-23.4 2260.99,-13.58"/>
<polygon fill="midnightblue" stroke="midnightblue" points="2261.04,-10.07 2250.81,-12.84 2260.53,-17.05 2261.04,-10.07"/>
</g>
<!-- Node31&#45;&gt;Node6 -->
<g id="edge89" class="edge">
<title>Node31&#45;&gt;Node6</title>
<path fill="none" stroke="midnightblue" d="M2705.11,-511.47C2768.26,-508.26 2887.46,-498.36 2984,-468 3254.28,-383.01 3545.7,-191.59 3625.06,-137.49"/>
<polygon fill="midnightblue" stroke="midnightblue" points="3627.4,-140.13 3633.67,-131.59 3623.44,-134.35 3627.4,-140.13"/>
</g>
<!-- Node31&#45;&gt;Node7 -->
<g id="edge90" class="edge">
<title>Node31&#45;&gt;Node7</title>
<path fill="none" stroke="midnightblue" d="M2650.28,-504.43C2622.64,-482.71 2546.11,-424.93 2474,-392 2143.73,-241.19 1708.51,-152.97 1582.55,-129.42"/>
<polygon fill="midnightblue" stroke="midnightblue" points="1583.14,-125.97 1572.67,-127.59 1581.86,-132.85 1583.14,-125.97"/>
</g>
<!-- Node31&#45;&gt;Node8 -->
<g id="edge91" class="edge">
<title>Node31&#45;&gt;Node8</title>
<path fill="none" stroke="midnightblue" d="M2705.32,-510.54C2762.62,-506.35 2864.91,-495.43 2948,-468 3053.08,-433.31 3299.23,-260.61 3318,-244 3354.74,-211.5 3389.25,-164.88 3406.51,-140.07"/>
<polygon fill="midnightblue" stroke="midnightblue" points="3409.48,-141.92 3412.24,-131.7 3403.7,-137.97 3409.48,-141.92"/>
</g>
<!-- Node31&#45;&gt;Node9 -->
<g id="edge94" class="edge">
<title>Node31&#45;&gt;Node9</title>
<path fill="none" stroke="midnightblue" d="M2705.24,-506.88C2728.99,-501.09 2756.34,-489.84 2771,-468 2775.95,-460.62 2773.34,-456.58 2771,-448 2739.54,-332.64 2724.31,-285.89 2622,-224 2505.71,-153.65 2342.2,-132.13 2264.45,-125.68"/>
<polygon fill="midnightblue" stroke="midnightblue" points="2264.3,-122.16 2254.06,-124.87 2263.75,-129.14 2264.3,-122.16"/>
</g>
<!-- Node31&#45;&gt;Node10 -->
<g id="edge92" class="edge">
<title>Node31&#45;&gt;Node10</title>
<path fill="none" stroke="midnightblue" d="M2705.02,-513.57C2779.89,-512 2924,-496.79 2924,-403 2924,-403 2924,-403 2924,-345 2924,-267.69 2953.21,-178.86 2966.98,-141.29"/>
<polygon fill="midnightblue" stroke="midnightblue" points="2970.33,-142.32 2970.56,-131.72 2963.78,-139.86 2970.33,-142.32"/>
</g>
<!-- Node31&#45;&gt;Node12 -->
<g id="edge95" class="edge">
<title>Node31&#45;&gt;Node12</title>
<path fill="none" stroke="midnightblue" d="M2616.82,-509.49C2532.92,-502.68 2344.82,-486.67 2187,-468 2124.14,-460.56 2108.7,-456.66 2046,-448 1926.95,-431.56 1897.02,-428.64 1778,-412 1735.13,-406.01 1045.03,-320.66 1007,-300 973.24,-281.66 950,-273.42 950,-235 950,-235 950,-235 950,-177 950,-117.27 875.28,-88.44 824.63,-75.76"/>
<polygon fill="midnightblue" stroke="midnightblue" points="825.39,-72.34 814.85,-73.43 823.77,-79.15 825.39,-72.34"/>
</g>
<!-- Node31&#45;&gt;Node20 -->
<g id="edge96" class="edge">
<title>Node31&#45;&gt;Node20</title>
<path fill="none" stroke="midnightblue" d="M2643.11,-523.58C2614.48,-537.05 2556.35,-563.34 2505,-580 2251.43,-662.25 1935.61,-711.45 1807.27,-729.32"/>
<polygon fill="midnightblue" stroke="midnightblue" points="1806.69,-725.87 1797.26,-730.7 1807.65,-732.8 1806.69,-725.87"/>
</g>
<!-- Node31&#45;&gt;Node23 -->
<g id="edge99" class="edge">
<title>Node31&#45;&gt;Node23</title>
<path fill="none" stroke="midnightblue" d="M2628.22,-523.54C2597.93,-531.77 2551.88,-545.13 2513,-560 2493.31,-567.53 2490.49,-575.05 2470,-580 2359.63,-606.67 1544.68,-621.26 1351.15,-624.37"/>
<polygon fill="midnightblue" stroke="midnightblue" points="1351.05,-620.87 1341.1,-624.53 1351.16,-627.87 1351.05,-620.87"/>
</g>
<!-- Node31&#45;&gt;Node26 -->
<g id="edge97" class="edge">
<title>Node31&#45;&gt;Node26</title>
<path fill="none" stroke="midnightblue" d="M2616.89,-507.06C2375.48,-474.48 1224.03,-318.34 1192,-300 1172.87,-289.04 1158.07,-268.06 1149.23,-252.89"/>
<polygon fill="midnightblue" stroke="midnightblue" points="1152.19,-251 1144.31,-243.93 1146.06,-254.38 1152.19,-251"/>
</g>
<!-- Node31&#45;&gt;Node27 -->
<g id="edge101" class="edge">
<title>Node31&#45;&gt;Node27</title>
<path fill="none" stroke="midnightblue" d="M2654.6,-504.48C2647.18,-486.04 2640,-441.04 2640,-403 2640,-403 2640,-403 2640,-289 2640,-246.22 2607.5,-242.65 2569,-224 2492.34,-186.86 2391.18,-179.46 2337.62,-178.5"/>
<polygon fill="midnightblue" stroke="midnightblue" points="2337.6,-175 2327.56,-178.39 2337.52,-182 2337.6,-175"/>
</g>
<!-- Node31&#45;&gt;Node28 -->
<g id="edge98" class="edge">
<title>Node31&#45;&gt;Node28</title>
<path fill="none" stroke="midnightblue" d="M2616.73,-509.97C2524.81,-503.52 2306.57,-487.45 2124,-468 1738.09,-426.9 1641.1,-418.08 1258,-356 1193.86,-345.61 1026.25,-334.2 971,-300 906.7,-260.19 861.82,-177.82 844.24,-141.22"/>
<polygon fill="midnightblue" stroke="midnightblue" points="847.25,-139.38 839.84,-131.8 840.9,-142.34 847.25,-139.38"/>
</g>
<!-- Node31&#45;&gt;Node29 -->
<g id="edge100" class="edge">
<title>Node31&#45;&gt;Node29</title>
<path fill="none" stroke="midnightblue" d="M2616.99,-510.15C2466.63,-500.43 1975.89,-468.69 1853.73,-460.79"/>
<polygon fill="midnightblue" stroke="midnightblue" points="1853.9,-457.3 1843.7,-460.14 1853.45,-464.28 1853.9,-457.3"/>
</g>
<!-- Node32 -->
<g id="node32" class="node">
<title>Node32</title>
<g id="a_node32"><a xlink:title=" ">
<polygon fill="none" stroke="#bfbfbf" points="2686.5,-448.5 2686.5,-467.5 2761.5,-467.5 2761.5,-448.5 2686.5,-448.5"/>
<text text-anchor="middle" x="2724" y="-455.5" font-family="Helvetica,sans-Serif" font-size="10.00">petscerror.h</text>
</a>
</g>
</g>
<!-- Node31&#45;&gt;Node32 -->
<g id="edge93" class="edge">
<title>Node31&#45;&gt;Node32</title>
<path fill="none" stroke="midnightblue" d="M2671.12,-504.32C2680.53,-496.26 2694.74,-484.08 2706.07,-474.37"/>
<polygon fill="midnightblue" stroke="midnightblue" points="2708.38,-477 2713.69,-467.83 2703.82,-471.68 2708.38,-477"/>
</g>
<!-- Node33&#45;&gt;Node4 -->
<g id="edge105" class="edge">
<title>Node33&#45;&gt;Node4</title>
<path fill="none" stroke="midnightblue" d="M1378.15,-285.94C1475.89,-279.55 1704.55,-263.76 1896,-244 2390.57,-192.97 2513.21,-167.01 3002,-76 3045.7,-67.86 3056.12,-63.1 3100,-56 3210.35,-38.15 3340.03,-24.12 3414.36,-16.73"/>
<polygon fill="midnightblue" stroke="midnightblue" points="3414.86,-20.2 3424.47,-15.74 3414.18,-13.24 3414.86,-20.2"/>
</g>
<!-- Node33&#45;&gt;Node7 -->
<g id="edge108" class="edge">
<title>Node33&#45;&gt;Node7</title>
<path fill="none" stroke="midnightblue" d="M1332.28,-280.18C1338.49,-257.89 1357.87,-198.87 1396,-168 1429.19,-141.13 1478.05,-130.3 1511.13,-125.93"/>
<polygon fill="midnightblue" stroke="midnightblue" points="1511.75,-129.39 1521.27,-124.73 1510.93,-122.43 1511.75,-129.39"/>
</g>
<!-- Node33&#45;&gt;Node9 -->
<g id="edge107" class="edge">
<title>Node33&#45;&gt;Node9</title>
<path fill="none" stroke="midnightblue" d="M1375.67,-280.48C1529.09,-251.87 2024.86,-159.4 2175.91,-131.22"/>
<polygon fill="midnightblue" stroke="midnightblue" points="2176.58,-134.66 2185.77,-129.38 2175.3,-127.78 2176.58,-134.66"/>
</g>
<!-- Node33&#45;&gt;Node12 -->
<g id="edge109" class="edge">
<title>Node33&#45;&gt;Node12</title>
<path fill="none" stroke="midnightblue" d="M1325.68,-280.42C1314.35,-258.7 1281.67,-200.91 1239,-168 1186.91,-127.83 1165.51,-129.12 1102,-112 1005.42,-85.97 888.32,-74.44 825.01,-69.79"/>
<polygon fill="midnightblue" stroke="midnightblue" points="825.17,-66.29 814.95,-69.07 824.68,-73.27 825.17,-66.29"/>
</g>
<!-- Node33&#45;&gt;Node21 -->
<g id="edge104" class="edge">
<title>Node33&#45;&gt;Node21</title>
<path fill="none" stroke="midnightblue" d="M1314.15,-280.29C1284.39,-264.1 1220.96,-230.4 1197,-224 1076.82,-191.89 689.42,-181.97 568.44,-179.62"/>
<polygon fill="midnightblue" stroke="midnightblue" points="568.3,-176.12 558.23,-179.43 568.16,-183.12 568.3,-176.12"/>
</g>
<!-- Node33&#45;&gt;Node22 -->
<g id="edge106" class="edge">
<title>Node33&#45;&gt;Node22</title>
<path fill="none" stroke="midnightblue" d="M1319.72,-280.37C1297.53,-261.73 1244.89,-217.53 1217.02,-194.13"/>
<polygon fill="midnightblue" stroke="midnightblue" points="1219.14,-191.34 1209.23,-187.59 1214.64,-196.7 1219.14,-191.34"/>
</g>
<!-- Node33&#45;&gt;Node23 -->
<g id="edge110" class="edge">
<title>Node33&#45;&gt;Node23</title>
<path fill="none" stroke="midnightblue" d="M1320.71,-299.61C1312.42,-307.98 1300.86,-321.52 1296,-336 1261.52,-438.82 1279.71,-472.79 1296,-580 1297.37,-589 1300.19,-598.67 1302.95,-606.74"/>
<polygon fill="midnightblue" stroke="midnightblue" points="1299.69,-608.02 1306.4,-616.22 1306.27,-605.63 1299.69,-608.02"/>
</g>
<!-- Node33&#45;&gt;Node26 -->
<g id="edge111" class="edge">
<title>Node33&#45;&gt;Node26</title>
<path fill="none" stroke="midnightblue" d="M1299.89,-280.44C1267.37,-271.2 1215.42,-256.44 1179.61,-246.26"/>
<polygon fill="midnightblue" stroke="midnightblue" points="1180.54,-242.88 1169.97,-243.52 1178.63,-249.62 1180.54,-242.88"/>
</g>
<!-- Node34&#45;&gt;Node12 -->
<g id="edge113" class="edge">
<title>Node34&#45;&gt;Node12</title>
<path fill="none" stroke="midnightblue" d="M1603.58,-341.87C1466.09,-332.15 1056.26,-302.96 1050,-300 1013.91,-282.92 988,-274.92 988,-235 988,-235 988,-235 988,-177 988,-146.2 986.99,-132.49 964,-112 925.78,-77.94 866.09,-68.62 824.9,-66.58"/>
<polygon fill="midnightblue" stroke="midnightblue" points="824.98,-63.08 814.85,-66.2 824.72,-70.07 824.98,-63.08"/>
</g>
<!-- Node34&#45;&gt;Node23 -->
<g id="edge115" class="edge">
<title>Node34&#45;&gt;Node23</title>
<path fill="none" stroke="midnightblue" d="M1603.84,-349.37C1498.92,-357.68 1235.16,-394.82 1124,-560 1088.36,-612.96 1203.51,-623.25 1268.56,-624.93"/>
<polygon fill="midnightblue" stroke="midnightblue" points="1268.85,-628.44 1278.92,-625.14 1268.99,-621.44 1268.85,-628.44"/>
</g>
<!-- Node34&#45;&gt;Node30 -->
<g id="edge114" class="edge">
<title>Node34&#45;&gt;Node30</title>
<path fill="none" stroke="midnightblue" d="M1692.04,-352.63C1699.75,-353.78 1707.63,-354.96 1715,-356 1819.81,-370.79 1942.41,-385.88 2009.68,-394.29"/>
<polygon fill="midnightblue" stroke="midnightblue" points="2009.64,-397.81 2019.99,-395.58 2010.5,-390.86 2009.64,-397.81"/>
</g>
<!-- Node35&#45;&gt;Node3 -->
<g id="edge117" class="edge">
<title>Node35&#45;&gt;Node3</title>
<path fill="none" stroke="midnightblue" d="M2039.33,-336.5C2093.58,-314.17 2246.75,-253.58 2380,-224 2700.84,-152.77 3098.81,-130.22 3225.38,-124.6"/>
<polygon fill="midnightblue" stroke="midnightblue" points="3225.56,-128.09 3235.4,-124.16 3225.26,-121.1 3225.56,-128.09"/>
</g>
<!-- Node35&#45;&gt;Node4 -->
<g id="edge118" class="edge">
<title>Node35&#45;&gt;Node4</title>
<path fill="none" stroke="midnightblue" d="M2049.11,-336.48C2161.54,-304.78 2567.71,-191.46 2906,-112 3025.31,-83.98 3055.36,-77.57 3176,-56 3258.19,-41.3 3353.66,-27.5 3414.19,-19.15"/>
<polygon fill="midnightblue" stroke="midnightblue" points="3414.91,-22.59 3424.34,-17.76 3413.95,-15.65 3414.91,-22.59"/>
</g>
<!-- Node35&#45;&gt;Node5 -->
<g id="edge119" class="edge">
<title>Node35&#45;&gt;Node5</title>
<path fill="none" stroke="midnightblue" d="M2011.94,-336.08C1986.87,-303.24 1906.23,-187.03 1958,-112 2010.27,-36.25 2127.35,-17.26 2187.22,-12.54"/>
<polygon fill="midnightblue" stroke="midnightblue" points="2187.62,-16.02 2197.36,-11.83 2187.14,-9.04 2187.62,-16.02"/>
</g>
<!-- Node35&#45;&gt;Node6 -->
<g id="edge120" class="edge">
<title>Node35&#45;&gt;Node6</title>
<path fill="none" stroke="midnightblue" d="M2062.1,-339.12C2295.13,-307.32 3401.71,-156.33 3611.59,-127.69"/>
<polygon fill="midnightblue" stroke="midnightblue" points="3612.28,-131.13 3621.72,-126.31 3611.34,-124.2 3612.28,-131.13"/>
</g>
<!-- Node35&#45;&gt;Node7 -->
<g id="edge121" class="edge">
<title>Node35&#45;&gt;Node7</title>
<path fill="none" stroke="midnightblue" d="M1977.17,-336.44C1942.1,-328.69 1891,-316.04 1848,-300 1795.11,-280.27 1783.12,-271.83 1734,-244 1671.88,-208.81 1602.09,-161.43 1568.01,-137.76"/>
<polygon fill="midnightblue" stroke="midnightblue" points="1569.58,-134.59 1559.38,-131.74 1565.58,-140.33 1569.58,-134.59"/>
</g>
<!-- Node35&#45;&gt;Node8 -->
<g id="edge122" class="edge">
<title>Node35&#45;&gt;Node8</title>
<path fill="none" stroke="midnightblue" d="M2061.95,-336.47C2200.7,-309.13 2649.67,-222.29 3024,-168 3148.69,-149.92 3296.44,-134.69 3370.57,-127.48"/>
<polygon fill="midnightblue" stroke="midnightblue" points="3371.35,-130.92 3380.97,-126.47 3370.68,-123.95 3371.35,-130.92"/>
</g>
<!-- Node35&#45;&gt;Node9 -->
<g id="edge123" class="edge">
<title>Node35&#45;&gt;Node9</title>
<path fill="none" stroke="midnightblue" d="M2019.94,-336.36C2021.7,-323.26 2026.42,-298 2038,-280 2080.22,-214.37 2157.88,-160.85 2196.67,-136.76"/>
<polygon fill="midnightblue" stroke="midnightblue" points="2198.5,-139.75 2205.21,-131.55 2194.85,-133.77 2198.5,-139.75"/>
</g>
<!-- Node35&#45;&gt;Node10 -->
<g id="edge124" class="edge">
<title>Node35&#45;&gt;Node10</title>
<path fill="none" stroke="midnightblue" d="M2027.35,-336.19C2056.62,-305.97 2158.67,-206.28 2266,-168 2382.02,-126.62 2748.99,-122.43 2903.91,-122.58"/>
<polygon fill="midnightblue" stroke="midnightblue" points="2904.24,-126.08 2914.24,-122.59 2904.25,-119.08 2904.24,-126.08"/>
</g>
<!-- Node35&#45;&gt;Node11 -->
<g id="edge125" class="edge">
<title>Node35&#45;&gt;Node11</title>
<path fill="none" stroke="midnightblue" d="M2014.12,-336.37C2009.44,-327.55 2002.69,-313.3 2000,-300 1988.45,-242.98 2001.54,-173.82 2009.22,-141.42"/>
<polygon fill="midnightblue" stroke="midnightblue" points="2012.65,-142.12 2011.66,-131.58 2005.86,-140.44 2012.65,-142.12"/>
</g>
<!-- Node35&#45;&gt;Node12 -->
<g id="edge126" class="edge">
<title>Node35&#45;&gt;Node12</title>
<path fill="none" stroke="midnightblue" d="M1987.31,-336.49C1959.86,-328.6 1919.41,-315.73 1886,-300 1742.27,-232.33 1733.53,-159.69 1582,-112 1439.42,-67.12 973.62,-65.84 825.01,-66.62"/>
<polygon fill="midnightblue" stroke="midnightblue" points="824.85,-63.12 814.87,-66.67 824.89,-70.12 824.85,-63.12"/>
</g>
<!-- Node35&#45;&gt;Node20 -->
<g id="edge127" class="edge">
<title>Node35&#45;&gt;Node20</title>
<path fill="none" stroke="midnightblue" d="M1992.75,-355.56C1949.93,-370.29 1863.44,-403.19 1800,-448 1738.65,-491.34 1682,-493.88 1682,-569 1682,-627 1682,-627 1682,-627 1682,-665.3 1711.99,-701.58 1731.84,-721.41"/>
<polygon fill="midnightblue" stroke="midnightblue" points="1729.48,-724 1739.11,-728.4 1734.33,-718.95 1729.48,-724"/>
</g>
<!-- Node35&#45;&gt;Node23 -->
<g id="edge130" class="edge">
<title>Node35&#45;&gt;Node23</title>
<path fill="none" stroke="midnightblue" d="M1986.84,-355.51C1929.43,-371.11 1805.94,-406.53 1706,-448 1605.39,-489.75 1584.64,-509.74 1488,-560 1471.07,-568.81 1467.6,-572.61 1450,-580 1417.51,-593.65 1379.35,-605.66 1351.08,-613.84"/>
<polygon fill="midnightblue" stroke="midnightblue" points="1349.8,-610.56 1341.14,-616.67 1351.72,-617.3 1349.8,-610.56"/>
</g>
<!-- Node35&#45;&gt;Node25 -->
<g id="edge133" class="edge">
<title>Node35&#45;&gt;Node25</title>
<path fill="none" stroke="midnightblue" d="M2057.14,-355.51C2116.44,-369.64 2233.34,-401.1 2324,-448 2361.27,-467.28 2379.94,-467.15 2400,-504 2407.69,-518.12 2408.07,-536.61 2406.89,-550.25"/>
<polygon fill="midnightblue" stroke="midnightblue" points="2403.39,-550.03 2405.66,-560.38 2410.34,-550.87 2403.39,-550.03"/>
</g>
<!-- Node35&#45;&gt;Node26 -->
<g id="edge128" class="edge">
<title>Node35&#45;&gt;Node26</title>
<path fill="none" stroke="midnightblue" d="M1975.77,-342.86C1821.75,-335.18 1307.11,-308.98 1273,-300 1267.38,-298.52 1203.33,-266.7 1166.21,-248.14"/>
<polygon fill="midnightblue" stroke="midnightblue" points="1167.47,-244.85 1156.96,-243.51 1164.34,-251.11 1167.47,-244.85"/>
</g>
<!-- Node35&#45;&gt;Node28 -->
<g id="edge129" class="edge">
<title>Node35&#45;&gt;Node28</title>
<path fill="none" stroke="midnightblue" d="M1975.74,-336.72C1930.75,-328 1858.3,-313.66 1796,-300 1547.49,-245.5 1489.66,-211.53 1239,-168 1102.38,-144.27 937.43,-130.42 868.62,-125.29"/>
<polygon fill="midnightblue" stroke="midnightblue" points="868.65,-121.78 858.42,-124.54 868.13,-128.76 868.65,-121.78"/>
</g>
<!-- Node35&#45;&gt;Node29 -->
<g id="edge131" class="edge">
<title>Node35&#45;&gt;Node29</title>
<path fill="none" stroke="midnightblue" d="M2013.47,-355.91C2004.4,-369.84 1985.02,-396.75 1962,-412 1928.36,-434.29 1882.72,-446.4 1853.81,-452.29"/>
<polygon fill="midnightblue" stroke="midnightblue" points="1852.78,-448.92 1843.61,-454.24 1854.09,-455.8 1852.78,-448.92"/>
</g>
<!-- Node35&#45;&gt;Node30 -->
<g id="edge135" class="edge">
<title>Node35&#45;&gt;Node30</title>
<path fill="none" stroke="midnightblue" d="M2030.78,-355.75C2038.08,-363.25 2046.86,-374.27 2053.12,-383.57"/>
<polygon fill="midnightblue" stroke="midnightblue" points="2050.16,-385.42 2058.4,-392.08 2056.11,-381.74 2050.16,-385.42"/>
</g>
<!-- Node35&#45;&gt;Node31 -->
<g id="edge132" class="edge">
<title>Node35&#45;&gt;Node31</title>
<path fill="none" stroke="midnightblue" d="M2062.25,-350.06C2163.78,-357.45 2411.41,-376.79 2446,-392 2492.69,-412.54 2487.98,-442.23 2532,-468 2557.84,-483.13 2589.57,-494.28 2615.09,-501.7"/>
<polygon fill="midnightblue" stroke="midnightblue" points="2614.32,-505.12 2624.9,-504.45 2616.22,-498.38 2614.32,-505.12"/>
</g>
<!-- Node35&#45;&gt;Node33 -->
<g id="edge134" class="edge">
<title>Node35&#45;&gt;Node33</title>
<path fill="none" stroke="midnightblue" d="M1975.9,-341.62C1856.89,-332.29 1523.58,-306.17 1388.23,-295.56"/>
<polygon fill="midnightblue" stroke="midnightblue" points="1388.31,-292.06 1378.06,-294.77 1387.76,-299.04 1388.31,-292.06"/>
</g>
<!-- Node36&#45;&gt;Node5 -->
<g id="edge154" class="edge">
<title>Node36&#45;&gt;Node5</title>
<path fill="none" stroke="midnightblue" d="M1511.63,-672.28C1510.26,-632.01 1508.01,-460.69 1562,-336 1599.95,-248.35 1618.87,-224.33 1696,-168 1853.68,-52.85 2095.69,-21.51 2187.22,-13.54"/>
<polygon fill="midnightblue" stroke="midnightblue" points="2187.69,-17.01 2197.37,-12.7 2187.12,-10.04 2187.69,-17.01"/>
</g>
<!-- Node36&#45;&gt;Node12 -->
<g id="edge152" class="edge">
<title>Node36&#45;&gt;Node12</title>
<path fill="none" stroke="midnightblue" d="M1483.73,-679.95C1378.97,-675.9 1013.02,-660.3 899,-636 788.39,-612.42 499.33,-509.49 442,-412 371.63,-292.33 408.89,-181.62 529,-112 593.03,-74.89 680.54,-67.09 733.23,-66.13"/>
<polygon fill="midnightblue" stroke="midnightblue" points="733.33,-69.63 743.29,-66.02 733.25,-62.63 733.33,-69.63"/>
</g>
<!-- Node36&#45;&gt;Node21 -->
<g id="edge151" class="edge">
<title>Node36&#45;&gt;Node21</title>
<path fill="none" stroke="midnightblue" d="M1483.93,-679.61C1365.86,-673.39 909.76,-645.5 784,-580 639.9,-504.96 604.27,-452.78 549,-300 540.27,-275.88 538.72,-269.38 535,-244 532.74,-228.61 532.05,-210.98 531.88,-197.96"/>
<polygon fill="midnightblue" stroke="midnightblue" points="535.38,-197.87 531.85,-187.88 528.38,-197.9 535.38,-197.87"/>
</g>
<!-- Node36&#45;&gt;Node23 -->
<g id="edge153" class="edge">
<title>Node36&#45;&gt;Node23</title>
<path fill="none" stroke="midnightblue" d="M1483.91,-673.49C1449.41,-664.27 1390.59,-648.54 1351.03,-637.97"/>
<polygon fill="midnightblue" stroke="midnightblue" points="1351.73,-634.53 1341.16,-635.33 1349.92,-641.29 1351.73,-634.53"/>
</g>
<!-- Node36&#45;&gt;Node27 -->
<g id="edge156" class="edge">
<title>Node36&#45;&gt;Node27</title>
<path fill="none" stroke="midnightblue" d="M1540.43,-676.32C1689.14,-651.21 2374.95,-527.03 2484,-356 2515.54,-306.53 2520.19,-270.17 2484,-224 2466.18,-201.27 2385.91,-188.49 2337.79,-182.75"/>
<polygon fill="midnightblue" stroke="midnightblue" points="2338.09,-179.26 2327.76,-181.59 2337.29,-186.21 2338.09,-179.26"/>
</g>
<!-- Node36&#45;&gt;Node29 -->
<g id="edge155" class="edge">
<title>Node36&#45;&gt;Node29</title>
<path fill="none" stroke="midnightblue" d="M1533.14,-672.49C1581.2,-652.37 1700.53,-597.94 1779,-524 1793.99,-509.88 1807.34,-490.38 1815.95,-476.43"/>
<polygon fill="midnightblue" stroke="midnightblue" points="1818.99,-478.18 1821.11,-467.8 1812.98,-474.58 1818.99,-478.18"/>
</g>
<!-- Node37&#45;&gt;Node2 -->
<g id="edge183" class="edge">
<title>Node37&#45;&gt;Node2</title>
<path fill="none" stroke="midnightblue" d="M2181.13,-803.75C2182.66,-810.86 2183.1,-821.14 2182.47,-830.1"/>
<polygon fill="midnightblue" stroke="midnightblue" points="2178.99,-829.71 2181.17,-840.08 2185.93,-830.62 2178.99,-829.71"/>
</g>
<!-- Node37&#45;&gt;Node3 -->
<g id="edge164" class="edge">
<title>Node37&#45;&gt;Node3</title>
<path fill="none" stroke="midnightblue" d="M2225.17,-793.6C2318.9,-793.69 2529.04,-788.81 2700,-748 2865.11,-708.59 2899.21,-670.21 3043,-580 3141.62,-518.12 3196.98,-518.51 3244,-412 3284.56,-320.11 3267.32,-288.22 3274,-188 3274.59,-179.13 3274.78,-176.85 3274,-168 3273.22,-159.2 3271.61,-149.54 3270.03,-141.43"/>
<polygon fill="midnightblue" stroke="midnightblue" points="3273.44,-140.65 3267.99,-131.57 3266.59,-142.07 3273.44,-140.65"/>
</g>
<!-- Node37&#45;&gt;Node4 -->
<g id="edge165" class="edge">
<title>Node37&#45;&gt;Node4</title>
<path fill="none" stroke="midnightblue" d="M2225.29,-792.49C2425.67,-790.24 3179.82,-779.76 3416,-748 3592.5,-724.26 3798,-805.09 3798,-627 3798,-627 3798,-627 3798,-513 3798,-383.13 3988,-420.87 3988,-291 3988,-291 3988,-291 3988,-121 3988,-29.45 3671.71,-13.85 3535.84,-11.37"/>
<polygon fill="midnightblue" stroke="midnightblue" points="3535.65,-7.87 3525.59,-11.21 3535.53,-14.87 3535.65,-7.87"/>
</g>
<!-- Node37&#45;&gt;Node5 -->
<g id="edge166" class="edge">
<title>Node37&#45;&gt;Node5</title>
<path fill="none" stroke="midnightblue" d="M2225.23,-793.78C2330.94,-794.52 2587.01,-791.22 2796,-748 3075.15,-690.27 3157.27,-678.24 3397,-524 3583.61,-403.93 3831.78,-272.92 3679,-112 3625.91,-56.08 3062.43,-86.14 2986,-76 2944.09,-70.44 2934.87,-61.88 2893,-56 2653.35,-22.35 2361.74,-13.68 2260.61,-11.61"/>
<polygon fill="midnightblue" stroke="midnightblue" points="2260.66,-8.11 2250.6,-11.41 2260.52,-15.1 2260.66,-8.11"/>
</g>
<!-- Node37&#45;&gt;Node6 -->
<g id="edge167" class="edge">
<title>Node37&#45;&gt;Node6</title>
<path fill="none" stroke="midnightblue" d="M2225.17,-792.57C2413.52,-790.7 3089.14,-781.71 3301,-748 3486.19,-718.53 3684,-758.52 3684,-571 3684,-571 3684,-571 3684,-513 3684,-467.68 3694.88,-457.21 3698,-412 3705.13,-308.63 3668.16,-187.24 3652.62,-141.59"/>
<polygon fill="midnightblue" stroke="midnightblue" points="3655.84,-140.2 3649.25,-131.9 3649.23,-142.49 3655.84,-140.2"/>
</g>
<!-- Node37&#45;&gt;Node7 -->
<g id="edge168" class="edge">
<title>Node37&#45;&gt;Node7</title>
<path fill="none" stroke="midnightblue" d="M2126.88,-791.03C2039.05,-786.93 1849.54,-775.47 1692,-748 1642.94,-739.45 1507.22,-729.97 1475,-692 1388.63,-590.21 1435.25,-523.19 1460,-392 1468.14,-348.85 1481.91,-341.58 1496,-300 1515.37,-242.83 1533.9,-173.75 1542.3,-141.39"/>
<polygon fill="midnightblue" stroke="midnightblue" points="1545.73,-142.12 1544.83,-131.56 1538.95,-140.37 1545.73,-142.12"/>
</g>
<!-- Node37&#45;&gt;Node8 -->
<g id="edge169" class="edge">
<title>Node37&#45;&gt;Node8</title>
<path fill="none" stroke="midnightblue" d="M2225.38,-793.86C2325.49,-794.56 2558.96,-790.96 2749,-748 2816.79,-732.68 2831.58,-720.41 2895,-692 3203.22,-553.92 3419.59,-613.19 3546,-300 3558.64,-268.68 3560.73,-254.39 3546,-224 3525.52,-181.76 3477.86,-151.86 3446.82,-136.04"/>
<polygon fill="midnightblue" stroke="midnightblue" points="3448.29,-132.86 3437.78,-131.58 3445.2,-139.14 3448.29,-132.86"/>
</g>
<!-- Node37&#45;&gt;Node9 -->
<g id="edge170" class="edge">
<title>Node37&#45;&gt;Node9</title>
<path fill="none" stroke="midnightblue" d="M2225.33,-791.64C2325.48,-788.28 2549.06,-777.62 2619,-748 2811.17,-666.62 2919.77,-618.91 2947,-412 2974.77,-201.01 2742.37,-215.82 2535,-168 2439.84,-146.06 2325.9,-132.96 2264.49,-126.96"/>
<polygon fill="midnightblue" stroke="midnightblue" points="2264.67,-123.46 2254.38,-125.99 2264,-130.43 2264.67,-123.46"/>
</g>
<!-- Node37&#45;&gt;Node10 -->
<g id="edge171" class="edge">
<title>Node37&#45;&gt;Node10</title>
<path fill="none" stroke="midnightblue" d="M2225.01,-793.88C2312.96,-794.26 2502.73,-789.6 2656,-748 2856.63,-693.54 3184.26,-487.14 3226,-412 3293.74,-290.07 3081.76,-174.12 3002.58,-136.05"/>
<polygon fill="midnightblue" stroke="midnightblue" points="3003.72,-132.72 2993.19,-131.6 3000.72,-139.05 3003.72,-132.72"/>
</g>
<!-- Node37&#45;&gt;Node11 -->
<g id="edge172" class="edge">
<title>Node37&#45;&gt;Node11</title>
<path fill="none" stroke="midnightblue" d="M2169.99,-784.33C2140.32,-740.9 2009.14,-541.76 1967,-356 1948.9,-276.2 1987.03,-180.24 2005.15,-141.02"/>
<polygon fill="midnightblue" stroke="midnightblue" points="2008.34,-142.46 2009.47,-131.92 2002.02,-139.45 2008.34,-142.46"/>
</g>
<!-- Node37&#45;&gt;Node12 -->
<g id="edge173" class="edge">
<title>Node37&#45;&gt;Node12</title>
<path fill="none" stroke="midnightblue" d="M2136.36,-784.48C2006.75,-754.15 1596.44,-637.74 1466,-356 1462.27,-347.93 1465.3,-344.86 1466,-336 1469.57,-290.69 1482,-280.45 1482,-235 1482,-235 1482,-235 1482,-177 1482,-110.28 981.36,-77.83 825.05,-69.33"/>
<polygon fill="midnightblue" stroke="midnightblue" points="825,-65.82 814.83,-68.78 824.63,-72.81 825,-65.82"/>
</g>
<!-- Node37&#45;&gt;Node20 -->
<g id="edge174" class="edge">
<title>Node37&#45;&gt;Node20</title>
<path fill="none" stroke="midnightblue" d="M2126.6,-786.75C2047.28,-776.72 1891.87,-757.07 1807.26,-746.37"/>
<polygon fill="midnightblue" stroke="midnightblue" points="1807.66,-742.89 1797.3,-745.11 1806.78,-749.84 1807.66,-742.89"/>
</g>
<!-- Node37&#45;&gt;Node23 -->
<g id="edge177" class="edge">
<title>Node37&#45;&gt;Node23</title>
<path fill="none" stroke="midnightblue" d="M2126.66,-791.64C2028.23,-788.35 1800.7,-777.92 1612,-748 1506.38,-731.25 1471.9,-743.16 1378,-692 1355.7,-679.85 1335.41,-658.48 1322.9,-643.57"/>
<polygon fill="midnightblue" stroke="midnightblue" points="1325.51,-641.23 1316.49,-635.66 1320.07,-645.63 1325.51,-641.23"/>
</g>
<!-- Node37&#45;&gt;Node25 -->
<g id="edge180" class="edge">
<title>Node37&#45;&gt;Node25</title>
<path fill="none" stroke="midnightblue" d="M2184.94,-784.3C2219.27,-750.87 2342.97,-630.43 2387.71,-586.86"/>
<polygon fill="midnightblue" stroke="midnightblue" points="2390.15,-589.37 2394.88,-579.88 2385.27,-584.35 2390.15,-589.37"/>
</g>
<!-- Node37&#45;&gt;Node26 -->
<g id="edge175" class="edge">
<title>Node37&#45;&gt;Node26</title>
<path fill="none" stroke="midnightblue" d="M2126.83,-792.71C1937.68,-791.35 1256.96,-783.99 1044,-748 952.85,-732.59 646,-719.44 646,-627 646,-627 646,-627 646,-569 646,-493.31 684,-478.69 684,-403 684,-403 684,-403 684,-345 684,-324.6 963.34,-268.75 1084.75,-245.44"/>
<polygon fill="midnightblue" stroke="midnightblue" points="1085.45,-248.87 1094.61,-243.55 1084.13,-241.99 1085.45,-248.87"/>
</g>
<!-- Node37&#45;&gt;Node28 -->
<g id="edge176" class="edge">
<title>Node37&#45;&gt;Node28</title>
<path fill="none" stroke="midnightblue" d="M2126.72,-792.78C1921.05,-791.62 1130.4,-784.81 884,-748 788.89,-733.79 760.34,-736.32 675,-692 461.69,-581.22 333.41,-453.76 404,-224 412.83,-195.25 416.27,-183.57 442,-168 502.66,-131.29 720.76,-124.52 803.69,-123.28"/>
<polygon fill="midnightblue" stroke="midnightblue" points="803.84,-126.78 813.79,-123.14 803.75,-119.78 803.84,-126.78"/>
</g>
<!-- Node37&#45;&gt;Node29 -->
<g id="edge178" class="edge">
<title>Node37&#45;&gt;Node29</title>
<path fill="none" stroke="midnightblue" d="M2165.47,-784.23C2154.84,-775.29 2138.04,-760.95 2124,-748 2071.79,-699.85 2059.66,-686.78 2010,-636 1953.72,-578.45 1945.98,-557.68 1886,-504 1873.78,-493.07 1859.07,-482 1847.27,-473.58"/>
<polygon fill="midnightblue" stroke="midnightblue" points="1849.1,-470.59 1838.91,-467.7 1845.08,-476.32 1849.1,-470.59"/>
</g>
<!-- Node37&#45;&gt;Node30 -->
<g id="edge182" class="edge">
<title>Node37&#45;&gt;Node30</title>
<path fill="none" stroke="midnightblue" d="M2176,-784.44C2176,-765.94 2176,-720.81 2176,-683 2176,-683 2176,-683 2176,-513 2176,-465.81 2124.84,-432.79 2090.47,-415.92"/>
<polygon fill="midnightblue" stroke="midnightblue" points="2091.81,-412.69 2081.28,-411.6 2088.83,-419.02 2091.81,-412.69"/>
</g>
<!-- Node37&#45;&gt;Node31 -->
<g id="edge179" class="edge">
<title>Node37&#45;&gt;Node31</title>
<path fill="none" stroke="midnightblue" d="M2225.17,-792.2C2348.47,-788.88 2661,-771.71 2661,-683 2661,-683 2661,-683 2661,-625 2661,-592.95 2661,-555.64 2661,-533.75"/>
<polygon fill="midnightblue" stroke="midnightblue" points="2664.5,-533.56 2661,-523.56 2657.5,-533.56 2664.5,-533.56"/>
</g>
<!-- Node37&#45;&gt;Node33 -->
<g id="edge181" class="edge">
<title>Node37&#45;&gt;Node33</title>
<path fill="none" stroke="midnightblue" d="M2126.8,-792.02C1906.07,-787.22 1013.4,-763.49 913,-692 844.84,-643.46 849.53,-568.36 903,-504 1003.67,-382.82 1190.41,-324.14 1279.79,-301.97"/>
<polygon fill="midnightblue" stroke="midnightblue" points="1280.78,-305.33 1289.68,-299.57 1279.13,-298.53 1280.78,-305.33"/>
</g>
<!-- Node38&#45;&gt;Node12 -->
<g id="edge188" class="edge">
<title>Node38&#45;&gt;Node12</title>
<path fill="none" stroke="midnightblue" d="M242.28,-792.35C178.58,-789.22 38,-772.19 38,-683 38,-683 38,-683 38,-177 38,-137.38 63.18,-128.93 99,-112 156,-85.05 589.56,-71.78 733.05,-68.09"/>
<polygon fill="midnightblue" stroke="midnightblue" points="733.35,-71.59 743.26,-67.84 733.18,-64.59 733.35,-71.59"/>
</g>
<!-- Node38&#45;&gt;Node23 -->
<g id="edge197" class="edge">
<title>Node38&#45;&gt;Node23</title>
<path fill="none" stroke="midnightblue" d="M303.68,-787.28C401.36,-769.15 713.98,-711.84 974,-672 1080.08,-655.75 1205.52,-639.82 1268.91,-632"/>
<polygon fill="midnightblue" stroke="midnightblue" points="1269.41,-635.46 1278.91,-630.77 1268.55,-628.51 1269.41,-635.46"/>
</g>
<!-- Node38&#45;&gt;Node27 -->
<g id="edge201" class="edge">
<title>Node38&#45;&gt;Node27</title>
<path fill="none" stroke="midnightblue" d="M303.58,-792.8C506.43,-791.4 1654.51,-782.02 1806,-748 1987.76,-707.19 2050.4,-703.35 2190,-580 2295.17,-487.07 2320.03,-439.43 2336,-300 2339.85,-266.37 2342.24,-255.93 2331,-224 2327.42,-213.83 2321.02,-203.74 2315.05,-195.69"/>
<polygon fill="midnightblue" stroke="midnightblue" points="2317.6,-193.27 2308.66,-187.58 2312.1,-197.6 2317.6,-193.27"/>
</g>
<!-- Node39 -->
<g id="node39" class="node">
<title>Node39</title>
<g id="a_node39"><a xlink:href="implicitsolvers_8h.html" target="_top" xlink:title=" ">
<polygon fill="none" stroke="black" points="224,-728.5 224,-747.5 322,-747.5 322,-728.5 224,-728.5"/>
<text text-anchor="middle" x="273" y="-735.5" font-family="Helvetica,sans-Serif" font-size="10.00">implicitsolvers.h</text>
</a>
</g>
</g>
<!-- Node38&#45;&gt;Node39 -->
<g id="edge189" class="edge">
<title>Node38&#45;&gt;Node39</title>
<path fill="none" stroke="midnightblue" d="M273,-784.08C273,-777.01 273,-766.86 273,-757.99"/>
<polygon fill="midnightblue" stroke="midnightblue" points="276.5,-757.75 273,-747.75 269.5,-757.75 276.5,-757.75"/>
</g>
<!-- Node40 -->
<g id="node40" class="node">
<title>Node40</title>
<g id="a_node40"><a xlink:href="rhs_8h.html" target="_top" xlink:title=" ">
<polygon fill="none" stroke="black" points="142.5,-672.5 142.5,-691.5 183.5,-691.5 183.5,-672.5 142.5,-672.5"/>
<text text-anchor="middle" x="163" y="-679.5" font-family="Helvetica,sans-Serif" font-size="10.00">rhs.h</text>
</a>
</g>
</g>
<!-- Node38&#45;&gt;Node40 -->
<g id="edge196" class="edge">
<title>Node38&#45;&gt;Node40</title>
<path fill="none" stroke="midnightblue" d="M260.31,-784.48C248.08,-775.96 229.34,-762.13 215,-748 199.78,-733 184.79,-713.64 174.85,-699.96"/>
<polygon fill="midnightblue" stroke="midnightblue" points="177.48,-697.63 168.83,-691.53 171.78,-701.7 177.48,-697.63"/>
</g>
<!-- Node41 -->
<g id="node41" class="node">
<title>Node41</title>
<g id="a_node41"><a xlink:href="poisson_8h.html" target="_top" xlink:title=" ">
<polygon fill="none" stroke="black" points="104.5,-728.5 104.5,-747.5 167.5,-747.5 167.5,-728.5 104.5,-728.5"/>
<text text-anchor="middle" x="136" y="-735.5" font-family="Helvetica,sans-Serif" font-size="10.00">poisson.h</text>
</a>
</g>
</g>
<!-- Node38&#45;&gt;Node41 -->
<g id="edge198" class="edge">
<title>Node38&#45;&gt;Node41</title>
<path fill="none" stroke="midnightblue" d="M251.29,-784.44C228.65,-775.52 192.93,-761.44 167.25,-751.32"/>
<polygon fill="midnightblue" stroke="midnightblue" points="168.19,-747.93 157.61,-747.52 165.63,-754.44 168.19,-747.93"/>
</g>
<!-- Node39&#45;&gt;Node12 -->
<g id="edge190" class="edge">
<title>Node39&#45;&gt;Node12</title>
<path fill="none" stroke="midnightblue" d="M268.11,-728.25C245.47,-686.9 152,-506.51 152,-347 152,-347 152,-347 152,-289 152,-205.65 147.98,-162.89 214,-112 254.75,-80.59 605.94,-70.47 733.2,-67.81"/>
<polygon fill="midnightblue" stroke="midnightblue" points="733.46,-71.31 743.39,-67.61 733.32,-64.31 733.46,-71.31"/>
</g>
<!-- Node39&#45;&gt;Node23 -->
<g id="edge191" class="edge">
<title>Node39&#45;&gt;Node23</title>
<path fill="none" stroke="midnightblue" d="M322.26,-729.29C408.12,-716.06 590.87,-688.83 746,-672 941.11,-650.83 1175.22,-635.29 1268.6,-629.49"/>
<polygon fill="midnightblue" stroke="midnightblue" points="1268.99,-632.98 1278.76,-628.87 1268.56,-625.99 1268.99,-632.98"/>
</g>
<!-- Node39&#45;&gt;Node30 -->
<g id="edge195" class="edge">
<title>Node39&#45;&gt;Node30</title>
<path fill="none" stroke="midnightblue" d="M322.15,-736.34C541.78,-733.26 1427.89,-719.21 1549,-692 1764.12,-643.67 1980.56,-470.66 2042.48,-418.19"/>
<polygon fill="midnightblue" stroke="midnightblue" points="2044.85,-420.77 2050.18,-411.61 2040.3,-415.45 2044.85,-420.77"/>
</g>
<!-- Node39&#45;&gt;Node40 -->
<g id="edge192" class="edge">
<title>Node39&#45;&gt;Node40</title>
<path fill="none" stroke="midnightblue" d="M255.33,-728.32C237.61,-719.62 210.1,-706.12 189.71,-696.11"/>
<polygon fill="midnightblue" stroke="midnightblue" points="191.15,-692.92 180.63,-691.65 188.06,-699.2 191.15,-692.92"/>
</g>
<!-- Node40&#45;&gt;Node12 -->
<g id="edge193" class="edge">
<title>Node40&#45;&gt;Node12</title>
<path fill="none" stroke="midnightblue" d="M160.37,-672.45C150.19,-638.63 114,-510.82 114,-403 114,-403 114,-403 114,-289 114,-205.65 109.86,-162.72 176,-112 219.85,-78.38 599.46,-69.62 732.87,-67.57"/>
<polygon fill="midnightblue" stroke="midnightblue" points="733.21,-71.07 743.16,-67.42 733.11,-64.07 733.21,-71.07"/>
</g>
<!-- Node40&#45;&gt;Node23 -->
<g id="edge194" class="edge">
<title>Node40&#45;&gt;Node23</title>
<path fill="none" stroke="midnightblue" d="M183.89,-680.02C320.08,-673.6 1081.92,-637.74 1268.67,-628.95"/>
<polygon fill="midnightblue" stroke="midnightblue" points="1269.06,-632.43 1278.89,-628.46 1268.73,-625.44 1269.06,-632.43"/>
</g>
<!-- Node41&#45;&gt;Node12 -->
<g id="edge199" class="edge">
<title>Node41&#45;&gt;Node12</title>
<path fill="none" stroke="midnightblue" d="M130.46,-728.4C115.61,-704.49 76,-634.74 76,-571 76,-571 76,-571 76,-177 76,-133.23 109.61,-128.89 150,-112 255.37,-67.94 606.77,-65.81 733.19,-66.53"/>
<polygon fill="midnightblue" stroke="midnightblue" points="733.29,-70.03 743.31,-66.59 733.33,-63.03 733.29,-70.03"/>
</g>
<!-- Node41&#45;&gt;Node40 -->
<g id="edge200" class="edge">
<title>Node41&#45;&gt;Node40</title>
<path fill="none" stroke="midnightblue" d="M140.46,-728.08C144.15,-720.69 149.52,-709.95 154.09,-700.81"/>
<polygon fill="midnightblue" stroke="midnightblue" points="157.28,-702.26 158.62,-691.75 151.02,-699.13 157.28,-702.26"/>
</g>
</g>
</svg>
