<?xml version="1.0" encoding="UTF-8" standalone="no"?>
<!DOCTYPE svg PUBLIC "-//W3C//DTD SVG 1.1//EN"
 "http://www.w3.org/Graphics/SVG/1.1/DTD/svg11.dtd">
<!-- Generated by graphviz version 2.43.0 (0)
 -->
<!-- Title: poisson.h Pages: 1 -->
<svg width="296pt" height="252pt"
 viewBox="0.00 0.00 296.00 252.00" xmlns="http://www.w3.org/2000/svg" xmlns:xlink="http://www.w3.org/1999/xlink">
<g id="graph0" class="graph" transform="scale(1 1) rotate(0) translate(4 248)">
<title>poisson.h</title>
<!-- Node1 -->
<g id="node1" class="node">
<title>Node1</title>
<g id="a_node1"><a xlink:title=" ">
<polygon fill="#bfbfbf" stroke="black" points="185.5,-224.5 185.5,-243.5 248.5,-243.5 248.5,-224.5 185.5,-224.5"/>
<text text-anchor="middle" x="217" y="-231.5" font-family="Helvetica,sans-Serif" font-size="10.00">poisson.h</text>
</a>
</g>
</g>
<!-- Node2 -->
<g id="node2" class="node">
<title>Node2</title>
<g id="a_node2"><a xlink:href="solvers_8h.html" target="_top" xlink:title=" ">
<polygon fill="none" stroke="black" points="146.5,-168.5 146.5,-187.5 207.5,-187.5 207.5,-168.5 146.5,-168.5"/>
<text text-anchor="middle" x="177" y="-175.5" font-family="Helvetica,sans-Serif" font-size="10.00">solvers.h</text>
</a>
</g>
</g>
<!-- Node1&#45;&gt;Node2 -->
<g id="edge1" class="edge">
<title>Node1&#45;&gt;Node2</title>
<path fill="none" stroke="midnightblue" d="M204.3,-215.86C197.37,-206.5 189.09,-195.33 183.48,-187.75"/>
<polygon fill="midnightblue" stroke="midnightblue" points="201.63,-218.13 210.39,-224.08 207.25,-213.96 201.63,-218.13"/>
</g>
<!-- Node10 -->
<g id="node10" class="node">
<title>Node10</title>
<g id="a_node10"><a xlink:href="poisson_8c.html" target="_top" xlink:title=" ">
<polygon fill="none" stroke="black" points="226,-168.5 226,-187.5 288,-187.5 288,-168.5 226,-168.5"/>
<text text-anchor="middle" x="257" y="-175.5" font-family="Helvetica,sans-Serif" font-size="10.00">poisson.c</text>
</a>
</g>
</g>
<!-- Node1&#45;&gt;Node10 -->
<g id="edge10" class="edge">
<title>Node1&#45;&gt;Node10</title>
<path fill="none" stroke="midnightblue" d="M229.7,-215.86C236.63,-206.5 244.91,-195.33 250.52,-187.75"/>
<polygon fill="midnightblue" stroke="midnightblue" points="226.75,-213.96 223.61,-224.08 232.37,-218.13 226.75,-213.96"/>
</g>
<!-- Node3 -->
<g id="node3" class="node">
<title>Node3</title>
<g id="a_node3"><a xlink:href="simulation_8h.html" target="_top" xlink:title=" ">
<polygon fill="none" stroke="black" points="61.5,-112.5 61.5,-131.5 138.5,-131.5 138.5,-112.5 61.5,-112.5"/>
<text text-anchor="middle" x="100" y="-119.5" font-family="Helvetica,sans-Serif" font-size="10.00">simulation.h</text>
</a>
</g>
</g>
<!-- Node2&#45;&gt;Node3 -->
<g id="edge2" class="edge">
<title>Node2&#45;&gt;Node3</title>
<path fill="none" stroke="midnightblue" d="M156.1,-162.34C142.09,-152.52 124.12,-139.91 112.34,-131.65"/>
<polygon fill="midnightblue" stroke="midnightblue" points="154.43,-165.45 164.63,-168.32 158.45,-159.72 154.43,-165.45"/>
</g>
<!-- Node8 -->
<g id="node8" class="node">
<title>Node8</title>
<g id="a_node8"><a xlink:href="rhs_8c.html" target="_top" xlink:title=" ">
<polygon fill="none" stroke="black" points="157,-112.5 157,-131.5 197,-131.5 197,-112.5 157,-112.5"/>
<text text-anchor="middle" x="177" y="-119.5" font-family="Helvetica,sans-Serif" font-size="10.00">rhs.c</text>
</a>
</g>
</g>
<!-- Node2&#45;&gt;Node8 -->
<g id="edge8" class="edge">
<title>Node2&#45;&gt;Node8</title>
<path fill="none" stroke="midnightblue" d="M177,-157.8C177,-148.91 177,-138.78 177,-131.75"/>
<polygon fill="midnightblue" stroke="midnightblue" points="173.5,-158.08 177,-168.08 180.5,-158.08 173.5,-158.08"/>
</g>
<!-- Node9 -->
<g id="node9" class="node">
<title>Node9</title>
<g id="a_node9"><a xlink:href="solvers_8c.html" target="_top" xlink:title=" ">
<polygon fill="none" stroke="black" points="215,-112.5 215,-131.5 275,-131.5 275,-112.5 215,-112.5"/>
<text text-anchor="middle" x="245" y="-119.5" font-family="Helvetica,sans-Serif" font-size="10.00">solvers.c</text>
</a>
</g>
</g>
<!-- Node2&#45;&gt;Node9 -->
<g id="edge9" class="edge">
<title>Node2&#45;&gt;Node9</title>
<path fill="none" stroke="midnightblue" d="M195.76,-162.1C208,-152.38 223.56,-140.03 233.88,-131.83"/>
<polygon fill="midnightblue" stroke="midnightblue" points="193.58,-159.36 187.93,-168.32 197.93,-164.85 193.58,-159.36"/>
</g>
<!-- Node4 -->
<g id="node4" class="node">
<title>Node4</title>
<g id="a_node4"><a xlink:href="initialcondition_8h.html" target="_top" xlink:title=" ">
<polygon fill="none" stroke="black" points="0,-56.5 0,-75.5 98,-75.5 98,-56.5 0,-56.5"/>
<text text-anchor="middle" x="49" y="-63.5" font-family="Helvetica,sans-Serif" font-size="10.00">initialcondition.h</text>
</a>
</g>
</g>
<!-- Node3&#45;&gt;Node4 -->
<g id="edge3" class="edge">
<title>Node3&#45;&gt;Node4</title>
<path fill="none" stroke="midnightblue" d="M79.23,-105.54C69.1,-95.91 58.07,-83.87 52.19,-75.83"/>
<polygon fill="midnightblue" stroke="midnightblue" points="76.94,-108.19 86.69,-112.32 81.65,-103.01 76.94,-108.19"/>
</g>
<!-- Node6 -->
<g id="node6" class="node">
<title>Node6</title>
<g id="a_node6"><a xlink:href="picsolver_8c.html" target="_top" xlink:title=" ">
<polygon fill="none" stroke="black" points="116.5,-56.5 116.5,-75.5 185.5,-75.5 185.5,-56.5 116.5,-56.5"/>
<text text-anchor="middle" x="151" y="-63.5" font-family="Helvetica,sans-Serif" font-size="10.00">picsolver.c</text>
</a>
</g>
</g>
<!-- Node3&#45;&gt;Node6 -->
<g id="edge6" class="edge">
<title>Node3&#45;&gt;Node6</title>
<path fill="none" stroke="midnightblue" d="M115.38,-104.72C124.37,-95.2 135.36,-83.56 142.74,-75.75"/>
<polygon fill="midnightblue" stroke="midnightblue" points="112.74,-102.41 108.42,-112.08 117.83,-107.22 112.74,-102.41"/>
</g>
<!-- Node7 -->
<g id="node7" class="node">
<title>Node7</title>
<g id="a_node7"><a xlink:href="simulation_8c.html" target="_top" xlink:title="Test program for DMSwarm interpolation using the fdf&#45;curvIB method. Provides the setup to start any s...">
<polygon fill="none" stroke="black" points="203.5,-56.5 203.5,-75.5 280.5,-75.5 280.5,-56.5 203.5,-56.5"/>
<text text-anchor="middle" x="242" y="-63.5" font-family="Helvetica,sans-Serif" font-size="10.00">simulation.c</text>
</a>
</g>
</g>
<!-- Node3&#45;&gt;Node7 -->
<g id="edge7" class="edge">
<title>Node3&#45;&gt;Node7</title>
<path fill="none" stroke="midnightblue" d="M132.16,-108.77C158.83,-98.63 196.07,-84.47 219.6,-75.52"/>
<polygon fill="midnightblue" stroke="midnightblue" points="130.6,-105.62 122.5,-112.44 133.09,-112.16 130.6,-105.62"/>
</g>
<!-- Node4&#45;&gt;Node3 -->
<g id="edge4" class="edge">
<title>Node4&#45;&gt;Node3</title>
<path fill="none" stroke="midnightblue" d="M69.83,-82.51C79.9,-92.1 90.86,-104.06 96.74,-112.08"/>
<polygon fill="midnightblue" stroke="midnightblue" points="72.15,-79.89 62.4,-75.75 67.44,-85.07 72.15,-79.89"/>
</g>
<!-- Node5 -->
<g id="node5" class="node">
<title>Node5</title>
<g id="a_node5"><a xlink:href="initialcondition_8c.html" target="_top" xlink:title="Test program for DMSwarm interpolation using the fdf&#45;curvIB method.">
<polygon fill="none" stroke="black" points="0,-0.5 0,-19.5 98,-19.5 98,-0.5 0,-0.5"/>
<text text-anchor="middle" x="49" y="-7.5" font-family="Helvetica,sans-Serif" font-size="10.00">initialcondition.c</text>
</a>
</g>
</g>
<!-- Node4&#45;&gt;Node5 -->
<g id="edge5" class="edge">
<title>Node4&#45;&gt;Node5</title>
<path fill="none" stroke="midnightblue" d="M49,-45.8C49,-36.91 49,-26.78 49,-19.75"/>
<polygon fill="midnightblue" stroke="midnightblue" points="45.5,-46.08 49,-56.08 52.5,-46.08 45.5,-46.08"/>
</g>
</g>
</svg>
