<?xml version="1.0" encoding="UTF-8" standalone="no"?>
<!DOCTYPE svg PUBLIC "-//W3C//DTD SVG 1.1//EN"
 "http://www.w3.org/Graphics/SVG/1.1/DTD/svg11.dtd">
<!-- Generated by graphviz version 2.43.0 (0)
 -->
<!-- Title: poisson.h Pages: 1 -->
<svg width="2932pt" height="868pt"
 viewBox="0.00 0.00 2932.00 868.00" xmlns="http://www.w3.org/2000/svg" xmlns:xlink="http://www.w3.org/1999/xlink">
<g id="graph0" class="graph" transform="scale(1 1) rotate(0) translate(4 864)">
<title>poisson.h</title>
<!-- Node1 -->
<g id="node1" class="node">
<title>Node1</title>
<g id="a_node1"><a xlink:title=" ">
<polygon fill="#bfbfbf" stroke="black" points="947.5,-840.5 947.5,-859.5 1010.5,-859.5 1010.5,-840.5 947.5,-840.5"/>
<text text-anchor="middle" x="979" y="-847.5" font-family="Helvetica,sans-Serif" font-size="10.00">poisson.h</text>
</a>
</g>
</g>
<!-- Node2 -->
<g id="node2" class="node">
<title>Node2</title>
<g id="a_node2"><a xlink:href="variables_8h.html" target="_top" xlink:title="Main header file for a complex fluid dynamics solver.">
<polygon fill="none" stroke="black" points="1837.5,-56.5 1837.5,-75.5 1908.5,-75.5 1908.5,-56.5 1837.5,-56.5"/>
<text text-anchor="middle" x="1873" y="-63.5" font-family="Helvetica,sans-Serif" font-size="10.00">variables.h</text>
</a>
</g>
</g>
<!-- Node1&#45;&gt;Node2 -->
<g id="edge1" class="edge">
<title>Node1&#45;&gt;Node2</title>
<path fill="none" stroke="midnightblue" d="M947.45,-848.38C791.88,-844.89 114,-824.77 114,-739 114,-739 114,-739 114,-177 114,-96.94 203.52,-127.81 282,-112 436.73,-80.84 1582.57,-69.46 1827.15,-67.37"/>
<polygon fill="midnightblue" stroke="midnightblue" points="1827.49,-70.87 1837.46,-67.28 1827.43,-63.87 1827.49,-70.87"/>
</g>
<!-- Node12 -->
<g id="node12" class="node">
<title>Node12</title>
<g id="a_node12"><a xlink:href="rhs_8h.html" target="_top" xlink:title=" ">
<polygon fill="none" stroke="black" points="1937.5,-784.5 1937.5,-803.5 1978.5,-803.5 1978.5,-784.5 1937.5,-784.5"/>
<text text-anchor="middle" x="1958" y="-791.5" font-family="Helvetica,sans-Serif" font-size="10.00">rhs.h</text>
</a>
</g>
</g>
<!-- Node1&#45;&gt;Node12 -->
<g id="edge11" class="edge">
<title>Node1&#45;&gt;Node12</title>
<path fill="none" stroke="midnightblue" d="M1010.74,-847.25C1158.92,-839.08 1781.6,-804.73 1927.38,-796.69"/>
<polygon fill="midnightblue" stroke="midnightblue" points="1927.62,-800.18 1937.41,-796.14 1927.23,-793.19 1927.62,-800.18"/>
</g>
<!-- Node3 -->
<g id="node3" class="node">
<title>Node3</title>
<g id="a_node3"><a xlink:title=" ">
<polygon fill="none" stroke="#bfbfbf" points="1607.5,-0.5 1607.5,-19.5 1676.5,-19.5 1676.5,-0.5 1607.5,-0.5"/>
<text text-anchor="middle" x="1642" y="-7.5" font-family="Helvetica,sans-Serif" font-size="10.00">petscvec.h</text>
</a>
</g>
</g>
<!-- Node2&#45;&gt;Node3 -->
<g id="edge2" class="edge">
<title>Node2&#45;&gt;Node3</title>
<path fill="none" stroke="midnightblue" d="M1837.41,-56.68C1796.91,-47.21 1730.68,-31.73 1686.72,-21.45"/>
<polygon fill="midnightblue" stroke="midnightblue" points="1687.41,-18.02 1676.87,-19.15 1685.81,-24.84 1687.41,-18.02"/>
</g>
<!-- Node4 -->
<g id="node4" class="node">
<title>Node4</title>
<g id="a_node4"><a xlink:title=" ">
<polygon fill="none" stroke="#bfbfbf" points="1695,-0.5 1695,-19.5 1775,-19.5 1775,-0.5 1695,-0.5"/>
<text text-anchor="middle" x="1735" y="-7.5" font-family="Helvetica,sans-Serif" font-size="10.00">petscdmda.h</text>
</a>
</g>
</g>
<!-- Node2&#45;&gt;Node4 -->
<g id="edge3" class="edge">
<title>Node2&#45;&gt;Node4</title>
<path fill="none" stroke="midnightblue" d="M1851.13,-56.44C1828.22,-47.48 1792.02,-33.31 1766.13,-23.18"/>
<polygon fill="midnightblue" stroke="midnightblue" points="1767.35,-19.9 1756.76,-19.52 1764.8,-26.42 1767.35,-19.9"/>
</g>
<!-- Node5 -->
<g id="node5" class="node">
<title>Node5</title>
<g id="a_node5"><a xlink:title=" ">
<polygon fill="none" stroke="#bfbfbf" points="1793.5,-0.5 1793.5,-19.5 1862.5,-19.5 1862.5,-0.5 1793.5,-0.5"/>
<text text-anchor="middle" x="1828" y="-7.5" font-family="Helvetica,sans-Serif" font-size="10.00">petscksp.h</text>
</a>
</g>
</g>
<!-- Node2&#45;&gt;Node5 -->
<g id="edge4" class="edge">
<title>Node2&#45;&gt;Node5</title>
<path fill="none" stroke="midnightblue" d="M1865.57,-56.08C1859.15,-48.38 1849.69,-37.03 1841.88,-27.65"/>
<polygon fill="midnightblue" stroke="midnightblue" points="1844.38,-25.19 1835.29,-19.75 1839.01,-29.67 1844.38,-25.19"/>
</g>
<!-- Node6 -->
<g id="node6" class="node">
<title>Node6</title>
<g id="a_node6"><a xlink:title=" ">
<polygon fill="none" stroke="#bfbfbf" points="1881,-0.5 1881,-19.5 1955,-19.5 1955,-0.5 1881,-0.5"/>
<text text-anchor="middle" x="1918" y="-7.5" font-family="Helvetica,sans-Serif" font-size="10.00">petscsnes.h</text>
</a>
</g>
</g>
<!-- Node2&#45;&gt;Node6 -->
<g id="edge5" class="edge">
<title>Node2&#45;&gt;Node6</title>
<path fill="none" stroke="midnightblue" d="M1880.43,-56.08C1886.85,-48.38 1896.31,-37.03 1904.12,-27.65"/>
<polygon fill="midnightblue" stroke="midnightblue" points="1906.99,-29.67 1910.71,-19.75 1901.62,-25.19 1906.99,-29.67"/>
</g>
<!-- Node7 -->
<g id="node7" class="node">
<title>Node7</title>
<g id="a_node7"><a xlink:title=" ">
<polygon fill="none" stroke="#bfbfbf" points="602.5,-0.5 602.5,-19.5 703.5,-19.5 703.5,-0.5 602.5,-0.5"/>
<text text-anchor="middle" x="653" y="-7.5" font-family="Helvetica,sans-Serif" font-size="10.00">petscdmswarm.h</text>
</a>
</g>
</g>
<!-- Node2&#45;&gt;Node7 -->
<g id="edge6" class="edge">
<title>Node2&#45;&gt;Node7</title>
<path fill="none" stroke="midnightblue" d="M1837.31,-57.95C1832.51,-57.19 1827.65,-56.51 1823,-56 1400.43,-10.07 887.58,-9.15 713.86,-10.35"/>
<polygon fill="midnightblue" stroke="midnightblue" points="713.62,-6.85 703.64,-10.43 713.67,-13.85 713.62,-6.85"/>
</g>
<!-- Node8 -->
<g id="node8" class="node">
<title>Node8</title>
<g id="a_node8"><a xlink:title=" ">
<polygon fill="none" stroke="#bfbfbf" points="1973,-0.5 1973,-19.5 2023,-19.5 2023,-0.5 1973,-0.5"/>
<text text-anchor="middle" x="1998" y="-7.5" font-family="Helvetica,sans-Serif" font-size="10.00">stdio.h</text>
</a>
</g>
</g>
<!-- Node2&#45;&gt;Node8 -->
<g id="edge7" class="edge">
<title>Node2&#45;&gt;Node8</title>
<path fill="none" stroke="midnightblue" d="M1892.81,-56.44C1913.29,-47.6 1945.48,-33.69 1968.86,-23.59"/>
<polygon fill="midnightblue" stroke="midnightblue" points="1970.49,-26.7 1978.29,-19.52 1967.72,-20.27 1970.49,-26.7"/>
</g>
<!-- Node9 -->
<g id="node9" class="node">
<title>Node9</title>
<g id="a_node9"><a xlink:title=" ">
<polygon fill="none" stroke="#bfbfbf" points="2675.5,-0.5 2675.5,-19.5 2728.5,-19.5 2728.5,-0.5 2675.5,-0.5"/>
<text text-anchor="middle" x="2702" y="-7.5" font-family="Helvetica,sans-Serif" font-size="10.00">stdlib.h</text>
</a>
</g>
</g>
<!-- Node2&#45;&gt;Node9 -->
<g id="edge8" class="edge">
<title>Node2&#45;&gt;Node9</title>
<path fill="none" stroke="midnightblue" d="M1908.7,-58.03C1913.49,-57.26 1918.36,-56.55 1923,-56 2207.43,-22.31 2553.4,-13.57 2665.25,-11.55"/>
<polygon fill="midnightblue" stroke="midnightblue" points="2665.39,-15.05 2675.33,-11.38 2665.27,-8.05 2665.39,-15.05"/>
</g>
<!-- Node10 -->
<g id="node10" class="node">
<title>Node10</title>
<g id="a_node10"><a xlink:title=" ">
<polygon fill="none" stroke="#bfbfbf" points="2838.5,-0.5 2838.5,-19.5 2891.5,-19.5 2891.5,-0.5 2838.5,-0.5"/>
<text text-anchor="middle" x="2865" y="-7.5" font-family="Helvetica,sans-Serif" font-size="10.00">string.h</text>
</a>
</g>
</g>
<!-- Node2&#45;&gt;Node10 -->
<g id="edge9" class="edge">
<title>Node2&#45;&gt;Node10</title>
<path fill="none" stroke="midnightblue" d="M1908.81,-63.37C2027.06,-57.93 2415.79,-39.66 2737,-20 2767.68,-18.12 2802.48,-15.65 2828.04,-13.78"/>
<polygon fill="midnightblue" stroke="midnightblue" points="2828.33,-17.27 2838.04,-13.04 2827.81,-10.28 2828.33,-17.27"/>
</g>
<!-- Node11 -->
<g id="node11" class="node">
<title>Node11</title>
<g id="a_node11"><a xlink:title=" ">
<polygon fill="none" stroke="#bfbfbf" points="2041,-0.5 2041,-19.5 2097,-19.5 2097,-0.5 2041,-0.5"/>
<text text-anchor="middle" x="2069" y="-7.5" font-family="Helvetica,sans-Serif" font-size="10.00">unistd.h</text>
</a>
</g>
</g>
<!-- Node2&#45;&gt;Node11 -->
<g id="edge10" class="edge">
<title>Node2&#45;&gt;Node11</title>
<path fill="none" stroke="midnightblue" d="M1904.06,-56.44C1938.49,-46.96 1994.05,-31.65 2031.04,-21.46"/>
<polygon fill="midnightblue" stroke="midnightblue" points="2032.24,-24.76 2040.95,-18.73 2030.38,-18.01 2032.24,-24.76"/>
</g>
<!-- Node12&#45;&gt;Node2 -->
<g id="edge12" class="edge">
<title>Node12&#45;&gt;Node2</title>
<path fill="none" stroke="midnightblue" d="M1978.57,-792.14C2106.91,-786.57 2794.55,-753.97 2862,-692 2902.37,-654.91 2886,-625.83 2886,-571 2886,-571 2886,-571 2886,-457 2886,-254.97 2783.42,-170.38 2590,-112 2463.74,-73.89 2056.74,-68.04 1919.04,-67.15"/>
<polygon fill="midnightblue" stroke="midnightblue" points="1918.85,-63.65 1908.83,-67.09 1918.81,-70.65 1918.85,-63.65"/>
</g>
<!-- Node13 -->
<g id="node13" class="node">
<title>Node13</title>
<g id="a_node13"><a xlink:href="logging_8h.html" target="_top" xlink:title="Logging utilities and macros for PETSc&#45;based applications.">
<polygon fill="none" stroke="black" points="1927,-728.5 1927,-747.5 1989,-747.5 1989,-728.5 1927,-728.5"/>
<text text-anchor="middle" x="1958" y="-735.5" font-family="Helvetica,sans-Serif" font-size="10.00">logging.h</text>
</a>
</g>
</g>
<!-- Node12&#45;&gt;Node13 -->
<g id="edge13" class="edge">
<title>Node12&#45;&gt;Node13</title>
<path fill="none" stroke="midnightblue" d="M1958,-784.08C1958,-777.01 1958,-766.86 1958,-757.99"/>
<polygon fill="midnightblue" stroke="midnightblue" points="1961.5,-757.75 1958,-747.75 1954.5,-757.75 1961.5,-757.75"/>
</g>
<!-- Node13&#45;&gt;Node2 -->
<g id="edge19" class="edge">
<title>Node13&#45;&gt;Node2</title>
<path fill="none" stroke="midnightblue" d="M1989.41,-736.13C2139.01,-731.56 2772,-707.48 2772,-627 2772,-627 2772,-627 2772,-513 2772,-309.29 2743.91,-174.43 2550,-112 2432.1,-74.04 2051.02,-68.08 1918.74,-67.16"/>
<polygon fill="midnightblue" stroke="midnightblue" points="1918.57,-63.66 1908.55,-67.1 1918.53,-70.66 1918.57,-63.66"/>
</g>
<!-- Node13&#45;&gt;Node9 -->
<g id="edge15" class="edge">
<title>Node13&#45;&gt;Node9</title>
<path fill="none" stroke="midnightblue" d="M1989.15,-736.5C2146.68,-733.55 2848,-715.45 2848,-627 2848,-627 2848,-627 2848,-457 2848,-381.31 2886,-366.69 2886,-291 2886,-291 2886,-291 2886,-121 2886,-53.14 2792.65,-26.14 2738.93,-16.22"/>
<polygon fill="midnightblue" stroke="midnightblue" points="2739.21,-12.72 2728.76,-14.46 2738.01,-19.62 2739.21,-12.72"/>
</g>
<!-- Node13&#45;&gt;Node10 -->
<g id="edge16" class="edge">
<title>Node13&#45;&gt;Node10</title>
<path fill="none" stroke="midnightblue" d="M1989.2,-736.73C2116.04,-735.4 2593.15,-728.06 2739,-692 2834.38,-668.42 2924,-669.25 2924,-571 2924,-571 2924,-571 2924,-121 2924,-84.02 2897.79,-47.47 2880.31,-27.21"/>
<polygon fill="midnightblue" stroke="midnightblue" points="2882.74,-24.67 2873.45,-19.56 2877.53,-29.34 2882.74,-24.67"/>
</g>
<!-- Node14 -->
<g id="node14" class="node">
<title>Node14</title>
<g id="a_node14"><a xlink:title=" ">
<polygon fill="none" stroke="#bfbfbf" points="2559,-168.5 2559,-187.5 2611,-187.5 2611,-168.5 2559,-168.5"/>
<text text-anchor="middle" x="2585" y="-175.5" font-family="Helvetica,sans-Serif" font-size="10.00">petsc.h</text>
</a>
</g>
</g>
<!-- Node13&#45;&gt;Node14 -->
<g id="edge14" class="edge">
<title>Node13&#45;&gt;Node14</title>
<path fill="none" stroke="midnightblue" d="M1989.24,-735.69C2129.71,-729.42 2696,-699.62 2696,-627 2696,-627 2696,-627 2696,-569 2696,-420.18 2620.3,-251.19 2593.93,-196.83"/>
<polygon fill="midnightblue" stroke="midnightblue" points="2596.91,-194.95 2589.35,-187.53 2590.63,-198.05 2596.91,-194.95"/>
</g>
<!-- Node15 -->
<g id="node15" class="node">
<title>Node15</title>
<g id="a_node15"><a xlink:title=" ">
<polygon fill="none" stroke="#bfbfbf" points="1655,-112.5 1655,-131.5 1723,-131.5 1723,-112.5 1655,-112.5"/>
<text text-anchor="middle" x="1689" y="-119.5" font-family="Helvetica,sans-Serif" font-size="10.00">petscsys.h</text>
</a>
</g>
</g>
<!-- Node13&#45;&gt;Node15 -->
<g id="edge17" class="edge">
<title>Node13&#45;&gt;Node15</title>
<path fill="none" stroke="midnightblue" d="M1989.37,-733.28C2043.34,-724.93 2148,-699.42 2148,-627 2148,-627 2148,-627 2148,-457 2148,-303.75 1961.41,-394.8 1841,-300 1779.04,-251.21 1723.41,-174.26 1700.32,-140.2"/>
<polygon fill="midnightblue" stroke="midnightblue" points="1703.16,-138.15 1694.69,-131.79 1697.34,-142.04 1703.16,-138.15"/>
</g>
<!-- Node16 -->
<g id="node16" class="node">
<title>Node16</title>
<g id="a_node16"><a xlink:title=" ">
<polygon fill="none" stroke="#bfbfbf" points="146.5,-672.5 146.5,-691.5 199.5,-691.5 199.5,-672.5 146.5,-672.5"/>
<text text-anchor="middle" x="173" y="-679.5" font-family="Helvetica,sans-Serif" font-size="10.00">ctype.h</text>
</a>
</g>
</g>
<!-- Node13&#45;&gt;Node16 -->
<g id="edge18" class="edge">
<title>Node13&#45;&gt;Node16</title>
<path fill="none" stroke="midnightblue" d="M1926.78,-737.01C1721.64,-736.93 564.28,-734.57 214,-692 212.7,-691.84 211.38,-691.66 210.04,-691.46"/>
<polygon fill="midnightblue" stroke="midnightblue" points="210.24,-687.94 199.78,-689.64 209.02,-694.84 210.24,-687.94"/>
</g>
<!-- Node17 -->
<g id="node17" class="node">
<title>Node17</title>
<g id="a_node17"><a xlink:href="AnalyticalSolution_8h.html" target="_top" xlink:title=" ">
<polygon fill="none" stroke="black" points="1389,-672.5 1389,-691.5 1503,-691.5 1503,-672.5 1389,-672.5"/>
<text text-anchor="middle" x="1446" y="-679.5" font-family="Helvetica,sans-Serif" font-size="10.00">AnalyticalSolution.h</text>
</a>
</g>
</g>
<!-- Node13&#45;&gt;Node17 -->
<g id="edge20" class="edge">
<title>Node13&#45;&gt;Node17</title>
<path fill="none" stroke="midnightblue" d="M1926.83,-734.06C1845.41,-725.89 1625.55,-702.76 1513.51,-690.63"/>
<polygon fill="midnightblue" stroke="midnightblue" points="1513.65,-687.13 1503.34,-689.53 1512.9,-694.09 1513.65,-687.13"/>
</g>
<!-- Node30 -->
<g id="node30" class="node">
<title>Node30</title>
<g id="a_node30"><a xlink:href="Boundaries_8h.html" target="_top" xlink:title=" ">
<polygon fill="none" stroke="black" points="1313,-392.5 1313,-411.5 1393,-411.5 1393,-392.5 1313,-392.5"/>
<text text-anchor="middle" x="1353" y="-399.5" font-family="Helvetica,sans-Serif" font-size="10.00">Boundaries.h</text>
</a>
</g>
</g>
<!-- Node13&#45;&gt;Node30 -->
<g id="edge149" class="edge">
<title>Node13&#45;&gt;Node30</title>
<path fill="none" stroke="midnightblue" d="M1926.89,-730.15C1898.3,-722.4 1855.72,-708.66 1821,-692 1635.98,-603.22 1606.9,-550.29 1429,-448 1409.82,-436.97 1387.72,-425.3 1372.12,-416.61"/>
<polygon fill="midnightblue" stroke="midnightblue" points="1373.75,-413.51 1363.32,-411.62 1370.29,-419.6 1373.75,-413.51"/>
</g>
<!-- Node17&#45;&gt;Node2 -->
<g id="edge28" class="edge">
<title>Node17&#45;&gt;Node2</title>
<path fill="none" stroke="midnightblue" d="M1468.32,-672.46C1542.49,-642.68 1780.63,-535.33 1863,-356 1866.71,-347.92 1865.96,-344.38 1863,-336 1856.17,-316.62 1840.83,-319.38 1834,-300 1831.04,-291.62 1833.2,-288.85 1834,-280 1840.59,-207.39 1859.58,-122.55 1868.4,-85.68"/>
<polygon fill="midnightblue" stroke="midnightblue" points="1871.83,-86.39 1870.78,-75.85 1865.02,-84.74 1871.83,-86.39"/>
</g>
<!-- Node17&#45;&gt;Node7 -->
<g id="edge22" class="edge">
<title>Node17&#45;&gt;Node7</title>
<path fill="none" stroke="midnightblue" d="M1388.87,-679.7C1120.73,-673.23 0,-641.93 0,-571 0,-571 0,-571 0,-121 0,-80.77 26.58,-73.08 63,-56 155.48,-12.62 460.31,-9.48 591.77,-10.24"/>
<polygon fill="midnightblue" stroke="midnightblue" points="592.04,-13.74 602.06,-10.31 592.09,-6.74 592.04,-13.74"/>
</g>
<!-- Node17&#45;&gt;Node9 -->
<g id="edge23" class="edge">
<title>Node17&#45;&gt;Node9</title>
<path fill="none" stroke="midnightblue" d="M1503.3,-681.73C1762.19,-683.54 2810,-674.13 2810,-403 2810,-403 2810,-403 2810,-345 2810,-269.31 2848,-254.69 2848,-179 2848,-179 2848,-179 2848,-121 2848,-66.24 2781.66,-35.32 2738.42,-20.99"/>
<polygon fill="midnightblue" stroke="midnightblue" points="2739.37,-17.62 2728.78,-17.94 2737.26,-24.29 2739.37,-17.62"/>
</g>
<!-- Node17&#45;&gt;Node13 -->
<g id="edge145" class="edge">
<title>Node17&#45;&gt;Node13</title>
<path fill="none" stroke="midnightblue" d="M1503.33,-688.59C1607.66,-699.24 1825.88,-722.27 1916.88,-732.24"/>
<polygon fill="midnightblue" stroke="midnightblue" points="1916.5,-735.72 1926.82,-733.33 1917.27,-728.76 1916.5,-735.72"/>
</g>
<!-- Node18 -->
<g id="node18" class="node">
<title>Node18</title>
<g id="a_node18"><a xlink:title=" ">
<polygon fill="none" stroke="#bfbfbf" points="691.5,-112.5 691.5,-131.5 752.5,-131.5 752.5,-112.5 691.5,-112.5"/>
<text text-anchor="middle" x="722" y="-119.5" font-family="Helvetica,sans-Serif" font-size="10.00">petscpf.h</text>
</a>
</g>
</g>
<!-- Node17&#45;&gt;Node18 -->
<g id="edge21" class="edge">
<title>Node17&#45;&gt;Node18</title>
<path fill="none" stroke="midnightblue" d="M1388.99,-679.75C1222.43,-675.8 744.23,-662.28 679,-636 549.46,-583.81 462.78,-530.46 481,-392 487.72,-340.91 482.06,-322.64 511,-280 558.77,-209.64 648.72,-158.56 694.18,-135.94"/>
<polygon fill="midnightblue" stroke="midnightblue" points="695.73,-139.08 703.18,-131.55 692.66,-132.79 695.73,-139.08"/>
</g>
<!-- Node19 -->
<g id="node19" class="node">
<title>Node19</title>
<g id="a_node19"><a xlink:title=" ">
<polygon fill="none" stroke="#bfbfbf" points="508,-112.5 508,-131.5 556,-131.5 556,-112.5 508,-112.5"/>
<text text-anchor="middle" x="532" y="-119.5" font-family="Helvetica,sans-Serif" font-size="10.00">time.h</text>
</a>
</g>
</g>
<!-- Node17&#45;&gt;Node19 -->
<g id="edge24" class="edge">
<title>Node17&#45;&gt;Node19</title>
<path fill="none" stroke="midnightblue" d="M1388.71,-681.42C1227.28,-682.03 771.14,-679.74 629,-636 532.48,-606.3 490.01,-568.01 476,-468 458.44,-342.59 506.72,-192.38 525.17,-141.15"/>
<polygon fill="midnightblue" stroke="midnightblue" points="528.54,-142.11 528.71,-131.51 521.97,-139.69 528.54,-142.11"/>
</g>
<!-- Node20 -->
<g id="node20" class="node">
<title>Node20</title>
<g id="a_node20"><a xlink:title=" ">
<polygon fill="none" stroke="#bfbfbf" points="2117.5,-112.5 2117.5,-131.5 2168.5,-131.5 2168.5,-112.5 2117.5,-112.5"/>
<text text-anchor="middle" x="2143" y="-119.5" font-family="Helvetica,sans-Serif" font-size="10.00">math.h</text>
</a>
</g>
</g>
<!-- Node17&#45;&gt;Node20 -->
<g id="edge25" class="edge">
<title>Node17&#45;&gt;Node20</title>
<path fill="none" stroke="midnightblue" d="M1503.25,-679.53C1589.1,-676.38 1755.84,-666.52 1894,-636 2125.45,-584.87 2270.44,-623.22 2378,-412 2424.99,-319.72 2666.15,-550.31 2237,-168 2220.09,-152.93 2197.24,-141.84 2178.3,-134.44"/>
<polygon fill="midnightblue" stroke="midnightblue" points="2179.4,-131.12 2168.81,-130.91 2176.96,-137.68 2179.4,-131.12"/>
</g>
<!-- Node21 -->
<g id="node21" class="node">
<title>Node21</title>
<g id="a_node21"><a xlink:title=" ">
<polygon fill="none" stroke="#bfbfbf" points="1443,-112.5 1443,-131.5 1517,-131.5 1517,-112.5 1443,-112.5"/>
<text text-anchor="middle" x="1480" y="-119.5" font-family="Helvetica,sans-Serif" font-size="10.00">petsctime.h</text>
</a>
</g>
</g>
<!-- Node17&#45;&gt;Node21 -->
<g id="edge26" class="edge">
<title>Node17&#45;&gt;Node21</title>
<path fill="none" stroke="midnightblue" d="M1466.4,-672.36C1481.96,-664.83 1502.88,-652.52 1516,-636 1532.44,-615.31 1531.49,-606.04 1536,-580 1565.34,-410.6 1505.85,-203.25 1486.08,-141.31"/>
<polygon fill="midnightblue" stroke="midnightblue" points="1489.4,-140.19 1482.98,-131.76 1482.74,-142.35 1489.4,-140.19"/>
</g>
<!-- Node22 -->
<g id="node22" class="node">
<title>Node22</title>
<g id="a_node22"><a xlink:title=" ">
<polygon fill="none" stroke="#bfbfbf" points="358.5,-112.5 358.5,-131.5 477.5,-131.5 477.5,-112.5 358.5,-112.5"/>
<text text-anchor="middle" x="418" y="-119.5" font-family="Helvetica,sans-Serif" font-size="10.00">petscdmcomposite.h</text>
</a>
</g>
</g>
<!-- Node17&#45;&gt;Node22 -->
<g id="edge27" class="edge">
<title>Node17&#45;&gt;Node22</title>
<path fill="none" stroke="midnightblue" d="M1388.85,-679.68C1207.2,-675.26 650.5,-659.89 573,-636 382.59,-577.3 190,-602.25 190,-403 190,-403 190,-403 190,-345 190,-236.18 324.97,-163.4 387.22,-135.61"/>
<polygon fill="midnightblue" stroke="midnightblue" points="388.78,-138.75 396.55,-131.54 385.98,-132.33 388.78,-138.75"/>
</g>
<!-- Node23 -->
<g id="node23" class="node">
<title>Node23</title>
<g id="a_node23"><a xlink:href="ParticleSwarm_8h.html" target="_top" xlink:title="Header file for Particle Motion and migration related functions.">
<polygon fill="none" stroke="black" points="1920,-560.5 1920,-579.5 2016,-579.5 2016,-560.5 1920,-560.5"/>
<text text-anchor="middle" x="1968" y="-567.5" font-family="Helvetica,sans-Serif" font-size="10.00">ParticleSwarm.h</text>
</a>
</g>
</g>
<!-- Node17&#45;&gt;Node23 -->
<g id="edge29" class="edge">
<title>Node17&#45;&gt;Node23</title>
<path fill="none" stroke="midnightblue" d="M1503.16,-673.57C1559.98,-665.78 1649.45,-652.39 1726,-636 1798.92,-620.39 1882.69,-596.54 1930.09,-582.49"/>
<polygon fill="midnightblue" stroke="midnightblue" points="1931.33,-585.77 1939.91,-579.56 1929.33,-579.06 1931.33,-585.77"/>
</g>
<!-- Node25 -->
<g id="node25" class="node">
<title>Node25</title>
<g id="a_node25"><a xlink:href="walkingsearch_8h.html" target="_top" xlink:title="Header file for particle location functions using the walking search algorithm.">
<polygon fill="none" stroke="black" points="2078,-224.5 2078,-243.5 2174,-243.5 2174,-224.5 2078,-224.5"/>
<text text-anchor="middle" x="2126" y="-231.5" font-family="Helvetica,sans-Serif" font-size="10.00">walkingsearch.h</text>
</a>
</g>
</g>
<!-- Node17&#45;&gt;Node25 -->
<g id="edge143" class="edge">
<title>Node17&#45;&gt;Node25</title>
<path fill="none" stroke="midnightblue" d="M1503.11,-676.47C1631.4,-665.45 1938.01,-634.07 2025,-580 2106.83,-529.14 2129.68,-502.76 2162,-412 2182.03,-355.75 2152.35,-285.27 2135.83,-252.83"/>
<polygon fill="midnightblue" stroke="midnightblue" points="2138.77,-250.91 2131,-243.71 2132.58,-254.18 2138.77,-250.91"/>
</g>
<!-- Node26 -->
<g id="node26" class="node">
<title>Node26</title>
<g id="a_node26"><a xlink:href="setup_8h.html" target="_top" xlink:title=" ">
<polygon fill="none" stroke="black" points="1052.5,-168.5 1052.5,-187.5 1105.5,-187.5 1105.5,-168.5 1052.5,-168.5"/>
<text text-anchor="middle" x="1079" y="-175.5" font-family="Helvetica,sans-Serif" font-size="10.00">setup.h</text>
</a>
</g>
</g>
<!-- Node17&#45;&gt;Node26 -->
<g id="edge147" class="edge">
<title>Node17&#45;&gt;Node26</title>
<path fill="none" stroke="midnightblue" d="M1395.5,-672.46C1258.74,-646.94 892,-566.28 892,-459 892,-459 892,-459 892,-345 892,-265.28 988.68,-212.9 1043.14,-190.86"/>
<polygon fill="midnightblue" stroke="midnightblue" points="1044.42,-194.12 1052.47,-187.22 1041.88,-187.6 1044.42,-194.12"/>
</g>
<!-- Node28 -->
<g id="node28" class="node">
<title>Node28</title>
<g id="a_node28"><a xlink:href="grid_8h.html" target="_top" xlink:title="Public interface for grid, solver, and metric setup routines.">
<polygon fill="none" stroke="black" points="1002,-112.5 1002,-131.5 1046,-131.5 1046,-112.5 1002,-112.5"/>
<text text-anchor="middle" x="1024" y="-119.5" font-family="Helvetica,sans-Serif" font-size="10.00">grid.h</text>
</a>
</g>
</g>
<!-- Node17&#45;&gt;Node28 -->
<g id="edge144" class="edge">
<title>Node17&#45;&gt;Node28</title>
<path fill="none" stroke="midnightblue" d="M1388.73,-679.87C1283.53,-677.06 1052.73,-667.53 861,-636 761.44,-619.63 705.03,-657.97 641,-580 512.07,-423 661.89,-267.53 839,-168 887.86,-140.54 953.15,-129.72 991.68,-125.54"/>
<polygon fill="midnightblue" stroke="midnightblue" points="992.2,-129 1001.8,-124.52 991.5,-122.04 992.2,-129"/>
</g>
<!-- Node29 -->
<g id="node29" class="node">
<title>Node29</title>
<g id="a_node29"><a xlink:href="io_8h.html" target="_top" xlink:title="Public interface for data input/output routines.">
<polygon fill="none" stroke="black" points="1230.5,-448.5 1230.5,-467.5 1265.5,-467.5 1265.5,-448.5 1230.5,-448.5"/>
<text text-anchor="middle" x="1248" y="-455.5" font-family="Helvetica,sans-Serif" font-size="10.00">io.h</text>
</a>
</g>
</g>
<!-- Node17&#45;&gt;Node29 -->
<g id="edge146" class="edge">
<title>Node17&#45;&gt;Node29</title>
<path fill="none" stroke="midnightblue" d="M1438.24,-672.3C1408.55,-639.01 1301.89,-519.42 1262.63,-475.41"/>
<polygon fill="midnightblue" stroke="midnightblue" points="1265.19,-473.02 1255.92,-467.88 1259.97,-477.68 1265.19,-473.02"/>
</g>
<!-- Node31 -->
<g id="node31" class="node">
<title>Node31</title>
<g id="a_node31"><a xlink:href="interpolation_8h.html" target="_top" xlink:title=" ">
<polygon fill="none" stroke="black" points="870,-616.5 870,-635.5 958,-635.5 958,-616.5 870,-616.5"/>
<text text-anchor="middle" x="914" y="-623.5" font-family="Helvetica,sans-Serif" font-size="10.00">interpolation.h</text>
</a>
</g>
</g>
<!-- Node17&#45;&gt;Node31 -->
<g id="edge148" class="edge">
<title>Node17&#45;&gt;Node31</title>
<path fill="none" stroke="midnightblue" d="M1388.97,-676.68C1299.82,-669.69 1122.1,-654.75 972,-636 970.75,-635.84 969.48,-635.68 968.21,-635.51"/>
<polygon fill="midnightblue" stroke="midnightblue" points="968.68,-632.05 958.3,-634.15 967.73,-638.98 968.68,-632.05"/>
</g>
<!-- Node23&#45;&gt;Node2 -->
<g id="edge34" class="edge">
<title>Node23&#45;&gt;Node2</title>
<path fill="none" stroke="midnightblue" d="M1988.04,-560.36C2005.4,-552.35 2030.68,-539.37 2050,-524 2076.11,-503.23 2079.16,-494.06 2100,-468 2206.8,-334.44 2359.45,-239.96 2246,-112 2224.6,-87.86 2013.52,-74.16 1918.7,-69.18"/>
<polygon fill="midnightblue" stroke="midnightblue" points="1918.71,-65.67 1908.55,-68.65 1918.35,-72.66 1918.71,-65.67"/>
</g>
<!-- Node23&#45;&gt;Node7 -->
<g id="edge31" class="edge">
<title>Node23&#45;&gt;Node7</title>
<path fill="none" stroke="midnightblue" d="M1919.83,-564.18C1840.58,-556.19 1677.72,-539.54 1540,-524 1207.86,-486.52 76,-513.24 76,-179 76,-179 76,-179 76,-121 76,-68.9 443.64,-29.89 592.01,-16.26"/>
<polygon fill="midnightblue" stroke="midnightblue" points="592.66,-19.72 602.3,-15.33 592.02,-12.75 592.66,-19.72"/>
</g>
<!-- Node23&#45;&gt;Node13 -->
<g id="edge35" class="edge">
<title>Node23&#45;&gt;Node13</title>
<path fill="none" stroke="midnightblue" d="M1967.48,-579.57C1965.94,-605.23 1961.32,-681.92 1959.15,-717.93"/>
<polygon fill="midnightblue" stroke="midnightblue" points="1955.65,-717.88 1958.54,-728.08 1962.63,-718.3 1955.65,-717.88"/>
</g>
<!-- Node23&#45;&gt;Node14 -->
<g id="edge30" class="edge">
<title>Node23&#45;&gt;Node14</title>
<path fill="none" stroke="midnightblue" d="M2004.22,-560.48C2036.22,-552.5 2083.9,-539.49 2124,-524 2271.64,-466.95 2316.35,-457.25 2438,-356 2497.52,-306.46 2551.19,-230.45 2573.74,-196.47"/>
<polygon fill="midnightblue" stroke="midnightblue" points="2576.94,-197.98 2579.49,-187.7 2571.08,-194.14 2576.94,-197.98"/>
</g>
<!-- Node23&#45;&gt;Node20 -->
<g id="edge33" class="edge">
<title>Node23&#45;&gt;Node20</title>
<path fill="none" stroke="midnightblue" d="M1981.37,-560.36C1993.77,-551.97 2012.31,-538.42 2026,-524 2126.74,-417.93 2143.54,-379.36 2199,-244 2212.24,-211.68 2236.3,-198.34 2219,-168 2210.13,-152.45 2193.54,-141.72 2178.12,-134.65"/>
<polygon fill="midnightblue" stroke="midnightblue" points="2179.32,-131.36 2168.75,-130.71 2176.61,-137.81 2179.32,-131.36"/>
</g>
<!-- Node24 -->
<g id="node24" class="node">
<title>Node24</title>
<g id="a_node24"><a xlink:title=" ">
<polygon fill="none" stroke="#bfbfbf" points="2112,-168.5 2112,-187.5 2174,-187.5 2174,-168.5 2112,-168.5"/>
<text text-anchor="middle" x="2143" y="-175.5" font-family="Helvetica,sans-Serif" font-size="10.00">stdbool.h</text>
</a>
</g>
</g>
<!-- Node23&#45;&gt;Node24 -->
<g id="edge32" class="edge">
<title>Node23&#45;&gt;Node24</title>
<path fill="none" stroke="midnightblue" d="M1975.7,-560.29C1983.42,-551.41 1995.5,-537.1 2005,-524 2026.64,-494.15 2172.7,-279.4 2183,-244 2185.48,-235.47 2186.16,-232.31 2183,-224 2178.66,-212.6 2169.97,-202.24 2161.79,-194.34"/>
<polygon fill="midnightblue" stroke="midnightblue" points="2164.04,-191.66 2154.27,-187.57 2159.36,-196.86 2164.04,-191.66"/>
</g>
<!-- Node23&#45;&gt;Node25 -->
<g id="edge36" class="edge">
<title>Node23&#45;&gt;Node25</title>
<path fill="none" stroke="midnightblue" d="M1971.49,-560.42C1979.64,-540.51 2000.68,-489.7 2020,-448 2053.96,-374.69 2097.91,-289.05 2116.76,-252.73"/>
<polygon fill="midnightblue" stroke="midnightblue" points="2119.87,-254.33 2121.38,-243.84 2113.66,-251.1 2119.87,-254.33"/>
</g>
<!-- Node23&#45;&gt;Node29 -->
<g id="edge142" class="edge">
<title>Node23&#45;&gt;Node29</title>
<path fill="none" stroke="midnightblue" d="M1919.92,-561.65C1781.34,-540.48 1384.07,-479.79 1275.63,-463.22"/>
<polygon fill="midnightblue" stroke="midnightblue" points="1275.92,-459.72 1265.5,-461.67 1274.86,-466.64 1275.92,-459.72"/>
</g>
<!-- Node36 -->
<g id="node36" class="node">
<title>Node36</title>
<g id="a_node36"><a xlink:href="Metric_8h.html" target="_top" xlink:title=" ">
<polygon fill="none" stroke="black" points="2554,-504.5 2554,-523.5 2610,-523.5 2610,-504.5 2554,-504.5"/>
<text text-anchor="middle" x="2582" y="-511.5" font-family="Helvetica,sans-Serif" font-size="10.00">Metric.h</text>
</a>
</g>
</g>
<!-- Node23&#45;&gt;Node36 -->
<g id="edge135" class="edge">
<title>Node23&#45;&gt;Node36</title>
<path fill="none" stroke="midnightblue" d="M2016.1,-564.06C2029.65,-562.71 2044.4,-561.26 2058,-560 2239.75,-543.11 2457.18,-525.16 2543.74,-518.1"/>
<polygon fill="midnightblue" stroke="midnightblue" points="2544.19,-521.58 2553.87,-517.28 2543.62,-514.6 2544.19,-521.58"/>
</g>
<!-- Node25&#45;&gt;Node2 -->
<g id="edge40" class="edge">
<title>Node25&#45;&gt;Node2</title>
<path fill="none" stroke="midnightblue" d="M2112.75,-224.31C2071.6,-197.3 1945.65,-114.67 1894.72,-81.25"/>
<polygon fill="midnightblue" stroke="midnightblue" points="1896.4,-78.16 1886.12,-75.61 1892.56,-84.02 1896.4,-78.16"/>
</g>
<!-- Node25&#45;&gt;Node13 -->
<g id="edge41" class="edge">
<title>Node25&#45;&gt;Node13</title>
<path fill="none" stroke="midnightblue" d="M2151.35,-243.58C2214.9,-266.89 2376,-337.72 2376,-457 2376,-627 2376,-627 2376,-627 2376,-704.35 2104.89,-728.46 1999.35,-734.91"/>
<polygon fill="midnightblue" stroke="midnightblue" points="1998.85,-731.43 1989.08,-735.52 1999.26,-738.42 1998.85,-731.43"/>
</g>
<!-- Node25&#45;&gt;Node14 -->
<g id="edge37" class="edge">
<title>Node25&#45;&gt;Node14</title>
<path fill="none" stroke="midnightblue" d="M2174.25,-227.32C2266.64,-216.45 2466.63,-192.93 2548.72,-183.27"/>
<polygon fill="midnightblue" stroke="midnightblue" points="2549.29,-186.73 2558.81,-182.08 2548.47,-179.77 2549.29,-186.73"/>
</g>
<!-- Node25&#45;&gt;Node20 -->
<g id="edge39" class="edge">
<title>Node25&#45;&gt;Node20</title>
<path fill="none" stroke="midnightblue" d="M2118.79,-224.12C2109.51,-211.56 2095.43,-187.92 2103,-168 2107.34,-156.6 2116.03,-146.24 2124.21,-138.34"/>
<polygon fill="midnightblue" stroke="midnightblue" points="2126.64,-140.86 2131.73,-131.57 2121.96,-135.66 2126.64,-140.86"/>
</g>
<!-- Node25&#45;&gt;Node24 -->
<g id="edge38" class="edge">
<title>Node25&#45;&gt;Node24</title>
<path fill="none" stroke="midnightblue" d="M2128.81,-224.08C2131.08,-216.85 2134.37,-206.41 2137.21,-197.4"/>
<polygon fill="midnightblue" stroke="midnightblue" points="2140.58,-198.34 2140.25,-187.75 2133.9,-196.24 2140.58,-198.34"/>
</g>
<!-- Node25&#45;&gt;Node26 -->
<g id="edge42" class="edge">
<title>Node25&#45;&gt;Node26</title>
<path fill="none" stroke="midnightblue" d="M2077.71,-230.66C1898.61,-221.69 1275.03,-189.52 1116.05,-181.06"/>
<polygon fill="midnightblue" stroke="midnightblue" points="1116.01,-177.55 1105.84,-180.51 1115.64,-184.54 1116.01,-177.55"/>
</g>
<!-- Node26&#45;&gt;Node2 -->
<g id="edge52" class="edge">
<title>Node26&#45;&gt;Node2</title>
<path fill="none" stroke="midnightblue" d="M1090.96,-168.3C1111.85,-153.63 1156.91,-124.38 1200,-112 1318.21,-78.03 1695.56,-69.51 1827.18,-67.55"/>
<polygon fill="midnightblue" stroke="midnightblue" points="1827.38,-71.04 1837.33,-67.4 1827.28,-64.04 1827.38,-71.04"/>
</g>
<!-- Node26&#45;&gt;Node7 -->
<g id="edge44" class="edge">
<title>Node26&#45;&gt;Node7</title>
<path fill="none" stroke="midnightblue" d="M1078.33,-168.43C1076.77,-154.49 1071.65,-126.95 1055,-112 1004.85,-66.97 812.86,-33.76 713.45,-19.19"/>
<polygon fill="midnightblue" stroke="midnightblue" points="713.95,-15.72 703.55,-17.75 712.94,-22.65 713.95,-15.72"/>
</g>
<!-- Node26&#45;&gt;Node9 -->
<g id="edge45" class="edge">
<title>Node26&#45;&gt;Node9</title>
<path fill="none" stroke="midnightblue" d="M1103.96,-168.46C1147.31,-154.03 1239.59,-125.13 1320,-112 1582.34,-69.17 1651.86,-94.97 1917,-76 2205.4,-55.37 2552.87,-24.48 2665.13,-14.35"/>
<polygon fill="midnightblue" stroke="midnightblue" points="2665.6,-17.82 2675.25,-13.43 2664.97,-10.85 2665.6,-17.82"/>
</g>
<!-- Node26&#45;&gt;Node13 -->
<g id="edge129" class="edge">
<title>Node26&#45;&gt;Node13</title>
<path fill="none" stroke="midnightblue" d="M1052.29,-182.21C1014.31,-187.43 943.09,-199.74 887,-224 629.58,-335.33 236.75,-414.66 409,-636 471.23,-715.97 529.68,-677.76 630,-692 887.49,-728.55 1721.6,-735.63 1916.85,-736.79"/>
<polygon fill="midnightblue" stroke="midnightblue" points="1916.95,-740.29 1926.97,-736.85 1916.99,-733.29 1916.95,-740.29"/>
</g>
<!-- Node26&#45;&gt;Node15 -->
<g id="edge49" class="edge">
<title>Node26&#45;&gt;Node15</title>
<path fill="none" stroke="midnightblue" d="M1105.6,-174.64C1200.87,-166.21 1525.67,-137.46 1644.76,-126.92"/>
<polygon fill="midnightblue" stroke="midnightblue" points="1645.32,-130.38 1654.97,-126.01 1644.7,-123.41 1645.32,-130.38"/>
</g>
<!-- Node26&#45;&gt;Node17 -->
<g id="edge132" class="edge">
<title>Node26&#45;&gt;Node17</title>
<path fill="none" stroke="midnightblue" d="M1061.23,-187.52C1017.56,-207.25 910,-260.91 910,-345 910,-459 910,-459 910,-459 910,-563.55 1258.35,-642.83 1393.45,-670.41"/>
<polygon fill="midnightblue" stroke="midnightblue" points="1393.07,-673.91 1403.57,-672.46 1394.46,-667.05 1393.07,-673.91"/>
</g>
<!-- Node26&#45;&gt;Node18 -->
<g id="edge43" class="edge">
<title>Node26&#45;&gt;Node18</title>
<path fill="none" stroke="midnightblue" d="M1052.46,-172.99C990.7,-163.64 837,-140.39 763.04,-129.21"/>
<polygon fill="midnightblue" stroke="midnightblue" points="763.14,-125.68 752.72,-127.65 762.09,-132.6 763.14,-125.68"/>
</g>
<!-- Node26&#45;&gt;Node19 -->
<g id="edge46" class="edge">
<title>Node26&#45;&gt;Node19</title>
<path fill="none" stroke="midnightblue" d="M1052.25,-174.36C961.72,-165.42 666.91,-136.32 566.14,-126.37"/>
<polygon fill="midnightblue" stroke="midnightblue" points="566.48,-122.89 556.19,-125.39 565.79,-129.85 566.48,-122.89"/>
</g>
<!-- Node26&#45;&gt;Node20 -->
<g id="edge47" class="edge">
<title>Node26&#45;&gt;Node20</title>
<path fill="none" stroke="midnightblue" d="M1105.57,-175.65C1250.05,-168.32 1940.84,-133.26 2107,-124.83"/>
<polygon fill="midnightblue" stroke="midnightblue" points="2107.36,-128.31 2117.17,-124.31 2107.01,-121.32 2107.36,-128.31"/>
</g>
<!-- Node26&#45;&gt;Node21 -->
<g id="edge48" class="edge">
<title>Node26&#45;&gt;Node21</title>
<path fill="none" stroke="midnightblue" d="M1105.73,-174.18C1163.37,-167.98 1303.87,-152.2 1432.79,-131.93"/>
<polygon fill="midnightblue" stroke="midnightblue" points="1433.51,-135.36 1442.84,-130.34 1432.41,-128.45 1433.51,-135.36"/>
</g>
<!-- Node26&#45;&gt;Node22 -->
<g id="edge50" class="edge">
<title>Node26&#45;&gt;Node22</title>
<path fill="none" stroke="midnightblue" d="M1052.38,-175.25C970.04,-169.77 712.17,-152.11 499,-132 495.33,-131.65 491.57,-131.29 487.78,-130.9"/>
<polygon fill="midnightblue" stroke="midnightblue" points="488,-127.41 477.69,-129.86 487.28,-134.37 488,-127.41"/>
</g>
<!-- Node26&#45;&gt;Node23 -->
<g id="edge53" class="edge">
<title>Node26&#45;&gt;Node23</title>
<path fill="none" stroke="midnightblue" d="M1082.11,-187.75C1086.84,-200.56 1096.51,-224.95 1108,-244 1167.26,-342.24 1197.56,-369.19 1304,-412 1417.11,-457.5 1777.64,-531.34 1914.56,-558.52"/>
<polygon fill="midnightblue" stroke="midnightblue" points="1913.92,-561.96 1924.41,-560.47 1915.28,-555.1 1913.92,-561.96"/>
</g>
<!-- Node26&#45;&gt;Node25 -->
<g id="edge54" class="edge">
<title>Node26&#45;&gt;Node25</title>
<path fill="none" stroke="midnightblue" d="M1105.86,-180.27C1243.78,-187.09 1872.34,-219.49 2067.85,-229.83"/>
<polygon fill="midnightblue" stroke="midnightblue" points="2067.75,-233.33 2077.92,-230.36 2068.12,-226.34 2067.75,-233.33"/>
</g>
<!-- Node27 -->
<g id="node27" class="node">
<title>Node27</title>
<g id="a_node27"><a xlink:title=" ">
<polygon fill="none" stroke="#bfbfbf" points="1329.5,-112.5 1329.5,-131.5 1424.5,-131.5 1424.5,-112.5 1329.5,-112.5"/>
<text text-anchor="middle" x="1377" y="-119.5" font-family="Helvetica,sans-Serif" font-size="10.00">petscsystypes.h</text>
</a>
</g>
</g>
<!-- Node26&#45;&gt;Node27 -->
<g id="edge51" class="edge">
<title>Node26&#45;&gt;Node27</title>
<path fill="none" stroke="midnightblue" d="M1105.71,-172.16C1153.71,-163.46 1255.56,-145.01 1319.9,-133.35"/>
<polygon fill="midnightblue" stroke="midnightblue" points="1320.67,-136.76 1329.89,-131.54 1319.42,-129.88 1320.67,-136.76"/>
</g>
<!-- Node26&#45;&gt;Node28 -->
<g id="edge55" class="edge">
<title>Node26&#45;&gt;Node28</title>
<path fill="none" stroke="midnightblue" d="M1065.05,-168.32C1055.48,-160.58 1043.32,-149.02 1034.54,-139.51"/>
<polygon fill="midnightblue" stroke="midnightblue" points="1037.06,-137.07 1027.85,-131.83 1031.78,-141.67 1037.06,-137.07"/>
</g>
<!-- Node26&#45;&gt;Node29 -->
<g id="edge130" class="edge">
<title>Node26&#45;&gt;Node29</title>
<path fill="none" stroke="midnightblue" d="M1067.81,-187.77C1044.9,-206.88 995.94,-254.23 1010,-300 1038.61,-393.13 1163.9,-435.86 1220.31,-450.64"/>
<polygon fill="midnightblue" stroke="midnightblue" points="1219.76,-454.11 1230.31,-453.15 1221.47,-447.32 1219.76,-454.11"/>
</g>
<!-- Node26&#45;&gt;Node30 -->
<g id="edge134" class="edge">
<title>Node26&#45;&gt;Node30</title>
<path fill="none" stroke="midnightblue" d="M1084.57,-187.66C1103.05,-215.79 1165.34,-305.65 1238,-356 1259.8,-371.1 1287.38,-382.12 1310.07,-389.47"/>
<polygon fill="midnightblue" stroke="midnightblue" points="1309.19,-392.86 1319.78,-392.49 1311.27,-386.18 1309.19,-392.86"/>
</g>
<!-- Node26&#45;&gt;Node31 -->
<g id="edge131" class="edge">
<title>Node26&#45;&gt;Node31</title>
<path fill="none" stroke="midnightblue" d="M1052.47,-181.43C1019.68,-185.43 964.01,-196.03 925,-224 874.32,-260.33 854,-282.65 854,-345 854,-459 854,-459 854,-459 854,-516.79 890.1,-577.83 906.67,-607.18"/>
<polygon fill="midnightblue" stroke="midnightblue" points="903.74,-609.11 911.63,-616.18 909.87,-605.74 903.74,-609.11"/>
</g>
<!-- Node33 -->
<g id="node33" class="node">
<title>Node33</title>
<g id="a_node33"><a xlink:href="ParticleMotion_8h.html" target="_top" xlink:title=" ">
<polygon fill="none" stroke="black" points="1850,-280.5 1850,-299.5 1946,-299.5 1946,-280.5 1850,-280.5"/>
<text text-anchor="middle" x="1898" y="-287.5" font-family="Helvetica,sans-Serif" font-size="10.00">ParticleMotion.h</text>
</a>
</g>
</g>
<!-- Node26&#45;&gt;Node33 -->
<g id="edge133" class="edge">
<title>Node26&#45;&gt;Node33</title>
<path fill="none" stroke="midnightblue" d="M1105.71,-182.59C1220.85,-198.05 1676.39,-259.24 1839.51,-281.14"/>
<polygon fill="midnightblue" stroke="midnightblue" points="1839.45,-284.67 1849.83,-282.53 1840.38,-277.73 1839.45,-284.67"/>
</g>
<!-- Node28&#45;&gt;Node2 -->
<g id="edge56" class="edge">
<title>Node28&#45;&gt;Node2</title>
<path fill="none" stroke="midnightblue" d="M1046.15,-118.44C1063.71,-116.47 1088.9,-113.79 1111,-112 1382.18,-89.98 1708.49,-74.34 1827.09,-69"/>
<polygon fill="midnightblue" stroke="midnightblue" points="1827.42,-72.49 1837.25,-68.55 1827.11,-65.5 1827.42,-72.49"/>
</g>
<!-- Node28&#45;&gt;Node13 -->
<g id="edge57" class="edge">
<title>Node28&#45;&gt;Node13</title>
<path fill="none" stroke="midnightblue" d="M1001.88,-125.7C873.32,-142.02 228,-232.3 228,-401 228,-627 228,-627 228,-627 228,-727.68 345.61,-675.92 445,-692 739.97,-739.72 1704.82,-738.17 1916.64,-737.23"/>
<polygon fill="midnightblue" stroke="midnightblue" points="1916.74,-740.73 1926.72,-737.18 1916.7,-733.73 1916.74,-740.73"/>
</g>
<!-- Node28&#45;&gt;Node26 -->
<g id="edge128" class="edge">
<title>Node28&#45;&gt;Node26</title>
<path fill="none" stroke="midnightblue" d="M1038.04,-131.75C1047.58,-139.48 1059.66,-150.97 1068.41,-160.43"/>
<polygon fill="midnightblue" stroke="midnightblue" points="1065.87,-162.85 1075.08,-168.08 1071.14,-158.25 1065.87,-162.85"/>
</g>
<!-- Node28&#45;&gt;Node29 -->
<g id="edge58" class="edge">
<title>Node28&#45;&gt;Node29</title>
<path fill="none" stroke="midnightblue" d="M1001.7,-128.15C949.85,-141.3 827.95,-179.72 860,-244 931.42,-387.21 1143.41,-438.38 1220,-452.48"/>
<polygon fill="midnightblue" stroke="midnightblue" points="1219.83,-456.01 1230.29,-454.3 1221.05,-449.11 1219.83,-456.01"/>
</g>
<!-- Node29&#45;&gt;Node2 -->
<g id="edge59" class="edge">
<title>Node29&#45;&gt;Node2</title>
<path fill="none" stroke="midnightblue" d="M1230.2,-456.07C1128.51,-450.55 620.74,-420.1 480,-356 371.89,-306.76 243.11,-277.15 290,-168 304.27,-134.78 315.62,-125.89 349,-112 418.87,-82.92 1580.34,-69.88 1827.13,-67.43"/>
<polygon fill="midnightblue" stroke="midnightblue" points="1827.23,-70.93 1837.2,-67.33 1827.16,-63.93 1827.23,-70.93"/>
</g>
<!-- Node29&#45;&gt;Node13 -->
<g id="edge60" class="edge">
<title>Node29&#45;&gt;Node13</title>
<path fill="none" stroke="midnightblue" d="M1230.3,-459.82C1100.64,-466.09 305.55,-509.93 423,-636 475.44,-692.29 1677.35,-729.08 1916.75,-735.86"/>
<polygon fill="midnightblue" stroke="midnightblue" points="1916.68,-739.36 1926.78,-736.15 1916.88,-732.37 1916.68,-739.36"/>
</g>
<!-- Node29&#45;&gt;Node30 -->
<g id="edge61" class="edge">
<title>Node29&#45;&gt;Node30</title>
<path fill="none" stroke="midnightblue" d="M1259.76,-448.32C1274.86,-439.59 1301.02,-426 1321.9,-415.98"/>
<polygon fill="midnightblue" stroke="midnightblue" points="1323.51,-419.09 1331.06,-411.65 1320.52,-412.76 1323.51,-419.09"/>
</g>
<!-- Node30&#45;&gt;Node2 -->
<g id="edge71" class="edge">
<title>Node30&#45;&gt;Node2</title>
<path fill="none" stroke="midnightblue" d="M1347.88,-392.38C1325.55,-353.54 1241.13,-193.09 1320,-112 1355.07,-75.94 1701.07,-68.77 1827.25,-67.35"/>
<polygon fill="midnightblue" stroke="midnightblue" points="1827.4,-70.85 1837.36,-67.24 1827.33,-63.85 1827.4,-70.85"/>
</g>
<!-- Node30&#45;&gt;Node7 -->
<g id="edge63" class="edge">
<title>Node30&#45;&gt;Node7</title>
<path fill="none" stroke="midnightblue" d="M1312.84,-399.65C1150.61,-393.44 545.53,-362.57 404,-244 355.28,-203.19 311.81,-163.54 349,-112 404.36,-35.27 520.41,-15.92 592.02,-11.57"/>
<polygon fill="midnightblue" stroke="midnightblue" points="592.45,-15.05 602.26,-11.03 592.09,-8.06 592.45,-15.05"/>
</g>
<!-- Node30&#45;&gt;Node9 -->
<g id="edge64" class="edge">
<title>Node30&#45;&gt;Node9</title>
<path fill="none" stroke="midnightblue" d="M1393.23,-396.52C1453.91,-389.48 1572.37,-374.71 1672,-356 1710.14,-348.84 1718.7,-342.29 1757,-336 1924.4,-308.51 1972.12,-339.91 2137,-300 2267.27,-268.47 2294.93,-243.35 2417,-188 2512.98,-144.48 2539.69,-136.47 2626,-76 2647.84,-60.7 2670.82,-40.37 2685.72,-26.54"/>
<polygon fill="midnightblue" stroke="midnightblue" points="2688.21,-29.01 2693.11,-19.61 2683.42,-23.9 2688.21,-29.01"/>
</g>
<!-- Node30&#45;&gt;Node13 -->
<g id="edge75" class="edge">
<title>Node30&#45;&gt;Node13</title>
<path fill="none" stroke="midnightblue" d="M1376.93,-411.62C1396.43,-420.43 1423.84,-434.68 1447,-448 1624.9,-550.29 1653.98,-603.22 1839,-692 1867.37,-705.61 1900.99,-717.27 1925.37,-725.31"/>
<polygon fill="midnightblue" stroke="midnightblue" points="1924.3,-728.64 1934.89,-728.42 1926.47,-721.99 1924.3,-728.64"/>
</g>
<!-- Node30&#45;&gt;Node15 -->
<g id="edge68" class="edge">
<title>Node30&#45;&gt;Node15</title>
<path fill="none" stroke="midnightblue" d="M1392.44,-392.48C1420.99,-385.3 1459.87,-373.39 1491,-356 1582.37,-304.96 1599.23,-275.92 1656,-188 1665.75,-172.9 1674.84,-154.55 1681,-141.2"/>
<polygon fill="midnightblue" stroke="midnightblue" points="1684.35,-142.28 1685.27,-131.72 1677.97,-139.4 1684.35,-142.28"/>
</g>
<!-- Node30&#45;&gt;Node17 -->
<g id="edge94" class="edge">
<title>Node30&#45;&gt;Node17</title>
<path fill="none" stroke="midnightblue" d="M1368.36,-411.69C1394.77,-427.91 1446,-465.49 1446,-513 1446,-571 1446,-571 1446,-571 1446,-603.05 1446,-640.36 1446,-662.25"/>
<polygon fill="midnightblue" stroke="midnightblue" points="1442.5,-662.44 1446,-672.44 1449.5,-662.44 1442.5,-662.44"/>
</g>
<!-- Node30&#45;&gt;Node18 -->
<g id="edge62" class="edge">
<title>Node30&#45;&gt;Node18</title>
<path fill="none" stroke="midnightblue" d="M1312.97,-393.07C1277.62,-385.48 1225.01,-372.71 1181,-356 1006.21,-289.65 810.56,-176.13 744.88,-136.86"/>
<polygon fill="midnightblue" stroke="midnightblue" points="746.52,-133.76 736.15,-131.61 742.92,-139.76 746.52,-133.76"/>
</g>
<!-- Node30&#45;&gt;Node19 -->
<g id="edge65" class="edge">
<title>Node30&#45;&gt;Node19</title>
<path fill="none" stroke="midnightblue" d="M1312.89,-393.98C1268.07,-385.88 1193.46,-371.66 1130,-356 871.93,-292.32 750.33,-369.37 556,-188 543.11,-175.97 537.11,-156.39 534.34,-141.87"/>
<polygon fill="midnightblue" stroke="midnightblue" points="537.79,-141.29 532.79,-131.95 530.87,-142.37 537.79,-141.29"/>
</g>
<!-- Node30&#45;&gt;Node20 -->
<g id="edge66" class="edge">
<title>Node30&#45;&gt;Node20</title>
<path fill="none" stroke="midnightblue" d="M1393.38,-396.77C1447.74,-390.56 1547.2,-377.32 1630,-356 1655.59,-349.41 1660.19,-341.69 1686,-336 1858.15,-298.05 1910.67,-345.42 2081,-300 2138.65,-284.63 2170.79,-294.22 2203,-244 2209.79,-233.42 2217.03,-199.3 2201,-168 2194.24,-154.8 2181.65,-144.31 2169.92,-136.78"/>
<polygon fill="midnightblue" stroke="midnightblue" points="2171.61,-133.72 2161.22,-131.61 2168.03,-139.73 2171.61,-133.72"/>
</g>
<!-- Node30&#45;&gt;Node21 -->
<g id="edge67" class="edge">
<title>Node30&#45;&gt;Node21</title>
<path fill="none" stroke="midnightblue" d="M1356.94,-392.38C1374.68,-353.54 1447.35,-194.47 1471.87,-140.79"/>
<polygon fill="midnightblue" stroke="midnightblue" points="1475.13,-142.07 1476.11,-131.52 1468.77,-139.17 1475.13,-142.07"/>
</g>
<!-- Node30&#45;&gt;Node22 -->
<g id="edge69" class="edge">
<title>Node30&#45;&gt;Node22</title>
<path fill="none" stroke="midnightblue" d="M1312.71,-401.01C1206.38,-399.77 910.95,-388.02 686,-300 581.77,-259.22 476.23,-173.57 435.51,-138.49"/>
<polygon fill="midnightblue" stroke="midnightblue" points="437.67,-135.73 427.83,-131.8 433.08,-141.01 437.67,-135.73"/>
</g>
<!-- Node30&#45;&gt;Node23 -->
<g id="edge72" class="edge">
<title>Node30&#45;&gt;Node23</title>
<path fill="none" stroke="midnightblue" d="M1393.38,-407.22C1447.75,-413.42 1547.2,-426.65 1630,-448 1747.24,-478.24 1881.18,-532.26 1938.96,-556.56"/>
<polygon fill="midnightblue" stroke="midnightblue" points="1937.64,-559.8 1948.21,-560.47 1940.36,-553.35 1937.64,-559.8"/>
</g>
<!-- Node30&#45;&gt;Node25 -->
<g id="edge73" class="edge">
<title>Node30&#45;&gt;Node25</title>
<path fill="none" stroke="midnightblue" d="M1393.36,-394.53C1439.7,-386.78 1517.85,-372.73 1584,-356 1612.89,-348.7 1618.82,-342.03 1648,-336 1798.11,-304.99 1843.55,-341.87 1991,-300 2002.23,-296.81 2064.06,-266.15 2100.03,-248.1"/>
<polygon fill="midnightblue" stroke="midnightblue" points="2101.63,-251.21 2108.99,-243.59 2098.49,-244.96 2101.63,-251.21"/>
</g>
<!-- Node30&#45;&gt;Node27 -->
<g id="edge70" class="edge">
<title>Node30&#45;&gt;Node27</title>
<path fill="none" stroke="midnightblue" d="M1349.63,-392.31C1342.8,-373.92 1328,-329.58 1328,-291 1328,-291 1328,-291 1328,-233 1328,-197.47 1349.6,-160.63 1364.12,-139.88"/>
<polygon fill="midnightblue" stroke="midnightblue" points="1367.13,-141.69 1370.19,-131.54 1361.47,-137.57 1367.13,-141.69"/>
</g>
<!-- Node30&#45;&gt;Node28 -->
<g id="edge74" class="edge">
<title>Node30&#45;&gt;Node28</title>
<path fill="none" stroke="midnightblue" d="M1312.69,-393.76C1282.59,-387.12 1241.24,-375.32 1209,-356 1180.17,-338.73 1062.07,-220.69 1043,-188 1034.58,-173.56 1029.65,-155.11 1026.93,-141.56"/>
<polygon fill="midnightblue" stroke="midnightblue" points="1030.34,-140.75 1025.14,-131.52 1023.45,-141.98 1030.34,-140.75"/>
</g>
<!-- Node30&#45;&gt;Node29 -->
<g id="edge76" class="edge">
<title>Node30&#45;&gt;Node29</title>
<path fill="none" stroke="midnightblue" d="M1341.44,-411.56C1325.44,-420.84 1296.77,-435.67 1275.27,-445.85"/>
<polygon fill="midnightblue" stroke="midnightblue" points="1273.57,-442.78 1265.97,-450.16 1276.52,-449.13 1273.57,-442.78"/>
</g>
<!-- Node30&#45;&gt;Node31 -->
<g id="edge77" class="edge">
<title>Node30&#45;&gt;Node31</title>
<path fill="none" stroke="midnightblue" d="M1343.86,-411.82C1329.72,-425.15 1301.32,-450.72 1274,-468 1164.12,-537.53 1018.16,-590.6 950.86,-613.14"/>
<polygon fill="midnightblue" stroke="midnightblue" points="949.52,-609.9 941.13,-616.37 951.73,-616.54 949.52,-609.9"/>
</g>
<!-- Node30&#45;&gt;Node33 -->
<g id="edge95" class="edge">
<title>Node30&#45;&gt;Node33</title>
<path fill="none" stroke="midnightblue" d="M1385.5,-392.38C1444.43,-376.81 1566.82,-344.81 1610,-336 1689.05,-319.86 1781.34,-306.37 1839.72,-298.49"/>
<polygon fill="midnightblue" stroke="midnightblue" points="1840.41,-301.93 1849.86,-297.13 1839.48,-294.99 1840.41,-301.93"/>
</g>
<!-- Node34 -->
<g id="node34" class="node">
<title>Node34</title>
<g id="a_node34"><a xlink:href="BC__Handlers_8h.html" target="_top" xlink:title=" ">
<polygon fill="none" stroke="black" points="1766,-336.5 1766,-355.5 1854,-355.5 1854,-336.5 1766,-336.5"/>
<text text-anchor="middle" x="1810" y="-343.5" font-family="Helvetica,sans-Serif" font-size="10.00">BC_Handlers.h</text>
</a>
</g>
</g>
<!-- Node30&#45;&gt;Node34 -->
<g id="edge104" class="edge">
<title>Node30&#45;&gt;Node34</title>
<path fill="none" stroke="midnightblue" d="M1393.04,-395.77C1475.31,-385.66 1663.03,-363.47 1755.96,-352.87"/>
<polygon fill="midnightblue" stroke="midnightblue" points="1756.46,-356.33 1766,-351.72 1755.67,-349.38 1756.46,-356.33"/>
</g>
<!-- Node35 -->
<g id="node35" class="node">
<title>Node35</title>
<g id="a_node35"><a xlink:href="wallfunction_8h.html" target="_top" xlink:title=" ">
<polygon fill="none" stroke="black" points="1396,-336.5 1396,-355.5 1482,-355.5 1482,-336.5 1396,-336.5"/>
<text text-anchor="middle" x="1439" y="-343.5" font-family="Helvetica,sans-Serif" font-size="10.00">wallfunction.h</text>
</a>
</g>
</g>
<!-- Node30&#45;&gt;Node35 -->
<g id="edge108" class="edge">
<title>Node30&#45;&gt;Node35</title>
<path fill="none" stroke="midnightblue" d="M1361.7,-392.32C1373.4,-383.82 1393.97,-370.73 1411.05,-360.8"/>
<polygon fill="midnightblue" stroke="midnightblue" points="1413.14,-363.64 1420.11,-355.65 1409.68,-357.55 1413.14,-363.64"/>
</g>
<!-- Node31&#45;&gt;Node2 -->
<g id="edge87" class="edge">
<title>Node31&#45;&gt;Node2</title>
<path fill="none" stroke="midnightblue" d="M869.76,-624.98C813.9,-623.36 716.04,-615.15 641,-580 554.82,-539.64 380.69,-370.71 317,-300 296.7,-277.46 287.08,-272.94 278,-244 259.92,-186.4 258.66,-143.75 310,-112 376.11,-71.11 1575.52,-67.37 1826.99,-67.03"/>
<polygon fill="midnightblue" stroke="midnightblue" points="1827.24,-70.53 1837.24,-67.02 1827.23,-63.53 1827.24,-70.53"/>
</g>
<!-- Node31&#45;&gt;Node7 -->
<g id="edge79" class="edge">
<title>Node31&#45;&gt;Node7</title>
<path fill="none" stroke="midnightblue" d="M869.74,-623.31C707.11,-616.52 152,-588.01 152,-515 152,-515 152,-515 152,-401 152,-290.08 38,-289.92 38,-179 38,-179 38,-179 38,-121 38,-56 106.48,-73.75 169,-56 246.94,-33.87 480.23,-19.62 592,-13.88"/>
<polygon fill="midnightblue" stroke="midnightblue" points="592.29,-17.37 602.1,-13.37 591.94,-10.38 592.29,-17.37"/>
</g>
<!-- Node31&#45;&gt;Node9 -->
<g id="edge80" class="edge">
<title>Node31&#45;&gt;Node9</title>
<path fill="none" stroke="midnightblue" d="M958.28,-624.85C1211.84,-623.64 2473.55,-613.15 2619,-524 2693.71,-478.2 2810,-266.63 2810,-179 2810,-179 2810,-179 2810,-121 2810,-75.21 2761.75,-41.49 2729.75,-24.16"/>
<polygon fill="midnightblue" stroke="midnightblue" points="2731.3,-21.02 2720.81,-19.51 2728.07,-27.23 2731.3,-21.02"/>
</g>
<!-- Node31&#45;&gt;Node13 -->
<g id="edge91" class="edge">
<title>Node31&#45;&gt;Node13</title>
<path fill="none" stroke="midnightblue" d="M958.01,-633.91C962.73,-634.63 967.46,-635.34 972,-636 1153.11,-662.48 1198.01,-672.44 1380,-692 1580.88,-713.59 1822.09,-728.99 1916.89,-734.63"/>
<polygon fill="midnightblue" stroke="midnightblue" points="1916.74,-738.13 1926.93,-735.22 1917.15,-731.14 1916.74,-738.13"/>
</g>
<!-- Node31&#45;&gt;Node15 -->
<g id="edge86" class="edge">
<title>Node31&#45;&gt;Node15</title>
<path fill="none" stroke="midnightblue" d="M958.24,-618.3C1028.76,-606.41 1169.74,-577.68 1278,-524 1433.21,-447.04 1473.68,-421.67 1597,-300 1640.36,-257.22 1653.16,-244.47 1676,-188 1682.01,-173.15 1685.33,-155.23 1687.1,-141.97"/>
<polygon fill="midnightblue" stroke="midnightblue" points="1690.62,-142.04 1688.3,-131.71 1683.66,-141.24 1690.62,-142.04"/>
</g>
<!-- Node31&#45;&gt;Node18 -->
<g id="edge78" class="edge">
<title>Node31&#45;&gt;Node18</title>
<path fill="none" stroke="midnightblue" d="M869.94,-622.71C810.57,-618.59 709.69,-607.63 687,-580 576.75,-445.75 680,-208.11 712.78,-141.06"/>
<polygon fill="midnightblue" stroke="midnightblue" points="716.07,-142.32 717.4,-131.81 709.8,-139.2 716.07,-142.32"/>
</g>
<!-- Node31&#45;&gt;Node19 -->
<g id="edge81" class="edge">
<title>Node31&#45;&gt;Node19</title>
<path fill="none" stroke="midnightblue" d="M869.78,-621.41C808.36,-615.66 701.24,-602.68 670,-580 555.41,-496.82 552.85,-437.24 518,-300 503.68,-243.61 518.09,-174.15 526.64,-141.55"/>
<polygon fill="midnightblue" stroke="midnightblue" points="530.09,-142.21 529.37,-131.64 523.34,-140.35 530.09,-142.21"/>
</g>
<!-- Node31&#45;&gt;Node20 -->
<g id="edge82" class="edge">
<title>Node31&#45;&gt;Node20</title>
<path fill="none" stroke="midnightblue" d="M958.42,-617.86C1010.44,-609.37 1099.13,-594.54 1175,-580 1504.56,-516.86 1729.54,-647.35 1896,-356 1900.41,-348.28 1900.23,-343.82 1896,-336 1882.11,-310.3 1854.89,-325.7 1841,-300 1836.77,-292.18 1836.51,-287.67 1841,-280 1898.58,-181.76 2040.58,-142.46 2107.29,-129.03"/>
<polygon fill="midnightblue" stroke="midnightblue" points="2108.17,-132.43 2117.33,-127.09 2106.84,-125.55 2108.17,-132.43"/>
</g>
<!-- Node31&#45;&gt;Node21 -->
<g id="edge83" class="edge">
<title>Node31&#45;&gt;Node21</title>
<path fill="none" stroke="midnightblue" d="M918.59,-616.44C927.87,-598.29 948,-554.38 948,-515 948,-515 948,-515 948,-457 948,-338.32 1332.57,-180.01 1447.77,-135.25"/>
<polygon fill="midnightblue" stroke="midnightblue" points="1449.07,-138.5 1457.14,-131.63 1446.55,-131.97 1449.07,-138.5"/>
</g>
<!-- Node31&#45;&gt;Node22 -->
<g id="edge84" class="edge">
<title>Node31&#45;&gt;Node22</title>
<path fill="none" stroke="midnightblue" d="M869.83,-621.12C803.03,-614.69 679.97,-600.46 641,-580 468.87,-489.63 427.86,-216.56 419.76,-141.99"/>
<polygon fill="midnightblue" stroke="midnightblue" points="423.22,-141.38 418.73,-131.79 416.26,-142.09 423.22,-141.38"/>
</g>
<!-- Node31&#45;&gt;Node23 -->
<g id="edge88" class="edge">
<title>Node31&#45;&gt;Node23</title>
<path fill="none" stroke="midnightblue" d="M958.28,-622.73C1125.75,-614.15 1720.44,-583.68 1909.7,-573.99"/>
<polygon fill="midnightblue" stroke="midnightblue" points="1909.92,-577.48 1919.73,-573.47 1909.57,-570.49 1909.92,-577.48"/>
</g>
<!-- Node31&#45;&gt;Node25 -->
<g id="edge89" class="edge">
<title>Node31&#45;&gt;Node25</title>
<path fill="none" stroke="midnightblue" d="M958.38,-624.56C1101.26,-622.8 1548.2,-614.61 1688,-580 1804.61,-551.13 1838.69,-541.12 1934,-468 1935.39,-466.93 2069.32,-303.99 2112.64,-251.26"/>
<polygon fill="midnightblue" stroke="midnightblue" points="2115.35,-253.47 2119,-243.52 2109.94,-249.03 2115.35,-253.47"/>
</g>
<!-- Node31&#45;&gt;Node26 -->
<g id="edge93" class="edge">
<title>Node31&#45;&gt;Node26</title>
<path fill="none" stroke="midnightblue" d="M903.14,-616.18C881.11,-592.27 836,-523.6 836,-459 836,-459 836,-459 836,-345 836,-282.65 856.32,-260.33 907,-224 947.13,-195.23 1004.88,-184.84 1042.34,-181.1"/>
<polygon fill="midnightblue" stroke="midnightblue" points="1042.68,-184.58 1052.33,-180.21 1042.06,-177.61 1042.68,-184.58"/>
</g>
<!-- Node31&#45;&gt;Node28 -->
<g id="edge90" class="edge">
<title>Node31&#45;&gt;Node28</title>
<path fill="none" stroke="midnightblue" d="M896.03,-616.4C855.41,-595.57 760,-538.21 760,-459 760,-459 760,-459 760,-345 760,-252.85 794.74,-223.91 868,-168 904.5,-140.15 957.7,-129.52 991.58,-125.47"/>
<polygon fill="midnightblue" stroke="midnightblue" points="992.28,-128.92 1001.85,-124.38 991.54,-121.96 992.28,-128.92"/>
</g>
<!-- Node31&#45;&gt;Node29 -->
<g id="edge92" class="edge">
<title>Node31&#45;&gt;Node29</title>
<path fill="none" stroke="midnightblue" d="M931.49,-616.31C986.39,-589.02 1155.55,-504.95 1221.39,-472.22"/>
<polygon fill="midnightblue" stroke="midnightblue" points="1223.29,-475.19 1230.69,-467.61 1220.17,-468.92 1223.29,-475.19"/>
</g>
<!-- Node32 -->
<g id="node32" class="node">
<title>Node32</title>
<g id="a_node32"><a xlink:title=" ">
<polygon fill="none" stroke="#bfbfbf" points="696.5,-560.5 696.5,-579.5 771.5,-579.5 771.5,-560.5 696.5,-560.5"/>
<text text-anchor="middle" x="734" y="-567.5" font-family="Helvetica,sans-Serif" font-size="10.00">petscerror.h</text>
</a>
</g>
</g>
<!-- Node31&#45;&gt;Node32 -->
<g id="edge85" class="edge">
<title>Node31&#45;&gt;Node32</title>
<path fill="none" stroke="midnightblue" d="M885.48,-616.44C854.93,-607.28 806.29,-592.69 772.4,-582.52"/>
<polygon fill="midnightblue" stroke="midnightblue" points="772.97,-579.04 762.39,-579.52 770.96,-585.74 772.97,-579.04"/>
</g>
<!-- Node33&#45;&gt;Node2 -->
<g id="edge101" class="edge">
<title>Node33&#45;&gt;Node2</title>
<path fill="none" stroke="midnightblue" d="M1897.02,-280.3C1893.34,-247.63 1880.3,-131.87 1875.13,-85.96"/>
<polygon fill="midnightblue" stroke="midnightblue" points="1878.6,-85.43 1874,-75.88 1871.64,-86.21 1878.6,-85.43"/>
</g>
<!-- Node33&#45;&gt;Node7 -->
<g id="edge97" class="edge">
<title>Node33&#45;&gt;Node7</title>
<path fill="none" stroke="midnightblue" d="M1893.14,-280.22C1875.91,-250.11 1814.34,-150.74 1732,-112 1549.19,-25.99 913.71,-13.21 713.73,-11.32"/>
<polygon fill="midnightblue" stroke="midnightblue" points="713.73,-7.82 703.7,-11.23 713.67,-14.82 713.73,-7.82"/>
</g>
<!-- Node33&#45;&gt;Node13 -->
<g id="edge102" class="edge">
<title>Node33&#45;&gt;Node13</title>
<path fill="none" stroke="midnightblue" d="M1946.09,-295.19C2052.8,-307.4 2300,-352.95 2300,-513 2300,-627 2300,-627 2300,-627 2300,-689.53 2090.17,-721.59 1999.22,-732.55"/>
<polygon fill="midnightblue" stroke="midnightblue" points="1998.78,-729.08 1989.26,-733.72 1999.6,-736.03 1998.78,-729.08"/>
</g>
<!-- Node33&#45;&gt;Node14 -->
<g id="edge96" class="edge">
<title>Node33&#45;&gt;Node14</title>
<path fill="none" stroke="midnightblue" d="M1927.03,-280.44C1954.08,-272.15 1995.34,-258.7 2030,-244 2047.93,-236.39 2050.28,-229.39 2069,-224 2159.45,-197.95 2447.02,-184.41 2548.84,-180.34"/>
<polygon fill="midnightblue" stroke="midnightblue" points="2549.08,-183.84 2558.93,-179.95 2548.8,-176.84 2549.08,-183.84"/>
</g>
<!-- Node33&#45;&gt;Node15 -->
<g id="edge99" class="edge">
<title>Node33&#45;&gt;Node15</title>
<path fill="none" stroke="midnightblue" d="M1888,-280.4C1877.52,-271.37 1860.56,-256.73 1846,-244 1807.6,-210.42 1800.78,-198.64 1760,-168 1744.88,-156.64 1726.87,-145.25 1712.77,-136.77"/>
<polygon fill="midnightblue" stroke="midnightblue" points="1714.53,-133.74 1704.14,-131.65 1710.96,-139.76 1714.53,-133.74"/>
</g>
<!-- Node33&#45;&gt;Node20 -->
<g id="edge100" class="edge">
<title>Node33&#45;&gt;Node20</title>
<path fill="none" stroke="midnightblue" d="M1909.98,-280.5C1927.63,-267.99 1961.7,-243.97 1991,-224 2037.07,-192.6 2091.62,-156.65 2121.22,-137.24"/>
<polygon fill="midnightblue" stroke="midnightblue" points="2123.47,-139.95 2129.92,-131.54 2119.64,-134.1 2123.47,-139.95"/>
</g>
<!-- Node33&#45;&gt;Node24 -->
<g id="edge98" class="edge">
<title>Node33&#45;&gt;Node24</title>
<path fill="none" stroke="midnightblue" d="M1915.75,-280.34C1941.92,-267.65 1992.46,-243.4 2036,-224 2061.7,-212.55 2091.19,-200.2 2112.7,-191.35"/>
<polygon fill="midnightblue" stroke="midnightblue" points="2114.05,-194.57 2121.97,-187.54 2111.39,-188.1 2114.05,-194.57"/>
</g>
<!-- Node33&#45;&gt;Node25 -->
<g id="edge103" class="edge">
<title>Node33&#45;&gt;Node25</title>
<path fill="none" stroke="midnightblue" d="M1934.13,-280.44C1973.65,-271.08 2037.1,-256.06 2080.11,-245.87"/>
<polygon fill="midnightblue" stroke="midnightblue" points="2081.12,-249.23 2090.04,-243.52 2079.5,-242.42 2081.12,-249.23"/>
</g>
<!-- Node34&#45;&gt;Node2 -->
<g id="edge105" class="edge">
<title>Node34&#45;&gt;Node2</title>
<path fill="none" stroke="midnightblue" d="M1854.04,-343C1945.07,-338.41 2150.86,-325.47 2216,-300 2255.08,-284.72 2273.08,-281.45 2292,-244 2366.14,-97.27 2042.61,-72.13 1919.16,-67.86"/>
<polygon fill="midnightblue" stroke="midnightblue" points="1918.99,-64.35 1908.89,-67.54 1918.77,-71.35 1918.99,-64.35"/>
</g>
<!-- Node34&#45;&gt;Node13 -->
<g id="edge107" class="edge">
<title>Node34&#45;&gt;Node13</title>
<path fill="none" stroke="midnightblue" d="M1832.14,-355.53C1897.59,-382.11 2090.08,-470.52 2162,-616 2176.97,-646.28 2183.16,-665.67 2162,-692 2141.98,-716.92 2052.83,-728.85 1999.23,-733.87"/>
<polygon fill="midnightblue" stroke="midnightblue" points="1998.66,-730.41 1989.01,-734.79 1999.29,-737.38 1998.66,-730.41"/>
</g>
<!-- Node34&#45;&gt;Node30 -->
<g id="edge106" class="edge">
<title>Node34&#45;&gt;Node30</title>
<path fill="none" stroke="midnightblue" d="M1765.97,-352.72C1680.52,-363.2 1493.08,-385.34 1403.06,-395.59"/>
<polygon fill="midnightblue" stroke="midnightblue" points="1402.64,-392.11 1393.1,-396.72 1403.43,-399.07 1402.64,-392.11"/>
</g>
<!-- Node35&#45;&gt;Node2 -->
<g id="edge118" class="edge">
<title>Node35&#45;&gt;Node2</title>
<path fill="none" stroke="midnightblue" d="M1445.43,-336.4C1474.37,-297.92 1593.41,-142.12 1646,-112 1702.68,-79.54 1778.92,-70.16 1827.01,-67.64"/>
<polygon fill="midnightblue" stroke="midnightblue" points="1827.29,-71.13 1837.13,-67.19 1826.98,-64.13 1827.29,-71.13"/>
</g>
<!-- Node35&#45;&gt;Node7 -->
<g id="edge110" class="edge">
<title>Node35&#45;&gt;Node7</title>
<path fill="none" stroke="midnightblue" d="M1407.6,-336.47C1382.59,-328.93 1347.21,-316.55 1319,-300 1247.19,-257.88 1176,-262.25 1176,-179 1176,-179 1176,-179 1176,-121 1176,-27.52 851.98,-13.05 714.02,-11.12"/>
<polygon fill="midnightblue" stroke="midnightblue" points="713.66,-7.62 703.62,-11 713.58,-14.62 713.66,-7.62"/>
</g>
<!-- Node35&#45;&gt;Node9 -->
<g id="edge111" class="edge">
<title>Node35&#45;&gt;Node9</title>
<path fill="none" stroke="midnightblue" d="M1482.38,-342.86C1617.19,-336.1 2023.35,-314.73 2081,-300 2330.66,-236.21 2602.6,-73.35 2680.23,-24.84"/>
<polygon fill="midnightblue" stroke="midnightblue" points="2682.12,-27.79 2688.72,-19.5 2678.39,-21.86 2682.12,-27.79"/>
</g>
<!-- Node35&#45;&gt;Node13 -->
<g id="edge122" class="edge">
<title>Node35&#45;&gt;Node13</title>
<path fill="none" stroke="midnightblue" d="M1482.34,-355.17C1586.82,-376.1 1844,-435.49 1844,-513 1844,-627 1844,-627 1844,-627 1844,-673.89 1894.55,-707.11 1928.33,-724.07"/>
<polygon fill="midnightblue" stroke="midnightblue" points="1926.83,-727.23 1937.36,-728.42 1929.87,-720.93 1926.83,-727.23"/>
</g>
<!-- Node35&#45;&gt;Node15 -->
<g id="edge115" class="edge">
<title>Node35&#45;&gt;Node15</title>
<path fill="none" stroke="midnightblue" d="M1462.99,-336.44C1482.68,-328.73 1510.69,-316.13 1532,-300 1565.19,-274.88 1644.23,-178.6 1675.72,-139.57"/>
<polygon fill="midnightblue" stroke="midnightblue" points="1678.47,-141.74 1682.01,-131.76 1673.01,-137.35 1678.47,-141.74"/>
</g>
<!-- Node35&#45;&gt;Node17 -->
<g id="edge125" class="edge">
<title>Node35&#45;&gt;Node17</title>
<path fill="none" stroke="midnightblue" d="M1451.97,-355.57C1475.31,-372.16 1522,-411.07 1522,-457 1522,-571 1522,-571 1522,-571 1522,-610.72 1488.04,-646.5 1465.52,-665.85"/>
<polygon fill="midnightblue" stroke="midnightblue" points="1463.02,-663.37 1457.54,-672.43 1467.48,-668.76 1463.02,-663.37"/>
</g>
<!-- Node35&#45;&gt;Node18 -->
<g id="edge109" class="edge">
<title>Node35&#45;&gt;Node18</title>
<path fill="none" stroke="midnightblue" d="M1406.73,-336.5C1373.76,-327.72 1321.16,-313.44 1276,-300 1078.89,-241.33 844.73,-163.97 757.26,-134.8"/>
<polygon fill="midnightblue" stroke="midnightblue" points="758.16,-131.42 747.57,-131.57 755.94,-138.06 758.16,-131.42"/>
</g>
<!-- Node35&#45;&gt;Node19 -->
<g id="edge112" class="edge">
<title>Node35&#45;&gt;Node19</title>
<path fill="none" stroke="midnightblue" d="M1395.71,-337.09C1350.29,-328.62 1276.9,-314.44 1214,-300 963.55,-242.5 664.91,-160.19 565.8,-132.5"/>
<polygon fill="midnightblue" stroke="midnightblue" points="566.61,-129.09 556.04,-129.77 564.73,-135.83 566.61,-129.09"/>
</g>
<!-- Node35&#45;&gt;Node20 -->
<g id="edge113" class="edge">
<title>Node35&#45;&gt;Node20</title>
<path fill="none" stroke="midnightblue" d="M1482.39,-342.6C1594.8,-336.21 1893.49,-318 1991,-300 2078.41,-283.86 2129.67,-315.11 2183,-244 2203.27,-216.98 2195,-199.57 2183,-168 2178.66,-156.6 2169.97,-146.24 2161.79,-138.34"/>
<polygon fill="midnightblue" stroke="midnightblue" points="2164.04,-135.66 2154.27,-131.57 2159.36,-140.86 2164.04,-135.66"/>
</g>
<!-- Node35&#45;&gt;Node21 -->
<g id="edge114" class="edge">
<title>Node35&#45;&gt;Node21</title>
<path fill="none" stroke="midnightblue" d="M1443,-336.23C1446.9,-327.29 1452.72,-312.95 1456,-300 1470.3,-243.51 1476.54,-174.58 1478.85,-141.91"/>
<polygon fill="midnightblue" stroke="midnightblue" points="1482.36,-141.81 1479.52,-131.6 1475.37,-141.35 1482.36,-141.81"/>
</g>
<!-- Node35&#45;&gt;Node22 -->
<g id="edge116" class="edge">
<title>Node35&#45;&gt;Node22</title>
<path fill="none" stroke="midnightblue" d="M1395.75,-340.14C1335.47,-333.04 1222.89,-318.64 1128,-300 869.88,-249.29 564.8,-164.81 457.61,-134.37"/>
<polygon fill="midnightblue" stroke="midnightblue" points="458.44,-130.97 447.86,-131.59 456.52,-137.7 458.44,-130.97"/>
</g>
<!-- Node35&#45;&gt;Node23 -->
<g id="edge119" class="edge">
<title>Node35&#45;&gt;Node23</title>
<path fill="none" stroke="midnightblue" d="M1482.04,-348.36C1562.13,-352.73 1736.88,-371.09 1858,-448 1901.76,-475.79 1939.05,-525.48 1956.84,-551.71"/>
<polygon fill="midnightblue" stroke="midnightblue" points="1954.05,-553.82 1962.49,-560.22 1959.88,-549.95 1954.05,-553.82"/>
</g>
<!-- Node35&#45;&gt;Node25 -->
<g id="edge120" class="edge">
<title>Node35&#45;&gt;Node25</title>
<path fill="none" stroke="midnightblue" d="M1482.27,-342.09C1598.17,-334.18 1909.88,-312.06 1955,-300 1975.36,-294.56 1978.48,-287.95 1998,-280 2028.43,-267.61 2063.7,-255.36 2089.5,-246.78"/>
<polygon fill="midnightblue" stroke="midnightblue" points="2090.84,-250.02 2099.24,-243.56 2088.65,-243.37 2090.84,-250.02"/>
</g>
<!-- Node35&#45;&gt;Node27 -->
<g id="edge117" class="edge">
<title>Node35&#45;&gt;Node27</title>
<path fill="none" stroke="midnightblue" d="M1436.57,-336.3C1427.43,-303.56 1394.98,-187.38 1382.21,-141.67"/>
<polygon fill="midnightblue" stroke="midnightblue" points="1385.54,-140.57 1379.48,-131.88 1378.8,-142.46 1385.54,-140.57"/>
</g>
<!-- Node35&#45;&gt;Node28 -->
<g id="edge121" class="edge">
<title>Node35&#45;&gt;Node28</title>
<path fill="none" stroke="midnightblue" d="M1423.54,-336.33C1377.03,-310.3 1234.17,-230.74 1114,-168 1092.96,-157.02 1068.91,-145.02 1050.97,-136.18"/>
<polygon fill="midnightblue" stroke="midnightblue" points="1052.2,-132.88 1041.68,-131.61 1049.11,-139.17 1052.2,-132.88"/>
</g>
<!-- Node35&#45;&gt;Node29 -->
<g id="edge123" class="edge">
<title>Node35&#45;&gt;Node29</title>
<path fill="none" stroke="midnightblue" d="M1395.91,-355.13C1368,-361.84 1331.8,-373.36 1304,-392 1285.33,-404.52 1269.21,-424.87 1259.12,-439.47"/>
<polygon fill="midnightblue" stroke="midnightblue" points="1256.01,-437.82 1253.4,-448.09 1261.84,-441.69 1256.01,-437.82"/>
</g>
<!-- Node35&#45;&gt;Node30 -->
<g id="edge127" class="edge">
<title>Node35&#45;&gt;Node30</title>
<path fill="none" stroke="midnightblue" d="M1430.08,-355.83C1418.34,-364.34 1397.92,-377.34 1380.94,-387.21"/>
<polygon fill="midnightblue" stroke="midnightblue" points="1378.9,-384.34 1371.93,-392.32 1382.36,-390.43 1378.9,-384.34"/>
</g>
<!-- Node35&#45;&gt;Node31 -->
<g id="edge124" class="edge">
<title>Node35&#45;&gt;Node31</title>
<path fill="none" stroke="midnightblue" d="M1435.88,-355.52C1430.62,-368.92 1418.9,-395.11 1402,-412 1288.11,-525.83 1232.61,-525.74 1081,-580 1041.93,-593.98 996.37,-605.98 962.72,-614.07"/>
<polygon fill="midnightblue" stroke="midnightblue" points="961.6,-610.74 952.68,-616.45 963.22,-617.55 961.6,-610.74"/>
</g>
<!-- Node35&#45;&gt;Node33 -->
<g id="edge126" class="edge">
<title>Node35&#45;&gt;Node33</title>
<path fill="none" stroke="midnightblue" d="M1482.18,-339.92C1565,-330.18 1746.2,-308.86 1839.67,-297.86"/>
<polygon fill="midnightblue" stroke="midnightblue" points="1840.28,-301.32 1849.8,-296.67 1839.46,-294.36 1840.28,-301.32"/>
</g>
<!-- Node36&#45;&gt;Node2 -->
<g id="edge137" class="edge">
<title>Node36&#45;&gt;Node2</title>
<path fill="none" stroke="midnightblue" d="M2587.28,-504.23C2597.73,-486.04 2620,-442.6 2620,-403 2620,-403 2620,-403 2620,-345 2620,-266.33 2661.48,-234.84 2620,-168 2605.22,-144.19 2534.04,-119.35 2507,-112 2395.92,-81.8 2044.8,-70.94 1918.67,-67.95"/>
<polygon fill="midnightblue" stroke="midnightblue" points="1918.66,-64.45 1908.58,-67.72 1918.49,-71.45 1918.66,-64.45"/>
</g>
<!-- Node36&#45;&gt;Node9 -->
<g id="edge139" class="edge">
<title>Node36&#45;&gt;Node9</title>
<path fill="none" stroke="midnightblue" d="M2591.05,-504.37C2623.78,-472.19 2734,-354.92 2734,-235 2734,-235 2734,-235 2734,-121 2734,-87.33 2720.01,-50.08 2710.53,-28.72"/>
<polygon fill="midnightblue" stroke="midnightblue" points="2713.68,-27.21 2706.32,-19.59 2707.33,-30.14 2713.68,-27.21"/>
</g>
<!-- Node36&#45;&gt;Node13 -->
<g id="edge138" class="edge">
<title>Node36&#45;&gt;Node13</title>
<path fill="none" stroke="midnightblue" d="M2575.94,-523.66C2554.58,-553.39 2479.24,-651.69 2390,-692 2320.85,-723.24 2093.46,-733.17 1999.35,-735.99"/>
<polygon fill="midnightblue" stroke="midnightblue" points="1998.97,-732.5 1989.08,-736.29 1999.17,-739.5 1998.97,-732.5"/>
</g>
<!-- Node36&#45;&gt;Node14 -->
<g id="edge136" class="edge">
<title>Node36&#45;&gt;Node14</title>
<path fill="none" stroke="midnightblue" d="M2582,-504.44C2582,-485.94 2582,-440.81 2582,-403 2582,-403 2582,-403 2582,-289 2582,-256.94 2583.29,-219.63 2584.18,-197.74"/>
<polygon fill="midnightblue" stroke="midnightblue" points="2587.68,-197.69 2584.61,-187.56 2580.69,-197.4 2587.68,-197.69"/>
</g>
<!-- Node36&#45;&gt;Node26 -->
<g id="edge141" class="edge">
<title>Node36&#45;&gt;Node26</title>
<path fill="none" stroke="midnightblue" d="M2553.67,-505.55C2457.3,-480.32 2133.07,-396.25 1863,-336 1715.26,-303.04 1250.23,-212.29 1115.76,-186.14"/>
<polygon fill="midnightblue" stroke="midnightblue" points="1116.06,-182.63 1105.57,-184.16 1114.72,-189.5 1116.06,-182.63"/>
</g>
<!-- Node36&#45;&gt;Node29 -->
<g id="edge140" class="edge">
<title>Node36&#45;&gt;Node29</title>
<path fill="none" stroke="midnightblue" d="M2553.83,-511.86C2379.4,-504.8 1448.47,-467.12 1275.63,-460.12"/>
<polygon fill="midnightblue" stroke="midnightblue" points="1275.7,-456.62 1265.57,-459.71 1275.42,-463.61 1275.7,-456.62"/>
</g>
</g>
</svg>
