<?xml version="1.0" encoding="UTF-8" standalone="no"?>
<!DOCTYPE svg PUBLIC "-//W3C//DTD SVG 1.1//EN"
 "http://www.w3.org/Graphics/SVG/1.1/DTD/svg11.dtd">
<!-- Generated by graphviz version 2.43.0 (0)
 -->
<!-- Title: Projection Pages: 1 -->
<svg width="577pt" height="85pt"
 viewBox="0.00 0.00 577.00 85.00" xmlns="http://www.w3.org/2000/svg" xmlns:xlink="http://www.w3.org/1999/xlink">
<g id="graph0" class="graph" transform="scale(1 1) rotate(0) translate(4 81)">
<title>Projection</title>
<!-- Node1 -->
<g id="node1" class="node">
<title>Node1</title>
<g id="a_node1"><a xlink:title="Performs the projection step to enforce an incompressible velocity field.">
<polygon fill="#bfbfbf" stroke="black" points="0,-38.5 0,-57.5 65,-57.5 65,-38.5 0,-38.5"/>
<text text-anchor="middle" x="32.5" y="-45.5" font-family="Helvetica,sans-Serif" font-size="10.00">Projection</text>
</a>
</g>
</g>
<!-- Node2 -->
<g id="node2" class="node">
<title>Node2</title>
<g id="a_node2"><a xlink:href="setup_8h.html#a515c9a96eb4bcac29f79e78c8882d7aa" target="_top" xlink:title="Reconstructs Cartesian velocity (Ucat) at cell centers from contravariant velocity (Ucont) defined on...">
<polygon fill="none" stroke="black" points="118.5,-57.5 118.5,-76.5 193.5,-76.5 193.5,-57.5 118.5,-57.5"/>
<text text-anchor="middle" x="156" y="-64.5" font-family="Helvetica,sans-Serif" font-size="10.00">Contra2Cart</text>
</a>
</g>
</g>
<!-- Node1&#45;&gt;Node2 -->
<g id="edge1" class="edge">
<title>Node1&#45;&gt;Node2</title>
<path fill="none" stroke="midnightblue" d="M65.11,-52.94C78.23,-55 93.74,-57.42 108.14,-59.67"/>
<polygon fill="midnightblue" stroke="midnightblue" points="107.97,-63.19 118.39,-61.27 109.05,-56.27 107.97,-63.19"/>
</g>
<!-- Node3 -->
<g id="node3" class="node">
<title>Node3</title>
<g id="a_node3"><a xlink:href="poisson_8c.html#a6046e36e2334fa29a86d652a0b8f0593" target="_top" xlink:title=" ">
<polygon fill="none" stroke="black" points="101,-19.5 101,-38.5 211,-38.5 211,-19.5 101,-19.5"/>
<text text-anchor="middle" x="156" y="-26.5" font-family="Helvetica,sans-Serif" font-size="10.00">GhostNodeVelocity</text>
</a>
</g>
</g>
<!-- Node1&#45;&gt;Node3 -->
<g id="edge2" class="edge">
<title>Node1&#45;&gt;Node3</title>
<path fill="none" stroke="midnightblue" d="M65.11,-43.06C73.07,-41.81 81.92,-40.43 90.87,-39.03"/>
<polygon fill="midnightblue" stroke="midnightblue" points="91.63,-42.45 100.96,-37.45 90.54,-35.54 91.63,-42.45"/>
</g>
<!-- Node4 -->
<g id="node4" class="node">
<title>Node4</title>
<g id="a_node4"><a xlink:href="rhs_8h.html#aecbb71daf364f9c5810052e4b9ad1840" target="_top" xlink:title=" ">
<polygon fill="none" stroke="black" points="247,-38.5 247,-57.5 387,-57.5 387,-38.5 247,-38.5"/>
<text text-anchor="middle" x="317" y="-45.5" font-family="Helvetica,sans-Serif" font-size="10.00">CalculateNormalAndArea</text>
</a>
</g>
</g>
<!-- Node3&#45;&gt;Node4 -->
<g id="edge3" class="edge">
<title>Node3&#45;&gt;Node4</title>
<path fill="none" stroke="midnightblue" d="M211.27,-35.49C219.49,-36.47 228.1,-37.5 236.71,-38.52"/>
<polygon fill="midnightblue" stroke="midnightblue" points="236.44,-42.02 246.79,-39.73 237.27,-35.07 236.44,-42.02"/>
</g>
<!-- Node6 -->
<g id="node6" class="node">
<title>Node6</title>
<g id="a_node6"><a xlink:href="wallfunction_8h.html#a74ed1b371c557b826d503a1627351eec" target="_top" xlink:title=" ">
<polygon fill="none" stroke="black" points="276,-0.5 276,-19.5 358,-19.5 358,-0.5 276,-0.5"/>
<text text-anchor="middle" x="317" y="-7.5" font-family="Helvetica,sans-Serif" font-size="10.00">wall_function</text>
</a>
</g>
</g>
<!-- Node3&#45;&gt;Node6 -->
<g id="edge5" class="edge">
<title>Node3&#45;&gt;Node6</title>
<path fill="none" stroke="midnightblue" d="M211.27,-22.51C228.71,-20.43 247.95,-18.13 265.13,-16.08"/>
<polygon fill="midnightblue" stroke="midnightblue" points="266.01,-19.5 275.52,-14.84 265.18,-12.55 266.01,-19.5"/>
</g>
<!-- Node5 -->
<g id="node5" class="node">
<title>Node5</title>
<g id="a_node5"><a xlink:href="rhs_8c.html#aa8f3b644af5c8201570f3fa7d5ae350a" target="_top" xlink:title=" ">
<polygon fill="none" stroke="black" points="423,-38.5 423,-57.5 569,-57.5 569,-38.5 423,-38.5"/>
<text text-anchor="middle" x="496" y="-45.5" font-family="Helvetica,sans-Serif" font-size="10.00">CalculateCovariantMetrics</text>
</a>
</g>
</g>
<!-- Node4&#45;&gt;Node5 -->
<g id="edge4" class="edge">
<title>Node4&#45;&gt;Node5</title>
<path fill="none" stroke="midnightblue" d="M387.19,-48C395.63,-48 404.3,-48 412.9,-48"/>
<polygon fill="midnightblue" stroke="midnightblue" points="412.94,-51.5 422.94,-48 412.94,-44.5 412.94,-51.5"/>
</g>
<!-- Node7 -->
<g id="node7" class="node">
<title>Node7</title>
<g id="a_node7"><a xlink:href="wallfunction_8c.html#a7ded59b6a455ad3a8db66bea549aa82d" target="_top" xlink:title=" ">
<polygon fill="none" stroke="black" points="464.5,-0.5 464.5,-19.5 527.5,-19.5 527.5,-0.5 464.5,-0.5"/>
<text text-anchor="middle" x="496" y="-7.5" font-family="Helvetica,sans-Serif" font-size="10.00">u_Werner</text>
</a>
</g>
</g>
<!-- Node6&#45;&gt;Node7 -->
<g id="edge6" class="edge">
<title>Node6&#45;&gt;Node7</title>
<path fill="none" stroke="midnightblue" d="M358.16,-10C386.87,-10 425.36,-10 454.21,-10"/>
<polygon fill="midnightblue" stroke="midnightblue" points="454.36,-13.5 464.36,-10 454.36,-6.5 454.36,-13.5"/>
</g>
</g>
</svg>
