<?xml version="1.0" encoding="UTF-8" standalone="no"?>
<!DOCTYPE svg PUBLIC "-//W3C//DTD SVG 1.1//EN"
 "http://www.w3.org/Graphics/SVG/1.1/DTD/svg11.dtd">
<!-- Generated by graphviz version 2.43.0 (0)
 -->
<!-- Title: EulerianDataProcessingPipeline Pages: 1 -->
<svg width="641pt" height="142pt"
 viewBox="0.00 0.00 641.00 142.00" xmlns="http://www.w3.org/2000/svg" xmlns:xlink="http://www.w3.org/1999/xlink">
<g id="graph0" class="graph" transform="scale(1 1) rotate(0) translate(4 138)">
<title>EulerianDataProcessingPipeline</title>
<!-- Node1 -->
<g id="node1" class="node">
<title>Node1</title>
<g id="a_node1"><a xlink:title="Parses the processing pipeline string from the config and executes the requested kernels in sequence.">
<polygon fill="#bfbfbf" stroke="black" points="0,-57.5 0,-76.5 171,-76.5 171,-57.5 0,-57.5"/>
<text text-anchor="middle" x="85.5" y="-64.5" font-family="Helvetica,sans-Serif" font-size="10.00">EulerianDataProcessingPipeline</text>
</a>
</g>
</g>
<!-- Node2 -->
<g id="node2" class="node">
<title>Node2</title>
<g id="a_node2"><a xlink:href="postprocessing__kernels_8h.html#ad5b0c0f1721b13944b83a57f2471cd02" target="_top" xlink:title="Computes node&#45;centered data by averaging 8 surrounding cell&#45;centered values, exactly replicating the ...">
<polygon fill="none" stroke="black" points="207.5,-114.5 207.5,-133.5 336.5,-133.5 336.5,-114.5 207.5,-114.5"/>
<text text-anchor="middle" x="272" y="-121.5" font-family="Helvetica,sans-Serif" font-size="10.00">ComputeNodalAverage</text>
</a>
</g>
</g>
<!-- Node1&#45;&gt;Node2 -->
<g id="edge1" class="edge">
<title>Node1&#45;&gt;Node2</title>
<path fill="none" stroke="midnightblue" d="M116.17,-76.51C140.53,-84.28 175.96,-95.5 207,-105 214.01,-107.15 221.46,-109.39 228.71,-111.56"/>
<polygon fill="midnightblue" stroke="midnightblue" points="227.83,-114.94 238.41,-114.44 229.82,-108.23 227.83,-114.94"/>
</g>
<!-- Node6 -->
<g id="node6" class="node">
<title>Node6</title>
<g id="a_node6"><a xlink:href="postprocessing__kernels_8h.html#a303c5afb89d6fdaab3e40f9371d8f1b2" target="_top" xlink:title="Computes the Q&#45;Criterion, a scalar value identifying vortex cores.">
<polygon fill="none" stroke="black" points="217,-76.5 217,-95.5 327,-95.5 327,-76.5 217,-76.5"/>
<text text-anchor="middle" x="272" y="-83.5" font-family="Helvetica,sans-Serif" font-size="10.00">ComputeQCriterion</text>
</a>
</g>
</g>
<!-- Node1&#45;&gt;Node6 -->
<g id="edge5" class="edge">
<title>Node1&#45;&gt;Node6</title>
<path fill="none" stroke="midnightblue" d="M171.19,-75.72C183.21,-76.96 195.39,-78.21 206.93,-79.4"/>
<polygon fill="midnightblue" stroke="midnightblue" points="206.58,-82.88 216.88,-80.43 207.29,-75.92 206.58,-82.88"/>
</g>
<!-- Node7 -->
<g id="node7" class="node">
<title>Node7</title>
<g id="a_node7"><a xlink:href="postprocessing__kernels_8h.html#a86d13bca79c1355ce808509a999a1d88" target="_top" xlink:title="Normalizes a relative field by subtracting a reference value.">
<polygon fill="none" stroke="black" points="207,-38.5 207,-57.5 337,-57.5 337,-38.5 207,-38.5"/>
<text text-anchor="middle" x="272" y="-45.5" font-family="Helvetica,sans-Serif" font-size="10.00">NormalizeRelativeField</text>
</a>
</g>
</g>
<!-- Node1&#45;&gt;Node7 -->
<g id="edge7" class="edge">
<title>Node1&#45;&gt;Node7</title>
<path fill="none" stroke="midnightblue" d="M171.19,-58.28C179.74,-57.4 188.38,-56.51 196.81,-55.64"/>
<polygon fill="midnightblue" stroke="midnightblue" points="197.39,-59.1 206.97,-54.59 196.67,-52.14 197.39,-59.1"/>
</g>
<!-- Node8 -->
<g id="node8" class="node">
<title>Node8</title>
<g id="a_node8"><a xlink:href="io_8h.html#a61850e757fea41eb461a930936c34401" target="_top" xlink:title="Helper function to trim leading/trailing whitespace from a string.">
<polygon fill="none" stroke="black" points="224.5,-0.5 224.5,-19.5 319.5,-19.5 319.5,-0.5 224.5,-0.5"/>
<text text-anchor="middle" x="272" y="-7.5" font-family="Helvetica,sans-Serif" font-size="10.00">TrimWhitespace</text>
</a>
</g>
</g>
<!-- Node1&#45;&gt;Node8 -->
<g id="edge8" class="edge">
<title>Node1&#45;&gt;Node8</title>
<path fill="none" stroke="midnightblue" d="M116.17,-57.49C140.53,-49.72 175.96,-38.5 207,-29 214.01,-26.85 221.46,-24.61 228.71,-22.44"/>
<polygon fill="midnightblue" stroke="midnightblue" points="229.82,-25.77 238.41,-19.56 227.83,-19.06 229.82,-25.77"/>
</g>
<!-- Node3 -->
<g id="node3" class="node">
<title>Node3</title>
<g id="a_node3"><a xlink:href="setup_8h.html#ad5f82951adcce74b3d37cb5880acf43a" target="_top" xlink:title="Updates the local vector (including ghost points) from its corresponding global vector.">
<polygon fill="none" stroke="black" points="373,-95.5 373,-114.5 484,-114.5 484,-95.5 373,-95.5"/>
<text text-anchor="middle" x="428.5" y="-102.5" font-family="Helvetica,sans-Serif" font-size="10.00">UpdateLocalGhosts</text>
</a>
</g>
</g>
<!-- Node2&#45;&gt;Node3 -->
<g id="edge2" class="edge">
<title>Node2&#45;&gt;Node3</title>
<path fill="none" stroke="midnightblue" d="M336.73,-116.16C345.34,-115.1 354.17,-114.02 362.79,-112.96"/>
<polygon fill="midnightblue" stroke="midnightblue" points="363.29,-116.42 372.78,-111.73 362.43,-109.48 363.29,-116.42"/>
</g>
<!-- Node4 -->
<g id="node4" class="node">
<title>Node4</title>
<g id="a_node4"><a xlink:href="logging_8h.html#a9585f583c260f40a73f2490914edc689" target="_top" xlink:title="Retrieves the current logging level from the environment variable LOG_LEVEL.">
<polygon fill="none" stroke="black" points="535.5,-114.5 535.5,-133.5 617.5,-133.5 617.5,-114.5 535.5,-114.5"/>
<text text-anchor="middle" x="576.5" y="-121.5" font-family="Helvetica,sans-Serif" font-size="10.00">get_log_level</text>
</a>
</g>
</g>
<!-- Node3&#45;&gt;Node4 -->
<g id="edge3" class="edge">
<title>Node3&#45;&gt;Node4</title>
<path fill="none" stroke="midnightblue" d="M484.28,-112.13C497.69,-113.87 511.97,-115.73 525.16,-117.45"/>
<polygon fill="midnightblue" stroke="midnightblue" points="525.1,-120.97 535.46,-118.79 526,-114.03 525.1,-120.97"/>
</g>
<!-- Node5 -->
<g id="node5" class="node">
<title>Node5</title>
<g id="a_node5"><a xlink:href="logging_8h.html#a2358badbcda33fc9d80ebd6a59d2a2cd" target="_top" xlink:title="Checks if a given function is in the allow&#45;list.">
<polygon fill="none" stroke="black" points="520,-76.5 520,-95.5 633,-95.5 633,-76.5 520,-76.5"/>
<text text-anchor="middle" x="576.5" y="-83.5" font-family="Helvetica,sans-Serif" font-size="10.00">is_function_allowed</text>
</a>
</g>
</g>
<!-- Node3&#45;&gt;Node5 -->
<g id="edge4" class="edge">
<title>Node3&#45;&gt;Node5</title>
<path fill="none" stroke="midnightblue" d="M484.28,-97.87C492.66,-96.78 501.37,-95.65 509.95,-94.53"/>
<polygon fill="midnightblue" stroke="midnightblue" points="510.46,-97.99 519.93,-93.23 509.56,-91.05 510.46,-97.99"/>
</g>
<!-- Node6&#45;&gt;Node3 -->
<g id="edge6" class="edge">
<title>Node6&#45;&gt;Node3</title>
<path fill="none" stroke="midnightblue" d="M327.04,-92.65C338.66,-94.07 351.06,-95.6 363.04,-97.07"/>
<polygon fill="midnightblue" stroke="midnightblue" points="362.62,-100.55 372.97,-98.29 363.47,-93.6 362.62,-100.55"/>
</g>
</g>
</svg>
