<?xml version="1.0" encoding="UTF-8" standalone="no"?>
<!DOCTYPE svg PUBLIC "-//W3C//DTD SVG 1.1//EN"
 "http://www.w3.org/Graphics/SVG/1.1/DTD/svg11.dtd">
<!-- Generated by graphviz version 2.43.0 (0)
 -->
<!-- Title: WriteEulerianFile Pages: 1 -->
<svg width="468pt" height="142pt"
 viewBox="0.00 0.00 468.00 142.00" xmlns="http://www.w3.org/2000/svg" xmlns:xlink="http://www.w3.org/1999/xlink">
<g id="graph0" class="graph" transform="scale(1 1) rotate(0) translate(4 138)">
<title>WriteEulerianFile</title>
<!-- Node1 -->
<g id="node1" class="node">
<title>Node1</title>
<g id="a_node1"><a xlink:title="Orchestrates the writing of a combined, multi&#45;field VTK file for a single time step.">
<polygon fill="#bfbfbf" stroke="black" points="0,-57.5 0,-76.5 99,-76.5 99,-57.5 0,-57.5"/>
<text text-anchor="middle" x="49.5" y="-64.5" font-family="Helvetica,sans-Serif" font-size="10.00">WriteEulerianFile</text>
</a>
</g>
</g>
<!-- Node2 -->
<g id="node2" class="node">
<title>Node2</title>
<g id="a_node2"><a xlink:href="io_8h.html#ad4eeaada0c8227f332499bf5fc4d3bc0" target="_top" xlink:title=" ">
<polygon fill="none" stroke="black" points="143.5,-114.5 143.5,-133.5 299.5,-133.5 299.5,-114.5 143.5,-114.5"/>
<text text-anchor="middle" x="221.5" y="-121.5" font-family="Helvetica,sans-Serif" font-size="10.00">CreateVTKFileFromMetadata</text>
</a>
</g>
</g>
<!-- Node1&#45;&gt;Node2 -->
<g id="edge1" class="edge">
<title>Node1&#45;&gt;Node2</title>
<path fill="none" stroke="midnightblue" d="M68.86,-76.57C85.69,-85.03 111.49,-97.19 135,-105 142.88,-107.62 151.29,-109.98 159.65,-112.09"/>
<polygon fill="midnightblue" stroke="midnightblue" points="158.86,-115.49 169.4,-114.43 160.5,-108.69 158.86,-115.49"/>
</g>
<!-- Node3 -->
<g id="node3" class="node">
<title>Node3</title>
<g id="a_node3"><a xlink:href="vtk__io_8h.html#a53beb8d06e750522a2381c7666c5011c" target="_top" xlink:title="Creates a C array of coordinates corresponding to a subsampled (legacy&#45;style) grid.">
<polygon fill="none" stroke="black" points="148.5,-76.5 148.5,-95.5 294.5,-95.5 294.5,-76.5 148.5,-76.5"/>
<text text-anchor="middle" x="221.5" y="-83.5" font-family="Helvetica,sans-Serif" font-size="10.00">PrepareOutputCoordinates</text>
</a>
</g>
</g>
<!-- Node1&#45;&gt;Node3 -->
<g id="edge2" class="edge">
<title>Node1&#45;&gt;Node3</title>
<path fill="none" stroke="midnightblue" d="M99.22,-72.44C111.41,-73.81 124.84,-75.31 138.17,-76.8"/>
<polygon fill="midnightblue" stroke="midnightblue" points="138,-80.3 148.33,-77.93 138.78,-73.34 138,-80.3"/>
</g>
<!-- Node5 -->
<g id="node5" class="node">
<title>Node5</title>
<g id="a_node5"><a xlink:href="vtk__io_8h.html#a20704fac26a2ed14228875d307f002aa" target="_top" xlink:title="Creates a C array of field data corresponding to a subsampled (legacy&#45;style) grid.">
<polygon fill="none" stroke="black" points="135,-38.5 135,-57.5 308,-57.5 308,-38.5 135,-38.5"/>
<text text-anchor="middle" x="221.5" y="-45.5" font-family="Helvetica,sans-Serif" font-size="10.00">PrepareOutputEulerianFieldData</text>
</a>
</g>
</g>
<!-- Node1&#45;&gt;Node5 -->
<g id="edge4" class="edge">
<title>Node1&#45;&gt;Node5</title>
<path fill="none" stroke="midnightblue" d="M99.22,-61.56C107.48,-60.63 116.32,-59.64 125.31,-58.64"/>
<polygon fill="midnightblue" stroke="midnightblue" points="125.95,-62.09 135.5,-57.5 125.17,-55.13 125.95,-62.09"/>
</g>
<!-- Node6 -->
<g id="node6" class="node">
<title>Node6</title>
<g id="a_node6"><a xlink:href="io_8h.html#a61850e757fea41eb461a930936c34401" target="_top" xlink:title="Helper function to trim leading/trailing whitespace from a string.">
<polygon fill="none" stroke="black" points="174,-0.5 174,-19.5 269,-19.5 269,-0.5 174,-0.5"/>
<text text-anchor="middle" x="221.5" y="-7.5" font-family="Helvetica,sans-Serif" font-size="10.00">TrimWhitespace</text>
</a>
</g>
</g>
<!-- Node1&#45;&gt;Node6 -->
<g id="edge6" class="edge">
<title>Node1&#45;&gt;Node6</title>
<path fill="none" stroke="midnightblue" d="M68.86,-57.43C85.69,-48.97 111.49,-36.81 135,-29 144.21,-25.94 154.14,-23.23 163.87,-20.87"/>
<polygon fill="midnightblue" stroke="midnightblue" points="164.93,-24.22 173.88,-18.56 163.35,-17.4 164.93,-24.22"/>
</g>
<!-- Node4 -->
<g id="node4" class="node">
<title>Node4</title>
<g id="a_node4"><a xlink:href="io_8h.html#aa3512c89570bb1d27f4765819fad4985" target="_top" xlink:title="Gathers the contents of a distributed PETSc Vec into a single array on rank 0.">
<polygon fill="none" stroke="black" points="344,-57.5 344,-76.5 460,-76.5 460,-57.5 344,-57.5"/>
<text text-anchor="middle" x="402" y="-64.5" font-family="Helvetica,sans-Serif" font-size="10.00">VecToArrayOnRank0</text>
</a>
</g>
</g>
<!-- Node3&#45;&gt;Node4 -->
<g id="edge3" class="edge">
<title>Node3&#45;&gt;Node4</title>
<path fill="none" stroke="midnightblue" d="M294.59,-78.33C307.49,-76.95 320.89,-75.53 333.65,-74.17"/>
<polygon fill="midnightblue" stroke="midnightblue" points="334.16,-77.63 343.73,-73.1 333.42,-70.67 334.16,-77.63"/>
</g>
<!-- Node5&#45;&gt;Node4 -->
<g id="edge5" class="edge">
<title>Node5&#45;&gt;Node4</title>
<path fill="none" stroke="midnightblue" d="M308.09,-57.11C316.74,-58.03 325.44,-58.96 333.86,-59.85"/>
<polygon fill="midnightblue" stroke="midnightblue" points="333.65,-63.35 343.96,-60.93 334.39,-56.39 333.65,-63.35"/>
</g>
</g>
</svg>
