<?xml version="1.0" encoding="UTF-8" standalone="no"?>
<!DOCTYPE svg PUBLIC "-//W3C//DTD SVG 1.1//EN"
 "http://www.w3.org/Graphics/SVG/1.1/DTD/svg11.dtd">
<!-- Generated by graphviz version 2.43.0 (0)
 -->
<!-- Title: ParticleDataProcessingPipeline Pages: 1 -->
<svg width="335pt" height="104pt"
 viewBox="0.00 0.00 335.00 104.00" xmlns="http://www.w3.org/2000/svg" xmlns:xlink="http://www.w3.org/1999/xlink">
<g id="graph0" class="graph" transform="scale(1 1) rotate(0) translate(4 100)">
<title>ParticleDataProcessingPipeline</title>
<!-- Node1 -->
<g id="node1" class="node">
<title>Node1</title>
<g id="a_node1"><a xlink:title="Parses and executes the particle pipeline using a robust two&#45;pass approach.">
<polygon fill="#bfbfbf" stroke="black" points="0,-38.5 0,-57.5 168,-57.5 168,-38.5 0,-38.5"/>
<text text-anchor="middle" x="84" y="-45.5" font-family="Helvetica,sans-Serif" font-size="10.00">ParticleDataProcessingPipeline</text>
</a>
</g>
</g>
<!-- Node2 -->
<g id="node2" class="node">
<title>Node2</title>
<g id="a_node2"><a xlink:href="postprocessing__kernels_8h.html#a37ee1aa2e642bbfd24a6faf33a92568c" target="_top" xlink:title="Computes the specific kinetic energy (KE per unit mass) for each particle.">
<polygon fill="none" stroke="black" points="209.5,-76.5 209.5,-95.5 321.5,-95.5 321.5,-76.5 209.5,-76.5"/>
<text text-anchor="middle" x="265.5" y="-83.5" font-family="Helvetica,sans-Serif" font-size="10.00">ComputeSpecificKE</text>
</a>
</g>
</g>
<!-- Node1&#45;&gt;Node2 -->
<g id="edge1" class="edge">
<title>Node1&#45;&gt;Node2</title>
<path fill="none" stroke="midnightblue" d="M130.3,-57.59C154.41,-62.69 184.25,-69.01 209.67,-74.39"/>
<polygon fill="midnightblue" stroke="midnightblue" points="209.02,-77.83 219.53,-76.48 210.47,-70.98 209.02,-77.83"/>
</g>
<!-- Node3 -->
<g id="node3" class="node">
<title>Node3</title>
<g id="a_node3"><a xlink:href="ParticleMotion_8h.html#a38b5e7348bc556d505e2c4b31c29b086" target="_top" xlink:title=" ">
<polygon fill="none" stroke="black" points="204,-38.5 204,-57.5 327,-57.5 327,-38.5 204,-38.5"/>
<text text-anchor="middle" x="265.5" y="-45.5" font-family="Helvetica,sans-Serif" font-size="10.00">ResizeSwarmGlobally</text>
</a>
</g>
</g>
<!-- Node1&#45;&gt;Node3 -->
<g id="edge2" class="edge">
<title>Node1&#45;&gt;Node3</title>
<path fill="none" stroke="midnightblue" d="M168.18,-48C176.72,-48 185.34,-48 193.73,-48"/>
<polygon fill="midnightblue" stroke="midnightblue" points="193.83,-51.5 203.83,-48 193.83,-44.5 193.83,-51.5"/>
</g>
<!-- Node4 -->
<g id="node4" class="node">
<title>Node4</title>
<g id="a_node4"><a xlink:href="io_8h.html#a61850e757fea41eb461a930936c34401" target="_top" xlink:title="Helper function to trim leading/trailing whitespace from a string.">
<polygon fill="none" stroke="black" points="218,-0.5 218,-19.5 313,-19.5 313,-0.5 218,-0.5"/>
<text text-anchor="middle" x="265.5" y="-7.5" font-family="Helvetica,sans-Serif" font-size="10.00">TrimWhitespace</text>
</a>
</g>
</g>
<!-- Node1&#45;&gt;Node4 -->
<g id="edge3" class="edge">
<title>Node1&#45;&gt;Node4</title>
<path fill="none" stroke="midnightblue" d="M130.3,-38.41C154.41,-33.31 184.25,-26.99 209.67,-21.61"/>
<polygon fill="midnightblue" stroke="midnightblue" points="210.47,-25.02 219.53,-19.52 209.02,-18.17 210.47,-25.02"/>
</g>
</g>
</svg>
