<?xml version="1.0" encoding="UTF-8" standalone="no"?>
<!DOCTYPE svg PUBLIC "-//W3C//DTD SVG 1.1//EN"
 "http://www.w3.org/Graphics/SVG/1.1/DTD/svg11.dtd">
<!-- Generated by graphviz version 2.43.0 (0)
 -->
<!-- Title: WriteParticleFile Pages: 1 -->
<svg width="486pt" height="85pt"
 viewBox="0.00 0.00 486.00 85.00" xmlns="http://www.w3.org/2000/svg" xmlns:xlink="http://www.w3.org/1999/xlink">
<g id="graph0" class="graph" transform="scale(1 1) rotate(0) translate(4 81)">
<title>WriteParticleFile</title>
<!-- Node1 -->
<g id="node1" class="node">
<title>Node1</title>
<g id="a_node1"><a xlink:title="Writes particle data to a VTP file using the Prepare&#45;Write&#45;Cleanup pattern.">
<polygon fill="#bfbfbf" stroke="black" points="0,-38.5 0,-57.5 96,-57.5 96,-38.5 0,-38.5"/>
<text text-anchor="middle" x="48" y="-45.5" font-family="Helvetica,sans-Serif" font-size="10.00">WriteParticleFile</text>
</a>
</g>
</g>
<!-- Node2 -->
<g id="node2" class="node">
<title>Node2</title>
<g id="a_node2"><a xlink:href="io_8h.html#ad4eeaada0c8227f332499bf5fc4d3bc0" target="_top" xlink:title=" ">
<polygon fill="none" stroke="black" points="132,-57.5 132,-76.5 288,-76.5 288,-57.5 132,-57.5"/>
<text text-anchor="middle" x="210" y="-64.5" font-family="Helvetica,sans-Serif" font-size="10.00">CreateVTKFileFromMetadata</text>
</a>
</g>
</g>
<!-- Node1&#45;&gt;Node2 -->
<g id="edge1" class="edge">
<title>Node1&#45;&gt;Node2</title>
<path fill="none" stroke="midnightblue" d="M96.14,-53.6C104.31,-54.57 113.04,-55.6 121.88,-56.65"/>
<polygon fill="midnightblue" stroke="midnightblue" points="121.54,-60.14 131.89,-57.84 122.37,-53.19 121.54,-60.14"/>
</g>
<!-- Node3 -->
<g id="node3" class="node">
<title>Node3</title>
<g id="a_node3"><a xlink:href="vtk__io_8h.html#af1bf47e0b45318d43a97d2bdbf766888" target="_top" xlink:title="Gathers, subsamples, and prepares all particle data for VTK output.">
<polygon fill="none" stroke="black" points="136.5,-19.5 136.5,-38.5 283.5,-38.5 283.5,-19.5 136.5,-19.5"/>
<text text-anchor="middle" x="210" y="-26.5" font-family="Helvetica,sans-Serif" font-size="10.00">PrepareOutputParticleData</text>
</a>
</g>
</g>
<!-- Node1&#45;&gt;Node3 -->
<g id="edge2" class="edge">
<title>Node1&#45;&gt;Node3</title>
<path fill="none" stroke="midnightblue" d="M96.14,-42.4C105.71,-41.27 116.04,-40.04 126.43,-38.81"/>
<polygon fill="midnightblue" stroke="midnightblue" points="126.86,-42.28 136.38,-37.62 126.04,-35.33 126.86,-42.28"/>
</g>
<!-- Node4 -->
<g id="node4" class="node">
<title>Node4</title>
<g id="a_node4"><a xlink:href="io_8h.html#a093c8c981643c86a2c594fea39dec0c1" target="_top" xlink:title="Gathers any DMSwarm field from all ranks to a single, contiguous array on rank 0.">
<polygon fill="none" stroke="black" points="324,-38.5 324,-57.5 478,-57.5 478,-38.5 324,-38.5"/>
<text text-anchor="middle" x="401" y="-45.5" font-family="Helvetica,sans-Serif" font-size="10.00">SwarmFieldToArrayOnRank0</text>
</a>
</g>
</g>
<!-- Node3&#45;&gt;Node4 -->
<g id="edge3" class="edge">
<title>Node3&#45;&gt;Node4</title>
<path fill="none" stroke="midnightblue" d="M283.53,-36.29C293.45,-37.29 303.7,-38.32 313.83,-39.34"/>
<polygon fill="midnightblue" stroke="midnightblue" points="313.6,-42.83 323.9,-40.35 314.3,-35.87 313.6,-42.83"/>
</g>
<!-- Node5 -->
<g id="node5" class="node">
<title>Node5</title>
<g id="a_node5"><a xlink:href="io_8h.html#a61850e757fea41eb461a930936c34401" target="_top" xlink:title="Helper function to trim leading/trailing whitespace from a string.">
<polygon fill="none" stroke="black" points="353.5,-0.5 353.5,-19.5 448.5,-19.5 448.5,-0.5 353.5,-0.5"/>
<text text-anchor="middle" x="401" y="-7.5" font-family="Helvetica,sans-Serif" font-size="10.00">TrimWhitespace</text>
</a>
</g>
</g>
<!-- Node3&#45;&gt;Node5 -->
<g id="edge4" class="edge">
<title>Node3&#45;&gt;Node5</title>
<path fill="none" stroke="midnightblue" d="M283.53,-21.71C303.29,-19.72 324.41,-17.6 343.17,-15.71"/>
<polygon fill="midnightblue" stroke="midnightblue" points="343.72,-19.18 353.32,-14.69 343.02,-12.21 343.72,-19.18"/>
</g>
</g>
</svg>
