<?xml version="1.0" encoding="UTF-8" standalone="no"?>
<!DOCTYPE svg PUBLIC "-//W3C//DTD SVG 1.1//EN"
 "http://www.w3.org/Graphics/SVG/1.1/DTD/svg11.dtd">
<!-- Generated by graphviz version 2.43.0 (0)
 -->
<!-- Title: ComputeRHS Pages: 1 -->
<!--zoomable 123 -->
<svg id="main" version="1.1" xmlns="http://www.w3.org/2000/svg" xmlns:xlink="http://www.w3.org/1999/xlink" xml:space="preserve" onload="init(evt)">
<style type="text/css"><![CDATA[
.edge:hover path { stroke: red; }
.edge:hover polygon { stroke: red; fill: red; }
]]></style>
<script type="text/javascript"><![CDATA[
var edges = document.getElementsByTagName('g');
if (edges && edges.length) {
  for (var i=0;i<edges.length;i++) {
    if (edges[i].id.substr(0,4)=='edge') {
      edges[i].setAttribute('class','edge');
    }
  }
}
]]></script>
        <defs>
                <circle id="rim" cx="0" cy="0" r="7"/>
                <circle id="rim2" cx="0" cy="0" r="3.5"/>
                <g id="zoomPlus">
                        <use xlink:href="#rim" fill="#404040">
                                <set attributeName="fill" to="#808080" begin="zoomplus.mouseover" end="zoomplus.mouseout"/>
                        </use>
                        <path d="M-4,0h8M0,-4v8" fill="none" stroke="white" stroke-width="1.5" pointer-events="none"/>
                </g>
                <g id="zoomMin">
                        <use xlink:href="#rim" fill="#404040">
                                <set attributeName="fill" to="#808080" begin="zoomminus.mouseover" end="zoomminus.mouseout"/>
                        </use>
                        <path d="M-4,0h8" fill="none" stroke="white" stroke-width="1.5" pointer-events="none"/>
                </g>
                <g id="dirArrow">
                        <path fill="none" stroke="white" stroke-width="1.5" d="M0,-3.0v7 M-2.5,-0.5L0,-3.0L2.5,-0.5"/>
                </g>
               <g id="resetDef">
                       <use xlink:href="#rim2" fill="#404040">
                               <set attributeName="fill" to="#808080" begin="reset.mouseover" end="reset.mouseout"/>
                       </use>
               </g>
        </defs>

<script type="text/javascript">
var viewWidth = 692;
var viewHeight = 123;
var sectionId = 'dynsection-9';
</script>
<script xlink:href="svgpan.js"/>
<svg id="graph" class="graph">
<g id="viewport">
<title>ComputeRHS</title>
<!-- Node1 -->
<g id="node1" class="node">
<title>Node1</title>
<g id="a_node1"><a xlink:title="Computes the Right&#45;Hand&#45;Side (RHS) of the momentum equations.">
<polygon fill="#bfbfbf" stroke="black" points="0,-57.5 0,-76.5 81,-76.5 81,-57.5 0,-57.5"/>
<text text-anchor="middle" x="40.5" y="-64.5" font-family="Helvetica,sans-Serif" font-size="10.00">ComputeRHS</text>
</a>
</g>
</g>
<!-- Node2 -->
<g id="node2" class="node">
<title>Node2</title>
<g id="a_node2"><a xlink:href="setup_8h.html#a515c9a96eb4bcac29f79e78c8882d7aa" target="_top" xlink:title="Reconstructs Cartesian velocity (Ucat) at cell centers from contravariant velocity (Ucont) defined on...">
<polygon fill="none" stroke="black" points="117,-95.5 117,-114.5 192,-114.5 192,-95.5 117,-95.5"/>
<text text-anchor="middle" x="154.5" y="-102.5" font-family="Helvetica,sans-Serif" font-size="10.00">Contra2Cart</text>
</a>
</g>
</g>
<!-- Node1&#45;&gt;Node2 -->
<g id="edge1" class="edge">
<title>Node1&#45;&gt;Node2</title>
<path fill="none" stroke="midnightblue" d="M69.76,-76.59C83.69,-81.31 100.68,-87.08 115.71,-92.18"/>
<polygon fill="midnightblue" stroke="midnightblue" points="114.65,-95.52 125.25,-95.41 116.9,-88.89 114.65,-95.52"/>
</g>
<!-- Node3 -->
<g id="node3" class="node">
<title>Node3</title>
<g id="a_node3"><a xlink:href="rhs_8c.html#a59a4e489633014a0f4e1e85318d395d3" target="_top" xlink:title=" ">
<polygon fill="none" stroke="black" points="119,-57.5 119,-76.5 190,-76.5 190,-57.5 119,-57.5"/>
<text text-anchor="middle" x="154.5" y="-64.5" font-family="Helvetica,sans-Serif" font-size="10.00">Convection</text>
</a>
</g>
</g>
<!-- Node1&#45;&gt;Node3 -->
<g id="edge2" class="edge">
<title>Node1&#45;&gt;Node3</title>
<path fill="none" stroke="midnightblue" d="M81.3,-67C90.07,-67 99.42,-67 108.38,-67"/>
<polygon fill="midnightblue" stroke="midnightblue" points="108.66,-70.5 118.66,-67 108.66,-63.5 108.66,-70.5"/>
</g>
<!-- Node4 -->
<g id="node4" class="node">
<title>Node4</title>
<g id="a_node4"><a xlink:href="rhs_8c.html#a3e0cf2a027c25bb1f6510d4a7e5d4870" target="_top" xlink:title=" ">
<polygon fill="none" stroke="black" points="127.5,-19.5 127.5,-38.5 181.5,-38.5 181.5,-19.5 127.5,-19.5"/>
<text text-anchor="middle" x="154.5" y="-26.5" font-family="Helvetica,sans-Serif" font-size="10.00">Viscous</text>
</a>
</g>
</g>
<!-- Node1&#45;&gt;Node4 -->
<g id="edge3" class="edge">
<title>Node1&#45;&gt;Node4</title>
<path fill="none" stroke="midnightblue" d="M69.76,-57.41C84.22,-52.51 101.98,-46.48 117.42,-41.24"/>
<polygon fill="midnightblue" stroke="midnightblue" points="118.82,-44.46 127.17,-37.93 116.58,-37.83 118.82,-44.46"/>
</g>
<!-- Node5 -->
<g id="node5" class="node">
<title>Node5</title>
<g id="a_node5"><a xlink:href="rhs_8c.html#a619998e3b8a88fe90548745b983ade78" target="_top" xlink:title=" ">
<polygon fill="none" stroke="black" points="228,-38.5 228,-57.5 326,-57.5 326,-38.5 228,-38.5"/>
<text text-anchor="middle" x="277" y="-45.5" font-family="Helvetica,sans-Serif" font-size="10.00">Calculatedxdydz</text>
</a>
</g>
</g>
<!-- Node4&#45;&gt;Node5 -->
<g id="edge4" class="edge">
<title>Node4&#45;&gt;Node5</title>
<path fill="none" stroke="midnightblue" d="M181.65,-33.12C192.24,-34.79 204.94,-36.8 217.53,-38.78"/>
<polygon fill="midnightblue" stroke="midnightblue" points="217.14,-42.26 227.56,-40.36 218.23,-35.35 217.14,-42.26"/>
</g>
<!-- Node8 -->
<g id="node8" class="node">
<title>Node8</title>
<g id="a_node8"><a xlink:href="wallfunction_8h.html#adc08703381597f75ccb620bf30d90ae1" target="_top" xlink:title=" ">
<polygon fill="none" stroke="black" points="258,-0.5 258,-19.5 296,-19.5 296,-0.5 258,-0.5"/>
<text text-anchor="middle" x="277" y="-7.5" font-family="Helvetica,sans-Serif" font-size="10.00">nu_t</text>
</a>
</g>
</g>
<!-- Node4&#45;&gt;Node8 -->
<g id="edge7" class="edge">
<title>Node4&#45;&gt;Node8</title>
<path fill="none" stroke="midnightblue" d="M181.65,-24.88C201.13,-21.81 227.7,-17.62 247.68,-14.47"/>
<polygon fill="midnightblue" stroke="midnightblue" points="248.4,-17.89 257.74,-12.88 247.31,-10.98 248.4,-17.89"/>
</g>
<!-- Node6 -->
<g id="node6" class="node">
<title>Node6</title>
<g id="a_node6"><a xlink:href="rhs_8c.html#aecbb71daf364f9c5810052e4b9ad1840" target="_top" xlink:title=" ">
<polygon fill="none" stroke="black" points="362,-38.5 362,-57.5 502,-57.5 502,-38.5 362,-38.5"/>
<text text-anchor="middle" x="432" y="-45.5" font-family="Helvetica,sans-Serif" font-size="10.00">CalculateNormalAndArea</text>
</a>
</g>
</g>
<!-- Node5&#45;&gt;Node6 -->
<g id="edge5" class="edge">
<title>Node5&#45;&gt;Node6</title>
<path fill="none" stroke="midnightblue" d="M326.41,-48C334.53,-48 343.13,-48 351.79,-48"/>
<polygon fill="midnightblue" stroke="midnightblue" points="351.94,-51.5 361.94,-48 351.94,-44.5 351.94,-51.5"/>
</g>
<!-- Node7 -->
<g id="node7" class="node">
<title>Node7</title>
<g id="a_node7"><a xlink:href="rhs_8c.html#aa8f3b644af5c8201570f3fa7d5ae350a" target="_top" xlink:title=" ">
<polygon fill="none" stroke="black" points="538,-38.5 538,-57.5 684,-57.5 684,-38.5 538,-38.5"/>
<text text-anchor="middle" x="611" y="-45.5" font-family="Helvetica,sans-Serif" font-size="10.00">CalculateCovariantMetrics</text>
</a>
</g>
</g>
<!-- Node6&#45;&gt;Node7 -->
<g id="edge6" class="edge">
<title>Node6&#45;&gt;Node7</title>
<path fill="none" stroke="midnightblue" d="M502.19,-48C510.63,-48 519.3,-48 527.9,-48"/>
<polygon fill="midnightblue" stroke="midnightblue" points="527.94,-51.5 537.94,-48 527.94,-44.5 527.94,-51.5"/>
</g>
</g>
</svg>
        <g id="navigator" transform="translate(0 0)" fill="#404254">
                <rect fill="#f2f5e9" fill-opacity="0.5" stroke="#606060" stroke-width=".5" x="0" y="0" width="60" height="60"/>
                <use id="zoomplus" xlink:href="#zoomPlus" x="17" y="9" onmousedown="handleZoom(evt,'in')"/>
                <use id="zoomminus" xlink:href="#zoomMin" x="42" y="9" onmousedown="handleZoom(evt,'out')"/>
                <use id="reset" xlink:href="#resetDef" x="30" y="36" onmousedown="handleReset()"/>
                <g id="arrowUp" xlink:href="#dirArrow" transform="translate(30 24)" onmousedown="handlePan(0,-1)">
                  <use xlink:href="#rim" fill="#404040">
                        <set attributeName="fill" to="#808080" begin="arrowUp.mouseover" end="arrowUp.mouseout"/>
                  </use>
                  <path fill="none" stroke="white" stroke-width="1.5" d="M0,-3.0v7 M-2.5,-0.5L0,-3.0L2.5,-0.5"/>
                </g>
                <g id="arrowRight" xlink:href="#dirArrow" transform="rotate(90) translate(36 -43)" onmousedown="handlePan(1,0)">
                  <use xlink:href="#rim" fill="#404040">
                        <set attributeName="fill" to="#808080" begin="arrowRight.mouseover" end="arrowRight.mouseout"/>
                  </use>
                  <path fill="none" stroke="white" stroke-width="1.5" d="M0,-3.0v7 M-2.5,-0.5L0,-3.0L2.5,-0.5"/>
                </g>
                <g id="arrowDown" xlink:href="#dirArrow" transform="rotate(180) translate(-30 -48)" onmousedown="handlePan(0,1)">
                  <use xlink:href="#rim" fill="#404040">
                        <set attributeName="fill" to="#808080" begin="arrowDown.mouseover" end="arrowDown.mouseout"/>
                  </use>
                  <path fill="none" stroke="white" stroke-width="1.5" d="M0,-3.0v7 M-2.5,-0.5L0,-3.0L2.5,-0.5"/>
                </g>
                <g id="arrowLeft" xlink:href="#dirArrow" transform="rotate(270) translate(-36 17)" onmousedown="handlePan(-1,0)">
                  <use xlink:href="#rim" fill="#404040">
                        <set attributeName="fill" to="#808080" begin="arrowLeft.mouseover" end="arrowLeft.mouseout"/>
                  </use>
                  <path fill="none" stroke="white" stroke-width="1.5" d="M0,-3.0v7 M-2.5,-0.5L0,-3.0L2.5,-0.5"/>
                </g>
        </g>
        <svg viewBox="0 0 15 15" width="100%" height="30px" preserveAspectRatio="xMaxYMin meet">
         <g id="arrow_out" transform="scale(0.3 0.3)">
          <a xlink:href="rhs_8c_af191235c93d0d91fa83f8e3b0e9274d8_cgraph_org.svg" target="_base">
           <rect id="button" ry="5" rx="5" y="6" x="6" height="38" width="38"
                fill="#f2f5e9" fill-opacity="0.5" stroke="#606060" stroke-width="1.0"/>
           <path id="arrow"
             d="M 11.500037,31.436501 C 11.940474,20.09759 22.043105,11.32322 32.158766,21.979434 L 37.068811,17.246167 C 37.068811,17.246167 37.088388,32 37.088388,32 L 22.160133,31.978069 C 22.160133,31.978069 26.997745,27.140456 26.997745,27.140456 C 18.528582,18.264221 13.291696,25.230495 11.500037,31.436501 z"
             style="fill:#404040;"/>
          </a>
         </g>
        </svg>
</svg>
