<?xml version="1.0" encoding="UTF-8" standalone="no"?>
<!DOCTYPE svg PUBLIC "-//W3C//DTD SVG 1.1//EN"
 "http://www.w3.org/Graphics/SVG/1.1/DTD/svg11.dtd">
<!-- Generated by graphviz version 2.43.0 (0)
 -->
<!-- Title: rhs.h Pages: 1 -->
<svg width="350pt" height="308pt"
 viewBox="0.00 0.00 350.00 308.00" xmlns="http://www.w3.org/2000/svg" xmlns:xlink="http://www.w3.org/1999/xlink">
<g id="graph0" class="graph" transform="scale(1 1) rotate(0) translate(4 304)">
<title>rhs.h</title>
<!-- Node1 -->
<g id="node1" class="node">
<title>Node1</title>
<g id="a_node1"><a xlink:title=" ">
<polygon fill="#bfbfbf" stroke="black" points="164,-280.5 164,-299.5 205,-299.5 205,-280.5 164,-280.5"/>
<text text-anchor="middle" x="184.5" y="-287.5" font-family="Helvetica,sans-Serif" font-size="10.00">rhs.h</text>
</a>
</g>
</g>
<!-- Node2 -->
<g id="node2" class="node">
<title>Node2</title>
<g id="a_node2"><a xlink:href="implicitsolvers_8h.html" target="_top" xlink:title=" ">
<polygon fill="none" stroke="black" points="28.5,-224.5 28.5,-243.5 126.5,-243.5 126.5,-224.5 28.5,-224.5"/>
<text text-anchor="middle" x="77.5" y="-231.5" font-family="Helvetica,sans-Serif" font-size="10.00">implicitsolvers.h</text>
</a>
</g>
</g>
<!-- Node1&#45;&gt;Node2 -->
<g id="edge1" class="edge">
<title>Node1&#45;&gt;Node2</title>
<path fill="none" stroke="midnightblue" d="M158.2,-275.73C138.39,-265.73 111.79,-252.31 94.65,-243.65"/>
<polygon fill="midnightblue" stroke="midnightblue" points="156.8,-278.94 167.31,-280.32 159.96,-272.69 156.8,-278.94"/>
</g>
<!-- Node3 -->
<g id="node3" class="node">
<title>Node3</title>
<g id="a_node3"><a xlink:href="solvers_8h.html" target="_top" xlink:title=" ">
<polygon fill="none" stroke="black" points="115,-168.5 115,-187.5 176,-187.5 176,-168.5 115,-168.5"/>
<text text-anchor="middle" x="145.5" y="-175.5" font-family="Helvetica,sans-Serif" font-size="10.00">solvers.h</text>
</a>
</g>
</g>
<!-- Node1&#45;&gt;Node3 -->
<g id="edge12" class="edge">
<title>Node1&#45;&gt;Node3</title>
<path fill="none" stroke="midnightblue" d="M178,-270.67C169.48,-246.62 154.86,-205.39 148.55,-187.59"/>
<polygon fill="midnightblue" stroke="midnightblue" points="174.8,-272.11 181.44,-280.37 181.4,-269.77 174.8,-272.11"/>
</g>
<!-- Node9 -->
<g id="node9" class="node">
<title>Node9</title>
<g id="a_node9"><a xlink:href="rhs_8c.html" target="_top" xlink:title=" ">
<polygon fill="none" stroke="black" points="249.5,-112.5 249.5,-131.5 289.5,-131.5 289.5,-112.5 249.5,-112.5"/>
<text text-anchor="middle" x="269.5" y="-119.5" font-family="Helvetica,sans-Serif" font-size="10.00">rhs.c</text>
</a>
</g>
</g>
<!-- Node1&#45;&gt;Node9 -->
<g id="edge16" class="edge">
<title>Node1&#45;&gt;Node9</title>
<path fill="none" stroke="midnightblue" d="M214.55,-276.96C229.15,-269.59 245.62,-258.71 255.5,-244 279.55,-208.18 274.16,-152.61 270.98,-131.52"/>
<polygon fill="midnightblue" stroke="midnightblue" points="212.88,-273.88 205.32,-281.3 215.86,-280.21 212.88,-273.88"/>
</g>
<!-- Node12 -->
<g id="node12" class="node">
<title>Node12</title>
<g id="a_node12"><a xlink:href="poisson_8h.html" target="_top" xlink:title=" ">
<polygon fill="none" stroke="black" points="183,-224.5 183,-243.5 246,-243.5 246,-224.5 183,-224.5"/>
<text text-anchor="middle" x="214.5" y="-231.5" font-family="Helvetica,sans-Serif" font-size="10.00">poisson.h</text>
</a>
</g>
</g>
<!-- Node1&#45;&gt;Node12 -->
<g id="edge13" class="edge">
<title>Node1&#45;&gt;Node12</title>
<path fill="none" stroke="midnightblue" d="M194.35,-271.27C199.47,-262.05 205.52,-251.17 209.64,-243.75"/>
<polygon fill="midnightblue" stroke="midnightblue" points="191.25,-269.64 189.45,-280.08 197.37,-273.04 191.25,-269.64"/>
</g>
<!-- Node2&#45;&gt;Node3 -->
<g id="edge2" class="edge">
<title>Node2&#45;&gt;Node3</title>
<path fill="none" stroke="midnightblue" d="M96.26,-218.1C108.5,-208.38 124.06,-196.03 134.38,-187.83"/>
<polygon fill="midnightblue" stroke="midnightblue" points="94.08,-215.36 88.43,-224.32 98.43,-220.85 94.08,-215.36"/>
</g>
<!-- Node11 -->
<g id="node11" class="node">
<title>Node11</title>
<g id="a_node11"><a xlink:href="implicitsolvers_8c.html" target="_top" xlink:title=" ">
<polygon fill="none" stroke="black" points="0,-168.5 0,-187.5 97,-187.5 97,-168.5 0,-168.5"/>
<text text-anchor="middle" x="48.5" y="-175.5" font-family="Helvetica,sans-Serif" font-size="10.00">implicitsolvers.c</text>
</a>
</g>
</g>
<!-- Node2&#45;&gt;Node11 -->
<g id="edge11" class="edge">
<title>Node2&#45;&gt;Node11</title>
<path fill="none" stroke="midnightblue" d="M67.82,-214.98C62.9,-205.82 57.14,-195.09 53.2,-187.75"/>
<polygon fill="midnightblue" stroke="midnightblue" points="64.9,-216.93 72.71,-224.08 71.06,-213.62 64.9,-216.93"/>
</g>
<!-- Node4 -->
<g id="node4" class="node">
<title>Node4</title>
<g id="a_node4"><a xlink:href="simulation_8h.html" target="_top" xlink:title=" ">
<polygon fill="none" stroke="black" points="123,-112.5 123,-131.5 200,-131.5 200,-112.5 123,-112.5"/>
<text text-anchor="middle" x="161.5" y="-119.5" font-family="Helvetica,sans-Serif" font-size="10.00">simulation.h</text>
</a>
</g>
</g>
<!-- Node3&#45;&gt;Node4 -->
<g id="edge3" class="edge">
<title>Node3&#45;&gt;Node4</title>
<path fill="none" stroke="midnightblue" d="M151.01,-158.4C153.69,-149.36 156.78,-138.94 158.91,-131.75"/>
<polygon fill="midnightblue" stroke="midnightblue" points="147.63,-157.5 148.14,-168.08 154.34,-159.49 147.63,-157.5"/>
</g>
<!-- Node3&#45;&gt;Node9 -->
<g id="edge9" class="edge">
<title>Node3&#45;&gt;Node9</title>
<path fill="none" stroke="midnightblue" d="M174.51,-164.37C197.73,-154.26 229.66,-140.35 249.94,-131.52"/>
<polygon fill="midnightblue" stroke="midnightblue" points="172.92,-161.24 165.15,-168.44 175.71,-167.66 172.92,-161.24"/>
</g>
<!-- Node10 -->
<g id="node10" class="node">
<title>Node10</title>
<g id="a_node10"><a xlink:href="solvers_8c.html" target="_top" xlink:title=" ">
<polygon fill="none" stroke="black" points="44.5,-112.5 44.5,-131.5 104.5,-131.5 104.5,-112.5 44.5,-112.5"/>
<text text-anchor="middle" x="74.5" y="-119.5" font-family="Helvetica,sans-Serif" font-size="10.00">solvers.c</text>
</a>
</g>
</g>
<!-- Node3&#45;&gt;Node10 -->
<g id="edge10" class="edge">
<title>Node3&#45;&gt;Node10</title>
<path fill="none" stroke="midnightblue" d="M125.91,-162.1C113.13,-152.38 96.89,-140.03 86.11,-131.83"/>
<polygon fill="midnightblue" stroke="midnightblue" points="124.01,-165.06 134.09,-168.32 128.25,-159.48 124.01,-165.06"/>
</g>
<!-- Node5 -->
<g id="node5" class="node">
<title>Node5</title>
<g id="a_node5"><a xlink:href="initialcondition_8h.html" target="_top" xlink:title=" ">
<polygon fill="none" stroke="black" points="61.5,-56.5 61.5,-75.5 159.5,-75.5 159.5,-56.5 61.5,-56.5"/>
<text text-anchor="middle" x="110.5" y="-63.5" font-family="Helvetica,sans-Serif" font-size="10.00">initialcondition.h</text>
</a>
</g>
</g>
<!-- Node4&#45;&gt;Node5 -->
<g id="edge4" class="edge">
<title>Node4&#45;&gt;Node5</title>
<path fill="none" stroke="midnightblue" d="M140.73,-105.54C130.6,-95.91 119.57,-83.87 113.69,-75.83"/>
<polygon fill="midnightblue" stroke="midnightblue" points="138.44,-108.19 148.19,-112.32 143.15,-103.01 138.44,-108.19"/>
</g>
<!-- Node7 -->
<g id="node7" class="node">
<title>Node7</title>
<g id="a_node7"><a xlink:href="picsolver_8c.html" target="_top" xlink:title=" ">
<polygon fill="none" stroke="black" points="178,-56.5 178,-75.5 247,-75.5 247,-56.5 178,-56.5"/>
<text text-anchor="middle" x="212.5" y="-63.5" font-family="Helvetica,sans-Serif" font-size="10.00">picsolver.c</text>
</a>
</g>
</g>
<!-- Node4&#45;&gt;Node7 -->
<g id="edge7" class="edge">
<title>Node4&#45;&gt;Node7</title>
<path fill="none" stroke="midnightblue" d="M176.88,-104.72C185.87,-95.2 196.86,-83.56 204.24,-75.75"/>
<polygon fill="midnightblue" stroke="midnightblue" points="174.24,-102.41 169.92,-112.08 179.33,-107.22 174.24,-102.41"/>
</g>
<!-- Node8 -->
<g id="node8" class="node">
<title>Node8</title>
<g id="a_node8"><a xlink:href="simulation_8c.html" target="_top" xlink:title="Test program for DMSwarm interpolation using the fdf&#45;curvIB method. Provides the setup to start any s...">
<polygon fill="none" stroke="black" points="265,-56.5 265,-75.5 342,-75.5 342,-56.5 265,-56.5"/>
<text text-anchor="middle" x="303.5" y="-63.5" font-family="Helvetica,sans-Serif" font-size="10.00">simulation.c</text>
</a>
</g>
</g>
<!-- Node4&#45;&gt;Node8 -->
<g id="edge8" class="edge">
<title>Node4&#45;&gt;Node8</title>
<path fill="none" stroke="midnightblue" d="M193.66,-108.77C220.33,-98.63 257.57,-84.47 281.1,-75.52"/>
<polygon fill="midnightblue" stroke="midnightblue" points="192.1,-105.62 184,-112.44 194.59,-112.16 192.1,-105.62"/>
</g>
<!-- Node5&#45;&gt;Node4 -->
<g id="edge5" class="edge">
<title>Node5&#45;&gt;Node4</title>
<path fill="none" stroke="midnightblue" d="M131.33,-82.51C141.4,-92.1 152.36,-104.06 158.24,-112.08"/>
<polygon fill="midnightblue" stroke="midnightblue" points="133.65,-79.89 123.9,-75.75 128.94,-85.07 133.65,-79.89"/>
</g>
<!-- Node6 -->
<g id="node6" class="node">
<title>Node6</title>
<g id="a_node6"><a xlink:href="initialcondition_8c.html" target="_top" xlink:title="Test program for DMSwarm interpolation using the fdf&#45;curvIB method.">
<polygon fill="none" stroke="black" points="61.5,-0.5 61.5,-19.5 159.5,-19.5 159.5,-0.5 61.5,-0.5"/>
<text text-anchor="middle" x="110.5" y="-7.5" font-family="Helvetica,sans-Serif" font-size="10.00">initialcondition.c</text>
</a>
</g>
</g>
<!-- Node5&#45;&gt;Node6 -->
<g id="edge6" class="edge">
<title>Node5&#45;&gt;Node6</title>
<path fill="none" stroke="midnightblue" d="M110.5,-45.8C110.5,-36.91 110.5,-26.78 110.5,-19.75"/>
<polygon fill="midnightblue" stroke="midnightblue" points="107,-46.08 110.5,-56.08 114,-46.08 107,-46.08"/>
</g>
<!-- Node12&#45;&gt;Node3 -->
<g id="edge14" class="edge">
<title>Node12&#45;&gt;Node3</title>
<path fill="none" stroke="midnightblue" d="M195.46,-218.1C183.04,-208.38 167.26,-196.03 156.79,-187.83"/>
<polygon fill="midnightblue" stroke="midnightblue" points="193.38,-220.92 203.41,-224.32 197.7,-215.4 193.38,-220.92"/>
</g>
<!-- Node13 -->
<g id="node13" class="node">
<title>Node13</title>
<g id="a_node13"><a xlink:href="poisson_8c.html" target="_top" xlink:title=" ">
<polygon fill="none" stroke="black" points="194.5,-168.5 194.5,-187.5 256.5,-187.5 256.5,-168.5 194.5,-168.5"/>
<text text-anchor="middle" x="225.5" y="-175.5" font-family="Helvetica,sans-Serif" font-size="10.00">poisson.c</text>
</a>
</g>
</g>
<!-- Node12&#45;&gt;Node13 -->
<g id="edge15" class="edge">
<title>Node12&#45;&gt;Node13</title>
<path fill="none" stroke="midnightblue" d="M218.35,-214.1C220.18,-205.14 222.27,-194.86 223.72,-187.75"/>
<polygon fill="midnightblue" stroke="midnightblue" points="214.88,-213.59 216.32,-224.08 221.74,-214.98 214.88,-213.59"/>
</g>
</g>
</svg>
