<?xml version="1.0" encoding="UTF-8" standalone="no"?>
<!DOCTYPE svg PUBLIC "-//W3C//DTD SVG 1.1//EN"
 "http://www.w3.org/Graphics/SVG/1.1/DTD/svg11.dtd">
<!-- Generated by graphviz version 2.43.0 (0)
 -->
<!-- Title: CalculateCovariantMetrics Pages: 1 -->
<svg width="1128pt" height="104pt"
 viewBox="0.00 0.00 1128.00 104.00" xmlns="http://www.w3.org/2000/svg" xmlns:xlink="http://www.w3.org/1999/xlink">
<g id="graph0" class="graph" transform="scale(1 1) rotate(0) translate(4 100)">
<title>CalculateCovariantMetrics</title>
<!-- Node1 -->
<g id="node1" class="node">
<title>Node1</title>
<g id="a_node1"><a xlink:title=" ">
<polygon fill="#bfbfbf" stroke="black" points="974,-19.5 974,-38.5 1120,-38.5 1120,-19.5 974,-19.5"/>
<text text-anchor="middle" x="1047" y="-26.5" font-family="Helvetica,sans-Serif" font-size="10.00">CalculateCovariantMetrics</text>
</a>
</g>
</g>
<!-- Node2 -->
<g id="node2" class="node">
<title>Node2</title>
<g id="a_node2"><a xlink:href="rhs_8c.html#aecbb71daf364f9c5810052e4b9ad1840" target="_top" xlink:title=" ">
<polygon fill="none" stroke="black" points="798,-19.5 798,-38.5 938,-38.5 938,-19.5 798,-19.5"/>
<text text-anchor="middle" x="868" y="-26.5" font-family="Helvetica,sans-Serif" font-size="10.00">CalculateNormalAndArea</text>
</a>
</g>
</g>
<!-- Node1&#45;&gt;Node2 -->
<g id="edge1" class="edge">
<title>Node1&#45;&gt;Node2</title>
<path fill="none" stroke="midnightblue" d="M963.48,-29C955.01,-29 946.46,-29 938.16,-29"/>
<polygon fill="midnightblue" stroke="midnightblue" points="963.75,-32.5 973.75,-29 963.75,-25.5 963.75,-32.5"/>
</g>
<!-- Node3 -->
<g id="node3" class="node">
<title>Node3</title>
<g id="a_node3"><a xlink:href="rhs_8c.html#a619998e3b8a88fe90548745b983ade78" target="_top" xlink:title=" ">
<polygon fill="none" stroke="black" points="658,-38.5 658,-57.5 756,-57.5 756,-38.5 658,-38.5"/>
<text text-anchor="middle" x="707" y="-45.5" font-family="Helvetica,sans-Serif" font-size="10.00">Calculatedxdydz</text>
</a>
</g>
</g>
<!-- Node2&#45;&gt;Node3 -->
<g id="edge2" class="edge">
<title>Node2&#45;&gt;Node3</title>
<path fill="none" stroke="midnightblue" d="M787.79,-38.47C776.94,-39.76 766.09,-41.06 756.04,-42.26"/>
<polygon fill="midnightblue" stroke="midnightblue" points="788.21,-41.94 797.72,-37.28 787.38,-34.99 788.21,-41.94"/>
</g>
<!-- Node11 -->
<g id="node11" class="node">
<title>Node11</title>
<g id="a_node11"><a xlink:href="poisson_8c.html#a6046e36e2334fa29a86d652a0b8f0593" target="_top" xlink:title=" ">
<polygon fill="none" stroke="black" points="652,-0.5 652,-19.5 762,-19.5 762,-0.5 652,-0.5"/>
<text text-anchor="middle" x="707" y="-7.5" font-family="Helvetica,sans-Serif" font-size="10.00">GhostNodeVelocity</text>
</a>
</g>
</g>
<!-- Node2&#45;&gt;Node11 -->
<g id="edge11" class="edge">
<title>Node2&#45;&gt;Node11</title>
<path fill="none" stroke="midnightblue" d="M787.65,-19.52C779.04,-18.49 770.44,-17.46 762.23,-16.48"/>
<polygon fill="midnightblue" stroke="midnightblue" points="787.38,-23.01 797.72,-20.72 788.21,-16.06 787.38,-23.01"/>
</g>
<!-- Node4 -->
<g id="node4" class="node">
<title>Node4</title>
<g id="a_node4"><a xlink:href="rhs_8c.html#a3e0cf2a027c25bb1f6510d4a7e5d4870" target="_top" xlink:title=" ">
<polygon fill="none" stroke="black" points="562,-38.5 562,-57.5 616,-57.5 616,-38.5 562,-38.5"/>
<text text-anchor="middle" x="589" y="-45.5" font-family="Helvetica,sans-Serif" font-size="10.00">Viscous</text>
</a>
</g>
</g>
<!-- Node3&#45;&gt;Node4 -->
<g id="edge3" class="edge">
<title>Node3&#45;&gt;Node4</title>
<path fill="none" stroke="midnightblue" d="M647.66,-48C636.55,-48 625.47,-48 616.02,-48"/>
<polygon fill="midnightblue" stroke="midnightblue" points="647.81,-51.5 657.81,-48 647.81,-44.5 647.81,-51.5"/>
</g>
<!-- Node5 -->
<g id="node5" class="node">
<title>Node5</title>
<g id="a_node5"><a xlink:href="rhs_8c.html#af191235c93d0d91fa83f8e3b0e9274d8" target="_top" xlink:title="Computes the Right&#45;Hand&#45;Side (RHS) of the momentum equations.">
<polygon fill="none" stroke="black" points="445,-38.5 445,-57.5 526,-57.5 526,-38.5 445,-38.5"/>
<text text-anchor="middle" x="485.5" y="-45.5" font-family="Helvetica,sans-Serif" font-size="10.00">ComputeRHS</text>
</a>
</g>
</g>
<!-- Node4&#45;&gt;Node5 -->
<g id="edge4" class="edge">
<title>Node4&#45;&gt;Node5</title>
<path fill="none" stroke="midnightblue" d="M551.79,-48C543.54,-48 534.74,-48 526.35,-48"/>
<polygon fill="midnightblue" stroke="midnightblue" points="551.86,-51.5 561.86,-48 551.86,-44.5 551.86,-51.5"/>
</g>
<!-- Node6 -->
<g id="node6" class="node">
<title>Node6</title>
<g id="a_node6"><a xlink:href="implicitsolvers_8c.html#a148a238901a4674420c87137c087e3ac" target="_top" xlink:title="Advances the momentum equations using an iterative explicit Runge&#45;Kutta scheme.">
<polygon fill="none" stroke="black" points="348,-76.5 348,-95.5 397,-95.5 397,-76.5 348,-76.5"/>
<text text-anchor="middle" x="372.5" y="-83.5" font-family="Helvetica,sans-Serif" font-size="10.00">ImpRK</text>
</a>
</g>
</g>
<!-- Node5&#45;&gt;Node6 -->
<g id="edge5" class="edge">
<title>Node5&#45;&gt;Node6</title>
<path fill="none" stroke="midnightblue" d="M446.67,-60.95C430.34,-66.54 411.73,-72.91 397.36,-77.83"/>
<polygon fill="midnightblue" stroke="midnightblue" points="448.16,-64.14 456.49,-57.59 445.9,-57.52 448.16,-64.14"/>
</g>
<!-- Node10 -->
<g id="node10" class="node">
<title>Node10</title>
<g id="a_node10"><a xlink:href="implicitsolvers_8c.html#a89ae58d48076ba82dc70438b5e389bf5" target="_top" xlink:title="Advances the momentum equations for ALL blocks by one time step using an explicit 4&#45;stage,...">
<polygon fill="none" stroke="black" points="336,-38.5 336,-57.5 409,-57.5 409,-38.5 336,-38.5"/>
<text text-anchor="middle" x="372.5" y="-45.5" font-family="Helvetica,sans-Serif" font-size="10.00">RungeKutta</text>
</a>
</g>
</g>
<!-- Node5&#45;&gt;Node10 -->
<g id="edge9" class="edge">
<title>Node5&#45;&gt;Node10</title>
<path fill="none" stroke="midnightblue" d="M434.51,-48C426.01,-48 417.33,-48 409.29,-48"/>
<polygon fill="midnightblue" stroke="midnightblue" points="434.74,-51.5 444.74,-48 434.74,-44.5 434.74,-51.5"/>
</g>
<!-- Node7 -->
<g id="node7" class="node">
<title>Node7</title>
<g id="a_node7"><a xlink:href="solvers_8c.html#a2ed4825273a593f371a3d48071708255" target="_top" xlink:title="Orchestrates a single time step of the Eulerian fluid solver.">
<polygon fill="none" stroke="black" points="224,-38.5 224,-57.5 300,-57.5 300,-38.5 224,-38.5"/>
<text text-anchor="middle" x="262" y="-45.5" font-family="Helvetica,sans-Serif" font-size="10.00">Flow_Solver</text>
</a>
</g>
</g>
<!-- Node6&#45;&gt;Node7 -->
<g id="edge6" class="edge">
<title>Node6&#45;&gt;Node7</title>
<path fill="none" stroke="midnightblue" d="M338.31,-74.37C322.94,-68.99 304.9,-62.67 290.33,-57.57"/>
<polygon fill="midnightblue" stroke="midnightblue" points="337.36,-77.75 347.96,-77.75 339.68,-71.15 337.36,-77.75"/>
</g>
<!-- Node8 -->
<g id="node8" class="node">
<title>Node8</title>
<g id="a_node8"><a xlink:href="simulation_8c.html#a5cfb2f783604af7f20171d19f969d5d3" target="_top" xlink:title="Executes the main time&#45;marching loop for the coupled Euler&#45;Lagrange simulation.">
<polygon fill="none" stroke="black" points="77,-38.5 77,-57.5 188,-57.5 188,-38.5 77,-38.5"/>
<text text-anchor="middle" x="132.5" y="-45.5" font-family="Helvetica,sans-Serif" font-size="10.00">AdvanceSimulation</text>
</a>
</g>
</g>
<!-- Node7&#45;&gt;Node8 -->
<g id="edge7" class="edge">
<title>Node7&#45;&gt;Node8</title>
<path fill="none" stroke="midnightblue" d="M213.53,-48C205.23,-48 196.53,-48 188.06,-48"/>
<polygon fill="midnightblue" stroke="midnightblue" points="213.78,-51.5 223.78,-48 213.78,-44.5 213.78,-51.5"/>
</g>
<!-- Node9 -->
<g id="node9" class="node">
<title>Node9</title>
<g id="a_node9"><a xlink:href="picsolver_8c.html#a3c04138a5bfe5d72780bb7e82a18e627" target="_top" xlink:title=" ">
<polygon fill="none" stroke="black" points="0,-38.5 0,-57.5 41,-57.5 41,-38.5 0,-38.5"/>
<text text-anchor="middle" x="20.5" y="-45.5" font-family="Helvetica,sans-Serif" font-size="10.00">main</text>
</a>
</g>
</g>
<!-- Node8&#45;&gt;Node9 -->
<g id="edge8" class="edge">
<title>Node8&#45;&gt;Node9</title>
<path fill="none" stroke="midnightblue" d="M66.64,-48C57.35,-48 48.45,-48 41.05,-48"/>
<polygon fill="midnightblue" stroke="midnightblue" points="66.82,-51.5 76.82,-48 66.82,-44.5 66.82,-51.5"/>
</g>
<!-- Node10&#45;&gt;Node7 -->
<g id="edge10" class="edge">
<title>Node10&#45;&gt;Node7</title>
<path fill="none" stroke="midnightblue" d="M325.74,-48C317.19,-48 308.35,-48 300.1,-48"/>
<polygon fill="midnightblue" stroke="midnightblue" points="325.97,-51.5 335.97,-48 325.97,-44.5 325.97,-51.5"/>
</g>
<!-- Node12 -->
<g id="node12" class="node">
<title>Node12</title>
<g id="a_node12"><a xlink:href="poisson_8c.html#a34a113dcc9ca606d914c3d021a4d85fc" target="_top" xlink:title="Performs the projection step to enforce an incompressible velocity field.">
<polygon fill="none" stroke="black" points="453,-0.5 453,-19.5 518,-19.5 518,-0.5 453,-0.5"/>
<text text-anchor="middle" x="485.5" y="-7.5" font-family="Helvetica,sans-Serif" font-size="10.00">Projection</text>
</a>
</g>
</g>
<!-- Node11&#45;&gt;Node12 -->
<g id="edge12" class="edge">
<title>Node11&#45;&gt;Node12</title>
<path fill="none" stroke="midnightblue" d="M641.64,-10C600.99,-10 550.25,-10 518.1,-10"/>
<polygon fill="midnightblue" stroke="midnightblue" points="641.74,-13.5 651.74,-10 641.74,-6.5 641.74,-13.5"/>
</g>
<!-- Node12&#45;&gt;Node7 -->
<g id="edge13" class="edge">
<title>Node12&#45;&gt;Node7</title>
<path fill="none" stroke="midnightblue" d="M442.66,-13.91C412.79,-17.06 371.73,-22.09 336,-29 322.76,-31.56 308.35,-35.14 295.87,-38.5"/>
<polygon fill="midnightblue" stroke="midnightblue" points="443.15,-17.38 452.74,-12.88 442.43,-10.42 443.15,-17.38"/>
</g>
</g>
</svg>
