<?xml version="1.0" encoding="UTF-8" standalone="no"?>
<!DOCTYPE svg PUBLIC "-//W3C//DTD SVG 1.1//EN"
 "http://www.w3.org/Graphics/SVG/1.1/DTD/svg11.dtd">
<!-- Generated by graphviz version 2.43.0 (0)
 -->
<!-- Title: SetupGridAndSolvers Pages: 1 -->
<!--zoomable 610 -->
<svg id="main" version="1.1" xmlns="http://www.w3.org/2000/svg" xmlns:xlink="http://www.w3.org/1999/xlink" xml:space="preserve" onload="init(evt)">
<style type="text/css"><![CDATA[
.edge:hover path { stroke: red; }
.edge:hover polygon { stroke: red; fill: red; }
]]></style>
<script type="text/javascript"><![CDATA[
var edges = document.getElementsByTagName('g');
if (edges && edges.length) {
  for (var i=0;i<edges.length;i++) {
    if (edges[i].id.substr(0,4)=='edge') {
      edges[i].setAttribute('class','edge');
    }
  }
}
]]></script>
        <defs>
                <circle id="rim" cx="0" cy="0" r="7"/>
                <circle id="rim2" cx="0" cy="0" r="3.5"/>
                <g id="zoomPlus">
                        <use xlink:href="#rim" fill="#404040">
                                <set attributeName="fill" to="#808080" begin="zoomplus.mouseover" end="zoomplus.mouseout"/>
                        </use>
                        <path d="M-4,0h8M0,-4v8" fill="none" stroke="white" stroke-width="1.5" pointer-events="none"/>
                </g>
                <g id="zoomMin">
                        <use xlink:href="#rim" fill="#404040">
                                <set attributeName="fill" to="#808080" begin="zoomminus.mouseover" end="zoomminus.mouseout"/>
                        </use>
                        <path d="M-4,0h8" fill="none" stroke="white" stroke-width="1.5" pointer-events="none"/>
                </g>
                <g id="dirArrow">
                        <path fill="none" stroke="white" stroke-width="1.5" d="M0,-3.0v7 M-2.5,-0.5L0,-3.0L2.5,-0.5"/>
                </g>
               <g id="resetDef">
                       <use xlink:href="#rim2" fill="#404040">
                               <set attributeName="fill" to="#808080" begin="reset.mouseover" end="reset.mouseout"/>
                       </use>
               </g>
        </defs>

<script type="text/javascript">
var viewWidth = 895;
var viewHeight = 610;
var sectionId = 'dynsection-6';
</script>
<script xlink:href="svgpan.js"/>
<svg id="graph" class="graph">
<g id="viewport">
<title>SetupGridAndSolvers</title>
<!-- Node1 -->
<g id="node1" class="node">
<title>Node1</title>
<g id="a_node1"><a xlink:title="The main orchestrator for setting up all grid&#45;related components.">
<polygon fill="#bfbfbf" stroke="black" points="0,-114.5 0,-133.5 119,-133.5 119,-114.5 0,-114.5"/>
<text text-anchor="middle" x="59.5" y="-121.5" font-family="Helvetica,sans-Serif" font-size="10.00">SetupGridAndSolvers</text>
</a>
</g>
</g>
<!-- Node2 -->
<g id="node2" class="node">
<title>Node2</title>
<g id="a_node2"><a xlink:href="setup_8c.html#acf739211501f0646c25ceb99a68a1163" target="_top" xlink:title="Allocates the memory for the UserMG and UserCtx hierarchy.">
<polygon fill="none" stroke="black" points="566.5,-190.5 566.5,-209.5 708.5,-209.5 708.5,-190.5 566.5,-190.5"/>
<text text-anchor="middle" x="637.5" y="-197.5" font-family="Helvetica,sans-Serif" font-size="10.00">AllocateContextHierarchy</text>
</a>
</g>
</g>
<!-- Node1&#45;&gt;Node2 -->
<g id="edge1" class="edge">
<title>Node1&#45;&gt;Node2</title>
<path fill="none" stroke="midnightblue" d="M103.63,-133.58C119.69,-136.9 138.12,-140.44 155,-143 318,-167.72 360.63,-158.82 524,-181 540.42,-183.23 558.12,-186.03 574.51,-188.79"/>
<polygon fill="midnightblue" stroke="midnightblue" points="574.07,-192.27 584.52,-190.5 575.25,-185.37 574.07,-192.27"/>
</g>
<!-- Node4 -->
<g id="node4" class="node">
<title>Node4</title>
<g id="a_node4"><a xlink:href="grid_8h.html#ab2aef4bb6fc2d2223a52ff6a45c7c600" target="_top" xlink:title="Orchestrates the assignment of physical coordinates to all DMDA objects.">
<polygon fill="none" stroke="black" points="164.5,-114.5 164.5,-133.5 304.5,-133.5 304.5,-114.5 164.5,-114.5"/>
<text text-anchor="middle" x="234.5" y="-121.5" font-family="Helvetica,sans-Serif" font-size="10.00">AssignAllGridCoordinates</text>
</a>
</g>
</g>
<!-- Node1&#45;&gt;Node4 -->
<g id="edge3" class="edge">
<title>Node1&#45;&gt;Node4</title>
<path fill="none" stroke="midnightblue" d="M119.07,-124C130.29,-124 142.21,-124 153.96,-124"/>
<polygon fill="midnightblue" stroke="midnightblue" points="154.22,-127.5 164.22,-124 154.22,-120.5 154.22,-127.5"/>
</g>
<!-- Node10 -->
<g id="node10" class="node">
<title>Node10</title>
<g id="a_node10"><a xlink:href="Metric_8h.html#a063043da47b68702c78c7e0769325b36" target="_top" xlink:title="Orchestrates the calculation of all grid metrics.">
<polygon fill="none" stroke="black" points="169,-411.5 169,-430.5 300,-430.5 300,-411.5 169,-411.5"/>
<text text-anchor="middle" x="234.5" y="-418.5" font-family="Helvetica,sans-Serif" font-size="10.00">CalculateAllGridMetrics</text>
</a>
</g>
</g>
<!-- Node1&#45;&gt;Node10 -->
<g id="edge9" class="edge">
<title>Node1&#45;&gt;Node10</title>
<path fill="none" stroke="midnightblue" d="M66.06,-133.55C90.61,-175.69 189.56,-345.56 222.65,-402.38"/>
<polygon fill="midnightblue" stroke="midnightblue" points="219.82,-404.46 227.87,-411.34 225.86,-400.94 219.82,-404.46"/>
</g>
<!-- Node23 -->
<g id="node23" class="node">
<title>Node23</title>
<g id="a_node23"><a xlink:href="setup_8c.html#a47daae7d6e456ef74e75626c1c9d6c9a" target="_top" xlink:title="Creates and initializes all PETSc Vec objects for all fields.">
<polygon fill="none" stroke="black" points="155,-76.5 155,-95.5 314,-95.5 314,-76.5 155,-76.5"/>
<text text-anchor="middle" x="234.5" y="-83.5" font-family="Helvetica,sans-Serif" font-size="10.00">CreateAndInitializeAllVectors</text>
</a>
</g>
</g>
<!-- Node1&#45;&gt;Node23 -->
<g id="edge30" class="edge">
<title>Node1&#45;&gt;Node23</title>
<path fill="none" stroke="midnightblue" d="M104.16,-114.41C127.29,-109.33 155.9,-103.04 180.33,-97.68"/>
<polygon fill="midnightblue" stroke="midnightblue" points="181.14,-101.08 190.16,-95.52 179.64,-94.25 181.14,-101.08"/>
</g>
<!-- Node24 -->
<g id="node24" class="node">
<title>Node24</title>
<g id="a_node24"><a xlink:href="grid_8h.html#a04f0887f08166a2a8d01411f39fa1a40" target="_top" xlink:title="Orchestrates the parsing and setting of grid dimensions for all blocks.">
<polygon fill="none" stroke="black" points="164.5,-38.5 164.5,-57.5 304.5,-57.5 304.5,-38.5 164.5,-38.5"/>
<text text-anchor="middle" x="234.5" y="-45.5" font-family="Helvetica,sans-Serif" font-size="10.00">DefineAllGridDimensions</text>
</a>
</g>
</g>
<!-- Node1&#45;&gt;Node24 -->
<g id="edge31" class="edge">
<title>Node1&#45;&gt;Node24</title>
<path fill="none" stroke="midnightblue" d="M73.58,-114.32C91.22,-101.71 123.99,-79.75 155,-67 160.96,-64.55 167.3,-62.37 173.71,-60.44"/>
<polygon fill="midnightblue" stroke="midnightblue" points="175.1,-63.68 183.77,-57.6 173.2,-56.94 175.1,-63.68"/>
</g>
<!-- Node28 -->
<g id="node28" class="node">
<title>Node28</title>
<g id="a_node28"><a xlink:href="grid_8h.html#aa0b95ab3ac28c8df985e38b888c9bb52" target="_top" xlink:title="Orchestrates the creation of DMDA objects for every block and multigrid level.">
<polygon fill="none" stroke="black" points="178,-190.5 178,-209.5 291,-209.5 291,-190.5 178,-190.5"/>
<text text-anchor="middle" x="234.5" y="-197.5" font-family="Helvetica,sans-Serif" font-size="10.00">InitializeAllGridDMs</text>
</a>
</g>
</g>
<!-- Node1&#45;&gt;Node28 -->
<g id="edge35" class="edge">
<title>Node1&#45;&gt;Node28</title>
<path fill="none" stroke="midnightblue" d="M75.72,-133.67C94,-144.96 125.85,-163.68 155,-176 165.15,-180.29 176.33,-184.18 186.99,-187.52"/>
<polygon fill="midnightblue" stroke="midnightblue" points="186.01,-190.88 196.6,-190.42 188.04,-184.18 186.01,-190.88"/>
</g>
<!-- Node30 -->
<g id="node30" class="node">
<title>Node30</title>
<g id="a_node30"><a xlink:href="setup_8c.html#a3766d23bad255474ff61d06fbb6f63f7" target="_top" xlink:title=" ">
<polygon fill="none" stroke="black" points="169,-0.5 169,-19.5 300,-19.5 300,-0.5 169,-0.5"/>
<text text-anchor="middle" x="234.5" y="-7.5" font-family="Helvetica,sans-Serif" font-size="10.00">SetupSolverParameters</text>
</a>
</g>
</g>
<!-- Node1&#45;&gt;Node30 -->
<g id="edge38" class="edge">
<title>Node1&#45;&gt;Node30</title>
<path fill="none" stroke="midnightblue" d="M67.09,-114.48C80.98,-95.17 115.27,-51.37 155,-29 158.96,-26.77 163.17,-24.81 167.5,-23.07"/>
<polygon fill="midnightblue" stroke="midnightblue" points="168.92,-26.28 177.15,-19.62 166.56,-19.69 168.92,-26.28"/>
</g>
<!-- Node3 -->
<g id="node3" class="node">
<title>Node3</title>
<g id="a_node3"><a xlink:href="logging_8h.html#a9585f583c260f40a73f2490914edc689" target="_top" xlink:title="Retrieves the current logging level from the environment variable LOG_LEVEL.">
<polygon fill="none" stroke="black" points="778,-228.5 778,-247.5 860,-247.5 860,-228.5 778,-228.5"/>
<text text-anchor="middle" x="819" y="-235.5" font-family="Helvetica,sans-Serif" font-size="10.00">get_log_level</text>
</a>
</g>
</g>
<!-- Node2&#45;&gt;Node3 -->
<g id="edge2" class="edge">
<title>Node2&#45;&gt;Node3</title>
<path fill="none" stroke="midnightblue" d="M683.8,-209.59C709.49,-215.03 741.69,-221.84 768.1,-227.44"/>
<polygon fill="midnightblue" stroke="midnightblue" points="767.41,-230.87 777.92,-229.51 768.86,-224.02 767.41,-230.87"/>
</g>
<!-- Node5 -->
<g id="node5" class="node">
<title>Node5</title>
<g id="a_node5"><a xlink:href="grid_8c.html#a5b5fe86ae6791885769361fca4ad6b2f" target="_top" xlink:title="Populates coarse grid coordinates by restricting from a fine grid.">
<polygon fill="none" stroke="black" points="380.5,-76.5 380.5,-95.5 493.5,-95.5 493.5,-76.5 380.5,-76.5"/>
<text text-anchor="middle" x="437" y="-83.5" font-family="Helvetica,sans-Serif" font-size="10.00">RestrictCoordinates</text>
</a>
</g>
</g>
<!-- Node4&#45;&gt;Node5 -->
<g id="edge4" class="edge">
<title>Node4&#45;&gt;Node5</title>
<path fill="none" stroke="midnightblue" d="M285.84,-114.46C313.13,-109.29 347.04,-102.86 375.73,-97.42"/>
<polygon fill="midnightblue" stroke="midnightblue" points="376.47,-100.84 385.64,-95.54 375.17,-93.97 376.47,-100.84"/>
</g>
<!-- Node6 -->
<g id="node6" class="node">
<title>Node6</title>
<g id="a_node6"><a xlink:href="grid_8c.html#acb950cd51656702b75ea84d6477d0d97" target="_top" xlink:title="A router that populates the coordinates for a single finest&#45;level DMDA.">
<polygon fill="none" stroke="black" points="364,-114.5 364,-133.5 510,-133.5 510,-114.5 364,-114.5"/>
<text text-anchor="middle" x="437" y="-121.5" font-family="Helvetica,sans-Serif" font-size="10.00">SetFinestLevelCoordinates</text>
</a>
</g>
</g>
<!-- Node4&#45;&gt;Node6 -->
<g id="edge5" class="edge">
<title>Node4&#45;&gt;Node6</title>
<path fill="none" stroke="midnightblue" d="M304.5,-124C320.35,-124 337.37,-124 353.72,-124"/>
<polygon fill="midnightblue" stroke="midnightblue" points="353.8,-127.5 363.8,-124 353.8,-120.5 353.8,-127.5"/>
</g>
<!-- Node7 -->
<g id="node7" class="node">
<title>Node7</title>
<g id="a_node7"><a xlink:href="grid_8c.html#ac44553fe1434663c5211cc6ac32ef004" target="_top" xlink:title="Programmatically generates and sets grid coordinates based on user parameters.">
<polygon fill="none" stroke="black" points="560,-143.5 560,-162.5 715,-162.5 715,-143.5 560,-143.5"/>
<text text-anchor="middle" x="637.5" y="-150.5" font-family="Helvetica,sans-Serif" font-size="10.00">GenerateAndSetCoordinates</text>
</a>
</g>
</g>
<!-- Node6&#45;&gt;Node7 -->
<g id="edge6" class="edge">
<title>Node6&#45;&gt;Node7</title>
<path fill="none" stroke="midnightblue" d="M503.27,-133.54C521.76,-136.24 542.03,-139.2 561.07,-141.98"/>
<polygon fill="midnightblue" stroke="midnightblue" points="560.79,-145.48 571.19,-143.46 561.8,-138.55 560.79,-145.48"/>
</g>
<!-- Node9 -->
<g id="node9" class="node">
<title>Node9</title>
<g id="a_node9"><a xlink:href="grid_8c.html#ac693c757c4fd3cb75e6e06e05e25d775" target="_top" xlink:title="Reads physical coordinates from a file and populates the DMDA for a specific block.">
<polygon fill="none" stroke="black" points="570.5,-105.5 570.5,-124.5 704.5,-124.5 704.5,-105.5 570.5,-105.5"/>
<text text-anchor="middle" x="637.5" y="-112.5" font-family="Helvetica,sans-Serif" font-size="10.00">ReadAndSetCoordinates</text>
</a>
</g>
</g>
<!-- Node6&#45;&gt;Node9 -->
<g id="edge8" class="edge">
<title>Node6&#45;&gt;Node9</title>
<path fill="none" stroke="midnightblue" d="M510.22,-120.73C526.47,-119.99 543.77,-119.2 560.18,-118.46"/>
<polygon fill="midnightblue" stroke="midnightblue" points="560.43,-121.95 570.26,-118 560.12,-114.96 560.43,-121.95"/>
</g>
<!-- Node8 -->
<g id="node8" class="node">
<title>Node8</title>
<g id="a_node8"><a xlink:href="grid_8c.html#a54a2529affe522c9e29161aef1ca3847" target="_top" xlink:title="Computes a stretched coordinate along one dimension.">
<polygon fill="none" stroke="black" points="751,-143.5 751,-162.5 887,-162.5 887,-143.5 751,-143.5"/>
<text text-anchor="middle" x="819" y="-150.5" font-family="Helvetica,sans-Serif" font-size="10.00">ComputeStretchedCoord</text>
</a>
</g>
</g>
<!-- Node7&#45;&gt;Node8 -->
<g id="edge7" class="edge">
<title>Node7&#45;&gt;Node8</title>
<path fill="none" stroke="midnightblue" d="M715.14,-153C723.61,-153 732.24,-153 740.72,-153"/>
<polygon fill="midnightblue" stroke="midnightblue" points="740.96,-156.5 750.96,-153 740.96,-149.5 740.96,-156.5"/>
</g>
<!-- Node11 -->
<g id="node11" class="node">
<title>Node11</title>
<g id="a_node11"><a xlink:href="Metric_8c.html#a436bb94905ee06971f632571f5bc8cbb" target="_top" xlink:title="Ensure a right&#45;handed metric basis (Csi, Eta, Zet) and a positive Jacobian (Aj) over the whole domain...">
<polygon fill="none" stroke="black" points="360,-392.5 360,-411.5 514,-411.5 514,-392.5 360,-392.5"/>
<text text-anchor="middle" x="437" y="-399.5" font-family="Helvetica,sans-Serif" font-size="10.00">CheckAndFixGridOrientation</text>
</a>
</g>
</g>
<!-- Node10&#45;&gt;Node11 -->
<g id="edge10" class="edge">
<title>Node10&#45;&gt;Node11</title>
<path fill="none" stroke="midnightblue" d="M300.04,-414.88C315.78,-413.39 332.87,-411.77 349.45,-410.2"/>
<polygon fill="midnightblue" stroke="midnightblue" points="350.06,-413.66 359.69,-409.23 349.4,-406.69 350.06,-413.66"/>
</g>
<!-- Node14 -->
<g id="node14" class="node">
<title>Node14</title>
<g id="a_node14"><a xlink:href="Metric_8c.html#a92d28e2f14645b0eb563144f4ccf2b49" target="_top" xlink:title="Calculates the cell&#45;centered inverse Jacobian determinant (1/J), including boundary extrapolation,...">
<polygon fill="none" stroke="black" points="354.5,-343 354.5,-373 519.5,-373 519.5,-343 354.5,-343"/>
<text text-anchor="start" x="362.5" y="-361" font-family="Helvetica,sans-Serif" font-size="10.00">ComputeCellCenteredJacobian</text>
<text text-anchor="middle" x="437" y="-350" font-family="Helvetica,sans-Serif" font-size="10.00">Inverse</text>
</a>
</g>
</g>
<!-- Node10&#45;&gt;Node14 -->
<g id="edge14" class="edge">
<title>Node10&#45;&gt;Node14</title>
<path fill="none" stroke="midnightblue" d="M263.17,-411.49C286.3,-403.62 320.2,-392.27 350,-383 357.6,-380.64 365.6,-378.22 373.53,-375.86"/>
<polygon fill="midnightblue" stroke="midnightblue" points="374.55,-379.21 383.15,-373.02 372.57,-372.5 374.55,-379.21"/>
</g>
<!-- Node15 -->
<g id="node15" class="node">
<title>Node15</title>
<g id="a_node15"><a xlink:href="Metric_8c.html#a46e70c0ae8f36f97321c5c892fc56be5" target="_top" xlink:title="Computes the physical location of cell centers and the spacing between them.">
<polygon fill="none" stroke="black" points="350,-582.5 350,-601.5 524,-601.5 524,-582.5 350,-582.5"/>
<text text-anchor="middle" x="437" y="-589.5" font-family="Helvetica,sans-Serif" font-size="10.00">ComputeCellCentersAndSpacing</text>
</a>
</g>
</g>
<!-- Node10&#45;&gt;Node15 -->
<g id="edge16" class="edge">
<title>Node10&#45;&gt;Node15</title>
<path fill="none" stroke="midnightblue" d="M239.79,-430.71C252.36,-457.98 291.92,-535.66 350,-573 353.31,-575.13 356.82,-577.02 360.45,-578.7"/>
<polygon fill="midnightblue" stroke="midnightblue" points="359.14,-581.94 369.72,-582.46 361.77,-575.45 359.14,-581.94"/>
</g>
<!-- Node16 -->
<g id="node16" class="node">
<title>Node16</title>
<g id="a_node16"><a xlink:href="Metric_8c.html#a6f0dfb324211e230a387501f93cfd316" target="_top" xlink:title="Computes the primary face metric components (Csi, Eta, Zet), including boundary extrapolation,...">
<polygon fill="none" stroke="black" points="377.5,-544.5 377.5,-563.5 496.5,-563.5 496.5,-544.5 377.5,-544.5"/>
<text text-anchor="middle" x="437" y="-551.5" font-family="Helvetica,sans-Serif" font-size="10.00">ComputeFaceMetrics</text>
</a>
</g>
</g>
<!-- Node10&#45;&gt;Node16 -->
<g id="edge18" class="edge">
<title>Node10&#45;&gt;Node16</title>
<path fill="none" stroke="midnightblue" d="M242.23,-430.78C258.16,-453.1 300.53,-507.95 350,-535 355.55,-538.03 361.55,-540.58 367.7,-542.72"/>
<polygon fill="midnightblue" stroke="midnightblue" points="366.89,-546.13 377.47,-545.77 368.97,-539.45 366.89,-546.13"/>
</g>
<!-- Node17 -->
<g id="node17" class="node">
<title>Node17</title>
<g id="a_node17"><a xlink:href="Metric_8c.html#af935307ea3e9727a63b6ef9a3932caa8" target="_top" xlink:title="Computes metrics centered on constant&#45;i faces (i&#45;faces).">
<polygon fill="none" stroke="black" points="376,-506.5 376,-525.5 498,-525.5 498,-506.5 376,-506.5"/>
<text text-anchor="middle" x="437" y="-513.5" font-family="Helvetica,sans-Serif" font-size="10.00">ComputeIFaceMetrics</text>
</a>
</g>
</g>
<!-- Node10&#45;&gt;Node17 -->
<g id="edge20" class="edge">
<title>Node10&#45;&gt;Node17</title>
<path fill="none" stroke="midnightblue" d="M246.71,-430.53C266.32,-446.7 308.72,-479.46 350,-497 355.91,-499.51 362.2,-501.71 368.58,-503.63"/>
<polygon fill="midnightblue" stroke="midnightblue" points="368.06,-507.12 378.64,-506.43 369.94,-500.38 368.06,-507.12"/>
</g>
<!-- Node18 -->
<g id="node18" class="node">
<title>Node18</title>
<g id="a_node18"><a xlink:href="Metric_8c.html#a4ecbe44ffb23d82193f9278ab61c1b47" target="_top" xlink:title="Computes metrics centered on constant&#45;j faces (j&#45;faces).">
<polygon fill="none" stroke="black" points="376,-468.5 376,-487.5 498,-487.5 498,-468.5 376,-468.5"/>
<text text-anchor="middle" x="437" y="-475.5" font-family="Helvetica,sans-Serif" font-size="10.00">ComputeJFaceMetrics</text>
</a>
</g>
</g>
<!-- Node10&#45;&gt;Node18 -->
<g id="edge22" class="edge">
<title>Node10&#45;&gt;Node18</title>
<path fill="none" stroke="midnightblue" d="M261.64,-430.53C284.7,-438.73 319.31,-450.54 350,-459 359.19,-461.53 369,-463.96 378.59,-466.18"/>
<polygon fill="midnightblue" stroke="midnightblue" points="377.94,-469.62 388.47,-468.42 379.49,-462.79 377.94,-469.62"/>
</g>
<!-- Node19 -->
<g id="node19" class="node">
<title>Node19</title>
<g id="a_node19"><a xlink:href="Metric_8c.html#a95e22e5238b2cd02b992366766730687" target="_top" xlink:title="Computes metrics centered on constant&#45;k faces (k&#45;faces).">
<polygon fill="none" stroke="black" points="374,-430.5 374,-449.5 500,-449.5 500,-430.5 374,-430.5"/>
<text text-anchor="middle" x="437" y="-437.5" font-family="Helvetica,sans-Serif" font-size="10.00">ComputeKFaceMetrics</text>
</a>
</g>
</g>
<!-- Node10&#45;&gt;Node19 -->
<g id="edge24" class="edge">
<title>Node10&#45;&gt;Node19</title>
<path fill="none" stroke="midnightblue" d="M300.04,-427.12C320.41,-429.05 343.03,-431.19 363.89,-433.17"/>
<polygon fill="midnightblue" stroke="midnightblue" points="363.68,-436.66 373.97,-434.12 364.34,-429.69 363.68,-436.66"/>
</g>
<!-- Node20 -->
<g id="node20" class="node">
<title>Node20</title>
<g id="a_node20"><a xlink:href="Metric_8c.html#a2a99180f2d9db426e1cf73771b795498" target="_top" xlink:title="Computes the max&#45;min values of the grid metrics.">
<polygon fill="none" stroke="black" points="375,-304.5 375,-323.5 499,-323.5 499,-304.5 375,-304.5"/>
<text text-anchor="middle" x="437" y="-311.5" font-family="Helvetica,sans-Serif" font-size="10.00">ComputeMetricNorms</text>
</a>
</g>
</g>
<!-- Node10&#45;&gt;Node20 -->
<g id="edge26" class="edge">
<title>Node10&#45;&gt;Node20</title>
<path fill="none" stroke="midnightblue" d="M245.26,-411.23C263.9,-393.13 306.61,-354.38 350,-334 356.15,-331.11 362.75,-328.62 369.46,-326.48"/>
<polygon fill="midnightblue" stroke="midnightblue" points="370.72,-329.76 379.33,-323.59 368.75,-323.04 370.72,-329.76"/>
</g>
<!-- Node22 -->
<g id="node22" class="node">
<title>Node22</title>
<g id="a_node22"><a xlink:href="Metric_8c.html#a63e70e9aa6a59c320cb2b1af6bd0a7e6" target="_top" xlink:title="Computes the divergence of the grid metrics and identifies the maximum value.">
<polygon fill="none" stroke="black" points="361,-266.5 361,-285.5 513,-285.5 513,-266.5 361,-266.5"/>
<text text-anchor="middle" x="437" y="-273.5" font-family="Helvetica,sans-Serif" font-size="10.00">ComputeMetricsDivergence</text>
</a>
</g>
</g>
<!-- Node10&#45;&gt;Node22 -->
<g id="edge28" class="edge">
<title>Node10&#45;&gt;Node22</title>
<path fill="none" stroke="midnightblue" d="M241.3,-411.26C256.1,-387.3 297.83,-325.24 350,-295 353.9,-292.74 358.04,-290.75 362.32,-288.99"/>
<polygon fill="midnightblue" stroke="midnightblue" points="363.66,-292.23 371.86,-285.52 361.26,-285.65 363.66,-292.23"/>
</g>
<!-- Node12 -->
<g id="node12" class="node">
<title>Node12</title>
<g id="a_node12"><a xlink:href="setup_8h.html#ad5f82951adcce74b3d37cb5880acf43a" target="_top" xlink:title="Updates the local vector (including ghost points) from its corresponding global vector.">
<polygon fill="none" stroke="black" points="582,-449.5 582,-468.5 693,-468.5 693,-449.5 582,-449.5"/>
<text text-anchor="middle" x="637.5" y="-456.5" font-family="Helvetica,sans-Serif" font-size="10.00">UpdateLocalGhosts</text>
</a>
</g>
</g>
<!-- Node11&#45;&gt;Node12 -->
<g id="edge11" class="edge">
<title>Node11&#45;&gt;Node12</title>
<path fill="none" stroke="midnightblue" d="M485.54,-411.54C498.11,-414.32 511.63,-417.55 524,-421 550.18,-428.29 579.22,-438.15 601.24,-446"/>
<polygon fill="midnightblue" stroke="midnightblue" points="600.24,-449.35 610.83,-449.44 602.61,-442.77 600.24,-449.35"/>
</g>
<!-- Node12&#45;&gt;Node3 -->
<g id="edge12" class="edge">
<title>Node12&#45;&gt;Node3</title>
<path fill="none" stroke="midnightblue" d="M646.44,-449.22C674.3,-414.92 767.82,-299.78 803.76,-255.53"/>
<polygon fill="midnightblue" stroke="midnightblue" points="806.56,-257.64 810.15,-247.67 801.13,-253.22 806.56,-257.64"/>
</g>
<!-- Node13 -->
<g id="node13" class="node">
<title>Node13</title>
<g id="a_node13"><a xlink:href="logging_8h.html#a2358badbcda33fc9d80ebd6a59d2a2cd" target="_top" xlink:title="Checks if a given function is in the allow&#45;list.">
<polygon fill="none" stroke="black" points="762.5,-449.5 762.5,-468.5 875.5,-468.5 875.5,-449.5 762.5,-449.5"/>
<text text-anchor="middle" x="819" y="-456.5" font-family="Helvetica,sans-Serif" font-size="10.00">is_function_allowed</text>
</a>
</g>
</g>
<!-- Node12&#45;&gt;Node13 -->
<g id="edge13" class="edge">
<title>Node12&#45;&gt;Node13</title>
<path fill="none" stroke="midnightblue" d="M693.33,-459C711.86,-459 732.74,-459 752.04,-459"/>
<polygon fill="midnightblue" stroke="midnightblue" points="752.27,-462.5 762.27,-459 752.27,-455.5 752.27,-462.5"/>
</g>
<!-- Node14&#45;&gt;Node12 -->
<g id="edge15" class="edge">
<title>Node14&#45;&gt;Node12</title>
<path fill="none" stroke="midnightblue" d="M498.56,-373.01C507.26,-375.91 515.98,-379.24 524,-383 559.07,-399.45 595.48,-426.1 617.05,-443.08"/>
<polygon fill="midnightblue" stroke="midnightblue" points="615.09,-445.99 625.08,-449.49 619.46,-440.52 615.09,-445.99"/>
</g>
<!-- Node15&#45;&gt;Node12 -->
<g id="edge17" class="edge">
<title>Node15&#45;&gt;Node12</title>
<path fill="none" stroke="midnightblue" d="M501.09,-582.5C509.06,-580.03 516.91,-576.92 524,-573 567.57,-548.93 605.22,-502.78 623.92,-477.2"/>
<polygon fill="midnightblue" stroke="midnightblue" points="626.96,-478.95 629.93,-468.78 621.27,-474.89 626.96,-478.95"/>
</g>
<!-- Node16&#45;&gt;Node12 -->
<g id="edge19" class="edge">
<title>Node16&#45;&gt;Node12</title>
<path fill="none" stroke="midnightblue" d="M495.39,-544.49C505.14,-541.98 515.01,-538.86 524,-535 559.78,-519.63 596.24,-492.44 617.6,-475.09"/>
<polygon fill="midnightblue" stroke="midnightblue" points="620.05,-477.61 625.52,-468.54 615.58,-472.21 620.05,-477.61"/>
</g>
<!-- Node17&#45;&gt;Node12 -->
<g id="edge21" class="edge">
<title>Node17&#45;&gt;Node12</title>
<path fill="none" stroke="midnightblue" d="M485.54,-506.46C498.11,-503.68 511.63,-500.45 524,-497 550.18,-489.71 579.22,-479.85 601.24,-472"/>
<polygon fill="midnightblue" stroke="midnightblue" points="602.61,-475.23 610.83,-468.56 600.24,-468.65 602.61,-475.23"/>
</g>
<!-- Node18&#45;&gt;Node12 -->
<g id="edge23" class="edge">
<title>Node18&#45;&gt;Node12</title>
<path fill="none" stroke="midnightblue" d="M498.1,-472.25C521.26,-470.03 547.8,-467.49 571.41,-465.23"/>
<polygon fill="midnightblue" stroke="midnightblue" points="572.06,-468.68 581.68,-464.25 571.39,-461.72 572.06,-468.68"/>
</g>
<!-- Node19&#45;&gt;Node12 -->
<g id="edge25" class="edge">
<title>Node19&#45;&gt;Node12</title>
<path fill="none" stroke="midnightblue" d="M500.26,-445.96C523.04,-448.14 548.85,-450.61 571.84,-452.81"/>
<polygon fill="midnightblue" stroke="midnightblue" points="571.55,-456.3 581.84,-453.77 572.22,-449.33 571.55,-456.3"/>
</g>
<!-- Node21 -->
<g id="node21" class="node">
<title>Node21</title>
<g id="a_node21"><a xlink:href="Metric_8c.html#a3d538200fed5b9ee9d1ef391bb61036c" target="_top" xlink:title=" ">
<polygon fill="none" stroke="black" points="618,-285.5 618,-304.5 657,-304.5 657,-285.5 618,-285.5"/>
<text text-anchor="middle" x="637.5" y="-292.5" font-family="Helvetica,sans-Serif" font-size="10.00">Gidx</text>
</a>
</g>
</g>
<!-- Node20&#45;&gt;Node21 -->
<g id="edge27" class="edge">
<title>Node20&#45;&gt;Node21</title>
<path fill="none" stroke="midnightblue" d="M499.18,-308.14C535.34,-304.68 579.45,-300.46 607.75,-297.75"/>
<polygon fill="midnightblue" stroke="midnightblue" points="608.15,-301.23 617.77,-296.79 607.48,-294.26 608.15,-301.23"/>
</g>
<!-- Node22&#45;&gt;Node21 -->
<g id="edge29" class="edge">
<title>Node22&#45;&gt;Node21</title>
<path fill="none" stroke="midnightblue" d="M513.04,-283.18C546.13,-286.35 583.05,-289.88 607.82,-292.25"/>
<polygon fill="midnightblue" stroke="midnightblue" points="607.67,-295.76 617.96,-293.23 608.34,-288.79 607.67,-295.76"/>
</g>
<!-- Node25 -->
<g id="node25" class="node">
<title>Node25</title>
<g id="a_node25"><a xlink:href="grid_8c.html#a526448d3a1e34b608f7167a59f1d7e04" target="_top" xlink:title="Determines the grid source and calls the appropriate parsing routine.">
<polygon fill="none" stroke="black" points="373,-38.5 373,-57.5 501,-57.5 501,-38.5 373,-38.5"/>
<text text-anchor="middle" x="437" y="-45.5" font-family="Helvetica,sans-Serif" font-size="10.00">ParseAndSetGridInputs</text>
</a>
</g>
</g>
<!-- Node24&#45;&gt;Node25 -->
<g id="edge32" class="edge">
<title>Node24&#45;&gt;Node25</title>
<path fill="none" stroke="midnightblue" d="M304.5,-48C323.32,-48 343.77,-48 362.82,-48"/>
<polygon fill="midnightblue" stroke="midnightblue" points="362.93,-51.5 372.93,-48 362.93,-44.5 362.93,-51.5"/>
</g>
<!-- Node26 -->
<g id="node26" class="node">
<title>Node26</title>
<g id="a_node26"><a xlink:href="io_8h.html#a1454fbb30915c3284cbf5ecb100351d1" target="_top" xlink:title="Sets grid dimensions from a file for a SINGLE block using a one&#45;time read cache.">
<polygon fill="none" stroke="black" points="598.5,-48.5 598.5,-67.5 676.5,-67.5 676.5,-48.5 598.5,-48.5"/>
<text text-anchor="middle" x="637.5" y="-55.5" font-family="Helvetica,sans-Serif" font-size="10.00">ReadGridFile</text>
</a>
</g>
</g>
<!-- Node25&#45;&gt;Node26 -->
<g id="edge33" class="edge">
<title>Node25&#45;&gt;Node26</title>
<path fill="none" stroke="midnightblue" d="M501.08,-51.18C529.34,-52.6 562.14,-54.25 588.37,-55.58"/>
<polygon fill="midnightblue" stroke="midnightblue" points="588.29,-59.08 598.45,-56.08 588.64,-52.08 588.29,-59.08"/>
</g>
<!-- Node27 -->
<g id="node27" class="node">
<title>Node27</title>
<g id="a_node27"><a xlink:href="io_8h.html#a7dd125436244f23eba5c6b06fdd35031" target="_top" xlink:title="Parses command&#45;line options for a programmatically generated grid for a SINGLE block.">
<polygon fill="none" stroke="black" points="564.5,-10.5 564.5,-29.5 710.5,-29.5 710.5,-10.5 564.5,-10.5"/>
<text text-anchor="middle" x="637.5" y="-17.5" font-family="Helvetica,sans-Serif" font-size="10.00">ReadGridGenerationInputs</text>
</a>
</g>
</g>
<!-- Node25&#45;&gt;Node27 -->
<g id="edge34" class="edge">
<title>Node25&#45;&gt;Node27</title>
<path fill="none" stroke="midnightblue" d="M501.08,-39.1C519.54,-36.5 539.94,-33.62 559.18,-30.91"/>
<polygon fill="midnightblue" stroke="midnightblue" points="559.71,-34.37 569.12,-29.5 558.73,-27.44 559.71,-34.37"/>
</g>
<!-- Node28&#45;&gt;Node3 -->
<g id="edge36" class="edge">
<title>Node28&#45;&gt;Node3</title>
<path fill="none" stroke="midnightblue" d="M284.63,-209.53C304.81,-213.08 328.45,-216.78 350,-219 501.42,-234.58 681.63,-237.53 767.56,-238"/>
<polygon fill="midnightblue" stroke="midnightblue" points="767.8,-241.5 777.81,-238.04 767.83,-234.5 767.8,-241.5"/>
</g>
<!-- Node29 -->
<g id="node29" class="node">
<title>Node29</title>
<g id="a_node29"><a xlink:href="grid_8c.html#a7de9f73019e4a260a2edd616dcd40a6b" target="_top" xlink:title="Creates the DMDA objects (da and fda) for a single UserCtx.">
<polygon fill="none" stroke="black" points="374.5,-190.5 374.5,-209.5 499.5,-209.5 499.5,-190.5 374.5,-190.5"/>
<text text-anchor="middle" x="437" y="-197.5" font-family="Helvetica,sans-Serif" font-size="10.00">InitializeSingleGridDM</text>
</a>
</g>
</g>
<!-- Node28&#45;&gt;Node29 -->
<g id="edge37" class="edge">
<title>Node28&#45;&gt;Node29</title>
<path fill="none" stroke="midnightblue" d="M291.08,-200C313.7,-200 340.12,-200 364.17,-200"/>
<polygon fill="midnightblue" stroke="midnightblue" points="364.31,-203.5 374.31,-200 364.31,-196.5 364.31,-203.5"/>
</g>
</g>
</svg>
        <g id="navigator" transform="translate(0 0)" fill="#404254">
                <rect fill="#f2f5e9" fill-opacity="0.5" stroke="#606060" stroke-width=".5" x="0" y="0" width="60" height="60"/>
                <use id="zoomplus" xlink:href="#zoomPlus" x="17" y="9" onmousedown="handleZoom(evt,'in')"/>
                <use id="zoomminus" xlink:href="#zoomMin" x="42" y="9" onmousedown="handleZoom(evt,'out')"/>
                <use id="reset" xlink:href="#resetDef" x="30" y="36" onmousedown="handleReset()"/>
                <g id="arrowUp" xlink:href="#dirArrow" transform="translate(30 24)" onmousedown="handlePan(0,-1)">
                  <use xlink:href="#rim" fill="#404040">
                        <set attributeName="fill" to="#808080" begin="arrowUp.mouseover" end="arrowUp.mouseout"/>
                  </use>
                  <path fill="none" stroke="white" stroke-width="1.5" d="M0,-3.0v7 M-2.5,-0.5L0,-3.0L2.5,-0.5"/>
                </g>
                <g id="arrowRight" xlink:href="#dirArrow" transform="rotate(90) translate(36 -43)" onmousedown="handlePan(1,0)">
                  <use xlink:href="#rim" fill="#404040">
                        <set attributeName="fill" to="#808080" begin="arrowRight.mouseover" end="arrowRight.mouseout"/>
                  </use>
                  <path fill="none" stroke="white" stroke-width="1.5" d="M0,-3.0v7 M-2.5,-0.5L0,-3.0L2.5,-0.5"/>
                </g>
                <g id="arrowDown" xlink:href="#dirArrow" transform="rotate(180) translate(-30 -48)" onmousedown="handlePan(0,1)">
                  <use xlink:href="#rim" fill="#404040">
                        <set attributeName="fill" to="#808080" begin="arrowDown.mouseover" end="arrowDown.mouseout"/>
                  </use>
                  <path fill="none" stroke="white" stroke-width="1.5" d="M0,-3.0v7 M-2.5,-0.5L0,-3.0L2.5,-0.5"/>
                </g>
                <g id="arrowLeft" xlink:href="#dirArrow" transform="rotate(270) translate(-36 17)" onmousedown="handlePan(-1,0)">
                  <use xlink:href="#rim" fill="#404040">
                        <set attributeName="fill" to="#808080" begin="arrowLeft.mouseover" end="arrowLeft.mouseout"/>
                  </use>
                  <path fill="none" stroke="white" stroke-width="1.5" d="M0,-3.0v7 M-2.5,-0.5L0,-3.0L2.5,-0.5"/>
                </g>
        </g>
        <svg viewBox="0 0 15 15" width="100%" height="30px" preserveAspectRatio="xMaxYMin meet">
         <g id="arrow_out" transform="scale(0.3 0.3)">
          <a xlink:href="setup_8c_a2be2815aeb79afe9b95caf39c7b3312c_cgraph_org.svg" target="_base">
           <rect id="button" ry="5" rx="5" y="6" x="6" height="38" width="38"
                fill="#f2f5e9" fill-opacity="0.5" stroke="#606060" stroke-width="1.0"/>
           <path id="arrow"
             d="M 11.500037,31.436501 C 11.940474,20.09759 22.043105,11.32322 32.158766,21.979434 L 37.068811,17.246167 C 37.068811,17.246167 37.088388,32 37.088388,32 L 22.160133,31.978069 C 22.160133,31.978069 26.997745,27.140456 26.997745,27.140456 C 18.528582,18.264221 13.291696,25.230495 11.500037,31.436501 z"
             style="fill:#404040;"/>
          </a>
         </g>
        </svg>
</svg>
