<?xml version="1.0" encoding="UTF-8" standalone="no"?>
<!DOCTYPE svg PUBLIC "-//W3C//DTD SVG 1.1//EN"
 "http://www.w3.org/Graphics/SVG/1.1/DTD/svg11.dtd">
<!-- Generated by graphviz version 2.43.0 (0)
 -->
<!-- Title: GetOwnedCellRange Pages: 1 -->
<!--zoomable 339 -->
<svg id="main" version="1.1" xmlns="http://www.w3.org/2000/svg" xmlns:xlink="http://www.w3.org/1999/xlink" xml:space="preserve" onload="init(evt)">
<style type="text/css"><![CDATA[
.edge:hover path { stroke: red; }
.edge:hover polygon { stroke: red; fill: red; }
]]></style>
<script type="text/javascript"><![CDATA[
var edges = document.getElementsByTagName('g');
if (edges && edges.length) {
  for (var i=0;i<edges.length;i++) {
    if (edges[i].id.substr(0,4)=='edge') {
      edges[i].setAttribute('class','edge');
    }
  }
}
]]></script>
        <defs>
                <circle id="rim" cx="0" cy="0" r="7"/>
                <circle id="rim2" cx="0" cy="0" r="3.5"/>
                <g id="zoomPlus">
                        <use xlink:href="#rim" fill="#404040">
                                <set attributeName="fill" to="#808080" begin="zoomplus.mouseover" end="zoomplus.mouseout"/>
                        </use>
                        <path d="M-4,0h8M0,-4v8" fill="none" stroke="white" stroke-width="1.5" pointer-events="none"/>
                </g>
                <g id="zoomMin">
                        <use xlink:href="#rim" fill="#404040">
                                <set attributeName="fill" to="#808080" begin="zoomminus.mouseover" end="zoomminus.mouseout"/>
                        </use>
                        <path d="M-4,0h8" fill="none" stroke="white" stroke-width="1.5" pointer-events="none"/>
                </g>
                <g id="dirArrow">
                        <path fill="none" stroke="white" stroke-width="1.5" d="M0,-3.0v7 M-2.5,-0.5L0,-3.0L2.5,-0.5"/>
                </g>
               <g id="resetDef">
                       <use xlink:href="#rim2" fill="#404040">
                               <set attributeName="fill" to="#808080" begin="reset.mouseover" end="reset.mouseout"/>
                       </use>
               </g>
        </defs>

<script type="text/javascript">
var viewWidth = 1006;
var viewHeight = 339;
var sectionId = 'dynsection-13';
</script>
<script xlink:href="svgpan.js"/>
<svg id="graph" class="graph">
<g id="viewport">
<title>GetOwnedCellRange</title>
<!-- Node1 -->
<g id="node1" class="node">
<title>Node1</title>
<g id="a_node1"><a xlink:title="Gets the global starting index of cells owned by this rank and the number of such cells.">
<polygon fill="#bfbfbf" stroke="black" points="881,-175 881,-194 998,-194 998,-175 881,-175"/>
<text text-anchor="middle" x="939.5" y="-182" font-family="Helvetica,sans-Serif" font-size="10.00">GetOwnedCellRange</text>
</a>
</g>
</g>
<!-- Node2 -->
<g id="node2" class="node">
<title>Node2</title>
<g id="a_node2"><a xlink:href="Boundaries_8c.html#a542a84809c7767ba2a314faaa08ee0a0" target="_top" xlink:title="Determines if the current MPI rank owns any part of a specified global face.">
<polygon fill="none" stroke="black" points="688,-311 688,-330 807,-330 807,-311 688,-311"/>
<text text-anchor="middle" x="747.5" y="-318" font-family="Helvetica,sans-Serif" font-size="10.00">CanRankServiceFace</text>
</a>
</g>
</g>
<!-- Node1&#45;&gt;Node2 -->
<g id="edge1" class="edge">
<title>Node1&#45;&gt;Node2</title>
<path fill="none" stroke="midnightblue" d="M929.04,-203.28C914.69,-229.71 884.81,-277.34 845,-301.5 833.61,-308.41 820.21,-312.87 807.07,-315.74"/>
<polygon fill="midnightblue" stroke="midnightblue" points="932.21,-204.76 933.77,-194.28 926.02,-201.51 932.21,-204.76"/>
</g>
<!-- Node3 -->
<g id="node3" class="node">
<title>Node3</title>
<g id="a_node3"><a xlink:href="Boundaries_8c.html#ab679d620b2d750179fbc2363fc562a1f" target="_top" xlink:title="Determines if the current MPI rank owns any part of the globally defined inlet face,...">
<polygon fill="none" stroke="black" points="677.5,-273 677.5,-292 817.5,-292 817.5,-273 677.5,-273"/>
<text text-anchor="middle" x="747.5" y="-280" font-family="Helvetica,sans-Serif" font-size="10.00">CanRankServiceInletFace</text>
</a>
</g>
</g>
<!-- Node1&#45;&gt;Node3 -->
<g id="edge2" class="edge">
<title>Node1&#45;&gt;Node3</title>
<path fill="none" stroke="midnightblue" d="M923.36,-201.67C906.23,-219.97 876.56,-248.33 845,-263.5 836.46,-267.6 827.08,-270.82 817.64,-273.35"/>
<polygon fill="midnightblue" stroke="midnightblue" points="926.16,-203.8 930.32,-194.06 920.99,-199.08 926.16,-203.8"/>
</g>
<!-- Node11 -->
<g id="node11" class="node">
<title>Node11</title>
<g id="a_node11"><a xlink:href="setup_8c.html#a25ce912d8aafa319a8c915cd350c7322" target="_top" xlink:title="Gets the global cell range for a rank, including boundary cells.">
<polygon fill="none" stroke="black" points="685.5,-197 685.5,-216 809.5,-216 809.5,-197 685.5,-197"/>
<text text-anchor="middle" x="747.5" y="-204" font-family="Helvetica,sans-Serif" font-size="10.00">GetGhostedCellRange</text>
</a>
</g>
</g>
<!-- Node1&#45;&gt;Node11 -->
<g id="edge12" class="edge">
<title>Node1&#45;&gt;Node11</title>
<path fill="none" stroke="midnightblue" d="M871.03,-192.31C851.07,-194.62 829.34,-197.14 809.79,-199.4"/>
<polygon fill="midnightblue" stroke="midnightblue" points="871.45,-195.79 880.98,-191.16 870.64,-188.83 871.45,-195.79"/>
</g>
<!-- Node17 -->
<g id="node17" class="node">
<title>Node17</title>
<g id="a_node17"><a xlink:href="Boundaries_8c.html#ac07befc354128d23bac8ed5f2612ffdf" target="_top" xlink:title="Assuming the current rank services the inlet face, this function selects a random cell (owned by this...">
<polygon fill="none" stroke="black" points="650,-235 650,-254 845,-254 845,-235 650,-235"/>
<text text-anchor="middle" x="747.5" y="-242" font-family="Helvetica,sans-Serif" font-size="10.00">GetRandomCellAndLogicOnInletFace</text>
</a>
</g>
</g>
<!-- Node1&#45;&gt;Node17 -->
<g id="edge20" class="edge">
<title>Node1&#45;&gt;Node17</title>
<path fill="none" stroke="midnightblue" d="M910.79,-198.57C892.5,-207.37 867.79,-218.35 845,-225.5 833.11,-229.23 820.15,-232.38 807.7,-234.97"/>
<polygon fill="midnightblue" stroke="midnightblue" points="912.54,-201.61 919.98,-194.07 909.46,-195.32 912.54,-201.61"/>
</g>
<!-- Node18 -->
<g id="node18" class="node">
<title>Node18</title>
<g id="a_node18"><a xlink:href="interpolation_8c.html#ac3e3d9d03447563e1062d257af6046d2" target="_top" xlink:title="Interpolates a scalar field from corner nodes to all face centers.">
<polygon fill="none" stroke="black" points="664,-147.5 664,-177.5 831,-177.5 831,-147.5 664,-147.5"/>
<text text-anchor="start" x="672" y="-165.5" font-family="Helvetica,sans-Serif" font-size="10.00">InterpolateCornerToFaceCenter</text>
<text text-anchor="middle" x="747.5" y="-154.5" font-family="Helvetica,sans-Serif" font-size="10.00">_Scalar</text>
</a>
</g>
</g>
<!-- Node1&#45;&gt;Node18 -->
<g id="edge23" class="edge">
<title>Node1&#45;&gt;Node18</title>
<path fill="none" stroke="midnightblue" d="M870.83,-176.66C857.95,-175.17 844.34,-173.6 831.06,-172.06"/>
<polygon fill="midnightblue" stroke="midnightblue" points="870.64,-180.17 880.98,-177.84 871.45,-173.21 870.64,-180.17"/>
</g>
<!-- Node19 -->
<g id="node19" class="node">
<title>Node19</title>
<g id="a_node19"><a xlink:href="interpolation_8c.html#a173e2e54a5c09762ab6868eb78889886" target="_top" xlink:title="Interpolates a vector field from corner nodes to all face centers.">
<polygon fill="none" stroke="black" points="664,-98.5 664,-128.5 831,-128.5 831,-98.5 664,-98.5"/>
<text text-anchor="start" x="672" y="-116.5" font-family="Helvetica,sans-Serif" font-size="10.00">InterpolateCornerToFaceCenter</text>
<text text-anchor="middle" x="747.5" y="-105.5" font-family="Helvetica,sans-Serif" font-size="10.00">_Vector</text>
</a>
</g>
</g>
<!-- Node1&#45;&gt;Node19 -->
<g id="edge24" class="edge">
<title>Node1&#45;&gt;Node19</title>
<path fill="none" stroke="midnightblue" d="M913.2,-169.85C894.77,-159.66 868.94,-146.37 845,-137.5 836.1,-134.2 826.56,-131.21 817.08,-128.55"/>
<polygon fill="midnightblue" stroke="midnightblue" points="911.68,-173.01 922.11,-174.85 915.11,-166.91 911.68,-173.01"/>
</g>
<!-- Node20 -->
<g id="node20" class="node">
<title>Node20</title>
<g id="a_node20"><a xlink:href="interpolation_8c.html#a178ae55ed2a5ace793e5ead8933d5c76" target="_top" xlink:title="Interpolates a scalar field from corner nodes to cell centers.">
<polygon fill="none" stroke="black" points="673,-49.5 673,-79.5 822,-79.5 822,-49.5 673,-49.5"/>
<text text-anchor="start" x="681" y="-67.5" font-family="Helvetica,sans-Serif" font-size="10.00">InterpolateFieldFromCorner</text>
<text text-anchor="middle" x="747.5" y="-56.5" font-family="Helvetica,sans-Serif" font-size="10.00">ToCenter_Scalar</text>
</a>
</g>
</g>
<!-- Node1&#45;&gt;Node20 -->
<g id="edge25" class="edge">
<title>Node1&#45;&gt;Node20</title>
<path fill="none" stroke="midnightblue" d="M925.97,-166.52C909.81,-144.7 879.6,-108.37 845,-88.5 837.89,-84.42 830.09,-81.02 822.11,-78.2"/>
<polygon fill="midnightblue" stroke="midnightblue" points="923.33,-168.83 932.02,-174.89 929,-164.74 923.33,-168.83"/>
</g>
<!-- Node21 -->
<g id="node21" class="node">
<title>Node21</title>
<g id="a_node21"><a xlink:href="interpolation_8c.html#a1572054c1f369e31e37b0f44b04828d6" target="_top" xlink:title="Interpolates a vector field from corner nodes to cell centers.">
<polygon fill="none" stroke="black" points="673,-0.5 673,-30.5 822,-30.5 822,-0.5 673,-0.5"/>
<text text-anchor="start" x="681" y="-18.5" font-family="Helvetica,sans-Serif" font-size="10.00">InterpolateFieldFromCorner</text>
<text text-anchor="middle" x="747.5" y="-7.5" font-family="Helvetica,sans-Serif" font-size="10.00">ToCenter_Vector</text>
</a>
</g>
</g>
<!-- Node1&#45;&gt;Node21 -->
<g id="edge26" class="edge">
<title>Node1&#45;&gt;Node21</title>
<path fill="none" stroke="midnightblue" d="M931.53,-165.21C919.16,-133.81 890.33,-71.92 845,-39.5 838.12,-34.58 830.34,-30.66 822.25,-27.55"/>
<polygon fill="midnightblue" stroke="midnightblue" points="928.4,-166.83 935.22,-174.94 934.95,-164.35 928.4,-166.83"/>
</g>
<!-- Node4 -->
<g id="node4" class="node">
<title>Node4</title>
<g id="a_node4"><a xlink:href="ParticleSwarm_8c.html#a95efc9f04a0187f2a1d920952bd610e0" target="_top" xlink:title="Initializes basic properties for particles on the local process.">
<polygon fill="none" stroke="black" points="430.5,-283 430.5,-302 601.5,-302 601.5,-283 430.5,-283"/>
<text text-anchor="middle" x="516" y="-290" font-family="Helvetica,sans-Serif" font-size="10.00">InitializeParticleBasicProperties</text>
</a>
</g>
</g>
<!-- Node3&#45;&gt;Node4 -->
<g id="edge3" class="edge">
<title>Node3&#45;&gt;Node4</title>
<path fill="none" stroke="midnightblue" d="M667.14,-285.96C646.06,-286.88 623.21,-287.87 601.85,-288.8"/>
<polygon fill="midnightblue" stroke="midnightblue" points="667.49,-289.45 677.33,-285.51 667.19,-282.45 667.49,-289.45"/>
</g>
<!-- Node8 -->
<g id="node8" class="node">
<title>Node8</title>
<g id="a_node8"><a xlink:href="ParticleMotion_8c.html#abb62172d12ae65122070a3674196c8e2" target="_top" xlink:title="Re&#45;initializes the positions of particles currently on this rank if this rank owns part of the design...">
<polygon fill="none" stroke="black" points="441.5,-233.5 441.5,-263.5 590.5,-263.5 590.5,-233.5 441.5,-233.5"/>
<text text-anchor="start" x="449.5" y="-251.5" font-family="Helvetica,sans-Serif" font-size="10.00">ReinitializeParticlesOnInlet</text>
<text text-anchor="middle" x="516" y="-240.5" font-family="Helvetica,sans-Serif" font-size="10.00">Surface</text>
</a>
</g>
</g>
<!-- Node3&#45;&gt;Node8 -->
<g id="edge7" class="edge">
<title>Node3&#45;&gt;Node8</title>
<path fill="none" stroke="midnightblue" d="M672.04,-271.47C645.91,-267.6 616.59,-263.25 590.53,-259.39"/>
<polygon fill="midnightblue" stroke="midnightblue" points="671.86,-274.98 682.27,-272.98 672.89,-268.06 671.86,-274.98"/>
</g>
<!-- Node5 -->
<g id="node5" class="node">
<title>Node5</title>
<g id="a_node5"><a xlink:href="ParticleSwarm_8c.html#af2b3080ee0e5c8e0175ac594a2c497b5" target="_top" xlink:title="Initializes all particle properties in the swarm.">
<polygon fill="none" stroke="black" points="243.5,-289.5 243.5,-319.5 380.5,-319.5 380.5,-289.5 243.5,-289.5"/>
<text text-anchor="start" x="251.5" y="-307.5" font-family="Helvetica,sans-Serif" font-size="10.00">AssignInitialPropertiesTo</text>
<text text-anchor="middle" x="312" y="-296.5" font-family="Helvetica,sans-Serif" font-size="10.00">Swarm</text>
</a>
</g>
</g>
<!-- Node4&#45;&gt;Node5 -->
<g id="edge4" class="edge">
<title>Node4&#45;&gt;Node5</title>
<path fill="none" stroke="midnightblue" d="M420.09,-298.14C406.79,-298.93 393.35,-299.73 380.7,-300.48"/>
<polygon fill="midnightblue" stroke="midnightblue" points="420.44,-301.62 430.21,-297.54 420.02,-294.64 420.44,-301.62"/>
</g>
<!-- Node6 -->
<g id="node6" class="node">
<title>Node6</title>
<g id="a_node6"><a xlink:href="ParticleSwarm_8c.html#ada215a5db25227a8fd2cd2596e7d3e57" target="_top" xlink:title="Perform particle swarm initialization, particle&#45;grid interaction, and related operations.">
<polygon fill="none" stroke="black" points="77,-300 77,-319 206,-319 206,-300 77,-300"/>
<text text-anchor="middle" x="141.5" y="-307" font-family="Helvetica,sans-Serif" font-size="10.00">InitializeParticleSwarm</text>
</a>
</g>
</g>
<!-- Node5&#45;&gt;Node6 -->
<g id="edge5" class="edge">
<title>Node5&#45;&gt;Node6</title>
<path fill="none" stroke="midnightblue" d="M233.28,-306.81C224.23,-307.07 215.08,-307.35 206.25,-307.61"/>
<polygon fill="midnightblue" stroke="midnightblue" points="233.54,-310.3 243.44,-306.5 233.34,-303.3 233.54,-310.3"/>
</g>
<!-- Node7 -->
<g id="node7" class="node">
<title>Node7</title>
<g id="a_node7"><a xlink:href="picsolver_8c.html#a3c04138a5bfe5d72780bb7e82a18e627" target="_top" xlink:title=" ">
<polygon fill="none" stroke="black" points="0,-224 0,-243 41,-243 41,-224 0,-224"/>
<text text-anchor="middle" x="20.5" y="-231" font-family="Helvetica,sans-Serif" font-size="10.00">main</text>
</a>
</g>
</g>
<!-- Node6&#45;&gt;Node7 -->
<g id="edge6" class="edge">
<title>Node6&#45;&gt;Node7</title>
<path fill="none" stroke="midnightblue" d="M87.94,-296.13C84.13,-294.46 80.44,-292.59 77,-290.5 56.21,-277.9 37.77,-255.69 28.28,-243.03"/>
<polygon fill="midnightblue" stroke="midnightblue" points="86.96,-299.51 97.55,-299.91 89.52,-293 86.96,-299.51"/>
</g>
<!-- Node9 -->
<g id="node9" class="node">
<title>Node9</title>
<g id="a_node9"><a xlink:href="simulation_8c.html#aa5b3c3a0cd447931b47a01267c36acdd" target="_top" xlink:title="Finalizes the simulation setup at t=0, ensuring a consistent state before time marching.">
<polygon fill="none" stroke="black" points="242,-235.5 242,-265.5 382,-265.5 382,-235.5 242,-235.5"/>
<text text-anchor="start" x="250" y="-253.5" font-family="Helvetica,sans-Serif" font-size="10.00">PerformInitializedParticle</text>
<text text-anchor="middle" x="312" y="-242.5" font-family="Helvetica,sans-Serif" font-size="10.00">Setup</text>
</a>
</g>
</g>
<!-- Node8&#45;&gt;Node9 -->
<g id="edge8" class="edge">
<title>Node8&#45;&gt;Node9</title>
<path fill="none" stroke="midnightblue" d="M431.17,-249.33C414.88,-249.49 397.97,-249.66 382.22,-249.81"/>
<polygon fill="midnightblue" stroke="midnightblue" points="431.25,-252.83 441.22,-249.23 431.18,-245.83 431.25,-252.83"/>
</g>
<!-- Node9&#45;&gt;Node7 -->
<g id="edge11" class="edge">
<title>Node9&#45;&gt;Node7</title>
<path fill="none" stroke="midnightblue" d="M231.46,-245.83C166.65,-242.02 79.81,-236.92 41.31,-234.66"/>
<polygon fill="midnightblue" stroke="midnightblue" points="231.47,-249.34 241.66,-246.43 231.88,-242.35 231.47,-249.34"/>
</g>
<!-- Node10 -->
<g id="node10" class="node">
<title>Node10</title>
<g id="a_node10"><a xlink:href="simulation_8c.html#a7bc2bae7b01f179706b367c8637534c2" target="_top" xlink:title="Performs post&#45;load/post&#45;init consistency checks for a restarted simulation.">
<polygon fill="none" stroke="black" points="84.5,-262 84.5,-281 198.5,-281 198.5,-262 84.5,-262"/>
<text text-anchor="middle" x="141.5" y="-269" font-family="Helvetica,sans-Serif" font-size="10.00">FinalizeRestartState</text>
</a>
</g>
</g>
<!-- Node9&#45;&gt;Node10 -->
<g id="edge9" class="edge">
<title>Node9&#45;&gt;Node10</title>
<path fill="none" stroke="midnightblue" d="M231.74,-260.38C220.53,-261.78 209.2,-263.19 198.55,-264.51"/>
<polygon fill="midnightblue" stroke="midnightblue" points="232.49,-263.81 241.98,-259.1 231.62,-256.87 232.49,-263.81"/>
</g>
<!-- Node10&#45;&gt;Node7 -->
<g id="edge10" class="edge">
<title>Node10&#45;&gt;Node7</title>
<path fill="none" stroke="midnightblue" d="M100.92,-258.86C80.81,-252.44 57.27,-244.92 41.07,-239.75"/>
<polygon fill="midnightblue" stroke="midnightblue" points="99.88,-262.2 110.47,-261.91 102.01,-255.53 99.88,-262.2"/>
</g>
<!-- Node12 -->
<g id="node12" class="node">
<title>Node12</title>
<g id="a_node12"><a xlink:href="initialcondition_8c.html#a62dfa993750dc34d1729c575bb1dde66" target="_top" xlink:title="Sets the initial values for the INTERIOR of a specified Eulerian field.">
<polygon fill="none" stroke="black" points="457,-193 457,-212 575,-212 575,-193 457,-193"/>
<text text-anchor="middle" x="516" y="-200" font-family="Helvetica,sans-Serif" font-size="10.00">SetInitialInteriorField</text>
</a>
</g>
</g>
<!-- Node11&#45;&gt;Node12 -->
<g id="edge13" class="edge">
<title>Node11&#45;&gt;Node12</title>
<path fill="none" stroke="midnightblue" d="M675.08,-205.26C643,-204.7 605.62,-204.04 575.26,-203.52"/>
<polygon fill="midnightblue" stroke="midnightblue" points="675.24,-208.76 685.3,-205.43 675.36,-201.76 675.24,-208.76"/>
</g>
<!-- Node15 -->
<g id="node15" class="node">
<title>Node15</title>
<g id="a_node15"><a xlink:href="setup_8c.html#aeb77337317f41972d1c75c8d80527892" target="_top" xlink:title="Creates and distributes a map of the domain&#39;s cell decomposition to all ranks.">
<polygon fill="none" stroke="black" points="418,-152 418,-171 614,-171 614,-152 418,-152"/>
<text text-anchor="middle" x="516" y="-159" font-family="Helvetica,sans-Serif" font-size="10.00">SetupDomainCellDecompositionMap</text>
</a>
</g>
</g>
<!-- Node11&#45;&gt;Node15 -->
<g id="edge17" class="edge">
<title>Node11&#45;&gt;Node15</title>
<path fill="none" stroke="midnightblue" d="M687.95,-195.02C650.07,-187.59 601.34,-178.04 565.6,-171.03"/>
<polygon fill="midnightblue" stroke="midnightblue" points="687.34,-198.47 697.83,-196.96 688.69,-191.6 687.34,-198.47"/>
</g>
<!-- Node13 -->
<g id="node13" class="node">
<title>Node13</title>
<g id="a_node13"><a xlink:href="initialcondition_8c.html#a51d0251f84a962a611ff0c0a8797a3e4" target="_top" xlink:title="(HELPER) Sets the t=0 fluid state for all blocks.">
<polygon fill="none" stroke="black" points="257,-186.5 257,-216.5 367,-216.5 367,-186.5 257,-186.5"/>
<text text-anchor="start" x="265" y="-204.5" font-family="Helvetica,sans-Serif" font-size="10.00">SetInitialFluidState</text>
<text text-anchor="middle" x="312" y="-193.5" font-family="Helvetica,sans-Serif" font-size="10.00">_FreshStart</text>
</a>
</g>
</g>
<!-- Node12&#45;&gt;Node13 -->
<g id="edge14" class="edge">
<title>Node12&#45;&gt;Node13</title>
<path fill="none" stroke="midnightblue" d="M446.72,-202.16C420.83,-202.03 391.72,-201.89 367.28,-201.77"/>
<polygon fill="midnightblue" stroke="midnightblue" points="446.83,-205.66 456.84,-202.21 446.86,-198.66 446.83,-205.66"/>
</g>
<!-- Node14 -->
<g id="node14" class="node">
<title>Node14</title>
<g id="a_node14"><a xlink:href="initialcondition_8c.html#ad0dd7d3f2528b6a7802fcd551e88ea99" target="_top" xlink:title="High&#45;level orchestrator to set the complete initial state of the Eulerian solver.">
<polygon fill="none" stroke="black" points="79.5,-186 79.5,-205 203.5,-205 203.5,-186 79.5,-186"/>
<text text-anchor="middle" x="141.5" y="-193" font-family="Helvetica,sans-Serif" font-size="10.00">InitializeEulerianState</text>
</a>
</g>
</g>
<!-- Node13&#45;&gt;Node14 -->
<g id="edge15" class="edge">
<title>Node13&#45;&gt;Node14</title>
<path fill="none" stroke="midnightblue" d="M246.65,-199.21C232.54,-198.71 217.64,-198.18 203.66,-197.68"/>
<polygon fill="midnightblue" stroke="midnightblue" points="246.64,-202.71 256.76,-199.57 246.89,-195.71 246.64,-202.71"/>
</g>
<!-- Node14&#45;&gt;Node7 -->
<g id="edge16" class="edge">
<title>Node14&#45;&gt;Node7</title>
<path fill="none" stroke="midnightblue" d="M100.92,-208.14C80.81,-214.56 57.27,-222.08 41.07,-227.25"/>
<polygon fill="midnightblue" stroke="midnightblue" points="102.01,-211.47 110.47,-205.09 99.88,-204.8 102.01,-211.47"/>
</g>
<!-- Node16 -->
<g id="node16" class="node">
<title>Node16</title>
<g id="a_node16"><a xlink:href="setup_8c.html#a1c08bf327e1aee897c56610a89f75814" target="_top" xlink:title="Sets up the full rank communication infrastructure for all blocks.">
<polygon fill="none" stroke="black" points="78.5,-148 78.5,-167 204.5,-167 204.5,-148 78.5,-148"/>
<text text-anchor="middle" x="141.5" y="-155" font-family="Helvetica,sans-Serif" font-size="10.00">SetupDomainRankInfo</text>
</a>
</g>
</g>
<!-- Node15&#45;&gt;Node16 -->
<g id="edge18" class="edge">
<title>Node15&#45;&gt;Node16</title>
<path fill="none" stroke="midnightblue" d="M407.61,-160.35C341.77,-159.64 259.8,-158.76 204.58,-158.17"/>
<polygon fill="midnightblue" stroke="midnightblue" points="407.58,-163.85 417.62,-160.45 407.65,-156.85 407.58,-163.85"/>
</g>
<!-- Node16&#45;&gt;Node7 -->
<g id="edge19" class="edge">
<title>Node16&#45;&gt;Node7</title>
<path fill="none" stroke="midnightblue" d="M87.94,-170.87C84.13,-172.54 80.44,-174.41 77,-176.5 56.21,-189.1 37.77,-211.31 28.28,-223.97"/>
<polygon fill="midnightblue" stroke="midnightblue" points="89.52,-174 97.55,-167.09 86.96,-167.49 89.52,-174"/>
</g>
<!-- Node17&#45;&gt;Node4 -->
<g id="edge21" class="edge">
<title>Node17&#45;&gt;Node4</title>
<path fill="none" stroke="midnightblue" d="M684.32,-256.01C672.87,-258.34 661.05,-260.88 650,-263.5 633.84,-267.33 630.16,-269.68 614,-273.5 599.64,-276.9 583.98,-280.15 569.51,-282.98"/>
<polygon fill="midnightblue" stroke="midnightblue" points="685.14,-259.42 694.26,-254.03 683.77,-252.56 685.14,-259.42"/>
</g>
<!-- Node17&#45;&gt;Node8 -->
<g id="edge22" class="edge">
<title>Node17&#45;&gt;Node8</title>
<path fill="none" stroke="midnightblue" d="M639.55,-246.36C622.97,-246.65 606.16,-246.95 590.54,-247.22"/>
<polygon fill="midnightblue" stroke="midnightblue" points="639.9,-249.86 649.84,-246.18 639.78,-242.86 639.9,-249.86"/>
</g>
</g>
</svg>
        <g id="navigator" transform="translate(0 0)" fill="#404254">
                <rect fill="#f2f5e9" fill-opacity="0.5" stroke="#606060" stroke-width=".5" x="0" y="0" width="60" height="60"/>
                <use id="zoomplus" xlink:href="#zoomPlus" x="17" y="9" onmousedown="handleZoom(evt,'in')"/>
                <use id="zoomminus" xlink:href="#zoomMin" x="42" y="9" onmousedown="handleZoom(evt,'out')"/>
                <use id="reset" xlink:href="#resetDef" x="30" y="36" onmousedown="handleReset()"/>
                <g id="arrowUp" xlink:href="#dirArrow" transform="translate(30 24)" onmousedown="handlePan(0,-1)">
                  <use xlink:href="#rim" fill="#404040">
                        <set attributeName="fill" to="#808080" begin="arrowUp.mouseover" end="arrowUp.mouseout"/>
                  </use>
                  <path fill="none" stroke="white" stroke-width="1.5" d="M0,-3.0v7 M-2.5,-0.5L0,-3.0L2.5,-0.5"/>
                </g>
                <g id="arrowRight" xlink:href="#dirArrow" transform="rotate(90) translate(36 -43)" onmousedown="handlePan(1,0)">
                  <use xlink:href="#rim" fill="#404040">
                        <set attributeName="fill" to="#808080" begin="arrowRight.mouseover" end="arrowRight.mouseout"/>
                  </use>
                  <path fill="none" stroke="white" stroke-width="1.5" d="M0,-3.0v7 M-2.5,-0.5L0,-3.0L2.5,-0.5"/>
                </g>
                <g id="arrowDown" xlink:href="#dirArrow" transform="rotate(180) translate(-30 -48)" onmousedown="handlePan(0,1)">
                  <use xlink:href="#rim" fill="#404040">
                        <set attributeName="fill" to="#808080" begin="arrowDown.mouseover" end="arrowDown.mouseout"/>
                  </use>
                  <path fill="none" stroke="white" stroke-width="1.5" d="M0,-3.0v7 M-2.5,-0.5L0,-3.0L2.5,-0.5"/>
                </g>
                <g id="arrowLeft" xlink:href="#dirArrow" transform="rotate(270) translate(-36 17)" onmousedown="handlePan(-1,0)">
                  <use xlink:href="#rim" fill="#404040">
                        <set attributeName="fill" to="#808080" begin="arrowLeft.mouseover" end="arrowLeft.mouseout"/>
                  </use>
                  <path fill="none" stroke="white" stroke-width="1.5" d="M0,-3.0v7 M-2.5,-0.5L0,-3.0L2.5,-0.5"/>
                </g>
        </g>
        <svg viewBox="0 0 15 15" width="100%" height="30px" preserveAspectRatio="xMaxYMin meet">
         <g id="arrow_out" transform="scale(0.3 0.3)">
          <a xlink:href="setup_8c_a135027905841ed83f1a3ef2279d865cc_icgraph_org.svg" target="_base">
           <rect id="button" ry="5" rx="5" y="6" x="6" height="38" width="38"
                fill="#f2f5e9" fill-opacity="0.5" stroke="#606060" stroke-width="1.0"/>
           <path id="arrow"
             d="M 11.500037,31.436501 C 11.940474,20.09759 22.043105,11.32322 32.158766,21.979434 L 37.068811,17.246167 C 37.068811,17.246167 37.088388,32 37.088388,32 L 22.160133,31.978069 C 22.160133,31.978069 26.997745,27.140456 26.997745,27.140456 C 18.528582,18.264221 13.291696,25.230495 11.500037,31.436501 z"
             style="fill:#404040;"/>
          </a>
         </g>
        </svg>
</svg>
