<?xml version="1.0" encoding="UTF-8" standalone="no"?>
<!DOCTYPE svg PUBLIC "-//W3C//DTD SVG 1.1//EN"
 "http://www.w3.org/Graphics/SVG/1.1/DTD/svg11.dtd">
<!-- Generated by graphviz version 2.43.0 (0)
 -->
<!-- Title: UpdateLocalGhosts Pages: 1 -->
<svg width="773pt" height="539pt"
 viewBox="0.00 0.00 773.00 539.03" xmlns="http://www.w3.org/2000/svg" xmlns:xlink="http://www.w3.org/1999/xlink">
<g id="graph0" class="graph" transform="scale(1 1) rotate(0) translate(4 535.03)">
<title>UpdateLocalGhosts</title>
<!-- Node1 -->
<g id="node1" class="node">
<title>Node1</title>
<g id="a_node1"><a xlink:title="Updates the local vector (including ghost points) from its corresponding global vector.">
<polygon fill="#bfbfbf" stroke="black" points="654,-264.89 654,-283.89 765,-283.89 765,-264.89 654,-264.89"/>
<text text-anchor="middle" x="709.5" y="-271.89" font-family="Helvetica,sans-Serif" font-size="10.00">UpdateLocalGhosts</text>
</a>
</g>
</g>
<!-- Node2 -->
<g id="node2" class="node">
<title>Node2</title>
<g id="a_node2"><a xlink:href="Metric_8c.html#a436bb94905ee06971f632571f5bc8cbb" target="_top" xlink:title="Ensure a right&#45;handed metric basis (Csi, Eta, Zet) and a positive Jacobian (Aj) over the whole domain...">
<polygon fill="none" stroke="black" points="454,-245.89 454,-264.89 608,-264.89 608,-245.89 454,-245.89"/>
<text text-anchor="middle" x="531" y="-252.89" font-family="Helvetica,sans-Serif" font-size="10.00">CheckAndFixGridOrientation</text>
</a>
</g>
</g>
<!-- Node1&#45;&gt;Node2 -->
<g id="edge1" class="edge">
<title>Node1&#45;&gt;Node2</title>
<path fill="none" stroke="midnightblue" d="M643.66,-267.41C632.14,-266.17 620.04,-264.87 608.23,-263.6"/>
<polygon fill="midnightblue" stroke="midnightblue" points="643.3,-270.89 653.62,-268.49 644.05,-263.93 643.3,-270.89"/>
</g>
<!-- Node6 -->
<g id="node6" class="node">
<title>Node6</title>
<g id="a_node6"><a xlink:href="Metric_8c.html#a92d28e2f14645b0eb563144f4ccf2b49" target="_top" xlink:title="Calculates the cell&#45;centered inverse Jacobian determinant (1/J), including boundary extrapolation,...">
<polygon fill="none" stroke="black" points="448.5,-196.39 448.5,-226.39 613.5,-226.39 613.5,-196.39 448.5,-196.39"/>
<text text-anchor="start" x="456.5" y="-214.39" font-family="Helvetica,sans-Serif" font-size="10.00">ComputeCellCenteredJacobian</text>
<text text-anchor="middle" x="531" y="-203.39" font-family="Helvetica,sans-Serif" font-size="10.00">Inverse</text>
</a>
</g>
</g>
<!-- Node1&#45;&gt;Node6 -->
<g id="edge5" class="edge">
<title>Node1&#45;&gt;Node6</title>
<path fill="none" stroke="midnightblue" d="M677.94,-260.53C660.56,-252.91 638.28,-243.57 618,-236.39 608.18,-232.92 597.61,-229.55 587.35,-226.47"/>
<polygon fill="midnightblue" stroke="midnightblue" points="677,-263.94 687.56,-264.79 679.83,-257.54 677,-263.94"/>
</g>
<!-- Node7 -->
<g id="node7" class="node">
<title>Node7</title>
<g id="a_node7"><a xlink:href="Metric_8c.html#a46e70c0ae8f36f97321c5c892fc56be5" target="_top" xlink:title="Computes the physical location of cell centers and the spacing between them.">
<polygon fill="none" stroke="black" points="444,-157.89 444,-176.89 618,-176.89 618,-157.89 444,-157.89"/>
<text text-anchor="middle" x="531" y="-164.89" font-family="Helvetica,sans-Serif" font-size="10.00">ComputeCellCentersAndSpacing</text>
</a>
</g>
</g>
<!-- Node1&#45;&gt;Node7 -->
<g id="edge7" class="edge">
<title>Node1&#45;&gt;Node7</title>
<path fill="none" stroke="midnightblue" d="M695.29,-256.58C679.3,-236.35 650.43,-203.88 618,-186.39 610.73,-182.47 602.7,-179.36 594.56,-176.89"/>
<polygon fill="midnightblue" stroke="midnightblue" points="692.65,-258.88 701.52,-264.67 698.19,-254.61 692.65,-258.88"/>
</g>
<!-- Node8 -->
<g id="node8" class="node">
<title>Node8</title>
<g id="a_node8"><a xlink:href="Metric_8c.html#a6f0dfb324211e230a387501f93cfd316" target="_top" xlink:title="Computes the primary face metric components (Csi, Eta, Zet), including boundary extrapolation,...">
<polygon fill="none" stroke="black" points="471.5,-119.89 471.5,-138.89 590.5,-138.89 590.5,-119.89 471.5,-119.89"/>
<text text-anchor="middle" x="531" y="-126.89" font-family="Helvetica,sans-Serif" font-size="10.00">ComputeFaceMetrics</text>
</a>
</g>
</g>
<!-- Node1&#45;&gt;Node8 -->
<g id="edge9" class="edge">
<title>Node1&#45;&gt;Node8</title>
<path fill="none" stroke="midnightblue" d="M700.38,-255.51C687.31,-227.49 658.86,-175.32 618,-148.39 609.83,-143.01 600.37,-139.13 590.77,-136.34"/>
<polygon fill="midnightblue" stroke="midnightblue" points="697.2,-256.97 704.49,-264.65 703.58,-254.1 697.2,-256.97"/>
</g>
<!-- Node9 -->
<g id="node9" class="node">
<title>Node9</title>
<g id="a_node9"><a xlink:href="Metric_8c.html#af935307ea3e9727a63b6ef9a3932caa8" target="_top" xlink:title="Computes metrics centered on constant&#45;i faces (i&#45;faces).">
<polygon fill="none" stroke="black" points="470,-359.89 470,-378.89 592,-378.89 592,-359.89 470,-359.89"/>
<text text-anchor="middle" x="531" y="-366.89" font-family="Helvetica,sans-Serif" font-size="10.00">ComputeIFaceMetrics</text>
</a>
</g>
</g>
<!-- Node1&#45;&gt;Node9 -->
<g id="edge11" class="edge">
<title>Node1&#45;&gt;Node9</title>
<path fill="none" stroke="midnightblue" d="M693.23,-291.33C676.49,-308.83 648,-335.6 618,-350.39 609.91,-354.38 600.98,-357.54 592.03,-360.04"/>
<polygon fill="midnightblue" stroke="midnightblue" points="695.79,-293.72 700.06,-284.02 690.68,-288.94 695.79,-293.72"/>
</g>
<!-- Node10 -->
<g id="node10" class="node">
<title>Node10</title>
<g id="a_node10"><a xlink:href="Metric_8c.html#a4ecbe44ffb23d82193f9278ab61c1b47" target="_top" xlink:title="Computes metrics centered on constant&#45;j faces (j&#45;faces).">
<polygon fill="none" stroke="black" points="470,-321.89 470,-340.89 592,-340.89 592,-321.89 470,-321.89"/>
<text text-anchor="middle" x="531" y="-328.89" font-family="Helvetica,sans-Serif" font-size="10.00">ComputeJFaceMetrics</text>
</a>
</g>
</g>
<!-- Node1&#45;&gt;Node10 -->
<g id="edge13" class="edge">
<title>Node1&#45;&gt;Node10</title>
<path fill="none" stroke="midnightblue" d="M679.63,-288.09C662.1,-296 639.1,-305.69 618,-312.39 606.63,-316 594.21,-319.18 582.43,-321.84"/>
<polygon fill="midnightblue" stroke="midnightblue" points="681.13,-291.25 688.76,-283.9 678.21,-284.89 681.13,-291.25"/>
</g>
<!-- Node11 -->
<g id="node11" class="node">
<title>Node11</title>
<g id="a_node11"><a xlink:href="Metric_8c.html#a95e22e5238b2cd02b992366766730687" target="_top" xlink:title="Computes metrics centered on constant&#45;k faces (k&#45;faces).">
<polygon fill="none" stroke="black" points="468,-283.89 468,-302.89 594,-302.89 594,-283.89 468,-283.89"/>
<text text-anchor="middle" x="531" y="-290.89" font-family="Helvetica,sans-Serif" font-size="10.00">ComputeKFaceMetrics</text>
</a>
</g>
</g>
<!-- Node1&#45;&gt;Node11 -->
<g id="edge15" class="edge">
<title>Node1&#45;&gt;Node11</title>
<path fill="none" stroke="midnightblue" d="M643.27,-281.41C627.24,-283.14 610.12,-284.98 594.24,-286.69"/>
<polygon fill="midnightblue" stroke="midnightblue" points="644.05,-284.85 653.62,-280.3 643.3,-277.89 644.05,-284.85"/>
</g>
<!-- Node12 -->
<g id="node12" class="node">
<title>Node12</title>
<g id="a_node12"><a xlink:href="postprocessing__kernels_8c.html#ad5b0c0f1721b13944b83a57f2471cd02" target="_top" xlink:title="Computes node&#45;centered data by averaging 8 surrounding cell&#45;centered values, exactly replicating the ...">
<polygon fill="none" stroke="black" points="466.5,-435.89 466.5,-454.89 595.5,-454.89 595.5,-435.89 466.5,-435.89"/>
<text text-anchor="middle" x="531" y="-442.89" font-family="Helvetica,sans-Serif" font-size="10.00">ComputeNodalAverage</text>
</a>
</g>
</g>
<!-- Node1&#45;&gt;Node12 -->
<g id="edge17" class="edge">
<title>Node1&#45;&gt;Node12</title>
<path fill="none" stroke="midnightblue" d="M702.6,-293.83C691.61,-326.62 664.75,-392.62 618,-426.39 611.31,-431.23 603.61,-434.87 595.63,-437.6"/>
<polygon fill="midnightblue" stroke="midnightblue" points="706.01,-294.67 705.73,-284.08 699.34,-292.53 706.01,-294.67"/>
</g>
<!-- Node15 -->
<g id="node15" class="node">
<title>Node15</title>
<g id="a_node15"><a xlink:href="postprocessing__kernels_8c.html#a303c5afb89d6fdaab3e40f9371d8f1b2" target="_top" xlink:title="Computes the Q&#45;Criterion, a scalar value identifying vortex cores.">
<polygon fill="none" stroke="black" points="476,-397.89 476,-416.89 586,-416.89 586,-397.89 476,-397.89"/>
<text text-anchor="middle" x="531" y="-404.89" font-family="Helvetica,sans-Serif" font-size="10.00">ComputeQCriterion</text>
</a>
</g>
</g>
<!-- Node1&#45;&gt;Node15 -->
<g id="edge20" class="edge">
<title>Node1&#45;&gt;Node15</title>
<path fill="none" stroke="midnightblue" d="M698.91,-293.29C684.82,-319.04 656.02,-364.63 618,-388.39 608.41,-394.39 597.17,-398.51 586.05,-401.33"/>
<polygon fill="midnightblue" stroke="midnightblue" points="702.14,-294.67 703.73,-284.19 695.95,-291.39 702.14,-294.67"/>
</g>
<!-- Node16 -->
<g id="node16" class="node">
<title>Node16</title>
<g id="a_node16"><a xlink:href="initialcondition_8c.html#af6a26611066aa455efddcca2fd80fe35" target="_top" xlink:title="(HELPER) Finalizes a block&#39;s state by applying BCs, converting to Cartesian, and synchronizing ghost ...">
<polygon fill="none" stroke="black" points="478,-81.89 478,-100.89 584,-100.89 584,-81.89 478,-81.89"/>
<text text-anchor="middle" x="531" y="-88.89" font-family="Helvetica,sans-Serif" font-size="10.00">FinalizeBlockState</text>
</a>
</g>
</g>
<!-- Node1&#45;&gt;Node16 -->
<g id="edge22" class="edge">
<title>Node1&#45;&gt;Node16</title>
<path fill="none" stroke="midnightblue" d="M703.49,-254.91C693.47,-220.11 667.59,-147.47 618,-110.39 608.2,-103.07 596.13,-98.47 584.16,-95.6"/>
<polygon fill="midnightblue" stroke="midnightblue" points="700.17,-256.06 706.19,-264.78 706.92,-254.21 700.17,-256.06"/>
</g>
<!-- Node17 -->
<g id="node17" class="node">
<title>Node17</title>
<g id="a_node17"><a xlink:href="initialcondition_8c.html#a51d0251f84a962a611ff0c0a8797a3e4" target="_top" xlink:title="(HELPER) Sets the t=0 fluid state for all blocks.">
<polygon fill="none" stroke="black" points="267.5,-68.39 267.5,-98.39 377.5,-98.39 377.5,-68.39 267.5,-68.39"/>
<text text-anchor="start" x="275.5" y="-86.39" font-family="Helvetica,sans-Serif" font-size="10.00">SetInitialFluidState</text>
<text text-anchor="middle" x="322.5" y="-75.39" font-family="Helvetica,sans-Serif" font-size="10.00">_FreshStart</text>
</a>
</g>
</g>
<!-- Node1&#45;&gt;Node17 -->
<g id="edge29" class="edge">
<title>Node1&#45;&gt;Node17</title>
<path fill="none" stroke="midnightblue" d="M706.49,-254.26C701.05,-211.83 681.82,-113.73 618,-72.39 540.06,-21.91 424.6,-48.54 364,-68.31"/>
<polygon fill="midnightblue" stroke="midnightblue" points="703.04,-254.91 707.66,-264.44 710,-254.11 703.04,-254.91"/>
</g>
<!-- Node19 -->
<g id="node19" class="node">
<title>Node19</title>
<g id="a_node19"><a xlink:href="solvers_8c.html#a2ed4825273a593f371a3d48071708255" target="_top" xlink:title="Orchestrates a single time step of the Eulerian fluid solver.">
<polygon fill="none" stroke="black" points="284.5,-473.89 284.5,-492.89 360.5,-492.89 360.5,-473.89 284.5,-473.89"/>
<text text-anchor="middle" x="322.5" y="-480.89" font-family="Helvetica,sans-Serif" font-size="10.00">Flow_Solver</text>
</a>
</g>
</g>
<!-- Node1&#45;&gt;Node19 -->
<g id="edge26" class="edge">
<title>Node1&#45;&gt;Node19</title>
<path fill="none" stroke="midnightblue" d="M707.61,-294.17C704.36,-340.17 689.13,-454.1 618,-502.39 531.95,-560.82 397.19,-514.64 345.08,-493.01"/>
<polygon fill="midnightblue" stroke="midnightblue" points="711.12,-294.21 708.21,-284.02 704.13,-293.8 711.12,-294.21"/>
</g>
<!-- Node21 -->
<g id="node21" class="node">
<title>Node21</title>
<g id="a_node21"><a xlink:href="initialcondition_8c.html#a095ad9c41ee9300bcfa152c411835a91" target="_top" xlink:title="(HELPER) Reads fluid state for all blocks from restart files.">
<polygon fill="none" stroke="black" points="253.5,-13.89 253.5,-32.89 391.5,-32.89 391.5,-13.89 253.5,-13.89"/>
<text text-anchor="middle" x="322.5" y="-20.89" font-family="Helvetica,sans-Serif" font-size="10.00">SetInitialFluidState_Load</text>
</a>
</g>
</g>
<!-- Node1&#45;&gt;Node21 -->
<g id="edge30" class="edge">
<title>Node1&#45;&gt;Node21</title>
<path fill="none" stroke="midnightblue" d="M707.67,-254.61C704.53,-208.02 689.55,-91.42 618,-39.39 540.77,16.77 419.76,-0.41 359.75,-13.87"/>
<polygon fill="midnightblue" stroke="midnightblue" points="704.19,-255.07 708.24,-264.87 711.18,-254.69 704.19,-255.07"/>
</g>
<!-- Node22 -->
<g id="node22" class="node">
<title>Node22</title>
<g id="a_node22"><a xlink:href="poisson_8c.html#a7cf2cfc0383ba0076f827f7d3856f2ed" target="_top" xlink:title="Updates the pressure field and handles periodic boundary conditions.">
<polygon fill="none" stroke="black" points="484,-473.89 484,-492.89 578,-492.89 578,-473.89 484,-473.89"/>
<text text-anchor="middle" x="531" y="-480.89" font-family="Helvetica,sans-Serif" font-size="10.00">UpdatePressure</text>
</a>
</g>
</g>
<!-- Node1&#45;&gt;Node22 -->
<g id="edge32" class="edge">
<title>Node1&#45;&gt;Node22</title>
<path fill="none" stroke="midnightblue" d="M705,-294.2C697.03,-333.22 673.7,-420.1 618,-464.39 606.75,-473.34 592.17,-478.28 578.22,-480.94"/>
<polygon fill="midnightblue" stroke="midnightblue" points="708.49,-294.61 706.93,-284.13 701.61,-293.29 708.49,-294.61"/>
</g>
<!-- Node3 -->
<g id="node3" class="node">
<title>Node3</title>
<g id="a_node3"><a xlink:href="Metric_8c.html#a063043da47b68702c78c7e0769325b36" target="_top" xlink:title="Orchestrates the calculation of all grid metrics.">
<polygon fill="none" stroke="black" points="257,-245.89 257,-264.89 388,-264.89 388,-245.89 257,-245.89"/>
<text text-anchor="middle" x="322.5" y="-252.89" font-family="Helvetica,sans-Serif" font-size="10.00">CalculateAllGridMetrics</text>
</a>
</g>
</g>
<!-- Node2&#45;&gt;Node3 -->
<g id="edge2" class="edge">
<title>Node2&#45;&gt;Node3</title>
<path fill="none" stroke="midnightblue" d="M443.74,-255.39C425.13,-255.39 405.77,-255.39 388.15,-255.39"/>
<polygon fill="midnightblue" stroke="midnightblue" points="443.99,-258.89 453.99,-255.39 443.99,-251.89 443.99,-258.89"/>
</g>
<!-- Node4 -->
<g id="node4" class="node">
<title>Node4</title>
<g id="a_node4"><a xlink:href="setup_8c.html#a2be2815aeb79afe9b95caf39c7b3312c" target="_top" xlink:title="The main orchestrator for setting up all grid&#45;related components.">
<polygon fill="none" stroke="black" points="79.5,-245.89 79.5,-264.89 198.5,-264.89 198.5,-245.89 79.5,-245.89"/>
<text text-anchor="middle" x="139" y="-252.89" font-family="Helvetica,sans-Serif" font-size="10.00">SetupGridAndSolvers</text>
</a>
</g>
</g>
<!-- Node3&#45;&gt;Node4 -->
<g id="edge3" class="edge">
<title>Node3&#45;&gt;Node4</title>
<path fill="none" stroke="midnightblue" d="M246.59,-255.39C230.56,-255.39 213.85,-255.39 198.55,-255.39"/>
<polygon fill="midnightblue" stroke="midnightblue" points="247,-258.89 257,-255.39 247,-251.89 247,-258.89"/>
</g>
<!-- Node5 -->
<g id="node5" class="node">
<title>Node5</title>
<g id="a_node5"><a xlink:href="picsolver_8c.html#a3c04138a5bfe5d72780bb7e82a18e627" target="_top" xlink:title=" ">
<polygon fill="none" stroke="black" points="0,-245.89 0,-264.89 41,-264.89 41,-245.89 0,-245.89"/>
<text text-anchor="middle" x="20.5" y="-252.89" font-family="Helvetica,sans-Serif" font-size="10.00">main</text>
</a>
</g>
</g>
<!-- Node4&#45;&gt;Node5 -->
<g id="edge4" class="edge">
<title>Node4&#45;&gt;Node5</title>
<path fill="none" stroke="midnightblue" d="M69.09,-255.39C58.88,-255.39 49.12,-255.39 41.12,-255.39"/>
<polygon fill="midnightblue" stroke="midnightblue" points="69.41,-258.89 79.41,-255.39 69.41,-251.89 69.41,-258.89"/>
</g>
<!-- Node6&#45;&gt;Node3 -->
<g id="edge6" class="edge">
<title>Node6&#45;&gt;Node3</title>
<path fill="none" stroke="midnightblue" d="M449.45,-228.56C421.81,-234.45 391.89,-240.82 368.14,-245.88"/>
<polygon fill="midnightblue" stroke="midnightblue" points="450.46,-231.92 459.51,-226.41 449,-225.07 450.46,-231.92"/>
</g>
<!-- Node7&#45;&gt;Node3 -->
<g id="edge8" class="edge">
<title>Node7&#45;&gt;Node3</title>
<path fill="none" stroke="midnightblue" d="M465.24,-179.47C457.98,-181.48 450.77,-183.78 444,-186.39 402.62,-202.38 358.48,-231.03 336.92,-245.88"/>
<polygon fill="midnightblue" stroke="midnightblue" points="466.33,-182.8 475.13,-176.91 464.57,-176.03 466.33,-182.8"/>
</g>
<!-- Node8&#45;&gt;Node3 -->
<g id="edge10" class="edge">
<title>Node8&#45;&gt;Node3</title>
<path fill="none" stroke="midnightblue" d="M461.59,-141.11C455.49,-143.16 449.54,-145.57 444,-148.39 394.41,-173.7 349.1,-224.32 331.39,-245.6"/>
<polygon fill="midnightblue" stroke="midnightblue" points="462.69,-144.43 471.24,-138.17 460.65,-137.73 462.69,-144.43"/>
</g>
<!-- Node9&#45;&gt;Node3 -->
<g id="edge12" class="edge">
<title>Node9&#45;&gt;Node3</title>
<path fill="none" stroke="midnightblue" d="M460.45,-356.91C454.78,-355.03 449.22,-352.87 444,-350.39 396.82,-328.03 351.25,-284.22 332.48,-264.92"/>
<polygon fill="midnightblue" stroke="midnightblue" points="459.5,-360.27 470.08,-359.82 461.52,-353.57 459.5,-360.27"/>
</g>
<!-- Node10&#45;&gt;Node3 -->
<g id="edge14" class="edge">
<title>Node10&#45;&gt;Node3</title>
<path fill="none" stroke="midnightblue" d="M467.82,-319.4C459.73,-317.33 451.61,-315 444,-312.39 405.68,-299.28 363.44,-277.46 340.55,-264.96"/>
<polygon fill="midnightblue" stroke="midnightblue" points="467.09,-322.83 477.64,-321.79 468.75,-316.03 467.09,-322.83"/>
</g>
<!-- Node11&#45;&gt;Node3 -->
<g id="edge16" class="edge">
<title>Node11&#45;&gt;Node3</title>
<path fill="none" stroke="midnightblue" d="M467.95,-281.97C438.41,-276.54 403.47,-270.11 375.36,-264.94"/>
<polygon fill="midnightblue" stroke="midnightblue" points="467.69,-285.48 478.16,-283.85 468.96,-278.6 467.69,-285.48"/>
</g>
<!-- Node13 -->
<g id="node13" class="node">
<title>Node13</title>
<g id="a_node13"><a xlink:href="postprocessor_8c.html#a059ce04ba04e66a5f1ef982fdf375e80" target="_top" xlink:title="Parses the processing pipeline string from the config and executes the requested kernels in sequence.">
<polygon fill="none" stroke="black" points="237,-406.89 237,-425.89 408,-425.89 408,-406.89 237,-406.89"/>
<text text-anchor="middle" x="322.5" y="-413.89" font-family="Helvetica,sans-Serif" font-size="10.00">EulerianDataProcessingPipeline</text>
</a>
</g>
</g>
<!-- Node12&#45;&gt;Node13 -->
<g id="edge18" class="edge">
<title>Node12&#45;&gt;Node13</title>
<path fill="none" stroke="midnightblue" d="M456.42,-435.06C435.17,-432.08 412.1,-428.84 391.23,-425.9"/>
<polygon fill="midnightblue" stroke="midnightblue" points="455.97,-438.53 466.36,-436.46 456.94,-431.6 455.97,-438.53"/>
</g>
<!-- Node14 -->
<g id="node14" class="node">
<title>Node14</title>
<g id="a_node14"><a xlink:href="postprocessor_8c.html#a3c04138a5bfe5d72780bb7e82a18e627" target="_top" xlink:title=" ">
<polygon fill="none" stroke="black" points="118.5,-406.89 118.5,-425.89 159.5,-425.89 159.5,-406.89 118.5,-406.89"/>
<text text-anchor="middle" x="139" y="-413.89" font-family="Helvetica,sans-Serif" font-size="10.00">main</text>
</a>
</g>
</g>
<!-- Node13&#45;&gt;Node14 -->
<g id="edge19" class="edge">
<title>Node13&#45;&gt;Node14</title>
<path fill="none" stroke="midnightblue" d="M226.71,-416.39C201.22,-416.39 176.17,-416.39 159.59,-416.39"/>
<polygon fill="midnightblue" stroke="midnightblue" points="226.86,-419.89 236.86,-416.39 226.86,-412.89 226.86,-419.89"/>
</g>
<!-- Node15&#45;&gt;Node13 -->
<g id="edge21" class="edge">
<title>Node15&#45;&gt;Node13</title>
<path fill="none" stroke="midnightblue" d="M465.57,-410.2C447.39,-410.99 427.33,-411.87 408.16,-412.7"/>
<polygon fill="midnightblue" stroke="midnightblue" points="465.91,-413.69 475.74,-409.76 465.6,-406.7 465.91,-413.69"/>
</g>
<!-- Node16&#45;&gt;Node17 -->
<g id="edge23" class="edge">
<title>Node16&#45;&gt;Node17</title>
<path fill="none" stroke="midnightblue" d="M467.59,-88.97C438.95,-87.87 405.32,-86.56 377.76,-85.49"/>
<polygon fill="midnightblue" stroke="midnightblue" points="467.76,-92.48 477.89,-89.37 468.03,-85.49 467.76,-92.48"/>
</g>
<!-- Node18 -->
<g id="node18" class="node">
<title>Node18</title>
<g id="a_node18"><a xlink:href="initialcondition_8c.html#ad0dd7d3f2528b6a7802fcd551e88ea99" target="_top" xlink:title="High&#45;level orchestrator to set the complete initial state of the Eulerian solver.">
<polygon fill="none" stroke="black" points="77,-73.89 77,-92.89 201,-92.89 201,-73.89 77,-73.89"/>
<text text-anchor="middle" x="139" y="-80.89" font-family="Helvetica,sans-Serif" font-size="10.00">InitializeEulerianState</text>
</a>
</g>
</g>
<!-- Node17&#45;&gt;Node18 -->
<g id="edge24" class="edge">
<title>Node17&#45;&gt;Node18</title>
<path fill="none" stroke="midnightblue" d="M256.85,-83.39C238.7,-83.39 219.03,-83.39 201.09,-83.39"/>
<polygon fill="midnightblue" stroke="midnightblue" points="257.04,-86.89 267.04,-83.39 257.04,-79.89 257.04,-86.89"/>
</g>
<!-- Node18&#45;&gt;Node5 -->
<g id="edge25" class="edge">
<title>Node18&#45;&gt;Node5</title>
<path fill="none" stroke="midnightblue" d="M125.56,-101.77C100.93,-138.12 46.76,-218.1 28.02,-245.76"/>
<polygon fill="midnightblue" stroke="midnightblue" points="128.69,-103.38 131.4,-93.13 122.9,-99.45 128.69,-103.38"/>
</g>
<!-- Node20 -->
<g id="node20" class="node">
<title>Node20</title>
<g id="a_node20"><a xlink:href="simulation_8c.html#a5cfb2f783604af7f20171d19f969d5d3" target="_top" xlink:title="Executes the main time&#45;marching loop for the coupled Euler&#45;Lagrange simulation.">
<polygon fill="none" stroke="black" points="83.5,-463.89 83.5,-482.89 194.5,-482.89 194.5,-463.89 83.5,-463.89"/>
<text text-anchor="middle" x="139" y="-470.89" font-family="Helvetica,sans-Serif" font-size="10.00">AdvanceSimulation</text>
</a>
</g>
</g>
<!-- Node19&#45;&gt;Node20 -->
<g id="edge27" class="edge">
<title>Node19&#45;&gt;Node20</title>
<path fill="none" stroke="midnightblue" d="M274.26,-480.79C249.89,-479.45 220.04,-477.8 194.68,-476.41"/>
<polygon fill="midnightblue" stroke="midnightblue" points="274.16,-484.29 284.33,-481.34 274.54,-477.3 274.16,-484.29"/>
</g>
<!-- Node20&#45;&gt;Node5 -->
<g id="edge28" class="edge">
<title>Node20&#45;&gt;Node5</title>
<path fill="none" stroke="midnightblue" d="M105.82,-459.09C95.37,-453.08 84.54,-445.18 77,-435.39 34.89,-380.73 24.49,-293.89 22.14,-265.06"/>
<polygon fill="midnightblue" stroke="midnightblue" points="104.34,-462.27 114.81,-463.88 107.63,-456.09 104.34,-462.27"/>
</g>
<!-- Node21&#45;&gt;Node18 -->
<g id="edge31" class="edge">
<title>Node21&#45;&gt;Node18</title>
<path fill="none" stroke="midnightblue" d="M283.1,-36.09C248.98,-47.37 199.83,-63.61 168.92,-73.83"/>
<polygon fill="midnightblue" stroke="midnightblue" points="284.34,-39.36 292.74,-32.9 282.15,-32.72 284.34,-39.36"/>
</g>
<!-- Node22&#45;&gt;Node19 -->
<g id="edge33" class="edge">
<title>Node22&#45;&gt;Node19</title>
<path fill="none" stroke="midnightblue" d="M473.56,-483.39C437.56,-483.39 391.94,-483.39 360.5,-483.39"/>
<polygon fill="midnightblue" stroke="midnightblue" points="473.91,-486.89 483.91,-483.39 473.91,-479.89 473.91,-486.89"/>
</g>
</g>
</svg>
