<?xml version="1.0" encoding="UTF-8" standalone="no"?>
<!DOCTYPE svg PUBLIC "-//W3C//DTD SVG 1.1//EN"
 "http://www.w3.org/Graphics/SVG/1.1/DTD/svg11.dtd">
<!-- Generated by graphviz version 2.43.0 (0)
 -->
<!-- Title: CreateSimulationContext Pages: 1 -->
<svg width="497pt" height="218pt"
 viewBox="0.00 0.00 497.00 218.00" xmlns="http://www.w3.org/2000/svg" xmlns:xlink="http://www.w3.org/1999/xlink">
<g id="graph0" class="graph" transform="scale(1 1) rotate(0) translate(4 214)">
<title>CreateSimulationContext</title>
<!-- Node1 -->
<g id="node1" class="node">
<title>Node1</title>
<g id="a_node1"><a xlink:title="Allocates and populates the master SimulationContext object.">
<polygon fill="#bfbfbf" stroke="black" points="0,-95.5 0,-114.5 140,-114.5 140,-95.5 0,-95.5"/>
<text text-anchor="middle" x="70" y="-102.5" font-family="Helvetica,sans-Serif" font-size="10.00">CreateSimulationContext</text>
</a>
</g>
</g>
<!-- Node2 -->
<g id="node2" class="node">
<title>Node2</title>
<g id="a_node2"><a xlink:href="logging_8h.html#a6c0ddc8d3a828f3ab26c557ba0aedf75" target="_top" xlink:title="Load function names from a text file.">
<polygon fill="none" stroke="black" points="176,-190.5 176,-209.5 343,-209.5 343,-190.5 176,-190.5"/>
<text text-anchor="middle" x="259.5" y="-197.5" font-family="Helvetica,sans-Serif" font-size="10.00">LoadAllowedFunctionsFromFile</text>
</a>
</g>
</g>
<!-- Node1&#45;&gt;Node2 -->
<g id="edge1" class="edge">
<title>Node1&#45;&gt;Node2</title>
<path fill="none" stroke="midnightblue" d="M81.14,-114.53C98.91,-130.72 137.48,-163.5 176,-181 181.4,-183.45 187.15,-185.61 193,-187.49"/>
<polygon fill="midnightblue" stroke="midnightblue" points="192.32,-190.94 202.9,-190.42 194.31,-184.23 192.32,-190.94"/>
</g>
<!-- Node4 -->
<g id="node4" class="node">
<title>Node4</title>
<g id="a_node4"><a xlink:href="io_8h.html#a048b921bc98a7354369a176193c2bd62" target="_top" xlink:title="Initializes post&#45;processing settings from a config file and command&#45;line overrides.">
<polygon fill="none" stroke="black" points="181,-152.5 181,-171.5 338,-171.5 338,-152.5 181,-152.5"/>
<text text-anchor="middle" x="259.5" y="-159.5" font-family="Helvetica,sans-Serif" font-size="10.00">ParsePostProcessingSettings</text>
</a>
</g>
</g>
<!-- Node1&#45;&gt;Node4 -->
<g id="edge3" class="edge">
<title>Node1&#45;&gt;Node4</title>
<path fill="none" stroke="midnightblue" d="M94.91,-114.59C116.02,-122.83 147.74,-134.66 176,-143 184.5,-145.51 193.58,-147.89 202.48,-150.06"/>
<polygon fill="midnightblue" stroke="midnightblue" points="201.89,-153.52 212.42,-152.42 203.5,-146.71 201.89,-153.52"/>
</g>
<!-- Node6 -->
<g id="node6" class="node">
<title>Node6</title>
<g id="a_node6"><a xlink:href="io_8h.html#a10269cd4ddae9d1a84b84de3e2913158" target="_top" xlink:title="Parses physical scaling parameters from command&#45;line options.">
<polygon fill="none" stroke="black" points="191.5,-114.5 191.5,-133.5 327.5,-133.5 327.5,-114.5 191.5,-114.5"/>
<text text-anchor="middle" x="259.5" y="-121.5" font-family="Helvetica,sans-Serif" font-size="10.00">ParseScalingInformation</text>
</a>
</g>
</g>
<!-- Node1&#45;&gt;Node6 -->
<g id="edge5" class="edge">
<title>Node1&#45;&gt;Node6</title>
<path fill="none" stroke="midnightblue" d="M140.02,-111.99C153.33,-113.34 167.36,-114.76 180.93,-116.14"/>
<polygon fill="midnightblue" stroke="midnightblue" points="180.89,-119.65 191.19,-117.18 181.59,-112.69 180.89,-119.65"/>
</g>
<!-- Node7 -->
<g id="node7" class="node">
<title>Node7</title>
<g id="a_node7"><a xlink:href="logging_8h.html#a4d4a385a6fac09d0e106eeb2dfde18ba" target="_top" xlink:title="Prints the current logging level to the console.">
<polygon fill="none" stroke="black" points="215,-76.5 215,-95.5 304,-95.5 304,-76.5 215,-76.5"/>
<text text-anchor="middle" x="259.5" y="-83.5" font-family="Helvetica,sans-Serif" font-size="10.00">print_log_level</text>
</a>
</g>
</g>
<!-- Node1&#45;&gt;Node7 -->
<g id="edge6" class="edge">
<title>Node1&#45;&gt;Node7</title>
<path fill="none" stroke="midnightblue" d="M140.02,-98.01C161.46,-95.83 184.75,-93.47 204.97,-91.42"/>
<polygon fill="midnightblue" stroke="midnightblue" points="205.34,-94.91 214.93,-90.41 204.63,-87.94 205.34,-94.91"/>
</g>
<!-- Node9 -->
<g id="node9" class="node">
<title>Node9</title>
<g id="a_node9"><a xlink:href="logging_8h.html#ac4f5428199f6cd908056ad3e0ead934f" target="_top" xlink:title="Initializes the custom profiling system using configuration from SimCtx.">
<polygon fill="none" stroke="black" points="210,-38.5 210,-57.5 309,-57.5 309,-38.5 210,-38.5"/>
<text text-anchor="middle" x="259.5" y="-45.5" font-family="Helvetica,sans-Serif" font-size="10.00">ProfilingInitialize</text>
</a>
</g>
</g>
<!-- Node1&#45;&gt;Node9 -->
<g id="edge8" class="edge">
<title>Node1&#45;&gt;Node9</title>
<path fill="none" stroke="midnightblue" d="M94.91,-95.41C116.02,-87.17 147.74,-75.34 176,-67 184.5,-64.49 193.58,-62.11 202.48,-59.94"/>
<polygon fill="midnightblue" stroke="midnightblue" points="203.5,-63.29 212.42,-57.58 201.89,-56.48 203.5,-63.29"/>
</g>
<!-- Node11 -->
<g id="node11" class="node">
<title>Node11</title>
<g id="a_node11"><a xlink:href="logging_8h.html#a0c30361e55f762e47599a9e2a5999d24" target="_top" xlink:title="Sets the global list of function names that are allowed to log.">
<polygon fill="none" stroke="black" points="197,-0.5 197,-19.5 322,-19.5 322,-0.5 197,-0.5"/>
<text text-anchor="middle" x="259.5" y="-7.5" font-family="Helvetica,sans-Serif" font-size="10.00">set_allowed_functions</text>
</a>
</g>
</g>
<!-- Node1&#45;&gt;Node11 -->
<g id="edge10" class="edge">
<title>Node1&#45;&gt;Node11</title>
<path fill="none" stroke="midnightblue" d="M81.14,-95.47C98.91,-79.28 137.48,-46.5 176,-29 181.4,-26.55 187.15,-24.39 193,-22.51"/>
<polygon fill="midnightblue" stroke="midnightblue" points="194.31,-25.77 202.9,-19.58 192.32,-19.06 194.31,-25.77"/>
</g>
<!-- Node3 -->
<g id="node3" class="node">
<title>Node3</title>
<g id="a_node3"><a xlink:href="logging_8c.html#a6b21b3f128c91055d8784740fcf05519" target="_top" xlink:title=" ">
<polygon fill="none" stroke="black" points="415.5,-190.5 415.5,-209.5 452.5,-209.5 452.5,-190.5 415.5,-190.5"/>
<text text-anchor="middle" x="434" y="-197.5" font-family="Helvetica,sans-Serif" font-size="10.00">trim</text>
</a>
</g>
</g>
<!-- Node2&#45;&gt;Node3 -->
<g id="edge2" class="edge">
<title>Node2&#45;&gt;Node3</title>
<path fill="none" stroke="midnightblue" d="M343.21,-200C365.49,-200 388.07,-200 405.02,-200"/>
<polygon fill="midnightblue" stroke="midnightblue" points="405.28,-203.5 415.28,-200 405.28,-196.5 405.28,-203.5"/>
</g>
<!-- Node5 -->
<g id="node5" class="node">
<title>Node5</title>
<g id="a_node5"><a xlink:href="io_8c.html#a61850e757fea41eb461a930936c34401" target="_top" xlink:title="Trims leading and trailing whitespace from a string in&#45;place.">
<polygon fill="none" stroke="black" points="386.5,-152.5 386.5,-171.5 481.5,-171.5 481.5,-152.5 386.5,-152.5"/>
<text text-anchor="middle" x="434" y="-159.5" font-family="Helvetica,sans-Serif" font-size="10.00">TrimWhitespace</text>
</a>
</g>
</g>
<!-- Node4&#45;&gt;Node5 -->
<g id="edge4" class="edge">
<title>Node4&#45;&gt;Node5</title>
<path fill="none" stroke="midnightblue" d="M338.17,-162C351.03,-162 364.14,-162 376.35,-162"/>
<polygon fill="midnightblue" stroke="midnightblue" points="376.37,-165.5 386.37,-162 376.37,-158.5 376.37,-165.5"/>
</g>
<!-- Node8 -->
<g id="node8" class="node">
<title>Node8</title>
<g id="a_node8"><a xlink:href="logging_8c.html#a9585f583c260f40a73f2490914edc689" target="_top" xlink:title="Retrieves the current logging level from the environment variable LOG_LEVEL.">
<polygon fill="none" stroke="black" points="393,-76.5 393,-95.5 475,-95.5 475,-76.5 393,-76.5"/>
<text text-anchor="middle" x="434" y="-83.5" font-family="Helvetica,sans-Serif" font-size="10.00">get_log_level</text>
</a>
</g>
</g>
<!-- Node7&#45;&gt;Node8 -->
<g id="edge7" class="edge">
<title>Node7&#45;&gt;Node8</title>
<path fill="none" stroke="midnightblue" d="M304.03,-86C327.98,-86 357.8,-86 382.74,-86"/>
<polygon fill="midnightblue" stroke="midnightblue" points="382.74,-89.5 392.74,-86 382.74,-82.5 382.74,-89.5"/>
</g>
<!-- Node10 -->
<g id="node10" class="node">
<title>Node10</title>
<g id="a_node10"><a xlink:href="logging_8c.html#a8fbe318914200aec241a83c62863537a" target="_top" xlink:title=" ">
<polygon fill="none" stroke="black" points="379,-38.5 379,-57.5 489,-57.5 489,-38.5 379,-38.5"/>
<text text-anchor="middle" x="434" y="-45.5" font-family="Helvetica,sans-Serif" font-size="10.00">_FindOrCreateEntry</text>
</a>
</g>
</g>
<!-- Node9&#45;&gt;Node10 -->
<g id="edge9" class="edge">
<title>Node9&#45;&gt;Node10</title>
<path fill="none" stroke="midnightblue" d="M309.01,-48C327.51,-48 348.89,-48 368.64,-48"/>
<polygon fill="midnightblue" stroke="midnightblue" points="368.79,-51.5 378.79,-48 368.79,-44.5 368.79,-51.5"/>
</g>
</g>
</svg>
