<?xml version="1.0" encoding="UTF-8" standalone="no"?>
<!DOCTYPE svg PUBLIC "-//W3C//DTD SVG 1.1//EN"
 "http://www.w3.org/Graphics/SVG/1.1/DTD/svg11.dtd">
<!-- Generated by graphviz version 2.43.0 (0)
 -->
<!-- Title: Contra2Cart Pages: 1 -->
<svg width="785pt" height="182pt"
 viewBox="0.00 0.00 785.00 182.00" xmlns="http://www.w3.org/2000/svg" xmlns:xlink="http://www.w3.org/1999/xlink">
<g id="graph0" class="graph" transform="scale(1 1) rotate(0) translate(4 178)">
<title>Contra2Cart</title>
<!-- Node1 -->
<g id="node1" class="node">
<title>Node1</title>
<g id="a_node1"><a xlink:title="Reconstructs Cartesian velocity (Ucat) at cell centers from contravariant velocity (Ucont) defined on...">
<polygon fill="#bfbfbf" stroke="black" points="702,-78.5 702,-97.5 777,-97.5 777,-78.5 702,-78.5"/>
<text text-anchor="middle" x="739.5" y="-85.5" font-family="Helvetica,sans-Serif" font-size="10.00">Contra2Cart</text>
</a>
</g>
</g>
<!-- Node2 -->
<g id="node2" class="node">
<title>Node2</title>
<g id="a_node2"><a xlink:href="rhs_8c.html#af191235c93d0d91fa83f8e3b0e9274d8" target="_top" xlink:title="Computes the Right&#45;Hand&#45;Side (RHS) of the momentum equations.">
<polygon fill="none" stroke="black" points="585,-97.5 585,-116.5 666,-116.5 666,-97.5 585,-97.5"/>
<text text-anchor="middle" x="625.5" y="-104.5" font-family="Helvetica,sans-Serif" font-size="10.00">ComputeRHS</text>
</a>
</g>
</g>
<!-- Node1&#45;&gt;Node2 -->
<g id="edge1" class="edge">
<title>Node1&#45;&gt;Node2</title>
<path fill="none" stroke="midnightblue" d="M691.73,-95.93C683.29,-97.37 674.57,-98.85 666.35,-100.24"/>
<polygon fill="midnightblue" stroke="midnightblue" points="692.55,-99.34 701.83,-94.22 691.38,-92.44 692.55,-99.34"/>
</g>
<!-- Node8 -->
<g id="node8" class="node">
<title>Node8</title>
<g id="a_node8"><a xlink:href="initialcondition_8c.html#af6a26611066aa455efddcca2fd80fe35" target="_top" xlink:title="(HELPER) Finalizes a block&#39;s state by applying BCs, converting to Cartesian, and synchronizing ghost ...">
<polygon fill="none" stroke="black" points="413,-0.5 413,-19.5 519,-19.5 519,-0.5 413,-0.5"/>
<text text-anchor="middle" x="466" y="-7.5" font-family="Helvetica,sans-Serif" font-size="10.00">FinalizeBlockState</text>
</a>
</g>
</g>
<!-- Node1&#45;&gt;Node8 -->
<g id="edge8" class="edge">
<title>Node1&#45;&gt;Node8</title>
<path fill="none" stroke="midnightblue" d="M714.44,-73.17C700.69,-65.27 682.87,-55.98 666,-50 617.67,-32.87 560,-22.29 519.21,-16.35"/>
<polygon fill="midnightblue" stroke="midnightblue" points="712.85,-76.3 723.24,-78.36 716.4,-70.27 712.85,-76.3"/>
</g>
<!-- Node11 -->
<g id="node11" class="node">
<title>Node11</title>
<g id="a_node11"><a xlink:href="Boundaries_8c.html#adcd96cff4b9e15e03cdff9f5ea695dec" target="_top" xlink:title=" ">
<polygon fill="none" stroke="black" points="595,-59.5 595,-78.5 656,-78.5 656,-59.5 595,-59.5"/>
<text text-anchor="middle" x="625.5" y="-66.5" font-family="Helvetica,sans-Serif" font-size="10.00">FormBCS</text>
</a>
</g>
</g>
<!-- Node1&#45;&gt;Node11 -->
<g id="edge12" class="edge">
<title>Node1&#45;&gt;Node11</title>
<path fill="none" stroke="midnightblue" d="M691.87,-80.09C679.79,-78.04 667.11,-75.89 656.16,-74.03"/>
<polygon fill="midnightblue" stroke="midnightblue" points="691.38,-83.56 701.83,-81.78 692.55,-76.66 691.38,-83.56"/>
</g>
<!-- Node13 -->
<g id="node13" class="node">
<title>Node13</title>
<g id="a_node13"><a xlink:href="poisson_8c.html#a34a113dcc9ca606d914c3d021a4d85fc" target="_top" xlink:title="Performs the projection step to enforce an incompressible velocity field.">
<polygon fill="none" stroke="black" points="593,-154.5 593,-173.5 658,-173.5 658,-154.5 593,-154.5"/>
<text text-anchor="middle" x="625.5" y="-161.5" font-family="Helvetica,sans-Serif" font-size="10.00">Projection</text>
</a>
</g>
</g>
<!-- Node1&#45;&gt;Node13 -->
<g id="edge17" class="edge">
<title>Node1&#45;&gt;Node13</title>
<path fill="none" stroke="midnightblue" d="M716.01,-103.26C693.49,-118.54 659.53,-141.59 640.57,-154.45"/>
<polygon fill="midnightblue" stroke="midnightblue" points="718.01,-106.14 724.32,-97.63 714.08,-100.34 718.01,-106.14"/>
</g>
<!-- Node3 -->
<g id="node3" class="node">
<title>Node3</title>
<g id="a_node3"><a xlink:href="implicitsolvers_8c.html#a148a238901a4674420c87137c087e3ac" target="_top" xlink:title="Advances the momentum equations using an iterative explicit Runge&#45;Kutta scheme.">
<polygon fill="none" stroke="black" points="441.5,-88.5 441.5,-107.5 490.5,-107.5 490.5,-88.5 441.5,-88.5"/>
<text text-anchor="middle" x="466" y="-95.5" font-family="Helvetica,sans-Serif" font-size="10.00">ImpRK</text>
</a>
</g>
</g>
<!-- Node2&#45;&gt;Node3 -->
<g id="edge2" class="edge">
<title>Node2&#45;&gt;Node3</title>
<path fill="none" stroke="midnightblue" d="M574.68,-104.15C546.56,-102.55 512.71,-100.61 490.57,-99.35"/>
<polygon fill="midnightblue" stroke="midnightblue" points="574.57,-107.65 584.76,-104.73 574.97,-100.66 574.57,-107.65"/>
</g>
<!-- Node7 -->
<g id="node7" class="node">
<title>Node7</title>
<g id="a_node7"><a xlink:href="implicitsolvers_8c.html#a89ae58d48076ba82dc70438b5e389bf5" target="_top" xlink:title="Advances the momentum equations for ALL blocks by one time step using an explicit 4&#45;stage,...">
<polygon fill="none" stroke="black" points="429.5,-126.5 429.5,-145.5 502.5,-145.5 502.5,-126.5 429.5,-126.5"/>
<text text-anchor="middle" x="466" y="-133.5" font-family="Helvetica,sans-Serif" font-size="10.00">RungeKutta</text>
</a>
</g>
</g>
<!-- Node2&#45;&gt;Node7 -->
<g id="edge6" class="edge">
<title>Node2&#45;&gt;Node7</title>
<path fill="none" stroke="midnightblue" d="M574.67,-116.18C551.29,-120.48 523.97,-125.51 502.7,-129.43"/>
<polygon fill="midnightblue" stroke="midnightblue" points="575.56,-119.57 584.76,-114.32 574.29,-112.69 575.56,-119.57"/>
</g>
<!-- Node4 -->
<g id="node4" class="node">
<title>Node4</title>
<g id="a_node4"><a xlink:href="solvers_8c.html#a2ed4825273a593f371a3d48071708255" target="_top" xlink:title="Orchestrates a single time step of the Eulerian fluid solver.">
<polygon fill="none" stroke="black" points="254,-107.5 254,-126.5 330,-126.5 330,-107.5 254,-107.5"/>
<text text-anchor="middle" x="292" y="-114.5" font-family="Helvetica,sans-Serif" font-size="10.00">Flow_Solver</text>
</a>
</g>
</g>
<!-- Node3&#45;&gt;Node4 -->
<g id="edge3" class="edge">
<title>Node3&#45;&gt;Node4</title>
<path fill="none" stroke="midnightblue" d="M431.35,-101.72C402.23,-104.93 360.2,-109.58 330.12,-112.9"/>
<polygon fill="midnightblue" stroke="midnightblue" points="431.89,-105.18 441.44,-100.6 431.12,-98.22 431.89,-105.18"/>
</g>
<!-- Node5 -->
<g id="node5" class="node">
<title>Node5</title>
<g id="a_node5"><a xlink:href="simulation_8c.html#a5cfb2f783604af7f20171d19f969d5d3" target="_top" xlink:title="Executes the main time&#45;marching loop for the coupled Euler&#45;Lagrange simulation.">
<polygon fill="none" stroke="black" points="83.5,-83.5 83.5,-102.5 194.5,-102.5 194.5,-83.5 83.5,-83.5"/>
<text text-anchor="middle" x="139" y="-90.5" font-family="Helvetica,sans-Serif" font-size="10.00">AdvanceSimulation</text>
</a>
</g>
</g>
<!-- Node4&#45;&gt;Node5 -->
<g id="edge4" class="edge">
<title>Node4&#45;&gt;Node5</title>
<path fill="none" stroke="midnightblue" d="M243.73,-109.49C228.14,-107.01 210.67,-104.23 194.57,-101.67"/>
<polygon fill="midnightblue" stroke="midnightblue" points="243.25,-112.95 253.67,-111.07 244.35,-106.04 243.25,-112.95"/>
</g>
<!-- Node6 -->
<g id="node6" class="node">
<title>Node6</title>
<g id="a_node6"><a xlink:href="picsolver_8c.html#a3c04138a5bfe5d72780bb7e82a18e627" target="_top" xlink:title=" ">
<polygon fill="none" stroke="black" points="0,-63.5 0,-82.5 41,-82.5 41,-63.5 0,-63.5"/>
<text text-anchor="middle" x="20.5" y="-70.5" font-family="Helvetica,sans-Serif" font-size="10.00">main</text>
</a>
</g>
</g>
<!-- Node5&#45;&gt;Node6 -->
<g id="edge5" class="edge">
<title>Node5&#45;&gt;Node6</title>
<path fill="none" stroke="midnightblue" d="M72.97,-81.84C61.43,-79.86 50.25,-77.94 41.27,-76.39"/>
<polygon fill="midnightblue" stroke="midnightblue" points="72.71,-85.34 83.16,-83.59 73.9,-78.44 72.71,-85.34"/>
</g>
<!-- Node7&#45;&gt;Node4 -->
<g id="edge7" class="edge">
<title>Node7&#45;&gt;Node4</title>
<path fill="none" stroke="midnightblue" d="M419.08,-130.93C391.23,-127.85 356.16,-123.98 330.08,-121.1"/>
<polygon fill="midnightblue" stroke="midnightblue" points="419.04,-134.44 429.36,-132.06 419.81,-127.49 419.04,-134.44"/>
</g>
<!-- Node9 -->
<g id="node9" class="node">
<title>Node9</title>
<g id="a_node9"><a xlink:href="initialcondition_8c.html#a51d0251f84a962a611ff0c0a8797a3e4" target="_top" xlink:title="(HELPER) Sets the t=0 fluid state for all blocks.">
<polygon fill="none" stroke="black" points="237,-36 237,-66 347,-66 347,-36 237,-36"/>
<text text-anchor="start" x="245" y="-54" font-family="Helvetica,sans-Serif" font-size="10.00">SetInitialFluidState</text>
<text text-anchor="middle" x="292" y="-43" font-family="Helvetica,sans-Serif" font-size="10.00">_FreshStart</text>
</a>
</g>
</g>
<!-- Node8&#45;&gt;Node9 -->
<g id="edge9" class="edge">
<title>Node8&#45;&gt;Node9</title>
<path fill="none" stroke="midnightblue" d="M413.36,-21.87C403.29,-24.21 392.81,-26.66 383,-29 371.42,-31.76 359.02,-34.76 347.23,-37.63"/>
<polygon fill="midnightblue" stroke="midnightblue" points="414.31,-25.24 423.26,-19.57 412.73,-18.42 414.31,-25.24"/>
</g>
<!-- Node10 -->
<g id="node10" class="node">
<title>Node10</title>
<g id="a_node10"><a xlink:href="initialcondition_8c.html#ad0dd7d3f2528b6a7802fcd551e88ea99" target="_top" xlink:title="High&#45;level orchestrator to set the complete initial state of the Eulerian solver.">
<polygon fill="none" stroke="black" points="77,-44.5 77,-63.5 201,-63.5 201,-44.5 77,-44.5"/>
<text text-anchor="middle" x="139" y="-51.5" font-family="Helvetica,sans-Serif" font-size="10.00">InitializeEulerianState</text>
</a>
</g>
</g>
<!-- Node9&#45;&gt;Node10 -->
<g id="edge10" class="edge">
<title>Node9&#45;&gt;Node10</title>
<path fill="none" stroke="midnightblue" d="M226.7,-52.28C218.23,-52.45 209.57,-52.62 201.15,-52.79"/>
<polygon fill="midnightblue" stroke="midnightblue" points="226.98,-55.77 236.91,-52.07 226.84,-48.77 226.98,-55.77"/>
</g>
<!-- Node10&#45;&gt;Node6 -->
<g id="edge11" class="edge">
<title>Node10&#45;&gt;Node6</title>
<path fill="none" stroke="midnightblue" d="M69.41,-65.19C59.08,-66.87 49.2,-68.48 41.12,-69.8"/>
<polygon fill="midnightblue" stroke="midnightblue" points="70.1,-68.62 79.41,-63.56 68.98,-61.71 70.1,-68.62"/>
</g>
<!-- Node11&#45;&gt;Node3 -->
<g id="edge15" class="edge">
<title>Node11&#45;&gt;Node3</title>
<path fill="none" stroke="midnightblue" d="M584.85,-76.3C555.24,-81.75 515.74,-89.03 490.83,-93.61"/>
<polygon fill="midnightblue" stroke="midnightblue" points="585.67,-79.71 594.88,-74.45 584.41,-72.82 585.67,-79.71"/>
</g>
<!-- Node11&#45;&gt;Node7 -->
<g id="edge16" class="edge">
<title>Node11&#45;&gt;Node7</title>
<path fill="none" stroke="midnightblue" d="M593.23,-83.2C590.4,-84.74 587.62,-86.35 585,-88 567.63,-98.97 567.47,-108.01 549,-117 534.68,-123.97 517.69,-128.45 502.89,-131.29"/>
<polygon fill="midnightblue" stroke="midnightblue" points="594.97,-86.25 602.29,-78.58 591.79,-80.01 594.97,-86.25"/>
</g>
<!-- Node11&#45;&gt;Node8 -->
<g id="edge14" class="edge">
<title>Node11&#45;&gt;Node8</title>
<path fill="none" stroke="midnightblue" d="M600.36,-54.14C585.89,-45.77 566.9,-35.68 549,-29 539.01,-25.27 528.04,-22.12 517.48,-19.52"/>
<polygon fill="midnightblue" stroke="midnightblue" points="598.76,-57.26 609.15,-59.34 602.32,-51.23 598.76,-57.26"/>
</g>
<!-- Node12 -->
<g id="node12" class="node">
<title>Node12</title>
<g id="a_node12"><a xlink:href="Boundaries_8c.html#a47c050460ff0da893f9510ee9a459bfa" target="_top" xlink:title="Acts as a temporary bridge to the legacy boundary condition implementation.">
<polygon fill="none" stroke="black" points="383,-39 383,-69 549,-69 549,-39 383,-39"/>
<text text-anchor="start" x="391" y="-57" font-family="Helvetica,sans-Serif" font-size="10.00">BoundarySystem_ExecuteStep</text>
<text text-anchor="middle" x="466" y="-46" font-family="Helvetica,sans-Serif" font-size="10.00">_Legacy</text>
</a>
</g>
</g>
<!-- Node11&#45;&gt;Node12 -->
<g id="edge13" class="edge">
<title>Node11&#45;&gt;Node12</title>
<path fill="none" stroke="midnightblue" d="M584.8,-65.22C573.81,-64.17 561.46,-63 549,-61.81"/>
<polygon fill="midnightblue" stroke="midnightblue" points="584.59,-68.71 594.88,-66.18 585.25,-61.75 584.59,-68.71"/>
</g>
<!-- Node13&#45;&gt;Node4 -->
<g id="edge18" class="edge">
<title>Node13&#45;&gt;Node4</title>
<path fill="none" stroke="midnightblue" d="M582.64,-166.97C534.01,-169.38 451.69,-170.24 383,-155 356.51,-149.12 327.97,-135.75 310.3,-126.54"/>
<polygon fill="midnightblue" stroke="midnightblue" points="582.98,-170.45 592.78,-166.42 582.6,-163.46 582.98,-170.45"/>
</g>
</g>
</svg>
