<?xml version="1.0" encoding="UTF-8" standalone="no"?>
<!DOCTYPE svg PUBLIC "-//W3C//DTD SVG 1.1//EN"
 "http://www.w3.org/Graphics/SVG/1.1/DTD/svg11.dtd">
<!-- Generated by graphviz version 2.43.0 (0)
 -->
<!-- Title: SetupDomainCellDecompositionMap Pages: 1 -->
<svg width="517pt" height="28pt"
 viewBox="0.00 0.00 517.00 28.00" xmlns="http://www.w3.org/2000/svg" xmlns:xlink="http://www.w3.org/1999/xlink">
<g id="graph0" class="graph" transform="scale(1 1) rotate(0) translate(4 24)">
<title>SetupDomainCellDecompositionMap</title>
<!-- Node1 -->
<g id="node1" class="node">
<title>Node1</title>
<g id="a_node1"><a xlink:title="Creates and distributes a map of the domain&#39;s cell decomposition to all ranks.">
<polygon fill="#bfbfbf" stroke="black" points="0,-0.5 0,-19.5 196,-19.5 196,-0.5 0,-0.5"/>
<text text-anchor="middle" x="98" y="-7.5" font-family="Helvetica,sans-Serif" font-size="10.00">SetupDomainCellDecompositionMap</text>
</a>
</g>
</g>
<!-- Node2 -->
<g id="node2" class="node">
<title>Node2</title>
<g id="a_node2"><a xlink:href="setup_8c.html#a25ce912d8aafa319a8c915cd350c7322" target="_top" xlink:title="Gets the global cell range for a rank, including boundary cells.">
<polygon fill="none" stroke="black" points="232,-0.5 232,-19.5 356,-19.5 356,-0.5 232,-0.5"/>
<text text-anchor="middle" x="294" y="-7.5" font-family="Helvetica,sans-Serif" font-size="10.00">GetGhostedCellRange</text>
</a>
</g>
</g>
<!-- Node1&#45;&gt;Node2 -->
<g id="edge1" class="edge">
<title>Node1&#45;&gt;Node2</title>
<path fill="none" stroke="midnightblue" d="M196.28,-10C204.89,-10 213.49,-10 221.81,-10"/>
<polygon fill="midnightblue" stroke="midnightblue" points="221.82,-13.5 231.82,-10 221.82,-6.5 221.82,-13.5"/>
</g>
<!-- Node3 -->
<g id="node3" class="node">
<title>Node3</title>
<g id="a_node3"><a xlink:href="setup_8c.html#a135027905841ed83f1a3ef2279d865cc" target="_top" xlink:title="Gets the global starting index of cells owned by this rank and the number of such cells.">
<polygon fill="none" stroke="black" points="392,-0.5 392,-19.5 509,-19.5 509,-0.5 392,-0.5"/>
<text text-anchor="middle" x="450.5" y="-7.5" font-family="Helvetica,sans-Serif" font-size="10.00">GetOwnedCellRange</text>
</a>
</g>
</g>
<!-- Node2&#45;&gt;Node3 -->
<g id="edge2" class="edge">
<title>Node2&#45;&gt;Node3</title>
<path fill="none" stroke="midnightblue" d="M356.06,-10C364.46,-10 373.12,-10 381.63,-10"/>
<polygon fill="midnightblue" stroke="midnightblue" points="381.9,-13.5 391.9,-10 381.9,-6.5 381.9,-13.5"/>
</g>
</g>
</svg>
