<?xml version="1.0" encoding="UTF-8" standalone="no"?>
<!DOCTYPE svg PUBLIC "-//W3C//DTD SVG 1.1//EN"
 "http://www.w3.org/Graphics/SVG/1.1/DTD/svg11.dtd">
<!-- Generated by graphviz version 2.43.0 (0)
 -->
<!-- Title: SetupDomainRankInfo Pages: 1 -->
<svg width="706pt" height="142pt"
 viewBox="0.00 0.00 706.00 142.00" xmlns="http://www.w3.org/2000/svg" xmlns:xlink="http://www.w3.org/1999/xlink">
<g id="graph0" class="graph" transform="scale(1 1) rotate(0) translate(4 138)">
<title>SetupDomainRankInfo</title>
<!-- Node1 -->
<g id="node1" class="node">
<title>Node1</title>
<g id="a_node1"><a xlink:title="Sets up the full rank communication infrastructure, including neighbor ranks and bounding box exchang...">
<polygon fill="#bfbfbf" stroke="black" points="0,-57.5 0,-76.5 126,-76.5 126,-57.5 0,-57.5"/>
<text text-anchor="middle" x="63" y="-64.5" font-family="Helvetica,sans-Serif" font-size="10.00">SetupDomainRankInfo</text>
</a>
</g>
</g>
<!-- Node2 -->
<g id="node2" class="node">
<title>Node2</title>
<g id="a_node2"><a xlink:href="grid_8h.html#a325b9d5da4b9b2c79d278fb848215632" target="_top" xlink:title="Broadcasts the bounding box information collected on rank 0 to all other ranks.">
<polygon fill="none" stroke="black" points="183.5,-114.5 183.5,-133.5 336.5,-133.5 336.5,-114.5 183.5,-114.5"/>
<text text-anchor="middle" x="260" y="-121.5" font-family="Helvetica,sans-Serif" font-size="10.00">BroadcastAllBoundingBoxes</text>
</a>
</g>
</g>
<!-- Node1&#45;&gt;Node2 -->
<g id="edge1" class="edge">
<title>Node1&#45;&gt;Node2</title>
<path fill="none" stroke="midnightblue" d="M85.42,-76.57C105.02,-85.02 135.01,-97.19 162,-105 171.46,-107.74 181.55,-110.2 191.51,-112.38"/>
<polygon fill="midnightblue" stroke="midnightblue" points="190.9,-115.83 201.41,-114.46 192.34,-108.98 190.9,-115.83"/>
</g>
<!-- Node3 -->
<g id="node3" class="node">
<title>Node3</title>
<g id="a_node3"><a xlink:href="setup_8c.html#a4d7b90ec69412357cf8c38ea8f4e71f6" target="_top" xlink:title="Computes and stores the Cartesian neighbor ranks for the DMDA decomposition.">
<polygon fill="none" stroke="black" points="170.5,-76.5 170.5,-95.5 349.5,-95.5 349.5,-76.5 170.5,-76.5"/>
<text text-anchor="middle" x="260" y="-83.5" font-family="Helvetica,sans-Serif" font-size="10.00">ComputeAndStoreNeighborRanks</text>
</a>
</g>
</g>
<!-- Node1&#45;&gt;Node3 -->
<g id="edge2" class="edge">
<title>Node1&#45;&gt;Node3</title>
<path fill="none" stroke="midnightblue" d="M126.24,-73.06C137.1,-74.12 148.63,-75.25 160.2,-76.37"/>
<polygon fill="midnightblue" stroke="midnightblue" points="160.05,-79.88 170.35,-77.36 160.73,-72.91 160.05,-79.88"/>
</g>
<!-- Node4 -->
<g id="node4" class="node">
<title>Node4</title>
<g id="a_node4"><a xlink:href="grid_8h.html#afac52c252de784d5bcd7fe7a2e642982" target="_top" xlink:title="Gathers local bounding boxes from all MPI processes to rank 0.">
<polygon fill="none" stroke="black" points="191.5,-38.5 191.5,-57.5 328.5,-57.5 328.5,-38.5 191.5,-38.5"/>
<text text-anchor="middle" x="260" y="-45.5" font-family="Helvetica,sans-Serif" font-size="10.00">GatherAllBoundingBoxes</text>
</a>
</g>
</g>
<!-- Node1&#45;&gt;Node4 -->
<g id="edge3" class="edge">
<title>Node1&#45;&gt;Node4</title>
<path fill="none" stroke="midnightblue" d="M126.24,-60.94C143.73,-59.23 162.97,-57.36 181.25,-55.58"/>
<polygon fill="midnightblue" stroke="midnightblue" points="181.67,-59.05 191.28,-54.6 180.99,-52.08 181.67,-59.05"/>
</g>
<!-- Node6 -->
<g id="node6" class="node">
<title>Node6</title>
<g id="a_node6"><a xlink:href="setup_8c.html#aeb77337317f41972d1c75c8d80527892" target="_top" xlink:title="Creates and distributes a map of the domain&#39;s cell decomposition to all ranks.">
<polygon fill="none" stroke="black" points="162,-0.5 162,-19.5 358,-19.5 358,-0.5 162,-0.5"/>
<text text-anchor="middle" x="260" y="-7.5" font-family="Helvetica,sans-Serif" font-size="10.00">SetupDomainCellDecompositionMap</text>
</a>
</g>
</g>
<!-- Node1&#45;&gt;Node6 -->
<g id="edge5" class="edge">
<title>Node1&#45;&gt;Node6</title>
<path fill="none" stroke="midnightblue" d="M85.42,-57.43C105.02,-48.98 135.01,-36.81 162,-29 171.46,-26.26 181.55,-23.8 191.51,-21.62"/>
<polygon fill="midnightblue" stroke="midnightblue" points="192.34,-25.02 201.41,-19.54 190.9,-18.17 192.34,-25.02"/>
</g>
<!-- Node5 -->
<g id="node5" class="node">
<title>Node5</title>
<g id="a_node5"><a xlink:href="grid_8c.html#ae0c39bc7c78a15bedf9f1415ab1dded4" target="_top" xlink:title="Computes the local bounding box of the grid on the current process.">
<polygon fill="none" stroke="black" points="394,-38.5 394,-57.5 545,-57.5 545,-38.5 394,-38.5"/>
<text text-anchor="middle" x="469.5" y="-45.5" font-family="Helvetica,sans-Serif" font-size="10.00">ComputeLocalBoundingBox</text>
</a>
</g>
</g>
<!-- Node4&#45;&gt;Node5 -->
<g id="edge4" class="edge">
<title>Node4&#45;&gt;Node5</title>
<path fill="none" stroke="midnightblue" d="M328.66,-48C346.22,-48 365.36,-48 383.68,-48"/>
<polygon fill="midnightblue" stroke="midnightblue" points="383.76,-51.5 393.76,-48 383.76,-44.5 383.76,-51.5"/>
</g>
<!-- Node7 -->
<g id="node7" class="node">
<title>Node7</title>
<g id="a_node7"><a xlink:href="setup_8c.html#a25ce912d8aafa319a8c915cd350c7322" target="_top" xlink:title="Gets the global cell range for a rank, including boundary cells.">
<polygon fill="none" stroke="black" points="407.5,-0.5 407.5,-19.5 531.5,-19.5 531.5,-0.5 407.5,-0.5"/>
<text text-anchor="middle" x="469.5" y="-7.5" font-family="Helvetica,sans-Serif" font-size="10.00">GetGhostedCellRange</text>
</a>
</g>
</g>
<!-- Node6&#45;&gt;Node7 -->
<g id="edge6" class="edge">
<title>Node6&#45;&gt;Node7</title>
<path fill="none" stroke="midnightblue" d="M358.07,-10C371.17,-10 384.41,-10 396.96,-10"/>
<polygon fill="midnightblue" stroke="midnightblue" points="397.32,-13.5 407.32,-10 397.32,-6.5 397.32,-13.5"/>
</g>
<!-- Node8 -->
<g id="node8" class="node">
<title>Node8</title>
<g id="a_node8"><a xlink:href="setup_8c.html#a135027905841ed83f1a3ef2279d865cc" target="_top" xlink:title="Gets the global starting index of cells owned by this rank and the number of such cells.">
<polygon fill="none" stroke="black" points="581,-0.5 581,-19.5 698,-19.5 698,-0.5 581,-0.5"/>
<text text-anchor="middle" x="639.5" y="-7.5" font-family="Helvetica,sans-Serif" font-size="10.00">GetOwnedCellRange</text>
</a>
</g>
</g>
<!-- Node7&#45;&gt;Node8 -->
<g id="edge7" class="edge">
<title>Node7&#45;&gt;Node8</title>
<path fill="none" stroke="midnightblue" d="M531.63,-10C544.29,-10 557.7,-10 570.58,-10"/>
<polygon fill="midnightblue" stroke="midnightblue" points="570.78,-13.5 580.78,-10 570.78,-6.5 570.78,-13.5"/>
</g>
</g>
</svg>
