<?xml version="1.0" encoding="UTF-8" standalone="no"?>
<!DOCTYPE svg PUBLIC "-//W3C//DTD SVG 1.1//EN"
 "http://www.w3.org/Graphics/SVG/1.1/DTD/svg11.dtd">
<!-- Generated by graphviz version 2.43.0 (0)
 -->
<!-- Title: SetupBoundaryConditions Pages: 1 -->
<svg width="545pt" height="294pt"
 viewBox="0.00 0.00 545.00 294.00" xmlns="http://www.w3.org/2000/svg" xmlns:xlink="http://www.w3.org/1999/xlink">
<g id="graph0" class="graph" transform="scale(1 1) rotate(0) translate(4 290)">
<title>SetupBoundaryConditions</title>
<!-- Node1 -->
<g id="node1" class="node">
<title>Node1</title>
<g id="a_node1"><a xlink:title="(Orchestrator) Sets up all boundary conditions for the simulation.">
<polygon fill="#bfbfbf" stroke="black" points="0,-152.5 0,-171.5 143,-171.5 143,-152.5 0,-152.5"/>
<text text-anchor="middle" x="71.5" y="-159.5" font-family="Helvetica,sans-Serif" font-size="10.00">SetupBoundaryConditions</text>
</a>
</g>
</g>
<!-- Node2 -->
<g id="node2" class="node">
<title>Node2</title>
<g id="a_node2"><a xlink:href="grid_8h.html#a7a6ee72a401708711d1bfd039627b606" target="_top" xlink:title="Calculates the geometric center of the primary inlet face.">
<polygon fill="none" stroke="black" points="202,-190.5 202,-209.5 318,-209.5 318,-190.5 202,-190.5"/>
<text text-anchor="middle" x="260" y="-197.5" font-family="Helvetica,sans-Serif" font-size="10.00">CalculateInletCenter</text>
</a>
</g>
</g>
<!-- Node1&#45;&gt;Node2 -->
<g id="edge1" class="edge">
<title>Node1&#45;&gt;Node2</title>
<path fill="none" stroke="midnightblue" d="M119.56,-171.59C144.73,-176.72 175.9,-183.07 202.38,-188.46"/>
<polygon fill="midnightblue" stroke="midnightblue" points="201.78,-191.91 212.28,-190.48 203.18,-185.05 201.78,-191.91"/>
</g>
<!-- Node3 -->
<g id="node3" class="node">
<title>Node3</title>
<g id="a_node3"><a xlink:href="io_8h.html#a5cc5e40cd538efc87ebd94ebdbb2a8e8" target="_top" xlink:title="Parses the boundary conditions file to configure the type, handler, and any associated parameters for...">
<polygon fill="none" stroke="black" points="182.5,-152.5 182.5,-171.5 337.5,-171.5 337.5,-152.5 182.5,-152.5"/>
<text text-anchor="middle" x="260" y="-159.5" font-family="Helvetica,sans-Serif" font-size="10.00">ParseAllBoundaryConditions</text>
</a>
</g>
</g>
<!-- Node1&#45;&gt;Node3 -->
<g id="edge2" class="edge">
<title>Node1&#45;&gt;Node3</title>
<path fill="none" stroke="midnightblue" d="M143.01,-162C152.58,-162 162.49,-162 172.3,-162"/>
<polygon fill="midnightblue" stroke="midnightblue" points="172.47,-165.5 182.47,-162 172.47,-158.5 172.47,-165.5"/>
</g>
<!-- Node10 -->
<g id="node10" class="node">
<title>Node10</title>
<g id="a_node10"><a xlink:href="Boundaries_8h.html#ae7f472e68b4ebad054e1391e5de8c9a0" target="_top" xlink:title=" ">
<polygon fill="none" stroke="black" points="179,-38.5 179,-57.5 341,-57.5 341,-38.5 179,-38.5"/>
<text text-anchor="middle" x="260" y="-45.5" font-family="Helvetica,sans-Serif" font-size="10.00">TranslateModernBCsToLegacy</text>
</a>
</g>
</g>
<!-- Node1&#45;&gt;Node10 -->
<g id="edge9" class="edge">
<title>Node1&#45;&gt;Node10</title>
<path fill="none" stroke="midnightblue" d="M88.08,-152.48C120.58,-132.61 195.81,-86.63 234.72,-62.84"/>
<polygon fill="midnightblue" stroke="midnightblue" points="236.63,-65.78 243.33,-57.58 232.98,-59.81 236.63,-65.78"/>
</g>
<!-- Node4 -->
<g id="node4" class="node">
<title>Node4</title>
<g id="a_node4"><a xlink:href="logging_8h.html#ab17ab5ac0ff52ba6a344790a496f6111" target="_top" xlink:title="Converts a BCHandlerType enum to its string representation.">
<polygon fill="none" stroke="black" points="392,-266.5 392,-285.5 522,-285.5 522,-266.5 392,-266.5"/>
<text text-anchor="middle" x="457" y="-273.5" font-family="Helvetica,sans-Serif" font-size="10.00">BCHandlerTypeToString</text>
</a>
</g>
</g>
<!-- Node3&#45;&gt;Node4 -->
<g id="edge3" class="edge">
<title>Node3&#45;&gt;Node4</title>
<path fill="none" stroke="midnightblue" d="M325.08,-171.55C330.81,-174.03 336.23,-177.14 341,-181 370.04,-204.52 347.99,-233.43 377,-257 379.06,-258.67 381.24,-260.2 383.52,-261.6"/>
<polygon fill="midnightblue" stroke="midnightblue" points="382.23,-264.87 392.72,-266.37 385.45,-258.66 382.23,-264.87"/>
</g>
<!-- Node5 -->
<g id="node5" class="node">
<title>Node5</title>
<g id="a_node5"><a xlink:href="io_8c.html#acee53553fb7d51eb948f1d4030518860" target="_top" xlink:title="Frees the memory allocated for a linked list of BC_Param structs.">
<polygon fill="none" stroke="black" points="404.5,-228.5 404.5,-247.5 509.5,-247.5 509.5,-228.5 404.5,-228.5"/>
<text text-anchor="middle" x="457" y="-235.5" font-family="Helvetica,sans-Serif" font-size="10.00">FreeBC_ParamList</text>
</a>
</g>
</g>
<!-- Node3&#45;&gt;Node5 -->
<g id="edge4" class="edge">
<title>Node3&#45;&gt;Node5</title>
<path fill="none" stroke="midnightblue" d="M319.35,-171.63C326.9,-174.08 334.32,-177.15 341,-181 361.16,-192.62 356.86,-207.36 377,-219 382.45,-222.15 388.4,-224.78 394.51,-226.98"/>
<polygon fill="midnightblue" stroke="midnightblue" points="393.61,-230.36 404.2,-230.08 395.74,-223.69 393.61,-230.36"/>
</g>
<!-- Node6 -->
<g id="node6" class="node">
<title>Node6</title>
<g id="a_node6"><a xlink:href="io_8c.html#ab6896c293521673fcbff33001706d3ec" target="_top" xlink:title="Converts a string representation of a face to a BCFace enum.">
<polygon fill="none" stroke="black" points="411,-190.5 411,-209.5 503,-209.5 503,-190.5 411,-190.5"/>
<text text-anchor="middle" x="457" y="-197.5" font-family="Helvetica,sans-Serif" font-size="10.00">StringToBCFace</text>
</a>
</g>
</g>
<!-- Node3&#45;&gt;Node6 -->
<g id="edge5" class="edge">
<title>Node3&#45;&gt;Node6</title>
<path fill="none" stroke="midnightblue" d="M309.96,-171.54C337.61,-176.93 372.25,-183.68 400.86,-189.25"/>
<polygon fill="midnightblue" stroke="midnightblue" points="400.22,-192.7 410.7,-191.17 401.56,-185.83 400.22,-192.7"/>
</g>
<!-- Node7 -->
<g id="node7" class="node">
<title>Node7</title>
<g id="a_node7"><a xlink:href="io_8c.html#a15bdb2122be30f52df280e1d7204f578" target="_top" xlink:title="Converts a string representation of a handler to a BCHandlerType enum.">
<polygon fill="none" stroke="black" points="392,-152.5 392,-171.5 522,-171.5 522,-152.5 392,-152.5"/>
<text text-anchor="middle" x="457" y="-159.5" font-family="Helvetica,sans-Serif" font-size="10.00">StringToBCHandlerType</text>
</a>
</g>
</g>
<!-- Node3&#45;&gt;Node7 -->
<g id="edge6" class="edge">
<title>Node3&#45;&gt;Node7</title>
<path fill="none" stroke="midnightblue" d="M337.51,-162C352.02,-162 367.18,-162 381.62,-162"/>
<polygon fill="midnightblue" stroke="midnightblue" points="381.99,-165.5 391.99,-162 381.99,-158.5 381.99,-165.5"/>
</g>
<!-- Node8 -->
<g id="node8" class="node">
<title>Node8</title>
<g id="a_node8"><a xlink:href="io_8c.html#ad5fc2fe7ae3aa77361c5ab62343358a7" target="_top" xlink:title="Converts a string representation of a BC type to a BCType enum.">
<polygon fill="none" stroke="black" points="411,-114.5 411,-133.5 503,-133.5 503,-114.5 411,-114.5"/>
<text text-anchor="middle" x="457" y="-121.5" font-family="Helvetica,sans-Serif" font-size="10.00">StringToBCType</text>
</a>
</g>
</g>
<!-- Node3&#45;&gt;Node8 -->
<g id="edge7" class="edge">
<title>Node3&#45;&gt;Node8</title>
<path fill="none" stroke="midnightblue" d="M309.96,-152.46C337.61,-147.07 372.25,-140.32 400.86,-134.75"/>
<polygon fill="midnightblue" stroke="midnightblue" points="401.56,-138.17 410.7,-132.83 400.22,-131.3 401.56,-138.17"/>
</g>
<!-- Node9 -->
<g id="node9" class="node">
<title>Node9</title>
<g id="a_node9"><a xlink:href="io_8c.html#a5fe767286174b757deb2d404f2b4843f" target="_top" xlink:title="Validates that a specific handler is compatible with a general BC type.">
<polygon fill="none" stroke="black" points="377,-76.5 377,-95.5 537,-95.5 537,-76.5 377,-76.5"/>
<text text-anchor="middle" x="457" y="-83.5" font-family="Helvetica,sans-Serif" font-size="10.00">ValidateBCHandlerForBCType</text>
</a>
</g>
</g>
<!-- Node3&#45;&gt;Node9 -->
<g id="edge8" class="edge">
<title>Node3&#45;&gt;Node9</title>
<path fill="none" stroke="midnightblue" d="M277.4,-152.5C299.42,-140.07 340.06,-118.33 377,-105 384.01,-102.47 391.49,-100.17 398.96,-98.12"/>
<polygon fill="midnightblue" stroke="midnightblue" points="399.92,-101.49 408.71,-95.57 398.15,-94.72 399.92,-101.49"/>
</g>
<!-- Node11 -->
<g id="node11" class="node">
<title>Node11</title>
<g id="a_node11"><a xlink:href="logging_8h.html#a9b417fe56a110c0f6a3e64860e3e5cdb" target="_top" xlink:title="Helper function to convert BCFace enum to a string representation.">
<polygon fill="none" stroke="black" points="411,-38.5 411,-57.5 503,-57.5 503,-38.5 411,-38.5"/>
<text text-anchor="middle" x="457" y="-45.5" font-family="Helvetica,sans-Serif" font-size="10.00">BCFaceToString</text>
</a>
</g>
</g>
<!-- Node10&#45;&gt;Node11 -->
<g id="edge10" class="edge">
<title>Node10&#45;&gt;Node11</title>
<path fill="none" stroke="midnightblue" d="M341.16,-48C361.19,-48 382.23,-48 400.75,-48"/>
<polygon fill="midnightblue" stroke="midnightblue" points="400.75,-51.5 410.75,-48 400.75,-44.5 400.75,-51.5"/>
</g>
<!-- Node12 -->
<g id="node12" class="node">
<title>Node12</title>
<g id="a_node12"><a xlink:href="logging_8h.html#a804d193057ea6054b3911ae508808821" target="_top" xlink:title="Helper function to convert BCType enum to a string representation.">
<polygon fill="none" stroke="black" points="411,-0.5 411,-19.5 503,-19.5 503,-0.5 411,-0.5"/>
<text text-anchor="middle" x="457" y="-7.5" font-family="Helvetica,sans-Serif" font-size="10.00">BCTypeToString</text>
</a>
</g>
</g>
<!-- Node10&#45;&gt;Node12 -->
<g id="edge11" class="edge">
<title>Node10&#45;&gt;Node12</title>
<path fill="none" stroke="midnightblue" d="M309.96,-38.46C337.61,-33.07 372.25,-26.32 400.86,-20.75"/>
<polygon fill="midnightblue" stroke="midnightblue" points="401.56,-24.17 410.7,-18.83 400.22,-17.3 401.56,-24.17"/>
</g>
</g>
</svg>
