<?xml version="1.0" encoding="UTF-8" standalone="no"?>
<!DOCTYPE svg PUBLIC "-//W3C//DTD SVG 1.1//EN"
 "http://www.w3.org/Graphics/SVG/1.1/DTD/svg11.dtd">
<!-- Generated by graphviz version 2.43.0 (0)
 -->
<!-- Title: GetGhostedCellRange Pages: 1 -->
<svg width="749pt" height="75pt"
 viewBox="0.00 0.00 749.00 74.50" xmlns="http://www.w3.org/2000/svg" xmlns:xlink="http://www.w3.org/1999/xlink">
<g id="graph0" class="graph" transform="scale(1 1) rotate(0) translate(4 70.5)">
<title>GetGhostedCellRange</title>
<!-- Node1 -->
<g id="node1" class="node">
<title>Node1</title>
<g id="a_node1"><a xlink:title="Gets the global cell range for a rank, including boundary cells.">
<polygon fill="#bfbfbf" stroke="black" points="617,-19.5 617,-38.5 741,-38.5 741,-19.5 617,-19.5"/>
<text text-anchor="middle" x="679" y="-26.5" font-family="Helvetica,sans-Serif" font-size="10.00">GetGhostedCellRange</text>
</a>
</g>
</g>
<!-- Node2 -->
<g id="node2" class="node">
<title>Node2</title>
<g id="a_node2"><a xlink:href="initialcondition_8c.html#a62dfa993750dc34d1729c575bb1dde66" target="_top" xlink:title="Sets the initial values for the INTERIOR of a specified Eulerian field.">
<polygon fill="none" stroke="black" points="424,-39.5 424,-58.5 542,-58.5 542,-39.5 424,-39.5"/>
<text text-anchor="middle" x="483" y="-46.5" font-family="Helvetica,sans-Serif" font-size="10.00">SetInitialInteriorField</text>
</a>
</g>
</g>
<!-- Node1&#45;&gt;Node2 -->
<g id="edge1" class="edge">
<title>Node1&#45;&gt;Node2</title>
<path fill="none" stroke="midnightblue" d="M606.92,-36.33C585.62,-38.52 562.52,-40.9 542.16,-43"/>
<polygon fill="midnightblue" stroke="midnightblue" points="607.3,-39.81 616.88,-35.3 606.58,-32.84 607.3,-39.81"/>
</g>
<!-- Node6 -->
<g id="node6" class="node">
<title>Node6</title>
<g id="a_node6"><a xlink:href="setup_8c.html#aeb77337317f41972d1c75c8d80527892" target="_top" xlink:title="Creates and distributes a map of the domain&#39;s cell decomposition to all ranks.">
<polygon fill="none" stroke="black" points="385,-0.5 385,-19.5 581,-19.5 581,-0.5 385,-0.5"/>
<text text-anchor="middle" x="483" y="-7.5" font-family="Helvetica,sans-Serif" font-size="10.00">SetupDomainCellDecompositionMap</text>
</a>
</g>
</g>
<!-- Node1&#45;&gt;Node6 -->
<g id="edge5" class="edge">
<title>Node1&#45;&gt;Node6</title>
<path fill="none" stroke="midnightblue" d="M606.79,-22.03C598.38,-21.2 589.7,-20.35 581.01,-19.5"/>
<polygon fill="midnightblue" stroke="midnightblue" points="606.59,-25.52 616.88,-23.01 607.27,-18.56 606.59,-25.52"/>
</g>
<!-- Node3 -->
<g id="node3" class="node">
<title>Node3</title>
<g id="a_node3"><a xlink:href="initialcondition_8c.html#a51d0251f84a962a611ff0c0a8797a3e4" target="_top" xlink:title="(HELPER) Sets the t=0 fluid state for all blocks.">
<polygon fill="none" stroke="black" points="239,-36 239,-66 349,-66 349,-36 239,-36"/>
<text text-anchor="start" x="247" y="-54" font-family="Helvetica,sans-Serif" font-size="10.00">SetInitialFluidState</text>
<text text-anchor="middle" x="294" y="-43" font-family="Helvetica,sans-Serif" font-size="10.00">_FreshStart</text>
</a>
</g>
</g>
<!-- Node2&#45;&gt;Node3 -->
<g id="edge2" class="edge">
<title>Node2&#45;&gt;Node3</title>
<path fill="none" stroke="midnightblue" d="M413.62,-49.73C392.43,-49.96 369.38,-50.2 349.28,-50.42"/>
<polygon fill="midnightblue" stroke="midnightblue" points="413.9,-53.23 423.86,-49.62 413.82,-46.23 413.9,-53.23"/>
</g>
<!-- Node4 -->
<g id="node4" class="node">
<title>Node4</title>
<g id="a_node4"><a xlink:href="initialcondition_8c.html#ad0dd7d3f2528b6a7802fcd551e88ea99" target="_top" xlink:title="High&#45;level orchestrator to set the complete initial state of the Eulerian solver.">
<polygon fill="none" stroke="black" points="78,-39.5 78,-58.5 202,-58.5 202,-39.5 78,-39.5"/>
<text text-anchor="middle" x="140" y="-46.5" font-family="Helvetica,sans-Serif" font-size="10.00">InitializeEulerianState</text>
</a>
</g>
</g>
<!-- Node3&#45;&gt;Node4 -->
<g id="edge3" class="edge">
<title>Node3&#45;&gt;Node4</title>
<path fill="none" stroke="midnightblue" d="M228.74,-50.15C219.91,-50.04 210.86,-49.92 202.09,-49.8"/>
<polygon fill="midnightblue" stroke="midnightblue" points="228.94,-53.66 238.98,-50.29 229.03,-46.66 228.94,-53.66"/>
</g>
<!-- Node5 -->
<g id="node5" class="node">
<title>Node5</title>
<g id="a_node5"><a xlink:href="picsolver_8c.html#a3c04138a5bfe5d72780bb7e82a18e627" target="_top" xlink:title=" ">
<polygon fill="none" stroke="black" points="0,-19.5 0,-38.5 41,-38.5 41,-19.5 0,-19.5"/>
<text text-anchor="middle" x="20.5" y="-26.5" font-family="Helvetica,sans-Serif" font-size="10.00">main</text>
</a>
</g>
</g>
<!-- Node4&#45;&gt;Node5 -->
<g id="edge4" class="edge">
<title>Node4&#45;&gt;Node5</title>
<path fill="none" stroke="midnightblue" d="M72.81,-37.73C61.27,-35.77 50.12,-33.87 41.18,-32.35"/>
<polygon fill="midnightblue" stroke="midnightblue" points="72.56,-41.24 83,-39.47 73.73,-34.34 72.56,-41.24"/>
</g>
<!-- Node7 -->
<g id="node7" class="node">
<title>Node7</title>
<g id="a_node7"><a xlink:href="setup_8c.html#a1c08bf327e1aee897c56610a89f75814" target="_top" xlink:title="Sets up the full rank communication infrastructure for all blocks.">
<polygon fill="none" stroke="black" points="77,-0.5 77,-19.5 203,-19.5 203,-0.5 77,-0.5"/>
<text text-anchor="middle" x="140" y="-7.5" font-family="Helvetica,sans-Serif" font-size="10.00">SetupDomainRankInfo</text>
</a>
</g>
</g>
<!-- Node6&#45;&gt;Node7 -->
<g id="edge6" class="edge">
<title>Node6&#45;&gt;Node7</title>
<path fill="none" stroke="midnightblue" d="M374.69,-10C318.23,-10 250.99,-10 203.17,-10"/>
<polygon fill="midnightblue" stroke="midnightblue" points="374.74,-13.5 384.74,-10 374.74,-6.5 374.74,-13.5"/>
</g>
<!-- Node7&#45;&gt;Node5 -->
<g id="edge7" class="edge">
<title>Node7&#45;&gt;Node5</title>
<path fill="none" stroke="midnightblue" d="M69.74,-21.2C59.24,-22.9 49.2,-24.52 41.03,-25.84"/>
<polygon fill="midnightblue" stroke="midnightblue" points="70.59,-24.61 79.91,-19.56 69.48,-17.7 70.59,-24.61"/>
</g>
</g>
</svg>
