<?xml version="1.0" encoding="UTF-8" standalone="no"?>
<!DOCTYPE svg PUBLIC "-//W3C//DTD SVG 1.1//EN"
 "http://www.w3.org/Graphics/SVG/1.1/DTD/svg11.dtd">
<!-- Generated by graphviz version 2.43.0 (0)
 -->
<!-- Title: UpdateSolverHistoryVectors Pages: 1 -->
<!--zoomable 154 -->
<svg id="main" version="1.1" xmlns="http://www.w3.org/2000/svg" xmlns:xlink="http://www.w3.org/1999/xlink" xml:space="preserve" onload="init(evt)">
<style type="text/css"><![CDATA[
.edge:hover path { stroke: red; }
.edge:hover polygon { stroke: red; fill: red; }
]]></style>
<script type="text/javascript"><![CDATA[
var edges = document.getElementsByTagName('g');
if (edges && edges.length) {
  for (var i=0;i<edges.length;i++) {
    if (edges[i].id.substr(0,4)=='edge') {
      edges[i].setAttribute('class','edge');
    }
  }
}
]]></script>
        <defs>
                <circle id="rim" cx="0" cy="0" r="7"/>
                <circle id="rim2" cx="0" cy="0" r="3.5"/>
                <g id="zoomPlus">
                        <use xlink:href="#rim" fill="#404040">
                                <set attributeName="fill" to="#808080" begin="zoomplus.mouseover" end="zoomplus.mouseout"/>
                        </use>
                        <path d="M-4,0h8M0,-4v8" fill="none" stroke="white" stroke-width="1.5" pointer-events="none"/>
                </g>
                <g id="zoomMin">
                        <use xlink:href="#rim" fill="#404040">
                                <set attributeName="fill" to="#808080" begin="zoomminus.mouseover" end="zoomminus.mouseout"/>
                        </use>
                        <path d="M-4,0h8" fill="none" stroke="white" stroke-width="1.5" pointer-events="none"/>
                </g>
                <g id="dirArrow">
                        <path fill="none" stroke="white" stroke-width="1.5" d="M0,-3.0v7 M-2.5,-0.5L0,-3.0L2.5,-0.5"/>
                </g>
               <g id="resetDef">
                       <use xlink:href="#rim2" fill="#404040">
                               <set attributeName="fill" to="#808080" begin="reset.mouseover" end="reset.mouseout"/>
                       </use>
               </g>
        </defs>

<script type="text/javascript">
var viewWidth = 591;
var viewHeight = 154;
var sectionId = 'dynsection-1';
</script>
<script xlink:href="svgpan.js"/>
<svg id="graph" class="graph">
<g id="viewport">
<title>UpdateSolverHistoryVectors</title>
<!-- Node1 -->
<g id="node1" class="node">
<title>Node1</title>
<g id="a_node1"><a xlink:title="Copies the current time step&#39;s solution fields into history vectors (e.g., U(t_n) &#45;&gt; U_o,...">
<polygon fill="#bfbfbf" stroke="black" points="428,-66.5 428,-85.5 583,-85.5 583,-66.5 428,-66.5"/>
<text text-anchor="middle" x="505.5" y="-73.5" font-family="Helvetica,sans-Serif" font-size="10.00">UpdateSolverHistoryVectors</text>
</a>
</g>
</g>
<!-- Node2 -->
<g id="node2" class="node">
<title>Node2</title>
<g id="a_node2"><a xlink:href="simulation_8c.html#a5cfb2f783604af7f20171d19f969d5d3" target="_top" xlink:title="Executes the main time&#45;marching loop for the coupled Euler&#45;Lagrange simulation.">
<polygon fill="none" stroke="black" points="83.5,-126.5 83.5,-145.5 194.5,-145.5 194.5,-126.5 83.5,-126.5"/>
<text text-anchor="middle" x="139" y="-133.5" font-family="Helvetica,sans-Serif" font-size="10.00">AdvanceSimulation</text>
</a>
</g>
</g>
<!-- Node1&#45;&gt;Node2 -->
<g id="edge1" class="edge">
<title>Node1&#45;&gt;Node2</title>
<path fill="none" stroke="midnightblue" d="M455.4,-87.81C435.76,-92.3 412.88,-97.24 392,-101 324.41,-113.18 245.95,-123.48 194.77,-129.69"/>
<polygon fill="midnightblue" stroke="midnightblue" points="456.39,-91.18 465.35,-85.51 454.82,-84.36 456.39,-91.18"/>
</g>
<!-- Node4 -->
<g id="node4" class="node">
<title>Node4</title>
<g id="a_node4"><a xlink:href="initialcondition_8c.html#ad0dd7d3f2528b6a7802fcd551e88ea99" target="_top" xlink:title="High&#45;level orchestrator to set the complete initial state of the Eulerian solver.">
<polygon fill="none" stroke="black" points="77,-88.5 77,-107.5 201,-107.5 201,-88.5 77,-88.5"/>
<text text-anchor="middle" x="139" y="-95.5" font-family="Helvetica,sans-Serif" font-size="10.00">InitializeEulerianState</text>
</a>
</g>
</g>
<!-- Node1&#45;&gt;Node4 -->
<g id="edge3" class="edge">
<title>Node1&#45;&gt;Node4</title>
<path fill="none" stroke="midnightblue" d="M417.56,-81.25C350.81,-85.28 260.32,-90.74 201.07,-94.31"/>
<polygon fill="midnightblue" stroke="midnightblue" points="417.87,-84.73 427.64,-80.64 417.45,-77.75 417.87,-84.73"/>
</g>
<!-- Node5 -->
<g id="node5" class="node">
<title>Node5</title>
<g id="a_node5"><a xlink:href="simulation_8c.html#aa5b3c3a0cd447931b47a01267c36acdd" target="_top" xlink:title="Finalizes the simulation setup at t=0, ensuring a consistent state before time marching.">
<polygon fill="none" stroke="black" points="244.5,-39 244.5,-69 384.5,-69 384.5,-39 244.5,-39"/>
<text text-anchor="start" x="252.5" y="-57" font-family="Helvetica,sans-Serif" font-size="10.00">PerformInitializedParticle</text>
<text text-anchor="middle" x="314.5" y="-46" font-family="Helvetica,sans-Serif" font-size="10.00">Setup</text>
</a>
</g>
</g>
<!-- Node1&#45;&gt;Node5 -->
<g id="edge5" class="edge">
<title>Node1&#45;&gt;Node5</title>
<path fill="none" stroke="midnightblue" d="M417.75,-65.9C406.64,-64.61 395.38,-63.3 384.6,-62.04"/>
<polygon fill="midnightblue" stroke="midnightblue" points="417.56,-69.4 427.9,-67.08 418.37,-62.45 417.56,-69.4"/>
</g>
<!-- Node7 -->
<g id="node7" class="node">
<title>Node7</title>
<g id="a_node7"><a xlink:href="simulation_8c.html#ad8038ca2fcc4f0534e04d144c4ffbbef" target="_top" xlink:title="Finalizes the simulation state after particle and fluid data have been loaded from a restart.">
<polygon fill="none" stroke="black" points="237,-0.5 237,-19.5 392,-19.5 392,-0.5 237,-0.5"/>
<text text-anchor="middle" x="314.5" y="-7.5" font-family="Helvetica,sans-Serif" font-size="10.00">PerformLoadedParticleSetup</text>
</a>
</g>
</g>
<!-- Node1&#45;&gt;Node7 -->
<g id="edge9" class="edge">
<title>Node1&#45;&gt;Node7</title>
<path fill="none" stroke="midnightblue" d="M474.82,-62.14C452.41,-52.03 420.71,-38.5 392,-29 381.35,-25.47 369.67,-22.26 358.72,-19.51"/>
<polygon fill="midnightblue" stroke="midnightblue" points="473.57,-65.42 484.12,-66.38 476.47,-59.05 473.57,-65.42"/>
</g>
<!-- Node3 -->
<g id="node3" class="node">
<title>Node3</title>
<g id="a_node3"><a xlink:href="picsolver_8c.html#a3c04138a5bfe5d72780bb7e82a18e627" target="_top" xlink:title=" ">
<polygon fill="none" stroke="black" points="0,-69.5 0,-88.5 41,-88.5 41,-69.5 0,-69.5"/>
<text text-anchor="middle" x="20.5" y="-76.5" font-family="Helvetica,sans-Serif" font-size="10.00">main</text>
</a>
</g>
</g>
<!-- Node2&#45;&gt;Node3 -->
<g id="edge2" class="edge">
<title>Node2&#45;&gt;Node3</title>
<path fill="none" stroke="midnightblue" d="M91.57,-123.15C86.57,-121.29 81.62,-119.24 77,-117 60.82,-109.16 44.02,-97 33.2,-88.56"/>
<polygon fill="midnightblue" stroke="midnightblue" points="90.59,-126.51 101.19,-126.48 92.89,-119.9 90.59,-126.51"/>
</g>
<!-- Node4&#45;&gt;Node3 -->
<g id="edge4" class="edge">
<title>Node4&#45;&gt;Node3</title>
<path fill="none" stroke="midnightblue" d="M69.41,-86.81C59.08,-85.13 49.2,-83.52 41.12,-82.2"/>
<polygon fill="midnightblue" stroke="midnightblue" points="68.98,-90.29 79.41,-88.44 70.1,-83.38 68.98,-90.29"/>
</g>
<!-- Node5&#45;&gt;Node3 -->
<g id="edge8" class="edge">
<title>Node5&#45;&gt;Node3</title>
<path fill="none" stroke="midnightblue" d="M233.99,-60.81C168.43,-66.42 80.14,-73.98 41.27,-77.31"/>
<polygon fill="midnightblue" stroke="midnightblue" points="234.64,-64.27 244.3,-59.92 234.04,-57.29 234.64,-64.27"/>
</g>
<!-- Node6 -->
<g id="node6" class="node">
<title>Node6</title>
<g id="a_node6"><a xlink:href="simulation_8c.html#a7bc2bae7b01f179706b367c8637534c2" target="_top" xlink:title="Performs post&#45;load/post&#45;init consistency checks for a restarted simulation.">
<polygon fill="none" stroke="black" points="82,-12.5 82,-31.5 196,-31.5 196,-12.5 82,-12.5"/>
<text text-anchor="middle" x="139" y="-19.5" font-family="Helvetica,sans-Serif" font-size="10.00">FinalizeRestartState</text>
</a>
</g>
</g>
<!-- Node5&#45;&gt;Node6 -->
<g id="edge6" class="edge">
<title>Node5&#45;&gt;Node6</title>
<path fill="none" stroke="midnightblue" d="M234.46,-39.42C219.95,-36.75 205.16,-34.02 191.72,-31.54"/>
<polygon fill="midnightblue" stroke="midnightblue" points="233.96,-42.89 244.43,-41.26 235.23,-36 233.96,-42.89"/>
</g>
<!-- Node6&#45;&gt;Node3 -->
<g id="edge7" class="edge">
<title>Node6&#45;&gt;Node3</title>
<path fill="none" stroke="midnightblue" d="M101.52,-35.24C93.34,-38.51 84.79,-42.18 77,-46 62.71,-53 47.19,-62.39 36.21,-69.36"/>
<polygon fill="midnightblue" stroke="midnightblue" points="102.82,-38.49 110.87,-31.6 100.28,-31.97 102.82,-38.49"/>
</g>
<!-- Node7&#45;&gt;Node6 -->
<g id="edge10" class="edge">
<title>Node7&#45;&gt;Node6</title>
<path fill="none" stroke="midnightblue" d="M226.9,-15.99C216.44,-16.71 205.99,-17.44 196.14,-18.12"/>
<polygon fill="midnightblue" stroke="midnightblue" points="227.16,-19.48 236.9,-15.3 226.68,-12.5 227.16,-19.48"/>
</g>
</g>
</svg>
        <g id="navigator" transform="translate(0 0)" fill="#404254">
                <rect fill="#f2f5e9" fill-opacity="0.5" stroke="#606060" stroke-width=".5" x="0" y="0" width="60" height="60"/>
                <use id="zoomplus" xlink:href="#zoomPlus" x="17" y="9" onmousedown="handleZoom(evt,'in')"/>
                <use id="zoomminus" xlink:href="#zoomMin" x="42" y="9" onmousedown="handleZoom(evt,'out')"/>
                <use id="reset" xlink:href="#resetDef" x="30" y="36" onmousedown="handleReset()"/>
                <g id="arrowUp" xlink:href="#dirArrow" transform="translate(30 24)" onmousedown="handlePan(0,-1)">
                  <use xlink:href="#rim" fill="#404040">
                        <set attributeName="fill" to="#808080" begin="arrowUp.mouseover" end="arrowUp.mouseout"/>
                  </use>
                  <path fill="none" stroke="white" stroke-width="1.5" d="M0,-3.0v7 M-2.5,-0.5L0,-3.0L2.5,-0.5"/>
                </g>
                <g id="arrowRight" xlink:href="#dirArrow" transform="rotate(90) translate(36 -43)" onmousedown="handlePan(1,0)">
                  <use xlink:href="#rim" fill="#404040">
                        <set attributeName="fill" to="#808080" begin="arrowRight.mouseover" end="arrowRight.mouseout"/>
                  </use>
                  <path fill="none" stroke="white" stroke-width="1.5" d="M0,-3.0v7 M-2.5,-0.5L0,-3.0L2.5,-0.5"/>
                </g>
                <g id="arrowDown" xlink:href="#dirArrow" transform="rotate(180) translate(-30 -48)" onmousedown="handlePan(0,1)">
                  <use xlink:href="#rim" fill="#404040">
                        <set attributeName="fill" to="#808080" begin="arrowDown.mouseover" end="arrowDown.mouseout"/>
                  </use>
                  <path fill="none" stroke="white" stroke-width="1.5" d="M0,-3.0v7 M-2.5,-0.5L0,-3.0L2.5,-0.5"/>
                </g>
                <g id="arrowLeft" xlink:href="#dirArrow" transform="rotate(270) translate(-36 17)" onmousedown="handlePan(-1,0)">
                  <use xlink:href="#rim" fill="#404040">
                        <set attributeName="fill" to="#808080" begin="arrowLeft.mouseover" end="arrowLeft.mouseout"/>
                  </use>
                  <path fill="none" stroke="white" stroke-width="1.5" d="M0,-3.0v7 M-2.5,-0.5L0,-3.0L2.5,-0.5"/>
                </g>
        </g>
        <svg viewBox="0 0 15 15" width="100%" height="30px" preserveAspectRatio="xMaxYMin meet">
         <g id="arrow_out" transform="scale(0.3 0.3)">
          <a xlink:href="simulation_8c_a78d6ef98da860e3271d6b7277a54e642_icgraph_org.svg" target="_base">
           <rect id="button" ry="5" rx="5" y="6" x="6" height="38" width="38"
                fill="#f2f5e9" fill-opacity="0.5" stroke="#606060" stroke-width="1.0"/>
           <path id="arrow"
             d="M 11.500037,31.436501 C 11.940474,20.09759 22.043105,11.32322 32.158766,21.979434 L 37.068811,17.246167 C 37.068811,17.246167 37.088388,32 37.088388,32 L 22.160133,31.978069 C 22.160133,31.978069 26.997745,27.140456 26.997745,27.140456 C 18.528582,18.264221 13.291696,25.230495 11.500037,31.436501 z"
             style="fill:#404040;"/>
          </a>
         </g>
        </svg>
</svg>
