<?xml version="1.0" encoding="UTF-8" standalone="no"?>
<!DOCTYPE svg PUBLIC "-//W3C//DTD SVG 1.1//EN"
 "http://www.w3.org/Graphics/SVG/1.1/DTD/svg11.dtd">
<!-- Generated by graphviz version 2.43.0 (0)
 -->
<!-- Title: solvers.c Pages: 1 -->
<svg width="3046pt" height="980pt"
 viewBox="0.00 0.00 3046.00 980.00" xmlns="http://www.w3.org/2000/svg" xmlns:xlink="http://www.w3.org/1999/xlink">
<g id="graph0" class="graph" transform="scale(1 1) rotate(0) translate(4 976)">
<title>solvers.c</title>
<!-- Node1 -->
<g id="node1" class="node">
<title>Node1</title>
<g id="a_node1"><a xlink:title=" ">
<polygon fill="#bfbfbf" stroke="black" points="141,-952.5 141,-971.5 201,-971.5 201,-952.5 141,-952.5"/>
<text text-anchor="middle" x="171" y="-959.5" font-family="Helvetica,sans-Serif" font-size="10.00">solvers.c</text>
</a>
</g>
</g>
<!-- Node2 -->
<g id="node2" class="node">
<title>Node2</title>
<g id="a_node2"><a xlink:href="solvers_8h.html" target="_top" xlink:title=" ">
<polygon fill="none" stroke="black" points="140.5,-896.5 140.5,-915.5 201.5,-915.5 201.5,-896.5 140.5,-896.5"/>
<text text-anchor="middle" x="171" y="-903.5" font-family="Helvetica,sans-Serif" font-size="10.00">solvers.h</text>
</a>
</g>
</g>
<!-- Node1&#45;&gt;Node2 -->
<g id="edge1" class="edge">
<title>Node1&#45;&gt;Node2</title>
<path fill="none" stroke="midnightblue" d="M171,-952.08C171,-945.01 171,-934.86 171,-925.99"/>
<polygon fill="midnightblue" stroke="midnightblue" points="174.5,-925.75 171,-915.75 167.5,-925.75 174.5,-925.75"/>
</g>
<!-- Node3 -->
<g id="node3" class="node">
<title>Node3</title>
<g id="a_node3"><a xlink:href="variables_8h.html" target="_top" xlink:title="Main header file for a complex fluid dynamics solver.">
<polygon fill="none" stroke="black" points="502.5,-56.5 502.5,-75.5 573.5,-75.5 573.5,-56.5 502.5,-56.5"/>
<text text-anchor="middle" x="538" y="-63.5" font-family="Helvetica,sans-Serif" font-size="10.00">variables.h</text>
</a>
</g>
</g>
<!-- Node2&#45;&gt;Node3 -->
<g id="edge2" class="edge">
<title>Node2&#45;&gt;Node3</title>
<path fill="none" stroke="midnightblue" d="M140.25,-902.01C109.61,-897.56 62.79,-886.64 32,-860 7.65,-838.93 0,-827.2 0,-795 0,-795 0,-795 0,-177 0,-140.55 18.08,-129.59 50,-112 125.28,-70.53 385.65,-66.49 492.1,-66.63"/>
<polygon fill="midnightblue" stroke="midnightblue" points="492.2,-70.13 502.21,-66.65 492.22,-63.13 492.2,-70.13"/>
</g>
<!-- Node13 -->
<g id="node13" class="node">
<title>Node13</title>
<g id="a_node13"><a xlink:href="implicitsolvers_8h.html" target="_top" xlink:title=" ">
<polygon fill="none" stroke="black" points="161,-840.5 161,-859.5 259,-859.5 259,-840.5 161,-840.5"/>
<text text-anchor="middle" x="210" y="-847.5" font-family="Helvetica,sans-Serif" font-size="10.00">implicitsolvers.h</text>
</a>
</g>
</g>
<!-- Node2&#45;&gt;Node13 -->
<g id="edge12" class="edge">
<title>Node2&#45;&gt;Node13</title>
<path fill="none" stroke="midnightblue" d="M177.44,-896.08C182.95,-888.46 191.03,-877.26 197.76,-867.94"/>
<polygon fill="midnightblue" stroke="midnightblue" points="200.66,-869.91 203.68,-859.75 194.99,-865.81 200.66,-869.91"/>
</g>
<!-- Node14 -->
<g id="node14" class="node">
<title>Node14</title>
<g id="a_node14"><a xlink:href="logging_8h.html" target="_top" xlink:title="Logging utilities and macros for PETSc&#45;based applications.">
<polygon fill="none" stroke="black" points="919,-728.5 919,-747.5 981,-747.5 981,-728.5 919,-728.5"/>
<text text-anchor="middle" x="950" y="-735.5" font-family="Helvetica,sans-Serif" font-size="10.00">logging.h</text>
</a>
</g>
</g>
<!-- Node2&#45;&gt;Node14 -->
<g id="edge156" class="edge">
<title>Node2&#45;&gt;Node14</title>
<path fill="none" stroke="midnightblue" d="M201.54,-898.49C322.84,-872.64 770.71,-777.21 909.03,-747.73"/>
<polygon fill="midnightblue" stroke="midnightblue" points="909.78,-751.15 918.83,-745.64 908.32,-744.3 909.78,-751.15"/>
</g>
<!-- Node27 -->
<g id="node27" class="node">
<title>Node27</title>
<g id="a_node27"><a xlink:href="setup_8h.html" target="_top" xlink:title=" ">
<polygon fill="none" stroke="black" points="2046.5,-168.5 2046.5,-187.5 2099.5,-187.5 2099.5,-168.5 2046.5,-168.5"/>
<text text-anchor="middle" x="2073" y="-175.5" font-family="Helvetica,sans-Serif" font-size="10.00">setup.h</text>
</a>
</g>
</g>
<!-- Node2&#45;&gt;Node27 -->
<g id="edge160" class="edge">
<title>Node2&#45;&gt;Node27</title>
<path fill="none" stroke="midnightblue" d="M201.87,-904.62C506.42,-900.81 2962,-867.78 2962,-795 2962,-795 2962,-795 2962,-569 2962,-257.15 2654.45,-295.9 2351,-224 2265.59,-203.76 2163.25,-189.78 2109.73,-183.23"/>
<polygon fill="midnightblue" stroke="midnightblue" points="2110.05,-179.74 2099.7,-182.02 2109.21,-186.69 2110.05,-179.74"/>
</g>
<!-- Node38 -->
<g id="node38" class="node">
<title>Node38</title>
<g id="a_node38"><a xlink:href="rhs_8h.html" target="_top" xlink:title=" ">
<polygon fill="none" stroke="black" points="66.5,-784.5 66.5,-803.5 107.5,-803.5 107.5,-784.5 66.5,-784.5"/>
<text text-anchor="middle" x="87" y="-791.5" font-family="Helvetica,sans-Serif" font-size="10.00">rhs.h</text>
</a>
</g>
</g>
<!-- Node2&#45;&gt;Node38 -->
<g id="edge155" class="edge">
<title>Node2&#45;&gt;Node38</title>
<path fill="none" stroke="midnightblue" d="M164.41,-896.37C150.48,-878.14 117.87,-835.43 99.73,-811.68"/>
<polygon fill="midnightblue" stroke="midnightblue" points="102.41,-809.41 93.56,-803.59 96.85,-813.66 102.41,-809.41"/>
</g>
<!-- Node39 -->
<g id="node39" class="node">
<title>Node39</title>
<g id="a_node39"><a xlink:href="poisson_8h.html" target="_top" xlink:title=" ">
<polygon fill="none" stroke="black" points="41.5,-840.5 41.5,-859.5 104.5,-859.5 104.5,-840.5 41.5,-840.5"/>
<text text-anchor="middle" x="73" y="-847.5" font-family="Helvetica,sans-Serif" font-size="10.00">poisson.h</text>
</a>
</g>
</g>
<!-- Node2&#45;&gt;Node39 -->
<g id="edge157" class="edge">
<title>Node2&#45;&gt;Node39</title>
<path fill="none" stroke="midnightblue" d="M155.25,-896.32C139.68,-887.74 115.62,-874.49 97.54,-864.52"/>
<polygon fill="midnightblue" stroke="midnightblue" points="99.15,-861.42 88.71,-859.65 95.78,-867.55 99.15,-861.42"/>
</g>
<!-- Node4 -->
<g id="node4" class="node">
<title>Node4</title>
<g id="a_node4"><a xlink:title=" ">
<polygon fill="none" stroke="#bfbfbf" points="557.5,-0.5 557.5,-19.5 626.5,-19.5 626.5,-0.5 557.5,-0.5"/>
<text text-anchor="middle" x="592" y="-7.5" font-family="Helvetica,sans-Serif" font-size="10.00">petscvec.h</text>
</a>
</g>
</g>
<!-- Node3&#45;&gt;Node4 -->
<g id="edge3" class="edge">
<title>Node3&#45;&gt;Node4</title>
<path fill="none" stroke="midnightblue" d="M546.92,-56.08C554.78,-48.22 566.43,-36.57 575.92,-27.08"/>
<polygon fill="midnightblue" stroke="midnightblue" points="578.65,-29.3 583.25,-19.75 573.7,-24.35 578.65,-29.3"/>
</g>
<!-- Node5 -->
<g id="node5" class="node">
<title>Node5</title>
<g id="a_node5"><a xlink:title=" ">
<polygon fill="none" stroke="#bfbfbf" points="645,-0.5 645,-19.5 725,-19.5 725,-0.5 645,-0.5"/>
<text text-anchor="middle" x="685" y="-7.5" font-family="Helvetica,sans-Serif" font-size="10.00">petscdmda.h</text>
</a>
</g>
</g>
<!-- Node3&#45;&gt;Node5 -->
<g id="edge4" class="edge">
<title>Node3&#45;&gt;Node5</title>
<path fill="none" stroke="midnightblue" d="M561.29,-56.44C585.81,-47.44 624.6,-33.19 652.2,-23.05"/>
<polygon fill="midnightblue" stroke="midnightblue" points="653.64,-26.25 661.82,-19.52 651.22,-19.68 653.64,-26.25"/>
</g>
<!-- Node6 -->
<g id="node6" class="node">
<title>Node6</title>
<g id="a_node6"><a xlink:title=" ">
<polygon fill="none" stroke="#bfbfbf" points="743.5,-0.5 743.5,-19.5 812.5,-19.5 812.5,-0.5 743.5,-0.5"/>
<text text-anchor="middle" x="778" y="-7.5" font-family="Helvetica,sans-Serif" font-size="10.00">petscksp.h</text>
</a>
</g>
</g>
<!-- Node3&#45;&gt;Node6 -->
<g id="edge5" class="edge">
<title>Node3&#45;&gt;Node6</title>
<path fill="none" stroke="midnightblue" d="M573.67,-56.97C616.16,-47.41 687.17,-31.44 733.29,-21.06"/>
<polygon fill="midnightblue" stroke="midnightblue" points="734.32,-24.42 743.3,-18.81 732.78,-17.59 734.32,-24.42"/>
</g>
<!-- Node7 -->
<g id="node7" class="node">
<title>Node7</title>
<g id="a_node7"><a xlink:title=" ">
<polygon fill="none" stroke="#bfbfbf" points="323,-0.5 323,-19.5 397,-19.5 397,-0.5 323,-0.5"/>
<text text-anchor="middle" x="360" y="-7.5" font-family="Helvetica,sans-Serif" font-size="10.00">petscsnes.h</text>
</a>
</g>
</g>
<!-- Node3&#45;&gt;Node7 -->
<g id="edge6" class="edge">
<title>Node3&#45;&gt;Node7</title>
<path fill="none" stroke="midnightblue" d="M509.8,-56.44C479.59,-47.28 431.49,-32.69 397.97,-22.52"/>
<polygon fill="midnightblue" stroke="midnightblue" points="398.66,-19.07 388.07,-19.52 396.63,-25.77 398.66,-19.07"/>
</g>
<!-- Node8 -->
<g id="node8" class="node">
<title>Node8</title>
<g id="a_node8"><a xlink:title=" ">
<polygon fill="none" stroke="#bfbfbf" points="2342.5,-0.5 2342.5,-19.5 2443.5,-19.5 2443.5,-0.5 2342.5,-0.5"/>
<text text-anchor="middle" x="2393" y="-7.5" font-family="Helvetica,sans-Serif" font-size="10.00">petscdmswarm.h</text>
</a>
</g>
</g>
<!-- Node3&#45;&gt;Node8 -->
<g id="edge7" class="edge">
<title>Node3&#45;&gt;Node8</title>
<path fill="none" stroke="midnightblue" d="M573.81,-63.96C801.02,-57.34 2041.75,-21.23 2332.17,-12.77"/>
<polygon fill="midnightblue" stroke="midnightblue" points="2332.6,-16.26 2342.5,-12.47 2332.4,-9.26 2332.6,-16.26"/>
</g>
<!-- Node9 -->
<g id="node9" class="node">
<title>Node9</title>
<g id="a_node9"><a xlink:title=" ">
<polygon fill="none" stroke="#bfbfbf" points="415,-0.5 415,-19.5 465,-19.5 465,-0.5 415,-0.5"/>
<text text-anchor="middle" x="440" y="-7.5" font-family="Helvetica,sans-Serif" font-size="10.00">stdio.h</text>
</a>
</g>
</g>
<!-- Node3&#45;&gt;Node9 -->
<g id="edge8" class="edge">
<title>Node3&#45;&gt;Node9</title>
<path fill="none" stroke="midnightblue" d="M522.25,-56.32C506.68,-47.74 482.62,-34.49 464.54,-24.52"/>
<polygon fill="midnightblue" stroke="midnightblue" points="466.15,-21.42 455.71,-19.65 462.78,-27.55 466.15,-21.42"/>
</g>
<!-- Node10 -->
<g id="node10" class="node">
<title>Node10</title>
<g id="a_node10"><a xlink:title=" ">
<polygon fill="none" stroke="#bfbfbf" points="1707.5,-0.5 1707.5,-19.5 1760.5,-19.5 1760.5,-0.5 1707.5,-0.5"/>
<text text-anchor="middle" x="1734" y="-7.5" font-family="Helvetica,sans-Serif" font-size="10.00">stdlib.h</text>
</a>
</g>
</g>
<!-- Node3&#45;&gt;Node10 -->
<g id="edge9" class="edge">
<title>Node3&#45;&gt;Node10</title>
<path fill="none" stroke="midnightblue" d="M573.67,-61.12C591.22,-59.33 612.7,-57.32 632,-56 1049.52,-27.51 1557.34,-14.87 1696.97,-11.78"/>
<polygon fill="midnightblue" stroke="midnightblue" points="1697.2,-15.27 1707.12,-11.56 1697.05,-8.28 1697.2,-15.27"/>
</g>
<!-- Node11 -->
<g id="node11" class="node">
<title>Node11</title>
<g id="a_node11"><a xlink:title=" ">
<polygon fill="none" stroke="#bfbfbf" points="197.5,-0.5 197.5,-19.5 250.5,-19.5 250.5,-0.5 197.5,-0.5"/>
<text text-anchor="middle" x="224" y="-7.5" font-family="Helvetica,sans-Serif" font-size="10.00">string.h</text>
</a>
</g>
</g>
<!-- Node3&#45;&gt;Node11 -->
<g id="edge10" class="edge">
<title>Node3&#45;&gt;Node11</title>
<path fill="none" stroke="midnightblue" d="M502.29,-58.86C442.11,-48.51 321.17,-27.71 260.48,-17.27"/>
<polygon fill="midnightblue" stroke="midnightblue" points="261.03,-13.82 250.58,-15.57 259.84,-20.72 261.03,-13.82"/>
</g>
<!-- Node12 -->
<g id="node12" class="node">
<title>Node12</title>
<g id="a_node12"><a xlink:title=" ">
<polygon fill="none" stroke="#bfbfbf" points="483,-0.5 483,-19.5 539,-19.5 539,-0.5 483,-0.5"/>
<text text-anchor="middle" x="511" y="-7.5" font-family="Helvetica,sans-Serif" font-size="10.00">unistd.h</text>
</a>
</g>
</g>
<!-- Node3&#45;&gt;Node12 -->
<g id="edge11" class="edge">
<title>Node3&#45;&gt;Node12</title>
<path fill="none" stroke="midnightblue" d="M533.54,-56.08C529.85,-48.69 524.48,-37.95 519.91,-28.81"/>
<polygon fill="midnightblue" stroke="midnightblue" points="522.98,-27.13 515.38,-19.75 516.72,-30.26 522.98,-27.13"/>
</g>
<!-- Node13&#45;&gt;Node3 -->
<g id="edge13" class="edge">
<title>Node13&#45;&gt;Node3</title>
<path fill="none" stroke="midnightblue" d="M203.1,-840.29C181.08,-811.62 114,-716.86 114,-627 114,-627 114,-627 114,-177 114,-99.55 382.4,-75.71 492.11,-69.2"/>
<polygon fill="midnightblue" stroke="midnightblue" points="492.43,-72.69 502.22,-68.62 492.03,-65.7 492.43,-72.69"/>
</g>
<!-- Node13&#45;&gt;Node14 -->
<g id="edge14" class="edge">
<title>Node13&#45;&gt;Node14</title>
<path fill="none" stroke="midnightblue" d="M259.13,-841.7C396.33,-821.3 781.87,-763.99 908.86,-745.11"/>
<polygon fill="midnightblue" stroke="midnightblue" points="909.57,-748.55 918.95,-743.62 908.54,-741.62 909.57,-748.55"/>
</g>
<!-- Node31 -->
<g id="node31" class="node">
<title>Node31</title>
<g id="a_node31"><a xlink:href="Boundaries_8h.html" target="_top" xlink:title=" ">
<polygon fill="none" stroke="black" points="1678,-392.5 1678,-411.5 1758,-411.5 1758,-392.5 1678,-392.5"/>
<text text-anchor="middle" x="1718" y="-399.5" font-family="Helvetica,sans-Serif" font-size="10.00">Boundaries.h</text>
</a>
</g>
</g>
<!-- Node13&#45;&gt;Node31 -->
<g id="edge154" class="edge">
<title>Node13&#45;&gt;Node31</title>
<path fill="none" stroke="midnightblue" d="M259.04,-848.25C616.74,-842.62 2810,-805.39 2810,-739 2810,-739 2810,-739 2810,-681 2810,-463.02 1982.5,-413.88 1768.19,-404.81"/>
<polygon fill="midnightblue" stroke="midnightblue" points="1768.3,-401.31 1758.16,-404.4 1768.01,-408.31 1768.3,-401.31"/>
</g>
<!-- Node13&#45;&gt;Node38 -->
<g id="edge151" class="edge">
<title>Node13&#45;&gt;Node38</title>
<path fill="none" stroke="midnightblue" d="M190.51,-840.44C170.36,-831.6 138.68,-817.69 115.67,-807.59"/>
<polygon fill="midnightblue" stroke="midnightblue" points="116.96,-804.33 106.4,-803.52 114.15,-810.74 116.96,-804.33"/>
</g>
<!-- Node14&#45;&gt;Node3 -->
<g id="edge20" class="edge">
<title>Node14&#45;&gt;Node3</title>
<path fill="none" stroke="midnightblue" d="M918.65,-736.33C790.71,-733.43 311.9,-720.73 251,-692 215.17,-675.1 190,-666.62 190,-627 190,-627 190,-627 190,-177 190,-142.11 204.47,-130.57 234,-112 276.08,-85.54 417.96,-73.76 492.06,-69.31"/>
<polygon fill="midnightblue" stroke="midnightblue" points="492.71,-72.77 502.49,-68.7 492.3,-65.79 492.71,-72.77"/>
</g>
<!-- Node14&#45;&gt;Node10 -->
<g id="edge16" class="edge">
<title>Node14&#45;&gt;Node10</title>
<path fill="none" stroke="midnightblue" d="M918.71,-737.24C804.67,-737.3 418,-729.92 418,-627 418,-627 418,-627 418,-569 418,-390.31 323.82,-297.44 447,-168 572.21,-36.43 660.81,-85.65 840,-56 1009.02,-28.04 1550.04,-14.86 1696.91,-11.74"/>
<polygon fill="midnightblue" stroke="midnightblue" points="1697.26,-15.24 1707.18,-11.53 1697.11,-8.24 1697.26,-15.24"/>
</g>
<!-- Node14&#45;&gt;Node11 -->
<g id="edge17" class="edge">
<title>Node14&#45;&gt;Node11</title>
<path fill="none" stroke="midnightblue" d="M918.56,-736.51C785.6,-734.25 273.37,-723.55 209,-692 174.5,-675.09 152,-665.42 152,-627 152,-627 152,-627 152,-121 152,-81.94 184.18,-45.94 205.51,-26.37"/>
<polygon fill="midnightblue" stroke="midnightblue" points="207.88,-28.94 213.06,-19.7 203.25,-23.7 207.88,-28.94"/>
</g>
<!-- Node15 -->
<g id="node15" class="node">
<title>Node15</title>
<g id="a_node15"><a xlink:title=" ">
<polygon fill="none" stroke="#bfbfbf" points="642,-168.5 642,-187.5 694,-187.5 694,-168.5 642,-168.5"/>
<text text-anchor="middle" x="668" y="-175.5" font-family="Helvetica,sans-Serif" font-size="10.00">petsc.h</text>
</a>
</g>
</g>
<!-- Node14&#45;&gt;Node15 -->
<g id="edge15" class="edge">
<title>Node14&#45;&gt;Node15</title>
<path fill="none" stroke="midnightblue" d="M918.92,-735.52C822.05,-730.05 532,-707.01 532,-627 532,-627 532,-627 532,-457 532,-347.65 617.96,-236.46 653.2,-195.47"/>
<polygon fill="midnightblue" stroke="midnightblue" points="655.95,-197.64 659.9,-187.82 650.68,-193.03 655.95,-197.64"/>
</g>
<!-- Node16 -->
<g id="node16" class="node">
<title>Node16</title>
<g id="a_node16"><a xlink:title=" ">
<polygon fill="none" stroke="#bfbfbf" points="1023,-112.5 1023,-131.5 1091,-131.5 1091,-112.5 1023,-112.5"/>
<text text-anchor="middle" x="1057" y="-119.5" font-family="Helvetica,sans-Serif" font-size="10.00">petscsys.h</text>
</a>
</g>
</g>
<!-- Node14&#45;&gt;Node16 -->
<g id="edge18" class="edge">
<title>Node14&#45;&gt;Node16</title>
<path fill="none" stroke="midnightblue" d="M918.86,-737.3C817.17,-737.85 496.05,-735.97 404,-692 367.98,-674.79 342,-666.92 342,-627 342,-627 342,-627 342,-569 342,-449.42 494,-466.58 494,-347 494,-347 494,-347 494,-289 494,-213.88 544.34,-200.63 612,-168 647.58,-150.84 907.72,-132.53 1012.98,-125.74"/>
<polygon fill="midnightblue" stroke="midnightblue" points="1013.21,-129.23 1022.97,-125.1 1012.76,-122.25 1013.21,-129.23"/>
</g>
<!-- Node17 -->
<g id="node17" class="node">
<title>Node17</title>
<g id="a_node17"><a xlink:title=" ">
<polygon fill="none" stroke="#bfbfbf" points="2297.5,-672.5 2297.5,-691.5 2350.5,-691.5 2350.5,-672.5 2297.5,-672.5"/>
<text text-anchor="middle" x="2324" y="-679.5" font-family="Helvetica,sans-Serif" font-size="10.00">ctype.h</text>
</a>
</g>
</g>
<!-- Node14&#45;&gt;Node17 -->
<g id="edge19" class="edge">
<title>Node14&#45;&gt;Node17</title>
<path fill="none" stroke="midnightblue" d="M981.27,-736.85C1154.9,-735.85 2002.68,-729.22 2287.1,-691.72"/>
<polygon fill="midnightblue" stroke="midnightblue" points="2287.95,-695.14 2297.39,-690.32 2287.01,-688.2 2287.95,-695.14"/>
</g>
<!-- Node18 -->
<g id="node18" class="node">
<title>Node18</title>
<g id="a_node18"><a xlink:href="AnalyticalSolution_8h.html" target="_top" xlink:title=" ">
<polygon fill="none" stroke="black" points="2165,-672.5 2165,-691.5 2279,-691.5 2279,-672.5 2165,-672.5"/>
<text text-anchor="middle" x="2222" y="-679.5" font-family="Helvetica,sans-Serif" font-size="10.00">AnalyticalSolution.h</text>
</a>
</g>
</g>
<!-- Node14&#45;&gt;Node18 -->
<g id="edge21" class="edge">
<title>Node14&#45;&gt;Node18</title>
<path fill="none" stroke="midnightblue" d="M981.01,-735.58C1145.96,-728.34 1920.66,-695.44 2154.84,-685.72"/>
<polygon fill="midnightblue" stroke="midnightblue" points="2155.07,-689.21 2164.92,-685.3 2154.78,-682.22 2155.07,-689.21"/>
</g>
<!-- Node14&#45;&gt;Node31 -->
<g id="edge150" class="edge">
<title>Node14&#45;&gt;Node31</title>
<path fill="none" stroke="midnightblue" d="M981.18,-736.47C1138.47,-733.46 1836,-715.45 1836,-627 1836,-627 1836,-627 1836,-513 1836,-464.07 1781.48,-432.04 1746.42,-415.76"/>
<polygon fill="midnightblue" stroke="midnightblue" points="1747.66,-412.49 1737.1,-411.59 1744.8,-418.87 1747.66,-412.49"/>
</g>
<!-- Node18&#45;&gt;Node3 -->
<g id="edge29" class="edge">
<title>Node18&#45;&gt;Node3</title>
<path fill="none" stroke="midnightblue" d="M2164.9,-681.29C2006.14,-681.5 1546.21,-678.14 1167,-636 1027.85,-620.54 993.24,-612.28 857,-580 694.78,-541.56 633.1,-567.05 499,-468 389.03,-386.78 398.65,-300.83 431,-168 437.63,-140.77 440.64,-132.26 460,-112 473.06,-98.33 491.18,-87.54 506.67,-79.95"/>
<polygon fill="midnightblue" stroke="midnightblue" points="508.32,-83.04 515.91,-75.64 505.36,-76.7 508.32,-83.04"/>
</g>
<!-- Node18&#45;&gt;Node8 -->
<g id="edge23" class="edge">
<title>Node18&#45;&gt;Node8</title>
<path fill="none" stroke="midnightblue" d="M2279.21,-673C2282.18,-672.65 2285.13,-672.31 2288,-672 2485.71,-650.56 2546.26,-701.59 2734,-636 2860.38,-591.85 2905.27,-576.27 2984,-468 3009.39,-433.08 3038,-337.72 3038,-235 3038,-235 3038,-235 3038,-121 3038,-43.01 2950.83,-74.26 2875,-56 2726.54,-20.26 2546.03,-12.58 2453.74,-11.14"/>
<polygon fill="midnightblue" stroke="midnightblue" points="2453.78,-7.64 2443.73,-11 2453.69,-14.64 2453.78,-7.64"/>
</g>
<!-- Node18&#45;&gt;Node10 -->
<g id="edge24" class="edge">
<title>Node18&#45;&gt;Node10</title>
<path fill="none" stroke="midnightblue" d="M2279.22,-673.02C2282.19,-672.66 2285.13,-672.32 2288,-672 2379.78,-661.76 2616.64,-671.23 2702,-636 2860.55,-570.56 2929.82,-432.34 2851,-280 2799.2,-179.89 2761.84,-162.36 2661,-112 2587.94,-75.51 2566.27,-71 2486,-56 2346.41,-29.92 1902.58,-15.71 1771.06,-11.99"/>
<polygon fill="midnightblue" stroke="midnightblue" points="1770.82,-8.48 1760.73,-11.7 1770.63,-15.48 1770.82,-8.48"/>
</g>
<!-- Node18&#45;&gt;Node14 -->
<g id="edge146" class="edge">
<title>Node18&#45;&gt;Node14</title>
<path fill="none" stroke="midnightblue" d="M2164.84,-685.56C1947.93,-694.98 1178.95,-727.62 991.42,-735.35"/>
<polygon fill="midnightblue" stroke="midnightblue" points="991.01,-731.86 981.17,-735.77 991.3,-738.86 991.01,-731.86"/>
</g>
<!-- Node19 -->
<g id="node19" class="node">
<title>Node19</title>
<g id="a_node19"><a xlink:title=" ">
<polygon fill="none" stroke="#bfbfbf" points="2118.5,-112.5 2118.5,-131.5 2179.5,-131.5 2179.5,-112.5 2118.5,-112.5"/>
<text text-anchor="middle" x="2149" y="-119.5" font-family="Helvetica,sans-Serif" font-size="10.00">petscpf.h</text>
</a>
</g>
</g>
<!-- Node18&#45;&gt;Node19 -->
<g id="edge22" class="edge">
<title>Node18&#45;&gt;Node19</title>
<path fill="none" stroke="midnightblue" d="M2279.22,-673.08C2282.19,-672.71 2285.13,-672.34 2288,-672 2364.75,-662.78 2567.66,-675.69 2634,-636 2793.79,-540.41 2828.93,-367.27 2710,-224 2701.58,-213.85 2317.89,-150.52 2189.99,-129.66"/>
<polygon fill="midnightblue" stroke="midnightblue" points="2190.26,-126.16 2179.83,-128 2189.14,-133.06 2190.26,-126.16"/>
</g>
<!-- Node20 -->
<g id="node20" class="node">
<title>Node20</title>
<g id="a_node20"><a xlink:title=" ">
<polygon fill="none" stroke="#bfbfbf" points="1154,-112.5 1154,-131.5 1202,-131.5 1202,-112.5 1154,-112.5"/>
<text text-anchor="middle" x="1178" y="-119.5" font-family="Helvetica,sans-Serif" font-size="10.00">time.h</text>
</a>
</g>
</g>
<!-- Node18&#45;&gt;Node20 -->
<g id="edge25" class="edge">
<title>Node18&#45;&gt;Node20</title>
<path fill="none" stroke="midnightblue" d="M2164.59,-679.42C1908.39,-671.74 878.19,-634.15 792,-524 661.8,-357.6 1035.59,-182.92 1147.43,-135.49"/>
<polygon fill="midnightblue" stroke="midnightblue" points="1148.96,-138.65 1156.82,-131.55 1146.25,-132.19 1148.96,-138.65"/>
</g>
<!-- Node21 -->
<g id="node21" class="node">
<title>Node21</title>
<g id="a_node21"><a xlink:title=" ">
<polygon fill="none" stroke="#bfbfbf" points="1707.5,-112.5 1707.5,-131.5 1758.5,-131.5 1758.5,-112.5 1707.5,-112.5"/>
<text text-anchor="middle" x="1733" y="-119.5" font-family="Helvetica,sans-Serif" font-size="10.00">math.h</text>
</a>
</g>
</g>
<!-- Node18&#45;&gt;Node21 -->
<g id="edge26" class="edge">
<title>Node18&#45;&gt;Node21</title>
<path fill="none" stroke="midnightblue" d="M2279.09,-673.01C2352.97,-662.44 2474.57,-644.21 2494,-636 2577.44,-600.74 2658,-605.58 2658,-515 2658,-515 2658,-515 2658,-401 2658,-290.06 2580.99,-274.09 2482,-224 2354.32,-159.39 1900.48,-131.56 1768.96,-124.74"/>
<polygon fill="midnightblue" stroke="midnightblue" points="1768.81,-121.22 1758.65,-124.21 1768.46,-128.22 1768.81,-121.22"/>
</g>
<!-- Node22 -->
<g id="node22" class="node">
<title>Node22</title>
<g id="a_node22"><a xlink:title=" ">
<polygon fill="none" stroke="#bfbfbf" points="2556,-112.5 2556,-131.5 2630,-131.5 2630,-112.5 2556,-112.5"/>
<text text-anchor="middle" x="2593" y="-119.5" font-family="Helvetica,sans-Serif" font-size="10.00">petsctime.h</text>
</a>
</g>
</g>
<!-- Node18&#45;&gt;Node22 -->
<g id="edge27" class="edge">
<title>Node18&#45;&gt;Node22</title>
<path fill="none" stroke="midnightblue" d="M2279.22,-673.02C2282.19,-672.66 2285.13,-672.32 2288,-672 2379.78,-661.76 2616.64,-671.23 2702,-636 2737.87,-621.19 2743.89,-609.59 2769,-580 2857.2,-476.04 2895.73,-401.05 2833,-280 2791.51,-199.93 2688.59,-154.57 2631.93,-134.89"/>
<polygon fill="midnightblue" stroke="midnightblue" points="2632.85,-131.5 2622.25,-131.62 2630.61,-138.13 2632.85,-131.5"/>
</g>
<!-- Node23 -->
<g id="node23" class="node">
<title>Node23</title>
<g id="a_node23"><a xlink:title=" ">
<polygon fill="none" stroke="#bfbfbf" points="2220.5,-112.5 2220.5,-131.5 2339.5,-131.5 2339.5,-112.5 2220.5,-112.5"/>
<text text-anchor="middle" x="2280" y="-119.5" font-family="Helvetica,sans-Serif" font-size="10.00">petscdmcomposite.h</text>
</a>
</g>
</g>
<!-- Node18&#45;&gt;Node23 -->
<g id="edge28" class="edge">
<title>Node18&#45;&gt;Node23</title>
<path fill="none" stroke="midnightblue" d="M2279.22,-673.05C2282.19,-672.68 2285.13,-672.33 2288,-672 2373.15,-662.21 2598.23,-679.63 2672,-636 2793.88,-563.92 2802.07,-495.89 2824,-356 2855.93,-152.34 2503.65,-124.8 2349.8,-122.4"/>
<polygon fill="midnightblue" stroke="midnightblue" points="2349.55,-118.9 2339.51,-122.28 2349.47,-125.9 2349.55,-118.9"/>
</g>
<!-- Node24 -->
<g id="node24" class="node">
<title>Node24</title>
<g id="a_node24"><a xlink:href="ParticleSwarm_8h.html" target="_top" xlink:title="Header file for Particle Motion and migration related functions.">
<polygon fill="none" stroke="black" points="1206,-560.5 1206,-579.5 1302,-579.5 1302,-560.5 1206,-560.5"/>
<text text-anchor="middle" x="1254" y="-567.5" font-family="Helvetica,sans-Serif" font-size="10.00">ParticleSwarm.h</text>
</a>
</g>
</g>
<!-- Node18&#45;&gt;Node24 -->
<g id="edge30" class="edge">
<title>Node18&#45;&gt;Node24</title>
<path fill="none" stroke="midnightblue" d="M2164.93,-680.31C2047.13,-678.21 1768.79,-669.78 1538,-636 1449.84,-623.1 1348.54,-597.18 1293.93,-582.26"/>
<polygon fill="midnightblue" stroke="midnightblue" points="1294.53,-578.8 1283.96,-579.52 1292.68,-585.55 1294.53,-578.8"/>
</g>
<!-- Node26 -->
<g id="node26" class="node">
<title>Node26</title>
<g id="a_node26"><a xlink:href="walkingsearch_8h.html" target="_top" xlink:title="Header file for particle location functions using the walking search algorithm.">
<polygon fill="none" stroke="black" points="1852,-224.5 1852,-243.5 1948,-243.5 1948,-224.5 1852,-224.5"/>
<text text-anchor="middle" x="1900" y="-231.5" font-family="Helvetica,sans-Serif" font-size="10.00">walkingsearch.h</text>
</a>
</g>
</g>
<!-- Node18&#45;&gt;Node26 -->
<g id="edge144" class="edge">
<title>Node18&#45;&gt;Node26</title>
<path fill="none" stroke="midnightblue" d="M2231.56,-672.45C2240.09,-664.12 2251.99,-650.6 2257,-636 2261.31,-623.44 2264.09,-585.74 2255,-560 2213.55,-442.66 2168.54,-430.01 2087,-336 2063.94,-309.41 2060.86,-298.64 2031,-280 2005.97,-264.37 1974.84,-253.39 1949.2,-246.18"/>
<polygon fill="midnightblue" stroke="midnightblue" points="1949.88,-242.74 1939.31,-243.51 1948.05,-249.5 1949.88,-242.74"/>
</g>
<!-- Node18&#45;&gt;Node27 -->
<g id="edge148" class="edge">
<title>Node18&#45;&gt;Node27</title>
<path fill="none" stroke="midnightblue" d="M2275.98,-672.49C2363.42,-657.82 2526,-624.13 2526,-571 2526,-571 2526,-571 2526,-513 2526,-416.19 2283.9,-272.31 2200,-224 2171.36,-207.51 2135.82,-196.02 2109.51,-188.77"/>
<polygon fill="midnightblue" stroke="midnightblue" points="2110.12,-185.32 2099.56,-186.11 2108.31,-192.08 2110.12,-185.32"/>
</g>
<!-- Node29 -->
<g id="node29" class="node">
<title>Node29</title>
<g id="a_node29"><a xlink:href="grid_8h.html" target="_top" xlink:title="Public interface for grid, solver, and metric setup routines.">
<polygon fill="none" stroke="black" points="788,-112.5 788,-131.5 832,-131.5 832,-112.5 788,-112.5"/>
<text text-anchor="middle" x="810" y="-119.5" font-family="Helvetica,sans-Serif" font-size="10.00">grid.h</text>
</a>
</g>
</g>
<!-- Node18&#45;&gt;Node29 -->
<g id="edge145" class="edge">
<title>Node18&#45;&gt;Node29</title>
<path fill="none" stroke="midnightblue" d="M2164.66,-680.85C1871.26,-679.45 547.67,-665.3 442,-524 346.79,-396.68 343.43,-254.23 477,-168 501.98,-151.87 698.44,-132.89 777.35,-125.83"/>
<polygon fill="midnightblue" stroke="midnightblue" points="778.02,-129.28 787.68,-124.91 777.41,-122.31 778.02,-129.28"/>
</g>
<!-- Node30 -->
<g id="node30" class="node">
<title>Node30</title>
<g id="a_node30"><a xlink:href="io_8h.html" target="_top" xlink:title="Public interface for data input/output routines.">
<polygon fill="none" stroke="black" points="1534.5,-448.5 1534.5,-467.5 1569.5,-467.5 1569.5,-448.5 1534.5,-448.5"/>
<text text-anchor="middle" x="1552" y="-455.5" font-family="Helvetica,sans-Serif" font-size="10.00">io.h</text>
</a>
</g>
</g>
<!-- Node18&#45;&gt;Node30 -->
<g id="edge147" class="edge">
<title>Node18&#45;&gt;Node30</title>
<path fill="none" stroke="midnightblue" d="M2164.6,-679.27C2045.9,-675.19 1777.29,-663.17 1690,-636 1642.1,-621.09 1625.94,-616.94 1592,-580 1565.27,-550.91 1556.37,-503.53 1553.43,-477.53"/>
<polygon fill="midnightblue" stroke="midnightblue" points="1556.91,-477.14 1552.48,-467.52 1549.94,-477.8 1556.91,-477.14"/>
</g>
<!-- Node32 -->
<g id="node32" class="node">
<title>Node32</title>
<g id="a_node32"><a xlink:href="interpolation_8h.html" target="_top" xlink:title=" ">
<polygon fill="none" stroke="black" points="1699,-616.5 1699,-635.5 1787,-635.5 1787,-616.5 1699,-616.5"/>
<text text-anchor="middle" x="1743" y="-623.5" font-family="Helvetica,sans-Serif" font-size="10.00">interpolation.h</text>
</a>
</g>
</g>
<!-- Node18&#45;&gt;Node32 -->
<g id="edge149" class="edge">
<title>Node18&#45;&gt;Node32</title>
<path fill="none" stroke="midnightblue" d="M2164.7,-674.54C2071.56,-664.04 1888.6,-643.41 1797.38,-633.13"/>
<polygon fill="midnightblue" stroke="midnightblue" points="1797.59,-629.63 1787.26,-631.99 1796.8,-636.59 1797.59,-629.63"/>
</g>
<!-- Node24&#45;&gt;Node3 -->
<g id="edge35" class="edge">
<title>Node24&#45;&gt;Node3</title>
<path fill="none" stroke="midnightblue" d="M1205.76,-567.77C1103.06,-564.58 866.1,-554.11 792,-524 607.44,-449.02 528.29,-423.55 442,-244 427.37,-213.56 429.47,-199.37 442,-168 456.96,-130.55 493.14,-99.04 516.57,-81.62"/>
<polygon fill="midnightblue" stroke="midnightblue" points="518.78,-84.34 524.85,-75.65 514.69,-78.66 518.78,-84.34"/>
</g>
<!-- Node24&#45;&gt;Node8 -->
<g id="edge32" class="edge">
<title>Node24&#45;&gt;Node8</title>
<path fill="none" stroke="midnightblue" d="M1302.4,-568.08C1572.96,-561.7 2886,-513.46 2886,-179 2886,-179 2886,-179 2886,-121 2886,-33.48 2586.31,-15.57 2454.25,-11.92"/>
<polygon fill="midnightblue" stroke="midnightblue" points="2453.99,-8.41 2443.9,-11.66 2453.81,-15.41 2453.99,-8.41"/>
</g>
<!-- Node24&#45;&gt;Node14 -->
<g id="edge36" class="edge">
<title>Node24&#45;&gt;Node14</title>
<path fill="none" stroke="midnightblue" d="M1238.24,-579.61C1188.6,-606.71 1035.16,-690.5 974.78,-723.47"/>
<polygon fill="midnightblue" stroke="midnightblue" points="973.02,-720.44 965.92,-728.31 976.37,-726.59 973.02,-720.44"/>
</g>
<!-- Node24&#45;&gt;Node15 -->
<g id="edge31" class="edge">
<title>Node24&#45;&gt;Node15</title>
<path fill="none" stroke="midnightblue" d="M1205.86,-569.76C1105.98,-570.43 880.43,-566.98 819,-524 704.74,-444.06 676.06,-257.85 669.67,-197.94"/>
<polygon fill="midnightblue" stroke="midnightblue" points="673.12,-197.32 668.67,-187.71 666.16,-198 673.12,-197.32"/>
</g>
<!-- Node24&#45;&gt;Node21 -->
<g id="edge34" class="edge">
<title>Node24&#45;&gt;Node21</title>
<path fill="none" stroke="midnightblue" d="M1205.93,-566.61C1139.03,-560.41 1026,-538.22 1026,-459 1026,-459 1026,-459 1026,-401 1026,-305.71 1115.2,-317.04 1203,-280 1382.7,-204.18 1611.12,-149.79 1697.64,-130.6"/>
<polygon fill="midnightblue" stroke="midnightblue" points="1698.46,-134 1707.48,-128.43 1696.96,-127.16 1698.46,-134"/>
</g>
<!-- Node25 -->
<g id="node25" class="node">
<title>Node25</title>
<g id="a_node25"><a xlink:title=" ">
<polygon fill="none" stroke="#bfbfbf" points="1624,-168.5 1624,-187.5 1686,-187.5 1686,-168.5 1624,-168.5"/>
<text text-anchor="middle" x="1655" y="-175.5" font-family="Helvetica,sans-Serif" font-size="10.00">stdbool.h</text>
</a>
</g>
</g>
<!-- Node24&#45;&gt;Node25 -->
<g id="edge33" class="edge">
<title>Node24&#45;&gt;Node25</title>
<path fill="none" stroke="midnightblue" d="M1219.13,-560.4C1174.25,-547 1102,-516.49 1102,-459 1102,-459 1102,-459 1102,-401 1102,-370.9 1099.73,-357.3 1121,-336 1156.95,-299.99 1495.18,-216.97 1613.98,-188.66"/>
<polygon fill="midnightblue" stroke="midnightblue" points="1614.88,-192.04 1623.8,-186.33 1613.26,-185.23 1614.88,-192.04"/>
</g>
<!-- Node24&#45;&gt;Node26 -->
<g id="edge37" class="edge">
<title>Node24&#45;&gt;Node26</title>
<path fill="none" stroke="midnightblue" d="M1302.26,-564.95C1399.22,-554.68 1620.84,-520.21 1767,-412 1827.17,-367.45 1872.77,-288.23 1891.14,-252.89"/>
<polygon fill="midnightblue" stroke="midnightblue" points="1894.36,-254.28 1895.77,-243.78 1888.12,-251.1 1894.36,-254.28"/>
</g>
<!-- Node24&#45;&gt;Node30 -->
<g id="edge143" class="edge">
<title>Node24&#45;&gt;Node30</title>
<path fill="none" stroke="midnightblue" d="M1277.38,-560.37C1331.75,-540.3 1466.42,-490.59 1524.56,-469.13"/>
<polygon fill="midnightblue" stroke="midnightblue" points="1526,-472.33 1534.17,-465.58 1523.58,-465.76 1526,-472.33"/>
</g>
<!-- Node37 -->
<g id="node37" class="node">
<title>Node37</title>
<g id="a_node37"><a xlink:href="Metric_8h.html" target="_top" xlink:title=" ">
<polygon fill="none" stroke="black" points="828,-504.5 828,-523.5 884,-523.5 884,-504.5 828,-504.5"/>
<text text-anchor="middle" x="856" y="-511.5" font-family="Helvetica,sans-Serif" font-size="10.00">Metric.h</text>
</a>
</g>
</g>
<!-- Node24&#45;&gt;Node37 -->
<g id="edge136" class="edge">
<title>Node24&#45;&gt;Node37</title>
<path fill="none" stroke="midnightblue" d="M1205.99,-562.49C1126.18,-551.66 967.77,-530.17 894.65,-520.24"/>
<polygon fill="midnightblue" stroke="midnightblue" points="894.88,-516.74 884.5,-518.87 893.94,-523.68 894.88,-516.74"/>
</g>
<!-- Node26&#45;&gt;Node3 -->
<g id="edge41" class="edge">
<title>Node26&#45;&gt;Node3</title>
<path fill="none" stroke="midnightblue" d="M1894.09,-224.36C1877.43,-200.86 1827.35,-135.95 1767,-112 1655.51,-67.77 792.84,-66.51 583.61,-66.87"/>
<polygon fill="midnightblue" stroke="midnightblue" points="583.57,-63.37 573.57,-66.89 583.58,-70.37 583.57,-63.37"/>
</g>
<!-- Node26&#45;&gt;Node14 -->
<g id="edge42" class="edge">
<title>Node26&#45;&gt;Node14</title>
<path fill="none" stroke="midnightblue" d="M1948.04,-238.73C2117.9,-254.13 2673.93,-324.53 2558,-580 2516.06,-672.42 2458.21,-670.59 2359,-692 2222.48,-721.47 1209.21,-734.16 991.23,-736.57"/>
<polygon fill="midnightblue" stroke="midnightblue" points="991.13,-733.07 981.17,-736.68 991.21,-740.07 991.13,-733.07"/>
</g>
<!-- Node26&#45;&gt;Node15 -->
<g id="edge38" class="edge">
<title>Node26&#45;&gt;Node15</title>
<path fill="none" stroke="midnightblue" d="M1851.7,-230.88C1650.39,-222.06 880.32,-188.31 704.08,-180.58"/>
<polygon fill="midnightblue" stroke="midnightblue" points="704.18,-177.08 694.03,-180.14 703.87,-184.08 704.18,-177.08"/>
</g>
<!-- Node26&#45;&gt;Node21 -->
<g id="edge40" class="edge">
<title>Node26&#45;&gt;Node21</title>
<path fill="none" stroke="midnightblue" d="M1886.9,-224.37C1858.24,-205.49 1789.76,-160.38 1754.61,-137.24"/>
<polygon fill="midnightblue" stroke="midnightblue" points="1756.32,-134.17 1746.04,-131.59 1752.47,-140.02 1756.32,-134.17"/>
</g>
<!-- Node26&#45;&gt;Node25 -->
<g id="edge39" class="edge">
<title>Node26&#45;&gt;Node25</title>
<path fill="none" stroke="midnightblue" d="M1861.18,-224.44C1816.15,-214.52 1742.21,-198.22 1696.19,-188.08"/>
<polygon fill="midnightblue" stroke="midnightblue" points="1696.77,-184.62 1686.25,-185.89 1695.27,-191.46 1696.77,-184.62"/>
</g>
<!-- Node26&#45;&gt;Node27 -->
<g id="edge43" class="edge">
<title>Node26&#45;&gt;Node27</title>
<path fill="none" stroke="midnightblue" d="M1922.32,-224.44C1951.32,-214.73 2001.93,-198.9 2036.51,-188.73"/>
<polygon fill="midnightblue" stroke="midnightblue" points="2037.62,-192.05 2046.24,-185.89 2035.66,-185.33 2037.62,-192.05"/>
</g>
<!-- Node27&#45;&gt;Node3 -->
<g id="edge53" class="edge">
<title>Node27&#45;&gt;Node3</title>
<path fill="none" stroke="midnightblue" d="M2053.35,-168.42C2018.45,-153.67 1943.01,-123.93 1876,-112 1619.88,-66.41 788.58,-66.14 583.87,-66.79"/>
<polygon fill="midnightblue" stroke="midnightblue" points="583.75,-63.29 573.76,-66.83 583.78,-70.29 583.75,-63.29"/>
</g>
<!-- Node27&#45;&gt;Node8 -->
<g id="edge45" class="edge">
<title>Node27&#45;&gt;Node8</title>
<path fill="none" stroke="midnightblue" d="M2075.65,-168.11C2080.22,-154.21 2090.9,-127.35 2109,-112 2173.65,-57.18 2270.19,-31.29 2332.38,-19.68"/>
<polygon fill="midnightblue" stroke="midnightblue" points="2333.21,-23.08 2342.44,-17.87 2331.97,-16.19 2333.21,-23.08"/>
</g>
<!-- Node27&#45;&gt;Node10 -->
<g id="edge46" class="edge">
<title>Node27&#45;&gt;Node10</title>
<path fill="none" stroke="midnightblue" d="M2068.79,-168.46C2061.84,-155.05 2046.83,-128.83 2028,-112 1953.04,-44.97 1831.47,-22.01 1770.83,-14.48"/>
<polygon fill="midnightblue" stroke="midnightblue" points="1770.93,-10.97 1760.59,-13.28 1770.12,-17.92 1770.93,-10.97"/>
</g>
<!-- Node27&#45;&gt;Node14 -->
<g id="edge130" class="edge">
<title>Node27&#45;&gt;Node14</title>
<path fill="none" stroke="midnightblue" d="M2099.68,-183.17C2242.54,-206.6 2904.3,-330 2729,-580 2645.13,-699.6 2563.47,-664.53 2420,-692 2276.52,-719.47 1214.68,-733.79 991.2,-736.52"/>
<polygon fill="midnightblue" stroke="midnightblue" points="991.16,-733.02 981.2,-736.64 991.24,-740.02 991.16,-733.02"/>
</g>
<!-- Node27&#45;&gt;Node16 -->
<g id="edge50" class="edge">
<title>Node27&#45;&gt;Node16</title>
<path fill="none" stroke="midnightblue" d="M2046.39,-176.23C1935.76,-172.92 1501.27,-158.84 1145,-132 1130.84,-130.93 1115.44,-129.46 1101.53,-128.02"/>
<polygon fill="midnightblue" stroke="midnightblue" points="1101.54,-124.5 1091.23,-126.93 1100.81,-131.46 1101.54,-124.5"/>
</g>
<!-- Node27&#45;&gt;Node18 -->
<g id="edge133" class="edge">
<title>Node27&#45;&gt;Node18</title>
<path fill="none" stroke="midnightblue" d="M2099.51,-183.04C2130.01,-189.08 2180.07,-202.16 2218,-224 2301.9,-272.31 2544,-416.19 2544,-513 2544,-571 2544,-571 2544,-571 2544,-623.79 2383.5,-657.38 2289.06,-672.2"/>
<polygon fill="midnightblue" stroke="midnightblue" points="2288.36,-668.77 2279.01,-673.75 2289.42,-675.69 2288.36,-668.77"/>
</g>
<!-- Node27&#45;&gt;Node19 -->
<g id="edge44" class="edge">
<title>Node27&#45;&gt;Node19</title>
<path fill="none" stroke="midnightblue" d="M2085.21,-168.32C2096.78,-160.11 2114.38,-147.6 2128.16,-137.81"/>
<polygon fill="midnightblue" stroke="midnightblue" points="2130.44,-140.48 2136.57,-131.83 2126.39,-134.77 2130.44,-140.48"/>
</g>
<!-- Node27&#45;&gt;Node20 -->
<g id="edge47" class="edge">
<title>Node27&#45;&gt;Node20</title>
<path fill="none" stroke="midnightblue" d="M2046.21,-175.38C1916.82,-167.58 1356.82,-133.79 1212.19,-125.06"/>
<polygon fill="midnightblue" stroke="midnightblue" points="1212.32,-121.56 1202.13,-124.46 1211.9,-128.55 1212.32,-121.56"/>
</g>
<!-- Node27&#45;&gt;Node21 -->
<g id="edge48" class="edge">
<title>Node27&#45;&gt;Node21</title>
<path fill="none" stroke="midnightblue" d="M2046.32,-172.76C1985.57,-163.11 1836.91,-139.5 1768.5,-128.64"/>
<polygon fill="midnightblue" stroke="midnightblue" points="1769.05,-125.18 1758.62,-127.07 1767.95,-132.1 1769.05,-125.18"/>
</g>
<!-- Node27&#45;&gt;Node22 -->
<g id="edge49" class="edge">
<title>Node27&#45;&gt;Node22</title>
<path fill="none" stroke="midnightblue" d="M2099.5,-174.25C2182.62,-165.62 2439,-138.99 2545.67,-127.91"/>
<polygon fill="midnightblue" stroke="midnightblue" points="2546.24,-131.38 2555.82,-126.86 2545.51,-124.41 2546.24,-131.38"/>
</g>
<!-- Node27&#45;&gt;Node23 -->
<g id="edge51" class="edge">
<title>Node27&#45;&gt;Node23</title>
<path fill="none" stroke="midnightblue" d="M2099.64,-170.05C2134.54,-160.95 2196.16,-144.87 2237.54,-134.08"/>
<polygon fill="midnightblue" stroke="midnightblue" points="2238.54,-137.43 2247.33,-131.52 2236.77,-130.66 2238.54,-137.43"/>
</g>
<!-- Node27&#45;&gt;Node24 -->
<g id="edge54" class="edge">
<title>Node27&#45;&gt;Node24</title>
<path fill="none" stroke="midnightblue" d="M2099.55,-187.45C2118.12,-194.57 2142.32,-206.44 2158,-224 2175.81,-243.94 2175.02,-253.73 2180,-280 2186.29,-313.19 2195.04,-325.76 2180,-356 2161.63,-392.93 2143.55,-394.94 2106,-412 1827.8,-538.42 1454.56,-563.07 1312.34,-567.85"/>
<polygon fill="midnightblue" stroke="midnightblue" points="1311.99,-564.36 1302.1,-568.18 1312.21,-571.36 1311.99,-564.36"/>
</g>
<!-- Node27&#45;&gt;Node26 -->
<g id="edge55" class="edge">
<title>Node27&#45;&gt;Node26</title>
<path fill="none" stroke="midnightblue" d="M2050.8,-187.52C2023.39,-196.7 1976.55,-211.38 1942.26,-221.57"/>
<polygon fill="midnightblue" stroke="midnightblue" points="1941.1,-218.26 1932.5,-224.44 1943.08,-224.97 1941.1,-218.26"/>
</g>
<!-- Node28 -->
<g id="node28" class="node">
<title>Node28</title>
<g id="a_node28"><a xlink:title=" ">
<polygon fill="none" stroke="#bfbfbf" points="1396.5,-112.5 1396.5,-131.5 1491.5,-131.5 1491.5,-112.5 1396.5,-112.5"/>
<text text-anchor="middle" x="1444" y="-119.5" font-family="Helvetica,sans-Serif" font-size="10.00">petscsystypes.h</text>
</a>
</g>
</g>
<!-- Node27&#45;&gt;Node28 -->
<g id="edge52" class="edge">
<title>Node27&#45;&gt;Node28</title>
<path fill="none" stroke="midnightblue" d="M2046.37,-174.71C1952.24,-166.63 1633.69,-139.29 1501.86,-127.97"/>
<polygon fill="midnightblue" stroke="midnightblue" points="1501.83,-124.45 1491.57,-127.08 1501.23,-131.43 1501.83,-124.45"/>
</g>
<!-- Node27&#45;&gt;Node29 -->
<g id="edge56" class="edge">
<title>Node27&#45;&gt;Node29</title>
<path fill="none" stroke="midnightblue" d="M2046.29,-176C1925.48,-171.19 1419.58,-149.95 1005,-132 947.54,-129.51 880.97,-126.56 842.21,-124.74"/>
<polygon fill="midnightblue" stroke="midnightblue" points="842.2,-121.23 832.05,-124.25 841.87,-128.22 842.2,-121.23"/>
</g>
<!-- Node27&#45;&gt;Node30 -->
<g id="edge131" class="edge">
<title>Node27&#45;&gt;Node30</title>
<path fill="none" stroke="midnightblue" d="M2071.72,-187.74C2069.43,-200.97 2063.65,-226.39 2051,-244 2003.07,-310.7 1975.3,-315.22 1904,-356 1793.89,-418.98 1641.6,-445.14 1579.76,-453.62"/>
<polygon fill="midnightblue" stroke="midnightblue" points="1579.08,-450.18 1569.63,-454.96 1580,-457.12 1579.08,-450.18"/>
</g>
<!-- Node27&#45;&gt;Node31 -->
<g id="edge135" class="edge">
<title>Node27&#45;&gt;Node31</title>
<path fill="none" stroke="midnightblue" d="M2068.78,-187.53C2061.81,-200.92 2046.78,-227.12 2028,-244 2003.15,-266.34 1989.36,-260.82 1962,-280 1920.24,-309.29 1920.75,-331.52 1876,-356 1842.36,-374.4 1800.47,-385.89 1768.28,-392.65"/>
<polygon fill="midnightblue" stroke="midnightblue" points="1767.31,-389.27 1758.19,-394.68 1768.69,-396.14 1767.31,-389.27"/>
</g>
<!-- Node27&#45;&gt;Node32 -->
<g id="edge132" class="edge">
<title>Node27&#45;&gt;Node32</title>
<path fill="none" stroke="midnightblue" d="M2099.92,-182.42C2126.32,-187.43 2165.21,-199.05 2188,-224 2205.63,-243.3 2201.72,-254.21 2206,-280 2225,-394.49 2185.72,-433.55 2113,-524 2089.53,-553.2 2083.92,-564.1 2050,-580 2006.73,-600.28 1873.5,-614.53 1797.44,-621.03"/>
<polygon fill="midnightblue" stroke="midnightblue" points="1796.77,-617.57 1787.1,-621.89 1797.36,-624.55 1796.77,-617.57"/>
</g>
<!-- Node34 -->
<g id="node34" class="node">
<title>Node34</title>
<g id="a_node34"><a xlink:href="ParticleMotion_8h.html" target="_top" xlink:title=" ">
<polygon fill="none" stroke="black" points="1548,-280.5 1548,-299.5 1644,-299.5 1644,-280.5 1548,-280.5"/>
<text text-anchor="middle" x="1596" y="-287.5" font-family="Helvetica,sans-Serif" font-size="10.00">ParticleMotion.h</text>
</a>
</g>
</g>
<!-- Node27&#45;&gt;Node34 -->
<g id="edge134" class="edge">
<title>Node27&#45;&gt;Node34</title>
<path fill="none" stroke="midnightblue" d="M2046.32,-183.65C2003.34,-191.26 1916.17,-207.23 1843,-224 1769.36,-240.88 1684.33,-264.08 1635.69,-277.71"/>
<polygon fill="midnightblue" stroke="midnightblue" points="1634.56,-274.4 1625.88,-280.47 1636.46,-281.13 1634.56,-274.4"/>
</g>
<!-- Node29&#45;&gt;Node3 -->
<g id="edge57" class="edge">
<title>Node29&#45;&gt;Node3</title>
<path fill="none" stroke="midnightblue" d="M787.74,-116.58C743.24,-107.75 642.53,-87.75 583.49,-76.03"/>
<polygon fill="midnightblue" stroke="midnightblue" points="584.17,-72.6 573.68,-74.08 582.81,-79.46 584.17,-72.6"/>
</g>
<!-- Node29&#45;&gt;Node14 -->
<g id="edge58" class="edge">
<title>Node29&#45;&gt;Node14</title>
<path fill="none" stroke="midnightblue" d="M787.99,-124.15C719.21,-127.97 509.25,-141.57 447,-168 331.81,-216.91 228,-219.85 228,-345 228,-627 228,-627 228,-627 228,-693.19 298.1,-674.73 362,-692 465.39,-719.95 792.52,-732.27 908.63,-735.84"/>
<polygon fill="midnightblue" stroke="midnightblue" points="908.77,-739.35 918.87,-736.15 908.98,-732.35 908.77,-739.35"/>
</g>
<!-- Node29&#45;&gt;Node27 -->
<g id="edge129" class="edge">
<title>Node29&#45;&gt;Node27</title>
<path fill="none" stroke="midnightblue" d="M832.19,-123.77C871.3,-125.33 953.76,-129 1023,-132 1419.93,-149.19 1900.58,-169.39 2036.01,-175.3"/>
<polygon fill="midnightblue" stroke="midnightblue" points="2036.1,-178.81 2046.25,-175.75 2036.41,-171.81 2036.1,-178.81"/>
</g>
<!-- Node29&#45;&gt;Node30 -->
<g id="edge59" class="edge">
<title>Node29&#45;&gt;Node30</title>
<path fill="none" stroke="midnightblue" d="M813.49,-131.79C818.78,-144.64 829.53,-169.1 842,-188 906.29,-285.48 935.1,-313.87 1044,-356 1219.01,-423.71 1446.26,-448.14 1524.29,-454.86"/>
<polygon fill="midnightblue" stroke="midnightblue" points="1524.03,-458.35 1534.29,-455.7 1524.61,-451.38 1524.03,-458.35"/>
</g>
<!-- Node30&#45;&gt;Node3 -->
<g id="edge60" class="edge">
<title>Node30&#45;&gt;Node3</title>
<path fill="none" stroke="midnightblue" d="M1534.31,-456.41C1478.03,-454.24 1298.39,-444.99 1154,-412 931.83,-361.24 895.91,-289.33 703,-168 652.54,-136.26 592.74,-99.99 560.8,-80.72"/>
<polygon fill="midnightblue" stroke="midnightblue" points="562.57,-77.7 552.2,-75.53 558.96,-83.69 562.57,-77.7"/>
</g>
<!-- Node30&#45;&gt;Node14 -->
<g id="edge61" class="edge">
<title>Node30&#45;&gt;Node14</title>
<path fill="none" stroke="midnightblue" d="M1534.37,-463.05C1502.16,-470.53 1431.71,-487.3 1373,-504 1294.05,-526.46 1270.98,-524.44 1197,-560 1116.12,-598.87 1101.07,-618.54 1029,-672 1007.34,-688.07 983.57,-707.95 967.82,-721.46"/>
<polygon fill="midnightblue" stroke="midnightblue" points="965.25,-719.07 959.96,-728.25 969.82,-724.36 965.25,-719.07"/>
</g>
<!-- Node30&#45;&gt;Node31 -->
<g id="edge62" class="edge">
<title>Node30&#45;&gt;Node31</title>
<path fill="none" stroke="midnightblue" d="M1569.6,-449.72C1595.02,-440.7 1642.26,-425.24 1676.7,-414.59"/>
<polygon fill="midnightblue" stroke="midnightblue" points="1677.96,-417.87 1686.5,-411.59 1675.91,-411.18 1677.96,-417.87"/>
</g>
<!-- Node31&#45;&gt;Node3 -->
<g id="edge72" class="edge">
<title>Node31&#45;&gt;Node3</title>
<path fill="none" stroke="midnightblue" d="M1677.98,-400.04C1612.33,-397.53 1478.23,-388.5 1370,-356 1133.56,-285.01 1107.24,-183.67 871,-112 771.58,-81.84 649.34,-71.86 584.13,-68.59"/>
<polygon fill="midnightblue" stroke="midnightblue" points="583.94,-65.07 573.79,-68.1 583.61,-72.07 583.94,-65.07"/>
</g>
<!-- Node31&#45;&gt;Node8 -->
<g id="edge64" class="edge">
<title>Node31&#45;&gt;Node8</title>
<path fill="none" stroke="midnightblue" d="M1758.04,-397.89C1820.56,-392.52 1944.88,-379.71 2048,-356 2321.76,-293.05 2481.81,-364.8 2639,-132 2687.68,-59.91 2541.47,-29.08 2453.83,-17.34"/>
<polygon fill="midnightblue" stroke="midnightblue" points="2454.08,-13.85 2443.71,-16.04 2453.18,-20.79 2454.08,-13.85"/>
</g>
<!-- Node31&#45;&gt;Node10 -->
<g id="edge65" class="edge">
<title>Node31&#45;&gt;Node10</title>
<path fill="none" stroke="midnightblue" d="M1733.36,-392.49C1788.96,-361.62 1976.75,-256.69 1984,-244 2043.94,-139.02 1850.1,-53.55 1768.48,-23.04"/>
<polygon fill="midnightblue" stroke="midnightblue" points="1769.47,-19.67 1758.88,-19.51 1767.06,-26.24 1769.47,-19.67"/>
</g>
<!-- Node31&#45;&gt;Node14 -->
<g id="edge76" class="edge">
<title>Node31&#45;&gt;Node14</title>
<path fill="none" stroke="midnightblue" d="M1748.47,-411.59C1788.75,-426.17 1854,-459.47 1854,-513 1854,-627 1854,-627 1854,-627 1854,-714.69 1168.47,-733.14 991.31,-736.38"/>
<polygon fill="midnightblue" stroke="midnightblue" points="991.04,-732.89 981.1,-736.57 991.16,-739.89 991.04,-732.89"/>
</g>
<!-- Node31&#45;&gt;Node16 -->
<g id="edge69" class="edge">
<title>Node31&#45;&gt;Node16</title>
<path fill="none" stroke="midnightblue" d="M1677.87,-398.56C1621.26,-394.28 1515.22,-383.11 1429,-356 1320.92,-322.01 1298.24,-300.44 1200,-244 1161.09,-221.65 1150,-217.28 1116,-188 1098.76,-173.15 1081.56,-153.52 1070.22,-139.73"/>
<polygon fill="midnightblue" stroke="midnightblue" points="1072.68,-137.2 1063.67,-131.62 1067.23,-141.6 1072.68,-137.2"/>
</g>
<!-- Node31&#45;&gt;Node18 -->
<g id="edge95" class="edge">
<title>Node31&#45;&gt;Node18</title>
<path fill="none" stroke="midnightblue" d="M1757.68,-411.56C1788.6,-419.02 1832.15,-431.27 1868,-448 2006.33,-512.58 2152.98,-625.54 2203.59,-666.03"/>
<polygon fill="midnightblue" stroke="midnightblue" points="2201.4,-668.76 2211.39,-672.31 2205.79,-663.31 2201.4,-668.76"/>
</g>
<!-- Node31&#45;&gt;Node19 -->
<g id="edge63" class="edge">
<title>Node31&#45;&gt;Node19</title>
<path fill="none" stroke="midnightblue" d="M1758.28,-396.68C1837.21,-385.98 2012.47,-350.88 2104,-244 2129.91,-213.75 2141.53,-167.19 2146.22,-141.54"/>
<polygon fill="midnightblue" stroke="midnightblue" points="2149.67,-142.09 2147.87,-131.65 2142.77,-140.94 2149.67,-142.09"/>
</g>
<!-- Node31&#45;&gt;Node20 -->
<g id="edge66" class="edge">
<title>Node31&#45;&gt;Node20</title>
<path fill="none" stroke="midnightblue" d="M1677.68,-397.04C1630.25,-391.52 1549.65,-379.44 1484,-356 1385.49,-320.82 1361.67,-305.43 1277,-244 1247.74,-222.77 1240.78,-216.08 1218,-188 1206.03,-173.24 1194.91,-154.61 1187.45,-141.09"/>
<polygon fill="midnightblue" stroke="midnightblue" points="1190.33,-139.04 1182.51,-131.89 1184.16,-142.35 1190.33,-139.04"/>
</g>
<!-- Node31&#45;&gt;Node21 -->
<g id="edge67" class="edge">
<title>Node31&#45;&gt;Node21</title>
<path fill="none" stroke="midnightblue" d="M1718.47,-392.38C1720.55,-353.78 1729.04,-196.45 1731.99,-141.81"/>
<polygon fill="midnightblue" stroke="midnightblue" points="1735.5,-141.7 1732.54,-131.52 1728.51,-141.32 1735.5,-141.7"/>
</g>
<!-- Node31&#45;&gt;Node22 -->
<g id="edge68" class="edge">
<title>Node31&#45;&gt;Node22</title>
<path fill="none" stroke="midnightblue" d="M1758.27,-397.34C1813.52,-391.69 1915.58,-379.03 2000,-356 2225.6,-294.46 2483,-175.66 2565.82,-136.14"/>
<polygon fill="midnightblue" stroke="midnightblue" points="2567.54,-139.2 2575.05,-131.73 2564.52,-132.89 2567.54,-139.2"/>
</g>
<!-- Node31&#45;&gt;Node23 -->
<g id="edge70" class="edge">
<title>Node31&#45;&gt;Node23</title>
<path fill="none" stroke="midnightblue" d="M1758.28,-399.31C1808.73,-395.95 1896.94,-385.93 1966,-356 2095.32,-299.96 2221.41,-181.56 2264.45,-138.82"/>
<polygon fill="midnightblue" stroke="midnightblue" points="2267.13,-141.08 2271.72,-131.53 2262.18,-136.14 2267.13,-141.08"/>
</g>
<!-- Node31&#45;&gt;Node24 -->
<g id="edge73" class="edge">
<title>Node31&#45;&gt;Node24</title>
<path fill="none" stroke="midnightblue" d="M1701,-411.57C1674.9,-424.57 1623.21,-449.7 1578,-468 1507.78,-496.43 1489.33,-501.46 1417,-524 1376.61,-536.58 1330.05,-549.26 1297.06,-557.93"/>
<polygon fill="midnightblue" stroke="midnightblue" points="1296.06,-554.58 1287.28,-560.49 1297.84,-561.35 1296.06,-554.58"/>
</g>
<!-- Node31&#45;&gt;Node26 -->
<g id="edge74" class="edge">
<title>Node31&#45;&gt;Node26</title>
<path fill="none" stroke="midnightblue" d="M1727.04,-392.38C1748.04,-372.38 1801.88,-321.4 1848,-280 1859.24,-269.91 1872.08,-258.8 1882.19,-250.14"/>
<polygon fill="midnightblue" stroke="midnightblue" points="1884.6,-252.68 1889.94,-243.52 1880.06,-247.35 1884.6,-252.68"/>
</g>
<!-- Node31&#45;&gt;Node28 -->
<g id="edge71" class="edge">
<title>Node31&#45;&gt;Node28</title>
<path fill="none" stroke="midnightblue" d="M1677.92,-399.64C1616.56,-395.11 1501.38,-376.3 1453,-300 1421.47,-250.27 1432.05,-175.98 1439.4,-141.64"/>
<polygon fill="midnightblue" stroke="midnightblue" points="1442.88,-142.15 1441.71,-131.62 1436.05,-140.58 1442.88,-142.15"/>
</g>
<!-- Node31&#45;&gt;Node29 -->
<g id="edge75" class="edge">
<title>Node31&#45;&gt;Node29</title>
<path fill="none" stroke="midnightblue" d="M1677.81,-399.57C1561.73,-395.18 1227.44,-380.68 1121,-356 1055.72,-340.86 1036.63,-337.37 981,-300 911.33,-253.19 847.89,-174 822.15,-139.68"/>
<polygon fill="midnightblue" stroke="midnightblue" points="824.93,-137.56 816.17,-131.61 819.31,-141.73 824.93,-137.56"/>
</g>
<!-- Node31&#45;&gt;Node30 -->
<g id="edge77" class="edge">
<title>Node31&#45;&gt;Node30</title>
<path fill="none" stroke="midnightblue" d="M1696.75,-411.57C1666.84,-422.04 1612.77,-439.61 1579.74,-449.55"/>
<polygon fill="midnightblue" stroke="midnightblue" points="1578.41,-446.29 1569.81,-452.49 1580.4,-453 1578.41,-446.29"/>
</g>
<!-- Node31&#45;&gt;Node32 -->
<g id="edge78" class="edge">
<title>Node31&#45;&gt;Node32</title>
<path fill="none" stroke="midnightblue" d="M1719.89,-411.6C1723.62,-428.96 1731.94,-469.51 1736,-504 1740.25,-540.1 1741.95,-582.57 1742.61,-606.38"/>
<polygon fill="midnightblue" stroke="midnightblue" points="1739.11,-606.55 1742.85,-616.46 1746.11,-606.38 1739.11,-606.55"/>
</g>
<!-- Node31&#45;&gt;Node34 -->
<g id="edge96" class="edge">
<title>Node31&#45;&gt;Node34</title>
<path fill="none" stroke="midnightblue" d="M1708.43,-392.37C1687.85,-373.81 1639.16,-329.91 1613.12,-306.44"/>
<polygon fill="midnightblue" stroke="midnightblue" points="1615.3,-303.69 1605.53,-299.59 1610.61,-308.89 1615.3,-303.69"/>
</g>
<!-- Node35 -->
<g id="node35" class="node">
<title>Node35</title>
<g id="a_node35"><a xlink:href="BC__Handlers_8h.html" target="_top" xlink:title=" ">
<polygon fill="none" stroke="black" points="1130,-336.5 1130,-355.5 1218,-355.5 1218,-336.5 1130,-336.5"/>
<text text-anchor="middle" x="1174" y="-343.5" font-family="Helvetica,sans-Serif" font-size="10.00">BC_Handlers.h</text>
</a>
</g>
</g>
<!-- Node31&#45;&gt;Node35 -->
<g id="edge105" class="edge">
<title>Node31&#45;&gt;Node35</title>
<path fill="none" stroke="midnightblue" d="M1677.84,-398.47C1594.87,-392.69 1399.04,-377.43 1228.26,-356.62"/>
<polygon fill="midnightblue" stroke="midnightblue" points="1228.44,-353.12 1218.08,-355.37 1227.58,-360.06 1228.44,-353.12"/>
</g>
<!-- Node36 -->
<g id="node36" class="node">
<title>Node36</title>
<g id="a_node36"><a xlink:href="wallfunction_8h.html" target="_top" xlink:title=" ">
<polygon fill="none" stroke="black" points="1526,-336.5 1526,-355.5 1612,-355.5 1612,-336.5 1526,-336.5"/>
<text text-anchor="middle" x="1569" y="-343.5" font-family="Helvetica,sans-Serif" font-size="10.00">wallfunction.h</text>
</a>
</g>
</g>
<!-- Node31&#45;&gt;Node36 -->
<g id="edge109" class="edge">
<title>Node31&#45;&gt;Node36</title>
<path fill="none" stroke="midnightblue" d="M1689.3,-392.44C1662.6,-383.48 1623.29,-369.31 1596.86,-359.18"/>
<polygon fill="midnightblue" stroke="midnightblue" points="1598.01,-355.87 1587.42,-355.52 1595.48,-362.4 1598.01,-355.87"/>
</g>
<!-- Node32&#45;&gt;Node3 -->
<g id="edge88" class="edge">
<title>Node32&#45;&gt;Node3</title>
<path fill="none" stroke="midnightblue" d="M1698.76,-624.58C1538.08,-622.78 985.74,-614.2 813,-580 667.65,-551.22 628.32,-540.31 499,-468 330.92,-374.01 126.86,-258.37 252,-112 282.35,-76.5 419.38,-68.83 492.19,-67.29"/>
<polygon fill="midnightblue" stroke="midnightblue" points="492.51,-70.78 502.45,-67.1 492.39,-63.78 492.51,-70.78"/>
</g>
<!-- Node32&#45;&gt;Node8 -->
<g id="edge80" class="edge">
<title>Node32&#45;&gt;Node8</title>
<path fill="none" stroke="midnightblue" d="M1787.12,-624.5C1918.2,-622.65 2303.65,-614.34 2424,-580 2668.15,-510.33 2778.82,-474.16 2886,-244 2922.02,-166.64 2923.62,-93.57 2847,-56 2779.31,-22.81 2561.26,-14.1 2453.89,-11.81"/>
<polygon fill="midnightblue" stroke="midnightblue" points="2453.92,-8.31 2443.85,-11.61 2453.78,-15.31 2453.92,-8.31"/>
</g>
<!-- Node32&#45;&gt;Node10 -->
<g id="edge81" class="edge">
<title>Node32&#45;&gt;Node10</title>
<path fill="none" stroke="midnightblue" d="M1787.21,-625.94C1863.98,-626.33 2026.08,-621.55 2155,-580 2439.8,-488.21 2838.51,-335.01 2639,-112 2580.07,-46.13 1933.6,-18.27 1770.96,-12.28"/>
<polygon fill="midnightblue" stroke="midnightblue" points="1770.65,-8.76 1760.53,-11.9 1770.4,-15.76 1770.65,-8.76"/>
</g>
<!-- Node32&#45;&gt;Node14 -->
<g id="edge92" class="edge">
<title>Node32&#45;&gt;Node14</title>
<path fill="none" stroke="midnightblue" d="M1698.86,-633.12C1558.94,-652.53 1126.59,-712.5 991.06,-731.3"/>
<polygon fill="midnightblue" stroke="midnightblue" points="990.51,-727.85 981.09,-732.69 991.47,-734.78 990.51,-727.85"/>
</g>
<!-- Node32&#45;&gt;Node16 -->
<g id="edge87" class="edge">
<title>Node32&#45;&gt;Node16</title>
<path fill="none" stroke="midnightblue" d="M1698.98,-625.03C1585.48,-624.51 1273.84,-619.31 1018,-580 915.72,-564.29 886.81,-565.47 792,-524 702.33,-484.78 608,-500.88 608,-403 608,-403 608,-403 608,-345 608,-265.55 575.86,-223.2 633,-168 659.96,-141.96 909.67,-128.96 1012.78,-124.66"/>
<polygon fill="midnightblue" stroke="midnightblue" points="1013.03,-128.15 1022.87,-124.25 1012.74,-121.16 1013.03,-128.15"/>
</g>
<!-- Node32&#45;&gt;Node19 -->
<g id="edge79" class="edge">
<title>Node32&#45;&gt;Node19</title>
<path fill="none" stroke="midnightblue" d="M1787.3,-622.18C1866.58,-616.62 2029.26,-602.79 2081,-580 2187.39,-533.14 2432.83,-349.35 2482,-244 2485.76,-235.95 2487.3,-231.14 2482,-224 2446.78,-176.52 2270.79,-142.6 2189.85,-129.27"/>
<polygon fill="midnightblue" stroke="midnightblue" points="2189.97,-125.74 2179.54,-127.59 2188.85,-132.65 2189.97,-125.74"/>
</g>
<!-- Node32&#45;&gt;Node20 -->
<g id="edge82" class="edge">
<title>Node32&#45;&gt;Node20</title>
<path fill="none" stroke="midnightblue" d="M1698.92,-624.68C1569.84,-623.34 1194.4,-616.32 1078,-580 1031.58,-565.52 1011.66,-563.99 984,-524 922.01,-434.38 948.53,-371.31 1008,-280 1049.03,-217 1120.92,-162.21 1156.62,-137.29"/>
<polygon fill="midnightblue" stroke="midnightblue" points="1158.62,-140.16 1164.88,-131.61 1154.66,-134.4 1158.62,-140.16"/>
</g>
<!-- Node32&#45;&gt;Node21 -->
<g id="edge83" class="edge">
<title>Node32&#45;&gt;Node21</title>
<path fill="none" stroke="midnightblue" d="M1698.87,-623.26C1537.38,-616.3 988,-587.32 988,-515 988,-515 988,-515 988,-401 988,-162.66 1239.44,-224.44 1471,-168 1550.96,-148.51 1646.64,-134.34 1697.35,-127.53"/>
<polygon fill="midnightblue" stroke="midnightblue" points="1698.02,-130.98 1707.47,-126.19 1697.1,-124.04 1698.02,-130.98"/>
</g>
<!-- Node32&#45;&gt;Node22 -->
<g id="edge84" class="edge">
<title>Node32&#45;&gt;Node22</title>
<path fill="none" stroke="midnightblue" d="M1787.35,-623.69C1924.15,-619.39 2333.6,-604.59 2388,-580 2576.47,-494.8 2635.64,-437.01 2710,-244 2728.87,-195.03 2663.67,-155.21 2623.08,-135.81"/>
<polygon fill="midnightblue" stroke="midnightblue" points="2624.4,-132.56 2613.85,-131.55 2621.46,-138.92 2624.4,-132.56"/>
</g>
<!-- Node32&#45;&gt;Node23 -->
<g id="edge85" class="edge">
<title>Node32&#45;&gt;Node23</title>
<path fill="none" stroke="midnightblue" d="M1787.12,-625.42C1857.97,-624.83 2000.62,-618.41 2114,-580 2303.66,-515.74 2351.1,-463.3 2467,-300 2488.11,-270.25 2515.47,-256.02 2498,-224 2468.72,-170.34 2401.52,-145.01 2349.41,-133.17"/>
<polygon fill="midnightblue" stroke="midnightblue" points="2350.05,-129.73 2339.54,-131.05 2348.58,-136.57 2350.05,-129.73"/>
</g>
<!-- Node32&#45;&gt;Node24 -->
<g id="edge89" class="edge">
<title>Node32&#45;&gt;Node24</title>
<path fill="none" stroke="midnightblue" d="M1698.74,-620.11C1610.19,-610.33 1411.22,-588.36 1312.23,-577.43"/>
<polygon fill="midnightblue" stroke="midnightblue" points="1312.43,-573.93 1302.1,-576.31 1311.66,-580.89 1312.43,-573.93"/>
</g>
<!-- Node32&#45;&gt;Node26 -->
<g id="edge90" class="edge">
<title>Node32&#45;&gt;Node26</title>
<path fill="none" stroke="midnightblue" d="M1787.3,-620.38C1880.85,-609.39 2090,-577.8 2090,-515 2090,-515 2090,-515 2090,-401 2090,-319.6 1989.87,-268.9 1934.99,-247.23"/>
<polygon fill="midnightblue" stroke="midnightblue" points="1936.21,-243.95 1925.62,-243.64 1933.71,-250.49 1936.21,-243.95"/>
</g>
<!-- Node32&#45;&gt;Node27 -->
<g id="edge94" class="edge">
<title>Node32&#45;&gt;Node27</title>
<path fill="none" stroke="midnightblue" d="M1787.02,-620.93C1856.82,-614.39 1988.95,-600.18 2032,-580 2065.92,-564.1 2071.53,-553.2 2095,-524 2167.72,-433.55 2207,-394.49 2188,-280 2183.72,-254.21 2187.63,-243.3 2170,-224 2153.89,-206.37 2129.74,-195.39 2109.47,-188.7"/>
<polygon fill="midnightblue" stroke="midnightblue" points="2110.47,-185.35 2099.88,-185.75 2108.41,-192.04 2110.47,-185.35"/>
</g>
<!-- Node32&#45;&gt;Node29 -->
<g id="edge91" class="edge">
<title>Node32&#45;&gt;Node29</title>
<path fill="none" stroke="midnightblue" d="M1698.91,-624.28C1547.43,-621.57 1048.94,-610.49 892,-580 816.81,-565.39 799.74,-553.39 729,-524 595.46,-468.52 456,-491.6 456,-347 456,-347 456,-347 456,-233 456,-193.08 482.61,-186.47 518,-168 562.69,-144.68 710.89,-130.64 777.31,-125.38"/>
<polygon fill="midnightblue" stroke="midnightblue" points="777.91,-128.84 787.61,-124.58 777.37,-121.86 777.91,-128.84"/>
</g>
<!-- Node32&#45;&gt;Node30 -->
<g id="edge93" class="edge">
<title>Node32&#45;&gt;Node30</title>
<path fill="none" stroke="midnightblue" d="M1698.71,-619.23C1670.19,-613.5 1633.93,-602.19 1609,-580 1592.78,-565.56 1569.84,-507.64 1558.65,-477.47"/>
<polygon fill="midnightblue" stroke="midnightblue" points="1561.82,-475.94 1555.1,-467.75 1555.24,-478.34 1561.82,-475.94"/>
</g>
<!-- Node33 -->
<g id="node33" class="node">
<title>Node33</title>
<g id="a_node33"><a xlink:title=" ">
<polygon fill="none" stroke="#bfbfbf" points="1618.5,-560.5 1618.5,-579.5 1693.5,-579.5 1693.5,-560.5 1618.5,-560.5"/>
<text text-anchor="middle" x="1656" y="-567.5" font-family="Helvetica,sans-Serif" font-size="10.00">petscerror.h</text>
</a>
</g>
</g>
<!-- Node32&#45;&gt;Node33 -->
<g id="edge86" class="edge">
<title>Node32&#45;&gt;Node33</title>
<path fill="none" stroke="midnightblue" d="M1729.02,-616.32C1715.45,-607.9 1694.62,-594.97 1678.68,-585.07"/>
<polygon fill="midnightblue" stroke="midnightblue" points="1680.29,-581.95 1669.94,-579.65 1676.59,-587.9 1680.29,-581.95"/>
</g>
<!-- Node34&#45;&gt;Node3 -->
<g id="edge102" class="edge">
<title>Node34&#45;&gt;Node3</title>
<path fill="none" stroke="midnightblue" d="M1594.49,-280.15C1588.78,-249.8 1565.41,-149.72 1500,-112 1420.16,-65.96 764.26,-65.85 583.8,-66.7"/>
<polygon fill="midnightblue" stroke="midnightblue" points="583.57,-63.2 573.59,-66.75 583.61,-70.2 583.57,-63.2"/>
</g>
<!-- Node34&#45;&gt;Node8 -->
<g id="edge98" class="edge">
<title>Node34&#45;&gt;Node8</title>
<path fill="none" stroke="midnightblue" d="M1610.34,-280.35C1674.71,-241.64 1937.9,-85.01 2029,-56 2132.15,-23.15 2258.82,-14.08 2332.29,-11.7"/>
<polygon fill="midnightblue" stroke="midnightblue" points="2332.4,-15.2 2342.29,-11.41 2332.2,-8.2 2332.4,-15.2"/>
</g>
<!-- Node34&#45;&gt;Node14 -->
<g id="edge103" class="edge">
<title>Node34&#45;&gt;Node14</title>
<path fill="none" stroke="midnightblue" d="M1580.01,-299.54C1563.86,-308.29 1538.34,-322.49 1517,-336 1370.31,-428.84 1335.69,-455.59 1197,-560 1154.08,-592.31 1145.09,-602.62 1103,-636 1071.24,-661.19 1064.82,-669.65 1031,-692 1013.27,-703.72 992.28,-715.32 976.1,-723.81"/>
<polygon fill="midnightblue" stroke="midnightblue" points="974.47,-720.72 967.2,-728.43 977.69,-726.93 974.47,-720.72"/>
</g>
<!-- Node34&#45;&gt;Node15 -->
<g id="edge97" class="edge">
<title>Node34&#45;&gt;Node15</title>
<path fill="none" stroke="midnightblue" d="M1547.74,-283.28C1383.5,-263.81 848.47,-200.39 704.15,-183.28"/>
<polygon fill="midnightblue" stroke="midnightblue" points="704.4,-179.79 694.06,-182.09 703.58,-186.74 704.4,-179.79"/>
</g>
<!-- Node34&#45;&gt;Node16 -->
<g id="edge100" class="edge">
<title>Node34&#45;&gt;Node16</title>
<path fill="none" stroke="midnightblue" d="M1568.16,-280.42C1478.34,-252.76 1196.24,-165.88 1094.25,-134.47"/>
<polygon fill="midnightblue" stroke="midnightblue" points="1095.26,-131.12 1084.68,-131.52 1093.2,-137.81 1095.26,-131.12"/>
</g>
<!-- Node34&#45;&gt;Node21 -->
<g id="edge101" class="edge">
<title>Node34&#45;&gt;Node21</title>
<path fill="none" stroke="midnightblue" d="M1606.1,-280.24C1625.01,-263.55 1666.39,-225.47 1695,-188 1706.38,-173.1 1716.94,-154.49 1724.02,-141.01"/>
<polygon fill="midnightblue" stroke="midnightblue" points="1727.27,-142.34 1728.72,-131.84 1721.04,-139.14 1727.27,-142.34"/>
</g>
<!-- Node34&#45;&gt;Node25 -->
<g id="edge99" class="edge">
<title>Node34&#45;&gt;Node25</title>
<path fill="none" stroke="midnightblue" d="M1600.63,-280.37C1610.28,-262.38 1632.71,-220.55 1645.55,-196.63"/>
<polygon fill="midnightblue" stroke="midnightblue" points="1648.75,-198.06 1650.39,-187.59 1642.58,-194.75 1648.75,-198.06"/>
</g>
<!-- Node34&#45;&gt;Node26 -->
<g id="edge104" class="edge">
<title>Node34&#45;&gt;Node26</title>
<path fill="none" stroke="midnightblue" d="M1644.17,-280.44C1697.87,-270.9 1784.69,-255.48 1842.05,-245.29"/>
<polygon fill="midnightblue" stroke="midnightblue" points="1842.82,-248.71 1852.06,-243.52 1841.6,-241.82 1842.82,-248.71"/>
</g>
<!-- Node35&#45;&gt;Node3 -->
<g id="edge106" class="edge">
<title>Node35&#45;&gt;Node3</title>
<path fill="none" stroke="midnightblue" d="M1129.72,-339.53C1095.55,-333.76 1048.17,-322.27 1012,-300 915.82,-240.79 940.65,-165.16 841,-112 797.4,-88.74 657.4,-75.53 583.95,-70.04"/>
<polygon fill="midnightblue" stroke="midnightblue" points="583.85,-66.53 573.62,-69.29 583.34,-73.51 583.85,-66.53"/>
</g>
<!-- Node35&#45;&gt;Node14 -->
<g id="edge108" class="edge">
<title>Node35&#45;&gt;Node14</title>
<path fill="none" stroke="midnightblue" d="M1129.59,-354.5C996.16,-378.29 608,-457.11 608,-569 608,-627 608,-627 608,-627 608,-673.85 648.18,-672.97 691,-692 762.99,-723.99 855.65,-733.3 908.37,-735.97"/>
<polygon fill="midnightblue" stroke="midnightblue" points="908.53,-739.48 918.68,-736.43 908.85,-732.49 908.53,-739.48"/>
</g>
<!-- Node35&#45;&gt;Node31 -->
<g id="edge107" class="edge">
<title>Node35&#45;&gt;Node31</title>
<path fill="none" stroke="midnightblue" d="M1218.02,-352.82C1225.73,-353.96 1233.62,-355.09 1241,-356 1396.36,-375.23 1580.58,-390.14 1667.72,-396.95"/>
<polygon fill="midnightblue" stroke="midnightblue" points="1667.62,-400.45 1677.86,-397.74 1668.16,-393.47 1667.62,-400.45"/>
</g>
<!-- Node36&#45;&gt;Node3 -->
<g id="edge119" class="edge">
<title>Node36&#45;&gt;Node3</title>
<path fill="none" stroke="midnightblue" d="M1540.31,-336.46C1516.17,-328.67 1481.19,-315.97 1453,-300 1334.49,-232.89 1338.29,-160.44 1211,-112 1095.92,-68.21 715.73,-66 583.67,-66.6"/>
<polygon fill="midnightblue" stroke="midnightblue" points="583.48,-63.1 573.5,-66.66 583.52,-70.1 583.48,-63.1"/>
</g>
<!-- Node36&#45;&gt;Node8 -->
<g id="edge111" class="edge">
<title>Node36&#45;&gt;Node8</title>
<path fill="none" stroke="midnightblue" d="M1603.89,-336.47C1640.19,-327.56 1698.65,-313.07 1749,-300 1795.33,-287.97 1915.56,-267.96 1957,-244 1992.91,-223.24 2057.63,-139.15 2089,-112 2120.46,-84.78 2125.98,-72.88 2164,-56 2218,-32.04 2284.77,-20.77 2332.25,-15.51"/>
<polygon fill="midnightblue" stroke="midnightblue" points="2332.8,-18.98 2342.38,-14.45 2332.06,-12.02 2332.8,-18.98"/>
</g>
<!-- Node36&#45;&gt;Node10 -->
<g id="edge112" class="edge">
<title>Node36&#45;&gt;Node10</title>
<path fill="none" stroke="midnightblue" d="M1560.79,-336.18C1553.46,-327.66 1543.24,-314.02 1539,-300 1536.42,-291.49 1538.17,-288.85 1539,-280 1543.24,-234.52 1558,-224.68 1558,-179 1558,-179 1558,-179 1558,-121 1558,-55.94 1645.55,-27.93 1697.16,-17.08"/>
<polygon fill="midnightblue" stroke="midnightblue" points="1698.14,-20.45 1707.27,-15.07 1696.78,-13.58 1698.14,-20.45"/>
</g>
<!-- Node36&#45;&gt;Node14 -->
<g id="edge123" class="edge">
<title>Node36&#45;&gt;Node14</title>
<path fill="none" stroke="midnightblue" d="M1550.32,-355.56C1531.08,-364.45 1500.28,-378.86 1474,-392 1291.4,-483.28 1238.34,-496.26 1073,-616 1039.88,-639.98 1028.93,-643.1 1000,-672 985.1,-686.88 970.73,-706.26 961.25,-719.97"/>
<polygon fill="midnightblue" stroke="midnightblue" points="958.23,-718.19 955.52,-728.44 964.03,-722.12 958.23,-718.19"/>
</g>
<!-- Node36&#45;&gt;Node16 -->
<g id="edge116" class="edge">
<title>Node36&#45;&gt;Node16</title>
<path fill="none" stroke="midnightblue" d="M1525.78,-340.37C1481.09,-334.6 1409.88,-322.61 1352,-300 1239.87,-256.19 1121.43,-171.64 1076.13,-137.66"/>
<polygon fill="midnightblue" stroke="midnightblue" points="1078.16,-134.81 1068.07,-131.57 1073.94,-140.39 1078.16,-134.81"/>
</g>
<!-- Node36&#45;&gt;Node18 -->
<g id="edge126" class="edge">
<title>Node36&#45;&gt;Node18</title>
<path fill="none" stroke="midnightblue" d="M1612.12,-353.72C1748.3,-375.93 2164.37,-451.8 2236,-560 2256.83,-591.46 2241.82,-637.84 2230.82,-663.07"/>
<polygon fill="midnightblue" stroke="midnightblue" points="2227.62,-661.65 2226.6,-672.19 2233.97,-664.58 2227.62,-661.65"/>
</g>
<!-- Node36&#45;&gt;Node19 -->
<g id="edge110" class="edge">
<title>Node36&#45;&gt;Node19</title>
<path fill="none" stroke="midnightblue" d="M1585.46,-336.35C1610.24,-323.46 1658.72,-298.71 1701,-280 1847.78,-215.05 2030.52,-158.06 2109.55,-134.51"/>
<polygon fill="midnightblue" stroke="midnightblue" points="2110.96,-137.74 2119.55,-131.54 2108.97,-131.03 2110.96,-137.74"/>
</g>
<!-- Node36&#45;&gt;Node20 -->
<g id="edge113" class="edge">
<title>Node36&#45;&gt;Node20</title>
<path fill="none" stroke="midnightblue" d="M1525.94,-338.83C1489.08,-332.46 1435.28,-320.48 1392,-300 1305.26,-258.95 1224.03,-174.73 1192.18,-139.29"/>
<polygon fill="midnightblue" stroke="midnightblue" points="1194.75,-136.91 1185.5,-131.75 1189.52,-141.56 1194.75,-136.91"/>
</g>
<!-- Node36&#45;&gt;Node21 -->
<g id="edge114" class="edge">
<title>Node36&#45;&gt;Node21</title>
<path fill="none" stroke="midnightblue" d="M1548.15,-336.43C1533.42,-329.13 1514.8,-317.09 1506,-300 1501.93,-292.1 1502.65,-288.24 1506,-280 1532.15,-215.65 1556.96,-206.16 1615,-168 1640.44,-151.27 1673,-139.45 1697.47,-132.14"/>
<polygon fill="midnightblue" stroke="midnightblue" points="1698.45,-135.5 1707.09,-129.37 1696.51,-128.77 1698.45,-135.5"/>
</g>
<!-- Node36&#45;&gt;Node22 -->
<g id="edge115" class="edge">
<title>Node36&#45;&gt;Node22</title>
<path fill="none" stroke="midnightblue" d="M1612.19,-340.35C1673.58,-333.4 1789.46,-319.07 1887,-300 2144.1,-249.73 2447.79,-164.8 2554,-134.32"/>
<polygon fill="midnightblue" stroke="midnightblue" points="2555.01,-137.67 2563.66,-131.54 2553.08,-130.94 2555.01,-137.67"/>
</g>
<!-- Node36&#45;&gt;Node23 -->
<g id="edge117" class="edge">
<title>Node36&#45;&gt;Node23</title>
<path fill="none" stroke="midnightblue" d="M1612.39,-340.28C1666.01,-333.87 1759.74,-320.77 1838,-300 1977.17,-263.07 2009.19,-243.62 2142,-188 2181.55,-171.44 2226.27,-149.82 2253.81,-136.17"/>
<polygon fill="midnightblue" stroke="midnightblue" points="2255.4,-139.29 2262.79,-131.7 2252.28,-133.03 2255.4,-139.29"/>
</g>
<!-- Node36&#45;&gt;Node24 -->
<g id="edge120" class="edge">
<title>Node36&#45;&gt;Node24</title>
<path fill="none" stroke="midnightblue" d="M1556.74,-355.64C1508.96,-389.32 1334.94,-511.96 1274.69,-554.42"/>
<polygon fill="midnightblue" stroke="midnightblue" points="1272.51,-551.68 1266.35,-560.3 1276.54,-557.4 1272.51,-551.68"/>
</g>
<!-- Node36&#45;&gt;Node26 -->
<g id="edge121" class="edge">
<title>Node36&#45;&gt;Node26</title>
<path fill="none" stroke="midnightblue" d="M1594.7,-336.46C1653.36,-316.97 1797.21,-269.16 1864.38,-246.84"/>
<polygon fill="midnightblue" stroke="midnightblue" points="1865.7,-250.09 1874.09,-243.61 1863.5,-243.44 1865.7,-250.09"/>
</g>
<!-- Node36&#45;&gt;Node28 -->
<g id="edge118" class="edge">
<title>Node36&#45;&gt;Node28</title>
<path fill="none" stroke="midnightblue" d="M1527.01,-336.48C1506.03,-330.02 1482.16,-318.89 1468,-300 1432.41,-252.51 1436.62,-177.12 1441.01,-142.07"/>
<polygon fill="midnightblue" stroke="midnightblue" points="1444.52,-142.22 1442.45,-131.83 1437.59,-141.25 1444.52,-142.22"/>
</g>
<!-- Node36&#45;&gt;Node29 -->
<g id="edge122" class="edge">
<title>Node36&#45;&gt;Node29</title>
<path fill="none" stroke="midnightblue" d="M1525.69,-339.93C1473.16,-333.25 1382.18,-319.95 1306,-300 1124.43,-252.45 915.12,-167.35 839.31,-135.49"/>
<polygon fill="midnightblue" stroke="midnightblue" points="840.49,-132.19 829.92,-131.53 837.77,-138.64 840.49,-132.19"/>
</g>
<!-- Node36&#45;&gt;Node30 -->
<g id="edge124" class="edge">
<title>Node36&#45;&gt;Node30</title>
<path fill="none" stroke="midnightblue" d="M1567.67,-355.59C1564.93,-373.31 1558.61,-414.25 1554.88,-438.35"/>
<polygon fill="midnightblue" stroke="midnightblue" points="1551.4,-437.95 1553.33,-448.37 1558.32,-439.02 1551.4,-437.95"/>
</g>
<!-- Node36&#45;&gt;Node31 -->
<g id="edge128" class="edge">
<title>Node36&#45;&gt;Node31</title>
<path fill="none" stroke="midnightblue" d="M1597.58,-355.52C1624.25,-364.47 1663.55,-378.63 1690.02,-388.77"/>
<polygon fill="midnightblue" stroke="midnightblue" points="1688.89,-392.09 1699.48,-392.44 1691.42,-385.56 1688.89,-392.09"/>
</g>
<!-- Node36&#45;&gt;Node32 -->
<g id="edge125" class="edge">
<title>Node36&#45;&gt;Node32</title>
<path fill="none" stroke="midnightblue" d="M1574.34,-355.52C1598.61,-394.31 1698.9,-554.54 1732.2,-607.74"/>
<polygon fill="midnightblue" stroke="midnightblue" points="1729.33,-609.76 1737.6,-616.38 1735.26,-606.04 1729.33,-609.76"/>
</g>
<!-- Node36&#45;&gt;Node34 -->
<g id="edge127" class="edge">
<title>Node36&#45;&gt;Node34</title>
<path fill="none" stroke="midnightblue" d="M1573.46,-336.08C1577.15,-328.69 1582.52,-317.95 1587.09,-308.81"/>
<polygon fill="midnightblue" stroke="midnightblue" points="1590.28,-310.26 1591.62,-299.75 1584.02,-307.13 1590.28,-310.26"/>
</g>
<!-- Node37&#45;&gt;Node3 -->
<g id="edge138" class="edge">
<title>Node37&#45;&gt;Node3</title>
<path fill="none" stroke="midnightblue" d="M843.86,-504.35C797.2,-470.33 628.43,-340.19 556,-188 540.09,-154.56 537.5,-110.53 537.47,-85.86"/>
<polygon fill="midnightblue" stroke="midnightblue" points="540.97,-85.75 537.6,-75.71 533.97,-85.66 540.97,-85.75"/>
</g>
<!-- Node37&#45;&gt;Node10 -->
<g id="edge140" class="edge">
<title>Node37&#45;&gt;Node10</title>
<path fill="none" stroke="midnightblue" d="M853.02,-504.5C836.82,-458.22 760,-238.65 760,-235 760,-235 760,-235 760,-121 760,-24.8 1519.97,-12.72 1697.32,-11.21"/>
<polygon fill="midnightblue" stroke="midnightblue" points="1697.47,-14.71 1707.44,-11.13 1697.42,-7.71 1697.47,-14.71"/>
</g>
<!-- Node37&#45;&gt;Node14 -->
<g id="edge139" class="edge">
<title>Node37&#45;&gt;Node14</title>
<path fill="none" stroke="midnightblue" d="M827.84,-514.36C793.19,-515.29 735.58,-522.78 708,-560 673.07,-607.13 670.5,-646.88 708,-692 733.05,-722.13 846.4,-732.19 908.68,-735.47"/>
<polygon fill="midnightblue" stroke="midnightblue" points="908.8,-738.98 918.95,-735.97 909.14,-731.98 908.8,-738.98"/>
</g>
<!-- Node37&#45;&gt;Node15 -->
<g id="edge137" class="edge">
<title>Node37&#45;&gt;Node15</title>
<path fill="none" stroke="midnightblue" d="M850.48,-504.46C842.31,-491.92 826.41,-467.85 812,-448 800.09,-431.6 794.79,-429.16 784,-412 736.07,-335.81 692.5,-237.11 675.52,-197.07"/>
<polygon fill="midnightblue" stroke="midnightblue" points="678.72,-195.66 671.62,-187.8 672.27,-198.37 678.72,-195.66"/>
</g>
<!-- Node37&#45;&gt;Node27 -->
<g id="edge142" class="edge">
<title>Node37&#45;&gt;Node27</title>
<path fill="none" stroke="midnightblue" d="M884.27,-512.49C1074.99,-508.66 2166,-480.9 2166,-347 2166,-347 2166,-347 2166,-289 2166,-246.31 2124.65,-211.64 2097.09,-193.28"/>
<polygon fill="midnightblue" stroke="midnightblue" points="2098.67,-190.13 2088.36,-187.69 2094.89,-196.03 2098.67,-190.13"/>
</g>
<!-- Node37&#45;&gt;Node30 -->
<g id="edge141" class="edge">
<title>Node37&#45;&gt;Node30</title>
<path fill="none" stroke="midnightblue" d="M884.15,-510.82C996.5,-502.1 1412.21,-469.85 1524.11,-461.16"/>
<polygon fill="midnightblue" stroke="midnightblue" points="1524.55,-464.64 1534.25,-460.38 1524.01,-457.66 1524.55,-464.64"/>
</g>
<!-- Node38&#45;&gt;Node3 -->
<g id="edge152" class="edge">
<title>Node38&#45;&gt;Node3</title>
<path fill="none" stroke="midnightblue" d="M85.56,-784.47C82.58,-766.02 76,-721 76,-683 76,-683 76,-683 76,-177 76,-146.2 75.67,-130.87 100,-112 130.54,-88.31 386.24,-73.96 492.24,-68.98"/>
<polygon fill="midnightblue" stroke="midnightblue" points="492.49,-72.48 502.32,-68.52 492.17,-65.48 492.49,-72.48"/>
</g>
<!-- Node38&#45;&gt;Node14 -->
<g id="edge153" class="edge">
<title>Node38&#45;&gt;Node14</title>
<path fill="none" stroke="midnightblue" d="M107.91,-791.69C220.4,-784.65 754.35,-751.24 908.34,-741.61"/>
<polygon fill="midnightblue" stroke="midnightblue" points="909,-745.07 918.76,-740.95 908.56,-738.09 909,-745.07"/>
</g>
<!-- Node39&#45;&gt;Node3 -->
<g id="edge158" class="edge">
<title>Node39&#45;&gt;Node3</title>
<path fill="none" stroke="midnightblue" d="M68.28,-840.46C58.73,-822.34 38,-778.48 38,-739 38,-739 38,-739 38,-177 38,-142.84 49.93,-129.94 79,-112 147.28,-69.87 389.95,-66.12 492.12,-66.48"/>
<polygon fill="midnightblue" stroke="midnightblue" points="492.41,-69.99 502.43,-66.54 492.45,-62.99 492.41,-69.99"/>
</g>
<!-- Node39&#45;&gt;Node38 -->
<g id="edge159" class="edge">
<title>Node39&#45;&gt;Node38</title>
<path fill="none" stroke="midnightblue" d="M75.31,-840.08C77.17,-832.93 79.84,-822.64 82.15,-813.69"/>
<polygon fill="midnightblue" stroke="midnightblue" points="85.61,-814.31 84.73,-803.75 78.83,-812.55 85.61,-814.31"/>
</g>
</g>
</svg>
