<?xml version="1.0" encoding="UTF-8" standalone="no"?>
<!DOCTYPE svg PUBLIC "-//W3C//DTD SVG 1.1//EN"
 "http://www.w3.org/Graphics/SVG/1.1/DTD/svg11.dtd">
<!-- Generated by graphviz version 2.43.0 (0)
 -->
<!-- Title: Flow_Solver Pages: 1 -->
<!--zoomable 769 -->
<svg id="main" version="1.1" xmlns="http://www.w3.org/2000/svg" xmlns:xlink="http://www.w3.org/1999/xlink" xml:space="preserve" onload="init(evt)">
<style type="text/css"><![CDATA[
.edge:hover path { stroke: red; }
.edge:hover polygon { stroke: red; fill: red; }
]]></style>
<script type="text/javascript"><![CDATA[
var edges = document.getElementsByTagName('g');
if (edges && edges.length) {
  for (var i=0;i<edges.length;i++) {
    if (edges[i].id.substr(0,4)=='edge') {
      edges[i].setAttribute('class','edge');
    }
  }
}
]]></script>
        <defs>
                <circle id="rim" cx="0" cy="0" r="7"/>
                <circle id="rim2" cx="0" cy="0" r="3.5"/>
                <g id="zoomPlus">
                        <use xlink:href="#rim" fill="#404040">
                                <set attributeName="fill" to="#808080" begin="zoomplus.mouseover" end="zoomplus.mouseout"/>
                        </use>
                        <path d="M-4,0h8M0,-4v8" fill="none" stroke="white" stroke-width="1.5" pointer-events="none"/>
                </g>
                <g id="zoomMin">
                        <use xlink:href="#rim" fill="#404040">
                                <set attributeName="fill" to="#808080" begin="zoomminus.mouseover" end="zoomminus.mouseout"/>
                        </use>
                        <path d="M-4,0h8" fill="none" stroke="white" stroke-width="1.5" pointer-events="none"/>
                </g>
                <g id="dirArrow">
                        <path fill="none" stroke="white" stroke-width="1.5" d="M0,-3.0v7 M-2.5,-0.5L0,-3.0L2.5,-0.5"/>
                </g>
               <g id="resetDef">
                       <use xlink:href="#rim2" fill="#404040">
                               <set attributeName="fill" to="#808080" begin="reset.mouseover" end="reset.mouseout"/>
                       </use>
               </g>
        </defs>

<script type="text/javascript">
var viewWidth = 1203;
var viewHeight = 769;
var sectionId = 'dynsection-1';
</script>
<script xlink:href="svgpan.js"/>
<svg id="graph" class="graph">
<g id="viewport">
<title>Flow_Solver</title>
<!-- Node1 -->
<g id="node1" class="node">
<title>Node1</title>
<g id="a_node1"><a xlink:title="Orchestrates a single time step of the Eulerian fluid solver.">
<polygon fill="#bfbfbf" stroke="black" points="0,-456.5 0,-475.5 76,-475.5 76,-456.5 0,-456.5"/>
<text text-anchor="middle" x="38" y="-463.5" font-family="Helvetica,sans-Serif" font-size="10.00">Flow_Solver</text>
</a>
</g>
</g>
<!-- Node2 -->
<g id="node2" class="node">
<title>Node2</title>
<g id="a_node2"><a xlink:href="setup_8h.html#abab14dc7f20644674b043609950eefe2" target="_top" xlink:title=" ">
<polygon fill="none" stroke="black" points="130,-646.5 130,-665.5 246,-665.5 246,-646.5 130,-646.5"/>
<text text-anchor="middle" x="188" y="-653.5" font-family="Helvetica,sans-Serif" font-size="10.00">ComputeDivergence</text>
</a>
</g>
</g>
<!-- Node1&#45;&gt;Node2 -->
<g id="edge1" class="edge">
<title>Node1&#45;&gt;Node2</title>
<path fill="none" stroke="midnightblue" d="M42.6,-475.53C51.64,-498.6 77.09,-558.5 112,-599 126.28,-615.57 146.11,-630.38 161.8,-640.75"/>
<polygon fill="midnightblue" stroke="midnightblue" points="160.17,-643.87 170.48,-646.33 163.95,-637.98 160.17,-643.87"/>
</g>
<!-- Node4 -->
<g id="node4" class="node">
<title>Node4</title>
<g id="a_node4"><a xlink:href="implicitsolvers_8c.html#a148a238901a4674420c87137c087e3ac" target="_top" xlink:title="Advances the momentum equations using an iterative explicit Runge&#45;Kutta scheme.">
<polygon fill="none" stroke="black" points="163.5,-570.5 163.5,-589.5 212.5,-589.5 212.5,-570.5 163.5,-570.5"/>
<text text-anchor="middle" x="188" y="-577.5" font-family="Helvetica,sans-Serif" font-size="10.00">ImpRK</text>
</a>
</g>
</g>
<!-- Node1&#45;&gt;Node4 -->
<g id="edge3" class="edge">
<title>Node1&#45;&gt;Node4</title>
<path fill="none" stroke="midnightblue" d="M43.54,-475.52C53.24,-494.81 77.94,-538.59 112,-561 124.25,-569.06 139.69,-573.7 153.38,-576.37"/>
<polygon fill="midnightblue" stroke="midnightblue" points="152.97,-579.85 163.41,-578.06 154.13,-572.95 152.97,-579.85"/>
</g>
<!-- Node26 -->
<g id="node26" class="node">
<title>Node26</title>
<g id="a_node26"><a xlink:href="logging_8h.html#ab2315d3303d45c97ca55836603a8acd3" target="_top" xlink:title="Logs continuity metrics for a single block to a file.">
<polygon fill="none" stroke="black" points="112,-437.5 112,-456.5 264,-456.5 264,-437.5 112,-437.5"/>
<text text-anchor="middle" x="188" y="-444.5" font-family="Helvetica,sans-Serif" font-size="10.00">LOG_CONTINUITY_METRICS</text>
</a>
</g>
</g>
<!-- Node1&#45;&gt;Node26 -->
<g id="edge28" class="edge">
<title>Node1&#45;&gt;Node26</title>
<path fill="none" stroke="midnightblue" d="M76.35,-461.21C84.52,-460.16 93.5,-459 102.69,-457.82"/>
<polygon fill="midnightblue" stroke="midnightblue" points="103.24,-461.28 112.72,-456.54 102.35,-454.34 103.24,-461.28"/>
</g>
<!-- Node27 -->
<g id="node27" class="node">
<title>Node27</title>
<g id="a_node27"><a xlink:href="poisson_8h.html#acfdf6d56006b1b5f68d400deb6cf0959" target="_top" xlink:title="Solves the pressure&#45;Poisson equation using a geometric multigrid method.">
<polygon fill="none" stroke="black" points="134.5,-266.5 134.5,-285.5 241.5,-285.5 241.5,-266.5 134.5,-266.5"/>
<text text-anchor="middle" x="188" y="-273.5" font-family="Helvetica,sans-Serif" font-size="10.00">PoissonSolver_MG</text>
</a>
</g>
</g>
<!-- Node1&#45;&gt;Node27 -->
<g id="edge29" class="edge">
<title>Node1&#45;&gt;Node27</title>
<path fill="none" stroke="midnightblue" d="M46.54,-456.32C70.09,-426.09 142.49,-333.14 173.11,-293.84"/>
<polygon fill="midnightblue" stroke="midnightblue" points="175.91,-295.93 179.29,-285.89 170.39,-291.63 175.91,-295.93"/>
</g>
<!-- Node41 -->
<g id="node41" class="node">
<title>Node41</title>
<g id="a_node41"><a xlink:href="poisson_8h.html#a34a113dcc9ca606d914c3d021a4d85fc" target="_top" xlink:title="Corrects the contravariant velocity field Ucont to be divergence&#45;free using the gradient of the press...">
<polygon fill="none" stroke="black" points="345.5,-475.5 345.5,-494.5 410.5,-494.5 410.5,-475.5 345.5,-475.5"/>
<text text-anchor="middle" x="378" y="-482.5" font-family="Helvetica,sans-Serif" font-size="10.00">Projection</text>
</a>
</g>
</g>
<!-- Node1&#45;&gt;Node41 -->
<g id="edge44" class="edge">
<title>Node1&#45;&gt;Node41</title>
<path fill="none" stroke="midnightblue" d="M76.14,-468.09C139.62,-471.66 268.59,-478.91 335.16,-482.65"/>
<polygon fill="midnightblue" stroke="midnightblue" points="335.11,-486.15 345.29,-483.22 335.5,-479.16 335.11,-486.15"/>
</g>
<!-- Node46 -->
<g id="node46" class="node">
<title>Node46</title>
<g id="a_node46"><a xlink:href="implicitsolvers_8h.html#a89ae58d48076ba82dc70438b5e389bf5" target="_top" xlink:title="Advances the momentum equations using an explicit 4th&#45;order Runge&#45;Kutta scheme.">
<polygon fill="none" stroke="black" points="151.5,-532.5 151.5,-551.5 224.5,-551.5 224.5,-532.5 151.5,-532.5"/>
<text text-anchor="middle" x="188" y="-539.5" font-family="Helvetica,sans-Serif" font-size="10.00">RungeKutta</text>
</a>
</g>
</g>
<!-- Node1&#45;&gt;Node46 -->
<g id="edge51" class="edge">
<title>Node1&#45;&gt;Node46</title>
<path fill="none" stroke="midnightblue" d="M57.74,-475.63C83.43,-488.82 129.76,-512.61 159.41,-527.83"/>
<polygon fill="midnightblue" stroke="midnightblue" points="157.91,-531 168.41,-532.45 161.11,-524.77 157.91,-531"/>
</g>
<!-- Node47 -->
<g id="node47" class="node">
<title>Node47</title>
<g id="a_node47"><a xlink:href="setup_8h.html#ad5f82951adcce74b3d37cb5880acf43a" target="_top" xlink:title="Updates the local vector (including ghost points) from its corresponding global vector.">
<polygon fill="none" stroke="black" points="322.5,-19.5 322.5,-38.5 433.5,-38.5 433.5,-19.5 322.5,-19.5"/>
<text text-anchor="middle" x="378" y="-26.5" font-family="Helvetica,sans-Serif" font-size="10.00">UpdateLocalGhosts</text>
</a>
</g>
</g>
<!-- Node1&#45;&gt;Node47 -->
<g id="edge56" class="edge">
<title>Node1&#45;&gt;Node47</title>
<path fill="none" stroke="midnightblue" d="M40.96,-456.25C47.46,-425.35 70.31,-327.46 112,-257 127.91,-230.12 273.21,-64.06 300,-48 304.07,-45.56 308.43,-43.44 312.94,-41.58"/>
<polygon fill="midnightblue" stroke="midnightblue" points="314.16,-44.86 322.36,-38.15 311.76,-38.29 314.16,-44.86"/>
</g>
<!-- Node50 -->
<g id="node50" class="node">
<title>Node50</title>
<g id="a_node50"><a xlink:href="poisson_8h.html#a7cf2cfc0383ba0076f827f7d3856f2ed" target="_top" xlink:title="Updates the pressure field P with the pressure correction Phi computed by the Poisson solver.">
<polygon fill="none" stroke="black" points="141,-48.5 141,-67.5 235,-67.5 235,-48.5 141,-48.5"/>
<text text-anchor="middle" x="188" y="-55.5" font-family="Helvetica,sans-Serif" font-size="10.00">UpdatePressure</text>
</a>
</g>
</g>
<!-- Node1&#45;&gt;Node50 -->
<g id="edge59" class="edge">
<title>Node1&#45;&gt;Node50</title>
<path fill="none" stroke="midnightblue" d="M40.3,-456.42C45.57,-419.24 67.25,-281.41 112,-177 128.49,-138.53 156.51,-98.23 173.24,-75.8"/>
<polygon fill="midnightblue" stroke="midnightblue" points="176.21,-77.68 179.45,-67.59 170.62,-73.46 176.21,-77.68"/>
</g>
<!-- Node3 -->
<g id="node3" class="node">
<title>Node3</title>
<g id="a_node3"><a xlink:href="setup_8c.html#a3d538200fed5b9ee9d1ef391bb61036c" target="_top" xlink:title=" ">
<polygon fill="none" stroke="black" points="358.5,-684.5 358.5,-703.5 397.5,-703.5 397.5,-684.5 358.5,-684.5"/>
<text text-anchor="middle" x="378" y="-691.5" font-family="Helvetica,sans-Serif" font-size="10.00">Gidx</text>
</a>
</g>
</g>
<!-- Node2&#45;&gt;Node3 -->
<g id="edge2" class="edge">
<title>Node2&#45;&gt;Node3</title>
<path fill="none" stroke="midnightblue" d="M236.44,-665.59C271.7,-672.72 318.66,-682.21 348.37,-688.21"/>
<polygon fill="midnightblue" stroke="midnightblue" points="347.99,-691.71 358.48,-690.26 349.37,-684.84 347.99,-691.71"/>
</g>
<!-- Node5 -->
<g id="node5" class="node">
<title>Node5</title>
<g id="a_node5"><a xlink:href="rhs_8h.html#af191235c93d0d91fa83f8e3b0e9274d8" target="_top" xlink:title="Computes the Right&#45;Hand Side (RHS) of the momentum equations.">
<polygon fill="none" stroke="black" points="337.5,-551.5 337.5,-570.5 418.5,-570.5 418.5,-551.5 337.5,-551.5"/>
<text text-anchor="middle" x="378" y="-558.5" font-family="Helvetica,sans-Serif" font-size="10.00">ComputeRHS</text>
</a>
</g>
</g>
<!-- Node4&#45;&gt;Node5 -->
<g id="edge4" class="edge">
<title>Node4&#45;&gt;Node5</title>
<path fill="none" stroke="midnightblue" d="M212.81,-577.59C241.44,-574.7 290.25,-569.77 327.23,-566.03"/>
<polygon fill="midnightblue" stroke="midnightblue" points="327.72,-569.5 337.32,-565.01 327.02,-562.53 327.72,-569.5"/>
</g>
<!-- Node13 -->
<g id="node13" class="node">
<title>Node13</title>
<g id="a_node13"><a xlink:href="Boundaries_8h.html#adcd96cff4b9e15e03cdff9f5ea695dec" target="_top" xlink:title=" ">
<polygon fill="none" stroke="black" points="347.5,-589.5 347.5,-608.5 408.5,-608.5 408.5,-589.5 347.5,-589.5"/>
<text text-anchor="middle" x="378" y="-596.5" font-family="Helvetica,sans-Serif" font-size="10.00">FormBCS</text>
</a>
</g>
</g>
<!-- Node4&#45;&gt;Node13 -->
<g id="edge12" class="edge">
<title>Node4&#45;&gt;Node13</title>
<path fill="none" stroke="midnightblue" d="M212.81,-582.41C244.06,-585.56 299.35,-591.15 337.06,-594.96"/>
<polygon fill="midnightblue" stroke="midnightblue" points="336.89,-598.46 347.19,-595.99 337.6,-591.5 336.89,-598.46"/>
</g>
<!-- Node21 -->
<g id="node21" class="node">
<title>Node21</title>
<g id="a_node21"><a xlink:href="Boundaries_8h.html#abd9b573f8f42ea93e265da37a0673f24" target="_top" xlink:title="Applies inlet boundary conditions based on the modern BC handling system.">
<polygon fill="none" stroke="black" points="344,-646.5 344,-665.5 412,-665.5 412,-646.5 344,-646.5"/>
<text text-anchor="middle" x="378" y="-653.5" font-family="Helvetica,sans-Serif" font-size="10.00">InflowFlux</text>
</a>
</g>
</g>
<!-- Node4&#45;&gt;Node21 -->
<g id="edge23" class="edge">
<title>Node4&#45;&gt;Node21</title>
<path fill="none" stroke="midnightblue" d="M212.81,-589.63C246.01,-603.05 306.34,-627.43 343.9,-642.62"/>
<polygon fill="midnightblue" stroke="midnightblue" points="342.8,-645.95 353.38,-646.45 345.42,-639.46 342.8,-645.95"/>
</g>
<!-- Node25 -->
<g id="node25" class="node">
<title>Node25</title>
<g id="a_node25"><a xlink:href="Boundaries_8h.html#a684320111be78b3001fda2ba25638e79" target="_top" xlink:title="Calculates the total outgoing flux through all OUTLET faces for reporting.">
<polygon fill="none" stroke="black" points="340,-513.5 340,-532.5 416,-532.5 416,-513.5 340,-513.5"/>
<text text-anchor="middle" x="378" y="-520.5" font-family="Helvetica,sans-Serif" font-size="10.00">OutflowFlux</text>
</a>
</g>
</g>
<!-- Node4&#45;&gt;Node25 -->
<g id="edge27" class="edge">
<title>Node4&#45;&gt;Node25</title>
<path fill="none" stroke="midnightblue" d="M212.75,-575.49C227.73,-572.29 247.32,-567.41 264,-561 280.89,-554.51 283.09,-548.44 300,-542 309.46,-538.4 319.83,-535.3 329.82,-532.71"/>
<polygon fill="midnightblue" stroke="midnightblue" points="330.75,-536.09 339.62,-530.29 329.08,-529.29 330.75,-536.09"/>
</g>
<!-- Node6 -->
<g id="node6" class="node">
<title>Node6</title>
<g id="a_node6"><a xlink:href="setup_8h.html#a515c9a96eb4bcac29f79e78c8882d7aa" target="_top" xlink:title="Reconstructs Cartesian velocity (Ucat) at cell centers from contravariant velocity (Ucont) defined on...">
<polygon fill="none" stroke="black" points="514,-551.5 514,-570.5 589,-570.5 589,-551.5 514,-551.5"/>
<text text-anchor="middle" x="551.5" y="-558.5" font-family="Helvetica,sans-Serif" font-size="10.00">Contra2Cart</text>
</a>
</g>
</g>
<!-- Node5&#45;&gt;Node6 -->
<g id="edge5" class="edge">
<title>Node5&#45;&gt;Node6</title>
<path fill="none" stroke="midnightblue" d="M418.78,-561C444.11,-561 477.04,-561 503.64,-561"/>
<polygon fill="midnightblue" stroke="midnightblue" points="503.87,-564.5 513.87,-561 503.87,-557.5 503.87,-564.5"/>
</g>
<!-- Node7 -->
<g id="node7" class="node">
<title>Node7</title>
<g id="a_node7"><a xlink:href="rhs_8c.html#a59a4e489633014a0f4e1e85318d395d3" target="_top" xlink:title=" ">
<polygon fill="none" stroke="black" points="516,-513.5 516,-532.5 587,-532.5 587,-513.5 516,-513.5"/>
<text text-anchor="middle" x="551.5" y="-520.5" font-family="Helvetica,sans-Serif" font-size="10.00">Convection</text>
</a>
</g>
</g>
<!-- Node5&#45;&gt;Node7 -->
<g id="edge6" class="edge">
<title>Node5&#45;&gt;Node7</title>
<path fill="none" stroke="midnightblue" d="M418.78,-552.19C444.84,-546.41 478.94,-538.86 505.91,-532.88"/>
<polygon fill="midnightblue" stroke="midnightblue" points="506.87,-536.25 515.87,-530.67 505.35,-529.42 506.87,-536.25"/>
</g>
<!-- Node8 -->
<g id="node8" class="node">
<title>Node8</title>
<g id="a_node8"><a xlink:href="rhs_8c.html#a3e0cf2a027c25bb1f6510d4a7e5d4870" target="_top" xlink:title=" ">
<polygon fill="none" stroke="black" points="524.5,-475.5 524.5,-494.5 578.5,-494.5 578.5,-475.5 524.5,-475.5"/>
<text text-anchor="middle" x="551.5" y="-482.5" font-family="Helvetica,sans-Serif" font-size="10.00">Viscous</text>
</a>
</g>
</g>
<!-- Node5&#45;&gt;Node8 -->
<g id="edge7" class="edge">
<title>Node5&#45;&gt;Node8</title>
<path fill="none" stroke="midnightblue" d="M418.65,-555.72C431.18,-552.89 444.7,-548.58 456,-542 476.11,-530.3 472.33,-516.42 492,-504 498.86,-499.67 506.79,-496.24 514.56,-493.55"/>
<polygon fill="midnightblue" stroke="midnightblue" points="515.72,-496.86 524.23,-490.53 513.64,-490.17 515.72,-496.86"/>
</g>
<!-- Node9 -->
<g id="node9" class="node">
<title>Node9</title>
<g id="a_node9"><a xlink:href="rhs_8c.html#a619998e3b8a88fe90548745b983ade78" target="_top" xlink:title=" ">
<polygon fill="none" stroke="black" points="648.5,-513.5 648.5,-532.5 746.5,-532.5 746.5,-513.5 648.5,-513.5"/>
<text text-anchor="middle" x="697.5" y="-520.5" font-family="Helvetica,sans-Serif" font-size="10.00">Calculatedxdydz</text>
</a>
</g>
</g>
<!-- Node8&#45;&gt;Node9 -->
<g id="edge8" class="edge">
<title>Node8&#45;&gt;Node9</title>
<path fill="none" stroke="midnightblue" d="M578.58,-491.88C598.58,-497.16 626.69,-504.58 650.45,-510.85"/>
<polygon fill="midnightblue" stroke="midnightblue" points="649.76,-514.29 660.33,-513.45 651.55,-507.52 649.76,-514.29"/>
</g>
<!-- Node12 -->
<g id="node12" class="node">
<title>Node12</title>
<g id="a_node12"><a xlink:href="wallfunction_8h.html#adc08703381597f75ccb620bf30d90ae1" target="_top" xlink:title=" ">
<polygon fill="none" stroke="black" points="678.5,-475.5 678.5,-494.5 716.5,-494.5 716.5,-475.5 678.5,-475.5"/>
<text text-anchor="middle" x="697.5" y="-482.5" font-family="Helvetica,sans-Serif" font-size="10.00">nu_t</text>
</a>
</g>
</g>
<!-- Node8&#45;&gt;Node12 -->
<g id="edge11" class="edge">
<title>Node8&#45;&gt;Node12</title>
<path fill="none" stroke="midnightblue" d="M578.58,-485C603.82,-485 642,-485 668.03,-485"/>
<polygon fill="midnightblue" stroke="midnightblue" points="668.36,-488.5 678.36,-485 668.36,-481.5 668.36,-488.5"/>
</g>
<!-- Node10 -->
<g id="node10" class="node">
<title>Node10</title>
<g id="a_node10"><a xlink:href="rhs_8c.html#aecbb71daf364f9c5810052e4b9ad1840" target="_top" xlink:title=" ">
<polygon fill="none" stroke="black" points="784,-494.5 784,-513.5 924,-513.5 924,-494.5 784,-494.5"/>
<text text-anchor="middle" x="854" y="-501.5" font-family="Helvetica,sans-Serif" font-size="10.00">CalculateNormalAndArea</text>
</a>
</g>
</g>
<!-- Node9&#45;&gt;Node10 -->
<g id="edge9" class="edge">
<title>Node9&#45;&gt;Node10</title>
<path fill="none" stroke="midnightblue" d="M746.54,-517.09C755.19,-516.03 764.42,-514.89 773.68,-513.75"/>
<polygon fill="midnightblue" stroke="midnightblue" points="774.23,-517.21 783.72,-512.52 773.37,-510.27 774.23,-517.21"/>
</g>
<!-- Node11 -->
<g id="node11" class="node">
<title>Node11</title>
<g id="a_node11"><a xlink:href="rhs_8c.html#aa8f3b644af5c8201570f3fa7d5ae350a" target="_top" xlink:title=" ">
<polygon fill="none" stroke="black" points="960,-466.5 960,-485.5 1106,-485.5 1106,-466.5 960,-466.5"/>
<text text-anchor="middle" x="1033" y="-473.5" font-family="Helvetica,sans-Serif" font-size="10.00">CalculateCovariantMetrics</text>
</a>
</g>
</g>
<!-- Node10&#45;&gt;Node11 -->
<g id="edge10" class="edge">
<title>Node10&#45;&gt;Node11</title>
<path fill="none" stroke="midnightblue" d="M915.42,-494.44C930.37,-492.08 946.51,-489.52 961.89,-487.09"/>
<polygon fill="midnightblue" stroke="midnightblue" points="962.52,-490.53 971.85,-485.51 961.43,-483.62 962.52,-490.53"/>
</g>
<!-- Node13&#45;&gt;Node6 -->
<g id="edge13" class="edge">
<title>Node13&#45;&gt;Node6</title>
<path fill="none" stroke="midnightblue" d="M408.87,-592.38C435.08,-586.57 473.63,-578.03 503.9,-571.33"/>
<polygon fill="midnightblue" stroke="midnightblue" points="504.81,-574.71 513.81,-569.13 503.29,-567.87 504.81,-574.71"/>
</g>
<!-- Node14 -->
<g id="node14" class="node">
<title>Node14</title>
<g id="a_node14"><a xlink:href="wallfunction_8h.html#a82a96fd4f826d93b926bea9bb776b93e" target="_top" xlink:title=" ">
<polygon fill="none" stroke="black" points="528.5,-627.5 528.5,-646.5 574.5,-646.5 574.5,-627.5 528.5,-627.5"/>
<text text-anchor="middle" x="551.5" y="-634.5" font-family="Helvetica,sans-Serif" font-size="10.00">noslip</text>
</a>
</g>
</g>
<!-- Node13&#45;&gt;Node14 -->
<g id="edge14" class="edge">
<title>Node13&#45;&gt;Node14</title>
<path fill="none" stroke="midnightblue" d="M408.87,-605.62C439.48,-612.4 486.91,-622.91 518.33,-629.87"/>
<polygon fill="midnightblue" stroke="midnightblue" points="517.81,-633.34 528.33,-632.09 519.32,-626.51 517.81,-633.34"/>
</g>
<!-- Node15 -->
<g id="node15" class="node">
<title>Node15</title>
<g id="a_node15"><a xlink:href="wallfunction_8h.html#aae67d9282b09691fffdea6f1012e6df7" target="_top" xlink:title=" ">
<polygon fill="none" stroke="black" points="492,-589.5 492,-608.5 611,-608.5 611,-589.5 492,-589.5"/>
<text text-anchor="middle" x="551.5" y="-596.5" font-family="Helvetica,sans-Serif" font-size="10.00">wall_function_loglaw</text>
</a>
</g>
</g>
<!-- Node13&#45;&gt;Node15 -->
<g id="edge15" class="edge">
<title>Node13&#45;&gt;Node15</title>
<path fill="none" stroke="midnightblue" d="M408.87,-599C428.95,-599 456.26,-599 481.54,-599"/>
<polygon fill="midnightblue" stroke="midnightblue" points="481.85,-602.5 491.85,-599 481.85,-595.5 481.85,-602.5"/>
</g>
<!-- Node16 -->
<g id="node16" class="node">
<title>Node16</title>
<g id="a_node16"><a xlink:href="wallfunction_8c.html#aa22aca64a54a00ccaf354357cc1c0760" target="_top" xlink:title=" ">
<polygon fill="none" stroke="black" points="647,-570.5 647,-589.5 748,-589.5 748,-570.5 647,-570.5"/>
<text text-anchor="middle" x="697.5" y="-577.5" font-family="Helvetica,sans-Serif" font-size="10.00">find_utau_hydset</text>
</a>
</g>
</g>
<!-- Node15&#45;&gt;Node16 -->
<g id="edge16" class="edge">
<title>Node15&#45;&gt;Node16</title>
<path fill="none" stroke="midnightblue" d="M611.07,-591.27C619.48,-590.16 628.15,-589.02 636.59,-587.9"/>
<polygon fill="midnightblue" stroke="midnightblue" points="637.29,-591.34 646.74,-586.57 636.37,-584.4 637.29,-591.34"/>
</g>
<!-- Node20 -->
<g id="node20" class="node">
<title>Node20</title>
<g id="a_node20"><a xlink:href="wallfunction_8c.html#a071e294d71e268c014aa6047acb64730" target="_top" xlink:title=" ">
<polygon fill="none" stroke="black" points="975,-608.5 975,-627.5 1091,-627.5 1091,-608.5 975,-608.5"/>
<text text-anchor="middle" x="1033" y="-615.5" font-family="Helvetica,sans-Serif" font-size="10.00">u_hydset_roughness</text>
</a>
</g>
</g>
<!-- Node15&#45;&gt;Node20 -->
<g id="edge21" class="edge">
<title>Node15&#45;&gt;Node20</title>
<path fill="none" stroke="midnightblue" d="M611.3,-601.33C700.72,-604.87 870.45,-611.6 964.69,-615.33"/>
<polygon fill="midnightblue" stroke="midnightblue" points="964.83,-618.84 974.96,-615.74 965.11,-611.85 964.83,-618.84"/>
</g>
<!-- Node17 -->
<g id="node17" class="node">
<title>Node17</title>
<g id="a_node17"><a xlink:href="wallfunction_8c.html#a39f08431792fc8f96ea8659756dfd749" target="_top" xlink:title=" ">
<polygon fill="none" stroke="black" points="821.5,-570.5 821.5,-589.5 886.5,-589.5 886.5,-570.5 821.5,-570.5"/>
<text text-anchor="middle" x="854" y="-577.5" font-family="Helvetica,sans-Serif" font-size="10.00">df_hydset</text>
</a>
</g>
</g>
<!-- Node16&#45;&gt;Node17 -->
<g id="edge17" class="edge">
<title>Node16&#45;&gt;Node17</title>
<path fill="none" stroke="midnightblue" d="M748.24,-580C768.57,-580 791.84,-580 811.27,-580"/>
<polygon fill="midnightblue" stroke="midnightblue" points="811.34,-583.5 821.34,-580 811.34,-576.5 811.34,-583.5"/>
</g>
<!-- Node18 -->
<g id="node18" class="node">
<title>Node18</title>
<g id="a_node18"><a xlink:href="wallfunction_8c.html#ac7ee38b34b5a56a4e5c01a02c290229b" target="_top" xlink:title=" ">
<polygon fill="none" stroke="black" points="1003.5,-570.5 1003.5,-589.5 1062.5,-589.5 1062.5,-570.5 1003.5,-570.5"/>
<text text-anchor="middle" x="1033" y="-577.5" font-family="Helvetica,sans-Serif" font-size="10.00">f_hydset</text>
</a>
</g>
</g>
<!-- Node16&#45;&gt;Node18 -->
<g id="edge20" class="edge">
<title>Node16&#45;&gt;Node18</title>
<path fill="none" stroke="midnightblue" d="M733.15,-570.49C748.59,-566.73 767.07,-562.86 784,-561 845.85,-554.21 862.01,-555.59 924,-561 947.2,-563.03 972.89,-567.45 993.39,-571.53"/>
<polygon fill="midnightblue" stroke="midnightblue" points="992.8,-574.98 1003.3,-573.55 994.2,-568.12 992.8,-574.98"/>
</g>
<!-- Node17&#45;&gt;Node18 -->
<g id="edge18" class="edge">
<title>Node17&#45;&gt;Node18</title>
<path fill="none" stroke="midnightblue" d="M886.64,-580C916.39,-580 961.01,-580 992.96,-580"/>
<polygon fill="midnightblue" stroke="midnightblue" points="993.27,-583.5 1003.27,-580 993.27,-576.5 993.27,-583.5"/>
</g>
<!-- Node19 -->
<g id="node19" class="node">
<title>Node19</title>
<g id="a_node19"><a xlink:href="wallfunction_8c.html#a5a5ea51c16915866975995631c0d2923" target="_top" xlink:title=" ">
<polygon fill="none" stroke="black" points="1142,-589.5 1142,-608.5 1195,-608.5 1195,-589.5 1142,-589.5"/>
<text text-anchor="middle" x="1168.5" y="-596.5" font-family="Helvetica,sans-Serif" font-size="10.00">E_coeff</text>
</a>
</g>
</g>
<!-- Node18&#45;&gt;Node19 -->
<g id="edge19" class="edge">
<title>Node18&#45;&gt;Node19</title>
<path fill="none" stroke="midnightblue" d="M1062.64,-584.08C1082.79,-586.94 1109.9,-590.8 1131.51,-593.88"/>
<polygon fill="midnightblue" stroke="midnightblue" points="1131.23,-597.37 1141.62,-595.32 1132.21,-590.44 1131.23,-597.37"/>
</g>
<!-- Node20&#45;&gt;Node19 -->
<g id="edge22" class="edge">
<title>Node20&#45;&gt;Node19</title>
<path fill="none" stroke="midnightblue" d="M1091,-609.89C1104.84,-607.92 1119.26,-605.87 1131.79,-604.08"/>
<polygon fill="midnightblue" stroke="midnightblue" points="1132.42,-607.53 1141.83,-602.65 1131.43,-600.6 1132.42,-607.53"/>
</g>
<!-- Node22 -->
<g id="node22" class="node">
<title>Node22</title>
<g id="a_node22"><a xlink:href="logging_8h.html#a9b417fe56a110c0f6a3e64860e3e5cdb" target="_top" xlink:title="Helper function to convert BCFace enum to a string representation.">
<polygon fill="none" stroke="black" points="505.5,-703.5 505.5,-722.5 597.5,-722.5 597.5,-703.5 505.5,-703.5"/>
<text text-anchor="middle" x="551.5" y="-710.5" font-family="Helvetica,sans-Serif" font-size="10.00">BCFaceToString</text>
</a>
</g>
</g>
<!-- Node21&#45;&gt;Node22 -->
<g id="edge24" class="edge">
<title>Node21&#45;&gt;Node22</title>
<path fill="none" stroke="midnightblue" d="M412.13,-662.32C425.93,-665.42 441.97,-669.66 456,-675 472.91,-681.44 475.34,-686.96 492,-694 497.1,-696.16 502.54,-698.22 507.97,-700.14"/>
<polygon fill="midnightblue" stroke="midnightblue" points="507.05,-703.52 517.65,-703.42 509.3,-696.89 507.05,-703.52"/>
</g>
<!-- Node23 -->
<g id="node23" class="node">
<title>Node23</title>
<g id="a_node23"><a xlink:href="io_8h.html#a1ac7631f5ff3a878c3f5788d6880c22c" target="_top" xlink:title="Searches a BC_Param linked list for a key and returns its value as a double.">
<polygon fill="none" stroke="black" points="501,-665.5 501,-684.5 602,-684.5 602,-665.5 501,-665.5"/>
<text text-anchor="middle" x="551.5" y="-672.5" font-family="Helvetica,sans-Serif" font-size="10.00">GetBCParamReal</text>
</a>
</g>
</g>
<!-- Node21&#45;&gt;Node23 -->
<g id="edge25" class="edge">
<title>Node21&#45;&gt;Node23</title>
<path fill="none" stroke="midnightblue" d="M412.07,-659.66C434.32,-662.13 464.31,-665.45 490.68,-668.37"/>
<polygon fill="midnightblue" stroke="midnightblue" points="490.64,-671.89 500.97,-669.51 491.41,-664.93 490.64,-671.89"/>
</g>
<!-- Node24 -->
<g id="node24" class="node">
<title>Node24</title>
<g id="a_node24"><a xlink:href="wallfunction_8h.html#a61e5145bbc7aa0f76c074b4e9e91e06b" target="_top" xlink:title=" ">
<polygon fill="none" stroke="black" points="533,-741.5 533,-760.5 570,-760.5 570,-741.5 533,-741.5"/>
<text text-anchor="middle" x="551.5" y="-748.5" font-family="Helvetica,sans-Serif" font-size="10.00">sign</text>
</a>
</g>
</g>
<!-- Node21&#45;&gt;Node24 -->
<g id="edge26" class="edge">
<title>Node21&#45;&gt;Node24</title>
<path fill="none" stroke="midnightblue" d="M412.04,-658.58C426.61,-661.05 443.27,-665.82 456,-675 480.3,-692.52 468.34,-713.61 492,-732 500.92,-738.93 512.45,-743.38 522.91,-746.21"/>
<polygon fill="midnightblue" stroke="midnightblue" points="522.35,-749.67 532.89,-748.54 523.94,-742.86 522.35,-749.67"/>
</g>
<!-- Node28 -->
<g id="node28" class="node">
<title>Node28</title>
<g id="a_node28"><a xlink:href="logging_8h.html#ab0414bd7dfd804d39019da707808a819" target="_top" xlink:title="A custom KSP monitor that logs to a file and optionally to the console.">
<polygon fill="none" stroke="black" points="330.5,-171.5 330.5,-190.5 425.5,-190.5 425.5,-171.5 330.5,-171.5"/>
<text text-anchor="middle" x="378" y="-178.5" font-family="Helvetica,sans-Serif" font-size="10.00">DualKSPMonitor</text>
</a>
</g>
</g>
<!-- Node27&#45;&gt;Node28 -->
<g id="edge30" class="edge">
<title>Node27&#45;&gt;Node28</title>
<path fill="none" stroke="midnightblue" d="M200.16,-266.3C219.29,-250.18 260.14,-217.85 300,-200 306.57,-197.06 313.66,-194.53 320.79,-192.36"/>
<polygon fill="midnightblue" stroke="midnightblue" points="321.82,-195.71 330.49,-189.63 319.92,-188.97 321.82,-195.71"/>
</g>
<!-- Node29 -->
<g id="node29" class="node">
<title>Node29</title>
<g id="a_node29"><a xlink:href="logging_8h.html#a26f628c9bae473d94674a1a97641b474" target="_top" xlink:title="Destroys the DualMonitorCtx.">
<polygon fill="none" stroke="black" points="320.5,-133.5 320.5,-152.5 435.5,-152.5 435.5,-133.5 320.5,-133.5"/>
<text text-anchor="middle" x="378" y="-140.5" font-family="Helvetica,sans-Serif" font-size="10.00">DualMonitorDestroy</text>
</a>
</g>
</g>
<!-- Node27&#45;&gt;Node29 -->
<g id="edge31" class="edge">
<title>Node27&#45;&gt;Node29</title>
<path fill="none" stroke="midnightblue" d="M200.06,-266.27C215.04,-252.92 242.38,-227.98 264,-205 281.08,-186.85 278.85,-175.19 300,-162 303.39,-159.89 306.99,-158.01 310.73,-156.34"/>
<polygon fill="midnightblue" stroke="midnightblue" points="312.19,-159.53 320.21,-152.61 309.63,-153.01 312.19,-159.53"/>
</g>
<!-- Node30 -->
<g id="node30" class="node">
<title>Node30</title>
<g id="a_node30"><a xlink:href="poisson_8c.html#aaec10e12d0e5fba6c1f53e47d62b6efe" target="_top" xlink:title=" ">
<polygon fill="none" stroke="black" points="339,-95.5 339,-114.5 417,-114.5 417,-95.5 339,-95.5"/>
<text text-anchor="middle" x="378" y="-102.5" font-family="Helvetica,sans-Serif" font-size="10.00">FullyBlocked</text>
</a>
</g>
</g>
<!-- Node27&#45;&gt;Node30 -->
<g id="edge32" class="edge">
<title>Node27&#45;&gt;Node30</title>
<path fill="none" stroke="midnightblue" d="M201.89,-266.44C218.14,-253.85 246.09,-230.33 264,-205 286.75,-172.83 269.8,-149.3 300,-124 308.16,-117.17 318.41,-112.73 328.75,-109.86"/>
<polygon fill="midnightblue" stroke="midnightblue" points="329.67,-113.24 338.62,-107.56 328.09,-106.42 329.67,-113.24"/>
</g>
<!-- Node31 -->
<g id="node31" class="node">
<title>Node31</title>
<g id="a_node31"><a xlink:href="poisson_8c.html#aa2fc17959230252f30b2278d81a16caf" target="_top" xlink:title="The callback function for the multigrid interpolation operator (MatShell).">
<polygon fill="none" stroke="black" points="331,-57.5 331,-76.5 425,-76.5 425,-57.5 331,-57.5"/>
<text text-anchor="middle" x="378" y="-64.5" font-family="Helvetica,sans-Serif" font-size="10.00">MyInterpolation</text>
</a>
</g>
</g>
<!-- Node27&#45;&gt;Node31 -->
<g id="edge33" class="edge">
<title>Node27&#45;&gt;Node31</title>
<path fill="none" stroke="midnightblue" d="M202.99,-266.34C219.84,-254 247.89,-231.09 264,-205 293.04,-157.99 259.93,-124.05 300,-86 305.96,-80.34 313.33,-76.28 321.13,-73.4"/>
<polygon fill="midnightblue" stroke="midnightblue" points="322.26,-76.71 330.79,-70.42 320.2,-70.02 322.26,-76.71"/>
</g>
<!-- Node32 -->
<g id="node32" class="node">
<title>Node32</title>
<g id="a_node32"><a xlink:href="poisson_8c.html#a0f0addfc422c642ad5eb5315ace4ff2f" target="_top" xlink:title=" ">
<polygon fill="none" stroke="black" points="322.5,-437.5 322.5,-456.5 433.5,-456.5 433.5,-437.5 322.5,-437.5"/>
<text text-anchor="middle" x="378" y="-444.5" font-family="Helvetica,sans-Serif" font-size="10.00">MyNvertRestriction</text>
</a>
</g>
</g>
<!-- Node27&#45;&gt;Node32 -->
<g id="edge34" class="edge">
<title>Node27&#45;&gt;Node32</title>
<path fill="none" stroke="midnightblue" d="M193.12,-285.64C205.19,-312.72 243.29,-389.95 300,-428 304.01,-430.69 308.36,-433 312.88,-434.98"/>
<polygon fill="midnightblue" stroke="midnightblue" points="311.78,-438.3 322.37,-438.6 314.28,-431.76 311.78,-438.3"/>
</g>
<!-- Node34 -->
<g id="node34" class="node">
<title>Node34</title>
<g id="a_node34"><a xlink:href="poisson_8c.html#a26f0e6321b7ace56b3b105e1eb10475e" target="_top" xlink:title="Assembles the Left&#45;Hand Side (LHS) matrix for the Pressure Poisson Equation.">
<polygon fill="none" stroke="black" points="330.5,-361.5 330.5,-380.5 425.5,-380.5 425.5,-361.5 330.5,-361.5"/>
<text text-anchor="middle" x="378" y="-368.5" font-family="Helvetica,sans-Serif" font-size="10.00">PoissonLHSNew</text>
</a>
</g>
</g>
<!-- Node27&#45;&gt;Node34 -->
<g id="edge36" class="edge">
<title>Node27&#45;&gt;Node34</title>
<path fill="none" stroke="midnightblue" d="M200.16,-285.7C219.29,-301.82 260.14,-334.15 300,-352 306.57,-354.94 313.66,-357.47 320.79,-359.64"/>
<polygon fill="midnightblue" stroke="midnightblue" points="319.92,-363.03 330.49,-362.37 321.82,-356.29 319.92,-363.03"/>
</g>
<!-- Node36 -->
<g id="node36" class="node">
<title>Node36</title>
<g id="a_node36"><a xlink:href="poisson_8c.html#a2648a0c6cafb7916a706cd757e5b92f5" target="_top" xlink:title="The callback function for PETSc&#39;s MatNullSpace object.">
<polygon fill="none" stroke="black" points="306,-323.5 306,-342.5 450,-342.5 450,-323.5 306,-323.5"/>
<text text-anchor="middle" x="378" y="-330.5" font-family="Helvetica,sans-Serif" font-size="10.00">PoissonNullSpaceFunction</text>
</a>
</g>
</g>
<!-- Node27&#45;&gt;Node36 -->
<g id="edge38" class="edge">
<title>Node27&#45;&gt;Node36</title>
<path fill="none" stroke="midnightblue" d="M214.81,-285.56C237.18,-293.66 270.49,-305.33 300,-314 308.17,-316.4 316.88,-318.75 325.39,-320.93"/>
<polygon fill="midnightblue" stroke="midnightblue" points="324.71,-324.37 335.26,-323.41 326.41,-317.58 324.71,-324.37"/>
</g>
<!-- Node37 -->
<g id="node37" class="node">
<title>Node37</title>
<g id="a_node37"><a xlink:href="poisson_8c.html#a9340445ae2c0a3c7be290e2a1aea3d67" target="_top" xlink:title="Computes the Right&#45;Hand&#45;Side (RHS) of the Poisson equation, which is the divergence of the intermedia...">
<polygon fill="none" stroke="black" points="341,-285.5 341,-304.5 415,-304.5 415,-285.5 341,-285.5"/>
<text text-anchor="middle" x="378" y="-292.5" font-family="Helvetica,sans-Serif" font-size="10.00">PoissonRHS</text>
</a>
</g>
</g>
<!-- Node27&#45;&gt;Node37 -->
<g id="edge39" class="edge">
<title>Node27&#45;&gt;Node37</title>
<path fill="none" stroke="midnightblue" d="M241.62,-281.32C269.65,-284.15 303.81,-287.6 330.81,-290.33"/>
<polygon fill="midnightblue" stroke="midnightblue" points="330.47,-293.82 340.77,-291.34 331.18,-286.85 330.47,-293.82"/>
</g>
<!-- Node38 -->
<g id="node38" class="node">
<title>Node38</title>
<g id="a_node38"><a xlink:href="poisson_8c.html#a85e1eff3b6e34605b863323d6336eecd" target="_top" xlink:title=" ">
<polygon fill="none" stroke="black" points="300,-399.5 300,-418.5 456,-418.5 456,-399.5 300,-399.5"/>
<text text-anchor="middle" x="378" y="-406.5" font-family="Helvetica,sans-Serif" font-size="10.00">RestrictResidual_SolidAware</text>
</a>
</g>
</g>
<!-- Node27&#45;&gt;Node38 -->
<g id="edge40" class="edge">
<title>Node27&#45;&gt;Node38</title>
<path fill="none" stroke="midnightblue" d="M195.5,-285.7C210.87,-307.86 251.82,-362.4 300,-390 303.94,-392.26 308.14,-394.25 312.46,-396"/>
<polygon fill="midnightblue" stroke="midnightblue" points="311.5,-399.37 322.1,-399.48 313.88,-392.79 311.5,-399.37"/>
</g>
<!-- Node39 -->
<g id="node39" class="node">
<title>Node39</title>
<g id="a_node39"><a xlink:href="poisson_8c.html#a8c4cb4c082ab40cc20db95c962fc1d5c" target="_top" xlink:title="Calculates the net flux across the immersed boundary surface.">
<polygon fill="none" stroke="black" points="340.5,-247.5 340.5,-266.5 415.5,-266.5 415.5,-247.5 340.5,-247.5"/>
<text text-anchor="middle" x="378" y="-254.5" font-family="Helvetica,sans-Serif" font-size="10.00">VolumeFlux</text>
</a>
</g>
</g>
<!-- Node27&#45;&gt;Node39 -->
<g id="edge42" class="edge">
<title>Node27&#45;&gt;Node39</title>
<path fill="none" stroke="midnightblue" d="M241.62,-270.68C269.55,-267.86 303.58,-264.42 330.53,-261.7"/>
<polygon fill="midnightblue" stroke="midnightblue" points="330.89,-265.18 340.48,-260.69 330.18,-258.21 330.89,-265.18"/>
</g>
<!-- Node40 -->
<g id="node40" class="node">
<title>Node40</title>
<g id="a_node40"><a xlink:href="poisson_8c.html#a34f6242556bffd27f00a84b377c1bf9d" target="_top" xlink:title="A specialized version of VolumeFlux, likely for reversed normals.">
<polygon fill="none" stroke="black" points="330,-209.5 330,-228.5 426,-228.5 426,-209.5 330,-209.5"/>
<text text-anchor="middle" x="378" y="-216.5" font-family="Helvetica,sans-Serif" font-size="10.00">VolumeFlux_rev</text>
</a>
</g>
</g>
<!-- Node27&#45;&gt;Node40 -->
<g id="edge43" class="edge">
<title>Node27&#45;&gt;Node40</title>
<path fill="none" stroke="midnightblue" d="M214.81,-266.44C237.18,-258.34 270.49,-246.67 300,-238 308.17,-235.6 316.88,-233.25 325.39,-231.07"/>
<polygon fill="midnightblue" stroke="midnightblue" points="326.41,-234.42 335.26,-228.59 324.71,-227.63 326.41,-234.42"/>
</g>
<!-- Node33 -->
<g id="node33" class="node">
<title>Node33</title>
<g id="a_node33"><a xlink:href="poisson_8c.html#afe58ccf2bd0a359903645f7a0ee76485" target="_top" xlink:title=" ">
<polygon fill="none" stroke="black" points="507,-399.5 507,-418.5 596,-418.5 596,-399.5 507,-399.5"/>
<text text-anchor="middle" x="551.5" y="-406.5" font-family="Helvetica,sans-Serif" font-size="10.00">GridRestriction</text>
</a>
</g>
</g>
<!-- Node32&#45;&gt;Node33 -->
<g id="edge35" class="edge">
<title>Node32&#45;&gt;Node33</title>
<path fill="none" stroke="midnightblue" d="M422.28,-437.41C445.11,-432.35 473.32,-426.1 497.46,-420.75"/>
<polygon fill="midnightblue" stroke="midnightblue" points="498.53,-424.1 507.53,-418.52 497.01,-417.27 498.53,-424.1"/>
</g>
<!-- Node35 -->
<g id="node35" class="node">
<title>Node35</title>
<g id="a_node35"><a xlink:href="poisson_8c.html#a3d538200fed5b9ee9d1ef391bb61036c" target="_top" xlink:title=" ">
<polygon fill="none" stroke="black" points="532,-361.5 532,-380.5 571,-380.5 571,-361.5 532,-361.5"/>
<text text-anchor="middle" x="551.5" y="-368.5" font-family="Helvetica,sans-Serif" font-size="10.00">Gidx</text>
</a>
</g>
</g>
<!-- Node34&#45;&gt;Node35 -->
<g id="edge37" class="edge">
<title>Node34&#45;&gt;Node35</title>
<path fill="none" stroke="midnightblue" d="M425.86,-371C456.55,-371 495.66,-371 521.81,-371"/>
<polygon fill="midnightblue" stroke="midnightblue" points="521.82,-374.5 531.82,-371 521.82,-367.5 521.82,-374.5"/>
</g>
<!-- Node38&#45;&gt;Node33 -->
<g id="edge41" class="edge">
<title>Node38&#45;&gt;Node33</title>
<path fill="none" stroke="midnightblue" d="M456.22,-409C469.83,-409 483.73,-409 496.53,-409"/>
<polygon fill="midnightblue" stroke="midnightblue" points="496.53,-412.5 506.53,-409 496.53,-405.5 496.53,-412.5"/>
</g>
<!-- Node41&#45;&gt;Node6 -->
<g id="edge45" class="edge">
<title>Node41&#45;&gt;Node6</title>
<path fill="none" stroke="midnightblue" d="M410.51,-488.62C425.09,-491.31 442.2,-495.96 456,-504 476.11,-515.7 472.33,-529.58 492,-542 495.86,-544.44 500.07,-546.59 504.39,-548.49"/>
<polygon fill="midnightblue" stroke="midnightblue" points="503.38,-551.85 513.97,-552.24 505.94,-545.34 503.38,-551.85"/>
</g>
<!-- Node42 -->
<g id="node42" class="node">
<title>Node42</title>
<g id="a_node42"><a xlink:href="poisson_8c.html#a6046e36e2334fa29a86d652a0b8f0593" target="_top" xlink:title=" ">
<polygon fill="none" stroke="black" points="496.5,-437.5 496.5,-456.5 606.5,-456.5 606.5,-437.5 496.5,-437.5"/>
<text text-anchor="middle" x="551.5" y="-444.5" font-family="Helvetica,sans-Serif" font-size="10.00">GhostNodeVelocity</text>
</a>
</g>
</g>
<!-- Node41&#45;&gt;Node42 -->
<g id="edge46" class="edge">
<title>Node41&#45;&gt;Node42</title>
<path fill="none" stroke="midnightblue" d="M410.86,-477.94C435.21,-472.55 469.3,-464.99 497.71,-458.7"/>
<polygon fill="midnightblue" stroke="midnightblue" points="498.49,-462.11 507.5,-456.53 496.98,-455.27 498.49,-462.11"/>
</g>
<!-- Node43 -->
<g id="node43" class="node">
<title>Node43</title>
<g id="a_node43"><a xlink:href="rhs_8h.html#aecbb71daf364f9c5810052e4b9ad1840" target="_top" xlink:title=" ">
<polygon fill="none" stroke="black" points="784,-437.5 784,-456.5 924,-456.5 924,-437.5 784,-437.5"/>
<text text-anchor="middle" x="854" y="-444.5" font-family="Helvetica,sans-Serif" font-size="10.00">CalculateNormalAndArea</text>
</a>
</g>
</g>
<!-- Node42&#45;&gt;Node43 -->
<g id="edge47" class="edge">
<title>Node42&#45;&gt;Node43</title>
<path fill="none" stroke="midnightblue" d="M606.57,-447C653.07,-447 720.76,-447 773.44,-447"/>
<polygon fill="midnightblue" stroke="midnightblue" points="773.76,-450.5 783.76,-447 773.76,-443.5 773.76,-450.5"/>
</g>
<!-- Node44 -->
<g id="node44" class="node">
<title>Node44</title>
<g id="a_node44"><a xlink:href="wallfunction_8h.html#a74ed1b371c557b826d503a1627351eec" target="_top" xlink:title=" ">
<polygon fill="none" stroke="black" points="656.5,-399.5 656.5,-418.5 738.5,-418.5 738.5,-399.5 656.5,-399.5"/>
<text text-anchor="middle" x="697.5" y="-406.5" font-family="Helvetica,sans-Serif" font-size="10.00">wall_function</text>
</a>
</g>
</g>
<!-- Node42&#45;&gt;Node44 -->
<g id="edge49" class="edge">
<title>Node42&#45;&gt;Node44</title>
<path fill="none" stroke="midnightblue" d="M588.84,-437.41C607.58,-432.46 630.64,-426.38 650.61,-421.11"/>
<polygon fill="midnightblue" stroke="midnightblue" points="651.65,-424.46 660.42,-418.52 649.86,-417.69 651.65,-424.46"/>
</g>
<!-- Node43&#45;&gt;Node11 -->
<g id="edge48" class="edge">
<title>Node43&#45;&gt;Node11</title>
<path fill="none" stroke="midnightblue" d="M913.45,-456.58C929.54,-459.21 947.14,-462.1 963.74,-464.82"/>
<polygon fill="midnightblue" stroke="midnightblue" points="963.48,-468.32 973.92,-466.48 964.61,-461.41 963.48,-468.32"/>
</g>
<!-- Node45 -->
<g id="node45" class="node">
<title>Node45</title>
<g id="a_node45"><a xlink:href="wallfunction_8c.html#a7ded59b6a455ad3a8db66bea549aa82d" target="_top" xlink:title=" ">
<polygon fill="none" stroke="black" points="822.5,-399.5 822.5,-418.5 885.5,-418.5 885.5,-399.5 822.5,-399.5"/>
<text text-anchor="middle" x="854" y="-406.5" font-family="Helvetica,sans-Serif" font-size="10.00">u_Werner</text>
</a>
</g>
</g>
<!-- Node44&#45;&gt;Node45 -->
<g id="edge50" class="edge">
<title>Node44&#45;&gt;Node45</title>
<path fill="none" stroke="midnightblue" d="M738.69,-409C761.33,-409 789.54,-409 812.26,-409"/>
<polygon fill="midnightblue" stroke="midnightblue" points="812.28,-412.5 822.28,-409 812.28,-405.5 812.28,-412.5"/>
</g>
<!-- Node46&#45;&gt;Node5 -->
<g id="edge52" class="edge">
<title>Node46&#45;&gt;Node5</title>
<path fill="none" stroke="midnightblue" d="M224.8,-545.62C253.84,-548.55 295.08,-552.72 327.31,-555.98"/>
<polygon fill="midnightblue" stroke="midnightblue" points="327.13,-559.48 337.43,-557 327.83,-552.51 327.13,-559.48"/>
</g>
<!-- Node46&#45;&gt;Node13 -->
<g id="edge53" class="edge">
<title>Node46&#45;&gt;Node13</title>
<path fill="none" stroke="midnightblue" d="M224.64,-549.2C237.27,-552.23 251.46,-556.18 264,-561 280.89,-567.49 283.09,-573.56 300,-580 311.86,-584.52 325.17,-588.24 337.34,-591.16"/>
<polygon fill="midnightblue" stroke="midnightblue" points="336.71,-594.61 347.23,-593.43 338.27,-587.79 336.71,-594.61"/>
</g>
<!-- Node46&#45;&gt;Node21 -->
<g id="edge54" class="edge">
<title>Node46&#45;&gt;Node21</title>
<path fill="none" stroke="midnightblue" d="M224.58,-545.39C237.92,-548.03 252.59,-552.72 264,-561 288.25,-578.6 277.73,-597.95 300,-618 311.32,-628.19 325.88,-636.3 339.28,-642.37"/>
<polygon fill="midnightblue" stroke="midnightblue" points="338.2,-645.71 348.77,-646.43 340.95,-639.28 338.2,-645.71"/>
</g>
<!-- Node46&#45;&gt;Node25 -->
<g id="edge55" class="edge">
<title>Node46&#45;&gt;Node25</title>
<path fill="none" stroke="midnightblue" d="M224.8,-538.38C254.51,-535.38 297,-531.09 329.54,-527.8"/>
<polygon fill="midnightblue" stroke="midnightblue" points="330.12,-531.26 339.72,-526.77 329.42,-524.29 330.12,-531.26"/>
</g>
<!-- Node48 -->
<g id="node48" class="node">
<title>Node48</title>
<g id="a_node48"><a xlink:href="logging_8h.html#a9585f583c260f40a73f2490914edc689" target="_top" xlink:title="Retrieves the current logging level from the environment variable LOG_LEVEL.">
<polygon fill="none" stroke="black" points="510.5,-0.5 510.5,-19.5 592.5,-19.5 592.5,-0.5 510.5,-0.5"/>
<text text-anchor="middle" x="551.5" y="-7.5" font-family="Helvetica,sans-Serif" font-size="10.00">get_log_level</text>
</a>
</g>
</g>
<!-- Node47&#45;&gt;Node48 -->
<g id="edge57" class="edge">
<title>Node47&#45;&gt;Node48</title>
<path fill="none" stroke="midnightblue" d="M433.74,-22.94C455.13,-20.57 479.51,-17.86 500.43,-15.55"/>
<polygon fill="midnightblue" stroke="midnightblue" points="500.85,-19.02 510.4,-14.44 500.08,-12.06 500.85,-19.02"/>
</g>
<!-- Node49 -->
<g id="node49" class="node">
<title>Node49</title>
<g id="a_node49"><a xlink:href="logging_8h.html#a2358badbcda33fc9d80ebd6a59d2a2cd" target="_top" xlink:title="Checks if a given function is in the allow&#45;list.">
<polygon fill="none" stroke="black" points="495,-38.5 495,-57.5 608,-57.5 608,-38.5 495,-38.5"/>
<text text-anchor="middle" x="551.5" y="-45.5" font-family="Helvetica,sans-Serif" font-size="10.00">is_function_allowed</text>
</a>
</g>
</g>
<!-- Node47&#45;&gt;Node49 -->
<g id="edge58" class="edge">
<title>Node47&#45;&gt;Node49</title>
<path fill="none" stroke="midnightblue" d="M433.74,-35.06C449.89,-36.85 467.74,-38.83 484.53,-40.69"/>
<polygon fill="midnightblue" stroke="midnightblue" points="484.49,-44.21 494.81,-41.83 485.26,-37.25 484.49,-44.21"/>
</g>
<!-- Node50&#45;&gt;Node47 -->
<g id="edge60" class="edge">
<title>Node50&#45;&gt;Node47</title>
<path fill="none" stroke="midnightblue" d="M235.47,-50.83C258.7,-47.25 287.19,-42.85 312.5,-38.95"/>
<polygon fill="midnightblue" stroke="midnightblue" points="313.04,-42.41 322.39,-37.42 311.97,-35.49 313.04,-42.41"/>
</g>
</g>
</svg>
        <g id="navigator" transform="translate(0 0)" fill="#404254">
                <rect fill="#f2f5e9" fill-opacity="0.5" stroke="#606060" stroke-width=".5" x="0" y="0" width="60" height="60"/>
                <use id="zoomplus" xlink:href="#zoomPlus" x="17" y="9" onmousedown="handleZoom(evt,'in')"/>
                <use id="zoomminus" xlink:href="#zoomMin" x="42" y="9" onmousedown="handleZoom(evt,'out')"/>
                <use id="reset" xlink:href="#resetDef" x="30" y="36" onmousedown="handleReset()"/>
                <g id="arrowUp" xlink:href="#dirArrow" transform="translate(30 24)" onmousedown="handlePan(0,-1)">
                  <use xlink:href="#rim" fill="#404040">
                        <set attributeName="fill" to="#808080" begin="arrowUp.mouseover" end="arrowUp.mouseout"/>
                  </use>
                  <path fill="none" stroke="white" stroke-width="1.5" d="M0,-3.0v7 M-2.5,-0.5L0,-3.0L2.5,-0.5"/>
                </g>
                <g id="arrowRight" xlink:href="#dirArrow" transform="rotate(90) translate(36 -43)" onmousedown="handlePan(1,0)">
                  <use xlink:href="#rim" fill="#404040">
                        <set attributeName="fill" to="#808080" begin="arrowRight.mouseover" end="arrowRight.mouseout"/>
                  </use>
                  <path fill="none" stroke="white" stroke-width="1.5" d="M0,-3.0v7 M-2.5,-0.5L0,-3.0L2.5,-0.5"/>
                </g>
                <g id="arrowDown" xlink:href="#dirArrow" transform="rotate(180) translate(-30 -48)" onmousedown="handlePan(0,1)">
                  <use xlink:href="#rim" fill="#404040">
                        <set attributeName="fill" to="#808080" begin="arrowDown.mouseover" end="arrowDown.mouseout"/>
                  </use>
                  <path fill="none" stroke="white" stroke-width="1.5" d="M0,-3.0v7 M-2.5,-0.5L0,-3.0L2.5,-0.5"/>
                </g>
                <g id="arrowLeft" xlink:href="#dirArrow" transform="rotate(270) translate(-36 17)" onmousedown="handlePan(-1,0)">
                  <use xlink:href="#rim" fill="#404040">
                        <set attributeName="fill" to="#808080" begin="arrowLeft.mouseover" end="arrowLeft.mouseout"/>
                  </use>
                  <path fill="none" stroke="white" stroke-width="1.5" d="M0,-3.0v7 M-2.5,-0.5L0,-3.0L2.5,-0.5"/>
                </g>
        </g>
        <svg viewBox="0 0 15 15" width="100%" height="30px" preserveAspectRatio="xMaxYMin meet">
         <g id="arrow_out" transform="scale(0.3 0.3)">
          <a xlink:href="solvers_8c_a2ed4825273a593f371a3d48071708255_cgraph_org.svg" target="_base">
           <rect id="button" ry="5" rx="5" y="6" x="6" height="38" width="38"
                fill="#f2f5e9" fill-opacity="0.5" stroke="#606060" stroke-width="1.0"/>
           <path id="arrow"
             d="M 11.500037,31.436501 C 11.940474,20.09759 22.043105,11.32322 32.158766,21.979434 L 37.068811,17.246167 C 37.068811,17.246167 37.088388,32 37.088388,32 L 22.160133,31.978069 C 22.160133,31.978069 26.997745,27.140456 26.997745,27.140456 C 18.528582,18.264221 13.291696,25.230495 11.500037,31.436501 z"
             style="fill:#404040;"/>
          </a>
         </g>
        </svg>
</svg>
