<?xml version="1.0" encoding="UTF-8" standalone="no"?>
<!DOCTYPE svg PUBLIC "-//W3C//DTD SVG 1.1//EN"
 "http://www.w3.org/Graphics/SVG/1.1/DTD/svg11.dtd">
<!-- Generated by graphviz version 2.43.0 (0)
 -->
<!-- Title: FSInfo Pages: 1 -->
<svg width="158pt" height="162pt"
 viewBox="0.00 0.00 157.50 162.00" xmlns="http://www.w3.org/2000/svg" xmlns:xlink="http://www.w3.org/1999/xlink">
<g id="graph0" class="graph" transform="scale(1 1) rotate(0) translate(4 158)">
<title>FSInfo</title>
<!-- Node1 -->
<g id="node1" class="node">
<title>Node1</title>
<g id="a_node1"><a xlink:title="Holds all data related to the state and motion of a body in FSI.">
<polygon fill="#bfbfbf" stroke="black" points="45.5,-0.5 45.5,-19.5 92.5,-19.5 92.5,-0.5 45.5,-0.5"/>
<text text-anchor="middle" x="69" y="-7.5" font-family="Helvetica,sans-Serif" font-size="10.00">FSInfo</text>
</a>
</g>
</g>
<!-- Node2 -->
<g id="node2" class="node">
<title>Node2</title>
<g id="a_node2"><a xlink:href="variables_8h.html#structIBMInfo" target="_top" xlink:title="Holds interpolation and distance information for a single IBM point.">
<polygon fill="none" stroke="black" points="0,-67.5 0,-86.5 54,-86.5 54,-67.5 0,-67.5"/>
<text text-anchor="middle" x="27" y="-74.5" font-family="Helvetica,sans-Serif" font-size="10.00">IBMInfo</text>
</a>
</g>
</g>
<!-- Node2&#45;&gt;Node1 -->
<g id="edge1" class="edge">
<title>Node2&#45;&gt;Node1</title>
<path fill="none" stroke="#9a32cd" stroke-dasharray="5,2" d="M36.51,-58.63C40.25,-52.06 44.67,-44.59 49,-38 53.1,-31.76 58.1,-25.01 62.07,-19.82"/>
<polygon fill="#9a32cd" stroke="#9a32cd" points="33.44,-56.94 31.63,-67.38 39.55,-60.36 33.44,-56.94"/>
<text text-anchor="middle" x="69" y="-41" font-family="Helvetica,sans-Serif" font-size="10.00"> fsi_intp</text>
</g>
<!-- Node3 -->
<g id="node3" class="node">
<title>Node3</title>
<g id="a_node3"><a xlink:href="variables_8h.html#structCmpnts" target="_top" xlink:title="A 3D point or vector with PetscScalar components.">
<polygon fill="none" stroke="black" points="0,-134.5 0,-153.5 54,-153.5 54,-134.5 0,-134.5"/>
<text text-anchor="middle" x="27" y="-141.5" font-family="Helvetica,sans-Serif" font-size="10.00">Cmpnts</text>
</a>
</g>
</g>
<!-- Node3&#45;&gt;Node2 -->
<g id="edge2" class="edge">
<title>Node3&#45;&gt;Node2</title>
<path fill="none" stroke="#9a32cd" stroke-dasharray="5,2" d="M27,-124.04C27,-111.67 27,-96.12 27,-86.63"/>
<polygon fill="#9a32cd" stroke="#9a32cd" points="23.5,-124.23 27,-134.23 30.5,-124.23 23.5,-124.23"/>
<text text-anchor="middle" x="41" y="-108" font-family="Helvetica,sans-Serif" font-size="10.00"> pmin</text>
</g>
<!-- Node4 -->
<g id="node4" class="node">
<title>Node4</title>
<g id="a_node4"><a xlink:href="variables_8h.html#structSurfElmtInfo" target="_top" xlink:title="Information about a surface element for FSI calculations.">
<polygon fill="none" stroke="black" points="72.5,-67.5 72.5,-86.5 149.5,-86.5 149.5,-67.5 72.5,-67.5"/>
<text text-anchor="middle" x="111" y="-74.5" font-family="Helvetica,sans-Serif" font-size="10.00">SurfElmtInfo</text>
</a>
</g>
</g>
<!-- Node4&#45;&gt;Node1 -->
<g id="edge3" class="edge">
<title>Node4&#45;&gt;Node1</title>
<path fill="none" stroke="#9a32cd" stroke-dasharray="5,2" d="M101.49,-58.63C97.75,-52.06 93.33,-44.59 89,-38 84.9,-31.76 79.9,-25.01 75.93,-19.82"/>
<polygon fill="#9a32cd" stroke="#9a32cd" points="98.45,-60.36 106.37,-67.38 104.56,-56.94 98.45,-60.36"/>
<text text-anchor="middle" x="117.5" y="-41" font-family="Helvetica,sans-Serif" font-size="10.00"> elmtinfo</text>
</g>
</g>
</svg>
