<?xml version="1.0" encoding="UTF-8" standalone="no"?>
<!DOCTYPE svg PUBLIC "-//W3C//DTD SVG 1.1//EN"
 "http://www.w3.org/Graphics/SVG/1.1/DTD/svg11.dtd">
<!-- Generated by graphviz version 2.43.0 (0)
 -->
<!-- Title: SimCtx Pages: 1 -->
<!--zoomable 487 -->
<svg id="main" version="1.1" xmlns="http://www.w3.org/2000/svg" xmlns:xlink="http://www.w3.org/1999/xlink" xml:space="preserve" onload="init(evt)">
<style type="text/css"><![CDATA[
.edge:hover path { stroke: red; }
.edge:hover polygon { stroke: red; fill: red; }
]]></style>
<script type="text/javascript"><![CDATA[
var edges = document.getElementsByTagName('g');
if (edges && edges.length) {
  for (var i=0;i<edges.length;i++) {
    if (edges[i].id.substr(0,4)=='edge') {
      edges[i].setAttribute('class','edge');
    }
  }
}
]]></script>
        <defs>
                <circle id="rim" cx="0" cy="0" r="7"/>
                <circle id="rim2" cx="0" cy="0" r="3.5"/>
                <g id="zoomPlus">
                        <use xlink:href="#rim" fill="#404040">
                                <set attributeName="fill" to="#808080" begin="zoomplus.mouseover" end="zoomplus.mouseout"/>
                        </use>
                        <path d="M-4,0h8M0,-4v8" fill="none" stroke="white" stroke-width="1.5" pointer-events="none"/>
                </g>
                <g id="zoomMin">
                        <use xlink:href="#rim" fill="#404040">
                                <set attributeName="fill" to="#808080" begin="zoomminus.mouseover" end="zoomminus.mouseout"/>
                        </use>
                        <path d="M-4,0h8" fill="none" stroke="white" stroke-width="1.5" pointer-events="none"/>
                </g>
                <g id="dirArrow">
                        <path fill="none" stroke="white" stroke-width="1.5" d="M0,-3.0v7 M-2.5,-0.5L0,-3.0L2.5,-0.5"/>
                </g>
               <g id="resetDef">
                       <use xlink:href="#rim2" fill="#404040">
                               <set attributeName="fill" to="#808080" begin="reset.mouseover" end="reset.mouseout"/>
                       </use>
               </g>
        </defs>

<script type="text/javascript">
var viewWidth = 964;
var viewHeight = 487;
var sectionId = 'dynsection-20';
</script>
<script xlink:href="svgpan.js"/>
<svg id="graph" class="graph">
<g id="viewport">
<title>SimCtx</title>
<!-- Node1 -->
<g id="node1" class="node">
<title>Node1</title>
<g id="a_node1"><a xlink:title="The master context for the entire simulation.">
<polygon fill="#bfbfbf" stroke="black" points="373,-203.5 373,-222.5 425,-222.5 425,-203.5 373,-203.5"/>
<text text-anchor="middle" x="399" y="-210.5" font-family="Helvetica,sans-Serif" font-size="10.00">SimCtx</text>
</a>
</g>
</g>
<!-- Node4 -->
<g id="node4" class="node">
<title>Node4</title>
<g id="a_node4"><a xlink:href="variables_8h.html#structUserCtx" target="_top" xlink:title="User&#45;defined context containing data specific to a single computational grid level.">
<polygon fill="none" stroke="black" points="260,-135.5 260,-154.5 316,-154.5 316,-135.5 260,-135.5"/>
<text text-anchor="middle" x="288" y="-142.5" font-family="Helvetica,sans-Serif" font-size="10.00">UserCtx</text>
</a>
</g>
</g>
<!-- Node1&#45;&gt;Node4 -->
<g id="edge4" class="edge">
<title>Node1&#45;&gt;Node4</title>
<path fill="none" stroke="#9a32cd" stroke-dasharray="5,2" d="M391.33,-193.65C387.61,-186.65 382.51,-179.13 376,-174 358.75,-160.41 334.76,-153.34 316.18,-149.71"/>
<polygon fill="#9a32cd" stroke="#9a32cd" points="388.4,-195.63 395.81,-203.2 394.73,-192.66 388.4,-195.63"/>
<text text-anchor="middle" x="405" y="-177" font-family="Helvetica,sans-Serif" font-size="10.00"> simCtx</text>
</g>
<!-- Node2 -->
<g id="node2" class="node">
<title>Node2</title>
<g id="a_node2"><a xlink:href="variables_8h.html#structUserMG" target="_top" xlink:title="User&#45;level context for managing the entire multigrid hierarchy.">
<polygon fill="none" stroke="black" points="560,-0.5 560,-19.5 616,-19.5 616,-0.5 560,-0.5"/>
<text text-anchor="middle" x="588" y="-7.5" font-family="Helvetica,sans-Serif" font-size="10.00">UserMG</text>
</a>
</g>
</g>
<!-- Node2&#45;&gt;Node1 -->
<g id="edge1" class="edge">
<title>Node2&#45;&gt;Node1</title>
<path fill="none" stroke="#9a32cd" stroke-dasharray="5,2" d="M596.74,-28.93C612.3,-63.7 639.69,-140.79 601,-185 595.26,-191.56 478.74,-204.01 425.33,-209.4"/>
<polygon fill="#9a32cd" stroke="#9a32cd" points="599.78,-27.16 592.38,-19.57 593.44,-30.12 599.78,-27.16"/>
<text text-anchor="middle" x="640" y="-108" font-family="Helvetica,sans-Serif" font-size="10.00"> usermg</text>
</g>
<!-- Node3 -->
<g id="node3" class="node">
<title>Node3</title>
<g id="a_node3"><a xlink:href="variables_8h.html#structMGCtx" target="_top" xlink:title="Context for Multigrid operations.">
<polygon fill="none" stroke="black" points="469,-67.5 469,-86.5 519,-86.5 519,-67.5 469,-67.5"/>
<text text-anchor="middle" x="494" y="-74.5" font-family="Helvetica,sans-Serif" font-size="10.00">MGCtx</text>
</a>
</g>
</g>
<!-- Node3&#45;&gt;Node2 -->
<g id="edge2" class="edge">
<title>Node3&#45;&gt;Node2</title>
<path fill="none" stroke="#9a32cd" stroke-dasharray="5,2" d="M515.09,-61.42C533.67,-48.57 560.12,-30.28 575.52,-19.63"/>
<polygon fill="#9a32cd" stroke="#9a32cd" points="512.91,-58.67 506.68,-67.23 516.89,-64.43 512.91,-58.67"/>
<text text-anchor="middle" x="563" y="-41" font-family="Helvetica,sans-Serif" font-size="10.00"> mgctx</text>
</g>
<!-- Node4&#45;&gt;Node3 -->
<g id="edge3" class="edge">
<title>Node4&#45;&gt;Node3</title>
<path fill="none" stroke="#9a32cd" stroke-dasharray="5,2" d="M324.68,-132.25C366.27,-118.92 432.98,-97.55 469,-86.01"/>
<polygon fill="#9a32cd" stroke="#9a32cd" points="323.39,-128.99 314.93,-135.37 325.52,-135.65 323.39,-128.99"/>
<text text-anchor="middle" x="422.5" y="-108" font-family="Helvetica,sans-Serif" font-size="10.00"> user</text>
</g>
<!-- Node4&#45;&gt;Node4 -->
<g id="edge16" class="edge">
<title>Node4&#45;&gt;Node4</title>
<path fill="none" stroke="#9a32cd" stroke-dasharray="5,2" d="M326.55,-150.45C331.06,-149.45 334,-147.63 334,-145 334,-140.68 326.09,-138.56 316.3,-138.63"/>
<polygon fill="#9a32cd" stroke="#9a32cd" points="325.94,-146.99 316.3,-151.37 326.57,-153.96 325.94,-146.99"/>
<text text-anchor="middle" x="351" y="-148" font-family="Helvetica,sans-Serif" font-size="10.00"> user_f</text>
<text text-anchor="middle" x="351" y="-137" font-family="Helvetica,sans-Serif" font-size="10.00">user_c</text>
</g>
<!-- Node5 -->
<g id="node5" class="node">
<title>Node5</title>
<g id="a_node5"><a xlink:href="variables_8h.html#structRankNeighbors" target="_top" xlink:title="Stores the MPI ranks of neighboring subdomains.">
<polygon fill="none" stroke="black" points="166.5,-203.5 166.5,-222.5 257.5,-222.5 257.5,-203.5 166.5,-203.5"/>
<text text-anchor="middle" x="212" y="-210.5" font-family="Helvetica,sans-Serif" font-size="10.00">RankNeighbors</text>
</a>
</g>
</g>
<!-- Node5&#45;&gt;Node4 -->
<g id="edge5" class="edge">
<title>Node5&#45;&gt;Node4</title>
<path fill="none" stroke="#9a32cd" stroke-dasharray="5,2" d="M218.08,-194.11C221.12,-187.18 225.37,-179.59 231,-174 239.61,-165.45 251.34,-159.08 261.93,-154.6"/>
<polygon fill="#9a32cd" stroke="#9a32cd" points="214.8,-192.89 214.48,-203.48 221.34,-195.41 214.8,-192.89"/>
<text text-anchor="middle" x="257" y="-177" font-family="Helvetica,sans-Serif" font-size="10.00"> neighbors</text>
</g>
<!-- Node6 -->
<g id="node6" class="node">
<title>Node6</title>
<g id="a_node6"><a xlink:href="variables_8h.html#structRankCellInfo" target="_top" xlink:title="A lean struct to hold the global cell ownership range for a single MPI rank.">
<polygon fill="none" stroke="black" points="275.5,-203.5 275.5,-222.5 354.5,-222.5 354.5,-203.5 275.5,-203.5"/>
<text text-anchor="middle" x="315" y="-210.5" font-family="Helvetica,sans-Serif" font-size="10.00">RankCellInfo</text>
</a>
</g>
</g>
<!-- Node6&#45;&gt;Node4 -->
<g id="edge6" class="edge">
<title>Node6&#45;&gt;Node4</title>
<path fill="none" stroke="#9a32cd" stroke-dasharray="5,2" d="M296.23,-196.23C293.3,-192.85 290.69,-189.05 289,-185 284.92,-175.25 285.44,-162.9 286.47,-154.74"/>
<polygon fill="#9a32cd" stroke="#9a32cd" points="293.79,-198.74 303.33,-203.34 298.73,-193.79 293.79,-198.74"/>
<text text-anchor="middle" x="332.5" y="-177" font-family="Helvetica,sans-Serif" font-size="10.00"> RankCellInfoMap</text>
</g>
<!-- Node7 -->
<g id="node7" class="node">
<title>Node7</title>
<g id="a_node7"><a xlink:href="variables_8h.html#structIBMNodes" target="_top" xlink:title="Represents a collection of nodes forming a surface for the IBM.">
<polygon fill="none" stroke="black" points="0,-270.5 0,-289.5 66,-289.5 66,-270.5 0,-270.5"/>
<text text-anchor="middle" x="33" y="-277.5" font-family="Helvetica,sans-Serif" font-size="10.00">IBMNodes</text>
</a>
</g>
</g>
<!-- Node7&#45;&gt;Node1 -->
<g id="edge22" class="edge">
<title>Node7&#45;&gt;Node1</title>
<path fill="none" stroke="#9a32cd" stroke-dasharray="5,2" d="M54.9,-265.15C69.6,-256.59 89.74,-246.27 109,-241 218.16,-211.12 251.24,-240.79 363,-223 366.18,-222.49 369.49,-221.84 372.76,-221.12"/>
<polygon fill="#9a32cd" stroke="#9a32cd" points="52.85,-262.29 46.08,-270.44 56.46,-268.29 52.85,-262.29"/>
<text text-anchor="middle" x="120" y="-244" font-family="Helvetica,sans-Serif" font-size="10.00"> ibm</text>
</g>
<!-- Node7&#45;&gt;Node4 -->
<g id="edge7" class="edge">
<title>Node7&#45;&gt;Node4</title>
<path fill="none" stroke="#9a32cd" stroke-dasharray="5,2" d="M30.52,-259.99C29.38,-243.45 30.33,-219.61 42,-203 66.95,-167.49 200.47,-152.81 259.68,-147.98"/>
<polygon fill="#9a32cd" stroke="#9a32cd" points="27.05,-260.49 31.53,-270.09 34.01,-259.79 27.05,-260.49"/>
<text text-anchor="middle" x="53" y="-210.5" font-family="Helvetica,sans-Serif" font-size="10.00"> ibm</text>
</g>
<!-- Node8 -->
<g id="node8" class="node">
<title>Node8</title>
<g id="a_node8"><a xlink:href="variables_8h.html#structCmpnts" target="_top" xlink:title="A 3D point or vector with PetscScalar components.">
<polygon fill="none" stroke="black" points="189,-459.5 189,-478.5 243,-478.5 243,-459.5 189,-459.5"/>
<text text-anchor="middle" x="216" y="-466.5" font-family="Helvetica,sans-Serif" font-size="10.00">Cmpnts</text>
</a>
</g>
</g>
<!-- Node8&#45;&gt;Node1 -->
<g id="edge23" class="edge">
<title>Node8&#45;&gt;Node1</title>
<path fill="none" stroke="#9a32cd" stroke-dasharray="5,2" d="M234.77,-452.23C237.92,-448.81 240.86,-445.01 243,-441 279.52,-372.66 228.98,-330.81 277,-270 289.6,-254.04 341.71,-233.82 373.61,-222.56"/>
<polygon fill="#9a32cd" stroke="#9a32cd" points="232.09,-449.96 227.32,-459.41 236.94,-455 232.09,-449.96"/>
<text text-anchor="middle" x="311.5" y="-315.5" font-family="Helvetica,sans-Serif" font-size="10.00"> InitialConstantContra</text>
</g>
<!-- Node8&#45;&gt;Node7 -->
<g id="edge8" class="edge">
<title>Node8&#45;&gt;Node7</title>
<path fill="none" stroke="#9a32cd" stroke-dasharray="5,2" d="M178.89,-457.82C166.9,-453.62 153.9,-448.06 143,-441 82.74,-401.97 46.61,-317.12 36.17,-289.72"/>
<polygon fill="#9a32cd" stroke="#9a32cd" points="178.07,-461.23 188.66,-461.03 180.25,-454.58 178.07,-461.23"/>
<text text-anchor="middle" x="103.5" y="-382" font-family="Helvetica,sans-Serif" font-size="10.00"> qvec</text>
<text text-anchor="middle" x="103.5" y="-371" font-family="Helvetica,sans-Serif" font-size="10.00">uold</text>
<text text-anchor="middle" x="103.5" y="-360" font-family="Helvetica,sans-Serif" font-size="10.00">urm1</text>
<text text-anchor="middle" x="103.5" y="-349" font-family="Helvetica,sans-Serif" font-size="10.00">u</text>
</g>
<!-- Node9 -->
<g id="node9" class="node">
<title>Node9</title>
<g id="a_node9"><a xlink:href="variables_8h.html#structBoundingBox" target="_top" xlink:title="Defines a 3D axis&#45;aligned bounding box.">
<polygon fill="none" stroke="black" points="84.5,-270.5 84.5,-289.5 165.5,-289.5 165.5,-270.5 84.5,-270.5"/>
<text text-anchor="middle" x="125" y="-277.5" font-family="Helvetica,sans-Serif" font-size="10.00">BoundingBox</text>
</a>
</g>
</g>
<!-- Node8&#45;&gt;Node9 -->
<g id="edge10" class="edge">
<title>Node8&#45;&gt;Node9</title>
<path fill="none" stroke="#9a32cd" stroke-dasharray="5,2" d="M193.75,-453.54C174.57,-439.72 147.99,-417.04 135,-390 118.62,-355.91 121.66,-308.96 123.83,-289.74"/>
<polygon fill="#9a32cd" stroke="#9a32cd" points="192,-456.59 202.21,-459.41 195.99,-450.84 192,-456.59"/>
<text text-anchor="middle" x="166.5" y="-371" font-family="Helvetica,sans-Serif" font-size="10.00"> max_coords</text>
<text text-anchor="middle" x="166.5" y="-360" font-family="Helvetica,sans-Serif" font-size="10.00">min_coords</text>
</g>
<!-- Node12 -->
<g id="node12" class="node">
<title>Node12</title>
<g id="a_node12"><a xlink:href="variables_8h.html#structIBMInfo" target="_top" xlink:title="Holds interpolation and distance information for a single IBM point.">
<polygon fill="none" stroke="black" points="511,-358.5 511,-377.5 565,-377.5 565,-358.5 511,-358.5"/>
<text text-anchor="middle" x="538" y="-365.5" font-family="Helvetica,sans-Serif" font-size="10.00">IBMInfo</text>
</a>
</g>
</g>
<!-- Node8&#45;&gt;Node12 -->
<g id="edge14" class="edge">
<title>Node8&#45;&gt;Node12</title>
<path fill="none" stroke="#9a32cd" stroke-dasharray="5,2" d="M253.28,-461.09C308.88,-450.06 416.17,-426 502,-390 510.01,-386.64 518.42,-381.82 525.09,-377.64"/>
<polygon fill="#9a32cd" stroke="#9a32cd" points="252.34,-457.71 243.2,-463.06 253.68,-464.58 252.34,-457.71"/>
<text text-anchor="middle" x="463" y="-422" font-family="Helvetica,sans-Serif" font-size="10.00"> pmin</text>
</g>
<!-- Node21 -->
<g id="node21" class="node">
<title>Node21</title>
<g id="a_node21"><a xlink:href="variables_8h.html#structIBMVNodes" target="_top" xlink:title="Represents a collection of nodes forming a volume for the IBM.">
<polygon fill="none" stroke="black" points="161.5,-308.5 161.5,-327.5 234.5,-327.5 234.5,-308.5 161.5,-308.5"/>
<text text-anchor="middle" x="198" y="-315.5" font-family="Helvetica,sans-Serif" font-size="10.00">IBMVNodes</text>
</a>
</g>
</g>
<!-- Node8&#45;&gt;Node21 -->
<g id="edge31" class="edge">
<title>Node8&#45;&gt;Node21</title>
<path fill="none" stroke="#9a32cd" stroke-dasharray="5,2" d="M213.72,-449.1C209.78,-416.55 201.88,-351.13 199.04,-327.64"/>
<polygon fill="#9a32cd" stroke="#9a32cd" points="210.25,-449.62 214.93,-459.13 217.2,-448.78 210.25,-449.62"/>
<text text-anchor="middle" x="226" y="-433" font-family="Helvetica,sans-Serif" font-size="10.00"> uold</text>
<text text-anchor="middle" x="226" y="-422" font-family="Helvetica,sans-Serif" font-size="10.00">urm1</text>
<text text-anchor="middle" x="226" y="-411" font-family="Helvetica,sans-Serif" font-size="10.00">u</text>
</g>
<!-- Node9&#45;&gt;Node1 -->
<g id="edge28" class="edge">
<title>Node9&#45;&gt;Node1</title>
<path fill="none" stroke="#9a32cd" stroke-dasharray="5,2" d="M130.3,-260.72C133.38,-253.38 138.07,-245.58 145,-241 185.54,-214.18 315.04,-230.92 363,-223 366.18,-222.48 369.49,-221.81 372.76,-221.08"/>
<polygon fill="#9a32cd" stroke="#9a32cd" points="126.91,-259.82 126.94,-270.42 133.52,-262.11 126.91,-259.82"/>
<text text-anchor="middle" x="166.5" y="-244" font-family="Helvetica,sans-Serif" font-size="10.00"> bboxlist</text>
</g>
<!-- Node9&#45;&gt;Node4 -->
<g id="edge9" class="edge">
<title>Node9&#45;&gt;Node4</title>
<path fill="none" stroke="#9a32cd" stroke-dasharray="5,2" d="M93.48,-264.96C88.3,-261.4 83.5,-257.1 80,-252 67.63,-233.94 61.88,-220.52 75,-203 97.15,-173.43 206.96,-156.05 259.67,-149.29"/>
<polygon fill="#9a32cd" stroke="#9a32cd" points="92,-268.15 102.38,-270.26 95.58,-262.13 92,-268.15"/>
<text text-anchor="middle" x="89" y="-210.5" font-family="Helvetica,sans-Serif" font-size="10.00"> bbox</text>
</g>
<!-- Node10 -->
<g id="node10" class="node">
<title>Node10</title>
<g id="a_node10"><a xlink:href="variables_8h.html#structIBMList" target="_top" xlink:title="Head of a linked list for IBM data.">
<polygon fill="none" stroke="black" points="500.5,-203.5 500.5,-222.5 553.5,-222.5 553.5,-203.5 500.5,-203.5"/>
<text text-anchor="middle" x="527" y="-210.5" font-family="Helvetica,sans-Serif" font-size="10.00">IBMList</text>
</a>
</g>
</g>
<!-- Node10&#45;&gt;Node4 -->
<g id="edge11" class="edge">
<title>Node10&#45;&gt;Node4</title>
<path fill="none" stroke="#9a32cd" stroke-dasharray="5,2" d="M496.68,-199.71C472.72,-190.13 441.21,-177.83 428,-174 389.91,-162.97 344.74,-154.79 316.23,-150.2"/>
<polygon fill="#9a32cd" stroke="#9a32cd" points="495.49,-203.01 506.08,-203.49 498.1,-196.51 495.49,-203.01"/>
<text text-anchor="middle" x="474.5" y="-177" font-family="Helvetica,sans-Serif" font-size="10.00"> ibmlist</text>
</g>
<!-- Node11 -->
<g id="node11" class="node">
<title>Node11</title>
<g id="a_node11"><a xlink:href="variables_8h.html#structIBMListNode" target="_top" xlink:title="A linked list node containing IBM interpolation info.">
<polygon fill="none" stroke="black" points="568,-270.5 568,-289.5 646,-289.5 646,-270.5 568,-270.5"/>
<text text-anchor="middle" x="607" y="-277.5" font-family="Helvetica,sans-Serif" font-size="10.00">IBMListNode</text>
</a>
</g>
</g>
<!-- Node11&#45;&gt;Node10 -->
<g id="edge12" class="edge">
<title>Node11&#45;&gt;Node10</title>
<path fill="none" stroke="#9a32cd" stroke-dasharray="5,2" d="M588.19,-263.71C572.42,-250.91 550.49,-233.09 537.62,-222.63"/>
<polygon fill="#9a32cd" stroke="#9a32cd" points="586.24,-266.64 596.21,-270.23 590.66,-261.21 586.24,-266.64"/>
<text text-anchor="middle" x="585" y="-244" font-family="Helvetica,sans-Serif" font-size="10.00"> head</text>
</g>
<!-- Node11&#45;&gt;Node11 -->
<g id="edge15" class="edge">
<title>Node11&#45;&gt;Node11</title>
<path fill="none" stroke="#9a32cd" stroke-dasharray="5,2" d="M656.28,-284.85C661,-283.86 664,-282.25 664,-280 664,-276.41 656.33,-274.43 646.16,-274.06"/>
<polygon fill="#9a32cd" stroke="#9a32cd" points="655.73,-281.38 646.16,-285.94 656.48,-288.34 655.73,-281.38"/>
<text text-anchor="middle" x="676.5" y="-277.5" font-family="Helvetica,sans-Serif" font-size="10.00"> next</text>
</g>
<!-- Node12&#45;&gt;Node11 -->
<g id="edge13" class="edge">
<title>Node12&#45;&gt;Node11</title>
<path fill="none" stroke="#9a32cd" stroke-dasharray="5,2" d="M554.76,-351.18C561.65,-344.33 569.52,-336.05 576,-328 586.17,-315.36 596.19,-299.35 601.97,-289.66"/>
<polygon fill="#9a32cd" stroke="#9a32cd" points="551.99,-348.98 547.26,-358.46 556.87,-354.01 551.99,-348.98"/>
<text text-anchor="middle" x="612" y="-315.5" font-family="Helvetica,sans-Serif" font-size="10.00"> ibm_intp</text>
</g>
<!-- Node18 -->
<g id="node18" class="node">
<title>Node18</title>
<g id="a_node18"><a xlink:href="variables_8h.html#structFSInfo" target="_top" xlink:title="Holds all data related to the state and motion of a body in FSI.">
<polygon fill="none" stroke="black" points="502.5,-270.5 502.5,-289.5 549.5,-289.5 549.5,-270.5 502.5,-270.5"/>
<text text-anchor="middle" x="526" y="-277.5" font-family="Helvetica,sans-Serif" font-size="10.00">FSInfo</text>
</a>
</g>
</g>
<!-- Node12&#45;&gt;Node18 -->
<g id="edge26" class="edge">
<title>Node12&#45;&gt;Node18</title>
<path fill="none" stroke="#9a32cd" stroke-dasharray="5,2" d="M535.41,-348.41C532.86,-330.17 529.09,-303.15 527.19,-289.53"/>
<polygon fill="#9a32cd" stroke="#9a32cd" points="531.96,-349.02 536.81,-358.44 538.89,-348.05 531.96,-349.02"/>
<text text-anchor="middle" x="552" y="-315.5" font-family="Helvetica,sans-Serif" font-size="10.00"> fsi_intp</text>
</g>
<!-- Node13 -->
<g id="node13" class="node">
<title>Node13</title>
<g id="a_node13"><a xlink:href="variables_8h.html#structBCS" target="_top" xlink:title="Legacy boundary condition data.">
<polygon fill="none" stroke="black" points="112,-203.5 112,-222.5 148,-222.5 148,-203.5 112,-203.5"/>
<text text-anchor="middle" x="130" y="-210.5" font-family="Helvetica,sans-Serif" font-size="10.00">BCS</text>
</a>
</g>
</g>
<!-- Node13&#45;&gt;Node4 -->
<g id="edge17" class="edge">
<title>Node13&#45;&gt;Node4</title>
<path fill="none" stroke="#9a32cd" stroke-dasharray="5,2" d="M152.45,-198.15C165.67,-190.37 182.91,-180.88 199,-174 218.81,-165.53 242.06,-158.3 259.82,-153.31"/>
<polygon fill="#9a32cd" stroke="#9a32cd" points="150.38,-195.31 143.6,-203.45 153.98,-201.31 150.38,-195.31"/>
<text text-anchor="middle" x="209.5" y="-177" font-family="Helvetica,sans-Serif" font-size="10.00"> Bcs</text>
</g>
<!-- Node14 -->
<g id="node14" class="node">
<title>Node14</title>
<g id="a_node14"><a xlink:href="variables_8h.html#structBoundaryFaceConfig" target="_top" xlink:title="Holds the complete configuration for one of the six boundary faces.">
<polygon fill="none" stroke="black" points="687.5,-203.5 687.5,-222.5 804.5,-222.5 804.5,-203.5 687.5,-203.5"/>
<text text-anchor="middle" x="746" y="-210.5" font-family="Helvetica,sans-Serif" font-size="10.00">BoundaryFaceConfig</text>
</a>
</g>
</g>
<!-- Node14&#45;&gt;Node4 -->
<g id="edge18" class="edge">
<title>Node14&#45;&gt;Node4</title>
<path fill="none" stroke="#9a32cd" stroke-dasharray="5,2" d="M682.05,-201.91C631.79,-194.06 559.97,-183.02 497,-174 432.31,-164.73 356.22,-154.78 316.08,-149.6"/>
<polygon fill="#9a32cd" stroke="#9a32cd" points="681.71,-205.4 692.13,-203.49 682.79,-198.48 681.71,-205.4"/>
<text text-anchor="middle" x="605.5" y="-177" font-family="Helvetica,sans-Serif" font-size="10.00"> boundary_faces</text>
</g>
<!-- Node15 -->
<g id="node15" class="node">
<title>Node15</title>
<g id="a_node15"><a xlink:href="variables_8h.html#structBC__Param__s" target="_top" xlink:title="A node in a linked list for storing key&#45;value parameters from the bcs.dat file.">
<polygon fill="none" stroke="black" points="707.5,-270.5 707.5,-289.5 784.5,-289.5 784.5,-270.5 707.5,-270.5"/>
<text text-anchor="middle" x="746" y="-277.5" font-family="Helvetica,sans-Serif" font-size="10.00">BC_Param_s</text>
</a>
</g>
</g>
<!-- Node15&#45;&gt;Node14 -->
<g id="edge19" class="edge">
<title>Node15&#45;&gt;Node14</title>
<path fill="none" stroke="#9a32cd" stroke-dasharray="5,2" d="M746,-260.04C746,-247.67 746,-232.12 746,-222.63"/>
<polygon fill="#9a32cd" stroke="#9a32cd" points="742.5,-260.23 746,-270.23 749.5,-260.23 742.5,-260.23"/>
<text text-anchor="middle" x="766" y="-244" font-family="Helvetica,sans-Serif" font-size="10.00"> params</text>
</g>
<!-- Node15&#45;&gt;Node15 -->
<g id="edge20" class="edge">
<title>Node15&#45;&gt;Node15</title>
<path fill="none" stroke="#9a32cd" stroke-dasharray="5,2" d="M794.72,-284.87C799.48,-283.89 802.5,-282.27 802.5,-280 802.5,-276.38 794.77,-274.39 784.56,-274.05"/>
<polygon fill="#9a32cd" stroke="#9a32cd" points="794.13,-281.41 784.56,-285.95 794.87,-288.38 794.13,-281.41"/>
<text text-anchor="middle" x="815" y="-277.5" font-family="Helvetica,sans-Serif" font-size="10.00"> next</text>
</g>
<!-- Node16 -->
<g id="node16" class="node">
<title>Node16</title>
<g id="a_node16"><a xlink:href="structBoundaryCondition.html" target="_top" xlink:title="The &quot;virtual table&quot; struct for a boundary condition handler object.">
<polygon fill="none" stroke="black" points="846,-270.5 846,-289.5 956,-289.5 956,-270.5 846,-270.5"/>
<text text-anchor="middle" x="901" y="-277.5" font-family="Helvetica,sans-Serif" font-size="10.00">BoundaryCondition</text>
</a>
</g>
</g>
<!-- Node16&#45;&gt;Node14 -->
<g id="edge21" class="edge">
<title>Node16&#45;&gt;Node14</title>
<path fill="none" stroke="#9a32cd" stroke-dasharray="5,2" d="M871.07,-266.45C840.38,-253.58 793.46,-233.9 766.67,-222.67"/>
<polygon fill="#9a32cd" stroke="#9a32cd" points="869.84,-269.73 880.42,-270.37 872.55,-263.27 869.84,-269.73"/>
<text text-anchor="middle" x="852" y="-244" font-family="Helvetica,sans-Serif" font-size="10.00"> handler</text>
</g>
<!-- Node17 -->
<g id="node17" class="node">
<title>Node17</title>
<g id="a_node17"><a xlink:href="variables_8h.html#structPostProcessParams" target="_top" xlink:title="Holds all configuration parameters for a post&#45;processing run.">
<polygon fill="none" stroke="black" points="286,-270.5 286,-289.5 398,-289.5 398,-270.5 286,-270.5"/>
<text text-anchor="middle" x="342" y="-277.5" font-family="Helvetica,sans-Serif" font-size="10.00">PostProcessParams</text>
</a>
</g>
</g>
<!-- Node17&#45;&gt;Node1 -->
<g id="edge24" class="edge">
<title>Node17&#45;&gt;Node1</title>
<path fill="none" stroke="#9a32cd" stroke-dasharray="5,2" d="M356.35,-262.63C367.5,-249.92 382.52,-232.8 391.43,-222.63"/>
<polygon fill="#9a32cd" stroke="#9a32cd" points="353.65,-260.41 349.69,-270.23 358.91,-265.02 353.65,-260.41"/>
<text text-anchor="middle" x="384.5" y="-244" font-family="Helvetica,sans-Serif" font-size="10.00"> pps</text>
</g>
<!-- Node18&#45;&gt;Node1 -->
<g id="edge25" class="edge">
<title>Node18&#45;&gt;Node1</title>
<path fill="none" stroke="#9a32cd" stroke-dasharray="5,2" d="M506.85,-264.37C496.34,-256.77 482.87,-247.69 470,-241 455.73,-233.57 438.93,-227.09 425.26,-222.34"/>
<polygon fill="#9a32cd" stroke="#9a32cd" points="504.78,-267.19 514.9,-270.32 508.95,-261.56 504.78,-267.19"/>
<text text-anchor="middle" x="495" y="-244" font-family="Helvetica,sans-Serif" font-size="10.00"> fsi</text>
</g>
<!-- Node19 -->
<g id="node19" class="node">
<title>Node19</title>
<g id="a_node19"><a xlink:href="variables_8h.html#structSurfElmtInfo" target="_top" xlink:title="Information about a surface element for FSI calculations.">
<polygon fill="none" stroke="black" points="415.5,-358.5 415.5,-377.5 492.5,-377.5 492.5,-358.5 415.5,-358.5"/>
<text text-anchor="middle" x="454" y="-365.5" font-family="Helvetica,sans-Serif" font-size="10.00">SurfElmtInfo</text>
</a>
</g>
</g>
<!-- Node19&#45;&gt;Node18 -->
<g id="edge27" class="edge">
<title>Node19&#45;&gt;Node18</title>
<path fill="none" stroke="#9a32cd" stroke-dasharray="5,2" d="M458.83,-348.63C462.86,-336.07 469.64,-319.64 480,-308 486.9,-300.25 496.56,-294.12 505.26,-289.67"/>
<polygon fill="#9a32cd" stroke="#9a32cd" points="455.4,-347.89 455.97,-358.47 462.12,-349.84 455.4,-347.89"/>
<text text-anchor="middle" x="502.5" y="-315.5" font-family="Helvetica,sans-Serif" font-size="10.00"> elmtinfo</text>
</g>
<!-- Node20 -->
<g id="node20" class="node">
<title>Node20</title>
<g id="a_node20"><a xlink:href="variables_8h.html#structScalingCtx" target="_top" xlink:title=" ">
<polygon fill="none" stroke="black" points="416,-270.5 416,-289.5 484,-289.5 484,-270.5 416,-270.5"/>
<text text-anchor="middle" x="450" y="-277.5" font-family="Helvetica,sans-Serif" font-size="10.00">ScalingCtx</text>
</a>
</g>
</g>
<!-- Node20&#45;&gt;Node1 -->
<g id="edge29" class="edge">
<title>Node20&#45;&gt;Node1</title>
<path fill="none" stroke="#9a32cd" stroke-dasharray="5,2" d="M436.87,-262.27C426.93,-249.6 413.67,-232.7 405.77,-222.63"/>
<polygon fill="#9a32cd" stroke="#9a32cd" points="434.2,-264.53 443.12,-270.23 439.7,-260.21 434.2,-264.53"/>
<text text-anchor="middle" x="447" y="-244" font-family="Helvetica,sans-Serif" font-size="10.00"> scaling</text>
</g>
<!-- Node21&#45;&gt;Node1 -->
<g id="edge30" class="edge">
<title>Node21&#45;&gt;Node1</title>
<path fill="none" stroke="#9a32cd" stroke-dasharray="5,2" d="M202.96,-298.77C209.12,-280.19 221.66,-252.53 244,-241 291.53,-216.46 310.55,-233.5 363,-223 366.16,-222.37 369.46,-221.64 372.72,-220.88"/>
<polygon fill="#9a32cd" stroke="#9a32cd" points="199.57,-297.88 200.04,-308.46 206.27,-299.89 199.57,-297.88"/>
<text text-anchor="middle" x="230" y="-277.5" font-family="Helvetica,sans-Serif" font-size="10.00"> ibmv</text>
</g>
</g>
</svg>
        <g id="navigator" transform="translate(0 0)" fill="#404254">
                <rect fill="#f2f5e9" fill-opacity="0.5" stroke="#606060" stroke-width=".5" x="0" y="0" width="60" height="60"/>
                <use id="zoomplus" xlink:href="#zoomPlus" x="17" y="9" onmousedown="handleZoom(evt,'in')"/>
                <use id="zoomminus" xlink:href="#zoomMin" x="42" y="9" onmousedown="handleZoom(evt,'out')"/>
                <use id="reset" xlink:href="#resetDef" x="30" y="36" onmousedown="handleReset()"/>
                <g id="arrowUp" xlink:href="#dirArrow" transform="translate(30 24)" onmousedown="handlePan(0,-1)">
                  <use xlink:href="#rim" fill="#404040">
                        <set attributeName="fill" to="#808080" begin="arrowUp.mouseover" end="arrowUp.mouseout"/>
                  </use>
                  <path fill="none" stroke="white" stroke-width="1.5" d="M0,-3.0v7 M-2.5,-0.5L0,-3.0L2.5,-0.5"/>
                </g>
                <g id="arrowRight" xlink:href="#dirArrow" transform="rotate(90) translate(36 -43)" onmousedown="handlePan(1,0)">
                  <use xlink:href="#rim" fill="#404040">
                        <set attributeName="fill" to="#808080" begin="arrowRight.mouseover" end="arrowRight.mouseout"/>
                  </use>
                  <path fill="none" stroke="white" stroke-width="1.5" d="M0,-3.0v7 M-2.5,-0.5L0,-3.0L2.5,-0.5"/>
                </g>
                <g id="arrowDown" xlink:href="#dirArrow" transform="rotate(180) translate(-30 -48)" onmousedown="handlePan(0,1)">
                  <use xlink:href="#rim" fill="#404040">
                        <set attributeName="fill" to="#808080" begin="arrowDown.mouseover" end="arrowDown.mouseout"/>
                  </use>
                  <path fill="none" stroke="white" stroke-width="1.5" d="M0,-3.0v7 M-2.5,-0.5L0,-3.0L2.5,-0.5"/>
                </g>
                <g id="arrowLeft" xlink:href="#dirArrow" transform="rotate(270) translate(-36 17)" onmousedown="handlePan(-1,0)">
                  <use xlink:href="#rim" fill="#404040">
                        <set attributeName="fill" to="#808080" begin="arrowLeft.mouseover" end="arrowLeft.mouseout"/>
                  </use>
                  <path fill="none" stroke="white" stroke-width="1.5" d="M0,-3.0v7 M-2.5,-0.5L0,-3.0L2.5,-0.5"/>
                </g>
        </g>
        <svg viewBox="0 0 15 15" width="100%" height="30px" preserveAspectRatio="xMaxYMin meet">
         <g id="arrow_out" transform="scale(0.3 0.3)">
          <a xlink:href="structSimCtx__coll__graph_org.svg" target="_base">
           <rect id="button" ry="5" rx="5" y="6" x="6" height="38" width="38"
                fill="#f2f5e9" fill-opacity="0.5" stroke="#606060" stroke-width="1.0"/>
           <path id="arrow"
             d="M 11.500037,31.436501 C 11.940474,20.09759 22.043105,11.32322 32.158766,21.979434 L 37.068811,17.246167 C 37.068811,17.246167 37.088388,32 37.088388,32 L 22.160133,31.978069 C 22.160133,31.978069 26.997745,27.140456 26.997745,27.140456 C 18.528582,18.264221 13.291696,25.230495 11.500037,31.436501 z"
             style="fill:#404040;"/>
          </a>
         </g>
        </svg>
</svg>
