<?xml version="1.0" encoding="UTF-8" standalone="no"?>
<!DOCTYPE svg PUBLIC "-//W3C//DTD SVG 1.1//EN"
 "http://www.w3.org/Graphics/SVG/1.1/DTD/svg11.dtd">
<!-- Generated by graphviz version 2.43.0 (0)
 -->
<!-- Title: BCContext Pages: 1 -->
<svg width="1257pt" height="494pt"
 viewBox="0.00 0.00 1257.00 494.00" xmlns="http://www.w3.org/2000/svg" xmlns:xlink="http://www.w3.org/1999/xlink">
<g id="graph0" class="graph" transform="scale(1 1) rotate(0) translate(4 490)">
<title>BCContext</title>
<!-- Node1 -->
<g id="node1" class="node">
<title>Node1</title>
<g id="a_node1"><a xlink:title="Provides execution context for a boundary condition handler.">
<polygon fill="#bfbfbf" stroke="black" points="867,-180.5 867,-199.5 935,-199.5 935,-180.5 867,-180.5"/>
<text text-anchor="middle" x="901" y="-187.5" font-family="Helvetica,sans-Serif" font-size="10.00">BCContext</text>
</a>
</g>
</g>
<!-- Node2 -->
<g id="node2" class="node">
<title>Node2</title>
<g id="a_node2"><a xlink:href="variables_8h.html#structUserCtx" target="_top" xlink:title="User&#45;defined context containing data specific to a single computational grid level.">
<polygon fill="none" stroke="black" points="750,-224.5 750,-243.5 806,-243.5 806,-224.5 750,-224.5"/>
<text text-anchor="middle" x="778" y="-231.5" font-family="Helvetica,sans-Serif" font-size="10.00">UserCtx</text>
</a>
</g>
</g>
<!-- Node2&#45;&gt;Node1 -->
<g id="edge1" class="edge">
<title>Node2&#45;&gt;Node1</title>
<path fill="none" stroke="#9a32cd" stroke-dasharray="5,2" d="M798.2,-218.04C805.81,-212.47 814.9,-206.7 824,-203 837.52,-197.5 853.3,-194.33 866.97,-192.5"/>
<polygon fill="#9a32cd" stroke="#9a32cd" points="795.81,-215.46 790.04,-224.35 800.09,-221 795.81,-215.46"/>
<text text-anchor="middle" x="836.5" y="-206" font-family="Helvetica,sans-Serif" font-size="10.00"> user</text>
</g>
<!-- Node2&#45;&gt;Node2 -->
<g id="edge27" class="edge">
<title>Node2&#45;&gt;Node2</title>
<path fill="none" stroke="#9a32cd" stroke-dasharray="5,2" d="M767.32,-253.77C768.16,-258.5 771.72,-262 778,-262 788.31,-262 791.29,-252.57 786.94,-243.76"/>
<polygon fill="#9a32cd" stroke="#9a32cd" points="770.79,-254.21 769.06,-243.76 763.9,-253.01 770.79,-254.21"/>
<text text-anchor="middle" x="778" y="-276" font-family="Helvetica,sans-Serif" font-size="10.00"> user_f</text>
<text text-anchor="middle" x="778" y="-265" font-family="Helvetica,sans-Serif" font-size="10.00">user_c</text>
</g>
<!-- Node5 -->
<g id="node5" class="node">
<title>Node5</title>
<g id="a_node5"><a xlink:href="variables_8h.html#structMGCtx" target="_top" xlink:title="Context for Multigrid operations.">
<polygon fill="none" stroke="black" points="876,-256.5 876,-275.5 926,-275.5 926,-256.5 876,-256.5"/>
<text text-anchor="middle" x="901" y="-263.5" font-family="Helvetica,sans-Serif" font-size="10.00">MGCtx</text>
</a>
</g>
</g>
<!-- Node2&#45;&gt;Node5 -->
<g id="edge5" class="edge">
<title>Node2&#45;&gt;Node5</title>
<path fill="none" stroke="#9a32cd" stroke-dasharray="5,2" d="M815.92,-243.76C835.37,-248.91 858.67,-255.07 875.81,-259.6"/>
<polygon fill="#9a32cd" stroke="#9a32cd" points="816.72,-240.35 806.15,-241.18 814.93,-247.12 816.72,-240.35"/>
<text text-anchor="middle" x="836.5" y="-254" font-family="Helvetica,sans-Serif" font-size="10.00"> user</text>
</g>
<!-- Node3 -->
<g id="node3" class="node">
<title>Node3</title>
<g id="a_node3"><a xlink:href="variables_8h.html#structSimCtx" target="_top" xlink:title="The master context for the entire simulation.">
<polygon fill="none" stroke="black" points="1197,-218.5 1197,-237.5 1249,-237.5 1249,-218.5 1197,-218.5"/>
<text text-anchor="middle" x="1223" y="-225.5" font-family="Helvetica,sans-Serif" font-size="10.00">SimCtx</text>
</a>
</g>
</g>
<!-- Node3&#45;&gt;Node2 -->
<g id="edge2" class="edge">
<title>Node3&#45;&gt;Node2</title>
<path fill="none" stroke="#9a32cd" stroke-dasharray="5,2" d="M1186.96,-228.47C1101.3,-229.63 882.69,-232.6 806.04,-233.63"/>
<polygon fill="#9a32cd" stroke="#9a32cd" points="1187.02,-231.97 1196.97,-228.34 1186.92,-224.97 1187.02,-231.97"/>
<text text-anchor="middle" x="972" y="-234" font-family="Helvetica,sans-Serif" font-size="10.00"> simCtx</text>
</g>
<!-- Node4 -->
<g id="node4" class="node">
<title>Node4</title>
<g id="a_node4"><a xlink:href="variables_8h.html#structUserMG" target="_top" xlink:title="User&#45;level context for managing the entire multigrid hierarchy.">
<polygon fill="none" stroke="black" points="1037,-256.5 1037,-275.5 1093,-275.5 1093,-256.5 1037,-256.5"/>
<text text-anchor="middle" x="1065" y="-263.5" font-family="Helvetica,sans-Serif" font-size="10.00">UserMG</text>
</a>
</g>
</g>
<!-- Node4&#45;&gt;Node3 -->
<g id="edge3" class="edge">
<title>Node4&#45;&gt;Node3</title>
<path fill="none" stroke="#9a32cd" stroke-dasharray="5,2" d="M1103.14,-259.14C1125.3,-254.79 1153.92,-248.73 1179,-242 1184.76,-240.45 1190.89,-238.59 1196.67,-236.74"/>
<polygon fill="#9a32cd" stroke="#9a32cd" points="1102.29,-255.74 1093.13,-261.07 1103.61,-262.61 1102.29,-255.74"/>
<text text-anchor="middle" x="1159" y="-254" font-family="Helvetica,sans-Serif" font-size="10.00"> usermg</text>
</g>
<!-- Node5&#45;&gt;Node4 -->
<g id="edge4" class="edge">
<title>Node5&#45;&gt;Node4</title>
<path fill="none" stroke="#9a32cd" stroke-dasharray="5,2" d="M936.27,-266C966.26,-266 1009.23,-266 1036.87,-266"/>
<polygon fill="#9a32cd" stroke="#9a32cd" points="936.25,-262.5 926.25,-266 936.25,-269.5 936.25,-262.5"/>
<text text-anchor="middle" x="972" y="-269" font-family="Helvetica,sans-Serif" font-size="10.00"> mgctx</text>
</g>
<!-- Node6 -->
<g id="node6" class="node">
<title>Node6</title>
<g id="a_node6"><a xlink:href="variables_8h.html#structIBMNodes" target="_top" xlink:title="Represents a collection of nodes forming a surface for the IBM.">
<polygon fill="none" stroke="black" points="515.5,-152.5 515.5,-171.5 581.5,-171.5 581.5,-152.5 515.5,-152.5"/>
<text text-anchor="middle" x="548.5" y="-159.5" font-family="Helvetica,sans-Serif" font-size="10.00">IBMNodes</text>
</a>
</g>
</g>
<!-- Node6&#45;&gt;Node2 -->
<g id="edge21" class="edge">
<title>Node6&#45;&gt;Node2</title>
<path fill="none" stroke="#9a32cd" stroke-dasharray="5,2" d="M591.99,-160.88C630.49,-161.53 687.8,-166.76 732,-189 748.38,-197.24 762.44,-213.72 770.3,-224.28"/>
<polygon fill="#9a32cd" stroke="#9a32cd" points="591.68,-157.38 581.65,-160.81 591.63,-164.38 591.68,-157.38"/>
<text text-anchor="middle" x="678.5" y="-192" font-family="Helvetica,sans-Serif" font-size="10.00"> ibm</text>
</g>
<!-- Node6&#45;&gt;Node3 -->
<g id="edge6" class="edge">
<title>Node6&#45;&gt;Node3</title>
<path fill="none" stroke="#9a32cd" stroke-dasharray="5,2" d="M591.96,-156.93C637.61,-151.92 712.33,-145 777,-145 777,-145 777,-145 1066,-145 1127.97,-145 1189.27,-196.68 1212.38,-218.48"/>
<polygon fill="#9a32cd" stroke="#9a32cd" points="591.39,-153.47 581.84,-158.06 592.17,-160.42 591.39,-153.47"/>
<text text-anchor="middle" x="901" y="-148" font-family="Helvetica,sans-Serif" font-size="10.00"> ibm</text>
</g>
<!-- Node7 -->
<g id="node7" class="node">
<title>Node7</title>
<g id="a_node7"><a xlink:href="variables_8h.html#structCmpnts" target="_top" xlink:title="A 3D point or vector with PetscScalar components.">
<polygon fill="none" stroke="black" points="0,-326.5 0,-345.5 54,-345.5 54,-326.5 0,-326.5"/>
<text text-anchor="middle" x="27" y="-333.5" font-family="Helvetica,sans-Serif" font-size="10.00">Cmpnts</text>
</a>
</g>
</g>
<!-- Node7&#45;&gt;Node3 -->
<g id="edge8" class="edge">
<title>Node7&#45;&gt;Node3</title>
<path fill="none" stroke="#9a32cd" stroke-dasharray="5,2" d="M32.51,-355.54C38.37,-377.12 50.48,-411.73 72,-434 100.73,-463.73 114.16,-475 155.5,-475 155.5,-475 155.5,-475 1066,-475 1128.58,-475 1148.05,-445.39 1179,-391 1208.96,-338.35 1218.59,-264.27 1221.17,-237.84"/>
<polygon fill="#9a32cd" stroke="#9a32cd" points="35.84,-354.43 30,-345.59 29.05,-356.14 35.84,-354.43"/>
<text text-anchor="middle" x="678.5" y="-478" font-family="Helvetica,sans-Serif" font-size="10.00"> InitialConstantContra</text>
</g>
<!-- Node7&#45;&gt;Node6 -->
<g id="edge7" class="edge">
<title>Node7&#45;&gt;Node6</title>
<path fill="none" stroke="#9a32cd" stroke-dasharray="5,2" d="M51.5,-320.83C97.78,-291.72 204.89,-228.17 304,-197 377.34,-173.94 467.93,-166 515.25,-163.33"/>
<polygon fill="#9a32cd" stroke="#9a32cd" points="49.39,-318.02 42.82,-326.33 53.14,-323.93 49.39,-318.02"/>
<text text-anchor="middle" x="249.5" y="-268" font-family="Helvetica,sans-Serif" font-size="10.00"> qvec</text>
<text text-anchor="middle" x="249.5" y="-257" font-family="Helvetica,sans-Serif" font-size="10.00">uold</text>
<text text-anchor="middle" x="249.5" y="-246" font-family="Helvetica,sans-Serif" font-size="10.00">urm1</text>
<text text-anchor="middle" x="249.5" y="-235" font-family="Helvetica,sans-Serif" font-size="10.00">u</text>
</g>
<!-- Node10 -->
<g id="node10" class="node">
<title>Node10</title>
<g id="a_node10"><a xlink:href="variables_8h.html#structIBMInfo" target="_top" xlink:title="Holds interpolation and distance information for a single IBM point.">
<polygon fill="none" stroke="black" points="129.5,-326.5 129.5,-345.5 183.5,-345.5 183.5,-326.5 129.5,-326.5"/>
<text text-anchor="middle" x="156.5" y="-333.5" font-family="Helvetica,sans-Serif" font-size="10.00">IBMInfo</text>
</a>
</g>
</g>
<!-- Node7&#45;&gt;Node10 -->
<g id="edge12" class="edge">
<title>Node7&#45;&gt;Node10</title>
<path fill="none" stroke="#9a32cd" stroke-dasharray="5,2" d="M64.18,-336C84.97,-336 110.61,-336 129.43,-336"/>
<polygon fill="#9a32cd" stroke="#9a32cd" points="64.11,-332.5 54.11,-336 64.11,-339.5 64.11,-332.5"/>
<text text-anchor="middle" x="86" y="-339" font-family="Helvetica,sans-Serif" font-size="10.00"> pmin</text>
</g>
<!-- Node12 -->
<g id="node12" class="node">
<title>Node12</title>
<g id="a_node12"><a xlink:href="variables_8h.html#structBoundingBox" target="_top" xlink:title="Defines a 3D axis&#45;aligned bounding box.">
<polygon fill="none" stroke="black" points="508,-109.5 508,-128.5 589,-128.5 589,-109.5 508,-109.5"/>
<text text-anchor="middle" x="548.5" y="-116.5" font-family="Helvetica,sans-Serif" font-size="10.00">BoundingBox</text>
</a>
</g>
</g>
<!-- Node7&#45;&gt;Node12 -->
<g id="edge15" class="edge">
<title>Node7&#45;&gt;Node12</title>
<path fill="none" stroke="#9a32cd" stroke-dasharray="5,2" d="M41.56,-318.11C69.25,-283.23 136.2,-206.9 213,-177 314.47,-137.5 443.7,-124.8 507.77,-120.8"/>
<polygon fill="#9a32cd" stroke="#9a32cd" points="38.48,-316.37 35.1,-326.41 44.01,-320.67 38.48,-316.37"/>
<text text-anchor="middle" x="249.5" y="-191" font-family="Helvetica,sans-Serif" font-size="10.00"> max_coords</text>
<text text-anchor="middle" x="249.5" y="-180" font-family="Helvetica,sans-Serif" font-size="10.00">min_coords</text>
</g>
<!-- Node14 -->
<g id="node14" class="node">
<title>Node14</title>
<g id="a_node14"><a xlink:href="variables_8h.html#structIBMVNodes" target="_top" xlink:title="Represents a collection of nodes forming a volume for the IBM.">
<polygon fill="none" stroke="black" points="213,-422.5 213,-441.5 286,-441.5 286,-422.5 213,-422.5"/>
<text text-anchor="middle" x="249.5" y="-429.5" font-family="Helvetica,sans-Serif" font-size="10.00">IBMVNodes</text>
</a>
</g>
</g>
<!-- Node7&#45;&gt;Node14 -->
<g id="edge18" class="edge">
<title>Node7&#45;&gt;Node14</title>
<path fill="none" stroke="#9a32cd" stroke-dasharray="5,2" d="M44.24,-353.22C61.06,-369.95 88.9,-394.72 118,-408 148.18,-421.78 185.69,-427.65 212.75,-430.15"/>
<polygon fill="#9a32cd" stroke="#9a32cd" points="46.41,-350.44 36.91,-345.74 41.41,-355.33 46.41,-350.44"/>
<text text-anchor="middle" x="86" y="-422" font-family="Helvetica,sans-Serif" font-size="10.00"> uold</text>
<text text-anchor="middle" x="86" y="-411" font-family="Helvetica,sans-Serif" font-size="10.00">urm1</text>
<text text-anchor="middle" x="86" y="-400" font-family="Helvetica,sans-Serif" font-size="10.00">u</text>
</g>
<!-- Node8 -->
<g id="node8" class="node">
<title>Node8</title>
<g id="a_node8"><a xlink:href="variables_8h.html#structPostProcessParams" target="_top" xlink:title="Holds all configuration parameters for a post&#45;processing run.">
<polygon fill="none" stroke="black" points="1009,-38.5 1009,-57.5 1121,-57.5 1121,-38.5 1009,-38.5"/>
<text text-anchor="middle" x="1065" y="-45.5" font-family="Helvetica,sans-Serif" font-size="10.00">PostProcessParams</text>
</a>
</g>
</g>
<!-- Node8&#45;&gt;Node3 -->
<g id="edge9" class="edge">
<title>Node8&#45;&gt;Node3</title>
<path fill="none" stroke="#9a32cd" stroke-dasharray="5,2" d="M1131.33,-42.71C1148.54,-44.51 1165.93,-49.61 1179,-61 1203.27,-82.14 1217.1,-185.56 1220.91,-218.15"/>
<polygon fill="#9a32cd" stroke="#9a32cd" points="1131.46,-39.21 1121.25,-42.02 1130.98,-46.2 1131.46,-39.21"/>
<text text-anchor="middle" x="1159" y="-64" font-family="Helvetica,sans-Serif" font-size="10.00"> pps</text>
</g>
<!-- Node9 -->
<g id="node9" class="node">
<title>Node9</title>
<g id="a_node9"><a xlink:href="variables_8h.html#structFSInfo" target="_top" xlink:title="Holds all data related to the state and motion of a body in FSI.">
<polygon fill="none" stroke="black" points="335.5,-380.5 335.5,-399.5 382.5,-399.5 382.5,-380.5 335.5,-380.5"/>
<text text-anchor="middle" x="359" y="-387.5" font-family="Helvetica,sans-Serif" font-size="10.00">FSInfo</text>
</a>
</g>
</g>
<!-- Node9&#45;&gt;Node3 -->
<g id="edge10" class="edge">
<title>Node9&#45;&gt;Node3</title>
<path fill="none" stroke="#9a32cd" stroke-dasharray="5,2" d="M392.81,-390C430.24,-390 493.28,-390 547.5,-390 547.5,-390 547.5,-390 1066,-390 1151.12,-390 1204.39,-272.52 1218.34,-237.65"/>
<polygon fill="#9a32cd" stroke="#9a32cd" points="392.51,-386.5 382.51,-390 392.51,-393.5 392.51,-386.5"/>
<text text-anchor="middle" x="836.5" y="-393" font-family="Helvetica,sans-Serif" font-size="10.00"> fsi</text>
</g>
<!-- Node10&#45;&gt;Node9 -->
<g id="edge11" class="edge">
<title>Node10&#45;&gt;Node9</title>
<path fill="none" stroke="#9a32cd" stroke-dasharray="5,2" d="M193.62,-345.73C234.86,-356.83 301.03,-374.66 335.49,-383.94"/>
<polygon fill="#9a32cd" stroke="#9a32cd" points="194.28,-342.28 183.71,-343.06 192.46,-349.04 194.28,-342.28"/>
<text text-anchor="middle" x="249.5" y="-372" font-family="Helvetica,sans-Serif" font-size="10.00"> fsi_intp</text>
</g>
<!-- Node18 -->
<g id="node18" class="node">
<title>Node18</title>
<g id="a_node18"><a xlink:href="variables_8h.html#structIBMListNode" target="_top" xlink:title="A linked list node containing IBM interpolation info.">
<polygon fill="none" stroke="black" points="320,-313.5 320,-332.5 398,-332.5 398,-313.5 320,-313.5"/>
<text text-anchor="middle" x="359" y="-320.5" font-family="Helvetica,sans-Serif" font-size="10.00">IBMListNode</text>
</a>
</g>
</g>
<!-- Node10&#45;&gt;Node18 -->
<g id="edge25" class="edge">
<title>Node10&#45;&gt;Node18</title>
<path fill="none" stroke="#9a32cd" stroke-dasharray="5,2" d="M193.42,-326.32C199.89,-324.94 206.61,-323.74 213,-323 249.01,-318.84 290.39,-319.36 319.7,-320.61"/>
<polygon fill="#9a32cd" stroke="#9a32cd" points="192.5,-322.94 183.54,-328.6 194.07,-329.76 192.5,-322.94"/>
<text text-anchor="middle" x="249.5" y="-326" font-family="Helvetica,sans-Serif" font-size="10.00"> ibm_intp</text>
</g>
<!-- Node11 -->
<g id="node11" class="node">
<title>Node11</title>
<g id="a_node11"><a xlink:href="variables_8h.html#structSurfElmtInfo" target="_top" xlink:title="Information about a surface element for FSI calculations.">
<polygon fill="none" stroke="black" points="118,-379.5 118,-398.5 195,-398.5 195,-379.5 118,-379.5"/>
<text text-anchor="middle" x="156.5" y="-386.5" font-family="Helvetica,sans-Serif" font-size="10.00">SurfElmtInfo</text>
</a>
</g>
</g>
<!-- Node11&#45;&gt;Node9 -->
<g id="edge13" class="edge">
<title>Node11&#45;&gt;Node9</title>
<path fill="none" stroke="#9a32cd" stroke-dasharray="5,2" d="M205.3,-389.24C246.45,-389.44 304.02,-389.73 335.41,-389.89"/>
<polygon fill="#9a32cd" stroke="#9a32cd" points="205.23,-385.74 195.21,-389.19 205.19,-392.74 205.23,-385.74"/>
<text text-anchor="middle" x="249.5" y="-392" font-family="Helvetica,sans-Serif" font-size="10.00"> elmtinfo</text>
</g>
<!-- Node12&#45;&gt;Node2 -->
<g id="edge22" class="edge">
<title>Node12&#45;&gt;Node2</title>
<path fill="none" stroke="#9a32cd" stroke-dasharray="5,2" d="M599.5,-114.96C638.99,-114.34 693.64,-119.45 732,-147 758.66,-166.15 770.7,-205.87 775.01,-224.27"/>
<polygon fill="#9a32cd" stroke="#9a32cd" points="599.19,-111.47 589.3,-115.25 599.39,-118.46 599.19,-111.47"/>
<text text-anchor="middle" x="678.5" y="-150" font-family="Helvetica,sans-Serif" font-size="10.00"> bbox</text>
</g>
<!-- Node12&#45;&gt;Node3 -->
<g id="edge14" class="edge">
<title>Node12&#45;&gt;Node3</title>
<path fill="none" stroke="#9a32cd" stroke-dasharray="5,2" d="M599.09,-107.61C644.98,-98.07 715.22,-86 777,-86 777,-86 777,-86 1066,-86 1144.74,-86 1201.25,-186.16 1217.34,-218.24"/>
<polygon fill="#9a32cd" stroke="#9a32cd" points="598.17,-104.22 589.11,-109.72 599.62,-111.07 598.17,-104.22"/>
<text text-anchor="middle" x="901" y="-89" font-family="Helvetica,sans-Serif" font-size="10.00"> bboxlist</text>
</g>
<!-- Node13 -->
<g id="node13" class="node">
<title>Node13</title>
<g id="a_node13"><a xlink:href="variables_8h.html#structScalingCtx" target="_top" xlink:title=" ">
<polygon fill="none" stroke="black" points="1031,-0.5 1031,-19.5 1099,-19.5 1099,-0.5 1031,-0.5"/>
<text text-anchor="middle" x="1065" y="-7.5" font-family="Helvetica,sans-Serif" font-size="10.00">ScalingCtx</text>
</a>
</g>
</g>
<!-- Node13&#45;&gt;Node3 -->
<g id="edge16" class="edge">
<title>Node13&#45;&gt;Node3</title>
<path fill="none" stroke="#9a32cd" stroke-dasharray="5,2" d="M1109.17,-6.75C1132.73,-7.38 1160.74,-12.43 1179,-30 1206.76,-56.7 1218.49,-182.62 1221.3,-218.46"/>
<polygon fill="#9a32cd" stroke="#9a32cd" points="1109.06,-3.25 1099.05,-6.73 1109.04,-10.25 1109.06,-3.25"/>
<text text-anchor="middle" x="1159" y="-33" font-family="Helvetica,sans-Serif" font-size="10.00"> scaling</text>
</g>
<!-- Node14&#45;&gt;Node3 -->
<g id="edge17" class="edge">
<title>Node14&#45;&gt;Node3</title>
<path fill="none" stroke="#9a32cd" stroke-dasharray="5,2" d="M296.49,-433.44C337.12,-434.59 397.99,-436 451,-436 451,-436 451,-436 1066,-436 1129.11,-436 1144.41,-402.79 1179,-350 1203.61,-312.43 1216.01,-259.1 1220.26,-237.57"/>
<polygon fill="#9a32cd" stroke="#9a32cd" points="296.45,-429.94 286.35,-433.15 296.25,-436.93 296.45,-429.94"/>
<text text-anchor="middle" x="778" y="-439" font-family="Helvetica,sans-Serif" font-size="10.00"> ibmv</text>
</g>
<!-- Node15 -->
<g id="node15" class="node">
<title>Node15</title>
<g id="a_node15"><a xlink:href="variables_8h.html#structRankNeighbors" target="_top" xlink:title="Stores the MPI ranks of neighboring subdomains.">
<polygon fill="none" stroke="black" points="503,-190.5 503,-209.5 594,-209.5 594,-190.5 503,-190.5"/>
<text text-anchor="middle" x="548.5" y="-197.5" font-family="Helvetica,sans-Serif" font-size="10.00">RankNeighbors</text>
</a>
</g>
</g>
<!-- Node15&#45;&gt;Node2 -->
<g id="edge19" class="edge">
<title>Node15&#45;&gt;Node2</title>
<path fill="none" stroke="#9a32cd" stroke-dasharray="5,2" d="M604.6,-202.6C641.07,-205.09 689.77,-209.88 732,-219 738.44,-220.39 745.25,-222.38 751.57,-224.45"/>
<polygon fill="#9a32cd" stroke="#9a32cd" points="604.38,-199.08 594.18,-201.93 603.93,-206.07 604.38,-199.08"/>
<text text-anchor="middle" x="678.5" y="-222" font-family="Helvetica,sans-Serif" font-size="10.00"> neighbors</text>
</g>
<!-- Node16 -->
<g id="node16" class="node">
<title>Node16</title>
<g id="a_node16"><a xlink:href="variables_8h.html#structRankCellInfo" target="_top" xlink:title="A lean struct to hold the global cell ownership range for a single MPI rank.">
<polygon fill="none" stroke="black" points="509,-304.5 509,-323.5 588,-323.5 588,-304.5 509,-304.5"/>
<text text-anchor="middle" x="548.5" y="-311.5" font-family="Helvetica,sans-Serif" font-size="10.00">RankCellInfo</text>
</a>
</g>
</g>
<!-- Node16&#45;&gt;Node2 -->
<g id="edge20" class="edge">
<title>Node16&#45;&gt;Node2</title>
<path fill="none" stroke="#9a32cd" stroke-dasharray="5,2" d="M598.65,-314.61C637.11,-313.11 690.8,-306.53 732,-284 749.62,-274.36 763.88,-255.1 771.34,-243.5"/>
<polygon fill="#9a32cd" stroke="#9a32cd" points="598.12,-311.12 588.23,-314.91 598.32,-318.12 598.12,-311.12"/>
<text text-anchor="middle" x="678.5" y="-315" font-family="Helvetica,sans-Serif" font-size="10.00"> RankCellInfoMap</text>
</g>
<!-- Node17 -->
<g id="node17" class="node">
<title>Node17</title>
<g id="a_node17"><a xlink:href="variables_8h.html#structIBMList" target="_top" xlink:title="Head of a linked list for IBM data.">
<polygon fill="none" stroke="black" points="522,-342.5 522,-361.5 575,-361.5 575,-342.5 522,-342.5"/>
<text text-anchor="middle" x="548.5" y="-349.5" font-family="Helvetica,sans-Serif" font-size="10.00">IBMList</text>
</a>
</g>
</g>
<!-- Node17&#45;&gt;Node2 -->
<g id="edge23" class="edge">
<title>Node17&#45;&gt;Node2</title>
<path fill="none" stroke="#9a32cd" stroke-dasharray="5,2" d="M585.27,-356.46C624.94,-359.45 689.01,-358.22 732,-327 760.45,-306.34 771.71,-262.8 775.43,-243.53"/>
<polygon fill="#9a32cd" stroke="#9a32cd" points="585.52,-352.97 575.25,-355.58 584.91,-359.94 585.52,-352.97"/>
<text text-anchor="middle" x="678.5" y="-360" font-family="Helvetica,sans-Serif" font-size="10.00"> ibmlist</text>
</g>
<!-- Node18&#45;&gt;Node17 -->
<g id="edge24" class="edge">
<title>Node18&#45;&gt;Node17</title>
<path fill="none" stroke="#9a32cd" stroke-dasharray="5,2" d="M408.73,-330.54C444.89,-336.13 492.76,-343.53 521.78,-348.02"/>
<polygon fill="#9a32cd" stroke="#9a32cd" points="408.81,-327.01 398.4,-328.94 407.74,-333.93 408.81,-327.01"/>
<text text-anchor="middle" x="452" y="-343" font-family="Helvetica,sans-Serif" font-size="10.00"> head</text>
</g>
<!-- Node18&#45;&gt;Node18 -->
<g id="edge26" class="edge">
<title>Node18&#45;&gt;Node18</title>
<path fill="none" stroke="#9a32cd" stroke-dasharray="5,2" d="M341.96,-342.4C343.1,-347.31 348.78,-351 359,-351 375.35,-351 380.08,-341.57 373.18,-332.76"/>
<polygon fill="#9a32cd" stroke="#9a32cd" points="345.34,-343.34 344.82,-332.76 338.62,-341.35 345.34,-343.34"/>
<text text-anchor="middle" x="359" y="-354" font-family="Helvetica,sans-Serif" font-size="10.00"> next</text>
</g>
<!-- Node19 -->
<g id="node19" class="node">
<title>Node19</title>
<g id="a_node19"><a xlink:href="variables_8h.html#structBCS" target="_top" xlink:title="Legacy boundary condition data.">
<polygon fill="none" stroke="black" points="530.5,-266.5 530.5,-285.5 566.5,-285.5 566.5,-266.5 530.5,-266.5"/>
<text text-anchor="middle" x="548.5" y="-273.5" font-family="Helvetica,sans-Serif" font-size="10.00">BCS</text>
</a>
</g>
</g>
<!-- Node19&#45;&gt;Node2 -->
<g id="edge28" class="edge">
<title>Node19&#45;&gt;Node2</title>
<path fill="none" stroke="#9a32cd" stroke-dasharray="5,2" d="M576.8,-274.19C612.8,-271.36 677.93,-264.73 732,-251 739.45,-249.11 747.35,-246.38 754.43,-243.66"/>
<polygon fill="#9a32cd" stroke="#9a32cd" points="576.31,-270.71 566.6,-274.95 576.83,-277.69 576.31,-270.71"/>
<text text-anchor="middle" x="678.5" y="-272" font-family="Helvetica,sans-Serif" font-size="10.00"> Bcs</text>
</g>
<!-- Node20 -->
<g id="node20" class="node">
<title>Node20</title>
<g id="a_node20"><a xlink:href="variables_8h.html#structBoundaryFaceConfig" target="_top" xlink:title="Holds the complete configuration for one of the six boundary faces.">
<polygon fill="none" stroke="black" points="490,-228.5 490,-247.5 607,-247.5 607,-228.5 490,-228.5"/>
<text text-anchor="middle" x="548.5" y="-235.5" font-family="Helvetica,sans-Serif" font-size="10.00">BoundaryFaceConfig</text>
</a>
</g>
</g>
<!-- Node20&#45;&gt;Node2 -->
<g id="edge29" class="edge">
<title>Node20&#45;&gt;Node2</title>
<path fill="none" stroke="#9a32cd" stroke-dasharray="5,2" d="M617.37,-236.81C661.83,-236.02 717.52,-235.05 750,-234.47"/>
<polygon fill="#9a32cd" stroke="#9a32cd" points="617.14,-233.31 607.2,-236.99 617.26,-240.31 617.14,-233.31"/>
<text text-anchor="middle" x="678.5" y="-239" font-family="Helvetica,sans-Serif" font-size="10.00"> boundary_faces</text>
</g>
<!-- Node21 -->
<g id="node21" class="node">
<title>Node21</title>
<g id="a_node21"><a xlink:href="variables_8h.html#structBC__Param__s" target="_top" xlink:title="A node in a linked list for storing key&#45;value parameters from the bcs.dat file.">
<polygon fill="none" stroke="black" points="320.5,-206.5 320.5,-225.5 397.5,-225.5 397.5,-206.5 320.5,-206.5"/>
<text text-anchor="middle" x="359" y="-213.5" font-family="Helvetica,sans-Serif" font-size="10.00">BC_Param_s</text>
</a>
</g>
</g>
<!-- Node21&#45;&gt;Node20 -->
<g id="edge30" class="edge">
<title>Node21&#45;&gt;Node20</title>
<path fill="none" stroke="#9a32cd" stroke-dasharray="5,2" d="M407.89,-221.62C432.79,-224.54 463.43,-228.14 489.66,-231.21"/>
<polygon fill="#9a32cd" stroke="#9a32cd" points="408.28,-218.14 397.94,-220.45 407.47,-225.09 408.28,-218.14"/>
<text text-anchor="middle" x="452" y="-231" font-family="Helvetica,sans-Serif" font-size="10.00"> params</text>
</g>
<!-- Node21&#45;&gt;Node21 -->
<g id="edge31" class="edge">
<title>Node21&#45;&gt;Node21</title>
<path fill="none" stroke="#9a32cd" stroke-dasharray="5,2" d="M341.96,-235.4C343.1,-240.31 348.78,-244 359,-244 375.35,-244 380.08,-234.57 373.18,-225.76"/>
<polygon fill="#9a32cd" stroke="#9a32cd" points="345.34,-236.34 344.82,-225.76 338.62,-234.35 345.34,-236.34"/>
<text text-anchor="middle" x="359" y="-247" font-family="Helvetica,sans-Serif" font-size="10.00"> next</text>
</g>
<!-- Node22 -->
<g id="node22" class="node">
<title>Node22</title>
<g id="a_node22"><a xlink:href="structBoundaryCondition.html" target="_top" xlink:title="The &quot;virtual table&quot; struct for a boundary condition handler object.">
<polygon fill="none" stroke="black" points="304,-273.5 304,-292.5 414,-292.5 414,-273.5 304,-273.5"/>
<text text-anchor="middle" x="359" y="-280.5" font-family="Helvetica,sans-Serif" font-size="10.00">BoundaryCondition</text>
</a>
</g>
</g>
<!-- Node22&#45;&gt;Node20 -->
<g id="edge32" class="edge">
<title>Node22&#45;&gt;Node20</title>
<path fill="none" stroke="#9a32cd" stroke-dasharray="5,2" d="M409.82,-271.04C440.47,-263.69 479.22,-254.39 507.79,-247.53"/>
<polygon fill="#9a32cd" stroke="#9a32cd" points="408.67,-267.72 399.76,-273.46 410.3,-274.53 408.67,-267.72"/>
<text text-anchor="middle" x="452" y="-267" font-family="Helvetica,sans-Serif" font-size="10.00"> handler</text>
</g>
</g>
</svg>
