<?xml version="1.0" encoding="UTF-8" standalone="no"?>
<!DOCTYPE svg PUBLIC "-//W3C//DTD SVG 1.1//EN"
 "http://www.w3.org/Graphics/SVG/1.1/DTD/svg11.dtd">
<!-- Generated by graphviz version 2.43.0 (0)
 -->
<!-- Title: UserMG Pages: 1 -->
<!--zoomable 558 -->
<svg id="main" version="1.1" xmlns="http://www.w3.org/2000/svg" xmlns:xlink="http://www.w3.org/1999/xlink" xml:space="preserve" onload="init(evt)">
<style type="text/css"><![CDATA[
.edge:hover path { stroke: red; }
.edge:hover polygon { stroke: red; fill: red; }
]]></style>
<script type="text/javascript"><![CDATA[
var edges = document.getElementsByTagName('g');
if (edges && edges.length) {
  for (var i=0;i<edges.length;i++) {
    if (edges[i].id.substr(0,4)=='edge') {
      edges[i].setAttribute('class','edge');
    }
  }
}
]]></script>
        <defs>
                <circle id="rim" cx="0" cy="0" r="7"/>
                <circle id="rim2" cx="0" cy="0" r="3.5"/>
                <g id="zoomPlus">
                        <use xlink:href="#rim" fill="#404040">
                                <set attributeName="fill" to="#808080" begin="zoomplus.mouseover" end="zoomplus.mouseout"/>
                        </use>
                        <path d="M-4,0h8M0,-4v8" fill="none" stroke="white" stroke-width="1.5" pointer-events="none"/>
                </g>
                <g id="zoomMin">
                        <use xlink:href="#rim" fill="#404040">
                                <set attributeName="fill" to="#808080" begin="zoomminus.mouseover" end="zoomminus.mouseout"/>
                        </use>
                        <path d="M-4,0h8" fill="none" stroke="white" stroke-width="1.5" pointer-events="none"/>
                </g>
                <g id="dirArrow">
                        <path fill="none" stroke="white" stroke-width="1.5" d="M0,-3.0v7 M-2.5,-0.5L0,-3.0L2.5,-0.5"/>
                </g>
               <g id="resetDef">
                       <use xlink:href="#rim2" fill="#404040">
                               <set attributeName="fill" to="#808080" begin="reset.mouseover" end="reset.mouseout"/>
                       </use>
               </g>
        </defs>

<script type="text/javascript">
var viewWidth = 944;
var viewHeight = 558;
var sectionId = 'dynsection-18';
</script>
<script xlink:href="svgpan.js"/>
<svg id="graph" class="graph">
<g id="viewport">
<title>UserMG</title>
<!-- Node1 -->
<g id="node1" class="node">
<title>Node1</title>
<g id="a_node1"><a xlink:title="User&#45;level context for managing the entire multigrid hierarchy.">
<polygon fill="#bfbfbf" stroke="black" points="366,-463.38 366,-482.38 422,-482.38 422,-463.38 366,-463.38"/>
<text text-anchor="middle" x="394" y="-470.38" font-family="Helvetica,sans-Serif" font-size="10.00">UserMG</text>
</a>
</g>
</g>
<!-- Node4 -->
<g id="node4" class="node">
<title>Node4</title>
<g id="a_node4"><a xlink:href="variables_8h.html#structSimCtx" target="_top" xlink:title="The master context for the entire simulation.">
<polygon fill="none" stroke="black" points="561.5,-214.38 561.5,-233.38 613.5,-233.38 613.5,-214.38 561.5,-214.38"/>
<text text-anchor="middle" x="587.5" y="-221.38" font-family="Helvetica,sans-Serif" font-size="10.00">SimCtx</text>
</a>
</g>
</g>
<!-- Node1&#45;&gt;Node4 -->
<g id="edge4" class="edge">
<title>Node1&#45;&gt;Node4</title>
<path fill="none" stroke="#9a32cd" stroke-dasharray="5,2" d="M431.71,-461.62C437.93,-459.31 444.23,-456.71 450,-453.88 453.64,-452.09 508.85,-417.31 511,-413.88 544.07,-361.09 499.85,-329.93 529,-274.88 538.49,-256.96 556.98,-242.34 570.44,-233.42"/>
<polygon fill="#9a32cd" stroke="#9a32cd" points="430.39,-458.38 422.12,-465 432.71,-464.98 430.39,-458.38"/>
<text text-anchor="middle" x="489.5" y="-444.88" font-family="Helvetica,sans-Serif" font-size="10.00"> usermg</text>
</g>
<!-- Node2 -->
<g id="node2" class="node">
<title>Node2</title>
<g id="a_node2"><a xlink:href="variables_8h.html#structMGCtx" target="_top" xlink:title="Context for Multigrid operations.">
<polygon fill="none" stroke="black" points="886,-350.38 886,-369.38 936,-369.38 936,-350.38 886,-350.38"/>
<text text-anchor="middle" x="911" y="-357.38" font-family="Helvetica,sans-Serif" font-size="10.00">MGCtx</text>
</a>
</g>
</g>
<!-- Node2&#45;&gt;Node1 -->
<g id="edge1" class="edge">
<title>Node2&#45;&gt;Node1</title>
<path fill="none" stroke="#9a32cd" stroke-dasharray="5,2" d="M878.11,-373.36C811.45,-400.7 651.85,-461.76 511,-481.88 480.81,-486.19 445.87,-482.29 422.3,-478.36"/>
<polygon fill="#9a32cd" stroke="#9a32cd" points="879.72,-376.48 887.62,-369.43 877.05,-370.01 879.72,-376.48"/>
<text text-anchor="middle" x="707.5" y="-449.88" font-family="Helvetica,sans-Serif" font-size="10.00"> mgctx</text>
</g>
<!-- Node3 -->
<g id="node3" class="node">
<title>Node3</title>
<g id="a_node3"><a xlink:href="variables_8h.html#structUserCtx" target="_top" xlink:title="User&#45;defined context containing data specific to a single computational grid level.">
<polygon fill="none" stroke="black" points="769,-214.38 769,-233.38 825,-233.38 825,-214.38 769,-214.38"/>
<text text-anchor="middle" x="797" y="-221.38" font-family="Helvetica,sans-Serif" font-size="10.00">UserCtx</text>
</a>
</g>
</g>
<!-- Node3&#45;&gt;Node2 -->
<g id="edge2" class="edge">
<title>Node3&#45;&gt;Node2</title>
<path fill="none" stroke="#9a32cd" stroke-dasharray="5,2" d="M812.71,-241.74C836.68,-270.85 883.36,-327.54 902.02,-350.19"/>
<polygon fill="#9a32cd" stroke="#9a32cd" points="815.11,-239.16 806.05,-233.66 809.71,-243.61 815.11,-239.16"/>
<text text-anchor="middle" x="855.5" y="-310.88" font-family="Helvetica,sans-Serif" font-size="10.00"> user</text>
</g>
<!-- Node3&#45;&gt;Node3 -->
<g id="edge26" class="edge">
<title>Node3&#45;&gt;Node3</title>
<path fill="none" stroke="#9a32cd" stroke-dasharray="5,2" d="M786.32,-243.65C787.16,-248.38 790.72,-251.88 797,-251.88 807.31,-251.88 810.29,-242.45 805.94,-233.64"/>
<polygon fill="#9a32cd" stroke="#9a32cd" points="789.79,-244.09 788.06,-233.64 782.9,-242.89 789.79,-244.09"/>
<text text-anchor="middle" x="797" y="-265.88" font-family="Helvetica,sans-Serif" font-size="10.00"> user_f</text>
<text text-anchor="middle" x="797" y="-254.88" font-family="Helvetica,sans-Serif" font-size="10.00">user_c</text>
</g>
<!-- Node4&#45;&gt;Node3 -->
<g id="edge3" class="edge">
<title>Node4&#45;&gt;Node3</title>
<path fill="none" stroke="#9a32cd" stroke-dasharray="5,2" d="M623.62,-223.88C664.66,-223.88 731.68,-223.88 768.91,-223.88"/>
<polygon fill="#9a32cd" stroke="#9a32cd" points="623.53,-220.38 613.53,-223.88 623.53,-227.38 623.53,-220.38"/>
<text text-anchor="middle" x="707.5" y="-226.88" font-family="Helvetica,sans-Serif" font-size="10.00"> simCtx</text>
</g>
<!-- Node5 -->
<g id="node5" class="node">
<title>Node5</title>
<g id="a_node5"><a xlink:href="variables_8h.html#structIBMNodes" target="_top" xlink:title="Represents a collection of nodes forming a surface for the IBM.">
<polygon fill="none" stroke="black" points="361,-282.38 361,-301.38 427,-301.38 427,-282.38 361,-282.38"/>
<text text-anchor="middle" x="394" y="-289.38" font-family="Helvetica,sans-Serif" font-size="10.00">IBMNodes</text>
</a>
</g>
</g>
<!-- Node5&#45;&gt;Node3 -->
<g id="edge20" class="edge">
<title>Node5&#45;&gt;Node3</title>
<path fill="none" stroke="#9a32cd" stroke-dasharray="5,2" d="M437.1,-287.71C459.15,-285.39 486.57,-282.28 511,-278.88 618.1,-263.96 646.05,-264.95 751,-238.88 757.07,-237.37 763.51,-235.44 769.55,-233.46"/>
<polygon fill="#9a32cd" stroke="#9a32cd" points="436.65,-284.24 427.06,-288.75 437.37,-291.2 436.65,-284.24"/>
<text text-anchor="middle" x="587.5" y="-278.88" font-family="Helvetica,sans-Serif" font-size="10.00"> ibm</text>
</g>
<!-- Node5&#45;&gt;Node4 -->
<g id="edge5" class="edge">
<title>Node5&#45;&gt;Node4</title>
<path fill="none" stroke="#9a32cd" stroke-dasharray="5,2" d="M431.72,-278.84C469.81,-265.32 528.34,-244.53 561.43,-232.78"/>
<polygon fill="#9a32cd" stroke="#9a32cd" points="430.28,-275.64 422.03,-282.28 432.63,-282.23 430.28,-275.64"/>
<text text-anchor="middle" x="489.5" y="-266.88" font-family="Helvetica,sans-Serif" font-size="10.00"> ibm</text>
</g>
<!-- Node6 -->
<g id="node6" class="node">
<title>Node6</title>
<g id="a_node6"><a xlink:href="variables_8h.html#structCmpnts" target="_top" xlink:title="A 3D point or vector with PetscScalar components.">
<polygon fill="none" stroke="black" points="0,-233.38 0,-252.38 54,-252.38 54,-233.38 0,-233.38"/>
<text text-anchor="middle" x="27" y="-240.38" font-family="Helvetica,sans-Serif" font-size="10.00">Cmpnts</text>
</a>
</g>
</g>
<!-- Node6&#45;&gt;Node4 -->
<g id="edge7" class="edge">
<title>Node6&#45;&gt;Node4</title>
<path fill="none" stroke="#9a32cd" stroke-dasharray="5,2" d="M64.59,-236.72C101.81,-230.78 161.23,-222.22 213,-218.88 343.72,-210.44 500.7,-218.43 561.1,-222.18"/>
<polygon fill="#9a32cd" stroke="#9a32cd" points="63.56,-233.34 54.24,-238.39 64.67,-240.25 63.56,-233.34"/>
<text text-anchor="middle" x="266.5" y="-221.88" font-family="Helvetica,sans-Serif" font-size="10.00"> InitialConstantContra</text>
</g>
<!-- Node6&#45;&gt;Node5 -->
<g id="edge6" class="edge">
<title>Node6&#45;&gt;Node5</title>
<path fill="none" stroke="#9a32cd" stroke-dasharray="5,2" d="M44.55,-259.58C52.23,-266.22 61.89,-273.16 72,-276.88 124.3,-296.11 290.42,-294.46 360.89,-292.81"/>
<polygon fill="#9a32cd" stroke="#9a32cd" points="46.78,-256.87 37.07,-252.65 42.03,-262.01 46.78,-256.87"/>
<text text-anchor="middle" x="156.5" y="-327.88" font-family="Helvetica,sans-Serif" font-size="10.00"> qvec</text>
<text text-anchor="middle" x="156.5" y="-316.88" font-family="Helvetica,sans-Serif" font-size="10.00">uold</text>
<text text-anchor="middle" x="156.5" y="-305.88" font-family="Helvetica,sans-Serif" font-size="10.00">urm1</text>
<text text-anchor="middle" x="156.5" y="-294.88" font-family="Helvetica,sans-Serif" font-size="10.00">u</text>
</g>
<!-- Node9 -->
<g id="node9" class="node">
<title>Node9</title>
<g id="a_node9"><a xlink:href="variables_8h.html#structIBMInfo" target="_top" xlink:title="Holds interpolation and distance information for a single IBM point.">
<polygon fill="none" stroke="black" points="129.5,-391.38 129.5,-410.38 183.5,-410.38 183.5,-391.38 129.5,-391.38"/>
<text text-anchor="middle" x="156.5" y="-398.38" font-family="Helvetica,sans-Serif" font-size="10.00">IBMInfo</text>
</a>
</g>
</g>
<!-- Node6&#45;&gt;Node9 -->
<g id="edge11" class="edge">
<title>Node6&#45;&gt;Node9</title>
<path fill="none" stroke="#9a32cd" stroke-dasharray="5,2" d="M36.33,-261.96C49.84,-291.04 78.98,-346.78 118,-381.88 122.02,-385.49 126.84,-388.6 131.68,-391.2"/>
<polygon fill="#9a32cd" stroke="#9a32cd" points="39.38,-260.21 32.08,-252.54 33,-263.09 39.38,-260.21"/>
<text text-anchor="middle" x="86" y="-364.88" font-family="Helvetica,sans-Serif" font-size="10.00"> pmin</text>
</g>
<!-- Node11 -->
<g id="node11" class="node">
<title>Node11</title>
<g id="a_node11"><a xlink:href="variables_8h.html#structBoundingBox" target="_top" xlink:title="Defines a 3D axis&#45;aligned bounding box.">
<polygon fill="none" stroke="black" points="353.5,-83.38 353.5,-102.38 434.5,-102.38 434.5,-83.38 353.5,-83.38"/>
<text text-anchor="middle" x="394" y="-90.38" font-family="Helvetica,sans-Serif" font-size="10.00">BoundingBox</text>
</a>
</g>
</g>
<!-- Node6&#45;&gt;Node11 -->
<g id="edge14" class="edge">
<title>Node6&#45;&gt;Node11</title>
<path fill="none" stroke="#9a32cd" stroke-dasharray="5,2" d="M40.54,-225.35C48.64,-214.95 59.9,-202.04 72,-192.88 90.07,-179.21 96.8,-178.89 118,-170.88 199.71,-140.01 299.05,-114.72 353.16,-101.93"/>
<polygon fill="#9a32cd" stroke="#9a32cd" points="37.73,-223.27 34.53,-233.37 43.33,-227.47 37.73,-223.27"/>
<text text-anchor="middle" x="156.5" y="-184.88" font-family="Helvetica,sans-Serif" font-size="10.00"> max_coords</text>
<text text-anchor="middle" x="156.5" y="-173.88" font-family="Helvetica,sans-Serif" font-size="10.00">min_coords</text>
</g>
<!-- Node13 -->
<g id="node13" class="node">
<title>Node13</title>
<g id="a_node13"><a xlink:href="variables_8h.html#structIBMVNodes" target="_top" xlink:title="Represents a collection of nodes forming a volume for the IBM.">
<polygon fill="none" stroke="black" points="230,-239.38 230,-258.38 303,-258.38 303,-239.38 230,-239.38"/>
<text text-anchor="middle" x="266.5" y="-246.38" font-family="Helvetica,sans-Serif" font-size="10.00">IBMVNodes</text>
</a>
</g>
</g>
<!-- Node6&#45;&gt;Node13 -->
<g id="edge17" class="edge">
<title>Node6&#45;&gt;Node13</title>
<path fill="none" stroke="#9a32cd" stroke-dasharray="5,2" d="M64.39,-243.27C75.79,-243.42 88.42,-243.62 100,-243.88 144.83,-244.87 196.48,-246.51 229.99,-247.64"/>
<polygon fill="#9a32cd" stroke="#9a32cd" points="64.38,-239.77 54.33,-243.14 64.29,-246.77 64.38,-239.77"/>
<text text-anchor="middle" x="86" y="-268.88" font-family="Helvetica,sans-Serif" font-size="10.00"> uold</text>
<text text-anchor="middle" x="86" y="-257.88" font-family="Helvetica,sans-Serif" font-size="10.00">urm1</text>
<text text-anchor="middle" x="86" y="-246.88" font-family="Helvetica,sans-Serif" font-size="10.00">u</text>
</g>
<!-- Node7 -->
<g id="node7" class="node">
<title>Node7</title>
<g id="a_node7"><a xlink:href="variables_8h.html#structPostProcessParams" target="_top" xlink:title="Holds all configuration parameters for a post&#45;processing run.">
<polygon fill="none" stroke="black" points="338,-159.38 338,-178.38 450,-178.38 450,-159.38 338,-159.38"/>
<text text-anchor="middle" x="394" y="-166.38" font-family="Helvetica,sans-Serif" font-size="10.00">PostProcessParams</text>
</a>
</g>
</g>
<!-- Node7&#45;&gt;Node4 -->
<g id="edge8" class="edge">
<title>Node7&#45;&gt;Node4</title>
<path fill="none" stroke="#9a32cd" stroke-dasharray="5,2" d="M460.4,-173.96C477.15,-176.32 494.95,-179.79 511,-184.88 533.36,-191.97 557.07,-205.3 571.83,-214.38"/>
<polygon fill="#9a32cd" stroke="#9a32cd" points="460.51,-170.44 450.14,-172.62 459.6,-177.38 460.51,-170.44"/>
<text text-anchor="middle" x="489.5" y="-187.88" font-family="Helvetica,sans-Serif" font-size="10.00"> pps</text>
</g>
<!-- Node8 -->
<g id="node8" class="node">
<title>Node8</title>
<g id="a_node8"><a xlink:href="variables_8h.html#structFSInfo" target="_top" xlink:title="Holds all data related to the state and motion of a body in FSI.">
<polygon fill="none" stroke="black" points="370.5,-320.38 370.5,-339.38 417.5,-339.38 417.5,-320.38 370.5,-320.38"/>
<text text-anchor="middle" x="394" y="-327.38" font-family="Helvetica,sans-Serif" font-size="10.00">FSInfo</text>
</a>
</g>
</g>
<!-- Node8&#45;&gt;Node4 -->
<g id="edge9" class="edge">
<title>Node8&#45;&gt;Node4</title>
<path fill="none" stroke="#9a32cd" stroke-dasharray="5,2" d="M427.14,-319.69C434.72,-317.03 442.71,-314.03 450,-310.88 478.1,-298.74 485,-295.05 511,-278.88 534.41,-264.32 560.02,-244.84 574.59,-233.4"/>
<polygon fill="#9a32cd" stroke="#9a32cd" points="425.85,-316.43 417.5,-322.96 428.1,-323.06 425.85,-316.43"/>
<text text-anchor="middle" x="489.5" y="-304.88" font-family="Helvetica,sans-Serif" font-size="10.00"> fsi</text>
</g>
<!-- Node9&#45;&gt;Node8 -->
<g id="edge10" class="edge">
<title>Node9&#45;&gt;Node8</title>
<path fill="none" stroke="#9a32cd" stroke-dasharray="5,2" d="M187.51,-386.56C190.09,-385.07 192.62,-383.5 195,-381.88 203.85,-375.86 203.41,-370.63 213,-365.88 256.42,-344.36 272.49,-354.42 320,-344.88 336.87,-341.49 355.92,-337.58 370.32,-334.59"/>
<polygon fill="#9a32cd" stroke="#9a32cd" points="185.8,-383.51 178.67,-391.35 189.13,-389.66 185.8,-383.51"/>
<text text-anchor="middle" x="266.5" y="-368.88" font-family="Helvetica,sans-Serif" font-size="10.00"> fsi_intp</text>
</g>
<!-- Node17 -->
<g id="node17" class="node">
<title>Node17</title>
<g id="a_node17"><a xlink:href="variables_8h.html#structIBMListNode" target="_top" xlink:title="A linked list node containing IBM interpolation info.">
<polygon fill="none" stroke="black" points="355,-358.38 355,-377.38 433,-377.38 433,-358.38 355,-358.38"/>
<text text-anchor="middle" x="394" y="-365.38" font-family="Helvetica,sans-Serif" font-size="10.00">IBMListNode</text>
</a>
</g>
</g>
<!-- Node9&#45;&gt;Node17 -->
<g id="edge24" class="edge">
<title>Node9&#45;&gt;Node17</title>
<path fill="none" stroke="#9a32cd" stroke-dasharray="5,2" d="M193.76,-396.13C226.71,-391.77 276.64,-385.08 320,-378.88 331.29,-377.27 343.56,-375.44 354.75,-373.75"/>
<polygon fill="#9a32cd" stroke="#9a32cd" points="193.15,-392.68 183.69,-397.46 194.06,-399.62 193.15,-392.68"/>
<text text-anchor="middle" x="266.5" y="-395.88" font-family="Helvetica,sans-Serif" font-size="10.00"> ibm_intp</text>
</g>
<!-- Node10 -->
<g id="node10" class="node">
<title>Node10</title>
<g id="a_node10"><a xlink:href="variables_8h.html#structSurfElmtInfo" target="_top" xlink:title="Information about a surface element for FSI calculations.">
<polygon fill="none" stroke="black" points="118,-353.38 118,-372.38 195,-372.38 195,-353.38 118,-353.38"/>
<text text-anchor="middle" x="156.5" y="-360.38" font-family="Helvetica,sans-Serif" font-size="10.00">SurfElmtInfo</text>
</a>
</g>
</g>
<!-- Node10&#45;&gt;Node8 -->
<g id="edge12" class="edge">
<title>Node10&#45;&gt;Node8</title>
<path fill="none" stroke="#9a32cd" stroke-dasharray="5,2" d="M180,-348.12C189.73,-342.54 201.51,-336.84 213,-333.88 268.09,-319.7 335.83,-323.66 370.38,-327.14"/>
<polygon fill="#9a32cd" stroke="#9a32cd" points="178.12,-345.16 171.37,-353.32 181.74,-351.15 178.12,-345.16"/>
<text text-anchor="middle" x="266.5" y="-336.88" font-family="Helvetica,sans-Serif" font-size="10.00"> elmtinfo</text>
</g>
<!-- Node11&#45;&gt;Node3 -->
<g id="edge21" class="edge">
<title>Node11&#45;&gt;Node3</title>
<path fill="none" stroke="#9a32cd" stroke-dasharray="5,2" d="M444.87,-94.29C465.57,-95.72 489.69,-98.52 511,-103.88 617.21,-130.61 735.13,-190.94 778.65,-214.35"/>
<polygon fill="#9a32cd" stroke="#9a32cd" points="444.89,-90.78 434.7,-93.67 444.47,-97.77 444.89,-90.78"/>
<text text-anchor="middle" x="587.5" y="-152.88" font-family="Helvetica,sans-Serif" font-size="10.00"> bbox</text>
</g>
<!-- Node11&#45;&gt;Node4 -->
<g id="edge13" class="edge">
<title>Node11&#45;&gt;Node4</title>
<path fill="none" stroke="#9a32cd" stroke-dasharray="5,2" d="M444.72,-100.89C466.42,-106.08 491.35,-114.47 511,-127.88 515.49,-130.94 561.2,-190.66 579.24,-214.33"/>
<polygon fill="#9a32cd" stroke="#9a32cd" points="445.2,-97.41 434.68,-98.66 443.68,-104.25 445.2,-97.41"/>
<text text-anchor="middle" x="489.5" y="-130.88" font-family="Helvetica,sans-Serif" font-size="10.00"> bboxlist</text>
</g>
<!-- Node12 -->
<g id="node12" class="node">
<title>Node12</title>
<g id="a_node12"><a xlink:href="variables_8h.html#structScalingCtx" target="_top" xlink:title=" ">
<polygon fill="none" stroke="black" points="360,-121.38 360,-140.38 428,-140.38 428,-121.38 360,-121.38"/>
<text text-anchor="middle" x="394" y="-128.38" font-family="Helvetica,sans-Serif" font-size="10.00">ScalingCtx</text>
</a>
</g>
</g>
<!-- Node12&#45;&gt;Node4 -->
<g id="edge15" class="edge">
<title>Node12&#45;&gt;Node4</title>
<path fill="none" stroke="#9a32cd" stroke-dasharray="5,2" d="M438.16,-136.82C460.75,-141.11 488.34,-148.25 511,-159.88 538.52,-174 564.67,-199.9 577.76,-214.04"/>
<polygon fill="#9a32cd" stroke="#9a32cd" points="438.63,-133.35 428.17,-135.05 437.41,-140.24 438.63,-133.35"/>
<text text-anchor="middle" x="489.5" y="-162.88" font-family="Helvetica,sans-Serif" font-size="10.00"> scaling</text>
</g>
<!-- Node13&#45;&gt;Node4 -->
<g id="edge16" class="edge">
<title>Node13&#45;&gt;Node4</title>
<path fill="none" stroke="#9a32cd" stroke-dasharray="5,2" d="M313.18,-245.3C381.32,-239.96 507.31,-230.09 561.09,-225.87"/>
<polygon fill="#9a32cd" stroke="#9a32cd" points="312.86,-241.81 303.16,-246.09 313.41,-248.79 312.86,-241.81"/>
<text text-anchor="middle" x="394" y="-245.88" font-family="Helvetica,sans-Serif" font-size="10.00"> ibmv</text>
</g>
<!-- Node14 -->
<g id="node14" class="node">
<title>Node14</title>
<g id="a_node14"><a xlink:href="variables_8h.html#structRankNeighbors" target="_top" xlink:title="Stores the MPI ranks of neighboring subdomains.">
<polygon fill="none" stroke="black" points="542,-78.38 542,-97.38 633,-97.38 633,-78.38 542,-78.38"/>
<text text-anchor="middle" x="587.5" y="-85.38" font-family="Helvetica,sans-Serif" font-size="10.00">RankNeighbors</text>
</a>
</g>
</g>
<!-- Node14&#45;&gt;Node3 -->
<g id="edge18" class="edge">
<title>Node14&#45;&gt;Node3</title>
<path fill="none" stroke="#9a32cd" stroke-dasharray="5,2" d="M643.48,-81.66C677.77,-80.75 720.93,-85.39 751,-108.88 785.13,-135.54 793.42,-191.73 795.39,-214.25"/>
<polygon fill="#9a32cd" stroke="#9a32cd" points="642.99,-78.17 633.15,-82.1 643.29,-85.17 642.99,-78.17"/>
<text text-anchor="middle" x="707.5" y="-111.88" font-family="Helvetica,sans-Serif" font-size="10.00"> neighbors</text>
</g>
<!-- Node15 -->
<g id="node15" class="node">
<title>Node15</title>
<g id="a_node15"><a xlink:href="variables_8h.html#structRankCellInfo" target="_top" xlink:title="A lean struct to hold the global cell ownership range for a single MPI rank.">
<polygon fill="none" stroke="black" points="548,-40.38 548,-59.38 627,-59.38 627,-40.38 548,-40.38"/>
<text text-anchor="middle" x="587.5" y="-47.38" font-family="Helvetica,sans-Serif" font-size="10.00">RankCellInfo</text>
</a>
</g>
</g>
<!-- Node15&#45;&gt;Node3 -->
<g id="edge19" class="edge">
<title>Node15&#45;&gt;Node3</title>
<path fill="none" stroke="#9a32cd" stroke-dasharray="5,2" d="M637.45,-41.65C672.93,-38.57 719.94,-40.83 751,-66.88 796.62,-105.15 797.68,-186.28 796.58,-214.2"/>
<polygon fill="#9a32cd" stroke="#9a32cd" points="636.89,-38.19 627.3,-42.7 637.61,-45.15 636.89,-38.19"/>
<text text-anchor="middle" x="707.5" y="-69.88" font-family="Helvetica,sans-Serif" font-size="10.00"> RankCellInfoMap</text>
</g>
<!-- Node16 -->
<g id="node16" class="node">
<title>Node16</title>
<g id="a_node16"><a xlink:href="variables_8h.html#structIBMList" target="_top" xlink:title="Head of a linked list for IBM data.">
<polygon fill="none" stroke="black" points="561,-340.38 561,-359.38 614,-359.38 614,-340.38 561,-340.38"/>
<text text-anchor="middle" x="587.5" y="-347.38" font-family="Helvetica,sans-Serif" font-size="10.00">IBMList</text>
</a>
</g>
</g>
<!-- Node16&#45;&gt;Node3 -->
<g id="edge22" class="edge">
<title>Node16&#45;&gt;Node3</title>
<path fill="none" stroke="#9a32cd" stroke-dasharray="5,2" d="M624.53,-349.62C660.15,-347.58 714.47,-339.5 751,-310.88 776.84,-290.64 789.29,-251.47 793.86,-233.42"/>
<polygon fill="#9a32cd" stroke="#9a32cd" points="623.96,-346.14 614.12,-350.07 624.26,-353.13 623.96,-346.14"/>
<text text-anchor="middle" x="707.5" y="-347.88" font-family="Helvetica,sans-Serif" font-size="10.00"> ibmlist</text>
</g>
<!-- Node17&#45;&gt;Node16 -->
<g id="edge23" class="edge">
<title>Node17&#45;&gt;Node16</title>
<path fill="none" stroke="#9a32cd" stroke-dasharray="5,2" d="M443.45,-363.33C480.77,-359.82 530.89,-355.11 560.82,-352.29"/>
<polygon fill="#9a32cd" stroke="#9a32cd" points="442.92,-359.86 433.29,-364.28 443.58,-366.83 442.92,-359.86"/>
<text text-anchor="middle" x="489.5" y="-362.88" font-family="Helvetica,sans-Serif" font-size="10.00"> head</text>
</g>
<!-- Node17&#45;&gt;Node17 -->
<g id="edge25" class="edge">
<title>Node17&#45;&gt;Node17</title>
<path fill="none" stroke="#9a32cd" stroke-dasharray="5,2" d="M376.59,-387.28C377.76,-392.19 383.56,-395.88 394,-395.88 410.71,-395.88 415.54,-386.45 408.49,-377.64"/>
<polygon fill="#9a32cd" stroke="#9a32cd" points="379.97,-388.22 379.51,-377.64 373.27,-386.19 379.97,-388.22"/>
<text text-anchor="middle" x="394" y="-398.88" font-family="Helvetica,sans-Serif" font-size="10.00"> next</text>
</g>
<!-- Node18 -->
<g id="node18" class="node">
<title>Node18</title>
<g id="a_node18"><a xlink:href="variables_8h.html#structBCS" target="_top" xlink:title="Legacy boundary condition data.">
<polygon fill="none" stroke="black" points="569.5,-2.38 569.5,-21.38 605.5,-21.38 605.5,-2.38 569.5,-2.38"/>
<text text-anchor="middle" x="587.5" y="-9.38" font-family="Helvetica,sans-Serif" font-size="10.00">BCS</text>
</a>
</g>
</g>
<!-- Node18&#45;&gt;Node3 -->
<g id="edge27" class="edge">
<title>Node18&#45;&gt;Node3</title>
<path fill="none" stroke="#9a32cd" stroke-dasharray="5,2" d="M615.85,-5.41C651.49,1.27 713.66,6.65 751,-25.88 780.11,-51.23 792.35,-178.11 795.28,-214.26"/>
<polygon fill="#9a32cd" stroke="#9a32cd" points="614.79,-2.05 605.69,-7.48 616.19,-8.91 614.79,-2.05"/>
<text text-anchor="middle" x="707.5" y="-28.88" font-family="Helvetica,sans-Serif" font-size="10.00"> Bcs</text>
</g>
<!-- Node19 -->
<g id="node19" class="node">
<title>Node19</title>
<g id="a_node19"><a xlink:href="variables_8h.html#structBoundaryFaceConfig" target="_top" xlink:title="Holds the complete configuration for one of the six boundary faces.">
<polygon fill="none" stroke="black" points="529,-392.38 529,-411.38 646,-411.38 646,-392.38 529,-392.38"/>
<text text-anchor="middle" x="587.5" y="-399.38" font-family="Helvetica,sans-Serif" font-size="10.00">BoundaryFaceConfig</text>
</a>
</g>
</g>
<!-- Node19&#45;&gt;Node3 -->
<g id="edge28" class="edge">
<title>Node19&#45;&gt;Node3</title>
<path fill="none" stroke="#9a32cd" stroke-dasharray="5,2" d="M656.46,-399.03C688.72,-394.33 725.65,-383.59 751,-359.88 788.41,-324.88 794.75,-258.15 795.8,-233.41"/>
<polygon fill="#9a32cd" stroke="#9a32cd" points="655.64,-395.61 646.17,-400.36 656.54,-402.55 655.64,-395.61"/>
<text text-anchor="middle" x="707.5" y="-399.88" font-family="Helvetica,sans-Serif" font-size="10.00"> boundary_faces</text>
</g>
<!-- Node20 -->
<g id="node20" class="node">
<title>Node20</title>
<g id="a_node20"><a xlink:href="variables_8h.html#structBC__Param__s" target="_top" xlink:title="A node in a linked list for storing key&#45;value parameters from the bcs.dat file.">
<polygon fill="none" stroke="black" points="355.5,-501.38 355.5,-520.38 432.5,-520.38 432.5,-501.38 355.5,-501.38"/>
<text text-anchor="middle" x="394" y="-508.38" font-family="Helvetica,sans-Serif" font-size="10.00">BC_Param_s</text>
</a>
</g>
</g>
<!-- Node20&#45;&gt;Node19 -->
<g id="edge29" class="edge">
<title>Node20&#45;&gt;Node19</title>
<path fill="none" stroke="#9a32cd" stroke-dasharray="5,2" d="M436.46,-497.82C441.09,-495.99 445.7,-494 450,-491.88 498.89,-467.79 551.23,-429.21 574.34,-411.43"/>
<polygon fill="#9a32cd" stroke="#9a32cd" points="435.12,-494.58 426.96,-501.35 437.56,-501.14 435.12,-494.58"/>
<text text-anchor="middle" x="489.5" y="-483.88" font-family="Helvetica,sans-Serif" font-size="10.00"> params</text>
</g>
<!-- Node20&#45;&gt;Node20 -->
<g id="edge30" class="edge">
<title>Node20&#45;&gt;Node20</title>
<path fill="none" stroke="#9a32cd" stroke-dasharray="5,2" d="M376.59,-530.28C377.76,-535.19 383.56,-538.88 394,-538.88 410.71,-538.88 415.54,-529.45 408.49,-520.64"/>
<polygon fill="#9a32cd" stroke="#9a32cd" points="379.97,-531.22 379.51,-520.64 373.27,-529.19 379.97,-531.22"/>
<text text-anchor="middle" x="394" y="-541.88" font-family="Helvetica,sans-Serif" font-size="10.00"> next</text>
</g>
<!-- Node21 -->
<g id="node21" class="node">
<title>Node21</title>
<g id="a_node21"><a xlink:href="structBoundaryCondition.html" target="_top" xlink:title="The &quot;virtual table&quot; struct for a boundary condition handler object.">
<polygon fill="none" stroke="black" points="339,-425.38 339,-444.38 449,-444.38 449,-425.38 339,-425.38"/>
<text text-anchor="middle" x="394" y="-432.38" font-family="Helvetica,sans-Serif" font-size="10.00">BoundaryCondition</text>
</a>
</g>
</g>
<!-- Node21&#45;&gt;Node19 -->
<g id="edge31" class="edge">
<title>Node21&#45;&gt;Node19</title>
<path fill="none" stroke="#9a32cd" stroke-dasharray="5,2" d="M437.25,-421.72C441.63,-419.93 445.96,-417.98 450,-415.88 458.76,-411.33 458.62,-405.96 468,-402.88 487.26,-396.56 509.24,-394.96 529,-395.38"/>
<polygon fill="#9a32cd" stroke="#9a32cd" points="435.76,-418.54 427.65,-425.36 438.24,-425.08 435.76,-418.54"/>
<text text-anchor="middle" x="489.5" y="-405.88" font-family="Helvetica,sans-Serif" font-size="10.00"> handler</text>
</g>
</g>
</svg>
        <g id="navigator" transform="translate(0 0)" fill="#404254">
                <rect fill="#f2f5e9" fill-opacity="0.5" stroke="#606060" stroke-width=".5" x="0" y="0" width="60" height="60"/>
                <use id="zoomplus" xlink:href="#zoomPlus" x="17" y="9" onmousedown="handleZoom(evt,'in')"/>
                <use id="zoomminus" xlink:href="#zoomMin" x="42" y="9" onmousedown="handleZoom(evt,'out')"/>
                <use id="reset" xlink:href="#resetDef" x="30" y="36" onmousedown="handleReset()"/>
                <g id="arrowUp" xlink:href="#dirArrow" transform="translate(30 24)" onmousedown="handlePan(0,-1)">
                  <use xlink:href="#rim" fill="#404040">
                        <set attributeName="fill" to="#808080" begin="arrowUp.mouseover" end="arrowUp.mouseout"/>
                  </use>
                  <path fill="none" stroke="white" stroke-width="1.5" d="M0,-3.0v7 M-2.5,-0.5L0,-3.0L2.5,-0.5"/>
                </g>
                <g id="arrowRight" xlink:href="#dirArrow" transform="rotate(90) translate(36 -43)" onmousedown="handlePan(1,0)">
                  <use xlink:href="#rim" fill="#404040">
                        <set attributeName="fill" to="#808080" begin="arrowRight.mouseover" end="arrowRight.mouseout"/>
                  </use>
                  <path fill="none" stroke="white" stroke-width="1.5" d="M0,-3.0v7 M-2.5,-0.5L0,-3.0L2.5,-0.5"/>
                </g>
                <g id="arrowDown" xlink:href="#dirArrow" transform="rotate(180) translate(-30 -48)" onmousedown="handlePan(0,1)">
                  <use xlink:href="#rim" fill="#404040">
                        <set attributeName="fill" to="#808080" begin="arrowDown.mouseover" end="arrowDown.mouseout"/>
                  </use>
                  <path fill="none" stroke="white" stroke-width="1.5" d="M0,-3.0v7 M-2.5,-0.5L0,-3.0L2.5,-0.5"/>
                </g>
                <g id="arrowLeft" xlink:href="#dirArrow" transform="rotate(270) translate(-36 17)" onmousedown="handlePan(-1,0)">
                  <use xlink:href="#rim" fill="#404040">
                        <set attributeName="fill" to="#808080" begin="arrowLeft.mouseover" end="arrowLeft.mouseout"/>
                  </use>
                  <path fill="none" stroke="white" stroke-width="1.5" d="M0,-3.0v7 M-2.5,-0.5L0,-3.0L2.5,-0.5"/>
                </g>
        </g>
        <svg viewBox="0 0 15 15" width="100%" height="30px" preserveAspectRatio="xMaxYMin meet">
         <g id="arrow_out" transform="scale(0.3 0.3)">
          <a xlink:href="structUserMG__coll__graph_org.svg" target="_base">
           <rect id="button" ry="5" rx="5" y="6" x="6" height="38" width="38"
                fill="#f2f5e9" fill-opacity="0.5" stroke="#606060" stroke-width="1.0"/>
           <path id="arrow"
             d="M 11.500037,31.436501 C 11.940474,20.09759 22.043105,11.32322 32.158766,21.979434 L 37.068811,17.246167 C 37.068811,17.246167 37.088388,32 37.088388,32 L 22.160133,31.978069 C 22.160133,31.978069 26.997745,27.140456 26.997745,27.140456 C 18.528582,18.264221 13.291696,25.230495 11.500037,31.436501 z"
             style="fill:#404040;"/>
          </a>
         </g>
        </svg>
</svg>
