<?xml version="1.0" encoding="UTF-8" standalone="no"?>
<!DOCTYPE svg PUBLIC "-//W3C//DTD SVG 1.1//EN"
 "http://www.w3.org/Graphics/SVG/1.1/DTD/svg11.dtd">
<!-- Generated by graphviz version 2.43.0 (0)
 -->
<!-- Title: MGCtx Pages: 1 -->
<svg width="833pt" height="540pt"
 viewBox="0.00 0.00 833.00 540.00" xmlns="http://www.w3.org/2000/svg" xmlns:xlink="http://www.w3.org/1999/xlink">
<g id="graph0" class="graph" transform="scale(1 1) rotate(0) translate(4 536)">
<title>MGCtx</title>
<!-- Node1 -->
<g id="node1" class="node">
<title>Node1</title>
<g id="a_node1"><a xlink:title="Context for Multigrid operations.">
<polygon fill="#bfbfbf" stroke="black" points="131.5,-302.5 131.5,-321.5 181.5,-321.5 181.5,-302.5 131.5,-302.5"/>
<text text-anchor="middle" x="156.5" y="-309.5" font-family="Helvetica,sans-Serif" font-size="10.00">MGCtx</text>
</a>
</g>
</g>
<!-- Node4 -->
<g id="node4" class="node">
<title>Node4</title>
<g id="a_node4"><a xlink:href="variables_8h.html#structUserMG" target="_top" xlink:title="User&#45;level context for managing the entire multigrid hierarchy.">
<polygon fill="none" stroke="black" points="366,-280.5 366,-299.5 422,-299.5 422,-280.5 366,-280.5"/>
<text text-anchor="middle" x="394" y="-287.5" font-family="Helvetica,sans-Serif" font-size="10.00">UserMG</text>
</a>
</g>
</g>
<!-- Node1&#45;&gt;Node4 -->
<g id="edge4" class="edge">
<title>Node1&#45;&gt;Node4</title>
<path fill="none" stroke="#9a32cd" stroke-dasharray="5,2" d="M191.86,-308.79C239.04,-304.38 322.93,-296.55 365.94,-292.53"/>
<polygon fill="#9a32cd" stroke="#9a32cd" points="191.45,-305.31 181.82,-309.73 192.1,-312.28 191.45,-305.31"/>
<text text-anchor="middle" x="266.5" y="-309" font-family="Helvetica,sans-Serif" font-size="10.00"> mgctx</text>
</g>
<!-- Node2 -->
<g id="node2" class="node">
<title>Node2</title>
<g id="a_node2"><a xlink:href="variables_8h.html#structUserCtx" target="_top" xlink:title="User&#45;defined context containing data specific to a single computational grid level.">
<polygon fill="none" stroke="black" points="769,-182.5 769,-201.5 825,-201.5 825,-182.5 769,-182.5"/>
<text text-anchor="middle" x="797" y="-189.5" font-family="Helvetica,sans-Serif" font-size="10.00">UserCtx</text>
</a>
</g>
</g>
<!-- Node2&#45;&gt;Node1 -->
<g id="edge1" class="edge">
<title>Node2&#45;&gt;Node1</title>
<path fill="none" stroke="#9a32cd" stroke-dasharray="5,2" d="M789.28,-211.06C781.92,-230.15 768.75,-259.66 751,-281 674.08,-373.45 629.71,-386.74 511,-406 368.1,-429.19 329.28,-381.09 195,-327 190.58,-325.22 185.86,-323.33 181.31,-321.5"/>
<polygon fill="#9a32cd" stroke="#9a32cd" points="792.57,-212.25 792.76,-201.65 786.01,-209.82 792.57,-212.25"/>
<text text-anchor="middle" x="489.5" y="-414" font-family="Helvetica,sans-Serif" font-size="10.00"> user</text>
</g>
<!-- Node2&#45;&gt;Node2 -->
<g id="edge26" class="edge">
<title>Node2&#45;&gt;Node2</title>
<path fill="none" stroke="#9a32cd" stroke-dasharray="5,2" d="M780.7,-211.4C781.79,-216.31 787.22,-220 797,-220 812.64,-220 817.16,-210.57 810.56,-201.76"/>
<polygon fill="#9a32cd" stroke="#9a32cd" points="784.08,-212.33 783.44,-201.76 777.34,-210.42 784.08,-212.33"/>
<text text-anchor="middle" x="797" y="-234" font-family="Helvetica,sans-Serif" font-size="10.00"> user_f</text>
<text text-anchor="middle" x="797" y="-223" font-family="Helvetica,sans-Serif" font-size="10.00">user_c</text>
</g>
<!-- Node3 -->
<g id="node3" class="node">
<title>Node3</title>
<g id="a_node3"><a xlink:href="variables_8h.html#structSimCtx" target="_top" xlink:title="The master context for the entire simulation.">
<polygon fill="none" stroke="black" points="561.5,-229.5 561.5,-248.5 613.5,-248.5 613.5,-229.5 561.5,-229.5"/>
<text text-anchor="middle" x="587.5" y="-236.5" font-family="Helvetica,sans-Serif" font-size="10.00">SimCtx</text>
</a>
</g>
</g>
<!-- Node3&#45;&gt;Node2 -->
<g id="edge2" class="edge">
<title>Node3&#45;&gt;Node2</title>
<path fill="none" stroke="#9a32cd" stroke-dasharray="5,2" d="M623.82,-232.89C656.9,-226.92 707.59,-217.13 751,-206 756.86,-204.5 763.1,-202.69 769,-200.89"/>
<polygon fill="#9a32cd" stroke="#9a32cd" points="622.96,-229.49 613.73,-234.69 624.19,-236.38 622.96,-229.49"/>
<text text-anchor="middle" x="707.5" y="-227" font-family="Helvetica,sans-Serif" font-size="10.00"> simCtx</text>
</g>
<!-- Node4&#45;&gt;Node3 -->
<g id="edge3" class="edge">
<title>Node4&#45;&gt;Node3</title>
<path fill="none" stroke="#9a32cd" stroke-dasharray="5,2" d="M431.72,-280.22C469.81,-270.08 528.34,-254.49 561.43,-245.68"/>
<polygon fill="#9a32cd" stroke="#9a32cd" points="430.79,-276.85 422.03,-282.8 432.6,-283.61 430.79,-276.85"/>
<text text-anchor="middle" x="489.5" y="-272" font-family="Helvetica,sans-Serif" font-size="10.00"> usermg</text>
</g>
<!-- Node5 -->
<g id="node5" class="node">
<title>Node5</title>
<g id="a_node5"><a xlink:href="variables_8h.html#structIBMNodes" target="_top" xlink:title="Represents a collection of nodes forming a surface for the IBM.">
<polygon fill="none" stroke="black" points="361,-356.5 361,-375.5 427,-375.5 427,-356.5 361,-356.5"/>
<text text-anchor="middle" x="394" y="-363.5" font-family="Helvetica,sans-Serif" font-size="10.00">IBMNodes</text>
</a>
</g>
</g>
<!-- Node5&#45;&gt;Node2 -->
<g id="edge20" class="edge">
<title>Node5&#45;&gt;Node2</title>
<path fill="none" stroke="#9a32cd" stroke-dasharray="5,2" d="M437.21,-364.16C459.49,-362.37 487.1,-358.87 511,-352 624.3,-319.41 655.29,-307.85 751,-239 766.04,-228.18 780.28,-211.94 788.57,-201.66"/>
<polygon fill="#9a32cd" stroke="#9a32cd" points="436.78,-360.68 427.05,-364.88 437.28,-367.66 436.78,-360.68"/>
<text text-anchor="middle" x="587.5" y="-349" font-family="Helvetica,sans-Serif" font-size="10.00"> ibm</text>
</g>
<!-- Node5&#45;&gt;Node3 -->
<g id="edge5" class="edge">
<title>Node5&#45;&gt;Node3</title>
<path fill="none" stroke="#9a32cd" stroke-dasharray="5,2" d="M434.76,-352.93C439.92,-351.04 445.11,-349.04 450,-347 477.89,-335.38 486.58,-334.78 511,-317 539.34,-296.37 566.35,-264.54 579.01,-248.68"/>
<polygon fill="#9a32cd" stroke="#9a32cd" points="433.19,-349.77 424.94,-356.41 435.53,-356.36 433.19,-349.77"/>
<text text-anchor="middle" x="489.5" y="-342" font-family="Helvetica,sans-Serif" font-size="10.00"> ibm</text>
</g>
<!-- Node6 -->
<g id="node6" class="node">
<title>Node6</title>
<g id="a_node6"><a xlink:href="variables_8h.html#structCmpnts" target="_top" xlink:title="A 3D point or vector with PetscScalar components.">
<polygon fill="none" stroke="black" points="0,-241.5 0,-260.5 54,-260.5 54,-241.5 0,-241.5"/>
<text text-anchor="middle" x="27" y="-248.5" font-family="Helvetica,sans-Serif" font-size="10.00">Cmpnts</text>
</a>
</g>
</g>
<!-- Node6&#45;&gt;Node3 -->
<g id="edge7" class="edge">
<title>Node6&#45;&gt;Node3</title>
<path fill="none" stroke="#9a32cd" stroke-dasharray="5,2" d="M64.04,-243.39C101.17,-235.97 160.82,-225.2 213,-221 343.71,-210.47 500.69,-227.76 561.1,-235.53"/>
<polygon fill="#9a32cd" stroke="#9a32cd" points="63.29,-239.97 54.18,-245.39 64.68,-246.83 63.29,-239.97"/>
<text text-anchor="middle" x="266.5" y="-224" font-family="Helvetica,sans-Serif" font-size="10.00"> InitialConstantContra</text>
</g>
<!-- Node6&#45;&gt;Node5 -->
<g id="edge6" class="edge">
<title>Node6&#45;&gt;Node5</title>
<path fill="none" stroke="#9a32cd" stroke-dasharray="5,2" d="M41.94,-268.51C58.07,-287.4 86.48,-316.67 118,-331 199.49,-368.04 307.74,-369.73 360.84,-367.89"/>
<polygon fill="#9a32cd" stroke="#9a32cd" points="44.51,-266.12 35.43,-260.66 39.12,-270.59 44.51,-266.12"/>
<text text-anchor="middle" x="156.5" y="-391" font-family="Helvetica,sans-Serif" font-size="10.00"> qvec</text>
<text text-anchor="middle" x="156.5" y="-380" font-family="Helvetica,sans-Serif" font-size="10.00">uold</text>
<text text-anchor="middle" x="156.5" y="-369" font-family="Helvetica,sans-Serif" font-size="10.00">urm1</text>
<text text-anchor="middle" x="156.5" y="-358" font-family="Helvetica,sans-Serif" font-size="10.00">u</text>
</g>
<!-- Node9 -->
<g id="node9" class="node">
<title>Node9</title>
<g id="a_node9"><a xlink:href="variables_8h.html#structIBMInfo" target="_top" xlink:title="Holds interpolation and distance information for a single IBM point.">
<polygon fill="none" stroke="black" points="129.5,-466.5 129.5,-485.5 183.5,-485.5 183.5,-466.5 129.5,-466.5"/>
<text text-anchor="middle" x="156.5" y="-473.5" font-family="Helvetica,sans-Serif" font-size="10.00">IBMInfo</text>
</a>
</g>
</g>
<!-- Node6&#45;&gt;Node9 -->
<g id="edge11" class="edge">
<title>Node6&#45;&gt;Node9</title>
<path fill="none" stroke="#9a32cd" stroke-dasharray="5,2" d="M31.23,-270.72C38.9,-311.29 61.91,-404.68 118,-457 121.95,-460.68 126.75,-463.83 131.58,-466.43"/>
<polygon fill="#9a32cd" stroke="#9a32cd" points="34.66,-269.99 29.46,-260.75 27.77,-271.21 34.66,-269.99"/>
<text text-anchor="middle" x="86" y="-437" font-family="Helvetica,sans-Serif" font-size="10.00"> pmin</text>
</g>
<!-- Node11 -->
<g id="node11" class="node">
<title>Node11</title>
<g id="a_node11"><a xlink:href="variables_8h.html#structBoundingBox" target="_top" xlink:title="Defines a 3D axis&#45;aligned bounding box.">
<polygon fill="none" stroke="black" points="353.5,-119.5 353.5,-138.5 434.5,-138.5 434.5,-119.5 353.5,-119.5"/>
<text text-anchor="middle" x="394" y="-126.5" font-family="Helvetica,sans-Serif" font-size="10.00">BoundingBox</text>
</a>
</g>
</g>
<!-- Node6&#45;&gt;Node11 -->
<g id="edge14" class="edge">
<title>Node6&#45;&gt;Node11</title>
<path fill="none" stroke="#9a32cd" stroke-dasharray="5,2" d="M38.3,-232.38C46.18,-219.46 58.05,-202.56 72,-191 89.45,-176.54 96.32,-175.59 118,-169 199.47,-144.22 299.32,-134.6 353.48,-131.01"/>
<polygon fill="#9a32cd" stroke="#9a32cd" points="35.09,-230.93 33.08,-241.33 41.14,-234.46 35.09,-230.93"/>
<text text-anchor="middle" x="156.5" y="-183" font-family="Helvetica,sans-Serif" font-size="10.00"> max_coords</text>
<text text-anchor="middle" x="156.5" y="-172" font-family="Helvetica,sans-Serif" font-size="10.00">min_coords</text>
</g>
<!-- Node13 -->
<g id="node13" class="node">
<title>Node13</title>
<g id="a_node13"><a xlink:href="variables_8h.html#structIBMVNodes" target="_top" xlink:title="Represents a collection of nodes forming a volume for the IBM.">
<polygon fill="none" stroke="black" points="230,-241.5 230,-260.5 303,-260.5 303,-241.5 230,-241.5"/>
<text text-anchor="middle" x="266.5" y="-248.5" font-family="Helvetica,sans-Serif" font-size="10.00">IBMVNodes</text>
</a>
</g>
</g>
<!-- Node6&#45;&gt;Node13 -->
<g id="edge17" class="edge">
<title>Node6&#45;&gt;Node13</title>
<path fill="none" stroke="#9a32cd" stroke-dasharray="5,2" d="M64.5,-251C109.43,-251 185.23,-251 229.8,-251"/>
<polygon fill="#9a32cd" stroke="#9a32cd" points="64.32,-247.5 54.32,-251 64.32,-254.5 64.32,-247.5"/>
<text text-anchor="middle" x="86" y="-276" font-family="Helvetica,sans-Serif" font-size="10.00"> uold</text>
<text text-anchor="middle" x="86" y="-265" font-family="Helvetica,sans-Serif" font-size="10.00">urm1</text>
<text text-anchor="middle" x="86" y="-254" font-family="Helvetica,sans-Serif" font-size="10.00">u</text>
</g>
<!-- Node7 -->
<g id="node7" class="node">
<title>Node7</title>
<g id="a_node7"><a xlink:href="variables_8h.html#structPostProcessParams" target="_top" xlink:title="Holds all configuration parameters for a post&#45;processing run.">
<polygon fill="none" stroke="black" points="338,-157.5 338,-176.5 450,-176.5 450,-157.5 338,-157.5"/>
<text text-anchor="middle" x="394" y="-164.5" font-family="Helvetica,sans-Serif" font-size="10.00">PostProcessParams</text>
</a>
</g>
</g>
<!-- Node7&#45;&gt;Node3 -->
<g id="edge8" class="edge">
<title>Node7&#45;&gt;Node3</title>
<path fill="none" stroke="#9a32cd" stroke-dasharray="5,2" d="M460.1,-172.35C477.35,-175.61 495.47,-180.79 511,-189 521,-194.29 519.97,-200.18 529,-207 540.58,-215.74 554.82,-223.69 566.23,-229.47"/>
<polygon fill="#9a32cd" stroke="#9a32cd" points="460.51,-168.87 450.07,-170.65 459.34,-175.78 460.51,-168.87"/>
<text text-anchor="middle" x="489.5" y="-192" font-family="Helvetica,sans-Serif" font-size="10.00"> pps</text>
</g>
<!-- Node8 -->
<g id="node8" class="node">
<title>Node8</title>
<g id="a_node8"><a xlink:href="variables_8h.html#structFSInfo" target="_top" xlink:title="Holds all data related to the state and motion of a body in FSI.">
<polygon fill="none" stroke="black" points="370.5,-432.5 370.5,-451.5 417.5,-451.5 417.5,-432.5 370.5,-432.5"/>
<text text-anchor="middle" x="394" y="-439.5" font-family="Helvetica,sans-Serif" font-size="10.00">FSInfo</text>
</a>
</g>
</g>
<!-- Node8&#45;&gt;Node3 -->
<g id="edge9" class="edge">
<title>Node8&#45;&gt;Node3</title>
<path fill="none" stroke="#9a32cd" stroke-dasharray="5,2" d="M419.5,-426.99C444.4,-410.95 483.18,-383.78 511,-354 543.28,-319.44 570.79,-269.55 581.6,-248.71"/>
<polygon fill="#9a32cd" stroke="#9a32cd" points="417.57,-424.07 410.99,-432.38 421.31,-429.98 417.57,-424.07"/>
<text text-anchor="middle" x="489.5" y="-394" font-family="Helvetica,sans-Serif" font-size="10.00"> fsi</text>
</g>
<!-- Node9&#45;&gt;Node8 -->
<g id="edge10" class="edge">
<title>Node9&#45;&gt;Node8</title>
<path fill="none" stroke="#9a32cd" stroke-dasharray="5,2" d="M193.8,-470.76C242.99,-463.66 329.36,-451.19 370.28,-445.28"/>
<polygon fill="#9a32cd" stroke="#9a32cd" points="193,-467.34 183.6,-472.23 194,-474.27 193,-467.34"/>
<text text-anchor="middle" x="266.5" y="-470" font-family="Helvetica,sans-Serif" font-size="10.00"> fsi_intp</text>
</g>
<!-- Node17 -->
<g id="node17" class="node">
<title>Node17</title>
<g id="a_node17"><a xlink:href="variables_8h.html#structIBMListNode" target="_top" xlink:title="A linked list node containing IBM interpolation info.">
<polygon fill="none" stroke="black" points="355,-483.5 355,-502.5 433,-502.5 433,-483.5 355,-483.5"/>
<text text-anchor="middle" x="394" y="-490.5" font-family="Helvetica,sans-Serif" font-size="10.00">IBMListNode</text>
</a>
</g>
</g>
<!-- Node9&#45;&gt;Node17 -->
<g id="edge24" class="edge">
<title>Node9&#45;&gt;Node17</title>
<path fill="none" stroke="#9a32cd" stroke-dasharray="5,2" d="M194.04,-481.76C200.35,-482.61 206.85,-483.4 213,-484 261.89,-488.74 318.52,-491.05 355,-492.13"/>
<polygon fill="#9a32cd" stroke="#9a32cd" points="194.09,-478.23 183.7,-480.29 193.1,-485.16 194.09,-478.23"/>
<text text-anchor="middle" x="266.5" y="-493" font-family="Helvetica,sans-Serif" font-size="10.00"> ibm_intp</text>
</g>
<!-- Node10 -->
<g id="node10" class="node">
<title>Node10</title>
<g id="a_node10"><a xlink:href="variables_8h.html#structSurfElmtInfo" target="_top" xlink:title="Information about a surface element for FSI calculations.">
<polygon fill="none" stroke="black" points="118,-428.5 118,-447.5 195,-447.5 195,-428.5 118,-428.5"/>
<text text-anchor="middle" x="156.5" y="-435.5" font-family="Helvetica,sans-Serif" font-size="10.00">SurfElmtInfo</text>
</a>
</g>
</g>
<!-- Node10&#45;&gt;Node8 -->
<g id="edge12" class="edge">
<title>Node10&#45;&gt;Node8</title>
<path fill="none" stroke="#9a32cd" stroke-dasharray="5,2" d="M205.36,-437.86C237.73,-437.87 281.44,-438.09 320,-439 336.87,-439.4 355.91,-440.19 370.32,-440.86"/>
<polygon fill="#9a32cd" stroke="#9a32cd" points="205.26,-434.36 195.27,-437.86 205.27,-441.36 205.26,-434.36"/>
<text text-anchor="middle" x="266.5" y="-442" font-family="Helvetica,sans-Serif" font-size="10.00"> elmtinfo</text>
</g>
<!-- Node11&#45;&gt;Node2 -->
<g id="edge21" class="edge">
<title>Node11&#45;&gt;Node2</title>
<path fill="none" stroke="#9a32cd" stroke-dasharray="5,2" d="M444.81,-121.54C466.54,-120.72 491.45,-123.25 511,-135 524.33,-143.01 515.87,-156.67 529,-165 604.72,-213.06 717.54,-204.11 768.84,-196.71"/>
<polygon fill="#9a32cd" stroke="#9a32cd" points="444.53,-118.05 434.76,-122.16 444.96,-125.04 444.53,-118.05"/>
<text text-anchor="middle" x="587.5" y="-203" font-family="Helvetica,sans-Serif" font-size="10.00"> bbox</text>
</g>
<!-- Node11&#45;&gt;Node3 -->
<g id="edge13" class="edge">
<title>Node11&#45;&gt;Node3</title>
<path fill="none" stroke="#9a32cd" stroke-dasharray="5,2" d="M444.67,-131.57C467.28,-135.11 492.96,-142.77 511,-159 527.94,-174.24 514.13,-189.73 529,-207 537.65,-217.04 550.26,-224.55 561.48,-229.77"/>
<polygon fill="#9a32cd" stroke="#9a32cd" points="444.9,-128.07 434.53,-130.21 443.98,-135.01 444.9,-128.07"/>
<text text-anchor="middle" x="489.5" y="-162" font-family="Helvetica,sans-Serif" font-size="10.00"> bboxlist</text>
</g>
<!-- Node12 -->
<g id="node12" class="node">
<title>Node12</title>
<g id="a_node12"><a xlink:href="variables_8h.html#structScalingCtx" target="_top" xlink:title=" ">
<polygon fill="none" stroke="black" points="360,-318.5 360,-337.5 428,-337.5 428,-318.5 360,-318.5"/>
<text text-anchor="middle" x="394" y="-325.5" font-family="Helvetica,sans-Serif" font-size="10.00">ScalingCtx</text>
</a>
</g>
</g>
<!-- Node12&#45;&gt;Node3 -->
<g id="edge15" class="edge">
<title>Node12&#45;&gt;Node3</title>
<path fill="none" stroke="#9a32cd" stroke-dasharray="5,2" d="M433.49,-315.01C439.05,-313.05 444.68,-311.01 450,-309 477.41,-298.66 484.79,-297.09 511,-284 532.84,-273.09 556.87,-258.24 571.83,-248.64"/>
<polygon fill="#9a32cd" stroke="#9a32cd" points="431.95,-311.84 423.66,-318.44 434.25,-318.45 431.95,-311.84"/>
<text text-anchor="middle" x="489.5" y="-305" font-family="Helvetica,sans-Serif" font-size="10.00"> scaling</text>
</g>
<!-- Node13&#45;&gt;Node3 -->
<g id="edge16" class="edge">
<title>Node13&#45;&gt;Node3</title>
<path fill="none" stroke="#9a32cd" stroke-dasharray="5,2" d="M313.18,-249.28C381.32,-246.72 507.31,-241.98 561.09,-239.96"/>
<polygon fill="#9a32cd" stroke="#9a32cd" points="313.03,-245.78 303.16,-249.66 313.29,-252.78 313.03,-245.78"/>
<text text-anchor="middle" x="394" y="-251" font-family="Helvetica,sans-Serif" font-size="10.00"> ibmv</text>
</g>
<!-- Node14 -->
<g id="node14" class="node">
<title>Node14</title>
<g id="a_node14"><a xlink:href="variables_8h.html#structRankNeighbors" target="_top" xlink:title="Stores the MPI ranks of neighboring subdomains.">
<polygon fill="none" stroke="black" points="542,-136.5 542,-155.5 633,-155.5 633,-136.5 542,-136.5"/>
<text text-anchor="middle" x="587.5" y="-143.5" font-family="Helvetica,sans-Serif" font-size="10.00">RankNeighbors</text>
</a>
</g>
</g>
<!-- Node14&#45;&gt;Node2 -->
<g id="edge18" class="edge">
<title>Node14&#45;&gt;Node2</title>
<path fill="none" stroke="#9a32cd" stroke-dasharray="5,2" d="M643.37,-147.93C675.42,-150.32 716.25,-155.57 751,-167 762.04,-170.63 773.47,-177.02 782.05,-182.43"/>
<polygon fill="#9a32cd" stroke="#9a32cd" points="643.51,-144.44 633.3,-147.25 643.04,-151.42 643.51,-144.44"/>
<text text-anchor="middle" x="707.5" y="-170" font-family="Helvetica,sans-Serif" font-size="10.00"> neighbors</text>
</g>
<!-- Node15 -->
<g id="node15" class="node">
<title>Node15</title>
<g id="a_node15"><a xlink:href="variables_8h.html#structRankCellInfo" target="_top" xlink:title="A lean struct to hold the global cell ownership range for a single MPI rank.">
<polygon fill="none" stroke="black" points="548,-98.5 548,-117.5 627,-117.5 627,-98.5 548,-98.5"/>
<text text-anchor="middle" x="587.5" y="-105.5" font-family="Helvetica,sans-Serif" font-size="10.00">RankCellInfo</text>
</a>
</g>
</g>
<!-- Node15&#45;&gt;Node2 -->
<g id="edge19" class="edge">
<title>Node15&#45;&gt;Node2</title>
<path fill="none" stroke="#9a32cd" stroke-dasharray="5,2" d="M637.4,-107.52C671.39,-109.23 716.57,-115.72 751,-136 769.91,-147.14 784.09,-169.43 791.1,-182.28"/>
<polygon fill="#9a32cd" stroke="#9a32cd" points="637.37,-104.02 627.24,-107.14 637.1,-111.02 637.37,-104.02"/>
<text text-anchor="middle" x="707.5" y="-139" font-family="Helvetica,sans-Serif" font-size="10.00"> RankCellInfoMap</text>
</g>
<!-- Node16 -->
<g id="node16" class="node">
<title>Node16</title>
<g id="a_node16"><a xlink:href="variables_8h.html#structIBMList" target="_top" xlink:title="Head of a linked list for IBM data.">
<polygon fill="none" stroke="black" points="561,-463.5 561,-482.5 614,-482.5 614,-463.5 561,-463.5"/>
<text text-anchor="middle" x="587.5" y="-470.5" font-family="Helvetica,sans-Serif" font-size="10.00">IBMList</text>
</a>
</g>
</g>
<!-- Node16&#45;&gt;Node2 -->
<g id="edge22" class="edge">
<title>Node16&#45;&gt;Node2</title>
<path fill="none" stroke="#9a32cd" stroke-dasharray="5,2" d="M624.5,-477.91C661.42,-480.75 717.97,-478.68 751,-446 786.58,-410.8 794.33,-243.46 795.73,-201.54"/>
<polygon fill="#9a32cd" stroke="#9a32cd" points="624.47,-474.39 614.18,-476.95 623.82,-481.36 624.47,-474.39"/>
<text text-anchor="middle" x="707.5" y="-481" font-family="Helvetica,sans-Serif" font-size="10.00"> ibmlist</text>
</g>
<!-- Node17&#45;&gt;Node16 -->
<g id="edge23" class="edge">
<title>Node17&#45;&gt;Node16</title>
<path fill="none" stroke="#9a32cd" stroke-dasharray="5,2" d="M443.45,-487.94C480.77,-484.04 530.89,-478.81 560.82,-475.68"/>
<polygon fill="#9a32cd" stroke="#9a32cd" points="442.87,-484.48 433.29,-489 443.6,-491.44 442.87,-484.48"/>
<text text-anchor="middle" x="489.5" y="-487" font-family="Helvetica,sans-Serif" font-size="10.00"> head</text>
</g>
<!-- Node17&#45;&gt;Node17 -->
<g id="edge25" class="edge">
<title>Node17&#45;&gt;Node17</title>
<path fill="none" stroke="#9a32cd" stroke-dasharray="5,2" d="M376.59,-512.4C377.76,-517.31 383.56,-521 394,-521 410.71,-521 415.54,-511.57 408.49,-502.76"/>
<polygon fill="#9a32cd" stroke="#9a32cd" points="379.97,-513.34 379.51,-502.76 373.27,-511.31 379.97,-513.34"/>
<text text-anchor="middle" x="394" y="-524" font-family="Helvetica,sans-Serif" font-size="10.00"> next</text>
</g>
<!-- Node18 -->
<g id="node18" class="node">
<title>Node18</title>
<g id="a_node18"><a xlink:href="variables_8h.html#structBCS" target="_top" xlink:title="Legacy boundary condition data.">
<polygon fill="none" stroke="black" points="569.5,-60.5 569.5,-79.5 605.5,-79.5 605.5,-60.5 569.5,-60.5"/>
<text text-anchor="middle" x="587.5" y="-67.5" font-family="Helvetica,sans-Serif" font-size="10.00">BCS</text>
</a>
</g>
</g>
<!-- Node18&#45;&gt;Node2 -->
<g id="edge27" class="edge">
<title>Node18&#45;&gt;Node2</title>
<path fill="none" stroke="#9a32cd" stroke-dasharray="5,2" d="M616.07,-67.06C651.01,-64.84 711.46,-66.22 751,-96 779.82,-117.71 790.89,-162.45 794.49,-182.23"/>
<polygon fill="#9a32cd" stroke="#9a32cd" points="615.37,-63.6 605.67,-67.87 615.92,-70.58 615.37,-63.6"/>
<text text-anchor="middle" x="707.5" y="-99" font-family="Helvetica,sans-Serif" font-size="10.00"> Bcs</text>
</g>
<!-- Node19 -->
<g id="node19" class="node">
<title>Node19</title>
<g id="a_node19"><a xlink:href="variables_8h.html#structBoundaryFaceConfig" target="_top" xlink:title="Holds the complete configuration for one of the six boundary faces.">
<polygon fill="none" stroke="black" points="529,-22.5 529,-41.5 646,-41.5 646,-22.5 529,-22.5"/>
<text text-anchor="middle" x="587.5" y="-29.5" font-family="Helvetica,sans-Serif" font-size="10.00">BoundaryFaceConfig</text>
</a>
</g>
</g>
<!-- Node19&#45;&gt;Node2 -->
<g id="edge28" class="edge">
<title>Node19&#45;&gt;Node2</title>
<path fill="none" stroke="#9a32cd" stroke-dasharray="5,2" d="M656.21,-25.03C688.23,-25.35 725.03,-31.43 751,-53 791.39,-86.55 795.88,-156.72 796.12,-182.36"/>
<polygon fill="#9a32cd" stroke="#9a32cd" points="655.97,-21.53 646,-25.11 656.03,-28.53 655.97,-21.53"/>
<text text-anchor="middle" x="707.5" y="-56" font-family="Helvetica,sans-Serif" font-size="10.00"> boundary_faces</text>
</g>
<!-- Node20 -->
<g id="node20" class="node">
<title>Node20</title>
<g id="a_node20"><a xlink:href="variables_8h.html#structBC__Param__s" target="_top" xlink:title="A node in a linked list for storing key&#45;value parameters from the bcs.dat file.">
<polygon fill="none" stroke="black" points="355.5,-38.5 355.5,-57.5 432.5,-57.5 432.5,-38.5 355.5,-38.5"/>
<text text-anchor="middle" x="394" y="-45.5" font-family="Helvetica,sans-Serif" font-size="10.00">BC_Param_s</text>
</a>
</g>
</g>
<!-- Node20&#45;&gt;Node19 -->
<g id="edge29" class="edge">
<title>Node20&#45;&gt;Node19</title>
<path fill="none" stroke="#9a32cd" stroke-dasharray="5,2" d="M442.84,-44C468.89,-41.83 501.3,-39.12 528.75,-36.83"/>
<polygon fill="#9a32cd" stroke="#9a32cd" points="442.51,-40.52 432.83,-44.84 443.09,-47.49 442.51,-40.52"/>
<text text-anchor="middle" x="489.5" y="-45" font-family="Helvetica,sans-Serif" font-size="10.00"> params</text>
</g>
<!-- Node20&#45;&gt;Node20 -->
<g id="edge30" class="edge">
<title>Node20&#45;&gt;Node20</title>
<path fill="none" stroke="#9a32cd" stroke-dasharray="5,2" d="M376.59,-67.4C377.76,-72.31 383.56,-76 394,-76 410.71,-76 415.54,-66.57 408.49,-57.76"/>
<polygon fill="#9a32cd" stroke="#9a32cd" points="379.97,-68.34 379.51,-57.76 373.27,-66.31 379.97,-68.34"/>
<text text-anchor="middle" x="394" y="-79" font-family="Helvetica,sans-Serif" font-size="10.00"> next</text>
</g>
<!-- Node21 -->
<g id="node21" class="node">
<title>Node21</title>
<g id="a_node21"><a xlink:href="structBoundaryCondition.html" target="_top" xlink:title="The &quot;virtual table&quot; struct for a boundary condition handler object.">
<polygon fill="none" stroke="black" points="339,-0.5 339,-19.5 449,-19.5 449,-0.5 339,-0.5"/>
<text text-anchor="middle" x="394" y="-7.5" font-family="Helvetica,sans-Serif" font-size="10.00">BoundaryCondition</text>
</a>
</g>
</g>
<!-- Node21&#45;&gt;Node19 -->
<g id="edge31" class="edge">
<title>Node21&#45;&gt;Node19</title>
<path fill="none" stroke="#9a32cd" stroke-dasharray="5,2" d="M459.25,-17.38C481.77,-19.97 506.9,-22.86 528.85,-25.38"/>
<polygon fill="#9a32cd" stroke="#9a32cd" points="459.44,-13.88 449.11,-16.22 458.64,-20.83 459.44,-13.88"/>
<text text-anchor="middle" x="489.5" y="-26" font-family="Helvetica,sans-Serif" font-size="10.00"> handler</text>
</g>
</g>
</svg>
