<?xml version="1.0" encoding="UTF-8" standalone="no"?>
<!DOCTYPE svg PUBLIC "-//W3C//DTD SVG 1.1//EN"
 "http://www.w3.org/Graphics/SVG/1.1/DTD/svg11.dtd">
<!-- Generated by graphviz version 2.43.0 (0)
 -->
<!-- Title: IBMList Pages: 1 -->
<svg width="129pt" height="229pt"
 viewBox="0.00 0.00 129.00 229.00" xmlns="http://www.w3.org/2000/svg" xmlns:xlink="http://www.w3.org/1999/xlink">
<g id="graph0" class="graph" transform="scale(1 1) rotate(0) translate(4 225)">
<title>IBMList</title>
<!-- Node1 -->
<g id="node1" class="node">
<title>Node1</title>
<g id="a_node1"><a xlink:title="Head of a linked list for IBM data.">
<polygon fill="#bfbfbf" stroke="black" points="12.5,-0.5 12.5,-19.5 65.5,-19.5 65.5,-0.5 12.5,-0.5"/>
<text text-anchor="middle" x="39" y="-7.5" font-family="Helvetica,sans-Serif" font-size="10.00">IBMList</text>
</a>
</g>
</g>
<!-- Node2 -->
<g id="node2" class="node">
<title>Node2</title>
<g id="a_node2"><a xlink:href="variables_8h.html#structIBMListNode" target="_top" xlink:title="A linked list node containing IBM interpolation info.">
<polygon fill="none" stroke="black" points="0,-67.5 0,-86.5 78,-86.5 78,-67.5 0,-67.5"/>
<text text-anchor="middle" x="39" y="-74.5" font-family="Helvetica,sans-Serif" font-size="10.00">IBMListNode</text>
</a>
</g>
</g>
<!-- Node2&#45;&gt;Node1 -->
<g id="edge1" class="edge">
<title>Node2&#45;&gt;Node1</title>
<path fill="none" stroke="#9a32cd" stroke-dasharray="5,2" d="M39,-57.04C39,-44.67 39,-29.12 39,-19.63"/>
<polygon fill="#9a32cd" stroke="#9a32cd" points="35.5,-57.23 39,-67.23 42.5,-57.23 35.5,-57.23"/>
<text text-anchor="middle" x="53" y="-41" font-family="Helvetica,sans-Serif" font-size="10.00"> head</text>
</g>
<!-- Node2&#45;&gt;Node2 -->
<g id="edge4" class="edge">
<title>Node2&#45;&gt;Node2</title>
<path fill="none" stroke="#9a32cd" stroke-dasharray="5,2" d="M88.28,-81.85C93,-80.86 96,-79.25 96,-77 96,-73.41 88.33,-71.43 78.16,-71.06"/>
<polygon fill="#9a32cd" stroke="#9a32cd" points="87.73,-78.38 78.16,-82.94 88.48,-85.34 87.73,-78.38"/>
<text text-anchor="middle" x="108.5" y="-74.5" font-family="Helvetica,sans-Serif" font-size="10.00"> next</text>
</g>
<!-- Node3 -->
<g id="node3" class="node">
<title>Node3</title>
<g id="a_node3"><a xlink:href="variables_8h.html#structIBMInfo" target="_top" xlink:title="Holds interpolation and distance information for a single IBM point.">
<polygon fill="none" stroke="black" points="12,-134.5 12,-153.5 66,-153.5 66,-134.5 12,-134.5"/>
<text text-anchor="middle" x="39" y="-141.5" font-family="Helvetica,sans-Serif" font-size="10.00">IBMInfo</text>
</a>
</g>
</g>
<!-- Node3&#45;&gt;Node2 -->
<g id="edge2" class="edge">
<title>Node3&#45;&gt;Node2</title>
<path fill="none" stroke="#9a32cd" stroke-dasharray="5,2" d="M39,-124.04C39,-111.67 39,-96.12 39,-86.63"/>
<polygon fill="#9a32cd" stroke="#9a32cd" points="35.5,-124.23 39,-134.23 42.5,-124.23 35.5,-124.23"/>
<text text-anchor="middle" x="62" y="-108" font-family="Helvetica,sans-Serif" font-size="10.00"> ibm_intp</text>
</g>
<!-- Node4 -->
<g id="node4" class="node">
<title>Node4</title>
<g id="a_node4"><a xlink:href="variables_8h.html#structCmpnts" target="_top" xlink:title="A 3D point or vector with PetscScalar components.">
<polygon fill="none" stroke="black" points="12,-201.5 12,-220.5 66,-220.5 66,-201.5 12,-201.5"/>
<text text-anchor="middle" x="39" y="-208.5" font-family="Helvetica,sans-Serif" font-size="10.00">Cmpnts</text>
</a>
</g>
</g>
<!-- Node4&#45;&gt;Node3 -->
<g id="edge3" class="edge">
<title>Node4&#45;&gt;Node3</title>
<path fill="none" stroke="#9a32cd" stroke-dasharray="5,2" d="M39,-191.04C39,-178.67 39,-163.12 39,-153.63"/>
<polygon fill="#9a32cd" stroke="#9a32cd" points="35.5,-191.23 39,-201.23 42.5,-191.23 35.5,-191.23"/>
<text text-anchor="middle" x="53" y="-175" font-family="Helvetica,sans-Serif" font-size="10.00"> pmin</text>
</g>
</g>
</svg>
