<?xml version="1.0" encoding="UTF-8" standalone="no"?>
<!DOCTYPE svg PUBLIC "-//W3C//DTD SVG 1.1//EN"
 "http://www.w3.org/Graphics/SVG/1.1/DTD/svg11.dtd">
<!-- Generated by graphviz version 2.43.0 (0)
 -->
<!-- Title: list Pages: 1 -->
<svg width="92pt" height="95pt"
 viewBox="0.00 0.00 92.00 95.00" xmlns="http://www.w3.org/2000/svg" xmlns:xlink="http://www.w3.org/1999/xlink">
<g id="graph0" class="graph" transform="scale(1 1) rotate(0) translate(4 91)">
<title>list</title>
<!-- Node1 -->
<g id="node1" class="node">
<title>Node1</title>
<g id="a_node1"><a xlink:title="Head of a generic C&#45;style linked list.">
<polygon fill="#bfbfbf" stroke="black" points="4.5,-0.5 4.5,-19.5 36.5,-19.5 36.5,-0.5 4.5,-0.5"/>
<text text-anchor="middle" x="20.5" y="-7.5" font-family="Helvetica,sans-Serif" font-size="10.00">list</text>
</a>
</g>
</g>
<!-- Node2 -->
<g id="node2" class="node">
<title>Node2</title>
<g id="a_node2"><a xlink:href="variables_8h.html#structnode" target="_top" xlink:title="A generic C&#45;style linked list node for integers.">
<polygon fill="none" stroke="black" points="0,-67.5 0,-86.5 41,-86.5 41,-67.5 0,-67.5"/>
<text text-anchor="middle" x="20.5" y="-74.5" font-family="Helvetica,sans-Serif" font-size="10.00">node</text>
</a>
</g>
</g>
<!-- Node2&#45;&gt;Node1 -->
<g id="edge1" class="edge">
<title>Node2&#45;&gt;Node1</title>
<path fill="none" stroke="#9a32cd" stroke-dasharray="5,2" d="M20.5,-57.04C20.5,-44.67 20.5,-29.12 20.5,-19.63"/>
<polygon fill="#9a32cd" stroke="#9a32cd" points="17,-57.23 20.5,-67.23 24,-57.23 17,-57.23"/>
<text text-anchor="middle" x="34.5" y="-41" font-family="Helvetica,sans-Serif" font-size="10.00"> head</text>
</g>
<!-- Node2&#45;&gt;Node2 -->
<g id="edge2" class="edge">
<title>Node2&#45;&gt;Node2</title>
<path fill="none" stroke="#9a32cd" stroke-dasharray="5,2" d="M51.32,-82.44C55.9,-81.59 59,-79.78 59,-77 59,-72.44 50.65,-70.48 41.1,-71.12"/>
<polygon fill="#9a32cd" stroke="#9a32cd" points="50.94,-78.96 41.1,-82.88 51.24,-85.95 50.94,-78.96"/>
<text text-anchor="middle" x="71.5" y="-74.5" font-family="Helvetica,sans-Serif" font-size="10.00"> next</text>
</g>
</g>
</svg>
