<?xml version="1.0" encoding="UTF-8" standalone="no"?>
<!DOCTYPE svg PUBLIC "-//W3C//DTD SVG 1.1//EN"
 "http://www.w3.org/Graphics/SVG/1.1/DTD/svg11.dtd">
<!-- Generated by graphviz version 2.43.0 (0)
 -->
<!-- Title: vtk_io.h Pages: 1 -->
<svg width="176pt" height="140pt"
 viewBox="0.00 0.00 175.50 140.00" xmlns="http://www.w3.org/2000/svg" xmlns:xlink="http://www.w3.org/1999/xlink">
<g id="graph0" class="graph" transform="scale(1 1) rotate(0) translate(4 136)">
<title>vtk_io.h</title>
<!-- Node1 -->
<g id="node1" class="node">
<title>Node1</title>
<g id="a_node1"><a xlink:title=" ">
<polygon fill="#bfbfbf" stroke="black" points="65,-112.5 65,-131.5 121,-131.5 121,-112.5 65,-112.5"/>
<text text-anchor="middle" x="93" y="-119.5" font-family="Helvetica,sans-Serif" font-size="10.00">vtk_io.h</text>
</a>
</g>
</g>
<!-- Node2 -->
<g id="node2" class="node">
<title>Node2</title>
<g id="a_node2"><a xlink:href="postprocessor_8h.html" target="_top" xlink:title=" ">
<polygon fill="none" stroke="black" points="0,-56.5 0,-75.5 94,-75.5 94,-56.5 0,-56.5"/>
<text text-anchor="middle" x="47" y="-63.5" font-family="Helvetica,sans-Serif" font-size="10.00">postprocessor.h</text>
</a>
</g>
</g>
<!-- Node1&#45;&gt;Node2 -->
<g id="edge1" class="edge">
<title>Node1&#45;&gt;Node2</title>
<path fill="none" stroke="midnightblue" d="M78.89,-104.43C70.82,-94.97 61.04,-83.48 54.45,-75.75"/>
<polygon fill="midnightblue" stroke="midnightblue" points="76.25,-106.74 85.4,-112.08 81.58,-102.2 76.25,-106.74"/>
</g>
<!-- Node4 -->
<g id="node4" class="node">
<title>Node4</title>
<g id="a_node4"><a xlink:href="vtk__io_8c.html" target="_top" xlink:title=" ">
<polygon fill="none" stroke="black" points="112.5,-56.5 112.5,-75.5 167.5,-75.5 167.5,-56.5 112.5,-56.5"/>
<text text-anchor="middle" x="140" y="-63.5" font-family="Helvetica,sans-Serif" font-size="10.00">vtk_io.c</text>
</a>
</g>
</g>
<!-- Node1&#45;&gt;Node4 -->
<g id="edge3" class="edge">
<title>Node1&#45;&gt;Node4</title>
<path fill="none" stroke="midnightblue" d="M107.42,-104.43C115.66,-94.97 125.65,-83.48 132.38,-75.75"/>
<polygon fill="midnightblue" stroke="midnightblue" points="104.69,-102.24 100.76,-112.08 109.97,-106.84 104.69,-102.24"/>
</g>
<!-- Node3 -->
<g id="node3" class="node">
<title>Node3</title>
<g id="a_node3"><a xlink:href="postprocessor_8c.html" target="_top" xlink:title="Phase 2 implementation of the post&#45;processing tool.">
<polygon fill="none" stroke="black" points="0.5,-0.5 0.5,-19.5 93.5,-19.5 93.5,-0.5 0.5,-0.5"/>
<text text-anchor="middle" x="47" y="-7.5" font-family="Helvetica,sans-Serif" font-size="10.00">postprocessor.c</text>
</a>
</g>
</g>
<!-- Node2&#45;&gt;Node3 -->
<g id="edge2" class="edge">
<title>Node2&#45;&gt;Node3</title>
<path fill="none" stroke="midnightblue" d="M47,-45.8C47,-36.91 47,-26.78 47,-19.75"/>
<polygon fill="midnightblue" stroke="midnightblue" points="43.5,-46.08 47,-56.08 50.5,-46.08 43.5,-46.08"/>
</g>
</g>
</svg>
