<?xml version="1.0" encoding="UTF-8" standalone="no"?>
<!DOCTYPE svg PUBLIC "-//W3C//DTD SVG 1.1//EN"
 "http://www.w3.org/Graphics/SVG/1.1/DTD/svg11.dtd">
<!-- Generated by graphviz version 2.43.0 (0)
 -->
<!-- Title: WriteVTKAppendedBlock Pages: 1 -->
<svg width="550pt" height="66pt"
 viewBox="0.00 0.00 550.00 66.00" xmlns="http://www.w3.org/2000/svg" xmlns:xlink="http://www.w3.org/1999/xlink">
<g id="graph0" class="graph" transform="scale(1 1) rotate(0) translate(4 62)">
<title>WriteVTKAppendedBlock</title>
<!-- Node1 -->
<g id="node1" class="node">
<title>Node1</title>
<g id="a_node1"><a xlink:title=" ">
<polygon fill="#bfbfbf" stroke="black" points="404,-19.5 404,-38.5 542,-38.5 542,-19.5 404,-19.5"/>
<text text-anchor="middle" x="473" y="-26.5" font-family="Helvetica,sans-Serif" font-size="10.00">WriteVTKAppendedBlock</text>
</a>
</g>
</g>
<!-- Node2 -->
<g id="node2" class="node">
<title>Node2</title>
<g id="a_node2"><a xlink:href="vtk__io_8c.html#a0abeecf0c7704279a8c2e9bd841939c2" target="_top" xlink:title="Creates and writes a VTK file (either .vts or .vtp) from a populated metadata struct.">
<polygon fill="none" stroke="black" points="212,-19.5 212,-38.5 368,-38.5 368,-19.5 212,-19.5"/>
<text text-anchor="middle" x="290" y="-26.5" font-family="Helvetica,sans-Serif" font-size="10.00">CreateVTKFileFromMetadata</text>
</a>
</g>
</g>
<!-- Node1&#45;&gt;Node2 -->
<g id="edge1" class="edge">
<title>Node1&#45;&gt;Node2</title>
<path fill="none" stroke="midnightblue" d="M393.64,-29C385.21,-29 376.63,-29 368.22,-29"/>
<polygon fill="midnightblue" stroke="midnightblue" points="393.83,-32.5 403.83,-29 393.83,-25.5 393.83,-32.5"/>
</g>
<!-- Node3 -->
<g id="node3" class="node">
<title>Node3</title>
<g id="a_node3"><a xlink:href="postprocessor_8c.html#a06bd0048200cbc80db1d02bc5d276a8f" target="_top" xlink:title="Orchestrates the writing of a combined, multi&#45;field VTK file for a single time step.">
<polygon fill="none" stroke="black" points="77,-38.5 77,-57.5 176,-57.5 176,-38.5 77,-38.5"/>
<text text-anchor="middle" x="126.5" y="-45.5" font-family="Helvetica,sans-Serif" font-size="10.00">WriteEulerianFile</text>
</a>
</g>
</g>
<!-- Node2&#45;&gt;Node3 -->
<g id="edge2" class="edge">
<title>Node2&#45;&gt;Node3</title>
<path fill="none" stroke="midnightblue" d="M201.45,-39.3C192.86,-40.31 184.37,-41.31 176.38,-42.25"/>
<polygon fill="midnightblue" stroke="midnightblue" points="202.04,-42.75 211.56,-38.11 201.22,-35.8 202.04,-42.75"/>
</g>
<!-- Node5 -->
<g id="node5" class="node">
<title>Node5</title>
<g id="a_node5"><a xlink:href="postprocessor_8c.html#a90f52cd32d5560474c4892cf669c6ef8" target="_top" xlink:title="Writes particle data to a VTP file using the Prepare&#45;Write&#45;Cleanup pattern.">
<polygon fill="none" stroke="black" points="78.5,-0.5 78.5,-19.5 174.5,-19.5 174.5,-0.5 78.5,-0.5"/>
<text text-anchor="middle" x="126.5" y="-7.5" font-family="Helvetica,sans-Serif" font-size="10.00">WriteParticleFile</text>
</a>
</g>
</g>
<!-- Node2&#45;&gt;Node5 -->
<g id="edge4" class="edge">
<title>Node2&#45;&gt;Node5</title>
<path fill="none" stroke="midnightblue" d="M201.5,-18.71C192.25,-17.62 183.11,-16.54 174.59,-15.54"/>
<polygon fill="midnightblue" stroke="midnightblue" points="201.22,-22.2 211.56,-19.89 202.04,-15.25 201.22,-22.2"/>
</g>
<!-- Node4 -->
<g id="node4" class="node">
<title>Node4</title>
<g id="a_node4"><a xlink:href="postprocessor_8c.html#a3c04138a5bfe5d72780bb7e82a18e627" target="_top" xlink:title=" ">
<polygon fill="none" stroke="black" points="0,-19.5 0,-38.5 41,-38.5 41,-19.5 0,-19.5"/>
<text text-anchor="middle" x="20.5" y="-26.5" font-family="Helvetica,sans-Serif" font-size="10.00">main</text>
</a>
</g>
</g>
<!-- Node3&#45;&gt;Node4 -->
<g id="edge3" class="edge">
<title>Node3&#45;&gt;Node4</title>
<path fill="none" stroke="midnightblue" d="M66.74,-37.26C57.48,-35.57 48.5,-33.93 41.02,-32.57"/>
<polygon fill="midnightblue" stroke="midnightblue" points="66.38,-40.76 76.85,-39.11 67.64,-33.87 66.38,-40.76"/>
</g>
<!-- Node5&#45;&gt;Node4 -->
<g id="edge5" class="edge">
<title>Node5&#45;&gt;Node4</title>
<path fill="none" stroke="midnightblue" d="M68.51,-20.41C58.67,-22.21 49.08,-23.96 41.15,-25.41"/>
<polygon fill="midnightblue" stroke="midnightblue" points="69.16,-23.85 78.37,-18.61 67.9,-16.96 69.16,-23.85"/>
</g>
</g>
</svg>
