<?xml version="1.0" encoding="UTF-8" standalone="no"?>
<!DOCTYPE svg PUBLIC "-//W3C//DTD SVG 1.1//EN"
 "http://www.w3.org/Graphics/SVG/1.1/DTD/svg11.dtd">
<!-- Generated by graphviz version 2.43.0 (0)
 -->
<!-- Title: CreateVTKFileFromMetadata Pages: 1 -->
<svg width="492pt" height="123pt"
 viewBox="0.00 0.00 492.00 123.00" xmlns="http://www.w3.org/2000/svg" xmlns:xlink="http://www.w3.org/1999/xlink">
<g id="graph0" class="graph" transform="scale(1 1) rotate(0) translate(4 119)">
<title>CreateVTKFileFromMetadata</title>
<!-- Node1 -->
<g id="node1" class="node">
<title>Node1</title>
<g id="a_node1"><a xlink:title="Creates and writes a VTK file (either .vts or .vtp) from a populated metadata struct.">
<polygon fill="#bfbfbf" stroke="black" points="0,-57.5 0,-76.5 156,-76.5 156,-57.5 0,-57.5"/>
<text text-anchor="middle" x="78" y="-64.5" font-family="Helvetica,sans-Serif" font-size="10.00">CreateVTKFileFromMetadata</text>
</a>
</g>
</g>
<!-- Node2 -->
<g id="node2" class="node">
<title>Node2</title>
<g id="a_node2"><a xlink:href="vtk__io_8c.html#a8a99613066a6b52c3bd5761f6393c54a" target="_top" xlink:title=" ">
<polygon fill="none" stroke="black" points="192,-95.5 192,-114.5 330,-114.5 330,-95.5 192,-95.5"/>
<text text-anchor="middle" x="261" y="-102.5" font-family="Helvetica,sans-Serif" font-size="10.00">WriteVTKAppendedBlock</text>
</a>
</g>
</g>
<!-- Node1&#45;&gt;Node2 -->
<g id="edge1" class="edge">
<title>Node1&#45;&gt;Node2</title>
<path fill="none" stroke="midnightblue" d="M124.67,-76.59C148.99,-81.69 179.08,-88.01 204.71,-93.39"/>
<polygon fill="midnightblue" stroke="midnightblue" points="204.15,-96.85 214.65,-95.48 205.59,-90 204.15,-96.85"/>
</g>
<!-- Node3 -->
<g id="node3" class="node">
<title>Node3</title>
<g id="a_node3"><a xlink:href="vtk__io_8c.html#a47bae5c399297c757d205e078e7bbc96" target="_top" xlink:title=" ">
<polygon fill="none" stroke="black" points="206,-57.5 206,-76.5 316,-76.5 316,-57.5 206,-57.5"/>
<text text-anchor="middle" x="261" y="-64.5" font-family="Helvetica,sans-Serif" font-size="10.00">WriteVTKFileFooter</text>
</a>
</g>
</g>
<!-- Node1&#45;&gt;Node3 -->
<g id="edge2" class="edge">
<title>Node1&#45;&gt;Node3</title>
<path fill="none" stroke="midnightblue" d="M156.02,-67C169.23,-67 182.84,-67 195.67,-67"/>
<polygon fill="midnightblue" stroke="midnightblue" points="195.78,-70.5 205.78,-67 195.78,-63.5 195.78,-70.5"/>
</g>
<!-- Node4 -->
<g id="node4" class="node">
<title>Node4</title>
<g id="a_node4"><a xlink:href="vtk__io_8c.html#ab573333485c75c29fedb1b7168a78202" target="_top" xlink:title=" ">
<polygon fill="none" stroke="black" points="204,-19.5 204,-38.5 318,-38.5 318,-19.5 204,-19.5"/>
<text text-anchor="middle" x="261" y="-26.5" font-family="Helvetica,sans-Serif" font-size="10.00">WriteVTKFileHeader</text>
</a>
</g>
</g>
<!-- Node1&#45;&gt;Node4 -->
<g id="edge3" class="edge">
<title>Node1&#45;&gt;Node4</title>
<path fill="none" stroke="midnightblue" d="M124.67,-57.41C148.99,-52.31 179.08,-45.99 204.71,-40.61"/>
<polygon fill="midnightblue" stroke="midnightblue" points="205.59,-44 214.65,-38.52 204.15,-37.15 205.59,-44"/>
</g>
<!-- Node5 -->
<g id="node5" class="node">
<title>Node5</title>
<g id="a_node5"><a xlink:href="vtk__io_8c.html#ab7df0bd31982b21452e05631bdae784e" target="_top" xlink:title=" ">
<polygon fill="none" stroke="black" points="366,-38.5 366,-57.5 484,-57.5 484,-38.5 366,-38.5"/>
<text text-anchor="middle" x="425" y="-45.5" font-family="Helvetica,sans-Serif" font-size="10.00">WriteVTPXMLHeader</text>
</a>
</g>
</g>
<!-- Node4&#45;&gt;Node5 -->
<g id="edge4" class="edge">
<title>Node4&#45;&gt;Node5</title>
<path fill="none" stroke="midnightblue" d="M318.21,-35.59C330.39,-37.02 343.41,-38.55 355.99,-40.02"/>
<polygon fill="midnightblue" stroke="midnightblue" points="355.63,-43.51 365.97,-41.19 356.44,-36.55 355.63,-43.51"/>
</g>
<!-- Node6 -->
<g id="node6" class="node">
<title>Node6</title>
<g id="a_node6"><a xlink:href="vtk__io_8c.html#aa1aa05de126ac93886ab1ae4d8670b3f" target="_top" xlink:title=" ">
<polygon fill="none" stroke="black" points="366,-0.5 366,-19.5 484,-19.5 484,-0.5 366,-0.5"/>
<text text-anchor="middle" x="425" y="-7.5" font-family="Helvetica,sans-Serif" font-size="10.00">WriteVTSXMLHeader</text>
</a>
</g>
</g>
<!-- Node4&#45;&gt;Node6 -->
<g id="edge5" class="edge">
<title>Node4&#45;&gt;Node6</title>
<path fill="none" stroke="midnightblue" d="M318.21,-22.41C330.39,-20.98 343.41,-19.45 355.99,-17.98"/>
<polygon fill="midnightblue" stroke="midnightblue" points="356.44,-21.45 365.97,-16.81 355.63,-14.49 356.44,-21.45"/>
</g>
</g>
</svg>
