<?xml version="1.0" encoding="UTF-8" standalone="no"?>
<!DOCTYPE svg PUBLIC "-//W3C//DTD SVG 1.1//EN"
 "http://www.w3.org/Graphics/SVG/1.1/DTD/svg11.dtd">
<!-- Generated by graphviz version 2.43.0 (0)
 -->
<!-- Title: PrepareOutputEulerianFieldData Pages: 1 -->
<svg width="393pt" height="28pt"
 viewBox="0.00 0.00 393.00 28.00" xmlns="http://www.w3.org/2000/svg" xmlns:xlink="http://www.w3.org/1999/xlink">
<g id="graph0" class="graph" transform="scale(1 1) rotate(0) translate(4 24)">
<title>PrepareOutputEulerianFieldData</title>
<!-- Node1 -->
<g id="node1" class="node">
<title>Node1</title>
<g id="a_node1"><a xlink:title="Creates a C array of field data corresponding to a subsampled (legacy&#45;style) grid.">
<polygon fill="#bfbfbf" stroke="black" points="212,-0.5 212,-19.5 385,-19.5 385,-0.5 212,-0.5"/>
<text text-anchor="middle" x="298.5" y="-7.5" font-family="Helvetica,sans-Serif" font-size="10.00">PrepareOutputEulerianFieldData</text>
</a>
</g>
</g>
<!-- Node2 -->
<g id="node2" class="node">
<title>Node2</title>
<g id="a_node2"><a xlink:href="postprocessor_8c.html#a06bd0048200cbc80db1d02bc5d276a8f" target="_top" xlink:title="Orchestrates the writing of a combined, multi&#45;field VTK file for a single time step.">
<polygon fill="none" stroke="black" points="77,-0.5 77,-19.5 176,-19.5 176,-0.5 77,-0.5"/>
<text text-anchor="middle" x="126.5" y="-7.5" font-family="Helvetica,sans-Serif" font-size="10.00">WriteEulerianFile</text>
</a>
</g>
</g>
<!-- Node1&#45;&gt;Node2 -->
<g id="edge1" class="edge">
<title>Node1&#45;&gt;Node2</title>
<path fill="none" stroke="midnightblue" d="M201.25,-10C192.56,-10 184.02,-10 176.02,-10"/>
<polygon fill="midnightblue" stroke="midnightblue" points="201.5,-13.5 211.5,-10 201.5,-6.5 201.5,-13.5"/>
</g>
<!-- Node3 -->
<g id="node3" class="node">
<title>Node3</title>
<g id="a_node3"><a xlink:href="postprocessor_8c.html#a3c04138a5bfe5d72780bb7e82a18e627" target="_top" xlink:title=" ">
<polygon fill="none" stroke="black" points="0,-0.5 0,-19.5 41,-19.5 41,-0.5 0,-0.5"/>
<text text-anchor="middle" x="20.5" y="-7.5" font-family="Helvetica,sans-Serif" font-size="10.00">main</text>
</a>
</g>
</g>
<!-- Node2&#45;&gt;Node3 -->
<g id="edge2" class="edge">
<title>Node2&#45;&gt;Node3</title>
<path fill="none" stroke="midnightblue" d="M66.74,-10C57.48,-10 48.5,-10 41.02,-10"/>
<polygon fill="midnightblue" stroke="midnightblue" points="66.85,-13.5 76.85,-10 66.85,-6.5 66.85,-13.5"/>
</g>
</g>
</svg>
