<?xml version="1.0" encoding="UTF-8" standalone="no"?>
<!DOCTYPE svg PUBLIC "-//W3C//DTD SVG 1.1//EN"
 "http://www.w3.org/Graphics/SVG/1.1/DTD/svg11.dtd">
<!-- Generated by graphviz version 2.43.0 (0)
 -->
<!-- Title: PrepareOutputParticleData Pages: 1 -->
<svg width="345pt" height="66pt"
 viewBox="0.00 0.00 345.00 66.00" xmlns="http://www.w3.org/2000/svg" xmlns:xlink="http://www.w3.org/1999/xlink">
<g id="graph0" class="graph" transform="scale(1 1) rotate(0) translate(4 62)">
<title>PrepareOutputParticleData</title>
<!-- Node1 -->
<g id="node1" class="node">
<title>Node1</title>
<g id="a_node1"><a xlink:title="Gathers, merges, subsamples, and prepares particle data for VTK output.">
<polygon fill="#bfbfbf" stroke="black" points="0,-19.5 0,-38.5 147,-38.5 147,-19.5 0,-19.5"/>
<text text-anchor="middle" x="73.5" y="-26.5" font-family="Helvetica,sans-Serif" font-size="10.00">PrepareOutputParticleData</text>
</a>
</g>
</g>
<!-- Node2 -->
<g id="node2" class="node">
<title>Node2</title>
<g id="a_node2"><a xlink:href="io_8h.html#a093c8c981643c86a2c594fea39dec0c1" target="_top" xlink:title="Gathers any DMSwarm field from all ranks to a single, contiguous array on rank 0.">
<polygon fill="none" stroke="black" points="183,-38.5 183,-57.5 337,-57.5 337,-38.5 183,-38.5"/>
<text text-anchor="middle" x="260" y="-45.5" font-family="Helvetica,sans-Serif" font-size="10.00">SwarmFieldToArrayOnRank0</text>
</a>
</g>
</g>
<!-- Node1&#45;&gt;Node2 -->
<g id="edge1" class="edge">
<title>Node1&#45;&gt;Node2</title>
<path fill="none" stroke="midnightblue" d="M147.15,-36.48C155.56,-37.35 164.2,-38.24 172.76,-39.12"/>
<polygon fill="midnightblue" stroke="midnightblue" points="172.46,-42.61 182.77,-40.15 173.18,-35.64 172.46,-42.61"/>
</g>
<!-- Node3 -->
<g id="node3" class="node">
<title>Node3</title>
<g id="a_node3"><a xlink:href="io_8h.html#a61850e757fea41eb461a930936c34401" target="_top" xlink:title="Helper function to trim leading/trailing whitespace from a string.">
<polygon fill="none" stroke="black" points="212.5,-0.5 212.5,-19.5 307.5,-19.5 307.5,-0.5 212.5,-0.5"/>
<text text-anchor="middle" x="260" y="-7.5" font-family="Helvetica,sans-Serif" font-size="10.00">TrimWhitespace</text>
</a>
</g>
</g>
<!-- Node1&#45;&gt;Node3 -->
<g id="edge2" class="edge">
<title>Node1&#45;&gt;Node3</title>
<path fill="none" stroke="midnightblue" d="M147.15,-21.52C165.53,-19.63 185,-17.62 202.44,-15.82"/>
<polygon fill="midnightblue" stroke="midnightblue" points="202.87,-19.3 212.46,-14.79 202.16,-12.34 202.87,-19.3"/>
</g>
</g>
</svg>
