<?xml version="1.0" encoding="UTF-8" standalone="no"?>
<!DOCTYPE svg PUBLIC "-//W3C//DTD SVG 1.1//EN"
 "http://www.w3.org/Graphics/SVG/1.1/DTD/svg11.dtd">
<!-- Generated by graphviz version 2.43.0 (0)
 -->
<!-- Title: vtk_io.h Pages: 1 -->
<svg width="2894pt" height="812pt"
 viewBox="0.00 0.00 2894.00 812.00" xmlns="http://www.w3.org/2000/svg" xmlns:xlink="http://www.w3.org/1999/xlink">
<g id="graph0" class="graph" transform="scale(1 1) rotate(0) translate(4 808)">
<title>vtk_io.h</title>
<!-- Node1 -->
<g id="node1" class="node">
<title>Node1</title>
<g id="a_node1"><a xlink:title=" ">
<polygon fill="#bfbfbf" stroke="black" points="2782,-784.5 2782,-803.5 2838,-803.5 2838,-784.5 2782,-784.5"/>
<text text-anchor="middle" x="2810" y="-791.5" font-family="Helvetica,sans-Serif" font-size="10.00">vtk_io.h</text>
</a>
</g>
</g>
<!-- Node2 -->
<g id="node2" class="node">
<title>Node2</title>
<g id="a_node2"><a xlink:href="variables_8h.html" target="_top" xlink:title="Main header file for a complex fluid dynamics solver.">
<polygon fill="none" stroke="black" points="2318.5,-56.5 2318.5,-75.5 2389.5,-75.5 2389.5,-56.5 2318.5,-56.5"/>
<text text-anchor="middle" x="2354" y="-63.5" font-family="Helvetica,sans-Serif" font-size="10.00">variables.h</text>
</a>
</g>
</g>
<!-- Node1&#45;&gt;Node2 -->
<g id="edge1" class="edge">
<title>Node1&#45;&gt;Node2</title>
<path fill="none" stroke="midnightblue" d="M2821.54,-784.43C2842.8,-767.57 2886,-727.8 2886,-683 2886,-683 2886,-683 2886,-625 2886,-549.31 2848,-534.69 2848,-459 2848,-459 2848,-459 2848,-233 2848,-160.92 2803.97,-145.23 2740,-112 2681.69,-81.71 2488.64,-71.46 2399.65,-68.29"/>
<polygon fill="midnightblue" stroke="midnightblue" points="2399.7,-64.79 2389.59,-67.95 2399.46,-71.79 2399.7,-64.79"/>
</g>
<!-- Node12 -->
<g id="node12" class="node">
<title>Node12</title>
<g id="a_node12"><a xlink:href="logging_8h.html" target="_top" xlink:title="Logging utilities and macros for PETSc&#45;based applications.">
<polygon fill="none" stroke="black" points="2218,-728.5 2218,-747.5 2280,-747.5 2280,-728.5 2218,-728.5"/>
<text text-anchor="middle" x="2249" y="-735.5" font-family="Helvetica,sans-Serif" font-size="10.00">logging.h</text>
</a>
</g>
</g>
<!-- Node1&#45;&gt;Node12 -->
<g id="edge11" class="edge">
<title>Node1&#45;&gt;Node12</title>
<path fill="none" stroke="midnightblue" d="M2781.8,-790.29C2689.98,-781.45 2399.3,-753.47 2290.58,-743"/>
<polygon fill="midnightblue" stroke="midnightblue" points="2290.62,-739.49 2280.33,-742.02 2289.95,-746.46 2290.62,-739.49"/>
</g>
<!-- Node28 -->
<g id="node28" class="node">
<title>Node28</title>
<g id="a_node28"><a xlink:href="io_8h.html" target="_top" xlink:title="Public interface for data input/output routines.">
<polygon fill="none" stroke="black" points="2062.5,-448.5 2062.5,-467.5 2097.5,-467.5 2097.5,-448.5 2062.5,-448.5"/>
<text text-anchor="middle" x="2080" y="-455.5" font-family="Helvetica,sans-Serif" font-size="10.00">io.h</text>
</a>
</g>
</g>
<!-- Node1&#45;&gt;Node28 -->
<g id="edge148" class="edge">
<title>Node1&#45;&gt;Node28</title>
<path fill="none" stroke="midnightblue" d="M2800.99,-784.31C2771.29,-756.11 2672.84,-666.05 2576,-616 2408.56,-529.45 2184.51,-479.68 2107.41,-464.24"/>
<polygon fill="midnightblue" stroke="midnightblue" points="2108.01,-460.79 2097.53,-462.29 2106.66,-467.66 2108.01,-460.79"/>
</g>
<!-- Node3 -->
<g id="node3" class="node">
<title>Node3</title>
<g id="a_node3"><a xlink:title=" ">
<polygon fill="none" stroke="#bfbfbf" points="2179.5,-0.5 2179.5,-19.5 2248.5,-19.5 2248.5,-0.5 2179.5,-0.5"/>
<text text-anchor="middle" x="2214" y="-7.5" font-family="Helvetica,sans-Serif" font-size="10.00">petscvec.h</text>
</a>
</g>
</g>
<!-- Node2&#45;&gt;Node3 -->
<g id="edge2" class="edge">
<title>Node2&#45;&gt;Node3</title>
<path fill="none" stroke="midnightblue" d="M2331.82,-56.44C2308.57,-47.48 2271.85,-33.31 2245.58,-23.18"/>
<polygon fill="midnightblue" stroke="midnightblue" points="2246.67,-19.85 2236.08,-19.52 2244.15,-26.38 2246.67,-19.85"/>
</g>
<!-- Node4 -->
<g id="node4" class="node">
<title>Node4</title>
<g id="a_node4"><a xlink:title=" ">
<polygon fill="none" stroke="#bfbfbf" points="2267,-0.5 2267,-19.5 2347,-19.5 2347,-0.5 2267,-0.5"/>
<text text-anchor="middle" x="2307" y="-7.5" font-family="Helvetica,sans-Serif" font-size="10.00">petscdmda.h</text>
</a>
</g>
</g>
<!-- Node2&#45;&gt;Node4 -->
<g id="edge3" class="edge">
<title>Node2&#45;&gt;Node4</title>
<path fill="none" stroke="midnightblue" d="M2346.24,-56.08C2339.46,-48.3 2329.46,-36.8 2321.24,-27.37"/>
<polygon fill="midnightblue" stroke="midnightblue" points="2323.82,-25 2314.62,-19.75 2318.54,-29.59 2323.82,-25"/>
</g>
<!-- Node5 -->
<g id="node5" class="node">
<title>Node5</title>
<g id="a_node5"><a xlink:title=" ">
<polygon fill="none" stroke="#bfbfbf" points="2365.5,-0.5 2365.5,-19.5 2434.5,-19.5 2434.5,-0.5 2365.5,-0.5"/>
<text text-anchor="middle" x="2400" y="-7.5" font-family="Helvetica,sans-Serif" font-size="10.00">petscksp.h</text>
</a>
</g>
</g>
<!-- Node2&#45;&gt;Node5 -->
<g id="edge4" class="edge">
<title>Node2&#45;&gt;Node5</title>
<path fill="none" stroke="midnightblue" d="M2361.6,-56.08C2368.23,-48.3 2378.02,-36.8 2386.06,-27.37"/>
<polygon fill="midnightblue" stroke="midnightblue" points="2388.73,-29.63 2392.55,-19.75 2383.4,-25.09 2388.73,-29.63"/>
</g>
<!-- Node6 -->
<g id="node6" class="node">
<title>Node6</title>
<g id="a_node6"><a xlink:title=" ">
<polygon fill="none" stroke="#bfbfbf" points="2453,-0.5 2453,-19.5 2527,-19.5 2527,-0.5 2453,-0.5"/>
<text text-anchor="middle" x="2490" y="-7.5" font-family="Helvetica,sans-Serif" font-size="10.00">petscsnes.h</text>
</a>
</g>
</g>
<!-- Node2&#45;&gt;Node6 -->
<g id="edge5" class="edge">
<title>Node2&#45;&gt;Node6</title>
<path fill="none" stroke="midnightblue" d="M2375.55,-56.44C2398.03,-47.52 2433.49,-33.44 2458.98,-23.32"/>
<polygon fill="midnightblue" stroke="midnightblue" points="2460.55,-26.46 2468.55,-19.52 2457.97,-19.95 2460.55,-26.46"/>
</g>
<!-- Node7 -->
<g id="node7" class="node">
<title>Node7</title>
<g id="a_node7"><a xlink:title=" ">
<polygon fill="none" stroke="#bfbfbf" points="310.5,-0.5 310.5,-19.5 411.5,-19.5 411.5,-0.5 310.5,-0.5"/>
<text text-anchor="middle" x="361" y="-7.5" font-family="Helvetica,sans-Serif" font-size="10.00">petscdmswarm.h</text>
</a>
</g>
</g>
<!-- Node2&#45;&gt;Node7 -->
<g id="edge6" class="edge">
<title>Node2&#45;&gt;Node7</title>
<path fill="none" stroke="midnightblue" d="M2318.14,-64.03C2080.02,-57.58 727.57,-20.93 422.24,-12.66"/>
<polygon fill="midnightblue" stroke="midnightblue" points="421.92,-9.15 411.83,-12.38 421.73,-16.15 421.92,-9.15"/>
</g>
<!-- Node8 -->
<g id="node8" class="node">
<title>Node8</title>
<g id="a_node8"><a xlink:title=" ">
<polygon fill="none" stroke="#bfbfbf" points="2545,-0.5 2545,-19.5 2595,-19.5 2595,-0.5 2545,-0.5"/>
<text text-anchor="middle" x="2570" y="-7.5" font-family="Helvetica,sans-Serif" font-size="10.00">stdio.h</text>
</a>
</g>
</g>
<!-- Node2&#45;&gt;Node8 -->
<g id="edge7" class="edge">
<title>Node2&#45;&gt;Node8</title>
<path fill="none" stroke="midnightblue" d="M2389.27,-56.46C2423.96,-48.02 2478.68,-34.6 2534.98,-20.23"/>
<polygon fill="midnightblue" stroke="midnightblue" points="2535.94,-23.6 2544.76,-17.73 2534.21,-16.82 2535.94,-23.6"/>
</g>
<!-- Node9 -->
<g id="node9" class="node">
<title>Node9</title>
<g id="a_node9"><a xlink:title=" ">
<polygon fill="none" stroke="#bfbfbf" points="1131.5,-0.5 1131.5,-19.5 1184.5,-19.5 1184.5,-0.5 1131.5,-0.5"/>
<text text-anchor="middle" x="1158" y="-7.5" font-family="Helvetica,sans-Serif" font-size="10.00">stdlib.h</text>
</a>
</g>
</g>
<!-- Node2&#45;&gt;Node9 -->
<g id="edge8" class="edge">
<title>Node2&#45;&gt;Node9</title>
<path fill="none" stroke="midnightblue" d="M2318.21,-63.38C2142.52,-55.45 1372.76,-20.7 1194.81,-12.66"/>
<polygon fill="midnightblue" stroke="midnightblue" points="1194.8,-9.16 1184.65,-12.2 1194.49,-16.15 1194.8,-9.16"/>
</g>
<!-- Node10 -->
<g id="node10" class="node">
<title>Node10</title>
<g id="a_node10"><a xlink:title=" ">
<polygon fill="none" stroke="#bfbfbf" points="2755.5,-0.5 2755.5,-19.5 2808.5,-19.5 2808.5,-0.5 2755.5,-0.5"/>
<text text-anchor="middle" x="2782" y="-7.5" font-family="Helvetica,sans-Serif" font-size="10.00">string.h</text>
</a>
</g>
</g>
<!-- Node2&#45;&gt;Node10 -->
<g id="edge9" class="edge">
<title>Node2&#45;&gt;Node10</title>
<path fill="none" stroke="midnightblue" d="M2389.75,-60.49C2470.03,-50.36 2663.89,-25.9 2745.17,-15.65"/>
<polygon fill="midnightblue" stroke="midnightblue" points="2745.93,-19.08 2755.42,-14.35 2745.06,-12.13 2745.93,-19.08"/>
</g>
<!-- Node11 -->
<g id="node11" class="node">
<title>Node11</title>
<g id="a_node11"><a xlink:title=" ">
<polygon fill="none" stroke="#bfbfbf" points="2105,-0.5 2105,-19.5 2161,-19.5 2161,-0.5 2105,-0.5"/>
<text text-anchor="middle" x="2133" y="-7.5" font-family="Helvetica,sans-Serif" font-size="10.00">unistd.h</text>
</a>
</g>
</g>
<!-- Node2&#45;&gt;Node11 -->
<g id="edge10" class="edge">
<title>Node2&#45;&gt;Node11</title>
<path fill="none" stroke="midnightblue" d="M2318.98,-56.44C2278.62,-46.58 2212.51,-30.43 2170.94,-20.27"/>
<polygon fill="midnightblue" stroke="midnightblue" points="2171.74,-16.86 2161.19,-17.89 2170.08,-23.66 2171.74,-16.86"/>
</g>
<!-- Node12&#45;&gt;Node2 -->
<g id="edge17" class="edge">
<title>Node12&#45;&gt;Node2</title>
<path fill="none" stroke="midnightblue" d="M2280.24,-736.88C2367.26,-736.05 2610.54,-730.28 2679,-692 2738.2,-658.9 2772,-638.83 2772,-571 2772,-571 2772,-571 2772,-177 2772,-135.83 2743.03,-130 2706,-112 2653,-86.24 2482.62,-73.85 2399.91,-69.23"/>
<polygon fill="midnightblue" stroke="midnightblue" points="2399.97,-65.73 2389.79,-68.68 2399.59,-72.72 2399.97,-65.73"/>
</g>
<!-- Node12&#45;&gt;Node9 -->
<g id="edge13" class="edge">
<title>Node12&#45;&gt;Node9</title>
<path fill="none" stroke="midnightblue" d="M2280.08,-736.42C2370.43,-734.34 2631.48,-725.52 2709,-692 2773.3,-664.19 2810,-641.05 2810,-571 2810,-571 2810,-571 2810,-233 2810,-34.11 2596.9,-75.76 2399,-56 1925.01,-8.68 1344.78,-9.52 1194.77,-10.64"/>
<polygon fill="midnightblue" stroke="midnightblue" points="1194.69,-7.14 1184.72,-10.72 1194.75,-14.14 1194.69,-7.14"/>
</g>
<!-- Node12&#45;&gt;Node10 -->
<g id="edge14" class="edge">
<title>Node12&#45;&gt;Node10</title>
<path fill="none" stroke="midnightblue" d="M2280.29,-735.94C2388.44,-732.07 2742.29,-717.56 2786,-692 2850.05,-654.55 2886,-488.88 2886,-459 2886,-459 2886,-459 2886,-121 2886,-90.2 2881.98,-79.43 2862,-56 2849.84,-41.74 2831.97,-31.09 2816.21,-23.73"/>
<polygon fill="midnightblue" stroke="midnightblue" points="2817.29,-20.39 2806.73,-19.58 2814.48,-26.8 2817.29,-20.39"/>
</g>
<!-- Node13 -->
<g id="node13" class="node">
<title>Node13</title>
<g id="a_node13"><a xlink:title=" ">
<polygon fill="none" stroke="#bfbfbf" points="376,-168.5 376,-187.5 428,-187.5 428,-168.5 376,-168.5"/>
<text text-anchor="middle" x="402" y="-175.5" font-family="Helvetica,sans-Serif" font-size="10.00">petsc.h</text>
</a>
</g>
</g>
<!-- Node12&#45;&gt;Node13 -->
<g id="edge12" class="edge">
<title>Node12&#45;&gt;Node13</title>
<path fill="none" stroke="midnightblue" d="M2217.97,-736.89C1960.97,-735.93 193.25,-727.99 153,-692 -12.2,-544.29 301.87,-262.67 383.38,-194.26"/>
<polygon fill="midnightblue" stroke="midnightblue" points="385.88,-196.73 391.33,-187.64 381.4,-191.35 385.88,-196.73"/>
</g>
<!-- Node14 -->
<g id="node14" class="node">
<title>Node14</title>
<g id="a_node14"><a xlink:title=" ">
<polygon fill="none" stroke="#bfbfbf" points="1971,-112.5 1971,-131.5 2039,-131.5 2039,-112.5 1971,-112.5"/>
<text text-anchor="middle" x="2005" y="-119.5" font-family="Helvetica,sans-Serif" font-size="10.00">petscsys.h</text>
</a>
</g>
</g>
<!-- Node12&#45;&gt;Node14 -->
<g id="edge15" class="edge">
<title>Node12&#45;&gt;Node14</title>
<path fill="none" stroke="midnightblue" d="M2280.18,-734.91C2372.48,-727.88 2638,-701.22 2638,-627 2638,-627 2638,-627 2638,-569 2638,-337.05 2516.53,-260.89 2304,-168 2219.37,-131.01 2109.84,-123.61 2049.61,-122.6"/>
<polygon fill="midnightblue" stroke="midnightblue" points="2049.35,-119.09 2039.31,-122.48 2049.27,-126.09 2049.35,-119.09"/>
</g>
<!-- Node15 -->
<g id="node15" class="node">
<title>Node15</title>
<g id="a_node15"><a xlink:title=" ">
<polygon fill="none" stroke="#bfbfbf" points="182.5,-672.5 182.5,-691.5 235.5,-691.5 235.5,-672.5 182.5,-672.5"/>
<text text-anchor="middle" x="209" y="-679.5" font-family="Helvetica,sans-Serif" font-size="10.00">ctype.h</text>
</a>
</g>
</g>
<!-- Node12&#45;&gt;Node15 -->
<g id="edge16" class="edge">
<title>Node12&#45;&gt;Node15</title>
<path fill="none" stroke="midnightblue" d="M2217.98,-737.12C1996.64,-737.89 654.34,-740.47 250,-692 248.7,-691.84 247.38,-691.67 246.04,-691.47"/>
<polygon fill="midnightblue" stroke="midnightblue" points="246.24,-687.95 235.78,-689.66 245.02,-694.84 246.24,-687.95"/>
</g>
<!-- Node16 -->
<g id="node16" class="node">
<title>Node16</title>
<g id="a_node16"><a xlink:href="AnalyticalSolution_8h.html" target="_top" xlink:title=" ">
<polygon fill="none" stroke="black" points="1396,-672.5 1396,-691.5 1510,-691.5 1510,-672.5 1396,-672.5"/>
<text text-anchor="middle" x="1453" y="-679.5" font-family="Helvetica,sans-Serif" font-size="10.00">AnalyticalSolution.h</text>
</a>
</g>
</g>
<!-- Node12&#45;&gt;Node16 -->
<g id="edge18" class="edge">
<title>Node12&#45;&gt;Node16</title>
<path fill="none" stroke="midnightblue" d="M2217.96,-735.08C2100.88,-727.47 1685.19,-699.3 1520.67,-687.87"/>
<polygon fill="midnightblue" stroke="midnightblue" points="1520.42,-684.34 1510.2,-687.14 1519.93,-691.32 1520.42,-684.34"/>
</g>
<!-- Node29 -->
<g id="node29" class="node">
<title>Node29</title>
<g id="a_node29"><a xlink:href="Boundaries_8h.html" target="_top" xlink:title=" ">
<polygon fill="none" stroke="black" points="1569,-392.5 1569,-411.5 1649,-411.5 1649,-392.5 1569,-392.5"/>
<text text-anchor="middle" x="1609" y="-399.5" font-family="Helvetica,sans-Serif" font-size="10.00">Boundaries.h</text>
</a>
</g>
</g>
<!-- Node12&#45;&gt;Node29 -->
<g id="edge147" class="edge">
<title>Node12&#45;&gt;Node29</title>
<path fill="none" stroke="midnightblue" d="M2235.53,-728.36C2196.26,-699.13 2080.1,-603.31 1966,-560 1867.21,-522.5 1826.2,-569.85 1731,-524 1679.58,-499.23 1634.28,-447.38 1616.32,-420.31"/>
<polygon fill="midnightblue" stroke="midnightblue" points="1619.17,-418.26 1610.97,-411.55 1613.19,-421.91 1619.17,-418.26"/>
</g>
<!-- Node16&#45;&gt;Node2 -->
<g id="edge26" class="edge">
<title>Node16&#45;&gt;Node2</title>
<path fill="none" stroke="midnightblue" d="M1510.22,-679.3C1658.94,-674.59 2055.03,-660.1 2184,-636 2264.69,-620.92 2286.64,-616.84 2360,-580 2547.73,-485.73 2734,-501.07 2734,-291 2734,-291 2734,-291 2734,-177 2734,-137.68 2708.83,-130.24 2674,-112 2627.31,-87.54 2476.75,-74.74 2399.96,-69.67"/>
<polygon fill="midnightblue" stroke="midnightblue" points="2399.84,-66.15 2389.63,-69 2399.39,-73.14 2399.84,-66.15"/>
</g>
<!-- Node16&#45;&gt;Node7 -->
<g id="edge20" class="edge">
<title>Node16&#45;&gt;Node7</title>
<path fill="none" stroke="midnightblue" d="M1395.69,-681.15C1171.63,-681.41 362,-679.32 256,-636 113.59,-577.8 0,-556.85 0,-403 0,-403 0,-403 0,-121 0,-81.08 26.57,-74.41 62,-56 102.32,-35.05 224.83,-21.86 299.94,-15.51"/>
<polygon fill="midnightblue" stroke="midnightblue" points="300.53,-18.97 310.21,-14.66 299.95,-12 300.53,-18.97"/>
</g>
<!-- Node16&#45;&gt;Node9 -->
<g id="edge21" class="edge">
<title>Node16&#45;&gt;Node9</title>
<path fill="none" stroke="midnightblue" d="M1395.75,-681.05C1176.61,-680.95 398.22,-677.63 296,-636 215.73,-603.31 216.58,-552.43 197,-468 177.96,-385.89 136.88,-356.62 172,-280 240.45,-130.67 308.58,-102.95 466,-56 590.43,-18.89 996.5,-12.37 1121.23,-11.24"/>
<polygon fill="midnightblue" stroke="midnightblue" points="1121.43,-14.73 1131.4,-11.15 1121.37,-7.73 1121.43,-14.73"/>
</g>
<!-- Node16&#45;&gt;Node12 -->
<g id="edge143" class="edge">
<title>Node16&#45;&gt;Node12</title>
<path fill="none" stroke="midnightblue" d="M1510.26,-686.64C1662.68,-696.69 2075.29,-724.69 2207.63,-733.97"/>
<polygon fill="midnightblue" stroke="midnightblue" points="2207.53,-737.47 2217.75,-734.68 2208.02,-730.49 2207.53,-737.47"/>
</g>
<!-- Node17 -->
<g id="node17" class="node">
<title>Node17</title>
<g id="a_node17"><a xlink:title=" ">
<polygon fill="none" stroke="#bfbfbf" points="976.5,-112.5 976.5,-131.5 1037.5,-131.5 1037.5,-112.5 976.5,-112.5"/>
<text text-anchor="middle" x="1007" y="-119.5" font-family="Helvetica,sans-Serif" font-size="10.00">petscpf.h</text>
</a>
</g>
</g>
<!-- Node16&#45;&gt;Node17 -->
<g id="edge19" class="edge">
<title>Node16&#45;&gt;Node17</title>
<path fill="none" stroke="midnightblue" d="M1395.96,-681.26C1289.52,-680.73 1053.87,-674.8 860,-636 692.01,-602.38 494,-686.33 494,-515 494,-515 494,-515 494,-457 494,-345.83 894.74,-382.73 969,-300 989.87,-276.75 1001.25,-182.83 1005.28,-142.05"/>
<polygon fill="midnightblue" stroke="midnightblue" points="1008.79,-142.14 1006.25,-131.86 1001.82,-141.48 1008.79,-142.14"/>
</g>
<!-- Node18 -->
<g id="node18" class="node">
<title>Node18</title>
<g id="a_node18"><a xlink:title=" ">
<polygon fill="none" stroke="#bfbfbf" points="1268,-112.5 1268,-131.5 1316,-131.5 1316,-112.5 1268,-112.5"/>
<text text-anchor="middle" x="1292" y="-119.5" font-family="Helvetica,sans-Serif" font-size="10.00">time.h</text>
</a>
</g>
</g>
<!-- Node16&#45;&gt;Node18 -->
<g id="edge22" class="edge">
<title>Node16&#45;&gt;Node18</title>
<path fill="none" stroke="midnightblue" d="M1395.61,-678.96C1279.03,-674.35 1018.31,-661.47 933,-636 882.7,-620.98 855.92,-625.07 829,-580 753.71,-453.95 1152.82,-190.44 1187,-168 1209.18,-153.43 1236.86,-141.8 1258.23,-134.01"/>
<polygon fill="midnightblue" stroke="midnightblue" points="1259.6,-137.24 1267.86,-130.61 1257.27,-130.64 1259.6,-137.24"/>
</g>
<!-- Node19 -->
<g id="node19" class="node">
<title>Node19</title>
<g id="a_node19"><a xlink:title=" ">
<polygon fill="none" stroke="#bfbfbf" points="495.5,-112.5 495.5,-131.5 546.5,-131.5 546.5,-112.5 495.5,-112.5"/>
<text text-anchor="middle" x="521" y="-119.5" font-family="Helvetica,sans-Serif" font-size="10.00">math.h</text>
</a>
</g>
</g>
<!-- Node16&#45;&gt;Node19 -->
<g id="edge23" class="edge">
<title>Node16&#45;&gt;Node19</title>
<path fill="none" stroke="midnightblue" d="M1395.7,-680.75C1206.24,-679.57 601.19,-672.94 410,-636 336.44,-621.79 301.9,-634.98 251,-580 207.24,-532.73 184.41,-363.86 176,-300 171.07,-262.56 184.89,-248.06 214,-224 295.56,-156.59 423.56,-133.69 485.32,-126.3"/>
<polygon fill="midnightblue" stroke="midnightblue" points="485.8,-129.77 495.35,-125.17 485.02,-122.81 485.8,-129.77"/>
</g>
<!-- Node20 -->
<g id="node20" class="node">
<title>Node20</title>
<g id="a_node20"><a xlink:title=" ">
<polygon fill="none" stroke="#bfbfbf" points="1727,-112.5 1727,-131.5 1801,-131.5 1801,-112.5 1727,-112.5"/>
<text text-anchor="middle" x="1764" y="-119.5" font-family="Helvetica,sans-Serif" font-size="10.00">petsctime.h</text>
</a>
</g>
</g>
<!-- Node16&#45;&gt;Node20 -->
<g id="edge24" class="edge">
<title>Node16&#45;&gt;Node20</title>
<path fill="none" stroke="midnightblue" d="M1510.22,-680.51C1685.31,-677.5 2202,-656.6 2202,-515 2202,-515 2202,-515 2202,-457 2202,-280.92 2093.17,-236.61 1931,-168 1892.03,-151.51 1845.36,-139.54 1811.27,-132.11"/>
<polygon fill="midnightblue" stroke="midnightblue" points="1811.63,-128.61 1801.12,-129.95 1810.18,-135.45 1811.63,-128.61"/>
</g>
<!-- Node21 -->
<g id="node21" class="node">
<title>Node21</title>
<g id="a_node21"><a xlink:title=" ">
<polygon fill="none" stroke="#bfbfbf" points="1819.5,-112.5 1819.5,-131.5 1938.5,-131.5 1938.5,-112.5 1819.5,-112.5"/>
<text text-anchor="middle" x="1879" y="-119.5" font-family="Helvetica,sans-Serif" font-size="10.00">petscdmcomposite.h</text>
</a>
</g>
</g>
<!-- Node16&#45;&gt;Node21 -->
<g id="edge25" class="edge">
<title>Node16&#45;&gt;Node21</title>
<path fill="none" stroke="midnightblue" d="M1510.03,-681.19C1616.44,-680.55 1852.05,-674.44 2046,-636 2203.31,-604.82 2256.59,-614.47 2389,-524 2415.59,-505.83 2424.14,-498.32 2435,-468 2477.18,-350.21 2363.39,-254.06 2199,-168 2188.01,-162.25 2039.46,-142.96 1948.67,-131.59"/>
<polygon fill="midnightblue" stroke="midnightblue" points="1949.07,-128.11 1938.72,-130.35 1948.2,-135.06 1949.07,-128.11"/>
</g>
<!-- Node22 -->
<g id="node22" class="node">
<title>Node22</title>
<g id="a_node22"><a xlink:href="ParticleSwarm_8h.html" target="_top" xlink:title="Header file for Particle Motion and migration related functions.">
<polygon fill="none" stroke="black" points="838,-560.5 838,-579.5 934,-579.5 934,-560.5 838,-560.5"/>
<text text-anchor="middle" x="886" y="-567.5" font-family="Helvetica,sans-Serif" font-size="10.00">ParticleSwarm.h</text>
</a>
</g>
</g>
<!-- Node16&#45;&gt;Node22 -->
<g id="edge27" class="edge">
<title>Node16&#45;&gt;Node22</title>
<path fill="none" stroke="midnightblue" d="M1395.64,-679.45C1285.74,-675.85 1049.68,-664.91 974,-636 945.59,-625.15 918.3,-602.45 901.84,-586.96"/>
<polygon fill="midnightblue" stroke="midnightblue" points="903.88,-584.07 894.27,-579.62 899.01,-589.1 903.88,-584.07"/>
</g>
<!-- Node24 -->
<g id="node24" class="node">
<title>Node24</title>
<g id="a_node24"><a xlink:href="walkingsearch_8h.html" target="_top" xlink:title="Header file for particle location functions using the walking search algorithm.">
<polygon fill="none" stroke="black" points="636,-224.5 636,-243.5 732,-243.5 732,-224.5 636,-224.5"/>
<text text-anchor="middle" x="684" y="-231.5" font-family="Helvetica,sans-Serif" font-size="10.00">walkingsearch.h</text>
</a>
</g>
</g>
<!-- Node16&#45;&gt;Node24 -->
<g id="edge141" class="edge">
<title>Node16&#45;&gt;Node24</title>
<path fill="none" stroke="midnightblue" d="M1395.71,-680.6C1175.78,-678.43 394.47,-664.78 328,-580 297.5,-541.1 155.93,-713.25 366,-392 424.81,-302.06 551.25,-261.78 625.76,-245.25"/>
<polygon fill="midnightblue" stroke="midnightblue" points="626.87,-248.59 635.92,-243.08 625.41,-241.75 626.87,-248.59"/>
</g>
<!-- Node25 -->
<g id="node25" class="node">
<title>Node25</title>
<g id="a_node25"><a xlink:href="setup_8h.html" target="_top" xlink:title=" ">
<polygon fill="none" stroke="black" points="1620.5,-168.5 1620.5,-187.5 1673.5,-187.5 1673.5,-168.5 1620.5,-168.5"/>
<text text-anchor="middle" x="1647" y="-175.5" font-family="Helvetica,sans-Serif" font-size="10.00">setup.h</text>
</a>
</g>
</g>
<!-- Node16&#45;&gt;Node25 -->
<g id="edge145" class="edge">
<title>Node16&#45;&gt;Node25</title>
<path fill="none" stroke="midnightblue" d="M1450.1,-672.15C1451.44,-659.62 1459.71,-636.02 1467,-616 1503.4,-516.1 1512.23,-491 1551,-392 1579.49,-319.24 1615.24,-233.31 1634.53,-196.82"/>
<polygon fill="midnightblue" stroke="midnightblue" points="1637.7,-198.33 1639.52,-187.89 1631.59,-194.92 1637.7,-198.33"/>
</g>
<!-- Node27 -->
<g id="node27" class="node">
<title>Node27</title>
<g id="a_node27"><a xlink:href="grid_8h.html" target="_top" xlink:title="Public interface for grid, solver, and metric setup routines.">
<polygon fill="none" stroke="black" points="2332,-112.5 2332,-131.5 2376,-131.5 2376,-112.5 2332,-112.5"/>
<text text-anchor="middle" x="2354" y="-119.5" font-family="Helvetica,sans-Serif" font-size="10.00">grid.h</text>
</a>
</g>
</g>
<!-- Node16&#45;&gt;Node27 -->
<g id="edge142" class="edge">
<title>Node16&#45;&gt;Node27</title>
<path fill="none" stroke="midnightblue" d="M1510.19,-680.84C1625.56,-679.7 1894.08,-672.9 2116,-636 2210.86,-620.23 2236.77,-618.26 2325,-580 2368.22,-561.26 2381.44,-557.07 2415,-524 2436.08,-503.23 2441.41,-495.99 2451,-468 2459.1,-444.36 2454.89,-436.96 2456,-412 2460.87,-302.68 2491.45,-253.38 2423,-168 2412.31,-154.67 2396.58,-143.99 2382.83,-136.38"/>
<polygon fill="midnightblue" stroke="midnightblue" points="2384.2,-133.14 2373.72,-131.61 2380.96,-139.35 2384.2,-133.14"/>
</g>
<!-- Node16&#45;&gt;Node28 -->
<g id="edge144" class="edge">
<title>Node16&#45;&gt;Node28</title>
<path fill="none" stroke="midnightblue" d="M1510.02,-674.85C1628.44,-661.29 1896.51,-626.34 1975,-580 2018.94,-554.06 2053.83,-503.15 2070.07,-476.39"/>
<polygon fill="midnightblue" stroke="midnightblue" points="2073.12,-478.1 2075.19,-467.71 2067.1,-474.54 2073.12,-478.1"/>
</g>
<!-- Node30 -->
<g id="node30" class="node">
<title>Node30</title>
<g id="a_node30"><a xlink:href="interpolation_8h.html" target="_top" xlink:title=" ">
<polygon fill="none" stroke="black" points="1616,-616.5 1616,-635.5 1704,-635.5 1704,-616.5 1616,-616.5"/>
<text text-anchor="middle" x="1660" y="-623.5" font-family="Helvetica,sans-Serif" font-size="10.00">interpolation.h</text>
</a>
</g>
</g>
<!-- Node16&#45;&gt;Node30 -->
<g id="edge146" class="edge">
<title>Node16&#45;&gt;Node30</title>
<path fill="none" stroke="midnightblue" d="M1485.8,-672.44C1521.38,-663.16 1578.31,-648.31 1617.35,-638.13"/>
<polygon fill="midnightblue" stroke="midnightblue" points="1618.56,-641.43 1627.35,-635.52 1616.79,-634.65 1618.56,-641.43"/>
</g>
<!-- Node22&#45;&gt;Node2 -->
<g id="edge32" class="edge">
<title>Node22&#45;&gt;Node2</title>
<path fill="none" stroke="midnightblue" d="M934.12,-569.49C1103.59,-569.43 1685.29,-553.96 2107,-356 2250.64,-288.57 2320.57,-277.01 2385,-132 2392.41,-115.32 2381.28,-96.52 2370.35,-83.45"/>
<polygon fill="midnightblue" stroke="midnightblue" points="2372.7,-80.83 2363.4,-75.76 2367.51,-85.52 2372.7,-80.83"/>
</g>
<!-- Node22&#45;&gt;Node7 -->
<g id="edge29" class="edge">
<title>Node22&#45;&gt;Node7</title>
<path fill="none" stroke="midnightblue" d="M845.38,-560.48C808.79,-552.42 753.75,-539.28 707,-524 555.1,-474.35 76,-338.81 76,-179 76,-179 76,-179 76,-121 76,-71.3 121.7,-76.45 167,-56 209.47,-36.83 260.99,-25.37 300.26,-18.82"/>
<polygon fill="midnightblue" stroke="midnightblue" points="300.9,-22.26 310.22,-17.22 299.79,-15.35 300.9,-22.26"/>
</g>
<!-- Node22&#45;&gt;Node12 -->
<g id="edge33" class="edge">
<title>Node22&#45;&gt;Node12</title>
<path fill="none" stroke="midnightblue" d="M889.42,-579.5C895.68,-593.87 910.46,-622.68 933,-636 1108.03,-739.43 1184.47,-674.24 1387,-692 1701.77,-719.59 2082.8,-732.26 2207.4,-735.87"/>
<polygon fill="midnightblue" stroke="midnightblue" points="2207.54,-739.37 2217.63,-736.16 2207.74,-732.38 2207.54,-739.37"/>
</g>
<!-- Node22&#45;&gt;Node13 -->
<g id="edge28" class="edge">
<title>Node22&#45;&gt;Node13</title>
<path fill="none" stroke="midnightblue" d="M869.75,-560.46C820.88,-534.8 670.89,-456.17 546,-392 514.53,-375.83 502.83,-377.85 475,-356 429.2,-320.03 419.13,-300.96 407,-244 403.72,-228.59 402.53,-210.72 402.12,-197.62"/>
<polygon fill="midnightblue" stroke="midnightblue" points="405.62,-197.45 401.94,-187.52 398.62,-197.58 405.62,-197.45"/>
</g>
<!-- Node22&#45;&gt;Node19 -->
<g id="edge31" class="edge">
<title>Node22&#45;&gt;Node19</title>
<path fill="none" stroke="midnightblue" d="M857.83,-560.42C831.58,-552.12 791.56,-538.67 758,-524 614.41,-461.24 560.97,-464.6 448,-356 382.41,-292.95 312.43,-240.8 367,-168 381.21,-149.05 444.52,-135.41 485.41,-128.4"/>
<polygon fill="midnightblue" stroke="midnightblue" points="485.99,-131.85 495.28,-126.76 484.84,-124.95 485.99,-131.85"/>
</g>
<!-- Node23 -->
<g id="node23" class="node">
<title>Node23</title>
<g id="a_node23"><a xlink:title=" ">
<polygon fill="none" stroke="#bfbfbf" points="674,-168.5 674,-187.5 736,-187.5 736,-168.5 674,-168.5"/>
<text text-anchor="middle" x="705" y="-175.5" font-family="Helvetica,sans-Serif" font-size="10.00">stdbool.h</text>
</a>
</g>
</g>
<!-- Node22&#45;&gt;Node23 -->
<g id="edge30" class="edge">
<title>Node22&#45;&gt;Node23</title>
<path fill="none" stroke="midnightblue" d="M875.12,-560.44C832.73,-526.26 678.38,-394.18 627,-244 624.12,-235.59 622.55,-231.7 627,-224 635.68,-208.98 651.49,-198.52 666.62,-191.5"/>
<polygon fill="midnightblue" stroke="midnightblue" points="668.05,-194.69 675.88,-187.56 665.31,-188.25 668.05,-194.69"/>
</g>
<!-- Node22&#45;&gt;Node24 -->
<g id="edge34" class="edge">
<title>Node22&#45;&gt;Node24</title>
<path fill="none" stroke="midnightblue" d="M880.8,-560.41C854.01,-516.11 731.32,-313.24 694.48,-252.33"/>
<polygon fill="midnightblue" stroke="midnightblue" points="697.33,-250.28 689.16,-243.54 691.34,-253.9 697.33,-250.28"/>
</g>
<!-- Node22&#45;&gt;Node28 -->
<g id="edge140" class="edge">
<title>Node22&#45;&gt;Node28</title>
<path fill="none" stroke="midnightblue" d="M934.21,-569.1C1099.86,-569.08 1644.77,-565.75 1814,-524 1834.46,-518.95 1836.93,-510.45 1857,-504 1939.24,-477.58 1963.9,-487.71 2048,-468 2049.47,-467.65 2050.98,-467.28 2052.5,-466.9"/>
<polygon fill="midnightblue" stroke="midnightblue" points="2053.71,-470.2 2062.47,-464.23 2051.9,-463.44 2053.71,-470.2"/>
</g>
<!-- Node35 -->
<g id="node35" class="node">
<title>Node35</title>
<g id="a_node35"><a xlink:href="Metric_8h.html" target="_top" xlink:title=" ">
<polygon fill="none" stroke="black" points="1749,-504.5 1749,-523.5 1805,-523.5 1805,-504.5 1749,-504.5"/>
<text text-anchor="middle" x="1777" y="-511.5" font-family="Helvetica,sans-Serif" font-size="10.00">Metric.h</text>
</a>
</g>
</g>
<!-- Node22&#45;&gt;Node35 -->
<g id="edge133" class="edge">
<title>Node22&#45;&gt;Node35</title>
<path fill="none" stroke="midnightblue" d="M934.22,-566.08C1092.75,-556.47 1595.83,-525.98 1738.78,-517.32"/>
<polygon fill="midnightblue" stroke="midnightblue" points="1739.05,-520.81 1748.82,-516.71 1738.63,-513.82 1739.05,-520.81"/>
</g>
<!-- Node24&#45;&gt;Node2 -->
<g id="edge38" class="edge">
<title>Node24&#45;&gt;Node2</title>
<path fill="none" stroke="midnightblue" d="M698.73,-224.37C739.7,-200.9 859.15,-136.07 968,-112 1101.06,-82.58 2082.84,-70 2308.05,-67.49"/>
<polygon fill="midnightblue" stroke="midnightblue" points="2308.24,-70.98 2318.2,-67.37 2308.16,-63.98 2308.24,-70.98"/>
</g>
<!-- Node24&#45;&gt;Node12 -->
<g id="edge39" class="edge">
<title>Node24&#45;&gt;Node12</title>
<path fill="none" stroke="midnightblue" d="M635.67,-239.24C590.89,-244.52 523.21,-255.95 469,-280 294.73,-357.31 152,-378.35 152,-569 152,-627 152,-627 152,-627 152,-657.36 148.65,-673.87 173,-692 215.35,-723.53 1919.93,-735.04 2207.89,-736.77"/>
<polygon fill="midnightblue" stroke="midnightblue" points="2207.89,-740.27 2217.91,-736.82 2207.93,-733.27 2207.89,-740.27"/>
</g>
<!-- Node24&#45;&gt;Node13 -->
<g id="edge35" class="edge">
<title>Node24&#45;&gt;Node13</title>
<path fill="none" stroke="midnightblue" d="M639.32,-224.44C583.67,-213.79 489.68,-195.79 438.27,-185.95"/>
<polygon fill="midnightblue" stroke="midnightblue" points="438.76,-182.47 428.28,-184.03 437.44,-189.35 438.76,-182.47"/>
</g>
<!-- Node24&#45;&gt;Node19 -->
<g id="edge37" class="edge">
<title>Node24&#45;&gt;Node19</title>
<path fill="none" stroke="midnightblue" d="M671.21,-224.37C643.24,-205.49 576.4,-160.38 542.1,-137.24"/>
<polygon fill="midnightblue" stroke="midnightblue" points="543.98,-134.28 533.73,-131.59 540.06,-140.09 543.98,-134.28"/>
</g>
<!-- Node24&#45;&gt;Node23 -->
<g id="edge36" class="edge">
<title>Node24&#45;&gt;Node23</title>
<path fill="none" stroke="midnightblue" d="M687.47,-224.08C690.31,-216.77 694.43,-206.18 697.96,-197.1"/>
<polygon fill="midnightblue" stroke="midnightblue" points="701.23,-198.34 701.6,-187.75 694.71,-195.8 701.23,-198.34"/>
</g>
<!-- Node24&#45;&gt;Node25 -->
<g id="edge40" class="edge">
<title>Node24&#45;&gt;Node25</title>
<path fill="none" stroke="midnightblue" d="M732.18,-230.12C900.72,-220.39 1461.08,-188.98 1610.29,-180.91"/>
<polygon fill="midnightblue" stroke="midnightblue" points="1610.52,-184.4 1620.32,-180.37 1610.14,-177.41 1610.52,-184.4"/>
</g>
<!-- Node25&#45;&gt;Node2 -->
<g id="edge50" class="edge">
<title>Node25&#45;&gt;Node2</title>
<path fill="none" stroke="midnightblue" d="M1653.26,-168.3C1664.37,-153.65 1689.14,-124.41 1718,-112 1824.21,-66.35 2180.51,-65.23 2308.08,-66.37"/>
<polygon fill="midnightblue" stroke="midnightblue" points="2308.25,-69.87 2318.29,-66.47 2308.32,-62.87 2308.25,-69.87"/>
</g>
<!-- Node25&#45;&gt;Node7 -->
<g id="edge42" class="edge">
<title>Node25&#45;&gt;Node7</title>
<path fill="none" stroke="midnightblue" d="M1632.61,-168.39C1617.5,-159.35 1593.07,-144.7 1572,-132 1557.31,-123.14 1555.31,-117.32 1539,-112 1327.9,-43.17 632.27,-18.54 421.84,-12.56"/>
<polygon fill="midnightblue" stroke="midnightblue" points="421.69,-9.06 411.6,-12.28 421.5,-16.06 421.69,-9.06"/>
</g>
<!-- Node25&#45;&gt;Node9 -->
<g id="edge43" class="edge">
<title>Node25&#45;&gt;Node9</title>
<path fill="none" stroke="midnightblue" d="M1639.02,-168.29C1626.1,-154.65 1599.3,-128.12 1572,-112 1446.98,-38.15 1270.31,-18.17 1194.68,-12.87"/>
<polygon fill="midnightblue" stroke="midnightblue" points="1194.9,-9.38 1184.69,-12.21 1194.44,-16.36 1194.9,-9.38"/>
</g>
<!-- Node25&#45;&gt;Node12 -->
<g id="edge127" class="edge">
<title>Node25&#45;&gt;Node12</title>
<path fill="none" stroke="midnightblue" d="M1673.53,-183.1C1747.6,-195.55 1960.78,-238.15 2107,-336 2237.85,-423.56 2295.91,-461.08 2324,-616 2330.03,-649.24 2340.64,-662.61 2324,-692 2315.65,-706.74 2300.34,-717.18 2285.71,-724.27"/>
<polygon fill="midnightblue" stroke="midnightblue" points="2284,-721.2 2276.28,-728.45 2286.84,-727.6 2284,-721.2"/>
</g>
<!-- Node25&#45;&gt;Node14 -->
<g id="edge47" class="edge">
<title>Node25&#45;&gt;Node14</title>
<path fill="none" stroke="midnightblue" d="M1673.59,-173.1C1726.07,-165.39 1846.68,-147.57 1948,-132 1952.18,-131.36 1956.53,-130.68 1960.88,-130"/>
<polygon fill="midnightblue" stroke="midnightblue" points="1961.61,-133.43 1970.95,-128.42 1960.53,-126.52 1961.61,-133.43"/>
</g>
<!-- Node25&#45;&gt;Node16 -->
<g id="edge130" class="edge">
<title>Node25&#45;&gt;Node16</title>
<path fill="none" stroke="midnightblue" d="M1647,-187.89C1640.02,-217.04 1600.17,-312.4 1569,-392 1530.23,-491 1521.4,-516.1 1485,-616 1479.24,-631.8 1472.88,-649.83 1466.82,-662.88"/>
<polygon fill="midnightblue" stroke="midnightblue" points="1463.52,-661.66 1462.05,-672.15 1469.74,-664.86 1463.52,-661.66"/>
</g>
<!-- Node25&#45;&gt;Node17 -->
<g id="edge41" class="edge">
<title>Node25&#45;&gt;Node17</title>
<path fill="none" stroke="midnightblue" d="M1620.31,-174.75C1520.54,-166.33 1168.95,-136.66 1048.13,-126.47"/>
<polygon fill="midnightblue" stroke="midnightblue" points="1048.1,-122.96 1037.84,-125.6 1047.51,-129.93 1048.1,-122.96"/>
</g>
<!-- Node25&#45;&gt;Node18 -->
<g id="edge44" class="edge">
<title>Node25&#45;&gt;Node18</title>
<path fill="none" stroke="midnightblue" d="M1620.32,-172.94C1556.82,-163.28 1396.79,-138.94 1326.27,-128.21"/>
<polygon fill="midnightblue" stroke="midnightblue" points="1326.56,-124.72 1316.14,-126.67 1325.5,-131.64 1326.56,-124.72"/>
</g>
<!-- Node25&#45;&gt;Node19 -->
<g id="edge45" class="edge">
<title>Node25&#45;&gt;Node19</title>
<path fill="none" stroke="midnightblue" d="M1620.28,-175.72C1469.9,-168.51 729.75,-133.01 557.07,-124.73"/>
<polygon fill="midnightblue" stroke="midnightblue" points="557.13,-121.23 546.98,-124.25 556.8,-128.22 557.13,-121.23"/>
</g>
<!-- Node25&#45;&gt;Node20 -->
<g id="edge46" class="edge">
<title>Node25&#45;&gt;Node20</title>
<path fill="none" stroke="midnightblue" d="M1665.54,-168.44C1684.62,-159.64 1714.57,-145.81 1736.44,-135.72"/>
<polygon fill="midnightblue" stroke="midnightblue" points="1737.93,-138.88 1745.55,-131.52 1735,-132.53 1737.93,-138.88"/>
</g>
<!-- Node25&#45;&gt;Node21 -->
<g id="edge48" class="edge">
<title>Node25&#45;&gt;Node21</title>
<path fill="none" stroke="midnightblue" d="M1673.61,-170.81C1712.39,-161.78 1784.99,-144.88 1832.66,-133.79"/>
<polygon fill="midnightblue" stroke="midnightblue" points="1833.49,-137.19 1842.43,-131.51 1831.9,-130.37 1833.49,-137.19"/>
</g>
<!-- Node25&#45;&gt;Node22 -->
<g id="edge51" class="edge">
<title>Node25&#45;&gt;Node22</title>
<path fill="none" stroke="midnightblue" d="M1630.29,-187.56C1532.22,-237.82 1031.6,-494.38 911.79,-555.78"/>
<polygon fill="midnightblue" stroke="midnightblue" points="909.91,-552.82 902.6,-560.49 913.1,-559.05 909.91,-552.82"/>
</g>
<!-- Node25&#45;&gt;Node24 -->
<g id="edge52" class="edge">
<title>Node25&#45;&gt;Node24</title>
<path fill="none" stroke="midnightblue" d="M1620.23,-180.64C1490.41,-188.22 926.31,-219.87 742.25,-229.92"/>
<polygon fill="midnightblue" stroke="midnightblue" points="742.02,-226.43 732.23,-230.47 742.4,-233.42 742.02,-226.43"/>
</g>
<!-- Node26 -->
<g id="node26" class="node">
<title>Node26</title>
<g id="a_node26"><a xlink:title=" ">
<polygon fill="none" stroke="#bfbfbf" points="1434.5,-112.5 1434.5,-131.5 1529.5,-131.5 1529.5,-112.5 1434.5,-112.5"/>
<text text-anchor="middle" x="1482" y="-119.5" font-family="Helvetica,sans-Serif" font-size="10.00">petscsystypes.h</text>
</a>
</g>
</g>
<!-- Node25&#45;&gt;Node26 -->
<g id="edge49" class="edge">
<title>Node25&#45;&gt;Node26</title>
<path fill="none" stroke="midnightblue" d="M1620.86,-168.44C1592.98,-159.32 1548.65,-144.81 1517.6,-134.65"/>
<polygon fill="midnightblue" stroke="midnightblue" points="1518.62,-131.3 1508.02,-131.52 1516.44,-137.95 1518.62,-131.3"/>
</g>
<!-- Node25&#45;&gt;Node27 -->
<g id="edge53" class="edge">
<title>Node25&#45;&gt;Node27</title>
<path fill="none" stroke="midnightblue" d="M1673.57,-174.75C1783.49,-165.96 2201.56,-134.03 2321.65,-125.25"/>
<polygon fill="midnightblue" stroke="midnightblue" points="2321.97,-128.73 2331.69,-124.52 2321.47,-121.75 2321.97,-128.73"/>
</g>
<!-- Node25&#45;&gt;Node28 -->
<g id="edge128" class="edge">
<title>Node25&#45;&gt;Node28</title>
<path fill="none" stroke="midnightblue" d="M1673.61,-183.57C1704.78,-189.67 1757.33,-202.3 1798,-224 1913.57,-285.65 2025.96,-399.2 2065.28,-441.01"/>
<polygon fill="midnightblue" stroke="midnightblue" points="2062.77,-443.45 2072.15,-448.37 2067.89,-438.67 2062.77,-443.45"/>
</g>
<!-- Node25&#45;&gt;Node29 -->
<g id="edge132" class="edge">
<title>Node25&#45;&gt;Node29</title>
<path fill="none" stroke="midnightblue" d="M1651.88,-187.63C1656.56,-196.45 1663.31,-210.7 1666,-224 1667.76,-232.71 1667.54,-235.25 1666,-244 1656.74,-296.65 1631.25,-354.89 1617.72,-383.37"/>
<polygon fill="midnightblue" stroke="midnightblue" points="1614.53,-381.92 1613.32,-392.44 1620.83,-384.97 1614.53,-381.92"/>
</g>
<!-- Node25&#45;&gt;Node30 -->
<g id="edge129" class="edge">
<title>Node25&#45;&gt;Node30</title>
<path fill="none" stroke="midnightblue" d="M1662.03,-187.55C1671.8,-196.09 1682.96,-209.94 1689,-224 1720.56,-297.45 1721,-321.06 1721,-401 1721,-515 1721,-515 1721,-515 1721,-551.2 1697.69,-588.23 1679.59,-608.76"/>
<polygon fill="midnightblue" stroke="midnightblue" points="1676.82,-606.59 1672.47,-616.26 1681.89,-611.41 1676.82,-606.59"/>
</g>
<!-- Node32 -->
<g id="node32" class="node">
<title>Node32</title>
<g id="a_node32"><a xlink:href="ParticleMotion_8h.html" target="_top" xlink:title=" ">
<polygon fill="none" stroke="black" points="864,-280.5 864,-299.5 960,-299.5 960,-280.5 864,-280.5"/>
<text text-anchor="middle" x="912" y="-287.5" font-family="Helvetica,sans-Serif" font-size="10.00">ParticleMotion.h</text>
</a>
</g>
</g>
<!-- Node25&#45;&gt;Node32 -->
<g id="edge131" class="edge">
<title>Node25&#45;&gt;Node32</title>
<path fill="none" stroke="midnightblue" d="M1620.28,-183C1514.01,-198.9 1119.81,-257.9 970.15,-280.3"/>
<polygon fill="midnightblue" stroke="midnightblue" points="969.6,-276.84 960.23,-281.78 970.63,-283.76 969.6,-276.84"/>
</g>
<!-- Node27&#45;&gt;Node2 -->
<g id="edge54" class="edge">
<title>Node27&#45;&gt;Node2</title>
<path fill="none" stroke="midnightblue" d="M2354,-112.08C2354,-105.01 2354,-94.86 2354,-85.99"/>
<polygon fill="midnightblue" stroke="midnightblue" points="2357.5,-85.75 2354,-75.75 2350.5,-85.75 2357.5,-85.75"/>
</g>
<!-- Node27&#45;&gt;Node12 -->
<g id="edge55" class="edge">
<title>Node27&#45;&gt;Node12</title>
<path fill="none" stroke="midnightblue" d="M2376.18,-123.44C2451.96,-126.23 2696,-146.28 2696,-289 2696,-627 2696,-627 2696,-627 2696,-661.89 2681.86,-673.96 2652,-692 2591.86,-728.33 2380.52,-735.36 2290.31,-736.7"/>
<polygon fill="midnightblue" stroke="midnightblue" points="2290.13,-733.2 2280.18,-736.83 2290.23,-740.2 2290.13,-733.2"/>
</g>
<!-- Node27&#45;&gt;Node25 -->
<g id="edge126" class="edge">
<title>Node27&#45;&gt;Node25</title>
<path fill="none" stroke="midnightblue" d="M2331.69,-124.91C2229.93,-133.09 1810.67,-165.12 1683.59,-174.44"/>
<polygon fill="midnightblue" stroke="midnightblue" points="1683.3,-170.95 1673.58,-175.17 1683.81,-177.93 1683.3,-170.95"/>
</g>
<!-- Node27&#45;&gt;Node28 -->
<g id="edge56" class="edge">
<title>Node27&#45;&gt;Node28</title>
<path fill="none" stroke="midnightblue" d="M2347,-131.54C2310.62,-175.88 2142.97,-380.24 2093.67,-440.33"/>
<polygon fill="midnightblue" stroke="midnightblue" points="2090.68,-438.46 2087.05,-448.41 2096.1,-442.9 2090.68,-438.46"/>
</g>
<!-- Node28&#45;&gt;Node2 -->
<g id="edge57" class="edge">
<title>Node28&#45;&gt;Node2</title>
<path fill="none" stroke="midnightblue" d="M2097.54,-456.33C2183.93,-451.93 2562.87,-419.49 2634,-188 2643.92,-155.71 2655.91,-137.71 2634,-112 2604.44,-77.31 2471.18,-69.26 2399.68,-67.46"/>
<polygon fill="midnightblue" stroke="midnightblue" points="2399.68,-63.96 2389.6,-67.24 2399.52,-70.96 2399.68,-63.96"/>
</g>
<!-- Node28&#45;&gt;Node12 -->
<g id="edge58" class="edge">
<title>Node28&#45;&gt;Node12</title>
<path fill="none" stroke="midnightblue" d="M2097.64,-465.65C2140.28,-482.82 2248.51,-533.18 2290,-616 2305.13,-646.2 2302.2,-660.5 2290,-692 2285.55,-703.5 2276.63,-713.87 2268.25,-721.75"/>
<polygon fill="midnightblue" stroke="midnightblue" points="2265.76,-719.27 2260.54,-728.49 2270.37,-724.54 2265.76,-719.27"/>
</g>
<!-- Node28&#45;&gt;Node29 -->
<g id="edge59" class="edge">
<title>Node28&#45;&gt;Node29</title>
<path fill="none" stroke="midnightblue" d="M2062.27,-455.26C1996.04,-448.22 1762.94,-421.57 1659.25,-409.28"/>
<polygon fill="midnightblue" stroke="midnightblue" points="1659.38,-405.77 1649.04,-408.07 1658.55,-412.72 1659.38,-405.77"/>
</g>
<!-- Node29&#45;&gt;Node2 -->
<g id="edge69" class="edge">
<title>Node29&#45;&gt;Node2</title>
<path fill="none" stroke="midnightblue" d="M1630.4,-392.42C1652.44,-383.53 1687.76,-369.11 1718,-356 1955.33,-253.12 2238.66,-121.07 2326.61,-79.86"/>
<polygon fill="midnightblue" stroke="midnightblue" points="2328.32,-82.92 2335.89,-75.51 2325.35,-76.59 2328.32,-82.92"/>
</g>
<!-- Node29&#45;&gt;Node7 -->
<g id="edge61" class="edge">
<title>Node29&#45;&gt;Node7</title>
<path fill="none" stroke="midnightblue" d="M1568.74,-400.16C1426.53,-396.99 948.34,-384.42 798,-356 500.11,-299.69 326.69,-339.06 176,-76 147.57,-26.37 236.14,-13.89 300.38,-11.17"/>
<polygon fill="midnightblue" stroke="midnightblue" points="300.59,-14.66 310.46,-10.81 300.35,-7.67 300.59,-14.66"/>
</g>
<!-- Node29&#45;&gt;Node9 -->
<g id="edge62" class="edge">
<title>Node29&#45;&gt;Node9</title>
<path fill="none" stroke="midnightblue" d="M1598.09,-392.47C1555.92,-359.11 1406,-236.45 1406,-179 1406,-179 1406,-179 1406,-121 1406,-29.61 1263.52,-13.56 1194.55,-11.15"/>
<polygon fill="midnightblue" stroke="midnightblue" points="1194.63,-7.65 1184.54,-10.88 1194.44,-14.65 1194.63,-7.65"/>
</g>
<!-- Node29&#45;&gt;Node12 -->
<g id="edge73" class="edge">
<title>Node29&#45;&gt;Node12</title>
<path fill="none" stroke="midnightblue" d="M1619.46,-411.55C1641.25,-434.24 1691.26,-496.19 1749,-524 1844.2,-569.85 1885.21,-522.5 1984,-560 2089.83,-600.17 2197.44,-685.52 2235.25,-721"/>
<polygon fill="midnightblue" stroke="midnightblue" points="2232.99,-723.69 2242.59,-728.16 2237.87,-718.68 2232.99,-723.69"/>
</g>
<!-- Node29&#45;&gt;Node14 -->
<g id="edge66" class="edge">
<title>Node29&#45;&gt;Node14</title>
<path fill="none" stroke="midnightblue" d="M1625.81,-392.48C1642.46,-383.85 1668.49,-369.85 1690,-356 1807.38,-280.43 1939,-176.28 1986.59,-137.94"/>
<polygon fill="midnightblue" stroke="midnightblue" points="1988.9,-140.58 1994.48,-131.57 1984.5,-135.13 1988.9,-140.58"/>
</g>
<!-- Node29&#45;&gt;Node16 -->
<g id="edge92" class="edge">
<title>Node29&#45;&gt;Node16</title>
<path fill="none" stroke="midnightblue" d="M1604.22,-411.52C1582.5,-450.23 1492.91,-609.87 1462.87,-663.41"/>
<polygon fill="midnightblue" stroke="midnightblue" points="1459.68,-661.94 1457.84,-672.38 1465.79,-665.37 1459.68,-661.94"/>
</g>
<!-- Node29&#45;&gt;Node17 -->
<g id="edge60" class="edge">
<title>Node29&#45;&gt;Node17</title>
<path fill="none" stroke="midnightblue" d="M1585.02,-392.42C1561.21,-383.75 1523.77,-369.71 1492,-356 1313.43,-278.92 1104.51,-173.1 1032.73,-136.27"/>
<polygon fill="midnightblue" stroke="midnightblue" points="1034.02,-133 1023.53,-131.54 1030.82,-139.23 1034.02,-133"/>
</g>
<!-- Node29&#45;&gt;Node18 -->
<g id="edge63" class="edge">
<title>Node29&#45;&gt;Node18</title>
<path fill="none" stroke="midnightblue" d="M1590.1,-392.45C1572.41,-384.12 1545.57,-370.61 1524,-356 1460.29,-312.86 1446.05,-298.76 1392,-244 1357.71,-209.26 1322.45,-163.9 1304.36,-139.79"/>
<polygon fill="midnightblue" stroke="midnightblue" points="1307.09,-137.58 1298.31,-131.65 1301.47,-141.76 1307.09,-137.58"/>
</g>
<!-- Node29&#45;&gt;Node19 -->
<g id="edge64" class="edge">
<title>Node29&#45;&gt;Node19</title>
<path fill="none" stroke="midnightblue" d="M1568.75,-400.1C1410.77,-396.05 833.68,-376.22 670,-300 603.27,-268.93 587.18,-250.31 548,-188 538.76,-173.31 531.46,-154.91 526.8,-141.44"/>
<polygon fill="midnightblue" stroke="midnightblue" points="530.09,-140.26 523.63,-131.86 523.45,-142.45 530.09,-140.26"/>
</g>
<!-- Node29&#45;&gt;Node20 -->
<g id="edge65" class="edge">
<title>Node29&#45;&gt;Node20</title>
<path fill="none" stroke="midnightblue" d="M1617.53,-392.19C1625.71,-383.47 1638.1,-369.48 1647,-356 1696.66,-280.74 1739.88,-181.53 1756.61,-141.21"/>
<polygon fill="midnightblue" stroke="midnightblue" points="1759.89,-142.45 1760.45,-131.87 1753.41,-139.79 1759.89,-142.45"/>
</g>
<!-- Node29&#45;&gt;Node21 -->
<g id="edge67" class="edge">
<title>Node29&#45;&gt;Node21</title>
<path fill="none" stroke="midnightblue" d="M1621.49,-392.28C1633.59,-383.61 1652.21,-369.67 1667,-356 1748.39,-280.76 1833.78,-178.61 1865.83,-139.32"/>
<polygon fill="midnightblue" stroke="midnightblue" points="1868.57,-141.5 1872.16,-131.53 1863.14,-137.08 1868.57,-141.5"/>
</g>
<!-- Node29&#45;&gt;Node22 -->
<g id="edge70" class="edge">
<title>Node29&#45;&gt;Node22</title>
<path fill="none" stroke="midnightblue" d="M1587.12,-411.52C1542.95,-428.74 1440.02,-469.05 1354,-504 1332.59,-512.7 1328.39,-518.27 1306,-524 1179.63,-556.37 1026.08,-565.48 944.14,-568.03"/>
<polygon fill="midnightblue" stroke="midnightblue" points="943.93,-564.53 934.03,-568.32 944.13,-571.53 943.93,-564.53"/>
</g>
<!-- Node29&#45;&gt;Node24 -->
<g id="edge71" class="edge">
<title>Node29&#45;&gt;Node24</title>
<path fill="none" stroke="midnightblue" d="M1568.86,-399.54C1478.45,-395.84 1252.17,-384.32 1065,-356 951.13,-338.77 920.42,-338.82 812,-300 773.51,-286.22 731.79,-263.41 706.78,-248.8"/>
<polygon fill="midnightblue" stroke="midnightblue" points="708.45,-245.72 698.06,-243.64 704.88,-251.74 708.45,-245.72"/>
</g>
<!-- Node29&#45;&gt;Node26 -->
<g id="edge68" class="edge">
<title>Node29&#45;&gt;Node26</title>
<path fill="none" stroke="midnightblue" d="M1605.06,-392.38C1587.32,-353.54 1514.65,-194.47 1490.13,-140.79"/>
<polygon fill="midnightblue" stroke="midnightblue" points="1493.23,-139.17 1485.89,-131.52 1486.87,-142.07 1493.23,-139.17"/>
</g>
<!-- Node29&#45;&gt;Node27 -->
<g id="edge72" class="edge">
<title>Node29&#45;&gt;Node27</title>
<path fill="none" stroke="midnightblue" d="M1649.03,-397.65C1728,-390.73 1901.15,-374.03 1958,-356 1983.39,-347.95 2040.83,-313.15 2064,-300 2147.25,-252.73 2166.3,-237.91 2248,-188 2276.72,-170.45 2309.78,-150.17 2331.24,-136.99"/>
<polygon fill="midnightblue" stroke="midnightblue" points="2333.26,-139.85 2339.95,-131.64 2329.6,-133.89 2333.26,-139.85"/>
</g>
<!-- Node29&#45;&gt;Node28 -->
<g id="edge74" class="edge">
<title>Node29&#45;&gt;Node28</title>
<path fill="none" stroke="midnightblue" d="M1649.31,-407.18C1742.87,-417.45 1972.33,-443.77 2052.19,-453.4"/>
<polygon fill="midnightblue" stroke="midnightblue" points="2052.08,-456.91 2062.43,-454.64 2052.93,-449.96 2052.08,-456.91"/>
</g>
<!-- Node29&#45;&gt;Node30 -->
<g id="edge75" class="edge">
<title>Node29&#45;&gt;Node30</title>
<path fill="none" stroke="midnightblue" d="M1610.5,-411.55C1614.01,-431.39 1623.25,-482.07 1633,-524 1639.76,-553.09 1648.99,-586.5 1654.71,-606.67"/>
<polygon fill="midnightblue" stroke="midnightblue" points="1651.38,-607.75 1657.5,-616.4 1658.11,-605.82 1651.38,-607.75"/>
</g>
<!-- Node29&#45;&gt;Node32 -->
<g id="edge93" class="edge">
<title>Node29&#45;&gt;Node32</title>
<path fill="none" stroke="midnightblue" d="M1568.89,-399.14C1489.76,-395 1308.22,-383.16 1158,-356 1082.31,-342.31 995.79,-317.18 948.17,-302.5"/>
<polygon fill="midnightblue" stroke="midnightblue" points="949.21,-299.15 938.62,-299.53 947.14,-305.84 949.21,-299.15"/>
</g>
<!-- Node33 -->
<g id="node33" class="node">
<title>Node33</title>
<g id="a_node33"><a xlink:href="BC__Handlers_8h.html" target="_top" xlink:title=" ">
<polygon fill="none" stroke="black" points="2010,-336.5 2010,-355.5 2098,-355.5 2098,-336.5 2010,-336.5"/>
<text text-anchor="middle" x="2054" y="-343.5" font-family="Helvetica,sans-Serif" font-size="10.00">BC_Handlers.h</text>
</a>
</g>
</g>
<!-- Node29&#45;&gt;Node33 -->
<g id="edge102" class="edge">
<title>Node29&#45;&gt;Node33</title>
<path fill="none" stroke="midnightblue" d="M1649.26,-396.23C1718.5,-388.57 1864.01,-372.69 1987,-356 1991.15,-355.44 1995.45,-354.82 1999.8,-354.19"/>
<polygon fill="midnightblue" stroke="midnightblue" points="2000.59,-357.61 2009.97,-352.69 1999.56,-350.69 2000.59,-357.61"/>
</g>
<!-- Node34 -->
<g id="node34" class="node">
<title>Node34</title>
<g id="a_node34"><a xlink:href="wallfunction_8h.html" target="_top" xlink:title=" ">
<polygon fill="none" stroke="black" points="1167,-336.5 1167,-355.5 1253,-355.5 1253,-336.5 1167,-336.5"/>
<text text-anchor="middle" x="1210" y="-343.5" font-family="Helvetica,sans-Serif" font-size="10.00">wallfunction.h</text>
</a>
</g>
</g>
<!-- Node29&#45;&gt;Node34 -->
<g id="edge106" class="edge">
<title>Node29&#45;&gt;Node34</title>
<path fill="none" stroke="midnightblue" d="M1568.81,-396.11C1496.29,-386.74 1343.97,-366.16 1263.04,-354.84"/>
<polygon fill="midnightblue" stroke="midnightblue" points="1263.44,-351.37 1253.06,-353.44 1262.47,-358.3 1263.44,-351.37"/>
</g>
<!-- Node30&#45;&gt;Node2 -->
<g id="edge85" class="edge">
<title>Node30&#45;&gt;Node2</title>
<path fill="none" stroke="midnightblue" d="M1704.21,-622.98C1843.27,-616.01 2269.62,-589.64 2389,-524 2579.57,-419.22 2794.88,-276.83 2653,-112 2620.91,-74.71 2475.52,-67.9 2399.95,-66.93"/>
<polygon fill="midnightblue" stroke="midnightblue" points="2399.8,-63.43 2389.77,-66.83 2399.73,-70.43 2399.8,-63.43"/>
</g>
<!-- Node30&#45;&gt;Node7 -->
<g id="edge77" class="edge">
<title>Node30&#45;&gt;Node7</title>
<path fill="none" stroke="midnightblue" d="M1615.8,-625.17C1442.2,-625.51 806.93,-623.68 611,-580 548,-565.95 534.14,-554.03 477,-524 270.22,-415.33 38,-468.59 38,-235 38,-235 38,-235 38,-121 38,-79.51 68.05,-74.87 105,-56 166.54,-24.57 246.06,-14.64 300.02,-11.74"/>
<polygon fill="midnightblue" stroke="midnightblue" points="300.3,-15.23 310.13,-11.26 299.97,-8.23 300.3,-15.23"/>
</g>
<!-- Node30&#45;&gt;Node9 -->
<g id="edge78" class="edge">
<title>Node30&#45;&gt;Node9</title>
<path fill="none" stroke="midnightblue" d="M1615.91,-624.52C1453.15,-622.48 886.41,-613.11 709,-580 531.48,-546.87 444.51,-520.5 370,-356 335.2,-279.16 298.54,-239.05 344,-168 397.87,-83.82 443.43,-85.25 539,-56 648.9,-22.37 1005.52,-13.54 1121.32,-11.53"/>
<polygon fill="midnightblue" stroke="midnightblue" points="1121.5,-15.03 1131.44,-11.36 1121.39,-8.03 1121.5,-15.03"/>
</g>
<!-- Node30&#45;&gt;Node12 -->
<g id="edge89" class="edge">
<title>Node30&#45;&gt;Node12</title>
<path fill="none" stroke="midnightblue" d="M1704.3,-635.27C1814.64,-655.88 2100.53,-709.27 2207.65,-729.28"/>
<polygon fill="midnightblue" stroke="midnightblue" points="2207.28,-732.77 2217.75,-731.16 2208.56,-725.89 2207.28,-732.77"/>
</g>
<!-- Node30&#45;&gt;Node14 -->
<g id="edge84" class="edge">
<title>Node30&#45;&gt;Node14</title>
<path fill="none" stroke="midnightblue" d="M1704.07,-622.35C1791.51,-616.68 1983.86,-602.08 2046,-580 2147.51,-543.93 2354,-368.82 2354,-347 2354,-347 2354,-347 2354,-233 2354,-169.78 2143.03,-138.37 2049.15,-127.52"/>
<polygon fill="midnightblue" stroke="midnightblue" points="2049.43,-124.03 2039.1,-126.39 2048.64,-130.99 2049.43,-124.03"/>
</g>
<!-- Node30&#45;&gt;Node17 -->
<g id="edge76" class="edge">
<title>Node30&#45;&gt;Node17</title>
<path fill="none" stroke="midnightblue" d="M1615.92,-622.02C1472.14,-611.74 1026,-574.98 1026,-515 1026,-515 1026,-515 1026,-345 1026,-269.63 1014.99,-180.39 1009.73,-142.05"/>
<polygon fill="midnightblue" stroke="midnightblue" points="1013.16,-141.28 1008.31,-131.86 1006.23,-142.25 1013.16,-141.28"/>
</g>
<!-- Node30&#45;&gt;Node18 -->
<g id="edge79" class="edge">
<title>Node30&#45;&gt;Node18</title>
<path fill="none" stroke="midnightblue" d="M1652.06,-616.33C1612.56,-572.89 1434.69,-373.73 1322,-188 1312.84,-172.91 1304.61,-154.55 1299.1,-141.2"/>
<polygon fill="midnightblue" stroke="midnightblue" points="1302.27,-139.7 1295.29,-131.73 1295.77,-142.31 1302.27,-139.7"/>
</g>
<!-- Node30&#45;&gt;Node19 -->
<g id="edge80" class="edge">
<title>Node30&#45;&gt;Node19</title>
<path fill="none" stroke="midnightblue" d="M1615.82,-625.19C1461.04,-625.49 944.1,-623.15 785,-580 547.19,-515.5 395.35,-485 344,-244 339.35,-222.19 350.78,-169.38 352,-168 369.5,-148.3 440.97,-134.62 485.17,-127.86"/>
<polygon fill="midnightblue" stroke="midnightblue" points="485.86,-131.3 495.24,-126.37 484.83,-124.38 485.86,-131.3"/>
</g>
<!-- Node30&#45;&gt;Node20 -->
<g id="edge81" class="edge">
<title>Node30&#45;&gt;Node20</title>
<path fill="none" stroke="midnightblue" d="M1704.25,-621.72C1779.17,-615.66 1927.52,-601.36 1975,-580 2045.17,-548.43 2074.68,-537.82 2107,-468 2131.65,-414.76 2135.51,-387.27 2107,-336 2041.79,-218.74 1882.35,-157.76 1806.04,-134.44"/>
<polygon fill="midnightblue" stroke="midnightblue" points="1806.86,-131.04 1796.28,-131.53 1804.86,-137.74 1806.86,-131.04"/>
</g>
<!-- Node30&#45;&gt;Node21 -->
<g id="edge82" class="edge">
<title>Node30&#45;&gt;Node21</title>
<path fill="none" stroke="midnightblue" d="M1704.12,-625.76C1772.06,-625.53 1905.39,-619.46 2010,-580 2154.55,-525.47 2178.05,-449.76 2216,-300 2228.57,-250.39 2198.83,-185.42 2178,-168 2169.25,-160.68 2034.37,-142.53 1948.79,-131.65"/>
<polygon fill="midnightblue" stroke="midnightblue" points="1948.97,-128.15 1938.61,-130.36 1948.09,-135.09 1948.97,-128.15"/>
</g>
<!-- Node30&#45;&gt;Node22 -->
<g id="edge86" class="edge">
<title>Node30&#45;&gt;Node22</title>
<path fill="none" stroke="midnightblue" d="M1616,-621.97C1511.32,-614.77 1239.23,-596.01 1012,-580 989.91,-578.44 965.64,-576.72 944.35,-575.19"/>
<polygon fill="midnightblue" stroke="midnightblue" points="944.39,-571.69 934.16,-574.46 943.89,-578.67 944.39,-571.69"/>
</g>
<!-- Node30&#45;&gt;Node24 -->
<g id="edge87" class="edge">
<title>Node30&#45;&gt;Node24</title>
<path fill="none" stroke="midnightblue" d="M1615.83,-624.43C1454.26,-622.09 901.13,-611.81 829,-580 764.01,-551.34 746.74,-531.54 715,-468 678.74,-395.41 680.11,-295.02 682.52,-253.8"/>
<polygon fill="midnightblue" stroke="midnightblue" points="686.03,-253.83 683.22,-243.62 679.05,-253.36 686.03,-253.83"/>
</g>
<!-- Node30&#45;&gt;Node25 -->
<g id="edge91" class="edge">
<title>Node30&#45;&gt;Node25</title>
<path fill="none" stroke="midnightblue" d="M1662.43,-616.26C1672.83,-598.45 1703,-556.19 1703,-515 1703,-515 1703,-515 1703,-401 1703,-321.06 1702.56,-297.45 1671,-224 1666.66,-213.89 1659.67,-203.9 1654.03,-195.9"/>
<polygon fill="midnightblue" stroke="midnightblue" points="1656.83,-193.79 1648.26,-187.55 1651.07,-197.77 1656.83,-193.79"/>
</g>
<!-- Node30&#45;&gt;Node27 -->
<g id="edge88" class="edge">
<title>Node30&#45;&gt;Node27</title>
<path fill="none" stroke="midnightblue" d="M1704.04,-625.47C1781.8,-625.18 1947.79,-619.45 2081,-580 2247.76,-530.61 2430,-576.92 2430,-403 2430,-403 2430,-403 2430,-233 2430,-193.28 2396.04,-157.5 2373.52,-138.15"/>
<polygon fill="midnightblue" stroke="midnightblue" points="2375.48,-135.24 2365.54,-131.57 2371.02,-140.63 2375.48,-135.24"/>
</g>
<!-- Node30&#45;&gt;Node28 -->
<g id="edge90" class="edge">
<title>Node30&#45;&gt;Node28</title>
<path fill="none" stroke="midnightblue" d="M1681.7,-616.42C1752.11,-588.59 1974.2,-500.81 2052.42,-469.9"/>
<polygon fill="midnightblue" stroke="midnightblue" points="2054.04,-473.02 2062.05,-466.09 2051.47,-466.51 2054.04,-473.02"/>
</g>
<!-- Node31 -->
<g id="node31" class="node">
<title>Node31</title>
<g id="a_node31"><a xlink:title=" ">
<polygon fill="none" stroke="#bfbfbf" points="1890.5,-560.5 1890.5,-579.5 1965.5,-579.5 1965.5,-560.5 1890.5,-560.5"/>
<text text-anchor="middle" x="1928" y="-567.5" font-family="Helvetica,sans-Serif" font-size="10.00">petscerror.h</text>
</a>
</g>
</g>
<!-- Node30&#45;&gt;Node31 -->
<g id="edge83" class="edge">
<title>Node30&#45;&gt;Node31</title>
<path fill="none" stroke="midnightblue" d="M1702.47,-616.44C1750.93,-606.68 1830,-590.75 1880.48,-580.57"/>
<polygon fill="midnightblue" stroke="midnightblue" points="1881.38,-583.96 1890.49,-578.56 1880,-577.1 1881.38,-583.96"/>
</g>
<!-- Node32&#45;&gt;Node2 -->
<g id="edge99" class="edge">
<title>Node32&#45;&gt;Node2</title>
<path fill="none" stroke="midnightblue" d="M921.5,-280.11C955.82,-248.74 1077.91,-143.4 1202,-112 1310.42,-84.57 2107.6,-70.74 2308.26,-67.67"/>
<polygon fill="midnightblue" stroke="midnightblue" points="2308.5,-71.16 2318.45,-67.51 2308.4,-64.16 2308.5,-71.16"/>
</g>
<!-- Node32&#45;&gt;Node7 -->
<g id="edge95" class="edge">
<title>Node32&#45;&gt;Node7</title>
<path fill="none" stroke="midnightblue" d="M905.68,-280.43C895.87,-267.43 876,-242.3 856,-224 761.56,-137.56 740.09,-105.47 622,-56 557.06,-28.79 476.42,-18.03 422.1,-13.78"/>
<polygon fill="midnightblue" stroke="midnightblue" points="422.17,-10.28 411.94,-13.04 421.66,-17.26 422.17,-10.28"/>
</g>
<!-- Node32&#45;&gt;Node12 -->
<g id="edge100" class="edge">
<title>Node32&#45;&gt;Node12</title>
<path fill="none" stroke="midnightblue" d="M864,-295.98C698.69,-314.92 171.59,-391.17 328,-580 452.28,-730.04 1940.24,-737.02 2207.9,-737.06"/>
<polygon fill="midnightblue" stroke="midnightblue" points="2207.96,-740.56 2217.96,-737.06 2207.96,-733.56 2207.96,-740.56"/>
</g>
<!-- Node32&#45;&gt;Node13 -->
<g id="edge94" class="edge">
<title>Node32&#45;&gt;Node13</title>
<path fill="none" stroke="midnightblue" d="M884.25,-280.47C857.68,-272.05 816.63,-258.38 782,-244 763.28,-236.23 760.41,-229.85 741,-224 634.07,-191.75 501.24,-182.6 438.31,-180.01"/>
<polygon fill="midnightblue" stroke="midnightblue" points="438.24,-176.51 428.11,-179.63 437.97,-183.5 438.24,-176.51"/>
</g>
<!-- Node32&#45;&gt;Node14 -->
<g id="edge97" class="edge">
<title>Node32&#45;&gt;Node14</title>
<path fill="none" stroke="midnightblue" d="M960.02,-284.08C1081.55,-271.34 1410.95,-234.95 1683,-188 1782.82,-170.77 1899.13,-146.16 1960.99,-132.71"/>
<polygon fill="midnightblue" stroke="midnightblue" points="1961.78,-136.12 1970.81,-130.56 1960.29,-129.28 1961.78,-136.12"/>
</g>
<!-- Node32&#45;&gt;Node19 -->
<g id="edge98" class="edge">
<title>Node32&#45;&gt;Node19</title>
<path fill="none" stroke="midnightblue" d="M901.1,-280.14C869.75,-254.84 779.44,-183.08 745,-168 682.26,-140.54 602.26,-129.65 556.82,-125.47"/>
<polygon fill="midnightblue" stroke="midnightblue" points="556.84,-121.96 546.58,-124.59 556.24,-128.93 556.84,-121.96"/>
</g>
<!-- Node32&#45;&gt;Node23 -->
<g id="edge96" class="edge">
<title>Node32&#45;&gt;Node23</title>
<path fill="none" stroke="midnightblue" d="M894.29,-280.43C876.06,-271.54 846.88,-257.12 822,-244 789.48,-226.85 752.47,-206.07 728.94,-192.7"/>
<polygon fill="midnightblue" stroke="midnightblue" points="730.45,-189.53 720.03,-187.63 726.99,-195.62 730.45,-189.53"/>
</g>
<!-- Node32&#45;&gt;Node24 -->
<g id="edge101" class="edge">
<title>Node32&#45;&gt;Node24</title>
<path fill="none" stroke="midnightblue" d="M875.87,-280.44C836.35,-271.08 772.9,-256.06 729.89,-245.87"/>
<polygon fill="midnightblue" stroke="midnightblue" points="730.5,-242.42 719.96,-243.52 728.88,-249.23 730.5,-242.42"/>
</g>
<!-- Node33&#45;&gt;Node2 -->
<g id="edge103" class="edge">
<title>Node33&#45;&gt;Node2</title>
<path fill="none" stroke="midnightblue" d="M2063.31,-336.38C2105.83,-296.97 2281.91,-133.81 2337.26,-82.51"/>
<polygon fill="midnightblue" stroke="midnightblue" points="2339.85,-84.89 2344.8,-75.52 2335.09,-79.75 2339.85,-84.89"/>
</g>
<!-- Node33&#45;&gt;Node12 -->
<g id="edge105" class="edge">
<title>Node33&#45;&gt;Node12</title>
<path fill="none" stroke="midnightblue" d="M2068.73,-355.51C2116.82,-384.37 2268.35,-484.05 2308,-616 2317.72,-648.35 2322.13,-661.8 2307,-692 2300.36,-705.26 2287.77,-715.76 2276.02,-723.27"/>
<polygon fill="midnightblue" stroke="midnightblue" points="2274.13,-720.32 2267.31,-728.43 2277.7,-726.35 2274.13,-720.32"/>
</g>
<!-- Node33&#45;&gt;Node29 -->
<g id="edge104" class="edge">
<title>Node33&#45;&gt;Node29</title>
<path fill="none" stroke="midnightblue" d="M2009.91,-355.32C2008.26,-355.55 2006.62,-355.78 2005,-356 1881.29,-372.78 1734.8,-388.76 1659.31,-396.36"/>
<polygon fill="midnightblue" stroke="midnightblue" points="1658.74,-392.9 1649.14,-397.38 1659.44,-399.87 1658.74,-392.9"/>
</g>
<!-- Node34&#45;&gt;Node2 -->
<g id="edge116" class="edge">
<title>Node34&#45;&gt;Node2</title>
<path fill="none" stroke="midnightblue" d="M1208.59,-336.43C1203.41,-301.78 1189.26,-171.01 1259,-112 1299.62,-77.63 2105.7,-68.96 2308.17,-67.33"/>
<polygon fill="midnightblue" stroke="midnightblue" points="2308.48,-70.82 2318.45,-67.24 2308.42,-63.82 2308.48,-70.82"/>
</g>
<!-- Node34&#45;&gt;Node7 -->
<g id="edge108" class="edge">
<title>Node34&#45;&gt;Node7</title>
<path fill="none" stroke="midnightblue" d="M1166.75,-343.8C1044.87,-339.5 702.49,-320.68 627,-244 605.89,-222.55 608,-209.1 608,-179 608,-179 608,-179 608,-121 608,-39.63 494.75,-18.02 421.62,-12.55"/>
<polygon fill="midnightblue" stroke="midnightblue" points="421.79,-9.05 411.58,-11.88 421.33,-16.04 421.79,-9.05"/>
</g>
<!-- Node34&#45;&gt;Node9 -->
<g id="edge109" class="edge">
<title>Node34&#45;&gt;Node9</title>
<path fill="none" stroke="midnightblue" d="M1192.07,-336.49C1144.01,-312.52 1012.92,-239.1 968,-132 939.2,-63.33 1058.34,-29.88 1121.29,-17.24"/>
<polygon fill="midnightblue" stroke="midnightblue" points="1122.09,-20.65 1131.25,-15.32 1120.77,-13.77 1122.09,-20.65"/>
</g>
<!-- Node34&#45;&gt;Node12 -->
<g id="edge120" class="edge">
<title>Node34&#45;&gt;Node12</title>
<path fill="none" stroke="midnightblue" d="M1166.71,-350.5C1114.3,-355.64 1023.9,-367.42 950,-392 664.38,-487.01 682.45,-407.74 730,-524 784.21,-656.57 866.35,-656.08 1005,-692 1123.37,-722.67 2004.76,-734.28 2207.5,-736.56"/>
<polygon fill="midnightblue" stroke="midnightblue" points="2207.69,-740.06 2217.72,-736.68 2207.76,-733.07 2207.69,-740.06"/>
</g>
<!-- Node34&#45;&gt;Node14 -->
<g id="edge113" class="edge">
<title>Node34&#45;&gt;Node14</title>
<path fill="none" stroke="midnightblue" d="M1240.68,-336.43C1364.14,-301.96 1824.76,-173.33 1964.53,-134.3"/>
<polygon fill="midnightblue" stroke="midnightblue" points="1965.72,-137.6 1974.41,-131.54 1963.84,-130.86 1965.72,-137.6"/>
</g>
<!-- Node34&#45;&gt;Node16 -->
<g id="edge123" class="edge">
<title>Node34&#45;&gt;Node16</title>
<path fill="none" stroke="midnightblue" d="M1166.93,-349.45C1102.37,-355.72 988,-377.96 988,-457 988,-571 988,-571 988,-571 988,-651.77 1257.04,-673.31 1385.84,-678.99"/>
<polygon fill="midnightblue" stroke="midnightblue" points="1385.84,-682.5 1395.98,-679.42 1386.14,-675.5 1385.84,-682.5"/>
</g>
<!-- Node34&#45;&gt;Node17 -->
<g id="edge107" class="edge">
<title>Node34&#45;&gt;Node17</title>
<path fill="none" stroke="midnightblue" d="M1199.93,-336.35C1189.81,-327.51 1173.89,-313.24 1161,-300 1106.2,-243.71 1046.56,-171.77 1020.48,-139.71"/>
<polygon fill="midnightblue" stroke="midnightblue" points="1023.06,-137.34 1014.05,-131.78 1017.62,-141.75 1023.06,-137.34"/>
</g>
<!-- Node34&#45;&gt;Node18 -->
<g id="edge110" class="edge">
<title>Node34&#45;&gt;Node18</title>
<path fill="none" stroke="midnightblue" d="M1201.81,-336.27C1183.89,-316.06 1144.3,-264.65 1164,-224 1184.48,-181.76 1232.14,-151.86 1263.18,-136.04"/>
<polygon fill="midnightblue" stroke="midnightblue" points="1264.8,-139.14 1272.22,-131.58 1261.71,-132.86 1264.8,-139.14"/>
</g>
<!-- Node34&#45;&gt;Node19 -->
<g id="edge111" class="edge">
<title>Node34&#45;&gt;Node19</title>
<path fill="none" stroke="midnightblue" d="M1166.74,-342.84C1092.63,-338.54 936.9,-326.9 808,-300 725.57,-282.8 697.63,-289.85 627,-244 584.23,-216.24 548.55,-166.53 531.6,-140.3"/>
<polygon fill="midnightblue" stroke="midnightblue" points="534.52,-138.37 526.23,-131.78 528.6,-142.11 534.52,-138.37"/>
</g>
<!-- Node34&#45;&gt;Node20 -->
<g id="edge112" class="edge">
<title>Node34&#45;&gt;Node20</title>
<path fill="none" stroke="midnightblue" d="M1221.9,-336.38C1262.22,-307.62 1398.26,-214.12 1525,-168 1589.27,-144.61 1667.89,-132.8 1716.97,-127.29"/>
<polygon fill="midnightblue" stroke="midnightblue" points="1717.42,-130.76 1726.98,-126.2 1716.66,-123.8 1717.42,-130.76"/>
</g>
<!-- Node34&#45;&gt;Node21 -->
<g id="edge114" class="edge">
<title>Node34&#45;&gt;Node21</title>
<path fill="none" stroke="midnightblue" d="M1227.75,-336.48C1294.68,-304.46 1532.01,-191.95 1612,-168 1647.98,-157.23 1743.08,-142.37 1809.47,-132.73"/>
<polygon fill="midnightblue" stroke="midnightblue" points="1810.05,-136.18 1819.45,-131.28 1809.05,-129.25 1810.05,-136.18"/>
</g>
<!-- Node34&#45;&gt;Node22 -->
<g id="edge117" class="edge">
<title>Node34&#45;&gt;Node22</title>
<path fill="none" stroke="midnightblue" d="M1166.86,-350.64C1107.27,-356.43 1003.74,-369.44 974,-392 920.73,-432.41 897.57,-513.84 889.55,-550.44"/>
<polygon fill="midnightblue" stroke="midnightblue" points="886.11,-549.77 887.53,-560.27 892.97,-551.18 886.11,-549.77"/>
</g>
<!-- Node34&#45;&gt;Node24 -->
<g id="edge118" class="edge">
<title>Node34&#45;&gt;Node24</title>
<path fill="none" stroke="midnightblue" d="M1166.79,-343.8C1099.07,-340.98 964.39,-331.54 855,-300 834.75,-294.16 831.52,-287.95 812,-280 781.57,-267.61 746.3,-255.36 720.5,-246.78"/>
<polygon fill="midnightblue" stroke="midnightblue" points="721.35,-243.37 710.76,-243.56 719.16,-250.02 721.35,-243.37"/>
</g>
<!-- Node34&#45;&gt;Node26 -->
<g id="edge115" class="edge">
<title>Node34&#45;&gt;Node26</title>
<path fill="none" stroke="midnightblue" d="M1214.76,-336.21C1230.62,-307.69 1284.66,-216.77 1354,-168 1376.69,-152.04 1405.6,-141.24 1430.19,-134.23"/>
<polygon fill="midnightblue" stroke="midnightblue" points="1431.35,-137.54 1440.09,-131.55 1429.52,-130.79 1431.35,-137.54"/>
</g>
<!-- Node34&#45;&gt;Node27 -->
<g id="edge119" class="edge">
<title>Node34&#45;&gt;Node27</title>
<path fill="none" stroke="midnightblue" d="M1253.1,-336.64C1437.66,-300.82 2159.21,-160.8 2321.48,-129.31"/>
<polygon fill="midnightblue" stroke="midnightblue" points="2322.61,-132.66 2331.76,-127.31 2321.28,-125.78 2322.61,-132.66"/>
</g>
<!-- Node34&#45;&gt;Node28 -->
<g id="edge121" class="edge">
<title>Node34&#45;&gt;Node28</title>
<path fill="none" stroke="midnightblue" d="M1248.91,-355.51C1313.3,-369.3 1446.25,-396.55 1560,-412 1747,-437.39 1973.88,-451.25 2052,-455.54"/>
<polygon fill="midnightblue" stroke="midnightblue" points="2052.25,-459.06 2062.42,-456.1 2052.63,-452.07 2052.25,-459.06"/>
</g>
<!-- Node34&#45;&gt;Node29 -->
<g id="edge125" class="edge">
<title>Node34&#45;&gt;Node29</title>
<path fill="none" stroke="midnightblue" d="M1253.19,-352.28C1327.66,-361.93 1479.5,-382.45 1558.63,-393.53"/>
<polygon fill="midnightblue" stroke="midnightblue" points="1558.45,-397.04 1568.84,-394.96 1559.42,-390.11 1558.45,-397.04"/>
</g>
<!-- Node34&#45;&gt;Node30 -->
<g id="edge122" class="edge">
<title>Node34&#45;&gt;Node30</title>
<path fill="none" stroke="midnightblue" d="M1220.1,-355.72C1258.85,-388.85 1402.71,-508.61 1538,-580 1564.41,-593.94 1596.1,-605.48 1620.56,-613.39"/>
<polygon fill="midnightblue" stroke="midnightblue" points="1619.64,-616.77 1630.23,-616.45 1621.75,-610.1 1619.64,-616.77"/>
</g>
<!-- Node34&#45;&gt;Node32 -->
<g id="edge124" class="edge">
<title>Node34&#45;&gt;Node32</title>
<path fill="none" stroke="midnightblue" d="M1166.99,-337.21C1114.83,-327.75 1026.76,-311.8 969,-301.33"/>
<polygon fill="midnightblue" stroke="midnightblue" points="969.4,-297.84 958.93,-299.5 968.15,-304.73 969.4,-297.84"/>
</g>
<!-- Node35&#45;&gt;Node2 -->
<g id="edge135" class="edge">
<title>Node35&#45;&gt;Node2</title>
<path fill="none" stroke="midnightblue" d="M1805.07,-505.28C1902.49,-477.88 2233.64,-379.6 2482,-244 2518.83,-223.89 2539.08,-225.45 2558,-188 2592.47,-119.78 2469.7,-86.88 2399.59,-73.94"/>
<polygon fill="midnightblue" stroke="midnightblue" points="2400.11,-70.48 2389.66,-72.17 2398.89,-77.37 2400.11,-70.48"/>
</g>
<!-- Node35&#45;&gt;Node9 -->
<g id="edge137" class="edge">
<title>Node35&#45;&gt;Node9</title>
<path fill="none" stroke="midnightblue" d="M1748.8,-512.13C1557.35,-505.52 456,-455.48 456,-179 456,-179 456,-179 456,-121 456,-53 976.72,-20.54 1121.21,-12.84"/>
<polygon fill="midnightblue" stroke="midnightblue" points="1121.54,-16.33 1131.34,-12.31 1121.17,-9.34 1121.54,-16.33"/>
</g>
<!-- Node35&#45;&gt;Node12 -->
<g id="edge136" class="edge">
<title>Node35&#45;&gt;Node12</title>
<path fill="none" stroke="midnightblue" d="M1805.15,-516.2C1901.14,-520.96 2212.92,-541.96 2272,-616 2296.13,-646.23 2274.67,-694.16 2260.01,-719.67"/>
<polygon fill="midnightblue" stroke="midnightblue" points="2256.99,-717.9 2254.83,-728.27 2262.99,-721.51 2256.99,-717.9"/>
</g>
<!-- Node35&#45;&gt;Node13 -->
<g id="edge134" class="edge">
<title>Node35&#45;&gt;Node13</title>
<path fill="none" stroke="midnightblue" d="M1748.62,-512.49C1616.4,-509.96 1060.1,-497.71 889,-468 719.3,-438.54 672.02,-433.1 518,-356 480.48,-337.22 466.63,-333.96 442,-300 419.13,-268.47 408.8,-223.09 404.58,-197.81"/>
<polygon fill="midnightblue" stroke="midnightblue" points="408.01,-197.1 403.04,-187.74 401.09,-198.15 408.01,-197.1"/>
</g>
<!-- Node35&#45;&gt;Node25 -->
<g id="edge139" class="edge">
<title>Node35&#45;&gt;Node25</title>
<path fill="none" stroke="midnightblue" d="M1779.5,-504.36C1789.81,-466.72 1825.6,-314.87 1760,-224 1742.51,-199.77 1709.83,-188.58 1684.1,-183.41"/>
<polygon fill="midnightblue" stroke="midnightblue" points="1684.37,-179.91 1673.91,-181.6 1683.15,-186.8 1684.37,-179.91"/>
</g>
<!-- Node35&#45;&gt;Node28 -->
<g id="edge138" class="edge">
<title>Node35&#45;&gt;Node28</title>
<path fill="none" stroke="midnightblue" d="M1805.42,-506.69C1809.96,-505.74 1814.6,-504.82 1819,-504 1920.3,-485.2 1947.35,-489.99 2048,-468 2049.48,-467.68 2050.99,-467.33 2052.52,-466.95"/>
<polygon fill="midnightblue" stroke="midnightblue" points="2053.71,-470.26 2062.49,-464.33 2051.93,-463.49 2053.71,-470.26"/>
</g>
</g>
</svg>
