<?xml version="1.0" encoding="UTF-8" standalone="no"?>
<!DOCTYPE svg PUBLIC "-//W3C//DTD SVG 1.1//EN"
 "http://www.w3.org/Graphics/SVG/1.1/DTD/svg11.dtd">
<!-- Generated by graphviz version 2.43.0 (0)
 -->
<!-- Title: LocateParticleOrFindMigrationTarget_TEST Pages: 1 -->
<!--zoomable 356 -->
<svg id="main" version="1.1" xmlns="http://www.w3.org/2000/svg" xmlns:xlink="http://www.w3.org/1999/xlink" xml:space="preserve" onload="init(evt)">
<style type="text/css"><![CDATA[
.edge:hover path { stroke: red; }
.edge:hover polygon { stroke: red; fill: red; }
]]></style>
<script type="text/javascript"><![CDATA[
var edges = document.getElementsByTagName('g');
if (edges && edges.length) {
  for (var i=0;i<edges.length;i++) {
    if (edges[i].id.substr(0,4)=='edge') {
      edges[i].setAttribute('class','edge');
    }
  }
}
]]></script>
        <defs>
                <circle id="rim" cx="0" cy="0" r="7"/>
                <circle id="rim2" cx="0" cy="0" r="3.5"/>
                <g id="zoomPlus">
                        <use xlink:href="#rim" fill="#404040">
                                <set attributeName="fill" to="#808080" begin="zoomplus.mouseover" end="zoomplus.mouseout"/>
                        </use>
                        <path d="M-4,0h8M0,-4v8" fill="none" stroke="white" stroke-width="1.5" pointer-events="none"/>
                </g>
                <g id="zoomMin">
                        <use xlink:href="#rim" fill="#404040">
                                <set attributeName="fill" to="#808080" begin="zoomminus.mouseover" end="zoomminus.mouseout"/>
                        </use>
                        <path d="M-4,0h8" fill="none" stroke="white" stroke-width="1.5" pointer-events="none"/>
                </g>
                <g id="dirArrow">
                        <path fill="none" stroke="white" stroke-width="1.5" d="M0,-3.0v7 M-2.5,-0.5L0,-3.0L2.5,-0.5"/>
                </g>
               <g id="resetDef">
                       <use xlink:href="#rim2" fill="#404040">
                               <set attributeName="fill" to="#808080" begin="reset.mouseover" end="reset.mouseout"/>
                       </use>
               </g>
        </defs>

<script type="text/javascript">
var viewWidth = 756;
var viewHeight = 356;
var sectionId = 'dynsection-17';
</script>
<script xlink:href="svgpan.js"/>
<svg id="graph" class="graph">
<g id="viewport">
<title>LocateParticleOrFindMigrationTarget_TEST</title>
<!-- Node1 -->
<g id="node1" class="node">
<title>Node1</title>
<g id="a_node1"><a xlink:title="Locates a particle&#39;s host cell or identifies its migration target using a robust walk search.">
<polygon fill="#bfbfbf" stroke="black" points="0,-131 0,-161 163,-161 163,-131 0,-131"/>
<text text-anchor="start" x="8" y="-149" font-family="Helvetica,sans-Serif" font-size="10.00">LocateParticleOrFindMigration</text>
<text text-anchor="middle" x="81.5" y="-138" font-family="Helvetica,sans-Serif" font-size="10.00">Target_TEST</text>
</a>
</g>
</g>
<!-- Node2 -->
<g id="node2" class="node">
<title>Node2</title>
<g id="a_node2"><a xlink:href="walkingsearch_8c.html#afae6265db91aa72254a050c0b6159dab" target="_top" xlink:title="Checks if the current GLOBAL CELL indices are within the LOCAL GHOSTED grid boundaries accessible by ...">
<polygon fill="none" stroke="black" points="395,-328.5 395,-347.5 538,-347.5 538,-328.5 395,-328.5"/>
<text text-anchor="middle" x="466.5" y="-335.5" font-family="Helvetica,sans-Serif" font-size="10.00">CheckCellWithinLocalGrid</text>
</a>
</g>
</g>
<!-- Node1&#45;&gt;Node2 -->
<g id="edge1" class="edge">
<title>Node1&#45;&gt;Node2</title>
<path fill="none" stroke="midnightblue" d="M89.61,-161.2C104.85,-191.96 143.82,-261.39 199,-294 255.15,-327.19 328.96,-337.3 384.66,-339.62"/>
<polygon fill="midnightblue" stroke="midnightblue" points="384.73,-343.12 394.84,-339.96 384.97,-336.12 384.73,-343.12"/>
</g>
<!-- Node3 -->
<g id="node3" class="node">
<title>Node3</title>
<g id="a_node3"><a xlink:href="walkingsearch_8c.html#a556871801ba0b3214285a2ca1fe622ac" target="_top" xlink:title="Determines the spatial relationship of a particle relative to a cubic cell.">
<polygon fill="none" stroke="black" points="211.5,-202.5 211.5,-221.5 346.5,-221.5 346.5,-202.5 211.5,-202.5"/>
<text text-anchor="middle" x="279" y="-209.5" font-family="Helvetica,sans-Serif" font-size="10.00">EvaluateParticlePosition</text>
</a>
</g>
</g>
<!-- Node1&#45;&gt;Node3 -->
<g id="edge2" class="edge">
<title>Node1&#45;&gt;Node3</title>
<path fill="none" stroke="midnightblue" d="M115.92,-161.01C138.95,-170.98 170.44,-183.86 199,-193 206.83,-195.51 215.19,-197.86 223.44,-199.99"/>
<polygon fill="midnightblue" stroke="midnightblue" points="222.84,-203.45 233.39,-202.49 224.54,-196.66 222.84,-203.45"/>
</g>
<!-- Node11 -->
<g id="node11" class="node">
<title>Node11</title>
<g id="a_node11"><a xlink:href="walkingsearch_8c.html#a9aedf40cb1545b554e113ebb0863859d" target="_top" xlink:title="Finds the MPI rank that owns a given global cell index.">
<polygon fill="none" stroke="black" points="230,-114.5 230,-133.5 328,-133.5 328,-114.5 230,-114.5"/>
<text text-anchor="middle" x="279" y="-121.5" font-family="Helvetica,sans-Serif" font-size="10.00">FindOwnerOfCell</text>
</a>
</g>
</g>
<!-- Node1&#45;&gt;Node11 -->
<g id="edge10" class="edge">
<title>Node1&#45;&gt;Node11</title>
<path fill="none" stroke="midnightblue" d="M163.15,-136.92C182.05,-134.8 201.83,-132.57 219.55,-130.58"/>
<polygon fill="midnightblue" stroke="midnightblue" points="220.18,-134.03 229.72,-129.43 219.39,-127.07 220.18,-134.03"/>
</g>
<!-- Node12 -->
<g id="node12" class="node">
<title>Node12</title>
<g id="a_node12"><a xlink:href="walkingsearch_8c.html#af9a2ec1317c83d6dfad52415b83cd6e6" target="_top" xlink:title="Initializes traversal parameters for locating a particle.">
<polygon fill="none" stroke="black" points="199,-265.5 199,-284.5 359,-284.5 359,-265.5 199,-265.5"/>
<text text-anchor="middle" x="279" y="-272.5" font-family="Helvetica,sans-Serif" font-size="10.00">InitializeTraversalParameters</text>
</a>
</g>
</g>
<!-- Node1&#45;&gt;Node12 -->
<g id="edge11" class="edge">
<title>Node1&#45;&gt;Node12</title>
<path fill="none" stroke="midnightblue" d="M101.77,-161.19C124.47,-178.81 163.57,-208.33 199,-231 215.65,-241.65 235.02,-252.47 250.42,-260.71"/>
<polygon fill="midnightblue" stroke="midnightblue" points="248.96,-263.89 259.43,-265.48 252.23,-257.71 248.96,-263.89"/>
</g>
<!-- Node13 -->
<g id="node13" class="node">
<title>Node13</title>
<g id="a_node13"><a xlink:href="walkingsearch_8c.html#a64b2ff5399052580bffaa58562dc0bcd" target="_top" xlink:title="Logs the final outcome of the particle location search.">
<polygon fill="none" stroke="black" points="216,-76.5 216,-95.5 342,-95.5 342,-76.5 216,-76.5"/>
<text text-anchor="middle" x="279" y="-83.5" font-family="Helvetica,sans-Serif" font-size="10.00">ReportSearchOutcome</text>
</a>
</g>
</g>
<!-- Node1&#45;&gt;Node13 -->
<g id="edge13" class="edge">
<title>Node1&#45;&gt;Node13</title>
<path fill="none" stroke="midnightblue" d="M122.07,-130.94C144.46,-122.7 173.09,-112.65 199,-105 207.35,-102.53 216.28,-100.15 225,-97.95"/>
<polygon fill="midnightblue" stroke="midnightblue" points="225.86,-101.35 234.74,-95.56 224.19,-94.55 225.86,-101.35"/>
</g>
<!-- Node14 -->
<g id="node14" class="node">
<title>Node14</title>
<g id="a_node14"><a xlink:href="walkingsearch_8c.html#acb77aa5204ab90392c67f10a55227bb6" target="_top" xlink:title="Retrieves the coordinates of the eight vertices of the current cell.">
<polygon fill="none" stroke="black" points="222.5,-38.5 222.5,-57.5 335.5,-57.5 335.5,-38.5 222.5,-38.5"/>
<text text-anchor="middle" x="279" y="-45.5" font-family="Helvetica,sans-Serif" font-size="10.00">RetrieveCurrentCell</text>
</a>
</g>
</g>
<!-- Node1&#45;&gt;Node14 -->
<g id="edge14" class="edge">
<title>Node1&#45;&gt;Node14</title>
<path fill="none" stroke="midnightblue" d="M100.24,-130.93C122.09,-113.12 161,-83.79 199,-67 204.67,-64.49 210.73,-62.29 216.87,-60.35"/>
<polygon fill="midnightblue" stroke="midnightblue" points="217.92,-63.69 226.54,-57.53 215.96,-56.97 217.92,-63.69"/>
</g>
<!-- Node17 -->
<g id="node17" class="node">
<title>Node17</title>
<g id="a_node17"><a xlink:href="walkingsearch_8c.html#ae8ed9e0a01de5ee0f332170562b1f9ea" target="_top" xlink:title="Updates the cell indices based on the signed distances to each face.">
<polygon fill="none" stroke="black" points="204.5,-153 204.5,-183 353.5,-183 353.5,-153 204.5,-153"/>
<text text-anchor="start" x="212.5" y="-171" font-family="Helvetica,sans-Serif" font-size="10.00">UpdateCellIndicesBasedOn</text>
<text text-anchor="middle" x="279" y="-160" font-family="Helvetica,sans-Serif" font-size="10.00">DistancesTEST</text>
</a>
</g>
</g>
<!-- Node1&#45;&gt;Node17 -->
<g id="edge17" class="edge">
<title>Node1&#45;&gt;Node17</title>
<path fill="none" stroke="midnightblue" d="M163.15,-155.08C173.4,-156.23 183.92,-157.41 194.22,-158.57"/>
<polygon fill="midnightblue" stroke="midnightblue" points="194.1,-162.08 204.43,-159.72 194.89,-155.13 194.1,-162.08"/>
</g>
<!-- Node18 -->
<g id="node18" class="node">
<title>Node18</title>
<g id="a_node18"><a xlink:href="ParticleSwarm_8h.html#a0001e483238e2b600cb9aa23a6e5338c" target="_top" xlink:title="Updates a particle&#39;s interpolation weights based on distances to cell faces.">
<polygon fill="none" stroke="black" points="215,-0.5 215,-19.5 343,-19.5 343,-0.5 215,-0.5"/>
<text text-anchor="middle" x="279" y="-7.5" font-family="Helvetica,sans-Serif" font-size="10.00">UpdateParticleWeights</text>
</a>
</g>
</g>
<!-- Node1&#45;&gt;Node18 -->
<g id="edge21" class="edge">
<title>Node1&#45;&gt;Node18</title>
<path fill="none" stroke="midnightblue" d="M93.14,-130.8C111.64,-105.58 152.26,-55.25 199,-29 202.98,-26.76 207.22,-24.79 211.59,-23.05"/>
<polygon fill="midnightblue" stroke="midnightblue" points="213.05,-26.24 221.3,-19.59 210.7,-19.64 213.05,-26.24"/>
</g>
<!-- Node4 -->
<g id="node4" class="node">
<title>Node4</title>
<g id="a_node4"><a xlink:href="walkingsearch_8c.html#a7af34c8e2ed4672f0e1f83829159bbe6" target="_top" xlink:title="Computes the signed distances from a point to each face of a cubic cell.">
<polygon fill="none" stroke="black" points="396.5,-279 396.5,-309 536.5,-309 536.5,-279 396.5,-279"/>
<text text-anchor="start" x="404.5" y="-297" font-family="Helvetica,sans-Serif" font-size="10.00">CalculateDistancesToCell</text>
<text text-anchor="middle" x="466.5" y="-286" font-family="Helvetica,sans-Serif" font-size="10.00">Faces</text>
</a>
</g>
</g>
<!-- Node3&#45;&gt;Node4 -->
<g id="edge3" class="edge">
<title>Node3&#45;&gt;Node4</title>
<path fill="none" stroke="midnightblue" d="M297.62,-221.56C319.93,-233.46 359.71,-254.06 395,-269 400.08,-271.15 405.42,-273.28 410.79,-275.33"/>
<polygon fill="midnightblue" stroke="midnightblue" points="409.84,-278.71 420.44,-278.92 412.29,-272.15 409.84,-278.71"/>
</g>
<!-- Node6 -->
<g id="node6" class="node">
<title>Node6</title>
<g id="a_node6"><a xlink:href="walkingsearch_8c.html#a7db2c59feb52c21a5d3bcd2bd67bbb43" target="_top" xlink:title="Classifies a point based on precomputed face distances.">
<polygon fill="none" stroke="black" points="400.5,-240.5 400.5,-259.5 532.5,-259.5 532.5,-240.5 400.5,-240.5"/>
<text text-anchor="middle" x="466.5" y="-247.5" font-family="Helvetica,sans-Serif" font-size="10.00">DeterminePointPosition</text>
</a>
</g>
</g>
<!-- Node3&#45;&gt;Node6 -->
<g id="edge5" class="edge">
<title>Node3&#45;&gt;Node6</title>
<path fill="none" stroke="midnightblue" d="M326.81,-221.59C351.84,-226.72 382.84,-233.07 409.18,-238.46"/>
<polygon fill="midnightblue" stroke="midnightblue" points="408.53,-241.9 419.03,-240.48 409.93,-235.04 408.53,-241.9"/>
</g>
<!-- Node7 -->
<g id="node7" class="node">
<title>Node7</title>
<g id="a_node7"><a xlink:href="logging_8h.html#a9585f583c260f40a73f2490914edc689" target="_top" xlink:title="Retrieves the current logging level from the environment variable LOG_LEVEL.">
<polygon fill="none" stroke="black" points="425.5,-164.5 425.5,-183.5 507.5,-183.5 507.5,-164.5 425.5,-164.5"/>
<text text-anchor="middle" x="466.5" y="-171.5" font-family="Helvetica,sans-Serif" font-size="10.00">get_log_level</text>
</a>
</g>
</g>
<!-- Node3&#45;&gt;Node7 -->
<g id="edge6" class="edge">
<title>Node3&#45;&gt;Node7</title>
<path fill="none" stroke="midnightblue" d="M326.81,-202.41C353.86,-196.87 387.89,-189.9 415.47,-184.25"/>
<polygon fill="midnightblue" stroke="midnightblue" points="416.22,-187.67 425.31,-182.23 414.81,-180.81 416.22,-187.67"/>
</g>
<!-- Node8 -->
<g id="node8" class="node">
<title>Node8</title>
<g id="a_node8"><a xlink:href="walkingsearch_8c.html#a2ed7a27dd4de3fbd6bb46684482ce165" target="_top" xlink:title="Estimates a characteristic length of the cell for threshold scaling.">
<polygon fill="none" stroke="black" points="396.5,-202.5 396.5,-221.5 536.5,-221.5 536.5,-202.5 396.5,-202.5"/>
<text text-anchor="middle" x="466.5" y="-209.5" font-family="Helvetica,sans-Serif" font-size="10.00">GetCellCharacteristicSize</text>
</a>
</g>
</g>
<!-- Node3&#45;&gt;Node8 -->
<g id="edge7" class="edge">
<title>Node3&#45;&gt;Node8</title>
<path fill="none" stroke="midnightblue" d="M346.71,-212C359.41,-212 372.82,-212 385.88,-212"/>
<polygon fill="midnightblue" stroke="midnightblue" points="386.26,-215.5 396.26,-212 386.26,-208.5 386.26,-215.5"/>
</g>
<!-- Node9 -->
<g id="node9" class="node">
<title>Node9</title>
<g id="a_node9"><a xlink:href="logging_8h.html#a2358badbcda33fc9d80ebd6a59d2a2cd" target="_top" xlink:title="Checks if a given function is in the allow&#45;list.">
<polygon fill="none" stroke="black" points="410,-126.5 410,-145.5 523,-145.5 523,-126.5 410,-126.5"/>
<text text-anchor="middle" x="466.5" y="-133.5" font-family="Helvetica,sans-Serif" font-size="10.00">is_function_allowed</text>
</a>
</g>
</g>
<!-- Node3&#45;&gt;Node9 -->
<g id="edge8" class="edge">
<title>Node3&#45;&gt;Node9</title>
<path fill="none" stroke="midnightblue" d="M337.21,-202.44C344.81,-199.98 352.28,-196.88 359,-193 379.14,-181.36 375.02,-166.92 395,-155 398.67,-152.81 402.61,-150.86 406.66,-149.14"/>
<polygon fill="midnightblue" stroke="midnightblue" points="408.17,-152.31 416.29,-145.51 405.7,-145.76 408.17,-152.31"/>
</g>
<!-- Node10 -->
<g id="node10" class="node">
<title>Node10</title>
<g id="a_node10"><a xlink:href="logging_8h.html#a9baaed9103be8264832b39c7dbb2ce1a" target="_top" xlink:title="Prints the signed distances to each face of the cell.">
<polygon fill="none" stroke="black" points="403,-88.5 403,-107.5 530,-107.5 530,-88.5 403,-88.5"/>
<text text-anchor="middle" x="466.5" y="-95.5" font-family="Helvetica,sans-Serif" font-size="10.00">LOG_FACE_DISTANCES</text>
</a>
</g>
</g>
<!-- Node3&#45;&gt;Node10 -->
<g id="edge9" class="edge">
<title>Node3&#45;&gt;Node10</title>
<path fill="none" stroke="midnightblue" d="M343.28,-202.37C348.94,-199.9 354.29,-196.82 359,-193 388.01,-169.43 366.31,-140.96 395,-117 397.04,-115.29 399.23,-113.74 401.51,-112.32"/>
<polygon fill="midnightblue" stroke="midnightblue" points="403.49,-115.24 410.76,-107.52 400.27,-109.03 403.49,-115.24"/>
</g>
<!-- Node5 -->
<g id="node5" class="node">
<title>Node5</title>
<g id="a_node5"><a xlink:href="walkingsearch_8c.html#a621082a77ddbec81ffd282870175b603" target="_top" xlink:title="Computes the signed distance from a point to the plane approximating a quadrilateral face.">
<polygon fill="none" stroke="black" points="574,-284.5 574,-303.5 748,-303.5 748,-284.5 574,-284.5"/>
<text text-anchor="middle" x="661" y="-291.5" font-family="Helvetica,sans-Serif" font-size="10.00">ComputeSignedDistanceToPlane</text>
</a>
</g>
</g>
<!-- Node4&#45;&gt;Node5 -->
<g id="edge4" class="edge">
<title>Node4&#45;&gt;Node5</title>
<path fill="none" stroke="midnightblue" d="M536.72,-294C545.5,-294 554.59,-294 563.69,-294"/>
<polygon fill="midnightblue" stroke="midnightblue" points="563.95,-297.5 573.95,-294 563.95,-290.5 563.95,-297.5"/>
</g>
<!-- Node12&#45;&gt;Node2 -->
<g id="edge12" class="edge">
<title>Node12&#45;&gt;Node2</title>
<path fill="none" stroke="midnightblue" d="M303.1,-284.64C326.14,-294.06 362.68,-308.49 395,-319 402.21,-321.34 409.9,-323.63 417.45,-325.76"/>
<polygon fill="midnightblue" stroke="midnightblue" points="416.67,-329.17 427.24,-328.45 418.53,-322.42 416.67,-329.17"/>
</g>
<!-- Node15 -->
<g id="node15" class="node">
<title>Node15</title>
<g id="a_node15"><a xlink:href="walkingsearch_8c.html#ae14b1946c4c34cae5455bdfd632eb98e" target="_top" xlink:title="Retrieves the coordinates of the eight vertices of a cell based on grid indices.">
<polygon fill="none" stroke="black" points="398,-6.5 398,-25.5 535,-25.5 535,-6.5 398,-6.5"/>
<text text-anchor="middle" x="466.5" y="-13.5" font-family="Helvetica,sans-Serif" font-size="10.00">GetCellVerticesFromGrid</text>
</a>
</g>
</g>
<!-- Node14&#45;&gt;Node15 -->
<g id="edge15" class="edge">
<title>Node14&#45;&gt;Node15</title>
<path fill="none" stroke="midnightblue" d="M335.15,-38.49C355.62,-34.95 379.03,-30.92 400.31,-27.25"/>
<polygon fill="midnightblue" stroke="midnightblue" points="400.98,-30.68 410.24,-25.53 399.79,-23.78 400.98,-30.68"/>
</g>
<!-- Node16 -->
<g id="node16" class="node">
<title>Node16</title>
<g id="a_node16"><a xlink:href="logging_8h.html#ad2278570e8ce1a71bb269a51f9a20d88" target="_top" xlink:title="Prints the coordinates of a cell&#39;s vertices.">
<polygon fill="none" stroke="black" points="407.5,-44.5 407.5,-63.5 525.5,-63.5 525.5,-44.5 407.5,-44.5"/>
<text text-anchor="middle" x="466.5" y="-51.5" font-family="Helvetica,sans-Serif" font-size="10.00">LOG_CELL_VERTICES</text>
</a>
</g>
</g>
<!-- Node14&#45;&gt;Node16 -->
<g id="edge16" class="edge">
<title>Node14&#45;&gt;Node16</title>
<path fill="none" stroke="midnightblue" d="M335.66,-49.8C355.01,-50.43 376.95,-51.14 397.2,-51.79"/>
<polygon fill="midnightblue" stroke="midnightblue" points="397.2,-55.29 407.31,-52.12 397.43,-48.3 397.2,-55.29"/>
</g>
<!-- Node17&#45;&gt;Node7 -->
<g id="edge18" class="edge">
<title>Node17&#45;&gt;Node7</title>
<path fill="none" stroke="midnightblue" d="M353.58,-170.38C374.24,-171.05 396.22,-171.76 415.18,-172.37"/>
<polygon fill="midnightblue" stroke="midnightblue" points="415.27,-175.88 425.38,-172.7 415.5,-168.88 415.27,-175.88"/>
</g>
<!-- Node17&#45;&gt;Node9 -->
<g id="edge19" class="edge">
<title>Node17&#45;&gt;Node9</title>
<path fill="none" stroke="midnightblue" d="M353.58,-155.31C368.95,-152.66 385.05,-149.88 400.1,-147.28"/>
<polygon fill="midnightblue" stroke="midnightblue" points="401.07,-150.67 410.33,-145.52 399.88,-143.77 401.07,-150.67"/>
</g>
<!-- Node17&#45;&gt;Node10 -->
<g id="edge20" class="edge">
<title>Node17&#45;&gt;Node10</title>
<path fill="none" stroke="midnightblue" d="M335.29,-153C343.41,-150.08 351.55,-146.75 359,-143 376.63,-134.13 377.18,-125.48 395,-117 399.94,-114.65 405.21,-112.55 410.57,-110.69"/>
<polygon fill="midnightblue" stroke="midnightblue" points="411.79,-113.97 420.25,-107.58 409.65,-107.31 411.79,-113.97"/>
</g>
</g>
</svg>
        <g id="navigator" transform="translate(0 0)" fill="#404254">
                <rect fill="#f2f5e9" fill-opacity="0.5" stroke="#606060" stroke-width=".5" x="0" y="0" width="60" height="60"/>
                <use id="zoomplus" xlink:href="#zoomPlus" x="17" y="9" onmousedown="handleZoom(evt,'in')"/>
                <use id="zoomminus" xlink:href="#zoomMin" x="42" y="9" onmousedown="handleZoom(evt,'out')"/>
                <use id="reset" xlink:href="#resetDef" x="30" y="36" onmousedown="handleReset()"/>
                <g id="arrowUp" xlink:href="#dirArrow" transform="translate(30 24)" onmousedown="handlePan(0,-1)">
                  <use xlink:href="#rim" fill="#404040">
                        <set attributeName="fill" to="#808080" begin="arrowUp.mouseover" end="arrowUp.mouseout"/>
                  </use>
                  <path fill="none" stroke="white" stroke-width="1.5" d="M0,-3.0v7 M-2.5,-0.5L0,-3.0L2.5,-0.5"/>
                </g>
                <g id="arrowRight" xlink:href="#dirArrow" transform="rotate(90) translate(36 -43)" onmousedown="handlePan(1,0)">
                  <use xlink:href="#rim" fill="#404040">
                        <set attributeName="fill" to="#808080" begin="arrowRight.mouseover" end="arrowRight.mouseout"/>
                  </use>
                  <path fill="none" stroke="white" stroke-width="1.5" d="M0,-3.0v7 M-2.5,-0.5L0,-3.0L2.5,-0.5"/>
                </g>
                <g id="arrowDown" xlink:href="#dirArrow" transform="rotate(180) translate(-30 -48)" onmousedown="handlePan(0,1)">
                  <use xlink:href="#rim" fill="#404040">
                        <set attributeName="fill" to="#808080" begin="arrowDown.mouseover" end="arrowDown.mouseout"/>
                  </use>
                  <path fill="none" stroke="white" stroke-width="1.5" d="M0,-3.0v7 M-2.5,-0.5L0,-3.0L2.5,-0.5"/>
                </g>
                <g id="arrowLeft" xlink:href="#dirArrow" transform="rotate(270) translate(-36 17)" onmousedown="handlePan(-1,0)">
                  <use xlink:href="#rim" fill="#404040">
                        <set attributeName="fill" to="#808080" begin="arrowLeft.mouseover" end="arrowLeft.mouseout"/>
                  </use>
                  <path fill="none" stroke="white" stroke-width="1.5" d="M0,-3.0v7 M-2.5,-0.5L0,-3.0L2.5,-0.5"/>
                </g>
        </g>
        <svg viewBox="0 0 15 15" width="100%" height="30px" preserveAspectRatio="xMaxYMin meet">
         <g id="arrow_out" transform="scale(0.3 0.3)">
          <a xlink:href="walkingsearch_8c_a0b63dfe82e0fdee5c2c3bdd477f9901f_cgraph_org.svg" target="_base">
           <rect id="button" ry="5" rx="5" y="6" x="6" height="38" width="38"
                fill="#f2f5e9" fill-opacity="0.5" stroke="#606060" stroke-width="1.0"/>
           <path id="arrow"
             d="M 11.500037,31.436501 C 11.940474,20.09759 22.043105,11.32322 32.158766,21.979434 L 37.068811,17.246167 C 37.068811,17.246167 37.088388,32 37.088388,32 L 22.160133,31.978069 C 22.160133,31.978069 26.997745,27.140456 26.997745,27.140456 C 18.528582,18.264221 13.291696,25.230495 11.500037,31.436501 z"
             style="fill:#404040;"/>
          </a>
         </g>
        </svg>
</svg>
