<?xml version="1.0" encoding="UTF-8" standalone="no"?>
<!DOCTYPE svg PUBLIC "-//W3C//DTD SVG 1.1//EN"
 "http://www.w3.org/Graphics/SVG/1.1/DTD/svg11.dtd">
<!-- Generated by graphviz version 2.43.0 (0)
 -->
<!-- Title: walkingsearch.h Pages: 1 -->
<svg width="2545pt" height="700pt"
 viewBox="0.00 0.00 2544.50 700.00" xmlns="http://www.w3.org/2000/svg" xmlns:xlink="http://www.w3.org/1999/xlink">
<g id="graph0" class="graph" transform="scale(1 1) rotate(0) translate(4 696)">
<title>walkingsearch.h</title>
<!-- Node1 -->
<g id="node1" class="node">
<title>Node1</title>
<g id="a_node1"><a xlink:title="Header file for particle location functions using the walking search algorithm.">
<polygon fill="#bfbfbf" stroke="black" points="2003.5,-672.5 2003.5,-691.5 2099.5,-691.5 2099.5,-672.5 2003.5,-672.5"/>
<text text-anchor="middle" x="2051.5" y="-679.5" font-family="Helvetica,sans-Serif" font-size="10.00">walkingsearch.h</text>
</a>
</g>
</g>
<!-- Node2 -->
<g id="node2" class="node">
<title>Node2</title>
<g id="a_node2"><a xlink:title=" ">
<polygon fill="none" stroke="#bfbfbf" points="1886.5,-56.5 1886.5,-75.5 1938.5,-75.5 1938.5,-56.5 1886.5,-56.5"/>
<text text-anchor="middle" x="1912.5" y="-63.5" font-family="Helvetica,sans-Serif" font-size="10.00">petsc.h</text>
</a>
</g>
</g>
<!-- Node1&#45;&gt;Node2 -->
<g id="edge1" class="edge">
<title>Node1&#45;&gt;Node2</title>
<path fill="none" stroke="midnightblue" d="M2099.76,-679.3C2215.35,-673.92 2498.5,-652.42 2498.5,-571 2498.5,-571 2498.5,-571 2498.5,-233 2498.5,-118.2 2076.88,-78.72 1948.9,-69.38"/>
<polygon fill="midnightblue" stroke="midnightblue" points="1949.04,-65.88 1938.82,-68.66 1948.54,-72.86 1949.04,-65.88"/>
</g>
<!-- Node3 -->
<g id="node3" class="node">
<title>Node3</title>
<g id="a_node3"><a xlink:title=" ">
<polygon fill="none" stroke="#bfbfbf" points="1838.5,-112.5 1838.5,-131.5 1900.5,-131.5 1900.5,-112.5 1838.5,-112.5"/>
<text text-anchor="middle" x="1869.5" y="-119.5" font-family="Helvetica,sans-Serif" font-size="10.00">stdbool.h</text>
</a>
</g>
</g>
<!-- Node1&#45;&gt;Node3 -->
<g id="edge2" class="edge">
<title>Node1&#45;&gt;Node3</title>
<path fill="none" stroke="midnightblue" d="M2072.31,-672.49C2125.98,-649.23 2268.62,-578.88 2322.5,-468 2348.37,-414.76 2454.68,-477.76 2284.5,-280 2185.96,-165.49 1994.85,-134.29 1910.83,-125.96"/>
<polygon fill="midnightblue" stroke="midnightblue" points="1910.93,-122.45 1900.65,-125.01 1910.28,-129.42 1910.93,-122.45"/>
</g>
<!-- Node4 -->
<g id="node4" class="node">
<title>Node4</title>
<g id="a_node4"><a xlink:title=" ">
<polygon fill="none" stroke="#bfbfbf" points="2038,-112.5 2038,-131.5 2089,-131.5 2089,-112.5 2038,-112.5"/>
<text text-anchor="middle" x="2063.5" y="-119.5" font-family="Helvetica,sans-Serif" font-size="10.00">math.h</text>
</a>
</g>
</g>
<!-- Node1&#45;&gt;Node4 -->
<g id="edge3" class="edge">
<title>Node1&#45;&gt;Node4</title>
<path fill="none" stroke="midnightblue" d="M2099.62,-678.21C2207.74,-670.63 2460.5,-644.99 2460.5,-571 2460.5,-571 2460.5,-571 2460.5,-345 2460.5,-245.25 2408.04,-219.31 2322.5,-168 2285.41,-145.75 2161.27,-131.78 2099.31,-126.03"/>
<polygon fill="midnightblue" stroke="midnightblue" points="2099.48,-122.53 2089.21,-125.11 2098.85,-129.5 2099.48,-122.53"/>
</g>
<!-- Node5 -->
<g id="node5" class="node">
<title>Node5</title>
<g id="a_node5"><a xlink:href="variables_8h.html" target="_top" xlink:title="Main header file for a complex fluid dynamics solver.">
<polygon fill="none" stroke="black" points="296,-56.5 296,-75.5 367,-75.5 367,-56.5 296,-56.5"/>
<text text-anchor="middle" x="331.5" y="-63.5" font-family="Helvetica,sans-Serif" font-size="10.00">variables.h</text>
</a>
</g>
</g>
<!-- Node1&#45;&gt;Node5 -->
<g id="edge4" class="edge">
<title>Node1&#45;&gt;Node5</title>
<path fill="none" stroke="midnightblue" d="M2003.01,-681C1693.63,-680.68 8.5,-674.23 8.5,-571 8.5,-571 8.5,-571 8.5,-513 8.5,-431.86 84.5,-428.14 84.5,-347 84.5,-347 84.5,-347 84.5,-177 84.5,-89.87 214.36,-71.26 285.76,-67.61"/>
<polygon fill="midnightblue" stroke="midnightblue" points="286.01,-71.11 295.85,-67.18 285.71,-64.11 286.01,-71.11"/>
</g>
<!-- Node15 -->
<g id="node15" class="node">
<title>Node15</title>
<g id="a_node15"><a xlink:href="logging_8h.html" target="_top" xlink:title="Logging utilities and macros for PETSc&#45;based applications.">
<polygon fill="none" stroke="black" points="870.5,-616.5 870.5,-635.5 932.5,-635.5 932.5,-616.5 870.5,-616.5"/>
<text text-anchor="middle" x="901.5" y="-623.5" font-family="Helvetica,sans-Serif" font-size="10.00">logging.h</text>
</a>
</g>
</g>
<!-- Node1&#45;&gt;Node15 -->
<g id="edge14" class="edge">
<title>Node1&#45;&gt;Node15</title>
<path fill="none" stroke="midnightblue" d="M2003.19,-678.73C1813.31,-669.82 1120.07,-637.26 942.93,-628.95"/>
<polygon fill="midnightblue" stroke="midnightblue" points="942.89,-625.44 932.73,-628.47 942.56,-632.43 942.89,-625.44"/>
</g>
<!-- Node29 -->
<g id="node29" class="node">
<title>Node29</title>
<g id="a_node29"><a xlink:href="setup_8h.html" target="_top" xlink:title=" ">
<polygon fill="none" stroke="black" points="1303,-448.5 1303,-467.5 1356,-467.5 1356,-448.5 1303,-448.5"/>
<text text-anchor="middle" x="1329.5" y="-455.5" font-family="Helvetica,sans-Serif" font-size="10.00">setup.h</text>
</a>
</g>
</g>
<!-- Node1&#45;&gt;Node29 -->
<g id="edge145" class="edge">
<title>Node1&#45;&gt;Node29</title>
<path fill="none" stroke="midnightblue" d="M2020.83,-672.43C1903.93,-638.06 1487.64,-510.1 1364.17,-470.65"/>
<polygon fill="midnightblue" stroke="midnightblue" points="1365.06,-467.26 1354.47,-467.54 1362.92,-473.93 1365.06,-467.26"/>
</g>
<!-- Node6 -->
<g id="node6" class="node">
<title>Node6</title>
<g id="a_node6"><a xlink:title=" ">
<polygon fill="none" stroke="#bfbfbf" points="360,-0.5 360,-19.5 429,-19.5 429,-0.5 360,-0.5"/>
<text text-anchor="middle" x="394.5" y="-7.5" font-family="Helvetica,sans-Serif" font-size="10.00">petscvec.h</text>
</a>
</g>
</g>
<!-- Node5&#45;&gt;Node6 -->
<g id="edge5" class="edge">
<title>Node5&#45;&gt;Node6</title>
<path fill="none" stroke="midnightblue" d="M341.62,-56.32C351.03,-48.26 365.24,-36.08 376.57,-26.37"/>
<polygon fill="midnightblue" stroke="midnightblue" points="378.88,-29 384.19,-19.83 374.32,-23.68 378.88,-29"/>
</g>
<!-- Node7 -->
<g id="node7" class="node">
<title>Node7</title>
<g id="a_node7"><a xlink:title=" ">
<polygon fill="none" stroke="#bfbfbf" points="447.5,-0.5 447.5,-19.5 527.5,-19.5 527.5,-0.5 447.5,-0.5"/>
<text text-anchor="middle" x="487.5" y="-7.5" font-family="Helvetica,sans-Serif" font-size="10.00">petscdmda.h</text>
</a>
</g>
</g>
<!-- Node5&#45;&gt;Node7 -->
<g id="edge6" class="edge">
<title>Node5&#45;&gt;Node7</title>
<path fill="none" stroke="midnightblue" d="M356.22,-56.44C382.35,-47.4 423.76,-33.06 453.08,-22.92"/>
<polygon fill="midnightblue" stroke="midnightblue" points="454.59,-26.1 462.9,-19.52 452.3,-19.48 454.59,-26.1"/>
</g>
<!-- Node8 -->
<g id="node8" class="node">
<title>Node8</title>
<g id="a_node8"><a xlink:title=" ">
<polygon fill="none" stroke="#bfbfbf" points="546,-0.5 546,-19.5 615,-19.5 615,-0.5 546,-0.5"/>
<text text-anchor="middle" x="580.5" y="-7.5" font-family="Helvetica,sans-Serif" font-size="10.00">petscksp.h</text>
</a>
</g>
</g>
<!-- Node5&#45;&gt;Node8 -->
<g id="edge7" class="edge">
<title>Node5&#45;&gt;Node8</title>
<path fill="none" stroke="midnightblue" d="M367.18,-57.26C411.62,-47.62 487.57,-31.15 535.84,-20.69"/>
<polygon fill="midnightblue" stroke="midnightblue" points="536.66,-24.09 545.69,-18.55 535.18,-17.25 536.66,-24.09"/>
</g>
<!-- Node9 -->
<g id="node9" class="node">
<title>Node9</title>
<g id="a_node9"><a xlink:title=" ">
<polygon fill="none" stroke="#bfbfbf" points="125.5,-0.5 125.5,-19.5 199.5,-19.5 199.5,-0.5 125.5,-0.5"/>
<text text-anchor="middle" x="162.5" y="-7.5" font-family="Helvetica,sans-Serif" font-size="10.00">petscsnes.h</text>
</a>
</g>
</g>
<!-- Node5&#45;&gt;Node9 -->
<g id="edge8" class="edge">
<title>Node5&#45;&gt;Node9</title>
<path fill="none" stroke="midnightblue" d="M304.72,-56.44C276.17,-47.32 230.77,-32.81 198.96,-22.65"/>
<polygon fill="midnightblue" stroke="midnightblue" points="199.74,-19.23 189.15,-19.52 197.61,-25.89 199.74,-19.23"/>
</g>
<!-- Node10 -->
<g id="node10" class="node">
<title>Node10</title>
<g id="a_node10"><a xlink:title=" ">
<polygon fill="none" stroke="#bfbfbf" points="1770,-0.5 1770,-19.5 1871,-19.5 1871,-0.5 1770,-0.5"/>
<text text-anchor="middle" x="1820.5" y="-7.5" font-family="Helvetica,sans-Serif" font-size="10.00">petscdmswarm.h</text>
</a>
</g>
</g>
<!-- Node5&#45;&gt;Node10 -->
<g id="edge9" class="edge">
<title>Node5&#45;&gt;Node10</title>
<path fill="none" stroke="midnightblue" d="M367.2,-63.71C563.28,-56.59 1509.51,-22.28 1759.71,-13.2"/>
<polygon fill="midnightblue" stroke="midnightblue" points="1759.84,-16.7 1769.71,-12.84 1759.59,-9.71 1759.84,-16.7"/>
</g>
<!-- Node11 -->
<g id="node11" class="node">
<title>Node11</title>
<g id="a_node11"><a xlink:title=" ">
<polygon fill="none" stroke="#bfbfbf" points="217.5,-0.5 217.5,-19.5 267.5,-19.5 267.5,-0.5 217.5,-0.5"/>
<text text-anchor="middle" x="242.5" y="-7.5" font-family="Helvetica,sans-Serif" font-size="10.00">stdio.h</text>
</a>
</g>
</g>
<!-- Node5&#45;&gt;Node11 -->
<g id="edge10" class="edge">
<title>Node5&#45;&gt;Node11</title>
<path fill="none" stroke="midnightblue" d="M317.2,-56.32C303.32,-47.9 282.01,-34.97 265.7,-25.07"/>
<polygon fill="midnightblue" stroke="midnightblue" points="267.13,-21.85 256.76,-19.65 263.5,-27.83 267.13,-21.85"/>
</g>
<!-- Node12 -->
<g id="node12" class="node">
<title>Node12</title>
<g id="a_node12"><a xlink:title=" ">
<polygon fill="none" stroke="#bfbfbf" points="907,-0.5 907,-19.5 960,-19.5 960,-0.5 907,-0.5"/>
<text text-anchor="middle" x="933.5" y="-7.5" font-family="Helvetica,sans-Serif" font-size="10.00">stdlib.h</text>
</a>
</g>
</g>
<!-- Node5&#45;&gt;Node12 -->
<g id="edge11" class="edge">
<title>Node5&#45;&gt;Node12</title>
<path fill="none" stroke="midnightblue" d="M367.21,-58.14C372.01,-57.34 376.86,-56.6 381.5,-56 574.82,-30.78 808.18,-17.28 896.89,-12.76"/>
<polygon fill="midnightblue" stroke="midnightblue" points="897.16,-16.25 906.98,-12.25 896.81,-9.26 897.16,-16.25"/>
</g>
<!-- Node13 -->
<g id="node13" class="node">
<title>Node13</title>
<g id="a_node13"><a xlink:title=" ">
<polygon fill="none" stroke="#bfbfbf" points="0,-0.5 0,-19.5 53,-19.5 53,-0.5 0,-0.5"/>
<text text-anchor="middle" x="26.5" y="-7.5" font-family="Helvetica,sans-Serif" font-size="10.00">string.h</text>
</a>
</g>
</g>
<!-- Node5&#45;&gt;Node13 -->
<g id="edge12" class="edge">
<title>Node5&#45;&gt;Node13</title>
<path fill="none" stroke="midnightblue" d="M295.92,-58.7C237.66,-48.39 122.51,-28 63.4,-17.53"/>
<polygon fill="midnightblue" stroke="midnightblue" points="63.85,-14.06 53.39,-15.76 62.62,-20.95 63.85,-14.06"/>
</g>
<!-- Node14 -->
<g id="node14" class="node">
<title>Node14</title>
<g id="a_node14"><a xlink:title=" ">
<polygon fill="none" stroke="#bfbfbf" points="285.5,-0.5 285.5,-19.5 341.5,-19.5 341.5,-0.5 285.5,-0.5"/>
<text text-anchor="middle" x="313.5" y="-7.5" font-family="Helvetica,sans-Serif" font-size="10.00">unistd.h</text>
</a>
</g>
</g>
<!-- Node5&#45;&gt;Node14 -->
<g id="edge13" class="edge">
<title>Node5&#45;&gt;Node14</title>
<path fill="none" stroke="midnightblue" d="M328.53,-56.08C326.12,-48.85 322.64,-38.41 319.63,-29.4"/>
<polygon fill="midnightblue" stroke="midnightblue" points="322.9,-28.13 316.42,-19.75 316.26,-30.34 322.9,-28.13"/>
</g>
<!-- Node15&#45;&gt;Node2 -->
<g id="edge15" class="edge">
<title>Node15&#45;&gt;Node2</title>
<path fill="none" stroke="midnightblue" d="M932.53,-623.49C1139.21,-613 2308.5,-547.28 2308.5,-403 2308.5,-403 2308.5,-403 2308.5,-345 2308.5,-263.13 2318.5,-222.6 2257.5,-168 2167.89,-87.8 2017.72,-71.11 1948.92,-67.76"/>
<polygon fill="midnightblue" stroke="midnightblue" points="1948.74,-64.25 1938.6,-67.33 1948.45,-71.24 1948.74,-64.25"/>
</g>
<!-- Node15&#45;&gt;Node5 -->
<g id="edge20" class="edge">
<title>Node15&#45;&gt;Node5</title>
<path fill="none" stroke="midnightblue" d="M870.13,-625.1C752.97,-625.13 341.44,-622.18 218.5,-580 169.76,-563.28 122.5,-566.53 122.5,-515 122.5,-515 122.5,-515 122.5,-177 122.5,-103.94 223.76,-79.29 285.31,-71.06"/>
<polygon fill="midnightblue" stroke="midnightblue" points="286.08,-74.49 295.57,-69.79 285.22,-67.54 286.08,-74.49"/>
</g>
<!-- Node15&#45;&gt;Node12 -->
<g id="edge16" class="edge">
<title>Node15&#45;&gt;Node12</title>
<path fill="none" stroke="midnightblue" d="M870.35,-624.48C744.32,-622.17 276.17,-611.53 218.5,-580 105.56,-518.25 46.5,-475.71 46.5,-347 46.5,-347 46.5,-347 46.5,-121 46.5,-33.84 729.75,-14.94 896.92,-11.62"/>
<polygon fill="midnightblue" stroke="midnightblue" points="897.02,-15.12 906.95,-11.43 896.89,-8.12 897.02,-15.12"/>
</g>
<!-- Node15&#45;&gt;Node13 -->
<g id="edge17" class="edge">
<title>Node15&#45;&gt;Node13</title>
<path fill="none" stroke="midnightblue" d="M870.36,-624.66C736.29,-622.98 212.08,-614.26 147.5,-580 40.98,-523.49 8.5,-467.58 8.5,-347 8.5,-347 8.5,-347 8.5,-121 8.5,-88.54 16.23,-51.38 21.56,-29.63"/>
<polygon fill="midnightblue" stroke="midnightblue" points="24.99,-30.32 24.07,-19.76 18.21,-28.59 24.99,-30.32"/>
</g>
<!-- Node16 -->
<g id="node16" class="node">
<title>Node16</title>
<g id="a_node16"><a xlink:title=" ">
<polygon fill="none" stroke="#bfbfbf" points="896.5,-112.5 896.5,-131.5 964.5,-131.5 964.5,-112.5 896.5,-112.5"/>
<text text-anchor="middle" x="930.5" y="-119.5" font-family="Helvetica,sans-Serif" font-size="10.00">petscsys.h</text>
</a>
</g>
</g>
<!-- Node15&#45;&gt;Node16 -->
<g id="edge18" class="edge">
<title>Node15&#45;&gt;Node16</title>
<path fill="none" stroke="midnightblue" d="M870.28,-623.77C768.99,-619.58 450.3,-604.72 350.5,-580 279.18,-562.34 198.5,-588.47 198.5,-515 198.5,-515 198.5,-515 198.5,-401 198.5,-229 345.51,-225.83 507.5,-168 576.47,-143.38 792.43,-129.9 886.25,-125.07"/>
<polygon fill="midnightblue" stroke="midnightblue" points="886.46,-128.57 896.27,-124.57 886.11,-121.58 886.46,-128.57"/>
</g>
<!-- Node17 -->
<g id="node17" class="node">
<title>Node17</title>
<g id="a_node17"><a xlink:title=" ">
<polygon fill="none" stroke="#bfbfbf" points="949,-560.5 949,-579.5 1002,-579.5 1002,-560.5 949,-560.5"/>
<text text-anchor="middle" x="975.5" y="-567.5" font-family="Helvetica,sans-Serif" font-size="10.00">ctype.h</text>
</a>
</g>
</g>
<!-- Node15&#45;&gt;Node17 -->
<g id="edge19" class="edge">
<title>Node15&#45;&gt;Node17</title>
<path fill="none" stroke="midnightblue" d="M913.39,-616.32C924.65,-608.11 941.79,-595.6 955.21,-585.81"/>
<polygon fill="midnightblue" stroke="midnightblue" points="957.38,-588.56 963.39,-579.83 953.25,-582.9 957.38,-588.56"/>
</g>
<!-- Node18 -->
<g id="node18" class="node">
<title>Node18</title>
<g id="a_node18"><a xlink:href="AnalyticalSolution_8h.html" target="_top" xlink:title=" ">
<polygon fill="none" stroke="black" points="1053.5,-560.5 1053.5,-579.5 1167.5,-579.5 1167.5,-560.5 1053.5,-560.5"/>
<text text-anchor="middle" x="1110.5" y="-567.5" font-family="Helvetica,sans-Serif" font-size="10.00">AnalyticalSolution.h</text>
</a>
</g>
</g>
<!-- Node15&#45;&gt;Node18 -->
<g id="edge21" class="edge">
<title>Node15&#45;&gt;Node18</title>
<path fill="none" stroke="midnightblue" d="M929.53,-616.44C963.63,-607.1 1021.47,-592.12 1062.64,-581.93"/>
<polygon fill="midnightblue" stroke="midnightblue" points="1063.58,-585.3 1072.46,-579.52 1061.91,-578.51 1063.58,-585.3"/>
</g>
<!-- Node26 -->
<g id="node26" class="node">
<title>Node26</title>
<g id="a_node26"><a xlink:href="Boundaries_8h.html" target="_top" xlink:title=" ">
<polygon fill="none" stroke="black" points="1020.5,-280.5 1020.5,-299.5 1100.5,-299.5 1100.5,-280.5 1020.5,-280.5"/>
<text text-anchor="middle" x="1060.5" y="-287.5" font-family="Helvetica,sans-Serif" font-size="10.00">Boundaries.h</text>
</a>
</g>
</g>
<!-- Node15&#45;&gt;Node26 -->
<g id="edge144" class="edge">
<title>Node15&#45;&gt;Node26</title>
<path fill="none" stroke="midnightblue" d="M870.44,-624.16C767.7,-620.45 446.5,-601.63 446.5,-515 446.5,-515 446.5,-515 446.5,-457 446.5,-341.33 862.98,-303.33 1009.98,-293.74"/>
<polygon fill="midnightblue" stroke="midnightblue" points="1010.33,-297.22 1020.08,-293.1 1009.88,-290.24 1010.33,-297.22"/>
</g>
<!-- Node18&#45;&gt;Node1 -->
<g id="edge138" class="edge">
<title>Node18&#45;&gt;Node1</title>
<path fill="none" stroke="midnightblue" d="M1167.65,-577.68C1335.25,-597.27 1824.29,-654.44 1993.27,-674.19"/>
<polygon fill="midnightblue" stroke="midnightblue" points="1992.88,-677.67 2003.22,-675.36 1993.69,-670.72 1992.88,-677.67"/>
</g>
<!-- Node18&#45;&gt;Node4 -->
<g id="edge26" class="edge">
<title>Node18&#45;&gt;Node4</title>
<path fill="none" stroke="midnightblue" d="M1167.7,-567.62C1312.95,-563.75 1693.28,-551.26 1816.5,-524 1922.23,-500.61 2270.5,-455.29 2270.5,-347 2270.5,-347 2270.5,-347 2270.5,-233 2270.5,-156.41 2158.63,-132.98 2099.37,-125.94"/>
<polygon fill="midnightblue" stroke="midnightblue" points="2099.62,-122.45 2089.3,-124.84 2098.86,-129.41 2099.62,-122.45"/>
</g>
<!-- Node18&#45;&gt;Node5 -->
<g id="edge29" class="edge">
<title>Node18&#45;&gt;Node5</title>
<path fill="none" stroke="midnightblue" d="M1053.46,-563.6C1039.72,-562.36 1025.09,-561.09 1011.5,-560 779.25,-541.45 716.33,-572.77 488.5,-524 418.1,-508.93 397.09,-506.89 336.5,-468 243.14,-408.08 160.5,-401.94 160.5,-291 160.5,-291 160.5,-291 160.5,-177 160.5,-117.27 235.22,-88.44 285.87,-75.76"/>
<polygon fill="midnightblue" stroke="midnightblue" points="286.73,-79.15 295.65,-73.43 285.11,-72.34 286.73,-79.15"/>
</g>
<!-- Node18&#45;&gt;Node10 -->
<g id="edge23" class="edge">
<title>Node18&#45;&gt;Node10</title>
<path fill="none" stroke="midnightblue" d="M1167.74,-568.88C1295.89,-567.9 1615.35,-561.53 1879.5,-524 1990.52,-508.23 2022.56,-512.47 2125.5,-468 2330.5,-379.45 2536.5,-402.3 2536.5,-179 2536.5,-179 2536.5,-179 2536.5,-121 2536.5,-54.95 2054.31,-23.23 1881.34,-13.97"/>
<polygon fill="midnightblue" stroke="midnightblue" points="1881.3,-10.47 1871.13,-13.43 1880.93,-17.46 1881.3,-10.47"/>
</g>
<!-- Node18&#45;&gt;Node12 -->
<g id="edge24" class="edge">
<title>Node18&#45;&gt;Node12</title>
<path fill="none" stroke="midnightblue" d="M1053.42,-563.8C927.48,-552.3 636.48,-525.61 631.5,-524 468.5,-471.22 470.13,-357.1 442.5,-188 428.45,-101.99 505.81,-86.37 587.5,-56 694.8,-16.11 832.23,-10.59 896.84,-10.44"/>
<polygon fill="midnightblue" stroke="midnightblue" points="896.92,-13.94 906.93,-10.45 896.94,-6.94 896.92,-13.94"/>
</g>
<!-- Node18&#45;&gt;Node15 -->
<g id="edge140" class="edge">
<title>Node18&#45;&gt;Node15</title>
<path fill="none" stroke="midnightblue" d="M1082.46,-579.56C1046.38,-589.44 983.78,-605.63 942.41,-615.78"/>
<polygon fill="midnightblue" stroke="midnightblue" points="941.53,-612.39 932.64,-618.16 943.19,-619.19 941.53,-612.39"/>
</g>
<!-- Node19 -->
<g id="node19" class="node">
<title>Node19</title>
<g id="a_node19"><a xlink:title=" ">
<polygon fill="none" stroke="#bfbfbf" points="603,-168.5 603,-187.5 664,-187.5 664,-168.5 603,-168.5"/>
<text text-anchor="middle" x="633.5" y="-175.5" font-family="Helvetica,sans-Serif" font-size="10.00">petscpf.h</text>
</a>
</g>
</g>
<!-- Node18&#45;&gt;Node19 -->
<g id="edge22" class="edge">
<title>Node18&#45;&gt;Node19</title>
<path fill="none" stroke="midnightblue" d="M1053.5,-563.97C909.14,-550.45 540.5,-510.87 540.5,-459 540.5,-459 540.5,-459 540.5,-401 540.5,-322.01 514.14,-290.67 556.5,-224 565.92,-209.17 582.11,-198.65 597.23,-191.53"/>
<polygon fill="midnightblue" stroke="midnightblue" points="598.65,-194.72 606.43,-187.52 595.86,-188.31 598.65,-194.72"/>
</g>
<!-- Node20 -->
<g id="node20" class="node">
<title>Node20</title>
<g id="a_node20"><a xlink:title=" ">
<polygon fill="none" stroke="#bfbfbf" points="720.5,-168.5 720.5,-187.5 768.5,-187.5 768.5,-168.5 720.5,-168.5"/>
<text text-anchor="middle" x="744.5" y="-175.5" font-family="Helvetica,sans-Serif" font-size="10.00">time.h</text>
</a>
</g>
</g>
<!-- Node18&#45;&gt;Node20 -->
<g id="edge25" class="edge">
<title>Node18&#45;&gt;Node20</title>
<path fill="none" stroke="midnightblue" d="M1069.27,-560.47C1042.82,-553.62 1008.65,-542.09 982.5,-524 876.79,-450.85 871.51,-406.49 799.5,-300 783.19,-275.88 777.61,-270.48 765.5,-244 758.56,-228.83 752.91,-210.72 749.22,-197.47"/>
<polygon fill="midnightblue" stroke="midnightblue" points="752.57,-196.41 746.61,-187.65 745.8,-198.22 752.57,-196.41"/>
</g>
<!-- Node21 -->
<g id="node21" class="node">
<title>Node21</title>
<g id="a_node21"><a xlink:title=" ">
<polygon fill="none" stroke="#bfbfbf" points="1510.5,-168.5 1510.5,-187.5 1584.5,-187.5 1584.5,-168.5 1510.5,-168.5"/>
<text text-anchor="middle" x="1547.5" y="-175.5" font-family="Helvetica,sans-Serif" font-size="10.00">petsctime.h</text>
</a>
</g>
</g>
<!-- Node18&#45;&gt;Node21 -->
<g id="edge27" class="edge">
<title>Node18&#45;&gt;Node21</title>
<path fill="none" stroke="midnightblue" d="M1167.84,-562.12C1212.2,-555.61 1274.61,-543.8 1326.5,-524 1419.52,-488.51 1450.26,-482.55 1520.5,-412 1575.12,-357.14 1563.05,-321.34 1566.5,-244 1566.9,-235.12 1568.26,-232.71 1566.5,-224 1564.61,-214.65 1560.71,-204.83 1556.93,-196.75"/>
<polygon fill="midnightblue" stroke="midnightblue" points="1559.97,-195.01 1552.38,-187.63 1553.71,-198.14 1559.97,-195.01"/>
</g>
<!-- Node22 -->
<g id="node22" class="node">
<title>Node22</title>
<g id="a_node22"><a xlink:title=" ">
<polygon fill="none" stroke="#bfbfbf" points="1755,-168.5 1755,-187.5 1874,-187.5 1874,-168.5 1755,-168.5"/>
<text text-anchor="middle" x="1814.5" y="-175.5" font-family="Helvetica,sans-Serif" font-size="10.00">petscdmcomposite.h</text>
</a>
</g>
</g>
<!-- Node18&#45;&gt;Node22 -->
<g id="edge28" class="edge">
<title>Node18&#45;&gt;Node22</title>
<path fill="none" stroke="midnightblue" d="M1167.63,-568.92C1324.93,-567.55 1759.82,-555.74 1866.5,-468 1954.23,-395.85 2008.16,-316.68 1942.5,-224 1932.94,-210.5 1895.33,-198.27 1863.33,-189.97"/>
<polygon fill="midnightblue" stroke="midnightblue" points="1864.17,-186.58 1853.62,-187.53 1862.47,-193.37 1864.17,-186.58"/>
</g>
<!-- Node23 -->
<g id="node23" class="node">
<title>Node23</title>
<g id="a_node23"><a xlink:href="ParticleSwarm_8h.html" target="_top" xlink:title="Header file for Particle Motion and migration related functions.">
<polygon fill="none" stroke="black" points="1892.5,-168.5 1892.5,-187.5 1988.5,-187.5 1988.5,-168.5 1892.5,-168.5"/>
<text text-anchor="middle" x="1940.5" y="-175.5" font-family="Helvetica,sans-Serif" font-size="10.00">ParticleSwarm.h</text>
</a>
</g>
</g>
<!-- Node18&#45;&gt;Node23 -->
<g id="edge30" class="edge">
<title>Node18&#45;&gt;Node23</title>
<path fill="none" stroke="midnightblue" d="M1167.67,-567.73C1305.97,-564.24 1655.53,-552.76 1768.5,-524 1883.99,-494.6 1941.58,-469.64 1977.5,-356 1987.71,-323.69 1989.8,-313.29 1983.5,-280 1978.52,-253.73 1972.05,-248.57 1961.5,-224 1957.58,-214.88 1952.94,-204.85 1949.02,-196.59"/>
<polygon fill="midnightblue" stroke="midnightblue" points="1952.17,-195.06 1944.69,-187.55 1945.85,-198.09 1952.17,-195.06"/>
</g>
<!-- Node25 -->
<g id="node25" class="node">
<title>Node25</title>
<g id="a_node25"><a xlink:href="io_8h.html" target="_top" xlink:title="Public interface for data input/output routines.">
<polygon fill="none" stroke="black" points="1043,-336.5 1043,-355.5 1078,-355.5 1078,-336.5 1043,-336.5"/>
<text text-anchor="middle" x="1060.5" y="-343.5" font-family="Helvetica,sans-Serif" font-size="10.00">io.h</text>
</a>
</g>
</g>
<!-- Node18&#45;&gt;Node25 -->
<g id="edge141" class="edge">
<title>Node18&#45;&gt;Node25</title>
<path fill="none" stroke="midnightblue" d="M1092.73,-560.47C1077.11,-552.43 1054.32,-539.36 1037.5,-524 991.54,-482.05 973.18,-471.03 953.5,-412 950.69,-403.57 948.58,-399.4 953.5,-392 970.96,-365.71 1007.11,-354.74 1032.54,-350.19"/>
<polygon fill="midnightblue" stroke="midnightblue" points="1033.36,-353.61 1042.7,-348.61 1032.28,-346.69 1033.36,-353.61"/>
</g>
<!-- Node28 -->
<g id="node28" class="node">
<title>Node28</title>
<g id="a_node28"><a xlink:href="grid_8h.html" target="_top" xlink:title="Public interface for grid, solver, and metric setup routines.">
<polygon fill="none" stroke="black" points="962.5,-392.5 962.5,-411.5 1006.5,-411.5 1006.5,-392.5 962.5,-392.5"/>
<text text-anchor="middle" x="984.5" y="-399.5" font-family="Helvetica,sans-Serif" font-size="10.00">grid.h</text>
</a>
</g>
</g>
<!-- Node18&#45;&gt;Node28 -->
<g id="edge139" class="edge">
<title>Node18&#45;&gt;Node28</title>
<path fill="none" stroke="midnightblue" d="M1098.14,-560.33C1086.71,-551.92 1069.7,-538.34 1057.5,-524 1029.26,-490.81 1005.07,-445.42 992.9,-420.75"/>
<polygon fill="midnightblue" stroke="midnightblue" points="995.95,-419.01 988.44,-411.53 989.65,-422.06 995.95,-419.01"/>
</g>
<!-- Node18&#45;&gt;Node29 -->
<g id="edge142" class="edge">
<title>Node18&#45;&gt;Node29</title>
<path fill="none" stroke="midnightblue" d="M1123.84,-560.37C1158.51,-541.13 1250.83,-494.65 1299.22,-471.93"/>
<polygon fill="midnightblue" stroke="midnightblue" points="1300.97,-474.98 1308.56,-467.59 1298.02,-468.63 1300.97,-474.98"/>
</g>
<!-- Node30 -->
<g id="node30" class="node">
<title>Node30</title>
<g id="a_node30"><a xlink:href="interpolation_8h.html" target="_top" xlink:title=" ">
<polygon fill="none" stroke="black" points="1066.5,-504.5 1066.5,-523.5 1154.5,-523.5 1154.5,-504.5 1066.5,-504.5"/>
<text text-anchor="middle" x="1110.5" y="-511.5" font-family="Helvetica,sans-Serif" font-size="10.00">interpolation.h</text>
</a>
</g>
</g>
<!-- Node18&#45;&gt;Node30 -->
<g id="edge143" class="edge">
<title>Node18&#45;&gt;Node30</title>
<path fill="none" stroke="midnightblue" d="M1110.5,-560.08C1110.5,-553.01 1110.5,-542.86 1110.5,-533.99"/>
<polygon fill="midnightblue" stroke="midnightblue" points="1114,-533.75 1110.5,-523.75 1107,-533.75 1114,-533.75"/>
</g>
<!-- Node23&#45;&gt;Node1 -->
<g id="edge37" class="edge">
<title>Node23&#45;&gt;Node1</title>
<path fill="none" stroke="midnightblue" d="M1953.16,-187.55C1965.38,-196.09 1984.09,-209.93 1998.5,-224 2149.12,-371.12 2230.22,-408.26 2264.5,-616 2265.95,-624.77 2270.1,-629.1 2264.5,-636 2245.34,-659.63 2166.05,-671.34 2109.83,-676.77"/>
<polygon fill="midnightblue" stroke="midnightblue" points="2109.26,-673.31 2099.62,-677.71 2109.9,-680.28 2109.26,-673.31"/>
</g>
<!-- Node23&#45;&gt;Node2 -->
<g id="edge31" class="edge">
<title>Node23&#45;&gt;Node2</title>
<path fill="none" stroke="midnightblue" d="M1938.3,-168.37C1933.78,-150.62 1923.36,-109.67 1917.23,-85.6"/>
<polygon fill="midnightblue" stroke="midnightblue" points="1920.55,-84.42 1914.69,-75.59 1913.76,-86.15 1920.55,-84.42"/>
</g>
<!-- Node23&#45;&gt;Node3 -->
<g id="edge33" class="edge">
<title>Node23&#45;&gt;Node3</title>
<path fill="none" stroke="midnightblue" d="M1929.09,-168.32C1918.39,-160.18 1902.16,-147.84 1889.34,-138.09"/>
<polygon fill="midnightblue" stroke="midnightblue" points="1891.19,-135.1 1881.11,-131.83 1886.96,-140.67 1891.19,-135.1"/>
</g>
<!-- Node23&#45;&gt;Node4 -->
<g id="edge34" class="edge">
<title>Node23&#45;&gt;Node4</title>
<path fill="none" stroke="midnightblue" d="M1959.99,-168.44C1980.14,-159.6 2011.82,-145.69 2034.83,-135.59"/>
<polygon fill="midnightblue" stroke="midnightblue" points="2036.35,-138.74 2044.1,-131.52 2033.54,-132.33 2036.35,-138.74"/>
</g>
<!-- Node23&#45;&gt;Node5 -->
<g id="edge35" class="edge">
<title>Node23&#45;&gt;Node5</title>
<path fill="none" stroke="midnightblue" d="M1892.43,-169.18C1804.03,-155.14 1609.58,-125.84 1444.5,-112 1031.41,-77.37 529.76,-69.18 377.48,-67.44"/>
<polygon fill="midnightblue" stroke="midnightblue" points="377.17,-63.93 367.13,-67.32 377.09,-70.93 377.17,-63.93"/>
</g>
<!-- Node23&#45;&gt;Node10 -->
<g id="edge32" class="edge">
<title>Node23&#45;&gt;Node10</title>
<path fill="none" stroke="midnightblue" d="M1944.32,-168.39C1953.12,-147.08 1972.27,-91.06 1947.5,-56 1932.25,-34.41 1905.71,-23.11 1880.83,-17.23"/>
<polygon fill="midnightblue" stroke="midnightblue" points="1881.55,-13.8 1871.04,-15.16 1880.1,-20.65 1881.55,-13.8"/>
</g>
<!-- Node23&#45;&gt;Node15 -->
<g id="edge36" class="edge">
<title>Node23&#45;&gt;Node15</title>
<path fill="none" stroke="midnightblue" d="M1949.7,-187.5C1958.42,-196.01 1971.38,-209.83 1979.5,-224 1992.57,-246.8 1994.22,-254.07 1998.5,-280 2012.94,-367.52 2006.55,-420.72 1931.5,-468 1761.82,-574.89 1113.36,-614.4 942.8,-623.06"/>
<polygon fill="midnightblue" stroke="midnightblue" points="942.54,-619.57 932.73,-623.56 942.89,-626.56 942.54,-619.57"/>
</g>
<!-- Node24 -->
<g id="node24" class="node">
<title>Node24</title>
<g id="a_node24"><a xlink:href="Metric_8h.html" target="_top" xlink:title=" ">
<polygon fill="none" stroke="black" points="1312.5,-112.5 1312.5,-131.5 1368.5,-131.5 1368.5,-112.5 1312.5,-112.5"/>
<text text-anchor="middle" x="1340.5" y="-119.5" font-family="Helvetica,sans-Serif" font-size="10.00">Metric.h</text>
</a>
</g>
</g>
<!-- Node23&#45;&gt;Node24 -->
<g id="edge38" class="edge">
<title>Node23&#45;&gt;Node24</title>
<path fill="none" stroke="midnightblue" d="M1892.33,-169.14C1889.35,-168.73 1886.38,-168.35 1883.5,-168 1694.65,-145.3 1467.47,-130.5 1378.68,-125.19"/>
<polygon fill="midnightblue" stroke="midnightblue" points="1378.74,-121.69 1368.55,-124.59 1378.33,-128.68 1378.74,-121.69"/>
</g>
<!-- Node23&#45;&gt;Node25 -->
<g id="edge137" class="edge">
<title>Node23&#45;&gt;Node25</title>
<path fill="none" stroke="midnightblue" d="M1896.1,-187.51C1831.03,-199.97 1705.95,-223.88 1599.5,-244 1403.83,-280.98 1168.09,-324.96 1088.38,-339.81"/>
<polygon fill="midnightblue" stroke="midnightblue" points="1087.37,-336.43 1078.18,-341.71 1088.66,-343.32 1087.37,-336.43"/>
</g>
<!-- Node24&#45;&gt;Node2 -->
<g id="edge39" class="edge">
<title>Node24&#45;&gt;Node2</title>
<path fill="none" stroke="midnightblue" d="M1368.87,-118.32C1463.78,-109.36 1770.22,-80.43 1876.11,-70.44"/>
<polygon fill="midnightblue" stroke="midnightblue" points="1876.67,-73.9 1886.29,-69.47 1876.01,-66.93 1876.67,-73.9"/>
</g>
<!-- Node24&#45;&gt;Node5 -->
<g id="edge40" class="edge">
<title>Node24&#45;&gt;Node5</title>
<path fill="none" stroke="midnightblue" d="M1312.14,-114.26C1307.6,-113.37 1302.94,-112.57 1298.5,-112 946.41,-66.4 516.94,-65.41 377.54,-66.46"/>
<polygon fill="midnightblue" stroke="midnightblue" points="377.22,-62.97 367.25,-66.55 377.28,-69.97 377.22,-62.97"/>
</g>
<!-- Node24&#45;&gt;Node12 -->
<g id="edge42" class="edge">
<title>Node24&#45;&gt;Node12</title>
<path fill="none" stroke="midnightblue" d="M1312.2,-113.35C1240.26,-93.91 1050.39,-42.59 970.14,-20.9"/>
<polygon fill="midnightblue" stroke="midnightblue" points="970.58,-17.4 960.01,-18.17 968.75,-24.15 970.58,-17.4"/>
</g>
<!-- Node24&#45;&gt;Node15 -->
<g id="edge41" class="edge">
<title>Node24&#45;&gt;Node15</title>
<path fill="none" stroke="midnightblue" d="M1312.46,-123.63C1184.82,-126.66 661.99,-140.65 594.5,-168 538.56,-190.67 388.5,-284.65 388.5,-345 388.5,-515 388.5,-515 388.5,-515 388.5,-568.38 439.18,-562.18 489.5,-580 557.19,-603.97 769.78,-617.92 860.17,-622.9"/>
<polygon fill="midnightblue" stroke="midnightblue" points="860.14,-626.4 870.32,-623.45 860.52,-619.41 860.14,-626.4"/>
</g>
<!-- Node24&#45;&gt;Node25 -->
<g id="edge43" class="edge">
<title>Node24&#45;&gt;Node25</title>
<path fill="none" stroke="midnightblue" d="M1312.19,-122.42C1273.31,-123.15 1203.35,-130.15 1160.5,-168 1113.36,-209.64 1144.92,-248.03 1109.5,-300 1101.75,-311.37 1090.61,-321.9 1080.9,-329.91"/>
<polygon fill="midnightblue" stroke="midnightblue" points="1078.54,-327.31 1072.87,-336.26 1082.88,-332.81 1078.54,-327.31"/>
</g>
<!-- Node24&#45;&gt;Node29 -->
<g id="edge136" class="edge">
<title>Node24&#45;&gt;Node29</title>
<path fill="none" stroke="midnightblue" d="M1340.22,-131.54C1338.78,-175.33 1332.19,-375.23 1330.12,-438.05"/>
<polygon fill="midnightblue" stroke="midnightblue" points="1326.61,-438.3 1329.78,-448.41 1333.61,-438.53 1326.61,-438.3"/>
</g>
<!-- Node25&#45;&gt;Node5 -->
<g id="edge44" class="edge">
<title>Node25&#45;&gt;Node5</title>
<path fill="none" stroke="midnightblue" d="M1042.83,-338.1C1002.83,-322.37 902.44,-282.22 820.5,-244 771.14,-220.98 759.82,-213.13 711.5,-188 694.57,-179.19 691.18,-175.18 673.5,-168 570.38,-126.12 443.44,-93.25 376.98,-77.39"/>
<polygon fill="midnightblue" stroke="midnightblue" points="377.78,-73.98 367.24,-75.08 376.16,-80.79 377.78,-73.98"/>
</g>
<!-- Node25&#45;&gt;Node15 -->
<g id="edge45" class="edge">
<title>Node25&#45;&gt;Node15</title>
<path fill="none" stroke="midnightblue" d="M1042.94,-348.87C1017.71,-352.53 971.51,-362.99 946.5,-392 892.42,-454.73 895.53,-562.63 899.35,-606.06"/>
<polygon fill="midnightblue" stroke="midnightblue" points="895.88,-606.49 900.36,-616.09 902.84,-605.79 895.88,-606.49"/>
</g>
<!-- Node25&#45;&gt;Node26 -->
<g id="edge46" class="edge">
<title>Node25&#45;&gt;Node26</title>
<path fill="none" stroke="midnightblue" d="M1055.33,-336.08C1053.82,-328.93 1053.39,-318.64 1054.04,-309.69"/>
<polygon fill="midnightblue" stroke="midnightblue" points="1057.52,-310.13 1055.37,-299.75 1050.58,-309.2 1057.52,-310.13"/>
</g>
<!-- Node26&#45;&gt;Node1 -->
<g id="edge58" class="edge">
<title>Node26&#45;&gt;Node1</title>
<path fill="none" stroke="midnightblue" d="M1020.4,-290.7C940.08,-291.02 754.29,-296.43 604.5,-336 545.25,-351.65 528.36,-356.38 478.5,-392 440.12,-419.42 296.73,-520.01 350.5,-580 406.52,-642.49 1700.02,-673.56 1992.91,-679.81"/>
<polygon fill="midnightblue" stroke="midnightblue" points="1993.23,-683.31 2003.3,-680.03 1993.38,-676.32 1993.23,-683.31"/>
</g>
<!-- Node26&#45;&gt;Node4 -->
<g id="edge51" class="edge">
<title>Node26&#45;&gt;Node4</title>
<path fill="none" stroke="midnightblue" d="M1100.76,-288.31C1258.81,-285.05 1835.95,-267.79 1997.5,-188 2019.92,-176.93 2039.45,-155.33 2051.33,-140.07"/>
<polygon fill="midnightblue" stroke="midnightblue" points="2054.22,-142.05 2057.41,-131.95 2048.62,-137.86 2054.22,-142.05"/>
</g>
<!-- Node26&#45;&gt;Node5 -->
<g id="edge56" class="edge">
<title>Node26&#45;&gt;Node5</title>
<path fill="none" stroke="midnightblue" d="M1057.52,-280.29C1046.16,-247.58 1004.61,-132.92 973.5,-112 924.36,-78.96 516.42,-69.78 377.57,-67.6"/>
<polygon fill="midnightblue" stroke="midnightblue" points="377.32,-64.1 367.27,-67.45 377.22,-71.1 377.32,-64.1"/>
</g>
<!-- Node26&#45;&gt;Node10 -->
<g id="edge48" class="edge">
<title>Node26&#45;&gt;Node10</title>
<path fill="none" stroke="midnightblue" d="M1066.34,-280.31C1077.88,-262.26 1102.5,-219.07 1102.5,-179 1102.5,-179 1102.5,-179 1102.5,-121 1102.5,-54.77 1586.03,-23.16 1759.49,-13.95"/>
<polygon fill="midnightblue" stroke="midnightblue" points="1759.92,-17.44 1769.73,-13.42 1759.56,-10.45 1759.92,-17.44"/>
</g>
<!-- Node26&#45;&gt;Node12 -->
<g id="edge49" class="edge">
<title>Node26&#45;&gt;Node12</title>
<path fill="none" stroke="midnightblue" d="M1061.02,-280.45C1062.11,-261.95 1064.5,-216.84 1064.5,-179 1064.5,-179 1064.5,-179 1064.5,-121 1064.5,-71.04 1007.92,-39.23 969.13,-23.3"/>
<polygon fill="midnightblue" stroke="midnightblue" points="970.28,-20 959.69,-19.59 967.72,-26.51 970.28,-20"/>
</g>
<!-- Node26&#45;&gt;Node15 -->
<g id="edge107" class="edge">
<title>Node26&#45;&gt;Node15</title>
<path fill="none" stroke="midnightblue" d="M1020.26,-293.56C886.28,-302.85 464.5,-340.6 464.5,-457 464.5,-515 464.5,-515 464.5,-515 464.5,-596.81 750.97,-618.14 860.1,-623.39"/>
<polygon fill="midnightblue" stroke="midnightblue" points="860.24,-626.9 870.39,-623.86 860.56,-619.91 860.24,-626.9"/>
</g>
<!-- Node26&#45;&gt;Node16 -->
<g id="edge53" class="edge">
<title>Node26&#45;&gt;Node16</title>
<path fill="none" stroke="midnightblue" d="M1049.93,-280.3C1039.76,-271.65 1024.22,-257.73 1012.5,-244 983.25,-209.73 955.13,-164.8 940.64,-140.48"/>
<polygon fill="midnightblue" stroke="midnightblue" points="943.55,-138.52 935.46,-131.68 937.52,-142.07 943.55,-138.52"/>
</g>
<!-- Node26&#45;&gt;Node18 -->
<g id="edge110" class="edge">
<title>Node26&#45;&gt;Node18</title>
<path fill="none" stroke="midnightblue" d="M1020.98,-299.52C999.8,-306.06 974.96,-317.27 959.5,-336 937.69,-362.43 941.19,-378.15 946.5,-412 955.38,-468.64 964.96,-489.17 1010.5,-524 1029.26,-538.35 1053.31,-549.36 1073.13,-556.89"/>
<polygon fill="midnightblue" stroke="midnightblue" points="1072.17,-560.27 1082.77,-560.42 1074.58,-553.7 1072.17,-560.27"/>
</g>
<!-- Node26&#45;&gt;Node19 -->
<g id="edge47" class="edge">
<title>Node26&#45;&gt;Node19</title>
<path fill="none" stroke="midnightblue" d="M1020.17,-283.32C972.15,-276.13 889.74,-262.41 820.5,-244 764.48,-229.1 701.12,-205.62 664.39,-191.34"/>
<polygon fill="midnightblue" stroke="midnightblue" points="665.36,-187.96 654.77,-187.56 662.81,-194.47 665.36,-187.96"/>
</g>
<!-- Node26&#45;&gt;Node20 -->
<g id="edge50" class="edge">
<title>Node26&#45;&gt;Node20</title>
<path fill="none" stroke="midnightblue" d="M1020.31,-283.15C979.82,-276.5 915.99,-263.89 863.5,-244 844.43,-236.77 796.67,-209.56 767.79,-192.72"/>
<polygon fill="midnightblue" stroke="midnightblue" points="769.53,-189.68 759.13,-187.65 765.99,-195.73 769.53,-189.68"/>
</g>
<!-- Node26&#45;&gt;Node21 -->
<g id="edge52" class="edge">
<title>Node26&#45;&gt;Node21</title>
<path fill="none" stroke="midnightblue" d="M1091.89,-280.42C1140.03,-267.41 1235.07,-242.26 1316.5,-224 1379.83,-209.8 1453.5,-195.9 1500.3,-187.39"/>
<polygon fill="midnightblue" stroke="midnightblue" points="1500.94,-190.83 1510.16,-185.61 1499.69,-183.94 1500.94,-190.83"/>
</g>
<!-- Node26&#45;&gt;Node22 -->
<g id="edge54" class="edge">
<title>Node26&#45;&gt;Node22</title>
<path fill="none" stroke="midnightblue" d="M1100.78,-285.25C1172.08,-278.42 1325.09,-262.89 1453.5,-244 1511.6,-235.45 1673.38,-205.48 1759.28,-189.39"/>
<polygon fill="midnightblue" stroke="midnightblue" points="1759.93,-192.83 1769.11,-187.55 1758.64,-185.95 1759.93,-192.83"/>
</g>
<!-- Node26&#45;&gt;Node23 -->
<g id="edge57" class="edge">
<title>Node26&#45;&gt;Node23</title>
<path fill="none" stroke="midnightblue" d="M1100.54,-285.95C1180.9,-279.63 1367.5,-264.04 1523.5,-244 1579.3,-236.83 1592.92,-232.7 1648.5,-224 1749.73,-208.15 1777.43,-204.46 1882.25,-188.19"/>
<polygon fill="midnightblue" stroke="midnightblue" points="1882.96,-191.62 1892.3,-186.63 1881.88,-184.7 1882.96,-191.62"/>
</g>
<!-- Node26&#45;&gt;Node25 -->
<g id="edge108" class="edge">
<title>Node26&#45;&gt;Node25</title>
<path fill="none" stroke="midnightblue" d="M1065.63,-299.75C1067.16,-306.86 1067.6,-317.14 1066.97,-326.1"/>
<polygon fill="midnightblue" stroke="midnightblue" points="1063.49,-325.71 1065.67,-336.08 1070.43,-326.62 1063.49,-325.71"/>
</g>
<!-- Node27 -->
<g id="node27" class="node">
<title>Node27</title>
<g id="a_node27"><a xlink:title=" ">
<polygon fill="none" stroke="#bfbfbf" points="1169,-168.5 1169,-187.5 1264,-187.5 1264,-168.5 1169,-168.5"/>
<text text-anchor="middle" x="1216.5" y="-175.5" font-family="Helvetica,sans-Serif" font-size="10.00">petscsystypes.h</text>
</a>
</g>
</g>
<!-- Node26&#45;&gt;Node27 -->
<g id="edge55" class="edge">
<title>Node26&#45;&gt;Node27</title>
<path fill="none" stroke="midnightblue" d="M1072.74,-280.37C1099.4,-261.57 1162.94,-216.77 1195.89,-193.53"/>
<polygon fill="midnightblue" stroke="midnightblue" points="1198.16,-196.21 1204.32,-187.59 1194.13,-190.49 1198.16,-196.21"/>
</g>
<!-- Node26&#45;&gt;Node28 -->
<g id="edge59" class="edge">
<title>Node26&#45;&gt;Node28</title>
<path fill="none" stroke="midnightblue" d="M1054.56,-299.59C1042.05,-317.71 1012.75,-360.12 996.28,-383.96"/>
<polygon fill="midnightblue" stroke="midnightblue" points="993.27,-382.15 990.46,-392.37 999.03,-386.13 993.27,-382.15"/>
</g>
<!-- Node26&#45;&gt;Node30 -->
<g id="edge109" class="edge">
<title>Node26&#45;&gt;Node30</title>
<path fill="none" stroke="midnightblue" d="M1041.77,-299.63C1004.85,-317.92 928.35,-362.97 953.5,-412 977.4,-458.59 1033.67,-486.6 1071.93,-500.93"/>
<polygon fill="midnightblue" stroke="midnightblue" points="1071.12,-504.36 1081.72,-504.44 1073.49,-497.77 1071.12,-504.36"/>
</g>
<!-- Node32 -->
<g id="node32" class="node">
<title>Node32</title>
<g id="a_node32"><a xlink:href="ParticleMotion_8h.html" target="_top" xlink:title=" ">
<polygon fill="none" stroke="black" points="1602.5,-168.5 1602.5,-187.5 1698.5,-187.5 1698.5,-168.5 1602.5,-168.5"/>
<text text-anchor="middle" x="1650.5" y="-175.5" font-family="Helvetica,sans-Serif" font-size="10.00">ParticleMotion.h</text>
</a>
</g>
</g>
<!-- Node26&#45;&gt;Node32 -->
<g id="edge111" class="edge">
<title>Node26&#45;&gt;Node32</title>
<path fill="none" stroke="midnightblue" d="M1100.54,-282.95C1146.91,-275.53 1225.4,-261.74 1291.5,-244 1317.84,-236.93 1323.01,-230.46 1349.5,-224 1452.88,-198.78 1483.36,-204.19 1592.23,-188.16"/>
<polygon fill="midnightblue" stroke="midnightblue" points="1592.93,-191.59 1602.3,-186.65 1591.89,-184.67 1592.93,-191.59"/>
</g>
<!-- Node33 -->
<g id="node33" class="node">
<title>Node33</title>
<g id="a_node33"><a xlink:href="BC__Handlers_8h.html" target="_top" xlink:title=" ">
<polygon fill="none" stroke="black" points="872.5,-224.5 872.5,-243.5 960.5,-243.5 960.5,-224.5 872.5,-224.5"/>
<text text-anchor="middle" x="916.5" y="-231.5" font-family="Helvetica,sans-Serif" font-size="10.00">BC_Handlers.h</text>
</a>
</g>
</g>
<!-- Node26&#45;&gt;Node33 -->
<g id="edge112" class="edge">
<title>Node26&#45;&gt;Node33</title>
<path fill="none" stroke="midnightblue" d="M1032.59,-280.44C1006.83,-271.52 969.06,-257.44 943.57,-247.32"/>
<polygon fill="midnightblue" stroke="midnightblue" points="944.71,-244 934.13,-243.52 942.1,-250.5 944.71,-244"/>
</g>
<!-- Node34 -->
<g id="node34" class="node">
<title>Node34</title>
<g id="a_node34"><a xlink:href="wallfunction_8h.html" target="_top" xlink:title=" ">
<polygon fill="none" stroke="black" points="1358.5,-224.5 1358.5,-243.5 1444.5,-243.5 1444.5,-224.5 1358.5,-224.5"/>
<text text-anchor="middle" x="1401.5" y="-231.5" font-family="Helvetica,sans-Serif" font-size="10.00">wallfunction.h</text>
</a>
</g>
</g>
<!-- Node26&#45;&gt;Node34 -->
<g id="edge116" class="edge">
<title>Node26&#45;&gt;Node34</title>
<path fill="none" stroke="midnightblue" d="M1100.68,-281.88C1162.22,-271.72 1279.58,-253.13 1348.16,-242.67"/>
<polygon fill="midnightblue" stroke="midnightblue" points="1348.96,-246.09 1358.32,-241.13 1347.91,-239.17 1348.96,-246.09"/>
</g>
<!-- Node28&#45;&gt;Node5 -->
<g id="edge60" class="edge">
<title>Node28&#45;&gt;Node5</title>
<path fill="none" stroke="midnightblue" d="M962.4,-398.65C859.65,-387.29 429.75,-334.9 336.5,-244 293.61,-202.19 313.11,-121.49 324.88,-85.32"/>
<polygon fill="midnightblue" stroke="midnightblue" points="328.27,-86.21 328.2,-75.62 321.65,-83.94 328.27,-86.21"/>
</g>
<!-- Node28&#45;&gt;Node15 -->
<g id="edge61" class="edge">
<title>Node28&#45;&gt;Node15</title>
<path fill="none" stroke="midnightblue" d="M980.21,-411.66C968.75,-435.08 936.93,-501.81 917.5,-560 912.37,-575.35 908.09,-593.22 905.25,-606.34"/>
<polygon fill="midnightblue" stroke="midnightblue" points="901.76,-605.96 903.14,-616.46 908.61,-607.39 901.76,-605.96"/>
</g>
<!-- Node28&#45;&gt;Node25 -->
<g id="edge62" class="edge">
<title>Node28&#45;&gt;Node25</title>
<path fill="none" stroke="midnightblue" d="M996.71,-392.32C1008.28,-384.11 1025.88,-371.6 1039.66,-361.81"/>
<polygon fill="midnightblue" stroke="midnightblue" points="1041.94,-364.48 1048.07,-355.83 1037.89,-358.77 1041.94,-364.48"/>
</g>
<!-- Node28&#45;&gt;Node29 -->
<g id="edge63" class="edge">
<title>Node28&#45;&gt;Node29</title>
<path fill="none" stroke="midnightblue" d="M1006.66,-405.95C1064.82,-414.41 1221.38,-438.85 1293,-450.57"/>
<polygon fill="midnightblue" stroke="midnightblue" points="1292.49,-454.04 1302.93,-452.21 1293.63,-447.13 1292.49,-454.04"/>
</g>
<!-- Node29&#45;&gt;Node1 -->
<g id="edge75" class="edge">
<title>Node29&#45;&gt;Node1</title>
<path fill="none" stroke="midnightblue" d="M1356.15,-466.39C1467.11,-498.88 1891.43,-629.29 2016.62,-669.28"/>
<polygon fill="midnightblue" stroke="midnightblue" points="2015.86,-672.71 2026.45,-672.43 2018,-666.05 2015.86,-672.71"/>
</g>
<!-- Node29&#45;&gt;Node4 -->
<g id="edge68" class="edge">
<title>Node29&#45;&gt;Node4</title>
<path fill="none" stroke="midnightblue" d="M1356.29,-453.77C1401.22,-447.95 1494.29,-434.23 1570.5,-412 1786.5,-349 1861.44,-343.04 2024.5,-188 2038.62,-174.57 2049.45,-154.94 2056.08,-140.76"/>
<polygon fill="midnightblue" stroke="midnightblue" points="2059.3,-142.13 2060.14,-131.57 2052.9,-139.3 2059.3,-142.13"/>
</g>
<!-- Node29&#45;&gt;Node5 -->
<g id="edge73" class="edge">
<title>Node29&#45;&gt;Node5</title>
<path fill="none" stroke="midnightblue" d="M1302.73,-452.86C1257.78,-445.74 1164.43,-430.15 1086.5,-412 1054.57,-404.56 1047.63,-398.54 1015.5,-392 891.69,-366.8 851.86,-400.21 733.5,-356 561.53,-291.76 396.7,-133.56 346.79,-82.89"/>
<polygon fill="midnightblue" stroke="midnightblue" points="349.28,-80.42 339.79,-75.71 344.27,-85.31 349.28,-80.42"/>
</g>
<!-- Node29&#45;&gt;Node10 -->
<g id="edge65" class="edge">
<title>Node29&#45;&gt;Node10</title>
<path fill="none" stroke="midnightblue" d="M1356.4,-455.18C1495.71,-445.17 2133.17,-391.63 2246.5,-244 2350.66,-108.31 2022.03,-41.34 1881.28,-19.4"/>
<polygon fill="midnightblue" stroke="midnightblue" points="1881.49,-15.89 1871.07,-17.83 1880.43,-22.81 1881.49,-15.89"/>
</g>
<!-- Node29&#45;&gt;Node12 -->
<g id="edge66" class="edge">
<title>Node29&#45;&gt;Node12</title>
<path fill="none" stroke="midnightblue" d="M1336.81,-448.44C1359.68,-421.01 1429.75,-331.99 1453.5,-244 1468.32,-189.1 1411.62,-126.39 1397.5,-112 1359.9,-73.7 1341.72,-72.06 1290.5,-56 1177.57,-20.6 1036.27,-12.95 970.44,-11.36"/>
<polygon fill="midnightblue" stroke="midnightblue" points="970.23,-7.86 960.16,-11.15 970.09,-14.86 970.23,-7.86"/>
</g>
<!-- Node29&#45;&gt;Node15 -->
<g id="edge77" class="edge">
<title>Node29&#45;&gt;Node15</title>
<path fill="none" stroke="midnightblue" d="M1321.57,-467.82C1300.5,-490.65 1240.32,-551.83 1176.5,-580 1098.75,-614.32 998.2,-622.73 942.77,-624.63"/>
<polygon fill="midnightblue" stroke="midnightblue" points="942.52,-621.13 932.63,-624.92 942.72,-628.13 942.52,-621.13"/>
</g>
<!-- Node29&#45;&gt;Node16 -->
<g id="edge70" class="edge">
<title>Node29&#45;&gt;Node16</title>
<path fill="none" stroke="midnightblue" d="M1302.61,-449.75C1241.62,-433.3 1097.23,-394.42 1086.5,-392 855.59,-339.89 688.84,-405.11 594.5,-188 590.96,-179.85 588.65,-174.69 594.5,-168 604.03,-157.11 797.3,-136.39 886.32,-127.37"/>
<polygon fill="midnightblue" stroke="midnightblue" points="886.78,-130.84 896.38,-126.36 886.08,-123.88 886.78,-130.84"/>
</g>
<!-- Node29&#45;&gt;Node18 -->
<g id="edge96" class="edge">
<title>Node29&#45;&gt;Node18</title>
<path fill="none" stroke="midnightblue" d="M1316.23,-467.59C1281.64,-486.79 1189.34,-533.27 1140.88,-556.02"/>
<polygon fill="midnightblue" stroke="midnightblue" points="1139.12,-552.98 1131.53,-560.37 1142.07,-559.33 1139.12,-552.98"/>
</g>
<!-- Node29&#45;&gt;Node19 -->
<g id="edge64" class="edge">
<title>Node29&#45;&gt;Node19</title>
<path fill="none" stroke="midnightblue" d="M1302.87,-448.99C1276.47,-440.75 1235.09,-427.04 1200.5,-412 1183,-404.39 1180.5,-398.33 1162.5,-392 1083.48,-364.2 1058.11,-378.77 977.5,-356 840.94,-317.43 790.45,-331.21 678.5,-244 662.31,-231.39 649.69,-211.34 641.98,-196.84"/>
<polygon fill="midnightblue" stroke="midnightblue" points="645.07,-195.2 637.45,-187.85 638.82,-198.35 645.07,-195.2"/>
</g>
<!-- Node29&#45;&gt;Node20 -->
<g id="edge67" class="edge">
<title>Node29&#45;&gt;Node20</title>
<path fill="none" stroke="midnightblue" d="M1311.65,-448.34C1293.25,-439.37 1263.78,-424.9 1238.5,-412 1221.5,-403.32 1218.43,-398.53 1200.5,-392 1129.56,-366.18 1105.47,-381.73 1034.5,-356 933.58,-319.41 909.41,-304.16 820.5,-244 798.42,-229.06 775.48,-208.65 760.66,-194.72"/>
<polygon fill="midnightblue" stroke="midnightblue" points="762.97,-192.08 753.32,-187.71 758.14,-197.15 762.97,-192.08"/>
</g>
<!-- Node29&#45;&gt;Node21 -->
<g id="edge69" class="edge">
<title>Node29&#45;&gt;Node21</title>
<path fill="none" stroke="midnightblue" d="M1356.42,-451.77C1382.2,-445.69 1421.1,-433.62 1448.5,-412 1518.65,-356.65 1539.82,-242.26 1545.56,-197.52"/>
<polygon fill="midnightblue" stroke="midnightblue" points="1549.05,-197.84 1546.73,-187.5 1542.09,-197.03 1549.05,-197.84"/>
</g>
<!-- Node29&#45;&gt;Node22 -->
<g id="edge71" class="edge">
<title>Node29&#45;&gt;Node22</title>
<path fill="none" stroke="midnightblue" d="M1356.05,-453.1C1390.27,-447.37 1451.01,-434.81 1498.5,-412 1625.75,-350.88 1753.93,-236.15 1798.25,-194.56"/>
<polygon fill="midnightblue" stroke="midnightblue" points="1800.67,-197.09 1805.53,-187.68 1795.86,-192 1800.67,-197.09"/>
</g>
<!-- Node29&#45;&gt;Node23 -->
<g id="edge74" class="edge">
<title>Node29&#45;&gt;Node23</title>
<path fill="none" stroke="midnightblue" d="M1356.28,-453.08C1395.2,-446.92 1469.31,-433.42 1529.5,-412 1687.17,-355.89 1727.59,-337.33 1866.5,-244 1888.3,-229.36 1910.57,-208.89 1924.91,-194.86"/>
<polygon fill="midnightblue" stroke="midnightblue" points="1927.38,-197.34 1932,-187.8 1922.44,-192.37 1927.38,-197.34"/>
</g>
<!-- Node29&#45;&gt;Node25 -->
<g id="edge78" class="edge">
<title>Node29&#45;&gt;Node25</title>
<path fill="none" stroke="midnightblue" d="M1320.16,-448.48C1304.46,-434.62 1271.26,-407.18 1238.5,-392 1188.31,-368.74 1124.36,-356.34 1088.38,-350.76"/>
<polygon fill="midnightblue" stroke="midnightblue" points="1088.56,-347.25 1078.16,-349.24 1087.54,-354.17 1088.56,-347.25"/>
</g>
<!-- Node29&#45;&gt;Node26 -->
<g id="edge106" class="edge">
<title>Node29&#45;&gt;Node26</title>
<path fill="none" stroke="midnightblue" d="M1323.32,-448.46C1313.27,-435.04 1292.2,-408.82 1269.5,-392 1213.63,-350.6 1138.12,-319.12 1094.83,-303"/>
<polygon fill="midnightblue" stroke="midnightblue" points="1095.92,-299.67 1085.33,-299.51 1093.51,-306.24 1095.92,-299.67"/>
</g>
<!-- Node29&#45;&gt;Node27 -->
<g id="edge72" class="edge">
<title>Node29&#45;&gt;Node27</title>
<path fill="none" stroke="midnightblue" d="M1325.63,-448.13C1312.99,-419.03 1271.89,-323.81 1240.5,-244 1234.38,-228.43 1227.82,-210.6 1223.12,-197.55"/>
<polygon fill="midnightblue" stroke="midnightblue" points="1226.32,-196.11 1219.64,-187.88 1219.73,-198.47 1226.32,-196.11"/>
</g>
<!-- Node29&#45;&gt;Node28 -->
<g id="edge76" class="edge">
<title>Node29&#45;&gt;Node28</title>
<path fill="none" stroke="midnightblue" d="M1302.73,-453.37C1240,-444.17 1084.39,-419.85 1016.67,-408.72"/>
<polygon fill="midnightblue" stroke="midnightblue" points="1017.02,-405.23 1006.59,-407.05 1015.88,-412.13 1017.02,-405.23"/>
</g>
<!-- Node29&#45;&gt;Node30 -->
<g id="edge79" class="edge">
<title>Node29&#45;&gt;Node30</title>
<path fill="none" stroke="midnightblue" d="M1302.72,-466.82C1267.29,-476.1 1204.48,-491.64 1160.26,-502.1"/>
<polygon fill="midnightblue" stroke="midnightblue" points="1159.22,-498.75 1150.29,-504.44 1160.83,-505.56 1159.22,-498.75"/>
</g>
<!-- Node29&#45;&gt;Node32 -->
<g id="edge97" class="edge">
<title>Node29&#45;&gt;Node32</title>
<path fill="none" stroke="midnightblue" d="M1356.16,-453.56C1386.6,-448.57 1436.81,-437.03 1472.5,-412 1557.38,-352.47 1619.87,-240.18 1641.87,-196.76"/>
<polygon fill="midnightblue" stroke="midnightblue" points="1645.05,-198.22 1646.37,-187.71 1638.78,-195.11 1645.05,-198.22"/>
</g>
<!-- Node30&#45;&gt;Node1 -->
<g id="edge91" class="edge">
<title>Node30&#45;&gt;Node1</title>
<path fill="none" stroke="midnightblue" d="M1154.73,-522.8C1308.46,-549.92 1819.67,-640.1 1993.25,-670.72"/>
<polygon fill="midnightblue" stroke="midnightblue" points="1992.76,-674.19 2003.22,-672.48 1993.98,-667.3 1992.76,-674.19"/>
</g>
<!-- Node30&#45;&gt;Node4 -->
<g id="edge84" class="edge">
<title>Node30&#45;&gt;Node4</title>
<path fill="none" stroke="midnightblue" d="M1154.69,-511.53C1228.79,-508.28 1382.38,-498.19 1508.5,-468 1698.02,-422.64 1747.44,-401.98 1913.5,-300 1979.35,-259.56 2007.47,-254.7 2046.5,-188 2054.88,-173.68 2059.19,-155.22 2061.37,-141.63"/>
<polygon fill="midnightblue" stroke="midnightblue" points="2064.86,-141.94 2062.75,-131.56 2057.93,-141 2064.86,-141.94"/>
</g>
<!-- Node30&#45;&gt;Node5 -->
<g id="edge89" class="edge">
<title>Node30&#45;&gt;Node5</title>
<path fill="none" stroke="midnightblue" d="M1066.2,-509.29C883.56,-492.78 198.5,-418.63 198.5,-235 198.5,-235 198.5,-235 198.5,-177 198.5,-126.73 255.63,-95.1 295,-79.27"/>
<polygon fill="midnightblue" stroke="midnightblue" points="296.51,-82.45 304.59,-75.59 294,-75.91 296.51,-82.45"/>
</g>
<!-- Node30&#45;&gt;Node10 -->
<g id="edge81" class="edge">
<title>Node30&#45;&gt;Node10</title>
<path fill="none" stroke="midnightblue" d="M1154.62,-512.28C1367.4,-507.64 2282.08,-474.39 2398.5,-244 2500.66,-41.82 2049.12,-14.5 1881.22,-11.25"/>
<polygon fill="midnightblue" stroke="midnightblue" points="1881.12,-7.75 1871.06,-11.08 1881,-14.75 1881.12,-7.75"/>
</g>
<!-- Node30&#45;&gt;Node12 -->
<g id="edge82" class="edge">
<title>Node30&#45;&gt;Node12</title>
<path fill="none" stroke="midnightblue" d="M1066.06,-507.54C1010.57,-500.33 912.91,-486.39 830.5,-468 648.78,-427.46 521.82,-424.58 476.5,-244 430.14,-59.3 780.05,-20.59 896.6,-12.85"/>
<polygon fill="midnightblue" stroke="midnightblue" points="897.05,-16.33 906.82,-12.21 896.62,-9.34 897.05,-16.33"/>
</g>
<!-- Node30&#45;&gt;Node15 -->
<g id="edge93" class="edge">
<title>Node30&#45;&gt;Node15</title>
<path fill="none" stroke="midnightblue" d="M1066.39,-517.56C1029.53,-521.69 977.23,-532.39 940.5,-560 924.76,-571.84 914.09,-592.05 907.95,-606.8"/>
<polygon fill="midnightblue" stroke="midnightblue" points="904.59,-605.79 904.26,-616.38 911.12,-608.3 904.59,-605.79"/>
</g>
<!-- Node30&#45;&gt;Node16 -->
<g id="edge88" class="edge">
<title>Node30&#45;&gt;Node16</title>
<path fill="none" stroke="midnightblue" d="M1066.31,-506.55C1022.89,-499.53 955.11,-486.75 898.5,-468 701.38,-402.73 589.57,-425.39 488.5,-244 455.15,-184.15 536.69,-184.76 586.5,-168 641.06,-149.64 805.96,-133.61 885.98,-126.66"/>
<polygon fill="midnightblue" stroke="midnightblue" points="886.57,-130.13 896.23,-125.78 885.97,-123.15 886.57,-130.13"/>
</g>
<!-- Node30&#45;&gt;Node19 -->
<g id="edge80" class="edge">
<title>Node30&#45;&gt;Node19</title>
<path fill="none" stroke="midnightblue" d="M1068.56,-504.47C1035.25,-496.97 987.9,-484.63 948.5,-468 857.49,-429.57 613.7,-329.67 564.5,-244 552.13,-222.46 578.34,-203.72 601.93,-191.97"/>
<polygon fill="midnightblue" stroke="midnightblue" points="603.53,-195.09 611.1,-187.67 600.56,-188.75 603.53,-195.09"/>
</g>
<!-- Node30&#45;&gt;Node20 -->
<g id="edge83" class="edge">
<title>Node30&#45;&gt;Node20</title>
<path fill="none" stroke="midnightblue" d="M1066.42,-504.51C1039.1,-497.76 1004.24,-486.33 977.5,-468 866.08,-391.66 780.94,-246.64 753.72,-196.54"/>
<polygon fill="midnightblue" stroke="midnightblue" points="756.73,-194.76 748.93,-187.59 750.56,-198.06 756.73,-194.76"/>
</g>
<!-- Node30&#45;&gt;Node21 -->
<g id="edge85" class="edge">
<title>Node30&#45;&gt;Node21</title>
<path fill="none" stroke="midnightblue" d="M1154.62,-507.41C1245.98,-494.94 1451.26,-461.93 1498.5,-412 1552.4,-355.02 1542.92,-321.84 1552.5,-244 1554.4,-228.53 1552.81,-210.9 1550.94,-197.91"/>
<polygon fill="midnightblue" stroke="midnightblue" points="1554.36,-197.16 1549.3,-187.86 1547.45,-198.29 1554.36,-197.16"/>
</g>
<!-- Node30&#45;&gt;Node22 -->
<g id="edge86" class="edge">
<title>Node30&#45;&gt;Node22</title>
<path fill="none" stroke="midnightblue" d="M1154.65,-510.91C1214.56,-507.07 1324.34,-496.48 1413.5,-468 1570.28,-417.92 1623.7,-412.85 1743.5,-300 1775.15,-270.19 1797.18,-223.12 1807.62,-197.36"/>
<polygon fill="midnightblue" stroke="midnightblue" points="1811,-198.32 1811.38,-187.73 1804.48,-195.77 1811,-198.32"/>
</g>
<!-- Node30&#45;&gt;Node23 -->
<g id="edge90" class="edge">
<title>Node30&#45;&gt;Node23</title>
<path fill="none" stroke="midnightblue" d="M1154.72,-510.3C1221.34,-505.55 1351.11,-493.67 1458.5,-468 1627.1,-427.7 1663.76,-392.28 1810.5,-300 1847.86,-276.51 1860.72,-274.63 1892.5,-244 1907.44,-229.6 1921.13,-210.15 1930.04,-196.29"/>
<polygon fill="midnightblue" stroke="midnightblue" points="1933.07,-198.05 1935.39,-187.71 1927.13,-194.34 1933.07,-198.05"/>
</g>
<!-- Node30&#45;&gt;Node25 -->
<g id="edge94" class="edge">
<title>Node30&#45;&gt;Node25</title>
<path fill="none" stroke="midnightblue" d="M1107.78,-504.38C1104.94,-495.33 1100.36,-480.68 1096.5,-468 1085.43,-431.62 1072.83,-388.96 1065.86,-365.26"/>
<polygon fill="midnightblue" stroke="midnightblue" points="1069.17,-364.13 1063,-355.52 1062.45,-366.1 1069.17,-364.13"/>
</g>
<!-- Node30&#45;&gt;Node28 -->
<g id="edge92" class="edge">
<title>Node30&#45;&gt;Node28</title>
<path fill="none" stroke="midnightblue" d="M1100.51,-504.4C1090.03,-495.35 1073.08,-480.71 1058.5,-468 1039.14,-451.12 1017.03,-431.68 1002.05,-418.48"/>
<polygon fill="midnightblue" stroke="midnightblue" points="1004.35,-415.84 994.53,-411.85 999.72,-421.09 1004.35,-415.84"/>
</g>
<!-- Node30&#45;&gt;Node29 -->
<g id="edge95" class="edge">
<title>Node30&#45;&gt;Node29</title>
<path fill="none" stroke="midnightblue" d="M1140.11,-504.44C1179.83,-494.09 1249.97,-476.81 1292.92,-466.81"/>
<polygon fill="midnightblue" stroke="midnightblue" points="1293.74,-470.21 1302.7,-464.55 1292.17,-463.39 1293.74,-470.21"/>
</g>
<!-- Node31 -->
<g id="node31" class="node">
<title>Node31</title>
<g id="a_node31"><a xlink:title=" ">
<polygon fill="none" stroke="#bfbfbf" points="1139,-448.5 1139,-467.5 1214,-467.5 1214,-448.5 1139,-448.5"/>
<text text-anchor="middle" x="1176.5" y="-455.5" font-family="Helvetica,sans-Serif" font-size="10.00">petscerror.h</text>
</a>
</g>
</g>
<!-- Node30&#45;&gt;Node31 -->
<g id="edge87" class="edge">
<title>Node30&#45;&gt;Node31</title>
<path fill="none" stroke="midnightblue" d="M1121.1,-504.32C1130.96,-496.26 1145.85,-484.08 1157.72,-474.37"/>
<polygon fill="midnightblue" stroke="midnightblue" points="1160.18,-476.88 1165.7,-467.83 1155.75,-471.46 1160.18,-476.88"/>
</g>
<!-- Node32&#45;&gt;Node1 -->
<g id="edge105" class="edge">
<title>Node32&#45;&gt;Node1</title>
<path fill="none" stroke="midnightblue" d="M1669.29,-187.63C1728.35,-215.78 1911.64,-311.07 2000.5,-448 2043.5,-514.26 2050.18,-537.45 2058.5,-616 2060.15,-631.54 2058,-649.16 2055.66,-662.14"/>
<polygon fill="midnightblue" stroke="midnightblue" points="2052.18,-661.68 2053.65,-672.17 2059.04,-663.05 2052.18,-661.68"/>
</g>
<!-- Node32&#45;&gt;Node2 -->
<g id="edge98" class="edge">
<title>Node32&#45;&gt;Node2</title>
<path fill="none" stroke="midnightblue" d="M1671.06,-168.37C1717.17,-149.01 1828.98,-102.06 1882.71,-79.51"/>
<polygon fill="midnightblue" stroke="midnightblue" points="1884.17,-82.69 1892.04,-75.59 1881.46,-76.24 1884.17,-82.69"/>
</g>
<!-- Node32&#45;&gt;Node3 -->
<g id="edge100" class="edge">
<title>Node32&#45;&gt;Node3</title>
<path fill="none" stroke="midnightblue" d="M1685.2,-168.44C1724.09,-158.86 1787.08,-143.32 1828.4,-133.13"/>
<polygon fill="midnightblue" stroke="midnightblue" points="1829.28,-136.52 1838.15,-130.73 1827.61,-129.72 1829.28,-136.52"/>
</g>
<!-- Node32&#45;&gt;Node4 -->
<g id="edge102" class="edge">
<title>Node32&#45;&gt;Node4</title>
<path fill="none" stroke="midnightblue" d="M1698.55,-169.94C1703.26,-169.28 1707.97,-168.62 1712.5,-168 1827.58,-152.27 1964.12,-135.23 2027.66,-127.39"/>
<polygon fill="midnightblue" stroke="midnightblue" points="2028.44,-130.83 2037.94,-126.13 2027.58,-123.88 2028.44,-130.83"/>
</g>
<!-- Node32&#45;&gt;Node5 -->
<g id="edge103" class="edge">
<title>Node32&#45;&gt;Node5</title>
<path fill="none" stroke="midnightblue" d="M1622.54,-168.47C1573.48,-153.92 1468.46,-124.67 1377.5,-112 1180.02,-84.5 552.78,-71.08 377.43,-67.81"/>
<polygon fill="midnightblue" stroke="midnightblue" points="377.32,-64.31 367.26,-67.62 377.19,-71.31 377.32,-64.31"/>
</g>
<!-- Node32&#45;&gt;Node10 -->
<g id="edge99" class="edge">
<title>Node32&#45;&gt;Node10</title>
<path fill="none" stroke="midnightblue" d="M1659.64,-168.08C1687.09,-141.27 1769.1,-61.19 1804.23,-26.89"/>
<polygon fill="midnightblue" stroke="midnightblue" points="1807.02,-29.06 1811.73,-19.57 1802.13,-24.05 1807.02,-29.06"/>
</g>
<!-- Node32&#45;&gt;Node15 -->
<g id="edge104" class="edge">
<title>Node32&#45;&gt;Node15</title>
<path fill="none" stroke="midnightblue" d="M1651.85,-187.64C1656.49,-220.48 1668.78,-339.32 1616.5,-412 1519.93,-546.24 1442.84,-532.28 1284.5,-580 1164.08,-616.29 1014.15,-623.55 942.87,-624.85"/>
<polygon fill="midnightblue" stroke="midnightblue" points="942.47,-621.35 932.53,-625 942.58,-628.35 942.47,-621.35"/>
</g>
<!-- Node32&#45;&gt;Node16 -->
<g id="edge101" class="edge">
<title>Node32&#45;&gt;Node16</title>
<path fill="none" stroke="midnightblue" d="M1602.34,-169.09C1599.35,-168.69 1596.39,-168.33 1593.5,-168 1361.34,-141.85 1081.61,-128.91 974.84,-124.65"/>
<polygon fill="midnightblue" stroke="midnightblue" points="974.89,-121.15 964.76,-124.25 974.61,-128.14 974.89,-121.15"/>
</g>
<!-- Node33&#45;&gt;Node5 -->
<g id="edge113" class="edge">
<title>Node33&#45;&gt;Node5</title>
<path fill="none" stroke="midnightblue" d="M905.45,-224.42C875.44,-201.64 789.15,-139.49 706.5,-112 592.34,-74.03 449.19,-67.37 377.25,-66.65"/>
<polygon fill="midnightblue" stroke="midnightblue" points="377.19,-63.15 367.16,-66.58 377.14,-70.15 377.19,-63.15"/>
</g>
<!-- Node33&#45;&gt;Node15 -->
<g id="edge115" class="edge">
<title>Node33&#45;&gt;Node15</title>
<path fill="none" stroke="midnightblue" d="M872.37,-235.16C759.18,-238.29 458.83,-264.3 336.5,-448 331.57,-455.4 335.05,-459.23 336.5,-468 345.06,-519.86 333.12,-547.59 374.5,-580 412.44,-609.71 742.5,-620.95 860.1,-624.04"/>
<polygon fill="midnightblue" stroke="midnightblue" points="860.07,-627.54 870.15,-624.3 860.25,-620.54 860.07,-627.54"/>
</g>
<!-- Node33&#45;&gt;Node26 -->
<g id="edge114" class="edge">
<title>Node33&#45;&gt;Node26</title>
<path fill="none" stroke="midnightblue" d="M944.29,-243.52C970.02,-252.43 1007.79,-266.5 1033.31,-276.64"/>
<polygon fill="midnightblue" stroke="midnightblue" points="1032.19,-279.96 1042.77,-280.44 1034.8,-273.46 1032.19,-279.96"/>
</g>
<!-- Node34&#45;&gt;Node1 -->
<g id="edge128" class="edge">
<title>Node34&#45;&gt;Node1</title>
<path fill="none" stroke="midnightblue" d="M1444.55,-235.59C1555.8,-239.72 1853.06,-267.89 1980.5,-448 2029.27,-516.93 2045.16,-620.1 2049.79,-662.15"/>
<polygon fill="midnightblue" stroke="midnightblue" points="2046.3,-662.5 2050.79,-672.1 2053.27,-661.8 2046.3,-662.5"/>
</g>
<!-- Node34&#45;&gt;Node4 -->
<g id="edge121" class="edge">
<title>Node34&#45;&gt;Node4</title>
<path fill="none" stroke="midnightblue" d="M1444.63,-228.42C1516.94,-220.45 1659.43,-203.39 1707.5,-188 1726.05,-182.06 1727.93,-173.89 1746.5,-168 1845.21,-136.66 1968.15,-127.1 2027.76,-124.22"/>
<polygon fill="midnightblue" stroke="midnightblue" points="2027.96,-127.72 2037.8,-123.77 2027.65,-120.72 2027.96,-127.72"/>
</g>
<!-- Node34&#45;&gt;Node5 -->
<g id="edge126" class="edge">
<title>Node34&#45;&gt;Node5</title>
<path fill="none" stroke="midnightblue" d="M1392.23,-224.32C1376.63,-210.23 1343.58,-182.47 1310.5,-168 1198.22,-118.88 1161.96,-128.37 1040.5,-112 791.58,-78.46 490.04,-69.8 377.1,-67.67"/>
<polygon fill="midnightblue" stroke="midnightblue" points="377.15,-64.17 367.09,-67.49 377.02,-71.17 377.15,-64.17"/>
</g>
<!-- Node34&#45;&gt;Node10 -->
<g id="edge118" class="edge">
<title>Node34&#45;&gt;Node10</title>
<path fill="none" stroke="midnightblue" d="M1413.83,-224.3C1432.42,-211.34 1468.92,-186.52 1501.5,-168 1605.53,-108.87 1734.94,-49.26 1791.63,-23.81"/>
<polygon fill="midnightblue" stroke="midnightblue" points="1793.33,-26.88 1801.03,-19.6 1790.47,-20.49 1793.33,-26.88"/>
</g>
<!-- Node34&#45;&gt;Node12 -->
<g id="edge119" class="edge">
<title>Node34&#45;&gt;Node12</title>
<path fill="none" stroke="midnightblue" d="M1402.63,-224.29C1404.97,-202.24 1407.82,-143.75 1377.5,-112 1321.06,-52.9 1066.19,-23.38 970.21,-14.21"/>
<polygon fill="midnightblue" stroke="midnightblue" points="970.39,-10.72 960.1,-13.27 969.74,-17.68 970.39,-10.72"/>
</g>
<!-- Node34&#45;&gt;Node15 -->
<g id="edge130" class="edge">
<title>Node34&#45;&gt;Node15</title>
<path fill="none" stroke="midnightblue" d="M1410.43,-243.81C1436.09,-270.23 1506.12,-350.76 1472.5,-412 1366.58,-604.95 1055.72,-624.96 942.96,-625.69"/>
<polygon fill="midnightblue" stroke="midnightblue" points="942.68,-622.19 932.68,-625.71 942.69,-629.19 942.68,-622.19"/>
</g>
<!-- Node34&#45;&gt;Node16 -->
<g id="edge123" class="edge">
<title>Node34&#45;&gt;Node16</title>
<path fill="none" stroke="midnightblue" d="M1388.32,-224.38C1365.8,-210.11 1318.02,-181.78 1273.5,-168 1169.75,-135.89 1041.44,-126.69 975.02,-124.06"/>
<polygon fill="midnightblue" stroke="midnightblue" points="975.03,-120.55 964.91,-123.69 974.77,-127.55 975.03,-120.55"/>
</g>
<!-- Node34&#45;&gt;Node18 -->
<g id="edge133" class="edge">
<title>Node34&#45;&gt;Node18</title>
<path fill="none" stroke="midnightblue" d="M1402.85,-243.72C1407.49,-276.83 1419.64,-396.55 1365.5,-468 1320.99,-526.75 1237.07,-551.38 1177.68,-561.67"/>
<polygon fill="midnightblue" stroke="midnightblue" points="1176.93,-558.25 1167.63,-563.32 1178.06,-565.15 1176.93,-558.25"/>
</g>
<!-- Node34&#45;&gt;Node19 -->
<g id="edge117" class="edge">
<title>Node34&#45;&gt;Node19</title>
<path fill="none" stroke="midnightblue" d="M1358.25,-230.93C1249.46,-225.56 955.7,-210.04 711.5,-188 699.42,-186.91 686.32,-185.49 674.37,-184.1"/>
<polygon fill="midnightblue" stroke="midnightblue" points="674.55,-180.6 664.21,-182.9 673.73,-187.55 674.55,-180.6"/>
</g>
<!-- Node34&#45;&gt;Node20 -->
<g id="edge120" class="edge">
<title>Node34&#45;&gt;Node20</title>
<path fill="none" stroke="midnightblue" d="M1358.39,-229.46C1236.28,-219.42 889.71,-190.94 778.97,-181.83"/>
<polygon fill="midnightblue" stroke="midnightblue" points="778.96,-178.32 768.71,-180.99 778.39,-185.3 778.96,-178.32"/>
</g>
<!-- Node34&#45;&gt;Node21 -->
<g id="edge122" class="edge">
<title>Node34&#45;&gt;Node21</title>
<path fill="none" stroke="midnightblue" d="M1424.63,-224.44C1448.98,-215.44 1487.51,-201.19 1514.92,-191.05"/>
<polygon fill="midnightblue" stroke="midnightblue" points="1516.31,-194.27 1524.47,-187.52 1513.88,-187.7 1516.31,-194.27"/>
</g>
<!-- Node34&#45;&gt;Node22 -->
<g id="edge124" class="edge">
<title>Node34&#45;&gt;Node22</title>
<path fill="none" stroke="midnightblue" d="M1444.53,-227.37C1515.77,-218.06 1658.88,-199.35 1744.73,-188.12"/>
<polygon fill="midnightblue" stroke="midnightblue" points="1745.19,-191.59 1754.65,-186.83 1744.28,-184.65 1745.19,-191.59"/>
</g>
<!-- Node34&#45;&gt;Node23 -->
<g id="edge127" class="edge">
<title>Node34&#45;&gt;Node23</title>
<path fill="none" stroke="midnightblue" d="M1444.81,-229.88C1527.68,-223.72 1714.65,-208.85 1882.33,-188.07"/>
<polygon fill="midnightblue" stroke="midnightblue" points="1882.84,-191.54 1892.33,-186.83 1881.97,-184.59 1882.84,-191.54"/>
</g>
<!-- Node34&#45;&gt;Node25 -->
<g id="edge131" class="edge">
<title>Node34&#45;&gt;Node25</title>
<path fill="none" stroke="midnightblue" d="M1374.82,-243.61C1311.48,-264.04 1152.53,-315.31 1088.19,-336.07"/>
<polygon fill="midnightblue" stroke="midnightblue" points="1086.8,-332.84 1078.35,-339.24 1088.95,-339.5 1086.8,-332.84"/>
</g>
<!-- Node34&#45;&gt;Node26 -->
<g id="edge135" class="edge">
<title>Node34&#45;&gt;Node26</title>
<path fill="none" stroke="midnightblue" d="M1358.22,-242.62C1294.9,-253.05 1177.55,-271.63 1110.59,-281.82"/>
<polygon fill="midnightblue" stroke="midnightblue" points="1110.05,-278.36 1100.69,-283.32 1111.1,-285.28 1110.05,-278.36"/>
</g>
<!-- Node34&#45;&gt;Node27 -->
<g id="edge125" class="edge">
<title>Node34&#45;&gt;Node27</title>
<path fill="none" stroke="midnightblue" d="M1372.19,-224.44C1340.66,-215.24 1290.37,-200.56 1255.51,-190.39"/>
<polygon fill="midnightblue" stroke="midnightblue" points="1256.26,-186.96 1245.68,-187.52 1254.3,-193.68 1256.26,-186.96"/>
</g>
<!-- Node34&#45;&gt;Node28 -->
<g id="edge129" class="edge">
<title>Node34&#45;&gt;Node28</title>
<path fill="none" stroke="midnightblue" d="M1381.23,-243.56C1351.38,-256.13 1293.78,-280.23 1244.5,-300 1162.51,-332.89 1065.34,-370.2 1016.26,-388.92"/>
<polygon fill="midnightblue" stroke="midnightblue" points="1014.92,-385.69 1006.82,-392.52 1017.41,-392.23 1014.92,-385.69"/>
</g>
<!-- Node34&#45;&gt;Node30 -->
<g id="edge132" class="edge">
<title>Node34&#45;&gt;Node30</title>
<path fill="none" stroke="midnightblue" d="M1384.27,-243.65C1336.47,-268.54 1201.11,-345.13 1130.5,-448 1121,-461.84 1115.88,-480.36 1113.21,-494.09"/>
<polygon fill="midnightblue" stroke="midnightblue" points="1109.7,-493.85 1111.5,-504.29 1116.61,-495 1109.7,-493.85"/>
</g>
<!-- Node34&#45;&gt;Node32 -->
<g id="edge134" class="edge">
<title>Node34&#45;&gt;Node32</title>
<path fill="none" stroke="midnightblue" d="M1440.95,-224.44C1484.39,-215.02 1554.29,-199.87 1601.28,-189.68"/>
<polygon fill="midnightblue" stroke="midnightblue" points="1602.2,-193.06 1611.23,-187.52 1600.72,-186.22 1602.2,-193.06"/>
</g>
</g>
</svg>
