<?xml version="1.0" encoding="UTF-8" standalone="no"?>
<!DOCTYPE svg PUBLIC "-//W3C//DTD SVG 1.1//EN"
 "http://www.w3.org/Graphics/SVG/1.1/DTD/svg11.dtd">
<!-- Generated by graphviz version 2.43.0 (0)
 -->
<!-- Title: RetrieveCurrentCell Pages: 1 -->
<svg width="294pt" height="66pt"
 viewBox="0.00 0.00 294.00 66.00" xmlns="http://www.w3.org/2000/svg" xmlns:xlink="http://www.w3.org/1999/xlink">
<g id="graph0" class="graph" transform="scale(1 1) rotate(0) translate(4 62)">
<title>RetrieveCurrentCell</title>
<!-- Node1 -->
<g id="node1" class="node">
<title>Node1</title>
<g id="a_node1"><a xlink:title="Retrieves the coordinates of the eight vertices of the current cell.">
<polygon fill="#bfbfbf" stroke="black" points="0,-19.5 0,-38.5 113,-38.5 113,-19.5 0,-19.5"/>
<text text-anchor="middle" x="56.5" y="-26.5" font-family="Helvetica,sans-Serif" font-size="10.00">RetrieveCurrentCell</text>
</a>
</g>
</g>
<!-- Node2 -->
<g id="node2" class="node">
<title>Node2</title>
<g id="a_node2"><a xlink:href="walkingsearch_8c.html#ae14b1946c4c34cae5455bdfd632eb98e" target="_top" xlink:title="Retrieves the coordinates of the eight vertices of a cell based on grid indices.">
<polygon fill="none" stroke="black" points="149,-38.5 149,-57.5 286,-57.5 286,-38.5 149,-38.5"/>
<text text-anchor="middle" x="217.5" y="-45.5" font-family="Helvetica,sans-Serif" font-size="10.00">GetCellVerticesFromGrid</text>
</a>
</g>
</g>
<!-- Node1&#45;&gt;Node2 -->
<g id="edge1" class="edge">
<title>Node1&#45;&gt;Node2</title>
<path fill="none" stroke="midnightblue" d="M113.11,-35.65C121.41,-36.64 130.1,-37.68 138.76,-38.71"/>
<polygon fill="midnightblue" stroke="midnightblue" points="138.54,-42.21 148.89,-39.92 139.37,-35.26 138.54,-42.21"/>
</g>
<!-- Node3 -->
<g id="node3" class="node">
<title>Node3</title>
<g id="a_node3"><a xlink:href="logging_8h.html#ad2278570e8ce1a71bb269a51f9a20d88" target="_top" xlink:title="Prints the coordinates of a cell&#39;s vertices.">
<polygon fill="none" stroke="black" points="158.5,-0.5 158.5,-19.5 276.5,-19.5 276.5,-0.5 158.5,-0.5"/>
<text text-anchor="middle" x="217.5" y="-7.5" font-family="Helvetica,sans-Serif" font-size="10.00">LOG_CELL_VERTICES</text>
</a>
</g>
</g>
<!-- Node1&#45;&gt;Node3 -->
<g id="edge2" class="edge">
<title>Node1&#45;&gt;Node3</title>
<path fill="none" stroke="midnightblue" d="M113.11,-22.35C124.47,-21 136.55,-19.55 148.29,-18.15"/>
<polygon fill="midnightblue" stroke="midnightblue" points="148.98,-21.59 158.49,-16.93 148.15,-14.64 148.98,-21.59"/>
</g>
</g>
</svg>
