<?xml version="1.0" encoding="UTF-8" standalone="no"?>
<!DOCTYPE svg PUBLIC "-//W3C//DTD SVG 1.1//EN"
 "http://www.w3.org/Graphics/SVG/1.1/DTD/svg11.dtd">
<!-- Generated by graphviz version 2.43.0 (0)
 -->
<!-- Title: wallfunction.h Pages: 1 -->
<svg width="2924pt" height="756pt"
 viewBox="0.00 0.00 2924.00 756.00" xmlns="http://www.w3.org/2000/svg" xmlns:xlink="http://www.w3.org/1999/xlink">
<g id="graph0" class="graph" transform="scale(1 1) rotate(0) translate(4 752)">
<title>wallfunction.h</title>
<!-- Node1 -->
<g id="node1" class="node">
<title>Node1</title>
<g id="a_node1"><a xlink:title=" ">
<polygon fill="#bfbfbf" stroke="black" points="1504,-728.5 1504,-747.5 1590,-747.5 1590,-728.5 1504,-728.5"/>
<text text-anchor="middle" x="1547" y="-735.5" font-family="Helvetica,sans-Serif" font-size="10.00">wallfunction.h</text>
</a>
</g>
</g>
<!-- Node2 -->
<g id="node2" class="node">
<title>Node2</title>
<g id="a_node2"><a xlink:title=" ">
<polygon fill="none" stroke="#bfbfbf" points="732.5,-112.5 732.5,-131.5 793.5,-131.5 793.5,-112.5 732.5,-112.5"/>
<text text-anchor="middle" x="763" y="-119.5" font-family="Helvetica,sans-Serif" font-size="10.00">petscpf.h</text>
</a>
</g>
</g>
<!-- Node1&#45;&gt;Node2 -->
<g id="edge1" class="edge">
<title>Node1&#45;&gt;Node2</title>
<path fill="none" stroke="midnightblue" d="M1503.95,-736.87C1296.35,-736.07 403.66,-730.4 286,-692 237.02,-676.02 190,-678.53 190,-627 190,-627 190,-627 190,-513 190,-255.24 591.15,-155.79 722.16,-130.18"/>
<polygon fill="midnightblue" stroke="midnightblue" points="723.03,-133.58 732.19,-128.26 721.71,-126.7 723.03,-133.58"/>
</g>
<!-- Node3 -->
<g id="node3" class="node">
<title>Node3</title>
<g id="a_node3"><a xlink:title=" ">
<polygon fill="none" stroke="#bfbfbf" points="2656.5,-0.5 2656.5,-19.5 2757.5,-19.5 2757.5,-0.5 2656.5,-0.5"/>
<text text-anchor="middle" x="2707" y="-7.5" font-family="Helvetica,sans-Serif" font-size="10.00">petscdmswarm.h</text>
</a>
</g>
</g>
<!-- Node1&#45;&gt;Node3 -->
<g id="edge2" class="edge">
<title>Node1&#45;&gt;Node3</title>
<path fill="none" stroke="midnightblue" d="M1590.13,-736.35C1793.16,-733.15 2648.69,-718.22 2765,-692 2836.28,-675.93 2916,-700.06 2916,-627 2916,-627 2916,-627 2916,-121 2916,-53.42 2829.36,-27.26 2767.65,-17.2"/>
<polygon fill="midnightblue" stroke="midnightblue" points="2768.01,-13.72 2757.59,-15.67 2766.95,-20.64 2768.01,-13.72"/>
</g>
<!-- Node4 -->
<g id="node4" class="node">
<title>Node4</title>
<g id="a_node4"><a xlink:title=" ">
<polygon fill="none" stroke="#bfbfbf" points="106.5,-0.5 106.5,-19.5 159.5,-19.5 159.5,-0.5 106.5,-0.5"/>
<text text-anchor="middle" x="133" y="-7.5" font-family="Helvetica,sans-Serif" font-size="10.00">stdlib.h</text>
</a>
</g>
</g>
<!-- Node1&#45;&gt;Node4 -->
<g id="edge3" class="edge">
<title>Node1&#45;&gt;Node4</title>
<path fill="none" stroke="midnightblue" d="M1503.9,-736.43C1285.39,-733.43 305.07,-718.56 172,-692 91.86,-676 0,-708.72 0,-627 0,-627 0,-627 0,-121 0,-70.59 57.44,-38.93 96.83,-23.14"/>
<polygon fill="midnightblue" stroke="midnightblue" points="98.32,-26.32 106.41,-19.47 95.81,-19.78 98.32,-26.32"/>
</g>
<!-- Node5 -->
<g id="node5" class="node">
<title>Node5</title>
<g id="a_node5"><a xlink:title=" ">
<polygon fill="none" stroke="#bfbfbf" points="967,-112.5 967,-131.5 1015,-131.5 1015,-112.5 967,-112.5"/>
<text text-anchor="middle" x="991" y="-119.5" font-family="Helvetica,sans-Serif" font-size="10.00">time.h</text>
</a>
</g>
</g>
<!-- Node1&#45;&gt;Node5 -->
<g id="edge4" class="edge">
<title>Node1&#45;&gt;Node5</title>
<path fill="none" stroke="midnightblue" d="M1503.89,-737.3C1300.03,-738.48 437.97,-740.53 329,-692 292.25,-675.63 266,-667.23 266,-627 266,-627 266,-627 266,-513 266,-370.6 671.08,-213.54 806,-168 857.67,-150.56 919.58,-136.91 957.07,-129.41"/>
<polygon fill="midnightblue" stroke="midnightblue" points="957.83,-132.82 966.97,-127.45 956.48,-125.96 957.83,-132.82"/>
</g>
<!-- Node6 -->
<g id="node6" class="node">
<title>Node6</title>
<g id="a_node6"><a xlink:title=" ">
<polygon fill="none" stroke="#bfbfbf" points="1875.5,-112.5 1875.5,-131.5 1926.5,-131.5 1926.5,-112.5 1875.5,-112.5"/>
<text text-anchor="middle" x="1901" y="-119.5" font-family="Helvetica,sans-Serif" font-size="10.00">math.h</text>
</a>
</g>
</g>
<!-- Node1&#45;&gt;Node6 -->
<g id="edge5" class="edge">
<title>Node1&#45;&gt;Node6</title>
<path fill="none" stroke="midnightblue" d="M1590.34,-737.45C1798.75,-739.08 2688,-739.44 2688,-627 2688,-627 2688,-627 2688,-289 2688,-201.61 2614.58,-199.35 2533,-168 2422.98,-125.71 2054.25,-122.69 1937.07,-122.83"/>
<polygon fill="midnightblue" stroke="midnightblue" points="1936.84,-119.33 1926.85,-122.85 1936.85,-126.33 1936.84,-119.33"/>
</g>
<!-- Node7 -->
<g id="node7" class="node">
<title>Node7</title>
<g id="a_node7"><a xlink:title=" ">
<polygon fill="none" stroke="#bfbfbf" points="1068,-112.5 1068,-131.5 1142,-131.5 1142,-112.5 1068,-112.5"/>
<text text-anchor="middle" x="1105" y="-119.5" font-family="Helvetica,sans-Serif" font-size="10.00">petsctime.h</text>
</a>
</g>
</g>
<!-- Node1&#45;&gt;Node7 -->
<g id="edge6" class="edge">
<title>Node1&#45;&gt;Node7</title>
<path fill="none" stroke="midnightblue" d="M1503.73,-736.41C1310.36,-733.64 530.32,-720.75 425,-692 366.11,-675.92 304,-688.05 304,-627 304,-627 304,-627 304,-569 304,-448.56 612.29,-273.71 722,-224 788.34,-193.94 805.84,-187.52 876,-168 937.87,-150.78 1010.92,-137.63 1057.58,-130.12"/>
<polygon fill="midnightblue" stroke="midnightblue" points="1058.38,-133.53 1067.7,-128.51 1057.28,-126.62 1058.38,-133.53"/>
</g>
<!-- Node8 -->
<g id="node8" class="node">
<title>Node8</title>
<g id="a_node8"><a xlink:title=" ">
<polygon fill="none" stroke="#bfbfbf" points="2350,-112.5 2350,-131.5 2418,-131.5 2418,-112.5 2350,-112.5"/>
<text text-anchor="middle" x="2384" y="-119.5" font-family="Helvetica,sans-Serif" font-size="10.00">petscsys.h</text>
</a>
</g>
</g>
<!-- Node1&#45;&gt;Node8 -->
<g id="edge7" class="edge">
<title>Node1&#45;&gt;Node8</title>
<path fill="none" stroke="midnightblue" d="M1590.16,-737.07C1762.62,-737.06 2402.47,-734.11 2600,-692 2676.68,-675.65 2764,-705.41 2764,-627 2764,-627 2764,-627 2764,-289 2764,-143.85 2528.31,-124.37 2428.16,-122.64"/>
<polygon fill="midnightblue" stroke="midnightblue" points="2428.1,-119.14 2418.06,-122.52 2428.01,-126.14 2428.1,-119.14"/>
</g>
<!-- Node9 -->
<g id="node9" class="node">
<title>Node9</title>
<g id="a_node9"><a xlink:title=" ">
<polygon fill="none" stroke="#bfbfbf" points="1201.5,-112.5 1201.5,-131.5 1320.5,-131.5 1320.5,-112.5 1201.5,-112.5"/>
<text text-anchor="middle" x="1261" y="-119.5" font-family="Helvetica,sans-Serif" font-size="10.00">petscdmcomposite.h</text>
</a>
</g>
</g>
<!-- Node1&#45;&gt;Node9 -->
<g id="edge8" class="edge">
<title>Node1&#45;&gt;Node9</title>
<path fill="none" stroke="midnightblue" d="M1503.9,-737.26C1301.58,-737.92 456,-734.26 456,-627 456,-627 456,-627 456,-569 456,-234.08 995.76,-148.61 1191.32,-128.63"/>
<polygon fill="midnightblue" stroke="midnightblue" points="1191.87,-132.09 1201.48,-127.62 1191.18,-125.13 1191.87,-132.09"/>
</g>
<!-- Node10 -->
<g id="node10" class="node">
<title>Node10</title>
<g id="a_node10"><a xlink:title=" ">
<polygon fill="none" stroke="#bfbfbf" points="1737.5,-112.5 1737.5,-131.5 1832.5,-131.5 1832.5,-112.5 1737.5,-112.5"/>
<text text-anchor="middle" x="1785" y="-119.5" font-family="Helvetica,sans-Serif" font-size="10.00">petscsystypes.h</text>
</a>
</g>
</g>
<!-- Node1&#45;&gt;Node10 -->
<g id="edge9" class="edge">
<title>Node1&#45;&gt;Node10</title>
<path fill="none" stroke="midnightblue" d="M1590.15,-737.55C1680.13,-737.76 1893.82,-733.4 2067,-692 2131.78,-676.51 2167.75,-690.52 2206,-636 2271.08,-543.23 2206.6,-477.3 2132,-392 2104.81,-360.91 1874.87,-189.6 1805.04,-137.83"/>
<polygon fill="midnightblue" stroke="midnightblue" points="1806.75,-134.74 1796.63,-131.6 1802.58,-140.36 1806.75,-134.74"/>
</g>
<!-- Node11 -->
<g id="node11" class="node">
<title>Node11</title>
<g id="a_node11"><a xlink:href="variables_8h.html" target="_top" xlink:title="Main header file for a complex fluid dynamics solver.">
<polygon fill="none" stroke="black" points="1377.5,-56.5 1377.5,-75.5 1448.5,-75.5 1448.5,-56.5 1377.5,-56.5"/>
<text text-anchor="middle" x="1413" y="-63.5" font-family="Helvetica,sans-Serif" font-size="10.00">variables.h</text>
</a>
</g>
</g>
<!-- Node1&#45;&gt;Node11 -->
<g id="edge10" class="edge">
<title>Node1&#45;&gt;Node11</title>
<path fill="none" stroke="midnightblue" d="M1590.24,-737.34C1771.51,-738.47 2470.61,-739.56 2685,-692 2757.93,-675.82 2840,-701.7 2840,-627 2840,-627 2840,-627 2840,-233 2840,-145.78 2546.66,-126.62 2427,-112 2055.42,-66.61 1602.29,-65.56 1458.82,-66.52"/>
<polygon fill="midnightblue" stroke="midnightblue" points="1458.61,-63.02 1448.64,-66.6 1458.66,-70.02 1458.61,-63.02"/>
</g>
<!-- Node19 -->
<g id="node19" class="node">
<title>Node19</title>
<g id="a_node19"><a xlink:href="ParticleSwarm_8h.html" target="_top" xlink:title="Header file for Particle Motion and migration related functions.">
<polygon fill="none" stroke="black" points="1868,-672.5 1868,-691.5 1964,-691.5 1964,-672.5 1868,-672.5"/>
<text text-anchor="middle" x="1916" y="-679.5" font-family="Helvetica,sans-Serif" font-size="10.00">ParticleSwarm.h</text>
</a>
</g>
</g>
<!-- Node1&#45;&gt;Node19 -->
<g id="edge20" class="edge">
<title>Node1&#45;&gt;Node19</title>
<path fill="none" stroke="midnightblue" d="M1590.05,-730.7C1656.33,-721 1783.45,-702.4 1857.85,-691.51"/>
<polygon fill="midnightblue" stroke="midnightblue" points="1858.6,-694.94 1867.98,-690.03 1857.58,-688.01 1858.6,-694.94"/>
</g>
<!-- Node22 -->
<g id="node22" class="node">
<title>Node22</title>
<g id="a_node22"><a xlink:href="logging_8h.html" target="_top" xlink:title="Logging utilities and macros for PETSc&#45;based applications.">
<polygon fill="none" stroke="black" points="1316,-560.5 1316,-579.5 1378,-579.5 1378,-560.5 1316,-560.5"/>
<text text-anchor="middle" x="1347" y="-567.5" font-family="Helvetica,sans-Serif" font-size="10.00">logging.h</text>
</a>
</g>
</g>
<!-- Node1&#45;&gt;Node22 -->
<g id="edge140" class="edge">
<title>Node1&#45;&gt;Node22</title>
<path fill="none" stroke="midnightblue" d="M1536.53,-728.31C1504.26,-701.53 1406.08,-620.03 1365.18,-586.09"/>
<polygon fill="midnightblue" stroke="midnightblue" points="1367.3,-583.3 1357.37,-579.61 1362.83,-588.69 1367.3,-583.3"/>
</g>
<!-- Node24 -->
<g id="node24" class="node">
<title>Node24</title>
<g id="a_node24"><a xlink:href="AnalyticalSolution_8h.html" target="_top" xlink:title=" ">
<polygon fill="none" stroke="black" points="978,-504.5 978,-523.5 1092,-523.5 1092,-504.5 978,-504.5"/>
<text text-anchor="middle" x="1035" y="-511.5" font-family="Helvetica,sans-Serif" font-size="10.00">AnalyticalSolution.h</text>
</a>
</g>
</g>
<!-- Node1&#45;&gt;Node24 -->
<g id="edge143" class="edge">
<title>Node1&#45;&gt;Node24</title>
<path fill="none" stroke="midnightblue" d="M1503.69,-735.11C1398.78,-730.17 1137.35,-715.61 1106,-692 1054.47,-653.19 1040.25,-570.92 1036.4,-533.83"/>
<polygon fill="midnightblue" stroke="midnightblue" points="1039.88,-533.52 1035.5,-523.87 1032.91,-534.14 1039.88,-533.52"/>
</g>
<!-- Node25 -->
<g id="node25" class="node">
<title>Node25</title>
<g id="a_node25"><a xlink:href="walkingsearch_8h.html" target="_top" xlink:title="Header file for particle location functions using the walking search algorithm.">
<polygon fill="none" stroke="black" points="1956,-224.5 1956,-243.5 2052,-243.5 2052,-224.5 1956,-224.5"/>
<text text-anchor="middle" x="2004" y="-231.5" font-family="Helvetica,sans-Serif" font-size="10.00">walkingsearch.h</text>
</a>
</g>
</g>
<!-- Node1&#45;&gt;Node25 -->
<g id="edge138" class="edge">
<title>Node1&#45;&gt;Node25</title>
<path fill="none" stroke="midnightblue" d="M1590.11,-735.98C1744.23,-732.13 2260.11,-717.4 2284,-692 2358.31,-613.02 2329.06,-546.64 2284,-448 2234.73,-340.16 2099.19,-273.4 2036.54,-247.42"/>
<polygon fill="midnightblue" stroke="midnightblue" points="2037.72,-244.12 2027.13,-243.6 2035.08,-250.6 2037.72,-244.12"/>
</g>
<!-- Node27 -->
<g id="node27" class="node">
<title>Node27</title>
<g id="a_node27"><a xlink:href="grid_8h.html" target="_top" xlink:title="Public interface for grid, solver, and metric setup routines.">
<polygon fill="none" stroke="black" points="627,-112.5 627,-131.5 671,-131.5 671,-112.5 627,-112.5"/>
<text text-anchor="middle" x="649" y="-119.5" font-family="Helvetica,sans-Serif" font-size="10.00">grid.h</text>
</a>
</g>
</g>
<!-- Node1&#45;&gt;Node27 -->
<g id="edge139" class="edge">
<title>Node1&#45;&gt;Node27</title>
<path fill="none" stroke="midnightblue" d="M1503.79,-736.44C1281.65,-733.44 276.24,-718.43 216,-692 178.87,-675.71 152,-667.54 152,-627 152,-627 152,-627 152,-401 152,-187.39 506,-136.33 616.48,-125.59"/>
<polygon fill="midnightblue" stroke="midnightblue" points="617.04,-129.05 626.68,-124.65 616.4,-122.08 617.04,-129.05"/>
</g>
<!-- Node28 -->
<g id="node28" class="node">
<title>Node28</title>
<g id="a_node28"><a xlink:href="io_8h.html" target="_top" xlink:title="Public interface for data input/output routines.">
<polygon fill="none" stroke="black" points="704.5,-392.5 704.5,-411.5 739.5,-411.5 739.5,-392.5 704.5,-392.5"/>
<text text-anchor="middle" x="722" y="-399.5" font-family="Helvetica,sans-Serif" font-size="10.00">io.h</text>
</a>
</g>
</g>
<!-- Node1&#45;&gt;Node28 -->
<g id="edge141" class="edge">
<title>Node1&#45;&gt;Node28</title>
<path fill="none" stroke="midnightblue" d="M1503.96,-736.89C1304.64,-736.2 479.4,-730.95 442,-692 337.88,-583.55 606.69,-453.2 695,-414.42"/>
<polygon fill="midnightblue" stroke="midnightblue" points="696.6,-417.54 704.38,-410.35 693.81,-411.12 696.6,-417.54"/>
</g>
<!-- Node29 -->
<g id="node29" class="node">
<title>Node29</title>
<g id="a_node29"><a xlink:href="Boundaries_8h.html" target="_top" xlink:title=" ">
<polygon fill="none" stroke="black" points="1661,-336.5 1661,-355.5 1741,-355.5 1741,-336.5 1661,-336.5"/>
<text text-anchor="middle" x="1701" y="-343.5" font-family="Helvetica,sans-Serif" font-size="10.00">Boundaries.h</text>
</a>
</g>
</g>
<!-- Node1&#45;&gt;Node29 -->
<g id="edge145" class="edge">
<title>Node1&#45;&gt;Node29</title>
<path fill="none" stroke="midnightblue" d="M1590.13,-733.87C1732.25,-723.43 2176,-686.99 2176,-627 2176,-627 2176,-627 2176,-569 2176,-381.93 1873.6,-351.89 1751.3,-347.52"/>
<polygon fill="midnightblue" stroke="midnightblue" points="1751.18,-344.01 1741.08,-347.2 1750.97,-351.01 1751.18,-344.01"/>
</g>
<!-- Node30 -->
<g id="node30" class="node">
<title>Node30</title>
<g id="a_node30"><a xlink:href="interpolation_8h.html" target="_top" xlink:title=" ">
<polygon fill="none" stroke="black" points="1275,-448.5 1275,-467.5 1363,-467.5 1363,-448.5 1275,-448.5"/>
<text text-anchor="middle" x="1319" y="-455.5" font-family="Helvetica,sans-Serif" font-size="10.00">interpolation.h</text>
</a>
</g>
</g>
<!-- Node1&#45;&gt;Node30 -->
<g id="edge142" class="edge">
<title>Node1&#45;&gt;Node30</title>
<path fill="none" stroke="midnightblue" d="M1503.71,-735.03C1395.15,-728.91 1120,-705.66 1120,-627 1120,-627 1120,-627 1120,-569 1120,-502.58 1205.97,-475.95 1264.9,-465.5"/>
<polygon fill="midnightblue" stroke="midnightblue" points="1265.55,-468.94 1274.84,-463.84 1264.4,-462.03 1265.55,-468.94"/>
</g>
<!-- Node32 -->
<g id="node32" class="node">
<title>Node32</title>
<g id="a_node32"><a xlink:href="ParticleMotion_8h.html" target="_top" xlink:title=" ">
<polygon fill="none" stroke="black" points="2222,-280.5 2222,-299.5 2318,-299.5 2318,-280.5 2222,-280.5"/>
<text text-anchor="middle" x="2270" y="-287.5" font-family="Helvetica,sans-Serif" font-size="10.00">ParticleMotion.h</text>
</a>
</g>
</g>
<!-- Node1&#45;&gt;Node32 -->
<g id="edge144" class="edge">
<title>Node1&#45;&gt;Node32</title>
<path fill="none" stroke="midnightblue" d="M1590.02,-736.58C1752.64,-734.73 2324.32,-725.87 2398,-692 2434.27,-675.32 2460,-666.92 2460,-627 2460,-627 2460,-627 2460,-401 2460,-339.33 2384.11,-311.68 2328.26,-299.67"/>
<polygon fill="midnightblue" stroke="midnightblue" points="2328.93,-296.24 2318.44,-297.68 2327.54,-303.1 2328.93,-296.24"/>
</g>
<!-- Node11&#45;&gt;Node3 -->
<g id="edge15" class="edge">
<title>Node11&#45;&gt;Node3</title>
<path fill="none" stroke="midnightblue" d="M1448.62,-63.51C1626.53,-56.09 2419.3,-23.01 2646.16,-13.54"/>
<polygon fill="midnightblue" stroke="midnightblue" points="2646.37,-17.03 2656.22,-13.12 2646.08,-10.04 2646.37,-17.03"/>
</g>
<!-- Node11&#45;&gt;Node4 -->
<g id="edge17" class="edge">
<title>Node11&#45;&gt;Node4</title>
<path fill="none" stroke="midnightblue" d="M1377.31,-57.94C1372.51,-57.18 1367.65,-56.5 1363,-56 1122.92,-30.13 348.07,-14.87 169.81,-11.64"/>
<polygon fill="midnightblue" stroke="midnightblue" points="169.7,-8.14 159.64,-11.46 169.57,-15.14 169.7,-8.14"/>
</g>
<!-- Node12 -->
<g id="node12" class="node">
<title>Node12</title>
<g id="a_node12"><a xlink:title=" ">
<polygon fill="none" stroke="#bfbfbf" points="1494.5,-0.5 1494.5,-19.5 1563.5,-19.5 1563.5,-0.5 1494.5,-0.5"/>
<text text-anchor="middle" x="1529" y="-7.5" font-family="Helvetica,sans-Serif" font-size="10.00">petscvec.h</text>
</a>
</g>
</g>
<!-- Node11&#45;&gt;Node12 -->
<g id="edge11" class="edge">
<title>Node11&#45;&gt;Node12</title>
<path fill="none" stroke="midnightblue" d="M1431.38,-56.44C1450.22,-47.68 1479.73,-33.94 1501.38,-23.86"/>
<polygon fill="midnightblue" stroke="midnightblue" points="1503.12,-26.91 1510.71,-19.52 1500.16,-20.56 1503.12,-26.91"/>
</g>
<!-- Node13 -->
<g id="node13" class="node">
<title>Node13</title>
<g id="a_node13"><a xlink:title=" ">
<polygon fill="none" stroke="#bfbfbf" points="1582,-0.5 1582,-19.5 1662,-19.5 1662,-0.5 1582,-0.5"/>
<text text-anchor="middle" x="1622" y="-7.5" font-family="Helvetica,sans-Serif" font-size="10.00">petscdmda.h</text>
</a>
</g>
</g>
<!-- Node11&#45;&gt;Node13 -->
<g id="edge12" class="edge">
<title>Node11&#45;&gt;Node13</title>
<path fill="none" stroke="midnightblue" d="M1446.12,-56.44C1482.12,-47.14 1539.77,-32.25 1579.19,-22.06"/>
<polygon fill="midnightblue" stroke="midnightblue" points="1580.23,-25.41 1589.04,-19.52 1578.48,-18.63 1580.23,-25.41"/>
</g>
<!-- Node14 -->
<g id="node14" class="node">
<title>Node14</title>
<g id="a_node14"><a xlink:title=" ">
<polygon fill="none" stroke="#bfbfbf" points="1172.5,-0.5 1172.5,-19.5 1241.5,-19.5 1241.5,-0.5 1172.5,-0.5"/>
<text text-anchor="middle" x="1207" y="-7.5" font-family="Helvetica,sans-Serif" font-size="10.00">petscksp.h</text>
</a>
</g>
</g>
<!-- Node11&#45;&gt;Node14 -->
<g id="edge13" class="edge">
<title>Node11&#45;&gt;Node14</title>
<path fill="none" stroke="midnightblue" d="M1380.36,-56.44C1344.95,-47.16 1288.29,-32.31 1249.45,-22.13"/>
<polygon fill="midnightblue" stroke="midnightblue" points="1250.05,-18.67 1239.49,-19.52 1248.27,-25.44 1250.05,-18.67"/>
</g>
<!-- Node15 -->
<g id="node15" class="node">
<title>Node15</title>
<g id="a_node15"><a xlink:title=" ">
<polygon fill="none" stroke="#bfbfbf" points="1260,-0.5 1260,-19.5 1334,-19.5 1334,-0.5 1260,-0.5"/>
<text text-anchor="middle" x="1297" y="-7.5" font-family="Helvetica,sans-Serif" font-size="10.00">petscsnes.h</text>
</a>
</g>
</g>
<!-- Node11&#45;&gt;Node15 -->
<g id="edge14" class="edge">
<title>Node11&#45;&gt;Node15</title>
<path fill="none" stroke="midnightblue" d="M1394.62,-56.44C1375.78,-47.68 1346.27,-33.94 1324.62,-23.86"/>
<polygon fill="midnightblue" stroke="midnightblue" points="1325.84,-20.56 1315.29,-19.52 1322.88,-26.91 1325.84,-20.56"/>
</g>
<!-- Node16 -->
<g id="node16" class="node">
<title>Node16</title>
<g id="a_node16"><a xlink:title=" ">
<polygon fill="none" stroke="#bfbfbf" points="1352,-0.5 1352,-19.5 1402,-19.5 1402,-0.5 1352,-0.5"/>
<text text-anchor="middle" x="1377" y="-7.5" font-family="Helvetica,sans-Serif" font-size="10.00">stdio.h</text>
</a>
</g>
</g>
<!-- Node11&#45;&gt;Node16 -->
<g id="edge16" class="edge">
<title>Node11&#45;&gt;Node16</title>
<path fill="none" stroke="midnightblue" d="M1407.06,-56.08C1402.02,-48.53 1394.66,-37.49 1388.49,-28.23"/>
<polygon fill="midnightblue" stroke="midnightblue" points="1391.29,-26.13 1382.83,-19.75 1385.47,-30.01 1391.29,-26.13"/>
</g>
<!-- Node17 -->
<g id="node17" class="node">
<title>Node17</title>
<g id="a_node17"><a xlink:title=" ">
<polygon fill="none" stroke="#bfbfbf" points="717.5,-0.5 717.5,-19.5 770.5,-19.5 770.5,-0.5 717.5,-0.5"/>
<text text-anchor="middle" x="744" y="-7.5" font-family="Helvetica,sans-Serif" font-size="10.00">string.h</text>
</a>
</g>
</g>
<!-- Node11&#45;&gt;Node17 -->
<g id="edge18" class="edge">
<title>Node11&#45;&gt;Node17</title>
<path fill="none" stroke="midnightblue" d="M1377.29,-58.1C1372.5,-57.31 1367.64,-56.58 1363,-56 1143.01,-28.28 876.71,-16.05 780.71,-12.32"/>
<polygon fill="midnightblue" stroke="midnightblue" points="780.77,-8.82 770.64,-11.93 780.5,-15.81 780.77,-8.82"/>
</g>
<!-- Node18 -->
<g id="node18" class="node">
<title>Node18</title>
<g id="a_node18"><a xlink:title=" ">
<polygon fill="none" stroke="#bfbfbf" points="1420,-0.5 1420,-19.5 1476,-19.5 1476,-0.5 1420,-0.5"/>
<text text-anchor="middle" x="1448" y="-7.5" font-family="Helvetica,sans-Serif" font-size="10.00">unistd.h</text>
</a>
</g>
</g>
<!-- Node11&#45;&gt;Node18 -->
<g id="edge19" class="edge">
<title>Node11&#45;&gt;Node18</title>
<path fill="none" stroke="midnightblue" d="M1418.78,-56.08C1423.67,-48.53 1430.83,-37.49 1436.83,-28.23"/>
<polygon fill="midnightblue" stroke="midnightblue" points="1439.83,-30.05 1442.33,-19.75 1433.95,-26.24 1439.83,-30.05"/>
</g>
<!-- Node19&#45;&gt;Node3 -->
<g id="edge22" class="edge">
<title>Node19&#45;&gt;Node3</title>
<path fill="none" stroke="midnightblue" d="M1964.18,-677.97C2025.36,-673.22 2133.71,-661.73 2223,-636 2528.75,-547.9 2878,-665.19 2878,-347 2878,-347 2878,-347 2878,-121 2878,-64.74 2811.72,-35.9 2761.69,-22.14"/>
<polygon fill="midnightblue" stroke="midnightblue" points="2762.49,-18.73 2751.93,-19.58 2760.72,-25.5 2762.49,-18.73"/>
</g>
<!-- Node19&#45;&gt;Node6 -->
<g id="edge24" class="edge">
<title>Node19&#45;&gt;Node6</title>
<path fill="none" stroke="midnightblue" d="M1964.33,-673.69C1994.22,-667.4 2032.24,-656.04 2061,-636 2155.23,-570.36 2158.1,-506.2 2146,-392 2137.18,-308.79 2120.6,-282.74 2061,-224 2021.07,-184.65 1963.28,-152.88 1929.18,-136.07"/>
<polygon fill="midnightblue" stroke="midnightblue" points="1930.34,-132.74 1919.81,-131.54 1927.29,-139.05 1930.34,-132.74"/>
</g>
<!-- Node19&#45;&gt;Node11 -->
<g id="edge25" class="edge">
<title>Node19&#45;&gt;Node11</title>
<path fill="none" stroke="midnightblue" d="M1922.57,-672.22C1928.71,-663.52 1937.58,-649.55 1942,-636 1949.76,-612.2 1946.66,-605 1948,-580 1952.33,-498.93 1949.83,-126.62 1936,-112 1903.51,-77.67 1580.23,-69.43 1458.79,-67.54"/>
<polygon fill="midnightblue" stroke="midnightblue" points="1458.74,-64.04 1448.69,-67.39 1458.64,-71.04 1458.74,-64.04"/>
</g>
<!-- Node20 -->
<g id="node20" class="node">
<title>Node20</title>
<g id="a_node20"><a xlink:title=" ">
<polygon fill="none" stroke="#bfbfbf" points="2472,-168.5 2472,-187.5 2524,-187.5 2524,-168.5 2472,-168.5"/>
<text text-anchor="middle" x="2498" y="-175.5" font-family="Helvetica,sans-Serif" font-size="10.00">petsc.h</text>
</a>
</g>
</g>
<!-- Node19&#45;&gt;Node20 -->
<g id="edge21" class="edge">
<title>Node19&#45;&gt;Node20</title>
<path fill="none" stroke="midnightblue" d="M1964.27,-677.15C2018.54,-671.84 2108.77,-660.07 2183,-636 2236.32,-618.71 2249.66,-611.53 2296,-580 2437.49,-483.75 2437.76,-408.75 2484,-244 2488.29,-228.7 2492.02,-211.06 2494.54,-198.02"/>
<polygon fill="midnightblue" stroke="midnightblue" points="2498.04,-198.39 2496.44,-187.92 2491.16,-197.1 2498.04,-198.39"/>
</g>
<!-- Node21 -->
<g id="node21" class="node">
<title>Node21</title>
<g id="a_node21"><a xlink:title=" ">
<polygon fill="none" stroke="#bfbfbf" points="2180,-168.5 2180,-187.5 2242,-187.5 2242,-168.5 2180,-168.5"/>
<text text-anchor="middle" x="2211" y="-175.5" font-family="Helvetica,sans-Serif" font-size="10.00">stdbool.h</text>
</a>
</g>
</g>
<!-- Node19&#45;&gt;Node21 -->
<g id="edge23" class="edge">
<title>Node19&#45;&gt;Node21</title>
<path fill="none" stroke="midnightblue" d="M1964.32,-675.36C2083.89,-658.46 2384,-596.73 2384,-403 2384,-403 2384,-403 2384,-289 2384,-226.77 2303.3,-198.23 2252.14,-186.39"/>
<polygon fill="midnightblue" stroke="midnightblue" points="2252.85,-182.97 2242.33,-184.24 2251.35,-189.8 2252.85,-182.97"/>
</g>
<!-- Node19&#45;&gt;Node22 -->
<g id="edge26" class="edge">
<title>Node19&#45;&gt;Node22</title>
<path fill="none" stroke="midnightblue" d="M1871.82,-672.46C1764.66,-651.74 1492.09,-599.05 1388.13,-578.95"/>
<polygon fill="midnightblue" stroke="midnightblue" points="1388.52,-575.46 1378.03,-577 1387.19,-582.33 1388.52,-575.46"/>
</g>
<!-- Node19&#45;&gt;Node25 -->
<g id="edge129" class="edge">
<title>Node19&#45;&gt;Node25</title>
<path fill="none" stroke="midnightblue" d="M1964.03,-672.81C1988.76,-666.43 2017.86,-655.28 2038,-636 2116,-561.35 2110.69,-517.84 2132,-412 2146.4,-340.46 2066.82,-276.45 2026.41,-249.08"/>
<polygon fill="midnightblue" stroke="midnightblue" points="2028.25,-246.1 2017.98,-243.51 2024.39,-251.94 2028.25,-246.1"/>
</g>
<!-- Node19&#45;&gt;Node28 -->
<g id="edge137" class="edge">
<title>Node19&#45;&gt;Node28</title>
<path fill="none" stroke="midnightblue" d="M1867.86,-680.82C1685.71,-679.85 1038.92,-673.76 837,-636 748.86,-619.52 646,-660.67 646,-571 646,-571 646,-571 646,-513 646,-473.28 679.96,-437.5 702.48,-418.15"/>
<polygon fill="midnightblue" stroke="midnightblue" points="704.98,-420.63 710.46,-411.57 700.52,-415.24 704.98,-420.63"/>
</g>
<!-- Node34 -->
<g id="node34" class="node">
<title>Node34</title>
<g id="a_node34"><a xlink:href="Metric_8h.html" target="_top" xlink:title=" ">
<polygon fill="none" stroke="black" points="846,-616.5 846,-635.5 902,-635.5 902,-616.5 846,-616.5"/>
<text text-anchor="middle" x="874" y="-623.5" font-family="Helvetica,sans-Serif" font-size="10.00">Metric.h</text>
</a>
</g>
</g>
<!-- Node19&#45;&gt;Node34 -->
<g id="edge130" class="edge">
<title>Node19&#45;&gt;Node34</title>
<path fill="none" stroke="midnightblue" d="M1867.83,-678.5C1690.2,-669.3 1073.8,-637.35 912.74,-629.01"/>
<polygon fill="midnightblue" stroke="midnightblue" points="912.54,-625.49 902.38,-628.47 912.18,-632.48 912.54,-625.49"/>
</g>
<!-- Node22&#45;&gt;Node4 -->
<g id="edge28" class="edge">
<title>Node22&#45;&gt;Node4</title>
<path fill="none" stroke="midnightblue" d="M1315.59,-568.41C1183.35,-565.76 671.37,-553.74 513,-524 307.05,-485.33 76,-556.55 76,-347 76,-347 76,-347 76,-121 76,-84.3 101.32,-47.66 118.21,-27.3"/>
<polygon fill="midnightblue" stroke="midnightblue" points="120.95,-29.48 124.83,-19.62 115.65,-24.9 120.95,-29.48"/>
</g>
<!-- Node22&#45;&gt;Node8 -->
<g id="edge30" class="edge">
<title>Node22&#45;&gt;Node8</title>
<path fill="none" stroke="midnightblue" d="M1378.25,-567.68C1554.4,-559.46 2420.02,-508.67 2550,-300 2581.27,-249.79 2574.86,-209.8 2533,-168 2505.39,-140.43 2461.54,-129.65 2428.54,-125.48"/>
<polygon fill="midnightblue" stroke="midnightblue" points="2428.56,-121.96 2418.24,-124.35 2427.8,-128.92 2428.56,-121.96"/>
</g>
<!-- Node22&#45;&gt;Node11 -->
<g id="edge32" class="edge">
<title>Node22&#45;&gt;Node11</title>
<path fill="none" stroke="midnightblue" d="M1315.99,-568.99C1227.18,-568.45 964.53,-563.39 751,-524 559.36,-488.65 460.31,-513.82 346,-356 296.76,-288.02 304.86,-248.68 328,-168 336.09,-139.79 337.64,-126.77 363,-112 406.93,-86.41 1170.38,-71.27 1367.08,-67.78"/>
<polygon fill="midnightblue" stroke="midnightblue" points="1367.42,-71.27 1377.35,-67.6 1367.29,-64.27 1367.42,-71.27"/>
</g>
<!-- Node22&#45;&gt;Node17 -->
<g id="edge29" class="edge">
<title>Node22&#45;&gt;Node17</title>
<path fill="none" stroke="midnightblue" d="M1315.73,-568.08C1193.93,-564.36 751.13,-549.34 613,-524 530.59,-508.88 506.86,-507.56 433,-468 328.55,-412.06 282.59,-404.1 226,-300 185.66,-225.78 183.2,-158.08 254,-112 329.85,-62.64 606.87,-26.72 707.31,-15.06"/>
<polygon fill="midnightblue" stroke="midnightblue" points="707.76,-18.53 717.29,-13.92 706.96,-11.58 707.76,-18.53"/>
</g>
<!-- Node22&#45;&gt;Node20 -->
<g id="edge27" class="edge">
<title>Node22&#45;&gt;Node20</title>
<path fill="none" stroke="midnightblue" d="M1378.28,-568.94C1455.4,-568.17 1660.41,-562.37 1826,-524 1952.19,-494.76 2282.52,-361.52 2375,-300 2420.51,-269.73 2463.64,-221.13 2484.66,-195.71"/>
<polygon fill="midnightblue" stroke="midnightblue" points="2487.53,-197.72 2491.13,-187.76 2482.11,-193.3 2487.53,-197.72"/>
</g>
<!-- Node23 -->
<g id="node23" class="node">
<title>Node23</title>
<g id="a_node23"><a xlink:title=" ">
<polygon fill="none" stroke="#bfbfbf" points="1347.5,-504.5 1347.5,-523.5 1400.5,-523.5 1400.5,-504.5 1347.5,-504.5"/>
<text text-anchor="middle" x="1374" y="-511.5" font-family="Helvetica,sans-Serif" font-size="10.00">ctype.h</text>
</a>
</g>
</g>
<!-- Node22&#45;&gt;Node23 -->
<g id="edge31" class="edge">
<title>Node22&#45;&gt;Node23</title>
<path fill="none" stroke="midnightblue" d="M1351.46,-560.08C1355.15,-552.69 1360.52,-541.95 1365.09,-532.81"/>
<polygon fill="midnightblue" stroke="midnightblue" points="1368.28,-534.26 1369.62,-523.75 1362.02,-531.13 1368.28,-534.26"/>
</g>
<!-- Node22&#45;&gt;Node24 -->
<g id="edge33" class="edge">
<title>Node22&#45;&gt;Node24</title>
<path fill="none" stroke="midnightblue" d="M1315.55,-564.29C1308.05,-562.86 1300.21,-561.33 1293,-560 1223.87,-547.26 1144.4,-534.05 1092.06,-525.27"/>
<polygon fill="midnightblue" stroke="midnightblue" points="1092.4,-521.78 1081.96,-523.57 1091.24,-528.68 1092.4,-521.78"/>
</g>
<!-- Node22&#45;&gt;Node29 -->
<g id="edge128" class="edge">
<title>Node22&#45;&gt;Node29</title>
<path fill="none" stroke="midnightblue" d="M1378.15,-566.92C1438.78,-562.61 1569.1,-550.76 1605,-524 1658.49,-484.13 1680.96,-402.42 1692.6,-365.65"/>
<polygon fill="midnightblue" stroke="midnightblue" points="1696.05,-366.37 1695.89,-355.78 1689.41,-364.16 1696.05,-366.37"/>
</g>
<!-- Node24&#45;&gt;Node2 -->
<g id="edge34" class="edge">
<title>Node24&#45;&gt;Node2</title>
<path fill="none" stroke="midnightblue" d="M1002.39,-504.43C945.11,-487.36 828.31,-443.03 784,-356 747.28,-283.88 755,-182.86 760.23,-141.63"/>
<polygon fill="midnightblue" stroke="midnightblue" points="763.7,-142.04 761.6,-131.66 756.77,-141.09 763.7,-142.04"/>
</g>
<!-- Node24&#45;&gt;Node3 -->
<g id="edge35" class="edge">
<title>Node24&#45;&gt;Node3</title>
<path fill="none" stroke="midnightblue" d="M1092.29,-510.18C1395.78,-494.5 2802,-412.3 2802,-235 2802,-235 2802,-235 2802,-121 2802,-77.74 2759.39,-43.09 2731.25,-24.91"/>
<polygon fill="midnightblue" stroke="midnightblue" points="2733.03,-21.9 2722.69,-19.6 2729.34,-27.85 2733.03,-21.9"/>
</g>
<!-- Node24&#45;&gt;Node4 -->
<g id="edge36" class="edge">
<title>Node24&#45;&gt;Node4</title>
<path fill="none" stroke="midnightblue" d="M977.74,-508.78C776.52,-493.2 114,-435.19 114,-347 114,-347 114,-347 114,-121 114,-88.49 122.16,-51.35 127.78,-29.61"/>
<polygon fill="midnightblue" stroke="midnightblue" points="131.22,-30.32 130.44,-19.75 124.46,-28.5 131.22,-30.32"/>
</g>
<!-- Node24&#45;&gt;Node5 -->
<g id="edge37" class="edge">
<title>Node24&#45;&gt;Node5</title>
<path fill="none" stroke="midnightblue" d="M1005.78,-504.46C984.71,-497.24 956.49,-485.28 936,-468 913.01,-448.61 906.83,-440.75 898,-412 873.46,-332.13 867.62,-301.84 898,-224 912.52,-186.79 947.89,-155.01 970.58,-137.5"/>
<polygon fill="midnightblue" stroke="midnightblue" points="972.68,-140.3 978.59,-131.51 968.49,-134.7 972.68,-140.3"/>
</g>
<!-- Node24&#45;&gt;Node6 -->
<g id="edge38" class="edge">
<title>Node24&#45;&gt;Node6</title>
<path fill="none" stroke="midnightblue" d="M1092.29,-509.44C1167.61,-504.05 1303.79,-491.8 1418,-468 1502.1,-450.47 1521.11,-437.96 1603,-412 1678.43,-388.09 1708.03,-402.58 1772,-356 1848.15,-300.55 1884.8,-185.79 1896.59,-141.24"/>
<polygon fill="midnightblue" stroke="midnightblue" points="1899.99,-142.06 1899.06,-131.5 1893.2,-140.33 1899.99,-142.06"/>
</g>
<!-- Node24&#45;&gt;Node7 -->
<g id="edge39" class="edge">
<title>Node24&#45;&gt;Node7</title>
<path fill="none" stroke="midnightblue" d="M1019.65,-504.46C1006.28,-496.42 987.04,-483.34 974,-468 934.87,-421.95 912,-407.43 912,-347 912,-347 912,-347 912,-289 912,-206.87 1013.71,-156.5 1069.46,-135.06"/>
<polygon fill="midnightblue" stroke="midnightblue" points="1070.83,-138.29 1078.97,-131.51 1068.38,-131.73 1070.83,-138.29"/>
</g>
<!-- Node24&#45;&gt;Node9 -->
<g id="edge40" class="edge">
<title>Node24&#45;&gt;Node9</title>
<path fill="none" stroke="midnightblue" d="M1034.72,-504.09C1034.47,-491.5 1034.59,-467.82 1038,-448 1042.41,-422.37 1043.94,-415.54 1055,-392 1105.68,-284.15 1205.16,-178.53 1244.46,-139.16"/>
<polygon fill="midnightblue" stroke="midnightblue" points="1247.26,-141.31 1251.89,-131.78 1242.33,-136.34 1247.26,-141.31"/>
</g>
<!-- Node24&#45;&gt;Node11 -->
<g id="edge41" class="edge">
<title>Node24&#45;&gt;Node11</title>
<path fill="none" stroke="midnightblue" d="M977.78,-506.88C917.26,-499.83 819.22,-486.75 736,-468 715.05,-463.28 381.63,-370.73 366,-356 343.58,-334.88 342,-321.8 342,-291 342,-291 342,-291 342,-177 342,-108.8 414.8,-128.4 481,-112 651.79,-69.69 1203.81,-66.78 1367.1,-66.87"/>
<polygon fill="midnightblue" stroke="midnightblue" points="1367.28,-70.37 1377.28,-66.88 1367.29,-63.37 1367.28,-70.37"/>
</g>
<!-- Node24&#45;&gt;Node19 -->
<g id="edge42" class="edge">
<title>Node24&#45;&gt;Node19</title>
<path fill="none" stroke="midnightblue" d="M1069.28,-523.53C1120.78,-536.27 1221.24,-560.83 1307,-580 1426.18,-606.64 1455.61,-615.53 1576,-636 1674.55,-652.76 1790.06,-666.89 1857.91,-674.63"/>
<polygon fill="midnightblue" stroke="midnightblue" points="1857.64,-678.12 1867.97,-675.77 1858.43,-671.17 1857.64,-678.12"/>
</g>
<!-- Node24&#45;&gt;Node22 -->
<g id="edge124" class="edge">
<title>Node24&#45;&gt;Node22</title>
<path fill="none" stroke="midnightblue" d="M1092.21,-523.05C1145.97,-531.36 1228.64,-544.97 1305.89,-559.08"/>
<polygon fill="midnightblue" stroke="midnightblue" points="1305.3,-562.53 1315.77,-560.89 1306.57,-555.64 1305.3,-562.53"/>
</g>
<!-- Node24&#45;&gt;Node25 -->
<g id="edge43" class="edge">
<title>Node24&#45;&gt;Node25</title>
<path fill="none" stroke="midnightblue" d="M1092.46,-512.18C1225,-509.74 1548.66,-500.54 1652,-468 1791.15,-424.18 1817.23,-387.46 1934,-300 1954.2,-284.87 1975.11,-264.77 1988.76,-250.95"/>
<polygon fill="midnightblue" stroke="midnightblue" points="1991.42,-253.22 1995.89,-243.62 1986.41,-248.34 1991.42,-253.22"/>
</g>
<!-- Node26 -->
<g id="node26" class="node">
<title>Node26</title>
<g id="a_node26"><a xlink:href="setup_8h.html" target="_top" xlink:title=" ">
<polygon fill="none" stroke="black" points="1322.5,-168.5 1322.5,-187.5 1375.5,-187.5 1375.5,-168.5 1322.5,-168.5"/>
<text text-anchor="middle" x="1349" y="-175.5" font-family="Helvetica,sans-Serif" font-size="10.00">setup.h</text>
</a>
</g>
</g>
<!-- Node24&#45;&gt;Node26 -->
<g id="edge126" class="edge">
<title>Node24&#45;&gt;Node26</title>
<path fill="none" stroke="midnightblue" d="M1031.27,-504.49C1028.99,-483.87 1036.65,-430.13 1059,-392 1119.69,-288.49 1252.18,-218.61 1314.98,-191.55"/>
<polygon fill="midnightblue" stroke="midnightblue" points="1316.58,-194.68 1324.44,-187.58 1313.86,-188.23 1316.58,-194.68"/>
</g>
<!-- Node24&#45;&gt;Node27 -->
<g id="edge123" class="edge">
<title>Node24&#45;&gt;Node27</title>
<path fill="none" stroke="midnightblue" d="M977.99,-509.45C925.31,-504.66 845.66,-493.55 781,-468 738.58,-451.24 728.98,-442.42 695,-412 627.85,-351.89 613.4,-313.95 619,-224 620.56,-198.97 618.63,-191.97 626,-168 628.93,-158.46 633.8,-148.51 638.31,-140.41"/>
<polygon fill="midnightblue" stroke="midnightblue" points="641.44,-141.98 643.46,-131.58 635.4,-138.45 641.44,-141.98"/>
</g>
<!-- Node24&#45;&gt;Node28 -->
<g id="edge125" class="edge">
<title>Node24&#45;&gt;Node28</title>
<path fill="none" stroke="midnightblue" d="M977.7,-506.71C933.82,-500.53 872.47,-488.88 822,-468 791.14,-455.23 759.47,-432.75 740.26,-417.86"/>
<polygon fill="midnightblue" stroke="midnightblue" points="742.38,-415.07 732.36,-411.62 738.04,-420.57 742.38,-415.07"/>
</g>
<!-- Node24&#45;&gt;Node30 -->
<g id="edge127" class="edge">
<title>Node24&#45;&gt;Node30</title>
<path fill="none" stroke="midnightblue" d="M1080,-504.44C1130.11,-494.92 1211.08,-479.52 1264.67,-469.33"/>
<polygon fill="midnightblue" stroke="midnightblue" points="1265.51,-472.73 1274.68,-467.43 1264.2,-465.86 1265.51,-472.73"/>
</g>
<!-- Node25&#45;&gt;Node6 -->
<g id="edge46" class="edge">
<title>Node25&#45;&gt;Node6</title>
<path fill="none" stroke="midnightblue" d="M1995.92,-224.37C1978.69,-205.97 1938.15,-162.67 1916.03,-139.05"/>
<polygon fill="midnightblue" stroke="midnightblue" points="1918.43,-136.5 1909.04,-131.59 1913.32,-141.28 1918.43,-136.5"/>
</g>
<!-- Node25&#45;&gt;Node11 -->
<g id="edge47" class="edge">
<title>Node25&#45;&gt;Node11</title>
<path fill="none" stroke="midnightblue" d="M2005.38,-224.31C2008.42,-201.81 2012.96,-141.32 1980,-112 1941.39,-77.64 1586.7,-69.38 1458.75,-67.52"/>
<polygon fill="midnightblue" stroke="midnightblue" points="1458.56,-64.01 1448.51,-67.37 1458.46,-71.01 1458.56,-64.01"/>
</g>
<!-- Node25&#45;&gt;Node20 -->
<g id="edge44" class="edge">
<title>Node25&#45;&gt;Node20</title>
<path fill="none" stroke="midnightblue" d="M2052.27,-227.72C2151.07,-216.92 2374.41,-192.51 2461.89,-182.95"/>
<polygon fill="midnightblue" stroke="midnightblue" points="2462.31,-186.42 2471.87,-181.86 2461.55,-179.46 2462.31,-186.42"/>
</g>
<!-- Node25&#45;&gt;Node21 -->
<g id="edge45" class="edge">
<title>Node25&#45;&gt;Node21</title>
<path fill="none" stroke="midnightblue" d="M2036.8,-224.44C2072.8,-215.05 2130.66,-199.96 2169.72,-189.77"/>
<polygon fill="midnightblue" stroke="midnightblue" points="2170.92,-193.07 2179.71,-187.16 2169.15,-186.3 2170.92,-193.07"/>
</g>
<!-- Node25&#45;&gt;Node22 -->
<g id="edge48" class="edge">
<title>Node25&#45;&gt;Node22</title>
<path fill="none" stroke="midnightblue" d="M1999.18,-243.59C1991.63,-256.62 1976.1,-281.8 1959,-300 1842.11,-424.41 1805.99,-461.85 1647,-524 1559.31,-558.28 1447.8,-566.62 1388.5,-568.54"/>
<polygon fill="midnightblue" stroke="midnightblue" points="1388.3,-565.05 1378.4,-568.82 1388.49,-572.04 1388.3,-565.05"/>
</g>
<!-- Node25&#45;&gt;Node26 -->
<g id="edge49" class="edge">
<title>Node25&#45;&gt;Node26</title>
<path fill="none" stroke="midnightblue" d="M1955.88,-229.33C1830.73,-219.36 1497.5,-191.89 1385.91,-182.33"/>
<polygon fill="midnightblue" stroke="midnightblue" points="1386.08,-178.83 1375.82,-181.46 1385.48,-185.8 1386.08,-178.83"/>
</g>
<!-- Node26&#45;&gt;Node2 -->
<g id="edge50" class="edge">
<title>Node26&#45;&gt;Node2</title>
<path fill="none" stroke="midnightblue" d="M1322.3,-174.54C1228.92,-165.93 916.58,-137.15 803.94,-126.77"/>
<polygon fill="midnightblue" stroke="midnightblue" points="803.96,-123.26 793.68,-125.83 803.31,-130.23 803.96,-123.26"/>
</g>
<!-- Node26&#45;&gt;Node3 -->
<g id="edge51" class="edge">
<title>Node26&#45;&gt;Node3</title>
<path fill="none" stroke="midnightblue" d="M1375.63,-171.84C1437.48,-160 1595.74,-130.46 1729,-112 2074.85,-64.09 2492.41,-28.26 2646.28,-15.79"/>
<polygon fill="midnightblue" stroke="midnightblue" points="2646.78,-19.27 2656.46,-14.97 2646.21,-12.29 2646.78,-19.27"/>
</g>
<!-- Node26&#45;&gt;Node4 -->
<g id="edge52" class="edge">
<title>Node26&#45;&gt;Node4</title>
<path fill="none" stroke="midnightblue" d="M1349.31,-168.18C1349.29,-153.88 1346.93,-125.84 1330,-112 1237.99,-36.78 360.85,-15.44 169.67,-11.66"/>
<polygon fill="midnightblue" stroke="midnightblue" points="169.64,-8.16 159.58,-11.47 169.51,-15.16 169.64,-8.16"/>
</g>
<!-- Node26&#45;&gt;Node5 -->
<g id="edge53" class="edge">
<title>Node26&#45;&gt;Node5</title>
<path fill="none" stroke="midnightblue" d="M1322.38,-172.99C1258.57,-163.36 1096.89,-138.97 1025.63,-128.22"/>
<polygon fill="midnightblue" stroke="midnightblue" points="1025.81,-124.71 1015.4,-126.68 1024.77,-131.63 1025.81,-124.71"/>
</g>
<!-- Node26&#45;&gt;Node6 -->
<g id="edge54" class="edge">
<title>Node26&#45;&gt;Node6</title>
<path fill="none" stroke="midnightblue" d="M1375.51,-175.15C1449.48,-169.85 1664.33,-153.64 1842,-132 1849.65,-131.07 1857.84,-129.92 1865.61,-128.75"/>
<polygon fill="midnightblue" stroke="midnightblue" points="1866.14,-132.21 1875.49,-127.24 1865.07,-125.29 1866.14,-132.21"/>
</g>
<!-- Node26&#45;&gt;Node7 -->
<g id="edge55" class="edge">
<title>Node26&#45;&gt;Node7</title>
<path fill="none" stroke="midnightblue" d="M1322.42,-171.12C1281.63,-162.09 1203.01,-144.69 1152.32,-133.47"/>
<polygon fill="midnightblue" stroke="midnightblue" points="1152.79,-129.99 1142.27,-131.25 1151.27,-136.83 1152.79,-129.99"/>
</g>
<!-- Node26&#45;&gt;Node8 -->
<g id="edge56" class="edge">
<title>Node26&#45;&gt;Node8</title>
<path fill="none" stroke="midnightblue" d="M1375.62,-175.61C1515.24,-168.33 2163.12,-134.52 2339.54,-125.32"/>
<polygon fill="midnightblue" stroke="midnightblue" points="2339.95,-128.8 2349.75,-124.79 2339.58,-121.81 2339.95,-128.8"/>
</g>
<!-- Node26&#45;&gt;Node9 -->
<g id="edge57" class="edge">
<title>Node26&#45;&gt;Node9</title>
<path fill="none" stroke="midnightblue" d="M1334.86,-168.32C1321.13,-159.9 1300.06,-146.97 1283.94,-137.07"/>
<polygon fill="midnightblue" stroke="midnightblue" points="1285.46,-133.9 1275.1,-131.65 1281.8,-139.87 1285.46,-133.9"/>
</g>
<!-- Node26&#45;&gt;Node10 -->
<g id="edge58" class="edge">
<title>Node26&#45;&gt;Node10</title>
<path fill="none" stroke="midnightblue" d="M1375.78,-174C1437.23,-167.08 1593.02,-149.25 1723,-132 1724.3,-131.83 1725.62,-131.65 1726.95,-131.47"/>
<polygon fill="midnightblue" stroke="midnightblue" points="1727.86,-134.88 1737.29,-130.05 1726.9,-127.94 1727.86,-134.88"/>
</g>
<!-- Node26&#45;&gt;Node11 -->
<g id="edge59" class="edge">
<title>Node26&#45;&gt;Node11</title>
<path fill="none" stroke="midnightblue" d="M1354.02,-168.37C1364.54,-150.3 1389.04,-108.18 1402.93,-84.31"/>
<polygon fill="midnightblue" stroke="midnightblue" points="1406,-86 1408,-75.59 1399.95,-82.47 1406,-86"/>
</g>
<!-- Node26&#45;&gt;Node19 -->
<g id="edge60" class="edge">
<title>Node26&#45;&gt;Node19</title>
<path fill="none" stroke="midnightblue" d="M1349.16,-187.5C1350,-209.05 1355.1,-266.47 1385,-300 1545.5,-479.97 1884,-271.86 1884,-513 1884,-571 1884,-571 1884,-571 1884,-604.67 1897.99,-641.92 1907.47,-663.28"/>
<polygon fill="midnightblue" stroke="midnightblue" points="1904.32,-664.79 1911.68,-672.41 1910.67,-661.86 1904.32,-664.79"/>
</g>
<!-- Node26&#45;&gt;Node22 -->
<g id="edge117" class="edge">
<title>Node26&#45;&gt;Node22</title>
<path fill="none" stroke="midnightblue" d="M1341.51,-187.71C1334.44,-196.36 1324.05,-210.29 1318,-224 1127.93,-654.61 1243.26,-403.31 1266,-468 1278.45,-503.41 1309.12,-535.6 1328.95,-553.7"/>
<polygon fill="midnightblue" stroke="midnightblue" points="1326.64,-556.34 1336.45,-560.36 1331.29,-551.1 1326.64,-556.34"/>
</g>
<!-- Node26&#45;&gt;Node24 -->
<g id="edge120" class="edge">
<title>Node26&#45;&gt;Node24</title>
<path fill="none" stroke="midnightblue" d="M1332.99,-187.58C1284.56,-211.23 1140.93,-282.95 1077,-392 1057.61,-425.07 1049.29,-469.87 1043.05,-494.64"/>
<polygon fill="midnightblue" stroke="midnightblue" points="1039.61,-493.92 1040.3,-504.49 1046.36,-495.8 1039.61,-493.92"/>
</g>
<!-- Node26&#45;&gt;Node25 -->
<g id="edge61" class="edge">
<title>Node26&#45;&gt;Node25</title>
<path fill="none" stroke="midnightblue" d="M1375.62,-180.97C1472.8,-188.58 1808.99,-216.26 1945.65,-227.85"/>
<polygon fill="midnightblue" stroke="midnightblue" points="1945.66,-231.36 1955.92,-228.72 1946.25,-224.38 1945.66,-231.36"/>
</g>
<!-- Node26&#45;&gt;Node27 -->
<g id="edge62" class="edge">
<title>Node26&#45;&gt;Node27</title>
<path fill="none" stroke="midnightblue" d="M1322.41,-175.75C1234.84,-171.23 949.08,-154.73 714,-132 703.28,-130.96 691.7,-129.65 681.27,-128.35"/>
<polygon fill="midnightblue" stroke="midnightblue" points="681.67,-124.87 671.3,-127.06 680.77,-131.81 681.67,-124.87"/>
</g>
<!-- Node26&#45;&gt;Node28 -->
<g id="edge118" class="edge">
<title>Node26&#45;&gt;Node28</title>
<path fill="none" stroke="midnightblue" d="M1322.16,-179.66C1264.27,-181.7 1123.83,-190.06 1012,-224 903.97,-256.79 875.04,-269.23 784,-336 764.84,-350.05 746.52,-370.41 734.83,-384.58"/>
<polygon fill="midnightblue" stroke="midnightblue" points="732.01,-382.51 728.46,-392.49 737.46,-386.9 732.01,-382.51"/>
</g>
<!-- Node26&#45;&gt;Node29 -->
<g id="edge122" class="edge">
<title>Node26&#45;&gt;Node29</title>
<path fill="none" stroke="midnightblue" d="M1367.25,-187.61C1424.97,-214.83 1603.86,-299.19 1673.17,-331.87"/>
<polygon fill="midnightblue" stroke="midnightblue" points="1672.03,-335.21 1682.57,-336.31 1675.02,-328.88 1672.03,-335.21"/>
</g>
<!-- Node26&#45;&gt;Node30 -->
<g id="edge119" class="edge">
<title>Node26&#45;&gt;Node30</title>
<path fill="none" stroke="midnightblue" d="M1349.97,-187.66C1345.99,-204.8 1328.98,-244.5 1323,-280 1313.41,-336.97 1320.59,-405.68 1321.53,-438.19"/>
<polygon fill="midnightblue" stroke="midnightblue" points="1318.03,-438.45 1321.55,-448.44 1325.03,-438.44 1318.03,-438.45"/>
</g>
<!-- Node26&#45;&gt;Node32 -->
<g id="edge121" class="edge">
<title>Node26&#45;&gt;Node32</title>
<path fill="none" stroke="midnightblue" d="M1375.8,-179.84C1488.67,-183.5 1925.64,-199.04 2061,-224 2094.82,-230.24 2185.32,-260.16 2235.43,-277.15"/>
<polygon fill="midnightblue" stroke="midnightblue" points="2234.58,-280.55 2245.18,-280.46 2236.83,-273.93 2234.58,-280.55"/>
</g>
<!-- Node27&#45;&gt;Node11 -->
<g id="edge63" class="edge">
<title>Node27&#45;&gt;Node11</title>
<path fill="none" stroke="midnightblue" d="M671.31,-117.96C685.98,-116.04 705.6,-113.62 723,-112 965.29,-89.38 1256.51,-74.37 1367.25,-69.1"/>
<polygon fill="midnightblue" stroke="midnightblue" points="1367.57,-72.59 1377.39,-68.62 1367.24,-65.59 1367.57,-72.59"/>
</g>
<!-- Node27&#45;&gt;Node22 -->
<g id="edge64" class="edge">
<title>Node27&#45;&gt;Node22</title>
<path fill="none" stroke="midnightblue" d="M640.21,-131.83C613,-160.14 532,-252.2 532,-345 532,-403 532,-403 532,-403 532,-480.27 782.65,-506.87 858,-524 1020.83,-561.03 1220.76,-567.74 1305.69,-568.85"/>
<polygon fill="midnightblue" stroke="midnightblue" points="1305.91,-572.35 1315.95,-568.96 1305.99,-565.35 1305.91,-572.35"/>
</g>
<!-- Node27&#45;&gt;Node26 -->
<g id="edge116" class="edge">
<title>Node27&#45;&gt;Node26</title>
<path fill="none" stroke="midnightblue" d="M671.17,-125.08C688.23,-127.06 711.65,-130.03 732,-132 952.05,-153.28 1216.51,-169.09 1312.29,-174.74"/>
<polygon fill="midnightblue" stroke="midnightblue" points="1312.15,-178.24 1322.34,-175.33 1312.56,-171.25 1312.15,-178.24"/>
</g>
<!-- Node27&#45;&gt;Node28 -->
<g id="edge65" class="edge">
<title>Node27&#45;&gt;Node28</title>
<path fill="none" stroke="midnightblue" d="M645.46,-131.84C635.4,-158.36 608.81,-239.13 632,-300 645.95,-336.62 679.95,-368.41 701.93,-386.11"/>
<polygon fill="midnightblue" stroke="midnightblue" points="699.94,-389 709.98,-392.39 704.25,-383.48 699.94,-389"/>
</g>
<!-- Node28&#45;&gt;Node11 -->
<g id="edge66" class="edge">
<title>Node28&#45;&gt;Node11</title>
<path fill="none" stroke="midnightblue" d="M704.3,-395.73C631.51,-373.19 362.94,-280.82 445,-168 492.54,-102.64 538.56,-126.85 618,-112 763.31,-84.84 1220.68,-71.65 1367.29,-68.05"/>
<polygon fill="midnightblue" stroke="midnightblue" points="1367.39,-71.55 1377.3,-67.81 1367.22,-64.55 1367.39,-71.55"/>
</g>
<!-- Node28&#45;&gt;Node22 -->
<g id="edge67" class="edge">
<title>Node28&#45;&gt;Node22</title>
<path fill="none" stroke="midnightblue" d="M727.44,-411.54C736.73,-425.43 757.01,-452.9 781,-468 854.79,-514.43 883.62,-506.34 969,-524 1089.96,-549.02 1235.79,-561.49 1305.69,-566.4"/>
<polygon fill="midnightblue" stroke="midnightblue" points="1305.63,-569.91 1315.84,-567.1 1306.11,-562.92 1305.63,-569.91"/>
</g>
<!-- Node28&#45;&gt;Node29 -->
<g id="edge68" class="edge">
<title>Node28&#45;&gt;Node29</title>
<path fill="none" stroke="midnightblue" d="M739.9,-399.9C853.14,-393.33 1469.29,-359.32 1650.75,-349.6"/>
<polygon fill="midnightblue" stroke="midnightblue" points="1651.02,-353.09 1660.82,-349.06 1650.65,-346.1 1651.02,-353.09"/>
</g>
<!-- Node29&#45;&gt;Node1 -->
<g id="edge115" class="edge">
<title>Node29&#45;&gt;Node1</title>
<path fill="none" stroke="midnightblue" d="M1741.19,-347.02C1858.94,-349.17 2194,-372.09 2194,-569 2194,-627 2194,-627 2194,-627 2194,-686.61 1755.95,-722.96 1600.67,-733.67"/>
<polygon fill="midnightblue" stroke="midnightblue" points="1600.17,-730.19 1590.43,-734.36 1600.64,-737.18 1600.17,-730.19"/>
</g>
<!-- Node29&#45;&gt;Node2 -->
<g id="edge69" class="edge">
<title>Node29&#45;&gt;Node2</title>
<path fill="none" stroke="midnightblue" d="M1660.9,-338.32C1624.29,-331.41 1569.18,-318.94 1524,-300 1508.18,-293.37 1506.94,-286.34 1491,-280 1425.81,-254.06 947.76,-159.23 803.87,-130.99"/>
<polygon fill="midnightblue" stroke="midnightblue" points="804.19,-127.49 793.7,-129 802.84,-134.36 804.19,-127.49"/>
</g>
<!-- Node29&#45;&gt;Node3 -->
<g id="edge70" class="edge">
<title>Node29&#45;&gt;Node3</title>
<path fill="none" stroke="midnightblue" d="M1741.38,-344.7C1864.85,-343.4 2235.82,-336.48 2350,-300 2512.28,-248.16 2652.34,-81.57 2694.24,-27.86"/>
<polygon fill="midnightblue" stroke="midnightblue" points="2697.18,-29.77 2700.51,-19.72 2691.64,-25.5 2697.18,-29.77"/>
</g>
<!-- Node29&#45;&gt;Node4 -->
<g id="edge71" class="edge">
<title>Node29&#45;&gt;Node4</title>
<path fill="none" stroke="midnightblue" d="M1660.93,-342.12C1587.3,-336.5 1425.71,-322.59 1291,-300 842.43,-224.78 311.73,-66.08 169.54,-22.36"/>
<polygon fill="midnightblue" stroke="midnightblue" points="170.19,-18.9 159.6,-19.3 168.13,-25.59 170.19,-18.9"/>
</g>
<!-- Node29&#45;&gt;Node5 -->
<g id="edge72" class="edge">
<title>Node29&#45;&gt;Node5</title>
<path fill="none" stroke="midnightblue" d="M1671.41,-336.46C1643.57,-328.14 1600.93,-314.63 1565,-300 1546.22,-292.35 1542.9,-287.33 1524,-280 1340.33,-208.73 1110.49,-151.25 1025.04,-130.92"/>
<polygon fill="midnightblue" stroke="midnightblue" points="1025.65,-127.47 1015.12,-128.57 1024.04,-134.28 1025.65,-127.47"/>
</g>
<!-- Node29&#45;&gt;Node6 -->
<g id="edge73" class="edge">
<title>Node29&#45;&gt;Node6</title>
<path fill="none" stroke="midnightblue" d="M1707.14,-336.4C1729.59,-305.07 1807.48,-197.37 1838,-168 1850.16,-156.3 1865.54,-145.25 1878.06,-137.03"/>
<polygon fill="midnightblue" stroke="midnightblue" points="1880.05,-139.92 1886.59,-131.58 1876.28,-134.02 1880.05,-139.92"/>
</g>
<!-- Node29&#45;&gt;Node7 -->
<g id="edge74" class="edge">
<title>Node29&#45;&gt;Node7</title>
<path fill="none" stroke="midnightblue" d="M1688.62,-336.39C1669.97,-323.54 1633.39,-298.86 1601,-280 1507.55,-225.58 1487.69,-201.9 1385,-168 1342.7,-154.04 1220.29,-137.33 1152.17,-128.73"/>
<polygon fill="midnightblue" stroke="midnightblue" points="1152.48,-125.25 1142.12,-127.48 1151.61,-132.19 1152.48,-125.25"/>
</g>
<!-- Node29&#45;&gt;Node8 -->
<g id="edge75" class="edge">
<title>Node29&#45;&gt;Node8</title>
<path fill="none" stroke="midnightblue" d="M1741.4,-344.68C1872.61,-343.29 2281.04,-336.08 2327,-300 2376.27,-261.33 2383.6,-179.62 2384.26,-142.31"/>
<polygon fill="midnightblue" stroke="midnightblue" points="2387.76,-141.88 2384.28,-131.87 2380.76,-141.86 2387.76,-141.88"/>
</g>
<!-- Node29&#45;&gt;Node9 -->
<g id="edge76" class="edge">
<title>Node29&#45;&gt;Node9</title>
<path fill="none" stroke="midnightblue" d="M1696,-336.4C1682.92,-314.63 1645.55,-256.73 1600,-224 1518.79,-165.65 1403.73,-140.66 1330.74,-130.21"/>
<polygon fill="midnightblue" stroke="midnightblue" points="1331.11,-126.73 1320.73,-128.83 1330.16,-133.66 1331.11,-126.73"/>
</g>
<!-- Node29&#45;&gt;Node10 -->
<g id="edge77" class="edge">
<title>Node29&#45;&gt;Node10</title>
<path fill="none" stroke="midnightblue" d="M1703.5,-336.37C1711.12,-310.43 1735.15,-231.11 1762,-168 1765.91,-158.82 1770.88,-148.91 1775.21,-140.73"/>
<polygon fill="midnightblue" stroke="midnightblue" points="1778.37,-142.25 1780.04,-131.79 1772.21,-138.92 1778.37,-142.25"/>
</g>
<!-- Node29&#45;&gt;Node11 -->
<g id="edge78" class="edge">
<title>Node29&#45;&gt;Node11</title>
<path fill="none" stroke="midnightblue" d="M1699.1,-336.08C1696.05,-323.05 1689.24,-298.38 1678,-280 1617.56,-181.2 1494.09,-108.72 1439.72,-80.26"/>
<polygon fill="midnightblue" stroke="midnightblue" points="1441.19,-77.08 1430.7,-75.61 1437.98,-83.3 1441.19,-77.08"/>
</g>
<!-- Node29&#45;&gt;Node19 -->
<g id="edge79" class="edge">
<title>Node29&#45;&gt;Node19</title>
<path fill="none" stroke="midnightblue" d="M1741.28,-351.77C1789.48,-358.31 1866.18,-371.62 1886,-392 1959.25,-467.3 1933.18,-611.33 1920.9,-662.45"/>
<polygon fill="midnightblue" stroke="midnightblue" points="1917.45,-661.83 1918.4,-672.38 1924.24,-663.53 1917.45,-661.83"/>
</g>
<!-- Node29&#45;&gt;Node22 -->
<g id="edge82" class="edge">
<title>Node29&#45;&gt;Node22</title>
<path fill="none" stroke="midnightblue" d="M1703.23,-355.78C1703.27,-385.06 1682.03,-480.01 1623,-524 1587.04,-550.8 1456.38,-562.65 1388.42,-566.94"/>
<polygon fill="midnightblue" stroke="midnightblue" points="1387.85,-563.47 1378.08,-567.57 1388.27,-570.46 1387.85,-563.47"/>
</g>
<!-- Node29&#45;&gt;Node24 -->
<g id="edge101" class="edge">
<title>Node29&#45;&gt;Node24</title>
<path fill="none" stroke="midnightblue" d="M1682.18,-355.6C1632.57,-377.89 1493.7,-437.88 1372,-468 1280.03,-490.76 1170.91,-502.67 1102.3,-508.39"/>
<polygon fill="midnightblue" stroke="midnightblue" points="1101.74,-504.92 1092.06,-509.22 1102.31,-511.9 1101.74,-504.92"/>
</g>
<!-- Node29&#45;&gt;Node25 -->
<g id="edge80" class="edge">
<title>Node29&#45;&gt;Node25</title>
<path fill="none" stroke="midnightblue" d="M1724.78,-336.37C1778.43,-316.89 1909.03,-269.48 1970.7,-247.09"/>
<polygon fill="midnightblue" stroke="midnightblue" points="1972.13,-250.29 1980.33,-243.59 1969.74,-243.71 1972.13,-250.29"/>
</g>
<!-- Node29&#45;&gt;Node27 -->
<g id="edge81" class="edge">
<title>Node29&#45;&gt;Node27</title>
<path fill="none" stroke="midnightblue" d="M1660.89,-340.52C1600.69,-333.52 1483.52,-318.82 1385,-300 1109.81,-247.44 782.57,-159.68 680.79,-131.79"/>
<polygon fill="midnightblue" stroke="midnightblue" points="681.68,-128.4 671.11,-129.13 679.83,-135.15 681.68,-128.4"/>
</g>
<!-- Node29&#45;&gt;Node28 -->
<g id="edge83" class="edge">
<title>Node29&#45;&gt;Node28</title>
<path fill="none" stroke="midnightblue" d="M1660.99,-349.37C1498.11,-358.64 887.84,-392.29 749.81,-399.6"/>
<polygon fill="midnightblue" stroke="midnightblue" points="749.45,-396.11 739.65,-400.13 749.82,-403.1 749.45,-396.11"/>
</g>
<!-- Node29&#45;&gt;Node30 -->
<g id="edge84" class="edge">
<title>Node29&#45;&gt;Node30</title>
<path fill="none" stroke="midnightblue" d="M1660.76,-348.61C1605.7,-351.91 1504.55,-361.89 1424,-392 1391.29,-404.23 1357.69,-427.21 1337.58,-442.31"/>
<polygon fill="midnightblue" stroke="midnightblue" points="1335.4,-439.58 1329.59,-448.44 1339.65,-445.13 1335.4,-439.58"/>
</g>
<!-- Node29&#45;&gt;Node32 -->
<g id="edge102" class="edge">
<title>Node29&#45;&gt;Node32</title>
<path fill="none" stroke="midnightblue" d="M1741.01,-341.2C1839.85,-331.82 2095.88,-307.52 2211.64,-296.54"/>
<polygon fill="midnightblue" stroke="midnightblue" points="2212.11,-300.01 2221.73,-295.58 2211.45,-293.04 2212.11,-300.01"/>
</g>
<!-- Node33 -->
<g id="node33" class="node">
<title>Node33</title>
<g id="a_node33"><a xlink:href="BC__Handlers_8h.html" target="_top" xlink:title=" ">
<polygon fill="none" stroke="black" points="1394,-280.5 1394,-299.5 1482,-299.5 1482,-280.5 1394,-280.5"/>
<text text-anchor="middle" x="1438" y="-287.5" font-family="Helvetica,sans-Serif" font-size="10.00">BC_Handlers.h</text>
</a>
</g>
</g>
<!-- Node29&#45;&gt;Node33 -->
<g id="edge111" class="edge">
<title>Node29&#45;&gt;Node33</title>
<path fill="none" stroke="midnightblue" d="M1660.74,-337.72C1613.27,-328.45 1534.74,-312.38 1484.66,-301.71"/>
<polygon fill="midnightblue" stroke="midnightblue" points="1485.25,-298.26 1474.74,-299.59 1483.79,-305.1 1485.25,-298.26"/>
</g>
<!-- Node30&#45;&gt;Node2 -->
<g id="edge85" class="edge">
<title>Node30&#45;&gt;Node2</title>
<path fill="none" stroke="midnightblue" d="M1282.2,-448.49C1253.05,-440.99 1211.75,-428.67 1178,-412 1010.98,-329.54 835.78,-185.28 780.66,-138.27"/>
<polygon fill="midnightblue" stroke="midnightblue" points="782.73,-135.44 772.86,-131.59 778.17,-140.76 782.73,-135.44"/>
</g>
<!-- Node30&#45;&gt;Node3 -->
<g id="edge86" class="edge">
<title>Node30&#45;&gt;Node3</title>
<path fill="none" stroke="midnightblue" d="M1363.14,-453.87C1450.27,-447.51 1650.44,-431.95 1818,-412 2074.37,-381.48 2148.9,-397.41 2388,-300 2507.57,-251.29 2534.2,-223.79 2625,-132 2648.88,-107.85 2658.09,-104.21 2677,-76 2686.83,-61.34 2694.98,-42.94 2700.3,-29.46"/>
<polygon fill="midnightblue" stroke="midnightblue" points="2703.66,-30.46 2703.93,-19.87 2697.12,-27.98 2703.66,-30.46"/>
</g>
<!-- Node30&#45;&gt;Node4 -->
<g id="edge87" class="edge">
<title>Node30&#45;&gt;Node4</title>
<path fill="none" stroke="midnightblue" d="M1274.93,-454.34C1138.2,-444.55 711.83,-402.37 404,-244 290.44,-185.58 184.31,-70.49 147.07,-27.61"/>
<polygon fill="midnightblue" stroke="midnightblue" points="149.54,-25.12 140.37,-19.82 144.23,-29.69 149.54,-25.12"/>
</g>
<!-- Node30&#45;&gt;Node5 -->
<g id="edge88" class="edge">
<title>Node30&#45;&gt;Node5</title>
<path fill="none" stroke="midnightblue" d="M1291.34,-448.47C1268.54,-440.77 1235.86,-428.18 1210,-412 1097.91,-341.87 1022.33,-192.29 998.81,-140.83"/>
<polygon fill="midnightblue" stroke="midnightblue" points="1001.97,-139.34 994.69,-131.65 995.59,-142.2 1001.97,-139.34"/>
</g>
<!-- Node30&#45;&gt;Node6 -->
<g id="edge89" class="edge">
<title>Node30&#45;&gt;Node6</title>
<path fill="none" stroke="midnightblue" d="M1363.06,-448.63C1466.43,-428.71 1718.2,-378.5 1750,-356 1770.79,-341.29 1860.2,-192.02 1890.73,-140.43"/>
<polygon fill="midnightblue" stroke="midnightblue" points="1893.79,-142.12 1895.87,-131.73 1887.77,-138.56 1893.79,-142.12"/>
</g>
<!-- Node30&#45;&gt;Node7 -->
<g id="edge90" class="edge">
<title>Node30&#45;&gt;Node7</title>
<path fill="none" stroke="midnightblue" d="M1304.64,-448.45C1268,-426.52 1173.21,-369.11 1163,-356 1111.62,-290.02 1105.15,-184.37 1104.75,-141.74"/>
<polygon fill="midnightblue" stroke="midnightblue" points="1108.25,-141.69 1104.77,-131.68 1101.25,-141.68 1108.25,-141.69"/>
</g>
<!-- Node30&#45;&gt;Node8 -->
<g id="edge93" class="edge">
<title>Node30&#45;&gt;Node8</title>
<path fill="none" stroke="midnightblue" d="M1363.07,-452.55C1549.39,-433.44 2266.76,-356.69 2350,-300 2401.23,-265.11 2402.41,-229.54 2395,-168 2393.93,-159.11 2391.71,-149.43 2389.54,-141.34"/>
<polygon fill="midnightblue" stroke="midnightblue" points="2392.84,-140.17 2386.73,-131.51 2386.11,-142.09 2392.84,-140.17"/>
</g>
<!-- Node30&#45;&gt;Node9 -->
<g id="edge91" class="edge">
<title>Node30&#45;&gt;Node9</title>
<path fill="none" stroke="midnightblue" d="M1322.76,-448.27C1341.04,-405.23 1418.45,-215.73 1385,-168 1372.23,-149.79 1351.31,-138.91 1330.25,-132.44"/>
<polygon fill="midnightblue" stroke="midnightblue" points="1331.16,-129.06 1320.59,-129.76 1329.29,-135.8 1331.16,-129.06"/>
</g>
<!-- Node30&#45;&gt;Node11 -->
<g id="edge94" class="edge">
<title>Node30&#45;&gt;Node11</title>
<path fill="none" stroke="midnightblue" d="M1310.46,-448.5C1269.84,-407.05 1101.88,-223.65 1193,-112 1214.57,-85.57 1309.45,-74.25 1367.33,-69.73"/>
<polygon fill="midnightblue" stroke="midnightblue" points="1367.62,-73.22 1377.34,-68.99 1367.11,-66.24 1367.62,-73.22"/>
</g>
<!-- Node30&#45;&gt;Node19 -->
<g id="edge95" class="edge">
<title>Node30&#45;&gt;Node19</title>
<path fill="none" stroke="midnightblue" d="M1341.97,-467.54C1433.91,-501.73 1775.62,-628.8 1883.29,-668.84"/>
<polygon fill="midnightblue" stroke="midnightblue" points="1882.37,-672.23 1892.96,-672.43 1884.81,-665.67 1882.37,-672.23"/>
</g>
<!-- Node30&#45;&gt;Node22 -->
<g id="edge98" class="edge">
<title>Node30&#45;&gt;Node22</title>
<path fill="none" stroke="midnightblue" d="M1321.19,-467.59C1325.72,-485.39 1336.21,-526.62 1342.34,-550.67"/>
<polygon fill="midnightblue" stroke="midnightblue" points="1338.94,-551.54 1344.8,-560.37 1345.73,-549.81 1338.94,-551.54"/>
</g>
<!-- Node30&#45;&gt;Node25 -->
<g id="edge96" class="edge">
<title>Node30&#45;&gt;Node25</title>
<path fill="none" stroke="midnightblue" d="M1363.08,-451.14C1416.61,-443.68 1509.46,-429.62 1588,-412 1733.39,-379.38 1773.94,-372.71 1904,-300 1932.53,-284.05 1963.89,-263.06 1983.75,-249.31"/>
<polygon fill="midnightblue" stroke="midnightblue" points="1985.81,-252.14 1992.01,-243.54 1981.81,-246.4 1985.81,-252.14"/>
</g>
<!-- Node30&#45;&gt;Node26 -->
<g id="edge100" class="edge">
<title>Node30&#45;&gt;Node26</title>
<path fill="none" stroke="midnightblue" d="M1313.63,-448.44C1304.61,-422.73 1294.23,-343.96 1305,-280 1310.11,-249.63 1323.31,-216.19 1334.41,-196.42"/>
<polygon fill="midnightblue" stroke="midnightblue" points="1337.54,-198.01 1339.8,-187.66 1331.58,-194.34 1337.54,-198.01"/>
</g>
<!-- Node30&#45;&gt;Node27 -->
<g id="edge97" class="edge">
<title>Node30&#45;&gt;Node27</title>
<path fill="none" stroke="midnightblue" d="M1274.85,-449.83C1237.27,-442.85 1182.33,-430.56 1137,-412 942.45,-332.36 732.98,-184.55 668.8,-137.67"/>
<polygon fill="midnightblue" stroke="midnightblue" points="670.53,-134.6 660.4,-131.5 666.39,-140.24 670.53,-134.6"/>
</g>
<!-- Node30&#45;&gt;Node28 -->
<g id="edge99" class="edge">
<title>Node30&#45;&gt;Node28</title>
<path fill="none" stroke="midnightblue" d="M1274.62,-452.99C1157.9,-442.43 844.87,-414.11 749.77,-405.51"/>
<polygon fill="midnightblue" stroke="midnightblue" points="749.81,-402 739.53,-404.59 749.17,-408.97 749.81,-402"/>
</g>
<!-- Node31 -->
<g id="node31" class="node">
<title>Node31</title>
<g id="a_node31"><a xlink:title=" ">
<polygon fill="none" stroke="#bfbfbf" points="1432.5,-392.5 1432.5,-411.5 1507.5,-411.5 1507.5,-392.5 1432.5,-392.5"/>
<text text-anchor="middle" x="1470" y="-399.5" font-family="Helvetica,sans-Serif" font-size="10.00">petscerror.h</text>
</a>
</g>
</g>
<!-- Node30&#45;&gt;Node31 -->
<g id="edge92" class="edge">
<title>Node30&#45;&gt;Node31</title>
<path fill="none" stroke="midnightblue" d="M1342.93,-448.44C1368.22,-439.4 1408.3,-425.06 1436.68,-414.92"/>
<polygon fill="midnightblue" stroke="midnightblue" points="1437.95,-418.18 1446.19,-411.52 1435.59,-411.59 1437.95,-418.18"/>
</g>
<!-- Node32&#45;&gt;Node3 -->
<g id="edge104" class="edge">
<title>Node32&#45;&gt;Node3</title>
<path fill="none" stroke="midnightblue" d="M2270,-280.44C2270,-261.94 2270,-216.81 2270,-179 2270,-179 2270,-179 2270,-121 2270,-44.32 2526.26,-20.57 2646.3,-13.66"/>
<polygon fill="midnightblue" stroke="midnightblue" points="2646.65,-17.14 2656.44,-13.09 2646.27,-10.15 2646.65,-17.14"/>
</g>
<!-- Node32&#45;&gt;Node6 -->
<g id="edge107" class="edge">
<title>Node32&#45;&gt;Node6</title>
<path fill="none" stroke="midnightblue" d="M2251.87,-280.41C2233.56,-271.62 2204.53,-257.39 2180,-244 2121.93,-212.3 2112.61,-194.54 2052,-168 2013.84,-151.29 1967.65,-138.54 1936.48,-130.95"/>
<polygon fill="midnightblue" stroke="midnightblue" points="1937.06,-127.49 1926.52,-128.57 1935.44,-134.3 1937.06,-127.49"/>
</g>
<!-- Node32&#45;&gt;Node8 -->
<g id="edge106" class="edge">
<title>Node32&#45;&gt;Node8</title>
<path fill="none" stroke="midnightblue" d="M2273.07,-280.44C2280.76,-259.69 2302.41,-205.69 2332,-168 2340.98,-156.55 2353.2,-145.81 2363.53,-137.69"/>
<polygon fill="midnightblue" stroke="midnightblue" points="2365.8,-140.36 2371.66,-131.53 2361.58,-134.78 2365.8,-140.36"/>
</g>
<!-- Node32&#45;&gt;Node11 -->
<g id="edge108" class="edge">
<title>Node32&#45;&gt;Node11</title>
<path fill="none" stroke="midnightblue" d="M2260.74,-280.18C2228.31,-249.93 2115.56,-150.16 2001,-112 1900.7,-78.59 1579.57,-69.8 1459.17,-67.65"/>
<polygon fill="midnightblue" stroke="midnightblue" points="1458.89,-64.14 1448.83,-67.47 1458.77,-71.14 1458.89,-64.14"/>
</g>
<!-- Node32&#45;&gt;Node20 -->
<g id="edge103" class="edge">
<title>Node32&#45;&gt;Node20</title>
<path fill="none" stroke="midnightblue" d="M2287.89,-280.37C2327.68,-261.17 2423.71,-214.84 2470.9,-192.07"/>
<polygon fill="midnightblue" stroke="midnightblue" points="2472.71,-195.09 2480.19,-187.59 2469.66,-188.78 2472.71,-195.09"/>
</g>
<!-- Node32&#45;&gt;Node21 -->
<g id="edge105" class="edge">
<title>Node32&#45;&gt;Node21</title>
<path fill="none" stroke="midnightblue" d="M2265.37,-280.37C2255.72,-262.38 2233.29,-220.55 2220.45,-196.63"/>
<polygon fill="midnightblue" stroke="midnightblue" points="2223.42,-194.75 2215.61,-187.59 2217.25,-198.06 2223.42,-194.75"/>
</g>
<!-- Node32&#45;&gt;Node22 -->
<g id="edge109" class="edge">
<title>Node32&#45;&gt;Node22</title>
<path fill="none" stroke="midnightblue" d="M2256.39,-299.73C2200.62,-335.01 1983.03,-467.88 1784,-524 1642.9,-563.78 1467.33,-569.19 1388.6,-569.42"/>
<polygon fill="midnightblue" stroke="midnightblue" points="1388.14,-565.92 1378.14,-569.42 1388.14,-572.92 1388.14,-565.92"/>
</g>
<!-- Node32&#45;&gt;Node25 -->
<g id="edge110" class="edge">
<title>Node32&#45;&gt;Node25</title>
<path fill="none" stroke="midnightblue" d="M2227.85,-280.44C2181.25,-270.98 2106.16,-255.74 2055.95,-245.55"/>
<polygon fill="midnightblue" stroke="midnightblue" points="2056.45,-242.08 2045.95,-243.52 2055.06,-248.94 2056.45,-242.08"/>
</g>
<!-- Node33&#45;&gt;Node11 -->
<g id="edge112" class="edge">
<title>Node33&#45;&gt;Node11</title>
<path fill="none" stroke="midnightblue" d="M1442.62,-280.34C1447.06,-271.49 1453.45,-257.22 1456,-244 1462.39,-210.83 1462.75,-201.1 1456,-168 1449.71,-137.15 1433.63,-104.06 1423.02,-84.46"/>
<polygon fill="midnightblue" stroke="midnightblue" points="1425.97,-82.56 1418.04,-75.53 1419.85,-85.97 1425.97,-82.56"/>
</g>
<!-- Node33&#45;&gt;Node22 -->
<g id="edge114" class="edge">
<title>Node33&#45;&gt;Node22</title>
<path fill="none" stroke="midnightblue" d="M1451.17,-299.72C1478.12,-318.73 1535.48,-365.89 1517,-412 1489.32,-481.04 1412.75,-532.34 1372.49,-555.45"/>
<polygon fill="midnightblue" stroke="midnightblue" points="1370.57,-552.51 1363.55,-560.45 1373.99,-558.62 1370.57,-552.51"/>
</g>
<!-- Node33&#45;&gt;Node29 -->
<g id="edge113" class="edge">
<title>Node33&#45;&gt;Node29</title>
<path fill="none" stroke="midnightblue" d="M1482.31,-299.08C1530.14,-308.45 1605.79,-323.95 1654.46,-334.31"/>
<polygon fill="midnightblue" stroke="midnightblue" points="1653.9,-337.77 1664.42,-336.44 1655.37,-330.93 1653.9,-337.77"/>
</g>
<!-- Node34&#45;&gt;Node4 -->
<g id="edge134" class="edge">
<title>Node34&#45;&gt;Node4</title>
<path fill="none" stroke="midnightblue" d="M845.76,-623.4C786.86,-619.61 646.91,-608.17 533,-580 296.96,-521.62 38,-590.15 38,-347 38,-347 38,-347 38,-121 38,-77.74 80.61,-43.09 108.75,-24.91"/>
<polygon fill="midnightblue" stroke="midnightblue" points="110.66,-27.85 117.31,-19.6 106.97,-21.9 110.66,-27.85"/>
</g>
<!-- Node34&#45;&gt;Node11 -->
<g id="edge132" class="edge">
<title>Node34&#45;&gt;Node11</title>
<path fill="none" stroke="midnightblue" d="M845.68,-623.55C751.82,-617.17 448.22,-583.55 295,-412 238.97,-349.27 228,-319.11 228,-235 228,-235 228,-235 228,-177 228,-120.6 282.95,-128.12 337,-112 436.62,-82.3 1175.29,-70.24 1367.43,-67.59"/>
<polygon fill="midnightblue" stroke="midnightblue" points="1367.52,-71.09 1377.47,-67.45 1367.42,-64.09 1367.52,-71.09"/>
</g>
<!-- Node34&#45;&gt;Node20 -->
<g id="edge131" class="edge">
<title>Node34&#45;&gt;Node20</title>
<path fill="none" stroke="midnightblue" d="M902.11,-622.8C979.5,-616.7 1202.21,-598.75 1387,-580 1603.32,-558.05 1660.73,-571.08 1873,-524 1949.84,-506.96 1967.44,-495.99 2041,-468 2206.4,-405.07 2258.23,-403.19 2402,-300 2432.17,-278.35 2441.26,-273.35 2464,-244 2475.31,-229.4 2484.72,-210.48 2490.75,-196.82"/>
<polygon fill="midnightblue" stroke="midnightblue" points="2493.99,-198.13 2494.68,-187.56 2487.55,-195.4 2493.99,-198.13"/>
</g>
<!-- Node34&#45;&gt;Node22 -->
<g id="edge133" class="edge">
<title>Node34&#45;&gt;Node22</title>
<path fill="none" stroke="midnightblue" d="M902.17,-621.78C982.3,-612.64 1211.77,-586.44 1305.93,-575.69"/>
<polygon fill="midnightblue" stroke="midnightblue" points="1306.39,-579.16 1315.93,-574.55 1305.6,-572.2 1306.39,-579.16"/>
</g>
<!-- Node34&#45;&gt;Node26 -->
<g id="edge136" class="edge">
<title>Node34&#45;&gt;Node26</title>
<path fill="none" stroke="midnightblue" d="M873.77,-616.45C873.43,-589.38 875.5,-504.12 912,-448 1010.48,-296.61 1227.03,-216.3 1312.89,-189.43"/>
<polygon fill="midnightblue" stroke="midnightblue" points="1313.93,-192.77 1322.46,-186.49 1311.88,-186.08 1313.93,-192.77"/>
</g>
<!-- Node34&#45;&gt;Node28 -->
<g id="edge135" class="edge">
<title>Node34&#45;&gt;Node28</title>
<path fill="none" stroke="midnightblue" d="M866.32,-616.25C846.25,-593.12 791.24,-528.06 754,-468 744.59,-452.82 735.77,-434.47 729.78,-421.15"/>
<polygon fill="midnightblue" stroke="midnightblue" points="732.86,-419.45 725.63,-411.7 726.45,-422.26 732.86,-419.45"/>
</g>
</g>
</svg>
