<?xml version="1.0" encoding="UTF-8" standalone="no"?>
<!DOCTYPE svg PUBLIC "-//W3C//DTD SVG 1.1//EN"
 "http://www.w3.org/Graphics/SVG/1.1/DTD/svg11.dtd">
<!-- Generated by graphviz version 2.43.0 (0)
 -->
<!-- Title: find_utau_hydset Pages: 1 -->
<svg width="394pt" height="47pt"
 viewBox="0.00 0.00 394.00 47.00" xmlns="http://www.w3.org/2000/svg" xmlns:xlink="http://www.w3.org/1999/xlink">
<g id="graph0" class="graph" transform="scale(1 1) rotate(0) translate(4 43)">
<title>find_utau_hydset</title>
<!-- Node1 -->
<g id="node1" class="node">
<title>Node1</title>
<g id="a_node1"><a xlink:title=" ">
<polygon fill="#bfbfbf" stroke="black" points="0,-0.5 0,-19.5 101,-19.5 101,-0.5 0,-0.5"/>
<text text-anchor="middle" x="50.5" y="-7.5" font-family="Helvetica,sans-Serif" font-size="10.00">find_utau_hydset</text>
</a>
</g>
</g>
<!-- Node2 -->
<g id="node2" class="node">
<title>Node2</title>
<g id="a_node2"><a xlink:href="wallfunction_8c.html#a39f08431792fc8f96ea8659756dfd749" target="_top" xlink:title=" ">
<polygon fill="none" stroke="black" points="137,-19.5 137,-38.5 202,-38.5 202,-19.5 137,-19.5"/>
<text text-anchor="middle" x="169.5" y="-26.5" font-family="Helvetica,sans-Serif" font-size="10.00">df_hydset</text>
</a>
</g>
</g>
<!-- Node1&#45;&gt;Node2 -->
<g id="edge1" class="edge">
<title>Node1&#45;&gt;Node2</title>
<path fill="none" stroke="midnightblue" d="M101.12,-18.06C109.71,-19.45 118.56,-20.89 126.91,-22.25"/>
<polygon fill="midnightblue" stroke="midnightblue" points="126.36,-25.7 136.79,-23.85 127.48,-18.79 126.36,-25.7"/>
</g>
<!-- Node3 -->
<g id="node3" class="node">
<title>Node3</title>
<g id="a_node3"><a xlink:href="wallfunction_8c.html#ac7ee38b34b5a56a4e5c01a02c290229b" target="_top" xlink:title=" ">
<polygon fill="none" stroke="black" points="238,-0.5 238,-19.5 297,-19.5 297,-0.5 238,-0.5"/>
<text text-anchor="middle" x="267.5" y="-7.5" font-family="Helvetica,sans-Serif" font-size="10.00">f_hydset</text>
</a>
</g>
</g>
<!-- Node1&#45;&gt;Node3 -->
<g id="edge4" class="edge">
<title>Node1&#45;&gt;Node3</title>
<path fill="none" stroke="midnightblue" d="M101.1,-10C139.53,-10 192.04,-10 227.51,-10"/>
<polygon fill="midnightblue" stroke="midnightblue" points="227.93,-13.5 237.93,-10 227.93,-6.5 227.93,-13.5"/>
</g>
<!-- Node2&#45;&gt;Node3 -->
<g id="edge2" class="edge">
<title>Node2&#45;&gt;Node3</title>
<path fill="none" stroke="midnightblue" d="M202.2,-22.73C210.35,-21.11 219.22,-19.36 227.69,-17.68"/>
<polygon fill="midnightblue" stroke="midnightblue" points="228.62,-21.07 237.75,-15.69 227.26,-14.2 228.62,-21.07"/>
</g>
<!-- Node4 -->
<g id="node4" class="node">
<title>Node4</title>
<g id="a_node4"><a xlink:href="wallfunction_8c.html#a5a5ea51c16915866975995631c0d2923" target="_top" xlink:title=" ">
<polygon fill="none" stroke="black" points="333,-0.5 333,-19.5 386,-19.5 386,-0.5 333,-0.5"/>
<text text-anchor="middle" x="359.5" y="-7.5" font-family="Helvetica,sans-Serif" font-size="10.00">E_coeff</text>
</a>
</g>
</g>
<!-- Node3&#45;&gt;Node4 -->
<g id="edge3" class="edge">
<title>Node3&#45;&gt;Node4</title>
<path fill="none" stroke="midnightblue" d="M297.47,-10C305.49,-10 314.3,-10 322.66,-10"/>
<polygon fill="midnightblue" stroke="midnightblue" points="322.92,-13.5 332.92,-10 322.92,-6.5 322.92,-13.5"/>
</g>
</g>
</svg>
