<?xml version="1.0" encoding="UTF-8" standalone="no"?>
<!DOCTYPE svg PUBLIC "-//W3C//DTD SVG 1.1//EN"
 "http://www.w3.org/Graphics/SVG/1.1/DTD/svg11.dtd">
<!-- Generated by graphviz version 2.43.0 (0)
 -->
<!-- Title: find_utau_Cabot Pages: 1 -->
<svg width="543pt" height="85pt"
 viewBox="0.00 0.00 543.00 85.00" xmlns="http://www.w3.org/2000/svg" xmlns:xlink="http://www.w3.org/1999/xlink">
<g id="graph0" class="graph" transform="scale(1 1) rotate(0) translate(4 81)">
<title>find_utau_Cabot</title>
<!-- Node1 -->
<g id="node1" class="node">
<title>Node1</title>
<g id="a_node1"><a xlink:title=" ">
<polygon fill="#bfbfbf" stroke="black" points="0,-19.5 0,-38.5 96,-38.5 96,-19.5 0,-19.5"/>
<text text-anchor="middle" x="48" y="-26.5" font-family="Helvetica,sans-Serif" font-size="10.00">find_utau_Cabot</text>
</a>
</g>
</g>
<!-- Node2 -->
<g id="node2" class="node">
<title>Node2</title>
<g id="a_node2"><a xlink:href="wallfunction_8c.html#a55cc387bac11248c3e765d8bd550fbbc" target="_top" xlink:title=" ">
<polygon fill="none" stroke="black" points="132,-57.5 132,-76.5 192,-76.5 192,-57.5 132,-57.5"/>
<text text-anchor="middle" x="162" y="-64.5" font-family="Helvetica,sans-Serif" font-size="10.00">df_Cabot</text>
</a>
</g>
</g>
<!-- Node1&#45;&gt;Node2 -->
<g id="edge1" class="edge">
<title>Node1&#45;&gt;Node2</title>
<path fill="none" stroke="midnightblue" d="M77.26,-38.59C91.19,-43.31 108.18,-49.08 123.21,-54.18"/>
<polygon fill="midnightblue" stroke="midnightblue" points="122.15,-57.52 132.75,-57.41 124.4,-50.89 122.15,-57.52"/>
</g>
<!-- Node3 -->
<g id="node3" class="node">
<title>Node3</title>
<g id="a_node3"><a xlink:href="wallfunction_8c.html#a5b2c3227760bb03b8d8cd420317fe319" target="_top" xlink:title=" ">
<polygon fill="none" stroke="black" points="228,-19.5 228,-38.5 282,-38.5 282,-19.5 228,-19.5"/>
<text text-anchor="middle" x="255" y="-26.5" font-family="Helvetica,sans-Serif" font-size="10.00">f_Cabot</text>
</a>
</g>
</g>
<!-- Node1&#45;&gt;Node3 -->
<g id="edge6" class="edge">
<title>Node1&#45;&gt;Node3</title>
<path fill="none" stroke="midnightblue" d="M96.03,-29C132.94,-29 183.57,-29 217.47,-29"/>
<polygon fill="midnightblue" stroke="midnightblue" points="217.85,-32.5 227.85,-29 217.85,-25.5 217.85,-32.5"/>
</g>
<!-- Node4 -->
<g id="node4" class="node">
<title>Node4</title>
<g id="a_node4"><a xlink:href="wallfunction_8c.html#aac8ebe5267e4f3c1a5807e964a4f2837" target="_top" xlink:title=" ">
<polygon fill="none" stroke="black" points="318,-0.5 318,-19.5 353,-19.5 353,-0.5 318,-0.5"/>
<text text-anchor="middle" x="335.5" y="-7.5" font-family="Helvetica,sans-Serif" font-size="10.00">taw</text>
</a>
</g>
</g>
<!-- Node1&#45;&gt;Node4 -->
<g id="edge7" class="edge">
<title>Node1&#45;&gt;Node4</title>
<path fill="none" stroke="midnightblue" d="M96,-22.64C132.04,-18.09 183.06,-12.38 228,-10 255.17,-8.56 286.29,-8.78 307.84,-9.22"/>
<polygon fill="midnightblue" stroke="midnightblue" points="307.8,-12.72 317.88,-9.46 307.97,-5.72 307.8,-12.72"/>
</g>
<!-- Node2&#45;&gt;Node3 -->
<g id="edge2" class="edge">
<title>Node2&#45;&gt;Node3</title>
<path fill="none" stroke="midnightblue" d="M185.96,-57.41C196.74,-52.91 209.77,-47.47 221.54,-42.56"/>
<polygon fill="midnightblue" stroke="midnightblue" points="223.17,-45.67 231.04,-38.59 220.47,-39.21 223.17,-45.67"/>
</g>
<!-- Node3&#45;&gt;Node4 -->
<g id="edge3" class="edge">
<title>Node3&#45;&gt;Node4</title>
<path fill="none" stroke="midnightblue" d="M282.14,-22.67C290.42,-20.67 299.58,-18.45 307.89,-16.44"/>
<polygon fill="midnightblue" stroke="midnightblue" points="308.94,-19.79 317.83,-14.03 307.29,-12.98 308.94,-19.79"/>
</g>
<!-- Node5 -->
<g id="node5" class="node">
<title>Node5</title>
<g id="a_node5"><a xlink:href="wallfunction_8c.html#ab1b65534ee27b90f9400ef04724103e7" target="_top" xlink:title=" ">
<polygon fill="none" stroke="black" points="389,-0.5 389,-19.5 461,-19.5 461,-0.5 389,-0.5"/>
<text text-anchor="middle" x="425" y="-7.5" font-family="Helvetica,sans-Serif" font-size="10.00">integrate_1</text>
</a>
</g>
</g>
<!-- Node4&#45;&gt;Node5 -->
<g id="edge4" class="edge">
<title>Node4&#45;&gt;Node5</title>
<path fill="none" stroke="midnightblue" d="M353.37,-10C360.66,-10 369.57,-10 378.58,-10"/>
<polygon fill="midnightblue" stroke="midnightblue" points="378.71,-13.5 388.71,-10 378.71,-6.5 378.71,-13.5"/>
</g>
<!-- Node6 -->
<g id="node6" class="node">
<title>Node6</title>
<g id="a_node6"><a xlink:href="wallfunction_8c.html#adc08703381597f75ccb620bf30d90ae1" target="_top" xlink:title=" ">
<polygon fill="none" stroke="black" points="497,-0.5 497,-19.5 535,-19.5 535,-0.5 497,-0.5"/>
<text text-anchor="middle" x="516" y="-7.5" font-family="Helvetica,sans-Serif" font-size="10.00">nu_t</text>
</a>
</g>
</g>
<!-- Node5&#45;&gt;Node6 -->
<g id="edge5" class="edge">
<title>Node5&#45;&gt;Node6</title>
<path fill="none" stroke="midnightblue" d="M461.18,-10C469.69,-10 478.68,-10 486.82,-10"/>
<polygon fill="midnightblue" stroke="midnightblue" points="486.93,-13.5 496.93,-10 486.93,-6.5 486.93,-13.5"/>
</g>
</g>
</svg>
