<?xml version="1.0" encoding="UTF-8" standalone="no"?>
<!DOCTYPE svg PUBLIC "-//W3C//DTD SVG 1.1//EN"
 "http://www.w3.org/Graphics/SVG/1.1/DTD/svg11.dtd">
<!-- Generated by graphviz version 2.43.0 (0)
 -->
<!-- Title: sign Pages: 1 -->
<svg width="644pt" height="116pt"
 viewBox="0.00 0.00 644.00 115.50" xmlns="http://www.w3.org/2000/svg" xmlns:xlink="http://www.w3.org/1999/xlink">
<g id="graph0" class="graph" transform="scale(1 1) rotate(0) translate(4 111.5)">
<title>sign</title>
<!-- Node1 -->
<g id="node1" class="node">
<title>Node1</title>
<g id="a_node1"><a xlink:title=" ">
<polygon fill="#bfbfbf" stroke="black" points="599,-50 599,-69 636,-69 636,-50 599,-50"/>
<text text-anchor="middle" x="617.5" y="-57" font-family="Helvetica,sans-Serif" font-size="10.00">sign</text>
</a>
</g>
</g>
<!-- Node2 -->
<g id="node2" class="node">
<title>Node2</title>
<g id="a_node2"><a xlink:href="Boundaries_8c.html#abd9b573f8f42ea93e265da37a0673f24" target="_top" xlink:title="Applies inlet boundary conditions based on the modern BC handling system.">
<polygon fill="none" stroke="black" points="495,-50 495,-69 563,-69 563,-50 495,-50"/>
<text text-anchor="middle" x="529" y="-57" font-family="Helvetica,sans-Serif" font-size="10.00">InflowFlux</text>
</a>
</g>
</g>
<!-- Node1&#45;&gt;Node2 -->
<g id="edge1" class="edge">
<title>Node1&#45;&gt;Node2</title>
<path fill="none" stroke="midnightblue" d="M588.88,-59.5C580.72,-59.5 571.7,-59.5 563.23,-59.5"/>
<polygon fill="midnightblue" stroke="midnightblue" points="589,-63 599,-59.5 589,-56 589,-63"/>
</g>
<!-- Node3 -->
<g id="node3" class="node">
<title>Node3</title>
<g id="a_node3"><a xlink:href="implicitsolvers_8c.html#a148a238901a4674420c87137c087e3ac" target="_top" xlink:title="Advances the momentum equations using an iterative explicit Runge&#45;Kutta scheme.">
<polygon fill="none" stroke="black" points="379.5,-88 379.5,-107 428.5,-107 428.5,-88 379.5,-88"/>
<text text-anchor="middle" x="404" y="-95" font-family="Helvetica,sans-Serif" font-size="10.00">ImpRK</text>
</a>
</g>
</g>
<!-- Node2&#45;&gt;Node3 -->
<g id="edge2" class="edge">
<title>Node2&#45;&gt;Node3</title>
<path fill="none" stroke="midnightblue" d="M487.41,-72.04C467.93,-78.06 445.27,-85.06 428.65,-90.19"/>
<polygon fill="midnightblue" stroke="midnightblue" points="488.44,-75.38 496.96,-69.09 486.37,-68.7 488.44,-75.38"/>
</g>
<!-- Node7 -->
<g id="node7" class="node">
<title>Node7</title>
<g id="a_node7"><a xlink:href="implicitsolvers_8c.html#a89ae58d48076ba82dc70438b5e389bf5" target="_top" xlink:title="Advances the momentum equations for ALL blocks by one time step using an explicit 4&#45;stage,...">
<polygon fill="none" stroke="black" points="367.5,-50 367.5,-69 440.5,-69 440.5,-50 367.5,-50"/>
<text text-anchor="middle" x="404" y="-57" font-family="Helvetica,sans-Serif" font-size="10.00">RungeKutta</text>
</a>
</g>
</g>
<!-- Node2&#45;&gt;Node7 -->
<g id="edge6" class="edge">
<title>Node2&#45;&gt;Node7</title>
<path fill="none" stroke="midnightblue" d="M484.61,-59.5C470.31,-59.5 454.58,-59.5 440.9,-59.5"/>
<polygon fill="midnightblue" stroke="midnightblue" points="484.71,-63 494.71,-59.5 484.71,-56 484.71,-63"/>
</g>
<!-- Node8 -->
<g id="node8" class="node">
<title>Node8</title>
<g id="a_node8"><a xlink:href="initialcondition_8c.html#a51d0251f84a962a611ff0c0a8797a3e4" target="_top" xlink:title="(HELPER) Sets the t=0 fluid state for all blocks.">
<polygon fill="none" stroke="black" points="349,-0.5 349,-30.5 459,-30.5 459,-0.5 349,-0.5"/>
<text text-anchor="start" x="357" y="-18.5" font-family="Helvetica,sans-Serif" font-size="10.00">SetInitialFluidState</text>
<text text-anchor="middle" x="404" y="-7.5" font-family="Helvetica,sans-Serif" font-size="10.00">_FreshStart</text>
</a>
</g>
</g>
<!-- Node2&#45;&gt;Node8 -->
<g id="edge8" class="edge">
<title>Node2&#45;&gt;Node8</title>
<path fill="none" stroke="midnightblue" d="M491.57,-46.47C477.6,-41.47 461.56,-35.73 447.11,-30.57"/>
<polygon fill="midnightblue" stroke="midnightblue" points="490.72,-49.88 501.31,-49.95 493.07,-43.29 490.72,-49.88"/>
</g>
<!-- Node4 -->
<g id="node4" class="node">
<title>Node4</title>
<g id="a_node4"><a xlink:href="solvers_8c.html#a2ed4825273a593f371a3d48071708255" target="_top" xlink:title="Orchestrates a single time step of the Eulerian fluid solver.">
<polygon fill="none" stroke="black" points="237,-50 237,-69 313,-69 313,-50 237,-50"/>
<text text-anchor="middle" x="275" y="-57" font-family="Helvetica,sans-Serif" font-size="10.00">Flow_Solver</text>
</a>
</g>
</g>
<!-- Node3&#45;&gt;Node4 -->
<g id="edge3" class="edge">
<title>Node3&#45;&gt;Node4</title>
<path fill="none" stroke="midnightblue" d="M369.66,-87.52C350.63,-81.83 326.9,-74.73 308.08,-69.1"/>
<polygon fill="midnightblue" stroke="midnightblue" points="368.83,-90.93 379.41,-90.44 370.83,-84.22 368.83,-90.93"/>
</g>
<!-- Node5 -->
<g id="node5" class="node">
<title>Node5</title>
<g id="a_node5"><a xlink:href="simulation_8c.html#a5cfb2f783604af7f20171d19f969d5d3" target="_top" xlink:title="Executes the main time&#45;marching loop for the coupled Euler&#45;Lagrange simulation.">
<polygon fill="none" stroke="black" points="83.5,-49 83.5,-68 194.5,-68 194.5,-49 83.5,-49"/>
<text text-anchor="middle" x="139" y="-56" font-family="Helvetica,sans-Serif" font-size="10.00">AdvanceSimulation</text>
</a>
</g>
</g>
<!-- Node4&#45;&gt;Node5 -->
<g id="edge4" class="edge">
<title>Node4&#45;&gt;Node5</title>
<path fill="none" stroke="midnightblue" d="M226.61,-59.15C216.27,-59.07 205.25,-58.99 194.66,-58.91"/>
<polygon fill="midnightblue" stroke="midnightblue" points="226.65,-62.65 236.67,-59.22 226.7,-55.65 226.65,-62.65"/>
</g>
<!-- Node6 -->
<g id="node6" class="node">
<title>Node6</title>
<g id="a_node6"><a xlink:href="picsolver_8c.html#a3c04138a5bfe5d72780bb7e82a18e627" target="_top" xlink:title=" ">
<polygon fill="none" stroke="black" points="0,-29 0,-48 41,-48 41,-29 0,-29"/>
<text text-anchor="middle" x="20.5" y="-36" font-family="Helvetica,sans-Serif" font-size="10.00">main</text>
</a>
</g>
</g>
<!-- Node5&#45;&gt;Node6 -->
<g id="edge5" class="edge">
<title>Node5&#45;&gt;Node6</title>
<path fill="none" stroke="midnightblue" d="M72.97,-47.34C61.43,-45.36 50.25,-43.44 41.27,-41.89"/>
<polygon fill="midnightblue" stroke="midnightblue" points="72.71,-50.84 83.16,-49.09 73.9,-43.94 72.71,-50.84"/>
</g>
<!-- Node7&#45;&gt;Node4 -->
<g id="edge7" class="edge">
<title>Node7&#45;&gt;Node4</title>
<path fill="none" stroke="midnightblue" d="M357.07,-59.5C342.66,-59.5 326.94,-59.5 313.22,-59.5"/>
<polygon fill="midnightblue" stroke="midnightblue" points="357.29,-63 367.29,-59.5 357.29,-56 357.29,-63"/>
</g>
<!-- Node9 -->
<g id="node9" class="node">
<title>Node9</title>
<g id="a_node9"><a xlink:href="initialcondition_8c.html#ad0dd7d3f2528b6a7802fcd551e88ea99" target="_top" xlink:title="High&#45;level orchestrator to set the complete initial state of the Eulerian solver.">
<polygon fill="none" stroke="black" points="77,-10 77,-29 201,-29 201,-10 77,-10"/>
<text text-anchor="middle" x="139" y="-17" font-family="Helvetica,sans-Serif" font-size="10.00">InitializeEulerianState</text>
</a>
</g>
</g>
<!-- Node8&#45;&gt;Node9 -->
<g id="edge9" class="edge">
<title>Node8&#45;&gt;Node9</title>
<path fill="none" stroke="midnightblue" d="M338.71,-16.48C296.75,-17.12 242.3,-17.94 201.01,-18.57"/>
<polygon fill="midnightblue" stroke="midnightblue" points="338.88,-19.98 348.83,-16.32 338.77,-12.98 338.88,-19.98"/>
</g>
<!-- Node9&#45;&gt;Node6 -->
<g id="edge10" class="edge">
<title>Node9&#45;&gt;Node6</title>
<path fill="none" stroke="midnightblue" d="M69.41,-30.69C59.08,-32.37 49.2,-33.98 41.12,-35.3"/>
<polygon fill="midnightblue" stroke="midnightblue" points="70.1,-34.12 79.41,-29.06 68.98,-27.21 70.1,-34.12"/>
</g>
</g>
</svg>
