<?xml version="1.0" encoding="UTF-8" standalone="no"?>
<!DOCTYPE svg PUBLIC "-//W3C//DTD SVG 1.1//EN"
 "http://www.w3.org/Graphics/SVG/1.1/DTD/svg11.dtd">
<!-- Generated by graphviz version 2.43.0 (0)
 -->
<!-- Title: taw Pages: 1 -->
<svg width="513pt" height="142pt"
 viewBox="0.00 0.00 513.00 142.00" xmlns="http://www.w3.org/2000/svg" xmlns:xlink="http://www.w3.org/1999/xlink">
<g id="graph0" class="graph" transform="scale(1 1) rotate(0) translate(4 138)">
<title>taw</title>
<!-- Node1 -->
<g id="node1" class="node">
<title>Node1</title>
<g id="a_node1"><a xlink:title=" ">
<polygon fill="#bfbfbf" stroke="black" points="470,-38.5 470,-57.5 505,-57.5 505,-38.5 470,-38.5"/>
<text text-anchor="middle" x="487.5" y="-45.5" font-family="Helvetica,sans-Serif" font-size="10.00">taw</text>
</a>
</g>
</g>
<!-- Node2 -->
<g id="node2" class="node">
<title>Node2</title>
<g id="a_node2"><a xlink:href="wallfunction_8c.html#a5b2c3227760bb03b8d8cd420317fe319" target="_top" xlink:title=" ">
<polygon fill="none" stroke="black" points="380,-76.5 380,-95.5 434,-95.5 434,-76.5 380,-76.5"/>
<text text-anchor="middle" x="407" y="-83.5" font-family="Helvetica,sans-Serif" font-size="10.00">f_Cabot</text>
</a>
</g>
</g>
<!-- Node1&#45;&gt;Node2 -->
<g id="edge1" class="edge">
<title>Node1&#45;&gt;Node2</title>
<path fill="none" stroke="midnightblue" d="M460.55,-60.56C449.84,-65.75 437.63,-71.66 427.68,-76.48"/>
<polygon fill="midnightblue" stroke="midnightblue" points="462.38,-63.57 469.85,-56.06 459.33,-57.27 462.38,-63.57"/>
</g>
<!-- Node4 -->
<g id="node4" class="node">
<title>Node4</title>
<g id="a_node4"><a xlink:href="wallfunction_8c.html#a9412a050f6200558af52ae63ff39b0a8" target="_top" xlink:title=" ">
<polygon fill="none" stroke="black" points="152,-66.5 152,-85.5 248,-85.5 248,-66.5 152,-66.5"/>
<text text-anchor="middle" x="200" y="-73.5" font-family="Helvetica,sans-Serif" font-size="10.00">find_utau_Cabot</text>
</a>
</g>
</g>
<!-- Node1&#45;&gt;Node4 -->
<g id="edge6" class="edge">
<title>Node1&#45;&gt;Node4</title>
<path fill="none" stroke="midnightblue" d="M459.92,-50.61C411.55,-55.35 308.56,-65.45 248.06,-71.38"/>
<polygon fill="midnightblue" stroke="midnightblue" points="460.31,-54.09 469.92,-49.63 459.62,-47.12 460.31,-54.09"/>
</g>
<!-- Node6 -->
<g id="node6" class="node">
<title>Node6</title>
<g id="a_node6"><a xlink:href="wallfunction_8c.html#aad20a76a53ecb1b953cb300203beb526" target="_top" xlink:title=" ">
<polygon fill="none" stroke="black" points="286,-0.5 286,-19.5 342,-19.5 342,-0.5 286,-0.5"/>
<text text-anchor="middle" x="314" y="-7.5" font-family="Helvetica,sans-Serif" font-size="10.00">u_Cabot</text>
</a>
</g>
</g>
<!-- Node1&#45;&gt;Node6 -->
<g id="edge7" class="edge">
<title>Node1&#45;&gt;Node6</title>
<path fill="none" stroke="midnightblue" d="M459.71,-40.52C451.49,-38.31 442.4,-35.96 434,-34 402.6,-26.65 366.23,-19.52 342.04,-14.96"/>
<polygon fill="midnightblue" stroke="midnightblue" points="458.97,-43.94 469.54,-43.19 460.81,-37.19 458.97,-43.94"/>
</g>
<!-- Node3 -->
<g id="node3" class="node">
<title>Node3</title>
<g id="a_node3"><a xlink:href="wallfunction_8c.html#a55cc387bac11248c3e765d8bd550fbbc" target="_top" xlink:title=" ">
<polygon fill="none" stroke="black" points="284,-114.5 284,-133.5 344,-133.5 344,-114.5 284,-114.5"/>
<text text-anchor="middle" x="314" y="-121.5" font-family="Helvetica,sans-Serif" font-size="10.00">df_Cabot</text>
</a>
</g>
</g>
<!-- Node2&#45;&gt;Node3 -->
<g id="edge2" class="edge">
<title>Node2&#45;&gt;Node3</title>
<path fill="none" stroke="midnightblue" d="M373.53,-99.56C361.77,-104.47 348.73,-109.91 337.96,-114.41"/>
<polygon fill="midnightblue" stroke="midnightblue" points="375.16,-102.67 383.04,-95.59 372.46,-96.21 375.16,-102.67"/>
</g>
<!-- Node2&#45;&gt;Node4 -->
<g id="edge5" class="edge">
<title>Node2&#45;&gt;Node4</title>
<path fill="none" stroke="midnightblue" d="M369.23,-84.21C335.33,-82.55 284.83,-80.09 248.01,-78.29"/>
<polygon fill="midnightblue" stroke="midnightblue" points="369.46,-87.72 379.62,-84.71 369.8,-80.73 369.46,-87.72"/>
</g>
<!-- Node3&#45;&gt;Node4 -->
<g id="edge3" class="edge">
<title>Node3&#45;&gt;Node4</title>
<path fill="none" stroke="midnightblue" d="M281.39,-110.45C262.89,-102.53 239.98,-92.71 223.36,-85.58"/>
<polygon fill="midnightblue" stroke="midnightblue" points="280.03,-113.68 290.6,-114.4 282.79,-107.25 280.03,-113.68"/>
</g>
<!-- Node5 -->
<g id="node5" class="node">
<title>Node5</title>
<g id="a_node5"><a xlink:href="wallfunction_8c.html#a73da726e7c04f95e7ce9eeeda4afae7d" target="_top" xlink:title=" ">
<polygon fill="none" stroke="black" points="0,-37.5 0,-56.5 116,-56.5 116,-37.5 0,-37.5"/>
<text text-anchor="middle" x="58" y="-44.5" font-family="Helvetica,sans-Serif" font-size="10.00">wall_function_Cabot</text>
</a>
</g>
</g>
<!-- Node4&#45;&gt;Node5 -->
<g id="edge4" class="edge">
<title>Node4&#45;&gt;Node5</title>
<path fill="none" stroke="midnightblue" d="M142.9,-64.38C130.38,-61.79 117.24,-59.06 105.18,-56.57"/>
<polygon fill="midnightblue" stroke="midnightblue" points="142.27,-67.82 152.77,-66.42 143.69,-60.97 142.27,-67.82"/>
</g>
<!-- Node6&#45;&gt;Node5 -->
<g id="edge8" class="edge">
<title>Node6&#45;&gt;Node5</title>
<path fill="none" stroke="midnightblue" d="M275.75,-15.43C233.78,-21.54 165.05,-31.55 116.24,-38.66"/>
<polygon fill="midnightblue" stroke="midnightblue" points="276.43,-18.86 285.82,-13.96 275.42,-11.94 276.43,-18.86"/>
</g>
</g>
</svg>
