<?xml version="1.0" encoding="UTF-8" standalone="no"?>
<!DOCTYPE svg PUBLIC "-//W3C//DTD SVG 1.1//EN"
 "http://www.w3.org/Graphics/SVG/1.1/DTD/svg11.dtd">
<!-- Generated by graphviz version 2.43.0 (0)
 -->
<!-- Title: f_Cabot Pages: 1 -->
<svg width="442pt" height="47pt"
 viewBox="0.00 0.00 442.00 47.00" xmlns="http://www.w3.org/2000/svg" xmlns:xlink="http://www.w3.org/1999/xlink">
<g id="graph0" class="graph" transform="scale(1 1) rotate(0) translate(4 43)">
<title>f_Cabot</title>
<!-- Node1 -->
<g id="node1" class="node">
<title>Node1</title>
<g id="a_node1"><a xlink:title=" ">
<polygon fill="#bfbfbf" stroke="black" points="380,-0.5 380,-19.5 434,-19.5 434,-0.5 380,-0.5"/>
<text text-anchor="middle" x="407" y="-7.5" font-family="Helvetica,sans-Serif" font-size="10.00">f_Cabot</text>
</a>
</g>
</g>
<!-- Node2 -->
<g id="node2" class="node">
<title>Node2</title>
<g id="a_node2"><a xlink:href="wallfunction_8c.html#a55cc387bac11248c3e765d8bd550fbbc" target="_top" xlink:title=" ">
<polygon fill="none" stroke="black" points="284,-19.5 284,-38.5 344,-38.5 344,-19.5 284,-19.5"/>
<text text-anchor="middle" x="314" y="-26.5" font-family="Helvetica,sans-Serif" font-size="10.00">df_Cabot</text>
</a>
</g>
</g>
<!-- Node1&#45;&gt;Node2 -->
<g id="edge1" class="edge">
<title>Node1&#45;&gt;Node2</title>
<path fill="none" stroke="midnightblue" d="M369.64,-17.59C361.17,-19.36 352.25,-21.22 344.13,-22.92"/>
<polygon fill="midnightblue" stroke="midnightblue" points="370.61,-20.97 379.68,-15.5 369.17,-14.11 370.61,-20.97"/>
</g>
<!-- Node3 -->
<g id="node3" class="node">
<title>Node3</title>
<g id="a_node3"><a xlink:href="wallfunction_8c.html#a9412a050f6200558af52ae63ff39b0a8" target="_top" xlink:title=" ">
<polygon fill="none" stroke="black" points="152,-0.5 152,-19.5 248,-19.5 248,-0.5 152,-0.5"/>
<text text-anchor="middle" x="200" y="-7.5" font-family="Helvetica,sans-Serif" font-size="10.00">find_utau_Cabot</text>
</a>
</g>
</g>
<!-- Node1&#45;&gt;Node3 -->
<g id="edge4" class="edge">
<title>Node1&#45;&gt;Node3</title>
<path fill="none" stroke="midnightblue" d="M369.23,-10C335.33,-10 284.83,-10 248.01,-10"/>
<polygon fill="midnightblue" stroke="midnightblue" points="369.62,-13.5 379.62,-10 369.62,-6.5 369.62,-13.5"/>
</g>
<!-- Node2&#45;&gt;Node3 -->
<g id="edge2" class="edge">
<title>Node2&#45;&gt;Node3</title>
<path fill="none" stroke="midnightblue" d="M273.76,-22.34C265.51,-20.94 256.72,-19.45 248.21,-18.01"/>
<polygon fill="midnightblue" stroke="midnightblue" points="273.42,-25.84 283.87,-24.06 274.59,-18.93 273.42,-25.84"/>
</g>
<!-- Node4 -->
<g id="node4" class="node">
<title>Node4</title>
<g id="a_node4"><a xlink:href="wallfunction_8c.html#a73da726e7c04f95e7ce9eeeda4afae7d" target="_top" xlink:title=" ">
<polygon fill="none" stroke="black" points="0,-0.5 0,-19.5 116,-19.5 116,-0.5 0,-0.5"/>
<text text-anchor="middle" x="58" y="-7.5" font-family="Helvetica,sans-Serif" font-size="10.00">wall_function_Cabot</text>
</a>
</g>
</g>
<!-- Node3&#45;&gt;Node4 -->
<g id="edge3" class="edge">
<title>Node3&#45;&gt;Node4</title>
<path fill="none" stroke="midnightblue" d="M141.88,-10C133.45,-10 124.77,-10 116.33,-10"/>
<polygon fill="midnightblue" stroke="midnightblue" points="141.99,-13.5 151.99,-10 141.99,-6.5 141.99,-13.5"/>
</g>
</g>
</svg>
