<?xml version="1.0" encoding="UTF-8" standalone="no"?>
<!DOCTYPE svg PUBLIC "-//W3C//DTD SVG 1.1//EN"
 "http://www.w3.org/Graphics/SVG/1.1/DTD/svg11.dtd">
<!-- Generated by graphviz version 2.43.0 (0)
 -->
<!-- Title: wall_function_Cabot Pages: 1 -->
<svg width="697pt" height="142pt"
 viewBox="0.00 0.00 697.00 142.00" xmlns="http://www.w3.org/2000/svg" xmlns:xlink="http://www.w3.org/1999/xlink">
<g id="graph0" class="graph" transform="scale(1 1) rotate(0) translate(4 138)">
<title>wall_function_Cabot</title>
<!-- Node1 -->
<g id="node1" class="node">
<title>Node1</title>
<g id="a_node1"><a xlink:title=" ">
<polygon fill="#bfbfbf" stroke="black" points="0,-19.5 0,-38.5 116,-38.5 116,-19.5 0,-19.5"/>
<text text-anchor="middle" x="58" y="-26.5" font-family="Helvetica,sans-Serif" font-size="10.00">wall_function_Cabot</text>
</a>
</g>
</g>
<!-- Node2 -->
<g id="node2" class="node">
<title>Node2</title>
<g id="a_node2"><a xlink:href="wallfunction_8c.html#a9412a050f6200558af52ae63ff39b0a8" target="_top" xlink:title=" ">
<polygon fill="none" stroke="black" points="152,-57.5 152,-76.5 248,-76.5 248,-57.5 152,-57.5"/>
<text text-anchor="middle" x="200" y="-64.5" font-family="Helvetica,sans-Serif" font-size="10.00">find_utau_Cabot</text>
</a>
</g>
</g>
<!-- Node1&#45;&gt;Node2 -->
<g id="edge1" class="edge">
<title>Node1&#45;&gt;Node2</title>
<path fill="none" stroke="midnightblue" d="M94.33,-38.59C112.4,-43.49 134.6,-49.52 153.89,-54.76"/>
<polygon fill="midnightblue" stroke="midnightblue" points="153.12,-58.17 163.68,-57.41 154.95,-51.42 153.12,-58.17"/>
</g>
<!-- Node8 -->
<g id="node8" class="node">
<title>Node8</title>
<g id="a_node8"><a xlink:href="wallfunction_8c.html#aad20a76a53ecb1b953cb300203beb526" target="_top" xlink:title=" ">
<polygon fill="none" stroke="black" points="380,-0.5 380,-19.5 436,-19.5 436,-0.5 380,-0.5"/>
<text text-anchor="middle" x="408" y="-7.5" font-family="Helvetica,sans-Serif" font-size="10.00">u_Cabot</text>
</a>
</g>
</g>
<!-- Node1&#45;&gt;Node8 -->
<g id="edge9" class="edge">
<title>Node1&#45;&gt;Node8</title>
<path fill="none" stroke="midnightblue" d="M116.08,-25.88C187.75,-21.97 308.67,-15.37 369.57,-12.04"/>
<polygon fill="midnightblue" stroke="midnightblue" points="370.08,-15.52 379.87,-11.48 369.69,-8.53 370.08,-15.52"/>
</g>
<!-- Node3 -->
<g id="node3" class="node">
<title>Node3</title>
<g id="a_node3"><a xlink:href="wallfunction_8c.html#a55cc387bac11248c3e765d8bd550fbbc" target="_top" xlink:title=" ">
<polygon fill="none" stroke="black" points="284,-114.5 284,-133.5 344,-133.5 344,-114.5 284,-114.5"/>
<text text-anchor="middle" x="314" y="-121.5" font-family="Helvetica,sans-Serif" font-size="10.00">df_Cabot</text>
</a>
</g>
</g>
<!-- Node2&#45;&gt;Node3 -->
<g id="edge2" class="edge">
<title>Node2&#45;&gt;Node3</title>
<path fill="none" stroke="midnightblue" d="M219.75,-76.54C237.59,-85.62 264.68,-99.41 285.07,-109.79"/>
<polygon fill="midnightblue" stroke="midnightblue" points="283.69,-113.01 294.19,-114.43 286.87,-106.77 283.69,-113.01"/>
</g>
<!-- Node4 -->
<g id="node4" class="node">
<title>Node4</title>
<g id="a_node4"><a xlink:href="wallfunction_8c.html#a5b2c3227760bb03b8d8cd420317fe319" target="_top" xlink:title=" ">
<polygon fill="none" stroke="black" points="381,-76.5 381,-95.5 435,-95.5 435,-76.5 381,-76.5"/>
<text text-anchor="middle" x="408" y="-83.5" font-family="Helvetica,sans-Serif" font-size="10.00">f_Cabot</text>
</a>
</g>
</g>
<!-- Node2&#45;&gt;Node4 -->
<g id="edge7" class="edge">
<title>Node2&#45;&gt;Node4</title>
<path fill="none" stroke="midnightblue" d="M248,-71.34C285.34,-74.78 336.8,-79.52 370.94,-82.67"/>
<polygon fill="midnightblue" stroke="midnightblue" points="370.66,-86.16 380.94,-83.6 371.31,-79.19 370.66,-86.16"/>
</g>
<!-- Node5 -->
<g id="node5" class="node">
<title>Node5</title>
<g id="a_node5"><a xlink:href="wallfunction_8c.html#aac8ebe5267e4f3c1a5807e964a4f2837" target="_top" xlink:title=" ">
<polygon fill="none" stroke="black" points="472,-38.5 472,-57.5 507,-57.5 507,-38.5 472,-38.5"/>
<text text-anchor="middle" x="489.5" y="-45.5" font-family="Helvetica,sans-Serif" font-size="10.00">taw</text>
</a>
</g>
</g>
<!-- Node2&#45;&gt;Node5 -->
<g id="edge8" class="edge">
<title>Node2&#45;&gt;Node5</title>
<path fill="none" stroke="midnightblue" d="M248.15,-63.88C309.02,-59.86 412.9,-53 461.69,-49.77"/>
<polygon fill="midnightblue" stroke="midnightblue" points="462.03,-53.26 471.78,-49.11 461.57,-46.27 462.03,-53.26"/>
</g>
<!-- Node3&#45;&gt;Node4 -->
<g id="edge3" class="edge">
<title>Node3&#45;&gt;Node4</title>
<path fill="none" stroke="midnightblue" d="M338.22,-114.41C349.22,-109.87 362.55,-104.36 374.54,-99.41"/>
<polygon fill="midnightblue" stroke="midnightblue" points="375.89,-102.64 383.79,-95.59 373.21,-96.17 375.89,-102.64"/>
</g>
<!-- Node4&#45;&gt;Node5 -->
<g id="edge4" class="edge">
<title>Node4&#45;&gt;Node5</title>
<path fill="none" stroke="midnightblue" d="M429.06,-76.41C439.31,-71.51 451.89,-65.5 462.83,-60.27"/>
<polygon fill="midnightblue" stroke="midnightblue" points="464.42,-63.39 471.93,-55.92 461.4,-57.07 464.42,-63.39"/>
</g>
<!-- Node6 -->
<g id="node6" class="node">
<title>Node6</title>
<g id="a_node6"><a xlink:href="wallfunction_8c.html#ab1b65534ee27b90f9400ef04724103e7" target="_top" xlink:title=" ">
<polygon fill="none" stroke="black" points="543,-19.5 543,-38.5 615,-38.5 615,-19.5 543,-19.5"/>
<text text-anchor="middle" x="579" y="-26.5" font-family="Helvetica,sans-Serif" font-size="10.00">integrate_1</text>
</a>
</g>
</g>
<!-- Node5&#45;&gt;Node6 -->
<g id="edge5" class="edge">
<title>Node5&#45;&gt;Node6</title>
<path fill="none" stroke="midnightblue" d="M507.37,-44.34C514.74,-42.74 523.76,-40.78 532.87,-38.8"/>
<polygon fill="midnightblue" stroke="midnightblue" points="533.68,-42.21 542.71,-36.66 532.19,-35.36 533.68,-42.21"/>
</g>
<!-- Node7 -->
<g id="node7" class="node">
<title>Node7</title>
<g id="a_node7"><a xlink:href="wallfunction_8c.html#adc08703381597f75ccb620bf30d90ae1" target="_top" xlink:title=" ">
<polygon fill="none" stroke="black" points="651,-19.5 651,-38.5 689,-38.5 689,-19.5 651,-19.5"/>
<text text-anchor="middle" x="670" y="-26.5" font-family="Helvetica,sans-Serif" font-size="10.00">nu_t</text>
</a>
</g>
</g>
<!-- Node6&#45;&gt;Node7 -->
<g id="edge6" class="edge">
<title>Node6&#45;&gt;Node7</title>
<path fill="none" stroke="midnightblue" d="M615.18,-29C623.69,-29 632.68,-29 640.82,-29"/>
<polygon fill="midnightblue" stroke="midnightblue" points="640.93,-32.5 650.93,-29 640.93,-25.5 640.93,-32.5"/>
</g>
<!-- Node8&#45;&gt;Node5 -->
<g id="edge11" class="edge">
<title>Node8&#45;&gt;Node5</title>
<path fill="none" stroke="midnightblue" d="M429.06,-19.59C439.31,-24.49 451.89,-30.5 462.83,-35.73"/>
<polygon fill="midnightblue" stroke="midnightblue" points="461.4,-38.93 471.93,-40.08 464.42,-32.61 461.4,-38.93"/>
</g>
<!-- Node8&#45;&gt;Node6 -->
<g id="edge10" class="edge">
<title>Node8&#45;&gt;Node6</title>
<path fill="none" stroke="midnightblue" d="M436.15,-13.05C462.22,-15.98 502.08,-20.47 532.92,-23.93"/>
<polygon fill="midnightblue" stroke="midnightblue" points="532.67,-27.43 543,-25.06 533.45,-20.47 532.67,-27.43"/>
</g>
</g>
</svg>
