<?xml version="1.0" encoding="UTF-8" standalone="no"?>
<!DOCTYPE svg PUBLIC "-//W3C//DTD SVG 1.1//EN"
 "http://www.w3.org/Graphics/SVG/1.1/DTD/svg11.dtd">
<!-- Generated by graphviz version 2.43.0 (0)
 -->
<!-- Title: GetRandomCellAndLogicOnInletFace Pages: 1 -->
<svg width="825pt" height="83pt"
 viewBox="0.00 0.00 825.00 83.00" xmlns="http://www.w3.org/2000/svg" xmlns:xlink="http://www.w3.org/1999/xlink">
<g id="graph0" class="graph" transform="scale(1 1) rotate(0) translate(4 79)">
<title>GetRandomCellAndLogicOnInletFace</title>
<!-- Node1 -->
<g id="node1" class="node">
<title>Node1</title>
<g id="a_node1"><a xlink:title="Assuming the current rank services the inlet face, this function selects a random cell (owned by this...">
<polygon fill="#bfbfbf" stroke="black" points="622,-28 622,-47 817,-47 817,-28 622,-28"/>
<text text-anchor="middle" x="719.5" y="-35" font-family="Helvetica,sans-Serif" font-size="10.00">GetRandomCellAndLogicOnInletFace</text>
</a>
</g>
</g>
<!-- Node2 -->
<g id="node2" class="node">
<title>Node2</title>
<g id="a_node2"><a xlink:href="ParticleSwarm_8c.html#a95efc9f04a0187f2a1d920952bd610e0" target="_top" xlink:title="Initializes basic properties for particles on the local process.">
<polygon fill="none" stroke="black" points="415,-50 415,-69 586,-69 586,-50 415,-50"/>
<text text-anchor="middle" x="500.5" y="-57" font-family="Helvetica,sans-Serif" font-size="10.00">InitializeParticleBasicProperties</text>
</a>
</g>
</g>
<!-- Node1&#45;&gt;Node2 -->
<g id="edge1" class="edge">
<title>Node1&#45;&gt;Node2</title>
<path fill="none" stroke="midnightblue" d="M614.41,-48.05C605,-49.01 595.55,-49.96 586.34,-50.9"/>
<polygon fill="midnightblue" stroke="midnightblue" points="614.99,-51.51 624.58,-47.02 614.28,-44.55 614.99,-51.51"/>
</g>
<!-- Node6 -->
<g id="node6" class="node">
<title>Node6</title>
<g id="a_node6"><a xlink:href="ParticleMotion_8c.html#abb62172d12ae65122070a3674196c8e2" target="_top" xlink:title="Re&#45;initializes the positions of particles currently on this rank if this rank owns part of the design...">
<polygon fill="none" stroke="black" points="426,-0.5 426,-30.5 575,-30.5 575,-0.5 426,-0.5"/>
<text text-anchor="start" x="434" y="-18.5" font-family="Helvetica,sans-Serif" font-size="10.00">ReinitializeParticlesOnInlet</text>
<text text-anchor="middle" x="500.5" y="-7.5" font-family="Helvetica,sans-Serif" font-size="10.00">Surface</text>
</a>
</g>
</g>
<!-- Node1&#45;&gt;Node6 -->
<g id="edge5" class="edge">
<title>Node1&#45;&gt;Node6</title>
<path fill="none" stroke="midnightblue" d="M614.49,-26.95C601.25,-25.61 587.92,-24.26 575.29,-22.98"/>
<polygon fill="midnightblue" stroke="midnightblue" points="614.28,-30.45 624.58,-27.98 614.99,-23.49 614.28,-30.45"/>
</g>
<!-- Node3 -->
<g id="node3" class="node">
<title>Node3</title>
<g id="a_node3"><a xlink:href="ParticleSwarm_8c.html#af2b3080ee0e5c8e0175ac594a2c497b5" target="_top" xlink:title="Initializes all particle properties in the swarm.">
<polygon fill="none" stroke="black" points="242,-44.5 242,-74.5 379,-74.5 379,-44.5 242,-44.5"/>
<text text-anchor="start" x="250" y="-62.5" font-family="Helvetica,sans-Serif" font-size="10.00">AssignInitialPropertiesTo</text>
<text text-anchor="middle" x="310.5" y="-51.5" font-family="Helvetica,sans-Serif" font-size="10.00">Swarm</text>
</a>
</g>
</g>
<!-- Node2&#45;&gt;Node3 -->
<g id="edge2" class="edge">
<title>Node2&#45;&gt;Node3</title>
<path fill="none" stroke="midnightblue" d="M404.7,-59.5C396.05,-59.5 387.4,-59.5 379.06,-59.5"/>
<polygon fill="midnightblue" stroke="midnightblue" points="404.85,-63 414.85,-59.5 404.85,-56 404.85,-63"/>
</g>
<!-- Node4 -->
<g id="node4" class="node">
<title>Node4</title>
<g id="a_node4"><a xlink:href="ParticleSwarm_8c.html#ada215a5db25227a8fd2cd2596e7d3e57" target="_top" xlink:title="Perform particle swarm initialization, particle&#45;grid interaction, and related operations.">
<polygon fill="none" stroke="black" points="77,-48 77,-67 206,-67 206,-48 77,-48"/>
<text text-anchor="middle" x="141.5" y="-55" font-family="Helvetica,sans-Serif" font-size="10.00">InitializeParticleSwarm</text>
</a>
</g>
</g>
<!-- Node3&#45;&gt;Node4 -->
<g id="edge3" class="edge">
<title>Node3&#45;&gt;Node4</title>
<path fill="none" stroke="midnightblue" d="M231.31,-58.56C222.85,-58.46 214.31,-58.36 206.05,-58.26"/>
<polygon fill="midnightblue" stroke="midnightblue" points="231.53,-62.07 241.57,-58.69 231.62,-55.07 231.53,-62.07"/>
</g>
<!-- Node5 -->
<g id="node5" class="node">
<title>Node5</title>
<g id="a_node5"><a xlink:href="picsolver_8c.html#a3c04138a5bfe5d72780bb7e82a18e627" target="_top" xlink:title=" ">
<polygon fill="none" stroke="black" points="0,-28 0,-47 41,-47 41,-28 0,-28"/>
<text text-anchor="middle" x="20.5" y="-35" font-family="Helvetica,sans-Serif" font-size="10.00">main</text>
</a>
</g>
</g>
<!-- Node4&#45;&gt;Node5 -->
<g id="edge4" class="edge">
<title>Node4&#45;&gt;Node5</title>
<path fill="none" stroke="midnightblue" d="M73.74,-46.28C61.83,-44.28 50.32,-42.34 41.15,-40.8"/>
<polygon fill="midnightblue" stroke="midnightblue" points="73.35,-49.76 83.79,-47.97 74.51,-42.86 73.35,-49.76"/>
</g>
<!-- Node7 -->
<g id="node7" class="node">
<title>Node7</title>
<g id="a_node7"><a xlink:href="simulation_8c.html#a4e2cad25ac1fbdc6745d6fd8fcc1bbc1" target="_top" xlink:title="Finalizes the simulation setup at t=0, ensuring a consistent state before time marching.">
<polygon fill="none" stroke="black" points="86,-9 86,-28 197,-28 197,-9 86,-9"/>
<text text-anchor="middle" x="141.5" y="-16" font-family="Helvetica,sans-Serif" font-size="10.00">PerformInitialSetup</text>
</a>
</g>
</g>
<!-- Node6&#45;&gt;Node7 -->
<g id="edge6" class="edge">
<title>Node6&#45;&gt;Node7</title>
<path fill="none" stroke="midnightblue" d="M415.77,-16.2C348.25,-16.77 255.24,-17.55 197.02,-18.04"/>
<polygon fill="midnightblue" stroke="midnightblue" points="415.99,-19.7 425.96,-16.12 415.93,-12.7 415.99,-19.7"/>
</g>
<!-- Node7&#45;&gt;Node5 -->
<g id="edge7" class="edge">
<title>Node7&#45;&gt;Node5</title>
<path fill="none" stroke="midnightblue" d="M75.73,-28.84C63.1,-30.86 50.8,-32.82 41.11,-34.37"/>
<polygon fill="midnightblue" stroke="midnightblue" points="76.55,-32.25 85.88,-27.22 75.45,-25.34 76.55,-32.25"/>
</g>
</g>
</svg>
