<?xml version="1.0" encoding="UTF-8" standalone="no"?>
<!DOCTYPE svg PUBLIC "-//W3C//DTD SVG 1.1//EN"
 "http://www.w3.org/Graphics/SVG/1.1/DTD/svg11.dtd">
<!-- Generated by graphviz version 2.43.0 (0)
 -->
<!-- Title: FormBCS Pages: 1 -->
<svg width="594pt" height="110pt"
 viewBox="0.00 0.00 594.00 109.50" xmlns="http://www.w3.org/2000/svg" xmlns:xlink="http://www.w3.org/1999/xlink">
<g id="graph0" class="graph" transform="scale(1 1) rotate(0) translate(4 105.5)">
<title>FormBCS</title>
<!-- Node1 -->
<g id="node1" class="node">
<title>Node1</title>
<g id="a_node1"><a xlink:title=" ">
<polygon fill="#bfbfbf" stroke="black" points="525,-38.5 525,-57.5 586,-57.5 586,-38.5 525,-38.5"/>
<text text-anchor="middle" x="555.5" y="-45.5" font-family="Helvetica,sans-Serif" font-size="10.00">FormBCS</text>
</a>
</g>
</g>
<!-- Node2 -->
<g id="node2" class="node">
<title>Node2</title>
<g id="a_node2"><a xlink:href="initialcondition_8c.html#af6a26611066aa455efddcca2fd80fe35" target="_top" xlink:title="(HELPER) Finalizes a block&#39;s state by applying BCs, converting to Cartesian, and synchronizing ghost ...">
<polygon fill="none" stroke="black" points="383,-76.5 383,-95.5 489,-95.5 489,-76.5 383,-76.5"/>
<text text-anchor="middle" x="436" y="-83.5" font-family="Helvetica,sans-Serif" font-size="10.00">FinalizeBlockState</text>
</a>
</g>
</g>
<!-- Node1&#45;&gt;Node2 -->
<g id="edge1" class="edge">
<title>Node1&#45;&gt;Node2</title>
<path fill="none" stroke="midnightblue" d="M515.29,-60.68C499.41,-65.81 481.39,-71.64 466.64,-76.41"/>
<polygon fill="midnightblue" stroke="midnightblue" points="516.41,-64 524.85,-57.59 514.26,-57.34 516.41,-64"/>
</g>
<!-- Node6 -->
<g id="node6" class="node">
<title>Node6</title>
<g id="a_node6"><a xlink:href="implicitsolvers_8c.html#a148a238901a4674420c87137c087e3ac" target="_top" xlink:title="Advances the momentum equations using an iterative explicit Runge&#45;Kutta scheme.">
<polygon fill="none" stroke="black" points="411.5,-38.5 411.5,-57.5 460.5,-57.5 460.5,-38.5 411.5,-38.5"/>
<text text-anchor="middle" x="436" y="-45.5" font-family="Helvetica,sans-Serif" font-size="10.00">ImpRK</text>
</a>
</g>
</g>
<!-- Node1&#45;&gt;Node6 -->
<g id="edge5" class="edge">
<title>Node1&#45;&gt;Node6</title>
<path fill="none" stroke="midnightblue" d="M514.66,-48C496.73,-48 476.18,-48 460.72,-48"/>
<polygon fill="midnightblue" stroke="midnightblue" points="514.85,-51.5 524.85,-48 514.85,-44.5 514.85,-51.5"/>
</g>
<!-- Node9 -->
<g id="node9" class="node">
<title>Node9</title>
<g id="a_node9"><a xlink:href="implicitsolvers_8c.html#a89ae58d48076ba82dc70438b5e389bf5" target="_top" xlink:title="Advances the momentum equations for ALL blocks by one time step using an explicit 4&#45;stage,...">
<polygon fill="none" stroke="black" points="399.5,-0.5 399.5,-19.5 472.5,-19.5 472.5,-0.5 399.5,-0.5"/>
<text text-anchor="middle" x="436" y="-7.5" font-family="Helvetica,sans-Serif" font-size="10.00">RungeKutta</text>
</a>
</g>
</g>
<!-- Node1&#45;&gt;Node9 -->
<g id="edge9" class="edge">
<title>Node1&#45;&gt;Node9</title>
<path fill="none" stroke="midnightblue" d="M515.29,-35.32C499.41,-30.19 481.39,-24.36 466.64,-19.59"/>
<polygon fill="midnightblue" stroke="midnightblue" points="514.26,-38.66 524.85,-38.41 516.41,-32 514.26,-38.66"/>
</g>
<!-- Node3 -->
<g id="node3" class="node">
<title>Node3</title>
<g id="a_node3"><a xlink:href="initialcondition_8c.html#a51d0251f84a962a611ff0c0a8797a3e4" target="_top" xlink:title="(HELPER) Sets the t=0 fluid state for all blocks.">
<polygon fill="none" stroke="black" points="237,-71 237,-101 347,-101 347,-71 237,-71"/>
<text text-anchor="start" x="245" y="-89" font-family="Helvetica,sans-Serif" font-size="10.00">SetInitialFluidState</text>
<text text-anchor="middle" x="292" y="-78" font-family="Helvetica,sans-Serif" font-size="10.00">_FreshStart</text>
</a>
</g>
</g>
<!-- Node2&#45;&gt;Node3 -->
<g id="edge2" class="edge">
<title>Node2&#45;&gt;Node3</title>
<path fill="none" stroke="midnightblue" d="M372.76,-86C364.33,-86 355.73,-86 347.45,-86"/>
<polygon fill="midnightblue" stroke="midnightblue" points="372.93,-89.5 382.93,-86 372.93,-82.5 372.93,-89.5"/>
</g>
<!-- Node4 -->
<g id="node4" class="node">
<title>Node4</title>
<g id="a_node4"><a xlink:href="initialcondition_8c.html#ad0dd7d3f2528b6a7802fcd551e88ea99" target="_top" xlink:title="High&#45;level orchestrator to set the complete initial state of the Eulerian solver.">
<polygon fill="none" stroke="black" points="77,-74.5 77,-93.5 201,-93.5 201,-74.5 77,-74.5"/>
<text text-anchor="middle" x="139" y="-81.5" font-family="Helvetica,sans-Serif" font-size="10.00">InitializeEulerianState</text>
</a>
</g>
</g>
<!-- Node3&#45;&gt;Node4 -->
<g id="edge3" class="edge">
<title>Node3&#45;&gt;Node4</title>
<path fill="none" stroke="midnightblue" d="M226.7,-85.15C218.23,-85.04 209.57,-84.92 201.15,-84.81"/>
<polygon fill="midnightblue" stroke="midnightblue" points="226.87,-88.65 236.91,-85.28 226.96,-81.65 226.87,-88.65"/>
</g>
<!-- Node5 -->
<g id="node5" class="node">
<title>Node5</title>
<g id="a_node5"><a xlink:href="picsolver_8c.html#a3c04138a5bfe5d72780bb7e82a18e627" target="_top" xlink:title=" ">
<polygon fill="none" stroke="black" points="0,-54.5 0,-73.5 41,-73.5 41,-54.5 0,-54.5"/>
<text text-anchor="middle" x="20.5" y="-61.5" font-family="Helvetica,sans-Serif" font-size="10.00">main</text>
</a>
</g>
</g>
<!-- Node4&#45;&gt;Node5 -->
<g id="edge4" class="edge">
<title>Node4&#45;&gt;Node5</title>
<path fill="none" stroke="midnightblue" d="M72.37,-72.73C60.93,-70.77 49.87,-68.87 41.01,-67.35"/>
<polygon fill="midnightblue" stroke="midnightblue" points="72.03,-76.23 82.48,-74.47 73.22,-69.33 72.03,-76.23"/>
</g>
<!-- Node7 -->
<g id="node7" class="node">
<title>Node7</title>
<g id="a_node7"><a xlink:href="solvers_8c.html#a2ed4825273a593f371a3d48071708255" target="_top" xlink:title="Orchestrates a single time step of the Eulerian fluid solver.">
<polygon fill="none" stroke="black" points="254,-32.5 254,-51.5 330,-51.5 330,-32.5 254,-32.5"/>
<text text-anchor="middle" x="292" y="-39.5" font-family="Helvetica,sans-Serif" font-size="10.00">Flow_Solver</text>
</a>
</g>
</g>
<!-- Node6&#45;&gt;Node7 -->
<g id="edge6" class="edge">
<title>Node6&#45;&gt;Node7</title>
<path fill="none" stroke="midnightblue" d="M401,-46.56C379.66,-45.66 352.13,-44.5 330.21,-43.57"/>
<polygon fill="midnightblue" stroke="midnightblue" points="401.09,-50.07 411.23,-47 401.39,-43.08 401.09,-50.07"/>
</g>
<!-- Node8 -->
<g id="node8" class="node">
<title>Node8</title>
<g id="a_node8"><a xlink:href="simulation_8c.html#a5cfb2f783604af7f20171d19f969d5d3" target="_top" xlink:title="Executes the main time&#45;marching loop for the coupled Euler&#45;Lagrange simulation.">
<polygon fill="none" stroke="black" points="83.5,-35.5 83.5,-54.5 194.5,-54.5 194.5,-35.5 83.5,-35.5"/>
<text text-anchor="middle" x="139" y="-42.5" font-family="Helvetica,sans-Serif" font-size="10.00">AdvanceSimulation</text>
</a>
</g>
</g>
<!-- Node7&#45;&gt;Node8 -->
<g id="edge7" class="edge">
<title>Node7&#45;&gt;Node8</title>
<path fill="none" stroke="midnightblue" d="M243.29,-42.95C227.81,-43.26 210.51,-43.6 194.57,-43.92"/>
<polygon fill="midnightblue" stroke="midnightblue" points="243.75,-46.44 253.67,-42.74 243.61,-39.44 243.75,-46.44"/>
</g>
<!-- Node8&#45;&gt;Node5 -->
<g id="edge8" class="edge">
<title>Node8&#45;&gt;Node5</title>
<path fill="none" stroke="midnightblue" d="M72.97,-55.61C61.43,-57.49 50.25,-59.31 41.27,-60.78"/>
<polygon fill="midnightblue" stroke="midnightblue" points="73.86,-59.01 83.16,-53.94 72.73,-52.1 73.86,-59.01"/>
</g>
<!-- Node9&#45;&gt;Node7 -->
<g id="edge10" class="edge">
<title>Node9&#45;&gt;Node7</title>
<path fill="none" stroke="midnightblue" d="M389.21,-20.32C370.17,-24.61 348.35,-29.53 330.31,-33.59"/>
<polygon fill="midnightblue" stroke="midnightblue" points="390.18,-23.69 399.17,-18.07 388.64,-16.86 390.18,-23.69"/>
</g>
</g>
</svg>
