<?xml version="1.0" encoding="UTF-8" standalone="no"?>
<!DOCTYPE svg PUBLIC "-//W3C//DTD SVG 1.1//EN"
 "http://www.w3.org/Graphics/SVG/1.1/DTD/svg11.dtd">
<!-- Generated by graphviz version 2.43.0 (0)
 -->
<!-- Title: ParseAndSetGridInputs Pages: 1 -->
<svg width="318pt" height="66pt"
 viewBox="0.00 0.00 318.00 66.00" xmlns="http://www.w3.org/2000/svg" xmlns:xlink="http://www.w3.org/1999/xlink">
<g id="graph0" class="graph" transform="scale(1 1) rotate(0) translate(4 62)">
<title>ParseAndSetGridInputs</title>
<!-- Node1 -->
<g id="node1" class="node">
<title>Node1</title>
<g id="a_node1"><a xlink:title="Determines the grid source and calls the appropriate parsing routine.">
<polygon fill="#bfbfbf" stroke="black" points="0,-19.5 0,-38.5 128,-38.5 128,-19.5 0,-19.5"/>
<text text-anchor="middle" x="64" y="-26.5" font-family="Helvetica,sans-Serif" font-size="10.00">ParseAndSetGridInputs</text>
</a>
</g>
</g>
<!-- Node2 -->
<g id="node2" class="node">
<title>Node2</title>
<g id="a_node2"><a xlink:href="io_8h.html#a1454fbb30915c3284cbf5ecb100351d1" target="_top" xlink:title="Sets grid dimensions from a file for a SINGLE block using a one&#45;time read cache.">
<polygon fill="none" stroke="black" points="198,-38.5 198,-57.5 276,-57.5 276,-38.5 198,-38.5"/>
<text text-anchor="middle" x="237" y="-45.5" font-family="Helvetica,sans-Serif" font-size="10.00">ReadGridFile</text>
</a>
</g>
</g>
<!-- Node1&#45;&gt;Node2 -->
<g id="edge1" class="edge">
<title>Node1&#45;&gt;Node2</title>
<path fill="none" stroke="midnightblue" d="M128.19,-36.02C147.94,-38.22 169.39,-40.6 187.92,-42.66"/>
<polygon fill="midnightblue" stroke="midnightblue" points="187.56,-46.14 197.89,-43.77 188.34,-39.18 187.56,-46.14"/>
</g>
<!-- Node3 -->
<g id="node3" class="node">
<title>Node3</title>
<g id="a_node3"><a xlink:href="io_8h.html#a7dd125436244f23eba5c6b06fdd35031" target="_top" xlink:title="Parses command&#45;line options for a programmatically generated grid for a SINGLE block.">
<polygon fill="none" stroke="black" points="164,-0.5 164,-19.5 310,-19.5 310,-0.5 164,-0.5"/>
<text text-anchor="middle" x="237" y="-7.5" font-family="Helvetica,sans-Serif" font-size="10.00">ReadGridGenerationInputs</text>
</a>
</g>
</g>
<!-- Node1&#45;&gt;Node3 -->
<g id="edge2" class="edge">
<title>Node1&#45;&gt;Node3</title>
<path fill="none" stroke="midnightblue" d="M128.19,-21.98C136.53,-21.05 145.18,-20.09 153.78,-19.14"/>
<polygon fill="midnightblue" stroke="midnightblue" points="154.29,-22.6 163.84,-18.02 153.51,-15.64 154.29,-22.6"/>
</g>
</g>
</svg>
