<?xml version="1.0" encoding="UTF-8" standalone="no"?>
<!DOCTYPE svg PUBLIC "-//W3C//DTD SVG 1.1//EN"
 "http://www.w3.org/Graphics/SVG/1.1/DTD/svg11.dtd">
<!-- Generated by graphviz version 2.43.0 (0)
 -->
<!-- Title: grid.h Pages: 1 -->
<svg width="2804pt" height="756pt"
 viewBox="0.00 0.00 2803.50 756.00" xmlns="http://www.w3.org/2000/svg" xmlns:xlink="http://www.w3.org/1999/xlink">
<g id="graph0" class="graph" transform="scale(1 1) rotate(0) translate(4 752)">
<title>grid.h</title>
<!-- Node1 -->
<g id="node1" class="node">
<title>Node1</title>
<g id="a_node1"><a xlink:title="Public interface for grid, solver, and metric setup routines.">
<polygon fill="#bfbfbf" stroke="black" points="1284.5,-728.5 1284.5,-747.5 1328.5,-747.5 1328.5,-728.5 1284.5,-728.5"/>
<text text-anchor="middle" x="1306.5" y="-735.5" font-family="Helvetica,sans-Serif" font-size="10.00">grid.h</text>
</a>
</g>
</g>
<!-- Node2 -->
<g id="node2" class="node">
<title>Node2</title>
<g id="a_node2"><a xlink:href="variables_8h.html" target="_top" xlink:title="Main header file for a complex fluid dynamics solver.">
<polygon fill="none" stroke="black" points="256,-56.5 256,-75.5 327,-75.5 327,-56.5 256,-56.5"/>
<text text-anchor="middle" x="291.5" y="-63.5" font-family="Helvetica,sans-Serif" font-size="10.00">variables.h</text>
</a>
</g>
</g>
<!-- Node1&#45;&gt;Node2 -->
<g id="edge1" class="edge">
<title>Node1&#45;&gt;Node2</title>
<path fill="none" stroke="midnightblue" d="M1284.27,-736.3C1114.16,-730.77 25.5,-692.85 25.5,-627 25.5,-627 25.5,-627 25.5,-457 25.5,-381.31 63.5,-366.69 63.5,-291 63.5,-291 63.5,-291 63.5,-177 63.5,-96.9 179.06,-75.1 245.64,-69.19"/>
<polygon fill="midnightblue" stroke="midnightblue" points="246.19,-72.65 255.88,-68.37 245.63,-65.67 246.19,-72.65"/>
</g>
<!-- Node12 -->
<g id="node12" class="node">
<title>Node12</title>
<g id="a_node12"><a xlink:href="logging_8h.html" target="_top" xlink:title="Logging utilities and macros for PETSc&#45;based applications.">
<polygon fill="none" stroke="black" points="579.5,-672.5 579.5,-691.5 641.5,-691.5 641.5,-672.5 579.5,-672.5"/>
<text text-anchor="middle" x="610.5" y="-679.5" font-family="Helvetica,sans-Serif" font-size="10.00">logging.h</text>
</a>
</g>
</g>
<!-- Node1&#45;&gt;Node12 -->
<g id="edge11" class="edge">
<title>Node1&#45;&gt;Node12</title>
<path fill="none" stroke="midnightblue" d="M1284.13,-735.26C1184.79,-727.56 782.73,-696.36 651.88,-686.21"/>
<polygon fill="midnightblue" stroke="midnightblue" points="652.09,-682.72 641.85,-685.43 651.55,-689.7 652.09,-682.72"/>
</g>
<!-- Node25 -->
<g id="node25" class="node">
<title>Node25</title>
<g id="a_node25"><a xlink:href="setup_8h.html" target="_top" xlink:title=" ">
<polygon fill="none" stroke="black" points="1710,-224.5 1710,-243.5 1763,-243.5 1763,-224.5 1710,-224.5"/>
<text text-anchor="middle" x="1736.5" y="-231.5" font-family="Helvetica,sans-Serif" font-size="10.00">setup.h</text>
</a>
</g>
</g>
<!-- Node1&#45;&gt;Node25 -->
<g id="edge145" class="edge">
<title>Node1&#45;&gt;Node25</title>
<path fill="none" stroke="midnightblue" d="M1328.76,-736.51C1513.05,-732.52 2777.5,-703.21 2777.5,-627 2777.5,-627 2777.5,-627 2777.5,-569 2777.5,-352.73 1958.37,-257.94 1773.3,-238.75"/>
<polygon fill="midnightblue" stroke="midnightblue" points="1773.55,-235.26 1763.25,-237.72 1772.84,-242.22 1773.55,-235.26"/>
</g>
<!-- Node27 -->
<g id="node27" class="node">
<title>Node27</title>
<g id="a_node27"><a xlink:href="io_8h.html" target="_top" xlink:title="Public interface for data input/output routines.">
<polygon fill="none" stroke="black" points="886,-504.5 886,-523.5 921,-523.5 921,-504.5 886,-504.5"/>
<text text-anchor="middle" x="903.5" y="-511.5" font-family="Helvetica,sans-Serif" font-size="10.00">io.h</text>
</a>
</g>
</g>
<!-- Node1&#45;&gt;Node27 -->
<g id="edge144" class="edge">
<title>Node1&#45;&gt;Node27</title>
<path fill="none" stroke="midnightblue" d="M1290.7,-728.3C1228.88,-694.24 1003.07,-569.85 927.97,-528.48"/>
<polygon fill="midnightblue" stroke="midnightblue" points="929.64,-525.4 919.19,-523.64 926.26,-531.53 929.64,-525.4"/>
</g>
<!-- Node3 -->
<g id="node3" class="node">
<title>Node3</title>
<g id="a_node3"><a xlink:title=" ">
<polygon fill="none" stroke="#bfbfbf" points="71,-0.5 71,-19.5 140,-19.5 140,-0.5 71,-0.5"/>
<text text-anchor="middle" x="105.5" y="-7.5" font-family="Helvetica,sans-Serif" font-size="10.00">petscvec.h</text>
</a>
</g>
</g>
<!-- Node2&#45;&gt;Node3 -->
<g id="edge2" class="edge">
<title>Node2&#45;&gt;Node3</title>
<path fill="none" stroke="midnightblue" d="M262.03,-56.44C230.33,-47.24 179.77,-32.56 144.73,-22.39"/>
<polygon fill="midnightblue" stroke="midnightblue" points="145.41,-18.94 134.83,-19.52 143.46,-25.67 145.41,-18.94"/>
</g>
<!-- Node4 -->
<g id="node4" class="node">
<title>Node4</title>
<g id="a_node4"><a xlink:title=" ">
<polygon fill="none" stroke="#bfbfbf" points="158.5,-0.5 158.5,-19.5 238.5,-19.5 238.5,-0.5 158.5,-0.5"/>
<text text-anchor="middle" x="198.5" y="-7.5" font-family="Helvetica,sans-Serif" font-size="10.00">petscdmda.h</text>
</a>
</g>
</g>
<!-- Node2&#45;&gt;Node4 -->
<g id="edge3" class="edge">
<title>Node2&#45;&gt;Node4</title>
<path fill="none" stroke="midnightblue" d="M276.56,-56.32C261.91,-47.82 239.37,-34.73 222.26,-24.8"/>
<polygon fill="midnightblue" stroke="midnightblue" points="223.81,-21.65 213.4,-19.65 220.3,-27.7 223.81,-21.65"/>
</g>
<!-- Node5 -->
<g id="node5" class="node">
<title>Node5</title>
<g id="a_node5"><a xlink:title=" ">
<polygon fill="none" stroke="#bfbfbf" points="257,-0.5 257,-19.5 326,-19.5 326,-0.5 257,-0.5"/>
<text text-anchor="middle" x="291.5" y="-7.5" font-family="Helvetica,sans-Serif" font-size="10.00">petscksp.h</text>
</a>
</g>
</g>
<!-- Node2&#45;&gt;Node5 -->
<g id="edge4" class="edge">
<title>Node2&#45;&gt;Node5</title>
<path fill="none" stroke="midnightblue" d="M291.5,-56.08C291.5,-49.01 291.5,-38.86 291.5,-29.99"/>
<polygon fill="midnightblue" stroke="midnightblue" points="295,-29.75 291.5,-19.75 288,-29.75 295,-29.75"/>
</g>
<!-- Node6 -->
<g id="node6" class="node">
<title>Node6</title>
<g id="a_node6"><a xlink:title=" ">
<polygon fill="none" stroke="#bfbfbf" points="344.5,-0.5 344.5,-19.5 418.5,-19.5 418.5,-0.5 344.5,-0.5"/>
<text text-anchor="middle" x="381.5" y="-7.5" font-family="Helvetica,sans-Serif" font-size="10.00">petscsnes.h</text>
</a>
</g>
</g>
<!-- Node2&#45;&gt;Node6 -->
<g id="edge5" class="edge">
<title>Node2&#45;&gt;Node6</title>
<path fill="none" stroke="midnightblue" d="M305.96,-56.32C320,-47.9 341.55,-34.97 358.04,-25.07"/>
<polygon fill="midnightblue" stroke="midnightblue" points="360.3,-27.8 367.08,-19.65 356.7,-21.8 360.3,-27.8"/>
</g>
<!-- Node7 -->
<g id="node7" class="node">
<title>Node7</title>
<g id="a_node7"><a xlink:title=" ">
<polygon fill="none" stroke="#bfbfbf" points="2086,-0.5 2086,-19.5 2187,-19.5 2187,-0.5 2086,-0.5"/>
<text text-anchor="middle" x="2136.5" y="-7.5" font-family="Helvetica,sans-Serif" font-size="10.00">petscdmswarm.h</text>
</a>
</g>
</g>
<!-- Node2&#45;&gt;Node7 -->
<g id="edge6" class="edge">
<title>Node2&#45;&gt;Node7</title>
<path fill="none" stroke="midnightblue" d="M327.12,-63.96C552.98,-57.35 1785.79,-21.26 2075.52,-12.78"/>
<polygon fill="midnightblue" stroke="midnightblue" points="2075.93,-16.27 2085.83,-12.48 2075.73,-9.28 2075.93,-16.27"/>
</g>
<!-- Node8 -->
<g id="node8" class="node">
<title>Node8</title>
<g id="a_node8"><a xlink:title=" ">
<polygon fill="none" stroke="#bfbfbf" points="436.5,-0.5 436.5,-19.5 486.5,-19.5 486.5,-0.5 436.5,-0.5"/>
<text text-anchor="middle" x="461.5" y="-7.5" font-family="Helvetica,sans-Serif" font-size="10.00">stdio.h</text>
</a>
</g>
</g>
<!-- Node2&#45;&gt;Node8 -->
<g id="edge7" class="edge">
<title>Node2&#45;&gt;Node8</title>
<path fill="none" stroke="midnightblue" d="M318.44,-56.44C347.67,-47.16 394.45,-32.3 426.5,-22.12"/>
<polygon fill="midnightblue" stroke="midnightblue" points="427.88,-25.35 436.35,-18.99 425.76,-18.68 427.88,-25.35"/>
</g>
<!-- Node9 -->
<g id="node9" class="node">
<title>Node9</title>
<g id="a_node9"><a xlink:title=" ">
<polygon fill="none" stroke="#bfbfbf" points="1172,-0.5 1172,-19.5 1225,-19.5 1225,-0.5 1172,-0.5"/>
<text text-anchor="middle" x="1198.5" y="-7.5" font-family="Helvetica,sans-Serif" font-size="10.00">stdlib.h</text>
</a>
</g>
</g>
<!-- Node2&#45;&gt;Node9 -->
<g id="edge8" class="edge">
<title>Node2&#45;&gt;Node9</title>
<path fill="none" stroke="midnightblue" d="M327.2,-58.01C331.99,-57.24 336.86,-56.54 341.5,-56 657.56,-19.4 1042.68,-12.55 1161.7,-11.28"/>
<polygon fill="midnightblue" stroke="midnightblue" points="1161.78,-14.78 1171.74,-11.18 1161.71,-7.78 1161.78,-14.78"/>
</g>
<!-- Node10 -->
<g id="node10" class="node">
<title>Node10</title>
<g id="a_node10"><a xlink:title=" ">
<polygon fill="none" stroke="#bfbfbf" points="0,-0.5 0,-19.5 53,-19.5 53,-0.5 0,-0.5"/>
<text text-anchor="middle" x="26.5" y="-7.5" font-family="Helvetica,sans-Serif" font-size="10.00">string.h</text>
</a>
</g>
</g>
<!-- Node2&#45;&gt;Node10 -->
<g id="edge9" class="edge">
<title>Node2&#45;&gt;Node10</title>
<path fill="none" stroke="midnightblue" d="M255.9,-58.7C212.53,-50.88 136.82,-36.77 63.13,-20.28"/>
<polygon fill="midnightblue" stroke="midnightblue" points="63.74,-16.83 53.21,-18.04 62.2,-23.65 63.74,-16.83"/>
</g>
<!-- Node11 -->
<g id="node11" class="node">
<title>Node11</title>
<g id="a_node11"><a xlink:title=" ">
<polygon fill="none" stroke="#bfbfbf" points="504.5,-0.5 504.5,-19.5 560.5,-19.5 560.5,-0.5 504.5,-0.5"/>
<text text-anchor="middle" x="532.5" y="-7.5" font-family="Helvetica,sans-Serif" font-size="10.00">unistd.h</text>
</a>
</g>
</g>
<!-- Node2&#45;&gt;Node11 -->
<g id="edge10" class="edge">
<title>Node2&#45;&gt;Node11</title>
<path fill="none" stroke="midnightblue" d="M327.3,-57.35C366.08,-49 430.04,-35.08 494.33,-20.24"/>
<polygon fill="midnightblue" stroke="midnightblue" points="495.28,-23.61 504.23,-17.94 493.7,-16.79 495.28,-23.61"/>
</g>
<!-- Node12&#45;&gt;Node2 -->
<g id="edge17" class="edge">
<title>Node12&#45;&gt;Node2</title>
<path fill="none" stroke="midnightblue" d="M579.23,-680.01C477.66,-676.55 161.47,-663.62 125.5,-636 101.07,-617.25 101.5,-601.8 101.5,-571 101.5,-571 101.5,-571 101.5,-177 101.5,-110.62 189.44,-83.65 245.66,-73.19"/>
<polygon fill="midnightblue" stroke="midnightblue" points="246.52,-76.59 255.76,-71.42 245.31,-69.69 246.52,-76.59"/>
</g>
<!-- Node12&#45;&gt;Node9 -->
<g id="edge13" class="edge">
<title>Node12&#45;&gt;Node9</title>
<path fill="none" stroke="midnightblue" d="M579.23,-680.42C474.04,-677.61 139.5,-661.58 139.5,-571 139.5,-571 139.5,-571 139.5,-289 139.5,-72.94 974.63,-21.38 1161.65,-12.55"/>
<polygon fill="midnightblue" stroke="midnightblue" points="1161.96,-16.04 1171.79,-12.08 1161.64,-9.05 1161.96,-16.04"/>
</g>
<!-- Node12&#45;&gt;Node10 -->
<g id="edge14" class="edge">
<title>Node12&#45;&gt;Node10</title>
<path fill="none" stroke="midnightblue" d="M579.2,-679.82C475.12,-675.69 145,-660.74 104.5,-636 75.35,-618.19 63.5,-605.16 63.5,-571 63.5,-571 63.5,-571 63.5,-457 63.5,-381.31 25.5,-366.69 25.5,-291 25.5,-291 25.5,-291 25.5,-121 25.5,-88.95 25.93,-51.64 26.23,-29.75"/>
<polygon fill="midnightblue" stroke="midnightblue" points="29.73,-29.61 26.37,-19.56 22.73,-29.51 29.73,-29.61"/>
</g>
<!-- Node13 -->
<g id="node13" class="node">
<title>Node13</title>
<g id="a_node13"><a xlink:title=" ">
<polygon fill="none" stroke="#bfbfbf" points="911.5,-56.5 911.5,-75.5 963.5,-75.5 963.5,-56.5 911.5,-56.5"/>
<text text-anchor="middle" x="937.5" y="-63.5" font-family="Helvetica,sans-Serif" font-size="10.00">petsc.h</text>
</a>
</g>
</g>
<!-- Node12&#45;&gt;Node13 -->
<g id="edge12" class="edge">
<title>Node12&#45;&gt;Node13</title>
<path fill="none" stroke="midnightblue" d="M579.41,-680.43C544.3,-678.11 487.61,-669.04 453.5,-636 420.24,-603.78 367.5,-610.17 367.5,-347 367.5,-347 367.5,-347 367.5,-289 367.5,-173.96 775.77,-94.63 901.25,-72.97"/>
<polygon fill="midnightblue" stroke="midnightblue" points="901.88,-76.41 911.15,-71.28 900.7,-69.51 901.88,-76.41"/>
</g>
<!-- Node14 -->
<g id="node14" class="node">
<title>Node14</title>
<g id="a_node14"><a xlink:title=" ">
<polygon fill="none" stroke="#bfbfbf" points="1112.5,-168.5 1112.5,-187.5 1180.5,-187.5 1180.5,-168.5 1112.5,-168.5"/>
<text text-anchor="middle" x="1146.5" y="-175.5" font-family="Helvetica,sans-Serif" font-size="10.00">petscsys.h</text>
</a>
</g>
</g>
<!-- Node12&#45;&gt;Node14 -->
<g id="edge15" class="edge">
<title>Node12&#45;&gt;Node14</title>
<path fill="none" stroke="midnightblue" d="M611.24,-672.44C613.79,-646.04 623.77,-564.09 653.5,-504 711.26,-387.25 732.61,-349.94 842.5,-280 926.05,-226.82 1040.47,-198.75 1102.38,-186.59"/>
<polygon fill="midnightblue" stroke="midnightblue" points="1103.05,-190.03 1112.22,-184.71 1101.74,-183.15 1103.05,-190.03"/>
</g>
<!-- Node15 -->
<g id="node15" class="node">
<title>Node15</title>
<g id="a_node15"><a xlink:title=" ">
<polygon fill="none" stroke="#bfbfbf" points="282,-616.5 282,-635.5 335,-635.5 335,-616.5 282,-616.5"/>
<text text-anchor="middle" x="308.5" y="-623.5" font-family="Helvetica,sans-Serif" font-size="10.00">ctype.h</text>
</a>
</g>
</g>
<!-- Node12&#45;&gt;Node15 -->
<g id="edge16" class="edge">
<title>Node12&#45;&gt;Node15</title>
<path fill="none" stroke="midnightblue" d="M579.48,-676.12C530.5,-668.31 432.3,-652.22 349.5,-636 348.21,-635.75 346.9,-635.49 345.58,-635.22"/>
<polygon fill="midnightblue" stroke="midnightblue" points="345.87,-631.7 335.37,-633.08 344.44,-638.56 345.87,-631.7"/>
</g>
<!-- Node16 -->
<g id="node16" class="node">
<title>Node16</title>
<g id="a_node16"><a xlink:href="AnalyticalSolution_8h.html" target="_top" xlink:title=" ">
<polygon fill="none" stroke="black" points="1954.5,-616.5 1954.5,-635.5 2068.5,-635.5 2068.5,-616.5 1954.5,-616.5"/>
<text text-anchor="middle" x="2011.5" y="-623.5" font-family="Helvetica,sans-Serif" font-size="10.00">AnalyticalSolution.h</text>
</a>
</g>
</g>
<!-- Node12&#45;&gt;Node16 -->
<g id="edge18" class="edge">
<title>Node12&#45;&gt;Node16</title>
<path fill="none" stroke="midnightblue" d="M641.9,-680.4C785.68,-677.68 1394.41,-665.28 1893.5,-636 1909.83,-635.04 1927.5,-633.71 1944.12,-632.36"/>
<polygon fill="midnightblue" stroke="midnightblue" points="1944.62,-635.83 1954.3,-631.53 1944.05,-628.86 1944.62,-635.83"/>
</g>
<!-- Node28 -->
<g id="node28" class="node">
<title>Node28</title>
<g id="a_node28"><a xlink:href="Boundaries_8h.html" target="_top" xlink:title=" ">
<polygon fill="none" stroke="black" points="1266.5,-448.5 1266.5,-467.5 1346.5,-467.5 1346.5,-448.5 1266.5,-448.5"/>
<text text-anchor="middle" x="1306.5" y="-455.5" font-family="Helvetica,sans-Serif" font-size="10.00">Boundaries.h</text>
</a>
</g>
</g>
<!-- Node12&#45;&gt;Node28 -->
<g id="edge143" class="edge">
<title>Node12&#45;&gt;Node28</title>
<path fill="none" stroke="midnightblue" d="M641.52,-674.69C681.72,-667.14 753.29,-653.31 813.5,-636 989.76,-585.34 1194.07,-502.33 1273.12,-471.25"/>
<polygon fill="midnightblue" stroke="midnightblue" points="1274.52,-474.46 1282.56,-467.56 1271.97,-467.94 1274.52,-474.46"/>
</g>
<!-- Node16&#45;&gt;Node1 -->
<g id="edge138" class="edge">
<title>Node16&#45;&gt;Node1</title>
<path fill="none" stroke="midnightblue" d="M2005.24,-635.7C1994.12,-650.35 1969.36,-679.59 1940.5,-692 1830.63,-739.24 1452.29,-738.74 1338.88,-737.48"/>
<polygon fill="midnightblue" stroke="midnightblue" points="1338.79,-733.98 1328.75,-737.36 1338.71,-740.98 1338.79,-733.98"/>
</g>
<!-- Node16&#45;&gt;Node2 -->
<g id="edge26" class="edge">
<title>Node16&#45;&gt;Node2</title>
<path fill="none" stroke="midnightblue" d="M1954.37,-625C1757.32,-624.64 1106.9,-620.36 902.5,-580 552.41,-510.88 177.5,-591.84 177.5,-235 177.5,-235 177.5,-235 177.5,-177 177.5,-130.11 228.05,-96.89 261.83,-79.93"/>
<polygon fill="midnightblue" stroke="midnightblue" points="263.37,-83.07 270.86,-75.58 260.33,-76.77 263.37,-83.07"/>
</g>
<!-- Node16&#45;&gt;Node7 -->
<g id="edge20" class="edge">
<title>Node16&#45;&gt;Node7</title>
<path fill="none" stroke="midnightblue" d="M2068.5,-624.87C2226.91,-624.04 2664.16,-618.26 2715.5,-580 2740.19,-561.6 2739.5,-545.8 2739.5,-515 2739.5,-515 2739.5,-515 2739.5,-121 2739.5,-58.78 2675.16,-73.69 2615.5,-56 2538.72,-33.23 2308.19,-19.32 2197.34,-13.78"/>
<polygon fill="midnightblue" stroke="midnightblue" points="2197.48,-10.28 2187.32,-13.28 2197.13,-17.27 2197.48,-10.28"/>
</g>
<!-- Node16&#45;&gt;Node9 -->
<g id="edge21" class="edge">
<title>Node16&#45;&gt;Node9</title>
<path fill="none" stroke="midnightblue" d="M2068.86,-624.39C2197.92,-622.42 2507.48,-614.17 2605.5,-580 2654.16,-563.04 2701.5,-566.53 2701.5,-515 2701.5,-515 2701.5,-515 2701.5,-289 2701.5,-199.49 2624.23,-199.65 2540.5,-168 2294.1,-74.87 2219.87,-88.74 1958.5,-56 1682.12,-21.38 1345.77,-13.26 1235.46,-11.48"/>
<polygon fill="midnightblue" stroke="midnightblue" points="1235.26,-7.97 1225.2,-11.32 1235.15,-14.97 1235.26,-7.97"/>
</g>
<!-- Node16&#45;&gt;Node12 -->
<g id="edge139" class="edge">
<title>Node16&#45;&gt;Node12</title>
<path fill="none" stroke="midnightblue" d="M1954.32,-632.95C1940.35,-634.09 1925.43,-635.18 1911.5,-636 1416.51,-665.04 813.65,-677.47 651.96,-680.33"/>
<polygon fill="midnightblue" stroke="midnightblue" points="651.45,-676.84 641.52,-680.51 651.58,-683.84 651.45,-676.84"/>
</g>
<!-- Node17 -->
<g id="node17" class="node">
<title>Node17</title>
<g id="a_node17"><a xlink:title=" ">
<polygon fill="none" stroke="#bfbfbf" points="1913,-168.5 1913,-187.5 1974,-187.5 1974,-168.5 1913,-168.5"/>
<text text-anchor="middle" x="1943.5" y="-175.5" font-family="Helvetica,sans-Serif" font-size="10.00">petscpf.h</text>
</a>
</g>
</g>
<!-- Node16&#45;&gt;Node17 -->
<g id="edge19" class="edge">
<title>Node16&#45;&gt;Node17</title>
<path fill="none" stroke="midnightblue" d="M2068.7,-618.75C2123.13,-611.77 2200.1,-598.93 2223.5,-580 2251.15,-557.64 2256.91,-538.55 2248.5,-504 2210.45,-347.79 2033.24,-231.05 1967.84,-192.62"/>
<polygon fill="midnightblue" stroke="midnightblue" points="1969.44,-189.5 1959.03,-187.52 1965.93,-195.56 1969.44,-189.5"/>
</g>
<!-- Node18 -->
<g id="node18" class="node">
<title>Node18</title>
<g id="a_node18"><a xlink:title=" ">
<polygon fill="none" stroke="#bfbfbf" points="1992.5,-168.5 1992.5,-187.5 2040.5,-187.5 2040.5,-168.5 1992.5,-168.5"/>
<text text-anchor="middle" x="2016.5" y="-175.5" font-family="Helvetica,sans-Serif" font-size="10.00">time.h</text>
</a>
</g>
</g>
<!-- Node16&#45;&gt;Node18 -->
<g id="edge22" class="edge">
<title>Node16&#45;&gt;Node18</title>
<path fill="none" stroke="midnightblue" d="M2068.71,-625.12C2148.23,-623.92 2286,-616.47 2317.5,-580 2406.27,-477.22 2352.53,-378.93 2259.5,-280 2202.26,-219.13 2102.77,-193.68 2050.62,-184.11"/>
<polygon fill="midnightblue" stroke="midnightblue" points="2051,-180.63 2040.55,-182.35 2049.8,-187.52 2051,-180.63"/>
</g>
<!-- Node19 -->
<g id="node19" class="node">
<title>Node19</title>
<g id="a_node19"><a xlink:title=" ">
<polygon fill="none" stroke="#bfbfbf" points="1520,-112.5 1520,-131.5 1571,-131.5 1571,-112.5 1520,-112.5"/>
<text text-anchor="middle" x="1545.5" y="-119.5" font-family="Helvetica,sans-Serif" font-size="10.00">math.h</text>
</a>
</g>
</g>
<!-- Node16&#45;&gt;Node19 -->
<g id="edge23" class="edge">
<title>Node16&#45;&gt;Node19</title>
<path fill="none" stroke="midnightblue" d="M2068.64,-623.34C2188.2,-619.35 2460.99,-607.46 2549.5,-580 2605.2,-562.72 2663.5,-573.32 2663.5,-515 2663.5,-515 2663.5,-515 2663.5,-345 2663.5,-239.25 2602.11,-208.67 2504.5,-168 2418.12,-132.01 1745.32,-124.53 1581.41,-123.24"/>
<polygon fill="midnightblue" stroke="midnightblue" points="1581.39,-119.74 1571.36,-123.16 1581.34,-126.74 1581.39,-119.74"/>
</g>
<!-- Node20 -->
<g id="node20" class="node">
<title>Node20</title>
<g id="a_node20"><a xlink:title=" ">
<polygon fill="none" stroke="#bfbfbf" points="2105.5,-168.5 2105.5,-187.5 2179.5,-187.5 2179.5,-168.5 2105.5,-168.5"/>
<text text-anchor="middle" x="2142.5" y="-175.5" font-family="Helvetica,sans-Serif" font-size="10.00">petsctime.h</text>
</a>
</g>
</g>
<!-- Node16&#45;&gt;Node20 -->
<g id="edge24" class="edge">
<title>Node16&#45;&gt;Node20</title>
<path fill="none" stroke="midnightblue" d="M2068.86,-624.36C2200.19,-621.36 2511.5,-604.77 2511.5,-515 2511.5,-515 2511.5,-515 2511.5,-345 2511.5,-205.41 2289.16,-182.51 2189.66,-179.25"/>
<polygon fill="midnightblue" stroke="midnightblue" points="2189.66,-175.75 2179.57,-178.97 2189.47,-182.74 2189.66,-175.75"/>
</g>
<!-- Node21 -->
<g id="node21" class="node">
<title>Node21</title>
<g id="a_node21"><a xlink:title=" ">
<polygon fill="none" stroke="#bfbfbf" points="2376,-168.5 2376,-187.5 2495,-187.5 2495,-168.5 2376,-168.5"/>
<text text-anchor="middle" x="2435.5" y="-175.5" font-family="Helvetica,sans-Serif" font-size="10.00">petscdmcomposite.h</text>
</a>
</g>
</g>
<!-- Node16&#45;&gt;Node21 -->
<g id="edge25" class="edge">
<title>Node16&#45;&gt;Node21</title>
<path fill="none" stroke="midnightblue" d="M2068.74,-624.9C2156.69,-623.53 2329.75,-615.96 2471.5,-580 2543.51,-561.73 2625.5,-589.29 2625.5,-515 2625.5,-515 2625.5,-515 2625.5,-345 2625.5,-263.6 2525.37,-212.9 2470.49,-191.23"/>
<polygon fill="midnightblue" stroke="midnightblue" points="2471.71,-187.95 2461.12,-187.64 2469.21,-194.49 2471.71,-187.95"/>
</g>
<!-- Node22 -->
<g id="node22" class="node">
<title>Node22</title>
<g id="a_node22"><a xlink:href="ParticleSwarm_8h.html" target="_top" xlink:title="Header file for Particle Motion and migration related functions.">
<polygon fill="none" stroke="black" points="851.5,-168.5 851.5,-187.5 947.5,-187.5 947.5,-168.5 851.5,-168.5"/>
<text text-anchor="middle" x="899.5" y="-175.5" font-family="Helvetica,sans-Serif" font-size="10.00">ParticleSwarm.h</text>
</a>
</g>
</g>
<!-- Node16&#45;&gt;Node22 -->
<g id="edge27" class="edge">
<title>Node16&#45;&gt;Node22</title>
<path fill="none" stroke="midnightblue" d="M1954.34,-625.14C1765.34,-625.2 1161.88,-622 972.5,-580 909.08,-565.94 893.96,-556.12 837.5,-524 740.68,-468.91 684.22,-462.48 651.5,-356 646.56,-339.92 655,-297.17 658.5,-280 663.68,-254.64 655.47,-241.55 674.5,-224 698.33,-202.03 782.78,-189.81 841.15,-183.82"/>
<polygon fill="midnightblue" stroke="midnightblue" points="841.76,-187.27 851.36,-182.81 841.07,-180.31 841.76,-187.27"/>
</g>
<!-- Node24 -->
<g id="node24" class="node">
<title>Node24</title>
<g id="a_node24"><a xlink:href="walkingsearch_8h.html" target="_top" xlink:title="Header file for particle location functions using the walking search algorithm.">
<polygon fill="none" stroke="black" points="851.5,-280.5 851.5,-299.5 947.5,-299.5 947.5,-280.5 851.5,-280.5"/>
<text text-anchor="middle" x="899.5" y="-287.5" font-family="Helvetica,sans-Serif" font-size="10.00">walkingsearch.h</text>
</a>
</g>
</g>
<!-- Node16&#45;&gt;Node24 -->
<g id="edge137" class="edge">
<title>Node16&#45;&gt;Node24</title>
<path fill="none" stroke="midnightblue" d="M1954.39,-624.15C1776.49,-621.22 1233.85,-610 1060.5,-580 1018.39,-572.71 913.05,-546.15 876.5,-524 811.19,-484.41 732.55,-460.41 766.5,-392 787.76,-349.16 836.83,-319.6 869.06,-303.99"/>
<polygon fill="midnightblue" stroke="midnightblue" points="870.89,-306.99 878.47,-299.59 867.92,-300.65 870.89,-306.99"/>
</g>
<!-- Node16&#45;&gt;Node25 -->
<g id="edge141" class="edge">
<title>Node16&#45;&gt;Node25</title>
<path fill="none" stroke="midnightblue" d="M2064.15,-616.5C2135,-602.89 2248.19,-570.66 2214.5,-504 2138.81,-354.21 2062.48,-351.19 1910.5,-280 1865.47,-258.91 1809.4,-247 1773.16,-240.8"/>
<polygon fill="midnightblue" stroke="midnightblue" points="1773.47,-237.31 1763.03,-239.13 1772.33,-244.21 1773.47,-237.31"/>
</g>
<!-- Node16&#45;&gt;Node27 -->
<g id="edge140" class="edge">
<title>Node16&#45;&gt;Node27</title>
<path fill="none" stroke="midnightblue" d="M1954.42,-623.56C1787.76,-619.13 1303.78,-604.44 1147.5,-580 1105.18,-573.38 985.3,-539 930.93,-523.09"/>
<polygon fill="midnightblue" stroke="midnightblue" points="931.85,-519.71 921.27,-520.26 929.88,-526.43 931.85,-519.71"/>
</g>
<!-- Node29 -->
<g id="node29" class="node">
<title>Node29</title>
<g id="a_node29"><a xlink:href="interpolation_8h.html" target="_top" xlink:title=" ">
<polygon fill="none" stroke="black" points="1789.5,-560.5 1789.5,-579.5 1877.5,-579.5 1877.5,-560.5 1789.5,-560.5"/>
<text text-anchor="middle" x="1833.5" y="-567.5" font-family="Helvetica,sans-Serif" font-size="10.00">interpolation.h</text>
</a>
</g>
</g>
<!-- Node16&#45;&gt;Node29 -->
<g id="edge142" class="edge">
<title>Node16&#45;&gt;Node29</title>
<path fill="none" stroke="midnightblue" d="M1983.3,-616.44C1953.09,-607.28 1904.99,-592.69 1871.47,-582.52"/>
<polygon fill="midnightblue" stroke="midnightblue" points="1872.16,-579.07 1861.57,-579.52 1870.13,-585.77 1872.16,-579.07"/>
</g>
<!-- Node22&#45;&gt;Node2 -->
<g id="edge32" class="edge">
<title>Node22&#45;&gt;Node2</title>
<path fill="none" stroke="midnightblue" d="M888.62,-168.31C868.15,-152.14 824.37,-118.49 806.5,-112 720.8,-80.85 446.69,-70.8 337.26,-67.98"/>
<polygon fill="midnightblue" stroke="midnightblue" points="337.28,-64.48 327.19,-67.73 337.1,-71.48 337.28,-64.48"/>
</g>
<!-- Node22&#45;&gt;Node7 -->
<g id="edge29" class="edge">
<title>Node22&#45;&gt;Node7</title>
<path fill="none" stroke="midnightblue" d="M944.26,-168.5C1059.05,-146.94 1373.45,-89.51 1637.5,-56 1794.91,-36.03 1981.35,-21.67 2075.53,-15.07"/>
<polygon fill="midnightblue" stroke="midnightblue" points="2075.99,-18.54 2085.72,-14.36 2075.5,-11.56 2075.99,-18.54"/>
</g>
<!-- Node22&#45;&gt;Node12 -->
<g id="edge33" class="edge">
<title>Node22&#45;&gt;Node12</title>
<path fill="none" stroke="midnightblue" d="M851.05,-178.89C799.99,-180.79 718.77,-189.63 658.5,-224 518.51,-303.84 439.5,-351.84 439.5,-513 439.5,-571 439.5,-571 439.5,-571 439.5,-632.43 518.51,-661.17 569.12,-673.28"/>
<polygon fill="midnightblue" stroke="midnightblue" points="568.61,-676.75 579.14,-675.55 570.16,-669.93 568.61,-676.75"/>
</g>
<!-- Node22&#45;&gt;Node13 -->
<g id="edge28" class="edge">
<title>Node22&#45;&gt;Node13</title>
<path fill="none" stroke="midnightblue" d="M903.44,-168.49C907.51,-159.53 913.89,-144.94 918.5,-132 924.04,-116.42 929.23,-98.35 932.78,-85.22"/>
<polygon fill="midnightblue" stroke="midnightblue" points="936.17,-86.08 935.35,-75.51 929.4,-84.29 936.17,-86.08"/>
</g>
<!-- Node22&#45;&gt;Node19 -->
<g id="edge31" class="edge">
<title>Node22&#45;&gt;Node19</title>
<path fill="none" stroke="midnightblue" d="M947.56,-172.55C964.02,-171.06 982.56,-169.41 999.5,-168 1207.39,-150.65 1259.84,-151.96 1467.5,-132 1481.31,-130.67 1496.47,-128.98 1509.72,-127.42"/>
<polygon fill="midnightblue" stroke="midnightblue" points="1510.37,-130.87 1519.88,-126.21 1509.54,-123.92 1510.37,-130.87"/>
</g>
<!-- Node23 -->
<g id="node23" class="node">
<title>Node23</title>
<g id="a_node23"><a xlink:title=" ">
<polygon fill="none" stroke="#bfbfbf" points="735.5,-112.5 735.5,-131.5 797.5,-131.5 797.5,-112.5 735.5,-112.5"/>
<text text-anchor="middle" x="766.5" y="-119.5" font-family="Helvetica,sans-Serif" font-size="10.00">stdbool.h</text>
</a>
</g>
</g>
<!-- Node22&#45;&gt;Node23 -->
<g id="edge30" class="edge">
<title>Node22&#45;&gt;Node23</title>
<path fill="none" stroke="midnightblue" d="M878.43,-168.44C856.44,-159.52 821.77,-145.44 796.84,-135.32"/>
<polygon fill="midnightblue" stroke="midnightblue" points="798.06,-132.04 787.48,-131.52 795.42,-138.52 798.06,-132.04"/>
</g>
<!-- Node22&#45;&gt;Node24 -->
<g id="edge34" class="edge">
<title>Node22&#45;&gt;Node24</title>
<path fill="none" stroke="midnightblue" d="M895.53,-187.77C890.39,-200.2 882.41,-223.69 885.5,-244 886.87,-253 889.69,-262.67 892.45,-270.74"/>
<polygon fill="midnightblue" stroke="midnightblue" points="889.19,-272.02 895.9,-280.22 895.77,-269.63 889.19,-272.02"/>
</g>
<!-- Node22&#45;&gt;Node27 -->
<g id="edge136" class="edge">
<title>Node22&#45;&gt;Node27</title>
<path fill="none" stroke="midnightblue" d="M851.33,-184.15C798.48,-190.72 718.13,-203.73 695.5,-224 656.34,-259.07 666.06,-284.14 657.5,-336 656.05,-344.77 653.23,-348.21 657.5,-356 681.84,-400.4 818.13,-471.17 876.72,-500.07"/>
<polygon fill="midnightblue" stroke="midnightblue" points="875.23,-503.24 885.75,-504.5 878.31,-496.95 875.23,-503.24"/>
</g>
<!-- Node34 -->
<g id="node34" class="node">
<title>Node34</title>
<g id="a_node34"><a xlink:href="Metric_8h.html" target="_top" xlink:title=" ">
<polygon fill="none" stroke="black" points="853.5,-112.5 853.5,-131.5 909.5,-131.5 909.5,-112.5 853.5,-112.5"/>
<text text-anchor="middle" x="881.5" y="-119.5" font-family="Helvetica,sans-Serif" font-size="10.00">Metric.h</text>
</a>
</g>
</g>
<!-- Node22&#45;&gt;Node34 -->
<g id="edge129" class="edge">
<title>Node22&#45;&gt;Node34</title>
<path fill="none" stroke="midnightblue" d="M896.53,-168.08C894.12,-160.85 890.64,-150.41 887.63,-141.4"/>
<polygon fill="midnightblue" stroke="midnightblue" points="890.9,-140.13 884.42,-131.75 884.26,-142.34 890.9,-140.13"/>
</g>
<!-- Node24&#45;&gt;Node2 -->
<g id="edge38" class="edge">
<title>Node24&#45;&gt;Node2</title>
<path fill="none" stroke="midnightblue" d="M872.34,-280.41C849.95,-272.68 817.86,-260.07 792.5,-244 718.33,-196.99 725.35,-148.53 645.5,-112 591.54,-87.31 420.13,-74.38 337.25,-69.43"/>
<polygon fill="midnightblue" stroke="midnightblue" points="337.3,-65.92 327.11,-68.83 336.89,-72.91 337.3,-65.92"/>
</g>
<!-- Node24&#45;&gt;Node12 -->
<g id="edge39" class="edge">
<title>Node24&#45;&gt;Node12</title>
<path fill="none" stroke="midnightblue" d="M859.47,-299.51C791.45,-316.06 653.35,-359.02 577.5,-448 522.2,-512.87 498.41,-561.31 539.5,-636 547.39,-650.34 561.99,-660.75 575.9,-667.92"/>
<polygon fill="midnightblue" stroke="midnightblue" points="574.8,-671.27 585.34,-672.38 577.79,-664.94 574.8,-671.27"/>
</g>
<!-- Node24&#45;&gt;Node13 -->
<g id="edge35" class="edge">
<title>Node24&#45;&gt;Node13</title>
<path fill="none" stroke="midnightblue" d="M906.36,-280.49C919.24,-263.9 946.63,-225.58 956.5,-188 965.92,-152.15 953.7,-109.03 944.95,-85.15"/>
<polygon fill="midnightblue" stroke="midnightblue" points="948.14,-83.69 941.26,-75.63 941.61,-86.22 948.14,-83.69"/>
</g>
<!-- Node24&#45;&gt;Node19 -->
<g id="edge37" class="edge">
<title>Node24&#45;&gt;Node19</title>
<path fill="none" stroke="midnightblue" d="M918.47,-280.36C936.94,-271.75 965.63,-257.85 989.5,-244 1042.17,-213.44 1046.16,-188.5 1103.5,-168 1256.58,-113.28 1305.86,-149.32 1467.5,-132 1481.3,-130.52 1496.45,-128.8 1509.71,-127.25"/>
<polygon fill="midnightblue" stroke="midnightblue" points="1510.34,-130.7 1519.87,-126.06 1509.53,-123.75 1510.34,-130.7"/>
</g>
<!-- Node24&#45;&gt;Node23 -->
<g id="edge36" class="edge">
<title>Node24&#45;&gt;Node23</title>
<path fill="none" stroke="midnightblue" d="M869.52,-280.49C850.02,-273.55 825.36,-261.92 809.5,-244 783.25,-214.33 772.72,-167.55 768.74,-141.71"/>
<polygon fill="midnightblue" stroke="midnightblue" points="772.2,-141.16 767.37,-131.73 765.26,-142.12 772.2,-141.16"/>
</g>
<!-- Node24&#45;&gt;Node25 -->
<g id="edge40" class="edge">
<title>Node24&#45;&gt;Node25</title>
<path fill="none" stroke="midnightblue" d="M947.76,-285.66C1099.53,-275.58 1564.52,-245.59 1699.48,-237.2"/>
<polygon fill="midnightblue" stroke="midnightblue" points="1699.95,-240.68 1709.71,-236.57 1699.51,-233.69 1699.95,-240.68"/>
</g>
<!-- Node25&#45;&gt;Node1 -->
<g id="edge53" class="edge">
<title>Node25&#45;&gt;Node1</title>
<path fill="none" stroke="midnightblue" d="M1763.15,-237.26C1927.56,-252.48 2795.5,-346.38 2795.5,-569 2795.5,-627 2795.5,-627 2795.5,-627 2795.5,-702.46 1555.83,-731.93 1338.71,-736.39"/>
<polygon fill="midnightblue" stroke="midnightblue" points="1338.53,-732.89 1328.6,-736.59 1338.67,-739.89 1338.53,-732.89"/>
</g>
<!-- Node25&#45;&gt;Node2 -->
<g id="edge50" class="edge">
<title>Node25&#45;&gt;Node2</title>
<path fill="none" stroke="midnightblue" d="M1729.14,-224.32C1708.49,-200.7 1647.1,-135.53 1579.5,-112 1519.73,-91.19 559.29,-72.01 337.12,-67.84"/>
<polygon fill="midnightblue" stroke="midnightblue" points="337.17,-64.34 327.11,-67.65 337.04,-71.34 337.17,-64.34"/>
</g>
<!-- Node25&#45;&gt;Node7 -->
<g id="edge42" class="edge">
<title>Node25&#45;&gt;Node7</title>
<path fill="none" stroke="midnightblue" d="M1752.18,-224.3C1813.42,-190.31 2036.76,-66.36 2111.75,-24.74"/>
<polygon fill="midnightblue" stroke="midnightblue" points="2113.88,-27.56 2120.93,-19.64 2110.49,-21.43 2113.88,-27.56"/>
</g>
<!-- Node25&#45;&gt;Node9 -->
<g id="edge43" class="edge">
<title>Node25&#45;&gt;Node9</title>
<path fill="none" stroke="midnightblue" d="M1732.9,-224.19C1727.14,-210.86 1714.82,-185.31 1698.5,-168 1636.18,-101.89 1612.72,-87.49 1527.5,-56 1426.28,-18.6 1297.2,-11.83 1235.11,-10.9"/>
<polygon fill="midnightblue" stroke="midnightblue" points="1235.06,-7.4 1225.02,-10.79 1234.98,-14.4 1235.06,-7.4"/>
</g>
<!-- Node25&#45;&gt;Node12 -->
<g id="edge54" class="edge">
<title>Node25&#45;&gt;Node12</title>
<path fill="none" stroke="midnightblue" d="M1759.78,-243.57C1843.91,-275.82 2122.6,-394.71 2033.5,-524 1952.72,-641.22 876.74,-674.38 651.62,-680.05"/>
<polygon fill="midnightblue" stroke="midnightblue" points="651.46,-676.55 641.55,-680.3 651.63,-683.55 651.46,-676.55"/>
</g>
<!-- Node25&#45;&gt;Node14 -->
<g id="edge47" class="edge">
<title>Node25&#45;&gt;Node14</title>
<path fill="none" stroke="midnightblue" d="M1709.62,-230.54C1616.49,-222.02 1307.05,-193.69 1190.99,-183.07"/>
<polygon fill="midnightblue" stroke="midnightblue" points="1190.97,-179.56 1180.7,-182.13 1190.34,-186.53 1190.97,-179.56"/>
</g>
<!-- Node25&#45;&gt;Node16 -->
<g id="edge126" class="edge">
<title>Node25&#45;&gt;Node16</title>
<path fill="none" stroke="midnightblue" d="M1763.25,-237.46C1801.76,-242.13 1873.39,-254.19 1928.5,-280 2080.48,-351.19 2156.81,-354.21 2232.5,-504 2265.84,-569.97 2155.34,-602.22 2078.68,-616.07"/>
<polygon fill="midnightblue" stroke="midnightblue" points="2077.82,-612.66 2068.57,-617.82 2079.02,-619.56 2077.82,-612.66"/>
</g>
<!-- Node25&#45;&gt;Node17 -->
<g id="edge41" class="edge">
<title>Node25&#45;&gt;Node17</title>
<path fill="none" stroke="midnightblue" d="M1763.14,-226.05C1798.65,-216.79 1861.81,-200.31 1903.17,-189.52"/>
<polygon fill="midnightblue" stroke="midnightblue" points="1904.14,-192.89 1912.93,-186.98 1902.37,-186.11 1904.14,-192.89"/>
</g>
<!-- Node25&#45;&gt;Node18 -->
<g id="edge44" class="edge">
<title>Node25&#45;&gt;Node18</title>
<path fill="none" stroke="midnightblue" d="M1763.34,-228.89C1807.17,-222 1897.02,-207.2 1982.54,-188.06"/>
<polygon fill="midnightblue" stroke="midnightblue" points="1983.43,-191.45 1992.41,-185.83 1981.88,-184.62 1983.43,-191.45"/>
</g>
<!-- Node25&#45;&gt;Node19 -->
<g id="edge45" class="edge">
<title>Node25&#45;&gt;Node19</title>
<path fill="none" stroke="midnightblue" d="M1721.51,-224.37C1688.46,-205.33 1609.08,-159.62 1569.2,-136.65"/>
<polygon fill="midnightblue" stroke="midnightblue" points="1570.83,-133.55 1560.42,-131.59 1567.34,-139.62 1570.83,-133.55"/>
</g>
<!-- Node25&#45;&gt;Node20 -->
<g id="edge46" class="edge">
<title>Node25&#45;&gt;Node20</title>
<path fill="none" stroke="midnightblue" d="M1763.14,-229.46C1830.69,-220.47 2009.4,-196.7 2095.21,-185.29"/>
<polygon fill="midnightblue" stroke="midnightblue" points="2095.75,-188.75 2105.2,-183.96 2094.83,-181.81 2095.75,-188.75"/>
</g>
<!-- Node25&#45;&gt;Node21 -->
<g id="edge48" class="edge">
<title>Node25&#45;&gt;Node21</title>
<path fill="none" stroke="midnightblue" d="M1763.05,-230.95C1862.45,-223.27 2214.63,-196.06 2365.77,-184.39"/>
<polygon fill="midnightblue" stroke="midnightblue" points="2366.16,-187.87 2375.86,-183.61 2365.62,-180.89 2366.16,-187.87"/>
</g>
<!-- Node25&#45;&gt;Node22 -->
<g id="edge51" class="edge">
<title>Node25&#45;&gt;Node22</title>
<path fill="none" stroke="midnightblue" d="M1709.6,-231.26C1592.16,-223.69 1122.88,-193.41 957.52,-182.74"/>
<polygon fill="midnightblue" stroke="midnightblue" points="957.75,-179.25 947.54,-182.1 957.3,-186.24 957.75,-179.25"/>
</g>
<!-- Node25&#45;&gt;Node24 -->
<g id="edge52" class="edge">
<title>Node25&#45;&gt;Node24</title>
<path fill="none" stroke="midnightblue" d="M1709.82,-236.9C1592.69,-244.78 1123.5,-275.07 957.77,-285.47"/>
<polygon fill="midnightblue" stroke="midnightblue" points="957.53,-281.98 947.76,-286.1 957.96,-288.96 957.53,-281.98"/>
</g>
<!-- Node26 -->
<g id="node26" class="node">
<title>Node26</title>
<g id="a_node26"><a xlink:title=" ">
<polygon fill="none" stroke="#bfbfbf" points="1422,-168.5 1422,-187.5 1517,-187.5 1517,-168.5 1422,-168.5"/>
<text text-anchor="middle" x="1469.5" y="-175.5" font-family="Helvetica,sans-Serif" font-size="10.00">petscsystypes.h</text>
</a>
</g>
</g>
<!-- Node25&#45;&gt;Node26 -->
<g id="edge49" class="edge">
<title>Node25&#45;&gt;Node26</title>
<path fill="none" stroke="midnightblue" d="M1709.92,-227.62C1666.12,-218.77 1578.01,-200.95 1521.48,-189.51"/>
<polygon fill="midnightblue" stroke="midnightblue" points="1522.16,-186.08 1511.66,-187.53 1520.77,-192.94 1522.16,-186.08"/>
</g>
<!-- Node25&#45;&gt;Node27 -->
<g id="edge55" class="edge">
<title>Node25&#45;&gt;Node27</title>
<path fill="none" stroke="midnightblue" d="M1713.87,-243.54C1660,-263.78 1519.83,-315.98 1401.5,-356 1244.78,-409 1204.3,-418.28 1046.5,-468 1006.26,-480.68 959.65,-495.34 930.87,-504.39"/>
<polygon fill="midnightblue" stroke="midnightblue" points="929.6,-501.12 921.11,-507.46 931.7,-507.8 929.6,-501.12"/>
</g>
<!-- Node25&#45;&gt;Node28 -->
<g id="edge128" class="edge">
<title>Node25&#45;&gt;Node28</title>
<path fill="none" stroke="midnightblue" d="M1732.79,-243.66C1718.69,-276.2 1667.6,-390.31 1635.5,-412 1591.1,-442 1437.69,-452.16 1357,-455.47"/>
<polygon fill="midnightblue" stroke="midnightblue" points="1356.45,-451.99 1346.59,-455.88 1356.72,-458.99 1356.45,-451.99"/>
</g>
<!-- Node25&#45;&gt;Node29 -->
<g id="edge125" class="edge">
<title>Node25&#45;&gt;Node29</title>
<path fill="none" stroke="midnightblue" d="M1746.1,-243.72C1774.1,-276.14 1851.54,-393.54 1876.5,-504 1878.46,-512.67 1879.33,-515.57 1876.5,-524 1872.86,-534.86 1865.44,-545.19 1857.61,-553.21"/>
<polygon fill="midnightblue" stroke="midnightblue" points="1854.77,-551.06 1849.75,-560.39 1859.49,-556.23 1854.77,-551.06"/>
</g>
<!-- Node31 -->
<g id="node31" class="node">
<title>Node31</title>
<g id="a_node31"><a xlink:href="ParticleMotion_8h.html" target="_top" xlink:title=" ">
<polygon fill="none" stroke="black" points="1155.5,-336.5 1155.5,-355.5 1251.5,-355.5 1251.5,-336.5 1155.5,-336.5"/>
<text text-anchor="middle" x="1203.5" y="-343.5" font-family="Helvetica,sans-Serif" font-size="10.00">ParticleMotion.h</text>
</a>
</g>
</g>
<!-- Node25&#45;&gt;Node31 -->
<g id="edge127" class="edge">
<title>Node25&#45;&gt;Node31</title>
<path fill="none" stroke="midnightblue" d="M1709.9,-240.49C1626.03,-257.8 1366.09,-311.45 1254.85,-334.4"/>
<polygon fill="midnightblue" stroke="midnightblue" points="1253.97,-331.01 1244.88,-336.46 1255.38,-337.87 1253.97,-331.01"/>
</g>
<!-- Node27&#45;&gt;Node2 -->
<g id="edge56" class="edge">
<title>Node27&#45;&gt;Node2</title>
<path fill="none" stroke="midnightblue" d="M885.87,-509.64C854.05,-503.31 785.16,-488.41 729.5,-468 586.02,-415.4 551.64,-391.84 429.5,-300 354.9,-243.91 331.85,-220.92 303.5,-132 298.65,-116.78 295.52,-98.89 293.68,-85.74"/>
<polygon fill="midnightblue" stroke="midnightblue" points="297.13,-85.06 292.39,-75.58 290.18,-85.94 297.13,-85.06"/>
</g>
<!-- Node27&#45;&gt;Node12 -->
<g id="edge57" class="edge">
<title>Node27&#45;&gt;Node12</title>
<path fill="none" stroke="midnightblue" d="M898.44,-523.63C884.86,-545.99 845.24,-606.16 795.5,-636 750.88,-662.77 691.17,-673.63 651.81,-678.03"/>
<polygon fill="midnightblue" stroke="midnightblue" points="651.36,-674.56 641.77,-679.06 652.08,-681.52 651.36,-674.56"/>
</g>
<!-- Node27&#45;&gt;Node28 -->
<g id="edge58" class="edge">
<title>Node27&#45;&gt;Node28</title>
<path fill="none" stroke="midnightblue" d="M921.11,-510.21C979.32,-501.84 1165.78,-476.8 1256.35,-465.12"/>
<polygon fill="midnightblue" stroke="midnightblue" points="1256.9,-468.58 1266.38,-463.83 1256.01,-461.64 1256.9,-468.58"/>
</g>
<!-- Node28&#45;&gt;Node1 -->
<g id="edge71" class="edge">
<title>Node28&#45;&gt;Node1</title>
<path fill="none" stroke="midnightblue" d="M1306.5,-467.56C1306.5,-486.06 1306.5,-531.19 1306.5,-569 1306.5,-627 1306.5,-627 1306.5,-627 1306.5,-659.05 1306.5,-696.36 1306.5,-718.25"/>
<polygon fill="midnightblue" stroke="midnightblue" points="1303,-718.44 1306.5,-728.44 1310,-718.44 1303,-718.44"/>
</g>
<!-- Node28&#45;&gt;Node2 -->
<g id="edge68" class="edge">
<title>Node28&#45;&gt;Node2</title>
<path fill="none" stroke="midnightblue" d="M1266.26,-453.15C1212.63,-447.38 1115.14,-434.67 1034.5,-412 733.98,-327.5 402.57,-134.27 314.18,-80.89"/>
<polygon fill="midnightblue" stroke="midnightblue" points="315.86,-77.81 305.49,-75.62 312.23,-83.8 315.86,-77.81"/>
</g>
<!-- Node28&#45;&gt;Node7 -->
<g id="edge60" class="edge">
<title>Node28&#45;&gt;Node7</title>
<path fill="none" stroke="midnightblue" d="M1346.7,-457.31C1567.75,-458 2625.5,-447.25 2625.5,-179 2625.5,-179 2625.5,-179 2625.5,-121 2625.5,-34.26 2328.97,-15.91 2197.74,-12.03"/>
<polygon fill="midnightblue" stroke="midnightblue" points="2197.54,-8.53 2187.45,-11.75 2197.35,-15.52 2197.54,-8.53"/>
</g>
<!-- Node28&#45;&gt;Node9 -->
<g id="edge61" class="edge">
<title>Node28&#45;&gt;Node9</title>
<path fill="none" stroke="midnightblue" d="M1346.71,-451.59C1431.64,-439.05 1621.5,-404.56 1621.5,-347 1621.5,-347 1621.5,-347 1621.5,-233 1621.5,-176.07 1621.23,-150.72 1579.5,-112 1528.75,-64.92 1320.26,-29.17 1235.05,-16.25"/>
<polygon fill="midnightblue" stroke="midnightblue" points="1235.46,-12.77 1225.05,-14.75 1234.42,-19.7 1235.46,-12.77"/>
</g>
<!-- Node28&#45;&gt;Node12 -->
<g id="edge72" class="edge">
<title>Node28&#45;&gt;Node12</title>
<path fill="none" stroke="midnightblue" d="M1289.87,-467.65C1229.09,-495.37 1015.09,-583.23 831.5,-636 769.94,-653.69 696.5,-667.76 651.56,-675.19"/>
<polygon fill="midnightblue" stroke="midnightblue" points="650.91,-671.75 641.6,-676.81 652.03,-678.66 650.91,-671.75"/>
</g>
<!-- Node28&#45;&gt;Node14 -->
<g id="edge65" class="edge">
<title>Node28&#45;&gt;Node14</title>
<path fill="none" stroke="midnightblue" d="M1304.1,-448.45C1298.23,-428.19 1282.05,-375.95 1260.5,-336 1231.33,-281.93 1215.66,-273.66 1179.5,-224 1172.71,-214.68 1165.11,-204.31 1158.91,-195.87"/>
<polygon fill="midnightblue" stroke="midnightblue" points="1161.59,-193.6 1152.84,-187.61 1155.95,-197.74 1161.59,-193.6"/>
</g>
<!-- Node28&#45;&gt;Node16 -->
<g id="edge91" class="edge">
<title>Node28&#45;&gt;Node16</title>
<path fill="none" stroke="midnightblue" d="M1346.73,-459.07C1458.9,-459.77 1773.04,-465.23 1867.5,-504 1923.93,-527.16 1974.67,-580.94 1997.99,-608.33"/>
<polygon fill="midnightblue" stroke="midnightblue" points="1995.47,-610.78 2004.57,-616.22 2000.85,-606.3 1995.47,-610.78"/>
</g>
<!-- Node28&#45;&gt;Node17 -->
<g id="edge59" class="edge">
<title>Node28&#45;&gt;Node17</title>
<path fill="none" stroke="midnightblue" d="M1346.59,-455.07C1427,-450.68 1604.94,-438.24 1659.5,-412 1767.7,-359.97 1755.55,-293.44 1853.5,-224 1871.78,-211.04 1894.33,-199.77 1912.29,-191.75"/>
<polygon fill="midnightblue" stroke="midnightblue" points="1913.96,-194.84 1921.73,-187.64 1911.17,-188.42 1913.96,-194.84"/>
</g>
<!-- Node28&#45;&gt;Node18 -->
<g id="edge62" class="edge">
<title>Node28&#45;&gt;Node18</title>
<path fill="none" stroke="midnightblue" d="M1346.51,-454.84C1431.71,-449.84 1628.36,-436 1690.5,-412 1825.51,-359.85 1956.39,-238.57 2000.68,-194.97"/>
<polygon fill="midnightblue" stroke="midnightblue" points="2003.3,-197.3 2007.93,-187.77 1998.37,-192.34 2003.3,-197.3"/>
</g>
<!-- Node28&#45;&gt;Node19 -->
<g id="edge63" class="edge">
<title>Node28&#45;&gt;Node19</title>
<path fill="none" stroke="midnightblue" d="M1320.48,-448.32C1345.07,-431.85 1393.5,-393.51 1393.5,-347 1393.5,-347 1393.5,-347 1393.5,-233 1393.5,-202.9 1391.67,-189.72 1412.5,-168 1426.13,-153.79 1475.52,-139.59 1510.11,-131.05"/>
<polygon fill="midnightblue" stroke="midnightblue" points="1510.98,-134.44 1519.88,-128.69 1509.33,-127.64 1510.98,-134.44"/>
</g>
<!-- Node28&#45;&gt;Node20 -->
<g id="edge64" class="edge">
<title>Node28&#45;&gt;Node20</title>
<path fill="none" stroke="midnightblue" d="M1346.72,-457.84C1422.88,-458.33 1592.59,-454.06 1727.5,-412 1893.35,-360.29 2066.71,-236.35 2123.37,-193.71"/>
<polygon fill="midnightblue" stroke="midnightblue" points="2125.59,-196.42 2131.44,-187.59 2121.36,-190.84 2125.59,-196.42"/>
</g>
<!-- Node28&#45;&gt;Node21 -->
<g id="edge66" class="edge">
<title>Node28&#45;&gt;Node21</title>
<path fill="none" stroke="midnightblue" d="M1346.56,-454.13C1426.97,-448.16 1613.65,-433.14 1769.5,-412 1913.01,-392.54 2307.92,-401.22 2411.5,-300 2438.99,-273.14 2439.73,-224.48 2437.72,-197.78"/>
<polygon fill="midnightblue" stroke="midnightblue" points="2441.17,-197.13 2436.72,-187.52 2434.2,-197.81 2441.17,-197.13"/>
</g>
<!-- Node28&#45;&gt;Node22 -->
<g id="edge69" class="edge">
<title>Node28&#45;&gt;Node22</title>
<path fill="none" stroke="midnightblue" d="M1266.42,-454.83C1224.53,-451.03 1158.13,-440.61 1108.5,-412 1011.77,-356.24 935.68,-239.9 909.41,-196.14"/>
<polygon fill="midnightblue" stroke="midnightblue" points="912.42,-194.34 904.32,-187.51 906.39,-197.9 912.42,-194.34"/>
</g>
<!-- Node28&#45;&gt;Node24 -->
<g id="edge70" class="edge">
<title>Node28&#45;&gt;Node24</title>
<path fill="none" stroke="midnightblue" d="M1266.24,-454.16C1218.97,-449.71 1138.98,-438.64 1075.5,-412 1011.39,-385.1 946.78,-332.7 916.79,-306.58"/>
<polygon fill="midnightblue" stroke="midnightblue" points="918.77,-303.66 908.96,-299.66 914.14,-308.9 918.77,-303.66"/>
</g>
<!-- Node28&#45;&gt;Node26 -->
<g id="edge67" class="edge">
<title>Node28&#45;&gt;Node26</title>
<path fill="none" stroke="midnightblue" d="M1346.79,-448.43C1395.06,-435.53 1469.5,-406.06 1469.5,-347 1469.5,-347 1469.5,-347 1469.5,-289 1469.5,-256.95 1469.5,-219.64 1469.5,-197.75"/>
<polygon fill="midnightblue" stroke="midnightblue" points="1473,-197.56 1469.5,-187.56 1466,-197.56 1473,-197.56"/>
</g>
<!-- Node28&#45;&gt;Node27 -->
<g id="edge73" class="edge">
<title>Node28&#45;&gt;Node27</title>
<path fill="none" stroke="midnightblue" d="M1266.47,-464.96C1184.84,-476.35 1001.42,-500.88 931.32,-509.73"/>
<polygon fill="midnightblue" stroke="midnightblue" points="930.56,-506.3 921.07,-511.01 931.43,-513.25 930.56,-506.3"/>
</g>
<!-- Node28&#45;&gt;Node29 -->
<g id="edge74" class="edge">
<title>Node28&#45;&gt;Node29</title>
<path fill="none" stroke="midnightblue" d="M1346.67,-467.38C1441.29,-487.14 1678.11,-536.57 1782.6,-558.38"/>
<polygon fill="midnightblue" stroke="midnightblue" points="1782.08,-561.84 1792.59,-560.46 1783.51,-554.99 1782.08,-561.84"/>
</g>
<!-- Node28&#45;&gt;Node31 -->
<g id="edge92" class="edge">
<title>Node28&#45;&gt;Node31</title>
<path fill="none" stroke="midnightblue" d="M1298.42,-448.37C1281.19,-429.97 1240.65,-386.67 1218.53,-363.05"/>
<polygon fill="midnightblue" stroke="midnightblue" points="1220.93,-360.5 1211.54,-355.59 1215.82,-365.28 1220.93,-360.5"/>
</g>
<!-- Node32 -->
<g id="node32" class="node">
<title>Node32</title>
<g id="a_node32"><a xlink:href="BC__Handlers_8h.html" target="_top" xlink:title=" ">
<polygon fill="none" stroke="black" points="775.5,-392.5 775.5,-411.5 863.5,-411.5 863.5,-392.5 775.5,-392.5"/>
<text text-anchor="middle" x="819.5" y="-399.5" font-family="Helvetica,sans-Serif" font-size="10.00">BC_Handlers.h</text>
</a>
</g>
</g>
<!-- Node28&#45;&gt;Node32 -->
<g id="edge101" class="edge">
<title>Node28&#45;&gt;Node32</title>
<path fill="none" stroke="midnightblue" d="M1266.12,-452.94C1178.7,-443.65 972.26,-420.79 873.65,-409.51"/>
<polygon fill="midnightblue" stroke="midnightblue" points="873.93,-406.02 863.6,-408.36 873.13,-412.98 873.93,-406.02"/>
</g>
<!-- Node33 -->
<g id="node33" class="node">
<title>Node33</title>
<g id="a_node33"><a xlink:href="wallfunction_8h.html" target="_top" xlink:title=" ">
<polygon fill="none" stroke="black" points="1117.5,-392.5 1117.5,-411.5 1203.5,-411.5 1203.5,-392.5 1117.5,-392.5"/>
<text text-anchor="middle" x="1160.5" y="-399.5" font-family="Helvetica,sans-Serif" font-size="10.00">wallfunction.h</text>
</a>
</g>
</g>
<!-- Node28&#45;&gt;Node33 -->
<g id="edge105" class="edge">
<title>Node28&#45;&gt;Node33</title>
<path fill="none" stroke="midnightblue" d="M1278.28,-448.44C1252.18,-439.52 1213.89,-425.44 1188.03,-415.32"/>
<polygon fill="midnightblue" stroke="midnightblue" points="1189.03,-411.95 1178.45,-411.52 1186.45,-418.46 1189.03,-411.95"/>
</g>
<!-- Node29&#45;&gt;Node1 -->
<g id="edge87" class="edge">
<title>Node29&#45;&gt;Node1</title>
<path fill="none" stroke="midnightblue" d="M1806.26,-579.58C1717.11,-607.66 1434.22,-696.77 1338.51,-726.92"/>
<polygon fill="midnightblue" stroke="midnightblue" points="1337.29,-723.63 1328.81,-729.97 1339.4,-730.31 1337.29,-723.63"/>
</g>
<!-- Node29&#45;&gt;Node2 -->
<g id="edge84" class="edge">
<title>Node29&#45;&gt;Node2</title>
<path fill="none" stroke="midnightblue" d="M1789.46,-568.23C1626.24,-565.16 1055.95,-552.61 876.5,-524 784.07,-509.27 761.11,-500.92 673.5,-468 507.22,-405.51 449.63,-385.69 342.5,-244 309.84,-200.8 304.12,-185.3 294.5,-132 291.74,-116.69 291.08,-99.05 291.06,-86.01"/>
<polygon fill="midnightblue" stroke="midnightblue" points="294.56,-85.95 291.17,-75.91 287.56,-85.88 294.56,-85.95"/>
</g>
<!-- Node29&#45;&gt;Node7 -->
<g id="edge76" class="edge">
<title>Node29&#45;&gt;Node7</title>
<path fill="none" stroke="midnightblue" d="M1877.62,-567.57C2018.88,-560.28 2460.3,-515.77 2623.5,-244 2667.34,-170.99 2662.95,-93.52 2586.5,-56 2519.57,-23.15 2304.26,-14.27 2197.58,-11.88"/>
<polygon fill="midnightblue" stroke="midnightblue" points="2197.37,-8.37 2187.3,-11.66 2197.22,-15.37 2197.37,-8.37"/>
</g>
<!-- Node29&#45;&gt;Node9 -->
<g id="edge77" class="edge">
<title>Node29&#45;&gt;Node9</title>
<path fill="none" stroke="midnightblue" d="M1852.54,-560.41C1943.42,-518.31 2323.28,-329.22 2188.5,-168 2063.58,-18.58 1400.25,-10.43 1235.54,-10.74"/>
<polygon fill="midnightblue" stroke="midnightblue" points="1235.41,-7.24 1225.42,-10.77 1235.44,-14.24 1235.41,-7.24"/>
</g>
<!-- Node29&#45;&gt;Node12 -->
<g id="edge88" class="edge">
<title>Node29&#45;&gt;Node12</title>
<path fill="none" stroke="midnightblue" d="M1789.46,-574.96C1597.83,-592.2 838,-660.54 651.84,-677.28"/>
<polygon fill="midnightblue" stroke="midnightblue" points="651.3,-673.82 641.65,-678.2 651.92,-680.79 651.3,-673.82"/>
</g>
<!-- Node29&#45;&gt;Node14 -->
<g id="edge83" class="edge">
<title>Node29&#45;&gt;Node14</title>
<path fill="none" stroke="midnightblue" d="M1789.24,-568.82C1704.87,-567.59 1515.68,-560.58 1361.5,-524 1294.69,-508.15 1280.12,-496.17 1217.5,-468 1167.83,-445.66 1146.52,-451 1108.5,-412 1083.48,-386.33 1074.51,-371.16 1081.5,-336 1092.05,-282.91 1120.87,-225.28 1136.35,-196.88"/>
<polygon fill="midnightblue" stroke="midnightblue" points="1139.59,-198.25 1141.39,-187.81 1133.47,-194.85 1139.59,-198.25"/>
</g>
<!-- Node29&#45;&gt;Node17 -->
<g id="edge75" class="edge">
<title>Node29&#45;&gt;Node17</title>
<path fill="none" stroke="midnightblue" d="M1850.66,-560.42C1864.07,-552.77 1881.96,-540.27 1891.5,-524 1955.86,-414.22 1949.61,-252.28 1945.29,-197.72"/>
<polygon fill="midnightblue" stroke="midnightblue" points="1948.76,-197.17 1944.4,-187.51 1941.78,-197.77 1948.76,-197.17"/>
</g>
<!-- Node29&#45;&gt;Node18 -->
<g id="edge78" class="edge">
<title>Node29&#45;&gt;Node18</title>
<path fill="none" stroke="midnightblue" d="M1877.98,-561.99C1933.88,-552.72 2023.77,-536.16 2033.5,-524 2113.04,-424.58 2048.95,-252.76 2024.76,-197.02"/>
<polygon fill="midnightblue" stroke="midnightblue" points="2027.9,-195.46 2020.63,-187.74 2021.5,-198.3 2027.9,-195.46"/>
</g>
<!-- Node29&#45;&gt;Node19 -->
<g id="edge79" class="edge">
<title>Node29&#45;&gt;Node19</title>
<path fill="none" stroke="midnightblue" d="M1819.09,-560.37C1806.26,-552.18 1787.57,-538.93 1774.5,-524 1661.41,-394.81 1577.26,-201.12 1552.79,-141.27"/>
<polygon fill="midnightblue" stroke="midnightblue" points="1555.91,-139.66 1548.92,-131.7 1549.42,-142.28 1555.91,-139.66"/>
</g>
<!-- Node29&#45;&gt;Node20 -->
<g id="edge80" class="edge">
<title>Node29&#45;&gt;Node20</title>
<path fill="none" stroke="midnightblue" d="M1877.54,-562.2C1937.76,-552.57 2039.89,-534.92 2053.5,-524 2156.39,-441.42 2149.61,-256.97 2144.49,-197.72"/>
<polygon fill="midnightblue" stroke="midnightblue" points="2147.96,-197.22 2143.52,-187.6 2140.99,-197.89 2147.96,-197.22"/>
</g>
<!-- Node29&#45;&gt;Node21 -->
<g id="edge81" class="edge">
<title>Node29&#45;&gt;Node21</title>
<path fill="none" stroke="midnightblue" d="M1877.63,-565.94C1927.59,-561.32 2010.72,-550.15 2077.5,-524 2164.18,-490.05 2373.92,-373.15 2431.5,-300 2453.04,-272.64 2456.08,-258.37 2450.5,-224 2449.03,-214.96 2446.01,-205.28 2443.06,-197.22"/>
<polygon fill="midnightblue" stroke="midnightblue" points="2446.26,-195.79 2439.36,-187.75 2439.74,-198.34 2446.26,-195.79"/>
</g>
<!-- Node29&#45;&gt;Node22 -->
<g id="edge85" class="edge">
<title>Node29&#45;&gt;Node22</title>
<path fill="none" stroke="midnightblue" d="M1789.4,-568.93C1649.51,-568.31 1217.12,-563.18 1083.5,-524 943.17,-482.86 892.52,-437.41 842.5,-300 828.35,-261.13 861.49,-217.77 882.96,-194.99"/>
<polygon fill="midnightblue" stroke="midnightblue" points="885.73,-197.16 890.23,-187.57 880.73,-192.26 885.73,-197.16"/>
</g>
<!-- Node29&#45;&gt;Node24 -->
<g id="edge86" class="edge">
<title>Node29&#45;&gt;Node24</title>
<path fill="none" stroke="midnightblue" d="M1789.37,-569.41C1636.28,-569.97 1130.67,-564.36 1007.5,-468 952.51,-424.98 918.86,-345.56 905.77,-309.58"/>
<polygon fill="midnightblue" stroke="midnightblue" points="908.98,-308.17 902.37,-299.9 902.38,-310.49 908.98,-308.17"/>
</g>
<!-- Node29&#45;&gt;Node25 -->
<g id="edge90" class="edge">
<title>Node29&#45;&gt;Node25</title>
<path fill="none" stroke="midnightblue" d="M1835.82,-560.39C1842.08,-552.02 1853.64,-538.48 1858.5,-524 1861.33,-515.57 1860.46,-512.67 1858.5,-504 1835.44,-401.96 1767.59,-293.99 1744.07,-252.57"/>
<polygon fill="midnightblue" stroke="midnightblue" points="1747.09,-250.8 1739.21,-243.72 1740.96,-254.17 1747.09,-250.8"/>
</g>
<!-- Node29&#45;&gt;Node27 -->
<g id="edge89" class="edge">
<title>Node29&#45;&gt;Node27</title>
<path fill="none" stroke="midnightblue" d="M1789.24,-568.09C1632.27,-564.68 1102.74,-551.35 935.5,-524 934.04,-523.76 932.55,-523.48 931.06,-523.17"/>
<polygon fill="midnightblue" stroke="midnightblue" points="931.83,-519.75 921.28,-520.76 930.16,-526.55 931.83,-519.75"/>
</g>
<!-- Node30 -->
<g id="node30" class="node">
<title>Node30</title>
<g id="a_node30"><a xlink:title=" ">
<polygon fill="none" stroke="#bfbfbf" points="1784,-504.5 1784,-523.5 1859,-523.5 1859,-504.5 1784,-504.5"/>
<text text-anchor="middle" x="1821.5" y="-511.5" font-family="Helvetica,sans-Serif" font-size="10.00">petscerror.h</text>
</a>
</g>
</g>
<!-- Node29&#45;&gt;Node30 -->
<g id="edge82" class="edge">
<title>Node29&#45;&gt;Node30</title>
<path fill="none" stroke="midnightblue" d="M1831.52,-560.08C1829.93,-552.93 1827.64,-542.64 1825.65,-533.69"/>
<polygon fill="midnightblue" stroke="midnightblue" points="1829.03,-532.75 1823.44,-523.75 1822.2,-534.27 1829.03,-532.75"/>
</g>
<!-- Node31&#45;&gt;Node2 -->
<g id="edge98" class="edge">
<title>Node31&#45;&gt;Node2</title>
<path fill="none" stroke="midnightblue" d="M1155.46,-344.02C1085.3,-341.47 951.32,-332.37 842.5,-300 659.98,-245.71 635.75,-178.99 457.5,-112 417.73,-97.05 370.89,-84.82 337.12,-76.9"/>
<polygon fill="midnightblue" stroke="midnightblue" points="337.62,-73.42 327.09,-74.59 336.04,-80.25 337.62,-73.42"/>
</g>
<!-- Node31&#45;&gt;Node7 -->
<g id="edge94" class="edge">
<title>Node31&#45;&gt;Node7</title>
<path fill="none" stroke="midnightblue" d="M1220.6,-336.47C1236.23,-328.26 1259.58,-314.9 1277.5,-300 1338,-249.68 1332.72,-215.45 1395.5,-168 1440.85,-133.72 1456.3,-129.16 1510.5,-112 1711.51,-48.37 1962.13,-23.42 2075.62,-14.89"/>
<polygon fill="midnightblue" stroke="midnightblue" points="2076.13,-18.36 2085.84,-14.13 2075.61,-11.38 2076.13,-18.36"/>
</g>
<!-- Node31&#45;&gt;Node12 -->
<g id="edge99" class="edge">
<title>Node31&#45;&gt;Node12</title>
<path fill="none" stroke="midnightblue" d="M1155.48,-347.39C1056.34,-348.92 832.73,-356.34 766.5,-392 705.32,-424.94 667.5,-443.52 667.5,-513 667.5,-571 667.5,-571 667.5,-571 667.5,-607.7 642.18,-644.34 625.29,-664.7"/>
<polygon fill="midnightblue" stroke="midnightblue" points="622.55,-662.52 618.67,-672.38 627.85,-667.1 622.55,-662.52"/>
</g>
<!-- Node31&#45;&gt;Node13 -->
<g id="edge93" class="edge">
<title>Node31&#45;&gt;Node13</title>
<path fill="none" stroke="midnightblue" d="M1208.78,-336.23C1219.23,-318.04 1241.5,-274.6 1241.5,-235 1241.5,-235 1241.5,-235 1241.5,-177 1241.5,-120.67 1054.58,-85.04 973.88,-72.29"/>
<polygon fill="midnightblue" stroke="midnightblue" points="974.1,-68.78 963.68,-70.71 973.03,-75.7 974.1,-68.78"/>
</g>
<!-- Node31&#45;&gt;Node14 -->
<g id="edge96" class="edge">
<title>Node31&#45;&gt;Node14</title>
<path fill="none" stroke="midnightblue" d="M1200.44,-336.08C1191.42,-309.83 1164.89,-232.55 1152.72,-197.12"/>
<polygon fill="midnightblue" stroke="midnightblue" points="1156,-195.89 1149.44,-187.57 1149.38,-198.16 1156,-195.89"/>
</g>
<!-- Node31&#45;&gt;Node19 -->
<g id="edge97" class="edge">
<title>Node31&#45;&gt;Node19</title>
<path fill="none" stroke="midnightblue" d="M1215.55,-336.23C1226.7,-327.74 1243.35,-314.12 1255.5,-300 1301.16,-246.92 1283.55,-207.3 1341.5,-168 1392.8,-133.21 1466.53,-124.82 1509.87,-123.08"/>
<polygon fill="midnightblue" stroke="midnightblue" points="1510.05,-126.58 1519.94,-122.77 1509.84,-119.58 1510.05,-126.58"/>
</g>
<!-- Node31&#45;&gt;Node23 -->
<g id="edge95" class="edge">
<title>Node31&#45;&gt;Node23</title>
<path fill="none" stroke="midnightblue" d="M1176.8,-336.46C1115.09,-316.08 958.97,-260.84 842.5,-188 819.65,-173.71 796.56,-152.84 781.93,-138.64"/>
<polygon fill="midnightblue" stroke="midnightblue" points="784.3,-136.06 774.73,-131.51 779.37,-141.03 784.3,-136.06"/>
</g>
<!-- Node31&#45;&gt;Node24 -->
<g id="edge100" class="edge">
<title>Node31&#45;&gt;Node24</title>
<path fill="none" stroke="midnightblue" d="M1155.33,-336.44C1101.63,-326.9 1014.81,-311.48 957.45,-301.29"/>
<polygon fill="midnightblue" stroke="midnightblue" points="957.9,-297.82 947.44,-299.52 956.68,-304.71 957.9,-297.82"/>
</g>
<!-- Node32&#45;&gt;Node2 -->
<g id="edge102" class="edge">
<title>Node32&#45;&gt;Node2</title>
<path fill="none" stroke="midnightblue" d="M775.31,-394.64C691.96,-380.68 509.34,-340.58 391.5,-244 338.56,-200.61 308.44,-121.38 296.95,-85.51"/>
<polygon fill="midnightblue" stroke="midnightblue" points="300.26,-84.39 293.97,-75.86 293.57,-86.45 300.26,-84.39"/>
</g>
<!-- Node32&#45;&gt;Node12 -->
<g id="edge104" class="edge">
<title>Node32&#45;&gt;Node12</title>
<path fill="none" stroke="midnightblue" d="M792.33,-411.59C686.24,-445.4 304.17,-569.68 272.5,-616 267.48,-623.34 266.64,-629.31 272.5,-636 291.8,-658.04 483.43,-672.91 569.27,-678.51"/>
<polygon fill="midnightblue" stroke="midnightblue" points="569.24,-682.02 579.44,-679.16 569.69,-675.03 569.24,-682.02"/>
</g>
<!-- Node32&#45;&gt;Node28 -->
<g id="edge103" class="edge">
<title>Node32&#45;&gt;Node28</title>
<path fill="none" stroke="midnightblue" d="M863.52,-407.45C954.07,-417.09 1160.34,-439.94 1256.07,-450.91"/>
<polygon fill="midnightblue" stroke="midnightblue" points="1255.75,-454.4 1266.09,-452.06 1256.55,-447.45 1255.75,-454.4"/>
</g>
<!-- Node33&#45;&gt;Node1 -->
<g id="edge118" class="edge">
<title>Node33&#45;&gt;Node1</title>
<path fill="none" stroke="midnightblue" d="M1117.47,-403.41C1051.92,-406.68 929.1,-423.82 876.5,-504 871.62,-511.43 871.95,-516.36 876.5,-524 964.48,-671.76 1190.15,-719.72 1274.26,-732.75"/>
<polygon fill="midnightblue" stroke="midnightblue" points="1273.85,-736.23 1284.26,-734.24 1274.88,-729.31 1273.85,-736.23"/>
</g>
<!-- Node33&#45;&gt;Node2 -->
<g id="edge115" class="edge">
<title>Node33&#45;&gt;Node2</title>
<path fill="none" stroke="midnightblue" d="M1117.08,-401.78C997.54,-401.92 657.42,-388.73 429.5,-244 421.02,-238.61 336.57,-126.94 304.11,-83.8"/>
<polygon fill="midnightblue" stroke="midnightblue" points="306.83,-81.59 298.02,-75.7 301.23,-85.79 306.83,-81.59"/>
</g>
<!-- Node33&#45;&gt;Node7 -->
<g id="edge107" class="edge">
<title>Node33&#45;&gt;Node7</title>
<path fill="none" stroke="midnightblue" d="M1203.7,-401.53C1405.5,-402.89 2245.5,-395.54 2245.5,-179 2245.5,-179 2245.5,-179 2245.5,-121 2245.5,-75.12 2197.06,-41.53 2164.77,-24.23"/>
<polygon fill="midnightblue" stroke="midnightblue" points="2166.23,-21.04 2155.74,-19.58 2163.03,-27.27 2166.23,-21.04"/>
</g>
<!-- Node33&#45;&gt;Node9 -->
<g id="edge108" class="edge">
<title>Node33&#45;&gt;Node9</title>
<path fill="none" stroke="midnightblue" d="M1117.36,-394.81C1028.5,-381.25 829.31,-346.37 780.5,-300 717.47,-240.12 676.27,-182.95 726.5,-112 777.07,-40.58 1059.3,-18.47 1161.52,-12.75"/>
<polygon fill="midnightblue" stroke="midnightblue" points="1161.88,-16.23 1171.68,-12.2 1161.51,-9.24 1161.88,-16.23"/>
</g>
<!-- Node33&#45;&gt;Node12 -->
<g id="edge119" class="edge">
<title>Node33&#45;&gt;Node12</title>
<path fill="none" stroke="midnightblue" d="M1117.03,-402.29C1060.05,-403.03 958.32,-410.21 881.5,-448 772.03,-501.85 777.9,-561.23 681.5,-636 666.55,-647.59 648.54,-658.98 634.4,-667.4"/>
<polygon fill="midnightblue" stroke="midnightblue" points="632.6,-664.4 625.74,-672.48 636.14,-670.44 632.6,-664.4"/>
</g>
<!-- Node33&#45;&gt;Node14 -->
<g id="edge112" class="edge">
<title>Node33&#45;&gt;Node14</title>
<path fill="none" stroke="midnightblue" d="M1156.9,-392.22C1153.44,-383.28 1148.47,-368.94 1146.5,-356 1137.82,-298.91 1141.89,-230.26 1144.66,-197.78"/>
<polygon fill="midnightblue" stroke="midnightblue" points="1148.17,-197.82 1145.6,-187.54 1141.2,-197.18 1148.17,-197.82"/>
</g>
<!-- Node33&#45;&gt;Node16 -->
<g id="edge122" class="edge">
<title>Node33&#45;&gt;Node16</title>
<path fill="none" stroke="midnightblue" d="M1166.12,-411.77C1175.33,-425.51 1194.88,-452.16 1217.5,-468 1273.75,-507.39 1295.18,-506.18 1361.5,-524 1569.94,-580.01 1824.87,-608.37 1944.05,-619.38"/>
<polygon fill="midnightblue" stroke="midnightblue" points="1943.85,-622.87 1954.12,-620.29 1944.48,-615.9 1943.85,-622.87"/>
</g>
<!-- Node33&#45;&gt;Node17 -->
<g id="edge106" class="edge">
<title>Node33&#45;&gt;Node17</title>
<path fill="none" stroke="midnightblue" d="M1203.84,-393.03C1244.28,-385.15 1306.07,-371.99 1358.5,-356 1514.35,-308.49 1543.73,-268.36 1700.5,-224 1770.31,-204.25 1853.91,-190.96 1902.63,-184.21"/>
<polygon fill="midnightblue" stroke="midnightblue" points="1903.34,-187.64 1912.78,-182.83 1902.4,-180.71 1903.34,-187.64"/>
</g>
<!-- Node33&#45;&gt;Node18 -->
<g id="edge109" class="edge">
<title>Node33&#45;&gt;Node18</title>
<path fill="none" stroke="midnightblue" d="M1203.87,-394.24C1252.33,-386.37 1332.98,-372.36 1401.5,-356 1605.06,-307.4 1652.18,-281.18 1853.5,-224 1877.71,-217.12 1942.62,-199.27 1982.84,-188.23"/>
<polygon fill="midnightblue" stroke="midnightblue" points="1983.78,-191.6 1992.49,-185.58 1981.92,-184.85 1983.78,-191.6"/>
</g>
<!-- Node33&#45;&gt;Node19 -->
<g id="edge110" class="edge">
<title>Node33&#45;&gt;Node19</title>
<path fill="none" stroke="midnightblue" d="M1191.09,-392.41C1212.35,-385.29 1240.37,-373.47 1260.5,-356 1335.19,-291.19 1299.92,-226.71 1379.5,-168 1418.21,-139.44 1473.94,-129.01 1509.93,-125.19"/>
<polygon fill="midnightblue" stroke="midnightblue" points="1510.35,-128.67 1519.98,-124.25 1509.7,-121.7 1510.35,-128.67"/>
</g>
<!-- Node33&#45;&gt;Node20 -->
<g id="edge111" class="edge">
<title>Node33&#45;&gt;Node20</title>
<path fill="none" stroke="midnightblue" d="M1203.73,-395.79C1261.44,-388.53 1366.68,-374.17 1455.5,-356 1705.11,-304.94 1999.9,-220.83 2103.87,-190.42"/>
<polygon fill="midnightblue" stroke="midnightblue" points="2105,-193.73 2113.62,-187.56 2103.03,-187.02 2105,-193.73"/>
</g>
<!-- Node33&#45;&gt;Node21 -->
<g id="edge113" class="edge">
<title>Node33&#45;&gt;Node21</title>
<path fill="none" stroke="midnightblue" d="M1203.58,-396.34C1269.9,-388.98 1400.93,-373.66 1511.5,-356 1847.05,-302.4 2247.46,-219.02 2385.7,-189.66"/>
<polygon fill="midnightblue" stroke="midnightblue" points="2386.53,-193.07 2395.58,-187.56 2385.07,-186.22 2386.53,-193.07"/>
</g>
<!-- Node33&#45;&gt;Node22 -->
<g id="edge116" class="edge">
<title>Node33&#45;&gt;Node22</title>
<path fill="none" stroke="midnightblue" d="M1150.27,-392.3C1110.8,-358.73 968.13,-237.38 917.49,-194.3"/>
<polygon fill="midnightblue" stroke="midnightblue" points="919.55,-191.46 909.66,-187.64 915.01,-196.79 919.55,-191.46"/>
</g>
<!-- Node33&#45;&gt;Node24 -->
<g id="edge117" class="edge">
<title>Node33&#45;&gt;Node24</title>
<path fill="none" stroke="midnightblue" d="M1140.02,-392.37C1094.09,-373.01 982.7,-326.06 929.18,-303.51"/>
<polygon fill="midnightblue" stroke="midnightblue" points="930.46,-300.25 919.89,-299.59 927.74,-306.7 930.46,-300.25"/>
</g>
<!-- Node33&#45;&gt;Node26 -->
<g id="edge114" class="edge">
<title>Node33&#45;&gt;Node26</title>
<path fill="none" stroke="midnightblue" d="M1203.54,-392.95C1247,-384.25 1310.61,-369.77 1331.5,-356 1395.16,-314.03 1442.13,-232.8 1460.73,-196.86"/>
<polygon fill="midnightblue" stroke="midnightblue" points="1464.01,-198.12 1465.4,-187.62 1457.76,-194.96 1464.01,-198.12"/>
</g>
<!-- Node33&#45;&gt;Node27 -->
<g id="edge120" class="edge">
<title>Node33&#45;&gt;Node27</title>
<path fill="none" stroke="midnightblue" d="M1140.61,-411.51C1094.89,-431.08 982.23,-479.3 930.4,-501.49"/>
<polygon fill="midnightblue" stroke="midnightblue" points="928.98,-498.29 921.16,-505.44 931.74,-504.72 928.98,-498.29"/>
</g>
<!-- Node33&#45;&gt;Node28 -->
<g id="edge124" class="edge">
<title>Node33&#45;&gt;Node28</title>
<path fill="none" stroke="midnightblue" d="M1188.61,-411.52C1214.66,-420.43 1252.95,-434.5 1278.85,-444.64"/>
<polygon fill="midnightblue" stroke="midnightblue" points="1277.87,-448.01 1288.45,-448.44 1280.45,-441.5 1277.87,-448.01"/>
</g>
<!-- Node33&#45;&gt;Node29 -->
<g id="edge121" class="edge">
<title>Node33&#45;&gt;Node29</title>
<path fill="none" stroke="midnightblue" d="M1170.5,-411.62C1187.31,-425.65 1222.78,-453.3 1257.5,-468 1438.23,-544.51 1674.46,-563.06 1779.31,-567.56"/>
<polygon fill="midnightblue" stroke="midnightblue" points="1779.21,-571.06 1789.34,-567.97 1779.49,-564.07 1779.21,-571.06"/>
</g>
<!-- Node33&#45;&gt;Node31 -->
<g id="edge123" class="edge">
<title>Node33&#45;&gt;Node31</title>
<path fill="none" stroke="midnightblue" d="M1167.6,-392.08C1173.74,-384.38 1182.77,-373.03 1190.24,-363.65"/>
<polygon fill="midnightblue" stroke="midnightblue" points="1193.04,-365.75 1196.53,-355.75 1187.56,-361.39 1193.04,-365.75"/>
</g>
<!-- Node34&#45;&gt;Node2 -->
<g id="edge131" class="edge">
<title>Node34&#45;&gt;Node2</title>
<path fill="none" stroke="midnightblue" d="M853.12,-114.4C848.59,-113.49 843.93,-112.65 839.5,-112 654.49,-84.7 431.72,-72.83 337.33,-68.76"/>
<polygon fill="midnightblue" stroke="midnightblue" points="337.4,-65.26 327.26,-68.34 337.11,-72.26 337.4,-65.26"/>
</g>
<!-- Node34&#45;&gt;Node9 -->
<g id="edge133" class="edge">
<title>Node34&#45;&gt;Node9</title>
<path fill="none" stroke="midnightblue" d="M881.58,-112.28C882.22,-98.13 885.69,-70.29 902.5,-56 940.92,-23.34 1091.15,-14.34 1161.63,-11.89"/>
<polygon fill="midnightblue" stroke="midnightblue" points="1161.94,-15.38 1171.82,-11.57 1161.72,-8.39 1161.94,-15.38"/>
</g>
<!-- Node34&#45;&gt;Node12 -->
<g id="edge132" class="edge">
<title>Node34&#45;&gt;Node12</title>
<path fill="none" stroke="midnightblue" d="M853.23,-126.7C791.5,-134.9 646.37,-154.93 598.5,-168 457.02,-206.63 291.5,-142.34 291.5,-289 291.5,-347 291.5,-347 291.5,-347 291.5,-482.35 286.16,-546.29 387.5,-636 413.95,-659.41 512.3,-672.08 569.17,-677.58"/>
<polygon fill="midnightblue" stroke="midnightblue" points="569,-681.08 579.28,-678.53 569.65,-674.11 569,-681.08"/>
</g>
<!-- Node34&#45;&gt;Node13 -->
<g id="edge130" class="edge">
<title>Node34&#45;&gt;Node13</title>
<path fill="none" stroke="midnightblue" d="M890.5,-112.32C898.69,-104.42 911.01,-92.55 920.97,-82.94"/>
<polygon fill="midnightblue" stroke="midnightblue" points="923.57,-85.29 928.34,-75.83 918.71,-80.26 923.57,-85.29"/>
</g>
<!-- Node34&#45;&gt;Node25 -->
<g id="edge135" class="edge">
<title>Node34&#45;&gt;Node25</title>
<path fill="none" stroke="midnightblue" d="M909.72,-122.68C1000.15,-122.15 1290.54,-124.2 1525.5,-168 1590.95,-180.2 1664.71,-205.76 1705.38,-220.94"/>
<polygon fill="midnightblue" stroke="midnightblue" points="1704.15,-224.22 1714.74,-224.47 1706.62,-217.67 1704.15,-224.22"/>
</g>
<!-- Node34&#45;&gt;Node27 -->
<g id="edge134" class="edge">
<title>Node34&#45;&gt;Node27</title>
<path fill="none" stroke="midnightblue" d="M853.25,-127.1C778.99,-138.5 581.37,-173.16 543.5,-224 523.32,-251.09 528.56,-269.71 543.5,-300 599.81,-414.17 661.29,-411.75 775.5,-468 808.89,-484.45 849.83,-497.74 876.28,-505.5"/>
<polygon fill="midnightblue" stroke="midnightblue" points="875.41,-508.89 885.99,-508.29 877.35,-502.16 875.41,-508.89"/>
</g>
</g>
</svg>
