<?xml version="1.0" encoding="UTF-8" standalone="no"?>
<!DOCTYPE svg PUBLIC "-//W3C//DTD SVG 1.1//EN"
 "http://www.w3.org/Graphics/SVG/1.1/DTD/svg11.dtd">
<!-- Generated by graphviz version 2.43.0 (0)
 -->
<!-- Title: grid.c Pages: 1 -->
<svg width="2684pt" height="812pt"
 viewBox="0.00 0.00 2684.00 812.00" xmlns="http://www.w3.org/2000/svg" xmlns:xlink="http://www.w3.org/1999/xlink">
<g id="graph0" class="graph" transform="scale(1 1) rotate(0) translate(4 808)">
<title>grid.c</title>
<!-- Node1 -->
<g id="node1" class="node">
<title>Node1</title>
<g id="a_node1"><a xlink:title=" ">
<polygon fill="#bfbfbf" stroke="black" points="1406,-784.5 1406,-803.5 1450,-803.5 1450,-784.5 1406,-784.5"/>
<text text-anchor="middle" x="1428" y="-791.5" font-family="Helvetica,sans-Serif" font-size="10.00">grid.c</text>
</a>
</g>
</g>
<!-- Node2 -->
<g id="node2" class="node">
<title>Node2</title>
<g id="a_node2"><a xlink:href="grid_8h.html" target="_top" xlink:title="Public interface for grid, solver, and metric setup routines.">
<polygon fill="none" stroke="black" points="1381,-728.5 1381,-747.5 1425,-747.5 1425,-728.5 1381,-728.5"/>
<text text-anchor="middle" x="1403" y="-735.5" font-family="Helvetica,sans-Serif" font-size="10.00">grid.h</text>
</a>
</g>
</g>
<!-- Node1&#45;&gt;Node2 -->
<g id="edge1" class="edge">
<title>Node1&#45;&gt;Node2</title>
<path fill="none" stroke="midnightblue" d="M1423.87,-784.08C1420.49,-776.77 1415.58,-766.18 1411.38,-757.1"/>
<polygon fill="midnightblue" stroke="midnightblue" points="1414.43,-755.36 1407.05,-747.75 1408.08,-758.3 1414.43,-755.36"/>
</g>
<!-- Node13 -->
<g id="node13" class="node">
<title>Node13</title>
<g id="a_node13"><a xlink:href="logging_8h.html" target="_top" xlink:title="Logging utilities and macros for PETSc&#45;based applications.">
<polygon fill="none" stroke="black" points="1705,-672.5 1705,-691.5 1767,-691.5 1767,-672.5 1705,-672.5"/>
<text text-anchor="middle" x="1736" y="-679.5" font-family="Helvetica,sans-Serif" font-size="10.00">logging.h</text>
</a>
</g>
</g>
<!-- Node1&#45;&gt;Node13 -->
<g id="edge147" class="edge">
<title>Node1&#45;&gt;Node13</title>
<path fill="none" stroke="midnightblue" d="M1450.15,-785.09C1503.44,-766.06 1639.06,-717.62 1702.42,-694.99"/>
<polygon fill="midnightblue" stroke="midnightblue" points="1703.71,-698.25 1711.95,-691.59 1701.35,-691.66 1703.71,-698.25"/>
</g>
<!-- Node3 -->
<g id="node3" class="node">
<title>Node3</title>
<g id="a_node3"><a xlink:href="variables_8h.html" target="_top" xlink:title="Main header file for a complex fluid dynamics solver.">
<polygon fill="none" stroke="black" points="2279.5,-56.5 2279.5,-75.5 2350.5,-75.5 2350.5,-56.5 2279.5,-56.5"/>
<text text-anchor="middle" x="2315" y="-63.5" font-family="Helvetica,sans-Serif" font-size="10.00">variables.h</text>
</a>
</g>
</g>
<!-- Node2&#45;&gt;Node3 -->
<g id="edge2" class="edge">
<title>Node2&#45;&gt;Node3</title>
<path fill="none" stroke="midnightblue" d="M1425.1,-736.29C1594.14,-730.71 2676,-692.44 2676,-627 2676,-627 2676,-627 2676,-177 2676,-111.81 2457.86,-81.5 2360.72,-71.24"/>
<polygon fill="midnightblue" stroke="midnightblue" points="2360.91,-67.74 2350.6,-70.19 2360.19,-74.7 2360.91,-67.74"/>
</g>
<!-- Node2&#45;&gt;Node13 -->
<g id="edge12" class="edge">
<title>Node2&#45;&gt;Node13</title>
<path fill="none" stroke="midnightblue" d="M1425.11,-733.42C1480.14,-724.49 1623.96,-701.17 1695.03,-689.64"/>
<polygon fill="midnightblue" stroke="midnightblue" points="1695.66,-693.09 1704.97,-688.03 1694.54,-686.18 1695.66,-693.09"/>
</g>
<!-- Node26 -->
<g id="node26" class="node">
<title>Node26</title>
<g id="a_node26"><a xlink:href="setup_8h.html" target="_top" xlink:title=" ">
<polygon fill="none" stroke="black" points="987.5,-224.5 987.5,-243.5 1040.5,-243.5 1040.5,-224.5 987.5,-224.5"/>
<text text-anchor="middle" x="1014" y="-231.5" font-family="Helvetica,sans-Serif" font-size="10.00">setup.h</text>
</a>
</g>
</g>
<!-- Node2&#45;&gt;Node26 -->
<g id="edge146" class="edge">
<title>Node2&#45;&gt;Node26</title>
<path fill="none" stroke="midnightblue" d="M1380.88,-733.8C1337.14,-726.52 1237.89,-708.12 1155,-692 933.55,-648.93 750.17,-737.06 676,-524 638.61,-416.61 653.45,-334.96 753,-280 824.71,-240.42 923.78,-234.5 977,-234.3"/>
<polygon fill="midnightblue" stroke="midnightblue" points="977.32,-237.8 987.33,-234.33 977.34,-230.8 977.32,-237.8"/>
</g>
<!-- Node28 -->
<g id="node28" class="node">
<title>Node28</title>
<g id="a_node28"><a xlink:href="io_8h.html" target="_top" xlink:title="Public interface for data input/output routines.">
<polygon fill="none" stroke="black" points="1469.5,-504.5 1469.5,-523.5 1504.5,-523.5 1504.5,-504.5 1469.5,-504.5"/>
<text text-anchor="middle" x="1487" y="-511.5" font-family="Helvetica,sans-Serif" font-size="10.00">io.h</text>
</a>
</g>
</g>
<!-- Node2&#45;&gt;Node28 -->
<g id="edge145" class="edge">
<title>Node2&#45;&gt;Node28</title>
<path fill="none" stroke="midnightblue" d="M1417.8,-728.25C1429.8,-720.33 1446.13,-707.56 1455,-692 1484.33,-640.55 1487.77,-568.2 1487.58,-534.14"/>
<polygon fill="midnightblue" stroke="midnightblue" points="1491.07,-533.73 1487.39,-523.79 1484.07,-533.85 1491.07,-533.73"/>
</g>
<!-- Node4 -->
<g id="node4" class="node">
<title>Node4</title>
<g id="a_node4"><a xlink:title=" ">
<polygon fill="none" stroke="#bfbfbf" points="2024.5,-0.5 2024.5,-19.5 2093.5,-19.5 2093.5,-0.5 2024.5,-0.5"/>
<text text-anchor="middle" x="2059" y="-7.5" font-family="Helvetica,sans-Serif" font-size="10.00">petscvec.h</text>
</a>
</g>
</g>
<!-- Node3&#45;&gt;Node4 -->
<g id="edge3" class="edge">
<title>Node3&#45;&gt;Node4</title>
<path fill="none" stroke="midnightblue" d="M2279.4,-57.49C2233.52,-47.81 2153.71,-30.98 2103.76,-20.44"/>
<polygon fill="midnightblue" stroke="midnightblue" points="2104.39,-17 2093.88,-18.36 2102.95,-23.85 2104.39,-17"/>
</g>
<!-- Node5 -->
<g id="node5" class="node">
<title>Node5</title>
<g id="a_node5"><a xlink:title=" ">
<polygon fill="none" stroke="#bfbfbf" points="2112,-0.5 2112,-19.5 2192,-19.5 2192,-0.5 2112,-0.5"/>
<text text-anchor="middle" x="2152" y="-7.5" font-family="Helvetica,sans-Serif" font-size="10.00">petscdmda.h</text>
</a>
</g>
</g>
<!-- Node3&#45;&gt;Node5 -->
<g id="edge4" class="edge">
<title>Node3&#45;&gt;Node5</title>
<path fill="none" stroke="midnightblue" d="M2289.17,-56.44C2261.75,-47.36 2218.22,-32.94 2187.57,-22.78"/>
<polygon fill="midnightblue" stroke="midnightblue" points="2188.3,-19.34 2177.71,-19.52 2186.1,-25.98 2188.3,-19.34"/>
</g>
<!-- Node6 -->
<g id="node6" class="node">
<title>Node6</title>
<g id="a_node6"><a xlink:title=" ">
<polygon fill="none" stroke="#bfbfbf" points="2210.5,-0.5 2210.5,-19.5 2279.5,-19.5 2279.5,-0.5 2210.5,-0.5"/>
<text text-anchor="middle" x="2245" y="-7.5" font-family="Helvetica,sans-Serif" font-size="10.00">petscksp.h</text>
</a>
</g>
</g>
<!-- Node3&#45;&gt;Node6 -->
<g id="edge5" class="edge">
<title>Node3&#45;&gt;Node6</title>
<path fill="none" stroke="midnightblue" d="M2303.75,-56.32C2293.2,-48.18 2277.2,-35.84 2264.56,-26.09"/>
<polygon fill="midnightblue" stroke="midnightblue" points="2266.51,-23.17 2256.45,-19.83 2262.23,-28.71 2266.51,-23.17"/>
</g>
<!-- Node7 -->
<g id="node7" class="node">
<title>Node7</title>
<g id="a_node7"><a xlink:title=" ">
<polygon fill="none" stroke="#bfbfbf" points="2298,-0.5 2298,-19.5 2372,-19.5 2372,-0.5 2298,-0.5"/>
<text text-anchor="middle" x="2335" y="-7.5" font-family="Helvetica,sans-Serif" font-size="10.00">petscsnes.h</text>
</a>
</g>
</g>
<!-- Node3&#45;&gt;Node7 -->
<g id="edge6" class="edge">
<title>Node3&#45;&gt;Node7</title>
<path fill="none" stroke="midnightblue" d="M2318.3,-56.08C2320.98,-48.85 2324.85,-38.41 2328.19,-29.4"/>
<polygon fill="midnightblue" stroke="midnightblue" points="2331.57,-30.34 2331.76,-19.75 2325,-27.91 2331.57,-30.34"/>
</g>
<!-- Node8 -->
<g id="node8" class="node">
<title>Node8</title>
<g id="a_node8"><a xlink:title=" ">
<polygon fill="none" stroke="#bfbfbf" points="565.5,-0.5 565.5,-19.5 666.5,-19.5 666.5,-0.5 565.5,-0.5"/>
<text text-anchor="middle" x="616" y="-7.5" font-family="Helvetica,sans-Serif" font-size="10.00">petscdmswarm.h</text>
</a>
</g>
</g>
<!-- Node3&#45;&gt;Node8 -->
<g id="edge7" class="edge">
<title>Node3&#45;&gt;Node8</title>
<path fill="none" stroke="midnightblue" d="M2279.12,-63.86C2064.54,-57.04 951,-21.65 676.97,-12.94"/>
<polygon fill="midnightblue" stroke="midnightblue" points="676.93,-9.43 666.82,-12.62 676.71,-16.43 676.93,-9.43"/>
</g>
<!-- Node9 -->
<g id="node9" class="node">
<title>Node9</title>
<g id="a_node9"><a xlink:title=" ">
<polygon fill="none" stroke="#bfbfbf" points="2390,-0.5 2390,-19.5 2440,-19.5 2440,-0.5 2390,-0.5"/>
<text text-anchor="middle" x="2415" y="-7.5" font-family="Helvetica,sans-Serif" font-size="10.00">stdio.h</text>
</a>
</g>
</g>
<!-- Node3&#45;&gt;Node9 -->
<g id="edge8" class="edge">
<title>Node3&#45;&gt;Node9</title>
<path fill="none" stroke="midnightblue" d="M2331.07,-56.32C2346.96,-47.74 2371.51,-34.49 2389.96,-24.52"/>
<polygon fill="midnightblue" stroke="midnightblue" points="2391.84,-27.49 2398.97,-19.65 2388.51,-21.33 2391.84,-27.49"/>
</g>
<!-- Node10 -->
<g id="node10" class="node">
<title>Node10</title>
<g id="a_node10"><a xlink:title=" ">
<polygon fill="none" stroke="#bfbfbf" points="1633.5,-0.5 1633.5,-19.5 1686.5,-19.5 1686.5,-0.5 1633.5,-0.5"/>
<text text-anchor="middle" x="1660" y="-7.5" font-family="Helvetica,sans-Serif" font-size="10.00">stdlib.h</text>
</a>
</g>
</g>
<!-- Node3&#45;&gt;Node10 -->
<g id="edge9" class="edge">
<title>Node3&#45;&gt;Node10</title>
<path fill="none" stroke="midnightblue" d="M2279.32,-62.06C2165.54,-52.68 1812.05,-23.54 1696.77,-14.03"/>
<polygon fill="midnightblue" stroke="midnightblue" points="1696.93,-10.53 1686.68,-13.2 1696.36,-17.51 1696.93,-10.53"/>
</g>
<!-- Node11 -->
<g id="node11" class="node">
<title>Node11</title>
<g id="a_node11"><a xlink:title=" ">
<polygon fill="none" stroke="#bfbfbf" points="2572.5,-0.5 2572.5,-19.5 2625.5,-19.5 2625.5,-0.5 2572.5,-0.5"/>
<text text-anchor="middle" x="2599" y="-7.5" font-family="Helvetica,sans-Serif" font-size="10.00">string.h</text>
</a>
</g>
</g>
<!-- Node3&#45;&gt;Node11 -->
<g id="edge10" class="edge">
<title>Node3&#45;&gt;Node11</title>
<path fill="none" stroke="midnightblue" d="M2350.68,-58.22C2404.84,-47.92 2507.3,-28.44 2562.15,-18.01"/>
<polygon fill="midnightblue" stroke="midnightblue" points="2562.96,-21.41 2572.13,-16.11 2561.66,-14.54 2562.96,-21.41"/>
</g>
<!-- Node12 -->
<g id="node12" class="node">
<title>Node12</title>
<g id="a_node12"><a xlink:title=" ">
<polygon fill="none" stroke="#bfbfbf" points="2458,-0.5 2458,-19.5 2514,-19.5 2514,-0.5 2458,-0.5"/>
<text text-anchor="middle" x="2486" y="-7.5" font-family="Helvetica,sans-Serif" font-size="10.00">unistd.h</text>
</a>
</g>
</g>
<!-- Node3&#45;&gt;Node12 -->
<g id="edge11" class="edge">
<title>Node3&#45;&gt;Node12</title>
<path fill="none" stroke="midnightblue" d="M2342.1,-56.44C2370.99,-47.32 2416.92,-32.81 2449.11,-22.65"/>
<polygon fill="midnightblue" stroke="midnightblue" points="2450.55,-25.87 2459.03,-19.52 2448.44,-19.19 2450.55,-25.87"/>
</g>
<!-- Node13&#45;&gt;Node3 -->
<g id="edge18" class="edge">
<title>Node13&#45;&gt;Node3</title>
<path fill="none" stroke="midnightblue" d="M1767.37,-680.19C1918.25,-675.89 2562,-652.74 2562,-571 2562,-571 2562,-571 2562,-177 2562,-89.87 2432.14,-71.26 2360.74,-67.61"/>
<polygon fill="midnightblue" stroke="midnightblue" points="2360.79,-64.11 2350.65,-67.18 2360.49,-71.11 2360.79,-64.11"/>
</g>
<!-- Node13&#45;&gt;Node10 -->
<g id="edge14" class="edge">
<title>Node13&#45;&gt;Node10</title>
<path fill="none" stroke="midnightblue" d="M1767.41,-680.37C1886.71,-677.76 2311.66,-666.48 2443,-636 2516.57,-618.93 2600,-646.52 2600,-571 2600,-571 2600,-571 2600,-121 2600,-28.36 1870.46,-13.57 1696.78,-11.37"/>
<polygon fill="midnightblue" stroke="midnightblue" points="1696.66,-7.87 1686.62,-11.24 1696.58,-14.86 1696.66,-7.87"/>
</g>
<!-- Node13&#45;&gt;Node11 -->
<g id="edge15" class="edge">
<title>Node13&#45;&gt;Node11</title>
<path fill="none" stroke="midnightblue" d="M1767.15,-681.11C1894.86,-681.29 2378.48,-679.05 2524,-636 2579.93,-619.46 2638,-629.32 2638,-571 2638,-571 2638,-571 2638,-121 2638,-86.72 2620.96,-49.7 2609.41,-28.54"/>
<polygon fill="midnightblue" stroke="midnightblue" points="2612.4,-26.72 2604.42,-19.75 2606.31,-30.17 2612.4,-26.72"/>
</g>
<!-- Node14 -->
<g id="node14" class="node">
<title>Node14</title>
<g id="a_node14"><a xlink:title=" ">
<polygon fill="none" stroke="#bfbfbf" points="1850,-56.5 1850,-75.5 1902,-75.5 1902,-56.5 1850,-56.5"/>
<text text-anchor="middle" x="1876" y="-63.5" font-family="Helvetica,sans-Serif" font-size="10.00">petsc.h</text>
</a>
</g>
</g>
<!-- Node13&#45;&gt;Node14 -->
<g id="edge13" class="edge">
<title>Node13&#45;&gt;Node14</title>
<path fill="none" stroke="midnightblue" d="M1767.09,-681.63C1851.47,-682.64 2091.35,-681.03 2284,-636 2360.35,-618.15 2448,-649.41 2448,-571 2448,-571 2448,-571 2448,-289 2448,-173.48 2037.38,-94.34 1911.95,-72.87"/>
<polygon fill="midnightblue" stroke="midnightblue" points="1912.51,-69.41 1902.06,-71.19 1911.34,-76.32 1912.51,-69.41"/>
</g>
<!-- Node15 -->
<g id="node15" class="node">
<title>Node15</title>
<g id="a_node15"><a xlink:title=" ">
<polygon fill="none" stroke="#bfbfbf" points="1423,-168.5 1423,-187.5 1491,-187.5 1491,-168.5 1423,-168.5"/>
<text text-anchor="middle" x="1457" y="-175.5" font-family="Helvetica,sans-Serif" font-size="10.00">petscsys.h</text>
</a>
</g>
</g>
<!-- Node13&#45;&gt;Node15 -->
<g id="edge16" class="edge">
<title>Node13&#45;&gt;Node15</title>
<path fill="none" stroke="midnightblue" d="M1767.22,-680.41C1838.6,-678.46 2011.03,-670.25 2056,-636 2148.84,-565.29 2195.66,-500.62 2153,-392 2128.17,-328.77 2108.75,-312.31 2049,-280 1953.53,-228.38 1621.84,-193.92 1501.26,-182.85"/>
<polygon fill="midnightblue" stroke="midnightblue" points="1501.54,-179.36 1491.26,-181.94 1500.9,-186.33 1501.54,-179.36"/>
</g>
<!-- Node16 -->
<g id="node16" class="node">
<title>Node16</title>
<g id="a_node16"><a xlink:title=" ">
<polygon fill="none" stroke="#bfbfbf" points="1654.5,-616.5 1654.5,-635.5 1707.5,-635.5 1707.5,-616.5 1654.5,-616.5"/>
<text text-anchor="middle" x="1681" y="-623.5" font-family="Helvetica,sans-Serif" font-size="10.00">ctype.h</text>
</a>
</g>
</g>
<!-- Node13&#45;&gt;Node16 -->
<g id="edge17" class="edge">
<title>Node13&#45;&gt;Node16</title>
<path fill="none" stroke="midnightblue" d="M1726.92,-672.08C1718.83,-664.14 1706.8,-652.34 1697.09,-642.8"/>
<polygon fill="midnightblue" stroke="midnightblue" points="1699.5,-640.26 1689.91,-635.75 1694.6,-645.25 1699.5,-640.26"/>
</g>
<!-- Node17 -->
<g id="node17" class="node">
<title>Node17</title>
<g id="a_node17"><a xlink:href="AnalyticalSolution_8h.html" target="_top" xlink:title=" ">
<polygon fill="none" stroke="black" points="1084,-616.5 1084,-635.5 1198,-635.5 1198,-616.5 1084,-616.5"/>
<text text-anchor="middle" x="1141" y="-623.5" font-family="Helvetica,sans-Serif" font-size="10.00">AnalyticalSolution.h</text>
</a>
</g>
</g>
<!-- Node13&#45;&gt;Node17 -->
<g id="edge19" class="edge">
<title>Node13&#45;&gt;Node17</title>
<path fill="none" stroke="midnightblue" d="M1704.61,-678.43C1611.59,-670.38 1336.55,-645.46 1208.23,-633.52"/>
<polygon fill="midnightblue" stroke="midnightblue" points="1208.42,-630.02 1198.14,-632.58 1207.77,-636.99 1208.42,-630.02"/>
</g>
<!-- Node29 -->
<g id="node29" class="node">
<title>Node29</title>
<g id="a_node29"><a xlink:href="Boundaries_8h.html" target="_top" xlink:title=" ">
<polygon fill="none" stroke="black" points="1372,-448.5 1372,-467.5 1452,-467.5 1452,-448.5 1372,-448.5"/>
<text text-anchor="middle" x="1412" y="-455.5" font-family="Helvetica,sans-Serif" font-size="10.00">Boundaries.h</text>
</a>
</g>
</g>
<!-- Node13&#45;&gt;Node29 -->
<g id="edge144" class="edge">
<title>Node13&#45;&gt;Node29</title>
<path fill="none" stroke="midnightblue" d="M1707.06,-672.44C1686.23,-664.48 1658.54,-651.53 1637,-636 1569.69,-587.49 1573.45,-550.88 1505,-504 1484.87,-490.22 1459.84,-479.1 1440.69,-471.36"/>
<polygon fill="midnightblue" stroke="midnightblue" points="1441.85,-468.06 1431.26,-467.63 1439.27,-474.57 1441.85,-468.06"/>
</g>
<!-- Node17&#45;&gt;Node2 -->
<g id="edge139" class="edge">
<title>Node17&#45;&gt;Node2</title>
<path fill="none" stroke="midnightblue" d="M1161.46,-635.59C1207.48,-654.91 1319.29,-701.86 1373.1,-724.45"/>
<polygon fill="midnightblue" stroke="midnightblue" points="1371.87,-727.72 1382.44,-728.37 1374.58,-721.27 1371.87,-727.72"/>
</g>
<!-- Node17&#45;&gt;Node3 -->
<g id="edge27" class="edge">
<title>Node17&#45;&gt;Node3</title>
<path fill="none" stroke="midnightblue" d="M1198.09,-623.57C1339.27,-618.94 1715.28,-599.86 2018,-524 2215.02,-474.63 2277.61,-473.9 2443,-356 2495.7,-318.43 2524,-299.72 2524,-235 2524,-235 2524,-235 2524,-177 2524,-103.94 2422.74,-79.29 2361.19,-71.06"/>
<polygon fill="midnightblue" stroke="midnightblue" points="2361.28,-67.54 2350.93,-69.79 2360.42,-74.49 2361.28,-67.54"/>
</g>
<!-- Node17&#45;&gt;Node8 -->
<g id="edge21" class="edge">
<title>Node17&#45;&gt;Node8</title>
<path fill="none" stroke="midnightblue" d="M1083.98,-623.68C928.64,-619.78 500.39,-606.84 362,-580 285.56,-565.18 264.06,-561.82 196,-524 77.71,-458.28 0,-426.32 0,-291 0,-291 0,-291 0,-121 0,-81.98 23.99,-73.22 59,-56 144.84,-13.77 428.96,-9.9 554.94,-10.35"/>
<polygon fill="midnightblue" stroke="midnightblue" points="555.17,-13.85 565.18,-10.4 555.2,-6.85 555.17,-13.85"/>
</g>
<!-- Node17&#45;&gt;Node10 -->
<g id="edge22" class="edge">
<title>Node17&#45;&gt;Node10</title>
<path fill="none" stroke="midnightblue" d="M1198.43,-623.31C1320.88,-618.31 1615.47,-598.81 1849,-524 1968.19,-485.82 2025.6,-471 2075,-356 2096.39,-306.2 2064.97,-152.59 2033,-112 1991.01,-58.69 1782.43,-26.56 1696.79,-15.43"/>
<polygon fill="midnightblue" stroke="midnightblue" points="1697.1,-11.94 1686.74,-14.15 1696.22,-18.88 1697.1,-11.94"/>
</g>
<!-- Node17&#45;&gt;Node13 -->
<g id="edge140" class="edge">
<title>Node17&#45;&gt;Node13</title>
<path fill="none" stroke="midnightblue" d="M1198.19,-631.82C1317.58,-642.32 1590.56,-667.11 1694.7,-676.91"/>
<polygon fill="midnightblue" stroke="midnightblue" points="1694.53,-680.41 1704.81,-677.86 1695.19,-673.44 1694.53,-680.41"/>
</g>
<!-- Node18 -->
<g id="node18" class="node">
<title>Node18</title>
<g id="a_node18"><a xlink:title=" ">
<polygon fill="none" stroke="#bfbfbf" points="425.5,-168.5 425.5,-187.5 486.5,-187.5 486.5,-168.5 425.5,-168.5"/>
<text text-anchor="middle" x="456" y="-175.5" font-family="Helvetica,sans-Serif" font-size="10.00">petscpf.h</text>
</a>
</g>
</g>
<!-- Node17&#45;&gt;Node18 -->
<g id="edge20" class="edge">
<title>Node17&#45;&gt;Node18</title>
<path fill="none" stroke="midnightblue" d="M1083.94,-624.97C991.67,-623.77 804.54,-616.54 651,-580 585,-564.3 565.56,-561.46 509,-524 456.68,-489.34 440.32,-472.32 423,-412 400.59,-333.94 432.88,-236.63 448.43,-197.02"/>
<polygon fill="midnightblue" stroke="midnightblue" points="451.72,-198.22 452.23,-187.64 445.23,-195.6 451.72,-198.22"/>
</g>
<!-- Node19 -->
<g id="node19" class="node">
<title>Node19</title>
<g id="a_node19"><a xlink:title=" ">
<polygon fill="none" stroke="#bfbfbf" points="546,-168.5 546,-187.5 594,-187.5 594,-168.5 546,-168.5"/>
<text text-anchor="middle" x="570" y="-175.5" font-family="Helvetica,sans-Serif" font-size="10.00">time.h</text>
</a>
</g>
</g>
<!-- Node17&#45;&gt;Node19 -->
<g id="edge23" class="edge">
<title>Node17&#45;&gt;Node19</title>
<path fill="none" stroke="midnightblue" d="M1083.65,-621.93C984.29,-616.1 784.42,-602.02 718,-580 578.8,-533.86 506.65,-539.39 434,-412 386.71,-329.08 500.92,-230.5 549.45,-193.76"/>
<polygon fill="midnightblue" stroke="midnightblue" points="551.76,-196.41 557.7,-187.64 547.58,-190.79 551.76,-196.41"/>
</g>
<!-- Node20 -->
<g id="node20" class="node">
<title>Node20</title>
<g id="a_node20"><a xlink:title=" ">
<polygon fill="none" stroke="#bfbfbf" points="1206.5,-112.5 1206.5,-131.5 1257.5,-131.5 1257.5,-112.5 1206.5,-112.5"/>
<text text-anchor="middle" x="1232" y="-119.5" font-family="Helvetica,sans-Serif" font-size="10.00">math.h</text>
</a>
</g>
</g>
<!-- Node17&#45;&gt;Node20 -->
<g id="edge24" class="edge">
<title>Node17&#45;&gt;Node20</title>
<path fill="none" stroke="midnightblue" d="M1083.88,-619.62C981.66,-608.4 778,-578.13 778,-515 778,-515 778,-515 778,-401 778,-261.8 935.16,-324.1 1049,-244 1091.82,-213.87 1095.09,-196.51 1139,-168 1158.73,-155.19 1182.65,-143.69 1201.29,-135.53"/>
<polygon fill="midnightblue" stroke="midnightblue" points="1202.7,-138.73 1210.51,-131.57 1199.94,-132.3 1202.7,-138.73"/>
</g>
<!-- Node21 -->
<g id="node21" class="node">
<title>Node21</title>
<g id="a_node21"><a xlink:title=" ">
<polygon fill="none" stroke="#bfbfbf" points="788,-168.5 788,-187.5 862,-187.5 862,-168.5 788,-168.5"/>
<text text-anchor="middle" x="825" y="-175.5" font-family="Helvetica,sans-Serif" font-size="10.00">petsctime.h</text>
</a>
</g>
</g>
<!-- Node17&#45;&gt;Node21 -->
<g id="edge25" class="edge">
<title>Node17&#45;&gt;Node21</title>
<path fill="none" stroke="midnightblue" d="M1083.69,-625.05C987.39,-624.09 798.38,-617.32 745,-580 635.66,-503.56 715.34,-407.37 755,-280 762.9,-254.62 761.14,-246.04 776,-224 783.69,-212.59 794.83,-202.06 804.55,-194.06"/>
<polygon fill="midnightblue" stroke="midnightblue" points="806.91,-196.65 812.6,-187.72 802.58,-191.15 806.91,-196.65"/>
</g>
<!-- Node22 -->
<g id="node22" class="node">
<title>Node22</title>
<g id="a_node22"><a xlink:title=" ">
<polygon fill="none" stroke="#bfbfbf" points="194.5,-168.5 194.5,-187.5 313.5,-187.5 313.5,-168.5 194.5,-168.5"/>
<text text-anchor="middle" x="254" y="-175.5" font-family="Helvetica,sans-Serif" font-size="10.00">petscdmcomposite.h</text>
</a>
</g>
</g>
<!-- Node17&#45;&gt;Node22 -->
<g id="edge26" class="edge">
<title>Node17&#45;&gt;Node22</title>
<path fill="none" stroke="midnightblue" d="M1083.95,-624.95C868.16,-623.27 114,-603.09 114,-403 114,-403 114,-403 114,-289 114,-237.35 173.65,-206.26 215.08,-190.9"/>
<polygon fill="midnightblue" stroke="midnightblue" points="216.4,-194.14 224.65,-187.5 214.06,-187.54 216.4,-194.14"/>
</g>
<!-- Node23 -->
<g id="node23" class="node">
<title>Node23</title>
<g id="a_node23"><a xlink:href="ParticleSwarm_8h.html" target="_top" xlink:title="Header file for Particle Motion and migration related functions.">
<polygon fill="none" stroke="black" points="1782,-168.5 1782,-187.5 1878,-187.5 1878,-168.5 1782,-168.5"/>
<text text-anchor="middle" x="1830" y="-175.5" font-family="Helvetica,sans-Serif" font-size="10.00">ParticleSwarm.h</text>
</a>
</g>
</g>
<!-- Node17&#45;&gt;Node23 -->
<g id="edge28" class="edge">
<title>Node17&#45;&gt;Node23</title>
<path fill="none" stroke="midnightblue" d="M1174.06,-616.45C1206.92,-607.8 1258.68,-593.78 1303,-580 1329.04,-571.9 1334.65,-567.03 1361,-560 1533.08,-514.11 1594.25,-552.54 1751,-468 1827.28,-426.86 1843.1,-386.39 1850,-300 1852.69,-266.33 1857.01,-257.04 1850,-224 1848,-214.59 1843.9,-204.76 1839.93,-196.7"/>
<polygon fill="midnightblue" stroke="midnightblue" points="1842.89,-194.81 1835.13,-187.59 1836.69,-198.07 1842.89,-194.81"/>
</g>
<!-- Node25 -->
<g id="node25" class="node">
<title>Node25</title>
<g id="a_node25"><a xlink:href="walkingsearch_8h.html" target="_top" xlink:title="Header file for particle location functions using the walking search algorithm.">
<polygon fill="none" stroke="black" points="1944,-280.5 1944,-299.5 2040,-299.5 2040,-280.5 1944,-280.5"/>
<text text-anchor="middle" x="1992" y="-287.5" font-family="Helvetica,sans-Serif" font-size="10.00">walkingsearch.h</text>
</a>
</g>
</g>
<!-- Node17&#45;&gt;Node25 -->
<g id="edge138" class="edge">
<title>Node17&#45;&gt;Node25</title>
<path fill="none" stroke="midnightblue" d="M1183.19,-616.5C1245.02,-604.05 1363.86,-580.15 1465,-560 1671.61,-518.84 1751.02,-579.13 1930,-468 1978.71,-437.76 1983.77,-412.41 1994,-356 1996.77,-340.71 1995.99,-323.06 1994.66,-310.02"/>
<polygon fill="midnightblue" stroke="midnightblue" points="1998.12,-309.43 1993.44,-299.92 1991.17,-310.27 1998.12,-309.43"/>
</g>
<!-- Node17&#45;&gt;Node26 -->
<g id="edge142" class="edge">
<title>Node17&#45;&gt;Node26</title>
<path fill="none" stroke="midnightblue" d="M1083.63,-622.55C981.25,-617.39 776.2,-603.88 755,-580 683.01,-498.9 701.42,-430.28 755,-336 799.18,-258.25 916.63,-240.3 977.14,-236.19"/>
<polygon fill="midnightblue" stroke="midnightblue" points="977.62,-239.67 987.4,-235.59 977.21,-232.68 977.62,-239.67"/>
</g>
<!-- Node17&#45;&gt;Node28 -->
<g id="edge141" class="edge">
<title>Node17&#45;&gt;Node28</title>
<path fill="none" stroke="midnightblue" d="M1165.83,-616.37C1190.95,-607.55 1230.86,-593.3 1265,-580 1286.53,-571.61 1291.09,-567.36 1313,-560 1363.93,-542.9 1425.07,-528.44 1459.64,-520.81"/>
<polygon fill="midnightblue" stroke="midnightblue" points="1460.45,-524.22 1469.47,-518.67 1458.96,-517.38 1460.45,-524.22"/>
</g>
<!-- Node30 -->
<g id="node30" class="node">
<title>Node30</title>
<g id="a_node30"><a xlink:href="interpolation_8h.html" target="_top" xlink:title=" ">
<polygon fill="none" stroke="black" points="927,-560.5 927,-579.5 1015,-579.5 1015,-560.5 927,-560.5"/>
<text text-anchor="middle" x="971" y="-567.5" font-family="Helvetica,sans-Serif" font-size="10.00">interpolation.h</text>
</a>
</g>
</g>
<!-- Node17&#45;&gt;Node30 -->
<g id="edge143" class="edge">
<title>Node17&#45;&gt;Node30</title>
<path fill="none" stroke="midnightblue" d="M1114.06,-616.44C1085.34,-607.32 1039.67,-592.81 1007.68,-582.65"/>
<polygon fill="midnightblue" stroke="midnightblue" points="1008.4,-579.21 997.81,-579.52 1006.28,-585.88 1008.4,-579.21"/>
</g>
<!-- Node23&#45;&gt;Node3 -->
<g id="edge33" class="edge">
<title>Node23&#45;&gt;Node3</title>
<path fill="none" stroke="midnightblue" d="M1840.01,-168.48C1857.54,-154.1 1895.52,-125.26 1933,-112 1994.02,-90.41 2181.7,-75.71 2269.2,-69.85"/>
<polygon fill="midnightblue" stroke="midnightblue" points="2269.61,-73.33 2279.36,-69.18 2269.15,-66.35 2269.61,-73.33"/>
</g>
<!-- Node23&#45;&gt;Node8 -->
<g id="edge30" class="edge">
<title>Node23&#45;&gt;Node8</title>
<path fill="none" stroke="midnightblue" d="M1811.46,-168.36C1760.62,-145.14 1614.22,-81.46 1485,-56 1329.85,-25.43 847.32,-14.77 676.6,-11.89"/>
<polygon fill="midnightblue" stroke="midnightblue" points="676.59,-8.39 666.53,-11.73 676.47,-15.39 676.59,-8.39"/>
</g>
<!-- Node23&#45;&gt;Node13 -->
<g id="edge34" class="edge">
<title>Node23&#45;&gt;Node13</title>
<path fill="none" stroke="midnightblue" d="M1878.45,-182.42C2017.85,-193.58 2410,-234.76 2410,-345 2410,-571 2410,-571 2410,-571 2410,-635.41 1924.32,-669.73 1777.53,-678.64"/>
<polygon fill="midnightblue" stroke="midnightblue" points="1776.93,-675.17 1767.16,-679.26 1777.35,-682.15 1776.93,-675.17"/>
</g>
<!-- Node23&#45;&gt;Node14 -->
<g id="edge29" class="edge">
<title>Node23&#45;&gt;Node14</title>
<path fill="none" stroke="midnightblue" d="M1836.08,-168.4C1842.07,-159.59 1851.16,-145.36 1857,-132 1863.63,-116.85 1868.71,-98.73 1871.94,-85.48"/>
<polygon fill="midnightblue" stroke="midnightblue" points="1875.37,-86.19 1874.21,-75.66 1868.55,-84.61 1875.37,-86.19"/>
</g>
<!-- Node23&#45;&gt;Node20 -->
<g id="edge32" class="edge">
<title>Node23&#45;&gt;Node20</title>
<path fill="none" stroke="midnightblue" d="M1781.82,-172.65C1665.33,-162.13 1370.43,-135.5 1267.84,-126.24"/>
<polygon fill="midnightblue" stroke="midnightblue" points="1267.96,-122.73 1257.69,-125.32 1267.33,-129.7 1267.96,-122.73"/>
</g>
<!-- Node24 -->
<g id="node24" class="node">
<title>Node24</title>
<g id="a_node24"><a xlink:title=" ">
<polygon fill="none" stroke="#bfbfbf" points="1942,-112.5 1942,-131.5 2004,-131.5 2004,-112.5 1942,-112.5"/>
<text text-anchor="middle" x="1973" y="-119.5" font-family="Helvetica,sans-Serif" font-size="10.00">stdbool.h</text>
</a>
</g>
</g>
<!-- Node23&#45;&gt;Node24 -->
<g id="edge31" class="edge">
<title>Node23&#45;&gt;Node24</title>
<path fill="none" stroke="midnightblue" d="M1852.66,-168.44C1876.4,-159.48 1913.91,-145.31 1940.74,-135.18"/>
<polygon fill="midnightblue" stroke="midnightblue" points="1942.33,-138.32 1950.45,-131.52 1939.86,-131.77 1942.33,-138.32"/>
</g>
<!-- Node23&#45;&gt;Node25 -->
<g id="edge35" class="edge">
<title>Node23&#45;&gt;Node25</title>
<path fill="none" stroke="midnightblue" d="M1856.1,-187.58C1877.17,-195.23 1907,-207.72 1930,-224 1949.4,-237.73 1967.67,-258.14 1979.28,-272.42"/>
<polygon fill="midnightblue" stroke="midnightblue" points="1976.65,-274.74 1985.6,-280.4 1982.14,-270.39 1976.65,-274.74"/>
</g>
<!-- Node23&#45;&gt;Node28 -->
<g id="edge137" class="edge">
<title>Node23&#45;&gt;Node28</title>
<path fill="none" stroke="midnightblue" d="M1831.63,-187.89C1837.26,-221.65 1852.6,-343.39 1795,-412 1758,-456.08 1583.48,-494.2 1514.83,-507.74"/>
<polygon fill="midnightblue" stroke="midnightblue" points="1513.91,-504.36 1504.76,-509.7 1515.24,-511.23 1513.91,-504.36"/>
</g>
<!-- Node35 -->
<g id="node35" class="node">
<title>Node35</title>
<g id="a_node35"><a xlink:href="Metric_8h.html" target="_top" xlink:title=" ">
<polygon fill="none" stroke="black" points="1792,-112.5 1792,-131.5 1848,-131.5 1848,-112.5 1792,-112.5"/>
<text text-anchor="middle" x="1820" y="-119.5" font-family="Helvetica,sans-Serif" font-size="10.00">Metric.h</text>
</a>
</g>
</g>
<!-- Node23&#45;&gt;Node35 -->
<g id="edge130" class="edge">
<title>Node23&#45;&gt;Node35</title>
<path fill="none" stroke="midnightblue" d="M1828.35,-168.08C1827.02,-160.93 1825.12,-150.64 1823.46,-141.69"/>
<polygon fill="midnightblue" stroke="midnightblue" points="1826.88,-140.95 1821.62,-131.75 1820,-142.22 1826.88,-140.95"/>
</g>
<!-- Node25&#45;&gt;Node3 -->
<g id="edge39" class="edge">
<title>Node25&#45;&gt;Node3</title>
<path fill="none" stroke="midnightblue" d="M2000.64,-280.38C2009.7,-271.33 2024.37,-256.68 2037,-244 2095.33,-185.44 2097.24,-154.72 2168,-112 2199.31,-93.1 2239.21,-81.54 2269.54,-74.88"/>
<polygon fill="midnightblue" stroke="midnightblue" points="2270.36,-78.28 2279.43,-72.8 2268.93,-71.43 2270.36,-78.28"/>
</g>
<!-- Node25&#45;&gt;Node13 -->
<g id="edge40" class="edge">
<title>Node25&#45;&gt;Node13</title>
<path fill="none" stroke="midnightblue" d="M2011.78,-299.57C2055.4,-319.96 2156,-375.77 2156,-457 2156,-571 2156,-571 2156,-571 2156,-648.78 1883.04,-672.64 1777.22,-678.97"/>
<polygon fill="midnightblue" stroke="midnightblue" points="1777.01,-675.48 1767.23,-679.55 1777.41,-682.47 1777.01,-675.48"/>
</g>
<!-- Node25&#45;&gt;Node14 -->
<g id="edge36" class="edge">
<title>Node25&#45;&gt;Node14</title>
<path fill="none" stroke="midnightblue" d="M1999.41,-280.41C2006.28,-271.84 2016.01,-257.98 2020,-244 2030.56,-207.04 2062.37,-175.88 2013,-112 1989.34,-81.39 1944.33,-71.34 1912.36,-68.18"/>
<polygon fill="midnightblue" stroke="midnightblue" points="1912.31,-64.66 1902.07,-67.35 1911.75,-71.64 1912.31,-64.66"/>
</g>
<!-- Node25&#45;&gt;Node20 -->
<g id="edge38" class="edge">
<title>Node25&#45;&gt;Node20</title>
<path fill="none" stroke="midnightblue" d="M1988.33,-280.38C1982.5,-267.31 1970.22,-242.08 1955,-224 1929.79,-194.05 1923.38,-182.48 1887,-168 1773.02,-122.64 1387.63,-121.74 1267.84,-122.61"/>
<polygon fill="midnightblue" stroke="midnightblue" points="1267.7,-119.11 1257.73,-122.69 1267.76,-126.11 1267.7,-119.11"/>
</g>
<!-- Node25&#45;&gt;Node24 -->
<g id="edge37" class="edge">
<title>Node25&#45;&gt;Node24</title>
<path fill="none" stroke="midnightblue" d="M1995.6,-280.22C1999.06,-271.28 2004.03,-256.94 2006,-244 2011.7,-206.5 1994.36,-164 1982.7,-140.67"/>
<polygon fill="midnightblue" stroke="midnightblue" points="1985.72,-138.9 1977.99,-131.66 1979.51,-142.14 1985.72,-138.9"/>
</g>
<!-- Node25&#45;&gt;Node26 -->
<g id="edge41" class="edge">
<title>Node25&#45;&gt;Node26</title>
<path fill="none" stroke="midnightblue" d="M1943.74,-286.5C1773.3,-277.37 1202.32,-245.84 1051,-237.2"/>
<polygon fill="midnightblue" stroke="midnightblue" points="1051.03,-233.7 1040.84,-236.62 1050.63,-240.69 1051.03,-233.7"/>
</g>
<!-- Node26&#45;&gt;Node2 -->
<g id="edge54" class="edge">
<title>Node26&#45;&gt;Node2</title>
<path fill="none" stroke="midnightblue" d="M987.29,-234.3C940.38,-234.59 842.2,-240.7 771,-280 671.45,-334.96 656.61,-416.61 694,-524 768.17,-737.06 951.55,-648.93 1173,-692 1243.6,-705.73 1326.07,-721.11 1370.69,-729.87"/>
<polygon fill="midnightblue" stroke="midnightblue" points="1370.18,-733.34 1380.67,-731.84 1371.54,-726.47 1370.18,-733.34"/>
</g>
<!-- Node26&#45;&gt;Node3 -->
<g id="edge51" class="edge">
<title>Node26&#45;&gt;Node3</title>
<path fill="none" stroke="midnightblue" d="M1010.87,-224.42C1006.56,-210.96 1000.62,-184.68 1013,-168 1064.19,-99.01 1113.29,-126.29 1198,-112 1304.64,-94.01 2072.39,-73.23 2269.15,-68.16"/>
<polygon fill="midnightblue" stroke="midnightblue" points="2269.52,-71.65 2279.43,-67.9 2269.34,-64.65 2269.52,-71.65"/>
</g>
<!-- Node26&#45;&gt;Node8 -->
<g id="edge43" class="edge">
<title>Node26&#45;&gt;Node8</title>
<path fill="none" stroke="midnightblue" d="M992.99,-224.37C972.53,-215.76 940.69,-201.87 914,-188 807.67,-132.72 686.42,-56.32 637.82,-25.13"/>
<polygon fill="midnightblue" stroke="midnightblue" points="639.66,-22.14 629.35,-19.67 635.87,-28.03 639.66,-22.14"/>
</g>
<!-- Node26&#45;&gt;Node10 -->
<g id="edge44" class="edge">
<title>Node26&#45;&gt;Node10</title>
<path fill="none" stroke="midnightblue" d="M1009.59,-224.35C1003.74,-211.66 994.93,-187.41 1002,-168 1013.11,-137.47 1020.77,-128.09 1049,-112 1148.63,-55.19 1506.54,-22.92 1623.05,-13.75"/>
<polygon fill="midnightblue" stroke="midnightblue" points="1623.55,-17.22 1633.25,-12.95 1623,-10.24 1623.55,-17.22"/>
</g>
<!-- Node26&#45;&gt;Node13 -->
<g id="edge55" class="edge">
<title>Node26&#45;&gt;Node13</title>
<path fill="none" stroke="midnightblue" d="M987.15,-234.49C943.01,-234.87 853.83,-240.92 792,-280 677.92,-352.1 636.56,-499.66 745,-580 822.45,-637.38 1516.61,-671.42 1694.58,-679.25"/>
<polygon fill="midnightblue" stroke="midnightblue" points="1694.68,-682.76 1704.83,-679.7 1694.99,-675.77 1694.68,-682.76"/>
</g>
<!-- Node26&#45;&gt;Node15 -->
<g id="edge48" class="edge">
<title>Node26&#45;&gt;Node15</title>
<path fill="none" stroke="midnightblue" d="M1040.71,-229.74C1114.47,-220.75 1321.52,-195.51 1412.81,-184.39"/>
<polygon fill="midnightblue" stroke="midnightblue" points="1413.34,-187.85 1422.84,-183.16 1412.49,-180.9 1413.34,-187.85"/>
</g>
<!-- Node26&#45;&gt;Node17 -->
<g id="edge127" class="edge">
<title>Node26&#45;&gt;Node17</title>
<path fill="none" stroke="midnightblue" d="M987.22,-236.23C933.98,-240.4 817.06,-258.47 773,-336 719.42,-430.28 701.01,-498.9 773,-580 792.81,-602.31 973.13,-615.57 1073.86,-621.42"/>
<polygon fill="midnightblue" stroke="midnightblue" points="1073.76,-624.92 1083.94,-622 1074.16,-617.93 1073.76,-624.92"/>
</g>
<!-- Node26&#45;&gt;Node18 -->
<g id="edge42" class="edge">
<title>Node26&#45;&gt;Node18</title>
<path fill="none" stroke="midnightblue" d="M987.35,-230.64C914.94,-224.2 708.49,-205.62 537,-188 523.89,-186.65 509.61,-185.1 496.73,-183.66"/>
<polygon fill="midnightblue" stroke="midnightblue" points="497.09,-180.18 486.76,-182.54 496.3,-187.13 497.09,-180.18"/>
</g>
<!-- Node26&#45;&gt;Node19 -->
<g id="edge45" class="edge">
<title>Node26&#45;&gt;Node19</title>
<path fill="none" stroke="midnightblue" d="M987.23,-229.74C910.45,-220.41 689.61,-193.55 604.25,-183.17"/>
<polygon fill="midnightblue" stroke="midnightblue" points="604.41,-179.66 594.06,-181.93 603.56,-186.61 604.41,-179.66"/>
</g>
<!-- Node26&#45;&gt;Node20 -->
<g id="edge46" class="edge">
<title>Node26&#45;&gt;Node20</title>
<path fill="none" stroke="midnightblue" d="M1013.17,-224.49C1012.33,-210.64 1012.86,-183.22 1028,-168 1051.21,-144.67 1144.05,-131.8 1196.12,-126.29"/>
<polygon fill="midnightblue" stroke="midnightblue" points="1196.67,-129.75 1206.27,-125.25 1195.96,-122.79 1196.67,-129.75"/>
</g>
<!-- Node26&#45;&gt;Node21 -->
<g id="edge47" class="edge">
<title>Node26&#45;&gt;Node21</title>
<path fill="none" stroke="midnightblue" d="M987.32,-225.38C955.42,-216.26 901.72,-200.92 864.88,-190.4"/>
<polygon fill="midnightblue" stroke="midnightblue" points="865.55,-186.95 854.97,-187.56 863.63,-193.68 865.55,-186.95"/>
</g>
<!-- Node26&#45;&gt;Node22 -->
<g id="edge49" class="edge">
<title>Node26&#45;&gt;Node22</title>
<path fill="none" stroke="midnightblue" d="M987.4,-231.11C881.29,-223.57 486.22,-195.5 324.1,-183.98"/>
<polygon fill="midnightblue" stroke="midnightblue" points="323.99,-180.46 313.77,-183.25 323.49,-187.45 323.99,-180.46"/>
</g>
<!-- Node26&#45;&gt;Node23 -->
<g id="edge52" class="edge">
<title>Node26&#45;&gt;Node23</title>
<path fill="none" stroke="midnightblue" d="M1040.69,-231.23C1155.52,-223.63 1609.09,-193.62 1771.65,-182.86"/>
<polygon fill="midnightblue" stroke="midnightblue" points="1772.18,-186.33 1781.93,-182.18 1771.72,-179.35 1772.18,-186.33"/>
</g>
<!-- Node26&#45;&gt;Node25 -->
<g id="edge53" class="edge">
<title>Node26&#45;&gt;Node25</title>
<path fill="none" stroke="midnightblue" d="M1040.68,-236.35C1171.71,-243.28 1747.1,-275.03 1933.54,-285.58"/>
<polygon fill="midnightblue" stroke="midnightblue" points="1933.51,-289.08 1943.69,-286.15 1933.9,-282.09 1933.51,-289.08"/>
</g>
<!-- Node27 -->
<g id="node27" class="node">
<title>Node27</title>
<g id="a_node27"><a xlink:title=" ">
<polygon fill="none" stroke="#bfbfbf" points="1184.5,-168.5 1184.5,-187.5 1279.5,-187.5 1279.5,-168.5 1184.5,-168.5"/>
<text text-anchor="middle" x="1232" y="-175.5" font-family="Helvetica,sans-Serif" font-size="10.00">petscsystypes.h</text>
</a>
</g>
</g>
<!-- Node26&#45;&gt;Node27 -->
<g id="edge50" class="edge">
<title>Node26&#45;&gt;Node27</title>
<path fill="none" stroke="midnightblue" d="M1040.73,-226.38C1077.33,-217.31 1143.52,-200.92 1187.62,-189.99"/>
<polygon fill="midnightblue" stroke="midnightblue" points="1188.64,-193.35 1197.5,-187.55 1186.95,-186.55 1188.64,-193.35"/>
</g>
<!-- Node26&#45;&gt;Node28 -->
<g id="edge56" class="edge">
<title>Node26&#45;&gt;Node28</title>
<path fill="none" stroke="midnightblue" d="M1014.97,-243.57C1018.66,-272.19 1034.55,-365.27 1089,-412 1199.91,-507.19 1388.46,-514.69 1459.14,-513.9"/>
<polygon fill="midnightblue" stroke="midnightblue" points="1459.51,-517.4 1469.44,-513.72 1459.38,-510.4 1459.51,-517.4"/>
</g>
<!-- Node26&#45;&gt;Node29 -->
<g id="edge129" class="edge">
<title>Node26&#45;&gt;Node29</title>
<path fill="none" stroke="midnightblue" d="M1040.65,-242.94C1065.16,-250.74 1102.11,-263.83 1132,-280 1219.89,-327.55 1227.73,-361.57 1314,-412 1335.43,-424.53 1360.95,-436.15 1380.58,-444.44"/>
<polygon fill="midnightblue" stroke="midnightblue" points="1379.4,-447.74 1389.97,-448.35 1382.08,-441.28 1379.4,-447.74"/>
</g>
<!-- Node26&#45;&gt;Node30 -->
<g id="edge126" class="edge">
<title>Node26&#45;&gt;Node30</title>
<path fill="none" stroke="midnightblue" d="M993.77,-243.53C946.49,-262.78 834,-314.75 834,-401 834,-459 834,-459 834,-459 834,-491.4 843.07,-502.15 867,-524 884.42,-539.91 908.16,-550.5 928.63,-557.39"/>
<polygon fill="midnightblue" stroke="midnightblue" points="927.79,-560.79 938.38,-560.48 929.9,-554.12 927.79,-560.79"/>
</g>
<!-- Node32 -->
<g id="node32" class="node">
<title>Node32</title>
<g id="a_node32"><a xlink:href="ParticleMotion_8h.html" target="_top" xlink:title=" ">
<polygon fill="none" stroke="black" points="1640,-336.5 1640,-355.5 1736,-355.5 1736,-336.5 1640,-336.5"/>
<text text-anchor="middle" x="1688" y="-343.5" font-family="Helvetica,sans-Serif" font-size="10.00">ParticleMotion.h</text>
</a>
</g>
</g>
<!-- Node26&#45;&gt;Node32 -->
<g id="edge128" class="edge">
<title>Node26&#45;&gt;Node32</title>
<path fill="none" stroke="midnightblue" d="M1040.82,-239.38C1140.35,-255.62 1490.02,-312.69 1629.71,-335.49"/>
<polygon fill="midnightblue" stroke="midnightblue" points="1629.36,-338.98 1639.8,-337.13 1630.49,-332.07 1629.36,-338.98"/>
</g>
<!-- Node28&#45;&gt;Node3 -->
<g id="edge57" class="edge">
<title>Node28&#45;&gt;Node3</title>
<path fill="none" stroke="midnightblue" d="M1504.72,-513.46C1600.26,-515.03 2059.7,-510.99 2335,-300 2383.97,-262.47 2385.54,-229.24 2378,-168 2374.87,-142.54 2377.11,-134.05 2364,-112 2357.06,-100.33 2346.16,-89.89 2336.4,-82.01"/>
<polygon fill="midnightblue" stroke="midnightblue" points="2338.32,-79.07 2328.25,-75.77 2334.07,-84.63 2338.32,-79.07"/>
</g>
<!-- Node28&#45;&gt;Node13 -->
<g id="edge58" class="edge">
<title>Node28&#45;&gt;Node13</title>
<path fill="none" stroke="midnightblue" d="M1504.59,-517.33C1547.88,-524.04 1660.22,-547.51 1717,-616 1727.89,-629.14 1732.54,-648.28 1734.53,-662.39"/>
<polygon fill="midnightblue" stroke="midnightblue" points="1731.05,-662.86 1735.61,-672.42 1738.01,-662.1 1731.05,-662.86"/>
</g>
<!-- Node28&#45;&gt;Node29 -->
<g id="edge59" class="edge">
<title>Node28&#45;&gt;Node29</title>
<path fill="none" stroke="midnightblue" d="M1469.84,-504.32C1456.89,-496.26 1439.62,-484.08 1427.19,-474.37"/>
<polygon fill="midnightblue" stroke="midnightblue" points="1429.09,-471.41 1419.12,-467.83 1424.69,-476.85 1429.09,-471.41"/>
</g>
<!-- Node29&#45;&gt;Node2 -->
<g id="edge72" class="edge">
<title>Node29&#45;&gt;Node2</title>
<path fill="none" stroke="midnightblue" d="M1415.91,-467.64C1423.83,-485.93 1441,-530.09 1441,-569 1441,-627 1441,-627 1441,-627 1441,-661.19 1424.4,-698.24 1413.14,-719.43"/>
<polygon fill="midnightblue" stroke="midnightblue" points="1410.05,-717.78 1408.28,-728.23 1416.18,-721.17 1410.05,-717.78"/>
</g>
<!-- Node29&#45;&gt;Node3 -->
<g id="edge69" class="edge">
<title>Node29&#45;&gt;Node3</title>
<path fill="none" stroke="midnightblue" d="M1452.13,-450.72C1496.92,-443.28 1571.35,-429.63 1634,-412 1659.04,-404.95 1663.91,-398.85 1689,-392 1877.11,-340.63 1937.28,-373.26 2118,-300 2220.63,-258.4 2257.98,-233.61 2302,-132 2308.37,-117.3 2311.66,-99.36 2313.33,-86.06"/>
<polygon fill="midnightblue" stroke="midnightblue" points="2316.85,-86.07 2314.42,-75.76 2309.89,-85.33 2316.85,-86.07"/>
</g>
<!-- Node29&#45;&gt;Node8 -->
<g id="edge61" class="edge">
<title>Node29&#45;&gt;Node8</title>
<path fill="none" stroke="midnightblue" d="M1371.8,-456.2C1224.02,-453.04 711.07,-440.25 550,-412 458.95,-396.03 152,-383.44 152,-291 152,-291 152,-291 152,-121 152,-39.07 429.39,-18.07 555.22,-12.76"/>
<polygon fill="midnightblue" stroke="midnightblue" points="555.61,-16.25 565.46,-12.35 555.33,-9.26 555.61,-16.25"/>
</g>
<!-- Node29&#45;&gt;Node10 -->
<g id="edge62" class="edge">
<title>Node29&#45;&gt;Node10</title>
<path fill="none" stroke="midnightblue" d="M1409.25,-448.22C1398.19,-411.23 1360.13,-265.49 1414,-168 1459.19,-86.22 1566.94,-40.79 1623.66,-21.78"/>
<polygon fill="midnightblue" stroke="midnightblue" points="1624.88,-25.06 1633.3,-18.64 1622.71,-18.41 1624.88,-25.06"/>
</g>
<!-- Node29&#45;&gt;Node13 -->
<g id="edge73" class="edge">
<title>Node29&#45;&gt;Node13</title>
<path fill="none" stroke="midnightblue" d="M1445.79,-467.63C1468.97,-475.3 1499.37,-487.81 1523,-504 1591.45,-550.88 1587.69,-587.49 1655,-636 1673.01,-648.98 1695.31,-660.16 1712.11,-668.13"/>
<polygon fill="midnightblue" stroke="midnightblue" points="1710.75,-671.36 1721.29,-672.44 1713.73,-665.02 1710.75,-671.36"/>
</g>
<!-- Node29&#45;&gt;Node15 -->
<g id="edge66" class="edge">
<title>Node29&#45;&gt;Node15</title>
<path fill="none" stroke="midnightblue" d="M1417.14,-448.49C1427.02,-431.59 1448.33,-392.3 1456,-356 1467.94,-299.5 1462.89,-230.57 1459.36,-197.91"/>
<polygon fill="midnightblue" stroke="midnightblue" points="1462.79,-197.13 1458.16,-187.6 1455.84,-197.94 1462.79,-197.13"/>
</g>
<!-- Node29&#45;&gt;Node17 -->
<g id="edge92" class="edge">
<title>Node29&#45;&gt;Node17</title>
<path fill="none" stroke="midnightblue" d="M1397.95,-467.61C1353.88,-494.6 1218.04,-577.81 1163.76,-611.06"/>
<polygon fill="midnightblue" stroke="midnightblue" points="1161.89,-608.1 1155.19,-616.31 1165.54,-614.07 1161.89,-608.1"/>
</g>
<!-- Node29&#45;&gt;Node18 -->
<g id="edge60" class="edge">
<title>Node29&#45;&gt;Node18</title>
<path fill="none" stroke="midnightblue" d="M1371.88,-455.89C1300.61,-453.13 1147.69,-443.72 1023,-412 1012.88,-409.43 770.85,-312.38 607,-244 564.4,-226.22 515.37,-204.97 485.02,-191.72"/>
<polygon fill="midnightblue" stroke="midnightblue" points="486.05,-188.35 475.49,-187.55 483.25,-194.77 486.05,-188.35"/>
</g>
<!-- Node29&#45;&gt;Node19 -->
<g id="edge63" class="edge">
<title>Node29&#45;&gt;Node19</title>
<path fill="none" stroke="midnightblue" d="M1371.76,-454.88C1309.95,-450.84 1188.36,-439.83 1089,-412 907.65,-361.21 870.73,-323.47 700,-244 663.28,-226.91 621.51,-205.7 595.45,-192.25"/>
<polygon fill="midnightblue" stroke="midnightblue" points="596.76,-188.99 586.27,-187.51 593.55,-195.21 596.76,-188.99"/>
</g>
<!-- Node29&#45;&gt;Node20 -->
<g id="edge64" class="edge">
<title>Node29&#45;&gt;Node20</title>
<path fill="none" stroke="midnightblue" d="M1407.62,-448.45C1403.06,-439.45 1395.79,-424.84 1390,-412 1365.88,-358.5 1324.4,-214.81 1289,-168 1279.88,-155.94 1266.79,-145.3 1255.46,-137.4"/>
<polygon fill="midnightblue" stroke="midnightblue" points="1257.12,-134.3 1246.85,-131.68 1253.24,-140.13 1257.12,-134.3"/>
</g>
<!-- Node29&#45;&gt;Node21 -->
<g id="edge65" class="edge">
<title>Node29&#45;&gt;Node21</title>
<path fill="none" stroke="midnightblue" d="M1381.84,-448.48C1354.5,-440.36 1313.34,-427.16 1279,-412 1200.02,-377.14 1017.09,-260.82 939,-224 912.68,-211.59 881.94,-199.6 859.03,-191.12"/>
<polygon fill="midnightblue" stroke="midnightblue" points="860,-187.75 849.4,-187.59 857.59,-194.32 860,-187.75"/>
</g>
<!-- Node29&#45;&gt;Node22 -->
<g id="edge67" class="edge">
<title>Node29&#45;&gt;Node22</title>
<path fill="none" stroke="midnightblue" d="M1371.89,-456.37C1208.94,-453.27 596.97,-436.4 424,-356 347.39,-320.39 287.47,-233.76 264.35,-196.5"/>
<polygon fill="midnightblue" stroke="midnightblue" points="267.22,-194.5 259.04,-187.77 261.24,-198.14 267.22,-194.5"/>
</g>
<!-- Node29&#45;&gt;Node23 -->
<g id="edge70" class="edge">
<title>Node29&#45;&gt;Node23</title>
<path fill="none" stroke="midnightblue" d="M1424.97,-448.38C1484.7,-408.65 1733.59,-243.12 1808.55,-193.27"/>
<polygon fill="midnightblue" stroke="midnightblue" points="1810.79,-195.98 1817.18,-187.52 1806.92,-190.15 1810.79,-195.98"/>
</g>
<!-- Node29&#45;&gt;Node25 -->
<g id="edge71" class="edge">
<title>Node29&#45;&gt;Node25</title>
<path fill="none" stroke="midnightblue" d="M1443.55,-448.46C1490.02,-435.92 1579.63,-411.85 1656,-392 1719.01,-375.62 1735.53,-374.36 1798,-356 1854.94,-339.27 1920.18,-316.69 1958.65,-303.03"/>
<polygon fill="midnightblue" stroke="midnightblue" points="1960.05,-306.24 1968.29,-299.59 1957.69,-299.65 1960.05,-306.24"/>
</g>
<!-- Node29&#45;&gt;Node27 -->
<g id="edge68" class="edge">
<title>Node29&#45;&gt;Node27</title>
<path fill="none" stroke="midnightblue" d="M1396.93,-448.39C1383.79,-440.31 1364.87,-427.2 1352,-412 1293.16,-342.51 1252.98,-239.28 1238.25,-197.53"/>
<polygon fill="midnightblue" stroke="midnightblue" points="1241.49,-196.18 1234.91,-187.87 1234.87,-198.47 1241.49,-196.18"/>
</g>
<!-- Node29&#45;&gt;Node28 -->
<g id="edge74" class="edge">
<title>Node29&#45;&gt;Node28</title>
<path fill="none" stroke="midnightblue" d="M1429.13,-467.65C1442.14,-475.76 1459.54,-488.04 1472,-497.78"/>
<polygon fill="midnightblue" stroke="midnightblue" points="1470.1,-500.74 1480.06,-504.32 1474.51,-495.3 1470.1,-500.74"/>
</g>
<!-- Node29&#45;&gt;Node30 -->
<g id="edge75" class="edge">
<title>Node29&#45;&gt;Node30</title>
<path fill="none" stroke="midnightblue" d="M1377.78,-467.53C1298.67,-487.27 1103.17,-536.03 1015.17,-557.98"/>
<polygon fill="midnightblue" stroke="midnightblue" points="1014.09,-554.64 1005.24,-560.46 1015.79,-561.44 1014.09,-554.64"/>
</g>
<!-- Node29&#45;&gt;Node32 -->
<g id="edge93" class="edge">
<title>Node29&#45;&gt;Node32</title>
<path fill="none" stroke="midnightblue" d="M1435.55,-448.45C1459.82,-439.58 1498.69,-425.18 1532,-412 1532.78,-411.69 1613.03,-378.25 1658.11,-359.46"/>
<polygon fill="midnightblue" stroke="midnightblue" points="1659.53,-362.66 1667.42,-355.58 1656.84,-356.2 1659.53,-362.66"/>
</g>
<!-- Node33 -->
<g id="node33" class="node">
<title>Node33</title>
<g id="a_node33"><a xlink:href="BC__Handlers_8h.html" target="_top" xlink:title=" ">
<polygon fill="none" stroke="black" points="1698,-392.5 1698,-411.5 1786,-411.5 1786,-392.5 1698,-392.5"/>
<text text-anchor="middle" x="1742" y="-399.5" font-family="Helvetica,sans-Serif" font-size="10.00">BC_Handlers.h</text>
</a>
</g>
</g>
<!-- Node29&#45;&gt;Node33 -->
<g id="edge102" class="edge">
<title>Node29&#45;&gt;Node33</title>
<path fill="none" stroke="midnightblue" d="M1452.05,-449.66C1511.07,-439.59 1621.3,-421.54 1687.59,-411.09"/>
<polygon fill="midnightblue" stroke="midnightblue" points="1688.5,-414.49 1697.83,-409.48 1687.41,-407.57 1688.5,-414.49"/>
</g>
<!-- Node34 -->
<g id="node34" class="node">
<title>Node34</title>
<g id="a_node34"><a xlink:href="wallfunction_8h.html" target="_top" xlink:title=" ">
<polygon fill="none" stroke="black" points="1098,-392.5 1098,-411.5 1184,-411.5 1184,-392.5 1098,-392.5"/>
<text text-anchor="middle" x="1141" y="-399.5" font-family="Helvetica,sans-Serif" font-size="10.00">wallfunction.h</text>
</a>
</g>
</g>
<!-- Node29&#45;&gt;Node34 -->
<g id="edge106" class="edge">
<title>Node29&#45;&gt;Node34</title>
<path fill="none" stroke="midnightblue" d="M1371.84,-449.94C1323.03,-440.69 1240.99,-424.4 1188.94,-413.65"/>
<polygon fill="midnightblue" stroke="midnightblue" points="1189.45,-410.18 1178.95,-411.58 1188.03,-417.03 1189.45,-410.18"/>
</g>
<!-- Node30&#45;&gt;Node2 -->
<g id="edge88" class="edge">
<title>Node30&#45;&gt;Node2</title>
<path fill="none" stroke="midnightblue" d="M982.64,-579.58C1001.33,-593.05 1039.54,-619.34 1075,-636 1178.27,-684.53 1310.58,-716.97 1370.7,-730.24"/>
<polygon fill="midnightblue" stroke="midnightblue" points="1370.21,-733.71 1380.72,-732.42 1371.69,-726.87 1370.21,-733.71"/>
</g>
<!-- Node30&#45;&gt;Node3 -->
<g id="edge85" class="edge">
<title>Node30&#45;&gt;Node3</title>
<path fill="none" stroke="midnightblue" d="M1015.11,-568.65C1174.4,-566.25 1733.45,-548.03 2168,-412 2322.37,-363.68 2486,-396.75 2486,-235 2486,-235 2486,-235 2486,-177 2486,-117.27 2411.28,-88.44 2360.63,-75.76"/>
<polygon fill="midnightblue" stroke="midnightblue" points="2361.39,-72.34 2350.85,-73.43 2359.77,-79.15 2361.39,-72.34"/>
</g>
<!-- Node30&#45;&gt;Node8 -->
<g id="edge77" class="edge">
<title>Node30&#45;&gt;Node8</title>
<path fill="none" stroke="midnightblue" d="M926.89,-567.67C811.13,-563.82 500.76,-551.22 402,-524 216.82,-472.96 38,-483.08 38,-291 38,-291 38,-291 38,-121 38,-48.34 117.73,-74.46 188,-56 315.82,-22.43 471.32,-13.77 555.24,-11.62"/>
<polygon fill="midnightblue" stroke="midnightblue" points="555.45,-15.11 565.36,-11.38 555.28,-8.12 555.45,-15.11"/>
</g>
<!-- Node30&#45;&gt;Node10 -->
<g id="edge78" class="edge">
<title>Node30&#45;&gt;Node10</title>
<path fill="none" stroke="midnightblue" d="M926.92,-564.11C871.39,-557.46 773.28,-544.03 691,-524 415.52,-456.94 18.34,-485.46 128,-224 251.89,71.39 42.2,-152.11 967,-56 1216.88,-30.03 1519.12,-16.52 1622.92,-12.4"/>
<polygon fill="midnightblue" stroke="midnightblue" points="1623.33,-15.88 1633.18,-11.99 1623.05,-8.89 1623.33,-15.88"/>
</g>
<!-- Node30&#45;&gt;Node13 -->
<g id="edge89" class="edge">
<title>Node30&#45;&gt;Node13</title>
<path fill="none" stroke="midnightblue" d="M1015.02,-577.33C1150.82,-596.86 1562.05,-655.99 1694.45,-675.03"/>
<polygon fill="midnightblue" stroke="midnightblue" points="1694.19,-678.52 1704.58,-676.48 1695.18,-671.6 1694.19,-678.52"/>
</g>
<!-- Node30&#45;&gt;Node15 -->
<g id="edge84" class="edge">
<title>Node30&#45;&gt;Node15</title>
<path fill="none" stroke="midnightblue" d="M1015.36,-566.45C1124.62,-559.19 1402.09,-534.46 1461,-468 1533.06,-386.69 1498.51,-330.29 1476,-224 1474.02,-214.67 1470.11,-204.85 1466.35,-196.77"/>
<polygon fill="midnightblue" stroke="midnightblue" points="1469.4,-195.04 1461.83,-187.64 1463.13,-198.15 1469.4,-195.04"/>
</g>
<!-- Node30&#45;&gt;Node18 -->
<g id="edge76" class="edge">
<title>Node30&#45;&gt;Node18</title>
<path fill="none" stroke="midnightblue" d="M926.93,-565.28C887,-560.39 827.6,-549.22 782,-524 626.91,-438.24 502.33,-253.09 466.45,-196.07"/>
<polygon fill="midnightblue" stroke="midnightblue" points="469.37,-194.15 461.12,-187.5 463.43,-197.84 469.37,-194.15"/>
</g>
<!-- Node30&#45;&gt;Node19 -->
<g id="edge79" class="edge">
<title>Node30&#45;&gt;Node19</title>
<path fill="none" stroke="midnightblue" d="M926.92,-564.99C892.2,-560.01 843.97,-548.86 809,-524 682.35,-433.97 600.85,-254.53 577.17,-197.11"/>
<polygon fill="midnightblue" stroke="midnightblue" points="580.31,-195.55 573.32,-187.59 573.82,-198.17 580.31,-195.55"/>
</g>
<!-- Node30&#45;&gt;Node20 -->
<g id="edge80" class="edge">
<title>Node30&#45;&gt;Node20</title>
<path fill="none" stroke="midnightblue" d="M940.75,-560.49C922.87,-553.73 901.7,-542.29 891,-524 886.51,-516.33 888.04,-512.38 891,-504 906.97,-458.77 1126.31,-200.05 1162,-168 1175.45,-155.92 1192.47,-144.9 1206.37,-136.79"/>
<polygon fill="midnightblue" stroke="midnightblue" points="1208.43,-139.64 1215.4,-131.66 1204.98,-133.55 1208.43,-139.64"/>
</g>
<!-- Node30&#45;&gt;Node21 -->
<g id="edge81" class="edge">
<title>Node30&#45;&gt;Node21</title>
<path fill="none" stroke="midnightblue" d="M926.94,-562.32C898.38,-556.21 861.66,-544.81 835,-524 788.54,-487.74 780.43,-468.6 764,-412 747.65,-355.66 748.26,-336.52 764,-280 773.11,-247.29 796,-214.6 811,-195.61"/>
<polygon fill="midnightblue" stroke="midnightblue" points="813.86,-197.64 817.45,-187.68 808.42,-193.23 813.86,-197.64"/>
</g>
<!-- Node30&#45;&gt;Node22 -->
<g id="edge82" class="edge">
<title>Node30&#45;&gt;Node22</title>
<path fill="none" stroke="midnightblue" d="M926.62,-564.66C880.31,-559.1 806.2,-547.26 746,-524 520.26,-436.77 434.71,-429.26 279,-244 267.83,-230.71 261.32,-211.87 257.77,-197.9"/>
<polygon fill="midnightblue" stroke="midnightblue" points="261.13,-196.91 255.51,-187.93 254.3,-198.46 261.13,-196.91"/>
</g>
<!-- Node30&#45;&gt;Node23 -->
<g id="edge86" class="edge">
<title>Node30&#45;&gt;Node23</title>
<path fill="none" stroke="midnightblue" d="M1015.09,-567.34C1127.03,-562.82 1420.05,-548.89 1514,-524 1534.37,-518.6 1537.6,-512.25 1557,-504 1661.36,-459.62 1724.09,-500.5 1795,-412 1821.46,-378.97 1828.01,-247.12 1829.55,-197.77"/>
<polygon fill="midnightblue" stroke="midnightblue" points="1833.06,-197.68 1829.83,-187.59 1826.06,-197.49 1833.06,-197.68"/>
</g>
<!-- Node30&#45;&gt;Node25 -->
<g id="edge87" class="edge">
<title>Node30&#45;&gt;Node25</title>
<path fill="none" stroke="midnightblue" d="M1015.34,-567.81C1112.3,-564.71 1350.23,-554.39 1547,-524 1585.78,-518.01 1594.39,-511.04 1633,-504 1752.53,-482.21 1800.63,-531.85 1904,-468 1961.15,-432.7 1982.35,-347.89 1989.17,-309.93"/>
<polygon fill="midnightblue" stroke="midnightblue" points="1992.67,-310.2 1990.85,-299.76 1985.77,-309.06 1992.67,-310.2"/>
</g>
<!-- Node30&#45;&gt;Node26 -->
<g id="edge91" class="edge">
<title>Node30&#45;&gt;Node26</title>
<path fill="none" stroke="midnightblue" d="M926.96,-561.59C901.45,-555.11 870.44,-543.58 849,-524 825.07,-502.15 816,-491.4 816,-459 816,-459 816,-459 816,-401 816,-317.99 920.2,-266.73 977.55,-245.84"/>
<polygon fill="midnightblue" stroke="midnightblue" points="979.06,-249.02 987.34,-242.4 976.74,-242.41 979.06,-249.02"/>
</g>
<!-- Node30&#45;&gt;Node28 -->
<g id="edge90" class="edge">
<title>Node30&#45;&gt;Node28</title>
<path fill="none" stroke="midnightblue" d="M1015.44,-564.35C1118.95,-553.52 1373.79,-526.85 1458.85,-517.95"/>
<polygon fill="midnightblue" stroke="midnightblue" points="1459.44,-521.4 1469.03,-516.88 1458.72,-514.44 1459.44,-521.4"/>
</g>
<!-- Node31 -->
<g id="node31" class="node">
<title>Node31</title>
<g id="a_node31"><a xlink:title=" ">
<polygon fill="none" stroke="#bfbfbf" points="900.5,-504.5 900.5,-523.5 975.5,-523.5 975.5,-504.5 900.5,-504.5"/>
<text text-anchor="middle" x="938" y="-511.5" font-family="Helvetica,sans-Serif" font-size="10.00">petscerror.h</text>
</a>
</g>
</g>
<!-- Node30&#45;&gt;Node31 -->
<g id="edge83" class="edge">
<title>Node30&#45;&gt;Node31</title>
<path fill="none" stroke="midnightblue" d="M965.55,-560.08C960.99,-552.61 954.33,-541.72 948.71,-532.52"/>
<polygon fill="midnightblue" stroke="midnightblue" points="951.55,-530.46 943.35,-523.75 945.58,-534.11 951.55,-530.46"/>
</g>
<!-- Node32&#45;&gt;Node3 -->
<g id="edge99" class="edge">
<title>Node32&#45;&gt;Node3</title>
<path fill="none" stroke="midnightblue" d="M1736.02,-342.51C1821.01,-337.52 1994.11,-324.62 2049,-300 2164.81,-248.05 2267.06,-128.03 2302.11,-83.78"/>
<polygon fill="midnightblue" stroke="midnightblue" points="2304.98,-85.79 2308.39,-75.76 2299.47,-81.48 2304.98,-85.79"/>
</g>
<!-- Node32&#45;&gt;Node8 -->
<g id="edge95" class="edge">
<title>Node32&#45;&gt;Node8</title>
<path fill="none" stroke="midnightblue" d="M1685.09,-336.12C1680.62,-323.15 1671.26,-298.56 1659,-280 1617.14,-216.66 1599.35,-198.91 1530,-168 1229.91,-34.24 827.49,-13.97 676.54,-11.25"/>
<polygon fill="midnightblue" stroke="midnightblue" points="676.6,-7.75 666.54,-11.09 676.48,-14.75 676.6,-7.75"/>
</g>
<!-- Node32&#45;&gt;Node13 -->
<g id="edge100" class="edge">
<title>Node32&#45;&gt;Node13</title>
<path fill="none" stroke="midnightblue" d="M1736.01,-354.78C1757.88,-360.99 1781.79,-372.11 1795,-392 1853.98,-480.79 1778.04,-616.26 1747.59,-663.8"/>
<polygon fill="midnightblue" stroke="midnightblue" points="1744.56,-662.04 1742.01,-672.32 1750.41,-665.88 1744.56,-662.04"/>
</g>
<!-- Node32&#45;&gt;Node14 -->
<g id="edge94" class="edge">
<title>Node32&#45;&gt;Node14</title>
<path fill="none" stroke="midnightblue" d="M1702.14,-336.46C1714.07,-328.5 1730.65,-315.55 1740,-300 1784.15,-226.53 1729.61,-179.05 1783,-112 1797.34,-94 1820.67,-82.73 1840.37,-75.98"/>
<polygon fill="midnightblue" stroke="midnightblue" points="1841.52,-79.29 1849.99,-72.93 1839.4,-72.62 1841.52,-79.29"/>
</g>
<!-- Node32&#45;&gt;Node15 -->
<g id="edge97" class="edge">
<title>Node32&#45;&gt;Node15</title>
<path fill="none" stroke="midnightblue" d="M1675.91,-336.31C1638.4,-309.36 1523.81,-227.01 1477.12,-193.46"/>
<polygon fill="midnightblue" stroke="midnightblue" points="1479.14,-190.6 1468.97,-187.61 1475.05,-196.28 1479.14,-190.6"/>
</g>
<!-- Node32&#45;&gt;Node20 -->
<g id="edge98" class="edge">
<title>Node32&#45;&gt;Node20</title>
<path fill="none" stroke="midnightblue" d="M1682.07,-336.44C1661.16,-307.02 1587.42,-209.64 1500,-168 1423.09,-131.37 1321.35,-124.02 1268.07,-122.88"/>
<polygon fill="midnightblue" stroke="midnightblue" points="1267.82,-119.37 1257.77,-122.72 1267.71,-126.37 1267.82,-119.37"/>
</g>
<!-- Node32&#45;&gt;Node24 -->
<g id="edge96" class="edge">
<title>Node32&#45;&gt;Node24</title>
<path fill="none" stroke="midnightblue" d="M1708.91,-336.5C1727.74,-328.4 1755.8,-315.2 1778,-300 1852.08,-249.28 1927.24,-172.23 1958.24,-139.09"/>
<polygon fill="midnightblue" stroke="midnightblue" points="1960.91,-141.36 1965.14,-131.65 1955.78,-136.6 1960.91,-141.36"/>
</g>
<!-- Node32&#45;&gt;Node25 -->
<g id="edge101" class="edge">
<title>Node32&#45;&gt;Node25</title>
<path fill="none" stroke="midnightblue" d="M1736.17,-336.44C1789.87,-326.9 1876.69,-311.48 1934.05,-301.29"/>
<polygon fill="midnightblue" stroke="midnightblue" points="1934.82,-304.71 1944.06,-299.52 1933.6,-297.82 1934.82,-304.71"/>
</g>
<!-- Node33&#45;&gt;Node3 -->
<g id="edge103" class="edge">
<title>Node33&#45;&gt;Node3</title>
<path fill="none" stroke="midnightblue" d="M1786.15,-397.73C1904.14,-388.3 2223.71,-357.9 2310,-300 2380.78,-252.5 2374.52,-193.01 2348,-112 2344.51,-101.34 2337.43,-91.12 2330.71,-83.12"/>
<polygon fill="midnightblue" stroke="midnightblue" points="2333.3,-80.76 2324.02,-75.66 2328.1,-85.44 2333.3,-80.76"/>
</g>
<!-- Node33&#45;&gt;Node13 -->
<g id="edge105" class="edge">
<title>Node33&#45;&gt;Node13</title>
<path fill="none" stroke="midnightblue" d="M1741.82,-411.52C1740.99,-449.91 1737.59,-607.22 1736.41,-662.05"/>
<polygon fill="midnightblue" stroke="midnightblue" points="1732.9,-662.3 1736.19,-672.38 1739.9,-662.45 1732.9,-662.3"/>
</g>
<!-- Node33&#45;&gt;Node29 -->
<g id="edge104" class="edge">
<title>Node33&#45;&gt;Node29</title>
<path fill="none" stroke="midnightblue" d="M1697.88,-411.03C1636.57,-421.46 1526.16,-439.52 1461.92,-449.62"/>
<polygon fill="midnightblue" stroke="midnightblue" points="1461.35,-446.16 1452.02,-451.17 1462.44,-453.08 1461.35,-446.16"/>
</g>
<!-- Node34&#45;&gt;Node2 -->
<g id="edge119" class="edge">
<title>Node34&#45;&gt;Node2</title>
<path fill="none" stroke="midnightblue" d="M1147.7,-411.54C1182.48,-455.88 1342.79,-660.24 1389.93,-720.33"/>
<polygon fill="midnightblue" stroke="midnightblue" points="1387.33,-722.7 1396.26,-728.41 1392.84,-718.38 1387.33,-722.7"/>
</g>
<!-- Node34&#45;&gt;Node3 -->
<g id="edge116" class="edge">
<title>Node34&#45;&gt;Node3</title>
<path fill="none" stroke="midnightblue" d="M1184.12,-399.51C1345.82,-393.46 1915.41,-367.69 2082,-300 2189.55,-256.3 2215.58,-227.21 2282,-132 2292.28,-117.26 2301.31,-98.87 2307.32,-85.41"/>
<polygon fill="midnightblue" stroke="midnightblue" points="2310.7,-86.41 2311.45,-75.84 2304.27,-83.64 2310.7,-86.41"/>
</g>
<!-- Node34&#45;&gt;Node8 -->
<g id="edge108" class="edge">
<title>Node34&#45;&gt;Node8</title>
<path fill="none" stroke="midnightblue" d="M1097.76,-398.44C931.41,-387.44 342,-337.28 342,-179 342,-179 342,-179 342,-121 342,-74.36 480.44,-38.45 560.51,-21.58"/>
<polygon fill="midnightblue" stroke="midnightblue" points="561.37,-24.97 570.45,-19.52 559.94,-18.12 561.37,-24.97"/>
</g>
<!-- Node34&#45;&gt;Node10 -->
<g id="edge109" class="edge">
<title>Node34&#45;&gt;Node10</title>
<path fill="none" stroke="midnightblue" d="M1127.64,-392.42C1107.94,-379.83 1069.88,-355.69 1037,-336 978.31,-300.84 738.13,-222.87 779,-168 881.99,-29.75 1468.49,-13.21 1622.8,-11.26"/>
<polygon fill="midnightblue" stroke="midnightblue" points="1623.19,-14.75 1633.15,-11.14 1623.11,-7.75 1623.19,-14.75"/>
</g>
<!-- Node34&#45;&gt;Node13 -->
<g id="edge120" class="edge">
<title>Node34&#45;&gt;Node13</title>
<path fill="none" stroke="midnightblue" d="M1174.17,-411.55C1203.18,-419.5 1246.17,-432.45 1282,-448 1301.62,-456.52 1598.62,-626.94 1618,-636 1645.11,-648.67 1676.86,-660.62 1700.59,-669.02"/>
<polygon fill="midnightblue" stroke="midnightblue" points="1699.64,-672.4 1710.23,-672.39 1701.95,-665.79 1699.64,-672.4"/>
</g>
<!-- Node34&#45;&gt;Node15 -->
<g id="edge113" class="edge">
<title>Node34&#45;&gt;Node15</title>
<path fill="none" stroke="midnightblue" d="M1153.39,-392.3C1201.47,-358.52 1376.05,-235.87 1436.35,-193.51"/>
<polygon fill="midnightblue" stroke="midnightblue" points="1438.53,-196.25 1444.7,-187.64 1434.5,-190.53 1438.53,-196.25"/>
</g>
<!-- Node34&#45;&gt;Node17 -->
<g id="edge123" class="edge">
<title>Node34&#45;&gt;Node17</title>
<path fill="none" stroke="midnightblue" d="M1141,-411.88C1141,-444.85 1141,-560.64 1141,-606.3"/>
<polygon fill="midnightblue" stroke="midnightblue" points="1137.5,-606.3 1141,-616.3 1144.5,-606.3 1137.5,-606.3"/>
</g>
<!-- Node34&#45;&gt;Node18 -->
<g id="edge107" class="edge">
<title>Node34&#45;&gt;Node18</title>
<path fill="none" stroke="midnightblue" d="M1108.79,-392.46C1079.83,-384.38 1036.38,-371.24 1000,-356 982.4,-348.63 979.63,-343.3 962,-336 917.35,-317.51 604.91,-223.54 494.52,-190.51"/>
<polygon fill="midnightblue" stroke="midnightblue" points="495.37,-187.11 484.79,-187.6 493.37,-193.81 495.37,-187.11"/>
</g>
<!-- Node34&#45;&gt;Node19 -->
<g id="edge110" class="edge">
<title>Node34&#45;&gt;Node19</title>
<path fill="none" stroke="midnightblue" d="M1123.4,-392.32C1096.91,-379.39 1045.11,-354.59 1000,-336 854.39,-275.97 676.53,-214.8 603.61,-190.22"/>
<polygon fill="midnightblue" stroke="midnightblue" points="604.63,-186.87 594.04,-187 602.4,-193.51 604.63,-186.87"/>
</g>
<!-- Node34&#45;&gt;Node20 -->
<g id="edge111" class="edge">
<title>Node34&#45;&gt;Node20</title>
<path fill="none" stroke="midnightblue" d="M1140.15,-392.23C1137.43,-359.92 1131.58,-245.32 1176,-168 1183.31,-155.29 1195.71,-144.76 1206.99,-137.09"/>
<polygon fill="midnightblue" stroke="midnightblue" points="1209.12,-139.89 1215.68,-131.57 1205.36,-133.98 1209.12,-139.89"/>
</g>
<!-- Node34&#45;&gt;Node21 -->
<g id="edge112" class="edge">
<title>Node34&#45;&gt;Node21</title>
<path fill="none" stroke="midnightblue" d="M1133.54,-392.38C1121.99,-379.31 1098.73,-354.09 1076,-336 999.06,-274.77 896.93,-217.37 850.24,-192.28"/>
<polygon fill="midnightblue" stroke="midnightblue" points="851.87,-189.18 841.4,-187.56 848.57,-195.36 851.87,-189.18"/>
</g>
<!-- Node34&#45;&gt;Node22 -->
<g id="edge114" class="edge">
<title>Node34&#45;&gt;Node22</title>
<path fill="none" stroke="midnightblue" d="M1106.77,-392.43C968.74,-357.89 453.03,-228.81 298.22,-190.07"/>
<polygon fill="midnightblue" stroke="midnightblue" points="298.68,-186.57 288.13,-187.54 296.98,-193.36 298.68,-186.57"/>
</g>
<!-- Node34&#45;&gt;Node23 -->
<g id="edge117" class="edge">
<title>Node34&#45;&gt;Node23</title>
<path fill="none" stroke="midnightblue" d="M1167.59,-392.43C1274.27,-358.06 1671.4,-230.1 1793.83,-190.65"/>
<polygon fill="midnightblue" stroke="midnightblue" points="1795.05,-193.94 1803.49,-187.54 1792.9,-187.28 1795.05,-193.94"/>
</g>
<!-- Node34&#45;&gt;Node25 -->
<g id="edge118" class="edge">
<title>Node34&#45;&gt;Node25</title>
<path fill="none" stroke="midnightblue" d="M1184.16,-400.49C1283.71,-398.71 1536.8,-390.85 1745,-356 1765.29,-352.6 1885.95,-319.98 1950.81,-302.28"/>
<polygon fill="midnightblue" stroke="midnightblue" points="1951.99,-305.59 1960.72,-299.58 1950.15,-298.83 1951.99,-305.59"/>
</g>
<!-- Node34&#45;&gt;Node27 -->
<g id="edge115" class="edge">
<title>Node34&#45;&gt;Node27</title>
<path fill="none" stroke="midnightblue" d="M1144.57,-392.3C1158.01,-359.49 1205.81,-242.88 1224.47,-197.38"/>
<polygon fill="midnightblue" stroke="midnightblue" points="1227.8,-198.46 1228.36,-187.88 1221.33,-195.81 1227.8,-198.46"/>
</g>
<!-- Node34&#45;&gt;Node28 -->
<g id="edge121" class="edge">
<title>Node34&#45;&gt;Node28</title>
<path fill="none" stroke="midnightblue" d="M1184.35,-411.49C1221.03,-419.25 1274.7,-431.93 1320,-448 1339.86,-455.05 1343.52,-459.95 1363,-468 1395.74,-481.53 1434.19,-495.14 1459.49,-503.79"/>
<polygon fill="midnightblue" stroke="midnightblue" points="1458.56,-507.17 1469.15,-507.07 1460.81,-500.54 1458.56,-507.17"/>
</g>
<!-- Node34&#45;&gt;Node29 -->
<g id="edge125" class="edge">
<title>Node34&#45;&gt;Node29</title>
<path fill="none" stroke="midnightblue" d="M1184.24,-410.64C1233.35,-419.98 1313.07,-435.82 1364.04,-446.35"/>
<polygon fill="midnightblue" stroke="midnightblue" points="1363.65,-449.84 1374.15,-448.44 1365.07,-442.99 1363.65,-449.84"/>
</g>
<!-- Node34&#45;&gt;Node30 -->
<g id="edge122" class="edge">
<title>Node34&#45;&gt;Node30</title>
<path fill="none" stroke="midnightblue" d="M1132.23,-411.57C1105.15,-438.01 1022.6,-518.62 987.29,-553.09"/>
<polygon fill="midnightblue" stroke="midnightblue" points="984.85,-550.58 980.14,-560.08 989.74,-555.59 984.85,-550.58"/>
</g>
<!-- Node34&#45;&gt;Node32 -->
<g id="edge124" class="edge">
<title>Node34&#45;&gt;Node32</title>
<path fill="none" stroke="midnightblue" d="M1184.38,-396.72C1282.05,-387.08 1519.28,-363.66 1629.69,-352.76"/>
<polygon fill="midnightblue" stroke="midnightblue" points="1630.36,-356.21 1639.97,-351.74 1629.67,-349.24 1630.36,-356.21"/>
</g>
<!-- Node35&#45;&gt;Node3 -->
<g id="edge132" class="edge">
<title>Node35&#45;&gt;Node3</title>
<path fill="none" stroke="midnightblue" d="M1848.13,-117.81C1863.47,-116.07 1882.77,-113.9 1900,-112 2034.15,-97.18 2192.76,-80.11 2269.23,-71.9"/>
<polygon fill="midnightblue" stroke="midnightblue" points="2269.9,-75.35 2279.47,-70.8 2269.15,-68.39 2269.9,-75.35"/>
</g>
<!-- Node35&#45;&gt;Node10 -->
<g id="edge134" class="edge">
<title>Node35&#45;&gt;Node10</title>
<path fill="none" stroke="midnightblue" d="M1816.46,-112.16C1810.5,-98.33 1797.21,-71.56 1778,-56 1754.34,-36.84 1721.63,-25.22 1696.64,-18.61"/>
<polygon fill="midnightblue" stroke="midnightblue" points="1697.35,-15.18 1686.8,-16.15 1695.66,-21.97 1697.35,-15.18"/>
</g>
<!-- Node35&#45;&gt;Node13 -->
<g id="edge133" class="edge">
<title>Node35&#45;&gt;Node13</title>
<path fill="none" stroke="midnightblue" d="M1848.11,-131.63C1900.25,-149.42 2010.17,-195.72 2049,-280 2081.94,-351.5 2042,-378.27 2042,-457 2042,-571 2042,-571 2042,-571 2042,-626.68 1860.29,-661.87 1776.92,-675.08"/>
<polygon fill="midnightblue" stroke="midnightblue" points="1776.37,-671.62 1767.02,-676.62 1777.44,-678.54 1776.37,-671.62"/>
</g>
<!-- Node35&#45;&gt;Node14 -->
<g id="edge131" class="edge">
<title>Node35&#45;&gt;Node14</title>
<path fill="none" stroke="midnightblue" d="M1829,-112.32C1837.19,-104.42 1849.51,-92.55 1859.47,-82.94"/>
<polygon fill="midnightblue" stroke="midnightblue" points="1862.07,-85.29 1866.84,-75.83 1857.21,-80.26 1862.07,-85.29"/>
</g>
<!-- Node35&#45;&gt;Node26 -->
<g id="edge136" class="edge">
<title>Node35&#45;&gt;Node26</title>
<path fill="none" stroke="midnightblue" d="M1791.77,-123.8C1683.64,-127.07 1295.89,-140.48 1176,-168 1125.89,-179.5 1071.06,-204.3 1039.76,-219.73"/>
<polygon fill="midnightblue" stroke="midnightblue" points="1037.84,-216.77 1030.46,-224.38 1040.97,-223.03 1037.84,-216.77"/>
</g>
<!-- Node35&#45;&gt;Node28 -->
<g id="edge135" class="edge">
<title>Node35&#45;&gt;Node28</title>
<path fill="none" stroke="midnightblue" d="M1810.35,-131.68C1800.64,-140.54 1785.38,-154.83 1773,-168 1660.15,-288.06 1538.28,-445.59 1499.55,-496.42"/>
<polygon fill="midnightblue" stroke="midnightblue" points="1496.76,-494.32 1493.49,-504.4 1502.33,-498.55 1496.76,-494.32"/>
</g>
</g>
</svg>
