<?xml version="1.0" encoding="UTF-8" standalone="no"?>
<!DOCTYPE svg PUBLIC "-//W3C//DTD SVG 1.1//EN"
 "http://www.w3.org/Graphics/SVG/1.1/DTD/svg11.dtd">
<!-- Generated by graphviz version 2.43.0 (0)
 -->
<!-- Title: CalculateParticleCountPerCell Pages: 1 -->
<svg width="922pt" height="72pt"
 viewBox="0.00 0.00 922.00 71.50" xmlns="http://www.w3.org/2000/svg" xmlns:xlink="http://www.w3.org/1999/xlink">
<g id="graph0" class="graph" transform="scale(1 1) rotate(0) translate(4 67.5)">
<title>CalculateParticleCountPerCell</title>
<!-- Node1 -->
<g id="node1" class="node">
<title>Node1</title>
<g id="a_node1"><a xlink:title="Counts particles in each cell of the DMDA &#39;da&#39; and stores the result in user&#45;&gt;ParticleCount.">
<polygon fill="#bfbfbf" stroke="black" points="752,-28 752,-47 914,-47 914,-28 752,-28"/>
<text text-anchor="middle" x="833" y="-35" font-family="Helvetica,sans-Serif" font-size="10.00">CalculateParticleCountPerCell</text>
</a>
</g>
</g>
<!-- Node2 -->
<g id="node2" class="node">
<title>Node2</title>
<g id="a_node2"><a xlink:href="simulation_8c.html#a5cfb2f783604af7f20171d19f969d5d3" target="_top" xlink:title="Executes the main time&#45;marching loop for the coupled Euler&#45;Lagrange simulation.">
<polygon fill="none" stroke="black" points="77,-44 77,-63 188,-63 188,-44 77,-44"/>
<text text-anchor="middle" x="132.5" y="-51" font-family="Helvetica,sans-Serif" font-size="10.00">AdvanceSimulation</text>
</a>
</g>
</g>
<!-- Node1&#45;&gt;Node2 -->
<g id="edge1" class="edge">
<title>Node1&#45;&gt;Node2</title>
<path fill="none" stroke="midnightblue" d="M741.53,-39.57C594.51,-42.94 308.12,-49.5 188.29,-52.25"/>
<polygon fill="midnightblue" stroke="midnightblue" points="741.96,-43.06 751.87,-39.34 741.8,-36.07 741.96,-43.06"/>
</g>
<!-- Node4 -->
<g id="node4" class="node">
<title>Node4</title>
<g id="a_node4"><a xlink:href="group__scatter__module__internal.html#gac35f52bb41ee862f912a146e86f1affd" target="_top" xlink:title="Internal helper function to orchestrate the scatter operation (accumulate + normalize).">
<polygon fill="none" stroke="black" points="570,-0.5 570,-30.5 716,-30.5 716,-0.5 570,-0.5"/>
<text text-anchor="start" x="578" y="-18.5" font-family="Helvetica,sans-Serif" font-size="10.00">ScatterParticleFieldToEuler</text>
<text text-anchor="middle" x="643" y="-7.5" font-family="Helvetica,sans-Serif" font-size="10.00">Field_Internal</text>
</a>
</g>
</g>
<!-- Node1&#45;&gt;Node4 -->
<g id="edge3" class="edge">
<title>Node1&#45;&gt;Node4</title>
<path fill="none" stroke="midnightblue" d="M741.91,-26.96C733.28,-25.95 724.61,-24.93 716.19,-23.95"/>
<polygon fill="midnightblue" stroke="midnightblue" points="741.66,-30.45 752,-28.14 742.47,-23.5 741.66,-30.45"/>
</g>
<!-- Node3 -->
<g id="node3" class="node">
<title>Node3</title>
<g id="a_node3"><a xlink:href="picsolver_8c.html#a3c04138a5bfe5d72780bb7e82a18e627" target="_top" xlink:title=" ">
<polygon fill="none" stroke="black" points="0,-25 0,-44 41,-44 41,-25 0,-25"/>
<text text-anchor="middle" x="20.5" y="-32" font-family="Helvetica,sans-Serif" font-size="10.00">main</text>
</a>
</g>
</g>
<!-- Node2&#45;&gt;Node3 -->
<g id="edge2" class="edge">
<title>Node2&#45;&gt;Node3</title>
<path fill="none" stroke="midnightblue" d="M66.94,-42.35C57.54,-40.73 48.53,-39.17 41.05,-37.88"/>
<polygon fill="midnightblue" stroke="midnightblue" points="66.37,-45.8 76.82,-44.06 67.56,-38.9 66.37,-45.8"/>
</g>
<!-- Node5 -->
<g id="node5" class="node">
<title>Node5</title>
<g id="a_node5"><a xlink:href="group__scatter__module.html#gaa6642e53fe1be75dcc180dab3cf3f692" target="_top" xlink:title="Scatters a particle field (scalar or vector) to the corresponding Eulerian field average.">
<polygon fill="none" stroke="black" points="388,-0.5 388,-30.5 534,-30.5 534,-0.5 388,-0.5"/>
<text text-anchor="start" x="396" y="-18.5" font-family="Helvetica,sans-Serif" font-size="10.00">ScatterParticleFieldToEuler</text>
<text text-anchor="middle" x="461" y="-7.5" font-family="Helvetica,sans-Serif" font-size="10.00">Field</text>
</a>
</g>
</g>
<!-- Node4&#45;&gt;Node5 -->
<g id="edge4" class="edge">
<title>Node4&#45;&gt;Node5</title>
<path fill="none" stroke="midnightblue" d="M559.56,-15.5C551.09,-15.5 542.54,-15.5 534.19,-15.5"/>
<polygon fill="midnightblue" stroke="midnightblue" points="559.82,-19 569.82,-15.5 559.82,-12 559.82,-19"/>
</g>
<!-- Node6 -->
<g id="node6" class="node">
<title>Node6</title>
<g id="a_node6"><a xlink:href="group__scatter__module.html#ga84b852e1186804ff34e9228fab1764c6" target="_top" xlink:title="Scatters a predefined set of particle fields to their corresponding Eulerian fields.">
<polygon fill="none" stroke="black" points="224,-0.5 224,-30.5 352,-30.5 352,-0.5 224,-0.5"/>
<text text-anchor="start" x="232" y="-18.5" font-family="Helvetica,sans-Serif" font-size="10.00">ScatterAllParticleFields</text>
<text text-anchor="middle" x="288" y="-7.5" font-family="Helvetica,sans-Serif" font-size="10.00">ToEulerFields</text>
</a>
</g>
</g>
<!-- Node5&#45;&gt;Node6 -->
<g id="edge5" class="edge">
<title>Node5&#45;&gt;Node6</title>
<path fill="none" stroke="midnightblue" d="M377.9,-15.5C369.28,-15.5 360.62,-15.5 352.26,-15.5"/>
<polygon fill="midnightblue" stroke="midnightblue" points="377.98,-19 387.98,-15.5 377.98,-12 377.98,-19"/>
</g>
<!-- Node6&#45;&gt;Node2 -->
<g id="edge6" class="edge">
<title>Node6&#45;&gt;Node2</title>
<path fill="none" stroke="midnightblue" d="M216.39,-32.98C201.14,-36.75 185.57,-40.61 172.1,-43.94"/>
<polygon fill="midnightblue" stroke="midnightblue" points="217.47,-36.32 226.33,-30.52 215.78,-29.52 217.47,-36.32"/>
</g>
<!-- Node7 -->
<g id="node7" class="node">
<title>Node7</title>
<g id="a_node7"><a xlink:href="simulation_8c.html#a4e2cad25ac1fbdc6745d6fd8fcc1bbc1" target="_top" xlink:title="Finalizes the simulation setup at t=0, ensuring a consistent state before time marching.">
<polygon fill="none" stroke="black" points="77,-6 77,-25 188,-25 188,-6 77,-6"/>
<text text-anchor="middle" x="132.5" y="-13" font-family="Helvetica,sans-Serif" font-size="10.00">PerformInitialSetup</text>
</a>
</g>
</g>
<!-- Node6&#45;&gt;Node7 -->
<g id="edge7" class="edge">
<title>Node6&#45;&gt;Node7</title>
<path fill="none" stroke="midnightblue" d="M213.43,-15.5C204.98,-15.5 196.48,-15.5 188.34,-15.5"/>
<polygon fill="midnightblue" stroke="midnightblue" points="213.68,-19 223.68,-15.5 213.68,-12 213.68,-19"/>
</g>
<!-- Node7&#45;&gt;Node3 -->
<g id="edge8" class="edge">
<title>Node7&#45;&gt;Node3</title>
<path fill="none" stroke="midnightblue" d="M66.94,-26.65C57.54,-28.27 48.53,-29.83 41.05,-31.12"/>
<polygon fill="midnightblue" stroke="midnightblue" points="67.56,-30.1 76.82,-24.94 66.37,-23.2 67.56,-30.1"/>
</g>
</g>
</svg>
