<?xml version="1.0" encoding="UTF-8" standalone="no"?>
<!DOCTYPE svg PUBLIC "-//W3C//DTD SVG 1.1//EN"
 "http://www.w3.org/Graphics/SVG/1.1/DTD/svg11.dtd">
<!-- Generated by graphviz version 2.43.0 (0)
 -->
<!-- Title: GetScatterTargetInfo Pages: 1 -->
<svg width="695pt" height="66pt"
 viewBox="0.00 0.00 695.00 66.00" xmlns="http://www.w3.org/2000/svg" xmlns:xlink="http://www.w3.org/1999/xlink">
<g id="graph0" class="graph" transform="scale(1 1) rotate(0) translate(4 62)">
<title>GetScatterTargetInfo</title>
<!-- Node1 -->
<g id="node1" class="node">
<title>Node1</title>
<g id="a_node1"><a xlink:title="Determines the target Eulerian DM and expected DOF for scattering a given particle field.">
<polygon fill="#bfbfbf" stroke="black" points="570,-19.5 570,-38.5 687,-38.5 687,-19.5 570,-19.5"/>
<text text-anchor="middle" x="628.5" y="-26.5" font-family="Helvetica,sans-Serif" font-size="10.00">GetScatterTargetInfo</text>
</a>
</g>
</g>
<!-- Node2 -->
<g id="node2" class="node">
<title>Node2</title>
<g id="a_node2"><a xlink:href="group__scatter__module.html#gaa6642e53fe1be75dcc180dab3cf3f692" target="_top" xlink:title="Scatters a particle field (scalar or vector) to the corresponding Eulerian field average.">
<polygon fill="none" stroke="black" points="388,-14 388,-44 534,-44 534,-14 388,-14"/>
<text text-anchor="start" x="396" y="-32" font-family="Helvetica,sans-Serif" font-size="10.00">ScatterParticleFieldToEuler</text>
<text text-anchor="middle" x="461" y="-21" font-family="Helvetica,sans-Serif" font-size="10.00">Field</text>
</a>
</g>
</g>
<!-- Node1&#45;&gt;Node2 -->
<g id="edge1" class="edge">
<title>Node1&#45;&gt;Node2</title>
<path fill="none" stroke="midnightblue" d="M559.52,-29C551.14,-29 542.55,-29 534.11,-29"/>
<polygon fill="midnightblue" stroke="midnightblue" points="559.62,-32.5 569.62,-29 559.62,-25.5 559.62,-32.5"/>
</g>
<!-- Node3 -->
<g id="node3" class="node">
<title>Node3</title>
<g id="a_node3"><a xlink:href="group__scatter__module.html#ga84b852e1186804ff34e9228fab1764c6" target="_top" xlink:title="Scatters a predefined set of particle fields to their corresponding Eulerian fields.">
<polygon fill="none" stroke="black" points="224,-14 224,-44 352,-44 352,-14 224,-14"/>
<text text-anchor="start" x="232" y="-32" font-family="Helvetica,sans-Serif" font-size="10.00">ScatterAllParticleFields</text>
<text text-anchor="middle" x="288" y="-21" font-family="Helvetica,sans-Serif" font-size="10.00">ToEulerFields</text>
</a>
</g>
</g>
<!-- Node2&#45;&gt;Node3 -->
<g id="edge2" class="edge">
<title>Node2&#45;&gt;Node3</title>
<path fill="none" stroke="midnightblue" d="M377.9,-29C369.28,-29 360.62,-29 352.26,-29"/>
<polygon fill="midnightblue" stroke="midnightblue" points="377.98,-32.5 387.98,-29 377.98,-25.5 377.98,-32.5"/>
</g>
<!-- Node4 -->
<g id="node4" class="node">
<title>Node4</title>
<g id="a_node4"><a xlink:href="simulation_8c.html#a5cfb2f783604af7f20171d19f969d5d3" target="_top" xlink:title="Executes the main time&#45;marching loop for the coupled Euler&#45;Lagrange simulation.">
<polygon fill="none" stroke="black" points="77,-38.5 77,-57.5 188,-57.5 188,-38.5 77,-38.5"/>
<text text-anchor="middle" x="132.5" y="-45.5" font-family="Helvetica,sans-Serif" font-size="10.00">AdvanceSimulation</text>
</a>
</g>
</g>
<!-- Node3&#45;&gt;Node4 -->
<g id="edge3" class="edge">
<title>Node3&#45;&gt;Node4</title>
<path fill="none" stroke="midnightblue" d="M213.71,-38.07C205.17,-39.13 196.57,-40.19 188.34,-41.21"/>
<polygon fill="midnightblue" stroke="midnightblue" points="214.19,-41.54 223.68,-36.84 213.33,-34.59 214.19,-41.54"/>
</g>
<!-- Node6 -->
<g id="node6" class="node">
<title>Node6</title>
<g id="a_node6"><a xlink:href="simulation_8c.html#a4e2cad25ac1fbdc6745d6fd8fcc1bbc1" target="_top" xlink:title="Finalizes the simulation setup at t=0, ensuring a consistent state before time marching.">
<polygon fill="none" stroke="black" points="77,-0.5 77,-19.5 188,-19.5 188,-0.5 77,-0.5"/>
<text text-anchor="middle" x="132.5" y="-7.5" font-family="Helvetica,sans-Serif" font-size="10.00">PerformInitialSetup</text>
</a>
</g>
</g>
<!-- Node3&#45;&gt;Node6 -->
<g id="edge5" class="edge">
<title>Node3&#45;&gt;Node6</title>
<path fill="none" stroke="midnightblue" d="M213.71,-19.93C205.17,-18.87 196.57,-17.81 188.34,-16.79"/>
<polygon fill="midnightblue" stroke="midnightblue" points="213.33,-23.41 223.68,-21.16 214.19,-16.46 213.33,-23.41"/>
</g>
<!-- Node5 -->
<g id="node5" class="node">
<title>Node5</title>
<g id="a_node5"><a xlink:href="picsolver_8c.html#a3c04138a5bfe5d72780bb7e82a18e627" target="_top" xlink:title=" ">
<polygon fill="none" stroke="black" points="0,-19.5 0,-38.5 41,-38.5 41,-19.5 0,-19.5"/>
<text text-anchor="middle" x="20.5" y="-26.5" font-family="Helvetica,sans-Serif" font-size="10.00">main</text>
</a>
</g>
</g>
<!-- Node4&#45;&gt;Node5 -->
<g id="edge4" class="edge">
<title>Node4&#45;&gt;Node5</title>
<path fill="none" stroke="midnightblue" d="M66.94,-36.85C57.54,-35.23 48.53,-33.67 41.05,-32.38"/>
<polygon fill="midnightblue" stroke="midnightblue" points="66.37,-40.3 76.82,-38.56 67.56,-33.4 66.37,-40.3"/>
</g>
<!-- Node6&#45;&gt;Node5 -->
<g id="edge6" class="edge">
<title>Node6&#45;&gt;Node5</title>
<path fill="none" stroke="midnightblue" d="M66.94,-21.15C57.54,-22.77 48.53,-24.33 41.05,-25.62"/>
<polygon fill="midnightblue" stroke="midnightblue" points="67.56,-24.6 76.82,-19.44 66.37,-17.7 67.56,-24.6"/>
</g>
</g>
</svg>
