<?xml version="1.0" encoding="UTF-8" standalone="no"?>
<!DOCTYPE svg PUBLIC "-//W3C//DTD SVG 1.1//EN"
 "http://www.w3.org/Graphics/SVG/1.1/DTD/svg11.dtd">
<!-- Generated by graphviz version 2.43.0 (0)
 -->
<!-- Title: ScatterAllParticleFieldsToEulerFields Pages: 1 -->
<!--zoomable 110 -->
<svg id="main" version="1.1" xmlns="http://www.w3.org/2000/svg" xmlns:xlink="http://www.w3.org/1999/xlink" xml:space="preserve" onload="init(evt)">
<style type="text/css"><![CDATA[
.edge:hover path { stroke: red; }
.edge:hover polygon { stroke: red; fill: red; }
]]></style>
<script type="text/javascript"><![CDATA[
var edges = document.getElementsByTagName('g');
if (edges && edges.length) {
  for (var i=0;i<edges.length;i++) {
    if (edges[i].id.substr(0,4)=='edge') {
      edges[i].setAttribute('class','edge');
    }
  }
}
]]></script>
        <defs>
                <circle id="rim" cx="0" cy="0" r="7"/>
                <circle id="rim2" cx="0" cy="0" r="3.5"/>
                <g id="zoomPlus">
                        <use xlink:href="#rim" fill="#404040">
                                <set attributeName="fill" to="#808080" begin="zoomplus.mouseover" end="zoomplus.mouseout"/>
                        </use>
                        <path d="M-4,0h8M0,-4v8" fill="none" stroke="white" stroke-width="1.5" pointer-events="none"/>
                </g>
                <g id="zoomMin">
                        <use xlink:href="#rim" fill="#404040">
                                <set attributeName="fill" to="#808080" begin="zoomminus.mouseover" end="zoomminus.mouseout"/>
                        </use>
                        <path d="M-4,0h8" fill="none" stroke="white" stroke-width="1.5" pointer-events="none"/>
                </g>
                <g id="dirArrow">
                        <path fill="none" stroke="white" stroke-width="1.5" d="M0,-3.0v7 M-2.5,-0.5L0,-3.0L2.5,-0.5"/>
                </g>
               <g id="resetDef">
                       <use xlink:href="#rim2" fill="#404040">
                               <set attributeName="fill" to="#808080" begin="reset.mouseover" end="reset.mouseout"/>
                       </use>
               </g>
        </defs>

<script type="text/javascript">
var viewWidth = 698;
var viewHeight = 110;
var sectionId = 'dynsection-3';
</script>
<script xlink:href="svgpan.js"/>
<svg id="graph" class="graph">
<g id="viewport">
<title>ScatterAllParticleFieldsToEulerFields</title>
<!-- Node1 -->
<g id="node1" class="node">
<title>Node1</title>
<g id="a_node1"><a xlink:title="Scatters a predefined set of particle fields to their corresponding Eulerian fields.">
<polygon fill="#bfbfbf" stroke="black" points="0,-55 0,-85 128,-85 128,-55 0,-55"/>
<text text-anchor="start" x="8" y="-73" font-family="Helvetica,sans-Serif" font-size="10.00">ScatterAllParticleFields</text>
<text text-anchor="middle" x="64" y="-62" font-family="Helvetica,sans-Serif" font-size="10.00">ToEulerFields</text>
</a>
</g>
</g>
<!-- Node2 -->
<g id="node2" class="node">
<title>Node2</title>
<g id="a_node2"><a xlink:href="group__scatter__module.html#gaa6642e53fe1be75dcc180dab3cf3f692" target="_top" xlink:title="Scatters a particle field (scalar or vector) to the corresponding Eulerian field average.">
<polygon fill="none" stroke="black" points="164,-55 164,-85 310,-85 310,-55 164,-55"/>
<text text-anchor="start" x="172" y="-73" font-family="Helvetica,sans-Serif" font-size="10.00">ScatterParticleFieldToEuler</text>
<text text-anchor="middle" x="237" y="-62" font-family="Helvetica,sans-Serif" font-size="10.00">Field</text>
</a>
</g>
</g>
<!-- Node1&#45;&gt;Node2 -->
<g id="edge1" class="edge">
<title>Node1&#45;&gt;Node2</title>
<path fill="none" stroke="midnightblue" d="M128.19,-70C136.53,-70 145.18,-70 153.78,-70"/>
<polygon fill="midnightblue" stroke="midnightblue" points="153.84,-73.5 163.84,-70 153.84,-66.5 153.84,-73.5"/>
</g>
<!-- Node3 -->
<g id="node3" class="node">
<title>Node3</title>
<g id="a_node3"><a xlink:href="group__scatter__module__internal.html#ga16dc04f7710ac752691f269400381913" target="_top" xlink:title="Determines the target Eulerian DM and expected DOF for scattering a given particle field.">
<polygon fill="none" stroke="black" points="360.5,-82.5 360.5,-101.5 477.5,-101.5 477.5,-82.5 360.5,-82.5"/>
<text text-anchor="middle" x="419" y="-89.5" font-family="Helvetica,sans-Serif" font-size="10.00">GetScatterTargetInfo</text>
</a>
</g>
</g>
<!-- Node2&#45;&gt;Node3 -->
<g id="edge2" class="edge">
<title>Node2&#45;&gt;Node3</title>
<path fill="none" stroke="midnightblue" d="M310.18,-78.82C323.37,-80.43 337.1,-82.11 350.17,-83.71"/>
<polygon fill="midnightblue" stroke="midnightblue" points="350.13,-87.23 360.48,-84.97 350.98,-80.28 350.13,-87.23"/>
</g>
<!-- Node4 -->
<g id="node4" class="node">
<title>Node4</title>
<g id="a_node4"><a xlink:href="group__scatter__module__internal.html#gac35f52bb41ee862f912a146e86f1affd" target="_top" xlink:title="Internal helper function to orchestrate the scatter operation (accumulate + normalize).">
<polygon fill="none" stroke="black" points="346,-33 346,-63 492,-63 492,-33 346,-33"/>
<text text-anchor="start" x="354" y="-51" font-family="Helvetica,sans-Serif" font-size="10.00">ScatterParticleFieldToEuler</text>
<text text-anchor="middle" x="419" y="-40" font-family="Helvetica,sans-Serif" font-size="10.00">Field_Internal</text>
</a>
</g>
</g>
<!-- Node2&#45;&gt;Node4 -->
<g id="edge3" class="edge">
<title>Node2&#45;&gt;Node4</title>
<path fill="none" stroke="midnightblue" d="M310.18,-61.18C318.61,-60.15 327.27,-59.09 335.82,-58.04"/>
<polygon fill="midnightblue" stroke="midnightblue" points="336.31,-61.51 345.81,-56.82 335.46,-54.56 336.31,-61.51"/>
</g>
<!-- Node5 -->
<g id="node5" class="node">
<title>Node5</title>
<g id="a_node5"><a xlink:href="group__scatter__module__internal.html#gaa0d28beb3e582a9140180983a227bc1c" target="_top" xlink:title="Accumulates a particle field (scalar or vector) into a target grid sum vector.">
<polygon fill="none" stroke="black" points="542,-76.5 542,-95.5 676,-95.5 676,-76.5 542,-76.5"/>
<text text-anchor="middle" x="609" y="-83.5" font-family="Helvetica,sans-Serif" font-size="10.00">AccumulateParticleField</text>
</a>
</g>
</g>
<!-- Node4&#45;&gt;Node5 -->
<g id="edge4" class="edge">
<title>Node4&#45;&gt;Node5</title>
<path fill="none" stroke="midnightblue" d="M492.15,-62.58C511.54,-66.5 532.25,-70.69 550.72,-74.42"/>
<polygon fill="midnightblue" stroke="midnightblue" points="550.23,-77.89 560.73,-76.44 551.62,-71.03 550.23,-77.89"/>
</g>
<!-- Node6 -->
<g id="node6" class="node">
<title>Node6</title>
<g id="a_node6"><a xlink:href="group__scatter__module.html#ga81cfdf7b32472d8f614b44e30005ec6c" target="_top" xlink:title="Counts particles in each cell of the DMDA &#39;da&#39; and stores the result in user&#45;&gt;ParticleCount.">
<polygon fill="none" stroke="black" points="528,-38.5 528,-57.5 690,-57.5 690,-38.5 528,-38.5"/>
<text text-anchor="middle" x="609" y="-45.5" font-family="Helvetica,sans-Serif" font-size="10.00">CalculateParticleCountPerCell</text>
</a>
</g>
</g>
<!-- Node4&#45;&gt;Node6 -->
<g id="edge5" class="edge">
<title>Node4&#45;&gt;Node6</title>
<path fill="none" stroke="midnightblue" d="M492.15,-48C500.56,-48 509.22,-48 517.83,-48"/>
<polygon fill="midnightblue" stroke="midnightblue" points="517.9,-51.5 527.9,-48 517.9,-44.5 517.9,-51.5"/>
</g>
<!-- Node7 -->
<g id="node7" class="node">
<title>Node7</title>
<g id="a_node7"><a xlink:href="group__scatter__module__internal.html#ga95939f29ec3dfbb729bcceee7f138958" target="_top" xlink:title="Normalizes a grid vector of sums by a grid vector of counts to produce an average.">
<polygon fill="none" stroke="black" points="529,-0.5 529,-19.5 689,-19.5 689,-0.5 529,-0.5"/>
<text text-anchor="middle" x="609" y="-7.5" font-family="Helvetica,sans-Serif" font-size="10.00">NormalizeGridVectorByCount</text>
</a>
</g>
</g>
<!-- Node4&#45;&gt;Node7 -->
<g id="edge6" class="edge">
<title>Node4&#45;&gt;Node7</title>
<path fill="none" stroke="midnightblue" d="M492.15,-33.42C511.54,-29.5 532.25,-25.31 550.72,-21.58"/>
<polygon fill="midnightblue" stroke="midnightblue" points="551.62,-24.97 560.73,-19.56 550.23,-18.11 551.62,-24.97"/>
</g>
</g>
</svg>
        <g id="navigator" transform="translate(0 0)" fill="#404254">
                <rect fill="#f2f5e9" fill-opacity="0.5" stroke="#606060" stroke-width=".5" x="0" y="0" width="60" height="60"/>
                <use id="zoomplus" xlink:href="#zoomPlus" x="17" y="9" onmousedown="handleZoom(evt,'in')"/>
                <use id="zoomminus" xlink:href="#zoomMin" x="42" y="9" onmousedown="handleZoom(evt,'out')"/>
                <use id="reset" xlink:href="#resetDef" x="30" y="36" onmousedown="handleReset()"/>
                <g id="arrowUp" xlink:href="#dirArrow" transform="translate(30 24)" onmousedown="handlePan(0,-1)">
                  <use xlink:href="#rim" fill="#404040">
                        <set attributeName="fill" to="#808080" begin="arrowUp.mouseover" end="arrowUp.mouseout"/>
                  </use>
                  <path fill="none" stroke="white" stroke-width="1.5" d="M0,-3.0v7 M-2.5,-0.5L0,-3.0L2.5,-0.5"/>
                </g>
                <g id="arrowRight" xlink:href="#dirArrow" transform="rotate(90) translate(36 -43)" onmousedown="handlePan(1,0)">
                  <use xlink:href="#rim" fill="#404040">
                        <set attributeName="fill" to="#808080" begin="arrowRight.mouseover" end="arrowRight.mouseout"/>
                  </use>
                  <path fill="none" stroke="white" stroke-width="1.5" d="M0,-3.0v7 M-2.5,-0.5L0,-3.0L2.5,-0.5"/>
                </g>
                <g id="arrowDown" xlink:href="#dirArrow" transform="rotate(180) translate(-30 -48)" onmousedown="handlePan(0,1)">
                  <use xlink:href="#rim" fill="#404040">
                        <set attributeName="fill" to="#808080" begin="arrowDown.mouseover" end="arrowDown.mouseout"/>
                  </use>
                  <path fill="none" stroke="white" stroke-width="1.5" d="M0,-3.0v7 M-2.5,-0.5L0,-3.0L2.5,-0.5"/>
                </g>
                <g id="arrowLeft" xlink:href="#dirArrow" transform="rotate(270) translate(-36 17)" onmousedown="handlePan(-1,0)">
                  <use xlink:href="#rim" fill="#404040">
                        <set attributeName="fill" to="#808080" begin="arrowLeft.mouseover" end="arrowLeft.mouseout"/>
                  </use>
                  <path fill="none" stroke="white" stroke-width="1.5" d="M0,-3.0v7 M-2.5,-0.5L0,-3.0L2.5,-0.5"/>
                </g>
        </g>
        <svg viewBox="0 0 15 15" width="100%" height="30px" preserveAspectRatio="xMaxYMin meet">
         <g id="arrow_out" transform="scale(0.3 0.3)">
          <a xlink:href="group__scatter__module_ga84b852e1186804ff34e9228fab1764c6_cgraph_org.svg" target="_base">
           <rect id="button" ry="5" rx="5" y="6" x="6" height="38" width="38"
                fill="#f2f5e9" fill-opacity="0.5" stroke="#606060" stroke-width="1.0"/>
           <path id="arrow"
             d="M 11.500037,31.436501 C 11.940474,20.09759 22.043105,11.32322 32.158766,21.979434 L 37.068811,17.246167 C 37.068811,17.246167 37.088388,32 37.088388,32 L 22.160133,31.978069 C 22.160133,31.978069 26.997745,27.140456 26.997745,27.140456 C 18.528582,18.264221 13.291696,25.230495 11.500037,31.436501 z"
             style="fill:#404040;"/>
          </a>
         </g>
        </svg>
</svg>
