<?xml version="1.0" encoding="UTF-8" standalone="no"?>
<!DOCTYPE svg PUBLIC "-//W3C//DTD SVG 1.1//EN"
 "http://www.w3.org/Graphics/SVG/1.1/DTD/svg11.dtd">
<!-- Generated by graphviz version 2.43.0 (0)
 -->
<!-- Title: ImpRK Pages: 1 -->
<svg width="319pt" height="142pt"
 viewBox="0.00 0.00 319.00 142.00" xmlns="http://www.w3.org/2000/svg" xmlns:xlink="http://www.w3.org/1999/xlink">
<g id="graph0" class="graph" transform="scale(1 1) rotate(0) translate(4 138)">
<title>ImpRK</title>
<!-- Node1 -->
<g id="node1" class="node">
<title>Node1</title>
<g id="a_node1"><a xlink:title="Advances the momentum equations using an iterative explicit Runge&#45;Kutta scheme.">
<polygon fill="#bfbfbf" stroke="black" points="0,-57.5 0,-76.5 49,-76.5 49,-57.5 0,-57.5"/>
<text text-anchor="middle" x="24.5" y="-64.5" font-family="Helvetica,sans-Serif" font-size="10.00">ImpRK</text>
</a>
</g>
</g>
<!-- Node2 -->
<g id="node2" class="node">
<title>Node2</title>
<g id="a_node2"><a xlink:href="Boundaries_8h.html#adcd96cff4b9e15e03cdff9f5ea695dec" target="_top" xlink:title=" ">
<polygon fill="none" stroke="black" points="99,-114.5 99,-133.5 160,-133.5 160,-114.5 99,-114.5"/>
<text text-anchor="middle" x="129.5" y="-121.5" font-family="Helvetica,sans-Serif" font-size="10.00">FormBCS</text>
</a>
</g>
</g>
<!-- Node1&#45;&gt;Node2 -->
<g id="edge1" class="edge">
<title>Node1&#45;&gt;Node2</title>
<path fill="none" stroke="midnightblue" d="M39.31,-76.7C51.14,-84.79 68.78,-96.35 85,-105 88.32,-106.77 91.84,-108.52 95.39,-110.19"/>
<polygon fill="midnightblue" stroke="midnightblue" points="94.15,-113.47 104.7,-114.41 97.04,-107.09 94.15,-113.47"/>
</g>
<!-- Node3 -->
<g id="node3" class="node">
<title>Node3</title>
<g id="a_node3"><a xlink:href="rhs_8h.html#ae8a0a7cb4587034d295f6c7f23d70465" target="_top" xlink:title="Computes the Right&#45;Hand Side (RHS) of the momentum equations.">
<polygon fill="none" stroke="black" points="85,-76.5 85,-95.5 174,-95.5 174,-76.5 85,-76.5"/>
<text text-anchor="middle" x="129.5" y="-83.5" font-family="Helvetica,sans-Serif" font-size="10.00">FormFunction1</text>
</a>
</g>
</g>
<!-- Node1&#45;&gt;Node3 -->
<g id="edge2" class="edge">
<title>Node1&#45;&gt;Node3</title>
<path fill="none" stroke="midnightblue" d="M49.13,-71.36C56.81,-72.78 65.68,-74.41 74.64,-76.06"/>
<polygon fill="midnightblue" stroke="midnightblue" points="74.27,-79.55 84.74,-77.93 75.54,-72.67 74.27,-79.55"/>
</g>
<!-- Node4 -->
<g id="node4" class="node">
<title>Node4</title>
<g id="a_node4"><a xlink:href="Boundaries_8h.html#abd9b573f8f42ea93e265da37a0673f24" target="_top" xlink:title=" ">
<polygon fill="none" stroke="black" points="95.5,-38.5 95.5,-57.5 163.5,-57.5 163.5,-38.5 95.5,-38.5"/>
<text text-anchor="middle" x="129.5" y="-45.5" font-family="Helvetica,sans-Serif" font-size="10.00">InflowFlux</text>
</a>
</g>
</g>
<!-- Node1&#45;&gt;Node4 -->
<g id="edge3" class="edge">
<title>Node1&#45;&gt;Node4</title>
<path fill="none" stroke="midnightblue" d="M49.13,-62.64C59.8,-60.67 72.76,-58.28 85.08,-56.01"/>
<polygon fill="midnightblue" stroke="midnightblue" points="86.02,-59.39 95.22,-54.14 84.75,-52.51 86.02,-59.39"/>
</g>
<!-- Node6 -->
<g id="node6" class="node">
<title>Node6</title>
<g id="a_node6"><a xlink:href="Boundaries_8h.html#a684320111be78b3001fda2ba25638e79" target="_top" xlink:title=" ">
<polygon fill="none" stroke="black" points="91.5,-0.5 91.5,-19.5 167.5,-19.5 167.5,-0.5 91.5,-0.5"/>
<text text-anchor="middle" x="129.5" y="-7.5" font-family="Helvetica,sans-Serif" font-size="10.00">OutflowFlux</text>
</a>
</g>
</g>
<!-- Node1&#45;&gt;Node6 -->
<g id="edge5" class="edge">
<title>Node1&#45;&gt;Node6</title>
<path fill="none" stroke="midnightblue" d="M39.31,-57.3C51.14,-49.21 68.78,-37.65 85,-29 88.32,-27.23 91.84,-25.48 95.39,-23.81"/>
<polygon fill="midnightblue" stroke="midnightblue" points="97.04,-26.91 104.7,-19.59 94.15,-20.53 97.04,-26.91"/>
</g>
<!-- Node5 -->
<g id="node5" class="node">
<title>Node5</title>
<g id="a_node5"><a xlink:href="Boundaries_8c.html#aa8017de37ede2f3151c445aafec42714" target="_top" xlink:title=" ">
<polygon fill="none" stroke="black" points="210,-38.5 210,-57.5 311,-57.5 311,-38.5 210,-38.5"/>
<text text-anchor="middle" x="260.5" y="-45.5" font-family="Helvetica,sans-Serif" font-size="10.00">InletInterpolation</text>
</a>
</g>
</g>
<!-- Node4&#45;&gt;Node5 -->
<g id="edge4" class="edge">
<title>Node4&#45;&gt;Node5</title>
<path fill="none" stroke="midnightblue" d="M163.72,-48C174.69,-48 187.24,-48 199.57,-48"/>
<polygon fill="midnightblue" stroke="midnightblue" points="199.84,-51.5 209.84,-48 199.84,-44.5 199.84,-51.5"/>
</g>
</g>
</svg>
