<?xml version="1.0" encoding="UTF-8" standalone="no"?>
<!DOCTYPE svg PUBLIC "-//W3C//DTD SVG 1.1//EN"
 "http://www.w3.org/Graphics/SVG/1.1/DTD/svg11.dtd">
<!-- Generated by graphviz version 2.43.0 (0)
 -->
<!-- Title: SetInitialFluidState_Restart Pages: 1 -->
<svg width="553pt" height="199pt"
 viewBox="0.00 0.00 553.00 198.74" xmlns="http://www.w3.org/2000/svg" xmlns:xlink="http://www.w3.org/1999/xlink">
<g id="graph0" class="graph" transform="scale(1 1) rotate(0) translate(4 194.74)">
<title>SetInitialFluidState_Restart</title>
<!-- Node1 -->
<g id="node1" class="node">
<title>Node1</title>
<g id="a_node1"><a xlink:title="(HELPER) Reads fluid state for all blocks from restart files.">
<polygon fill="#bfbfbf" stroke="black" points="0,-71 0,-101 110,-101 110,-71 0,-71"/>
<text text-anchor="start" x="8" y="-89" font-family="Helvetica,sans-Serif" font-size="10.00">SetInitialFluidState</text>
<text text-anchor="middle" x="55" y="-78" font-family="Helvetica,sans-Serif" font-size="10.00">_Restart</text>
</a>
</g>
</g>
<!-- Node2 -->
<g id="node2" class="node">
<title>Node2</title>
<g id="a_node2"><a xlink:href="io_8h.html#a3a009dabc71ccfa59f196e1bc045de45" target="_top" xlink:title="Reads binary field data for velocity, pressure, and other required vectors.">
<polygon fill="none" stroke="black" points="146,-114.5 146,-133.5 268,-133.5 268,-114.5 146,-114.5"/>
<text text-anchor="middle" x="207" y="-121.5" font-family="Helvetica,sans-Serif" font-size="10.00">ReadSimulationFields</text>
</a>
</g>
</g>
<!-- Node1&#45;&gt;Node2 -->
<g id="edge1" class="edge">
<title>Node1&#45;&gt;Node2</title>
<path fill="none" stroke="midnightblue" d="M110.15,-99.72C125.99,-103.73 143.17,-108.08 158.55,-111.98"/>
<polygon fill="midnightblue" stroke="midnightblue" points="157.81,-115.4 168.37,-114.47 159.53,-108.62 157.81,-115.4"/>
</g>
<!-- Node7 -->
<g id="node7" class="node">
<title>Node7</title>
<g id="a_node7"><a xlink:href="setup_8h.html#ad5f82951adcce74b3d37cb5880acf43a" target="_top" xlink:title="Updates the local vector (including ghost points) from its corresponding global vector.">
<polygon fill="none" stroke="black" points="151.5,-38.5 151.5,-57.5 262.5,-57.5 262.5,-38.5 151.5,-38.5"/>
<text text-anchor="middle" x="207" y="-45.5" font-family="Helvetica,sans-Serif" font-size="10.00">UpdateLocalGhosts</text>
</a>
</g>
</g>
<!-- Node1&#45;&gt;Node7 -->
<g id="edge9" class="edge">
<title>Node1&#45;&gt;Node7</title>
<path fill="none" stroke="midnightblue" d="M110.15,-72.28C125.99,-68.27 143.17,-63.92 158.55,-60.02"/>
<polygon fill="midnightblue" stroke="midnightblue" points="159.53,-63.38 168.37,-57.53 157.81,-56.6 159.53,-63.38"/>
</g>
<!-- Node3 -->
<g id="node3" class="node">
<title>Node3</title>
<g id="a_node3"><a xlink:href="io_8c.html#a570806d7e0694b5d996e0c6018b48908" target="_top" xlink:title="Reads data for a specific field from a file into the provided vector.">
<polygon fill="none" stroke="black" points="458,-133.5 458,-152.5 545,-152.5 545,-133.5 458,-133.5"/>
<text text-anchor="middle" x="501.5" y="-140.5" font-family="Helvetica,sans-Serif" font-size="10.00">ReadFieldData</text>
</a>
</g>
</g>
<!-- Node2&#45;&gt;Node3 -->
<g id="edge2" class="edge">
<title>Node2&#45;&gt;Node3</title>
<path fill="none" stroke="midnightblue" d="M219.46,-133.65C236.56,-147.34 270.35,-171.76 304,-181 354.57,-194.88 370.88,-192.72 422,-181 441.68,-176.49 462.15,-166.37 477.25,-157.71"/>
<polygon fill="midnightblue" stroke="midnightblue" points="479.1,-160.68 485.91,-152.56 475.52,-154.66 479.1,-160.68"/>
</g>
<!-- Node4 -->
<g id="node4" class="node">
<title>Node4</title>
<g id="a_node4"><a xlink:href="io_8c.html#a45ad89f26c78131d2990f09126abba4b" target="_top" xlink:title="Reads LES&#45;related fields.">
<polygon fill="none" stroke="black" points="320,-152.5 320,-171.5 406,-171.5 406,-152.5 320,-152.5"/>
<text text-anchor="middle" x="363" y="-159.5" font-family="Helvetica,sans-Serif" font-size="10.00">ReadLESFields</text>
</a>
</g>
</g>
<!-- Node2&#45;&gt;Node4 -->
<g id="edge3" class="edge">
<title>Node2&#45;&gt;Node4</title>
<path fill="none" stroke="midnightblue" d="M246.86,-133.59C267.09,-138.58 292.02,-144.73 313.5,-150.03"/>
<polygon fill="midnightblue" stroke="midnightblue" points="312.87,-153.48 323.42,-152.48 314.55,-146.69 312.87,-153.48"/>
</g>
<!-- Node5 -->
<g id="node5" class="node">
<title>Node5</title>
<g id="a_node5"><a xlink:href="io_8c.html#a19e2e0b57afae458bae068610141c031" target="_top" xlink:title="Reads RANS&#45;related fields.">
<polygon fill="none" stroke="black" points="315,-114.5 315,-133.5 411,-133.5 411,-114.5 315,-114.5"/>
<text text-anchor="middle" x="363" y="-121.5" font-family="Helvetica,sans-Serif" font-size="10.00">ReadRANSFields</text>
</a>
</g>
</g>
<!-- Node2&#45;&gt;Node5 -->
<g id="edge5" class="edge">
<title>Node2&#45;&gt;Node5</title>
<path fill="none" stroke="midnightblue" d="M268.42,-124C280.28,-124 292.7,-124 304.46,-124"/>
<polygon fill="midnightblue" stroke="midnightblue" points="304.6,-127.5 314.6,-124 304.6,-120.5 304.6,-127.5"/>
</g>
<!-- Node6 -->
<g id="node6" class="node">
<title>Node6</title>
<g id="a_node6"><a xlink:href="io_8c.html#a03f5b76975eea55434d764a23fd42623" target="_top" xlink:title="Reads statistical fields for averaging purposes.">
<polygon fill="none" stroke="black" points="304,-76.5 304,-95.5 422,-95.5 422,-76.5 304,-76.5"/>
<text text-anchor="middle" x="363" y="-83.5" font-family="Helvetica,sans-Serif" font-size="10.00">ReadStatisticalFields</text>
</a>
</g>
</g>
<!-- Node2&#45;&gt;Node6 -->
<g id="edge7" class="edge">
<title>Node2&#45;&gt;Node6</title>
<path fill="none" stroke="midnightblue" d="M246.86,-114.41C267.09,-109.42 292.02,-103.27 313.5,-97.97"/>
<polygon fill="midnightblue" stroke="midnightblue" points="314.55,-101.31 323.42,-95.52 312.87,-94.52 314.55,-101.31"/>
</g>
<!-- Node4&#45;&gt;Node3 -->
<g id="edge4" class="edge">
<title>Node4&#45;&gt;Node3</title>
<path fill="none" stroke="midnightblue" d="M406.07,-156.14C419.18,-154.32 433.8,-152.28 447.56,-150.37"/>
<polygon fill="midnightblue" stroke="midnightblue" points="448.44,-153.78 457.86,-148.93 447.48,-146.85 448.44,-153.78"/>
</g>
<!-- Node5&#45;&gt;Node3 -->
<g id="edge6" class="edge">
<title>Node5&#45;&gt;Node3</title>
<path fill="none" stroke="midnightblue" d="M411.36,-130.59C423.15,-132.23 435.86,-134 447.89,-135.68"/>
<polygon fill="midnightblue" stroke="midnightblue" points="447.41,-139.14 457.79,-137.06 448.37,-132.21 447.41,-139.14"/>
</g>
<!-- Node6&#45;&gt;Node3 -->
<g id="edge8" class="edge">
<title>Node6&#45;&gt;Node3</title>
<path fill="none" stroke="midnightblue" d="M395.88,-95.59C404.45,-98.4 413.65,-101.63 422,-105 439.39,-112.02 458.33,-121.14 473.25,-128.69"/>
<polygon fill="midnightblue" stroke="midnightblue" points="471.92,-131.94 482.41,-133.39 475.11,-125.71 471.92,-131.94"/>
</g>
<!-- Node8 -->
<g id="node8" class="node">
<title>Node8</title>
<g id="a_node8"><a xlink:href="logging_8h.html#a9585f583c260f40a73f2490914edc689" target="_top" xlink:title="Retrieves the current logging level from the environment variable LOG_LEVEL.">
<polygon fill="none" stroke="black" points="322,-38.5 322,-57.5 404,-57.5 404,-38.5 322,-38.5"/>
<text text-anchor="middle" x="363" y="-45.5" font-family="Helvetica,sans-Serif" font-size="10.00">get_log_level</text>
</a>
</g>
</g>
<!-- Node7&#45;&gt;Node8 -->
<g id="edge10" class="edge">
<title>Node7&#45;&gt;Node8</title>
<path fill="none" stroke="midnightblue" d="M262.73,-48C278.76,-48 296.19,-48 311.92,-48"/>
<polygon fill="midnightblue" stroke="midnightblue" points="311.97,-51.5 321.97,-48 311.97,-44.5 311.97,-51.5"/>
</g>
<!-- Node9 -->
<g id="node9" class="node">
<title>Node9</title>
<g id="a_node9"><a xlink:href="logging_8h.html#a2358badbcda33fc9d80ebd6a59d2a2cd" target="_top" xlink:title="Checks if a given function is in the allow&#45;list.">
<polygon fill="none" stroke="black" points="306.5,-0.5 306.5,-19.5 419.5,-19.5 419.5,-0.5 306.5,-0.5"/>
<text text-anchor="middle" x="363" y="-7.5" font-family="Helvetica,sans-Serif" font-size="10.00">is_function_allowed</text>
</a>
</g>
</g>
<!-- Node7&#45;&gt;Node9 -->
<g id="edge11" class="edge">
<title>Node7&#45;&gt;Node9</title>
<path fill="none" stroke="midnightblue" d="M246.86,-38.41C267.09,-33.42 292.02,-27.27 313.5,-21.97"/>
<polygon fill="midnightblue" stroke="midnightblue" points="314.55,-25.31 323.42,-19.52 312.87,-18.52 314.55,-25.31"/>
</g>
</g>
</svg>
