<?xml version="1.0" encoding="UTF-8" standalone="no"?>
<!DOCTYPE svg PUBLIC "-//W3C//DTD SVG 1.1//EN"
 "http://www.w3.org/Graphics/SVG/1.1/DTD/svg11.dtd">
<!-- Generated by graphviz version 2.43.0 (0)
 -->
<!-- Title: initialcondition.h Pages: 1 -->
<!--zoomable 924 -->
<svg id="main" version="1.1" xmlns="http://www.w3.org/2000/svg" xmlns:xlink="http://www.w3.org/1999/xlink" xml:space="preserve" onload="init(evt)">
<style type="text/css"><![CDATA[
.edge:hover path { stroke: red; }
.edge:hover polygon { stroke: red; fill: red; }
]]></style>
<script type="text/javascript"><![CDATA[
var edges = document.getElementsByTagName('g');
if (edges && edges.length) {
  for (var i=0;i<edges.length;i++) {
    if (edges[i].id.substr(0,4)=='edge') {
      edges[i].setAttribute('class','edge');
    }
  }
}
]]></script>
        <defs>
                <circle id="rim" cx="0" cy="0" r="7"/>
                <circle id="rim2" cx="0" cy="0" r="3.5"/>
                <g id="zoomPlus">
                        <use xlink:href="#rim" fill="#404040">
                                <set attributeName="fill" to="#808080" begin="zoomplus.mouseover" end="zoomplus.mouseout"/>
                        </use>
                        <path d="M-4,0h8M0,-4v8" fill="none" stroke="white" stroke-width="1.5" pointer-events="none"/>
                </g>
                <g id="zoomMin">
                        <use xlink:href="#rim" fill="#404040">
                                <set attributeName="fill" to="#808080" begin="zoomminus.mouseover" end="zoomminus.mouseout"/>
                        </use>
                        <path d="M-4,0h8" fill="none" stroke="white" stroke-width="1.5" pointer-events="none"/>
                </g>
                <g id="dirArrow">
                        <path fill="none" stroke="white" stroke-width="1.5" d="M0,-3.0v7 M-2.5,-0.5L0,-3.0L2.5,-0.5"/>
                </g>
               <g id="resetDef">
                       <use xlink:href="#rim2" fill="#404040">
                               <set attributeName="fill" to="#808080" begin="reset.mouseover" end="reset.mouseout"/>
                       </use>
               </g>
        </defs>

<script type="text/javascript">
var viewWidth = 3885;
var viewHeight = 924;
var sectionId = 'dynsection-0';
</script>
<script xlink:href="svgpan.js"/>
<svg id="graph" class="graph">
<g id="viewport">
<title>initialcondition.h</title>
<!-- Node1 -->
<g id="node1" class="node">
<title>Node1</title>
<g id="a_node1"><a xlink:title=" ">
<polygon fill="#bfbfbf" stroke="black" points="2173,-896.5 2173,-915.5 2271,-915.5 2271,-896.5 2173,-896.5"/>
<text text-anchor="middle" x="2222" y="-903.5" font-family="Helvetica,sans-Serif" font-size="10.00">initialcondition.h</text>
</a>
</g>
</g>
<!-- Node2 -->
<g id="node2" class="node">
<title>Node2</title>
<g id="a_node2"><a xlink:title=" ">
<polygon fill="none" stroke="#bfbfbf" points="1109.5,-112.5 1109.5,-131.5 1170.5,-131.5 1170.5,-112.5 1109.5,-112.5"/>
<text text-anchor="middle" x="1140" y="-119.5" font-family="Helvetica,sans-Serif" font-size="10.00">petscpf.h</text>
</a>
</g>
</g>
<!-- Node1&#45;&gt;Node2 -->
<g id="edge1" class="edge">
<title>Node1&#45;&gt;Node2</title>
<path fill="none" stroke="midnightblue" d="M2172.94,-905.08C1912.38,-905.33 696.35,-904.12 535,-860 477.62,-844.31 418,-854.49 418,-795 418,-795 418,-795 418,-625 418,-462.13 841.53,-232.69 991,-168 1026.54,-152.62 1068.98,-140.36 1099.46,-132.54"/>
<polygon fill="midnightblue" stroke="midnightblue" points="1100.46,-135.9 1109.31,-130.06 1098.76,-129.11 1100.46,-135.9"/>
</g>
<!-- Node3 -->
<g id="node3" class="node">
<title>Node3</title>
<g id="a_node3"><a xlink:title=" ">
<polygon fill="none" stroke="#bfbfbf" points="1851.5,-0.5 1851.5,-19.5 1952.5,-19.5 1952.5,-0.5 1851.5,-0.5"/>
<text text-anchor="middle" x="1902" y="-7.5" font-family="Helvetica,sans-Serif" font-size="10.00">petscdmswarm.h</text>
</a>
</g>
</g>
<!-- Node1&#45;&gt;Node3 -->
<g id="edge2" class="edge">
<title>Node1&#45;&gt;Node3</title>
<path fill="none" stroke="midnightblue" d="M2271.34,-904.49C2512.89,-901.86 3564.8,-888.84 3708,-860 3786.89,-844.11 3877,-875.48 3877,-795 3877,-795 3877,-795 3877,-177 3877,2.23 3816.04,-91.84 3375,-56 2828.27,-11.57 2164.16,-10 1962.74,-10.66"/>
<polygon fill="midnightblue" stroke="midnightblue" points="1962.65,-7.16 1952.66,-10.7 1962.67,-14.16 1962.65,-7.16"/>
</g>
<!-- Node4 -->
<g id="node4" class="node">
<title>Node4</title>
<g id="a_node4"><a xlink:title=" ">
<polygon fill="none" stroke="#bfbfbf" points="210.5,-0.5 210.5,-19.5 263.5,-19.5 263.5,-0.5 210.5,-0.5"/>
<text text-anchor="middle" x="237" y="-7.5" font-family="Helvetica,sans-Serif" font-size="10.00">stdlib.h</text>
</a>
</g>
</g>
<!-- Node1&#45;&gt;Node4 -->
<g id="edge3" class="edge">
<title>Node1&#45;&gt;Node4</title>
<path fill="none" stroke="midnightblue" d="M2172.79,-904.78C1863.14,-903.26 193.96,-893.58 92,-860 44.45,-844.34 0,-845.06 0,-795 0,-795 0,-795 0,-121 0,-33.81 133.61,-15.54 200.19,-11.84"/>
<polygon fill="midnightblue" stroke="midnightblue" points="200.45,-15.34 210.27,-11.37 200.12,-8.34 200.45,-15.34"/>
</g>
<!-- Node5 -->
<g id="node5" class="node">
<title>Node5</title>
<g id="a_node5"><a xlink:title=" ">
<polygon fill="none" stroke="#bfbfbf" points="622,-112.5 622,-131.5 670,-131.5 670,-112.5 622,-112.5"/>
<text text-anchor="middle" x="646" y="-119.5" font-family="Helvetica,sans-Serif" font-size="10.00">time.h</text>
</a>
</g>
</g>
<!-- Node1&#45;&gt;Node5 -->
<g id="edge4" class="edge">
<title>Node1&#45;&gt;Node5</title>
<path fill="none" stroke="midnightblue" d="M2172.72,-905.01C1896.55,-904.92 547.03,-902.31 367,-860 300.61,-844.4 228,-863.2 228,-795 228,-795 228,-795 228,-737 228,-608.91 304,-587.09 304,-459 304,-459 304,-459 304,-289 304,-220.98 525.71,-154.88 612.11,-131.7"/>
<polygon fill="midnightblue" stroke="midnightblue" points="613.18,-135.04 621.95,-129.09 611.39,-128.27 613.18,-135.04"/>
</g>
<!-- Node6 -->
<g id="node6" class="node">
<title>Node6</title>
<g id="a_node6"><a xlink:title=" ">
<polygon fill="none" stroke="#bfbfbf" points="1034.5,-112.5 1034.5,-131.5 1085.5,-131.5 1085.5,-112.5 1034.5,-112.5"/>
<text text-anchor="middle" x="1060" y="-119.5" font-family="Helvetica,sans-Serif" font-size="10.00">math.h</text>
</a>
</g>
</g>
<!-- Node1&#45;&gt;Node6 -->
<g id="edge5" class="edge">
<title>Node1&#45;&gt;Node6</title>
<path fill="none" stroke="midnightblue" d="M2172.79,-904.52C1894.36,-901.7 525.82,-886.53 441,-860 390.76,-844.29 342,-847.64 342,-795 342,-795 342,-795 342,-513 342,-292.03 500.61,-263.24 700,-168 756.91,-140.82 945.08,-128.63 1024.32,-124.6"/>
<polygon fill="midnightblue" stroke="midnightblue" points="1024.5,-128.1 1034.32,-124.11 1024.16,-121.11 1024.5,-128.1"/>
</g>
<!-- Node7 -->
<g id="node7" class="node">
<title>Node7</title>
<g id="a_node7"><a xlink:title=" ">
<polygon fill="none" stroke="#bfbfbf" points="1850,-112.5 1850,-131.5 1924,-131.5 1924,-112.5 1850,-112.5"/>
<text text-anchor="middle" x="1887" y="-119.5" font-family="Helvetica,sans-Serif" font-size="10.00">petsctime.h</text>
</a>
</g>
</g>
<!-- Node1&#45;&gt;Node7 -->
<g id="edge6" class="edge">
<title>Node1&#45;&gt;Node7</title>
<path fill="none" stroke="midnightblue" d="M2271.06,-903.76C2403.33,-900.08 2765.15,-887.7 2881,-860 2942.98,-845.18 2960.16,-839.63 3013,-804 3105.24,-741.8 3190,-738.25 3190,-627 3190,-627 3190,-627 3190,-345 3190,-235.68 2837.9,-190.86 2731,-168 2577.23,-135.12 2089.36,-125.75 1934.59,-123.58"/>
<polygon fill="midnightblue" stroke="midnightblue" points="1934.51,-120.07 1924.46,-123.44 1934.41,-127.07 1934.51,-120.07"/>
</g>
<!-- Node8 -->
<g id="node8" class="node">
<title>Node8</title>
<g id="a_node8"><a xlink:title=" ">
<polygon fill="none" stroke="#bfbfbf" points="3030,-112.5 3030,-131.5 3098,-131.5 3098,-112.5 3030,-112.5"/>
<text text-anchor="middle" x="3064" y="-119.5" font-family="Helvetica,sans-Serif" font-size="10.00">petscsys.h</text>
</a>
</g>
</g>
<!-- Node1&#45;&gt;Node8 -->
<g id="edge7" class="edge">
<title>Node1&#45;&gt;Node8</title>
<path fill="none" stroke="midnightblue" d="M2271.21,-904.07C2462.94,-900.27 3160.11,-885.03 3380,-860 3533.73,-842.5 3722,-949.72 3722,-795 3722,-795 3722,-795 3722,-513 3722,-227.05 3256.45,-146.22 3108.54,-127.75"/>
<polygon fill="midnightblue" stroke="midnightblue" points="3108.8,-124.26 3098.45,-126.53 3107.96,-131.21 3108.8,-124.26"/>
</g>
<!-- Node9 -->
<g id="node9" class="node">
<title>Node9</title>
<g id="a_node9"><a xlink:title=" ">
<polygon fill="none" stroke="#bfbfbf" points="434.5,-112.5 434.5,-131.5 553.5,-131.5 553.5,-112.5 434.5,-112.5"/>
<text text-anchor="middle" x="494" y="-119.5" font-family="Helvetica,sans-Serif" font-size="10.00">petscdmcomposite.h</text>
</a>
</g>
</g>
<!-- Node1&#45;&gt;Node9 -->
<g id="edge8" class="edge">
<title>Node1&#45;&gt;Node9</title>
<path fill="none" stroke="midnightblue" d="M2172.94,-904.87C1887.13,-903.95 442.84,-897.5 249,-860 168.36,-844.4 76,-877.14 76,-795 76,-795 76,-795 76,-345 76,-189.31 304.99,-142.47 423.99,-128.64"/>
<polygon fill="midnightblue" stroke="midnightblue" points="424.56,-132.1 434.11,-127.51 423.78,-125.14 424.56,-132.1"/>
</g>
<!-- Node10 -->
<g id="node10" class="node">
<title>Node10</title>
<g id="a_node10"><a xlink:title=" ">
<polygon fill="none" stroke="#bfbfbf" points="2838.5,-112.5 2838.5,-131.5 2933.5,-131.5 2933.5,-112.5 2838.5,-112.5"/>
<text text-anchor="middle" x="2886" y="-119.5" font-family="Helvetica,sans-Serif" font-size="10.00">petscsystypes.h</text>
</a>
</g>
</g>
<!-- Node1&#45;&gt;Node10 -->
<g id="edge9" class="edge">
<title>Node1&#45;&gt;Node10</title>
<path fill="none" stroke="midnightblue" d="M2271.02,-903.84C2521.41,-897.57 3646,-865.51 3646,-795 3646,-795 3646,-795 3646,-513 3646,-197.47 3121.05,-137.03 2943.72,-125.61"/>
<polygon fill="midnightblue" stroke="midnightblue" points="2943.74,-122.11 2933.54,-124.99 2943.31,-129.1 2943.74,-122.11"/>
</g>
<!-- Node11 -->
<g id="node11" class="node">
<title>Node11</title>
<g id="a_node11"><a xlink:href="variables_8h.html" target="_top" xlink:title="Main header file for a complex fluid dynamics solver.">
<polygon fill="none" stroke="black" points="3294.5,-56.5 3294.5,-75.5 3365.5,-75.5 3365.5,-56.5 3294.5,-56.5"/>
<text text-anchor="middle" x="3330" y="-63.5" font-family="Helvetica,sans-Serif" font-size="10.00">variables.h</text>
</a>
</g>
</g>
<!-- Node1&#45;&gt;Node11 -->
<g id="edge10" class="edge">
<title>Node1&#45;&gt;Node11</title>
<path fill="none" stroke="midnightblue" d="M2271.25,-904.64C2481.45,-902.89 3304.33,-893.98 3561,-860 3686.79,-843.34 3839,-921.89 3839,-795 3839,-795 3839,-795 3839,-177 3839,-82.69 3500.93,-69.04 3375.83,-67.22"/>
<polygon fill="midnightblue" stroke="midnightblue" points="3375.84,-63.72 3365.79,-67.09 3375.75,-70.72 3375.84,-63.72"/>
</g>
<!-- Node19 -->
<g id="node19" class="node">
<title>Node19</title>
<g id="a_node19"><a xlink:href="ParticleSwarm_8h.html" target="_top" xlink:title="Header file for Particle Motion and migration related functions.">
<polygon fill="none" stroke="black" points="1832,-728.5 1832,-747.5 1928,-747.5 1928,-728.5 1832,-728.5"/>
<text text-anchor="middle" x="1880" y="-735.5" font-family="Helvetica,sans-Serif" font-size="10.00">ParticleSwarm.h</text>
</a>
</g>
</g>
<!-- Node1&#45;&gt;Node19 -->
<g id="edge20" class="edge">
<title>Node1&#45;&gt;Node19</title>
<path fill="none" stroke="midnightblue" d="M2193.22,-896.49C2166.9,-888.32 2127.14,-875.05 2094,-860 2021.28,-826.97 1940.52,-777.57 1902.34,-753.38"/>
<polygon fill="midnightblue" stroke="midnightblue" points="1903.89,-750.23 1893.58,-747.8 1900.13,-756.13 1903.89,-750.23"/>
</g>
<!-- Node22 -->
<g id="node22" class="node">
<title>Node22</title>
<g id="a_node22"><a xlink:href="logging_8h.html" target="_top" xlink:title="Logging utilities and macros for PETSc&#45;based applications.">
<polygon fill="none" stroke="black" points="2552,-616.5 2552,-635.5 2614,-635.5 2614,-616.5 2552,-616.5"/>
<text text-anchor="middle" x="2583" y="-623.5" font-family="Helvetica,sans-Serif" font-size="10.00">logging.h</text>
</a>
</g>
</g>
<!-- Node1&#45;&gt;Node22 -->
<g id="edge159" class="edge">
<title>Node1&#45;&gt;Node22</title>
<path fill="none" stroke="midnightblue" d="M2271.08,-902.5C2430.58,-893.71 2924,-861.19 2924,-795 2924,-795 2924,-795 2924,-737 2924,-674.63 2714.78,-642.48 2624.1,-631.47"/>
<polygon fill="midnightblue" stroke="midnightblue" points="2624.51,-628 2614.17,-630.29 2623.68,-634.95 2624.51,-628"/>
</g>
<!-- Node24 -->
<g id="node24" class="node">
<title>Node24</title>
<g id="a_node24"><a xlink:href="AnalyticalSolution_8h.html" target="_top" xlink:title=" ">
<polygon fill="none" stroke="black" points="931,-560.5 931,-579.5 1045,-579.5 1045,-560.5 931,-560.5"/>
<text text-anchor="middle" x="988" y="-567.5" font-family="Helvetica,sans-Serif" font-size="10.00">AnalyticalSolution.h</text>
</a>
</g>
</g>
<!-- Node1&#45;&gt;Node24 -->
<g id="edge162" class="edge">
<title>Node1&#45;&gt;Node24</title>
<path fill="none" stroke="midnightblue" d="M2172.62,-904.61C1899.5,-902.31 584.93,-889.72 556,-860 497.72,-800.12 504.44,-737.75 556,-672 600.47,-615.28 810.82,-587.51 920.73,-576.68"/>
<polygon fill="midnightblue" stroke="midnightblue" points="921.1,-580.16 930.72,-575.71 920.43,-573.19 921.1,-580.16"/>
</g>
<!-- Node25 -->
<g id="node25" class="node">
<title>Node25</title>
<g id="a_node25"><a xlink:href="walkingsearch_8h.html" target="_top" xlink:title="Header file for particle location functions using the walking search algorithm.">
<polygon fill="none" stroke="black" points="2116,-224.5 2116,-243.5 2212,-243.5 2212,-224.5 2116,-224.5"/>
<text text-anchor="middle" x="2164" y="-231.5" font-family="Helvetica,sans-Serif" font-size="10.00">walkingsearch.h</text>
</a>
</g>
</g>
<!-- Node1&#45;&gt;Node25 -->
<g id="edge157" class="edge">
<title>Node1&#45;&gt;Node25</title>
<path fill="none" stroke="midnightblue" d="M2243.81,-896.35C2310.32,-868.38 2506,-773.62 2506,-627 2506,-627 2506,-627 2506,-513 2506,-431.2 2267.44,-292.12 2188.81,-248.5"/>
<polygon fill="midnightblue" stroke="midnightblue" points="2190.48,-245.43 2180.04,-243.66 2187.1,-251.56 2190.48,-245.43"/>
</g>
<!-- Node27 -->
<g id="node27" class="node">
<title>Node27</title>
<g id="a_node27"><a xlink:href="grid_8h.html" target="_top" xlink:title="Public interface for grid, solver, and metric setup routines.">
<polygon fill="none" stroke="black" points="2560,-112.5 2560,-131.5 2604,-131.5 2604,-112.5 2560,-112.5"/>
<text text-anchor="middle" x="2582" y="-119.5" font-family="Helvetica,sans-Serif" font-size="10.00">grid.h</text>
</a>
</g>
</g>
<!-- Node1&#45;&gt;Node27 -->
<g id="edge158" class="edge">
<title>Node1&#45;&gt;Node27</title>
<path fill="none" stroke="midnightblue" d="M2271.23,-904.2C2472.17,-900.45 3230.2,-881.34 3455,-804 3499.55,-788.67 3521.75,-788.98 3545,-748 3688.91,-494.33 3419.49,-335.49 3150,-224 2957.65,-144.42 2703.25,-127.49 2614.33,-123.93"/>
<polygon fill="midnightblue" stroke="midnightblue" points="2614.21,-120.42 2604.08,-123.55 2613.95,-127.42 2614.21,-120.42"/>
</g>
<!-- Node28 -->
<g id="node28" class="node">
<title>Node28</title>
<g id="a_node28"><a xlink:href="io_8h.html" target="_top" xlink:title="Public interface for data input/output routines.">
<polygon fill="none" stroke="black" points="1908.5,-448.5 1908.5,-467.5 1943.5,-467.5 1943.5,-448.5 1908.5,-448.5"/>
<text text-anchor="middle" x="1926" y="-455.5" font-family="Helvetica,sans-Serif" font-size="10.00">io.h</text>
</a>
</g>
</g>
<!-- Node1&#45;&gt;Node28 -->
<g id="edge160" class="edge">
<title>Node1&#45;&gt;Node28</title>
<path fill="none" stroke="midnightblue" d="M2172.96,-899.91C2074.37,-886.61 1855.02,-840.82 1778,-692 1762.13,-661.34 1750.36,-648.5 1762,-616 1786.6,-547.29 1861.41,-495.84 1900.93,-472.63"/>
<polygon fill="midnightblue" stroke="midnightblue" points="1902.77,-475.61 1909.71,-467.6 1899.29,-469.53 1902.77,-475.61"/>
</g>
<!-- Node29 -->
<g id="node29" class="node">
<title>Node29</title>
<g id="a_node29"><a xlink:href="Boundaries_8h.html" target="_top" xlink:title=" ">
<polygon fill="none" stroke="black" points="1984,-392.5 1984,-411.5 2064,-411.5 2064,-392.5 1984,-392.5"/>
<text text-anchor="middle" x="2024" y="-399.5" font-family="Helvetica,sans-Serif" font-size="10.00">Boundaries.h</text>
</a>
</g>
</g>
<!-- Node1&#45;&gt;Node29 -->
<g id="edge164" class="edge">
<title>Node1&#45;&gt;Node29</title>
<path fill="none" stroke="midnightblue" d="M2201.36,-896.42C2168.5,-881.23 2108,-846.29 2108,-795 2108,-795 2108,-795 2108,-513 2108,-471.73 2070.19,-436.32 2045.31,-417.49"/>
<polygon fill="midnightblue" stroke="midnightblue" points="2047.27,-414.59 2037.12,-411.54 2043.15,-420.25 2047.27,-414.59"/>
</g>
<!-- Node30 -->
<g id="node30" class="node">
<title>Node30</title>
<g id="a_node30"><a xlink:href="interpolation_8h.html" target="_top" xlink:title=" ">
<polygon fill="none" stroke="black" points="1385,-504.5 1385,-523.5 1473,-523.5 1473,-504.5 1385,-504.5"/>
<text text-anchor="middle" x="1429" y="-511.5" font-family="Helvetica,sans-Serif" font-size="10.00">interpolation.h</text>
</a>
</g>
</g>
<!-- Node1&#45;&gt;Node30 -->
<g id="edge161" class="edge">
<title>Node1&#45;&gt;Node30</title>
<path fill="none" stroke="midnightblue" d="M2172.97,-904.66C1912.9,-902.73 704.02,-892.05 632,-860 595.52,-843.77 570,-834.92 570,-795 570,-795 570,-795 570,-737 570,-695.07 1191.53,-563.85 1377.22,-525.57"/>
<polygon fill="midnightblue" stroke="midnightblue" points="1378.19,-528.95 1387.28,-523.51 1376.78,-522.09 1378.19,-528.95"/>
</g>
<!-- Node32 -->
<g id="node32" class="node">
<title>Node32</title>
<g id="a_node32"><a xlink:href="ParticleMotion_8h.html" target="_top" xlink:title=" ">
<polygon fill="none" stroke="black" points="2382,-280.5 2382,-299.5 2478,-299.5 2478,-280.5 2382,-280.5"/>
<text text-anchor="middle" x="2430" y="-287.5" font-family="Helvetica,sans-Serif" font-size="10.00">ParticleMotion.h</text>
</a>
</g>
</g>
<!-- Node1&#45;&gt;Node32 -->
<g id="edge163" class="edge">
<title>Node1&#45;&gt;Node32</title>
<path fill="none" stroke="midnightblue" d="M2271.26,-903.25C2442.28,-896.52 3000,-868.92 3000,-795 3000,-795 3000,-795 3000,-737 3000,-657.21 3061.49,-633.31 3030,-560 2963.05,-404.15 2879.67,-395.97 2721,-336 2643.81,-306.83 2548.27,-296.55 2488.21,-292.94"/>
<polygon fill="midnightblue" stroke="midnightblue" points="2488.33,-289.44 2478.15,-292.38 2487.94,-296.43 2488.33,-289.44"/>
</g>
<!-- Node36 -->
<g id="node36" class="node">
<title>Node36</title>
<g id="a_node36"><a xlink:href="simulation_8h.html" target="_top" xlink:title=" ">
<polygon fill="none" stroke="black" points="2183.5,-840.5 2183.5,-859.5 2260.5,-859.5 2260.5,-840.5 2183.5,-840.5"/>
<text text-anchor="middle" x="2222" y="-847.5" font-family="Helvetica,sans-Serif" font-size="10.00">simulation.h</text>
</a>
</g>
</g>
<!-- Node1&#45;&gt;Node36 -->
<g id="edge165" class="edge">
<title>Node1&#45;&gt;Node36</title>
<path fill="none" stroke="midnightblue" d="M2216.83,-896.08C2215.32,-888.93 2214.89,-878.64 2215.54,-869.69"/>
<polygon fill="midnightblue" stroke="midnightblue" points="2219.02,-870.13 2216.87,-859.75 2212.08,-869.2 2219.02,-870.13"/>
</g>
<!-- Node11&#45;&gt;Node3 -->
<g id="edge15" class="edge">
<title>Node11&#45;&gt;Node3</title>
<path fill="none" stroke="midnightblue" d="M3294.31,-57.92C3289.52,-57.17 3284.65,-56.49 3280,-56 3019.05,-28.4 2194.28,-15.07 1962.89,-11.81"/>
<polygon fill="midnightblue" stroke="midnightblue" points="1962.69,-8.31 1952.65,-11.67 1962.6,-15.31 1962.69,-8.31"/>
</g>
<!-- Node11&#45;&gt;Node4 -->
<g id="edge17" class="edge">
<title>Node11&#45;&gt;Node4</title>
<path fill="none" stroke="midnightblue" d="M3294.46,-64.38C2974.95,-58.8 601.12,-17.36 274.27,-11.65"/>
<polygon fill="midnightblue" stroke="midnightblue" points="273.99,-8.15 263.93,-11.47 273.87,-15.14 273.99,-8.15"/>
</g>
<!-- Node12 -->
<g id="node12" class="node">
<title>Node12</title>
<g id="a_node12"><a xlink:title=" ">
<polygon fill="none" stroke="#bfbfbf" points="3248.5,-0.5 3248.5,-19.5 3317.5,-19.5 3317.5,-0.5 3248.5,-0.5"/>
<text text-anchor="middle" x="3283" y="-7.5" font-family="Helvetica,sans-Serif" font-size="10.00">petscvec.h</text>
</a>
</g>
</g>
<!-- Node11&#45;&gt;Node12 -->
<g id="edge11" class="edge">
<title>Node11&#45;&gt;Node12</title>
<path fill="none" stroke="midnightblue" d="M3322.24,-56.08C3315.46,-48.3 3305.46,-36.8 3297.24,-27.37"/>
<polygon fill="midnightblue" stroke="midnightblue" points="3299.82,-25 3290.62,-19.75 3294.54,-29.59 3299.82,-25"/>
</g>
<!-- Node13 -->
<g id="node13" class="node">
<title>Node13</title>
<g id="a_node13"><a xlink:title=" ">
<polygon fill="none" stroke="#bfbfbf" points="3336,-0.5 3336,-19.5 3416,-19.5 3416,-0.5 3336,-0.5"/>
<text text-anchor="middle" x="3376" y="-7.5" font-family="Helvetica,sans-Serif" font-size="10.00">petscdmda.h</text>
</a>
</g>
</g>
<!-- Node11&#45;&gt;Node13 -->
<g id="edge12" class="edge">
<title>Node11&#45;&gt;Node13</title>
<path fill="none" stroke="midnightblue" d="M3337.6,-56.08C3344.23,-48.3 3354.02,-36.8 3362.06,-27.37"/>
<polygon fill="midnightblue" stroke="midnightblue" points="3364.73,-29.63 3368.55,-19.75 3359.4,-25.09 3364.73,-29.63"/>
</g>
<!-- Node14 -->
<g id="node14" class="node">
<title>Node14</title>
<g id="a_node14"><a xlink:title=" ">
<polygon fill="none" stroke="#bfbfbf" points="3434.5,-0.5 3434.5,-19.5 3503.5,-19.5 3503.5,-0.5 3434.5,-0.5"/>
<text text-anchor="middle" x="3469" y="-7.5" font-family="Helvetica,sans-Serif" font-size="10.00">petscksp.h</text>
</a>
</g>
</g>
<!-- Node11&#45;&gt;Node14 -->
<g id="edge13" class="edge">
<title>Node11&#45;&gt;Node14</title>
<path fill="none" stroke="midnightblue" d="M3352.02,-56.44C3375.1,-47.48 3411.56,-33.31 3437.64,-23.18"/>
<polygon fill="midnightblue" stroke="midnightblue" points="3439.02,-26.4 3447.08,-19.52 3436.49,-19.88 3439.02,-26.4"/>
</g>
<!-- Node15 -->
<g id="node15" class="node">
<title>Node15</title>
<g id="a_node15"><a xlink:title=" ">
<polygon fill="none" stroke="#bfbfbf" points="3522,-0.5 3522,-19.5 3596,-19.5 3596,-0.5 3522,-0.5"/>
<text text-anchor="middle" x="3559" y="-7.5" font-family="Helvetica,sans-Serif" font-size="10.00">petscsnes.h</text>
</a>
</g>
</g>
<!-- Node11&#45;&gt;Node15 -->
<g id="edge14" class="edge">
<title>Node11&#45;&gt;Node15</title>
<path fill="none" stroke="midnightblue" d="M3365.78,-56.56C3405.46,-47.21 3469.58,-32.08 3512.97,-21.85"/>
<polygon fill="midnightblue" stroke="midnightblue" points="3513.78,-25.26 3522.71,-19.56 3512.18,-18.45 3513.78,-25.26"/>
</g>
<!-- Node16 -->
<g id="node16" class="node">
<title>Node16</title>
<g id="a_node16"><a xlink:title=" ">
<polygon fill="none" stroke="#bfbfbf" points="3106,-0.5 3106,-19.5 3156,-19.5 3156,-0.5 3106,-0.5"/>
<text text-anchor="middle" x="3131" y="-7.5" font-family="Helvetica,sans-Serif" font-size="10.00">stdio.h</text>
</a>
</g>
</g>
<!-- Node11&#45;&gt;Node16 -->
<g id="edge16" class="edge">
<title>Node11&#45;&gt;Node16</title>
<path fill="none" stroke="midnightblue" d="M3298.47,-56.44C3262.4,-46.66 3203.52,-30.68 3166.05,-20.51"/>
<polygon fill="midnightblue" stroke="midnightblue" points="3166.65,-17.05 3156.08,-17.81 3164.82,-23.8 3166.65,-17.05"/>
</g>
<!-- Node17 -->
<g id="node17" class="node">
<title>Node17</title>
<g id="a_node17"><a xlink:title=" ">
<polygon fill="none" stroke="#bfbfbf" points="3717.5,-0.5 3717.5,-19.5 3770.5,-19.5 3770.5,-0.5 3717.5,-0.5"/>
<text text-anchor="middle" x="3744" y="-7.5" font-family="Helvetica,sans-Serif" font-size="10.00">string.h</text>
</a>
</g>
</g>
<!-- Node11&#45;&gt;Node17 -->
<g id="edge18" class="edge">
<title>Node11&#45;&gt;Node17</title>
<path fill="none" stroke="midnightblue" d="M3365.66,-60.35C3443.65,-50.18 3628.71,-26.04 3707.48,-15.76"/>
<polygon fill="midnightblue" stroke="midnightblue" points="3707.97,-19.23 3717.43,-14.47 3707.06,-12.29 3707.97,-19.23"/>
</g>
<!-- Node18 -->
<g id="node18" class="node">
<title>Node18</title>
<g id="a_node18"><a xlink:title=" ">
<polygon fill="none" stroke="#bfbfbf" points="3174,-0.5 3174,-19.5 3230,-19.5 3230,-0.5 3174,-0.5"/>
<text text-anchor="middle" x="3202" y="-7.5" font-family="Helvetica,sans-Serif" font-size="10.00">unistd.h</text>
</a>
</g>
</g>
<!-- Node11&#45;&gt;Node18 -->
<g id="edge19" class="edge">
<title>Node11&#45;&gt;Node18</title>
<path fill="none" stroke="midnightblue" d="M3309.72,-56.44C3288.65,-47.56 3255.48,-33.56 3231.51,-23.45"/>
<polygon fill="midnightblue" stroke="midnightblue" points="3232.76,-20.18 3222.19,-19.52 3230.04,-26.63 3232.76,-20.18"/>
</g>
<!-- Node19&#45;&gt;Node3 -->
<g id="edge22" class="edge">
<title>Node19&#45;&gt;Node3</title>
<path fill="none" stroke="midnightblue" d="M1831.82,-736.3C1654.69,-733.5 1039.8,-721.81 846,-692 750.95,-677.38 726.31,-671.66 637,-636 399.84,-541.31 127.33,-528.54 186,-280 214.43,-159.58 293.49,-158.89 408,-112 499.78,-74.42 525.86,-70.27 624,-56 863.25,-21.2 1620.41,-13.04 1841.08,-11.38"/>
<polygon fill="midnightblue" stroke="midnightblue" points="1841.21,-14.88 1851.18,-11.31 1841.16,-7.88 1841.21,-14.88"/>
</g>
<!-- Node19&#45;&gt;Node6 -->
<g id="edge24" class="edge">
<title>Node19&#45;&gt;Node6</title>
<path fill="none" stroke="midnightblue" d="M1831.99,-735.96C1675.02,-732.34 1178.07,-718.97 1020,-692 925.94,-675.95 608,-666.42 608,-571 608,-571 608,-571 608,-513 608,-477.42 667.28,-226.96 670,-224 676.9,-216.47 835.13,-170.6 845,-168 907.51,-151.5 981.51,-137.12 1024.37,-129.29"/>
<polygon fill="midnightblue" stroke="midnightblue" points="1025.1,-132.71 1034.32,-127.49 1023.85,-125.83 1025.1,-132.71"/>
</g>
<!-- Node19&#45;&gt;Node11 -->
<g id="edge25" class="edge">
<title>Node19&#45;&gt;Node11</title>
<path fill="none" stroke="midnightblue" d="M1928.18,-737.33C2055.68,-737.57 2412.16,-734.1 2705,-692 2812.56,-676.54 2839.79,-670 2943,-636 3062.89,-596.51 3094.03,-585.97 3204,-524 3300.17,-469.81 3608,-345.38 3608,-235 3608,-235 3608,-235 3608,-177 3608,-127.7 3454.91,-90.99 3375.94,-75.34"/>
<polygon fill="midnightblue" stroke="midnightblue" points="3376.26,-71.84 3365.77,-73.36 3374.92,-78.71 3376.26,-71.84"/>
</g>
<!-- Node20 -->
<g id="node20" class="node">
<title>Node20</title>
<g id="a_node20"><a xlink:title=" ">
<polygon fill="none" stroke="#bfbfbf" points="2670,-168.5 2670,-187.5 2722,-187.5 2722,-168.5 2670,-168.5"/>
<text text-anchor="middle" x="2696" y="-175.5" font-family="Helvetica,sans-Serif" font-size="10.00">petsc.h</text>
</a>
</g>
</g>
<!-- Node19&#45;&gt;Node20 -->
<g id="edge21" class="edge">
<title>Node19&#45;&gt;Node20</title>
<path fill="none" stroke="midnightblue" d="M1928.01,-736.68C2036.75,-735.3 2309.93,-728.2 2535,-692 2733.38,-660.09 2849.77,-738.71 2973,-580 3070.73,-454.14 2969.4,-407.16 2771,-224 2757.18,-211.24 2739.17,-200.29 2724.27,-192.39"/>
<polygon fill="midnightblue" stroke="midnightblue" points="2725.5,-189.09 2715,-187.65 2722.31,-195.32 2725.5,-189.09"/>
</g>
<!-- Node21 -->
<g id="node21" class="node">
<title>Node21</title>
<g id="a_node21"><a xlink:title=" ">
<polygon fill="none" stroke="#bfbfbf" points="2302,-168.5 2302,-187.5 2364,-187.5 2364,-168.5 2302,-168.5"/>
<text text-anchor="middle" x="2333" y="-175.5" font-family="Helvetica,sans-Serif" font-size="10.00">stdbool.h</text>
</a>
</g>
</g>
<!-- Node19&#45;&gt;Node21 -->
<g id="edge23" class="edge">
<title>Node19&#45;&gt;Node21</title>
<path fill="none" stroke="midnightblue" d="M1928.11,-736.04C2099.53,-731.58 2676.75,-707.21 2798,-580 2876.46,-497.68 2805.95,-411.59 2721,-336 2616.91,-243.39 2451.1,-201.43 2374.4,-186.21"/>
<polygon fill="midnightblue" stroke="midnightblue" points="2374.67,-182.69 2364.19,-184.23 2373.34,-189.57 2374.67,-182.69"/>
</g>
<!-- Node19&#45;&gt;Node22 -->
<g id="edge26" class="edge">
<title>Node19&#45;&gt;Node22</title>
<path fill="none" stroke="midnightblue" d="M1928.06,-729.28C1983.84,-720.33 2078.58,-705.11 2160,-692 2215.11,-683.13 2228.84,-680.6 2284,-672 2376.04,-657.65 2484.15,-641.57 2541.83,-633.06"/>
<polygon fill="midnightblue" stroke="midnightblue" points="2542.61,-636.48 2551.99,-631.56 2541.59,-629.55 2542.61,-636.48"/>
</g>
<!-- Node19&#45;&gt;Node25 -->
<g id="edge148" class="edge">
<title>Node19&#45;&gt;Node25</title>
<path fill="none" stroke="midnightblue" d="M1905.5,-728.38C1955.93,-709.92 2068.15,-661.47 2122,-580 2192.79,-472.9 2177.1,-427.39 2193,-300 2194.1,-291.18 2195.51,-288.53 2193,-280 2189.99,-269.76 2183.85,-259.66 2177.99,-251.63"/>
<polygon fill="midnightblue" stroke="midnightblue" points="2180.59,-249.27 2171.67,-243.54 2175.07,-253.58 2180.59,-249.27"/>
</g>
<!-- Node19&#45;&gt;Node28 -->
<g id="edge156" class="edge">
<title>Node19&#45;&gt;Node28</title>
<path fill="none" stroke="midnightblue" d="M1874.72,-728.23C1864.27,-710.04 1842,-666.6 1842,-627 1842,-627 1842,-627 1842,-569 1842,-527.73 1879.81,-492.32 1904.69,-473.49"/>
<polygon fill="midnightblue" stroke="midnightblue" points="1906.85,-476.25 1912.88,-467.54 1902.73,-470.59 1906.85,-476.25"/>
</g>
<!-- Node35 -->
<g id="node35" class="node">
<title>Node35</title>
<g id="a_node35"><a xlink:href="Metric_8h.html" target="_top" xlink:title=" ">
<polygon fill="none" stroke="black" points="1890,-672.5 1890,-691.5 1946,-691.5 1946,-672.5 1890,-672.5"/>
<text text-anchor="middle" x="1918" y="-679.5" font-family="Helvetica,sans-Serif" font-size="10.00">Metric.h</text>
</a>
</g>
</g>
<!-- Node19&#45;&gt;Node35 -->
<g id="edge149" class="edge">
<title>Node19&#45;&gt;Node35</title>
<path fill="none" stroke="midnightblue" d="M1886.27,-728.08C1891.64,-720.46 1899.52,-709.26 1906.08,-699.94"/>
<polygon fill="midnightblue" stroke="midnightblue" points="1908.95,-701.94 1911.84,-691.75 1903.22,-697.91 1908.95,-701.94"/>
</g>
<!-- Node22&#45;&gt;Node4 -->
<g id="edge28" class="edge">
<title>Node22&#45;&gt;Node4</title>
<path fill="none" stroke="midnightblue" d="M2551.96,-624.86C2338.12,-623.78 1086.88,-615.98 922,-580 670.88,-525.2 577.36,-500.06 416,-300 339.53,-205.19 270.01,-75.41 245.95,-28.67"/>
<polygon fill="midnightblue" stroke="midnightblue" points="248.95,-26.85 241.28,-19.54 242.71,-30.04 248.95,-26.85"/>
</g>
<!-- Node22&#45;&gt;Node8 -->
<g id="edge30" class="edge">
<title>Node22&#45;&gt;Node8</title>
<path fill="none" stroke="midnightblue" d="M2614.29,-623.78C2653.58,-620.9 2721.69,-611.38 2770,-580 2943.48,-467.32 3035.47,-212.4 3058.29,-141.56"/>
<polygon fill="midnightblue" stroke="midnightblue" points="3061.69,-142.42 3061.36,-131.83 3055.02,-140.31 3061.69,-142.42"/>
</g>
<!-- Node22&#45;&gt;Node11 -->
<g id="edge32" class="edge">
<title>Node22&#45;&gt;Node11</title>
<path fill="none" stroke="midnightblue" d="M2614.14,-622.57C2657.1,-618.32 2736.24,-607.23 2798,-580 2928.81,-522.32 2941.09,-472.84 3059,-392 3158.33,-323.9 3194.27,-322.04 3286,-244 3311.64,-222.19 3321.35,-217.81 3337,-188 3348.88,-165.38 3347.09,-157.38 3350,-132 3351.01,-123.17 3351.85,-120.7 3350,-112 3348,-102.59 3343.9,-92.76 3339.93,-84.7"/>
<polygon fill="midnightblue" stroke="midnightblue" points="3342.89,-82.81 3335.13,-75.59 3336.69,-86.07 3342.89,-82.81"/>
</g>
<!-- Node22&#45;&gt;Node17 -->
<g id="edge29" class="edge">
<title>Node22&#45;&gt;Node17</title>
<path fill="none" stroke="midnightblue" d="M2614.35,-625.36C2741.96,-625.42 3230.9,-611.99 3557,-412 3699.08,-324.87 3734.65,-97.38 3742.19,-30.04"/>
<polygon fill="midnightblue" stroke="midnightblue" points="3745.71,-30.02 3743.27,-19.71 3738.75,-29.3 3745.71,-30.02"/>
</g>
<!-- Node22&#45;&gt;Node20 -->
<g id="edge27" class="edge">
<title>Node22&#45;&gt;Node20</title>
<path fill="none" stroke="midnightblue" d="M2614.3,-623.95C2646.97,-621.1 2697.35,-611.47 2726,-580 2771.77,-529.73 2810.2,-343.53 2786,-280 2772.05,-243.38 2738.05,-211.59 2716.07,-193.89"/>
<polygon fill="midnightblue" stroke="midnightblue" points="2718.06,-191 2708.02,-187.61 2713.75,-196.52 2718.06,-191"/>
</g>
<!-- Node23 -->
<g id="node23" class="node">
<title>Node23</title>
<g id="a_node23"><a xlink:title=" ">
<polygon fill="none" stroke="#bfbfbf" points="2649.5,-560.5 2649.5,-579.5 2702.5,-579.5 2702.5,-560.5 2649.5,-560.5"/>
<text text-anchor="middle" x="2676" y="-567.5" font-family="Helvetica,sans-Serif" font-size="10.00">ctype.h</text>
</a>
</g>
</g>
<!-- Node22&#45;&gt;Node23 -->
<g id="edge31" class="edge">
<title>Node22&#45;&gt;Node23</title>
<path fill="none" stroke="midnightblue" d="M2597.94,-616.32C2612.59,-607.82 2635.13,-594.73 2652.24,-584.8"/>
<polygon fill="midnightblue" stroke="midnightblue" points="2654.2,-587.7 2661.1,-579.65 2650.69,-581.65 2654.2,-587.7"/>
</g>
<!-- Node22&#45;&gt;Node24 -->
<g id="edge33" class="edge">
<title>Node22&#45;&gt;Node24</title>
<path fill="none" stroke="midnightblue" d="M2551.97,-624.02C2359.64,-617.71 1330.72,-582.88 1055.63,-573.39"/>
<polygon fill="midnightblue" stroke="midnightblue" points="1055.51,-569.88 1045.4,-573.04 1055.27,-576.88 1055.51,-569.88"/>
</g>
<!-- Node22&#45;&gt;Node29 -->
<g id="edge147" class="edge">
<title>Node22&#45;&gt;Node29</title>
<path fill="none" stroke="midnightblue" d="M2559.93,-616.35C2495.43,-589.71 2309.07,-507.12 2151,-448 2118.3,-435.77 2080.57,-423.42 2054.65,-414.76"/>
<polygon fill="midnightblue" stroke="midnightblue" points="2055.58,-411.38 2044.98,-411.52 2053.35,-418.02 2055.58,-411.38"/>
</g>
<!-- Node24&#45;&gt;Node2 -->
<g id="edge34" class="edge">
<title>Node24&#45;&gt;Node2</title>
<path fill="none" stroke="midnightblue" d="M982.61,-560.08C960.42,-522.87 878.17,-379.86 898,-336 943.03,-236.37 1060.25,-164.77 1113.26,-136.43"/>
<polygon fill="midnightblue" stroke="midnightblue" points="1115.15,-139.39 1122.38,-131.64 1111.9,-133.19 1115.15,-139.39"/>
</g>
<!-- Node24&#45;&gt;Node3 -->
<g id="edge35" class="edge">
<title>Node24&#45;&gt;Node3</title>
<path fill="none" stroke="midnightblue" d="M959.13,-560.4C819.84,-517.59 231.76,-321.25 425,-112 473.85,-59.1 1569.19,-21.41 1841.25,-12.85"/>
<polygon fill="midnightblue" stroke="midnightblue" points="1841.45,-16.34 1851.34,-12.53 1841.23,-9.35 1841.45,-16.34"/>
</g>
<!-- Node24&#45;&gt;Node4 -->
<g id="edge36" class="edge">
<title>Node24&#45;&gt;Node4</title>
<path fill="none" stroke="midnightblue" d="M930.93,-561.73C748.29,-536.88 190,-448.07 190,-291 190,-291 190,-291 190,-233 190,-154.09 140.43,-126.44 176,-56 182.81,-42.52 195.77,-32.08 208,-24.67"/>
<polygon fill="midnightblue" stroke="midnightblue" points="210.07,-27.52 217.09,-19.59 206.66,-21.41 210.07,-27.52"/>
</g>
<!-- Node24&#45;&gt;Node5 -->
<g id="edge37" class="edge">
<title>Node24&#45;&gt;Node5</title>
<path fill="none" stroke="midnightblue" d="M973.99,-560.2C960.94,-551.7 941.25,-538.07 926,-524 901.9,-501.78 898.66,-493.45 878,-468 782.07,-349.8 686.74,-192.19 656.13,-140.34"/>
<polygon fill="midnightblue" stroke="midnightblue" points="659.12,-138.52 651.04,-131.67 653.08,-142.06 659.12,-138.52"/>
</g>
<!-- Node24&#45;&gt;Node6 -->
<g id="edge38" class="edge">
<title>Node24&#45;&gt;Node6</title>
<path fill="none" stroke="midnightblue" d="M979.65,-560.42C963.25,-543.41 926.01,-503.94 898,-468 828.18,-378.41 770.77,-325.38 822,-224 859.47,-149.86 967.15,-130.13 1023.94,-124.89"/>
<polygon fill="midnightblue" stroke="midnightblue" points="1024.58,-128.35 1034.26,-124.05 1024.01,-121.37 1024.58,-128.35"/>
</g>
<!-- Node24&#45;&gt;Node7 -->
<g id="edge39" class="edge">
<title>Node24&#45;&gt;Node7</title>
<path fill="none" stroke="midnightblue" d="M988.3,-560.11C989.79,-527.35 998.63,-411.42 1050,-336 1097.24,-266.64 1127.54,-262.7 1202,-224 1271.46,-187.9 1292.36,-183.94 1369,-168 1539.83,-132.46 1748.02,-124.94 1839.75,-123.38"/>
<polygon fill="midnightblue" stroke="midnightblue" points="1839.88,-126.88 1849.82,-123.23 1839.77,-119.88 1839.88,-126.88"/>
</g>
<!-- Node24&#45;&gt;Node9 -->
<g id="edge40" class="edge">
<title>Node24&#45;&gt;Node9</title>
<path fill="none" stroke="midnightblue" d="M969.24,-560.33C901.44,-528.13 666.15,-408.68 535,-244 517.54,-222.07 515.09,-214.51 506,-188 500.82,-172.89 497.73,-154.99 495.98,-141.8"/>
<polygon fill="midnightblue" stroke="midnightblue" points="499.43,-141.14 494.77,-131.62 492.47,-141.96 499.43,-141.14"/>
</g>
<!-- Node24&#45;&gt;Node11 -->
<g id="edge41" class="edge">
<title>Node24&#45;&gt;Node11</title>
<path fill="none" stroke="midnightblue" d="M1045.38,-568.85C1286.76,-566.63 2240.98,-542.19 2974,-300 2992.87,-293.76 2996.11,-288.65 3014,-280 3048.01,-263.55 3057.28,-261.03 3091,-244 3137.51,-220.51 3149.62,-215.3 3194,-188 3231.28,-165.07 3242.58,-161.4 3275,-132 3291.35,-117.17 3307.33,-97.53 3317.82,-83.74"/>
<polygon fill="midnightblue" stroke="midnightblue" points="3320.7,-85.73 3323.87,-75.62 3315.08,-81.55 3320.7,-85.73"/>
</g>
<!-- Node24&#45;&gt;Node19 -->
<g id="edge42" class="edge">
<title>Node24&#45;&gt;Node19</title>
<path fill="none" stroke="midnightblue" d="M994.82,-579.51C1013.96,-602.69 1071.01,-666.85 1135,-692 1198.17,-716.83 1656.99,-731.16 1821.5,-735.54"/>
<polygon fill="midnightblue" stroke="midnightblue" points="1821.81,-739.05 1831.9,-735.82 1822,-732.06 1821.81,-739.05"/>
</g>
<!-- Node24&#45;&gt;Node22 -->
<g id="edge143" class="edge">
<title>Node24&#45;&gt;Node22</title>
<path fill="none" stroke="midnightblue" d="M1045.39,-572.85C1299.86,-581.28 2322.88,-615.92 2541.71,-623.52"/>
<polygon fill="midnightblue" stroke="midnightblue" points="2541.69,-627.02 2551.81,-623.87 2541.93,-620.03 2541.69,-627.02"/>
</g>
<!-- Node24&#45;&gt;Node25 -->
<g id="edge43" class="edge">
<title>Node24&#45;&gt;Node25</title>
<path fill="none" stroke="midnightblue" d="M1045.04,-568.57C1137.78,-566.81 1326.53,-558.82 1482,-524 1765.46,-460.51 1849.32,-453.4 2096,-300 2117.33,-286.73 2137.58,-265.95 2150.34,-251.46"/>
<polygon fill="midnightblue" stroke="midnightblue" points="2153.09,-253.64 2156.94,-243.77 2147.78,-249.08 2153.09,-253.64"/>
</g>
<!-- Node26 -->
<g id="node26" class="node">
<title>Node26</title>
<g id="a_node26"><a xlink:href="setup_8h.html" target="_top" xlink:title=" ">
<polygon fill="none" stroke="black" points="1377.5,-168.5 1377.5,-187.5 1430.5,-187.5 1430.5,-168.5 1377.5,-168.5"/>
<text text-anchor="middle" x="1404" y="-175.5" font-family="Helvetica,sans-Serif" font-size="10.00">setup.h</text>
</a>
</g>
</g>
<!-- Node24&#45;&gt;Node26 -->
<g id="edge145" class="edge">
<title>Node24&#45;&gt;Node26</title>
<path fill="none" stroke="midnightblue" d="M1001.51,-560.4C1030.47,-545.05 1097.92,-510.5 1145,-468 1246.02,-376.81 1231.71,-318.13 1330,-224 1342.6,-211.93 1358.72,-200.75 1372.86,-192.55"/>
<polygon fill="midnightblue" stroke="midnightblue" points="1374.74,-195.51 1381.8,-187.62 1371.36,-189.38 1374.74,-195.51"/>
</g>
<!-- Node24&#45;&gt;Node27 -->
<g id="edge142" class="edge">
<title>Node24&#45;&gt;Node27</title>
<path fill="none" stroke="midnightblue" d="M1045.06,-569.36C1315.61,-570.03 2467.72,-560.62 2748,-356 2815.76,-306.53 2794.96,-222.29 2731,-168 2697.63,-139.68 2646.84,-129.18 2614.03,-125.29"/>
<polygon fill="midnightblue" stroke="midnightblue" points="2614.37,-121.81 2604.06,-124.24 2613.64,-128.77 2614.37,-121.81"/>
</g>
<!-- Node24&#45;&gt;Node28 -->
<g id="edge144" class="edge">
<title>Node24&#45;&gt;Node28</title>
<path fill="none" stroke="midnightblue" d="M1045.02,-567.62C1186.1,-563.8 1548.57,-551.56 1666,-524 1688.5,-518.72 1691.89,-510.74 1714,-504 1792.03,-480.19 1814.67,-487.06 1894,-468 1895.47,-467.65 1896.98,-467.27 1898.5,-466.88"/>
<polygon fill="midnightblue" stroke="midnightblue" points="1899.71,-470.18 1908.46,-464.2 1897.89,-463.42 1899.71,-470.18"/>
</g>
<!-- Node24&#45;&gt;Node30 -->
<g id="edge146" class="edge">
<title>Node24&#45;&gt;Node30</title>
<path fill="none" stroke="midnightblue" d="M1045.34,-561.68C1049.96,-561.1 1054.56,-560.54 1059,-560 1197.57,-543.22 1232.67,-542.71 1371,-524 1372.25,-523.83 1373.51,-523.66 1374.79,-523.48"/>
<polygon fill="midnightblue" stroke="midnightblue" points="1375.29,-526.94 1384.69,-522.06 1374.3,-520.01 1375.29,-526.94"/>
</g>
<!-- Node25&#45;&gt;Node6 -->
<g id="edge46" class="edge">
<title>Node25&#45;&gt;Node6</title>
<path fill="none" stroke="midnightblue" d="M2115.83,-228.77C1921.69,-211.68 1202.25,-147.86 1101,-132 1099.32,-131.74 1097.6,-131.45 1095.87,-131.14"/>
<polygon fill="midnightblue" stroke="midnightblue" points="1096.42,-127.68 1085.94,-129.19 1095.08,-134.55 1096.42,-127.68"/>
</g>
<!-- Node25&#45;&gt;Node11 -->
<g id="edge47" class="edge">
<title>Node25&#45;&gt;Node11</title>
<path fill="none" stroke="midnightblue" d="M2174.75,-224.43C2204.74,-201.11 2292.7,-136.61 2378,-112 2465.48,-86.76 3106.34,-71.65 3284.28,-67.92"/>
<polygon fill="midnightblue" stroke="midnightblue" points="3284.43,-71.41 3294.36,-67.71 3284.29,-64.42 3284.43,-71.41"/>
</g>
<!-- Node25&#45;&gt;Node20 -->
<g id="edge44" class="edge">
<title>Node25&#45;&gt;Node20</title>
<path fill="none" stroke="midnightblue" d="M2212.15,-228.11C2317.44,-217.43 2566.18,-192.18 2659.65,-182.69"/>
<polygon fill="midnightblue" stroke="midnightblue" points="2660.15,-186.16 2669.75,-181.66 2659.45,-179.19 2660.15,-186.16"/>
</g>
<!-- Node25&#45;&gt;Node21 -->
<g id="edge45" class="edge">
<title>Node25&#45;&gt;Node21</title>
<path fill="none" stroke="midnightblue" d="M2190.78,-224.44C2219.33,-215.32 2264.73,-200.81 2296.54,-190.65"/>
<polygon fill="midnightblue" stroke="midnightblue" points="2297.89,-193.89 2306.35,-187.52 2295.76,-187.23 2297.89,-193.89"/>
</g>
<!-- Node25&#45;&gt;Node22 -->
<g id="edge48" class="edge">
<title>Node25&#45;&gt;Node22</title>
<path fill="none" stroke="midnightblue" d="M2202.82,-243.54C2236.84,-251.49 2287.37,-264.44 2330,-280 2349.8,-287.23 2352.84,-293.85 2373,-300 2422.06,-314.96 2567.68,-297 2601,-336 2669.14,-415.75 2614.24,-557.49 2591.61,-607.19"/>
<polygon fill="midnightblue" stroke="midnightblue" points="2588.4,-605.8 2587.33,-616.34 2594.74,-608.77 2588.4,-605.8"/>
</g>
<!-- Node25&#45;&gt;Node26 -->
<g id="edge49" class="edge">
<title>Node25&#45;&gt;Node26</title>
<path fill="none" stroke="midnightblue" d="M2115.71,-230.8C2003.05,-225.22 1714.81,-209.41 1475,-188 1463.82,-187 1451.78,-185.74 1440.79,-184.49"/>
<polygon fill="midnightblue" stroke="midnightblue" points="1440.99,-180.99 1430.65,-183.29 1440.17,-187.94 1440.99,-180.99"/>
</g>
<!-- Node26&#45;&gt;Node2 -->
<g id="edge50" class="edge">
<title>Node26&#45;&gt;Node2</title>
<path fill="none" stroke="midnightblue" d="M1377.23,-171.53C1330.93,-162.05 1235.6,-142.55 1180.93,-131.37"/>
<polygon fill="midnightblue" stroke="midnightblue" points="1181.39,-127.89 1170.89,-129.32 1179.99,-134.75 1181.39,-127.89"/>
</g>
<!-- Node26&#45;&gt;Node3 -->
<g id="edge51" class="edge">
<title>Node26&#45;&gt;Node3</title>
<path fill="none" stroke="midnightblue" d="M1429.73,-168.42C1512.46,-140.85 1771.78,-54.41 1866.72,-22.76"/>
<polygon fill="midnightblue" stroke="midnightblue" points="1868.05,-26.01 1876.43,-19.52 1865.83,-19.37 1868.05,-26.01"/>
</g>
<!-- Node26&#45;&gt;Node4 -->
<g id="edge52" class="edge">
<title>Node26&#45;&gt;Node4</title>
<path fill="none" stroke="midnightblue" d="M1397.39,-168.43C1378.8,-145.12 1323.29,-80.65 1260,-56 1166.7,-19.66 445.38,-12.43 273.62,-11.22"/>
<polygon fill="midnightblue" stroke="midnightblue" points="273.59,-7.72 263.57,-11.15 273.54,-14.72 273.59,-7.72"/>
</g>
<!-- Node26&#45;&gt;Node5 -->
<g id="edge53" class="edge">
<title>Node26&#45;&gt;Node5</title>
<path fill="none" stroke="midnightblue" d="M1377.47,-175.11C1262.65,-166.93 808.61,-134.58 680.07,-125.43"/>
<polygon fill="midnightblue" stroke="midnightblue" points="680.24,-121.93 670.02,-124.71 679.74,-128.91 680.24,-121.93"/>
</g>
<!-- Node26&#45;&gt;Node6 -->
<g id="edge54" class="edge">
<title>Node26&#45;&gt;Node6</title>
<path fill="none" stroke="midnightblue" d="M1377.15,-173.64C1324.16,-166.88 1202.47,-150.65 1101,-132 1099.28,-131.68 1097.51,-131.35 1095.73,-131"/>
<polygon fill="midnightblue" stroke="midnightblue" points="1096.04,-127.48 1085.53,-128.89 1094.62,-134.34 1096.04,-127.48"/>
</g>
<!-- Node26&#45;&gt;Node7 -->
<g id="edge55" class="edge">
<title>Node26&#45;&gt;Node7</title>
<path fill="none" stroke="midnightblue" d="M1430.66,-174.02C1509.06,-165.25 1739.68,-139.47 1839.76,-128.28"/>
<polygon fill="midnightblue" stroke="midnightblue" points="1840.33,-131.74 1849.88,-127.15 1839.55,-124.78 1840.33,-131.74"/>
</g>
<!-- Node26&#45;&gt;Node8 -->
<g id="edge56" class="edge">
<title>Node26&#45;&gt;Node8</title>
<path fill="none" stroke="midnightblue" d="M1430.85,-176.67C1580.93,-174.71 2331.03,-163.69 2943,-132 2968.45,-130.68 2996.87,-128.6 3019.76,-126.77"/>
<polygon fill="midnightblue" stroke="midnightblue" points="3020.18,-130.25 3029.86,-125.95 3019.61,-123.27 3020.18,-130.25"/>
</g>
<!-- Node26&#45;&gt;Node9 -->
<g id="edge57" class="edge">
<title>Node26&#45;&gt;Node9</title>
<path fill="none" stroke="midnightblue" d="M1377.36,-175.67C1277.09,-170.6 912.89,-151.87 613,-132 597.14,-130.95 580.11,-129.72 564.02,-128.51"/>
<polygon fill="midnightblue" stroke="midnightblue" points="563.84,-124.99 553.61,-127.73 563.32,-131.97 563.84,-124.99"/>
</g>
<!-- Node26&#45;&gt;Node10 -->
<g id="edge58" class="edge">
<title>Node26&#45;&gt;Node10</title>
<path fill="none" stroke="midnightblue" d="M1430.67,-176.03C1604.69,-169.69 2579.19,-134.18 2828.11,-125.11"/>
<polygon fill="midnightblue" stroke="midnightblue" points="2828.51,-128.6 2838.38,-124.74 2828.26,-121.6 2828.51,-128.6"/>
</g>
<!-- Node26&#45;&gt;Node11 -->
<g id="edge59" class="edge">
<title>Node26&#45;&gt;Node11</title>
<path fill="none" stroke="midnightblue" d="M1430.51,-174.71C1489.87,-169.36 1637.81,-154.73 1760,-132 1796.46,-125.22 1804.26,-117.03 1841,-112 2129.97,-72.41 3065.64,-67.65 3284.09,-67.08"/>
<polygon fill="midnightblue" stroke="midnightblue" points="3284.25,-70.58 3294.24,-67.05 3284.24,-63.58 3284.25,-70.58"/>
</g>
<!-- Node26&#45;&gt;Node19 -->
<g id="edge60" class="edge">
<title>Node26&#45;&gt;Node19</title>
<path fill="none" stroke="midnightblue" d="M1377.31,-185.99C1257.96,-218.65 784.42,-363.7 907,-580 954.76,-664.28 1001.4,-663.52 1094,-692 1229.77,-733.76 1663.2,-737.37 1821.45,-737.26"/>
<polygon fill="midnightblue" stroke="midnightblue" points="1821.92,-740.75 1831.91,-737.24 1821.91,-733.75 1821.92,-740.75"/>
</g>
<!-- Node26&#45;&gt;Node22 -->
<g id="edge136" class="edge">
<title>Node26&#45;&gt;Node22</title>
<path fill="none" stroke="midnightblue" d="M1409.11,-187.85C1426.12,-216.54 1483.88,-307.92 1556,-356 1888.52,-577.68 2394.5,-616.82 2541.57,-623.6"/>
<polygon fill="midnightblue" stroke="midnightblue" points="2541.79,-627.12 2551.93,-624.05 2542.09,-620.12 2541.79,-627.12"/>
</g>
<!-- Node26&#45;&gt;Node24 -->
<g id="edge139" class="edge">
<title>Node26&#45;&gt;Node24</title>
<path fill="none" stroke="midnightblue" d="M1395.58,-187.78C1383.69,-196.07 1363.27,-209.38 1348,-224 1249.71,-318.13 1264.02,-376.81 1163,-468 1119.79,-507.01 1059.4,-539.33 1021.87,-556.24"/>
<polygon fill="midnightblue" stroke="midnightblue" points="1020.14,-553.18 1012.39,-560.4 1022.95,-559.59 1020.14,-553.18"/>
</g>
<!-- Node26&#45;&gt;Node25 -->
<g id="edge61" class="edge">
<title>Node26&#45;&gt;Node25</title>
<path fill="none" stroke="midnightblue" d="M1430.6,-181.43C1448.56,-183.4 1472.26,-186.15 1493,-188 1719.5,-208.22 1989.19,-223.45 2105.74,-229.78"/>
<polygon fill="midnightblue" stroke="midnightblue" points="2105.69,-233.28 2115.87,-230.33 2106.07,-226.29 2105.69,-233.28"/>
</g>
<!-- Node26&#45;&gt;Node27 -->
<g id="edge62" class="edge">
<title>Node26&#45;&gt;Node27</title>
<path fill="none" stroke="midnightblue" d="M1430.54,-175.68C1586.26,-168.27 2378.83,-131.94 2549.6,-124.38"/>
<polygon fill="midnightblue" stroke="midnightblue" points="2549.88,-127.87 2559.72,-123.93 2549.57,-120.88 2549.88,-127.87"/>
</g>
<!-- Node26&#45;&gt;Node28 -->
<g id="edge137" class="edge">
<title>Node26&#45;&gt;Node28</title>
<path fill="none" stroke="midnightblue" d="M1425.83,-187.56C1444.77,-195.52 1472.46,-208.47 1494,-224 1561.31,-272.51 1555.49,-312.28 1626,-356 1668.64,-382.44 1685.45,-375.99 1733,-392 1792.11,-411.9 1861.41,-435.24 1898.78,-447.83"/>
<polygon fill="midnightblue" stroke="midnightblue" points="1897.84,-451.21 1908.44,-451.08 1900.08,-444.57 1897.84,-451.21"/>
</g>
<!-- Node26&#45;&gt;Node29 -->
<g id="edge141" class="edge">
<title>Node26&#45;&gt;Node29</title>
<path fill="none" stroke="midnightblue" d="M1430.59,-184.57C1457.64,-191.07 1500.02,-203.62 1532,-224 1601.17,-268.09 1587.5,-319.57 1661,-356 1714.86,-382.69 1887.56,-394.51 1973.89,-398.86"/>
<polygon fill="midnightblue" stroke="midnightblue" points="1973.82,-402.36 1983.97,-399.36 1974.16,-395.37 1973.82,-402.36"/>
</g>
<!-- Node26&#45;&gt;Node30 -->
<g id="edge138" class="edge">
<title>Node26&#45;&gt;Node30</title>
<path fill="none" stroke="midnightblue" d="M1397.85,-187.78C1374.76,-212.88 1300.6,-287.52 1323,-356 1342.33,-415.11 1393.32,-470.39 1417.1,-496.78"/>
<polygon fill="midnightblue" stroke="midnightblue" points="1414.53,-499.16 1423.79,-504.31 1419.76,-494.51 1414.53,-499.16"/>
</g>
<!-- Node26&#45;&gt;Node32 -->
<g id="edge140" class="edge">
<title>Node26&#45;&gt;Node32</title>
<path fill="none" stroke="midnightblue" d="M1430.63,-179.12C1553.48,-179.86 2066.14,-185.25 2221,-224 2241.45,-229.12 2244.2,-236.77 2264,-244 2302.64,-258.11 2347.76,-270.06 2381.2,-278.09"/>
<polygon fill="midnightblue" stroke="midnightblue" points="2380.64,-281.56 2391.18,-280.46 2382.26,-274.75 2380.64,-281.56"/>
</g>
<!-- Node27&#45;&gt;Node11 -->
<g id="edge63" class="edge">
<title>Node27&#45;&gt;Node11</title>
<path fill="none" stroke="midnightblue" d="M2604.39,-119.38C2707.9,-111.91 3141.18,-80.63 3284.07,-70.32"/>
<polygon fill="midnightblue" stroke="midnightblue" points="3284.52,-73.79 3294.24,-69.58 3284.01,-66.81 3284.52,-73.79"/>
</g>
<!-- Node27&#45;&gt;Node22 -->
<g id="edge64" class="edge">
<title>Node27&#45;&gt;Node22</title>
<path fill="none" stroke="midnightblue" d="M2604.06,-124.03C2638.84,-126.63 2707.23,-135.78 2754,-168 2818.48,-212.42 2803.52,-257.78 2807,-336 2811.98,-447.67 2832.34,-509 2746,-580 2711.33,-608.51 2659.92,-619.02 2624.14,-622.86"/>
<polygon fill="midnightblue" stroke="midnightblue" points="2623.66,-619.39 2614.04,-623.81 2624.32,-626.36 2623.66,-619.39"/>
</g>
<!-- Node27&#45;&gt;Node26 -->
<g id="edge135" class="edge">
<title>Node27&#45;&gt;Node26</title>
<path fill="none" stroke="midnightblue" d="M2559.65,-124.12C2415.78,-130.99 1622.08,-167.38 1440.82,-175.43"/>
<polygon fill="midnightblue" stroke="midnightblue" points="1440.56,-171.93 1430.73,-175.87 1440.87,-178.93 1440.56,-171.93"/>
</g>
<!-- Node27&#45;&gt;Node28 -->
<g id="edge65" class="edge">
<title>Node27&#45;&gt;Node28</title>
<path fill="none" stroke="midnightblue" d="M2586.5,-131.53C2603.47,-164.99 2659.66,-288.69 2601,-356 2562.53,-400.14 2397.92,-383.46 2340,-392 2194.43,-413.46 2020.48,-441.58 1953.84,-452.44"/>
<polygon fill="midnightblue" stroke="midnightblue" points="1953.04,-449.03 1943.74,-454.09 1954.17,-455.94 1953.04,-449.03"/>
</g>
<!-- Node28&#45;&gt;Node11 -->
<g id="edge66" class="edge">
<title>Node28&#45;&gt;Node11</title>
<path fill="none" stroke="midnightblue" d="M1943.73,-454.98C1996.31,-448.96 2155.96,-430.39 2288,-412 2611.36,-366.97 2697.91,-381.73 3014,-300 3153.4,-263.95 3229.91,-301.9 3318,-188 3340.95,-158.33 3337.82,-111.55 3333.76,-85.71"/>
<polygon fill="midnightblue" stroke="midnightblue" points="3337.18,-84.96 3331.98,-75.73 3330.29,-86.19 3337.18,-84.96"/>
</g>
<!-- Node28&#45;&gt;Node22 -->
<g id="edge67" class="edge">
<title>Node28&#45;&gt;Node22</title>
<path fill="none" stroke="midnightblue" d="M1943.66,-464.42C2002.41,-482.36 2196.85,-540.85 2360,-580 2423.07,-595.13 2496.98,-609.37 2541.87,-617.63"/>
<polygon fill="midnightblue" stroke="midnightblue" points="2541.35,-621.09 2551.82,-619.45 2542.61,-614.21 2541.35,-621.09"/>
</g>
<!-- Node28&#45;&gt;Node29 -->
<g id="edge68" class="edge">
<title>Node28&#45;&gt;Node29</title>
<path fill="none" stroke="midnightblue" d="M1936.63,-448.32C1950.47,-439.66 1974.57,-426.24 1994.05,-416.25"/>
<polygon fill="midnightblue" stroke="midnightblue" points="1995.82,-419.28 2003.18,-411.65 1992.68,-413.02 1995.82,-419.28"/>
</g>
<!-- Node29&#45;&gt;Node2 -->
<g id="edge69" class="edge">
<title>Node29&#45;&gt;Node2</title>
<path fill="none" stroke="midnightblue" d="M1983.85,-395.56C1941.12,-389.04 1871.97,-376.36 1815,-356 1639.44,-293.25 1618.33,-222.38 1440,-168 1350.13,-140.59 1239.83,-129.53 1181.22,-125.34"/>
<polygon fill="midnightblue" stroke="midnightblue" points="1181.1,-121.83 1170.89,-124.64 1180.63,-128.81 1181.1,-121.83"/>
</g>
<!-- Node29&#45;&gt;Node3 -->
<g id="edge70" class="edge">
<title>Node29&#45;&gt;Node3</title>
<path fill="none" stroke="midnightblue" d="M2023.74,-392.28C2022.56,-361.04 2016.55,-252.11 1988,-168 1969.51,-113.53 1932.81,-55.76 1913.89,-27.93"/>
<polygon fill="midnightblue" stroke="midnightblue" points="1916.76,-25.94 1908.21,-19.69 1911,-29.91 1916.76,-25.94"/>
</g>
<!-- Node29&#45;&gt;Node4 -->
<g id="edge71" class="edge">
<title>Node29&#45;&gt;Node4</title>
<path fill="none" stroke="midnightblue" d="M1983.65,-399.58C1885.12,-395.72 1634.61,-383.43 1556,-356 1367.91,-290.36 1367.73,-178.65 1180,-112 1008.02,-50.94 426.78,-19.89 274.03,-12.67"/>
<polygon fill="midnightblue" stroke="midnightblue" points="273.93,-9.16 263.78,-12.19 273.61,-16.15 273.93,-9.16"/>
</g>
<!-- Node29&#45;&gt;Node5 -->
<g id="edge72" class="edge">
<title>Node29&#45;&gt;Node5</title>
<path fill="none" stroke="midnightblue" d="M1983.9,-401.37C1883.11,-401.6 1611.45,-397.94 1390,-356 1105.21,-302.06 776.27,-175.32 676.32,-135.32"/>
<polygon fill="midnightblue" stroke="midnightblue" points="677.43,-132 666.85,-131.51 674.82,-138.49 677.43,-132"/>
</g>
<!-- Node29&#45;&gt;Node6 -->
<g id="edge73" class="edge">
<title>Node29&#45;&gt;Node6</title>
<path fill="none" stroke="midnightblue" d="M1983.79,-400.13C1911.22,-397.74 1753.96,-388.89 1626,-356 1407.88,-299.94 1162.99,-177.01 1085.15,-136.35"/>
<polygon fill="midnightblue" stroke="midnightblue" points="1086.57,-133.15 1076.09,-131.6 1083.32,-139.34 1086.57,-133.15"/>
</g>
<!-- Node29&#45;&gt;Node7 -->
<g id="edge74" class="edge">
<title>Node29&#45;&gt;Node7</title>
<path fill="none" stroke="midnightblue" d="M2019.75,-392.38C2000.61,-353.54 1922.22,-194.47 1895.77,-140.79"/>
<polygon fill="midnightblue" stroke="midnightblue" points="1898.76,-138.95 1891.2,-131.52 1892.48,-142.04 1898.76,-138.95"/>
</g>
<!-- Node29&#45;&gt;Node8 -->
<g id="edge75" class="edge">
<title>Node29&#45;&gt;Node8</title>
<path fill="none" stroke="midnightblue" d="M2064.26,-399.35C2130.37,-395.87 2265.59,-385.49 2376,-356 2398.33,-350.04 2401.66,-341.93 2424,-336 2549.11,-302.8 2589.17,-337.69 2713,-300 2845.73,-259.6 2989,-171.74 3042.37,-137.28"/>
<polygon fill="midnightblue" stroke="midnightblue" points="3044.52,-140.06 3050.99,-131.67 3040.7,-134.19 3044.52,-140.06"/>
</g>
<!-- Node29&#45;&gt;Node9 -->
<g id="edge76" class="edge">
<title>Node29&#45;&gt;Node9</title>
<path fill="none" stroke="midnightblue" d="M1983.99,-401.15C1873.16,-401.02 1553.03,-396.83 1291,-356 990.22,-309.14 912.83,-292.72 627,-188 587.45,-173.51 544.04,-150.94 517.91,-136.57"/>
<polygon fill="midnightblue" stroke="midnightblue" points="519.55,-133.47 509.11,-131.67 516.15,-139.59 519.55,-133.47"/>
</g>
<!-- Node29&#45;&gt;Node10 -->
<g id="edge77" class="edge">
<title>Node29&#45;&gt;Node10</title>
<path fill="none" stroke="midnightblue" d="M2064.31,-398.49C2124.72,-393.99 2241.9,-382.45 2338,-356 2360.28,-349.87 2363.72,-342.15 2386,-336 2561.84,-287.44 2637.17,-349.48 2786,-244 2826.42,-215.35 2859.86,-166.38 2875.85,-140.39"/>
<polygon fill="midnightblue" stroke="midnightblue" points="2878.95,-142.02 2881.1,-131.65 2872.95,-138.42 2878.95,-142.02"/>
</g>
<!-- Node29&#45;&gt;Node11 -->
<g id="edge78" class="edge">
<title>Node29&#45;&gt;Node11</title>
<path fill="none" stroke="midnightblue" d="M2064.11,-398.07C2135.07,-392.5 2287.23,-378.87 2414,-356 2450.49,-349.42 2458.59,-343.01 2495,-336 2609.12,-314.04 2641.73,-330.02 2754,-300 2974.36,-241.08 3223.68,-120.53 3303.77,-80.36"/>
<polygon fill="midnightblue" stroke="midnightblue" points="3305.74,-83.28 3313.1,-75.65 3302.59,-77.03 3305.74,-83.28"/>
</g>
<!-- Node29&#45;&gt;Node19 -->
<g id="edge79" class="edge">
<title>Node29&#45;&gt;Node19</title>
<path fill="none" stroke="midnightblue" d="M2024.41,-411.67C2025.73,-449.42 2026.25,-601.69 1955,-692 1943.97,-705.98 1927.3,-716.6 1912.47,-724"/>
<polygon fill="midnightblue" stroke="midnightblue" points="1910.65,-720.99 1903.08,-728.4 1913.62,-727.33 1910.65,-720.99"/>
</g>
<!-- Node29&#45;&gt;Node22 -->
<g id="edge82" class="edge">
<title>Node29&#45;&gt;Node22</title>
<path fill="none" stroke="midnightblue" d="M2058.67,-411.52C2088.47,-420.14 2131.96,-434.15 2169,-448 2319.05,-504.12 2494.57,-581.38 2558.44,-611.87"/>
<polygon fill="midnightblue" stroke="midnightblue" points="2557.18,-615.15 2567.71,-616.35 2560.23,-608.85 2557.18,-615.15"/>
</g>
<!-- Node29&#45;&gt;Node24 -->
<g id="edge101" class="edge">
<title>Node29&#45;&gt;Node24</title>
<path fill="none" stroke="midnightblue" d="M1998.6,-411.56C1973.38,-420.22 1933.72,-434.24 1900,-448 1880.11,-456.11 1876.48,-461.51 1856,-468 1774.07,-493.97 1747.14,-475.67 1666,-504 1647.98,-510.29 1646.36,-518.77 1628,-524 1521.98,-554.18 1197.35,-564.59 1055.5,-567.76"/>
<polygon fill="midnightblue" stroke="midnightblue" points="1055.13,-564.27 1045.21,-567.99 1055.28,-571.27 1055.13,-564.27"/>
</g>
<!-- Node29&#45;&gt;Node25 -->
<g id="edge80" class="edge">
<title>Node29&#45;&gt;Node25</title>
<path fill="none" stroke="midnightblue" d="M2050.95,-392.42C2087.43,-379.18 2151.03,-349.94 2178,-300 2185.96,-285.27 2180.4,-266.37 2174.1,-252.75"/>
<polygon fill="midnightblue" stroke="midnightblue" points="2177.03,-250.8 2169.34,-243.52 2170.81,-254.01 2177.03,-250.8"/>
</g>
<!-- Node29&#45;&gt;Node27 -->
<g id="edge81" class="edge">
<title>Node29&#45;&gt;Node27</title>
<path fill="none" stroke="midnightblue" d="M2064.39,-392.91C2182.28,-369.28 2517.82,-301.9 2520,-300 2526.25,-294.55 2561.82,-185.67 2576.08,-141.44"/>
<polygon fill="midnightblue" stroke="midnightblue" points="2579.49,-142.28 2579.22,-131.69 2572.83,-140.14 2579.49,-142.28"/>
</g>
<!-- Node29&#45;&gt;Node28 -->
<g id="edge83" class="edge">
<title>Node29&#45;&gt;Node28</title>
<path fill="none" stroke="midnightblue" d="M2013.38,-411.67C1998.72,-420.84 1972.53,-435.37 1952.52,-445.5"/>
<polygon fill="midnightblue" stroke="midnightblue" points="1950.95,-442.37 1943.54,-449.94 1954.06,-448.64 1950.95,-442.37"/>
</g>
<!-- Node29&#45;&gt;Node30 -->
<g id="edge84" class="edge">
<title>Node29&#45;&gt;Node30</title>
<path fill="none" stroke="midnightblue" d="M1984.43,-411.54C1924.08,-424.46 1805.35,-449.42 1704,-468 1627.62,-482 1538.91,-496.14 1483.36,-504.73"/>
<polygon fill="midnightblue" stroke="midnightblue" points="1482.73,-501.29 1473.39,-506.27 1483.8,-508.21 1482.73,-501.29"/>
</g>
<!-- Node29&#45;&gt;Node32 -->
<g id="edge102" class="edge">
<title>Node29&#45;&gt;Node32</title>
<path fill="none" stroke="midnightblue" d="M2055.52,-392.46C2128.15,-372.78 2307.27,-324.25 2388.61,-302.21"/>
<polygon fill="midnightblue" stroke="midnightblue" points="2389.76,-305.53 2398.5,-299.53 2387.93,-298.77 2389.76,-305.53"/>
</g>
<!-- Node33 -->
<g id="node33" class="node">
<title>Node33</title>
<g id="a_node33"><a xlink:href="BC__Handlers_8h.html" target="_top" xlink:title=" ">
<polygon fill="none" stroke="black" points="2504,-336.5 2504,-355.5 2592,-355.5 2592,-336.5 2504,-336.5"/>
<text text-anchor="middle" x="2548" y="-343.5" font-family="Helvetica,sans-Serif" font-size="10.00">BC_Handlers.h</text>
</a>
</g>
</g>
<!-- Node29&#45;&gt;Node33 -->
<g id="edge111" class="edge">
<title>Node29&#45;&gt;Node33</title>
<path fill="none" stroke="midnightblue" d="M2064.26,-396.44C2157.56,-386.45 2388.2,-362.68 2493.77,-352.16"/>
<polygon fill="midnightblue" stroke="midnightblue" points="2494.29,-355.62 2503.89,-351.15 2493.6,-348.66 2494.29,-355.62"/>
</g>
<!-- Node34 -->
<g id="node34" class="node">
<title>Node34</title>
<g id="a_node34"><a xlink:href="wallfunction_8h.html" target="_top" xlink:title=" ">
<polygon fill="none" stroke="black" points="1824,-336.5 1824,-355.5 1910,-355.5 1910,-336.5 1824,-336.5"/>
<text text-anchor="middle" x="1867" y="-343.5" font-family="Helvetica,sans-Serif" font-size="10.00">wallfunction.h</text>
</a>
</g>
</g>
<!-- Node29&#45;&gt;Node34 -->
<g id="edge115" class="edge">
<title>Node29&#45;&gt;Node34</title>
<path fill="none" stroke="midnightblue" d="M1994.03,-392.44C1965.88,-383.44 1924.24,-369.19 1896.3,-359.05"/>
<polygon fill="midnightblue" stroke="midnightblue" points="1897.27,-355.68 1886.68,-355.52 1894.86,-362.25 1897.27,-355.68"/>
</g>
<!-- Node30&#45;&gt;Node2 -->
<g id="edge85" class="edge">
<title>Node30&#45;&gt;Node2</title>
<path fill="none" stroke="midnightblue" d="M1414.64,-504.31C1367.63,-474.92 1218.24,-373.74 1164,-244 1149.59,-209.54 1143.68,-165.88 1141.37,-141.55"/>
<polygon fill="midnightblue" stroke="midnightblue" points="1144.86,-141.22 1140.53,-131.55 1137.88,-141.81 1144.86,-141.22"/>
</g>
<!-- Node30&#45;&gt;Node3 -->
<g id="edge86" class="edge">
<title>Node30&#45;&gt;Node3</title>
<path fill="none" stroke="midnightblue" d="M1384.88,-509.19C1303.45,-499.57 1130.52,-466.52 1050,-356 985.83,-267.93 953.49,-193.34 1026,-112 1080.29,-51.09 1651.74,-21.58 1841.29,-13.42"/>
<polygon fill="midnightblue" stroke="midnightblue" points="1841.52,-16.91 1851.36,-12.99 1841.22,-9.92 1841.52,-16.91"/>
</g>
<!-- Node30&#45;&gt;Node4 -->
<g id="edge87" class="edge">
<title>Node30&#45;&gt;Node4</title>
<path fill="none" stroke="midnightblue" d="M1384.89,-512.53C1302.61,-510.8 1120.61,-502.96 972,-468 644.55,-390.96 327.72,-99.17 253.35,-27.15"/>
<polygon fill="midnightblue" stroke="midnightblue" points="255.45,-24.3 245.85,-19.82 250.56,-29.31 255.45,-24.3"/>
</g>
<!-- Node30&#45;&gt;Node5 -->
<g id="edge88" class="edge">
<title>Node30&#45;&gt;Node5</title>
<path fill="none" stroke="midnightblue" d="M1384.93,-512.75C1318.69,-511.15 1190.33,-503.27 1088,-468 1041.66,-452.03 937.33,-385.25 898,-356 800.69,-283.63 698.83,-179.06 661.16,-139.24"/>
<polygon fill="midnightblue" stroke="midnightblue" points="663.52,-136.64 654.12,-131.75 658.42,-141.44 663.52,-136.64"/>
</g>
<!-- Node30&#45;&gt;Node6 -->
<g id="edge89" class="edge">
<title>Node30&#45;&gt;Node6</title>
<path fill="none" stroke="midnightblue" d="M1405.66,-504.42C1385.37,-496.44 1355.6,-483.48 1332,-468 1195.71,-378.61 1097.42,-198.05 1068.66,-140.82"/>
<polygon fill="midnightblue" stroke="midnightblue" points="1071.68,-139.03 1064.11,-131.62 1065.41,-142.14 1071.68,-139.03"/>
</g>
<!-- Node30&#45;&gt;Node7 -->
<g id="edge90" class="edge">
<title>Node30&#45;&gt;Node7</title>
<path fill="none" stroke="midnightblue" d="M1429.94,-504.24C1431.72,-491 1436.59,-465.55 1449,-448 1562.76,-287.11 1781,-173.04 1858.68,-135.98"/>
<polygon fill="midnightblue" stroke="midnightblue" points="1860.31,-139.08 1867.86,-131.65 1857.32,-132.75 1860.31,-139.08"/>
</g>
<!-- Node30&#45;&gt;Node8 -->
<g id="edge93" class="edge">
<title>Node30&#45;&gt;Node8</title>
<path fill="none" stroke="midnightblue" d="M1473,-511.98C1631.35,-507.32 2185.76,-482.36 2621,-356 2794.05,-305.76 2842.24,-291.14 2990,-188 3011.33,-173.11 3033.45,-152.96 3047.88,-139.06"/>
<polygon fill="midnightblue" stroke="midnightblue" points="3050.72,-141.18 3055.42,-131.69 3045.82,-136.18 3050.72,-141.18"/>
</g>
<!-- Node30&#45;&gt;Node9 -->
<g id="edge91" class="edge">
<title>Node30&#45;&gt;Node9</title>
<path fill="none" stroke="midnightblue" d="M1384.95,-512.43C1311.92,-510.49 1161.72,-502.25 1040,-468 925.92,-435.9 641.47,-326.11 556,-244 525.47,-214.67 507.28,-167.03 499.13,-141.15"/>
<polygon fill="midnightblue" stroke="midnightblue" points="502.47,-140.08 496.25,-131.5 495.76,-142.09 502.47,-140.08"/>
</g>
<!-- Node30&#45;&gt;Node11 -->
<g id="edge94" class="edge">
<title>Node30&#45;&gt;Node11</title>
<path fill="none" stroke="midnightblue" d="M1463.14,-504.41C1514.43,-491.6 1614.5,-466.95 1700,-448 1821.77,-421.01 1852.5,-415.48 1975,-392 2088.53,-370.24 2376.7,-334.61 2487,-300 2600.85,-264.28 2628.81,-249.61 2731,-188 2778.51,-159.36 2778.33,-132.17 2830,-112 2912.11,-79.94 3176.6,-70.45 3284.01,-67.88"/>
<polygon fill="midnightblue" stroke="midnightblue" points="3284.29,-71.37 3294.21,-67.64 3284.13,-64.37 3284.29,-71.37"/>
</g>
<!-- Node30&#45;&gt;Node19 -->
<g id="edge95" class="edge">
<title>Node30&#45;&gt;Node19</title>
<path fill="none" stroke="midnightblue" d="M1442.75,-523.61C1486.61,-550.82 1627.62,-636.5 1752,-692 1781.44,-705.13 1815.97,-717.08 1841.75,-725.36"/>
<polygon fill="midnightblue" stroke="midnightblue" points="1840.93,-728.77 1851.52,-728.46 1843.04,-722.1 1840.93,-728.77"/>
</g>
<!-- Node30&#45;&gt;Node22 -->
<g id="edge98" class="edge">
<title>Node30&#45;&gt;Node22</title>
<path fill="none" stroke="midnightblue" d="M1473.11,-519.2C1657.24,-536.76 2363.28,-604.06 2541.8,-621.07"/>
<polygon fill="midnightblue" stroke="midnightblue" points="2541.55,-624.56 2551.83,-622.03 2542.21,-617.6 2541.55,-624.56"/>
</g>
<!-- Node30&#45;&gt;Node25 -->
<g id="edge96" class="edge">
<title>Node30&#45;&gt;Node25</title>
<path fill="none" stroke="midnightblue" d="M1459.85,-504.4C1483.52,-496.96 1516.37,-484.75 1542,-468 1582.25,-441.69 1577.5,-416.29 1619,-392 1780.18,-297.63 2001.72,-256.91 2105.68,-242.15"/>
<polygon fill="midnightblue" stroke="midnightblue" points="2106.24,-245.61 2115.67,-240.76 2105.28,-238.67 2106.24,-245.61"/>
</g>
<!-- Node30&#45;&gt;Node26 -->
<g id="edge100" class="edge">
<title>Node30&#45;&gt;Node26</title>
<path fill="none" stroke="midnightblue" d="M1414.9,-504.31C1386.73,-482.31 1326.43,-421.51 1305,-356 1284.26,-292.6 1346.29,-223.93 1381.7,-194.17"/>
<polygon fill="midnightblue" stroke="midnightblue" points="1384.04,-196.77 1389.65,-187.78 1379.66,-191.32 1384.04,-196.77"/>
</g>
<!-- Node30&#45;&gt;Node27 -->
<g id="edge97" class="edge">
<title>Node30&#45;&gt;Node27</title>
<path fill="none" stroke="midnightblue" d="M1463.66,-504.48C1515.73,-491.74 1617.3,-467.2 1704,-448 1944.16,-394.82 2003.82,-379.08 2246,-336 2352.63,-317.03 2398.78,-362.81 2487,-300 2540.93,-261.61 2524.1,-226.01 2556,-168 2561.06,-158.79 2566.9,-148.65 2571.76,-140.33"/>
<polygon fill="midnightblue" stroke="midnightblue" points="2574.86,-141.96 2576.91,-131.57 2568.82,-138.42 2574.86,-141.96"/>
</g>
<!-- Node30&#45;&gt;Node28 -->
<g id="edge99" class="edge">
<title>Node30&#45;&gt;Node28</title>
<path fill="none" stroke="midnightblue" d="M1473.11,-508.21C1573.37,-497.31 1816.08,-470.94 1898.26,-462.01"/>
<polygon fill="midnightblue" stroke="midnightblue" points="1898.77,-465.48 1908.33,-460.92 1898.01,-458.52 1898.77,-465.48"/>
</g>
<!-- Node31 -->
<g id="node31" class="node">
<title>Node31</title>
<g id="a_node31"><a xlink:title=" ">
<polygon fill="none" stroke="#bfbfbf" points="1457.5,-448.5 1457.5,-467.5 1532.5,-467.5 1532.5,-448.5 1457.5,-448.5"/>
<text text-anchor="middle" x="1495" y="-455.5" font-family="Helvetica,sans-Serif" font-size="10.00">petscerror.h</text>
</a>
</g>
</g>
<!-- Node30&#45;&gt;Node31 -->
<g id="edge92" class="edge">
<title>Node30&#45;&gt;Node31</title>
<path fill="none" stroke="midnightblue" d="M1439.6,-504.32C1449.46,-496.26 1464.35,-484.08 1476.22,-474.37"/>
<polygon fill="midnightblue" stroke="midnightblue" points="1478.68,-476.88 1484.2,-467.83 1474.25,-471.46 1478.68,-476.88"/>
</g>
<!-- Node32&#45;&gt;Node3 -->
<g id="edge104" class="edge">
<title>Node32&#45;&gt;Node3</title>
<path fill="none" stroke="midnightblue" d="M2414.76,-280.49C2359.17,-249.5 2161.87,-140.17 1996,-56 1973.88,-44.77 1948.49,-32.67 1929.68,-23.84"/>
<polygon fill="midnightblue" stroke="midnightblue" points="1931.04,-20.61 1920.5,-19.55 1928.07,-26.95 1931.04,-20.61"/>
</g>
<!-- Node32&#45;&gt;Node6 -->
<g id="edge107" class="edge">
<title>Node32&#45;&gt;Node6</title>
<path fill="none" stroke="midnightblue" d="M2403.81,-280.41C2377.8,-271.73 2336.86,-257.69 2302,-244 2281.25,-235.85 2277.62,-229.42 2256,-224 1959.29,-149.57 1874.95,-192.15 1570,-168 1361.59,-151.5 1307.82,-162.49 1101,-132 1099.31,-131.75 1097.6,-131.47 1095.86,-131.17"/>
<polygon fill="midnightblue" stroke="midnightblue" points="1096.41,-127.71 1085.93,-129.26 1095.09,-134.59 1096.41,-127.71"/>
</g>
<!-- Node32&#45;&gt;Node8 -->
<g id="edge106" class="edge">
<title>Node32&#45;&gt;Node8</title>
<path fill="none" stroke="midnightblue" d="M2442.6,-280.42C2461.99,-267.4 2500.5,-242.23 2535,-224 2589.18,-195.36 2601.85,-184.03 2661,-168 2727.75,-149.91 2929.41,-133.08 3019.59,-126.23"/>
<polygon fill="midnightblue" stroke="midnightblue" points="3020.05,-129.71 3029.76,-125.47 3019.53,-122.73 3020.05,-129.71"/>
</g>
<!-- Node32&#45;&gt;Node11 -->
<g id="edge108" class="edge">
<title>Node32&#45;&gt;Node11</title>
<path fill="none" stroke="midnightblue" d="M2425.54,-280.49C2415.16,-259.41 2392.04,-203.88 2416,-168 2452.07,-113.98 2487.69,-126.52 2551,-112 2691.89,-79.69 3139.24,-69.98 3284.19,-67.64"/>
<polygon fill="midnightblue" stroke="midnightblue" points="3284.55,-71.13 3294.49,-67.48 3284.44,-64.13 3284.55,-71.13"/>
</g>
<!-- Node32&#45;&gt;Node20 -->
<g id="edge103" class="edge">
<title>Node32&#45;&gt;Node20</title>
<path fill="none" stroke="midnightblue" d="M2450.87,-280.37C2497.68,-261.01 2611.21,-214.06 2665.75,-191.51"/>
<polygon fill="midnightblue" stroke="midnightblue" points="2667.32,-194.65 2675.22,-187.59 2664.65,-188.18 2667.32,-194.65"/>
</g>
<!-- Node32&#45;&gt;Node21 -->
<g id="edge105" class="edge">
<title>Node32&#45;&gt;Node21</title>
<path fill="none" stroke="midnightblue" d="M2418.51,-280.44C2407.46,-271.89 2390.6,-258.04 2378,-244 2364.72,-229.21 2352.06,-210.34 2343.57,-196.75"/>
<polygon fill="midnightblue" stroke="midnightblue" points="2346.38,-194.63 2338.18,-187.92 2340.41,-198.28 2346.38,-194.63"/>
</g>
<!-- Node32&#45;&gt;Node22 -->
<g id="edge109" class="edge">
<title>Node32&#45;&gt;Node22</title>
<path fill="none" stroke="midnightblue" d="M2478.01,-292.9C2541.39,-296.54 2647.83,-306.92 2672,-336 2742.45,-420.76 2637.5,-560.85 2597.45,-608.53"/>
<polygon fill="midnightblue" stroke="midnightblue" points="2594.63,-606.45 2590.79,-616.32 2599.95,-611 2594.63,-606.45"/>
</g>
<!-- Node32&#45;&gt;Node25 -->
<g id="edge110" class="edge">
<title>Node32&#45;&gt;Node25</title>
<path fill="none" stroke="midnightblue" d="M2387.85,-280.44C2341.25,-270.98 2266.16,-255.74 2215.95,-245.55"/>
<polygon fill="midnightblue" stroke="midnightblue" points="2216.45,-242.08 2205.95,-243.52 2215.06,-248.94 2216.45,-242.08"/>
</g>
<!-- Node33&#45;&gt;Node11 -->
<g id="edge112" class="edge">
<title>Node33&#45;&gt;Node11</title>
<path fill="none" stroke="midnightblue" d="M2592.25,-344.76C2665.6,-343.3 2816.37,-335.73 2938,-300 2965.08,-292.04 3141.88,-202.66 3166,-188 3221.87,-154.05 3282.52,-106.08 3311.95,-82.01"/>
<polygon fill="midnightblue" stroke="midnightblue" points="3314.22,-84.67 3319.72,-75.61 3309.77,-79.27 3314.22,-84.67"/>
</g>
<!-- Node33&#45;&gt;Node22 -->
<g id="edge114" class="edge">
<title>Node33&#45;&gt;Node22</title>
<path fill="none" stroke="midnightblue" d="M2558.48,-355.79C2589.43,-382.53 2680.27,-466.78 2712,-560 2725.44,-599.48 2666.99,-615.09 2624.37,-621.19"/>
<polygon fill="midnightblue" stroke="midnightblue" points="2623.67,-617.75 2614.2,-622.51 2624.57,-624.7 2623.67,-617.75"/>
</g>
<!-- Node33&#45;&gt;Node29 -->
<g id="edge113" class="edge">
<title>Node33&#45;&gt;Node29</title>
<path fill="none" stroke="midnightblue" d="M2503.71,-351.99C2406.68,-362.35 2176.29,-386.09 2074.14,-396.25"/>
<polygon fill="midnightblue" stroke="midnightblue" points="2073.69,-392.78 2064.08,-397.25 2074.38,-399.74 2073.69,-392.78"/>
</g>
<!-- Node34&#45;&gt;Node2 -->
<g id="edge116" class="edge">
<title>Node34&#45;&gt;Node2</title>
<path fill="none" stroke="midnightblue" d="M1823.88,-338.4C1795.43,-332.29 1758.64,-320.87 1732,-300 1700.55,-275.36 1712.68,-251.81 1684,-224 1648.82,-189.88 1635.58,-183.24 1589,-168 1513.65,-143.34 1276.75,-129.54 1180.88,-124.85"/>
<polygon fill="midnightblue" stroke="midnightblue" points="1180.87,-121.34 1170.71,-124.36 1180.53,-128.34 1180.87,-121.34"/>
</g>
<!-- Node34&#45;&gt;Node3 -->
<g id="edge117" class="edge">
<title>Node34&#45;&gt;Node3</title>
<path fill="none" stroke="midnightblue" d="M1860.74,-336.37C1848.38,-318.44 1822,-275.44 1822,-235 1822,-235 1822,-235 1822,-121 1822,-80.62 1857.69,-45.11 1881.4,-25.97"/>
<polygon fill="midnightblue" stroke="midnightblue" points="1883.74,-28.58 1889.5,-19.69 1879.45,-23.05 1883.74,-28.58"/>
</g>
<!-- Node34&#45;&gt;Node4 -->
<g id="edge118" class="edge">
<title>Node34&#45;&gt;Node4</title>
<path fill="none" stroke="midnightblue" d="M1855.66,-336.42C1829.33,-316.51 1761.93,-265.69 1705,-224 1670.57,-198.79 1665.01,-187.41 1627,-168 1486.82,-96.4 1445.81,-84.52 1291,-56 1089.83,-18.93 437.3,-12.29 274.21,-11.2"/>
<polygon fill="midnightblue" stroke="midnightblue" points="273.77,-7.7 263.75,-11.13 273.73,-14.7 273.77,-7.7"/>
</g>
<!-- Node34&#45;&gt;Node5 -->
<g id="edge119" class="edge">
<title>Node34&#45;&gt;Node5</title>
<path fill="none" stroke="midnightblue" d="M1823.9,-337.16C1631.56,-302.19 853.44,-160.72 680.27,-129.23"/>
<polygon fill="midnightblue" stroke="midnightblue" points="680.89,-125.79 670.42,-127.44 679.64,-132.67 680.89,-125.79"/>
</g>
<!-- Node34&#45;&gt;Node6 -->
<g id="edge120" class="edge">
<title>Node34&#45;&gt;Node6</title>
<path fill="none" stroke="midnightblue" d="M1835.26,-336.5C1803.43,-327.83 1753.09,-313.74 1710,-300 1613.04,-269.08 1591.71,-252.47 1494,-224 1455.3,-212.73 1191.98,-152.87 1095.41,-131.01"/>
<polygon fill="midnightblue" stroke="midnightblue" points="1096.06,-127.57 1085.54,-128.77 1094.52,-134.39 1096.06,-127.57"/>
</g>
<!-- Node34&#45;&gt;Node7 -->
<g id="edge121" class="edge">
<title>Node34&#45;&gt;Node7</title>
<path fill="none" stroke="midnightblue" d="M1867.78,-336.3C1870.73,-303.63 1881.16,-187.87 1885.29,-141.96"/>
<polygon fill="midnightblue" stroke="midnightblue" points="1888.79,-142.16 1886.2,-131.88 1881.82,-141.53 1888.79,-142.16"/>
</g>
<!-- Node34&#45;&gt;Node8 -->
<g id="edge122" class="edge">
<title>Node34&#45;&gt;Node8</title>
<path fill="none" stroke="midnightblue" d="M1910.27,-345.19C2011.87,-344.92 2273.25,-340.01 2487,-300 2700.99,-259.94 2947.71,-168.31 3033.07,-135.21"/>
<polygon fill="midnightblue" stroke="midnightblue" points="3034.39,-138.45 3042.44,-131.56 3031.85,-131.93 3034.39,-138.45"/>
</g>
<!-- Node34&#45;&gt;Node9 -->
<g id="edge123" class="edge">
<title>Node34&#45;&gt;Node9</title>
<path fill="none" stroke="midnightblue" d="M1823.99,-339.79C1756.75,-331.6 1622.64,-315.09 1509,-300 1152.66,-252.69 1059.04,-265.36 708,-188 643.02,-173.68 569.14,-149.4 527.39,-134.92"/>
<polygon fill="midnightblue" stroke="midnightblue" points="528.34,-131.54 517.75,-131.55 526.03,-138.15 528.34,-131.54"/>
</g>
<!-- Node34&#45;&gt;Node10 -->
<g id="edge124" class="edge">
<title>Node34&#45;&gt;Node10</title>
<path fill="none" stroke="midnightblue" d="M1881.74,-336.42C1918.68,-315.17 2018.59,-259.28 2107,-224 2187.18,-192 2208.13,-183.8 2293,-168 2394.67,-149.07 2700.34,-132.21 2828.48,-125.77"/>
<polygon fill="midnightblue" stroke="midnightblue" points="2828.68,-129.27 2838.5,-125.27 2828.33,-122.28 2828.68,-129.27"/>
</g>
<!-- Node34&#45;&gt;Node11 -->
<g id="edge125" class="edge">
<title>Node34&#45;&gt;Node11</title>
<path fill="none" stroke="midnightblue" d="M1872.06,-336.26C1889.96,-306.28 1953.77,-207.27 2037,-168 2154.54,-112.55 2194.95,-127.39 2324,-112 2692.36,-68.07 3141.22,-66.05 3284.06,-66.64"/>
<polygon fill="midnightblue" stroke="midnightblue" points="3284.19,-70.14 3294.2,-66.69 3284.22,-63.14 3284.19,-70.14"/>
</g>
<!-- Node34&#45;&gt;Node19 -->
<g id="edge126" class="edge">
<title>Node34&#45;&gt;Node19</title>
<path fill="none" stroke="midnightblue" d="M1849.87,-355.59C1821.05,-371.39 1766,-408 1766,-457 1766,-627 1766,-627 1766,-627 1766,-673.89 1816.55,-707.11 1850.33,-724.07"/>
<polygon fill="midnightblue" stroke="midnightblue" points="1848.83,-727.23 1859.36,-728.42 1851.87,-720.93 1848.83,-727.23"/>
</g>
<!-- Node34&#45;&gt;Node22 -->
<g id="edge129" class="edge">
<title>Node34&#45;&gt;Node22</title>
<path fill="none" stroke="midnightblue" d="M1910.15,-353C1952.49,-359.67 2018.46,-372.2 2073,-392 2242.67,-453.58 2265.8,-511.98 2433,-580 2468.98,-594.64 2511.51,-606.95 2542.08,-614.98"/>
<polygon fill="midnightblue" stroke="midnightblue" points="2541.4,-618.42 2551.96,-617.53 2543.15,-611.64 2541.4,-618.42"/>
</g>
<!-- Node34&#45;&gt;Node24 -->
<g id="edge132" class="edge">
<title>Node34&#45;&gt;Node24</title>
<path fill="none" stroke="midnightblue" d="M1823.62,-353.09C1773.82,-360.48 1689.88,-374.22 1619,-392 1433.73,-438.49 1394.78,-475.62 1210,-524 1155.71,-538.22 1092.96,-550.57 1048.06,-558.71"/>
<polygon fill="midnightblue" stroke="midnightblue" points="1047.41,-555.27 1038.18,-560.49 1048.65,-562.16 1047.41,-555.27"/>
</g>
<!-- Node34&#45;&gt;Node25 -->
<g id="edge127" class="edge">
<title>Node34&#45;&gt;Node25</title>
<path fill="none" stroke="midnightblue" d="M1910.23,-339.59C1951.07,-333.46 2013.44,-321.4 2064,-300 2094.76,-286.98 2126.45,-264.56 2145.7,-249.76"/>
<polygon fill="midnightblue" stroke="midnightblue" points="2147.9,-252.48 2153.61,-243.55 2143.58,-246.97 2147.9,-252.48"/>
</g>
<!-- Node34&#45;&gt;Node27 -->
<g id="edge128" class="edge">
<title>Node34&#45;&gt;Node27</title>
<path fill="none" stroke="midnightblue" d="M1875.73,-336.23C1908.71,-303.33 2026.27,-188.06 2074,-168 2160.44,-131.67 2451.6,-124.65 2549.54,-123.31"/>
<polygon fill="midnightblue" stroke="midnightblue" points="2549.77,-126.81 2559.72,-123.18 2549.68,-119.81 2549.77,-126.81"/>
</g>
<!-- Node34&#45;&gt;Node28 -->
<g id="edge130" class="edge">
<title>Node34&#45;&gt;Node28</title>
<path fill="none" stroke="midnightblue" d="M1871.61,-355.59C1881.24,-373.55 1903.67,-415.37 1916.52,-439.32"/>
<polygon fill="midnightblue" stroke="midnightblue" points="1913.56,-441.21 1921.37,-448.37 1919.73,-437.9 1913.56,-441.21"/>
</g>
<!-- Node34&#45;&gt;Node29 -->
<g id="edge134" class="edge">
<title>Node34&#45;&gt;Node29</title>
<path fill="none" stroke="midnightblue" d="M1896.84,-355.52C1924.96,-364.51 1966.6,-378.75 1994.57,-388.91"/>
<polygon fill="midnightblue" stroke="midnightblue" points="1993.62,-392.28 2004.21,-392.44 1996.03,-385.71 1993.62,-392.28"/>
</g>
<!-- Node34&#45;&gt;Node30 -->
<g id="edge131" class="edge">
<title>Node34&#45;&gt;Node30</title>
<path fill="none" stroke="midnightblue" d="M1823.65,-348.37C1777.49,-351.49 1703.57,-361.35 1648,-392 1606.99,-414.62 1614.87,-443.43 1575,-468 1547.02,-485.24 1511.93,-496.33 1483.16,-503.19"/>
<polygon fill="midnightblue" stroke="midnightblue" points="1482.25,-499.81 1473.27,-505.44 1483.8,-506.63 1482.25,-499.81"/>
</g>
<!-- Node34&#45;&gt;Node32 -->
<g id="edge133" class="edge">
<title>Node34&#45;&gt;Node32</title>
<path fill="none" stroke="midnightblue" d="M1910.24,-340.85C2010.37,-331.25 2258.22,-307.48 2371.64,-296.6"/>
<polygon fill="midnightblue" stroke="midnightblue" points="2372.24,-300.06 2381.86,-295.62 2371.58,-293.09 2372.24,-300.06"/>
</g>
<!-- Node35&#45;&gt;Node4 -->
<g id="edge153" class="edge">
<title>Node35&#45;&gt;Node4</title>
<path fill="none" stroke="midnightblue" d="M1889.73,-680.41C1756.75,-677.52 1192.79,-663.82 1019,-636 740.06,-591.34 673.45,-558.94 406,-468 221.42,-405.24 76,-373.96 76,-179 76,-179 76,-179 76,-121 76,-61.08 152.98,-31.43 200.48,-18.84"/>
<polygon fill="midnightblue" stroke="midnightblue" points="201.57,-22.17 210.41,-16.34 199.86,-15.39 201.57,-22.17"/>
</g>
<!-- Node35&#45;&gt;Node11 -->
<g id="edge151" class="edge">
<title>Node35&#45;&gt;Node11</title>
<path fill="none" stroke="midnightblue" d="M1946.1,-681.19C2041.65,-681.43 2362.5,-678.78 2623,-636 2717.89,-620.42 2743.19,-616.88 2832,-580 2912.19,-546.7 3464.66,-263.23 3508,-188 3541.73,-129.45 3439,-93.24 3375.76,-77.03"/>
<polygon fill="midnightblue" stroke="midnightblue" points="3376.52,-73.61 3365.97,-74.6 3374.83,-80.4 3376.52,-73.61"/>
</g>
<!-- Node35&#45;&gt;Node20 -->
<g id="edge150" class="edge">
<title>Node35&#45;&gt;Node20</title>
<path fill="none" stroke="midnightblue" d="M1946.03,-675.64C2049.84,-654.39 2416.87,-566.83 2621,-356 2665.83,-309.7 2685.7,-232.54 2692.76,-197.42"/>
<polygon fill="midnightblue" stroke="midnightblue" points="2696.2,-198.06 2694.62,-187.59 2689.32,-196.76 2696.2,-198.06"/>
</g>
<!-- Node35&#45;&gt;Node22 -->
<g id="edge152" class="edge">
<title>Node35&#45;&gt;Node22</title>
<path fill="none" stroke="midnightblue" d="M1946.15,-678.71C2050.76,-670.22 2417.48,-640.44 2541.59,-630.36"/>
<polygon fill="midnightblue" stroke="midnightblue" points="2542.12,-633.83 2551.81,-629.53 2541.56,-626.85 2542.12,-633.83"/>
</g>
<!-- Node35&#45;&gt;Node26 -->
<g id="edge155" class="edge">
<title>Node35&#45;&gt;Node26</title>
<path fill="none" stroke="midnightblue" d="M1889.84,-680.34C1734.68,-676.44 988.79,-653.9 922,-580 842.88,-492.45 1217.91,-289.59 1316,-224 1334.65,-211.53 1357.22,-200.05 1374.82,-191.81"/>
<polygon fill="midnightblue" stroke="midnightblue" points="1376.41,-194.94 1384.04,-187.58 1373.49,-188.57 1376.41,-194.94"/>
</g>
<!-- Node35&#45;&gt;Node28 -->
<g id="edge154" class="edge">
<title>Node35&#45;&gt;Node28</title>
<path fill="none" stroke="midnightblue" d="M1918.31,-672.3C1919.49,-639.63 1923.66,-523.87 1925.32,-477.96"/>
<polygon fill="midnightblue" stroke="midnightblue" points="1928.82,-478 1925.68,-467.88 1921.82,-477.75 1928.82,-478"/>
</g>
<!-- Node36&#45;&gt;Node1 -->
<g id="edge182" class="edge">
<title>Node36&#45;&gt;Node1</title>
<path fill="none" stroke="midnightblue" d="M2227.13,-859.75C2228.66,-866.86 2229.1,-877.14 2228.47,-886.1"/>
<polygon fill="midnightblue" stroke="midnightblue" points="2224.99,-885.71 2227.17,-896.08 2231.93,-886.62 2224.99,-885.71"/>
</g>
<!-- Node36&#45;&gt;Node2 -->
<g id="edge166" class="edge">
<title>Node36&#45;&gt;Node2</title>
<path fill="none" stroke="midnightblue" d="M2183.21,-847.61C1944.42,-838.55 684,-783.3 684,-627 684,-627 684,-627 684,-569 684,-334.47 826,-288.84 1027,-168 1050.49,-153.88 1079.21,-142.51 1101.81,-134.73"/>
<polygon fill="midnightblue" stroke="midnightblue" points="1103.04,-138.01 1111.41,-131.52 1100.82,-131.37 1103.04,-138.01"/>
</g>
<!-- Node36&#45;&gt;Node3 -->
<g id="edge167" class="edge">
<title>Node36&#45;&gt;Node3</title>
<path fill="none" stroke="midnightblue" d="M2260.59,-847.9C2466.63,-840.2 3422.43,-780.44 3280,-336 3261.41,-277.99 3191.21,-157.17 3107,-112 3005.6,-57.6 2193.98,-22.3 1963.08,-13.28"/>
<polygon fill="midnightblue" stroke="midnightblue" points="1962.98,-9.78 1952.85,-12.89 1962.71,-16.77 1962.98,-9.78"/>
</g>
<!-- Node36&#45;&gt;Node4 -->
<g id="edge168" class="edge">
<title>Node36&#45;&gt;Node4</title>
<path fill="none" stroke="midnightblue" d="M2183.23,-848.82C1950.83,-847.59 747.17,-839.57 587,-804 375.83,-757.1 38,-466.01 38,-459 38,-459 38,-459 38,-121 38,-47.79 142.44,-22.92 200,-14.78"/>
<polygon fill="midnightblue" stroke="midnightblue" points="200.7,-18.21 210.16,-13.44 199.79,-11.27 200.7,-18.21"/>
</g>
<!-- Node36&#45;&gt;Node5 -->
<g id="edge169" class="edge">
<title>Node36&#45;&gt;Node5</title>
<path fill="none" stroke="midnightblue" d="M2183.37,-848.54C1953.44,-845.73 772.69,-830.06 701,-804 454.92,-714.53 530.04,-505.56 518,-244 516.45,-210.26 498.47,-195.56 518,-168 539.07,-138.25 581.44,-128.03 611.66,-124.59"/>
<polygon fill="midnightblue" stroke="midnightblue" points="612.16,-128.06 621.79,-123.64 611.5,-121.09 612.16,-128.06"/>
</g>
<!-- Node36&#45;&gt;Node6 -->
<g id="edge170" class="edge">
<title>Node36&#45;&gt;Node6</title>
<path fill="none" stroke="midnightblue" d="M2183.27,-848.67C1956.67,-846.66 810.28,-834.96 743,-804 506.44,-695.15 498.06,-427.92 660,-224 695.11,-179.79 720.18,-185.02 774,-168 861.16,-140.43 968.83,-129.32 1023.87,-125.2"/>
<polygon fill="midnightblue" stroke="midnightblue" points="1024.43,-128.67 1034.16,-124.47 1023.94,-121.69 1024.43,-128.67"/>
</g>
<!-- Node36&#45;&gt;Node7 -->
<g id="edge171" class="edge">
<title>Node36&#45;&gt;Node7</title>
<path fill="none" stroke="midnightblue" d="M2242.64,-840.42C2275.5,-825.23 2336,-790.29 2336,-739 2336,-739 2336,-739 2336,-625 2336,-558.73 1983.85,-216.12 1903.28,-138.6"/>
<polygon fill="midnightblue" stroke="midnightblue" points="1905.61,-135.98 1895.97,-131.58 1900.76,-141.03 1905.61,-135.98"/>
</g>
<!-- Node36&#45;&gt;Node8 -->
<g id="edge172" class="edge">
<title>Node36&#45;&gt;Node8</title>
<path fill="none" stroke="midnightblue" d="M2260.65,-849.3C2435.64,-850.39 3154.73,-851.81 3374,-804 3448.19,-787.82 3532,-814.93 3532,-739 3532,-739 3532,-739 3532,-457 3532,-249.89 3224.57,-159.1 3108.05,-132.12"/>
<polygon fill="midnightblue" stroke="midnightblue" points="3108.56,-128.65 3098.03,-129.85 3107.01,-135.48 3108.56,-128.65"/>
</g>
<!-- Node36&#45;&gt;Node9 -->
<g id="edge173" class="edge">
<title>Node36&#45;&gt;Node9</title>
<path fill="none" stroke="midnightblue" d="M2183.17,-849.19C1955.67,-850.12 800.68,-852.43 651,-804 442.46,-736.52 325.69,-684.26 290,-468 272.34,-361 241.09,-320.79 290,-224 316.35,-171.86 380.28,-146.26 429.61,-133.93"/>
<polygon fill="midnightblue" stroke="midnightblue" points="430.66,-137.28 439.58,-131.57 429.05,-130.47 430.66,-137.28"/>
</g>
<!-- Node36&#45;&gt;Node10 -->
<g id="edge174" class="edge">
<title>Node36&#45;&gt;Node10</title>
<path fill="none" stroke="midnightblue" d="M2260.77,-849.21C2446.84,-849.97 3243.31,-850.46 3343,-804 3427.6,-764.58 3456,-720.33 3456,-627 3456,-627 3456,-627 3456,-569 3456,-327.7 3311.06,-264.73 3090,-168 3043.04,-147.45 2985.74,-135.87 2943.84,-129.63"/>
<polygon fill="midnightblue" stroke="midnightblue" points="2944.2,-126.14 2933.81,-128.19 2943.21,-133.07 2944.2,-126.14"/>
</g>
<!-- Node36&#45;&gt;Node11 -->
<g id="edge175" class="edge">
<title>Node36&#45;&gt;Node11</title>
<path fill="none" stroke="midnightblue" d="M2260.76,-848.77C2457.25,-847.45 3338.62,-839.56 3455,-804 3607.74,-757.33 3670.19,-725.53 3736,-580 3822.17,-389.44 3837.37,-257.35 3687,-112 3643.57,-70.02 3462.03,-65.78 3375.82,-66.23"/>
<polygon fill="midnightblue" stroke="midnightblue" points="3375.77,-62.73 3365.8,-66.3 3375.83,-69.73 3375.77,-62.73"/>
</g>
<!-- Node36&#45;&gt;Node19 -->
<g id="edge176" class="edge">
<title>Node36&#45;&gt;Node19</title>
<path fill="none" stroke="midnightblue" d="M2195.45,-840.46C2134.72,-820.93 1985.59,-772.96 1916.38,-750.7"/>
<polygon fill="midnightblue" stroke="midnightblue" points="1917.36,-747.34 1906.77,-747.61 1915.22,-754 1917.36,-747.34"/>
</g>
<!-- Node36&#45;&gt;Node22 -->
<g id="edge179" class="edge">
<title>Node36&#45;&gt;Node22</title>
<path fill="none" stroke="midnightblue" d="M2260.66,-847.53C2303.72,-844.36 2374.09,-834.5 2426,-804 2495.6,-763.11 2550.86,-680.69 2572.79,-644.6"/>
<polygon fill="midnightblue" stroke="midnightblue" points="2575.96,-646.11 2578.07,-635.72 2569.95,-642.53 2575.96,-646.11"/>
</g>
<!-- Node36&#45;&gt;Node25 -->
<g id="edge177" class="edge">
<title>Node36&#45;&gt;Node25</title>
<path fill="none" stroke="midnightblue" d="M2260.91,-844.05C2316.49,-834.56 2412,-808.18 2412,-739 2412,-739 2412,-739 2412,-625 2412,-520.47 2491.14,-485.29 2444,-392 2425.08,-354.55 2329.09,-299.62 2292,-280 2264.79,-265.61 2232.02,-254.19 2206.44,-246.45"/>
<polygon fill="midnightblue" stroke="midnightblue" points="2207.25,-243.04 2196.67,-243.57 2205.27,-249.75 2207.25,-243.04"/>
</g>
<!-- Node36&#45;&gt;Node26 -->
<g id="edge185" class="edge">
<title>Node36&#45;&gt;Node26</title>
<path fill="none" stroke="midnightblue" d="M2183.29,-848.58C1960.56,-846.09 850.1,-832.25 784,-804 718.69,-776.08 713.74,-747.96 670,-692 476.49,-444.4 901.48,-322.16 1200,-224 1257.33,-205.15 1326.32,-191.79 1367.59,-184.75"/>
<polygon fill="midnightblue" stroke="midnightblue" points="1368.18,-188.2 1377.46,-183.1 1367.02,-181.3 1368.18,-188.2"/>
</g>
<!-- Node36&#45;&gt;Node27 -->
<g id="edge178" class="edge">
<title>Node36&#45;&gt;Node27</title>
<path fill="none" stroke="midnightblue" d="M2260.59,-848.9C2442.24,-848.24 3207.36,-843.15 3306,-804 3347,-787.73 3381,-783.11 3381,-739 3381,-739 3381,-739 3381,-681 3381,-569.88 3266,-570.12 3266,-459 3266,-459 3266,-459 3266,-345 3266,-206.27 2750.55,-141.11 2614.56,-126.33"/>
<polygon fill="midnightblue" stroke="midnightblue" points="2614.68,-122.82 2604.37,-125.24 2613.94,-129.78 2614.68,-122.82"/>
</g>
<!-- Node36&#45;&gt;Node28 -->
<g id="edge180" class="edge">
<title>Node36&#45;&gt;Node28</title>
<path fill="none" stroke="midnightblue" d="M2215.54,-840.49C2178.24,-791.34 1990.18,-543.57 1938.92,-476.03"/>
<polygon fill="midnightblue" stroke="midnightblue" points="1941.46,-473.58 1932.63,-467.73 1935.88,-477.81 1941.46,-473.58"/>
</g>
<!-- Node36&#45;&gt;Node29 -->
<g id="edge184" class="edge">
<title>Node36&#45;&gt;Node29</title>
<path fill="none" stroke="midnightblue" d="M2222.41,-840.48C2224.15,-794.59 2226.66,-574.2 2122,-448 2108.87,-432.17 2088.96,-421.64 2070.51,-414.77"/>
<polygon fill="midnightblue" stroke="midnightblue" points="2071.64,-411.46 2061.04,-411.51 2069.36,-418.08 2071.64,-411.46"/>
</g>
<!-- Node36&#45;&gt;Node30 -->
<g id="edge181" class="edge">
<title>Node36&#45;&gt;Node30</title>
<path fill="none" stroke="midnightblue" d="M2183.47,-841.39C2141.95,-833 2074.01,-818.73 2016,-804 1929.43,-782.01 1906.4,-779.97 1823,-748 1769.54,-727.51 1758.29,-717.43 1707,-692 1657.85,-667.63 1645.27,-662.06 1597,-636 1552.86,-612.17 1539.42,-609.71 1499,-580 1478.67,-565.06 1457.78,-544.92 1444.18,-531.04"/>
<polygon fill="midnightblue" stroke="midnightblue" points="1446.53,-528.44 1437.07,-523.67 1441.5,-533.3 1446.53,-528.44"/>
</g>
<!-- Node36&#45;&gt;Node32 -->
<g id="edge183" class="edge">
<title>Node36&#45;&gt;Node32</title>
<path fill="none" stroke="midnightblue" d="M2260.76,-843.02C2392.89,-821.76 2821.57,-745.19 2897,-636 2937.86,-576.85 3261.72,-688.8 2692,-336 2658.81,-315.44 2555.04,-302.4 2488.49,-295.92"/>
<polygon fill="midnightblue" stroke="midnightblue" points="2488.43,-292.4 2478.14,-294.94 2487.77,-299.37 2488.43,-292.4"/>
</g>
<!-- Node37 -->
<g id="node37" class="node">
<title>Node37</title>
<g id="a_node37"><a xlink:href="solvers_8h.html" target="_top" xlink:title=" ">
<polygon fill="none" stroke="black" points="3235.5,-784.5 3235.5,-803.5 3296.5,-803.5 3296.5,-784.5 3235.5,-784.5"/>
<text text-anchor="middle" x="3266" y="-791.5" font-family="Helvetica,sans-Serif" font-size="10.00">solvers.h</text>
</a>
</g>
</g>
<!-- Node36&#45;&gt;Node37 -->
<g id="edge186" class="edge">
<title>Node36&#45;&gt;Node37</title>
<path fill="none" stroke="midnightblue" d="M2260.71,-847C2424.18,-838.54 3057.36,-805.79 3225.05,-797.12"/>
<polygon fill="midnightblue" stroke="midnightblue" points="3225.39,-800.61 3235.19,-796.59 3225.02,-793.61 3225.39,-800.61"/>
</g>
<!-- Node37&#45;&gt;Node11 -->
<g id="edge187" class="edge">
<title>Node37&#45;&gt;Node11</title>
<path fill="none" stroke="midnightblue" d="M3282.8,-784.36C3298.18,-776.07 3321.18,-762.66 3339,-748 3491.54,-622.46 3526.59,-580.33 3630,-412 3644.89,-387.76 3651.48,-382.81 3661,-356 3686.18,-285.09 3678.32,-263.16 3682,-188 3683.69,-153.52 3692.11,-134.57 3666,-112 3623.55,-75.3 3457.91,-68.31 3376.16,-67.13"/>
<polygon fill="midnightblue" stroke="midnightblue" points="3375.72,-63.62 3365.67,-67 3375.63,-70.62 3375.72,-63.62"/>
</g>
<!-- Node37&#45;&gt;Node22 -->
<g id="edge196" class="edge">
<title>Node37&#45;&gt;Node22</title>
<path fill="none" stroke="midnightblue" d="M3247.25,-784.35C3197.83,-761.95 3059.46,-701.69 2938,-672 2826.58,-644.76 2691.23,-633.41 2624.42,-629.19"/>
<polygon fill="midnightblue" stroke="midnightblue" points="2624.49,-625.69 2614.3,-628.58 2624.07,-632.68 2624.49,-625.69"/>
</g>
<!-- Node38 -->
<g id="node38" class="node">
<title>Node38</title>
<g id="a_node38"><a xlink:href="implicitsolvers_8h.html" target="_top" xlink:title=" ">
<polygon fill="none" stroke="black" points="3217,-728.5 3217,-747.5 3315,-747.5 3315,-728.5 3217,-728.5"/>
<text text-anchor="middle" x="3266" y="-735.5" font-family="Helvetica,sans-Serif" font-size="10.00">implicitsolvers.h</text>
</a>
</g>
</g>
<!-- Node37&#45;&gt;Node38 -->
<g id="edge188" class="edge">
<title>Node37&#45;&gt;Node38</title>
<path fill="none" stroke="midnightblue" d="M3266,-784.08C3266,-777.01 3266,-766.86 3266,-757.99"/>
<polygon fill="midnightblue" stroke="midnightblue" points="3269.5,-757.75 3266,-747.75 3262.5,-757.75 3269.5,-757.75"/>
</g>
<!-- Node39 -->
<g id="node39" class="node">
<title>Node39</title>
<g id="a_node39"><a xlink:href="rhs_8h.html" target="_top" xlink:title=" ">
<polygon fill="none" stroke="black" points="3264.5,-672.5 3264.5,-691.5 3305.5,-691.5 3305.5,-672.5 3264.5,-672.5"/>
<text text-anchor="middle" x="3285" y="-679.5" font-family="Helvetica,sans-Serif" font-size="10.00">rhs.h</text>
</a>
</g>
</g>
<!-- Node37&#45;&gt;Node39 -->
<g id="edge195" class="edge">
<title>Node37&#45;&gt;Node39</title>
<path fill="none" stroke="midnightblue" d="M3284.39,-784.47C3298.1,-777 3315.81,-764.71 3324,-748 3332.61,-730.41 3318.04,-711.31 3304.32,-698.4"/>
<polygon fill="midnightblue" stroke="midnightblue" points="3306.35,-695.52 3296.53,-691.57 3301.74,-700.79 3306.35,-695.52"/>
</g>
<!-- Node38&#45;&gt;Node11 -->
<g id="edge189" class="edge">
<title>Node38&#45;&gt;Node11</title>
<path fill="none" stroke="midnightblue" d="M3279.35,-728.43C3335.25,-691.74 3551.73,-541.32 3643,-356 3665.22,-310.89 3654.99,-294.12 3659,-244 3663.71,-185.14 3688.49,-150.82 3644,-112 3604.91,-77.9 3453.31,-69.62 3375.96,-67.62"/>
<polygon fill="midnightblue" stroke="midnightblue" points="3375.63,-64.11 3365.56,-67.38 3375.47,-71.11 3375.63,-64.11"/>
</g>
<!-- Node38&#45;&gt;Node22 -->
<g id="edge190" class="edge">
<title>Node38&#45;&gt;Node22</title>
<path fill="none" stroke="midnightblue" d="M3252.14,-728.4C3227.98,-713.89 3176.1,-684.86 3128,-672 3032.93,-646.58 2734.43,-632.82 2624.32,-628.51"/>
<polygon fill="midnightblue" stroke="midnightblue" points="2624.4,-625.01 2614.27,-628.12 2624.13,-632 2624.4,-625.01"/>
</g>
<!-- Node38&#45;&gt;Node29 -->
<g id="edge194" class="edge">
<title>Node38&#45;&gt;Node29</title>
<path fill="none" stroke="midnightblue" d="M3255.42,-728.28C3238.04,-714.38 3201.87,-687.2 3167,-672 2767.46,-497.8 2238.03,-426.94 2074.36,-408.32"/>
<polygon fill="midnightblue" stroke="midnightblue" points="2074.44,-404.8 2064.11,-407.16 2073.66,-411.76 2074.44,-404.8"/>
</g>
<!-- Node38&#45;&gt;Node39 -->
<g id="edge191" class="edge">
<title>Node38&#45;&gt;Node39</title>
<path fill="none" stroke="midnightblue" d="M3269.14,-728.08C3271.68,-720.85 3275.36,-710.41 3278.53,-701.4"/>
<polygon fill="midnightblue" stroke="midnightblue" points="3281.9,-702.35 3281.92,-691.75 3275.3,-700.02 3281.9,-702.35"/>
</g>
<!-- Node39&#45;&gt;Node11 -->
<g id="edge192" class="edge">
<title>Node39&#45;&gt;Node11</title>
<path fill="none" stroke="midnightblue" d="M3290.3,-672.29C3298.19,-659.54 3313.74,-635.21 3329,-616 3397.51,-529.76 3646,-345.14 3646,-235 3646,-235 3646,-235 3646,-177 3646,-146.2 3645.85,-131.48 3622,-112 3585.13,-81.88 3448.21,-71.78 3375.71,-68.5"/>
<polygon fill="midnightblue" stroke="midnightblue" points="3375.65,-65 3365.5,-68.07 3375.35,-71.99 3375.65,-65"/>
</g>
<!-- Node39&#45;&gt;Node22 -->
<g id="edge193" class="edge">
<title>Node39&#45;&gt;Node22</title>
<path fill="none" stroke="midnightblue" d="M3264.37,-679.41C3167.46,-671.96 2756.6,-640.35 2624.26,-630.17"/>
<polygon fill="midnightblue" stroke="midnightblue" points="2624.37,-626.67 2614.13,-629.39 2623.83,-633.65 2624.37,-626.67"/>
</g>
</g>
</svg>
        <g id="navigator" transform="translate(0 0)" fill="#404254">
                <rect fill="#f2f5e9" fill-opacity="0.5" stroke="#606060" stroke-width=".5" x="0" y="0" width="60" height="60"/>
                <use id="zoomplus" xlink:href="#zoomPlus" x="17" y="9" onmousedown="handleZoom(evt,'in')"/>
                <use id="zoomminus" xlink:href="#zoomMin" x="42" y="9" onmousedown="handleZoom(evt,'out')"/>
                <use id="reset" xlink:href="#resetDef" x="30" y="36" onmousedown="handleReset()"/>
                <g id="arrowUp" xlink:href="#dirArrow" transform="translate(30 24)" onmousedown="handlePan(0,-1)">
                  <use xlink:href="#rim" fill="#404040">
                        <set attributeName="fill" to="#808080" begin="arrowUp.mouseover" end="arrowUp.mouseout"/>
                  </use>
                  <path fill="none" stroke="white" stroke-width="1.5" d="M0,-3.0v7 M-2.5,-0.5L0,-3.0L2.5,-0.5"/>
                </g>
                <g id="arrowRight" xlink:href="#dirArrow" transform="rotate(90) translate(36 -43)" onmousedown="handlePan(1,0)">
                  <use xlink:href="#rim" fill="#404040">
                        <set attributeName="fill" to="#808080" begin="arrowRight.mouseover" end="arrowRight.mouseout"/>
                  </use>
                  <path fill="none" stroke="white" stroke-width="1.5" d="M0,-3.0v7 M-2.5,-0.5L0,-3.0L2.5,-0.5"/>
                </g>
                <g id="arrowDown" xlink:href="#dirArrow" transform="rotate(180) translate(-30 -48)" onmousedown="handlePan(0,1)">
                  <use xlink:href="#rim" fill="#404040">
                        <set attributeName="fill" to="#808080" begin="arrowDown.mouseover" end="arrowDown.mouseout"/>
                  </use>
                  <path fill="none" stroke="white" stroke-width="1.5" d="M0,-3.0v7 M-2.5,-0.5L0,-3.0L2.5,-0.5"/>
                </g>
                <g id="arrowLeft" xlink:href="#dirArrow" transform="rotate(270) translate(-36 17)" onmousedown="handlePan(-1,0)">
                  <use xlink:href="#rim" fill="#404040">
                        <set attributeName="fill" to="#808080" begin="arrowLeft.mouseover" end="arrowLeft.mouseout"/>
                  </use>
                  <path fill="none" stroke="white" stroke-width="1.5" d="M0,-3.0v7 M-2.5,-0.5L0,-3.0L2.5,-0.5"/>
                </g>
        </g>
        <svg viewBox="0 0 15 15" width="100%" height="30px" preserveAspectRatio="xMaxYMin meet">
         <g id="arrow_out" transform="scale(0.3 0.3)">
          <a xlink:href="initialcondition_8h__incl_org.svg" target="_base">
           <rect id="button" ry="5" rx="5" y="6" x="6" height="38" width="38"
                fill="#f2f5e9" fill-opacity="0.5" stroke="#606060" stroke-width="1.0"/>
           <path id="arrow"
             d="M 11.500037,31.436501 C 11.940474,20.09759 22.043105,11.32322 32.158766,21.979434 L 37.068811,17.246167 C 37.068811,17.246167 37.088388,32 37.088388,32 L 22.160133,31.978069 C 22.160133,31.978069 26.997745,27.140456 26.997745,27.140456 C 18.528582,18.264221 13.291696,25.230495 11.500037,31.436501 z"
             style="fill:#404040;"/>
          </a>
         </g>
        </svg>
</svg>
