<?xml version="1.0" encoding="UTF-8" standalone="no"?>
<!DOCTYPE svg PUBLIC "-//W3C//DTD SVG 1.1//EN"
 "http://www.w3.org/Graphics/SVG/1.1/DTD/svg11.dtd">
<!-- Generated by graphviz version 2.43.0 (0)
 -->
<!-- Title: InitializeEulerianState Pages: 1 -->
<!--zoomable 332 -->
<svg id="main" version="1.1" xmlns="http://www.w3.org/2000/svg" xmlns:xlink="http://www.w3.org/1999/xlink" xml:space="preserve" onload="init(evt)">
<style type="text/css"><![CDATA[
.edge:hover path { stroke: red; }
.edge:hover polygon { stroke: red; fill: red; }
]]></style>
<script type="text/javascript"><![CDATA[
var edges = document.getElementsByTagName('g');
if (edges && edges.length) {
  for (var i=0;i<edges.length;i++) {
    if (edges[i].id.substr(0,4)=='edge') {
      edges[i].setAttribute('class','edge');
    }
  }
}
]]></script>
        <defs>
                <circle id="rim" cx="0" cy="0" r="7"/>
                <circle id="rim2" cx="0" cy="0" r="3.5"/>
                <g id="zoomPlus">
                        <use xlink:href="#rim" fill="#404040">
                                <set attributeName="fill" to="#808080" begin="zoomplus.mouseover" end="zoomplus.mouseout"/>
                        </use>
                        <path d="M-4,0h8M0,-4v8" fill="none" stroke="white" stroke-width="1.5" pointer-events="none"/>
                </g>
                <g id="zoomMin">
                        <use xlink:href="#rim" fill="#404040">
                                <set attributeName="fill" to="#808080" begin="zoomminus.mouseover" end="zoomminus.mouseout"/>
                        </use>
                        <path d="M-4,0h8" fill="none" stroke="white" stroke-width="1.5" pointer-events="none"/>
                </g>
                <g id="dirArrow">
                        <path fill="none" stroke="white" stroke-width="1.5" d="M0,-3.0v7 M-2.5,-0.5L0,-3.0L2.5,-0.5"/>
                </g>
               <g id="resetDef">
                       <use xlink:href="#rim2" fill="#404040">
                               <set attributeName="fill" to="#808080" begin="reset.mouseover" end="reset.mouseout"/>
                       </use>
               </g>
        </defs>

<script type="text/javascript">
var viewWidth = 794;
var viewHeight = 332;
var sectionId = 'dynsection-3';
</script>
<script xlink:href="svgpan.js"/>
<svg id="graph" class="graph">
<g id="viewport">
<title>InitializeEulerianState</title>
<!-- Node1 -->
<g id="node1" class="node">
<title>Node1</title>
<g id="a_node1"><a xlink:title="High&#45;level orchestrator to set the complete initial state of the Eulerian solver.">
<polygon fill="#bfbfbf" stroke="black" points="0,-95.5 0,-114.5 124,-114.5 124,-95.5 0,-95.5"/>
<text text-anchor="middle" x="62" y="-102.5" font-family="Helvetica,sans-Serif" font-size="10.00">InitializeEulerianState</text>
</a>
</g>
</g>
<!-- Node2 -->
<g id="node2" class="node">
<title>Node2</title>
<g id="a_node2"><a xlink:href="initialcondition_8c.html#a51d0251f84a962a611ff0c0a8797a3e4" target="_top" xlink:title="(HELPER) Sets the t=0 fluid state for all blocks.">
<polygon fill="none" stroke="black" points="182.5,-90 182.5,-120 292.5,-120 292.5,-90 182.5,-90"/>
<text text-anchor="start" x="190.5" y="-108" font-family="Helvetica,sans-Serif" font-size="10.00">SetInitialFluidState</text>
<text text-anchor="middle" x="237.5" y="-97" font-family="Helvetica,sans-Serif" font-size="10.00">_FreshStart</text>
</a>
</g>
</g>
<!-- Node1&#45;&gt;Node2 -->
<g id="edge1" class="edge">
<title>Node1&#45;&gt;Node2</title>
<path fill="none" stroke="midnightblue" d="M124.17,-105C139.7,-105 156.42,-105 172.1,-105"/>
<polygon fill="midnightblue" stroke="midnightblue" points="172.23,-108.5 182.23,-105 172.23,-101.5 172.23,-108.5"/>
</g>
<!-- Node15 -->
<g id="node15" class="node">
<title>Node15</title>
<g id="a_node15"><a xlink:href="initialcondition_8c.html#aff0951526ed36a87e2745da0154a68e5" target="_top" xlink:title="(HELPER) Reads fluid state for all blocks from restart files.">
<polygon fill="none" stroke="black" points="182.5,-185 182.5,-215 292.5,-215 292.5,-185 182.5,-185"/>
<text text-anchor="start" x="190.5" y="-203" font-family="Helvetica,sans-Serif" font-size="10.00">SetInitialFluidState</text>
<text text-anchor="middle" x="237.5" y="-192" font-family="Helvetica,sans-Serif" font-size="10.00">_Restart</text>
</a>
</g>
</g>
<!-- Node1&#45;&gt;Node15 -->
<g id="edge15" class="edge">
<title>Node1&#45;&gt;Node15</title>
<path fill="none" stroke="midnightblue" d="M80.59,-114.63C108.47,-129.9 163.38,-159.96 200.02,-180.03"/>
<polygon fill="midnightblue" stroke="midnightblue" points="198.46,-183.16 208.92,-184.9 201.83,-177.02 198.46,-183.16"/>
</g>
<!-- Node21 -->
<g id="node21" class="node">
<title>Node21</title>
<g id="a_node21"><a xlink:href="simulation_8h.html#a78d6ef98da860e3271d6b7277a54e642" target="_top" xlink:title="Copies the current time step&#39;s solution fields into history vectors (e.g., U(t_n) &#45;&gt; U_o,...">
<polygon fill="none" stroke="black" points="160,-51.5 160,-70.5 315,-70.5 315,-51.5 160,-51.5"/>
<text text-anchor="middle" x="237.5" y="-58.5" font-family="Helvetica,sans-Serif" font-size="10.00">UpdateSolverHistoryVectors</text>
</a>
</g>
</g>
<!-- Node1&#45;&gt;Node21 -->
<g id="edge25" class="edge">
<title>Node1&#45;&gt;Node21</title>
<path fill="none" stroke="midnightblue" d="M100.65,-95.45C126.57,-88.88 161.2,-80.1 189.02,-73.04"/>
<polygon fill="midnightblue" stroke="midnightblue" points="190.09,-76.38 198.93,-70.53 188.37,-69.59 190.09,-76.38"/>
</g>
<!-- Node3 -->
<g id="node3" class="node">
<title>Node3</title>
<g id="a_node3"><a xlink:href="initialcondition_8c.html#af6a26611066aa455efddcca2fd80fe35" target="_top" xlink:title="(HELPER) Finalizes a block&#39;s state by applying BCs, converting to Cartesian, and synchronizing ghost ...">
<polygon fill="none" stroke="black" points="359,-76.5 359,-95.5 465,-95.5 465,-76.5 359,-76.5"/>
<text text-anchor="middle" x="412" y="-83.5" font-family="Helvetica,sans-Serif" font-size="10.00">FinalizeBlockState</text>
</a>
</g>
</g>
<!-- Node2&#45;&gt;Node3 -->
<g id="edge2" class="edge">
<title>Node2&#45;&gt;Node3</title>
<path fill="none" stroke="midnightblue" d="M292.61,-99.04C310.45,-97.08 330.43,-94.87 348.82,-92.85"/>
<polygon fill="midnightblue" stroke="midnightblue" points="349.3,-96.32 358.85,-91.74 348.53,-89.36 349.3,-96.32"/>
</g>
<!-- Node6 -->
<g id="node6" class="node">
<title>Node6</title>
<g id="a_node6"><a xlink:href="setup_8h.html#ad5f82951adcce74b3d37cb5880acf43a" target="_top" xlink:title="Updates the local vector (including ghost points) from its corresponding global vector.">
<polygon fill="none" stroke="black" points="515.5,-152.5 515.5,-171.5 626.5,-171.5 626.5,-152.5 515.5,-152.5"/>
<text text-anchor="middle" x="571" y="-159.5" font-family="Helvetica,sans-Serif" font-size="10.00">UpdateLocalGhosts</text>
</a>
</g>
</g>
<!-- Node2&#45;&gt;Node6 -->
<g id="edge14" class="edge">
<title>Node2&#45;&gt;Node6</title>
<path fill="none" stroke="midnightblue" d="M275.63,-120.04C297.27,-128.17 325.27,-137.62 351,-143 402.18,-153.7 461.31,-158.39 505.22,-160.44"/>
<polygon fill="midnightblue" stroke="midnightblue" points="505.33,-163.95 515.47,-160.88 505.63,-156.95 505.33,-163.95"/>
</g>
<!-- Node9 -->
<g id="node9" class="node">
<title>Node9</title>
<g id="a_node9"><a xlink:href="Boundaries_8h.html#abd9b573f8f42ea93e265da37a0673f24" target="_top" xlink:title=" ">
<polygon fill="none" stroke="black" points="378,-0.5 378,-19.5 446,-19.5 446,-0.5 378,-0.5"/>
<text text-anchor="middle" x="412" y="-7.5" font-family="Helvetica,sans-Serif" font-size="10.00">InflowFlux</text>
</a>
</g>
</g>
<!-- Node2&#45;&gt;Node9 -->
<g id="edge8" class="edge">
<title>Node2&#45;&gt;Node9</title>
<path fill="none" stroke="midnightblue" d="M292.5,-92.23C300.47,-89 308.26,-84.98 315,-80 337.32,-63.52 328.6,-45.38 351,-29 356.15,-25.23 362.08,-22.2 368.15,-19.75"/>
<polygon fill="midnightblue" stroke="midnightblue" points="369.46,-23 377.73,-16.38 367.14,-16.4 369.46,-23"/>
</g>
<!-- Node11 -->
<g id="node11" class="node">
<title>Node11</title>
<g id="a_node11"><a xlink:href="Boundaries_8h.html#a684320111be78b3001fda2ba25638e79" target="_top" xlink:title=" ">
<polygon fill="none" stroke="black" points="374,-114.5 374,-133.5 450,-133.5 450,-114.5 374,-114.5"/>
<text text-anchor="middle" x="412" y="-121.5" font-family="Helvetica,sans-Serif" font-size="10.00">OutflowFlux</text>
</a>
</g>
</g>
<!-- Node2&#45;&gt;Node11 -->
<g id="edge10" class="edge">
<title>Node2&#45;&gt;Node11</title>
<path fill="none" stroke="midnightblue" d="M292.61,-110.96C315.38,-113.47 341.64,-116.36 363.64,-118.78"/>
<polygon fill="midnightblue" stroke="midnightblue" points="363.42,-122.28 373.74,-119.9 364.18,-115.32 363.42,-122.28"/>
</g>
<!-- Node12 -->
<g id="node12" class="node">
<title>Node12</title>
<g id="a_node12"><a xlink:href="initialcondition_8c.html#a62dfa993750dc34d1729c575bb1dde66" target="_top" xlink:title="Sets the initial values for the INTERIOR of a specified Eulerian field.">
<polygon fill="none" stroke="black" points="353,-38.5 353,-57.5 471,-57.5 471,-38.5 353,-38.5"/>
<text text-anchor="middle" x="412" y="-45.5" font-family="Helvetica,sans-Serif" font-size="10.00">SetInitialInteriorField</text>
</a>
</g>
</g>
<!-- Node2&#45;&gt;Node12 -->
<g id="edge11" class="edge">
<title>Node2&#45;&gt;Node12</title>
<path fill="none" stroke="midnightblue" d="M285.51,-89.89C295.27,-86.68 305.49,-83.27 315,-80 331.09,-74.47 334.89,-72.46 351,-67 357.18,-64.91 363.74,-62.76 370.17,-60.69"/>
<polygon fill="midnightblue" stroke="midnightblue" points="371.63,-63.9 380.09,-57.53 369.5,-57.23 371.63,-63.9"/>
</g>
<!-- Node4 -->
<g id="node4" class="node">
<title>Node4</title>
<g id="a_node4"><a xlink:href="setup_8h.html#a515c9a96eb4bcac29f79e78c8882d7aa" target="_top" xlink:title="Reconstructs Cartesian velocity (Ucat) at cell centers from contravariant velocity (Ucont) defined on...">
<polygon fill="none" stroke="black" points="533.5,-76.5 533.5,-95.5 608.5,-95.5 608.5,-76.5 533.5,-76.5"/>
<text text-anchor="middle" x="571" y="-83.5" font-family="Helvetica,sans-Serif" font-size="10.00">Contra2Cart</text>
</a>
</g>
</g>
<!-- Node3&#45;&gt;Node4 -->
<g id="edge3" class="edge">
<title>Node3&#45;&gt;Node4</title>
<path fill="none" stroke="midnightblue" d="M465.28,-86C484.01,-86 504.99,-86 523.22,-86"/>
<polygon fill="midnightblue" stroke="midnightblue" points="523.32,-89.5 533.32,-86 523.32,-82.5 523.32,-89.5"/>
</g>
<!-- Node5 -->
<g id="node5" class="node">
<title>Node5</title>
<g id="a_node5"><a xlink:href="Boundaries_8h.html#adcd96cff4b9e15e03cdff9f5ea695dec" target="_top" xlink:title=" ">
<polygon fill="none" stroke="black" points="540.5,-114.5 540.5,-133.5 601.5,-133.5 601.5,-114.5 540.5,-114.5"/>
<text text-anchor="middle" x="571" y="-121.5" font-family="Helvetica,sans-Serif" font-size="10.00">FormBCS</text>
</a>
</g>
</g>
<!-- Node3&#45;&gt;Node5 -->
<g id="edge4" class="edge">
<title>Node3&#45;&gt;Node5</title>
<path fill="none" stroke="midnightblue" d="M452.62,-95.59C476.46,-101.36 506.71,-108.68 530.53,-114.45"/>
<polygon fill="midnightblue" stroke="midnightblue" points="529.77,-117.86 540.31,-116.81 531.41,-111.06 529.77,-117.86"/>
</g>
<!-- Node3&#45;&gt;Node6 -->
<g id="edge5" class="edge">
<title>Node3&#45;&gt;Node6</title>
<path fill="none" stroke="midnightblue" d="M452.99,-95.54C459.94,-98.06 466.89,-101.17 473,-105 492.72,-117.35 489.25,-130.7 509,-143 512.35,-145.08 515.94,-146.96 519.65,-148.64"/>
<polygon fill="midnightblue" stroke="midnightblue" points="518.44,-151.92 529.02,-152.42 521.06,-145.43 518.44,-151.92"/>
</g>
<!-- Node7 -->
<g id="node7" class="node">
<title>Node7</title>
<g id="a_node7"><a xlink:href="logging_8h.html#a9585f583c260f40a73f2490914edc689" target="_top" xlink:title="Retrieves the current logging level from the environment variable LOG_LEVEL.">
<polygon fill="none" stroke="black" points="686.5,-133.5 686.5,-152.5 768.5,-152.5 768.5,-133.5 686.5,-133.5"/>
<text text-anchor="middle" x="727.5" y="-140.5" font-family="Helvetica,sans-Serif" font-size="10.00">get_log_level</text>
</a>
</g>
</g>
<!-- Node6&#45;&gt;Node7 -->
<g id="edge6" class="edge">
<title>Node6&#45;&gt;Node7</title>
<path fill="none" stroke="midnightblue" d="M626.91,-155.25C642.99,-153.27 660.48,-151.12 676.25,-149.18"/>
<polygon fill="midnightblue" stroke="midnightblue" points="676.84,-152.63 686.34,-147.94 675.99,-145.69 676.84,-152.63"/>
</g>
<!-- Node8 -->
<g id="node8" class="node">
<title>Node8</title>
<g id="a_node8"><a xlink:href="logging_8h.html#a2358badbcda33fc9d80ebd6a59d2a2cd" target="_top" xlink:title="Checks if a given function is in the allow&#45;list.">
<polygon fill="none" stroke="black" points="671,-171.5 671,-190.5 784,-190.5 784,-171.5 671,-171.5"/>
<text text-anchor="middle" x="727.5" y="-178.5" font-family="Helvetica,sans-Serif" font-size="10.00">is_function_allowed</text>
</a>
</g>
</g>
<!-- Node6&#45;&gt;Node8 -->
<g id="edge7" class="edge">
<title>Node6&#45;&gt;Node8</title>
<path fill="none" stroke="midnightblue" d="M626.91,-168.75C637.86,-170.1 649.48,-171.53 660.75,-172.91"/>
<polygon fill="midnightblue" stroke="midnightblue" points="660.64,-176.43 670.99,-174.17 661.49,-169.48 660.64,-176.43"/>
</g>
<!-- Node10 -->
<g id="node10" class="node">
<title>Node10</title>
<g id="a_node10"><a xlink:href="Boundaries_8c.html#aa8017de37ede2f3151c445aafec42714" target="_top" xlink:title=" ">
<polygon fill="none" stroke="black" points="520.5,-0.5 520.5,-19.5 621.5,-19.5 621.5,-0.5 520.5,-0.5"/>
<text text-anchor="middle" x="571" y="-7.5" font-family="Helvetica,sans-Serif" font-size="10.00">InletInterpolation</text>
</a>
</g>
</g>
<!-- Node9&#45;&gt;Node10 -->
<g id="edge9" class="edge">
<title>Node9&#45;&gt;Node10</title>
<path fill="none" stroke="midnightblue" d="M446.3,-10C464.87,-10 488.56,-10 510.23,-10"/>
<polygon fill="midnightblue" stroke="midnightblue" points="510.34,-13.5 520.34,-10 510.34,-6.5 510.34,-13.5"/>
</g>
<!-- Node13 -->
<g id="node13" class="node">
<title>Node13</title>
<g id="a_node13"><a xlink:href="setup_8h.html#a25ce912d8aafa319a8c915cd350c7322" target="_top" xlink:title="Gets the global cell range for a rank, including boundary cells.">
<polygon fill="none" stroke="black" points="509,-38.5 509,-57.5 633,-57.5 633,-38.5 509,-38.5"/>
<text text-anchor="middle" x="571" y="-45.5" font-family="Helvetica,sans-Serif" font-size="10.00">GetGhostedCellRange</text>
</a>
</g>
</g>
<!-- Node12&#45;&gt;Node13 -->
<g id="edge12" class="edge">
<title>Node12&#45;&gt;Node13</title>
<path fill="none" stroke="midnightblue" d="M471.01,-48C480.06,-48 489.49,-48 498.79,-48"/>
<polygon fill="midnightblue" stroke="midnightblue" points="498.8,-51.5 508.8,-48 498.8,-44.5 498.8,-51.5"/>
</g>
<!-- Node14 -->
<g id="node14" class="node">
<title>Node14</title>
<g id="a_node14"><a xlink:href="setup_8c.html#a135027905841ed83f1a3ef2279d865cc" target="_top" xlink:title="Gets the global starting index of cells owned by this rank and the number of such cells.">
<polygon fill="none" stroke="black" points="669,-38.5 669,-57.5 786,-57.5 786,-38.5 669,-38.5"/>
<text text-anchor="middle" x="727.5" y="-45.5" font-family="Helvetica,sans-Serif" font-size="10.00">GetOwnedCellRange</text>
</a>
</g>
</g>
<!-- Node13&#45;&gt;Node14 -->
<g id="edge13" class="edge">
<title>Node13&#45;&gt;Node14</title>
<path fill="none" stroke="midnightblue" d="M633.06,-48C641.46,-48 650.12,-48 658.63,-48"/>
<polygon fill="midnightblue" stroke="midnightblue" points="658.9,-51.5 668.9,-48 658.9,-44.5 658.9,-51.5"/>
</g>
<!-- Node15&#45;&gt;Node6 -->
<g id="edge24" class="edge">
<title>Node15&#45;&gt;Node6</title>
<path fill="none" stroke="midnightblue" d="M292.59,-195.1C340.17,-190.65 411.26,-183.61 473,-176 483.43,-174.71 494.47,-173.23 505.23,-171.73"/>
<polygon fill="midnightblue" stroke="midnightblue" points="506.01,-175.15 515.42,-170.28 505.03,-168.22 506.01,-175.15"/>
</g>
<!-- Node16 -->
<g id="node16" class="node">
<title>Node16</title>
<g id="a_node16"><a xlink:href="io_8h.html#a3a009dabc71ccfa59f196e1bc045de45" target="_top" xlink:title="Reads binary field data for velocity, pressure, and other required vectors.">
<polygon fill="none" stroke="black" points="351,-228.5 351,-247.5 473,-247.5 473,-228.5 351,-228.5"/>
<text text-anchor="middle" x="412" y="-235.5" font-family="Helvetica,sans-Serif" font-size="10.00">ReadSimulationFields</text>
</a>
</g>
</g>
<!-- Node15&#45;&gt;Node16 -->
<g id="edge16" class="edge">
<title>Node15&#45;&gt;Node16</title>
<path fill="none" stroke="midnightblue" d="M292.61,-211.92C313.41,-216.5 337.12,-221.73 357.84,-226.29"/>
<polygon fill="midnightblue" stroke="midnightblue" points="357.22,-229.74 367.74,-228.47 358.73,-222.9 357.22,-229.74"/>
</g>
<!-- Node17 -->
<g id="node17" class="node">
<title>Node17</title>
<g id="a_node17"><a xlink:href="io_8c.html#a570806d7e0694b5d996e0c6018b48908" target="_top" xlink:title="Reads data for a specific field from a file into the provided vector.">
<polygon fill="none" stroke="black" points="684,-247.5 684,-266.5 771,-266.5 771,-247.5 684,-247.5"/>
<text text-anchor="middle" x="727.5" y="-254.5" font-family="Helvetica,sans-Serif" font-size="10.00">ReadFieldData</text>
</a>
</g>
</g>
<!-- Node16&#45;&gt;Node17 -->
<g id="edge17" class="edge">
<title>Node16&#45;&gt;Node17</title>
<path fill="none" stroke="midnightblue" d="M473.08,-241.64C531.03,-245.15 617.92,-250.42 673.41,-253.78"/>
<polygon fill="midnightblue" stroke="midnightblue" points="673.53,-257.3 683.73,-254.41 673.96,-250.31 673.53,-257.3"/>
</g>
<!-- Node18 -->
<g id="node18" class="node">
<title>Node18</title>
<g id="a_node18"><a xlink:href="io_8c.html#a45ad89f26c78131d2990f09126abba4b" target="_top" xlink:title="Reads LES&#45;related fields.">
<polygon fill="none" stroke="black" points="528,-190.5 528,-209.5 614,-209.5 614,-190.5 528,-190.5"/>
<text text-anchor="middle" x="571" y="-197.5" font-family="Helvetica,sans-Serif" font-size="10.00">ReadLESFields</text>
</a>
</g>
</g>
<!-- Node16&#45;&gt;Node18 -->
<g id="edge18" class="edge">
<title>Node16&#45;&gt;Node18</title>
<path fill="none" stroke="midnightblue" d="M452.62,-228.41C473.34,-223.4 498.89,-217.21 520.86,-211.89"/>
<polygon fill="midnightblue" stroke="midnightblue" points="521.77,-215.27 530.67,-209.52 520.12,-208.47 521.77,-215.27"/>
</g>
<!-- Node19 -->
<g id="node19" class="node">
<title>Node19</title>
<g id="a_node19"><a xlink:href="io_8c.html#a19e2e0b57afae458bae068610141c031" target="_top" xlink:title="Reads RANS&#45;related fields.">
<polygon fill="none" stroke="black" points="523,-304.5 523,-323.5 619,-323.5 619,-304.5 523,-304.5"/>
<text text-anchor="middle" x="571" y="-311.5" font-family="Helvetica,sans-Serif" font-size="10.00">ReadRANSFields</text>
</a>
</g>
</g>
<!-- Node16&#45;&gt;Node19 -->
<g id="edge20" class="edge">
<title>Node16&#45;&gt;Node19</title>
<path fill="none" stroke="midnightblue" d="M426.76,-247.58C444.91,-259.88 478.19,-281.28 509,-295 514,-297.23 519.35,-299.3 524.71,-301.2"/>
<polygon fill="midnightblue" stroke="midnightblue" points="523.73,-304.56 534.32,-304.42 525.95,-297.93 523.73,-304.56"/>
</g>
<!-- Node20 -->
<g id="node20" class="node">
<title>Node20</title>
<g id="a_node20"><a xlink:href="io_8c.html#a03f5b76975eea55434d764a23fd42623" target="_top" xlink:title="Reads statistical fields for averaging purposes.">
<polygon fill="none" stroke="black" points="512,-266.5 512,-285.5 630,-285.5 630,-266.5 512,-266.5"/>
<text text-anchor="middle" x="571" y="-273.5" font-family="Helvetica,sans-Serif" font-size="10.00">ReadStatisticalFields</text>
</a>
</g>
</g>
<!-- Node16&#45;&gt;Node20 -->
<g id="edge22" class="edge">
<title>Node16&#45;&gt;Node20</title>
<path fill="none" stroke="midnightblue" d="M452.62,-247.59C473.34,-252.6 498.89,-258.79 520.86,-264.11"/>
<polygon fill="midnightblue" stroke="midnightblue" points="520.12,-267.53 530.67,-266.48 521.77,-260.73 520.12,-267.53"/>
</g>
<!-- Node18&#45;&gt;Node17 -->
<g id="edge19" class="edge">
<title>Node18&#45;&gt;Node17</title>
<path fill="none" stroke="midnightblue" d="M597.86,-209.54C623.37,-218.95 662.57,-233.41 690.99,-243.9"/>
<polygon fill="midnightblue" stroke="midnightblue" points="689.96,-247.25 700.56,-247.43 692.39,-240.68 689.96,-247.25"/>
</g>
<!-- Node19&#45;&gt;Node17 -->
<g id="edge21" class="edge">
<title>Node19&#45;&gt;Node17</title>
<path fill="none" stroke="midnightblue" d="M604.46,-304.44C613.73,-301.57 623.81,-298.29 633,-295 653.88,-287.52 676.96,-278.15 694.97,-270.58"/>
<polygon fill="midnightblue" stroke="midnightblue" points="696.57,-273.71 704.41,-266.59 693.84,-267.26 696.57,-273.71"/>
</g>
<!-- Node20&#45;&gt;Node17 -->
<g id="edge23" class="edge">
<title>Node20&#45;&gt;Node17</title>
<path fill="none" stroke="midnightblue" d="M630.41,-268.82C644.71,-267.06 659.93,-265.19 673.94,-263.46"/>
<polygon fill="midnightblue" stroke="midnightblue" points="674.4,-266.93 683.9,-262.24 673.55,-259.99 674.4,-266.93"/>
</g>
</g>
</svg>
        <g id="navigator" transform="translate(0 0)" fill="#404254">
                <rect fill="#f2f5e9" fill-opacity="0.5" stroke="#606060" stroke-width=".5" x="0" y="0" width="60" height="60"/>
                <use id="zoomplus" xlink:href="#zoomPlus" x="17" y="9" onmousedown="handleZoom(evt,'in')"/>
                <use id="zoomminus" xlink:href="#zoomMin" x="42" y="9" onmousedown="handleZoom(evt,'out')"/>
                <use id="reset" xlink:href="#resetDef" x="30" y="36" onmousedown="handleReset()"/>
                <g id="arrowUp" xlink:href="#dirArrow" transform="translate(30 24)" onmousedown="handlePan(0,-1)">
                  <use xlink:href="#rim" fill="#404040">
                        <set attributeName="fill" to="#808080" begin="arrowUp.mouseover" end="arrowUp.mouseout"/>
                  </use>
                  <path fill="none" stroke="white" stroke-width="1.5" d="M0,-3.0v7 M-2.5,-0.5L0,-3.0L2.5,-0.5"/>
                </g>
                <g id="arrowRight" xlink:href="#dirArrow" transform="rotate(90) translate(36 -43)" onmousedown="handlePan(1,0)">
                  <use xlink:href="#rim" fill="#404040">
                        <set attributeName="fill" to="#808080" begin="arrowRight.mouseover" end="arrowRight.mouseout"/>
                  </use>
                  <path fill="none" stroke="white" stroke-width="1.5" d="M0,-3.0v7 M-2.5,-0.5L0,-3.0L2.5,-0.5"/>
                </g>
                <g id="arrowDown" xlink:href="#dirArrow" transform="rotate(180) translate(-30 -48)" onmousedown="handlePan(0,1)">
                  <use xlink:href="#rim" fill="#404040">
                        <set attributeName="fill" to="#808080" begin="arrowDown.mouseover" end="arrowDown.mouseout"/>
                  </use>
                  <path fill="none" stroke="white" stroke-width="1.5" d="M0,-3.0v7 M-2.5,-0.5L0,-3.0L2.5,-0.5"/>
                </g>
                <g id="arrowLeft" xlink:href="#dirArrow" transform="rotate(270) translate(-36 17)" onmousedown="handlePan(-1,0)">
                  <use xlink:href="#rim" fill="#404040">
                        <set attributeName="fill" to="#808080" begin="arrowLeft.mouseover" end="arrowLeft.mouseout"/>
                  </use>
                  <path fill="none" stroke="white" stroke-width="1.5" d="M0,-3.0v7 M-2.5,-0.5L0,-3.0L2.5,-0.5"/>
                </g>
        </g>
        <svg viewBox="0 0 15 15" width="100%" height="30px" preserveAspectRatio="xMaxYMin meet">
         <g id="arrow_out" transform="scale(0.3 0.3)">
          <a xlink:href="initialcondition_8c_ad0dd7d3f2528b6a7802fcd551e88ea99_cgraph_org.svg" target="_base">
           <rect id="button" ry="5" rx="5" y="6" x="6" height="38" width="38"
                fill="#f2f5e9" fill-opacity="0.5" stroke="#606060" stroke-width="1.0"/>
           <path id="arrow"
             d="M 11.500037,31.436501 C 11.940474,20.09759 22.043105,11.32322 32.158766,21.979434 L 37.068811,17.246167 C 37.068811,17.246167 37.088388,32 37.088388,32 L 22.160133,31.978069 C 22.160133,31.978069 26.997745,27.140456 26.997745,27.140456 C 18.528582,18.264221 13.291696,25.230495 11.500037,31.436501 z"
             style="fill:#404040;"/>
          </a>
         </g>
        </svg>
</svg>
