<?xml version="1.0" encoding="UTF-8" standalone="no"?>
<!DOCTYPE svg PUBLIC "-//W3C//DTD SVG 1.1//EN"
 "http://www.w3.org/Graphics/SVG/1.1/DTD/svg11.dtd">
<!-- Generated by graphviz version 2.43.0 (0)
 -->
<!-- Title: ComputeTrilinearWeights Pages: 1 -->
<svg width="303pt" height="88pt"
 viewBox="0.00 0.00 303.00 88.00" xmlns="http://www.w3.org/2000/svg" xmlns:xlink="http://www.w3.org/1999/xlink">
<g id="graph0" class="graph" transform="scale(1 1) rotate(0) translate(4 84)">
<title>ComputeTrilinearWeights</title>
<!-- Node1 -->
<g id="node1" class="node">
<title>Node1</title>
<g id="a_node1"><a xlink:title="Computes the trilinear Interpolatetion weights from the Interpolatetion coefficients.">
<polygon fill="#bfbfbf" stroke="black" points="155,-30 155,-49 295,-49 295,-30 155,-30"/>
<text text-anchor="middle" x="225" y="-37" font-family="Helvetica,sans-Serif" font-size="10.00">ComputeTrilinearWeights</text>
</a>
</g>
</g>
<!-- Node2 -->
<g id="node2" class="node">
<title>Node2</title>
<g id="a_node2"><a xlink:href="interpolation_8c.html#a703c00f6badf5c3f0558df315a340579" target="_top" xlink:title="Computes the trilinear Interpolateted scalar at a given point.">
<polygon fill="none" stroke="black" points="0,-49.5 0,-79.5 119,-79.5 119,-49.5 0,-49.5"/>
<text text-anchor="start" x="8" y="-67.5" font-family="Helvetica,sans-Serif" font-size="10.00">TrilinearInterpolation</text>
<text text-anchor="middle" x="59.5" y="-56.5" font-family="Helvetica,sans-Serif" font-size="10.00">_Scalar</text>
</a>
</g>
</g>
<!-- Node1&#45;&gt;Node2 -->
<g id="edge1" class="edge">
<title>Node1&#45;&gt;Node2</title>
<path fill="none" stroke="midnightblue" d="M151.78,-50.54C140.85,-52.21 129.7,-53.92 119.11,-55.54"/>
<polygon fill="midnightblue" stroke="midnightblue" points="152.37,-53.99 161.72,-49.02 151.31,-47.07 152.37,-53.99"/>
</g>
<!-- Node3 -->
<g id="node3" class="node">
<title>Node3</title>
<g id="a_node3"><a xlink:href="interpolation_8c.html#a4373b52d08a935bb4cf8465228effe63" target="_top" xlink:title="Computes the trilinear Interpolateted vector (e.g., velocity) at a given point.">
<polygon fill="none" stroke="black" points="0,-0.5 0,-30.5 119,-30.5 119,-0.5 0,-0.5"/>
<text text-anchor="start" x="8" y="-18.5" font-family="Helvetica,sans-Serif" font-size="10.00">TrilinearInterpolation</text>
<text text-anchor="middle" x="59.5" y="-7.5" font-family="Helvetica,sans-Serif" font-size="10.00">_Vector</text>
</a>
</g>
</g>
<!-- Node1&#45;&gt;Node3 -->
<g id="edge2" class="edge">
<title>Node1&#45;&gt;Node3</title>
<path fill="none" stroke="midnightblue" d="M148.94,-28.48C138.89,-27.01 128.71,-25.51 119.01,-24.09"/>
<polygon fill="midnightblue" stroke="midnightblue" points="148.51,-31.96 158.91,-29.95 149.53,-25.03 148.51,-31.96"/>
</g>
</g>
</svg>
