<?xml version="1.0" encoding="UTF-8" standalone="no"?>
<!DOCTYPE svg PUBLIC "-//W3C//DTD SVG 1.1//EN"
 "http://www.w3.org/Graphics/SVG/1.1/DTD/svg11.dtd">
<!-- Generated by graphviz version 2.43.0 (0)
 -->
<!-- Title: InterpolateEulerFieldToSwarmForParticle Pages: 1 -->
<svg width="781pt" height="66pt"
 viewBox="0.00 0.00 781.00 66.00" xmlns="http://www.w3.org/2000/svg" xmlns:xlink="http://www.w3.org/1999/xlink">
<g id="graph0" class="graph" transform="scale(1 1) rotate(0) translate(4 62)">
<title>InterpolateEulerFieldToSwarmForParticle</title>
<!-- Node1 -->
<g id="node1" class="node">
<title>Node1</title>
<g id="a_node1"><a xlink:title="Interpolates a single field (scalar or vector) for one particle, storing the result in a swarm array.">
<polygon fill="#bfbfbf" stroke="black" points="612,-14 612,-44 773,-44 773,-14 612,-14"/>
<text text-anchor="start" x="620" y="-32" font-family="Helvetica,sans-Serif" font-size="10.00">InterpolateEulerFieldToSwarm</text>
<text text-anchor="middle" x="692.5" y="-21" font-family="Helvetica,sans-Serif" font-size="10.00">ForParticle</text>
</a>
</g>
</g>
<!-- Node2 -->
<g id="node2" class="node">
<title>Node2</title>
<g id="a_node2"><a xlink:href="interpolation_8c.html#ad200d31b74c511e4388b757fb0359001" target="_top" xlink:title="Interpolates a cell&#45;centered field (scalar or vector) onto DMSwarm particles, using a robust,...">
<polygon fill="none" stroke="black" points="415,-19.5 415,-38.5 576,-38.5 576,-19.5 415,-19.5"/>
<text text-anchor="middle" x="495.5" y="-26.5" font-family="Helvetica,sans-Serif" font-size="10.00">InterpolateEulerFieldToSwarm</text>
</a>
</g>
</g>
<!-- Node1&#45;&gt;Node2 -->
<g id="edge1" class="edge">
<title>Node1&#45;&gt;Node2</title>
<path fill="none" stroke="midnightblue" d="M601.88,-29C593.3,-29 584.64,-29 576.16,-29"/>
<polygon fill="midnightblue" stroke="midnightblue" points="601.9,-32.5 611.9,-29 601.9,-25.5 601.9,-32.5"/>
</g>
<!-- Node3 -->
<g id="node3" class="node">
<title>Node3</title>
<g id="a_node3"><a xlink:href="interpolation_8c.html#a25d384c0bcf5426864f90ab568e37511" target="_top" xlink:title="Interpolates a cell&#45;centered field (scalar or vector) onto DMSwarm particles, converting the cell&#45;cen...">
<polygon fill="none" stroke="black" points="224,-19.5 224,-38.5 379,-38.5 379,-19.5 224,-19.5"/>
<text text-anchor="middle" x="301.5" y="-26.5" font-family="Helvetica,sans-Serif" font-size="10.00">InterpolateAllFieldsToSwarm</text>
</a>
</g>
</g>
<!-- Node2&#45;&gt;Node3 -->
<g id="edge2" class="edge">
<title>Node2&#45;&gt;Node3</title>
<path fill="none" stroke="midnightblue" d="M404.49,-29C396.05,-29 387.54,-29 379.23,-29"/>
<polygon fill="midnightblue" stroke="midnightblue" points="404.74,-32.5 414.74,-29 404.74,-25.5 404.74,-32.5"/>
</g>
<!-- Node4 -->
<g id="node4" class="node">
<title>Node4</title>
<g id="a_node4"><a xlink:href="simulation_8c.html#a5cfb2f783604af7f20171d19f969d5d3" target="_top" xlink:title="Executes the main time&#45;marching loop for the coupled Euler&#45;Lagrange simulation.">
<polygon fill="none" stroke="black" points="77,-38.5 77,-57.5 188,-57.5 188,-38.5 77,-38.5"/>
<text text-anchor="middle" x="132.5" y="-45.5" font-family="Helvetica,sans-Serif" font-size="10.00">AdvanceSimulation</text>
</a>
</g>
</g>
<!-- Node3&#45;&gt;Node4 -->
<g id="edge3" class="edge">
<title>Node3&#45;&gt;Node4</title>
<path fill="none" stroke="midnightblue" d="M213.69,-38.88C205.04,-39.86 196.44,-40.84 188.26,-41.77"/>
<polygon fill="midnightblue" stroke="midnightblue" points="214.3,-42.33 223.84,-37.72 213.51,-35.37 214.3,-42.33"/>
</g>
<!-- Node6 -->
<g id="node6" class="node">
<title>Node6</title>
<g id="a_node6"><a xlink:href="simulation_8c.html#a4e2cad25ac1fbdc6745d6fd8fcc1bbc1" target="_top" xlink:title="Finalizes the simulation setup at t=0, ensuring a consistent state before time marching.">
<polygon fill="none" stroke="black" points="77,-0.5 77,-19.5 188,-19.5 188,-0.5 77,-0.5"/>
<text text-anchor="middle" x="132.5" y="-7.5" font-family="Helvetica,sans-Serif" font-size="10.00">PerformInitialSetup</text>
</a>
</g>
</g>
<!-- Node3&#45;&gt;Node6 -->
<g id="edge5" class="edge">
<title>Node3&#45;&gt;Node6</title>
<path fill="none" stroke="midnightblue" d="M213.69,-19.12C205.04,-18.14 196.44,-17.16 188.26,-16.23"/>
<polygon fill="midnightblue" stroke="midnightblue" points="213.51,-22.63 223.84,-20.28 214.3,-15.67 213.51,-22.63"/>
</g>
<!-- Node5 -->
<g id="node5" class="node">
<title>Node5</title>
<g id="a_node5"><a xlink:href="picsolver_8c.html#a3c04138a5bfe5d72780bb7e82a18e627" target="_top" xlink:title=" ">
<polygon fill="none" stroke="black" points="0,-19.5 0,-38.5 41,-38.5 41,-19.5 0,-19.5"/>
<text text-anchor="middle" x="20.5" y="-26.5" font-family="Helvetica,sans-Serif" font-size="10.00">main</text>
</a>
</g>
</g>
<!-- Node4&#45;&gt;Node5 -->
<g id="edge4" class="edge">
<title>Node4&#45;&gt;Node5</title>
<path fill="none" stroke="midnightblue" d="M66.94,-36.85C57.54,-35.23 48.53,-33.67 41.05,-32.38"/>
<polygon fill="midnightblue" stroke="midnightblue" points="66.37,-40.3 76.82,-38.56 67.56,-33.4 66.37,-40.3"/>
</g>
<!-- Node6&#45;&gt;Node5 -->
<g id="edge6" class="edge">
<title>Node6&#45;&gt;Node5</title>
<path fill="none" stroke="midnightblue" d="M66.94,-21.15C57.54,-22.77 48.53,-24.33 41.05,-25.62"/>
<polygon fill="midnightblue" stroke="midnightblue" points="67.56,-24.6 76.82,-19.44 66.37,-17.7 67.56,-24.6"/>
</g>
</g>
</svg>
