<?xml version="1.0" encoding="UTF-8" standalone="no"?>
<!DOCTYPE svg PUBLIC "-//W3C//DTD SVG 1.1//EN"
 "http://www.w3.org/Graphics/SVG/1.1/DTD/svg11.dtd">
<!-- Generated by graphviz version 2.43.0 (0)
 -->
<!-- Title: interpolation.c Pages: 1 -->
<svg width="2990pt" height="812pt"
 viewBox="0.00 0.00 2989.50 812.00" xmlns="http://www.w3.org/2000/svg" xmlns:xlink="http://www.w3.org/1999/xlink">
<g id="graph0" class="graph" transform="scale(1 1) rotate(0) translate(4 808)">
<title>interpolation.c</title>
<!-- Node1 -->
<g id="node1" class="node">
<title>Node1</title>
<g id="a_node1"><a xlink:title=" ">
<polygon fill="#bfbfbf" stroke="black" points="2303.5,-784.5 2303.5,-803.5 2390.5,-803.5 2390.5,-784.5 2303.5,-784.5"/>
<text text-anchor="middle" x="2347" y="-791.5" font-family="Helvetica,sans-Serif" font-size="10.00">interpolation.c</text>
</a>
</g>
</g>
<!-- Node2 -->
<g id="node2" class="node">
<title>Node2</title>
<g id="a_node2"><a xlink:href="interpolation_8h.html" target="_top" xlink:title=" ">
<polygon fill="none" stroke="black" points="2303,-728.5 2303,-747.5 2391,-747.5 2391,-728.5 2303,-728.5"/>
<text text-anchor="middle" x="2347" y="-735.5" font-family="Helvetica,sans-Serif" font-size="10.00">interpolation.h</text>
</a>
</g>
</g>
<!-- Node1&#45;&gt;Node2 -->
<g id="edge1" class="edge">
<title>Node1&#45;&gt;Node2</title>
<path fill="none" stroke="midnightblue" d="M2347,-784.08C2347,-777.01 2347,-766.86 2347,-757.99"/>
<polygon fill="midnightblue" stroke="midnightblue" points="2350.5,-757.75 2347,-747.75 2343.5,-757.75 2350.5,-757.75"/>
</g>
<!-- Node3 -->
<g id="node3" class="node">
<title>Node3</title>
<g id="a_node3"><a xlink:title=" ">
<polygon fill="none" stroke="#bfbfbf" points="1906.5,-112.5 1906.5,-131.5 1967.5,-131.5 1967.5,-112.5 1906.5,-112.5"/>
<text text-anchor="middle" x="1937" y="-119.5" font-family="Helvetica,sans-Serif" font-size="10.00">petscpf.h</text>
</a>
</g>
</g>
<!-- Node2&#45;&gt;Node3 -->
<g id="edge2" class="edge">
<title>Node2&#45;&gt;Node3</title>
<path fill="none" stroke="midnightblue" d="M2391.18,-734.3C2466.76,-729.1 2617.29,-716.02 2664,-692 2699.5,-673.74 2726,-666.92 2726,-627 2726,-627 2726,-627 2726,-513 2726,-239.34 2483.2,-227.12 2216,-168 2113.77,-145.38 2083.71,-151.73 1977.44,-132.15"/>
<polygon fill="midnightblue" stroke="midnightblue" points="1978.08,-128.71 1967.61,-130.3 1976.79,-135.59 1978.08,-128.71"/>
</g>
<!-- Node4 -->
<g id="node4" class="node">
<title>Node4</title>
<g id="a_node4"><a xlink:title=" ">
<polygon fill="none" stroke="#bfbfbf" points="635.5,-0.5 635.5,-19.5 736.5,-19.5 736.5,-0.5 635.5,-0.5"/>
<text text-anchor="middle" x="686" y="-7.5" font-family="Helvetica,sans-Serif" font-size="10.00">petscdmswarm.h</text>
</a>
</g>
</g>
<!-- Node2&#45;&gt;Node4 -->
<g id="edge3" class="edge">
<title>Node2&#45;&gt;Node4</title>
<path fill="none" stroke="midnightblue" d="M2302.67,-736.81C1999.52,-735.44 241.06,-726.03 134,-692 84.89,-676.39 38,-678.53 38,-627 38,-627 38,-627 38,-401 38,-251.76 74.62,-176.94 209,-112 348.21,-44.73 531.6,-22.04 625.25,-14.56"/>
<polygon fill="midnightblue" stroke="midnightblue" points="625.7,-18.03 635.4,-13.78 625.16,-11.05 625.7,-18.03"/>
</g>
<!-- Node5 -->
<g id="node5" class="node">
<title>Node5</title>
<g id="a_node5"><a xlink:title=" ">
<polygon fill="none" stroke="#bfbfbf" points="429.5,-0.5 429.5,-19.5 482.5,-19.5 482.5,-0.5 429.5,-0.5"/>
<text text-anchor="middle" x="456" y="-7.5" font-family="Helvetica,sans-Serif" font-size="10.00">stdlib.h</text>
</a>
</g>
</g>
<!-- Node2&#45;&gt;Node5 -->
<g id="edge4" class="edge">
<title>Node2&#45;&gt;Node5</title>
<path fill="none" stroke="midnightblue" d="M2302.62,-737.09C1993.29,-737.63 168.35,-738.77 62,-692 25.46,-675.93 0,-666.92 0,-627 0,-627 0,-627 0,-121 0,-75.87 36.55,-73.85 78,-56 138.91,-29.77 336.65,-17.01 419.24,-12.72"/>
<polygon fill="midnightblue" stroke="midnightblue" points="419.6,-16.21 429.41,-12.2 419.25,-9.22 419.6,-16.21"/>
</g>
<!-- Node6 -->
<g id="node6" class="node">
<title>Node6</title>
<g id="a_node6"><a xlink:title=" ">
<polygon fill="none" stroke="#bfbfbf" points="1420,-112.5 1420,-131.5 1468,-131.5 1468,-112.5 1420,-112.5"/>
<text text-anchor="middle" x="1444" y="-119.5" font-family="Helvetica,sans-Serif" font-size="10.00">time.h</text>
</a>
</g>
</g>
<!-- Node2&#45;&gt;Node6 -->
<g id="edge5" class="edge">
<title>Node2&#45;&gt;Node6</title>
<path fill="none" stroke="midnightblue" d="M2302.69,-736.76C2032.48,-735.22 611.65,-725.53 421,-692 331.86,-676.32 228,-717.51 228,-627 228,-627 228,-627 228,-569 228,-493.31 266,-478.69 266,-403 266,-403 266,-403 266,-289 266,-195.9 346.62,-190.33 437,-168 461.13,-162.04 1235.89,-131.2 1409.65,-124.35"/>
<polygon fill="midnightblue" stroke="midnightblue" points="1409.9,-127.84 1419.76,-123.95 1409.63,-120.85 1409.9,-127.84"/>
</g>
<!-- Node7 -->
<g id="node7" class="node">
<title>Node7</title>
<g id="a_node7"><a xlink:title=" ">
<polygon fill="none" stroke="#bfbfbf" points="854.5,-112.5 854.5,-131.5 905.5,-131.5 905.5,-112.5 854.5,-112.5"/>
<text text-anchor="middle" x="880" y="-119.5" font-family="Helvetica,sans-Serif" font-size="10.00">math.h</text>
</a>
</g>
</g>
<!-- Node2&#45;&gt;Node7 -->
<g id="edge6" class="edge">
<title>Node2&#45;&gt;Node7</title>
<path fill="none" stroke="midnightblue" d="M2302.98,-737.03C2003.92,-737.09 279.06,-735.56 178,-692 140.77,-675.95 114,-667.54 114,-627 114,-627 114,-627 114,-513 114,-412.9 152,-391.1 152,-291 152,-291 152,-291 152,-233 152,-198.84 163.65,-185.46 193,-168 249.19,-134.56 711.28,-125.41 844.3,-123.46"/>
<polygon fill="midnightblue" stroke="midnightblue" points="844.42,-126.95 854.37,-123.31 844.32,-119.96 844.42,-126.95"/>
</g>
<!-- Node8 -->
<g id="node8" class="node">
<title>Node8</title>
<g id="a_node8"><a xlink:title=" ">
<polygon fill="none" stroke="#bfbfbf" points="1814,-112.5 1814,-131.5 1888,-131.5 1888,-112.5 1814,-112.5"/>
<text text-anchor="middle" x="1851" y="-119.5" font-family="Helvetica,sans-Serif" font-size="10.00">petsctime.h</text>
</a>
</g>
</g>
<!-- Node2&#45;&gt;Node8 -->
<g id="edge7" class="edge">
<title>Node2&#45;&gt;Node8</title>
<path fill="none" stroke="midnightblue" d="M2391.27,-732.32C2445.99,-725.76 2535.07,-712.31 2561,-692 2685.63,-594.4 2670,-439.24 2550,-336 2466.91,-264.51 2179.41,-187.27 2104,-168 2016.62,-145.67 1990.59,-148.72 1898.21,-132.17"/>
<polygon fill="midnightblue" stroke="midnightblue" points="1898.61,-128.69 1888.14,-130.34 1897.36,-135.57 1898.61,-128.69"/>
</g>
<!-- Node9 -->
<g id="node9" class="node">
<title>Node9</title>
<g id="a_node9"><a xlink:title=" ">
<polygon fill="none" stroke="#bfbfbf" points="1985.5,-112.5 1985.5,-131.5 2104.5,-131.5 2104.5,-112.5 1985.5,-112.5"/>
<text text-anchor="middle" x="2045" y="-119.5" font-family="Helvetica,sans-Serif" font-size="10.00">petscdmcomposite.h</text>
</a>
</g>
</g>
<!-- Node2&#45;&gt;Node9 -->
<g id="edge8" class="edge">
<title>Node2&#45;&gt;Node9</title>
<path fill="none" stroke="midnightblue" d="M2391.18,-737.59C2482.23,-737.91 2686.72,-733.82 2740,-692 2764.22,-672.98 2764,-657.8 2764,-627 2764,-627 2764,-627 2764,-289 2764,-156.65 2295.65,-129.81 2114.95,-124.37"/>
<polygon fill="midnightblue" stroke="midnightblue" points="2114.85,-120.87 2104.76,-124.08 2114.65,-127.87 2114.85,-120.87"/>
</g>
<!-- Node10 -->
<g id="node10" class="node">
<title>Node10</title>
<g id="a_node10"><a xlink:title=" ">
<polygon fill="none" stroke="#bfbfbf" points="2906.5,-672.5 2906.5,-691.5 2981.5,-691.5 2981.5,-672.5 2906.5,-672.5"/>
<text text-anchor="middle" x="2944" y="-679.5" font-family="Helvetica,sans-Serif" font-size="10.00">petscerror.h</text>
</a>
</g>
</g>
<!-- Node2&#45;&gt;Node10 -->
<g id="edge9" class="edge">
<title>Node2&#45;&gt;Node10</title>
<path fill="none" stroke="midnightblue" d="M2391.29,-734.68C2484.31,-729.52 2706.71,-715.64 2892,-692 2893.3,-691.83 2894.62,-691.66 2895.96,-691.47"/>
<polygon fill="midnightblue" stroke="midnightblue" points="2896.91,-694.87 2906.29,-689.93 2895.88,-687.95 2896.91,-694.87"/>
</g>
<!-- Node11 -->
<g id="node11" class="node">
<title>Node11</title>
<g id="a_node11"><a xlink:title=" ">
<polygon fill="none" stroke="#bfbfbf" points="1114,-112.5 1114,-131.5 1182,-131.5 1182,-112.5 1114,-112.5"/>
<text text-anchor="middle" x="1148" y="-119.5" font-family="Helvetica,sans-Serif" font-size="10.00">petscsys.h</text>
</a>
</g>
</g>
<!-- Node2&#45;&gt;Node11 -->
<g id="edge10" class="edge">
<title>Node2&#45;&gt;Node11</title>
<path fill="none" stroke="midnightblue" d="M2302.93,-736.81C2009.06,-735.44 342.06,-726.17 241,-692 194.6,-676.31 152,-675.98 152,-627 152,-627 152,-627 152,-513 152,-431.86 228,-428.14 228,-347 228,-347 228,-347 228,-233 228,-170.38 292.62,-184.58 353,-168 389.36,-158.01 941.34,-132.36 1103.52,-125"/>
<polygon fill="midnightblue" stroke="midnightblue" points="1103.8,-128.49 1113.63,-124.54 1103.48,-121.5 1103.8,-128.49"/>
</g>
<!-- Node12 -->
<g id="node12" class="node">
<title>Node12</title>
<g id="a_node12"><a xlink:href="variables_8h.html" target="_top" xlink:title="Main header file for a complex fluid dynamics solver.">
<polygon fill="none" stroke="black" points="2205.5,-56.5 2205.5,-75.5 2276.5,-75.5 2276.5,-56.5 2205.5,-56.5"/>
<text text-anchor="middle" x="2241" y="-63.5" font-family="Helvetica,sans-Serif" font-size="10.00">variables.h</text>
</a>
</g>
</g>
<!-- Node2&#45;&gt;Node12 -->
<g id="edge11" class="edge">
<title>Node2&#45;&gt;Node12</title>
<path fill="none" stroke="midnightblue" d="M2391.36,-737.2C2518.98,-736.6 2878,-726.09 2878,-627 2878,-627 2878,-627 2878,-177 2878,-118.68 2819.68,-129.35 2764,-112 2675.5,-84.43 2397.37,-72.26 2286.9,-68.42"/>
<polygon fill="midnightblue" stroke="midnightblue" points="2286.85,-64.92 2276.74,-68.08 2286.62,-71.92 2286.85,-64.92"/>
</g>
<!-- Node20 -->
<g id="node20" class="node">
<title>Node20</title>
<g id="a_node20"><a xlink:href="ParticleSwarm_8h.html" target="_top" xlink:title="Header file for Particle Motion and migration related functions.">
<polygon fill="none" stroke="black" points="1145,-672.5 1145,-691.5 1241,-691.5 1241,-672.5 1145,-672.5"/>
<text text-anchor="middle" x="1193" y="-679.5" font-family="Helvetica,sans-Serif" font-size="10.00">ParticleSwarm.h</text>
</a>
</g>
</g>
<!-- Node2&#45;&gt;Node20 -->
<g id="edge21" class="edge">
<title>Node2&#45;&gt;Node20</title>
<path fill="none" stroke="midnightblue" d="M2302.82,-734.93C2124.02,-726.57 1453.97,-695.21 1251.38,-685.73"/>
<polygon fill="midnightblue" stroke="midnightblue" points="1251.4,-682.23 1241.24,-685.26 1251.07,-689.22 1251.4,-682.23"/>
</g>
<!-- Node23 -->
<g id="node23" class="node">
<title>Node23</title>
<g id="a_node23"><a xlink:href="logging_8h.html" target="_top" xlink:title="Logging utilities and macros for PETSc&#45;based applications.">
<polygon fill="none" stroke="black" points="1404,-560.5 1404,-579.5 1466,-579.5 1466,-560.5 1404,-560.5"/>
<text text-anchor="middle" x="1435" y="-567.5" font-family="Helvetica,sans-Serif" font-size="10.00">logging.h</text>
</a>
</g>
</g>
<!-- Node2&#45;&gt;Node23 -->
<g id="edge144" class="edge">
<title>Node2&#45;&gt;Node23</title>
<path fill="none" stroke="midnightblue" d="M2302.7,-728.94C2147.16,-700.63 1627.22,-605.99 1476.36,-578.53"/>
<polygon fill="midnightblue" stroke="midnightblue" points="1476.61,-575.02 1466.15,-576.67 1475.36,-581.9 1476.61,-575.02"/>
</g>
<!-- Node26 -->
<g id="node26" class="node">
<title>Node26</title>
<g id="a_node26"><a xlink:href="walkingsearch_8h.html" target="_top" xlink:title="Header file for particle location functions using the walking search algorithm.">
<polygon fill="none" stroke="black" points="940,-224.5 940,-243.5 1036,-243.5 1036,-224.5 940,-224.5"/>
<text text-anchor="middle" x="988" y="-231.5" font-family="Helvetica,sans-Serif" font-size="10.00">walkingsearch.h</text>
</a>
</g>
</g>
<!-- Node2&#45;&gt;Node26 -->
<g id="edge142" class="edge">
<title>Node2&#45;&gt;Node26</title>
<path fill="none" stroke="midnightblue" d="M2302.99,-737.25C2064.67,-738.41 926.71,-741.25 579,-692 481.66,-678.21 440.9,-698.48 365,-636 275.64,-562.44 364.53,-462.92 456,-392 600.91,-279.64 824.57,-247.57 929.66,-238.51"/>
<polygon fill="midnightblue" stroke="midnightblue" points="930.08,-241.99 939.76,-237.68 929.51,-235.01 930.08,-241.99"/>
</g>
<!-- Node27 -->
<g id="node27" class="node">
<title>Node27</title>
<g id="a_node27"><a xlink:href="setup_8h.html" target="_top" xlink:title=" ">
<polygon fill="none" stroke="black" points="2042.5,-168.5 2042.5,-187.5 2095.5,-187.5 2095.5,-168.5 2042.5,-168.5"/>
<text text-anchor="middle" x="2069" y="-175.5" font-family="Helvetica,sans-Serif" font-size="10.00">setup.h</text>
</a>
</g>
</g>
<!-- Node2&#45;&gt;Node27 -->
<g id="edge146" class="edge">
<title>Node2&#45;&gt;Node27</title>
<path fill="none" stroke="midnightblue" d="M2391.22,-733.38C2452.67,-725.69 2556,-701.72 2556,-627 2556,-627 2556,-627 2556,-401 2556,-311.45 2276.84,-257.99 2194,-224 2162.73,-211.17 2126.33,-199.12 2100.76,-190.73"/>
<polygon fill="midnightblue" stroke="midnightblue" points="2101.78,-187.38 2091.19,-187.58 2099.6,-194.03 2101.78,-187.38"/>
</g>
<!-- Node29 -->
<g id="node29" class="node">
<title>Node29</title>
<g id="a_node29"><a xlink:href="grid_8h.html" target="_top" xlink:title="Public interface for grid, solver, and metric setup routines.">
<polygon fill="none" stroke="black" points="2332,-112.5 2332,-131.5 2376,-131.5 2376,-112.5 2332,-112.5"/>
<text text-anchor="middle" x="2354" y="-119.5" font-family="Helvetica,sans-Serif" font-size="10.00">grid.h</text>
</a>
</g>
</g>
<!-- Node2&#45;&gt;Node29 -->
<g id="edge143" class="edge">
<title>Node2&#45;&gt;Node29</title>
<path fill="none" stroke="midnightblue" d="M2391.28,-735.01C2495.13,-729.96 2747.89,-715.4 2778,-692 2802.32,-673.11 2802,-657.8 2802,-627 2802,-627 2802,-627 2802,-289 2802,-258.2 2801.04,-244.43 2778,-224 2718.97,-171.65 2474.79,-137.57 2386.25,-126.73"/>
<polygon fill="midnightblue" stroke="midnightblue" points="2386.59,-123.25 2376.25,-125.53 2385.76,-130.2 2386.59,-123.25"/>
</g>
<!-- Node30 -->
<g id="node30" class="node">
<title>Node30</title>
<g id="a_node30"><a xlink:href="io_8h.html" target="_top" xlink:title="Public interface for data input/output routines.">
<polygon fill="none" stroke="black" points="2280.5,-448.5 2280.5,-467.5 2315.5,-467.5 2315.5,-448.5 2280.5,-448.5"/>
<text text-anchor="middle" x="2298" y="-455.5" font-family="Helvetica,sans-Serif" font-size="10.00">io.h</text>
</a>
</g>
</g>
<!-- Node2&#45;&gt;Node30 -->
<g id="edge145" class="edge">
<title>Node2&#45;&gt;Node30</title>
<path fill="none" stroke="midnightblue" d="M2355.17,-728.38C2370.93,-710.81 2404,-668.94 2404,-627 2404,-627 2404,-627 2404,-569 2404,-523.33 2356.05,-489.33 2324.65,-471.97"/>
<polygon fill="midnightblue" stroke="midnightblue" points="2325.98,-468.71 2315.5,-467.12 2322.7,-474.9 2325.98,-468.71"/>
</g>
<!-- Node12&#45;&gt;Node4 -->
<g id="edge16" class="edge">
<title>Node12&#45;&gt;Node4</title>
<path fill="none" stroke="midnightblue" d="M2205.24,-58.55C2198.53,-57.54 2191.57,-56.62 2185,-56 1898.81,-28.82 990.96,-15.05 746.9,-11.78"/>
<polygon fill="midnightblue" stroke="midnightblue" points="746.85,-8.27 736.8,-11.64 746.75,-15.27 746.85,-8.27"/>
</g>
<!-- Node12&#45;&gt;Node5 -->
<g id="edge18" class="edge">
<title>Node12&#45;&gt;Node5</title>
<path fill="none" stroke="midnightblue" d="M2205.34,-60.98C2187.79,-59.15 2166.31,-57.15 2147,-56 1472.01,-15.75 1301.69,-45.88 626,-20 580.1,-18.24 527.27,-15.3 492.85,-13.26"/>
<polygon fill="midnightblue" stroke="midnightblue" points="492.97,-9.76 482.78,-12.66 492.56,-16.75 492.97,-9.76"/>
</g>
<!-- Node13 -->
<g id="node13" class="node">
<title>Node13</title>
<g id="a_node13"><a xlink:title=" ">
<polygon fill="none" stroke="#bfbfbf" points="1975.5,-0.5 1975.5,-19.5 2044.5,-19.5 2044.5,-0.5 1975.5,-0.5"/>
<text text-anchor="middle" x="2010" y="-7.5" font-family="Helvetica,sans-Serif" font-size="10.00">petscvec.h</text>
</a>
</g>
</g>
<!-- Node12&#45;&gt;Node13 -->
<g id="edge12" class="edge">
<title>Node12&#45;&gt;Node13</title>
<path fill="none" stroke="midnightblue" d="M2205.41,-56.68C2164.91,-47.21 2098.68,-31.73 2054.72,-21.45"/>
<polygon fill="midnightblue" stroke="midnightblue" points="2055.41,-18.02 2044.87,-19.15 2053.81,-24.84 2055.41,-18.02"/>
</g>
<!-- Node14 -->
<g id="node14" class="node">
<title>Node14</title>
<g id="a_node14"><a xlink:title=" ">
<polygon fill="none" stroke="#bfbfbf" points="2063,-0.5 2063,-19.5 2143,-19.5 2143,-0.5 2063,-0.5"/>
<text text-anchor="middle" x="2103" y="-7.5" font-family="Helvetica,sans-Serif" font-size="10.00">petscdmda.h</text>
</a>
</g>
</g>
<!-- Node12&#45;&gt;Node14 -->
<g id="edge13" class="edge">
<title>Node12&#45;&gt;Node14</title>
<path fill="none" stroke="midnightblue" d="M2219.13,-56.44C2196.22,-47.48 2160.02,-33.31 2134.13,-23.18"/>
<polygon fill="midnightblue" stroke="midnightblue" points="2135.35,-19.9 2124.76,-19.52 2132.8,-26.42 2135.35,-19.9"/>
</g>
<!-- Node15 -->
<g id="node15" class="node">
<title>Node15</title>
<g id="a_node15"><a xlink:title=" ">
<polygon fill="none" stroke="#bfbfbf" points="2161.5,-0.5 2161.5,-19.5 2230.5,-19.5 2230.5,-0.5 2161.5,-0.5"/>
<text text-anchor="middle" x="2196" y="-7.5" font-family="Helvetica,sans-Serif" font-size="10.00">petscksp.h</text>
</a>
</g>
</g>
<!-- Node12&#45;&gt;Node15 -->
<g id="edge14" class="edge">
<title>Node12&#45;&gt;Node15</title>
<path fill="none" stroke="midnightblue" d="M2233.57,-56.08C2227.15,-48.38 2217.69,-37.03 2209.88,-27.65"/>
<polygon fill="midnightblue" stroke="midnightblue" points="2212.38,-25.19 2203.29,-19.75 2207.01,-29.67 2212.38,-25.19"/>
</g>
<!-- Node16 -->
<g id="node16" class="node">
<title>Node16</title>
<g id="a_node16"><a xlink:title=" ">
<polygon fill="none" stroke="#bfbfbf" points="2249,-0.5 2249,-19.5 2323,-19.5 2323,-0.5 2249,-0.5"/>
<text text-anchor="middle" x="2286" y="-7.5" font-family="Helvetica,sans-Serif" font-size="10.00">petscsnes.h</text>
</a>
</g>
</g>
<!-- Node12&#45;&gt;Node16 -->
<g id="edge15" class="edge">
<title>Node12&#45;&gt;Node16</title>
<path fill="none" stroke="midnightblue" d="M2248.43,-56.08C2254.85,-48.38 2264.31,-37.03 2272.12,-27.65"/>
<polygon fill="midnightblue" stroke="midnightblue" points="2274.99,-29.67 2278.71,-19.75 2269.62,-25.19 2274.99,-29.67"/>
</g>
<!-- Node17 -->
<g id="node17" class="node">
<title>Node17</title>
<g id="a_node17"><a xlink:title=" ">
<polygon fill="none" stroke="#bfbfbf" points="2341,-0.5 2341,-19.5 2391,-19.5 2391,-0.5 2341,-0.5"/>
<text text-anchor="middle" x="2366" y="-7.5" font-family="Helvetica,sans-Serif" font-size="10.00">stdio.h</text>
</a>
</g>
</g>
<!-- Node12&#45;&gt;Node17 -->
<g id="edge17" class="edge">
<title>Node12&#45;&gt;Node17</title>
<path fill="none" stroke="midnightblue" d="M2260.81,-56.44C2281.29,-47.6 2313.48,-33.69 2336.86,-23.59"/>
<polygon fill="midnightblue" stroke="midnightblue" points="2338.49,-26.7 2346.29,-19.52 2335.72,-20.27 2338.49,-26.7"/>
</g>
<!-- Node18 -->
<g id="node18" class="node">
<title>Node18</title>
<g id="a_node18"><a xlink:title=" ">
<polygon fill="none" stroke="#bfbfbf" points="1349.5,-0.5 1349.5,-19.5 1402.5,-19.5 1402.5,-0.5 1349.5,-0.5"/>
<text text-anchor="middle" x="1376" y="-7.5" font-family="Helvetica,sans-Serif" font-size="10.00">string.h</text>
</a>
</g>
</g>
<!-- Node12&#45;&gt;Node18 -->
<g id="edge19" class="edge">
<title>Node12&#45;&gt;Node18</title>
<path fill="none" stroke="midnightblue" d="M2205.23,-58.68C2198.52,-57.66 2191.56,-56.71 2185,-56 1888.28,-23.99 1527.74,-14.13 1412.95,-11.69"/>
<polygon fill="midnightblue" stroke="midnightblue" points="1412.69,-8.19 1402.62,-11.48 1412.54,-15.18 1412.69,-8.19"/>
</g>
<!-- Node19 -->
<g id="node19" class="node">
<title>Node19</title>
<g id="a_node19"><a xlink:title=" ">
<polygon fill="none" stroke="#bfbfbf" points="2409,-0.5 2409,-19.5 2465,-19.5 2465,-0.5 2409,-0.5"/>
<text text-anchor="middle" x="2437" y="-7.5" font-family="Helvetica,sans-Serif" font-size="10.00">unistd.h</text>
</a>
</g>
</g>
<!-- Node12&#45;&gt;Node19 -->
<g id="edge20" class="edge">
<title>Node12&#45;&gt;Node19</title>
<path fill="none" stroke="midnightblue" d="M2272.06,-56.44C2306.49,-46.96 2362.05,-31.65 2399.04,-21.46"/>
<polygon fill="midnightblue" stroke="midnightblue" points="2400.24,-24.76 2408.95,-18.73 2398.38,-18.01 2400.24,-24.76"/>
</g>
<!-- Node20&#45;&gt;Node4 -->
<g id="edge23" class="edge">
<title>Node20&#45;&gt;Node4</title>
<path fill="none" stroke="midnightblue" d="M1144.83,-680.74C987.97,-679.53 493.01,-672.82 338,-636 268.1,-619.4 190,-642.84 190,-571 190,-571 190,-571 190,-513 190,-359.2 47.48,-269.53 163,-168 269.99,-73.97 333.58,-116.97 470,-76 532.33,-57.28 604.75,-35.48 647.9,-22.48"/>
<polygon fill="midnightblue" stroke="midnightblue" points="649.13,-25.76 657.7,-19.53 647.11,-19.06 649.13,-25.76"/>
</g>
<!-- Node20&#45;&gt;Node7 -->
<g id="edge25" class="edge">
<title>Node20&#45;&gt;Node7</title>
<path fill="none" stroke="midnightblue" d="M1144.72,-680.98C977.82,-680.55 431.82,-676.08 365,-636 300.62,-597.38 190,-422.08 190,-347 190,-347 190,-347 190,-233 190,-202.2 189.34,-186.45 214,-168 264.6,-130.15 712.45,-124.13 843.89,-123.18"/>
<polygon fill="midnightblue" stroke="midnightblue" points="844.23,-126.68 854.21,-123.11 844.19,-119.68 844.23,-126.68"/>
</g>
<!-- Node20&#45;&gt;Node12 -->
<g id="edge26" class="edge">
<title>Node20&#45;&gt;Node12</title>
<path fill="none" stroke="midnightblue" d="M1241.06,-681.69C1396.11,-682.83 1896.11,-678.12 2294,-580 2368.37,-561.66 2385.92,-552.55 2457,-524 2631.01,-454.11 2840,-534.52 2840,-347 2840,-347 2840,-347 2840,-177 2840,-101.89 2756.81,-130.44 2684,-112 2542.35,-76.13 2368.38,-68.7 2287.03,-67.26"/>
<polygon fill="midnightblue" stroke="midnightblue" points="2286.69,-63.76 2276.64,-67.1 2286.59,-70.76 2286.69,-63.76"/>
</g>
<!-- Node21 -->
<g id="node21" class="node">
<title>Node21</title>
<g id="a_node21"><a xlink:title=" ">
<polygon fill="none" stroke="#bfbfbf" points="446,-168.5 446,-187.5 498,-187.5 498,-168.5 446,-168.5"/>
<text text-anchor="middle" x="472" y="-175.5" font-family="Helvetica,sans-Serif" font-size="10.00">petsc.h</text>
</a>
</g>
</g>
<!-- Node20&#45;&gt;Node21 -->
<g id="edge22" class="edge">
<title>Node20&#45;&gt;Node21</title>
<path fill="none" stroke="midnightblue" d="M1144.78,-680.35C1005.51,-678.11 604.55,-668.9 478,-636 413.16,-619.14 342,-637.99 342,-571 342,-571 342,-571 342,-513 342,-437.31 304,-422.69 304,-347 304,-347 304,-347 304,-289 304,-226.51 386.37,-197.6 435.75,-185.88"/>
<polygon fill="midnightblue" stroke="midnightblue" points="436.76,-189.24 445.75,-183.64 435.23,-182.41 436.76,-189.24"/>
</g>
<!-- Node22 -->
<g id="node22" class="node">
<title>Node22</title>
<g id="a_node22"><a xlink:title=" ">
<polygon fill="none" stroke="#bfbfbf" points="876,-168.5 876,-187.5 938,-187.5 938,-168.5 876,-168.5"/>
<text text-anchor="middle" x="907" y="-175.5" font-family="Helvetica,sans-Serif" font-size="10.00">stdbool.h</text>
</a>
</g>
</g>
<!-- Node20&#45;&gt;Node22 -->
<g id="edge24" class="edge">
<title>Node20&#45;&gt;Node22</title>
<path fill="none" stroke="midnightblue" d="M1144.77,-681.79C1042.42,-682.52 796.43,-679.14 596,-636 524.8,-620.68 483.78,-639.65 442,-580 309.08,-390.23 737.01,-233.66 869.29,-190.69"/>
<polygon fill="midnightblue" stroke="midnightblue" points="870.56,-193.96 879.01,-187.57 868.42,-187.29 870.56,-193.96"/>
</g>
<!-- Node20&#45;&gt;Node23 -->
<g id="edge27" class="edge">
<title>Node20&#45;&gt;Node23</title>
<path fill="none" stroke="midnightblue" d="M1211.99,-672.37C1254.4,-653.09 1357,-606.45 1406.86,-583.79"/>
<polygon fill="midnightblue" stroke="midnightblue" points="1408.44,-586.92 1416.1,-579.59 1405.55,-580.54 1408.44,-586.92"/>
</g>
<!-- Node20&#45;&gt;Node26 -->
<g id="edge133" class="edge">
<title>Node20&#45;&gt;Node26</title>
<path fill="none" stroke="midnightblue" d="M1144.81,-679.49C1034.34,-675.6 765.76,-663.53 680,-636 625.93,-618.64 570,-627.79 570,-571 570,-571 570,-571 570,-513 570,-342.32 814.62,-270.09 929.6,-245.56"/>
<polygon fill="midnightblue" stroke="midnightblue" points="930.57,-248.94 939.64,-243.47 929.14,-242.08 930.57,-248.94"/>
</g>
<!-- Node20&#45;&gt;Node30 -->
<g id="edge141" class="edge">
<title>Node20&#45;&gt;Node30</title>
<path fill="none" stroke="midnightblue" d="M1241.01,-677.99C1372.23,-669.2 1747.58,-640.28 2054,-580 2144.99,-562.1 2180.01,-578.56 2255,-524 2271.53,-511.97 2283.53,-491.49 2290.59,-476.73"/>
<polygon fill="midnightblue" stroke="midnightblue" points="2293.78,-478.16 2294.68,-467.6 2287.4,-475.3 2293.78,-478.16"/>
</g>
<!-- Node35 -->
<g id="node35" class="node">
<title>Node35</title>
<g id="a_node35"><a xlink:href="Metric_8h.html" target="_top" xlink:title=" ">
<polygon fill="none" stroke="black" points="1407,-616.5 1407,-635.5 1463,-635.5 1463,-616.5 1407,-616.5"/>
<text text-anchor="middle" x="1435" y="-623.5" font-family="Helvetica,sans-Serif" font-size="10.00">Metric.h</text>
</a>
</g>
</g>
<!-- Node20&#45;&gt;Node35 -->
<g id="edge134" class="edge">
<title>Node20&#45;&gt;Node35</title>
<path fill="none" stroke="midnightblue" d="M1231.35,-672.44C1276.6,-662.35 1351.4,-645.65 1396.65,-635.56"/>
<polygon fill="midnightblue" stroke="midnightblue" points="1397.67,-638.92 1406.66,-633.32 1396.14,-632.08 1397.67,-638.92"/>
</g>
<!-- Node23&#45;&gt;Node5 -->
<g id="edge29" class="edge">
<title>Node23&#45;&gt;Node5</title>
<path fill="none" stroke="midnightblue" d="M1403.62,-568.76C1288.31,-567.6 888.35,-560.93 767,-524 615.85,-478 342,-319.64 342,-235 342,-235 342,-235 342,-121 342,-74.11 392.55,-40.89 426.33,-23.93"/>
<polygon fill="midnightblue" stroke="midnightblue" points="427.87,-27.07 435.36,-19.58 424.83,-20.77 427.87,-27.07"/>
</g>
<!-- Node23&#45;&gt;Node11 -->
<g id="edge31" class="edge">
<title>Node23&#45;&gt;Node11</title>
<path fill="none" stroke="midnightblue" d="M1413.79,-560.47C1377.3,-546.2 1300.02,-517.7 1232,-504 1187.17,-494.97 852.89,-501.72 822,-468 731.52,-369.22 755.31,-261.74 851,-168 885.97,-133.74 1029.42,-125.53 1103.4,-123.58"/>
<polygon fill="midnightblue" stroke="midnightblue" points="1103.88,-127.07 1113.79,-123.34 1103.71,-120.08 1103.88,-127.07"/>
</g>
<!-- Node23&#45;&gt;Node12 -->
<g id="edge33" class="edge">
<title>Node23&#45;&gt;Node12</title>
<path fill="none" stroke="midnightblue" d="M1466.19,-568.83C1594.07,-567.91 2078.46,-561.93 2226,-524 2378.15,-484.89 2425.74,-466.91 2537,-356 2614.99,-278.26 2668.23,-177.89 2580,-112 2534.65,-78.13 2368.77,-69.75 2287.08,-67.68"/>
<polygon fill="midnightblue" stroke="midnightblue" points="2286.68,-64.17 2276.6,-67.44 2286.52,-71.17 2286.68,-64.17"/>
</g>
<!-- Node23&#45;&gt;Node18 -->
<g id="edge30" class="edge">
<title>Node23&#45;&gt;Node18</title>
<path fill="none" stroke="midnightblue" d="M1403.85,-568.51C1294.72,-566.51 930.3,-557.42 819,-524 707.86,-490.63 362.02,-256.56 437,-168 556.02,-27.43 1179.54,-12.62 1338.89,-11.14"/>
<polygon fill="midnightblue" stroke="midnightblue" points="1339.16,-14.64 1349.13,-11.06 1339.1,-7.64 1339.16,-14.64"/>
</g>
<!-- Node23&#45;&gt;Node21 -->
<g id="edge28" class="edge">
<title>Node23&#45;&gt;Node21</title>
<path fill="none" stroke="midnightblue" d="M1403.71,-568.52C1299.91,-566.61 967.78,-557.94 867,-524 779.66,-494.59 583.99,-364.33 518,-300 496.46,-279.01 490.58,-272.16 480,-244 474.43,-229.18 472.56,-211.26 472,-197.99"/>
<polygon fill="midnightblue" stroke="midnightblue" points="475.49,-197.65 471.79,-187.72 468.5,-197.79 475.49,-197.65"/>
</g>
<!-- Node24 -->
<g id="node24" class="node">
<title>Node24</title>
<g id="a_node24"><a xlink:title=" ">
<polygon fill="none" stroke="#bfbfbf" points="1170.5,-504.5 1170.5,-523.5 1223.5,-523.5 1223.5,-504.5 1170.5,-504.5"/>
<text text-anchor="middle" x="1197" y="-511.5" font-family="Helvetica,sans-Serif" font-size="10.00">ctype.h</text>
</a>
</g>
</g>
<!-- Node23&#45;&gt;Node24 -->
<g id="edge32" class="edge">
<title>Node23&#45;&gt;Node24</title>
<path fill="none" stroke="midnightblue" d="M1403.89,-561.94C1360.07,-552 1280.36,-533.91 1233.7,-523.33"/>
<polygon fill="midnightblue" stroke="midnightblue" points="1234.24,-519.86 1223.72,-521.06 1232.69,-526.69 1234.24,-519.86"/>
</g>
<!-- Node25 -->
<g id="node25" class="node">
<title>Node25</title>
<g id="a_node25"><a xlink:href="AnalyticalSolution_8h.html" target="_top" xlink:title=" ">
<polygon fill="none" stroke="black" points="1596,-504.5 1596,-523.5 1710,-523.5 1710,-504.5 1596,-504.5"/>
<text text-anchor="middle" x="1653" y="-511.5" font-family="Helvetica,sans-Serif" font-size="10.00">AnalyticalSolution.h</text>
</a>
</g>
</g>
<!-- Node23&#45;&gt;Node25 -->
<g id="edge34" class="edge">
<title>Node23&#45;&gt;Node25</title>
<path fill="none" stroke="midnightblue" d="M1464.45,-560.44C1500.19,-551.08 1560.7,-536.06 1603.59,-525.87"/>
<polygon fill="midnightblue" stroke="midnightblue" points="1604.61,-529.22 1613.54,-523.52 1603,-522.41 1604.61,-529.22"/>
</g>
<!-- Node31 -->
<g id="node31" class="node">
<title>Node31</title>
<g id="a_node31"><a xlink:href="Boundaries_8h.html" target="_top" xlink:title=" ">
<polygon fill="none" stroke="black" points="1613,-392.5 1613,-411.5 1693,-411.5 1693,-392.5 1613,-392.5"/>
<text text-anchor="middle" x="1653" y="-399.5" font-family="Helvetica,sans-Serif" font-size="10.00">Boundaries.h</text>
</a>
</g>
</g>
<!-- Node23&#45;&gt;Node31 -->
<g id="edge132" class="edge">
<title>Node23&#45;&gt;Node31</title>
<path fill="none" stroke="midnightblue" d="M1443.19,-560.31C1474.16,-533.36 1582.04,-451.01 1630,-417.46"/>
<polygon fill="midnightblue" stroke="midnightblue" points="1632.24,-420.16 1638.49,-411.61 1628.27,-414.4 1632.24,-420.16"/>
</g>
<!-- Node25&#45;&gt;Node2 -->
<g id="edge131" class="edge">
<title>Node25&#45;&gt;Node2</title>
<path fill="none" stroke="midnightblue" d="M1679.7,-523.54C1787.01,-557.87 2187.02,-685.82 2310.48,-725.32"/>
<polygon fill="midnightblue" stroke="midnightblue" points="2309.63,-728.72 2320.22,-728.43 2311.76,-722.05 2309.63,-728.72"/>
</g>
<!-- Node25&#45;&gt;Node3 -->
<g id="edge35" class="edge">
<title>Node25&#45;&gt;Node3</title>
<path fill="none" stroke="midnightblue" d="M1710.31,-510.67C1752.08,-506.55 1808.41,-495.75 1850,-468 1930.33,-414.41 1976,-387.56 1976,-291 1976,-291 1976,-291 1976,-233 1976,-198.72 1958.96,-161.7 1947.41,-140.54"/>
<polygon fill="midnightblue" stroke="midnightblue" points="1950.4,-138.72 1942.42,-131.75 1944.31,-142.17 1950.4,-138.72"/>
</g>
<!-- Node25&#45;&gt;Node4 -->
<g id="edge36" class="edge">
<title>Node25&#45;&gt;Node4</title>
<path fill="none" stroke="midnightblue" d="M1595.9,-511.52C1469.75,-507.77 1170.82,-496.13 1074,-468 972.05,-438.38 730.98,-314.95 652,-244 626.05,-220.69 608,-213.89 608,-179 608,-179 608,-179 608,-121 608,-80.97 642.8,-45.34 665.91,-26.09"/>
<polygon fill="midnightblue" stroke="midnightblue" points="668.2,-28.74 673.81,-19.76 663.82,-23.28 668.2,-28.74"/>
</g>
<!-- Node25&#45;&gt;Node5 -->
<g id="edge37" class="edge">
<title>Node25&#45;&gt;Node5</title>
<path fill="none" stroke="midnightblue" d="M1595.83,-511.59C1460.56,-507.83 1124.06,-495.89 1015,-468 786.79,-409.64 734.04,-352.05 565,-188 520.16,-144.48 508.91,-131.4 480,-76 472.17,-61 465.7,-42.87 461.46,-29.57"/>
<polygon fill="midnightblue" stroke="midnightblue" points="464.72,-28.25 458.44,-19.71 458.02,-30.3 464.72,-28.25"/>
</g>
<!-- Node25&#45;&gt;Node6 -->
<g id="edge38" class="edge">
<title>Node25&#45;&gt;Node6</title>
<path fill="none" stroke="midnightblue" d="M1608.07,-504.42C1557.41,-491.83 1482,-463.01 1482,-403 1482,-403 1482,-403 1482,-345 1482,-268.48 1459.8,-179.23 1449.33,-141.42"/>
<polygon fill="midnightblue" stroke="midnightblue" points="1452.7,-140.46 1446.61,-131.79 1445.96,-142.36 1452.7,-140.46"/>
</g>
<!-- Node25&#45;&gt;Node7 -->
<g id="edge39" class="edge">
<title>Node25&#45;&gt;Node7</title>
<path fill="none" stroke="midnightblue" d="M1595.8,-510.99C1489.89,-504.35 1261.29,-476.07 1121,-356 1069.57,-311.98 1090.1,-274.49 1045,-224 1017.05,-192.71 1004.73,-189.99 969,-168 949.47,-155.98 926.32,-144.35 908.52,-135.93"/>
<polygon fill="midnightblue" stroke="midnightblue" points="909.79,-132.65 899.25,-131.59 906.83,-139 909.79,-132.65"/>
</g>
<!-- Node25&#45;&gt;Node8 -->
<g id="edge40" class="edge">
<title>Node25&#45;&gt;Node8</title>
<path fill="none" stroke="midnightblue" d="M1710.11,-507.36C1771.99,-497.73 1862,-471.89 1862,-403 1862,-403 1862,-403 1862,-233 1862,-200.79 1857.27,-163.53 1854.02,-141.69"/>
<polygon fill="midnightblue" stroke="midnightblue" points="1857.43,-140.87 1852.44,-131.53 1850.51,-141.95 1857.43,-140.87"/>
</g>
<!-- Node25&#45;&gt;Node9 -->
<g id="edge41" class="edge">
<title>Node25&#45;&gt;Node9</title>
<path fill="none" stroke="midnightblue" d="M1710.2,-511.85C1811.99,-506.46 2014,-479.1 2014,-347 2014,-347 2014,-347 2014,-233 2014,-199.41 2027.56,-162.14 2036.74,-140.75"/>
<polygon fill="midnightblue" stroke="midnightblue" points="2039.94,-142.17 2040.82,-131.61 2033.55,-139.31 2039.94,-142.17"/>
</g>
<!-- Node25&#45;&gt;Node12 -->
<g id="edge42" class="edge">
<title>Node25&#45;&gt;Node12</title>
<path fill="none" stroke="midnightblue" d="M1710.22,-512.82C1790.56,-511.21 1940.68,-503.2 2063,-468 2177.14,-435.15 2544,-353.77 2544,-235 2544,-235 2544,-235 2544,-177 2544,-122.94 2371.44,-87.83 2286.77,-73.85"/>
<polygon fill="midnightblue" stroke="midnightblue" points="2287.08,-70.36 2276.65,-72.21 2285.96,-77.27 2287.08,-70.36"/>
</g>
<!-- Node25&#45;&gt;Node20 -->
<g id="edge43" class="edge">
<title>Node25&#45;&gt;Node20</title>
<path fill="none" stroke="midnightblue" d="M1643.28,-523.78C1617.51,-546.52 1544.47,-607.51 1472,-636 1399.2,-664.62 1308.87,-675.05 1251.08,-678.84"/>
<polygon fill="midnightblue" stroke="midnightblue" points="1250.8,-675.35 1241.03,-679.45 1251.22,-682.34 1250.8,-675.35"/>
</g>
<!-- Node25&#45;&gt;Node23 -->
<g id="edge128" class="edge">
<title>Node25&#45;&gt;Node23</title>
<path fill="none" stroke="midnightblue" d="M1623.59,-523.55C1585.52,-533.52 1519.28,-549.93 1476.23,-560.07"/>
<polygon fill="midnightblue" stroke="midnightblue" points="1475.29,-556.69 1466.35,-562.38 1476.88,-563.51 1475.29,-556.69"/>
</g>
<!-- Node25&#45;&gt;Node26 -->
<g id="edge44" class="edge">
<title>Node25&#45;&gt;Node26</title>
<path fill="none" stroke="midnightblue" d="M1595.99,-512.67C1476.79,-511.25 1205.26,-504.04 1121,-468 1017.36,-423.67 977.31,-402.77 931,-300 921.79,-279.56 942.73,-260.85 961.77,-248.8"/>
<polygon fill="midnightblue" stroke="midnightblue" points="963.73,-251.71 970.55,-243.6 960.16,-245.69 963.73,-251.71"/>
</g>
<!-- Node25&#45;&gt;Node27 -->
<g id="edge130" class="edge">
<title>Node25&#45;&gt;Node27</title>
<path fill="none" stroke="midnightblue" d="M1710.04,-510.01C1797.17,-504.92 1958.48,-492.63 2011,-468 2076.76,-437.16 2101.19,-422.67 2130,-356 2133.53,-347.84 2133.85,-344.01 2130,-336 2118.9,-312.92 2098.39,-321.84 2085,-300 2065.27,-267.81 2060.85,-222.67 2062.94,-197.62"/>
<polygon fill="midnightblue" stroke="midnightblue" points="2066.42,-198.02 2064.33,-187.64 2059.49,-197.06 2066.42,-198.02"/>
</g>
<!-- Node25&#45;&gt;Node29 -->
<g id="edge127" class="edge">
<title>Node25&#45;&gt;Node29</title>
<path fill="none" stroke="midnightblue" d="M1710.02,-510.49C1807.12,-505.59 2000.2,-492.98 2063,-468 2220.27,-405.45 2319.32,-202.83 2346.43,-141.05"/>
<polygon fill="midnightblue" stroke="midnightblue" points="2349.67,-142.37 2350.41,-131.8 2343.24,-139.6 2349.67,-142.37"/>
</g>
<!-- Node25&#45;&gt;Node30 -->
<g id="edge129" class="edge">
<title>Node25&#45;&gt;Node30</title>
<path fill="none" stroke="midnightblue" d="M1710.24,-508.21C1843.83,-497.02 2172.27,-469.53 2270.08,-461.34"/>
<polygon fill="midnightblue" stroke="midnightblue" points="2270.66,-464.8 2280.33,-460.48 2270.08,-457.83 2270.66,-464.8"/>
</g>
<!-- Node26&#45;&gt;Node7 -->
<g id="edge47" class="edge">
<title>Node26&#45;&gt;Node7</title>
<path fill="none" stroke="midnightblue" d="M983.94,-224.21C977.51,-210.92 963.92,-185.42 947,-168 934.86,-155.51 918.71,-144.54 905.31,-136.56"/>
<polygon fill="midnightblue" stroke="midnightblue" points="906.97,-133.47 896.55,-131.53 903.48,-139.54 906.97,-133.47"/>
</g>
<!-- Node26&#45;&gt;Node12 -->
<g id="edge48" class="edge">
<title>Node26&#45;&gt;Node12</title>
<path fill="none" stroke="midnightblue" d="M990.54,-224.21C997.8,-200.92 1021.06,-137.63 1066,-112 1115.84,-83.58 1984.42,-70.37 2195.2,-67.57"/>
<polygon fill="midnightblue" stroke="midnightblue" points="2195.35,-71.07 2205.3,-67.44 2195.26,-64.07 2195.35,-71.07"/>
</g>
<!-- Node26&#45;&gt;Node21 -->
<g id="edge45" class="edge">
<title>Node26&#45;&gt;Node21</title>
<path fill="none" stroke="midnightblue" d="M939.92,-227.97C837.4,-217.24 599.26,-192.32 508.25,-182.79"/>
<polygon fill="midnightblue" stroke="midnightblue" points="508.46,-179.3 498.15,-181.74 507.73,-186.26 508.46,-179.3"/>
</g>
<!-- Node26&#45;&gt;Node22 -->
<g id="edge46" class="edge">
<title>Node26&#45;&gt;Node22</title>
<path fill="none" stroke="midnightblue" d="M974.99,-224.32C962.47,-215.98 943.32,-203.21 928.53,-193.35"/>
<polygon fill="midnightblue" stroke="midnightblue" points="930.24,-190.29 919.98,-187.65 926.36,-196.11 930.24,-190.29"/>
</g>
<!-- Node26&#45;&gt;Node23 -->
<g id="edge49" class="edge">
<title>Node26&#45;&gt;Node23</title>
<path fill="none" stroke="midnightblue" d="M972.88,-243.69C921.37,-274.4 759.28,-380.65 822,-468 888.85,-561.1 1267.18,-569.23 1393.75,-569.31"/>
<polygon fill="midnightblue" stroke="midnightblue" points="1393.82,-572.81 1403.82,-569.29 1393.81,-565.81 1393.82,-572.81"/>
</g>
<!-- Node26&#45;&gt;Node27 -->
<g id="edge50" class="edge">
<title>Node26&#45;&gt;Node27</title>
<path fill="none" stroke="midnightblue" d="M1036.32,-230.43C1219.54,-221.03 1868.72,-188.61 2031.72,-180.73"/>
<polygon fill="midnightblue" stroke="midnightblue" points="2032.35,-184.21 2042.17,-180.23 2032.01,-177.21 2032.35,-184.21"/>
</g>
<!-- Node27&#45;&gt;Node2 -->
<g id="edge123" class="edge">
<title>Node27&#45;&gt;Node2</title>
<path fill="none" stroke="midnightblue" d="M2095.71,-184.97C2125.06,-192.91 2172.61,-207.84 2212,-224 2294.84,-257.99 2574,-311.45 2574,-401 2574,-627 2574,-627 2574,-627 2574,-702.5 2468.48,-726.19 2401.23,-733.62"/>
<polygon fill="midnightblue" stroke="midnightblue" points="2400.8,-730.14 2391.2,-734.64 2401.5,-737.11 2400.8,-730.14"/>
</g>
<!-- Node27&#45;&gt;Node3 -->
<g id="edge51" class="edge">
<title>Node27&#45;&gt;Node3</title>
<path fill="none" stroke="midnightblue" d="M2048.08,-168.44C2026.26,-159.52 1991.85,-145.44 1967.11,-135.32"/>
<polygon fill="midnightblue" stroke="midnightblue" points="1968.4,-132.06 1957.82,-131.52 1965.75,-138.54 1968.4,-132.06"/>
</g>
<!-- Node27&#45;&gt;Node4 -->
<g id="edge52" class="edge">
<title>Node27&#45;&gt;Node4</title>
<path fill="none" stroke="midnightblue" d="M2095.79,-169.33C2113.75,-162.63 2136.05,-150.95 2147,-132 2163.89,-102.75 2170.51,-80.25 2147,-56 2122.24,-30.47 1019.86,-15.14 746.73,-11.73"/>
<polygon fill="midnightblue" stroke="midnightblue" points="746.65,-8.23 736.61,-11.6 746.57,-15.23 746.65,-8.23"/>
</g>
<!-- Node27&#45;&gt;Node5 -->
<g id="edge53" class="edge">
<title>Node27&#45;&gt;Node5</title>
<path fill="none" stroke="midnightblue" d="M2082.16,-168.37C2100.59,-155.3 2130,-130.06 2113,-112 2105.8,-104.35 735.76,-26.77 492.66,-13.06"/>
<polygon fill="midnightblue" stroke="midnightblue" points="492.76,-9.56 482.57,-12.5 492.36,-16.55 492.76,-9.56"/>
</g>
<!-- Node27&#45;&gt;Node6 -->
<g id="edge54" class="edge">
<title>Node27&#45;&gt;Node6</title>
<path fill="none" stroke="midnightblue" d="M2042.14,-174.68C1941.87,-166.02 1589.46,-135.57 1478.04,-125.94"/>
<polygon fill="midnightblue" stroke="midnightblue" points="1478.29,-122.45 1468.02,-125.08 1477.68,-129.42 1478.29,-122.45"/>
</g>
<!-- Node27&#45;&gt;Node7 -->
<g id="edge55" class="edge">
<title>Node27&#45;&gt;Node7</title>
<path fill="none" stroke="midnightblue" d="M2042.5,-175.8C1887.03,-168.74 1094.16,-132.73 915.7,-124.62"/>
<polygon fill="midnightblue" stroke="midnightblue" points="915.69,-121.12 905.55,-124.16 915.38,-128.11 915.69,-121.12"/>
</g>
<!-- Node27&#45;&gt;Node8 -->
<g id="edge56" class="edge">
<title>Node27&#45;&gt;Node8</title>
<path fill="none" stroke="midnightblue" d="M2042.27,-170.38C2005.67,-161.31 1939.48,-144.92 1895.38,-133.99"/>
<polygon fill="midnightblue" stroke="midnightblue" points="1896.05,-130.55 1885.5,-131.55 1894.36,-137.35 1896.05,-130.55"/>
</g>
<!-- Node27&#45;&gt;Node9 -->
<g id="edge58" class="edge">
<title>Node27&#45;&gt;Node9</title>
<path fill="none" stroke="midnightblue" d="M2065.04,-168.08C2061.79,-160.77 2057.08,-150.18 2053.05,-141.1"/>
<polygon fill="midnightblue" stroke="midnightblue" points="2056.15,-139.47 2048.89,-131.75 2049.75,-142.31 2056.15,-139.47"/>
</g>
<!-- Node27&#45;&gt;Node11 -->
<g id="edge57" class="edge">
<title>Node27&#45;&gt;Node11</title>
<path fill="none" stroke="midnightblue" d="M2042.43,-175.44C1913.71,-167.9 1354.58,-135.11 1192.3,-125.6"/>
<polygon fill="midnightblue" stroke="midnightblue" points="1192.39,-122.1 1182.2,-125.01 1191.98,-129.08 1192.39,-122.1"/>
</g>
<!-- Node27&#45;&gt;Node12 -->
<g id="edge60" class="edge">
<title>Node27&#45;&gt;Node12</title>
<path fill="none" stroke="midnightblue" d="M2095.67,-170.66C2120.42,-163.9 2157.47,-151.44 2185,-132 2203.36,-119.03 2219.54,-98.76 2229.73,-84.3"/>
<polygon fill="midnightblue" stroke="midnightblue" points="2232.79,-86.02 2235.52,-75.78 2227,-82.09 2232.79,-86.02"/>
</g>
<!-- Node27&#45;&gt;Node20 -->
<g id="edge61" class="edge">
<title>Node27&#45;&gt;Node20</title>
<path fill="none" stroke="midnightblue" d="M2094.96,-187.55C2116.74,-195.33 2148.18,-208.04 2173,-224 2312.29,-313.57 2498.05,-395.16 2394,-524 2321.14,-614.23 1481.96,-665.54 1251.34,-678"/>
<polygon fill="midnightblue" stroke="midnightblue" points="1250.94,-674.52 1241.14,-678.55 1251.31,-681.51 1250.94,-674.52"/>
</g>
<!-- Node27&#45;&gt;Node23 -->
<g id="edge121" class="edge">
<title>Node27&#45;&gt;Node23</title>
<path fill="none" stroke="midnightblue" d="M2076.72,-187.72C2096.09,-210.26 2146.45,-273.09 2164,-336 2173.63,-370.53 2161.08,-385.45 2137,-412 2104.84,-447.46 2087.84,-446.65 2045,-468 1984.65,-498.08 1969.55,-508.18 1904,-524 1749.37,-561.33 1559.01,-567.91 1476.45,-568.92"/>
<polygon fill="midnightblue" stroke="midnightblue" points="1476.19,-565.42 1466.23,-569.02 1476.26,-572.42 1476.19,-565.42"/>
</g>
<!-- Node27&#45;&gt;Node25 -->
<g id="edge124" class="edge">
<title>Node27&#45;&gt;Node25</title>
<path fill="none" stroke="midnightblue" d="M2073.36,-187.64C2077.86,-208.54 2080.24,-262.87 2103,-300 2116.39,-321.84 2136.9,-312.92 2148,-336 2151.85,-344.01 2151.53,-347.84 2148,-356 2119.19,-422.67 2094.76,-437.16 2029,-468 1976.2,-492.76 1813.49,-505.04 1720.25,-510.09"/>
<polygon fill="midnightblue" stroke="midnightblue" points="1719.87,-506.6 1710.07,-510.62 1720.24,-513.59 1719.87,-506.6"/>
</g>
<!-- Node27&#45;&gt;Node26 -->
<g id="edge62" class="edge">
<title>Node27&#45;&gt;Node26</title>
<path fill="none" stroke="midnightblue" d="M2042.04,-180.47C1900.84,-187.8 1246.64,-220.49 1046.37,-230.24"/>
<polygon fill="midnightblue" stroke="midnightblue" points="1046.16,-226.75 1036.34,-230.73 1046.5,-233.74 1046.16,-226.75"/>
</g>
<!-- Node28 -->
<g id="node28" class="node">
<title>Node28</title>
<g id="a_node28"><a xlink:title=" ">
<polygon fill="none" stroke="#bfbfbf" points="1700.5,-112.5 1700.5,-131.5 1795.5,-131.5 1795.5,-112.5 1700.5,-112.5"/>
<text text-anchor="middle" x="1748" y="-119.5" font-family="Helvetica,sans-Serif" font-size="10.00">petscsystypes.h</text>
</a>
</g>
</g>
<!-- Node27&#45;&gt;Node28 -->
<g id="edge59" class="edge">
<title>Node27&#45;&gt;Node28</title>
<path fill="none" stroke="midnightblue" d="M2042.46,-172.54C1990.77,-163.84 1875.57,-144.46 1805.57,-132.68"/>
<polygon fill="midnightblue" stroke="midnightblue" points="1806.02,-129.21 1795.58,-131 1804.86,-136.11 1806.02,-129.21"/>
</g>
<!-- Node27&#45;&gt;Node29 -->
<g id="edge63" class="edge">
<title>Node27&#45;&gt;Node29</title>
<path fill="none" stroke="midnightblue" d="M2095.64,-171.12C2148.4,-160.52 2265.38,-138.36 2322.12,-128.24"/>
<polygon fill="midnightblue" stroke="midnightblue" points="2322.74,-131.69 2331.98,-126.5 2321.53,-124.8 2322.74,-131.69"/>
</g>
<!-- Node27&#45;&gt;Node30 -->
<g id="edge122" class="edge">
<title>Node27&#45;&gt;Node30</title>
<path fill="none" stroke="midnightblue" d="M2079.85,-187.63C2090.78,-196.46 2107.98,-210.72 2122,-224 2171.75,-271.14 2187.01,-281.08 2228,-336 2253.66,-370.38 2277.25,-414.96 2289.4,-439.27"/>
<polygon fill="midnightblue" stroke="midnightblue" points="2286.32,-440.94 2293.88,-448.36 2292.6,-437.85 2286.32,-440.94"/>
</g>
<!-- Node27&#45;&gt;Node31 -->
<g id="edge126" class="edge">
<title>Node27&#45;&gt;Node31</title>
<path fill="none" stroke="midnightblue" d="M2060.7,-187.63C2032.46,-216.44 1936.43,-310.05 1838,-356 1794.7,-376.22 1741.3,-387.95 1703.02,-394.34"/>
<polygon fill="midnightblue" stroke="midnightblue" points="1702.46,-390.88 1693.14,-395.92 1703.57,-397.79 1702.46,-390.88"/>
</g>
<!-- Node32 -->
<g id="node32" class="node">
<title>Node32</title>
<g id="a_node32"><a xlink:href="ParticleMotion_8h.html" target="_top" xlink:title=" ">
<polygon fill="none" stroke="black" points="940,-280.5 940,-299.5 1036,-299.5 1036,-280.5 940,-280.5"/>
<text text-anchor="middle" x="988" y="-287.5" font-family="Helvetica,sans-Serif" font-size="10.00">ParticleMotion.h</text>
</a>
</g>
</g>
<!-- Node27&#45;&gt;Node32 -->
<g id="edge125" class="edge">
<title>Node27&#45;&gt;Node32</title>
<path fill="none" stroke="midnightblue" d="M2042.43,-181.64C1972.99,-188.54 1780.36,-207.72 1620,-224 1408.77,-245.45 1157.87,-271.39 1046.39,-282.94"/>
<polygon fill="midnightblue" stroke="midnightblue" points="1045.95,-279.47 1036.36,-283.98 1046.67,-286.43 1045.95,-279.47"/>
</g>
<!-- Node29&#45;&gt;Node12 -->
<g id="edge64" class="edge">
<title>Node29&#45;&gt;Node12</title>
<path fill="none" stroke="midnightblue" d="M2336.09,-112.44C2317.75,-103.68 2288.99,-89.94 2267.91,-79.86"/>
<polygon fill="midnightblue" stroke="midnightblue" points="2269.35,-76.67 2258.82,-75.52 2266.33,-82.99 2269.35,-76.67"/>
</g>
<!-- Node29&#45;&gt;Node23 -->
<g id="edge65" class="edge">
<title>Node29&#45;&gt;Node23</title>
<path fill="none" stroke="midnightblue" d="M2353.64,-131.64C2352.89,-144.32 2350.64,-168.55 2344,-188 2334.81,-214.92 2327.43,-219.49 2313,-244 2264.82,-325.83 2256.45,-354.35 2181,-412 2140.52,-442.93 2126.68,-445.45 2081,-468 2024.59,-495.85 2012,-508.63 1951,-524 1778.6,-567.45 1564.72,-570.63 1476.26,-569.82"/>
<polygon fill="midnightblue" stroke="midnightblue" points="1476.14,-566.32 1466.1,-569.71 1476.06,-573.32 1476.14,-566.32"/>
</g>
<!-- Node29&#45;&gt;Node27 -->
<g id="edge120" class="edge">
<title>Node29&#45;&gt;Node27</title>
<path fill="none" stroke="midnightblue" d="M2331.89,-127.97C2283.01,-137.87 2166.07,-160.05 2105.91,-170.85"/>
<polygon fill="midnightblue" stroke="midnightblue" points="2104.95,-167.47 2095.72,-172.67 2106.18,-174.36 2104.95,-167.47"/>
</g>
<!-- Node29&#45;&gt;Node30 -->
<g id="edge66" class="edge">
<title>Node29&#45;&gt;Node30</title>
<path fill="none" stroke="midnightblue" d="M2376.16,-123.49C2405.94,-125.49 2457.9,-133.98 2482,-168 2501.53,-195.56 2491.92,-211.71 2482,-244 2453.86,-335.58 2360.9,-411.81 2318.91,-442.5"/>
<polygon fill="midnightblue" stroke="midnightblue" points="2316.85,-439.67 2310.77,-448.34 2320.93,-445.35 2316.85,-439.67"/>
</g>
<!-- Node30&#45;&gt;Node12 -->
<g id="edge67" class="edge">
<title>Node30&#45;&gt;Node12</title>
<path fill="none" stroke="midnightblue" d="M2315.71,-452.84C2365.23,-440.12 2504.97,-396.61 2558,-300 2598.21,-226.75 2612.77,-175.1 2558,-112 2523.43,-72.18 2365.98,-66.67 2286.78,-66.48"/>
<polygon fill="midnightblue" stroke="midnightblue" points="2286.6,-62.98 2276.6,-66.48 2286.6,-69.98 2286.6,-62.98"/>
</g>
<!-- Node30&#45;&gt;Node23 -->
<g id="edge68" class="edge">
<title>Node30&#45;&gt;Node23</title>
<path fill="none" stroke="midnightblue" d="M2287.8,-467.51C2269.54,-482.16 2229.51,-511.75 2190,-524 2055.08,-565.83 1613.69,-569.13 1476.24,-569.12"/>
<polygon fill="midnightblue" stroke="midnightblue" points="1476.13,-565.62 1466.13,-569.12 1476.13,-572.62 1476.13,-565.62"/>
</g>
<!-- Node30&#45;&gt;Node31 -->
<g id="edge69" class="edge">
<title>Node30&#45;&gt;Node31</title>
<path fill="none" stroke="midnightblue" d="M2280.44,-455.72C2196.52,-449.14 1836.46,-419.04 1702.97,-407.51"/>
<polygon fill="midnightblue" stroke="midnightblue" points="1703.27,-404.03 1693,-406.65 1702.66,-411 1703.27,-404.03"/>
</g>
<!-- Node31&#45;&gt;Node2 -->
<g id="edge85" class="edge">
<title>Node31&#45;&gt;Node2</title>
<path fill="none" stroke="midnightblue" d="M1693.18,-402.57C1819.64,-401.71 2207.97,-402.88 2324,-448 2384.57,-471.55 2404.93,-496.34 2418,-560 2429.87,-617.84 2435.25,-642.54 2403,-692 2394.88,-704.45 2382.19,-715.06 2370.94,-722.84"/>
<polygon fill="midnightblue" stroke="midnightblue" points="2368.8,-720.06 2362.34,-728.46 2372.63,-725.92 2368.8,-720.06"/>
</g>
<!-- Node31&#45;&gt;Node3 -->
<g id="edge70" class="edge">
<title>Node31&#45;&gt;Node3</title>
<path fill="none" stroke="midnightblue" d="M1670.9,-392.41C1686.96,-384.24 1710.76,-371 1729,-356 1813.88,-286.19 1894.73,-180.88 1924.73,-140.03"/>
<polygon fill="midnightblue" stroke="midnightblue" points="1927.59,-142.06 1930.65,-131.91 1921.93,-137.94 1927.59,-142.06"/>
</g>
<!-- Node31&#45;&gt;Node4 -->
<g id="edge71" class="edge">
<title>Node31&#45;&gt;Node4</title>
<path fill="none" stroke="midnightblue" d="M1653.82,-392.28C1657.26,-350.09 1665.74,-166.85 1560,-112 1417.59,-38.13 920.4,-17.48 746.56,-12.45"/>
<polygon fill="midnightblue" stroke="midnightblue" points="746.66,-8.95 736.57,-12.17 746.46,-15.95 746.66,-8.95"/>
</g>
<!-- Node31&#45;&gt;Node5 -->
<g id="edge72" class="edge">
<title>Node31&#45;&gt;Node5</title>
<path fill="none" stroke="midnightblue" d="M1644.83,-392.38C1629.07,-374.81 1596,-332.94 1596,-291 1596,-291 1596,-291 1596,-233 1596,-157.57 1546.86,-140.44 1477,-112 1384.09,-74.17 664.02,-24.7 492.56,-13.38"/>
<polygon fill="midnightblue" stroke="midnightblue" points="492.73,-9.88 482.52,-12.72 492.27,-16.87 492.73,-9.88"/>
</g>
<!-- Node31&#45;&gt;Node6 -->
<g id="edge73" class="edge">
<title>Node31&#45;&gt;Node6</title>
<path fill="none" stroke="midnightblue" d="M1632.36,-392.39C1616.6,-384.88 1595.39,-372.57 1582,-356 1562.64,-332.05 1558,-321.8 1558,-291 1558,-291 1558,-291 1558,-233 1558,-186.11 1507.45,-152.89 1473.67,-135.93"/>
<polygon fill="midnightblue" stroke="midnightblue" points="1475.17,-132.77 1464.64,-131.58 1472.13,-139.07 1475.17,-132.77"/>
</g>
<!-- Node31&#45;&gt;Node7 -->
<g id="edge74" class="edge">
<title>Node31&#45;&gt;Node7</title>
<path fill="none" stroke="midnightblue" d="M1630.15,-392.46C1606.17,-383.48 1567.38,-368.88 1534,-356 1321.01,-273.85 1273.23,-238.19 1056,-168 1008.06,-152.51 951.43,-138.83 915.61,-130.73"/>
<polygon fill="midnightblue" stroke="midnightblue" points="916.16,-127.27 905.64,-128.5 914.63,-134.1 916.16,-127.27"/>
</g>
<!-- Node31&#45;&gt;Node8 -->
<g id="edge75" class="edge">
<title>Node31&#45;&gt;Node8</title>
<path fill="none" stroke="midnightblue" d="M1665.74,-392.49C1677.5,-384.19 1694.9,-370.7 1707,-356 1767.54,-282.44 1754.64,-245.54 1810,-168 1817.35,-157.7 1826.8,-147.19 1834.77,-138.92"/>
<polygon fill="midnightblue" stroke="midnightblue" points="1837.3,-141.33 1841.84,-131.76 1832.32,-136.42 1837.3,-141.33"/>
</g>
<!-- Node31&#45;&gt;Node9 -->
<g id="edge77" class="edge">
<title>Node31&#45;&gt;Node9</title>
<path fill="none" stroke="midnightblue" d="M1676.71,-392.43C1697.74,-384.37 1728.92,-371.28 1754,-356 1867.48,-286.87 1986.11,-178.76 2028.64,-138.66"/>
<polygon fill="midnightblue" stroke="midnightblue" points="2031.26,-140.99 2036.11,-131.57 2026.44,-135.92 2031.26,-140.99"/>
</g>
<!-- Node31&#45;&gt;Node11 -->
<g id="edge76" class="edge">
<title>Node31&#45;&gt;Node11</title>
<path fill="none" stroke="midnightblue" d="M1632.8,-392.46C1614.25,-384.24 1586.34,-370.88 1564,-356 1456.96,-284.7 1458.88,-225.84 1344,-168 1295.42,-143.54 1233.37,-132.19 1192.25,-127.04"/>
<polygon fill="midnightblue" stroke="midnightblue" points="1192.61,-123.56 1182.26,-125.87 1191.79,-130.51 1192.61,-123.56"/>
</g>
<!-- Node31&#45;&gt;Node12 -->
<g id="edge79" class="edge">
<title>Node31&#45;&gt;Node12</title>
<path fill="none" stroke="midnightblue" d="M1655.39,-392.24C1661.73,-368.56 1678.95,-301.22 1686,-244 1693.17,-185.73 1650.41,-154.41 1691,-112 1725.55,-75.9 2069.09,-68.75 2195.03,-67.34"/>
<polygon fill="midnightblue" stroke="midnightblue" points="2195.16,-70.84 2205.13,-67.24 2195.09,-63.84 2195.16,-70.84"/>
</g>
<!-- Node31&#45;&gt;Node20 -->
<g id="edge80" class="edge">
<title>Node31&#45;&gt;Node20</title>
<path fill="none" stroke="midnightblue" d="M1612.87,-404.95C1505.9,-411.08 1218.18,-433.89 1161,-504 1122.56,-551.13 1161.14,-629.01 1181.79,-663.56"/>
<polygon fill="midnightblue" stroke="midnightblue" points="1179.05,-665.79 1187.29,-672.45 1185.01,-662.11 1179.05,-665.79"/>
</g>
<!-- Node31&#45;&gt;Node23 -->
<g id="edge83" class="edge">
<title>Node31&#45;&gt;Node23</title>
<path fill="none" stroke="midnightblue" d="M1644.91,-411.61C1614.1,-438.44 1506.24,-520.78 1458.15,-554.44"/>
<polygon fill="midnightblue" stroke="midnightblue" points="1455.88,-551.75 1449.64,-560.31 1459.86,-557.51 1455.88,-551.75"/>
</g>
<!-- Node31&#45;&gt;Node25 -->
<g id="edge86" class="edge">
<title>Node31&#45;&gt;Node25</title>
<path fill="none" stroke="midnightblue" d="M1653,-411.59C1653,-429.31 1653,-470.25 1653,-494.35"/>
<polygon fill="midnightblue" stroke="midnightblue" points="1649.5,-494.37 1653,-504.37 1656.5,-494.37 1649.5,-494.37"/>
</g>
<!-- Node31&#45;&gt;Node26 -->
<g id="edge81" class="edge">
<title>Node31&#45;&gt;Node26</title>
<path fill="none" stroke="midnightblue" d="M1612.94,-393.77C1568.17,-385.49 1493.6,-371.1 1430,-356 1279.43,-320.24 1102.49,-268.97 1026.18,-246.4"/>
<polygon fill="midnightblue" stroke="midnightblue" points="1027.11,-243.02 1016.53,-243.54 1025.12,-249.73 1027.11,-243.02"/>
</g>
<!-- Node31&#45;&gt;Node28 -->
<g id="edge78" class="edge">
<title>Node31&#45;&gt;Node28</title>
<path fill="none" stroke="midnightblue" d="M1659.99,-392.32C1666.98,-383.46 1677.83,-369.17 1686,-356 1700.78,-332.18 1705.89,-326.51 1715,-300 1734.18,-244.2 1743.02,-174.47 1746.33,-141.68"/>
<polygon fill="midnightblue" stroke="midnightblue" points="1749.82,-141.99 1747.29,-131.7 1742.85,-141.32 1749.82,-141.99"/>
</g>
<!-- Node31&#45;&gt;Node29 -->
<g id="edge82" class="edge">
<title>Node31&#45;&gt;Node29</title>
<path fill="none" stroke="midnightblue" d="M1693.37,-395.64C1737.55,-389.09 1810.05,-376.3 1870,-356 2055.59,-293.14 2262.58,-176.5 2330.82,-136.71"/>
<polygon fill="midnightblue" stroke="midnightblue" points="2332.65,-139.7 2339.51,-131.62 2329.11,-133.66 2332.65,-139.7"/>
</g>
<!-- Node31&#45;&gt;Node30 -->
<g id="edge84" class="edge">
<title>Node31&#45;&gt;Node30</title>
<path fill="none" stroke="midnightblue" d="M1693.02,-406.07C1813.07,-415.73 2167.5,-445.41 2270.02,-454.4"/>
<polygon fill="midnightblue" stroke="midnightblue" points="2269.93,-457.9 2280.2,-455.29 2270.55,-450.93 2269.93,-457.9"/>
</g>
<!-- Node31&#45;&gt;Node32 -->
<g id="edge87" class="edge">
<title>Node31&#45;&gt;Node32</title>
<path fill="none" stroke="midnightblue" d="M1612.84,-400.48C1541.91,-398.66 1390.38,-390.64 1268,-356 1247.72,-350.26 1245.06,-342.46 1225,-336 1165.45,-316.83 1094.7,-304.71 1046.1,-297.94"/>
<polygon fill="midnightblue" stroke="midnightblue" points="1046.46,-294.45 1036.08,-296.57 1045.52,-301.39 1046.46,-294.45"/>
</g>
<!-- Node33 -->
<g id="node33" class="node">
<title>Node33</title>
<g id="a_node33"><a xlink:href="BC__Handlers_8h.html" target="_top" xlink:title=" ">
<polygon fill="none" stroke="black" points="2042,-336.5 2042,-355.5 2130,-355.5 2130,-336.5 2042,-336.5"/>
<text text-anchor="middle" x="2086" y="-343.5" font-family="Helvetica,sans-Serif" font-size="10.00">BC_Handlers.h</text>
</a>
</g>
</g>
<!-- Node31&#45;&gt;Node33 -->
<g id="edge96" class="edge">
<title>Node31&#45;&gt;Node33</title>
<path fill="none" stroke="midnightblue" d="M1693.01,-395.47C1771.08,-385.34 1943.39,-363.84 2031.68,-353.21"/>
<polygon fill="midnightblue" stroke="midnightblue" points="2032.25,-356.67 2041.76,-352 2031.41,-349.72 2032.25,-356.67"/>
</g>
<!-- Node34 -->
<g id="node34" class="node">
<title>Node34</title>
<g id="a_node34"><a xlink:href="wallfunction_8h.html" target="_top" xlink:title=" ">
<polygon fill="none" stroke="black" points="1130,-336.5 1130,-355.5 1216,-355.5 1216,-336.5 1130,-336.5"/>
<text text-anchor="middle" x="1173" y="-343.5" font-family="Helvetica,sans-Serif" font-size="10.00">wallfunction.h</text>
</a>
</g>
</g>
<!-- Node31&#45;&gt;Node34 -->
<g id="edge100" class="edge">
<title>Node31&#45;&gt;Node34</title>
<path fill="none" stroke="midnightblue" d="M1612.87,-397.87C1537.94,-391.41 1372.17,-375.68 1226.2,-356.66"/>
<polygon fill="midnightblue" stroke="midnightblue" points="1226.54,-353.18 1216.17,-355.35 1225.63,-360.12 1226.54,-353.18"/>
</g>
<!-- Node32&#45;&gt;Node4 -->
<g id="edge89" class="edge">
<title>Node32&#45;&gt;Node4</title>
<path fill="none" stroke="midnightblue" d="M960.83,-280.41C939.69,-272.9 910.3,-260.59 888,-244 800.73,-179.07 724.75,-70.44 697.11,-28.37"/>
<polygon fill="midnightblue" stroke="midnightblue" points="699.93,-26.29 691.54,-19.81 694.05,-30.1 699.93,-26.29"/>
</g>
<!-- Node32&#45;&gt;Node7 -->
<g id="edge92" class="edge">
<title>Node32&#45;&gt;Node7</title>
<path fill="none" stroke="midnightblue" d="M968.39,-280.48C938.88,-266.34 884.61,-234.88 867,-188 861.25,-172.7 865.88,-154.37 871.15,-141.08"/>
<polygon fill="midnightblue" stroke="midnightblue" points="874.47,-142.22 875.32,-131.66 868.07,-139.39 874.47,-142.22"/>
</g>
<!-- Node32&#45;&gt;Node11 -->
<g id="edge91" class="edge">
<title>Node32&#45;&gt;Node11</title>
<path fill="none" stroke="midnightblue" d="M1014.49,-280.44C1033.86,-273.15 1059.81,-261.12 1078,-244 1109.55,-214.31 1131.13,-167.2 1141.31,-141.39"/>
<polygon fill="midnightblue" stroke="midnightblue" points="1144.7,-142.34 1144.97,-131.75 1138.15,-139.86 1144.7,-142.34"/>
</g>
<!-- Node32&#45;&gt;Node12 -->
<g id="edge93" class="edge">
<title>Node32&#45;&gt;Node12</title>
<path fill="none" stroke="midnightblue" d="M1002.73,-280.22C1015.3,-272.12 1033.18,-259.09 1045,-244 1084.74,-193.27 1051.52,-147.95 1105,-112 1150.94,-81.12 1988.82,-69.8 2195.31,-67.48"/>
<polygon fill="midnightblue" stroke="midnightblue" points="2195.54,-70.98 2205.5,-67.36 2195.46,-63.98 2195.54,-70.98"/>
</g>
<!-- Node32&#45;&gt;Node21 -->
<g id="edge88" class="edge">
<title>Node32&#45;&gt;Node21</title>
<path fill="none" stroke="midnightblue" d="M947.94,-280.46C850.26,-259.64 601,-206.5 507.85,-186.64"/>
<polygon fill="midnightblue" stroke="midnightblue" points="508.55,-183.21 498.04,-184.55 507.1,-190.06 508.55,-183.21"/>
</g>
<!-- Node32&#45;&gt;Node22 -->
<g id="edge90" class="edge">
<title>Node32&#45;&gt;Node22</title>
<path fill="none" stroke="midnightblue" d="M973,-280.43C960.24,-272.46 942.26,-259.51 931,-244 920.85,-230.02 914.53,-211.27 910.95,-197.5"/>
<polygon fill="midnightblue" stroke="midnightblue" points="914.34,-196.64 908.63,-187.71 907.53,-198.25 914.34,-196.64"/>
</g>
<!-- Node32&#45;&gt;Node23 -->
<g id="edge94" class="edge">
<title>Node32&#45;&gt;Node23</title>
<path fill="none" stroke="midnightblue" d="M982.72,-299.77C972.27,-317.96 950,-361.4 950,-401 950,-459 950,-459 950,-459 950,-549.72 1276.85,-565.62 1393.91,-568.41"/>
<polygon fill="midnightblue" stroke="midnightblue" points="1393.85,-571.91 1403.92,-568.63 1394,-564.91 1393.85,-571.91"/>
</g>
<!-- Node32&#45;&gt;Node26 -->
<g id="edge95" class="edge">
<title>Node32&#45;&gt;Node26</title>
<path fill="none" stroke="midnightblue" d="M988,-280.08C988,-273.01 988,-262.86 988,-253.99"/>
<polygon fill="midnightblue" stroke="midnightblue" points="991.5,-253.75 988,-243.75 984.5,-253.75 991.5,-253.75"/>
</g>
<!-- Node33&#45;&gt;Node12 -->
<g id="edge97" class="edge">
<title>Node33&#45;&gt;Node12</title>
<path fill="none" stroke="midnightblue" d="M2091.46,-336.22C2109.31,-307.41 2167.22,-212.96 2210,-132 2218.3,-116.3 2226.93,-98.01 2232.97,-84.84"/>
<polygon fill="midnightblue" stroke="midnightblue" points="2236.25,-86.08 2237.21,-75.52 2229.88,-83.18 2236.25,-86.08"/>
</g>
<!-- Node33&#45;&gt;Node23 -->
<g id="edge99" class="edge">
<title>Node33&#45;&gt;Node23</title>
<path fill="none" stroke="midnightblue" d="M2084,-355.73C2078.32,-378.34 2059.9,-439.05 2020,-468 1932.34,-531.6 1594.36,-558.84 1476.13,-566.56"/>
<polygon fill="midnightblue" stroke="midnightblue" points="1475.79,-563.08 1466.03,-567.21 1476.24,-570.06 1475.79,-563.08"/>
</g>
<!-- Node33&#45;&gt;Node31 -->
<g id="edge98" class="edge">
<title>Node33&#45;&gt;Node31</title>
<path fill="none" stroke="midnightblue" d="M2041.72,-353.08C1960.48,-363.6 1788.46,-385.04 1703.09,-395.3"/>
<polygon fill="midnightblue" stroke="midnightblue" points="1702.63,-391.83 1693.12,-396.49 1703.46,-398.78 1702.63,-391.83"/>
</g>
<!-- Node34&#45;&gt;Node2 -->
<g id="edge116" class="edge">
<title>Node34&#45;&gt;Node2</title>
<path fill="none" stroke="midnightblue" d="M1129.99,-348.17C1025.65,-351.44 761.61,-362.46 679,-392 547.02,-439.19 418,-428.84 418,-569 418,-627 418,-627 418,-627 418,-723.55 1978.59,-735.41 2292.42,-736.82"/>
<polygon fill="midnightblue" stroke="midnightblue" points="2292.61,-740.32 2302.62,-736.86 2292.64,-733.32 2292.61,-740.32"/>
</g>
<!-- Node34&#45;&gt;Node3 -->
<g id="edge101" class="edge">
<title>Node34&#45;&gt;Node3</title>
<path fill="none" stroke="midnightblue" d="M1200.63,-336.48C1226.13,-328.27 1264.79,-314.92 1297,-300 1327.89,-285.7 1398.1,-235.89 1430,-224 1625.12,-151.26 1688.05,-174.89 1896.41,-132.05"/>
<polygon fill="midnightblue" stroke="midnightblue" points="1897.37,-135.43 1906.44,-129.96 1895.94,-128.58 1897.37,-135.43"/>
</g>
<!-- Node34&#45;&gt;Node4 -->
<g id="edge102" class="edge">
<title>Node34&#45;&gt;Node4</title>
<path fill="none" stroke="midnightblue" d="M1129.86,-343.34C1069.93,-339.99 958.71,-329.93 869,-300 762.04,-264.31 646,-291.76 646,-179 646,-179 646,-179 646,-121 646,-86.62 663.47,-49.63 675.32,-28.5"/>
<polygon fill="midnightblue" stroke="midnightblue" points="678.42,-30.13 680.44,-19.73 672.38,-26.61 678.42,-30.13"/>
</g>
<!-- Node34&#45;&gt;Node5 -->
<g id="edge103" class="edge">
<title>Node34&#45;&gt;Node5</title>
<path fill="none" stroke="midnightblue" d="M1129.75,-344.53C1055.75,-342.75 900.66,-334.77 775,-300 717.11,-283.98 701.66,-277.79 652,-244 562.81,-183.3 491.25,-71.28 465.9,-28.36"/>
<polygon fill="midnightblue" stroke="midnightblue" points="468.89,-26.53 460.83,-19.65 462.84,-30.05 468.89,-26.53"/>
</g>
<!-- Node34&#45;&gt;Node6 -->
<g id="edge104" class="edge">
<title>Node34&#45;&gt;Node6</title>
<path fill="none" stroke="midnightblue" d="M1129.97,-341.35C1069.26,-335.47 962.35,-322.28 931,-300 877.85,-262.24 822.73,-215.86 867,-168 885.52,-147.97 1287.95,-129.54 1409.52,-124.41"/>
<polygon fill="midnightblue" stroke="midnightblue" points="1409.9,-127.9 1419.74,-123.98 1409.61,-120.9 1409.9,-127.9"/>
</g>
<!-- Node34&#45;&gt;Node7 -->
<g id="edge105" class="edge">
<title>Node34&#45;&gt;Node7</title>
<path fill="none" stroke="midnightblue" d="M1129.96,-341.43C1063.49,-335.33 939.53,-321.45 901,-300 872.1,-283.91 863.63,-274.96 852,-244 838.66,-208.5 856.87,-164.67 869.57,-140.71"/>
<polygon fill="midnightblue" stroke="midnightblue" points="872.76,-142.18 874.57,-131.74 866.64,-138.77 872.76,-142.18"/>
</g>
<!-- Node34&#45;&gt;Node8 -->
<g id="edge106" class="edge">
<title>Node34&#45;&gt;Node8</title>
<path fill="none" stroke="midnightblue" d="M1191.56,-336.49C1210.31,-327.75 1239.99,-313.57 1265,-300 1322.82,-268.63 1334.21,-255.42 1392,-224 1416.8,-210.52 1478.94,-176.03 1506,-168 1630.77,-130.98 1670.26,-151.49 1803.65,-131.91"/>
<polygon fill="midnightblue" stroke="midnightblue" points="1804.48,-135.32 1813.84,-130.36 1803.43,-128.4 1804.48,-135.32"/>
</g>
<!-- Node34&#45;&gt;Node9 -->
<g id="edge108" class="edge">
<title>Node34&#45;&gt;Node9</title>
<path fill="none" stroke="midnightblue" d="M1203.56,-336.44C1235.06,-327.56 1285.57,-313.16 1329,-300 1357.12,-291.48 1363.72,-287.95 1392,-280 1615.14,-217.25 1885.49,-157.28 1995.18,-133.62"/>
<polygon fill="midnightblue" stroke="midnightblue" points="1995.93,-137.03 2004.97,-131.51 1994.46,-130.19 1995.93,-137.03"/>
</g>
<!-- Node34&#45;&gt;Node11 -->
<g id="edge107" class="edge">
<title>Node34&#45;&gt;Node11</title>
<path fill="none" stroke="midnightblue" d="M1172.02,-336.3C1168.34,-303.63 1155.3,-187.87 1150.13,-141.96"/>
<polygon fill="midnightblue" stroke="midnightblue" points="1153.6,-141.43 1149,-131.88 1146.64,-142.21 1153.6,-141.43"/>
</g>
<!-- Node34&#45;&gt;Node12 -->
<g id="edge110" class="edge">
<title>Node34&#45;&gt;Node12</title>
<path fill="none" stroke="midnightblue" d="M1178.98,-336.33C1190.79,-318.32 1216,-275.19 1216,-235 1216,-235 1216,-235 1216,-177 1216,-77.05 1996.41,-67.78 2195.31,-67.03"/>
<polygon fill="midnightblue" stroke="midnightblue" points="2195.43,-70.53 2205.42,-67 2195.41,-63.53 2195.43,-70.53"/>
</g>
<!-- Node34&#45;&gt;Node20 -->
<g id="edge111" class="edge">
<title>Node34&#45;&gt;Node20</title>
<path fill="none" stroke="midnightblue" d="M1129.87,-346.86C1004.01,-347.61 646,-358.39 646,-457 646,-571 646,-571 646,-571 646,-669.87 993.83,-681.01 1134.75,-681.46"/>
<polygon fill="midnightblue" stroke="midnightblue" points="1134.93,-684.96 1144.94,-681.47 1134.94,-677.96 1134.93,-684.96"/>
</g>
<!-- Node34&#45;&gt;Node23 -->
<g id="edge114" class="edge">
<title>Node34&#45;&gt;Node23</title>
<path fill="none" stroke="midnightblue" d="M1168.69,-355.67C1155.39,-383.83 1118.34,-473.76 1161,-524 1190.38,-558.6 1324.83,-566.65 1393.85,-568.48"/>
<polygon fill="midnightblue" stroke="midnightblue" points="1393.86,-571.98 1403.94,-568.72 1394.02,-564.99 1393.86,-571.98"/>
</g>
<!-- Node34&#45;&gt;Node25 -->
<g id="edge117" class="edge">
<title>Node34&#45;&gt;Node25</title>
<path fill="none" stroke="midnightblue" d="M1191.28,-355.63C1237.04,-377 1360.59,-433.13 1468,-468 1511.68,-482.18 1562.44,-494.22 1599.73,-502.27"/>
<polygon fill="midnightblue" stroke="midnightblue" points="1599.36,-505.77 1609.87,-504.44 1600.82,-498.93 1599.36,-505.77"/>
</g>
<!-- Node34&#45;&gt;Node26 -->
<g id="edge112" class="edge">
<title>Node34&#45;&gt;Node26</title>
<path fill="none" stroke="midnightblue" d="M1158.48,-336.37C1126.6,-317.41 1050.23,-272 1011.45,-248.94"/>
<polygon fill="midnightblue" stroke="midnightblue" points="1012.83,-245.69 1002.45,-243.59 1009.26,-251.71 1012.83,-245.69"/>
</g>
<!-- Node34&#45;&gt;Node28 -->
<g id="edge109" class="edge">
<title>Node34&#45;&gt;Node28</title>
<path fill="none" stroke="midnightblue" d="M1184.93,-336.21C1213.4,-315.42 1287.85,-262.13 1354,-224 1402.91,-195.81 1414.21,-185.11 1468,-168 1542.8,-144.21 1633.03,-132.6 1690.46,-127.22"/>
<polygon fill="midnightblue" stroke="midnightblue" points="1690.79,-130.71 1700.44,-126.32 1690.16,-123.73 1690.79,-130.71"/>
</g>
<!-- Node34&#45;&gt;Node29 -->
<g id="edge113" class="edge">
<title>Node34&#45;&gt;Node29</title>
<path fill="none" stroke="midnightblue" d="M1216.41,-339.06C1349.7,-320.51 1764.59,-260.6 2104,-188 2183.06,-171.09 2274.74,-145.76 2322.07,-132.26"/>
<polygon fill="midnightblue" stroke="midnightblue" points="2323.1,-135.61 2331.75,-129.49 2321.17,-128.88 2323.1,-135.61"/>
</g>
<!-- Node34&#45;&gt;Node30 -->
<g id="edge115" class="edge">
<title>Node34&#45;&gt;Node30</title>
<path fill="none" stroke="midnightblue" d="M1216.16,-355.18C1217.79,-355.46 1219.41,-355.73 1221,-356 1390.69,-384.3 1432.91,-393.98 1604,-412 1862.15,-439.2 2176.16,-452.45 2270.15,-456"/>
<polygon fill="midnightblue" stroke="midnightblue" points="2270.14,-459.5 2280.26,-456.38 2270.4,-452.51 2270.14,-459.5"/>
</g>
<!-- Node34&#45;&gt;Node31 -->
<g id="edge119" class="edge">
<title>Node34&#45;&gt;Node31</title>
<path fill="none" stroke="midnightblue" d="M1216.1,-352.71C1223.79,-353.87 1231.65,-355.03 1239,-356 1370.03,-373.3 1524.59,-388.41 1602.66,-395.93"/>
<polygon fill="midnightblue" stroke="midnightblue" points="1602.42,-399.42 1612.71,-396.9 1603.09,-392.45 1602.42,-399.42"/>
</g>
<!-- Node34&#45;&gt;Node32 -->
<g id="edge118" class="edge">
<title>Node34&#45;&gt;Node32</title>
<path fill="none" stroke="midnightblue" d="M1143.69,-336.44C1112.16,-327.24 1061.87,-312.56 1027.01,-302.39"/>
<polygon fill="midnightblue" stroke="midnightblue" points="1027.76,-298.96 1017.18,-299.52 1025.8,-305.68 1027.76,-298.96"/>
</g>
<!-- Node35&#45;&gt;Node5 -->
<g id="edge138" class="edge">
<title>Node35&#45;&gt;Node5</title>
<path fill="none" stroke="midnightblue" d="M1406.85,-624.69C1282.87,-623.11 784.93,-614.71 633,-580 409.79,-529 38,-246.94 38,-235 38,-235 38,-235 38,-121 38,-42.55 316.87,-18.87 419.05,-12.82"/>
<polygon fill="midnightblue" stroke="midnightblue" points="419.43,-16.31 429.22,-12.25 419.03,-9.32 419.43,-16.31"/>
</g>
<!-- Node35&#45;&gt;Node12 -->
<g id="edge136" class="edge">
<title>Node35&#45;&gt;Node12</title>
<path fill="none" stroke="midnightblue" d="M1463.21,-624.12C1575.92,-620.43 1994.14,-605.33 2124,-580 2356.99,-534.56 2436.78,-548.49 2631,-412 2686.94,-372.69 2726,-359.37 2726,-291 2726,-291 2726,-291 2726,-177 2726,-87.44 2407.5,-70.8 2286.71,-67.71"/>
<polygon fill="midnightblue" stroke="midnightblue" points="2286.74,-64.21 2276.66,-67.47 2286.58,-71.2 2286.74,-64.21"/>
</g>
<!-- Node35&#45;&gt;Node21 -->
<g id="edge135" class="edge">
<title>Node35&#45;&gt;Node21</title>
<path fill="none" stroke="midnightblue" d="M1406.87,-623.89C1259.89,-617.83 584.36,-586.7 518,-524 424.53,-435.68 454.68,-255.79 467.51,-197.6"/>
<polygon fill="midnightblue" stroke="midnightblue" points="470.96,-198.18 469.8,-187.65 464.14,-196.61 470.96,-198.18"/>
</g>
<!-- Node35&#45;&gt;Node23 -->
<g id="edge137" class="edge">
<title>Node35&#45;&gt;Node23</title>
<path fill="none" stroke="midnightblue" d="M1435,-616.08C1435,-609.01 1435,-598.86 1435,-589.99"/>
<polygon fill="midnightblue" stroke="midnightblue" points="1438.5,-589.75 1435,-579.75 1431.5,-589.75 1438.5,-589.75"/>
</g>
<!-- Node35&#45;&gt;Node27 -->
<g id="edge140" class="edge">
<title>Node35&#45;&gt;Node27</title>
<path fill="none" stroke="midnightblue" d="M1463,-624.94C1550.83,-624.34 1828.42,-619.22 2054,-580 2145.37,-564.11 2172.6,-566.56 2255,-524 2290.09,-505.88 2307.02,-503.66 2324,-468 2352.81,-407.52 2200.51,-264.3 2147,-224 2130.87,-211.85 2111.15,-200.5 2095.58,-192.24"/>
<polygon fill="midnightblue" stroke="midnightblue" points="2096.98,-189.02 2086.49,-187.52 2093.75,-195.23 2096.98,-189.02"/>
</g>
<!-- Node35&#45;&gt;Node30 -->
<g id="edge139" class="edge">
<title>Node35&#45;&gt;Node30</title>
<path fill="none" stroke="midnightblue" d="M1463.21,-623.65C1587.4,-617.38 2085.42,-588.59 2226,-524 2250.05,-512.95 2271.71,-490.97 2284.84,-475.65"/>
<polygon fill="midnightblue" stroke="midnightblue" points="2287.88,-477.46 2291.55,-467.52 2282.48,-473.01 2287.88,-477.46"/>
</g>
</g>
</svg>
