<?xml version="1.0" encoding="UTF-8" standalone="no"?>
<!DOCTYPE svg PUBLIC "-//W3C//DTD SVG 1.1//EN"
 "http://www.w3.org/Graphics/SVG/1.1/DTD/svg11.dtd">
<!-- Generated by graphviz version 2.43.0 (0)
 -->
<!-- Title: ReadSimulationFields Pages: 1 -->
<svg width="407pt" height="121pt"
 viewBox="0.00 0.00 407.00 121.20" xmlns="http://www.w3.org/2000/svg" xmlns:xlink="http://www.w3.org/1999/xlink">
<g id="graph0" class="graph" transform="scale(1 1) rotate(0) translate(4 117.2)">
<title>ReadSimulationFields</title>
<!-- Node1 -->
<g id="node1" class="node">
<title>Node1</title>
<g id="a_node1"><a xlink:title="Reads binary field data for velocity, pressure, and other required vectors.">
<polygon fill="#bfbfbf" stroke="black" points="0,-57.5 0,-76.5 122,-76.5 122,-57.5 0,-57.5"/>
<text text-anchor="middle" x="61" y="-64.5" font-family="Helvetica,sans-Serif" font-size="10.00">ReadSimulationFields</text>
</a>
</g>
</g>
<!-- Node2 -->
<g id="node2" class="node">
<title>Node2</title>
<g id="a_node2"><a xlink:href="io_8c.html#a570806d7e0694b5d996e0c6018b48908" target="_top" xlink:title="Reads data for a specific field from a file into the provided vector.">
<polygon fill="none" stroke="black" points="312,-57.5 312,-76.5 399,-76.5 399,-57.5 312,-57.5"/>
<text text-anchor="middle" x="355.5" y="-64.5" font-family="Helvetica,sans-Serif" font-size="10.00">ReadFieldData</text>
</a>
</g>
</g>
<!-- Node1&#45;&gt;Node2 -->
<g id="edge1" class="edge">
<title>Node1&#45;&gt;Node2</title>
<path fill="none" stroke="midnightblue" d="M80.14,-76.58C98.99,-85.96 129.65,-99.59 158,-105 209.52,-114.83 224.88,-116.72 276,-105 295.68,-100.49 316.15,-90.37 331.25,-81.71"/>
<polygon fill="midnightblue" stroke="midnightblue" points="333.1,-84.68 339.91,-76.56 329.52,-78.66 333.1,-84.68"/>
</g>
<!-- Node3 -->
<g id="node3" class="node">
<title>Node3</title>
<g id="a_node3"><a xlink:href="io_8c.html#a45ad89f26c78131d2990f09126abba4b" target="_top" xlink:title="Reads LES&#45;related fields.">
<polygon fill="none" stroke="black" points="174,-76.5 174,-95.5 260,-95.5 260,-76.5 174,-76.5"/>
<text text-anchor="middle" x="217" y="-83.5" font-family="Helvetica,sans-Serif" font-size="10.00">ReadLESFields</text>
</a>
</g>
</g>
<!-- Node1&#45;&gt;Node3 -->
<g id="edge2" class="edge">
<title>Node1&#45;&gt;Node3</title>
<path fill="none" stroke="midnightblue" d="M122.42,-74.45C136.12,-76.14 150.55,-77.93 163.88,-79.57"/>
<polygon fill="midnightblue" stroke="midnightblue" points="163.46,-83.04 173.81,-80.8 164.32,-76.1 163.46,-83.04"/>
</g>
<!-- Node4 -->
<g id="node4" class="node">
<title>Node4</title>
<g id="a_node4"><a xlink:href="io_8c.html#a19e2e0b57afae458bae068610141c031" target="_top" xlink:title="Reads RANS&#45;related fields.">
<polygon fill="none" stroke="black" points="169,-38.5 169,-57.5 265,-57.5 265,-38.5 169,-38.5"/>
<text text-anchor="middle" x="217" y="-45.5" font-family="Helvetica,sans-Serif" font-size="10.00">ReadRANSFields</text>
</a>
</g>
</g>
<!-- Node1&#45;&gt;Node4 -->
<g id="edge4" class="edge">
<title>Node1&#45;&gt;Node4</title>
<path fill="none" stroke="midnightblue" d="M122.42,-59.55C134.28,-58.08 146.7,-56.55 158.46,-55.1"/>
<polygon fill="midnightblue" stroke="midnightblue" points="159.11,-58.55 168.6,-53.85 158.25,-51.6 159.11,-58.55"/>
</g>
<!-- Node5 -->
<g id="node5" class="node">
<title>Node5</title>
<g id="a_node5"><a xlink:href="io_8c.html#a03f5b76975eea55434d764a23fd42623" target="_top" xlink:title="Reads statistical fields for averaging purposes.">
<polygon fill="none" stroke="black" points="158,-0.5 158,-19.5 276,-19.5 276,-0.5 158,-0.5"/>
<text text-anchor="middle" x="217" y="-7.5" font-family="Helvetica,sans-Serif" font-size="10.00">ReadStatisticalFields</text>
</a>
</g>
</g>
<!-- Node1&#45;&gt;Node5 -->
<g id="edge6" class="edge">
<title>Node1&#45;&gt;Node5</title>
<path fill="none" stroke="midnightblue" d="M85.13,-57.39C104.48,-49.46 132.88,-38.08 158,-29 163.75,-26.92 169.85,-24.82 175.85,-22.8"/>
<polygon fill="midnightblue" stroke="midnightblue" points="177.38,-25.98 185.78,-19.52 175.19,-19.34 177.38,-25.98"/>
</g>
<!-- Node3&#45;&gt;Node2 -->
<g id="edge3" class="edge">
<title>Node3&#45;&gt;Node2</title>
<path fill="none" stroke="midnightblue" d="M260.07,-80.14C273.18,-78.32 287.8,-76.28 301.56,-74.37"/>
<polygon fill="midnightblue" stroke="midnightblue" points="302.44,-77.78 311.86,-72.93 301.48,-70.85 302.44,-77.78"/>
</g>
<!-- Node4&#45;&gt;Node2 -->
<g id="edge5" class="edge">
<title>Node4&#45;&gt;Node2</title>
<path fill="none" stroke="midnightblue" d="M265.36,-54.59C277.15,-56.23 289.86,-58 301.89,-59.68"/>
<polygon fill="midnightblue" stroke="midnightblue" points="301.41,-63.14 311.79,-61.06 302.37,-56.21 301.41,-63.14"/>
</g>
<!-- Node5&#45;&gt;Node2 -->
<g id="edge7" class="edge">
<title>Node5&#45;&gt;Node2</title>
<path fill="none" stroke="midnightblue" d="M249.88,-19.59C258.45,-22.4 267.65,-25.63 276,-29 293.39,-36.02 312.33,-45.14 327.25,-52.69"/>
<polygon fill="midnightblue" stroke="midnightblue" points="325.92,-55.94 336.41,-57.39 329.11,-49.71 325.92,-55.94"/>
</g>
</g>
</svg>
