<?xml version="1.0" encoding="UTF-8" standalone="no"?>
<!DOCTYPE svg PUBLIC "-//W3C//DTD SVG 1.1//EN"
 "http://www.w3.org/Graphics/SVG/1.1/DTD/svg11.dtd">
<!-- Generated by graphviz version 2.43.0 (0)
 -->
<!-- Title: WriteFieldData Pages: 1 -->
<!--zoomable 142 -->
<svg id="main" version="1.1" xmlns="http://www.w3.org/2000/svg" xmlns:xlink="http://www.w3.org/1999/xlink" xml:space="preserve" onload="init(evt)">
<style type="text/css"><![CDATA[
.edge:hover path { stroke: red; }
.edge:hover polygon { stroke: red; fill: red; }
]]></style>
<script type="text/javascript"><![CDATA[
var edges = document.getElementsByTagName('g');
if (edges && edges.length) {
  for (var i=0;i<edges.length;i++) {
    if (edges[i].id.substr(0,4)=='edge') {
      edges[i].setAttribute('class','edge');
    }
  }
}
]]></script>
        <defs>
                <circle id="rim" cx="0" cy="0" r="7"/>
                <circle id="rim2" cx="0" cy="0" r="3.5"/>
                <g id="zoomPlus">
                        <use xlink:href="#rim" fill="#404040">
                                <set attributeName="fill" to="#808080" begin="zoomplus.mouseover" end="zoomplus.mouseout"/>
                        </use>
                        <path d="M-4,0h8M0,-4v8" fill="none" stroke="white" stroke-width="1.5" pointer-events="none"/>
                </g>
                <g id="zoomMin">
                        <use xlink:href="#rim" fill="#404040">
                                <set attributeName="fill" to="#808080" begin="zoomminus.mouseover" end="zoomminus.mouseout"/>
                        </use>
                        <path d="M-4,0h8" fill="none" stroke="white" stroke-width="1.5" pointer-events="none"/>
                </g>
                <g id="dirArrow">
                        <path fill="none" stroke="white" stroke-width="1.5" d="M0,-3.0v7 M-2.5,-0.5L0,-3.0L2.5,-0.5"/>
                </g>
               <g id="resetDef">
                       <use xlink:href="#rim2" fill="#404040">
                               <set attributeName="fill" to="#808080" begin="reset.mouseover" end="reset.mouseout"/>
                       </use>
               </g>
        </defs>

<script type="text/javascript">
var viewWidth = 635;
var viewHeight = 142;
var sectionId = 'dynsection-30';
</script>
<script xlink:href="svgpan.js"/>
<svg id="graph" class="graph">
<g id="viewport">
<title>WriteFieldData</title>
<!-- Node1 -->
<g id="node1" class="node">
<title>Node1</title>
<g id="a_node1"><a xlink:title="Writes data from a specific PETSc vector to a file.">
<polygon fill="#bfbfbf" stroke="black" points="538,-38.5 538,-57.5 627,-57.5 627,-38.5 538,-38.5"/>
<text text-anchor="middle" x="582.5" y="-45.5" font-family="Helvetica,sans-Serif" font-size="10.00">WriteFieldData</text>
</a>
</g>
</g>
<!-- Node2 -->
<g id="node2" class="node">
<title>Node2</title>
<g id="a_node2"><a xlink:href="io_8c.html#aa7fe2d107007076b401d19ba9145a354" target="_top" xlink:title="Writes LES&#45;related fields.">
<polygon fill="none" stroke="black" points="398.5,-114.5 398.5,-133.5 486.5,-133.5 486.5,-114.5 398.5,-114.5"/>
<text text-anchor="middle" x="442.5" y="-121.5" font-family="Helvetica,sans-Serif" font-size="10.00">WriteLESFields</text>
</a>
</g>
</g>
<!-- Node1&#45;&gt;Node2 -->
<g id="edge1" class="edge">
<title>Node1&#45;&gt;Node2</title>
<path fill="none" stroke="midnightblue" d="M562.59,-64.12C547.13,-76.66 524.25,-93.75 502,-105 494.76,-108.66 486.66,-111.82 478.85,-114.46"/>
<polygon fill="midnightblue" stroke="midnightblue" points="564.89,-66.76 570.37,-57.69 560.43,-61.37 564.89,-66.76"/>
</g>
<!-- Node3 -->
<g id="node3" class="node">
<title>Node3</title>
<g id="a_node3"><a xlink:href="io_8c.html#a6228caf497c8e6134362aab6ba62828c" target="_top" xlink:title="Writes simulation fields to files.">
<polygon fill="none" stroke="black" points="224,-38.5 224,-57.5 347,-57.5 347,-38.5 224,-38.5"/>
<text text-anchor="middle" x="285.5" y="-45.5" font-family="Helvetica,sans-Serif" font-size="10.00">WriteSimulationFields</text>
</a>
</g>
</g>
<!-- Node1&#45;&gt;Node3 -->
<g id="edge9" class="edge">
<title>Node1&#45;&gt;Node3</title>
<path fill="none" stroke="midnightblue" d="M539.54,-36.03C527.52,-33.13 514.33,-30.45 502,-29 449.47,-22.81 435.64,-23.87 383,-29 363.97,-30.86 343.12,-34.72 325.68,-38.49"/>
<polygon fill="midnightblue" stroke="midnightblue" points="538.77,-39.44 549.32,-38.49 540.48,-32.66 538.77,-39.44"/>
</g>
<!-- Node7 -->
<g id="node7" class="node">
<title>Node7</title>
<g id="a_node7"><a xlink:href="io_8c.html#a87768b32e2f93a36633fe104cebcdfe8" target="_top" xlink:title="Writes RANS&#45;related fields.">
<polygon fill="none" stroke="black" points="393.5,-76.5 393.5,-95.5 491.5,-95.5 491.5,-76.5 393.5,-76.5"/>
<text text-anchor="middle" x="442.5" y="-83.5" font-family="Helvetica,sans-Serif" font-size="10.00">WriteRANSFields</text>
</a>
</g>
</g>
<!-- Node1&#45;&gt;Node7 -->
<g id="edge7" class="edge">
<title>Node1&#45;&gt;Node7</title>
<path fill="none" stroke="midnightblue" d="M537.03,-60.25C518.01,-65.48 496.12,-71.51 478.31,-76.41"/>
<polygon fill="midnightblue" stroke="midnightblue" points="537.96,-63.62 546.68,-57.59 536.11,-56.87 537.96,-63.62"/>
</g>
<!-- Node8 -->
<g id="node8" class="node">
<title>Node8</title>
<g id="a_node8"><a xlink:href="io_8c.html#a3515d51bdd91f00faf8e5023bc82534b" target="_top" xlink:title="Writes statistical fields for averaging purposes.">
<polygon fill="none" stroke="black" points="383,-38.5 383,-57.5 502,-57.5 502,-38.5 383,-38.5"/>
<text text-anchor="middle" x="442.5" y="-45.5" font-family="Helvetica,sans-Serif" font-size="10.00">WriteStatisticalFields</text>
</a>
</g>
</g>
<!-- Node1&#45;&gt;Node8 -->
<g id="edge10" class="edge">
<title>Node1&#45;&gt;Node8</title>
<path fill="none" stroke="midnightblue" d="M527.74,-48C519.31,-48 510.56,-48 502.02,-48"/>
<polygon fill="midnightblue" stroke="midnightblue" points="527.84,-51.5 537.84,-48 527.84,-44.5 527.84,-51.5"/>
</g>
<!-- Node9 -->
<g id="node9" class="node">
<title>Node9</title>
<g id="a_node9"><a xlink:href="io_8c.html#a2c3ac50e182d193208800c89201ff236" target="_top" xlink:title="Writes data from a specific field in a PETSc Swarm to a file.">
<polygon fill="none" stroke="black" points="236,-0.5 236,-19.5 335,-19.5 335,-0.5 236,-0.5"/>
<text text-anchor="middle" x="285.5" y="-7.5" font-family="Helvetica,sans-Serif" font-size="10.00">WriteSwarmField</text>
</a>
</g>
</g>
<!-- Node1&#45;&gt;Node9 -->
<g id="edge12" class="edge">
<title>Node1&#45;&gt;Node9</title>
<path fill="none" stroke="midnightblue" d="M550.27,-34.62C535.85,-29.07 518.34,-23.18 502,-20 445.57,-9 379.33,-7.6 335.34,-8.24"/>
<polygon fill="midnightblue" stroke="midnightblue" points="549.12,-37.93 559.71,-38.38 551.71,-31.43 549.12,-37.93"/>
</g>
<!-- Node2&#45;&gt;Node3 -->
<g id="edge2" class="edge">
<title>Node2&#45;&gt;Node3</title>
<path fill="none" stroke="midnightblue" d="M398.08,-111.08C392.93,-109.21 387.8,-107.17 383,-105 352.14,-91.08 318.65,-69.75 300.36,-57.51"/>
<polygon fill="midnightblue" stroke="midnightblue" points="397.32,-114.53 407.92,-114.49 399.61,-107.91 397.32,-114.53"/>
</g>
<!-- Node4 -->
<g id="node4" class="node">
<title>Node4</title>
<g id="a_node4"><a xlink:href="simulation_8c.html#a5cfb2f783604af7f20171d19f969d5d3" target="_top" xlink:title="Executes the main time&#45;marching loop for the coupled Euler&#45;Lagrange simulation.">
<polygon fill="none" stroke="black" points="77,-38.5 77,-57.5 188,-57.5 188,-38.5 77,-38.5"/>
<text text-anchor="middle" x="132.5" y="-45.5" font-family="Helvetica,sans-Serif" font-size="10.00">AdvanceSimulation</text>
</a>
</g>
</g>
<!-- Node3&#45;&gt;Node4 -->
<g id="edge3" class="edge">
<title>Node3&#45;&gt;Node4</title>
<path fill="none" stroke="midnightblue" d="M213.89,-48C205.26,-48 196.55,-48 188.2,-48"/>
<polygon fill="midnightblue" stroke="midnightblue" points="213.95,-51.5 223.95,-48 213.95,-44.5 213.95,-51.5"/>
</g>
<!-- Node6 -->
<g id="node6" class="node">
<title>Node6</title>
<g id="a_node6"><a xlink:href="simulation_8c.html#a4e2cad25ac1fbdc6745d6fd8fcc1bbc1" target="_top" xlink:title="Finalizes the simulation setup at t=0, ensuring a consistent state before time marching.">
<polygon fill="none" stroke="black" points="77,-0.5 77,-19.5 188,-19.5 188,-0.5 77,-0.5"/>
<text text-anchor="middle" x="132.5" y="-7.5" font-family="Helvetica,sans-Serif" font-size="10.00">PerformInitialSetup</text>
</a>
</g>
</g>
<!-- Node3&#45;&gt;Node6 -->
<g id="edge5" class="edge">
<title>Node3&#45;&gt;Node6</title>
<path fill="none" stroke="midnightblue" d="M236.66,-35.96C215.56,-30.65 191.12,-24.5 171.33,-19.52"/>
<polygon fill="midnightblue" stroke="midnightblue" points="235.84,-39.36 246.4,-38.41 237.55,-32.58 235.84,-39.36"/>
</g>
<!-- Node5 -->
<g id="node5" class="node">
<title>Node5</title>
<g id="a_node5"><a xlink:href="picsolver_8c.html#a3c04138a5bfe5d72780bb7e82a18e627" target="_top" xlink:title=" ">
<polygon fill="none" stroke="black" points="0,-19.5 0,-38.5 41,-38.5 41,-19.5 0,-19.5"/>
<text text-anchor="middle" x="20.5" y="-26.5" font-family="Helvetica,sans-Serif" font-size="10.00">main</text>
</a>
</g>
</g>
<!-- Node4&#45;&gt;Node5 -->
<g id="edge4" class="edge">
<title>Node4&#45;&gt;Node5</title>
<path fill="none" stroke="midnightblue" d="M66.94,-36.85C57.54,-35.23 48.53,-33.67 41.05,-32.38"/>
<polygon fill="midnightblue" stroke="midnightblue" points="66.37,-40.3 76.82,-38.56 67.56,-33.4 66.37,-40.3"/>
</g>
<!-- Node6&#45;&gt;Node5 -->
<g id="edge6" class="edge">
<title>Node6&#45;&gt;Node5</title>
<path fill="none" stroke="midnightblue" d="M66.94,-21.15C57.54,-22.77 48.53,-24.33 41.05,-25.62"/>
<polygon fill="midnightblue" stroke="midnightblue" points="67.56,-24.6 76.82,-19.44 66.37,-17.7 67.56,-24.6"/>
</g>
<!-- Node7&#45;&gt;Node3 -->
<g id="edge8" class="edge">
<title>Node7&#45;&gt;Node3</title>
<path fill="none" stroke="midnightblue" d="M392.39,-73.96C370.74,-68.65 345.65,-62.5 325.33,-57.52"/>
<polygon fill="midnightblue" stroke="midnightblue" points="391.84,-77.43 402.39,-76.41 393.51,-70.63 391.84,-77.43"/>
</g>
<!-- Node8&#45;&gt;Node3 -->
<g id="edge11" class="edge">
<title>Node8&#45;&gt;Node3</title>
<path fill="none" stroke="midnightblue" d="M372.67,-48C364.2,-48 355.58,-48 347.25,-48"/>
<polygon fill="midnightblue" stroke="midnightblue" points="372.9,-51.5 382.9,-48 372.9,-44.5 372.9,-51.5"/>
</g>
<!-- Node9&#45;&gt;Node4 -->
<g id="edge13" class="edge">
<title>Node9&#45;&gt;Node4</title>
<path fill="none" stroke="midnightblue" d="M236.66,-22.04C215.56,-27.35 191.12,-33.5 171.33,-38.48"/>
<polygon fill="midnightblue" stroke="midnightblue" points="237.55,-25.42 246.4,-19.59 235.84,-18.64 237.55,-25.42"/>
</g>
<!-- Node9&#45;&gt;Node6 -->
<g id="edge14" class="edge">
<title>Node9&#45;&gt;Node6</title>
<path fill="none" stroke="midnightblue" d="M225.67,-10C213.28,-10 200.26,-10 188.04,-10"/>
<polygon fill="midnightblue" stroke="midnightblue" points="225.89,-13.5 235.89,-10 225.89,-6.5 225.89,-13.5"/>
</g>
</g>
</svg>
        <g id="navigator" transform="translate(0 0)" fill="#404254">
                <rect fill="#f2f5e9" fill-opacity="0.5" stroke="#606060" stroke-width=".5" x="0" y="0" width="60" height="60"/>
                <use id="zoomplus" xlink:href="#zoomPlus" x="17" y="9" onmousedown="handleZoom(evt,'in')"/>
                <use id="zoomminus" xlink:href="#zoomMin" x="42" y="9" onmousedown="handleZoom(evt,'out')"/>
                <use id="reset" xlink:href="#resetDef" x="30" y="36" onmousedown="handleReset()"/>
                <g id="arrowUp" xlink:href="#dirArrow" transform="translate(30 24)" onmousedown="handlePan(0,-1)">
                  <use xlink:href="#rim" fill="#404040">
                        <set attributeName="fill" to="#808080" begin="arrowUp.mouseover" end="arrowUp.mouseout"/>
                  </use>
                  <path fill="none" stroke="white" stroke-width="1.5" d="M0,-3.0v7 M-2.5,-0.5L0,-3.0L2.5,-0.5"/>
                </g>
                <g id="arrowRight" xlink:href="#dirArrow" transform="rotate(90) translate(36 -43)" onmousedown="handlePan(1,0)">
                  <use xlink:href="#rim" fill="#404040">
                        <set attributeName="fill" to="#808080" begin="arrowRight.mouseover" end="arrowRight.mouseout"/>
                  </use>
                  <path fill="none" stroke="white" stroke-width="1.5" d="M0,-3.0v7 M-2.5,-0.5L0,-3.0L2.5,-0.5"/>
                </g>
                <g id="arrowDown" xlink:href="#dirArrow" transform="rotate(180) translate(-30 -48)" onmousedown="handlePan(0,1)">
                  <use xlink:href="#rim" fill="#404040">
                        <set attributeName="fill" to="#808080" begin="arrowDown.mouseover" end="arrowDown.mouseout"/>
                  </use>
                  <path fill="none" stroke="white" stroke-width="1.5" d="M0,-3.0v7 M-2.5,-0.5L0,-3.0L2.5,-0.5"/>
                </g>
                <g id="arrowLeft" xlink:href="#dirArrow" transform="rotate(270) translate(-36 17)" onmousedown="handlePan(-1,0)">
                  <use xlink:href="#rim" fill="#404040">
                        <set attributeName="fill" to="#808080" begin="arrowLeft.mouseover" end="arrowLeft.mouseout"/>
                  </use>
                  <path fill="none" stroke="white" stroke-width="1.5" d="M0,-3.0v7 M-2.5,-0.5L0,-3.0L2.5,-0.5"/>
                </g>
        </g>
        <svg viewBox="0 0 15 15" width="100%" height="30px" preserveAspectRatio="xMaxYMin meet">
         <g id="arrow_out" transform="scale(0.3 0.3)">
          <a xlink:href="io_8c_a3f37cf6ed1f13d0656740b8cff2b4ed8_icgraph_org.svg" target="_base">
           <rect id="button" ry="5" rx="5" y="6" x="6" height="38" width="38"
                fill="#f2f5e9" fill-opacity="0.5" stroke="#606060" stroke-width="1.0"/>
           <path id="arrow"
             d="M 11.500037,31.436501 C 11.940474,20.09759 22.043105,11.32322 32.158766,21.979434 L 37.068811,17.246167 C 37.068811,17.246167 37.088388,32 37.088388,32 L 22.160133,31.978069 C 22.160133,31.978069 26.997745,27.140456 26.997745,27.140456 C 18.528582,18.264221 13.291696,25.230495 11.500037,31.436501 z"
             style="fill:#404040;"/>
          </a>
         </g>
        </svg>
</svg>
