<?xml version="1.0" encoding="UTF-8" standalone="no"?>
<!DOCTYPE svg PUBLIC "-//W3C//DTD SVG 1.1//EN"
 "http://www.w3.org/Graphics/SVG/1.1/DTD/svg11.dtd">
<!-- Generated by graphviz version 2.43.0 (0)
 -->
<!-- Title: WriteVTSXMLHeader Pages: 1 -->
<svg width="468pt" height="28pt"
 viewBox="0.00 0.00 468.00 28.00" xmlns="http://www.w3.org/2000/svg" xmlns:xlink="http://www.w3.org/1999/xlink">
<g id="graph0" class="graph" transform="scale(1 1) rotate(0) translate(4 24)">
<title>WriteVTSXMLHeader</title>
<!-- Node1 -->
<g id="node1" class="node">
<title>Node1</title>
<g id="a_node1"><a xlink:title="Writes the XML header portion of a .vts file, defining the structured grid extents and data arrays.">
<polygon fill="#bfbfbf" stroke="black" points="342,-0.5 342,-19.5 460,-19.5 460,-0.5 342,-0.5"/>
<text text-anchor="middle" x="401" y="-7.5" font-family="Helvetica,sans-Serif" font-size="10.00">WriteVTSXMLHeader</text>
</a>
</g>
</g>
<!-- Node2 -->
<g id="node2" class="node">
<title>Node2</title>
<g id="a_node2"><a xlink:href="io_8c.html#abeb59f67fa68fabd9854709774dee119" target="_top" xlink:title="Writes the initial XML header for a VTK file based on the provided metadata.">
<polygon fill="none" stroke="black" points="192,-0.5 192,-19.5 306,-19.5 306,-0.5 192,-0.5"/>
<text text-anchor="middle" x="249" y="-7.5" font-family="Helvetica,sans-Serif" font-size="10.00">WriteVTKFileHeader</text>
</a>
</g>
</g>
<!-- Node1&#45;&gt;Node2 -->
<g id="edge1" class="edge">
<title>Node1&#45;&gt;Node2</title>
<path fill="none" stroke="midnightblue" d="M331.33,-10C322.87,-10 314.3,-10 306.05,-10"/>
<polygon fill="midnightblue" stroke="midnightblue" points="331.58,-13.5 341.58,-10 331.58,-6.5 331.58,-13.5"/>
</g>
<!-- Node3 -->
<g id="node3" class="node">
<title>Node3</title>
<g id="a_node3"><a xlink:href="io_8c.html#ad4eeaada0c8227f332499bf5fc4d3bc0" target="_top" xlink:title="Creates and writes a VTK file (either .vts or .vtp) based on the provided metadata.">
<polygon fill="none" stroke="black" points="0,-0.5 0,-19.5 156,-19.5 156,-0.5 0,-0.5"/>
<text text-anchor="middle" x="78" y="-7.5" font-family="Helvetica,sans-Serif" font-size="10.00">CreateVTKFileFromMetadata</text>
</a>
</g>
</g>
<!-- Node2&#45;&gt;Node3 -->
<g id="edge2" class="edge">
<title>Node2&#45;&gt;Node3</title>
<path fill="none" stroke="midnightblue" d="M181.65,-10C173.26,-10 164.63,-10 156.09,-10"/>
<polygon fill="midnightblue" stroke="midnightblue" points="181.73,-13.5 191.73,-10 181.73,-6.5 181.73,-13.5"/>
</g>
</g>
</svg>
