<?xml version="1.0" encoding="UTF-8" standalone="no"?>
<!DOCTYPE svg PUBLIC "-//W3C//DTD SVG 1.1//EN"
 "http://www.w3.org/Graphics/SVG/1.1/DTD/svg11.dtd">
<!-- Generated by graphviz version 2.43.0 (0)
 -->
<!-- Title: WriteSimulationFields Pages: 1 -->
<svg width="411pt" height="121pt"
 viewBox="0.00 0.00 411.00 121.20" xmlns="http://www.w3.org/2000/svg" xmlns:xlink="http://www.w3.org/1999/xlink">
<g id="graph0" class="graph" transform="scale(1 1) rotate(0) translate(4 117.2)">
<title>WriteSimulationFields</title>
<!-- Node1 -->
<g id="node1" class="node">
<title>Node1</title>
<g id="a_node1"><a xlink:title="Writes simulation fields to files.">
<polygon fill="#bfbfbf" stroke="black" points="0,-57.5 0,-76.5 123,-76.5 123,-57.5 0,-57.5"/>
<text text-anchor="middle" x="61.5" y="-64.5" font-family="Helvetica,sans-Serif" font-size="10.00">WriteSimulationFields</text>
</a>
</g>
</g>
<!-- Node2 -->
<g id="node2" class="node">
<title>Node2</title>
<g id="a_node2"><a xlink:href="io_8c.html#a3f37cf6ed1f13d0656740b8cff2b4ed8" target="_top" xlink:title="Writes data from a specific PETSc vector to a file.">
<polygon fill="none" stroke="black" points="314,-57.5 314,-76.5 403,-76.5 403,-57.5 314,-57.5"/>
<text text-anchor="middle" x="358.5" y="-64.5" font-family="Helvetica,sans-Serif" font-size="10.00">WriteFieldData</text>
</a>
</g>
</g>
<!-- Node1&#45;&gt;Node2 -->
<g id="edge1" class="edge">
<title>Node1&#45;&gt;Node2</title>
<path fill="none" stroke="midnightblue" d="M80.74,-76.58C99.69,-85.96 130.52,-99.59 159,-105 210.96,-114.86 226.42,-116.69 278,-105 297.89,-100.49 318.63,-90.37 333.93,-81.71"/>
<polygon fill="midnightblue" stroke="midnightblue" points="335.85,-84.64 342.7,-76.57 332.31,-78.6 335.85,-84.64"/>
</g>
<!-- Node3 -->
<g id="node3" class="node">
<title>Node3</title>
<g id="a_node3"><a xlink:href="io_8c.html#aa7fe2d107007076b401d19ba9145a354" target="_top" xlink:title="Writes LES&#45;related fields.">
<polygon fill="none" stroke="black" points="174.5,-76.5 174.5,-95.5 262.5,-95.5 262.5,-76.5 174.5,-76.5"/>
<text text-anchor="middle" x="218.5" y="-83.5" font-family="Helvetica,sans-Serif" font-size="10.00">WriteLESFields</text>
</a>
</g>
</g>
<!-- Node1&#45;&gt;Node3 -->
<g id="edge2" class="edge">
<title>Node1&#45;&gt;Node3</title>
<path fill="none" stroke="midnightblue" d="M123.32,-74.45C136.7,-76.1 150.78,-77.82 163.86,-79.42"/>
<polygon fill="midnightblue" stroke="midnightblue" points="163.75,-82.94 174.1,-80.68 164.6,-75.99 163.75,-82.94"/>
</g>
<!-- Node4 -->
<g id="node4" class="node">
<title>Node4</title>
<g id="a_node4"><a xlink:href="io_8c.html#a87768b32e2f93a36633fe104cebcdfe8" target="_top" xlink:title="Writes RANS&#45;related fields.">
<polygon fill="none" stroke="black" points="169.5,-38.5 169.5,-57.5 267.5,-57.5 267.5,-38.5 169.5,-38.5"/>
<text text-anchor="middle" x="218.5" y="-45.5" font-family="Helvetica,sans-Serif" font-size="10.00">WriteRANSFields</text>
</a>
</g>
</g>
<!-- Node1&#45;&gt;Node4 -->
<g id="edge4" class="edge">
<title>Node1&#45;&gt;Node4</title>
<path fill="none" stroke="midnightblue" d="M123.32,-59.55C135.12,-58.1 147.47,-56.58 159.2,-55.15"/>
<polygon fill="midnightblue" stroke="midnightblue" points="159.81,-58.6 169.31,-53.91 158.96,-51.65 159.81,-58.6"/>
</g>
<!-- Node5 -->
<g id="node5" class="node">
<title>Node5</title>
<g id="a_node5"><a xlink:href="io_8c.html#a3515d51bdd91f00faf8e5023bc82534b" target="_top" xlink:title="Writes statistical fields for averaging purposes.">
<polygon fill="none" stroke="black" points="159,-0.5 159,-19.5 278,-19.5 278,-0.5 159,-0.5"/>
<text text-anchor="middle" x="218.5" y="-7.5" font-family="Helvetica,sans-Serif" font-size="10.00">WriteStatisticalFields</text>
</a>
</g>
</g>
<!-- Node1&#45;&gt;Node5 -->
<g id="edge6" class="edge">
<title>Node1&#45;&gt;Node5</title>
<path fill="none" stroke="midnightblue" d="M85.75,-57.38C105.2,-49.45 133.75,-38.06 159,-29 164.94,-26.87 171.25,-24.71 177.44,-22.65"/>
<polygon fill="midnightblue" stroke="midnightblue" points="178.61,-25.95 187.02,-19.51 176.42,-19.3 178.61,-25.95"/>
</g>
<!-- Node3&#45;&gt;Node2 -->
<g id="edge3" class="edge">
<title>Node3&#45;&gt;Node2</title>
<path fill="none" stroke="midnightblue" d="M262.79,-80.04C275.76,-78.25 290.15,-76.27 303.72,-74.4"/>
<polygon fill="midnightblue" stroke="midnightblue" points="304.46,-77.84 313.89,-73 303.51,-70.9 304.46,-77.84"/>
</g>
<!-- Node4&#45;&gt;Node2 -->
<g id="edge5" class="edge">
<title>Node4&#45;&gt;Node2</title>
<path fill="none" stroke="midnightblue" d="M267.77,-54.65C279.31,-56.23 291.7,-57.94 303.49,-59.56"/>
<polygon fill="midnightblue" stroke="midnightblue" points="303.26,-63.07 313.65,-60.96 304.22,-56.13 303.26,-63.07"/>
</g>
<!-- Node5&#45;&gt;Node2 -->
<g id="edge7" class="edge">
<title>Node5&#45;&gt;Node2</title>
<path fill="none" stroke="midnightblue" d="M251.35,-19.5C260.07,-22.33 269.47,-25.59 278,-29 295.6,-36.03 314.78,-45.15 329.89,-52.7"/>
<polygon fill="midnightblue" stroke="midnightblue" points="328.67,-56 339.18,-57.39 331.83,-49.76 328.67,-56"/>
</g>
</g>
</svg>
