<?xml version="1.0" encoding="UTF-8" standalone="no"?>
<!DOCTYPE svg PUBLIC "-//W3C//DTD SVG 1.1//EN"
 "http://www.w3.org/Graphics/SVG/1.1/DTD/svg11.dtd">
<!-- Generated by graphviz version 2.43.0 (0)
 -->
<!-- Title: WriteVTKFileHeader Pages: 1 -->
<svg width="276pt" height="66pt"
 viewBox="0.00 0.00 276.00 66.00" xmlns="http://www.w3.org/2000/svg" xmlns:xlink="http://www.w3.org/1999/xlink">
<g id="graph0" class="graph" transform="scale(1 1) rotate(0) translate(4 62)">
<title>WriteVTKFileHeader</title>
<!-- Node1 -->
<g id="node1" class="node">
<title>Node1</title>
<g id="a_node1"><a xlink:title="Writes the initial XML header for a VTK file based on the provided metadata.">
<polygon fill="#bfbfbf" stroke="black" points="0,-19.5 0,-38.5 114,-38.5 114,-19.5 0,-19.5"/>
<text text-anchor="middle" x="57" y="-26.5" font-family="Helvetica,sans-Serif" font-size="10.00">WriteVTKFileHeader</text>
</a>
</g>
</g>
<!-- Node2 -->
<g id="node2" class="node">
<title>Node2</title>
<g id="a_node2"><a xlink:href="io_8c.html#adc8540405ef08976e1bae9cbb5700545" target="_top" xlink:title="Writes the XML header portion of a .vtp file for a point&#45;cloud representation.">
<polygon fill="none" stroke="black" points="150,-38.5 150,-57.5 268,-57.5 268,-38.5 150,-38.5"/>
<text text-anchor="middle" x="209" y="-45.5" font-family="Helvetica,sans-Serif" font-size="10.00">WriteVTPXMLHeader</text>
</a>
</g>
</g>
<!-- Node1&#45;&gt;Node2 -->
<g id="edge1" class="edge">
<title>Node1&#45;&gt;Node2</title>
<path fill="none" stroke="midnightblue" d="M114.28,-36.13C122.65,-37.19 131.34,-38.29 139.92,-39.38"/>
<polygon fill="midnightblue" stroke="midnightblue" points="139.54,-42.86 149.9,-40.64 140.42,-35.91 139.54,-42.86"/>
</g>
<!-- Node3 -->
<g id="node3" class="node">
<title>Node3</title>
<g id="a_node3"><a xlink:href="io_8c.html#a8d20a414e822ac30150e6be7b6d780b2" target="_top" xlink:title="Writes the XML header portion of a .vts file, defining the structured grid extents and data arrays.">
<polygon fill="none" stroke="black" points="150,-0.5 150,-19.5 268,-19.5 268,-0.5 150,-0.5"/>
<text text-anchor="middle" x="209" y="-7.5" font-family="Helvetica,sans-Serif" font-size="10.00">WriteVTSXMLHeader</text>
</a>
</g>
</g>
<!-- Node1&#45;&gt;Node3 -->
<g id="edge2" class="edge">
<title>Node1&#45;&gt;Node3</title>
<path fill="none" stroke="midnightblue" d="M114.28,-21.87C122.65,-20.81 131.34,-19.71 139.92,-18.62"/>
<polygon fill="midnightblue" stroke="midnightblue" points="140.42,-22.09 149.9,-17.36 139.54,-15.14 140.42,-22.09"/>
</g>
</g>
</svg>
