<?xml version="1.0" encoding="UTF-8" standalone="no"?>
<!DOCTYPE svg PUBLIC "-//W3C//DTD SVG 1.1//EN"
 "http://www.w3.org/Graphics/SVG/1.1/DTD/svg11.dtd">
<!-- Generated by graphviz version 2.43.0 (0)
 -->
<!-- Title: ReadFieldData Pages: 1 -->
<!--zoomable 256 -->
<svg id="main" version="1.1" xmlns="http://www.w3.org/2000/svg" xmlns:xlink="http://www.w3.org/1999/xlink" xml:space="preserve" onload="init(evt)">
<style type="text/css"><![CDATA[
.edge:hover path { stroke: red; }
.edge:hover polygon { stroke: red; fill: red; }
]]></style>
<script type="text/javascript"><![CDATA[
var edges = document.getElementsByTagName('g');
if (edges && edges.length) {
  for (var i=0;i<edges.length;i++) {
    if (edges[i].id.substr(0,4)=='edge') {
      edges[i].setAttribute('class','edge');
    }
  }
}
]]></script>
        <defs>
                <circle id="rim" cx="0" cy="0" r="7"/>
                <circle id="rim2" cx="0" cy="0" r="3.5"/>
                <g id="zoomPlus">
                        <use xlink:href="#rim" fill="#404040">
                                <set attributeName="fill" to="#808080" begin="zoomplus.mouseover" end="zoomplus.mouseout"/>
                        </use>
                        <path d="M-4,0h8M0,-4v8" fill="none" stroke="white" stroke-width="1.5" pointer-events="none"/>
                </g>
                <g id="zoomMin">
                        <use xlink:href="#rim" fill="#404040">
                                <set attributeName="fill" to="#808080" begin="zoomminus.mouseover" end="zoomminus.mouseout"/>
                        </use>
                        <path d="M-4,0h8" fill="none" stroke="white" stroke-width="1.5" pointer-events="none"/>
                </g>
                <g id="dirArrow">
                        <path fill="none" stroke="white" stroke-width="1.5" d="M0,-3.0v7 M-2.5,-0.5L0,-3.0L2.5,-0.5"/>
                </g>
               <g id="resetDef">
                       <use xlink:href="#rim2" fill="#404040">
                               <set attributeName="fill" to="#808080" begin="reset.mouseover" end="reset.mouseout"/>
                       </use>
               </g>
        </defs>

<script type="text/javascript">
var viewWidth = 805;
var viewHeight = 256;
var sectionId = 'dynsection-10';
</script>
<script xlink:href="svgpan.js"/>
<svg id="graph" class="graph">
<g id="viewport">
<title>ReadFieldData</title>
<!-- Node1 -->
<g id="node1" class="node">
<title>Node1</title>
<g id="a_node1"><a xlink:title="Reads data for a specific field from a file into the provided vector.">
<polygon fill="#bfbfbf" stroke="black" points="710,-114.5 710,-133.5 797,-133.5 797,-114.5 710,-114.5"/>
<text text-anchor="middle" x="753.5" y="-121.5" font-family="Helvetica,sans-Serif" font-size="10.00">ReadFieldData</text>
</a>
</g>
</g>
<!-- Node2 -->
<g id="node2" class="node">
<title>Node2</title>
<g id="a_node2"><a xlink:href="io_8c.html#a9b18cb531c659ac173987ed73b1c1d24" target="_top" xlink:title="Reads a named field from file into a PETSc Vec, then gathers it to rank 0.">
<polygon fill="none" stroke="black" points="546,-228.5 546,-247.5 674,-247.5 674,-228.5 546,-228.5"/>
<text text-anchor="middle" x="610" y="-235.5" font-family="Helvetica,sans-Serif" font-size="10.00">ReadFieldDataToRank0</text>
</a>
</g>
</g>
<!-- Node1&#45;&gt;Node2 -->
<g id="edge1" class="edge">
<title>Node1&#45;&gt;Node2</title>
<path fill="none" stroke="midnightblue" d="M741.92,-142.49C728.71,-163.95 704.13,-198.97 674,-219 668.2,-222.86 661.58,-225.95 654.87,-228.44"/>
<polygon fill="midnightblue" stroke="midnightblue" points="745.06,-144.06 747.17,-133.68 739.04,-140.48 745.06,-144.06"/>
</g>
<!-- Node3 -->
<g id="node3" class="node">
<title>Node3</title>
<g id="a_node3"><a xlink:href="io_8c.html#a45ad89f26c78131d2990f09126abba4b" target="_top" xlink:title="Reads LES&#45;related fields.">
<polygon fill="none" stroke="black" points="567,-190.5 567,-209.5 653,-209.5 653,-190.5 567,-190.5"/>
<text text-anchor="middle" x="610" y="-197.5" font-family="Helvetica,sans-Serif" font-size="10.00">ReadLESFields</text>
</a>
</g>
</g>
<!-- Node1&#45;&gt;Node3 -->
<g id="edge2" class="edge">
<title>Node1&#45;&gt;Node3</title>
<path fill="none" stroke="midnightblue" d="M731.71,-139.61C716.32,-150.71 694.54,-165.45 674,-176 663.28,-181.51 650.98,-186.47 640.12,-190.43"/>
<polygon fill="midnightblue" stroke="midnightblue" points="733.98,-142.29 739.98,-133.56 729.84,-136.64 733.98,-142.29"/>
</g>
<!-- Node4 -->
<g id="node4" class="node">
<title>Node4</title>
<g id="a_node4"><a xlink:href="io_8c.html#a3a009dabc71ccfa59f196e1bc045de45" target="_top" xlink:title="Reads simulation fields from files into their respective PETSc vectors.">
<polygon fill="none" stroke="black" points="388,-76.5 388,-95.5 510,-95.5 510,-76.5 388,-76.5"/>
<text text-anchor="middle" x="449" y="-83.5" font-family="Helvetica,sans-Serif" font-size="10.00">ReadSimulationFields</text>
</a>
</g>
</g>
<!-- Node1&#45;&gt;Node4 -->
<g id="edge10" class="edge">
<title>Node1&#45;&gt;Node4</title>
<path fill="none" stroke="midnightblue" d="M711.91,-136.11C669.72,-146.78 602.13,-158.41 546,-143 512.35,-133.76 478.56,-109.34 461.46,-95.65"/>
<polygon fill="midnightblue" stroke="midnightblue" points="713.03,-139.44 721.81,-133.51 711.25,-132.67 713.03,-139.44"/>
</g>
<!-- Node8 -->
<g id="node8" class="node">
<title>Node8</title>
<g id="a_node8"><a xlink:href="io_8c.html#abbdec83c0db92b3f9a78ccaf8ec06d60" target="_top" xlink:title="Reads coordinate data (for particles) from file into a PETSc Vec, then gathers it to rank 0.">
<polygon fill="none" stroke="black" points="546.5,-114.5 546.5,-133.5 673.5,-133.5 673.5,-114.5 546.5,-114.5"/>
<text text-anchor="middle" x="610" y="-121.5" font-family="Helvetica,sans-Serif" font-size="10.00">ReadPositionsFromFile</text>
</a>
</g>
</g>
<!-- Node1&#45;&gt;Node8 -->
<g id="edge7" class="edge">
<title>Node1&#45;&gt;Node8</title>
<path fill="none" stroke="midnightblue" d="M699.53,-124C691.05,-124 682.21,-124 673.53,-124"/>
<polygon fill="midnightblue" stroke="midnightblue" points="699.66,-127.5 709.66,-124 699.66,-120.5 699.66,-127.5"/>
</g>
<!-- Node9 -->
<g id="node9" class="node">
<title>Node9</title>
<g id="a_node9"><a xlink:href="io_8c.html#a19e2e0b57afae458bae068610141c031" target="_top" xlink:title="Reads RANS&#45;related fields.">
<polygon fill="none" stroke="black" points="562,-76.5 562,-95.5 658,-95.5 658,-76.5 562,-76.5"/>
<text text-anchor="middle" x="610" y="-83.5" font-family="Helvetica,sans-Serif" font-size="10.00">ReadRANSFields</text>
</a>
</g>
</g>
<!-- Node1&#45;&gt;Node9 -->
<g id="edge8" class="edge">
<title>Node1&#45;&gt;Node9</title>
<path fill="none" stroke="midnightblue" d="M706.9,-111.75C687.39,-106.52 664.96,-100.49 646.7,-95.59"/>
<polygon fill="midnightblue" stroke="midnightblue" points="706.23,-115.2 716.79,-114.41 708.04,-108.44 706.23,-115.2"/>
</g>
<!-- Node10 -->
<g id="node10" class="node">
<title>Node10</title>
<g id="a_node10"><a xlink:href="io_8c.html#a03f5b76975eea55434d764a23fd42623" target="_top" xlink:title="Reads statistical fields for averaging purposes.">
<polygon fill="none" stroke="black" points="551,-38.5 551,-57.5 669,-57.5 669,-38.5 551,-38.5"/>
<text text-anchor="middle" x="610" y="-45.5" font-family="Helvetica,sans-Serif" font-size="10.00">ReadStatisticalFields</text>
</a>
</g>
</g>
<!-- Node1&#45;&gt;Node10 -->
<g id="edge11" class="edge">
<title>Node1&#45;&gt;Node10</title>
<path fill="none" stroke="midnightblue" d="M734.19,-107.95C718.97,-95.32 696.28,-78.05 674,-67 666.53,-63.29 658.2,-60.16 650.1,-57.57"/>
<polygon fill="midnightblue" stroke="midnightblue" points="731.94,-110.63 741.83,-114.43 736.46,-105.29 731.94,-110.63"/>
</g>
<!-- Node11 -->
<g id="node11" class="node">
<title>Node11</title>
<g id="a_node11"><a xlink:href="io_8c.html#a84fff45b8cbd148ed2429ba8fe12428f" target="_top" xlink:title="Reads data from a file into a specified field of a PETSc DMSwarm.">
<polygon fill="none" stroke="black" points="561,-0.5 561,-19.5 659,-19.5 659,-0.5 561,-0.5"/>
<text text-anchor="middle" x="610" y="-7.5" font-family="Helvetica,sans-Serif" font-size="10.00">ReadSwarmField</text>
</a>
</g>
</g>
<!-- Node1&#45;&gt;Node11 -->
<g id="edge13" class="edge">
<title>Node1&#45;&gt;Node11</title>
<path fill="none" stroke="midnightblue" d="M741.92,-105.51C728.71,-84.05 704.13,-49.03 674,-29 668.2,-25.14 661.58,-22.05 654.87,-19.56"/>
<polygon fill="midnightblue" stroke="midnightblue" points="739.04,-107.52 747.17,-114.32 745.06,-103.94 739.04,-107.52"/>
</g>
<!-- Node3&#45;&gt;Node4 -->
<g id="edge3" class="edge">
<title>Node3&#45;&gt;Node4</title>
<path fill="none" stroke="midnightblue" d="M567,-186.63C559.76,-183.6 552.48,-180.05 546,-176 508.8,-152.75 473.4,-113.75 458.03,-95.7"/>
<polygon fill="midnightblue" stroke="midnightblue" points="566.19,-190.07 576.78,-190.45 568.74,-183.55 566.19,-190.07"/>
</g>
<!-- Node5 -->
<g id="node5" class="node">
<title>Node5</title>
<g id="a_node5"><a xlink:href="initialcondition_8c.html#aff0951526ed36a87e2745da0154a68e5" target="_top" xlink:title="(HELPER) Reads fluid state for all blocks from restart files.">
<polygon fill="none" stroke="black" points="242,-67 242,-97 352,-97 352,-67 242,-67"/>
<text text-anchor="start" x="250" y="-85" font-family="Helvetica,sans-Serif" font-size="10.00">SetInitialFluidState</text>
<text text-anchor="middle" x="297" y="-74" font-family="Helvetica,sans-Serif" font-size="10.00">_Restart</text>
</a>
</g>
</g>
<!-- Node4&#45;&gt;Node5 -->
<g id="edge4" class="edge">
<title>Node4&#45;&gt;Node5</title>
<path fill="none" stroke="midnightblue" d="M377.58,-84.12C369.1,-83.9 360.54,-83.67 352.34,-83.45"/>
<polygon fill="midnightblue" stroke="midnightblue" points="377.76,-87.63 387.85,-84.4 377.95,-80.63 377.76,-87.63"/>
</g>
<!-- Node6 -->
<g id="node6" class="node">
<title>Node6</title>
<g id="a_node6"><a xlink:href="initialcondition_8c.html#ad0dd7d3f2528b6a7802fcd551e88ea99" target="_top" xlink:title="High&#45;level orchestrator to set the complete initial state of the Eulerian solver.">
<polygon fill="none" stroke="black" points="79.5,-62.5 79.5,-81.5 203.5,-81.5 203.5,-62.5 79.5,-62.5"/>
<text text-anchor="middle" x="141.5" y="-69.5" font-family="Helvetica,sans-Serif" font-size="10.00">InitializeEulerianState</text>
</a>
</g>
</g>
<!-- Node5&#45;&gt;Node6 -->
<g id="edge5" class="edge">
<title>Node5&#45;&gt;Node6</title>
<path fill="none" stroke="midnightblue" d="M231.89,-77.82C222.57,-77.22 212.99,-76.59 203.72,-75.99"/>
<polygon fill="midnightblue" stroke="midnightblue" points="231.68,-81.32 241.88,-78.47 232.13,-74.33 231.68,-81.32"/>
</g>
<!-- Node7 -->
<g id="node7" class="node">
<title>Node7</title>
<g id="a_node7"><a xlink:href="picsolver_8c.html#a3c04138a5bfe5d72780bb7e82a18e627" target="_top" xlink:title=" ">
<polygon fill="none" stroke="black" points="0,-42.5 0,-61.5 41,-61.5 41,-42.5 0,-42.5"/>
<text text-anchor="middle" x="20.5" y="-49.5" font-family="Helvetica,sans-Serif" font-size="10.00">main</text>
</a>
</g>
</g>
<!-- Node6&#45;&gt;Node7 -->
<g id="edge6" class="edge">
<title>Node6&#45;&gt;Node7</title>
<path fill="none" stroke="midnightblue" d="M73.74,-60.78C61.83,-58.78 50.32,-56.84 41.15,-55.3"/>
<polygon fill="midnightblue" stroke="midnightblue" points="73.35,-64.26 83.79,-62.47 74.51,-57.36 73.35,-64.26"/>
</g>
<!-- Node9&#45;&gt;Node4 -->
<g id="edge9" class="edge">
<title>Node9&#45;&gt;Node4</title>
<path fill="none" stroke="midnightblue" d="M551.61,-86C538.12,-86 523.7,-86 510.09,-86"/>
<polygon fill="midnightblue" stroke="midnightblue" points="551.73,-89.5 561.73,-86 551.73,-82.5 551.73,-89.5"/>
</g>
<!-- Node10&#45;&gt;Node4 -->
<g id="edge12" class="edge">
<title>Node10&#45;&gt;Node4</title>
<path fill="none" stroke="midnightblue" d="M558.92,-59.97C536.64,-65.29 510.77,-71.48 489.83,-76.48"/>
<polygon fill="midnightblue" stroke="midnightblue" points="559.97,-63.32 568.88,-57.59 558.34,-56.51 559.97,-63.32"/>
</g>
<!-- Node12 -->
<g id="node12" class="node">
<title>Node12</title>
<g id="a_node12"><a xlink:href="io_8c.html#a64286adf953993b2a0c5c3fbee40d5a2" target="_top" xlink:title="Reads multiple fields (positions, velocity, CellID, and weight) into a DMSwarm.">
<polygon fill="none" stroke="black" points="391,-4.5 391,-23.5 507,-23.5 507,-4.5 391,-4.5"/>
<text text-anchor="middle" x="449" y="-11.5" font-family="Helvetica,sans-Serif" font-size="10.00">ReadAllSwarmFields</text>
</a>
</g>
</g>
<!-- Node11&#45;&gt;Node12 -->
<g id="edge14" class="edge">
<title>Node11&#45;&gt;Node12</title>
<path fill="none" stroke="midnightblue" d="M550.73,-11.47C536.53,-11.82 521.36,-12.2 507.21,-12.56"/>
<polygon fill="midnightblue" stroke="midnightblue" points="550.95,-14.96 560.86,-11.21 550.78,-7.96 550.95,-14.96"/>
</g>
<!-- Node13 -->
<g id="node13" class="node">
<title>Node13</title>
<g id="a_node13"><a xlink:href="ParticleSwarm_8c.html#ada215a5db25227a8fd2cd2596e7d3e57" target="_top" xlink:title="Perform particle swarm initialization, particle&#45;grid interaction, and related operations.">
<polygon fill="none" stroke="black" points="77,-23.5 77,-42.5 206,-42.5 206,-23.5 77,-23.5"/>
<text text-anchor="middle" x="141.5" y="-30.5" font-family="Helvetica,sans-Serif" font-size="10.00">InitializeParticleSwarm</text>
</a>
</g>
</g>
<!-- Node12&#45;&gt;Node13 -->
<g id="edge15" class="edge">
<title>Node12&#45;&gt;Node13</title>
<path fill="none" stroke="midnightblue" d="M380.77,-18.18C328.77,-21.42 257.26,-25.86 206.18,-29.04"/>
<polygon fill="midnightblue" stroke="midnightblue" points="381.13,-21.67 390.9,-17.55 380.7,-14.68 381.13,-21.67"/>
</g>
<!-- Node13&#45;&gt;Node7 -->
<g id="edge16" class="edge">
<title>Node13&#45;&gt;Node7</title>
<path fill="none" stroke="midnightblue" d="M70.61,-44.16C59.77,-45.89 49.4,-47.54 41.01,-48.88"/>
<polygon fill="midnightblue" stroke="midnightblue" points="71.33,-47.59 80.65,-42.56 70.22,-40.68 71.33,-47.59"/>
</g>
</g>
</svg>
        <g id="navigator" transform="translate(0 0)" fill="#404254">
                <rect fill="#f2f5e9" fill-opacity="0.5" stroke="#606060" stroke-width=".5" x="0" y="0" width="60" height="60"/>
                <use id="zoomplus" xlink:href="#zoomPlus" x="17" y="9" onmousedown="handleZoom(evt,'in')"/>
                <use id="zoomminus" xlink:href="#zoomMin" x="42" y="9" onmousedown="handleZoom(evt,'out')"/>
                <use id="reset" xlink:href="#resetDef" x="30" y="36" onmousedown="handleReset()"/>
                <g id="arrowUp" xlink:href="#dirArrow" transform="translate(30 24)" onmousedown="handlePan(0,-1)">
                  <use xlink:href="#rim" fill="#404040">
                        <set attributeName="fill" to="#808080" begin="arrowUp.mouseover" end="arrowUp.mouseout"/>
                  </use>
                  <path fill="none" stroke="white" stroke-width="1.5" d="M0,-3.0v7 M-2.5,-0.5L0,-3.0L2.5,-0.5"/>
                </g>
                <g id="arrowRight" xlink:href="#dirArrow" transform="rotate(90) translate(36 -43)" onmousedown="handlePan(1,0)">
                  <use xlink:href="#rim" fill="#404040">
                        <set attributeName="fill" to="#808080" begin="arrowRight.mouseover" end="arrowRight.mouseout"/>
                  </use>
                  <path fill="none" stroke="white" stroke-width="1.5" d="M0,-3.0v7 M-2.5,-0.5L0,-3.0L2.5,-0.5"/>
                </g>
                <g id="arrowDown" xlink:href="#dirArrow" transform="rotate(180) translate(-30 -48)" onmousedown="handlePan(0,1)">
                  <use xlink:href="#rim" fill="#404040">
                        <set attributeName="fill" to="#808080" begin="arrowDown.mouseover" end="arrowDown.mouseout"/>
                  </use>
                  <path fill="none" stroke="white" stroke-width="1.5" d="M0,-3.0v7 M-2.5,-0.5L0,-3.0L2.5,-0.5"/>
                </g>
                <g id="arrowLeft" xlink:href="#dirArrow" transform="rotate(270) translate(-36 17)" onmousedown="handlePan(-1,0)">
                  <use xlink:href="#rim" fill="#404040">
                        <set attributeName="fill" to="#808080" begin="arrowLeft.mouseover" end="arrowLeft.mouseout"/>
                  </use>
                  <path fill="none" stroke="white" stroke-width="1.5" d="M0,-3.0v7 M-2.5,-0.5L0,-3.0L2.5,-0.5"/>
                </g>
        </g>
        <svg viewBox="0 0 15 15" width="100%" height="30px" preserveAspectRatio="xMaxYMin meet">
         <g id="arrow_out" transform="scale(0.3 0.3)">
          <a xlink:href="io_8h_a570806d7e0694b5d996e0c6018b48908_icgraph_org.svg" target="_base">
           <rect id="button" ry="5" rx="5" y="6" x="6" height="38" width="38"
                fill="#f2f5e9" fill-opacity="0.5" stroke="#606060" stroke-width="1.0"/>
           <path id="arrow"
             d="M 11.500037,31.436501 C 11.940474,20.09759 22.043105,11.32322 32.158766,21.979434 L 37.068811,17.246167 C 37.068811,17.246167 37.088388,32 37.088388,32 L 22.160133,31.978069 C 22.160133,31.978069 26.997745,27.140456 26.997745,27.140456 C 18.528582,18.264221 13.291696,25.230495 11.500037,31.436501 z"
             style="fill:#404040;"/>
          </a>
         </g>
        </svg>
</svg>
