<?xml version="1.0" encoding="UTF-8" standalone="no"?>
<!DOCTYPE svg PUBLIC "-//W3C//DTD SVG 1.1//EN"
 "http://www.w3.org/Graphics/SVG/1.1/DTD/svg11.dtd">
<!-- Generated by graphviz version 2.43.0 (0)
 -->
<!-- Title: WriteVTKFileFooter Pages: 1 -->
<svg width="267pt" height="66pt"
 viewBox="0.00 0.00 267.00 66.00" xmlns="http://www.w3.org/2000/svg" xmlns:xlink="http://www.w3.org/1999/xlink">
<g id="graph0" class="graph" transform="scale(1 1) rotate(0) translate(4 62)">
<title>WriteVTKFileFooter</title>
<!-- Node1 -->
<g id="node1" class="node">
<title>Node1</title>
<g id="a_node1"><a xlink:title="Writes the XML footer for a VTK file based on the provided metadata.">
<polygon fill="#bfbfbf" stroke="black" points="0,-19.5 0,-38.5 110,-38.5 110,-19.5 0,-19.5"/>
<text text-anchor="middle" x="55" y="-26.5" font-family="Helvetica,sans-Serif" font-size="10.00">WriteVTKFileFooter</text>
</a>
</g>
</g>
<!-- Node2 -->
<g id="node2" class="node">
<title>Node2</title>
<g id="a_node2"><a xlink:href="io_8c.html#a3acbf6495b06ddc31dcd318a6917bcec" target="_top" xlink:title="Finalizes the .vtp file by closing the appended data section and the VTKFile tag.">
<polygon fill="none" stroke="black" points="146,-38.5 146,-57.5 259,-57.5 259,-38.5 146,-38.5"/>
<text text-anchor="middle" x="202.5" y="-45.5" font-family="Helvetica,sans-Serif" font-size="10.00">WriteVTPXMLFooter</text>
</a>
</g>
</g>
<!-- Node1&#45;&gt;Node2 -->
<g id="edge1" class="edge">
<title>Node1&#45;&gt;Node2</title>
<path fill="none" stroke="midnightblue" d="M110.18,-36.07C118.54,-37.17 127.25,-38.3 135.84,-39.43"/>
<polygon fill="midnightblue" stroke="midnightblue" points="135.45,-42.9 145.82,-40.73 136.36,-35.96 135.45,-42.9"/>
</g>
<!-- Node3 -->
<g id="node3" class="node">
<title>Node3</title>
<g id="a_node3"><a xlink:href="io_8c.html#a3fcae786daf54e7706101dd9b955ed96" target="_top" xlink:title="Finalizes the .vts file by closing the appended data section and the VTKFile XML tag.">
<polygon fill="none" stroke="black" points="146,-0.5 146,-19.5 259,-19.5 259,-0.5 146,-0.5"/>
<text text-anchor="middle" x="202.5" y="-7.5" font-family="Helvetica,sans-Serif" font-size="10.00">WriteVTSXMLFooter</text>
</a>
</g>
</g>
<!-- Node1&#45;&gt;Node3 -->
<g id="edge2" class="edge">
<title>Node1&#45;&gt;Node3</title>
<path fill="none" stroke="midnightblue" d="M110.18,-21.93C118.54,-20.83 127.25,-19.7 135.84,-18.57"/>
<polygon fill="midnightblue" stroke="midnightblue" points="136.36,-22.04 145.82,-17.27 135.45,-15.1 136.36,-22.04"/>
</g>
</g>
</svg>
