<?xml version="1.0" encoding="UTF-8" standalone="no"?>
<!DOCTYPE svg PUBLIC "-//W3C//DTD SVG 1.1//EN"
 "http://www.w3.org/Graphics/SVG/1.1/DTD/svg11.dtd">
<!-- Generated by graphviz version 2.43.0 (0)
 -->
<!-- Title: ReadLESFields Pages: 1 -->
<svg width="635pt" height="39pt"
 viewBox="0.00 0.00 635.00 39.00" xmlns="http://www.w3.org/2000/svg" xmlns:xlink="http://www.w3.org/1999/xlink">
<g id="graph0" class="graph" transform="scale(1 1) rotate(0) translate(4 35)">
<title>ReadLESFields</title>
<!-- Node1 -->
<g id="node1" class="node">
<title>Node1</title>
<g id="a_node1"><a xlink:title="Reads LES&#45;related fields.">
<polygon fill="#bfbfbf" stroke="black" points="541,-6 541,-25 627,-25 627,-6 541,-6"/>
<text text-anchor="middle" x="584" y="-13" font-family="Helvetica,sans-Serif" font-size="10.00">ReadLESFields</text>
</a>
</g>
</g>
<!-- Node2 -->
<g id="node2" class="node">
<title>Node2</title>
<g id="a_node2"><a xlink:href="io_8c.html#a3a009dabc71ccfa59f196e1bc045de45" target="_top" xlink:title="Reads simulation fields from files into their respective PETSc vectors.">
<polygon fill="none" stroke="black" points="383,-6 383,-25 505,-25 505,-6 383,-6"/>
<text text-anchor="middle" x="444" y="-13" font-family="Helvetica,sans-Serif" font-size="10.00">ReadSimulationFields</text>
</a>
</g>
</g>
<!-- Node1&#45;&gt;Node2 -->
<g id="edge1" class="edge">
<title>Node1&#45;&gt;Node2</title>
<path fill="none" stroke="midnightblue" d="M530.84,-15.5C522.46,-15.5 513.73,-15.5 505.18,-15.5"/>
<polygon fill="midnightblue" stroke="midnightblue" points="530.85,-19 540.85,-15.5 530.85,-12 530.85,-19"/>
</g>
<!-- Node3 -->
<g id="node3" class="node">
<title>Node3</title>
<g id="a_node3"><a xlink:href="initialcondition_8c.html#aff0951526ed36a87e2745da0154a68e5" target="_top" xlink:title="(HELPER) Reads fluid state for all blocks from restart files.">
<polygon fill="none" stroke="black" points="237,-0.5 237,-30.5 347,-30.5 347,-0.5 237,-0.5"/>
<text text-anchor="start" x="245" y="-18.5" font-family="Helvetica,sans-Serif" font-size="10.00">SetInitialFluidState</text>
<text text-anchor="middle" x="292" y="-7.5" font-family="Helvetica,sans-Serif" font-size="10.00">_Restart</text>
</a>
</g>
</g>
<!-- Node2&#45;&gt;Node3 -->
<g id="edge2" class="edge">
<title>Node2&#45;&gt;Node3</title>
<path fill="none" stroke="midnightblue" d="M372.58,-15.5C364.1,-15.5 355.54,-15.5 347.34,-15.5"/>
<polygon fill="midnightblue" stroke="midnightblue" points="372.85,-19 382.85,-15.5 372.85,-12 372.85,-19"/>
</g>
<!-- Node4 -->
<g id="node4" class="node">
<title>Node4</title>
<g id="a_node4"><a xlink:href="initialcondition_8c.html#ad0dd7d3f2528b6a7802fcd551e88ea99" target="_top" xlink:title="High&#45;level orchestrator to set the complete initial state of the Eulerian solver.">
<polygon fill="none" stroke="black" points="77,-6 77,-25 201,-25 201,-6 77,-6"/>
<text text-anchor="middle" x="139" y="-13" font-family="Helvetica,sans-Serif" font-size="10.00">InitializeEulerianState</text>
</a>
</g>
</g>
<!-- Node3&#45;&gt;Node4 -->
<g id="edge3" class="edge">
<title>Node3&#45;&gt;Node4</title>
<path fill="none" stroke="midnightblue" d="M226.7,-15.5C218.23,-15.5 209.57,-15.5 201.15,-15.5"/>
<polygon fill="midnightblue" stroke="midnightblue" points="226.91,-19 236.91,-15.5 226.91,-12 226.91,-19"/>
</g>
<!-- Node5 -->
<g id="node5" class="node">
<title>Node5</title>
<g id="a_node5"><a xlink:href="picsolver_8c.html#a3c04138a5bfe5d72780bb7e82a18e627" target="_top" xlink:title=" ">
<polygon fill="none" stroke="black" points="0,-6 0,-25 41,-25 41,-6 0,-6"/>
<text text-anchor="middle" x="20.5" y="-13" font-family="Helvetica,sans-Serif" font-size="10.00">main</text>
</a>
</g>
</g>
<!-- Node4&#45;&gt;Node5 -->
<g id="edge4" class="edge">
<title>Node4&#45;&gt;Node5</title>
<path fill="none" stroke="midnightblue" d="M66.46,-15.5C57.17,-15.5 48.36,-15.5 41.04,-15.5"/>
<polygon fill="midnightblue" stroke="midnightblue" points="66.68,-19 76.68,-15.5 66.68,-12 66.68,-19"/>
</g>
</g>
</svg>
