<?xml version="1.0" encoding="UTF-8" standalone="no"?>
<!DOCTYPE svg PUBLIC "-//W3C//DTD SVG 1.1//EN"
 "http://www.w3.org/Graphics/SVG/1.1/DTD/svg11.dtd">
<!-- Generated by graphviz version 2.43.0 (0)
 -->
<!-- Title: CreateVTKFileFromMetadata Pages: 1 -->
<svg width="492pt" height="142pt"
 viewBox="0.00 0.00 492.00 142.00" xmlns="http://www.w3.org/2000/svg" xmlns:xlink="http://www.w3.org/1999/xlink">
<g id="graph0" class="graph" transform="scale(1 1) rotate(0) translate(4 138)">
<title>CreateVTKFileFromMetadata</title>
<!-- Node1 -->
<g id="node1" class="node">
<title>Node1</title>
<g id="a_node1"><a xlink:title="Creates and writes a VTK file (either .vts or .vtp) based on the provided metadata.">
<polygon fill="#bfbfbf" stroke="black" points="0,-76.5 0,-95.5 156,-95.5 156,-76.5 0,-76.5"/>
<text text-anchor="middle" x="78" y="-83.5" font-family="Helvetica,sans-Serif" font-size="10.00">CreateVTKFileFromMetadata</text>
</a>
</g>
</g>
<!-- Node2 -->
<g id="node2" class="node">
<title>Node2</title>
<g id="a_node2"><a xlink:href="io_8c.html#a1ba0fd207c663927535fbd6ab6e28ba1" target="_top" xlink:title="Writes a data block in appended format for a VTK file, including a 4&#45;byte size prefix.">
<polygon fill="none" stroke="black" points="192,-114.5 192,-133.5 330,-133.5 330,-114.5 192,-114.5"/>
<text text-anchor="middle" x="261" y="-121.5" font-family="Helvetica,sans-Serif" font-size="10.00">WriteVTKAppendedBlock</text>
</a>
</g>
</g>
<!-- Node1&#45;&gt;Node2 -->
<g id="edge1" class="edge">
<title>Node1&#45;&gt;Node2</title>
<path fill="none" stroke="midnightblue" d="M124.67,-95.59C148.99,-100.69 179.08,-107.01 204.71,-112.39"/>
<polygon fill="midnightblue" stroke="midnightblue" points="204.15,-115.85 214.65,-114.48 205.59,-109 204.15,-115.85"/>
</g>
<!-- Node3 -->
<g id="node3" class="node">
<title>Node3</title>
<g id="a_node3"><a xlink:href="io_8c.html#a225e0a333b858e580840be12c245ab10" target="_top" xlink:title="Writes the XML footer for a VTK file based on the provided metadata.">
<polygon fill="none" stroke="black" points="206,-76.5 206,-95.5 316,-95.5 316,-76.5 206,-76.5"/>
<text text-anchor="middle" x="261" y="-83.5" font-family="Helvetica,sans-Serif" font-size="10.00">WriteVTKFileFooter</text>
</a>
</g>
</g>
<!-- Node1&#45;&gt;Node3 -->
<g id="edge2" class="edge">
<title>Node1&#45;&gt;Node3</title>
<path fill="none" stroke="midnightblue" d="M156.02,-86C169.23,-86 182.84,-86 195.67,-86"/>
<polygon fill="midnightblue" stroke="midnightblue" points="195.78,-89.5 205.78,-86 195.78,-82.5 195.78,-89.5"/>
</g>
<!-- Node6 -->
<g id="node6" class="node">
<title>Node6</title>
<g id="a_node6"><a xlink:href="io_8c.html#abeb59f67fa68fabd9854709774dee119" target="_top" xlink:title="Writes the initial XML header for a VTK file based on the provided metadata.">
<polygon fill="none" stroke="black" points="204,-38.5 204,-57.5 318,-57.5 318,-38.5 204,-38.5"/>
<text text-anchor="middle" x="261" y="-45.5" font-family="Helvetica,sans-Serif" font-size="10.00">WriteVTKFileHeader</text>
</a>
</g>
</g>
<!-- Node1&#45;&gt;Node6 -->
<g id="edge5" class="edge">
<title>Node1&#45;&gt;Node6</title>
<path fill="none" stroke="midnightblue" d="M124.67,-76.41C148.99,-71.31 179.08,-64.99 204.71,-59.61"/>
<polygon fill="midnightblue" stroke="midnightblue" points="205.59,-63 214.65,-57.52 204.15,-56.15 205.59,-63"/>
</g>
<!-- Node4 -->
<g id="node4" class="node">
<title>Node4</title>
<g id="a_node4"><a xlink:href="io_8c.html#a3acbf6495b06ddc31dcd318a6917bcec" target="_top" xlink:title="Finalizes the .vtp file by closing the appended data section and the VTKFile tag.">
<polygon fill="none" stroke="black" points="368.5,-114.5 368.5,-133.5 481.5,-133.5 481.5,-114.5 368.5,-114.5"/>
<text text-anchor="middle" x="425" y="-121.5" font-family="Helvetica,sans-Serif" font-size="10.00">WriteVTPXMLFooter</text>
</a>
</g>
</g>
<!-- Node3&#45;&gt;Node4 -->
<g id="edge3" class="edge">
<title>Node3&#45;&gt;Node4</title>
<path fill="none" stroke="midnightblue" d="M302.88,-95.59C324.35,-100.63 350.86,-106.84 373.6,-112.18"/>
<polygon fill="midnightblue" stroke="midnightblue" points="372.88,-115.6 383.41,-114.48 374.48,-108.79 372.88,-115.6"/>
</g>
<!-- Node5 -->
<g id="node5" class="node">
<title>Node5</title>
<g id="a_node5"><a xlink:href="io_8c.html#a3fcae786daf54e7706101dd9b955ed96" target="_top" xlink:title="Finalizes the .vts file by closing the appended data section and the VTKFile XML tag.">
<polygon fill="none" stroke="black" points="368.5,-76.5 368.5,-95.5 481.5,-95.5 481.5,-76.5 368.5,-76.5"/>
<text text-anchor="middle" x="425" y="-83.5" font-family="Helvetica,sans-Serif" font-size="10.00">WriteVTSXMLFooter</text>
</a>
</g>
</g>
<!-- Node3&#45;&gt;Node5 -->
<g id="edge4" class="edge">
<title>Node3&#45;&gt;Node5</title>
<path fill="none" stroke="midnightblue" d="M316.39,-86C329.86,-86 344.42,-86 358.36,-86"/>
<polygon fill="midnightblue" stroke="midnightblue" points="358.37,-89.5 368.37,-86 358.37,-82.5 358.37,-89.5"/>
</g>
<!-- Node7 -->
<g id="node7" class="node">
<title>Node7</title>
<g id="a_node7"><a xlink:href="io_8c.html#adc8540405ef08976e1bae9cbb5700545" target="_top" xlink:title="Writes the XML header portion of a .vtp file for a point&#45;cloud representation.">
<polygon fill="none" stroke="black" points="366,-38.5 366,-57.5 484,-57.5 484,-38.5 366,-38.5"/>
<text text-anchor="middle" x="425" y="-45.5" font-family="Helvetica,sans-Serif" font-size="10.00">WriteVTPXMLHeader</text>
</a>
</g>
</g>
<!-- Node6&#45;&gt;Node7 -->
<g id="edge6" class="edge">
<title>Node6&#45;&gt;Node7</title>
<path fill="none" stroke="midnightblue" d="M318.21,-48C330.27,-48 343.15,-48 355.62,-48"/>
<polygon fill="midnightblue" stroke="midnightblue" points="355.97,-51.5 365.97,-48 355.97,-44.5 355.97,-51.5"/>
</g>
<!-- Node8 -->
<g id="node8" class="node">
<title>Node8</title>
<g id="a_node8"><a xlink:href="io_8c.html#a8d20a414e822ac30150e6be7b6d780b2" target="_top" xlink:title="Writes the XML header portion of a .vts file, defining the structured grid extents and data arrays.">
<polygon fill="none" stroke="black" points="366,-0.5 366,-19.5 484,-19.5 484,-0.5 366,-0.5"/>
<text text-anchor="middle" x="425" y="-7.5" font-family="Helvetica,sans-Serif" font-size="10.00">WriteVTSXMLHeader</text>
</a>
</g>
</g>
<!-- Node6&#45;&gt;Node8 -->
<g id="edge7" class="edge">
<title>Node6&#45;&gt;Node8</title>
<path fill="none" stroke="midnightblue" d="M302.88,-38.41C324.35,-33.37 350.86,-27.16 373.6,-21.82"/>
<polygon fill="midnightblue" stroke="midnightblue" points="374.48,-25.21 383.41,-19.52 372.88,-18.4 374.48,-25.21"/>
</g>
</g>
</svg>
