<?xml version="1.0" encoding="UTF-8" standalone="no"?>
<!DOCTYPE svg PUBLIC "-//W3C//DTD SVG 1.1//EN"
 "http://www.w3.org/Graphics/SVG/1.1/DTD/svg11.dtd">
<!-- Generated by graphviz version 2.43.0 (0)
 -->
<!-- Title: WriteVTSXMLFooter Pages: 1 -->
<svg width="459pt" height="28pt"
 viewBox="0.00 0.00 459.00 28.00" xmlns="http://www.w3.org/2000/svg" xmlns:xlink="http://www.w3.org/1999/xlink">
<g id="graph0" class="graph" transform="scale(1 1) rotate(0) translate(4 24)">
<title>WriteVTSXMLFooter</title>
<!-- Node1 -->
<g id="node1" class="node">
<title>Node1</title>
<g id="a_node1"><a xlink:title="Finalizes the .vts file by closing the appended data section and the VTKFile XML tag.">
<polygon fill="#bfbfbf" stroke="black" points="338,-0.5 338,-19.5 451,-19.5 451,-0.5 338,-0.5"/>
<text text-anchor="middle" x="394.5" y="-7.5" font-family="Helvetica,sans-Serif" font-size="10.00">WriteVTSXMLFooter</text>
</a>
</g>
</g>
<!-- Node2 -->
<g id="node2" class="node">
<title>Node2</title>
<g id="a_node2"><a xlink:href="io_8c.html#a225e0a333b858e580840be12c245ab10" target="_top" xlink:title="Writes the XML footer for a VTK file based on the provided metadata.">
<polygon fill="none" stroke="black" points="192,-0.5 192,-19.5 302,-19.5 302,-0.5 192,-0.5"/>
<text text-anchor="middle" x="247" y="-7.5" font-family="Helvetica,sans-Serif" font-size="10.00">WriteVTKFileFooter</text>
</a>
</g>
</g>
<!-- Node1&#45;&gt;Node2 -->
<g id="edge1" class="edge">
<title>Node1&#45;&gt;Node2</title>
<path fill="none" stroke="midnightblue" d="M327.39,-10C318.9,-10 310.28,-10 302.01,-10"/>
<polygon fill="midnightblue" stroke="midnightblue" points="327.66,-13.5 337.66,-10 327.66,-6.5 327.66,-13.5"/>
</g>
<!-- Node3 -->
<g id="node3" class="node">
<title>Node3</title>
<g id="a_node3"><a xlink:href="io_8c.html#ad4eeaada0c8227f332499bf5fc4d3bc0" target="_top" xlink:title="Creates and writes a VTK file (either .vts or .vtp) based on the provided metadata.">
<polygon fill="none" stroke="black" points="0,-0.5 0,-19.5 156,-19.5 156,-0.5 0,-0.5"/>
<text text-anchor="middle" x="78" y="-7.5" font-family="Helvetica,sans-Serif" font-size="10.00">CreateVTKFileFromMetadata</text>
</a>
</g>
</g>
<!-- Node2&#45;&gt;Node3 -->
<g id="edge2" class="edge">
<title>Node2&#45;&gt;Node3</title>
<path fill="none" stroke="midnightblue" d="M181.68,-10C173.27,-10 164.59,-10 156,-10"/>
<polygon fill="midnightblue" stroke="midnightblue" points="181.78,-13.5 191.78,-10 181.78,-6.5 181.78,-13.5"/>
</g>
</g>
</svg>
