<?xml version="1.0" encoding="UTF-8" standalone="no"?>
<!DOCTYPE svg PUBLIC "-//W3C//DTD SVG 1.1//EN"
 "http://www.w3.org/Graphics/SVG/1.1/DTD/svg11.dtd">
<!-- Generated by graphviz version 2.43.0 (0)
 -->
<!-- Title: is_function_allowed Pages: 1 -->
<svg width="968pt" height="583pt"
 viewBox="0.00 0.00 968.00 583.00" xmlns="http://www.w3.org/2000/svg" xmlns:xlink="http://www.w3.org/1999/xlink">
<g id="graph0" class="graph" transform="scale(1 1) rotate(0) translate(4 579)">
<title>is_function_allowed</title>
<!-- Node1 -->
<g id="node1" class="node">
<title>Node1</title>
<g id="a_node1"><a xlink:title="Checks if the given function name is in the allow&#45;list.">
<polygon fill="#bfbfbf" stroke="black" points="847,-453.5 847,-472.5 960,-472.5 960,-453.5 847,-453.5"/>
<text text-anchor="middle" x="903.5" y="-460.5" font-family="Helvetica,sans-Serif" font-size="10.00">is_function_allowed</text>
</a>
</g>
</g>
<!-- Node2 -->
<g id="node2" class="node">
<title>Node2</title>
<g id="a_node2"><a xlink:href="ParticleSwarm_8c.html#a063f4fd13a24b248fabd0268c49fd38c" target="_top" xlink:title="Creates and initializes a Particle Swarm.">
<polygon fill="none" stroke="black" points="671,-555.5 671,-574.5 790,-574.5 790,-555.5 671,-555.5"/>
<text text-anchor="middle" x="730.5" y="-562.5" font-family="Helvetica,sans-Serif" font-size="10.00">CreateParticleSwarm</text>
</a>
</g>
</g>
<!-- Node1&#45;&gt;Node2 -->
<g id="edge1" class="edge">
<title>Node1&#45;&gt;Node2</title>
<path fill="none" stroke="midnightblue" d="M887.74,-480.54C871.02,-499.27 842.03,-528.5 811,-545 802.83,-549.34 793.69,-552.77 784.59,-555.46"/>
<polygon fill="midnightblue" stroke="midnightblue" points="890.6,-482.59 894.53,-472.75 885.32,-477.99 890.6,-482.59"/>
</g>
<!-- Node5 -->
<g id="node5" class="node">
<title>Node5</title>
<g id="a_node5"><a xlink:href="walkingsearch_8c.html#a556871801ba0b3214285a2ca1fe622ac" target="_top" xlink:title="Determines the spatial relationship of a particle relative to a cubic cell.">
<polygon fill="none" stroke="black" points="663,-475.5 663,-494.5 798,-494.5 798,-475.5 663,-475.5"/>
<text text-anchor="middle" x="730.5" y="-482.5" font-family="Helvetica,sans-Serif" font-size="10.00">EvaluateParticlePosition</text>
</a>
</g>
</g>
<!-- Node1&#45;&gt;Node5 -->
<g id="edge4" class="edge">
<title>Node1&#45;&gt;Node5</title>
<path fill="none" stroke="midnightblue" d="M836.93,-471.44C824.19,-473.07 810.84,-474.79 798.07,-476.44"/>
<polygon fill="midnightblue" stroke="midnightblue" points="837.51,-474.89 846.98,-470.14 836.62,-467.95 837.51,-474.89"/>
</g>
<!-- Node10 -->
<g id="node10" class="node">
<title>Node10</title>
<g id="a_node10"><a xlink:href="interpolation_8c.html#ad200d31b74c511e4388b757fb0359001" target="_top" xlink:title="Interpolates a cell&#45;centered field (scalar or vector) onto DMSwarm particles, using a robust,...">
<polygon fill="none" stroke="black" points="650,-516.5 650,-535.5 811,-535.5 811,-516.5 650,-516.5"/>
<text text-anchor="middle" x="730.5" y="-523.5" font-family="Helvetica,sans-Serif" font-size="10.00">InterpolateEulerFieldToSwarm</text>
</a>
</g>
</g>
<!-- Node1&#45;&gt;Node10 -->
<g id="edge11" class="edge">
<title>Node1&#45;&gt;Node10</title>
<path fill="none" stroke="midnightblue" d="M873.96,-477.13C856.14,-485.62 832.56,-496.24 811,-504 798.06,-508.66 783.65,-512.92 770.69,-516.42"/>
<polygon fill="midnightblue" stroke="midnightblue" points="875.73,-480.16 883.22,-472.67 872.69,-473.86 875.73,-480.16"/>
</g>
<!-- Node12 -->
<g id="node12" class="node">
<title>Node12</title>
<g id="a_node12"><a xlink:href="interpolation_8c.html#a8e20ad6b773e06f8cc29773322297095" target="_top" xlink:title="Interpolates a vector field from cell centers to corner nodes.">
<polygon fill="none" stroke="black" points="656,-210 656,-240 805,-240 805,-210 656,-210"/>
<text text-anchor="start" x="664" y="-228" font-family="Helvetica,sans-Serif" font-size="10.00">InterpolateFieldFromCenter</text>
<text text-anchor="middle" x="730.5" y="-217" font-family="Helvetica,sans-Serif" font-size="10.00">ToCorner_Vector</text>
</a>
</g>
</g>
<!-- Node1&#45;&gt;Node12 -->
<g id="edge15" class="edge">
<title>Node1&#45;&gt;Node12</title>
<path fill="none" stroke="midnightblue" d="M899.63,-443.29C892.49,-401.49 870.08,-303.39 811,-250 806.71,-246.12 801.81,-242.84 796.61,-240.07"/>
<polygon fill="midnightblue" stroke="midnightblue" points="896.19,-443.97 901.22,-453.29 903.1,-442.87 896.19,-443.97"/>
</g>
<!-- Node13 -->
<g id="node13" class="node">
<title>Node13</title>
<g id="a_node13"><a xlink:href="walkingsearch_8c.html#ae8ed9e0a01de5ee0f332170562b1f9ea" target="_top" xlink:title="Updates the cell indices based on the signed distances to each face.">
<polygon fill="none" stroke="black" points="656,-426 656,-456 805,-456 805,-426 656,-426"/>
<text text-anchor="start" x="664" y="-444" font-family="Helvetica,sans-Serif" font-size="10.00">UpdateCellIndicesBasedOn</text>
<text text-anchor="middle" x="730.5" y="-433" font-family="Helvetica,sans-Serif" font-size="10.00">DistancesTEST</text>
</a>
</g>
</g>
<!-- Node1&#45;&gt;Node13 -->
<g id="edge16" class="edge">
<title>Node1&#45;&gt;Node13</title>
<path fill="none" stroke="midnightblue" d="M836.78,-454.54C826.41,-453.21 815.63,-451.82 805.1,-450.47"/>
<polygon fill="midnightblue" stroke="midnightblue" points="836.62,-458.05 846.98,-455.86 837.51,-451.11 836.62,-458.05"/>
</g>
<!-- Node14 -->
<g id="node14" class="node">
<title>Node14</title>
<g id="a_node14"><a xlink:href="setup_8c.html#ad5f82951adcce74b3d37cb5880acf43a" target="_top" xlink:title="Updates the local vector (including ghost points) from its corresponding global vector.">
<polygon fill="none" stroke="black" points="675,-259.5 675,-278.5 786,-278.5 786,-259.5 675,-259.5"/>
<text text-anchor="middle" x="730.5" y="-266.5" font-family="Helvetica,sans-Serif" font-size="10.00">UpdateLocalGhosts</text>
</a>
</g>
</g>
<!-- Node1&#45;&gt;Node14 -->
<g id="edge18" class="edge">
<title>Node1&#45;&gt;Node14</title>
<path fill="none" stroke="midnightblue" d="M887.38,-445.84C852.49,-406.27 767.28,-309.6 740.03,-278.68"/>
<polygon fill="midnightblue" stroke="midnightblue" points="884.78,-448.19 894.02,-453.38 890.03,-443.56 884.78,-448.19"/>
</g>
<!-- Node3 -->
<g id="node3" class="node">
<title>Node3</title>
<g id="a_node3"><a xlink:href="ParticleSwarm_8c.html#ada215a5db25227a8fd2cd2596e7d3e57" target="_top" xlink:title="Perform particle swarm initialization, particle&#45;grid interaction, and related operations.">
<polygon fill="none" stroke="black" points="77,-534.5 77,-553.5 206,-553.5 206,-534.5 77,-534.5"/>
<text text-anchor="middle" x="141.5" y="-541.5" font-family="Helvetica,sans-Serif" font-size="10.00">InitializeParticleSwarm</text>
</a>
</g>
</g>
<!-- Node2&#45;&gt;Node3 -->
<g id="edge2" class="edge">
<title>Node2&#45;&gt;Node3</title>
<path fill="none" stroke="midnightblue" d="M660.74,-562.54C546.13,-558.44 317.66,-550.27 206.38,-546.29"/>
<polygon fill="midnightblue" stroke="midnightblue" points="660.68,-566.04 670.8,-562.9 660.93,-559.04 660.68,-566.04"/>
</g>
<!-- Node4 -->
<g id="node4" class="node">
<title>Node4</title>
<g id="a_node4"><a xlink:href="picsolver_8c.html#a3c04138a5bfe5d72780bb7e82a18e627" target="_top" xlink:title=" ">
<polygon fill="none" stroke="black" points="0,-433.5 0,-452.5 41,-452.5 41,-433.5 0,-433.5"/>
<text text-anchor="middle" x="20.5" y="-440.5" font-family="Helvetica,sans-Serif" font-size="10.00">main</text>
</a>
</g>
</g>
<!-- Node3&#45;&gt;Node4 -->
<g id="edge3" class="edge">
<title>Node3&#45;&gt;Node4</title>
<path fill="none" stroke="midnightblue" d="M116.28,-528.81C104.09,-520.77 89.32,-510.43 77,-500 59.08,-484.83 40.48,-464.67 30.01,-452.84"/>
<polygon fill="midnightblue" stroke="midnightblue" points="114.72,-531.97 125.02,-534.47 118.53,-526.09 114.72,-531.97"/>
</g>
<!-- Node6 -->
<g id="node6" class="node">
<title>Node6</title>
<g id="a_node6"><a xlink:href="walkingsearch_8c.html#a0b63dfe82e0fdee5c2c3bdd477f9901f" target="_top" xlink:title="Locates a particle&#39;s host cell or identifies its migration target using a robust walk search.">
<polygon fill="none" stroke="black" points="445.5,-469 445.5,-499 608.5,-499 608.5,-469 445.5,-469"/>
<text text-anchor="start" x="453.5" y="-487" font-family="Helvetica,sans-Serif" font-size="10.00">LocateParticleOrFindMigration</text>
<text text-anchor="middle" x="527" y="-476" font-family="Helvetica,sans-Serif" font-size="10.00">Target_TEST</text>
</a>
</g>
</g>
<!-- Node5&#45;&gt;Node6 -->
<g id="edge5" class="edge">
<title>Node5&#45;&gt;Node6</title>
<path fill="none" stroke="midnightblue" d="M652.66,-484.62C638.33,-484.55 623.31,-484.47 608.85,-484.4"/>
<polygon fill="midnightblue" stroke="midnightblue" points="652.95,-488.12 662.96,-484.67 652.98,-481.12 652.95,-488.12"/>
</g>
<!-- Node7 -->
<g id="node7" class="node">
<title>Node7</title>
<g id="a_node7"><a xlink:href="ParticleMotion_8c.html#a727054a4a467fd8504a19caed5a5916b" target="_top" xlink:title="Orchestrates the complete particle location and migration process for one timestep.">
<polygon fill="none" stroke="black" points="242,-471.5 242,-490.5 404,-490.5 404,-471.5 242,-471.5"/>
<text text-anchor="middle" x="323" y="-478.5" font-family="Helvetica,sans-Serif" font-size="10.00">LocateAllParticlesInGrid_TEST</text>
</a>
</g>
</g>
<!-- Node6&#45;&gt;Node7 -->
<g id="edge6" class="edge">
<title>Node6&#45;&gt;Node7</title>
<path fill="none" stroke="midnightblue" d="M435.08,-482.65C424.8,-482.5 414.38,-482.34 404.25,-482.19"/>
<polygon fill="midnightblue" stroke="midnightblue" points="435.24,-486.15 445.29,-482.8 435.35,-479.15 435.24,-486.15"/>
</g>
<!-- Node8 -->
<g id="node8" class="node">
<title>Node8</title>
<g id="a_node8"><a xlink:href="simulation_8c.html#a5cfb2f783604af7f20171d19f969d5d3" target="_top" xlink:title="Executes the main time&#45;marching loop for the coupled Euler&#45;Lagrange simulation.">
<polygon fill="none" stroke="black" points="86,-433.5 86,-452.5 197,-452.5 197,-433.5 86,-433.5"/>
<text text-anchor="middle" x="141.5" y="-440.5" font-family="Helvetica,sans-Serif" font-size="10.00">AdvanceSimulation</text>
</a>
</g>
</g>
<!-- Node7&#45;&gt;Node8 -->
<g id="edge7" class="edge">
<title>Node7&#45;&gt;Node8</title>
<path fill="none" stroke="midnightblue" d="M266.82,-469.32C241.37,-463.93 211.53,-457.61 187.47,-452.52"/>
<polygon fill="midnightblue" stroke="midnightblue" points="266.2,-472.76 276.7,-471.41 267.65,-465.92 266.2,-472.76"/>
</g>
<!-- Node9 -->
<g id="node9" class="node">
<title>Node9</title>
<g id="a_node9"><a xlink:href="simulation_8c.html#a4e2cad25ac1fbdc6745d6fd8fcc1bbc1" target="_top" xlink:title="Finalizes the simulation setup at t=0, ensuring a consistent state before time marching.">
<polygon fill="none" stroke="black" points="86,-471.5 86,-490.5 197,-490.5 197,-471.5 86,-471.5"/>
<text text-anchor="middle" x="141.5" y="-478.5" font-family="Helvetica,sans-Serif" font-size="10.00">PerformInitialSetup</text>
</a>
</g>
</g>
<!-- Node7&#45;&gt;Node9 -->
<g id="edge9" class="edge">
<title>Node7&#45;&gt;Node9</title>
<path fill="none" stroke="midnightblue" d="M231.63,-481C219.86,-481 208.09,-481 197.16,-481"/>
<polygon fill="midnightblue" stroke="midnightblue" points="231.96,-484.5 241.96,-481 231.96,-477.5 231.96,-484.5"/>
</g>
<!-- Node8&#45;&gt;Node4 -->
<g id="edge8" class="edge">
<title>Node8&#45;&gt;Node4</title>
<path fill="none" stroke="midnightblue" d="M75.73,-443C63.1,-443 50.8,-443 41.11,-443"/>
<polygon fill="midnightblue" stroke="midnightblue" points="75.88,-446.5 85.88,-443 75.88,-439.5 75.88,-446.5"/>
</g>
<!-- Node9&#45;&gt;Node4 -->
<g id="edge10" class="edge">
<title>Node9&#45;&gt;Node4</title>
<path fill="none" stroke="midnightblue" d="M97.78,-468.47C90.82,-466.35 83.7,-464.15 77,-462 65.07,-458.18 51.79,-453.64 41.22,-449.96"/>
<polygon fill="midnightblue" stroke="midnightblue" points="97.21,-471.95 107.79,-471.48 99.23,-465.25 97.21,-471.95"/>
</g>
<!-- Node11 -->
<g id="node11" class="node">
<title>Node11</title>
<g id="a_node11"><a xlink:href="interpolation_8c.html#a25d384c0bcf5426864f90ab568e37511" target="_top" xlink:title="Interpolates a cell&#45;centered field (scalar or vector) onto DMSwarm particles, converting the cell&#45;cen...">
<polygon fill="none" stroke="black" points="245.5,-509.5 245.5,-528.5 400.5,-528.5 400.5,-509.5 245.5,-509.5"/>
<text text-anchor="middle" x="323" y="-516.5" font-family="Helvetica,sans-Serif" font-size="10.00">InterpolateAllFieldsToSwarm</text>
</a>
</g>
</g>
<!-- Node10&#45;&gt;Node11 -->
<g id="edge12" class="edge">
<title>Node10&#45;&gt;Node11</title>
<path fill="none" stroke="midnightblue" d="M639.5,-524.45C567.84,-523.21 468.63,-521.5 400.7,-520.32"/>
<polygon fill="midnightblue" stroke="midnightblue" points="639.81,-527.95 649.87,-524.63 639.93,-520.95 639.81,-527.95"/>
</g>
<!-- Node11&#45;&gt;Node8 -->
<g id="edge13" class="edge">
<title>Node11&#45;&gt;Node8</title>
<path fill="none" stroke="midnightblue" d="M254.21,-505.93C249.97,-504.19 245.86,-502.23 242,-500 221.84,-488.38 225.81,-474.19 206,-462 199.73,-458.14 192.62,-455.02 185.49,-452.52"/>
<polygon fill="midnightblue" stroke="midnightblue" points="253.06,-509.23 263.65,-509.37 255.46,-502.65 253.06,-509.23"/>
</g>
<!-- Node11&#45;&gt;Node9 -->
<g id="edge14" class="edge">
<title>Node11&#45;&gt;Node9</title>
<path fill="none" stroke="midnightblue" d="M266.82,-507.32C241.37,-501.93 211.53,-495.61 187.47,-490.52"/>
<polygon fill="midnightblue" stroke="midnightblue" points="266.2,-510.76 276.7,-509.41 267.65,-503.92 266.2,-510.76"/>
</g>
<!-- Node13&#45;&gt;Node6 -->
<g id="edge17" class="edge">
<title>Node13&#45;&gt;Node6</title>
<path fill="none" stroke="midnightblue" d="M649.24,-458.13C632.44,-461.71 614.85,-465.47 598.44,-468.97"/>
<polygon fill="midnightblue" stroke="midnightblue" points="649.98,-461.55 659.03,-456.04 648.51,-454.7 649.98,-461.55"/>
</g>
<!-- Node15 -->
<g id="node15" class="node">
<title>Node15</title>
<g id="a_node15"><a xlink:href="Metric_8c.html#a436bb94905ee06971f632571f5bc8cbb" target="_top" xlink:title="Ensure a right&#45;handed metric basis (Csi, Eta, Zet) and a positive Jacobian (Aj) over the whole domain...">
<polygon fill="none" stroke="black" points="450,-164.5 450,-183.5 604,-183.5 604,-164.5 450,-164.5"/>
<text text-anchor="middle" x="527" y="-171.5" font-family="Helvetica,sans-Serif" font-size="10.00">CheckAndFixGridOrientation</text>
</a>
</g>
</g>
<!-- Node14&#45;&gt;Node15 -->
<g id="edge19" class="edge">
<title>Node14&#45;&gt;Node15</title>
<path fill="none" stroke="midnightblue" d="M665.49,-257.58C660,-255.23 654.74,-252.4 650,-249 625.97,-231.74 638.28,-209.91 614,-193 608.48,-189.15 602.32,-186.07 595.89,-183.6"/>
<polygon fill="midnightblue" stroke="midnightblue" points="664.31,-260.87 674.91,-261.09 666.76,-254.32 664.31,-260.87"/>
</g>
<!-- Node18 -->
<g id="node18" class="node">
<title>Node18</title>
<g id="a_node18"><a xlink:href="Metric_8c.html#a92d28e2f14645b0eb563144f4ccf2b49" target="_top" xlink:title="Calculates the cell&#45;centered inverse Jacobian determinant (1/J), including boundary extrapolation,...">
<polygon fill="none" stroke="black" points="444.5,-115 444.5,-145 609.5,-145 609.5,-115 444.5,-115"/>
<text text-anchor="start" x="452.5" y="-133" font-family="Helvetica,sans-Serif" font-size="10.00">ComputeCellCenteredJacobian</text>
<text text-anchor="middle" x="527" y="-122" font-family="Helvetica,sans-Serif" font-size="10.00">Inverse</text>
</a>
</g>
</g>
<!-- Node14&#45;&gt;Node18 -->
<g id="edge23" class="edge">
<title>Node14&#45;&gt;Node18</title>
<path fill="none" stroke="midnightblue" d="M665.2,-258.81C659.68,-256.21 654.5,-252.99 650,-249 616.54,-219.31 646.92,-185.3 614,-155 609.77,-151.1 604.96,-147.81 599.84,-145.03"/>
<polygon fill="midnightblue" stroke="midnightblue" points="664.15,-262.16 674.74,-262.6 666.74,-255.65 664.15,-262.16"/>
</g>
<!-- Node19 -->
<g id="node19" class="node">
<title>Node19</title>
<g id="a_node19"><a xlink:href="Metric_8c.html#a46e70c0ae8f36f97321c5c892fc56be5" target="_top" xlink:title="Computes the physical location of cell centers and the spacing between them.">
<polygon fill="none" stroke="black" points="440,-76.5 440,-95.5 614,-95.5 614,-76.5 440,-76.5"/>
<text text-anchor="middle" x="527" y="-83.5" font-family="Helvetica,sans-Serif" font-size="10.00">ComputeCellCentersAndSpacing</text>
</a>
</g>
</g>
<!-- Node14&#45;&gt;Node19 -->
<g id="edge25" class="edge">
<title>Node14&#45;&gt;Node19</title>
<path fill="none" stroke="midnightblue" d="M665.58,-259.8C659.83,-257.03 654.49,-253.49 650,-249 603.39,-202.32 661.29,-151 614,-105 610.16,-101.27 605.77,-98.2 601.04,-95.69"/>
<polygon fill="midnightblue" stroke="midnightblue" points="664.33,-263.07 674.91,-263.56 666.95,-256.58 664.33,-263.07"/>
</g>
<!-- Node20 -->
<g id="node20" class="node">
<title>Node20</title>
<g id="a_node20"><a xlink:href="Metric_8c.html#a6f0dfb324211e230a387501f93cfd316" target="_top" xlink:title="Computes the primary face metric components (Csi, Eta, Zet), including boundary extrapolation,...">
<polygon fill="none" stroke="black" points="467.5,-38.5 467.5,-57.5 586.5,-57.5 586.5,-38.5 467.5,-38.5"/>
<text text-anchor="middle" x="527" y="-45.5" font-family="Helvetica,sans-Serif" font-size="10.00">ComputeFaceMetrics</text>
</a>
</g>
</g>
<!-- Node14&#45;&gt;Node20 -->
<g id="edge27" class="edge">
<title>Node14&#45;&gt;Node20</title>
<path fill="none" stroke="midnightblue" d="M665.35,-260.03C659.64,-257.21 654.37,-253.6 650,-249 593.21,-189.22 671.66,-125.95 614,-67 606.62,-59.46 596.97,-54.6 586.82,-51.53"/>
<polygon fill="midnightblue" stroke="midnightblue" points="664.05,-263.28 674.63,-263.84 666.71,-256.8 664.05,-263.28"/>
</g>
<!-- Node21 -->
<g id="node21" class="node">
<title>Node21</title>
<g id="a_node21"><a xlink:href="Metric_8c.html#af935307ea3e9727a63b6ef9a3932caa8" target="_top" xlink:title="Computes metrics centered on constant&#45;i faces (i&#45;faces).">
<polygon fill="none" stroke="black" points="466,-0.5 466,-19.5 588,-19.5 588,-0.5 466,-0.5"/>
<text text-anchor="middle" x="527" y="-7.5" font-family="Helvetica,sans-Serif" font-size="10.00">ComputeIFaceMetrics</text>
</a>
</g>
</g>
<!-- Node14&#45;&gt;Node21 -->
<g id="edge29" class="edge">
<title>Node14&#45;&gt;Node21</title>
<path fill="none" stroke="midnightblue" d="M665.45,-260.3C659.67,-257.44 654.36,-253.74 650,-249 582.95,-176.05 682.1,-100.97 614,-29 607.06,-21.67 597.99,-16.86 588.34,-13.75"/>
<polygon fill="midnightblue" stroke="midnightblue" points="664.27,-263.6 674.85,-264.15 666.92,-257.12 664.27,-263.6"/>
</g>
<!-- Node22 -->
<g id="node22" class="node">
<title>Node22</title>
<g id="a_node22"><a xlink:href="Metric_8c.html#a4ecbe44ffb23d82193f9278ab61c1b47" target="_top" xlink:title="Computes metrics centered on constant&#45;j faces (j&#45;faces).">
<polygon fill="none" stroke="black" points="466,-240.5 466,-259.5 588,-259.5 588,-240.5 466,-240.5"/>
<text text-anchor="middle" x="527" y="-247.5" font-family="Helvetica,sans-Serif" font-size="10.00">ComputeJFaceMetrics</text>
</a>
</g>
</g>
<!-- Node14&#45;&gt;Node22 -->
<g id="edge31" class="edge">
<title>Node14&#45;&gt;Node22</title>
<path fill="none" stroke="midnightblue" d="M665.01,-262.92C640.39,-260.6 612.45,-257.96 588.25,-255.68"/>
<polygon fill="midnightblue" stroke="midnightblue" points="664.69,-266.4 674.97,-263.86 665.34,-259.43 664.69,-266.4"/>
</g>
<!-- Node23 -->
<g id="node23" class="node">
<title>Node23</title>
<g id="a_node23"><a xlink:href="Metric_8c.html#a95e22e5238b2cd02b992366766730687" target="_top" xlink:title="Computes metrics centered on constant&#45;k faces (k&#45;faces).">
<polygon fill="none" stroke="black" points="464,-202.5 464,-221.5 590,-221.5 590,-202.5 464,-202.5"/>
<text text-anchor="middle" x="527" y="-209.5" font-family="Helvetica,sans-Serif" font-size="10.00">ComputeKFaceMetrics</text>
</a>
</g>
</g>
<!-- Node14&#45;&gt;Node23 -->
<g id="edge33" class="edge">
<title>Node14&#45;&gt;Node23</title>
<path fill="none" stroke="midnightblue" d="M674.68,-256.88C666.32,-254.55 657.86,-251.92 650,-249 633.23,-242.78 630.86,-236.97 614,-231 603.48,-227.27 591.97,-224.12 580.88,-221.53"/>
<polygon fill="midnightblue" stroke="midnightblue" points="673.85,-260.28 684.41,-259.46 675.65,-253.51 673.85,-260.28"/>
</g>
<!-- Node24 -->
<g id="node24" class="node">
<title>Node24</title>
<g id="a_node24"><a xlink:href="initialcondition_8c.html#af6a26611066aa455efddcca2fd80fe35" target="_top" xlink:title="(HELPER) Finalizes a block&#39;s state by applying BCs, converting to Cartesian, and synchronizing ghost ...">
<polygon fill="none" stroke="black" points="474,-316.5 474,-335.5 580,-335.5 580,-316.5 474,-316.5"/>
<text text-anchor="middle" x="527" y="-323.5" font-family="Helvetica,sans-Serif" font-size="10.00">FinalizeBlockState</text>
</a>
</g>
</g>
<!-- Node14&#45;&gt;Node24 -->
<g id="edge35" class="edge">
<title>Node14&#45;&gt;Node24</title>
<path fill="none" stroke="midnightblue" d="M686.79,-281.27C665.01,-287.51 638.1,-295.19 614,-302 596.99,-306.8 578.08,-312.09 562.33,-316.47"/>
<polygon fill="midnightblue" stroke="midnightblue" points="687.76,-284.63 696.41,-278.51 685.83,-277.9 687.76,-284.63"/>
</g>
<!-- Node25 -->
<g id="node25" class="node">
<title>Node25</title>
<g id="a_node25"><a xlink:href="initialcondition_8c.html#a51d0251f84a962a611ff0c0a8797a3e4" target="_top" xlink:title="(HELPER) Sets the t=0 fluid state for all blocks.">
<polygon fill="none" stroke="black" points="268,-342 268,-372 378,-372 378,-342 268,-342"/>
<text text-anchor="start" x="276" y="-360" font-family="Helvetica,sans-Serif" font-size="10.00">SetInitialFluidState</text>
<text text-anchor="middle" x="323" y="-349" font-family="Helvetica,sans-Serif" font-size="10.00">_FreshStart</text>
</a>
</g>
</g>
<!-- Node14&#45;&gt;Node25 -->
<g id="edge41" class="edge">
<title>Node14&#45;&gt;Node25</title>
<path fill="none" stroke="midnightblue" d="M711.44,-285.47C690.01,-303.86 652.32,-332.65 614,-345 534.98,-370.46 437.56,-368.12 378.15,-363.22"/>
<polygon fill="midnightblue" stroke="midnightblue" points="713.88,-287.99 719.08,-278.76 709.26,-282.73 713.88,-287.99"/>
</g>
<!-- Node27 -->
<g id="node27" class="node">
<title>Node27</title>
<g id="a_node27"><a xlink:href="solvers_8c.html#a2ed4825273a593f371a3d48071708255" target="_top" xlink:title="Orchestrates a single time step of the Eulerian fluid solver.">
<polygon fill="none" stroke="black" points="285,-430.5 285,-449.5 361,-449.5 361,-430.5 285,-430.5"/>
<text text-anchor="middle" x="323" y="-437.5" font-family="Helvetica,sans-Serif" font-size="10.00">Flow_Solver</text>
</a>
</g>
</g>
<!-- Node14&#45;&gt;Node27 -->
<g id="edge39" class="edge">
<title>Node14&#45;&gt;Node27</title>
<path fill="none" stroke="midnightblue" d="M714.72,-286.32C694.37,-309.04 655.5,-348.51 614,-370 569.84,-392.86 428.8,-420.8 361.03,-433.35"/>
<polygon fill="midnightblue" stroke="midnightblue" points="717.38,-288.6 721.35,-278.78 712.12,-283.98 717.38,-288.6"/>
</g>
<!-- Node28 -->
<g id="node28" class="node">
<title>Node28</title>
<g id="a_node28"><a xlink:href="initialcondition_8c.html#aff0951526ed36a87e2745da0154a68e5" target="_top" xlink:title="(HELPER) Reads fluid state for all blocks from restart files.">
<polygon fill="none" stroke="black" points="268,-280 268,-310 378,-310 378,-280 268,-280"/>
<text text-anchor="start" x="276" y="-298" font-family="Helvetica,sans-Serif" font-size="10.00">SetInitialFluidState</text>
<text text-anchor="middle" x="323" y="-287" font-family="Helvetica,sans-Serif" font-size="10.00">_Restart</text>
</a>
</g>
</g>
<!-- Node14&#45;&gt;Node28 -->
<g id="edge42" class="edge">
<title>Node14&#45;&gt;Node28</title>
<path fill="none" stroke="midnightblue" d="M664.45,-273.17C585.05,-278.26 452.23,-286.78 378.14,-291.53"/>
<polygon fill="midnightblue" stroke="midnightblue" points="665.06,-276.64 674.81,-272.51 664.61,-269.65 665.06,-276.64"/>
</g>
<!-- Node29 -->
<g id="node29" class="node">
<title>Node29</title>
<g id="a_node29"><a xlink:href="poisson_8c.html#a7cf2cfc0383ba0076f827f7d3856f2ed" target="_top" xlink:title="Updates the pressure field and handles periodic boundary conditions.">
<polygon fill="none" stroke="black" points="480,-430.5 480,-449.5 574,-449.5 574,-430.5 480,-430.5"/>
<text text-anchor="middle" x="527" y="-437.5" font-family="Helvetica,sans-Serif" font-size="10.00">UpdatePressure</text>
</a>
</g>
</g>
<!-- Node14&#45;&gt;Node29 -->
<g id="edge44" class="edge">
<title>Node14&#45;&gt;Node29</title>
<path fill="none" stroke="midnightblue" d="M720.04,-287.59C703.12,-318.94 664.67,-382.19 614,-416 602.14,-423.92 587.69,-429.24 574.06,-432.82"/>
<polygon fill="midnightblue" stroke="midnightblue" points="723.21,-289.09 724.76,-278.61 717.01,-285.83 723.21,-289.09"/>
</g>
<!-- Node16 -->
<g id="node16" class="node">
<title>Node16</title>
<g id="a_node16"><a xlink:href="Metric_8c.html#a063043da47b68702c78c7e0769325b36" target="_top" xlink:title="Orchestrates the calculation of all grid metrics.">
<polygon fill="none" stroke="black" points="257.5,-142.5 257.5,-161.5 388.5,-161.5 388.5,-142.5 257.5,-142.5"/>
<text text-anchor="middle" x="323" y="-149.5" font-family="Helvetica,sans-Serif" font-size="10.00">CalculateAllGridMetrics</text>
</a>
</g>
</g>
<!-- Node15&#45;&gt;Node16 -->
<g id="edge20" class="edge">
<title>Node15&#45;&gt;Node16</title>
<path fill="none" stroke="midnightblue" d="M439.91,-164.62C422.78,-162.76 405.06,-160.83 388.78,-159.06"/>
<polygon fill="midnightblue" stroke="midnightblue" points="439.6,-168.11 449.92,-165.71 440.36,-161.15 439.6,-168.11"/>
</g>
<!-- Node17 -->
<g id="node17" class="node">
<title>Node17</title>
<g id="a_node17"><a xlink:href="setup_8c.html#a2be2815aeb79afe9b95caf39c7b3312c" target="_top" xlink:title="The main orchestrator for setting up all grid&#45;related components.">
<polygon fill="none" stroke="black" points="82,-222.5 82,-241.5 201,-241.5 201,-222.5 82,-222.5"/>
<text text-anchor="middle" x="141.5" y="-229.5" font-family="Helvetica,sans-Serif" font-size="10.00">SetupGridAndSolvers</text>
</a>
</g>
</g>
<!-- Node16&#45;&gt;Node17 -->
<g id="edge21" class="edge">
<title>Node16&#45;&gt;Node17</title>
<path fill="none" stroke="midnightblue" d="M291.21,-165.72C254.93,-181.89 195.59,-208.34 163.95,-222.44"/>
<polygon fill="midnightblue" stroke="midnightblue" points="292.64,-168.92 300.35,-161.65 289.79,-162.52 292.64,-168.92"/>
</g>
<!-- Node17&#45;&gt;Node4 -->
<g id="edge22" class="edge">
<title>Node17&#45;&gt;Node4</title>
<path fill="none" stroke="midnightblue" d="M129.27,-250.07C116.34,-271.03 94.62,-306.72 77,-338 57.47,-372.67 35.84,-414.74 26.38,-433.35"/>
<polygon fill="midnightblue" stroke="midnightblue" points="132.26,-251.89 134.55,-241.55 126.31,-248.21 132.26,-251.89"/>
</g>
<!-- Node18&#45;&gt;Node16 -->
<g id="edge24" class="edge">
<title>Node18&#45;&gt;Node16</title>
<path fill="none" stroke="midnightblue" d="M434.37,-139.98C419,-141.65 403.33,-143.36 388.81,-144.94"/>
<polygon fill="midnightblue" stroke="midnightblue" points="434.86,-143.45 444.42,-138.88 434.1,-136.49 434.86,-143.45"/>
</g>
<!-- Node19&#45;&gt;Node16 -->
<g id="edge26" class="edge">
<title>Node19&#45;&gt;Node16</title>
<path fill="none" stroke="midnightblue" d="M466.16,-97.86C457.33,-100.01 448.38,-102.4 440,-105 405.76,-115.64 367.47,-132.09 344.57,-142.44"/>
<polygon fill="midnightblue" stroke="midnightblue" points="467.12,-101.23 476.06,-95.55 465.52,-94.42 467.12,-101.23"/>
</g>
<!-- Node20&#45;&gt;Node16 -->
<g id="edge28" class="edge">
<title>Node20&#45;&gt;Node16</title>
<path fill="none" stroke="midnightblue" d="M457.13,-60.5C451.23,-62.38 445.44,-64.54 440,-67 396.33,-86.76 352.91,-124.69 333.94,-142.42"/>
<polygon fill="midnightblue" stroke="midnightblue" points="458.5,-63.75 467.11,-57.58 456.53,-57.03 458.5,-63.75"/>
</g>
<!-- Node21&#45;&gt;Node16 -->
<g id="edge30" class="edge">
<title>Node21&#45;&gt;Node16</title>
<path fill="none" stroke="midnightblue" d="M456.31,-21.56C450.63,-23.64 445.11,-26.1 440,-29 387.92,-58.55 345.18,-119.11 329.97,-142.49"/>
<polygon fill="midnightblue" stroke="midnightblue" points="457.57,-24.83 465.99,-18.4 455.4,-18.18 457.57,-24.83"/>
</g>
<!-- Node22&#45;&gt;Node16 -->
<g id="edge32" class="edge">
<title>Node22&#45;&gt;Node16</title>
<path fill="none" stroke="midnightblue" d="M458.25,-237.61C451.98,-235.7 445.8,-233.51 440,-231 397.72,-212.74 354.64,-178.38 334.99,-161.65"/>
<polygon fill="midnightblue" stroke="midnightblue" points="457.57,-241.06 468.14,-240.4 459.46,-234.32 457.57,-241.06"/>
</g>
<!-- Node23&#45;&gt;Node16 -->
<g id="edge34" class="edge">
<title>Node23&#45;&gt;Node16</title>
<path fill="none" stroke="midnightblue" d="M468.21,-200.25C458.73,-198.03 449.06,-195.59 440,-193 407.76,-183.78 371.43,-170.45 348.16,-161.51"/>
<polygon fill="midnightblue" stroke="midnightblue" points="467.45,-203.67 477.98,-202.48 469,-196.84 467.45,-203.67"/>
</g>
<!-- Node24&#45;&gt;Node25 -->
<g id="edge36" class="edge">
<title>Node24&#45;&gt;Node25</title>
<path fill="none" stroke="midnightblue" d="M463.75,-335.55C436.43,-339.75 404.66,-344.62 378.31,-348.66"/>
<polygon fill="midnightblue" stroke="midnightblue" points="464.63,-338.96 473.98,-333.98 463.56,-332.04 464.63,-338.96"/>
</g>
<!-- Node26 -->
<g id="node26" class="node">
<title>Node26</title>
<g id="a_node26"><a xlink:href="initialcondition_8c.html#ad0dd7d3f2528b6a7802fcd551e88ea99" target="_top" xlink:title="High&#45;level orchestrator to set the complete initial state of the Eulerian solver.">
<polygon fill="none" stroke="black" points="79.5,-347.5 79.5,-366.5 203.5,-366.5 203.5,-347.5 79.5,-347.5"/>
<text text-anchor="middle" x="141.5" y="-354.5" font-family="Helvetica,sans-Serif" font-size="10.00">InitializeEulerianState</text>
</a>
</g>
</g>
<!-- Node25&#45;&gt;Node26 -->
<g id="edge37" class="edge">
<title>Node25&#45;&gt;Node26</title>
<path fill="none" stroke="midnightblue" d="M257.49,-357C239.92,-357 220.94,-357 203.56,-357"/>
<polygon fill="midnightblue" stroke="midnightblue" points="257.66,-360.5 267.66,-357 257.66,-353.5 257.66,-360.5"/>
</g>
<!-- Node26&#45;&gt;Node4 -->
<g id="edge38" class="edge">
<title>Node26&#45;&gt;Node4</title>
<path fill="none" stroke="midnightblue" d="M119.01,-372.53C94.49,-390.25 55.16,-418.68 34.75,-433.43"/>
<polygon fill="midnightblue" stroke="midnightblue" points="121.26,-375.23 127.31,-366.53 117.16,-369.55 121.26,-375.23"/>
</g>
<!-- Node27&#45;&gt;Node8 -->
<g id="edge40" class="edge">
<title>Node27&#45;&gt;Node8</title>
<path fill="none" stroke="midnightblue" d="M274.6,-440.79C250.77,-441.19 221.77,-441.68 197.02,-442.09"/>
<polygon fill="midnightblue" stroke="midnightblue" points="274.87,-444.29 284.81,-440.62 274.75,-437.29 274.87,-444.29"/>
</g>
<!-- Node28&#45;&gt;Node26 -->
<g id="edge43" class="edge">
<title>Node28&#45;&gt;Node26</title>
<path fill="none" stroke="midnightblue" d="M268.77,-313.39C236.4,-324.57 196.39,-338.39 170.19,-347.43"/>
<polygon fill="midnightblue" stroke="midnightblue" points="270.24,-316.58 278.55,-310.01 267.95,-309.97 270.24,-316.58"/>
</g>
<!-- Node29&#45;&gt;Node27 -->
<g id="edge45" class="edge">
<title>Node29&#45;&gt;Node27</title>
<path fill="none" stroke="midnightblue" d="M469.91,-440C435.19,-440 391.58,-440 361.12,-440"/>
<polygon fill="midnightblue" stroke="midnightblue" points="469.91,-443.5 479.91,-440 469.91,-436.5 469.91,-443.5"/>
</g>
</g>
</svg>
