<?xml version="1.0" encoding="UTF-8" standalone="no"?>
<!DOCTYPE svg PUBLIC "-//W3C//DTD SVG 1.1//EN"
 "http://www.w3.org/Graphics/SVG/1.1/DTD/svg11.dtd">
<!-- Generated by graphviz version 2.43.0 (0)
 -->
<!-- Title: get_log_level Pages: 1 -->
<!--zoomable 823 -->
<svg id="main" version="1.1" xmlns="http://www.w3.org/2000/svg" xmlns:xlink="http://www.w3.org/1999/xlink" xml:space="preserve" onload="init(evt)">
<style type="text/css"><![CDATA[
.edge:hover path { stroke: red; }
.edge:hover polygon { stroke: red; fill: red; }
]]></style>
<script type="text/javascript"><![CDATA[
var edges = document.getElementsByTagName('g');
if (edges && edges.length) {
  for (var i=0;i<edges.length;i++) {
    if (edges[i].id.substr(0,4)=='edge') {
      edges[i].setAttribute('class','edge');
    }
  }
}
]]></script>
        <defs>
                <circle id="rim" cx="0" cy="0" r="7"/>
                <circle id="rim2" cx="0" cy="0" r="3.5"/>
                <g id="zoomPlus">
                        <use xlink:href="#rim" fill="#404040">
                                <set attributeName="fill" to="#808080" begin="zoomplus.mouseover" end="zoomplus.mouseout"/>
                        </use>
                        <path d="M-4,0h8M0,-4v8" fill="none" stroke="white" stroke-width="1.5" pointer-events="none"/>
                </g>
                <g id="zoomMin">
                        <use xlink:href="#rim" fill="#404040">
                                <set attributeName="fill" to="#808080" begin="zoomminus.mouseover" end="zoomminus.mouseout"/>
                        </use>
                        <path d="M-4,0h8" fill="none" stroke="white" stroke-width="1.5" pointer-events="none"/>
                </g>
                <g id="dirArrow">
                        <path fill="none" stroke="white" stroke-width="1.5" d="M0,-3.0v7 M-2.5,-0.5L0,-3.0L2.5,-0.5"/>
                </g>
               <g id="resetDef">
                       <use xlink:href="#rim2" fill="#404040">
                               <set attributeName="fill" to="#808080" begin="reset.mouseover" end="reset.mouseout"/>
                       </use>
               </g>
        </defs>

<script type="text/javascript">
var viewWidth = 948;
var viewHeight = 823;
var sectionId = 'dynsection-11';
</script>
<script xlink:href="svgpan.js"/>
<svg id="graph" class="graph">
<g id="viewport">
<title>get_log_level</title>
<!-- Node1 -->
<g id="node1" class="node">
<title>Node1</title>
<g id="a_node1"><a xlink:title="Retrieves the current logging level from the environment variable LOG_LEVEL.">
<polygon fill="#bfbfbf" stroke="black" points="858,-284 858,-303 940,-303 940,-284 858,-284"/>
<text text-anchor="middle" x="899" y="-291" font-family="Helvetica,sans-Serif" font-size="10.00">get_log_level</text>
</a>
</g>
</g>
<!-- Node2 -->
<g id="node2" class="node">
<title>Node2</title>
<g id="a_node2"><a xlink:href="simulation_8c.html#a5cfb2f783604af7f20171d19f969d5d3" target="_top" xlink:title="Executes the main time&#45;marching loop for the coupled Euler&#45;Lagrange simulation.">
<polygon fill="none" stroke="black" points="91.5,-670 91.5,-689 202.5,-689 202.5,-670 91.5,-670"/>
<text text-anchor="middle" x="147" y="-677" font-family="Helvetica,sans-Serif" font-size="10.00">AdvanceSimulation</text>
</a>
</g>
</g>
<!-- Node1&#45;&gt;Node2 -->
<g id="edge1" class="edge">
<title>Node1&#45;&gt;Node2</title>
<path fill="none" stroke="midnightblue" d="M891.09,-312.97C866.87,-377.79 778.85,-586.37 625,-660.5 551.92,-695.71 311.71,-688.18 202.68,-682.69"/>
<polygon fill="midnightblue" stroke="midnightblue" points="894.51,-313.81 894.65,-303.22 887.93,-311.41 894.51,-313.81"/>
</g>
<!-- Node4 -->
<g id="node4" class="node">
<title>Node4</title>
<g id="a_node4"><a xlink:href="setup_8c.html#acf739211501f0646c25ceb99a68a1163" target="_top" xlink:title="Allocates the memory for the UserMG and UserCtx hierarchy.">
<polygon fill="none" stroke="black" points="263,-170 263,-189 405,-189 405,-170 263,-170"/>
<text text-anchor="middle" x="334" y="-177" font-family="Helvetica,sans-Serif" font-size="10.00">AllocateContextHierarchy</text>
</a>
</g>
</g>
<!-- Node1&#45;&gt;Node4 -->
<g id="edge3" class="edge">
<title>Node1&#45;&gt;Node4</title>
<path fill="none" stroke="midnightblue" d="M889.14,-274.71C877.33,-252.03 854.12,-214.78 822,-197.5 673.55,-117.62 461.17,-151.18 374.3,-169.99"/>
<polygon fill="midnightblue" stroke="midnightblue" points="886.03,-276.33 893.63,-283.71 892.3,-273.2 886.03,-276.33"/>
</g>
<!-- Node6 -->
<g id="node6" class="node">
<title>Node6</title>
<g id="a_node6"><a xlink:href="ParticleSwarm_8c.html#a063f4fd13a24b248fabd0268c49fd38c" target="_top" xlink:title="Creates and initializes a Particle Swarm.">
<polygon fill="none" stroke="black" points="682,-88 682,-107 801,-107 801,-88 682,-88"/>
<text text-anchor="middle" x="741.5" y="-95" font-family="Helvetica,sans-Serif" font-size="10.00">CreateParticleSwarm</text>
</a>
</g>
</g>
<!-- Node1&#45;&gt;Node6 -->
<g id="edge6" class="edge">
<title>Node1&#45;&gt;Node6</title>
<path fill="none" stroke="midnightblue" d="M894.76,-273.51C887.91,-237.74 868.57,-162.67 822,-121.5 814.87,-115.2 806.13,-110.55 797.09,-107.12"/>
<polygon fill="midnightblue" stroke="midnightblue" points="891.37,-274.42 896.56,-283.65 898.26,-273.2 891.37,-274.42"/>
</g>
<!-- Node8 -->
<g id="node8" class="node">
<title>Node8</title>
<g id="a_node8"><a xlink:href="walkingsearch_8c.html#a556871801ba0b3214285a2ca1fe622ac" target="_top" xlink:title="Determines the spatial relationship of a particle relative to a cubic cell.">
<polygon fill="none" stroke="black" points="674,-746 674,-765 809,-765 809,-746 674,-746"/>
<text text-anchor="middle" x="741.5" y="-753" font-family="Helvetica,sans-Serif" font-size="10.00">EvaluateParticlePosition</text>
</a>
</g>
</g>
<!-- Node1&#45;&gt;Node8 -->
<g id="edge9" class="edge">
<title>Node1&#45;&gt;Node8</title>
<path fill="none" stroke="midnightblue" d="M897.4,-313.39C894.66,-391.22 880.75,-673.82 822,-736.5 818.31,-740.43 813.97,-743.62 809.24,-746.19"/>
<polygon fill="midnightblue" stroke="midnightblue" points="900.91,-313.19 897.74,-303.09 893.92,-312.96 900.91,-313.19"/>
</g>
<!-- Node12 -->
<g id="node12" class="node">
<title>Node12</title>
<g id="a_node12"><a xlink:href="grid_8c.html#aa0b95ab3ac28c8df985e38b888c9bb52" target="_top" xlink:title="Orchestrates the creation of DMDA objects for every block and multigrid level.">
<polygon fill="none" stroke="black" points="277.5,-208 277.5,-227 390.5,-227 390.5,-208 277.5,-208"/>
<text text-anchor="middle" x="334" y="-215" font-family="Helvetica,sans-Serif" font-size="10.00">InitializeAllGridDMs</text>
</a>
</g>
</g>
<!-- Node1&#45;&gt;Node12 -->
<g id="edge15" class="edge">
<title>Node1&#45;&gt;Node12</title>
<path fill="none" stroke="midnightblue" d="M870.28,-279.47C821.96,-255.89 718.54,-209.25 625,-192.5 548.88,-178.87 527.9,-184.31 451,-192.5 436.46,-194.05 402.36,-201.57 374.87,-207.96"/>
<polygon fill="midnightblue" stroke="midnightblue" points="868.94,-282.71 879.46,-284 872.04,-276.43 868.94,-282.71"/>
</g>
<!-- Node13 -->
<g id="node13" class="node">
<title>Node13</title>
<g id="a_node13"><a xlink:href="interpolation_8c.html#ad200d31b74c511e4388b757fb0359001" target="_top" xlink:title="Interpolates a cell&#45;centered field (scalar or vector) onto DMSwarm particles, using a robust,...">
<polygon fill="none" stroke="black" points="661,-708 661,-727 822,-727 822,-708 661,-708"/>
<text text-anchor="middle" x="741.5" y="-715" font-family="Helvetica,sans-Serif" font-size="10.00">InterpolateEulerFieldToSwarm</text>
</a>
</g>
</g>
<!-- Node1&#45;&gt;Node13 -->
<g id="edge17" class="edge">
<title>Node1&#45;&gt;Node13</title>
<path fill="none" stroke="midnightblue" d="M896.9,-313.22C892.47,-385.7 873.61,-636.14 822,-693.5 816.31,-699.82 809.02,-704.51 801.17,-707.97"/>
<polygon fill="midnightblue" stroke="midnightblue" points="900.4,-313.36 897.49,-303.17 893.41,-312.95 900.4,-313.36"/>
</g>
<!-- Node15 -->
<g id="node15" class="node">
<title>Node15</title>
<g id="a_node15"><a xlink:href="interpolation_8c.html#a8e20ad6b773e06f8cc29773322297095" target="_top" xlink:title="Interpolates a vector field from cell centers to corner nodes.">
<polygon fill="none" stroke="black" points="667,-0.5 667,-30.5 816,-30.5 816,-0.5 667,-0.5"/>
<text text-anchor="start" x="675" y="-18.5" font-family="Helvetica,sans-Serif" font-size="10.00">InterpolateFieldFromCenter</text>
<text text-anchor="middle" x="741.5" y="-7.5" font-family="Helvetica,sans-Serif" font-size="10.00">ToCorner_Vector</text>
</a>
</g>
</g>
<!-- Node1&#45;&gt;Node15 -->
<g id="edge21" class="edge">
<title>Node1&#45;&gt;Node15</title>
<path fill="none" stroke="midnightblue" d="M897.98,-273.82C896.85,-226.76 887.34,-106.68 822,-40.5 818.24,-36.69 813.9,-33.46 809.24,-30.72"/>
<polygon fill="midnightblue" stroke="midnightblue" points="894.48,-273.95 898.12,-283.91 901.48,-273.86 894.48,-273.95"/>
</g>
<!-- Node16 -->
<g id="node16" class="node">
<title>Node16</title>
<g id="a_node16"><a xlink:href="logging_8c.html#a4d4a385a6fac09d0e106eeb2dfde18ba" target="_top" xlink:title="Prints the current logging level to the console.">
<polygon fill="none" stroke="black" points="697,-50 697,-69 786,-69 786,-50 697,-50"/>
<text text-anchor="middle" x="741.5" y="-57" font-family="Helvetica,sans-Serif" font-size="10.00">print_log_level</text>
</a>
</g>
</g>
<!-- Node1&#45;&gt;Node16 -->
<g id="edge22" class="edge">
<title>Node1&#45;&gt;Node16</title>
<path fill="none" stroke="midnightblue" d="M897.03,-273.38C893.85,-230.73 880.22,-130.9 822,-78.5 812.19,-69.67 799.02,-64.75 786.22,-62.06"/>
<polygon fill="midnightblue" stroke="midnightblue" points="893.55,-273.82 897.67,-283.58 900.54,-273.38 893.55,-273.82"/>
</g>
<!-- Node18 -->
<g id="node18" class="node">
<title>Node18</title>
<g id="a_node18"><a xlink:href="walkingsearch_8c.html#ae8ed9e0a01de5ee0f332170562b1f9ea" target="_top" xlink:title="Updates the cell indices based on the signed distances to each face.">
<polygon fill="none" stroke="black" points="667,-784.5 667,-814.5 816,-814.5 816,-784.5 667,-784.5"/>
<text text-anchor="start" x="675" y="-802.5" font-family="Helvetica,sans-Serif" font-size="10.00">UpdateCellIndicesBasedOn</text>
<text text-anchor="middle" x="741.5" y="-791.5" font-family="Helvetica,sans-Serif" font-size="10.00">DistancesTEST</text>
</a>
</g>
</g>
<!-- Node1&#45;&gt;Node18 -->
<g id="edge25" class="edge">
<title>Node1&#45;&gt;Node18</title>
<path fill="none" stroke="midnightblue" d="M897.56,-313.38C895.38,-395.01 883.16,-703.55 822,-774.5 818.69,-778.34 814.81,-781.59 810.56,-784.35"/>
<polygon fill="midnightblue" stroke="midnightblue" points="901.07,-313.12 897.82,-303.03 894.07,-312.94 901.07,-313.12"/>
</g>
<!-- Node19 -->
<g id="node19" class="node">
<title>Node19</title>
<g id="a_node19"><a xlink:href="setup_8c.html#ad5f82951adcce74b3d37cb5880acf43a" target="_top" xlink:title="Updates the local vector (including ghost points) from its corresponding global vector.">
<polygon fill="none" stroke="black" points="686,-404 686,-423 797,-423 797,-404 686,-404"/>
<text text-anchor="middle" x="741.5" y="-411" font-family="Helvetica,sans-Serif" font-size="10.00">UpdateLocalGhosts</text>
</a>
</g>
</g>
<!-- Node1&#45;&gt;Node19 -->
<g id="edge27" class="edge">
<title>Node1&#45;&gt;Node19</title>
<path fill="none" stroke="midnightblue" d="M877.55,-309.28C844.86,-334.51 781.8,-383.17 755.02,-403.84"/>
<polygon fill="midnightblue" stroke="midnightblue" points="879.76,-312 885.54,-303.12 875.48,-306.46 879.76,-312"/>
</g>
<!-- Node3 -->
<g id="node3" class="node">
<title>Node3</title>
<g id="a_node3"><a xlink:href="picsolver_8c.html#a3c04138a5bfe5d72780bb7e82a18e627" target="_top" xlink:title=" ">
<polygon fill="none" stroke="black" points="0,-407 0,-426 41,-426 41,-407 0,-407"/>
<text text-anchor="middle" x="20.5" y="-414" font-family="Helvetica,sans-Serif" font-size="10.00">main</text>
</a>
</g>
</g>
<!-- Node2&#45;&gt;Node3 -->
<g id="edge2" class="edge">
<title>Node2&#45;&gt;Node3</title>
<path fill="none" stroke="midnightblue" d="M137.12,-660.75C112.6,-608.94 44.5,-465.08 26.12,-426.26"/>
<polygon fill="midnightblue" stroke="midnightblue" points="133.98,-662.29 141.42,-669.83 140.31,-659.29 133.98,-662.29"/>
</g>
<!-- Node5 -->
<g id="node5" class="node">
<title>Node5</title>
<g id="a_node5"><a xlink:href="setup_8c.html#a2be2815aeb79afe9b95caf39c7b3312c" target="_top" xlink:title="The main orchestrator for setting up all grid&#45;related components.">
<polygon fill="none" stroke="black" points="87.5,-249 87.5,-268 206.5,-268 206.5,-249 87.5,-249"/>
<text text-anchor="middle" x="147" y="-256" font-family="Helvetica,sans-Serif" font-size="10.00">SetupGridAndSolvers</text>
</a>
</g>
</g>
<!-- Node4&#45;&gt;Node5 -->
<g id="edge4" class="edge">
<title>Node4&#45;&gt;Node5</title>
<path fill="none" stroke="midnightblue" d="M267.38,-192.23C262.4,-194.05 257.55,-196.13 253,-198.5 234.01,-208.38 235.18,-219.2 217,-230.5 204.92,-238.01 190.48,-244.23 177.94,-248.89"/>
<polygon fill="midnightblue" stroke="midnightblue" points="268.67,-195.49 277.06,-189.03 266.47,-188.84 268.67,-195.49"/>
</g>
<!-- Node5&#45;&gt;Node3 -->
<g id="edge5" class="edge">
<title>Node5&#45;&gt;Node3</title>
<path fill="none" stroke="midnightblue" d="M131.91,-276.38C105.6,-309.77 49.81,-380.58 29.29,-406.62"/>
<polygon fill="midnightblue" stroke="midnightblue" points="134.77,-278.4 138.21,-268.38 129.27,-274.07 134.77,-278.4"/>
</g>
<!-- Node7 -->
<g id="node7" class="node">
<title>Node7</title>
<g id="a_node7"><a xlink:href="ParticleSwarm_8c.html#ada215a5db25227a8fd2cd2596e7d3e57" target="_top" xlink:title="Perform particle swarm initialization, particle&#45;grid interaction, and related operations.">
<polygon fill="none" stroke="black" points="82.5,-202 82.5,-221 211.5,-221 211.5,-202 82.5,-202"/>
<text text-anchor="middle" x="147" y="-209" font-family="Helvetica,sans-Serif" font-size="10.00">InitializeParticleSwarm</text>
</a>
</g>
</g>
<!-- Node6&#45;&gt;Node7 -->
<g id="edge7" class="edge">
<title>Node6&#45;&gt;Node7</title>
<path fill="none" stroke="midnightblue" d="M671.7,-99.42C575.95,-103.65 397.97,-117.19 253,-160.5 219.6,-170.48 183.68,-190.07 163.71,-201.85"/>
<polygon fill="midnightblue" stroke="midnightblue" points="671.99,-102.91 681.83,-98.99 671.69,-95.92 671.99,-102.91"/>
</g>
<!-- Node7&#45;&gt;Node3 -->
<g id="edge8" class="edge">
<title>Node7&#45;&gt;Node3</title>
<path fill="none" stroke="midnightblue" d="M96.5,-225.24C89.25,-228.94 82.42,-233.62 77,-239.5 30.95,-289.47 23.11,-377.31 21.77,-406.65"/>
<polygon fill="midnightblue" stroke="midnightblue" points="98.13,-228.34 105.82,-221.04 95.26,-221.95 98.13,-228.34"/>
</g>
<!-- Node9 -->
<g id="node9" class="node">
<title>Node9</title>
<g id="a_node9"><a xlink:href="walkingsearch_8c.html#a0b63dfe82e0fdee5c2c3bdd477f9901f" target="_top" xlink:title="Locates a particle&#39;s host cell or identifies its migration target using a robust walk search.">
<polygon fill="none" stroke="black" points="456.5,-746.5 456.5,-776.5 619.5,-776.5 619.5,-746.5 456.5,-746.5"/>
<text text-anchor="start" x="464.5" y="-764.5" font-family="Helvetica,sans-Serif" font-size="10.00">LocateParticleOrFindMigration</text>
<text text-anchor="middle" x="538" y="-753.5" font-family="Helvetica,sans-Serif" font-size="10.00">Target_TEST</text>
</a>
</g>
</g>
<!-- Node8&#45;&gt;Node9 -->
<g id="edge10" class="edge">
<title>Node8&#45;&gt;Node9</title>
<path fill="none" stroke="midnightblue" d="M663.66,-757.79C649.33,-758.21 634.31,-758.66 619.85,-759.09"/>
<polygon fill="midnightblue" stroke="midnightblue" points="664.07,-761.28 673.96,-757.48 663.86,-754.28 664.07,-761.28"/>
</g>
<!-- Node10 -->
<g id="node10" class="node">
<title>Node10</title>
<g id="a_node10"><a xlink:href="ParticleMotion_8c.html#a727054a4a467fd8504a19caed5a5916b" target="_top" xlink:title="Orchestrates the complete particle location and migration process for one timestep.">
<polygon fill="none" stroke="black" points="253,-746 253,-765 415,-765 415,-746 253,-746"/>
<text text-anchor="middle" x="334" y="-753" font-family="Helvetica,sans-Serif" font-size="10.00">LocateAllParticlesInGrid_TEST</text>
</a>
</g>
</g>
<!-- Node9&#45;&gt;Node10 -->
<g id="edge11" class="edge">
<title>Node9&#45;&gt;Node10</title>
<path fill="none" stroke="midnightblue" d="M446.08,-758.8C435.8,-758.49 425.38,-758.18 415.25,-757.88"/>
<polygon fill="midnightblue" stroke="midnightblue" points="446.19,-762.3 456.29,-759.1 446.4,-755.31 446.19,-762.3"/>
</g>
<!-- Node10&#45;&gt;Node2 -->
<g id="edge12" class="edge">
<title>Node10&#45;&gt;Node2</title>
<path fill="none" stroke="midnightblue" d="M265.21,-742.43C260.97,-740.69 256.86,-738.73 253,-736.5 232.84,-724.88 236.95,-710.47 217,-698.5 210.61,-694.66 203.42,-691.58 196.17,-689.11"/>
<polygon fill="midnightblue" stroke="midnightblue" points="264.06,-745.73 274.65,-745.87 266.46,-739.15 264.06,-745.73"/>
</g>
<!-- Node11 -->
<g id="node11" class="node">
<title>Node11</title>
<g id="a_node11"><a xlink:href="simulation_8c.html#a4e2cad25ac1fbdc6745d6fd8fcc1bbc1" target="_top" xlink:title="Finalizes the simulation setup at t=0, ensuring a consistent state before time marching.">
<polygon fill="none" stroke="black" points="91.5,-708 91.5,-727 202.5,-727 202.5,-708 91.5,-708"/>
<text text-anchor="middle" x="147" y="-715" font-family="Helvetica,sans-Serif" font-size="10.00">PerformInitialSetup</text>
</a>
</g>
</g>
<!-- Node10&#45;&gt;Node11 -->
<g id="edge13" class="edge">
<title>Node10&#45;&gt;Node11</title>
<path fill="none" stroke="midnightblue" d="M276.48,-743.89C250.17,-738.49 219.26,-732.14 194.35,-727.02"/>
<polygon fill="midnightblue" stroke="midnightblue" points="275.82,-747.33 286.32,-745.91 277.23,-740.47 275.82,-747.33"/>
</g>
<!-- Node11&#45;&gt;Node3 -->
<g id="edge14" class="edge">
<title>Node11&#45;&gt;Node3</title>
<path fill="none" stroke="midnightblue" d="M82.8,-703.7C80.72,-702.14 78.78,-700.41 77,-698.5 38.81,-657.36 24.88,-470.7 22.06,-426.09"/>
<polygon fill="midnightblue" stroke="midnightblue" points="81.04,-706.72 91.4,-708.91 84.67,-700.73 81.04,-706.72"/>
</g>
<!-- Node12&#45;&gt;Node5 -->
<g id="edge16" class="edge">
<title>Node12&#45;&gt;Node5</title>
<path fill="none" stroke="midnightblue" d="M280,-229.25C251.78,-235.5 217.54,-243.09 191,-248.97"/>
<polygon fill="midnightblue" stroke="midnightblue" points="281.09,-232.59 290.09,-227.01 279.57,-225.76 281.09,-232.59"/>
</g>
<!-- Node14 -->
<g id="node14" class="node">
<title>Node14</title>
<g id="a_node14"><a xlink:href="interpolation_8c.html#a25d384c0bcf5426864f90ab568e37511" target="_top" xlink:title="Interpolates a cell&#45;centered field (scalar or vector) onto DMSwarm particles, converting the cell&#45;cen...">
<polygon fill="none" stroke="black" points="256.5,-708 256.5,-727 411.5,-727 411.5,-708 256.5,-708"/>
<text text-anchor="middle" x="334" y="-715" font-family="Helvetica,sans-Serif" font-size="10.00">InterpolateAllFieldsToSwarm</text>
</a>
</g>
</g>
<!-- Node13&#45;&gt;Node14 -->
<g id="edge18" class="edge">
<title>Node13&#45;&gt;Node14</title>
<path fill="none" stroke="midnightblue" d="M650.5,-717.5C578.84,-717.5 479.63,-717.5 411.7,-717.5"/>
<polygon fill="midnightblue" stroke="midnightblue" points="650.87,-721 660.87,-717.5 650.87,-714 650.87,-721"/>
</g>
<!-- Node14&#45;&gt;Node2 -->
<g id="edge19" class="edge">
<title>Node14&#45;&gt;Node2</title>
<path fill="none" stroke="midnightblue" d="M276.48,-705.89C250.17,-700.49 219.26,-694.14 194.35,-689.02"/>
<polygon fill="midnightblue" stroke="midnightblue" points="275.82,-709.33 286.32,-707.91 277.23,-702.47 275.82,-709.33"/>
</g>
<!-- Node14&#45;&gt;Node11 -->
<g id="edge20" class="edge">
<title>Node14&#45;&gt;Node11</title>
<path fill="none" stroke="midnightblue" d="M246.17,-717.5C231.3,-717.5 216.23,-717.5 202.51,-717.5"/>
<polygon fill="midnightblue" stroke="midnightblue" points="246.42,-721 256.42,-717.5 246.42,-714 246.42,-721"/>
</g>
<!-- Node17 -->
<g id="node17" class="node">
<title>Node17</title>
<g id="a_node17"><a xlink:href="setup_8c.html#a977df65dac293c1308451334cb198693" target="_top" xlink:title="Allocates and populates the master SimulationContext object.">
<polygon fill="none" stroke="black" points="77,-145 77,-164 217,-164 217,-145 77,-145"/>
<text text-anchor="middle" x="147" y="-152" font-family="Helvetica,sans-Serif" font-size="10.00">CreateSimulationContext</text>
</a>
</g>
</g>
<!-- Node16&#45;&gt;Node17 -->
<g id="edge23" class="edge">
<title>Node16&#45;&gt;Node17</title>
<path fill="none" stroke="midnightblue" d="M686.52,-52.91C594.73,-43.7 403.55,-33.3 253,-83.5 213.75,-96.59 175.52,-128.74 157.98,-144.9"/>
<polygon fill="midnightblue" stroke="midnightblue" points="686.38,-56.41 696.68,-53.96 687.1,-49.45 686.38,-56.41"/>
</g>
<!-- Node17&#45;&gt;Node3 -->
<g id="edge24" class="edge">
<title>Node17&#45;&gt;Node3</title>
<path fill="none" stroke="midnightblue" d="M108.02,-168.37C96.57,-174.23 84.96,-182.15 77,-192.5 24.27,-261.12 21.01,-373.41 21.28,-406.83"/>
<polygon fill="midnightblue" stroke="midnightblue" points="109.52,-171.53 117.08,-164.11 106.54,-165.2 109.52,-171.53"/>
</g>
<!-- Node18&#45;&gt;Node9 -->
<g id="edge26" class="edge">
<title>Node18&#45;&gt;Node9</title>
<path fill="none" stroke="midnightblue" d="M656.9,-783.73C644.31,-781.36 631.36,-778.92 618.86,-776.56"/>
<polygon fill="midnightblue" stroke="midnightblue" points="656.42,-787.21 666.9,-785.62 657.72,-780.33 656.42,-787.21"/>
</g>
<!-- Node20 -->
<g id="node20" class="node">
<title>Node20</title>
<g id="a_node20"><a xlink:href="Metric_8c.html#a436bb94905ee06971f632571f5bc8cbb" target="_top" xlink:title="Ensure a right&#45;handed metric basis (Csi, Eta, Zet) and a positive Jacobian (Aj) over the whole domain...">
<polygon fill="none" stroke="black" points="461,-252 461,-271 615,-271 615,-252 461,-252"/>
<text text-anchor="middle" x="538" y="-259" font-family="Helvetica,sans-Serif" font-size="10.00">CheckAndFixGridOrientation</text>
</a>
</g>
</g>
<!-- Node19&#45;&gt;Node20 -->
<g id="edge28" class="edge">
<title>Node19&#45;&gt;Node20</title>
<path fill="none" stroke="midnightblue" d="M730.02,-395.19C712.32,-366.05 673.65,-309.43 625,-280.5 618.43,-276.59 611.14,-273.49 603.68,-271.02"/>
<polygon fill="midnightblue" stroke="midnightblue" points="727.09,-397.12 735.2,-403.95 733.12,-393.56 727.09,-397.12"/>
</g>
<!-- Node22 -->
<g id="node22" class="node">
<title>Node22</title>
<g id="a_node22"><a xlink:href="Metric_8c.html#a92d28e2f14645b0eb563144f4ccf2b49" target="_top" xlink:title="Calculates the cell&#45;centered inverse Jacobian determinant (1/J), including boundary extrapolation,...">
<polygon fill="none" stroke="black" points="455.5,-202.5 455.5,-232.5 620.5,-232.5 620.5,-202.5 455.5,-202.5"/>
<text text-anchor="start" x="463.5" y="-220.5" font-family="Helvetica,sans-Serif" font-size="10.00">ComputeCellCenteredJacobian</text>
<text text-anchor="middle" x="538" y="-209.5" font-family="Helvetica,sans-Serif" font-size="10.00">Inverse</text>
</a>
</g>
</g>
<!-- Node19&#45;&gt;Node22 -->
<g id="edge31" class="edge">
<title>Node19&#45;&gt;Node22</title>
<path fill="none" stroke="midnightblue" d="M732.69,-393.94C717.46,-358.33 680.36,-282.85 625,-242.5 619.72,-238.65 613.86,-235.4 607.75,-232.64"/>
<polygon fill="midnightblue" stroke="midnightblue" points="729.65,-395.74 736.71,-403.63 736.11,-393.06 729.65,-395.74"/>
</g>
<!-- Node23 -->
<g id="node23" class="node">
<title>Node23</title>
<g id="a_node23"><a xlink:href="Metric_8c.html#a46e70c0ae8f36f97321c5c892fc56be5" target="_top" xlink:title="Computes the physical location of cell centers and the spacing between them.">
<polygon fill="none" stroke="black" points="451,-442 451,-461 625,-461 625,-442 451,-442"/>
<text text-anchor="middle" x="538" y="-449" font-family="Helvetica,sans-Serif" font-size="10.00">ComputeCellCentersAndSpacing</text>
</a>
</g>
</g>
<!-- Node19&#45;&gt;Node23 -->
<g id="edge33" class="edge">
<title>Node19&#45;&gt;Node23</title>
<path fill="none" stroke="midnightblue" d="M679.95,-424.92C651.12,-430.36 617.04,-436.78 589.61,-441.96"/>
<polygon fill="midnightblue" stroke="midnightblue" points="680.73,-428.33 689.91,-423.04 679.44,-421.45 680.73,-428.33"/>
</g>
<!-- Node24 -->
<g id="node24" class="node">
<title>Node24</title>
<g id="a_node24"><a xlink:href="Metric_8c.html#a6f0dfb324211e230a387501f93cfd316" target="_top" xlink:title="Computes the primary face metric components (Csi, Eta, Zet), including boundary extrapolation,...">
<polygon fill="none" stroke="black" points="478.5,-404 478.5,-423 597.5,-423 597.5,-404 478.5,-404"/>
<text text-anchor="middle" x="538" y="-411" font-family="Helvetica,sans-Serif" font-size="10.00">ComputeFaceMetrics</text>
</a>
</g>
</g>
<!-- Node19&#45;&gt;Node24 -->
<g id="edge35" class="edge">
<title>Node19&#45;&gt;Node24</title>
<path fill="none" stroke="midnightblue" d="M675.83,-413.5C650.77,-413.5 622.28,-413.5 597.81,-413.5"/>
<polygon fill="midnightblue" stroke="midnightblue" points="675.97,-417 685.97,-413.5 675.97,-410 675.97,-417"/>
</g>
<!-- Node25 -->
<g id="node25" class="node">
<title>Node25</title>
<g id="a_node25"><a xlink:href="Metric_8c.html#af935307ea3e9727a63b6ef9a3932caa8" target="_top" xlink:title="Computes metrics centered on constant&#45;i faces (i&#45;faces).">
<polygon fill="none" stroke="black" points="477,-366 477,-385 599,-385 599,-366 477,-366"/>
<text text-anchor="middle" x="538" y="-373" font-family="Helvetica,sans-Serif" font-size="10.00">ComputeIFaceMetrics</text>
</a>
</g>
</g>
<!-- Node19&#45;&gt;Node25 -->
<g id="edge37" class="edge">
<title>Node19&#45;&gt;Node25</title>
<path fill="none" stroke="midnightblue" d="M679.95,-402.08C651.12,-396.64 617.04,-390.22 589.61,-385.04"/>
<polygon fill="midnightblue" stroke="midnightblue" points="679.44,-405.55 689.91,-403.96 680.73,-398.67 679.44,-405.55"/>
</g>
<!-- Node26 -->
<g id="node26" class="node">
<title>Node26</title>
<g id="a_node26"><a xlink:href="Metric_8c.html#a4ecbe44ffb23d82193f9278ab61c1b47" target="_top" xlink:title="Computes metrics centered on constant&#45;j faces (j&#45;faces).">
<polygon fill="none" stroke="black" points="477,-328 477,-347 599,-347 599,-328 477,-328"/>
<text text-anchor="middle" x="538" y="-335" font-family="Helvetica,sans-Serif" font-size="10.00">ComputeJFaceMetrics</text>
</a>
</g>
</g>
<!-- Node19&#45;&gt;Node26 -->
<g id="edge39" class="edge">
<title>Node19&#45;&gt;Node26</title>
<path fill="none" stroke="midnightblue" d="M715.49,-398.95C692.6,-386.18 657.45,-367.9 625,-356.5 614.47,-352.8 602.95,-349.66 591.87,-347.07"/>
<polygon fill="midnightblue" stroke="midnightblue" points="713.79,-402.01 724.22,-403.89 717.23,-395.92 713.79,-402.01"/>
</g>
<!-- Node27 -->
<g id="node27" class="node">
<title>Node27</title>
<g id="a_node27"><a xlink:href="Metric_8c.html#a95e22e5238b2cd02b992366766730687" target="_top" xlink:title="Computes metrics centered on constant&#45;k faces (k&#45;faces).">
<polygon fill="none" stroke="black" points="475,-290 475,-309 601,-309 601,-290 475,-290"/>
<text text-anchor="middle" x="538" y="-297" font-family="Helvetica,sans-Serif" font-size="10.00">ComputeKFaceMetrics</text>
</a>
</g>
</g>
<!-- Node19&#45;&gt;Node27 -->
<g id="edge41" class="edge">
<title>Node19&#45;&gt;Node27</title>
<path fill="none" stroke="midnightblue" d="M724.97,-396.51C704.29,-374.97 665.58,-338.24 625,-318.5 617.03,-314.62 608.25,-311.52 599.45,-309.05"/>
<polygon fill="midnightblue" stroke="midnightblue" points="722.58,-399.08 731.98,-403.96 727.68,-394.28 722.58,-399.08"/>
</g>
<!-- Node28 -->
<g id="node28" class="node">
<title>Node28</title>
<g id="a_node28"><a xlink:href="initialcondition_8c.html#af6a26611066aa455efddcca2fd80fe35" target="_top" xlink:title="(HELPER) Finalizes a block&#39;s state by applying BCs, converting to Cartesian, and synchronizing ghost ...">
<polygon fill="none" stroke="black" points="485,-518 485,-537 591,-537 591,-518 485,-518"/>
<text text-anchor="middle" x="538" y="-525" font-family="Helvetica,sans-Serif" font-size="10.00">FinalizeBlockState</text>
</a>
</g>
</g>
<!-- Node19&#45;&gt;Node28 -->
<g id="edge43" class="edge">
<title>Node19&#45;&gt;Node28</title>
<path fill="none" stroke="midnightblue" d="M723.64,-430.16C702.37,-450.29 663.85,-483.91 625,-503.5 612.82,-509.64 598.85,-514.4 585.76,-517.99"/>
<polygon fill="midnightblue" stroke="midnightblue" points="726.14,-432.61 730.92,-423.16 721.29,-427.57 726.14,-432.61"/>
</g>
<!-- Node29 -->
<g id="node29" class="node">
<title>Node29</title>
<g id="a_node29"><a xlink:href="initialcondition_8c.html#a51d0251f84a962a611ff0c0a8797a3e4" target="_top" xlink:title="(HELPER) Sets the t=0 fluid state for all blocks.">
<polygon fill="none" stroke="black" points="279,-518.5 279,-548.5 389,-548.5 389,-518.5 279,-518.5"/>
<text text-anchor="start" x="287" y="-536.5" font-family="Helvetica,sans-Serif" font-size="10.00">SetInitialFluidState</text>
<text text-anchor="middle" x="334" y="-525.5" font-family="Helvetica,sans-Serif" font-size="10.00">_FreshStart</text>
</a>
</g>
</g>
<!-- Node19&#45;&gt;Node29 -->
<g id="edge49" class="edge">
<title>Node19&#45;&gt;Node29</title>
<path fill="none" stroke="midnightblue" d="M730.92,-432.61C714.27,-463.4 676.75,-522.9 625,-546.5 546.36,-582.36 442.93,-564.34 383.23,-548.54"/>
<polygon fill="midnightblue" stroke="midnightblue" points="734.22,-433.85 735.76,-423.37 728.02,-430.6 734.22,-433.85"/>
</g>
<!-- Node31 -->
<g id="node31" class="node">
<title>Node31</title>
<g id="a_node31"><a xlink:href="solvers_8c.html#a2ed4825273a593f371a3d48071708255" target="_top" xlink:title="Orchestrates a single time step of the Eulerian fluid solver.">
<polygon fill="none" stroke="black" points="296,-632 296,-651 372,-651 372,-632 296,-632"/>
<text text-anchor="middle" x="334" y="-639" font-family="Helvetica,sans-Serif" font-size="10.00">Flow_Solver</text>
</a>
</g>
</g>
<!-- Node19&#45;&gt;Node31 -->
<g id="edge47" class="edge">
<title>Node19&#45;&gt;Node31</title>
<path fill="none" stroke="midnightblue" d="M732.17,-432.15C716.32,-465.39 678.57,-534.76 625,-570.5 583.5,-598.19 440.44,-624.38 372.02,-635.67"/>
<polygon fill="midnightblue" stroke="midnightblue" points="735.35,-433.61 736.38,-423.07 729,-430.67 735.35,-433.61"/>
</g>
<!-- Node32 -->
<g id="node32" class="node">
<title>Node32</title>
<g id="a_node32"><a xlink:href="initialcondition_8c.html#aff0951526ed36a87e2745da0154a68e5" target="_top" xlink:title="(HELPER) Reads fluid state for all blocks from restart files.">
<polygon fill="none" stroke="black" points="279,-469.5 279,-499.5 389,-499.5 389,-469.5 279,-469.5"/>
<text text-anchor="start" x="287" y="-487.5" font-family="Helvetica,sans-Serif" font-size="10.00">SetInitialFluidState</text>
<text text-anchor="middle" x="334" y="-476.5" font-family="Helvetica,sans-Serif" font-size="10.00">_Restart</text>
</a>
</g>
</g>
<!-- Node19&#45;&gt;Node32 -->
<g id="edge50" class="edge">
<title>Node19&#45;&gt;Node32</title>
<path fill="none" stroke="midnightblue" d="M717.43,-428.45C694.87,-442.18 659.06,-461.68 625,-470.5 544.85,-491.25 448.17,-491.14 389.16,-488.39"/>
<polygon fill="midnightblue" stroke="midnightblue" points="719.31,-431.4 725.95,-423.15 715.61,-425.45 719.31,-431.4"/>
</g>
<!-- Node33 -->
<g id="node33" class="node">
<title>Node33</title>
<g id="a_node33"><a xlink:href="poisson_8c.html#a7cf2cfc0383ba0076f827f7d3856f2ed" target="_top" xlink:title="Updates the pressure field and handles periodic boundary conditions.">
<polygon fill="none" stroke="black" points="491,-632 491,-651 585,-651 585,-632 491,-632"/>
<text text-anchor="middle" x="538" y="-639" font-family="Helvetica,sans-Serif" font-size="10.00">UpdatePressure</text>
</a>
</g>
</g>
<!-- Node19&#45;&gt;Node33 -->
<g id="edge52" class="edge">
<title>Node19&#45;&gt;Node33</title>
<path fill="none" stroke="midnightblue" d="M734.97,-433.18C722.48,-473.98 688.13,-568.11 625,-617.5 613.65,-626.38 599.19,-631.98 585.39,-635.5"/>
<polygon fill="midnightblue" stroke="midnightblue" points="738.39,-433.95 737.86,-423.37 731.68,-431.98 738.39,-433.95"/>
</g>
<!-- Node21 -->
<g id="node21" class="node">
<title>Node21</title>
<g id="a_node21"><a xlink:href="Metric_8c.html#a063043da47b68702c78c7e0769325b36" target="_top" xlink:title="Orchestrates the calculation of all grid metrics.">
<polygon fill="none" stroke="black" points="268.5,-309 268.5,-328 399.5,-328 399.5,-309 268.5,-309"/>
<text text-anchor="middle" x="334" y="-316" font-family="Helvetica,sans-Serif" font-size="10.00">CalculateAllGridMetrics</text>
</a>
</g>
</g>
<!-- Node20&#45;&gt;Node21 -->
<g id="edge29" class="edge">
<title>Node20&#45;&gt;Node21</title>
<path fill="none" stroke="midnightblue" d="M479.94,-273.27C470.25,-275.51 460.3,-277.95 451,-280.5 419.93,-289 384.86,-300.8 361.5,-308.99"/>
<polygon fill="midnightblue" stroke="midnightblue" points="480.94,-276.63 489.93,-271.02 479.4,-269.81 480.94,-276.63"/>
</g>
<!-- Node21&#45;&gt;Node5 -->
<g id="edge30" class="edge">
<title>Node21&#45;&gt;Node5</title>
<path fill="none" stroke="midnightblue" d="M293.86,-305.81C259.08,-294.52 208.98,-278.28 177.48,-268.06"/>
<polygon fill="midnightblue" stroke="midnightblue" points="293.09,-309.24 303.69,-308.99 295.25,-302.58 293.09,-309.24"/>
</g>
<!-- Node22&#45;&gt;Node21 -->
<g id="edge32" class="edge">
<title>Node22&#45;&gt;Node21</title>
<path fill="none" stroke="midnightblue" d="M466.72,-236.03C461.33,-238.03 456.03,-240.18 451,-242.5 410.32,-261.23 367.52,-292.86 347.15,-308.76"/>
<polygon fill="midnightblue" stroke="midnightblue" points="468.2,-239.22 476.49,-232.61 465.89,-232.61 468.2,-239.22"/>
</g>
<!-- Node23&#45;&gt;Node21 -->
<g id="edge34" class="edge">
<title>Node23&#45;&gt;Node21</title>
<path fill="none" stroke="midnightblue" d="M464.34,-438.59C459.72,-436.81 455.23,-434.79 451,-432.5 401.11,-405.44 358.05,-350.59 341.85,-328.28"/>
<polygon fill="midnightblue" stroke="midnightblue" points="463.37,-441.96 473.97,-441.9 465.65,-435.34 463.37,-441.96"/>
</g>
<!-- Node24&#45;&gt;Node21 -->
<g id="edge36" class="edge">
<title>Node24&#45;&gt;Node21</title>
<path fill="none" stroke="midnightblue" d="M470.35,-401.32C463.71,-399.35 457.15,-397.09 451,-394.5 409.29,-376.93 366.28,-344.18 346.38,-328.02"/>
<polygon fill="midnightblue" stroke="midnightblue" points="469.54,-404.73 480.11,-404 471.39,-397.98 469.54,-404.73"/>
</g>
<!-- Node25&#45;&gt;Node21 -->
<g id="edge38" class="edge">
<title>Node25&#45;&gt;Node21</title>
<path fill="none" stroke="midnightblue" d="M479.94,-363.73C470.25,-361.49 460.3,-359.05 451,-356.5 419.93,-348 384.86,-336.2 361.5,-328.01"/>
<polygon fill="midnightblue" stroke="midnightblue" points="479.4,-367.19 489.93,-365.98 480.94,-360.37 479.4,-367.19"/>
</g>
<!-- Node26&#45;&gt;Node21 -->
<g id="edge40" class="edge">
<title>Node26&#45;&gt;Node21</title>
<path fill="none" stroke="midnightblue" d="M466.78,-330.89C445.01,-328.85 421.13,-326.6 399.76,-324.59"/>
<polygon fill="midnightblue" stroke="midnightblue" points="466.66,-334.4 476.94,-331.85 467.31,-327.43 466.66,-334.4"/>
</g>
<!-- Node27&#45;&gt;Node21 -->
<g id="edge42" class="edge">
<title>Node27&#45;&gt;Node21</title>
<path fill="none" stroke="midnightblue" d="M464.54,-306.32C443.41,-308.3 420.47,-310.46 399.84,-312.4"/>
<polygon fill="midnightblue" stroke="midnightblue" points="465.12,-309.78 474.75,-305.36 464.46,-302.81 465.12,-309.78"/>
</g>
<!-- Node28&#45;&gt;Node29 -->
<g id="edge44" class="edge">
<title>Node28&#45;&gt;Node29</title>
<path fill="none" stroke="midnightblue" d="M474.75,-529.35C447.43,-530.16 415.66,-531.1 389.31,-531.89"/>
<polygon fill="midnightblue" stroke="midnightblue" points="475.09,-532.84 484.98,-529.05 474.88,-525.84 475.09,-532.84"/>
</g>
<!-- Node30 -->
<g id="node30" class="node">
<title>Node30</title>
<g id="a_node30"><a xlink:href="initialcondition_8c.html#ad0dd7d3f2528b6a7802fcd551e88ea99" target="_top" xlink:title="High&#45;level orchestrator to set the complete initial state of the Eulerian solver.">
<polygon fill="none" stroke="black" points="85,-475 85,-494 209,-494 209,-475 85,-475"/>
<text text-anchor="middle" x="147" y="-482" font-family="Helvetica,sans-Serif" font-size="10.00">InitializeEulerianState</text>
</a>
</g>
</g>
<!-- Node29&#45;&gt;Node30 -->
<g id="edge45" class="edge">
<title>Node29&#45;&gt;Node30</title>
<path fill="none" stroke="midnightblue" d="M269.1,-516.58C240.6,-509.03 208.08,-500.41 183.92,-494.02"/>
<polygon fill="midnightblue" stroke="midnightblue" points="268.43,-520.02 278.99,-519.2 270.22,-513.25 268.43,-520.02"/>
</g>
<!-- Node30&#45;&gt;Node3 -->
<g id="edge46" class="edge">
<title>Node30&#45;&gt;Node3</title>
<path fill="none" stroke="midnightblue" d="M119.39,-469.97C95.1,-456.7 59.89,-437.47 38.98,-426.05"/>
<polygon fill="midnightblue" stroke="midnightblue" points="117.97,-473.18 128.43,-474.9 121.33,-467.04 117.97,-473.18"/>
</g>
<!-- Node31&#45;&gt;Node2 -->
<g id="edge48" class="edge">
<title>Node31&#45;&gt;Node2</title>
<path fill="none" stroke="midnightblue" d="M285.62,-651.23C257.65,-656.98 222.4,-664.22 194.58,-669.93"/>
<polygon fill="midnightblue" stroke="midnightblue" points="286.47,-654.63 295.56,-649.19 285.06,-647.77 286.47,-654.63"/>
</g>
<!-- Node32&#45;&gt;Node30 -->
<g id="edge51" class="edge">
<title>Node32&#45;&gt;Node30</title>
<path fill="none" stroke="midnightblue" d="M268.78,-484.5C249.47,-484.5 228.34,-484.5 209.23,-484.5"/>
<polygon fill="midnightblue" stroke="midnightblue" points="268.99,-488 278.99,-484.5 268.99,-481 268.99,-488"/>
</g>
<!-- Node33&#45;&gt;Node31 -->
<g id="edge53" class="edge">
<title>Node33&#45;&gt;Node31</title>
<path fill="none" stroke="midnightblue" d="M480.91,-641.5C446.19,-641.5 402.58,-641.5 372.12,-641.5"/>
<polygon fill="midnightblue" stroke="midnightblue" points="480.91,-645 490.91,-641.5 480.91,-638 480.91,-645"/>
</g>
</g>
</svg>
        <g id="navigator" transform="translate(0 0)" fill="#404254">
                <rect fill="#f2f5e9" fill-opacity="0.5" stroke="#606060" stroke-width=".5" x="0" y="0" width="60" height="60"/>
                <use id="zoomplus" xlink:href="#zoomPlus" x="17" y="9" onmousedown="handleZoom(evt,'in')"/>
                <use id="zoomminus" xlink:href="#zoomMin" x="42" y="9" onmousedown="handleZoom(evt,'out')"/>
                <use id="reset" xlink:href="#resetDef" x="30" y="36" onmousedown="handleReset()"/>
                <g id="arrowUp" xlink:href="#dirArrow" transform="translate(30 24)" onmousedown="handlePan(0,-1)">
                  <use xlink:href="#rim" fill="#404040">
                        <set attributeName="fill" to="#808080" begin="arrowUp.mouseover" end="arrowUp.mouseout"/>
                  </use>
                  <path fill="none" stroke="white" stroke-width="1.5" d="M0,-3.0v7 M-2.5,-0.5L0,-3.0L2.5,-0.5"/>
                </g>
                <g id="arrowRight" xlink:href="#dirArrow" transform="rotate(90) translate(36 -43)" onmousedown="handlePan(1,0)">
                  <use xlink:href="#rim" fill="#404040">
                        <set attributeName="fill" to="#808080" begin="arrowRight.mouseover" end="arrowRight.mouseout"/>
                  </use>
                  <path fill="none" stroke="white" stroke-width="1.5" d="M0,-3.0v7 M-2.5,-0.5L0,-3.0L2.5,-0.5"/>
                </g>
                <g id="arrowDown" xlink:href="#dirArrow" transform="rotate(180) translate(-30 -48)" onmousedown="handlePan(0,1)">
                  <use xlink:href="#rim" fill="#404040">
                        <set attributeName="fill" to="#808080" begin="arrowDown.mouseover" end="arrowDown.mouseout"/>
                  </use>
                  <path fill="none" stroke="white" stroke-width="1.5" d="M0,-3.0v7 M-2.5,-0.5L0,-3.0L2.5,-0.5"/>
                </g>
                <g id="arrowLeft" xlink:href="#dirArrow" transform="rotate(270) translate(-36 17)" onmousedown="handlePan(-1,0)">
                  <use xlink:href="#rim" fill="#404040">
                        <set attributeName="fill" to="#808080" begin="arrowLeft.mouseover" end="arrowLeft.mouseout"/>
                  </use>
                  <path fill="none" stroke="white" stroke-width="1.5" d="M0,-3.0v7 M-2.5,-0.5L0,-3.0L2.5,-0.5"/>
                </g>
        </g>
        <svg viewBox="0 0 15 15" width="100%" height="30px" preserveAspectRatio="xMaxYMin meet">
         <g id="arrow_out" transform="scale(0.3 0.3)">
          <a xlink:href="logging_8c_a9585f583c260f40a73f2490914edc689_icgraph_org.svg" target="_base">
           <rect id="button" ry="5" rx="5" y="6" x="6" height="38" width="38"
                fill="#f2f5e9" fill-opacity="0.5" stroke="#606060" stroke-width="1.0"/>
           <path id="arrow"
             d="M 11.500037,31.436501 C 11.940474,20.09759 22.043105,11.32322 32.158766,21.979434 L 37.068811,17.246167 C 37.068811,17.246167 37.088388,32 37.088388,32 L 22.160133,31.978069 C 22.160133,31.978069 26.997745,27.140456 26.997745,27.140456 C 18.528582,18.264221 13.291696,25.230495 11.500037,31.436501 z"
             style="fill:#404040;"/>
          </a>
         </g>
        </svg>
</svg>
