<?xml version="1.0" encoding="UTF-8" standalone="no"?>
<!DOCTYPE svg PUBLIC "-//W3C//DTD SVG 1.1//EN"
 "http://www.w3.org/Graphics/SVG/1.1/DTD/svg11.dtd">
<!-- Generated by graphviz version 2.43.0 (0)
 -->
<!-- Title: LOG_FACE_DISTANCES Pages: 1 -->
<svg width="941pt" height="78pt"
 viewBox="0.00 0.00 941.00 77.50" xmlns="http://www.w3.org/2000/svg" xmlns:xlink="http://www.w3.org/1999/xlink">
<g id="graph0" class="graph" transform="scale(1 1) rotate(0) translate(4 73.5)">
<title>LOG_FACE_DISTANCES</title>
<!-- Node1 -->
<g id="node1" class="node">
<title>Node1</title>
<g id="a_node1"><a xlink:title="Prints the signed distances to each face of the cell.">
<polygon fill="#bfbfbf" stroke="black" points="806,-28 806,-47 933,-47 933,-28 806,-28"/>
<text text-anchor="middle" x="869.5" y="-35" font-family="Helvetica,sans-Serif" font-size="10.00">LOG_FACE_DISTANCES</text>
</a>
</g>
</g>
<!-- Node2 -->
<g id="node2" class="node">
<title>Node2</title>
<g id="a_node2"><a xlink:href="walkingsearch_8c.html#a556871801ba0b3214285a2ca1fe622ac" target="_top" xlink:title="Determines the spatial relationship of a particle relative to a cubic cell.">
<polygon fill="none" stroke="black" points="628,-50 628,-69 763,-69 763,-50 628,-50"/>
<text text-anchor="middle" x="695.5" y="-57" font-family="Helvetica,sans-Serif" font-size="10.00">EvaluateParticlePosition</text>
</a>
</g>
</g>
<!-- Node1&#45;&gt;Node2 -->
<g id="edge1" class="edge">
<title>Node1&#45;&gt;Node2</title>
<path fill="none" stroke="midnightblue" d="M795.67,-46.82C784.86,-48.2 773.76,-49.62 763.09,-50.98"/>
<polygon fill="midnightblue" stroke="midnightblue" points="796.44,-50.25 805.92,-45.5 795.55,-43.3 796.44,-50.25"/>
</g>
<!-- Node8 -->
<g id="node8" class="node">
<title>Node8</title>
<g id="a_node8"><a xlink:href="walkingsearch_8c.html#ae8ed9e0a01de5ee0f332170562b1f9ea" target="_top" xlink:title="Updates the cell indices based on the signed distances to each face.">
<polygon fill="none" stroke="black" points="621,-0.5 621,-30.5 770,-30.5 770,-0.5 621,-0.5"/>
<text text-anchor="start" x="629" y="-18.5" font-family="Helvetica,sans-Serif" font-size="10.00">UpdateCellIndicesBasedOn</text>
<text text-anchor="middle" x="695.5" y="-7.5" font-family="Helvetica,sans-Serif" font-size="10.00">DistancesTEST</text>
</a>
</g>
</g>
<!-- Node1&#45;&gt;Node8 -->
<g id="edge8" class="edge">
<title>Node1&#45;&gt;Node8</title>
<path fill="none" stroke="midnightblue" d="M795.99,-28.22C787.44,-27.13 778.7,-26.01 770.14,-24.92"/>
<polygon fill="midnightblue" stroke="midnightblue" points="795.55,-31.7 805.92,-29.5 796.44,-24.75 795.55,-31.7"/>
</g>
<!-- Node3 -->
<g id="node3" class="node">
<title>Node3</title>
<g id="a_node3"><a xlink:href="walkingsearch_8c.html#a0b63dfe82e0fdee5c2c3bdd477f9901f" target="_top" xlink:title="Locates a particle&#39;s host cell or identifies its migration target using a robust walk search.">
<polygon fill="none" stroke="black" points="422,-22.5 422,-52.5 585,-52.5 585,-22.5 422,-22.5"/>
<text text-anchor="start" x="430" y="-40.5" font-family="Helvetica,sans-Serif" font-size="10.00">LocateParticleOrFindMigration</text>
<text text-anchor="middle" x="503.5" y="-29.5" font-family="Helvetica,sans-Serif" font-size="10.00">Target_TEST</text>
</a>
</g>
</g>
<!-- Node2&#45;&gt;Node3 -->
<g id="edge2" class="edge">
<title>Node2&#45;&gt;Node3</title>
<path fill="none" stroke="midnightblue" d="M617.62,-50.6C606.91,-49.36 595.87,-48.08 585.09,-46.83"/>
<polygon fill="midnightblue" stroke="midnightblue" points="617.44,-54.1 627.78,-51.77 618.25,-47.15 617.44,-54.1"/>
</g>
<!-- Node4 -->
<g id="node4" class="node">
<title>Node4</title>
<g id="a_node4"><a xlink:href="ParticleMotion_8c.html#a727054a4a467fd8504a19caed5a5916b" target="_top" xlink:title="Orchestrates the complete particle location and migration process for one timestep.">
<polygon fill="none" stroke="black" points="224,-28 224,-47 386,-47 386,-28 224,-28"/>
<text text-anchor="middle" x="305" y="-35" font-family="Helvetica,sans-Serif" font-size="10.00">LocateAllParticlesInGrid_TEST</text>
</a>
</g>
</g>
<!-- Node3&#45;&gt;Node4 -->
<g id="edge3" class="edge">
<title>Node3&#45;&gt;Node4</title>
<path fill="none" stroke="midnightblue" d="M411.47,-37.5C403.01,-37.5 394.49,-37.5 386.14,-37.5"/>
<polygon fill="midnightblue" stroke="midnightblue" points="411.73,-41 421.73,-37.5 411.73,-34 411.73,-41"/>
</g>
<!-- Node5 -->
<g id="node5" class="node">
<title>Node5</title>
<g id="a_node5"><a xlink:href="simulation_8c.html#a5cfb2f783604af7f20171d19f969d5d3" target="_top" xlink:title="Executes the main time&#45;marching loop for the coupled Euler&#45;Lagrange simulation.">
<polygon fill="none" stroke="black" points="77,-47 77,-66 188,-66 188,-47 77,-47"/>
<text text-anchor="middle" x="132.5" y="-54" font-family="Helvetica,sans-Serif" font-size="10.00">AdvanceSimulation</text>
</a>
</g>
</g>
<!-- Node4&#45;&gt;Node5 -->
<g id="edge4" class="edge">
<title>Node4&#45;&gt;Node5</title>
<path fill="none" stroke="midnightblue" d="M213.53,-47.58C204.84,-48.55 196.22,-49.51 188.04,-50.42"/>
<polygon fill="midnightblue" stroke="midnightblue" points="214.19,-51.03 223.74,-46.44 213.42,-44.07 214.19,-51.03"/>
</g>
<!-- Node7 -->
<g id="node7" class="node">
<title>Node7</title>
<g id="a_node7"><a xlink:href="simulation_8c.html#a4e2cad25ac1fbdc6745d6fd8fcc1bbc1" target="_top" xlink:title="Finalizes the simulation setup at t=0, ensuring a consistent state before time marching.">
<polygon fill="none" stroke="black" points="77,-9 77,-28 188,-28 188,-9 77,-9"/>
<text text-anchor="middle" x="132.5" y="-16" font-family="Helvetica,sans-Serif" font-size="10.00">PerformInitialSetup</text>
</a>
</g>
</g>
<!-- Node4&#45;&gt;Node7 -->
<g id="edge6" class="edge">
<title>Node4&#45;&gt;Node7</title>
<path fill="none" stroke="midnightblue" d="M213.53,-27.42C204.84,-26.45 196.22,-25.49 188.04,-24.58"/>
<polygon fill="midnightblue" stroke="midnightblue" points="213.42,-30.93 223.74,-28.56 214.19,-23.97 213.42,-30.93"/>
</g>
<!-- Node6 -->
<g id="node6" class="node">
<title>Node6</title>
<g id="a_node6"><a xlink:href="picsolver_8c.html#a3c04138a5bfe5d72780bb7e82a18e627" target="_top" xlink:title=" ">
<polygon fill="none" stroke="black" points="0,-28 0,-47 41,-47 41,-28 0,-28"/>
<text text-anchor="middle" x="20.5" y="-35" font-family="Helvetica,sans-Serif" font-size="10.00">main</text>
</a>
</g>
</g>
<!-- Node5&#45;&gt;Node6 -->
<g id="edge5" class="edge">
<title>Node5&#45;&gt;Node6</title>
<path fill="none" stroke="midnightblue" d="M66.94,-45.35C57.54,-43.73 48.53,-42.17 41.05,-40.88"/>
<polygon fill="midnightblue" stroke="midnightblue" points="66.37,-48.8 76.82,-47.06 67.56,-41.9 66.37,-48.8"/>
</g>
<!-- Node7&#45;&gt;Node6 -->
<g id="edge7" class="edge">
<title>Node7&#45;&gt;Node6</title>
<path fill="none" stroke="midnightblue" d="M66.94,-29.65C57.54,-31.27 48.53,-32.83 41.05,-34.12"/>
<polygon fill="midnightblue" stroke="midnightblue" points="67.56,-33.1 76.82,-27.94 66.37,-26.2 67.56,-33.1"/>
</g>
<!-- Node8&#45;&gt;Node3 -->
<g id="edge9" class="edge">
<title>Node8&#45;&gt;Node3</title>
<path fill="none" stroke="midnightblue" d="M610.82,-25.19C602.28,-26.18 593.62,-27.18 585.12,-28.17"/>
<polygon fill="midnightblue" stroke="midnightblue" points="611.24,-28.66 620.77,-24.04 610.43,-21.71 611.24,-28.66"/>
</g>
</g>
</svg>
