<?xml version="1.0" encoding="UTF-8" standalone="no"?>
<!DOCTYPE svg PUBLIC "-//W3C//DTD SVG 1.1//EN"
 "http://www.w3.org/Graphics/SVG/1.1/DTD/svg11.dtd">
<!-- Generated by graphviz version 2.43.0 (0)
 -->
<!-- Title: ComputeCellCenteredJacobianInverse Pages: 1 -->
<svg width="469pt" height="66pt"
 viewBox="0.00 0.00 469.00 66.00" xmlns="http://www.w3.org/2000/svg" xmlns:xlink="http://www.w3.org/1999/xlink">
<g id="graph0" class="graph" transform="scale(1 1) rotate(0) translate(4 62)">
<title>ComputeCellCenteredJacobianInverse</title>
<!-- Node1 -->
<g id="node1" class="node">
<title>Node1</title>
<g id="a_node1"><a xlink:title="Calculates the cell&#45;centered inverse Jacobian determinant (1/J), including boundary extrapolation,...">
<polygon fill="#bfbfbf" stroke="black" points="0,-14 0,-44 165,-44 165,-14 0,-14"/>
<text text-anchor="start" x="8" y="-32" font-family="Helvetica,sans-Serif" font-size="10.00">ComputeCellCenteredJacobian</text>
<text text-anchor="middle" x="82.5" y="-21" font-family="Helvetica,sans-Serif" font-size="10.00">Inverse</text>
</a>
</g>
</g>
<!-- Node2 -->
<g id="node2" class="node">
<title>Node2</title>
<g id="a_node2"><a xlink:href="setup_8h.html#ad5f82951adcce74b3d37cb5880acf43a" target="_top" xlink:title="Updates the local vector (including ghost points) from its corresponding global vector.">
<polygon fill="none" stroke="black" points="201,-19.5 201,-38.5 312,-38.5 312,-19.5 201,-19.5"/>
<text text-anchor="middle" x="256.5" y="-26.5" font-family="Helvetica,sans-Serif" font-size="10.00">UpdateLocalGhosts</text>
</a>
</g>
</g>
<!-- Node1&#45;&gt;Node2 -->
<g id="edge1" class="edge">
<title>Node1&#45;&gt;Node2</title>
<path fill="none" stroke="midnightblue" d="M165.22,-29C173.85,-29 182.53,-29 190.92,-29"/>
<polygon fill="midnightblue" stroke="midnightblue" points="191,-32.5 201,-29 191,-25.5 191,-32.5"/>
</g>
<!-- Node3 -->
<g id="node3" class="node">
<title>Node3</title>
<g id="a_node3"><a xlink:href="logging_8h.html#a9585f583c260f40a73f2490914edc689" target="_top" xlink:title="Retrieves the current logging level from the environment variable LOG_LEVEL.">
<polygon fill="none" stroke="black" points="363.5,-38.5 363.5,-57.5 445.5,-57.5 445.5,-38.5 363.5,-38.5"/>
<text text-anchor="middle" x="404.5" y="-45.5" font-family="Helvetica,sans-Serif" font-size="10.00">get_log_level</text>
</a>
</g>
</g>
<!-- Node2&#45;&gt;Node3 -->
<g id="edge2" class="edge">
<title>Node2&#45;&gt;Node3</title>
<path fill="none" stroke="midnightblue" d="M312.28,-36.13C325.69,-37.87 339.97,-39.73 353.16,-41.45"/>
<polygon fill="midnightblue" stroke="midnightblue" points="353.1,-44.97 363.46,-42.79 354,-38.03 353.1,-44.97"/>
</g>
<!-- Node4 -->
<g id="node4" class="node">
<title>Node4</title>
<g id="a_node4"><a xlink:href="logging_8h.html#a2358badbcda33fc9d80ebd6a59d2a2cd" target="_top" xlink:title="Checks if a given function is in the allow&#45;list.">
<polygon fill="none" stroke="black" points="348,-0.5 348,-19.5 461,-19.5 461,-0.5 348,-0.5"/>
<text text-anchor="middle" x="404.5" y="-7.5" font-family="Helvetica,sans-Serif" font-size="10.00">is_function_allowed</text>
</a>
</g>
</g>
<!-- Node2&#45;&gt;Node4 -->
<g id="edge3" class="edge">
<title>Node2&#45;&gt;Node4</title>
<path fill="none" stroke="midnightblue" d="M312.28,-21.87C320.66,-20.78 329.37,-19.65 337.95,-18.53"/>
<polygon fill="midnightblue" stroke="midnightblue" points="338.46,-21.99 347.93,-17.23 337.56,-15.05 338.46,-21.99"/>
</g>
</g>
</svg>
