<?xml version="1.0" encoding="UTF-8" standalone="no"?>
<!DOCTYPE svg PUBLIC "-//W3C//DTD SVG 1.1//EN"
 "http://www.w3.org/Graphics/SVG/1.1/DTD/svg11.dtd">
<!-- Generated by graphviz version 2.43.0 (0)
 -->
<!-- Title: Metric.c Pages: 1 -->
<svg width="2912pt" height="812pt"
 viewBox="0.00 0.00 2912.00 812.00" xmlns="http://www.w3.org/2000/svg" xmlns:xlink="http://www.w3.org/1999/xlink">
<g id="graph0" class="graph" transform="scale(1 1) rotate(0) translate(4 808)">
<title>Metric.c</title>
<!-- Node1 -->
<g id="node1" class="node">
<title>Node1</title>
<g id="a_node1"><a xlink:title=" ">
<polygon fill="#bfbfbf" stroke="black" points="2558,-784.5 2558,-803.5 2614,-803.5 2614,-784.5 2558,-784.5"/>
<text text-anchor="middle" x="2586" y="-791.5" font-family="Helvetica,sans-Serif" font-size="10.00">Metric.c</text>
</a>
</g>
</g>
<!-- Node2 -->
<g id="node2" class="node">
<title>Node2</title>
<g id="a_node2"><a xlink:title=" ">
<polygon fill="none" stroke="#bfbfbf" points="2547,-168.5 2547,-187.5 2599,-187.5 2599,-168.5 2547,-168.5"/>
<text text-anchor="middle" x="2573" y="-175.5" font-family="Helvetica,sans-Serif" font-size="10.00">petsc.h</text>
</a>
</g>
</g>
<!-- Node1&#45;&gt;Node2 -->
<g id="edge1" class="edge">
<title>Node1&#45;&gt;Node2</title>
<path fill="none" stroke="midnightblue" d="M2614.22,-789.41C2692.05,-778.73 2904,-744.05 2904,-683 2904,-683 2904,-683 2904,-457 2904,-304.15 2694.46,-218.54 2608.82,-189.93"/>
<polygon fill="midnightblue" stroke="midnightblue" points="2609.84,-186.59 2599.25,-186.8 2607.67,-193.24 2609.84,-186.59"/>
</g>
<!-- Node3 -->
<g id="node3" class="node">
<title>Node3</title>
<g id="a_node3"><a xlink:href="Metric_8h.html" target="_top" xlink:title=" ">
<polygon fill="none" stroke="black" points="2385,-728.5 2385,-747.5 2441,-747.5 2441,-728.5 2385,-728.5"/>
<text text-anchor="middle" x="2413" y="-735.5" font-family="Helvetica,sans-Serif" font-size="10.00">Metric.h</text>
</a>
</g>
</g>
<!-- Node1&#45;&gt;Node3 -->
<g id="edge2" class="edge">
<title>Node1&#45;&gt;Node3</title>
<path fill="none" stroke="midnightblue" d="M2558.59,-784.44C2529.23,-775.28 2482.48,-760.69 2449.9,-750.52"/>
<polygon fill="midnightblue" stroke="midnightblue" points="2450.87,-747.16 2440.28,-747.52 2448.79,-753.84 2450.87,-747.16"/>
</g>
<!-- Node3&#45;&gt;Node2 -->
<g id="edge3" class="edge">
<title>Node3&#45;&gt;Node2</title>
<path fill="none" stroke="midnightblue" d="M2441.15,-737.73C2508.99,-737.87 2676,-727.96 2676,-627 2676,-627 2676,-627 2676,-289 2676,-244.43 2630.38,-210.46 2599.86,-192.73"/>
<polygon fill="midnightblue" stroke="midnightblue" points="2601.38,-189.57 2590.94,-187.75 2597.97,-195.68 2601.38,-189.57"/>
</g>
<!-- Node4 -->
<g id="node4" class="node">
<title>Node4</title>
<g id="a_node4"><a xlink:href="variables_8h.html" target="_top" xlink:title="Main header file for a complex fluid dynamics solver.">
<polygon fill="none" stroke="black" points="2355.5,-56.5 2355.5,-75.5 2426.5,-75.5 2426.5,-56.5 2355.5,-56.5"/>
<text text-anchor="middle" x="2391" y="-63.5" font-family="Helvetica,sans-Serif" font-size="10.00">variables.h</text>
</a>
</g>
</g>
<!-- Node3&#45;&gt;Node4 -->
<g id="edge4" class="edge">
<title>Node3&#45;&gt;Node4</title>
<path fill="none" stroke="midnightblue" d="M2441.34,-736.23C2540.51,-732.79 2866,-714.81 2866,-627 2866,-627 2866,-627 2866,-457 2866,-299.08 2924.62,-177.66 2781,-112 2720.63,-84.4 2526.34,-72.75 2436.88,-68.75"/>
<polygon fill="midnightblue" stroke="midnightblue" points="2436.9,-65.25 2426.76,-68.32 2436.6,-72.25 2436.9,-65.25"/>
</g>
<!-- Node11 -->
<g id="node11" class="node">
<title>Node11</title>
<g id="a_node11"><a xlink:title=" ">
<polygon fill="none" stroke="#bfbfbf" points="162.5,-0.5 162.5,-19.5 215.5,-19.5 215.5,-0.5 162.5,-0.5"/>
<text text-anchor="middle" x="189" y="-7.5" font-family="Helvetica,sans-Serif" font-size="10.00">stdlib.h</text>
</a>
</g>
</g>
<!-- Node3&#45;&gt;Node11 -->
<g id="edge145" class="edge">
<title>Node3&#45;&gt;Node11</title>
<path fill="none" stroke="midnightblue" d="M2384.8,-736.8C2175.45,-735.25 860.21,-724.35 463,-692 255.89,-675.13 0,-834.8 0,-627 0,-627 0,-627 0,-121 0,-51.27 97.28,-24.98 152.26,-15.68"/>
<polygon fill="midnightblue" stroke="midnightblue" points="152.99,-19.11 162.32,-14.09 151.9,-12.2 152.99,-19.11"/>
</g>
<!-- Node14 -->
<g id="node14" class="node">
<title>Node14</title>
<g id="a_node14"><a xlink:href="logging_8h.html" target="_top" xlink:title="Logging utilities and macros for PETSc&#45;based applications.">
<polygon fill="none" stroke="black" points="2220,-672.5 2220,-691.5 2282,-691.5 2282,-672.5 2220,-672.5"/>
<text text-anchor="middle" x="2251" y="-679.5" font-family="Helvetica,sans-Serif" font-size="10.00">logging.h</text>
</a>
</g>
</g>
<!-- Node3&#45;&gt;Node14 -->
<g id="edge14" class="edge">
<title>Node3&#45;&gt;Node14</title>
<path fill="none" stroke="midnightblue" d="M2387.33,-728.44C2360.08,-719.36 2316.82,-704.94 2286.35,-694.78"/>
<polygon fill="midnightblue" stroke="midnightblue" points="2287.14,-691.36 2276.55,-691.52 2284.93,-698 2287.14,-691.36"/>
</g>
<!-- Node26 -->
<g id="node26" class="node">
<title>Node26</title>
<g id="a_node26"><a xlink:href="setup_8h.html" target="_top" xlink:title=" ">
<polygon fill="none" stroke="black" points="1036.5,-168.5 1036.5,-187.5 1089.5,-187.5 1089.5,-168.5 1036.5,-168.5"/>
<text text-anchor="middle" x="1063" y="-175.5" font-family="Helvetica,sans-Serif" font-size="10.00">setup.h</text>
</a>
</g>
</g>
<!-- Node3&#45;&gt;Node26 -->
<g id="edge147" class="edge">
<title>Node3&#45;&gt;Node26</title>
<path fill="none" stroke="midnightblue" d="M2384.71,-736.44C2119.32,-731.07 76,-687.77 76,-627 76,-627 76,-627 76,-569 76,-401.73 581.77,-260.55 745,-224 845.6,-201.47 966.77,-188.01 1026.32,-182.27"/>
<polygon fill="midnightblue" stroke="midnightblue" points="1026.73,-185.75 1036.36,-181.32 1026.07,-178.78 1026.73,-185.75"/>
</g>
<!-- Node29 -->
<g id="node29" class="node">
<title>Node29</title>
<g id="a_node29"><a xlink:href="io_8h.html" target="_top" xlink:title="Public interface for data input/output routines.">
<polygon fill="none" stroke="black" points="1576.5,-448.5 1576.5,-467.5 1611.5,-467.5 1611.5,-448.5 1576.5,-448.5"/>
<text text-anchor="middle" x="1594" y="-455.5" font-family="Helvetica,sans-Serif" font-size="10.00">io.h</text>
</a>
</g>
</g>
<!-- Node3&#45;&gt;Node29 -->
<g id="edge146" class="edge">
<title>Node3&#45;&gt;Node29</title>
<path fill="none" stroke="midnightblue" d="M2384.98,-737.58C2270.98,-739.18 1848,-737.67 1848,-627 1848,-627 1848,-627 1848,-569 1848,-520.18 1687.99,-479.56 1621.97,-464.88"/>
<polygon fill="midnightblue" stroke="midnightblue" points="1622.38,-461.39 1611.86,-462.67 1620.88,-468.22 1622.38,-461.39"/>
</g>
<!-- Node5 -->
<g id="node5" class="node">
<title>Node5</title>
<g id="a_node5"><a xlink:title=" ">
<polygon fill="none" stroke="#bfbfbf" points="2472.5,-0.5 2472.5,-19.5 2541.5,-19.5 2541.5,-0.5 2472.5,-0.5"/>
<text text-anchor="middle" x="2507" y="-7.5" font-family="Helvetica,sans-Serif" font-size="10.00">petscvec.h</text>
</a>
</g>
</g>
<!-- Node4&#45;&gt;Node5 -->
<g id="edge5" class="edge">
<title>Node4&#45;&gt;Node5</title>
<path fill="none" stroke="midnightblue" d="M2409.38,-56.44C2428.22,-47.68 2457.73,-33.94 2479.38,-23.86"/>
<polygon fill="midnightblue" stroke="midnightblue" points="2481.12,-26.91 2488.71,-19.52 2478.16,-20.56 2481.12,-26.91"/>
</g>
<!-- Node6 -->
<g id="node6" class="node">
<title>Node6</title>
<g id="a_node6"><a xlink:title=" ">
<polygon fill="none" stroke="#bfbfbf" points="2560,-0.5 2560,-19.5 2640,-19.5 2640,-0.5 2560,-0.5"/>
<text text-anchor="middle" x="2600" y="-7.5" font-family="Helvetica,sans-Serif" font-size="10.00">petscdmda.h</text>
</a>
</g>
</g>
<!-- Node4&#45;&gt;Node6 -->
<g id="edge6" class="edge">
<title>Node4&#45;&gt;Node6</title>
<path fill="none" stroke="midnightblue" d="M2424.12,-56.44C2460.12,-47.14 2517.77,-32.25 2557.19,-22.06"/>
<polygon fill="midnightblue" stroke="midnightblue" points="2558.23,-25.41 2567.04,-19.52 2556.48,-18.63 2558.23,-25.41"/>
</g>
<!-- Node7 -->
<g id="node7" class="node">
<title>Node7</title>
<g id="a_node7"><a xlink:title=" ">
<polygon fill="none" stroke="#bfbfbf" points="2150.5,-0.5 2150.5,-19.5 2219.5,-19.5 2219.5,-0.5 2150.5,-0.5"/>
<text text-anchor="middle" x="2185" y="-7.5" font-family="Helvetica,sans-Serif" font-size="10.00">petscksp.h</text>
</a>
</g>
</g>
<!-- Node4&#45;&gt;Node7 -->
<g id="edge7" class="edge">
<title>Node4&#45;&gt;Node7</title>
<path fill="none" stroke="midnightblue" d="M2358.36,-56.44C2322.95,-47.16 2266.29,-32.31 2227.45,-22.13"/>
<polygon fill="midnightblue" stroke="midnightblue" points="2228.05,-18.67 2217.49,-19.52 2226.27,-25.44 2228.05,-18.67"/>
</g>
<!-- Node8 -->
<g id="node8" class="node">
<title>Node8</title>
<g id="a_node8"><a xlink:title=" ">
<polygon fill="none" stroke="#bfbfbf" points="2238,-0.5 2238,-19.5 2312,-19.5 2312,-0.5 2238,-0.5"/>
<text text-anchor="middle" x="2275" y="-7.5" font-family="Helvetica,sans-Serif" font-size="10.00">petscsnes.h</text>
</a>
</g>
</g>
<!-- Node4&#45;&gt;Node8 -->
<g id="edge8" class="edge">
<title>Node4&#45;&gt;Node8</title>
<path fill="none" stroke="midnightblue" d="M2372.62,-56.44C2353.78,-47.68 2324.27,-33.94 2302.62,-23.86"/>
<polygon fill="midnightblue" stroke="midnightblue" points="2303.84,-20.56 2293.29,-19.52 2300.88,-26.91 2303.84,-20.56"/>
</g>
<!-- Node9 -->
<g id="node9" class="node">
<title>Node9</title>
<g id="a_node9"><a xlink:title=" ">
<polygon fill="none" stroke="#bfbfbf" points="1371.5,-0.5 1371.5,-19.5 1472.5,-19.5 1472.5,-0.5 1371.5,-0.5"/>
<text text-anchor="middle" x="1422" y="-7.5" font-family="Helvetica,sans-Serif" font-size="10.00">petscdmswarm.h</text>
</a>
</g>
</g>
<!-- Node4&#45;&gt;Node9 -->
<g id="edge9" class="edge">
<title>Node4&#45;&gt;Node9</title>
<path fill="none" stroke="midnightblue" d="M2355.36,-63.01C2210.68,-54.95 1666.18,-24.61 1482.75,-14.39"/>
<polygon fill="midnightblue" stroke="midnightblue" points="1482.92,-10.89 1472.74,-13.83 1482.53,-17.88 1482.92,-10.89"/>
</g>
<!-- Node10 -->
<g id="node10" class="node">
<title>Node10</title>
<g id="a_node10"><a xlink:title=" ">
<polygon fill="none" stroke="#bfbfbf" points="2330,-0.5 2330,-19.5 2380,-19.5 2380,-0.5 2330,-0.5"/>
<text text-anchor="middle" x="2355" y="-7.5" font-family="Helvetica,sans-Serif" font-size="10.00">stdio.h</text>
</a>
</g>
</g>
<!-- Node4&#45;&gt;Node10 -->
<g id="edge10" class="edge">
<title>Node4&#45;&gt;Node10</title>
<path fill="none" stroke="midnightblue" d="M2385.06,-56.08C2380.02,-48.53 2372.66,-37.49 2366.49,-28.23"/>
<polygon fill="midnightblue" stroke="midnightblue" points="2369.29,-26.13 2360.83,-19.75 2363.47,-30.01 2369.29,-26.13"/>
</g>
<!-- Node4&#45;&gt;Node11 -->
<g id="edge11" class="edge">
<title>Node4&#45;&gt;Node11</title>
<path fill="none" stroke="midnightblue" d="M2355.07,-64.12C2093.94,-57.72 490.38,-18.39 225.91,-11.91"/>
<polygon fill="midnightblue" stroke="midnightblue" points="225.78,-8.4 215.69,-11.65 225.6,-15.4 225.78,-8.4"/>
</g>
<!-- Node12 -->
<g id="node12" class="node">
<title>Node12</title>
<g id="a_node12"><a xlink:title=" ">
<polygon fill="none" stroke="#bfbfbf" points="2794.5,-0.5 2794.5,-19.5 2847.5,-19.5 2847.5,-0.5 2794.5,-0.5"/>
<text text-anchor="middle" x="2821" y="-7.5" font-family="Helvetica,sans-Serif" font-size="10.00">string.h</text>
</a>
</g>
</g>
<!-- Node4&#45;&gt;Node12 -->
<g id="edge12" class="edge">
<title>Node4&#45;&gt;Node12</title>
<path fill="none" stroke="midnightblue" d="M2426.55,-60.54C2506.95,-50.44 2702.09,-25.93 2783.92,-15.66"/>
<polygon fill="midnightblue" stroke="midnightblue" points="2784.75,-19.08 2794.23,-14.36 2783.88,-12.13 2784.75,-19.08"/>
</g>
<!-- Node13 -->
<g id="node13" class="node">
<title>Node13</title>
<g id="a_node13"><a xlink:title=" ">
<polygon fill="none" stroke="#bfbfbf" points="2398,-0.5 2398,-19.5 2454,-19.5 2454,-0.5 2398,-0.5"/>
<text text-anchor="middle" x="2426" y="-7.5" font-family="Helvetica,sans-Serif" font-size="10.00">unistd.h</text>
</a>
</g>
</g>
<!-- Node4&#45;&gt;Node13 -->
<g id="edge13" class="edge">
<title>Node4&#45;&gt;Node13</title>
<path fill="none" stroke="midnightblue" d="M2396.78,-56.08C2401.67,-48.53 2408.83,-37.49 2414.83,-28.23"/>
<polygon fill="midnightblue" stroke="midnightblue" points="2417.83,-30.05 2420.33,-19.75 2411.95,-26.24 2417.83,-30.05"/>
</g>
<!-- Node14&#45;&gt;Node2 -->
<g id="edge15" class="edge">
<title>Node14&#45;&gt;Node2</title>
<path fill="none" stroke="midnightblue" d="M2282.28,-677.92C2367.94,-668.62 2600,-637.31 2600,-571 2600,-571 2600,-571 2600,-289 2600,-255.86 2588.3,-218.68 2580.3,-197.14"/>
<polygon fill="midnightblue" stroke="midnightblue" points="2583.51,-195.73 2576.64,-187.66 2576.98,-198.25 2583.51,-195.73"/>
</g>
<!-- Node14&#45;&gt;Node4 -->
<g id="edge20" class="edge">
<title>Node14&#45;&gt;Node4</title>
<path fill="none" stroke="midnightblue" d="M2282.11,-680.31C2337.56,-678.23 2456.45,-669.82 2550,-636 2674.64,-590.94 2790,-591.54 2790,-459 2790,-459 2790,-459 2790,-401 2790,-325.31 2828,-310.69 2828,-235 2828,-235 2828,-235 2828,-177 2828,-96.96 2548.83,-74.6 2436.76,-68.84"/>
<polygon fill="midnightblue" stroke="midnightblue" points="2436.92,-65.35 2426.76,-68.35 2436.58,-72.34 2436.92,-65.35"/>
</g>
<!-- Node14&#45;&gt;Node11 -->
<g id="edge16" class="edge">
<title>Node14&#45;&gt;Node11</title>
<path fill="none" stroke="midnightblue" d="M2219.86,-680.66C2017.74,-678.38 889.41,-664.54 546,-636 314.7,-616.78 38,-747.09 38,-515 38,-515 38,-515 38,-121 38,-64.46 108.01,-33.92 152.69,-20.18"/>
<polygon fill="midnightblue" stroke="midnightblue" points="153.74,-23.52 162.35,-17.35 151.77,-16.8 153.74,-23.52"/>
</g>
<!-- Node14&#45;&gt;Node12 -->
<g id="edge17" class="edge">
<title>Node14&#45;&gt;Node12</title>
<path fill="none" stroke="midnightblue" d="M2282.02,-678.41C2401.87,-668.01 2828,-627.09 2828,-571 2828,-571 2828,-571 2828,-401 2828,-297.26 2848.89,-271.51 2842,-168 2838.66,-117.86 2829.39,-59.3 2824.35,-29.89"/>
<polygon fill="midnightblue" stroke="midnightblue" points="2827.76,-29.06 2822.6,-19.81 2820.87,-30.26 2827.76,-29.06"/>
</g>
<!-- Node15 -->
<g id="node15" class="node">
<title>Node15</title>
<g id="a_node15"><a xlink:title=" ">
<polygon fill="none" stroke="#bfbfbf" points="2167,-112.5 2167,-131.5 2235,-131.5 2235,-112.5 2167,-112.5"/>
<text text-anchor="middle" x="2201" y="-119.5" font-family="Helvetica,sans-Serif" font-size="10.00">petscsys.h</text>
</a>
</g>
</g>
<!-- Node14&#45;&gt;Node15 -->
<g id="edge18" class="edge">
<title>Node14&#45;&gt;Node15</title>
<path fill="none" stroke="midnightblue" d="M2276.86,-672.41C2301.6,-663.94 2339.82,-650.25 2372,-636 2391.56,-627.34 2714,-480.39 2714,-459 2714,-459 2714,-459 2714,-345 2714,-290.17 2720.22,-269.75 2690,-224 2665.68,-187.18 2649.39,-183.33 2608,-168 2542.28,-143.66 2336.4,-130.12 2245.22,-125.18"/>
<polygon fill="midnightblue" stroke="midnightblue" points="2245.37,-121.69 2235.2,-124.65 2245,-128.68 2245.37,-121.69"/>
</g>
<!-- Node16 -->
<g id="node16" class="node">
<title>Node16</title>
<g id="a_node16"><a xlink:title=" ">
<polygon fill="none" stroke="#bfbfbf" points="2424.5,-616.5 2424.5,-635.5 2477.5,-635.5 2477.5,-616.5 2424.5,-616.5"/>
<text text-anchor="middle" x="2451" y="-623.5" font-family="Helvetica,sans-Serif" font-size="10.00">ctype.h</text>
</a>
</g>
</g>
<!-- Node14&#45;&gt;Node16 -->
<g id="edge19" class="edge">
<title>Node14&#45;&gt;Node16</title>
<path fill="none" stroke="midnightblue" d="M2282.25,-672.56C2318,-662.91 2376.47,-647.12 2414.34,-636.9"/>
<polygon fill="midnightblue" stroke="midnightblue" points="2415.7,-640.16 2424.44,-634.17 2413.87,-633.4 2415.7,-640.16"/>
</g>
<!-- Node17 -->
<g id="node17" class="node">
<title>Node17</title>
<g id="a_node17"><a xlink:href="AnalyticalSolution_8h.html" target="_top" xlink:title=" ">
<polygon fill="none" stroke="black" points="880,-616.5 880,-635.5 994,-635.5 994,-616.5 880,-616.5"/>
<text text-anchor="middle" x="937" y="-623.5" font-family="Helvetica,sans-Serif" font-size="10.00">AnalyticalSolution.h</text>
</a>
</g>
</g>
<!-- Node14&#45;&gt;Node17 -->
<g id="edge21" class="edge">
<title>Node14&#45;&gt;Node17</title>
<path fill="none" stroke="midnightblue" d="M2219.85,-679.81C2050.97,-673.1 1245.02,-640 1004.72,-629.92"/>
<polygon fill="midnightblue" stroke="midnightblue" points="1004.52,-626.41 994.39,-629.48 1004.23,-633.4 1004.52,-626.41"/>
</g>
<!-- Node30 -->
<g id="node30" class="node">
<title>Node30</title>
<g id="a_node30"><a xlink:href="Boundaries_8h.html" target="_top" xlink:title=" ">
<polygon fill="none" stroke="black" points="1550,-392.5 1550,-411.5 1630,-411.5 1630,-392.5 1550,-392.5"/>
<text text-anchor="middle" x="1590" y="-399.5" font-family="Helvetica,sans-Serif" font-size="10.00">Boundaries.h</text>
</a>
</g>
</g>
<!-- Node14&#45;&gt;Node30 -->
<g id="edge144" class="edge">
<title>Node14&#45;&gt;Node30</title>
<path fill="none" stroke="midnightblue" d="M2229.85,-672.35C2204.19,-659.68 2160.65,-635.44 2123,-616 2020.55,-563.11 1997.54,-542.89 1889,-504 1827.71,-482.04 1808.99,-487.91 1747,-468 1698.55,-452.44 1643.86,-430.06 1613.32,-416.03"/>
<polygon fill="midnightblue" stroke="midnightblue" points="1614.47,-412.7 1603.93,-411.62 1611.49,-419.04 1614.47,-412.7"/>
</g>
<!-- Node17&#45;&gt;Node4 -->
<g id="edge29" class="edge">
<title>Node17&#45;&gt;Node4</title>
<path fill="none" stroke="midnightblue" d="M994.22,-624.9C1153.32,-624.1 1614.3,-618.39 1995,-580 2164.5,-562.91 2752,-629.36 2752,-459 2752,-459 2752,-459 2752,-401 2752,-325.31 2790,-310.69 2790,-235 2790,-235 2790,-235 2790,-177 2790,-104.42 2541.52,-77.89 2436.74,-69.93"/>
<polygon fill="midnightblue" stroke="midnightblue" points="2436.99,-66.44 2426.76,-69.19 2436.48,-73.42 2436.99,-66.44"/>
</g>
<!-- Node17&#45;&gt;Node9 -->
<g id="edge23" class="edge">
<title>Node17&#45;&gt;Node9</title>
<path fill="none" stroke="midnightblue" d="M879.82,-623.55C763.54,-620 508.25,-608.97 482,-580 340.92,-424.28 395.92,-255.94 549,-112 608.18,-56.36 1173.01,-23.4 1361.28,-13.89"/>
<polygon fill="midnightblue" stroke="midnightblue" points="1361.47,-17.38 1371.28,-13.39 1361.12,-10.39 1361.47,-17.38"/>
</g>
<!-- Node17&#45;&gt;Node11 -->
<g id="edge24" class="edge">
<title>Node17&#45;&gt;Node11</title>
<path fill="none" stroke="midnightblue" d="M879.93,-624.84C713.29,-623.92 235.44,-617.96 177,-580 94.79,-526.6 94,-462.22 94,-235 94,-235 94,-235 94,-121 94,-77.74 136.61,-43.09 164.75,-24.91"/>
<polygon fill="midnightblue" stroke="midnightblue" points="166.66,-27.85 173.31,-19.6 162.97,-21.9 166.66,-27.85"/>
</g>
<!-- Node17&#45;&gt;Node14 -->
<g id="edge140" class="edge">
<title>Node17&#45;&gt;Node14</title>
<path fill="none" stroke="midnightblue" d="M994.12,-629.23C1216.07,-638.14 2017.9,-671.09 2209.64,-679.19"/>
<polygon fill="midnightblue" stroke="midnightblue" points="2209.72,-682.7 2219.86,-679.62 2210.01,-675.7 2209.72,-682.7"/>
</g>
<!-- Node18 -->
<g id="node18" class="node">
<title>Node18</title>
<g id="a_node18"><a xlink:title=" ">
<polygon fill="none" stroke="#bfbfbf" points="557.5,-112.5 557.5,-131.5 618.5,-131.5 618.5,-112.5 557.5,-112.5"/>
<text text-anchor="middle" x="588" y="-119.5" font-family="Helvetica,sans-Serif" font-size="10.00">petscpf.h</text>
</a>
</g>
</g>
<!-- Node17&#45;&gt;Node18 -->
<g id="edge22" class="edge">
<title>Node17&#45;&gt;Node18</title>
<path fill="none" stroke="midnightblue" d="M879.99,-624.48C739.41,-622.67 379.34,-614.67 265,-580 209.56,-563.19 152,-572.94 152,-515 152,-515 152,-515 152,-457 152,-341.32 172,-288.55 268,-224 356.84,-164.26 483.03,-138.24 547.17,-128.32"/>
<polygon fill="midnightblue" stroke="midnightblue" points="547.91,-131.75 557.29,-126.81 546.88,-124.82 547.91,-131.75"/>
</g>
<!-- Node19 -->
<g id="node19" class="node">
<title>Node19</title>
<g id="a_node19"><a xlink:title=" ">
<polygon fill="none" stroke="#bfbfbf" points="640,-112.5 640,-131.5 688,-131.5 688,-112.5 640,-112.5"/>
<text text-anchor="middle" x="664" y="-119.5" font-family="Helvetica,sans-Serif" font-size="10.00">time.h</text>
</a>
</g>
</g>
<!-- Node17&#45;&gt;Node19 -->
<g id="edge25" class="edge">
<title>Node17&#45;&gt;Node19</title>
<path fill="none" stroke="midnightblue" d="M879.97,-625.79C746.01,-626.87 415.06,-624.77 315,-580 244.42,-548.42 190,-536.32 190,-459 190,-459 190,-459 190,-401 190,-242.16 311.85,-222.64 461,-168 532.29,-141.88 554.05,-149.21 628,-132 628.59,-131.86 629.18,-131.72 629.78,-131.58"/>
<polygon fill="midnightblue" stroke="midnightblue" points="630.73,-134.96 639.63,-129.21 629.08,-128.15 630.73,-134.96"/>
</g>
<!-- Node20 -->
<g id="node20" class="node">
<title>Node20</title>
<g id="a_node20"><a xlink:title=" ">
<polygon fill="none" stroke="#bfbfbf" points="1461.5,-112.5 1461.5,-131.5 1512.5,-131.5 1512.5,-112.5 1461.5,-112.5"/>
<text text-anchor="middle" x="1487" y="-119.5" font-family="Helvetica,sans-Serif" font-size="10.00">math.h</text>
</a>
</g>
</g>
<!-- Node17&#45;&gt;Node20 -->
<g id="edge26" class="edge">
<title>Node17&#45;&gt;Node20</title>
<path fill="none" stroke="midnightblue" d="M945.43,-616.47C957.87,-603.93 981.94,-579.86 1003,-560 1181.93,-391.26 1405.73,-194.21 1469.38,-138.41"/>
<polygon fill="midnightblue" stroke="midnightblue" points="1471.76,-140.99 1476.97,-131.77 1467.14,-135.72 1471.76,-140.99"/>
</g>
<!-- Node21 -->
<g id="node21" class="node">
<title>Node21</title>
<g id="a_node21"><a xlink:title=" ">
<polygon fill="none" stroke="#bfbfbf" points="819,-112.5 819,-131.5 893,-131.5 893,-112.5 819,-112.5"/>
<text text-anchor="middle" x="856" y="-119.5" font-family="Helvetica,sans-Serif" font-size="10.00">petsctime.h</text>
</a>
</g>
</g>
<!-- Node17&#45;&gt;Node21 -->
<g id="edge27" class="edge">
<title>Node17&#45;&gt;Node21</title>
<path fill="none" stroke="midnightblue" d="M879.89,-624.46C754.53,-622.64 459.06,-614.69 366,-580 326.69,-565.34 308.92,-561.45 290,-524 226.98,-399.29 274.28,-310.52 384,-224 450.07,-171.9 702.92,-139.39 808.86,-127.79"/>
<polygon fill="midnightblue" stroke="midnightblue" points="809.38,-131.26 818.95,-126.71 808.63,-124.3 809.38,-131.26"/>
</g>
<!-- Node22 -->
<g id="node22" class="node">
<title>Node22</title>
<g id="a_node22"><a xlink:title=" ">
<polygon fill="none" stroke="#bfbfbf" points="913.5,-112.5 913.5,-131.5 1032.5,-131.5 1032.5,-112.5 913.5,-112.5"/>
<text text-anchor="middle" x="973" y="-119.5" font-family="Helvetica,sans-Serif" font-size="10.00">petscdmcomposite.h</text>
</a>
</g>
</g>
<!-- Node17&#45;&gt;Node22 -->
<g id="edge28" class="edge">
<title>Node17&#45;&gt;Node22</title>
<path fill="none" stroke="midnightblue" d="M879.95,-621.73C797.18,-614.08 656.47,-588.61 684,-504 738.37,-336.88 900.41,-185.64 954.9,-138.28"/>
<polygon fill="midnightblue" stroke="midnightblue" points="957.39,-140.76 962.69,-131.58 952.82,-135.45 957.39,-140.76"/>
</g>
<!-- Node23 -->
<g id="node23" class="node">
<title>Node23</title>
<g id="a_node23"><a xlink:href="ParticleSwarm_8h.html" target="_top" xlink:title="Header file for Particle Motion and migration related functions.">
<polygon fill="none" stroke="black" points="1970,-504.5 1970,-523.5 2066,-523.5 2066,-504.5 1970,-504.5"/>
<text text-anchor="middle" x="2018" y="-511.5" font-family="Helvetica,sans-Serif" font-size="10.00">ParticleSwarm.h</text>
</a>
</g>
</g>
<!-- Node17&#45;&gt;Node23 -->
<g id="edge30" class="edge">
<title>Node17&#45;&gt;Node23</title>
<path fill="none" stroke="midnightblue" d="M994.38,-625.36C1127.54,-625.44 1467.57,-621.19 1748,-580 1832.08,-567.65 1928.36,-541.5 1980.2,-526.4"/>
<polygon fill="midnightblue" stroke="midnightblue" points="1981.34,-529.71 1989.95,-523.53 1979.37,-522.99 1981.34,-529.71"/>
</g>
<!-- Node25 -->
<g id="node25" class="node">
<title>Node25</title>
<g id="a_node25"><a xlink:href="walkingsearch_8h.html" target="_top" xlink:title="Header file for particle location functions using the walking search algorithm.">
<polygon fill="none" stroke="black" points="1830,-224.5 1830,-243.5 1926,-243.5 1926,-224.5 1830,-224.5"/>
<text text-anchor="middle" x="1878" y="-231.5" font-family="Helvetica,sans-Serif" font-size="10.00">walkingsearch.h</text>
</a>
</g>
</g>
<!-- Node17&#45;&gt;Node25 -->
<g id="edge138" class="edge">
<title>Node17&#45;&gt;Node25</title>
<path fill="none" stroke="midnightblue" d="M994.11,-624.6C1215.24,-622.42 2006.3,-608.74 2075,-524 2147.51,-434.57 2071.85,-358.89 1988,-280 1971.07,-264.07 1947.74,-253.45 1926.92,-246.54"/>
<polygon fill="midnightblue" stroke="midnightblue" points="1927.84,-243.17 1917.25,-243.54 1925.76,-249.85 1927.84,-243.17"/>
</g>
<!-- Node17&#45;&gt;Node26 -->
<g id="edge142" class="edge">
<title>Node17&#45;&gt;Node26</title>
<path fill="none" stroke="midnightblue" d="M879.99,-623.49C765.01,-619.76 514.51,-608.26 489,-580 466.37,-554.93 479.08,-536.29 489,-504 540.55,-336.23 736.75,-286.58 881,-224 906.48,-212.95 980.88,-195.36 1026.43,-185.77"/>
<polygon fill="midnightblue" stroke="midnightblue" points="1027.15,-189.19 1036.23,-183.74 1025.73,-182.34 1027.15,-189.19"/>
</g>
<!-- Node28 -->
<g id="node28" class="node">
<title>Node28</title>
<g id="a_node28"><a xlink:href="grid_8h.html" target="_top" xlink:title="Public interface for grid, solver, and metric setup routines.">
<polygon fill="none" stroke="black" points="1666,-112.5 1666,-131.5 1710,-131.5 1710,-112.5 1666,-112.5"/>
<text text-anchor="middle" x="1688" y="-119.5" font-family="Helvetica,sans-Serif" font-size="10.00">grid.h</text>
</a>
</g>
</g>
<!-- Node17&#45;&gt;Node28 -->
<g id="edge139" class="edge">
<title>Node17&#45;&gt;Node28</title>
<path fill="none" stroke="midnightblue" d="M994.13,-624.83C1179.5,-623.89 1762.84,-617.93 1947,-580 2015.88,-565.81 2030.59,-552.24 2095,-524 2255.73,-453.52 2448,-522.51 2448,-347 2448,-347 2448,-347 2448,-289 2448,-137.64 1865.39,-124.07 1720.38,-123.04"/>
<polygon fill="midnightblue" stroke="midnightblue" points="1720.35,-119.54 1710.33,-122.98 1720.31,-126.54 1720.35,-119.54"/>
</g>
<!-- Node17&#45;&gt;Node29 -->
<g id="edge141" class="edge">
<title>Node17&#45;&gt;Node29</title>
<path fill="none" stroke="midnightblue" d="M994.38,-623.05C1129.03,-618.11 1457.25,-603.76 1501,-580 1543.74,-556.79 1573,-504.66 1586.14,-477.01"/>
<polygon fill="midnightblue" stroke="midnightblue" points="1589.41,-478.28 1590.38,-467.72 1583.04,-475.37 1589.41,-478.28"/>
</g>
<!-- Node31 -->
<g id="node31" class="node">
<title>Node31</title>
<g id="a_node31"><a xlink:href="interpolation_8h.html" target="_top" xlink:title=" ">
<polygon fill="none" stroke="black" points="808,-560.5 808,-579.5 896,-579.5 896,-560.5 808,-560.5"/>
<text text-anchor="middle" x="852" y="-567.5" font-family="Helvetica,sans-Serif" font-size="10.00">interpolation.h</text>
</a>
</g>
</g>
<!-- Node17&#45;&gt;Node31 -->
<g id="edge143" class="edge">
<title>Node17&#45;&gt;Node31</title>
<path fill="none" stroke="midnightblue" d="M923.34,-616.32C910.08,-607.9 889.73,-594.97 874.15,-585.07"/>
<polygon fill="midnightblue" stroke="midnightblue" points="875.94,-582.06 865.62,-579.65 872.19,-587.97 875.94,-582.06"/>
</g>
<!-- Node23&#45;&gt;Node2 -->
<g id="edge31" class="edge">
<title>Node23&#45;&gt;Node2</title>
<path fill="none" stroke="midnightblue" d="M2046.15,-504.43C2073.11,-495.99 2114.78,-482.31 2150,-468 2257.57,-424.31 2290.21,-421.61 2386,-356 2458.11,-306.61 2529.16,-229.41 2558.7,-195.7"/>
<polygon fill="midnightblue" stroke="midnightblue" points="2561.68,-197.6 2565.59,-187.75 2556.4,-193.01 2561.68,-197.6"/>
</g>
<!-- Node23&#45;&gt;Node3 -->
<g id="edge136" class="edge">
<title>Node23&#45;&gt;Node3</title>
<path fill="none" stroke="midnightblue" d="M2066.36,-517.96C2175.28,-525.75 2434.41,-550.88 2487,-616 2515.57,-651.37 2464.43,-698.66 2433.7,-722.28"/>
<polygon fill="midnightblue" stroke="midnightblue" points="2431.58,-719.5 2425.66,-728.29 2435.77,-725.11 2431.58,-719.5"/>
</g>
<!-- Node23&#45;&gt;Node4 -->
<g id="edge35" class="edge">
<title>Node23&#45;&gt;Node4</title>
<path fill="none" stroke="midnightblue" d="M2066.13,-510.47C2211.81,-501.53 2638,-465.26 2638,-347 2638,-347 2638,-347 2638,-177 2638,-89.87 2508.14,-71.26 2436.74,-67.61"/>
<polygon fill="midnightblue" stroke="midnightblue" points="2436.79,-64.11 2426.65,-67.18 2436.49,-71.11 2436.79,-64.11"/>
</g>
<!-- Node23&#45;&gt;Node9 -->
<g id="edge32" class="edge">
<title>Node23&#45;&gt;Node9</title>
<path fill="none" stroke="midnightblue" d="M2003.98,-504.32C1950.73,-470.14 1764,-338.9 1764,-179 1764,-179 1764,-179 1764,-121 1764,-62.64 1581.26,-30.83 1482.94,-17.93"/>
<polygon fill="midnightblue" stroke="midnightblue" points="1483.2,-14.43 1472.83,-16.63 1482.3,-21.38 1483.2,-14.43"/>
</g>
<!-- Node23&#45;&gt;Node14 -->
<g id="edge36" class="edge">
<title>Node23&#45;&gt;Node14</title>
<path fill="none" stroke="midnightblue" d="M2066.05,-517.89C2102.1,-522.27 2150.92,-533.15 2185,-560 2218.88,-586.69 2237.77,-635.78 2245.98,-662.5"/>
<polygon fill="midnightblue" stroke="midnightblue" points="2242.72,-663.81 2248.86,-672.45 2249.44,-661.87 2242.72,-663.81"/>
</g>
<!-- Node23&#45;&gt;Node20 -->
<g id="edge34" class="edge">
<title>Node23&#45;&gt;Node20</title>
<path fill="none" stroke="midnightblue" d="M1991.68,-504.45C1969.16,-496.58 1936.32,-483.76 1910,-468 1735.22,-363.35 1555.71,-191.19 1502.65,-138.69"/>
<polygon fill="midnightblue" stroke="midnightblue" points="1505.05,-136.14 1495.5,-131.57 1500.12,-141.1 1505.05,-136.14"/>
</g>
<!-- Node24 -->
<g id="node24" class="node">
<title>Node24</title>
<g id="a_node24"><a xlink:title=" ">
<polygon fill="none" stroke="#bfbfbf" points="2054,-168.5 2054,-187.5 2116,-187.5 2116,-168.5 2054,-168.5"/>
<text text-anchor="middle" x="2085" y="-175.5" font-family="Helvetica,sans-Serif" font-size="10.00">stdbool.h</text>
</a>
</g>
</g>
<!-- Node23&#45;&gt;Node24 -->
<g id="edge33" class="edge">
<title>Node23&#45;&gt;Node24</title>
<path fill="none" stroke="midnightblue" d="M2042.49,-504.4C2090.71,-485.96 2196.9,-437.55 2239,-356 2275.57,-285.15 2166.18,-219.16 2112.66,-192.03"/>
<polygon fill="midnightblue" stroke="midnightblue" points="2114.18,-188.87 2103.66,-187.56 2111.07,-195.14 2114.18,-188.87"/>
</g>
<!-- Node23&#45;&gt;Node25 -->
<g id="edge37" class="edge">
<title>Node23&#45;&gt;Node25</title>
<path fill="none" stroke="midnightblue" d="M2018.65,-504.29C2020.63,-471.22 2023.5,-351.62 1968,-280 1956.19,-264.76 1937.84,-254.3 1920.78,-247.33"/>
<polygon fill="midnightblue" stroke="midnightblue" points="1921.54,-243.87 1910.95,-243.62 1919.07,-250.42 1921.54,-243.87"/>
</g>
<!-- Node23&#45;&gt;Node29 -->
<g id="edge137" class="edge">
<title>Node23&#45;&gt;Node29</title>
<path fill="none" stroke="midnightblue" d="M1969.77,-506.86C1880.59,-495.5 1692.52,-471.55 1621.73,-462.53"/>
<polygon fill="midnightblue" stroke="midnightblue" points="1622.15,-459.06 1611.79,-461.27 1621.27,-466 1622.15,-459.06"/>
</g>
<!-- Node25&#45;&gt;Node2 -->
<g id="edge38" class="edge">
<title>Node25&#45;&gt;Node2</title>
<path fill="none" stroke="midnightblue" d="M1926.04,-229.27C2057.44,-219.06 2420.69,-190.83 2536.81,-181.81"/>
<polygon fill="midnightblue" stroke="midnightblue" points="2537.25,-185.29 2546.94,-181.02 2536.7,-178.31 2537.25,-185.29"/>
</g>
<!-- Node25&#45;&gt;Node4 -->
<g id="edge41" class="edge">
<title>Node25&#45;&gt;Node4</title>
<path fill="none" stroke="midnightblue" d="M1894.25,-224.48C1936.55,-202.63 2054.01,-144.09 2158,-112 2221.63,-92.36 2297.8,-79.58 2345.3,-72.83"/>
<polygon fill="midnightblue" stroke="midnightblue" points="2345.86,-76.29 2355.28,-71.44 2344.89,-69.35 2345.86,-76.29"/>
</g>
<!-- Node25&#45;&gt;Node14 -->
<g id="edge42" class="edge">
<title>Node25&#45;&gt;Node14</title>
<path fill="none" stroke="midnightblue" d="M1903.57,-243.58C1942.8,-256.6 2020.29,-281.75 2087,-300 2153.96,-318.32 2189.77,-287.05 2239,-336 2296.41,-393.08 2282,-432.05 2282,-513 2282,-571 2282,-571 2282,-571 2282,-604.59 2268.44,-641.86 2259.26,-663.25"/>
<polygon fill="midnightblue" stroke="midnightblue" points="2256.06,-661.83 2255.18,-672.39 2262.45,-664.69 2256.06,-661.83"/>
</g>
<!-- Node25&#45;&gt;Node20 -->
<g id="edge40" class="edge">
<title>Node25&#45;&gt;Node20</title>
<path fill="none" stroke="midnightblue" d="M1847.64,-224.46C1776.44,-204.43 1598.96,-154.5 1522.72,-133.05"/>
<polygon fill="midnightblue" stroke="midnightblue" points="1523.23,-129.56 1512.66,-130.22 1521.34,-136.3 1523.23,-129.56"/>
</g>
<!-- Node25&#45;&gt;Node24 -->
<g id="edge39" class="edge">
<title>Node25&#45;&gt;Node24</title>
<path fill="none" stroke="midnightblue" d="M1910.8,-224.44C1946.8,-215.05 2004.66,-199.96 2043.72,-189.77"/>
<polygon fill="midnightblue" stroke="midnightblue" points="2044.92,-193.07 2053.71,-187.16 2043.15,-186.3 2044.92,-193.07"/>
</g>
<!-- Node25&#45;&gt;Node26 -->
<g id="edge43" class="edge">
<title>Node25&#45;&gt;Node26</title>
<path fill="none" stroke="midnightblue" d="M1829.72,-230.02C1680.81,-220.46 1231.27,-190.67 1099.56,-181.63"/>
<polygon fill="midnightblue" stroke="midnightblue" points="1099.79,-178.14 1089.57,-180.94 1099.31,-185.12 1099.79,-178.14"/>
</g>
<!-- Node26&#45;&gt;Node4 -->
<g id="edge53" class="edge">
<title>Node26&#45;&gt;Node4</title>
<path fill="none" stroke="midnightblue" d="M1086.11,-168.39C1126.7,-153.73 1213.71,-124.3 1290,-112 1498.09,-78.45 2163.72,-69.32 2345.02,-67.42"/>
<polygon fill="midnightblue" stroke="midnightblue" points="2345.31,-70.92 2355.27,-67.32 2345.24,-63.92 2345.31,-70.92"/>
</g>
<!-- Node26&#45;&gt;Node9 -->
<g id="edge45" class="edge">
<title>Node26&#45;&gt;Node9</title>
<path fill="none" stroke="midnightblue" d="M1071.15,-168.38C1092.78,-146.05 1154.37,-85.95 1218,-56 1263.47,-34.59 1319.49,-23.18 1361.31,-17.21"/>
<polygon fill="midnightblue" stroke="midnightblue" points="1361.92,-20.66 1371.35,-15.84 1360.97,-13.72 1361.92,-20.66"/>
</g>
<!-- Node26&#45;&gt;Node11 -->
<g id="edge46" class="edge">
<title>Node26&#45;&gt;Node11</title>
<path fill="none" stroke="midnightblue" d="M1062.97,-168.22C1062.4,-153.97 1059.04,-126.01 1042,-112 977.96,-59.35 381.46,-21.95 225.94,-13.04"/>
<polygon fill="midnightblue" stroke="midnightblue" points="226.11,-9.55 215.93,-12.47 225.71,-16.54 226.11,-9.55"/>
</g>
<!-- Node26&#45;&gt;Node14 -->
<g id="edge130" class="edge">
<title>Node26&#45;&gt;Node14</title>
<path fill="none" stroke="midnightblue" d="M1036.28,-183.15C885.21,-207.64 152.32,-340.34 366,-580 429.52,-651.25 1939.07,-676.47 2209.67,-680.43"/>
<polygon fill="midnightblue" stroke="midnightblue" points="2209.79,-683.93 2219.84,-680.57 2209.89,-676.93 2209.79,-683.93"/>
</g>
<!-- Node26&#45;&gt;Node15 -->
<g id="edge50" class="edge">
<title>Node26&#45;&gt;Node15</title>
<path fill="none" stroke="midnightblue" d="M1089.73,-175.73C1238.9,-168.65 1968.5,-134.03 2156.66,-125.1"/>
<polygon fill="midnightblue" stroke="midnightblue" points="2156.92,-128.6 2166.75,-124.63 2156.59,-121.6 2156.92,-128.6"/>
</g>
<!-- Node26&#45;&gt;Node17 -->
<g id="edge133" class="edge">
<title>Node26&#45;&gt;Node17</title>
<path fill="none" stroke="midnightblue" d="M1036.29,-186.25C996.43,-195.94 924.05,-213.13 899,-224 754.75,-286.58 558.55,-336.23 507,-504 497.08,-536.29 484.37,-554.93 507,-580 531.05,-606.64 755.01,-618.39 869.88,-622.77"/>
<polygon fill="midnightblue" stroke="midnightblue" points="869.85,-626.27 879.97,-623.15 870.11,-619.28 869.85,-626.27"/>
</g>
<!-- Node26&#45;&gt;Node18 -->
<g id="edge44" class="edge">
<title>Node26&#45;&gt;Node18</title>
<path fill="none" stroke="midnightblue" d="M1036.08,-175.16C967.97,-170.3 783.35,-155.82 631,-132 630.27,-131.89 629.52,-131.77 628.78,-131.64"/>
<polygon fill="midnightblue" stroke="midnightblue" points="629.4,-128.2 618.93,-129.87 628.15,-135.09 629.4,-128.2"/>
</g>
<!-- Node26&#45;&gt;Node19 -->
<g id="edge47" class="edge">
<title>Node26&#45;&gt;Node19</title>
<path fill="none" stroke="midnightblue" d="M1036.2,-173.37C965.94,-163.86 776.49,-138.22 698.38,-127.65"/>
<polygon fill="midnightblue" stroke="midnightblue" points="698.5,-124.14 688.12,-126.26 697.56,-131.07 698.5,-124.14"/>
</g>
<!-- Node26&#45;&gt;Node20 -->
<g id="edge48" class="edge">
<title>Node26&#45;&gt;Node20</title>
<path fill="none" stroke="midnightblue" d="M1089.52,-173.62C1162.81,-164.29 1368.12,-138.14 1451.31,-127.55"/>
<polygon fill="midnightblue" stroke="midnightblue" points="1451.82,-131.01 1461.3,-126.27 1450.94,-124.06 1451.82,-131.01"/>
</g>
<!-- Node26&#45;&gt;Node21 -->
<g id="edge49" class="edge">
<title>Node26&#45;&gt;Node21</title>
<path fill="none" stroke="midnightblue" d="M1036.36,-170.05C1001.46,-160.95 939.84,-144.87 898.46,-134.08"/>
<polygon fill="midnightblue" stroke="midnightblue" points="899.23,-130.66 888.67,-131.52 897.46,-137.43 899.23,-130.66"/>
</g>
<!-- Node26&#45;&gt;Node22 -->
<g id="edge51" class="edge">
<title>Node26&#45;&gt;Node22</title>
<path fill="none" stroke="midnightblue" d="M1048.54,-168.32C1034.5,-159.9 1012.95,-146.97 996.46,-137.07"/>
<polygon fill="midnightblue" stroke="midnightblue" points="997.8,-133.8 987.42,-131.65 994.2,-139.8 997.8,-133.8"/>
</g>
<!-- Node26&#45;&gt;Node23 -->
<g id="edge54" class="edge">
<title>Node26&#45;&gt;Node23</title>
<path fill="none" stroke="midnightblue" d="M1065.97,-187.57C1076.34,-216.2 1113.78,-309.32 1177,-356 1322.42,-463.38 1390.46,-433.98 1568,-468 1707.12,-494.66 1873.65,-506.09 1959.86,-510.52"/>
<polygon fill="midnightblue" stroke="midnightblue" points="1959.81,-514.02 1969.97,-511.03 1960.16,-507.03 1959.81,-514.02"/>
</g>
<!-- Node26&#45;&gt;Node25 -->
<g id="edge55" class="edge">
<title>Node26&#45;&gt;Node25</title>
<path fill="none" stroke="midnightblue" d="M1089.82,-180.61C1204.88,-187.89 1657.23,-217.83 1819.63,-228.88"/>
<polygon fill="midnightblue" stroke="midnightblue" points="1819.69,-232.39 1829.9,-229.58 1820.17,-225.41 1819.69,-232.39"/>
</g>
<!-- Node27 -->
<g id="node27" class="node">
<title>Node27</title>
<g id="a_node27"><a xlink:title=" ">
<polygon fill="none" stroke="#bfbfbf" points="1298.5,-112.5 1298.5,-131.5 1393.5,-131.5 1393.5,-112.5 1298.5,-112.5"/>
<text text-anchor="middle" x="1346" y="-119.5" font-family="Helvetica,sans-Serif" font-size="10.00">petscsystypes.h</text>
</a>
</g>
</g>
<!-- Node26&#45;&gt;Node27 -->
<g id="edge52" class="edge">
<title>Node26&#45;&gt;Node27</title>
<path fill="none" stroke="midnightblue" d="M1089.62,-171.92C1135.54,-163.16 1230.51,-145.04 1291.08,-133.48"/>
<polygon fill="midnightblue" stroke="midnightblue" points="1292.07,-136.85 1301.23,-131.54 1290.76,-129.98 1292.07,-136.85"/>
</g>
<!-- Node26&#45;&gt;Node28 -->
<g id="edge56" class="edge">
<title>Node26&#45;&gt;Node28</title>
<path fill="none" stroke="midnightblue" d="M1089.63,-174.43C1190.28,-165.31 1546.21,-134.56 1655.76,-125.52"/>
<polygon fill="midnightblue" stroke="midnightblue" points="1656.19,-129 1665.87,-124.69 1655.62,-122.02 1656.19,-129"/>
</g>
<!-- Node26&#45;&gt;Node29 -->
<g id="edge131" class="edge">
<title>Node26&#45;&gt;Node29</title>
<path fill="none" stroke="midnightblue" d="M1036.2,-186.81C984.62,-203.3 879.56,-244.7 914,-300 985.36,-414.56 1447.55,-448.63 1566.25,-455.54"/>
<polygon fill="midnightblue" stroke="midnightblue" points="1566.16,-459.04 1576.34,-456.11 1566.55,-452.05 1566.16,-459.04"/>
</g>
<!-- Node26&#45;&gt;Node30 -->
<g id="edge135" class="edge">
<title>Node26&#45;&gt;Node30</title>
<path fill="none" stroke="midnightblue" d="M1071.12,-187.66C1091.05,-208.62 1144.51,-263.07 1196,-300 1237.71,-329.92 1248.43,-339.4 1297,-356 1379,-384.03 1479.9,-394.65 1539.35,-398.64"/>
<polygon fill="midnightblue" stroke="midnightblue" points="1539.4,-402.15 1549.6,-399.29 1539.84,-395.17 1539.4,-402.15"/>
</g>
<!-- Node26&#45;&gt;Node31 -->
<g id="edge132" class="edge">
<title>Node26&#45;&gt;Node31</title>
<path fill="none" stroke="midnightblue" d="M1036.38,-186.86C1002.47,-195.96 946.72,-211.3 929,-224 878.86,-259.94 866.17,-277.36 847,-336 821.03,-415.42 834.45,-441.39 847,-524 848.34,-532.8 851.06,-542.24 853.07,-550.19"/>
<polygon fill="midnightblue" stroke="midnightblue" points="849.7,-551.17 855.2,-560.22 856.55,-549.71 849.7,-551.17"/>
</g>
<!-- Node33 -->
<g id="node33" class="node">
<title>Node33</title>
<g id="a_node33"><a xlink:href="ParticleMotion_8h.html" target="_top" xlink:title=" ">
<polygon fill="none" stroke="black" points="2096,-280.5 2096,-299.5 2192,-299.5 2192,-280.5 2096,-280.5"/>
<text text-anchor="middle" x="2144" y="-287.5" font-family="Helvetica,sans-Serif" font-size="10.00">ParticleMotion.h</text>
</a>
</g>
</g>
<!-- Node26&#45;&gt;Node33 -->
<g id="edge134" class="edge">
<title>Node26&#45;&gt;Node33</title>
<path fill="none" stroke="midnightblue" d="M1089.69,-179.01C1217.66,-179.26 1768.94,-182.75 1935,-224 1955.46,-229.08 1958.2,-236.77 1978,-244 2016.64,-258.11 2061.76,-270.06 2095.2,-278.09"/>
<polygon fill="midnightblue" stroke="midnightblue" points="2094.64,-281.56 2105.18,-280.46 2096.26,-274.75 2094.64,-281.56"/>
</g>
<!-- Node28&#45;&gt;Node4 -->
<g id="edge57" class="edge">
<title>Node28&#45;&gt;Node4</title>
<path fill="none" stroke="midnightblue" d="M1710.23,-118.9C1730.49,-117.01 1761.25,-114.2 1788,-112 1995.91,-94.89 2244.38,-77.23 2345.17,-70.18"/>
<polygon fill="midnightblue" stroke="midnightblue" points="2345.57,-73.66 2355.3,-69.47 2345.08,-66.68 2345.57,-73.66"/>
</g>
<!-- Node28&#45;&gt;Node14 -->
<g id="edge58" class="edge">
<title>Node28&#45;&gt;Node14</title>
<path fill="none" stroke="midnightblue" d="M1710.02,-123.67C1805.26,-126.72 2182.07,-140.34 2297,-168 2397.18,-192.11 2455.36,-187.13 2500,-280 2576.77,-439.72 2346.16,-615.74 2272.7,-666.55"/>
<polygon fill="midnightblue" stroke="midnightblue" points="2270.46,-663.84 2264.17,-672.37 2274.4,-669.63 2270.46,-663.84"/>
</g>
<!-- Node28&#45;&gt;Node26 -->
<g id="edge129" class="edge">
<title>Node28&#45;&gt;Node26</title>
<path fill="none" stroke="midnightblue" d="M1665.75,-125.17C1572.75,-133.64 1215.88,-164.49 1099.69,-174.11"/>
<polygon fill="midnightblue" stroke="midnightblue" points="1099.21,-170.64 1089.53,-174.95 1099.78,-177.62 1099.21,-170.64"/>
</g>
<!-- Node28&#45;&gt;Node29 -->
<g id="edge59" class="edge">
<title>Node28&#45;&gt;Node29</title>
<path fill="none" stroke="midnightblue" d="M1684.9,-131.52C1681.75,-140.48 1676.92,-155.07 1674,-168 1649.87,-274.86 1688.02,-314.03 1639,-412 1633.25,-423.5 1623.42,-433.84 1614.42,-441.7"/>
<polygon fill="midnightblue" stroke="midnightblue" points="1612.03,-439.14 1606.53,-448.19 1616.47,-444.55 1612.03,-439.14"/>
</g>
<!-- Node29&#45;&gt;Node4 -->
<g id="edge60" class="edge">
<title>Node29&#45;&gt;Node4</title>
<path fill="none" stroke="midnightblue" d="M1611.52,-456.62C1688.17,-454.47 2000.86,-440.7 2239,-356 2349.02,-316.87 2402.23,-298.15 2441,-188 2445.52,-175.15 2451.18,-136.84 2440,-112 2434.5,-99.78 2423.92,-89.39 2414,-81.69"/>
<polygon fill="midnightblue" stroke="midnightblue" points="2415.75,-78.64 2405.59,-75.63 2411.66,-84.32 2415.75,-78.64"/>
</g>
<!-- Node29&#45;&gt;Node14 -->
<g id="edge61" class="edge">
<title>Node29&#45;&gt;Node14</title>
<path fill="none" stroke="midnightblue" d="M1611.51,-464.34C1616.19,-465.66 1621.26,-466.98 1626,-468 1729.71,-490.41 1760.58,-472.84 1862,-504 1894.59,-514.01 2107.78,-622.3 2139,-636 2165.75,-647.73 2196.57,-660.03 2219.1,-668.8"/>
<polygon fill="midnightblue" stroke="midnightblue" points="2217.93,-672.1 2228.52,-672.44 2220.45,-665.57 2217.93,-672.1"/>
</g>
<!-- Node29&#45;&gt;Node30 -->
<g id="edge62" class="edge">
<title>Node29&#45;&gt;Node30</title>
<path fill="none" stroke="midnightblue" d="M1588.17,-448.08C1586.16,-441.01 1584.97,-430.86 1584.93,-421.99"/>
<polygon fill="midnightblue" stroke="midnightblue" points="1588.44,-421.94 1585.52,-411.75 1581.45,-421.53 1588.44,-421.94"/>
</g>
<!-- Node30&#45;&gt;Node4 -->
<g id="edge72" class="edge">
<title>Node30&#45;&gt;Node4</title>
<path fill="none" stroke="midnightblue" d="M1630.13,-399.78C1711.53,-396.72 1901.6,-386.63 2058,-356 2068.64,-353.92 2236.37,-306.57 2245,-300 2322.01,-241.33 2368.64,-129.38 2384.69,-85.4"/>
<polygon fill="midnightblue" stroke="midnightblue" points="2388.06,-86.35 2388.11,-75.75 2381.46,-84.01 2388.06,-86.35"/>
</g>
<!-- Node30&#45;&gt;Node9 -->
<g id="edge64" class="edge">
<title>Node30&#45;&gt;Node9</title>
<path fill="none" stroke="midnightblue" d="M1589.75,-392.31C1588.32,-355.66 1579.17,-211.12 1522,-112 1501.23,-75.99 1464.49,-43.63 1441.79,-25.72"/>
<polygon fill="midnightblue" stroke="midnightblue" points="1443.9,-22.92 1433.84,-19.58 1439.62,-28.46 1443.9,-22.92"/>
</g>
<!-- Node30&#45;&gt;Node11 -->
<g id="edge65" class="edge">
<title>Node30&#45;&gt;Node11</title>
<path fill="none" stroke="midnightblue" d="M1549.69,-401.43C1457.88,-401.61 1226.66,-397.49 1039,-356 759.85,-294.28 702.93,-234.4 436,-132 371.89,-107.4 353.32,-106.91 292,-76 262.04,-60.9 229.64,-39.54 209.34,-25.49"/>
<polygon fill="midnightblue" stroke="midnightblue" points="211.12,-22.46 200.92,-19.59 207.11,-28.19 211.12,-22.46"/>
</g>
<!-- Node30&#45;&gt;Node14 -->
<g id="edge76" class="edge">
<title>Node30&#45;&gt;Node14</title>
<path fill="none" stroke="midnightblue" d="M1615.08,-411.51C1649.08,-424.77 1710.93,-450.63 1765,-468 1826.99,-487.91 1845.71,-482.04 1907,-504 2015.54,-542.89 2038.55,-563.11 2141,-616 2173.8,-632.93 2211.06,-653.51 2232.95,-666.91"/>
<polygon fill="midnightblue" stroke="midnightblue" points="2231.26,-669.99 2241.59,-672.35 2234.99,-664.06 2231.26,-669.99"/>
</g>
<!-- Node30&#45;&gt;Node15 -->
<g id="edge69" class="edge">
<title>Node30&#45;&gt;Node15</title>
<path fill="none" stroke="midnightblue" d="M1630.18,-398.17C1702.8,-392.68 1860.57,-379.06 1992,-356 2018.23,-351.4 2206.09,-318.74 2225,-300 2268.29,-257.1 2230.97,-175.76 2211.29,-140.28"/>
<polygon fill="midnightblue" stroke="midnightblue" points="2214.3,-138.49 2206.29,-131.55 2208.23,-141.97 2214.3,-138.49"/>
</g>
<!-- Node30&#45;&gt;Node17 -->
<g id="edge95" class="edge">
<title>Node30&#45;&gt;Node17</title>
<path fill="none" stroke="midnightblue" d="M1564.88,-411.54C1464.01,-445.83 1088.28,-573.57 971.72,-613.2"/>
<polygon fill="midnightblue" stroke="midnightblue" points="970.54,-609.9 962.2,-616.43 972.79,-616.53 970.54,-609.9"/>
</g>
<!-- Node30&#45;&gt;Node18 -->
<g id="edge63" class="edge">
<title>Node30&#45;&gt;Node18</title>
<path fill="none" stroke="midnightblue" d="M1549.83,-400.9C1467,-399.9 1271.69,-393.38 1113,-356 988.14,-326.59 963.31,-298.09 847,-244 762.55,-204.73 662.74,-158.02 615.47,-135.87"/>
<polygon fill="midnightblue" stroke="midnightblue" points="616.74,-132.6 606.2,-131.53 613.77,-138.94 616.74,-132.6"/>
</g>
<!-- Node30&#45;&gt;Node19 -->
<g id="edge66" class="edge">
<title>Node30&#45;&gt;Node19</title>
<path fill="none" stroke="midnightblue" d="M1549.93,-400.82C1475.23,-399.57 1310.21,-392.5 1177,-356 977.87,-301.44 758.37,-178.46 687.46,-136.97"/>
<polygon fill="midnightblue" stroke="midnightblue" points="688.85,-133.73 678.45,-131.67 685.3,-139.76 688.85,-133.73"/>
</g>
<!-- Node30&#45;&gt;Node20 -->
<g id="edge67" class="edge">
<title>Node30&#45;&gt;Node20</title>
<path fill="none" stroke="midnightblue" d="M1586.8,-392.38C1572.45,-353.62 1513.73,-195.13 1493.72,-141.13"/>
<polygon fill="midnightblue" stroke="midnightblue" points="1496.91,-139.69 1490.16,-131.52 1490.35,-142.12 1496.91,-139.69"/>
</g>
<!-- Node30&#45;&gt;Node21 -->
<g id="edge68" class="edge">
<title>Node30&#45;&gt;Node21</title>
<path fill="none" stroke="midnightblue" d="M1549.95,-400.54C1462.4,-397.95 1249.59,-382.88 1097,-300 1006.67,-250.93 911.88,-171.87 873.58,-138.57"/>
<polygon fill="midnightblue" stroke="midnightblue" points="875.72,-135.79 865.89,-131.84 871.11,-141.06 875.72,-135.79"/>
</g>
<!-- Node30&#45;&gt;Node22 -->
<g id="edge70" class="edge">
<title>Node30&#45;&gt;Node22</title>
<path fill="none" stroke="midnightblue" d="M1565.18,-392.42C1541.42,-383.97 1504.76,-370.28 1474,-356 1315.6,-282.49 1290.52,-234.37 1129,-168 1093.83,-153.55 1052.41,-141.83 1021.09,-133.98"/>
<polygon fill="midnightblue" stroke="midnightblue" points="1021.84,-130.56 1011.29,-131.57 1020.17,-137.36 1021.84,-130.56"/>
</g>
<!-- Node30&#45;&gt;Node23 -->
<g id="edge73" class="edge">
<title>Node30&#45;&gt;Node23</title>
<path fill="none" stroke="midnightblue" d="M1621.15,-411.52C1667.48,-424.13 1757.33,-448.42 1834,-468 1880.89,-479.98 1934.68,-493.06 1971.93,-502.01"/>
<polygon fill="midnightblue" stroke="midnightblue" points="1971.44,-505.49 1981.98,-504.42 1973.08,-498.69 1971.44,-505.49"/>
</g>
<!-- Node30&#45;&gt;Node25 -->
<g id="edge74" class="edge">
<title>Node30&#45;&gt;Node25</title>
<path fill="none" stroke="midnightblue" d="M1605.08,-392.31C1652.22,-365.14 1797.09,-281.64 1854.35,-248.63"/>
<polygon fill="midnightblue" stroke="midnightblue" points="1856.15,-251.63 1863.07,-243.61 1852.66,-245.57 1856.15,-251.63"/>
</g>
<!-- Node30&#45;&gt;Node27 -->
<g id="edge71" class="edge">
<title>Node30&#45;&gt;Node27</title>
<path fill="none" stroke="midnightblue" d="M1564.32,-392.47C1526.43,-378.07 1460,-345.1 1460,-291 1460,-291 1460,-291 1460,-233 1460,-186.11 1409.45,-152.89 1375.67,-135.93"/>
<polygon fill="midnightblue" stroke="midnightblue" points="1377.17,-132.77 1366.64,-131.58 1374.13,-139.07 1377.17,-132.77"/>
</g>
<!-- Node30&#45;&gt;Node28 -->
<g id="edge75" class="edge">
<title>Node30&#45;&gt;Node28</title>
<path fill="none" stroke="midnightblue" d="M1630.09,-395.81C1763.08,-378.43 2182.29,-322.06 2201,-300 2242.13,-251.52 2297,-270.78 2125,-168 2056.66,-127.16 1809.17,-123 1720.16,-122.86"/>
<polygon fill="midnightblue" stroke="midnightblue" points="1720.12,-119.36 1710.12,-122.86 1720.12,-126.36 1720.12,-119.36"/>
</g>
<!-- Node30&#45;&gt;Node29 -->
<g id="edge77" class="edge">
<title>Node30&#45;&gt;Node29</title>
<path fill="none" stroke="midnightblue" d="M1595.78,-411.75C1597.81,-418.78 1599.01,-428.91 1599.07,-437.8"/>
<polygon fill="midnightblue" stroke="midnightblue" points="1595.56,-437.91 1598.51,-448.08 1602.55,-438.29 1595.56,-437.91"/>
</g>
<!-- Node30&#45;&gt;Node31 -->
<g id="edge78" class="edge">
<title>Node30&#45;&gt;Node31</title>
<path fill="none" stroke="midnightblue" d="M1552.06,-411.53C1428.3,-439.37 1036.41,-527.52 899.65,-558.28"/>
<polygon fill="midnightblue" stroke="midnightblue" points="898.86,-554.87 889.87,-560.48 900.39,-561.7 898.86,-554.87"/>
</g>
<!-- Node30&#45;&gt;Node33 -->
<g id="edge96" class="edge">
<title>Node30&#45;&gt;Node33</title>
<path fill="none" stroke="midnightblue" d="M1627.22,-392.49C1666.65,-383.46 1730.72,-368.77 1786,-356 1824.23,-347.16 1833.51,-343.65 1872,-336 1945.36,-321.42 2030.52,-307.87 2085.73,-299.53"/>
<polygon fill="midnightblue" stroke="midnightblue" points="2086.31,-302.98 2095.68,-298.03 2085.27,-296.06 2086.31,-302.98"/>
</g>
<!-- Node34 -->
<g id="node34" class="node">
<title>Node34</title>
<g id="a_node34"><a xlink:href="BC__Handlers_8h.html" target="_top" xlink:title=" ">
<polygon fill="none" stroke="black" points="2142,-336.5 2142,-355.5 2230,-355.5 2230,-336.5 2142,-336.5"/>
<text text-anchor="middle" x="2186" y="-343.5" font-family="Helvetica,sans-Serif" font-size="10.00">BC_Handlers.h</text>
</a>
</g>
</g>
<!-- Node30&#45;&gt;Node34 -->
<g id="edge105" class="edge">
<title>Node30&#45;&gt;Node34</title>
<path fill="none" stroke="midnightblue" d="M1630.12,-398.31C1718.68,-392.54 1936.82,-377.73 2119,-356 2123.15,-355.5 2127.47,-354.94 2131.82,-354.33"/>
<polygon fill="midnightblue" stroke="midnightblue" points="2132.59,-357.76 2141.99,-352.87 2131.59,-350.83 2132.59,-357.76"/>
</g>
<!-- Node35 -->
<g id="node35" class="node">
<title>Node35</title>
<g id="a_node35"><a xlink:href="wallfunction_8h.html" target="_top" xlink:title=" ">
<polygon fill="none" stroke="black" points="1306,-336.5 1306,-355.5 1392,-355.5 1392,-336.5 1306,-336.5"/>
<text text-anchor="middle" x="1349" y="-343.5" font-family="Helvetica,sans-Serif" font-size="10.00">wallfunction.h</text>
</a>
</g>
</g>
<!-- Node30&#45;&gt;Node35 -->
<g id="edge109" class="edge">
<title>Node30&#45;&gt;Node35</title>
<path fill="none" stroke="midnightblue" d="M1549.76,-393.09C1506.08,-383.8 1436.82,-368.32 1392.08,-357.89"/>
<polygon fill="midnightblue" stroke="midnightblue" points="1392.63,-354.43 1382.1,-355.56 1391.03,-361.24 1392.63,-354.43"/>
</g>
<!-- Node31&#45;&gt;Node4 -->
<g id="edge88" class="edge">
<title>Node31&#45;&gt;Node4</title>
<path fill="none" stroke="midnightblue" d="M896.36,-568.08C1023.58,-565.11 1387.92,-554.13 1503,-524 1559.16,-509.3 1575.27,-503.76 1621,-468 1731.46,-381.63 1708.1,-307.16 1821,-224 1927.59,-145.49 1969.37,-147.14 2097,-112 2182.94,-88.34 2286.67,-76.12 2345.12,-70.68"/>
<polygon fill="midnightblue" stroke="midnightblue" points="2345.5,-74.16 2355.14,-69.77 2344.86,-67.19 2345.5,-74.16"/>
</g>
<!-- Node31&#45;&gt;Node9 -->
<g id="edge80" class="edge">
<title>Node31&#45;&gt;Node9</title>
<path fill="none" stroke="midnightblue" d="M807.77,-569.68C751.46,-568.82 652.53,-561.42 578,-524 396.27,-432.75 235.89,-256.47 379,-112 412.95,-77.72 425.83,-70.01 472,-56 556.64,-30.31 1165.24,-16.1 1361.3,-12.15"/>
<polygon fill="midnightblue" stroke="midnightblue" points="1361.5,-15.65 1371.43,-11.95 1361.36,-8.65 1361.5,-15.65"/>
</g>
<!-- Node31&#45;&gt;Node11 -->
<g id="edge81" class="edge">
<title>Node31&#45;&gt;Node11</title>
<path fill="none" stroke="midnightblue" d="M807.62,-569.49C677.16,-569.74 304,-561.49 304,-459 304,-459 304,-459 304,-401 304,-306.18 170,-329.82 170,-235 170,-235 170,-235 170,-121 170,-88.49 178.16,-51.35 183.78,-29.61"/>
<polygon fill="midnightblue" stroke="midnightblue" points="187.22,-30.32 186.44,-19.75 180.46,-28.5 187.22,-30.32"/>
</g>
<!-- Node31&#45;&gt;Node14 -->
<g id="edge92" class="edge">
<title>Node31&#45;&gt;Node14</title>
<path fill="none" stroke="midnightblue" d="M851.61,-579.92C851.52,-594.36 853.72,-622.6 871,-636 925.2,-678.02 1985.55,-680.87 2209.63,-681.01"/>
<polygon fill="midnightblue" stroke="midnightblue" points="2209.96,-684.51 2219.96,-681.01 2209.96,-677.51 2209.96,-684.51"/>
</g>
<!-- Node31&#45;&gt;Node15 -->
<g id="edge87" class="edge">
<title>Node31&#45;&gt;Node15</title>
<path fill="none" stroke="midnightblue" d="M896.33,-568.34C1102.03,-565.13 1958.41,-550.28 2075,-524 2269.02,-480.26 2486,-545.89 2486,-347 2486,-347 2486,-347 2486,-289 2486,-178.99 2325.48,-140.61 2245.38,-128.3"/>
<polygon fill="midnightblue" stroke="midnightblue" points="2245.5,-124.78 2235.09,-126.8 2244.48,-131.71 2245.5,-124.78"/>
</g>
<!-- Node31&#45;&gt;Node18 -->
<g id="edge79" class="edge">
<title>Node31&#45;&gt;Node18</title>
<path fill="none" stroke="midnightblue" d="M807.92,-565.21C745.7,-559.17 636.01,-545.76 603,-524 578.09,-507.58 579.12,-494.79 566,-468 528.11,-390.65 505.66,-365.09 519,-280 527.5,-225.8 559.51,-168.28 576.79,-140.3"/>
<polygon fill="midnightblue" stroke="midnightblue" points="579.84,-142.02 582.22,-131.69 573.92,-138.28 579.84,-142.02"/>
</g>
<!-- Node31&#45;&gt;Node19 -->
<g id="edge82" class="edge">
<title>Node31&#45;&gt;Node19</title>
<path fill="none" stroke="midnightblue" d="M807.92,-564.42C751.75,-557.85 658.62,-544.27 631,-524 562.71,-473.89 571.05,-435.2 541,-356 528.79,-323.81 517.62,-313.39 526,-280 532.87,-252.61 538.79,-246.39 556,-224 582.5,-189.53 621.2,-156.46 644.37,-138.03"/>
<polygon fill="midnightblue" stroke="midnightblue" points="646.72,-140.63 652.43,-131.71 642.4,-135.13 646.72,-140.63"/>
</g>
<!-- Node31&#45;&gt;Node20 -->
<g id="edge83" class="edge">
<title>Node31&#45;&gt;Node20</title>
<path fill="none" stroke="midnightblue" d="M852,-560.44C852,-541.94 852,-496.81 852,-459 852,-459 852,-459 852,-401 852,-269.18 1317,-159.39 1451.16,-130.46"/>
<polygon fill="midnightblue" stroke="midnightblue" points="1452.27,-133.8 1461.32,-128.29 1450.81,-126.95 1452.27,-133.8"/>
</g>
<!-- Node31&#45;&gt;Node21 -->
<g id="edge84" class="edge">
<title>Node31&#45;&gt;Node21</title>
<path fill="none" stroke="midnightblue" d="M807.95,-569.26C763.91,-567.38 696.26,-558.43 650,-524 632.84,-511.23 564.85,-375.47 556,-356 541.55,-324.2 520.25,-311.17 536,-280 587.84,-177.4 732.94,-141.03 808.66,-128.8"/>
<polygon fill="midnightblue" stroke="midnightblue" points="809.52,-132.21 818.87,-127.23 808.45,-125.29 809.52,-132.21"/>
</g>
<!-- Node31&#45;&gt;Node22 -->
<g id="edge85" class="edge">
<title>Node31&#45;&gt;Node22</title>
<path fill="none" stroke="midnightblue" d="M807.68,-562.69C763.64,-555.49 700.36,-542.28 684,-524 610.99,-442.4 600.62,-377.72 650,-280 697.6,-185.81 823.45,-147.54 903.28,-132.42"/>
<polygon fill="midnightblue" stroke="midnightblue" points="904.04,-135.84 913.26,-130.6 902.79,-128.95 904.04,-135.84"/>
</g>
<!-- Node31&#45;&gt;Node23 -->
<g id="edge89" class="edge">
<title>Node31&#45;&gt;Node23</title>
<path fill="none" stroke="midnightblue" d="M896.08,-566.96C1033.42,-560.61 1465.83,-540.6 1824,-524 1869.6,-521.89 1921.24,-519.49 1959.76,-517.7"/>
<polygon fill="midnightblue" stroke="midnightblue" points="1959.94,-521.2 1969.77,-517.24 1959.61,-514.21 1959.94,-521.2"/>
</g>
<!-- Node31&#45;&gt;Node25 -->
<g id="edge90" class="edge">
<title>Node31&#45;&gt;Node25</title>
<path fill="none" stroke="midnightblue" d="M896.28,-568.13C1076.7,-564.41 1748.61,-548.95 1786,-524 1877.61,-462.86 1867.86,-407.46 1892,-300 1895.55,-284.18 1890.99,-266.15 1886.15,-253.1"/>
<polygon fill="midnightblue" stroke="midnightblue" points="1889.39,-251.77 1882.36,-243.84 1882.91,-254.42 1889.39,-251.77"/>
</g>
<!-- Node31&#45;&gt;Node26 -->
<g id="edge94" class="edge">
<title>Node31&#45;&gt;Node26</title>
<path fill="none" stroke="midnightblue" d="M841.6,-560.22C835.94,-551.28 830.97,-536.94 829,-524 816.45,-441.39 803.03,-415.42 829,-336 848.17,-277.36 860.86,-259.94 911,-224 929.16,-210.99 987.26,-195.19 1026.29,-186.2"/>
<polygon fill="midnightblue" stroke="midnightblue" points="1027.27,-189.57 1036.25,-183.96 1025.73,-182.74 1027.27,-189.57"/>
</g>
<!-- Node31&#45;&gt;Node28 -->
<g id="edge91" class="edge">
<title>Node31&#45;&gt;Node28</title>
<path fill="none" stroke="midnightblue" d="M896.16,-568.35C1067.71,-565.62 1681.75,-553.77 1710,-524 1813.89,-414.51 1726.35,-203.45 1696.84,-140.89"/>
<polygon fill="midnightblue" stroke="midnightblue" points="1699.84,-139.07 1692.35,-131.58 1693.54,-142.1 1699.84,-139.07"/>
</g>
<!-- Node31&#45;&gt;Node29 -->
<g id="edge93" class="edge">
<title>Node31&#45;&gt;Node29</title>
<path fill="none" stroke="midnightblue" d="M896.25,-567.95C1018.01,-564.71 1356.05,-553.26 1463,-524 1503.82,-512.83 1547.03,-488.65 1572.2,-473.13"/>
<polygon fill="midnightblue" stroke="midnightblue" points="1574.32,-475.94 1580.93,-467.66 1570.6,-470.01 1574.32,-475.94"/>
</g>
<!-- Node32 -->
<g id="node32" class="node">
<title>Node32</title>
<g id="a_node32"><a xlink:title=" ">
<polygon fill="none" stroke="#bfbfbf" points="692.5,-504.5 692.5,-523.5 767.5,-523.5 767.5,-504.5 692.5,-504.5"/>
<text text-anchor="middle" x="730" y="-511.5" font-family="Helvetica,sans-Serif" font-size="10.00">petscerror.h</text>
</a>
</g>
</g>
<!-- Node31&#45;&gt;Node32 -->
<g id="edge86" class="edge">
<title>Node31&#45;&gt;Node32</title>
<path fill="none" stroke="midnightblue" d="M832.67,-560.44C812.68,-551.6 781.26,-537.69 758.44,-527.59"/>
<polygon fill="midnightblue" stroke="midnightblue" points="759.8,-524.36 749.24,-523.52 756.97,-530.76 759.8,-524.36"/>
</g>
<!-- Node33&#45;&gt;Node2 -->
<g id="edge97" class="edge">
<title>Node33&#45;&gt;Node2</title>
<path fill="none" stroke="midnightblue" d="M2177.31,-280.46C2256.41,-260.18 2455.06,-209.24 2536.9,-188.26"/>
<polygon fill="midnightblue" stroke="midnightblue" points="2537.92,-191.61 2546.74,-185.73 2536.19,-184.83 2537.92,-191.61"/>
</g>
<!-- Node33&#45;&gt;Node4 -->
<g id="edge102" class="edge">
<title>Node33&#45;&gt;Node4</title>
<path fill="none" stroke="midnightblue" d="M2153.68,-280.3C2190.96,-246.8 2325.49,-125.88 2373.68,-82.57"/>
<polygon fill="midnightblue" stroke="midnightblue" points="2376.29,-84.93 2381.38,-75.64 2371.61,-79.72 2376.29,-84.93"/>
</g>
<!-- Node33&#45;&gt;Node9 -->
<g id="edge98" class="edge">
<title>Node33&#45;&gt;Node9</title>
<path fill="none" stroke="midnightblue" d="M2131.99,-280.33C2078.06,-241.55 1857.36,-84.64 1778,-56 1678.86,-20.22 1555.28,-12.08 1482.86,-10.67"/>
<polygon fill="midnightblue" stroke="midnightblue" points="1482.61,-7.17 1472.55,-10.51 1482.5,-14.17 1482.61,-7.17"/>
</g>
<!-- Node33&#45;&gt;Node14 -->
<g id="edge103" class="edge">
<title>Node33&#45;&gt;Node14</title>
<path fill="none" stroke="midnightblue" d="M2192.05,-297.5C2235.79,-304.51 2295.67,-317.26 2310,-336 2391.1,-442.01 2350.14,-514 2296,-636 2290.78,-647.75 2281.01,-658.12 2271.9,-665.93"/>
<polygon fill="midnightblue" stroke="midnightblue" points="2269.5,-663.37 2263.87,-672.35 2273.87,-668.84 2269.5,-663.37"/>
</g>
<!-- Node33&#45;&gt;Node15 -->
<g id="edge100" class="edge">
<title>Node33&#45;&gt;Node15</title>
<path fill="none" stroke="midnightblue" d="M2147.06,-280.08C2156.08,-253.83 2182.61,-176.55 2194.78,-141.12"/>
<polygon fill="midnightblue" stroke="midnightblue" points="2198.12,-142.16 2198.06,-131.57 2191.5,-139.89 2198.12,-142.16"/>
</g>
<!-- Node33&#45;&gt;Node20 -->
<g id="edge101" class="edge">
<title>Node33&#45;&gt;Node20</title>
<path fill="none" stroke="midnightblue" d="M2117.81,-280.41C2091.8,-271.73 2050.86,-257.69 2016,-244 1995.25,-235.85 1991.24,-230.76 1970,-224 1806.72,-172.03 1603.73,-139.61 1522.76,-127.92"/>
<polygon fill="midnightblue" stroke="midnightblue" points="1523,-124.42 1512.61,-126.47 1522.02,-131.35 1523,-124.42"/>
</g>
<!-- Node33&#45;&gt;Node24 -->
<g id="edge99" class="edge">
<title>Node33&#45;&gt;Node24</title>
<path fill="none" stroke="midnightblue" d="M2128.91,-280.4C2116.73,-272.59 2100.31,-259.86 2092,-244 2084.51,-229.7 2083.18,-211.24 2083.48,-197.64"/>
<polygon fill="midnightblue" stroke="midnightblue" points="2086.98,-197.74 2084.01,-187.57 2079.99,-197.37 2086.98,-197.74"/>
</g>
<!-- Node33&#45;&gt;Node25 -->
<g id="edge104" class="edge">
<title>Node33&#45;&gt;Node25</title>
<path fill="none" stroke="midnightblue" d="M2101.85,-280.44C2055.25,-270.98 1980.16,-255.74 1929.95,-245.55"/>
<polygon fill="midnightblue" stroke="midnightblue" points="1930.45,-242.08 1919.95,-243.52 1929.06,-248.94 1930.45,-242.08"/>
</g>
<!-- Node34&#45;&gt;Node4 -->
<g id="edge106" class="edge">
<title>Node34&#45;&gt;Node4</title>
<path fill="none" stroke="midnightblue" d="M2221.5,-336.49C2247.34,-329.29 2282.49,-317.34 2310,-300 2325.02,-290.53 2417.13,-204.38 2424,-188 2437.06,-156.85 2434.51,-144.1 2424,-112 2420.51,-101.34 2413.43,-91.12 2406.71,-83.12"/>
<polygon fill="midnightblue" stroke="midnightblue" points="2409.3,-80.76 2400.02,-75.66 2404.1,-85.44 2409.3,-80.76"/>
</g>
<!-- Node34&#45;&gt;Node14 -->
<g id="edge108" class="edge">
<title>Node34&#45;&gt;Node14</title>
<path fill="none" stroke="midnightblue" d="M2203.46,-355.69C2258.14,-384 2426.03,-479.74 2487,-616 2490.63,-624.11 2492.67,-629.15 2487,-636 2462.75,-665.32 2353.2,-675.7 2292.25,-679.25"/>
<polygon fill="midnightblue" stroke="midnightblue" points="2291.98,-675.76 2282.18,-679.8 2292.36,-682.75 2291.98,-675.76"/>
</g>
<!-- Node34&#45;&gt;Node30 -->
<g id="edge107" class="edge">
<title>Node34&#45;&gt;Node30</title>
<path fill="none" stroke="midnightblue" d="M2141.92,-355.39C2140.26,-355.6 2138.62,-355.81 2137,-356 1954.94,-377.71 1736.97,-392.52 1640.27,-398.29"/>
<polygon fill="midnightblue" stroke="midnightblue" points="1639.96,-394.81 1630.19,-398.89 1640.37,-401.79 1639.96,-394.81"/>
</g>
<!-- Node35&#45;&gt;Node4 -->
<g id="edge119" class="edge">
<title>Node35&#45;&gt;Node4</title>
<path fill="none" stroke="midnightblue" d="M1349.74,-336.18C1353.24,-300.53 1371.63,-166.43 1453,-112 1490.43,-86.96 2162.05,-71.62 2345.2,-67.89"/>
<polygon fill="midnightblue" stroke="midnightblue" points="2345.37,-71.39 2355.3,-67.69 2345.23,-64.39 2345.37,-71.39"/>
</g>
<!-- Node35&#45;&gt;Node9 -->
<g id="edge111" class="edge">
<title>Node35&#45;&gt;Node9</title>
<path fill="none" stroke="midnightblue" d="M1327.54,-336.46C1293.76,-321.43 1232,-286.86 1232,-235 1232,-235 1232,-235 1232,-121 1232,-60.23 1305.69,-32.49 1361.28,-20.21"/>
<polygon fill="midnightblue" stroke="midnightblue" points="1362.01,-23.63 1371.08,-18.16 1360.58,-16.78 1362.01,-23.63"/>
</g>
<!-- Node35&#45;&gt;Node11 -->
<g id="edge112" class="edge">
<title>Node35&#45;&gt;Node11</title>
<path fill="none" stroke="midnightblue" d="M1305.97,-341.54C1243.02,-335.92 1122.39,-323.06 1022,-300 697.53,-225.48 323.16,-69 217.86,-23.6"/>
<polygon fill="midnightblue" stroke="midnightblue" points="219.09,-20.31 208.52,-19.56 216.31,-26.74 219.09,-20.31"/>
</g>
<!-- Node35&#45;&gt;Node14 -->
<g id="edge123" class="edge">
<title>Node35&#45;&gt;Node14</title>
<path fill="none" stroke="midnightblue" d="M1360.42,-355.66C1378.01,-368.79 1413.05,-394.08 1445,-412 1497.39,-441.39 1511.96,-446.38 1568,-468 1806.56,-560.03 2103.1,-641.79 2210.11,-670.28"/>
<polygon fill="midnightblue" stroke="midnightblue" points="2209.31,-673.69 2219.87,-672.87 2211.1,-666.92 2209.31,-673.69"/>
</g>
<!-- Node35&#45;&gt;Node15 -->
<g id="edge116" class="edge">
<title>Node35&#45;&gt;Node15</title>
<path fill="none" stroke="midnightblue" d="M1381.88,-336.43C1514.46,-301.89 2009.82,-172.81 2158.53,-134.07"/>
<polygon fill="midnightblue" stroke="midnightblue" points="2159.43,-137.45 2168.22,-131.54 2157.66,-130.68 2159.43,-137.45"/>
</g>
<!-- Node35&#45;&gt;Node17 -->
<g id="edge126" class="edge">
<title>Node35&#45;&gt;Node17</title>
<path fill="none" stroke="midnightblue" d="M1336.37,-355.52C1277.81,-395.04 1032.5,-560.56 958.33,-610.61"/>
<polygon fill="midnightblue" stroke="midnightblue" points="956.11,-607.88 949.78,-616.38 960.03,-613.68 956.11,-607.88"/>
</g>
<!-- Node35&#45;&gt;Node18 -->
<g id="edge110" class="edge">
<title>Node35&#45;&gt;Node18</title>
<path fill="none" stroke="midnightblue" d="M1305.75,-339.4C1255.19,-332.36 1169.24,-318.88 1097,-300 911.62,-251.54 697.08,-167.33 618.69,-135.59"/>
<polygon fill="midnightblue" stroke="midnightblue" points="619.55,-132.16 608.96,-131.64 616.91,-138.65 619.55,-132.16"/>
</g>
<!-- Node35&#45;&gt;Node19 -->
<g id="edge113" class="edge">
<title>Node35&#45;&gt;Node19</title>
<path fill="none" stroke="midnightblue" d="M1305.72,-336.61C1267.08,-328.67 1209.18,-315.65 1160,-300 1010.26,-252.34 981.06,-217.75 832,-168 786.32,-152.75 732.34,-139.04 698.14,-130.86"/>
<polygon fill="midnightblue" stroke="midnightblue" points="698.73,-127.4 688.2,-128.51 697.12,-134.22 698.73,-127.4"/>
</g>
<!-- Node35&#45;&gt;Node20 -->
<g id="edge114" class="edge">
<title>Node35&#45;&gt;Node20</title>
<path fill="none" stroke="midnightblue" d="M1354.41,-336.3C1374.93,-303.29 1448.21,-185.4 1476.11,-140.52"/>
<polygon fill="midnightblue" stroke="midnightblue" points="1479.17,-142.22 1481.48,-131.88 1473.23,-138.53 1479.17,-142.22"/>
</g>
<!-- Node35&#45;&gt;Node21 -->
<g id="edge115" class="edge">
<title>Node35&#45;&gt;Node21</title>
<path fill="none" stroke="midnightblue" d="M1305.93,-336.63C1274.4,-329.49 1231.17,-317.57 1196,-300 1145.42,-274.74 1143.04,-252.13 1094,-224 1025.48,-184.69 938.7,-151.7 891.14,-134.91"/>
<polygon fill="midnightblue" stroke="midnightblue" points="892.2,-131.58 881.61,-131.58 889.89,-138.18 892.2,-131.58"/>
</g>
<!-- Node35&#45;&gt;Node22 -->
<g id="edge117" class="edge">
<title>Node35&#45;&gt;Node22</title>
<path fill="none" stroke="midnightblue" d="M1305.93,-337.84C1278.5,-331.55 1243.46,-320.14 1218,-300 1186.67,-275.22 1196.74,-253.69 1170,-224 1143.1,-194.14 1134.16,-187.46 1099,-168 1072.62,-153.4 1040.61,-142.04 1015.45,-134.39"/>
<polygon fill="midnightblue" stroke="midnightblue" points="1016.41,-131.02 1005.83,-131.54 1014.42,-137.73 1016.41,-131.02"/>
</g>
<!-- Node35&#45;&gt;Node23 -->
<g id="edge120" class="edge">
<title>Node35&#45;&gt;Node23</title>
<path fill="none" stroke="midnightblue" d="M1392.17,-351.5C1449.19,-357.95 1552.52,-371.35 1639,-392 1717.2,-410.67 1734.58,-423.03 1811,-448 1838.12,-456.86 1844.81,-459.35 1872,-468 1908.52,-479.61 1950.31,-492.45 1979.8,-501.43"/>
<polygon fill="midnightblue" stroke="midnightblue" points="1979.11,-504.88 1989.69,-504.44 1981.14,-498.18 1979.11,-504.88"/>
</g>
<!-- Node35&#45;&gt;Node25 -->
<g id="edge121" class="edge">
<title>Node35&#45;&gt;Node25</title>
<path fill="none" stroke="midnightblue" d="M1390.07,-336.46C1485.57,-316.6 1722.38,-267.36 1826.96,-245.61"/>
<polygon fill="midnightblue" stroke="midnightblue" points="1827.88,-249 1836.96,-243.53 1826.45,-242.14 1827.88,-249"/>
</g>
<!-- Node35&#45;&gt;Node27 -->
<g id="edge118" class="edge">
<title>Node35&#45;&gt;Node27</title>
<path fill="none" stroke="midnightblue" d="M1344.63,-336.31C1340.44,-327.44 1334.4,-313.14 1332,-300 1321.46,-242.29 1323.19,-226 1332,-168 1333.37,-159 1336.19,-149.33 1338.95,-141.26"/>
<polygon fill="midnightblue" stroke="midnightblue" points="1342.27,-142.37 1342.4,-131.78 1335.69,-139.98 1342.27,-142.37"/>
</g>
<!-- Node35&#45;&gt;Node28 -->
<g id="edge122" class="edge">
<title>Node35&#45;&gt;Node28</title>
<path fill="none" stroke="midnightblue" d="M1362.29,-336.3C1413.98,-302.45 1601.93,-179.37 1666.24,-137.25"/>
<polygon fill="midnightblue" stroke="midnightblue" points="1668.35,-140.05 1674.8,-131.64 1664.52,-134.19 1668.35,-140.05"/>
</g>
<!-- Node35&#45;&gt;Node29 -->
<g id="edge124" class="edge">
<title>Node35&#45;&gt;Node29</title>
<path fill="none" stroke="midnightblue" d="M1368.13,-355.59C1411.49,-375.06 1517.33,-422.58 1567.19,-444.96"/>
<polygon fill="midnightblue" stroke="midnightblue" points="1565.82,-448.19 1576.38,-449.09 1568.69,-441.8 1565.82,-448.19"/>
</g>
<!-- Node35&#45;&gt;Node30 -->
<g id="edge128" class="edge">
<title>Node35&#45;&gt;Node30</title>
<path fill="none" stroke="midnightblue" d="M1392.09,-355.52C1435.94,-364.88 1503.35,-379.95 1547.12,-390.15"/>
<polygon fill="midnightblue" stroke="midnightblue" points="1546.37,-393.57 1556.9,-392.44 1547.96,-386.75 1546.37,-393.57"/>
</g>
<!-- Node35&#45;&gt;Node31 -->
<g id="edge125" class="edge">
<title>Node35&#45;&gt;Node31</title>
<path fill="none" stroke="midnightblue" d="M1305.83,-349.64C1229.88,-354.85 1075.88,-368.06 1028,-392 951.15,-430.44 887.76,-515.51 863.09,-551.93"/>
<polygon fill="midnightblue" stroke="midnightblue" points="860.04,-550.19 857.42,-560.45 865.87,-554.06 860.04,-550.19"/>
</g>
<!-- Node35&#45;&gt;Node33 -->
<g id="edge127" class="edge">
<title>Node35&#45;&gt;Node33</title>
<path fill="none" stroke="midnightblue" d="M1392.02,-342.08C1525.62,-333 1933.45,-305.3 2085.79,-294.95"/>
<polygon fill="midnightblue" stroke="midnightblue" points="2086.14,-298.44 2095.88,-294.27 2085.66,-291.45 2086.14,-298.44"/>
</g>
</g>
</svg>
