<?xml version="1.0" encoding="UTF-8" standalone="no"?>
<!DOCTYPE svg PUBLIC "-//W3C//DTD SVG 1.1//EN"
 "http://www.w3.org/Graphics/SVG/1.1/DTD/svg11.dtd">
<!-- Generated by graphviz version 2.43.0 (0)
 -->
<!-- Title: CalculateAllGridMetrics Pages: 1 -->
<!--zoomable 344 -->
<svg id="main" version="1.1" xmlns="http://www.w3.org/2000/svg" xmlns:xlink="http://www.w3.org/1999/xlink" xml:space="preserve" onload="init(evt)">
<style type="text/css"><![CDATA[
.edge:hover path { stroke: red; }
.edge:hover polygon { stroke: red; fill: red; }
]]></style>
<script type="text/javascript"><![CDATA[
var edges = document.getElementsByTagName('g');
if (edges && edges.length) {
  for (var i=0;i<edges.length;i++) {
    if (edges[i].id.substr(0,4)=='edge') {
      edges[i].setAttribute('class','edge');
    }
  }
}
]]></script>
        <defs>
                <circle id="rim" cx="0" cy="0" r="7"/>
                <circle id="rim2" cx="0" cy="0" r="3.5"/>
                <g id="zoomPlus">
                        <use xlink:href="#rim" fill="#404040">
                                <set attributeName="fill" to="#808080" begin="zoomplus.mouseover" end="zoomplus.mouseout"/>
                        </use>
                        <path d="M-4,0h8M0,-4v8" fill="none" stroke="white" stroke-width="1.5" pointer-events="none"/>
                </g>
                <g id="zoomMin">
                        <use xlink:href="#rim" fill="#404040">
                                <set attributeName="fill" to="#808080" begin="zoomminus.mouseover" end="zoomminus.mouseout"/>
                        </use>
                        <path d="M-4,0h8" fill="none" stroke="white" stroke-width="1.5" pointer-events="none"/>
                </g>
                <g id="dirArrow">
                        <path fill="none" stroke="white" stroke-width="1.5" d="M0,-3.0v7 M-2.5,-0.5L0,-3.0L2.5,-0.5"/>
                </g>
               <g id="resetDef">
                       <use xlink:href="#rim2" fill="#404040">
                               <set attributeName="fill" to="#808080" begin="reset.mouseover" end="reset.mouseout"/>
                       </use>
               </g>
        </defs>

<script type="text/javascript">
var viewWidth = 645;
var viewHeight = 344;
var sectionId = 'dynsection-2';
</script>
<script xlink:href="svgpan.js"/>
<svg id="graph" class="graph">
<g id="viewport">
<title>CalculateAllGridMetrics</title>
<!-- Node1 -->
<g id="node1" class="node">
<title>Node1</title>
<g id="a_node1"><a xlink:title="Orchestrates the calculation of all grid metrics.">
<polygon fill="#bfbfbf" stroke="black" points="0,-152.5 0,-171.5 131,-171.5 131,-152.5 0,-152.5"/>
<text text-anchor="middle" x="65.5" y="-159.5" font-family="Helvetica,sans-Serif" font-size="10.00">CalculateAllGridMetrics</text>
</a>
</g>
</g>
<!-- Node2 -->
<g id="node2" class="node">
<title>Node2</title>
<g id="a_node2"><a xlink:href="Metric_8c.html#a436bb94905ee06971f632571f5bc8cbb" target="_top" xlink:title="Ensure a right&#45;handed metric basis (Csi, Eta, Zet) and a positive Jacobian (Aj) over the whole domain...">
<polygon fill="none" stroke="black" points="177,-316.5 177,-335.5 331,-335.5 331,-316.5 177,-316.5"/>
<text text-anchor="middle" x="254" y="-323.5" font-family="Helvetica,sans-Serif" font-size="10.00">CheckAndFixGridOrientation</text>
</a>
</g>
</g>
<!-- Node1&#45;&gt;Node2 -->
<g id="edge1" class="edge">
<title>Node1&#45;&gt;Node2</title>
<path fill="none" stroke="midnightblue" d="M70.2,-171.64C80.82,-197.96 114.1,-271.5 167,-307 169.95,-308.98 173.06,-310.75 176.3,-312.34"/>
<polygon fill="midnightblue" stroke="midnightblue" points="175.11,-315.64 185.68,-316.37 177.87,-309.21 175.11,-315.64"/>
</g>
<!-- Node6 -->
<g id="node6" class="node">
<title>Node6</title>
<g id="a_node6"><a xlink:href="Metric_8c.html#a92d28e2f14645b0eb563144f4ccf2b49" target="_top" xlink:title="Calculates the cell&#45;centered inverse Jacobian determinant (1/J), including boundary extrapolation,...">
<polygon fill="none" stroke="black" points="171.5,-267 171.5,-297 336.5,-297 336.5,-267 171.5,-267"/>
<text text-anchor="start" x="179.5" y="-285" font-family="Helvetica,sans-Serif" font-size="10.00">ComputeCellCenteredJacobian</text>
<text text-anchor="middle" x="254" y="-274" font-family="Helvetica,sans-Serif" font-size="10.00">Inverse</text>
</a>
</g>
</g>
<!-- Node1&#45;&gt;Node6 -->
<g id="edge5" class="edge">
<title>Node1&#45;&gt;Node6</title>
<path fill="none" stroke="midnightblue" d="M73.98,-171.65C89.33,-190.79 126.37,-233.73 167,-257 170.9,-259.23 175.02,-261.28 179.25,-263.16"/>
<polygon fill="midnightblue" stroke="midnightblue" points="178.08,-266.46 188.67,-266.99 180.73,-259.98 178.08,-266.46"/>
</g>
<!-- Node7 -->
<g id="node7" class="node">
<title>Node7</title>
<g id="a_node7"><a xlink:href="Metric_8c.html#a46e70c0ae8f36f97321c5c892fc56be5" target="_top" xlink:title="Computes the physical location of cell centers and the spacing between them.">
<polygon fill="none" stroke="black" points="167,-228.5 167,-247.5 341,-247.5 341,-228.5 167,-228.5"/>
<text text-anchor="middle" x="254" y="-235.5" font-family="Helvetica,sans-Serif" font-size="10.00">ComputeCellCentersAndSpacing</text>
</a>
</g>
</g>
<!-- Node1&#45;&gt;Node7 -->
<g id="edge7" class="edge">
<title>Node1&#45;&gt;Node7</title>
<path fill="none" stroke="midnightblue" d="M80.15,-171.51C98.9,-184.15 134.04,-206.34 167,-219 173.77,-221.6 180.99,-223.89 188.25,-225.89"/>
<polygon fill="midnightblue" stroke="midnightblue" points="187.58,-229.34 198.14,-228.45 189.34,-222.56 187.58,-229.34"/>
</g>
<!-- Node8 -->
<g id="node8" class="node">
<title>Node8</title>
<g id="a_node8"><a xlink:href="Metric_8c.html#a6f0dfb324211e230a387501f93cfd316" target="_top" xlink:title="Computes the primary face metric components (Csi, Eta, Zet), including boundary extrapolation,...">
<polygon fill="none" stroke="black" points="194.5,-190.5 194.5,-209.5 313.5,-209.5 313.5,-190.5 194.5,-190.5"/>
<text text-anchor="middle" x="254" y="-197.5" font-family="Helvetica,sans-Serif" font-size="10.00">ComputeFaceMetrics</text>
</a>
</g>
</g>
<!-- Node1&#45;&gt;Node8 -->
<g id="edge9" class="edge">
<title>Node1&#45;&gt;Node8</title>
<path fill="none" stroke="midnightblue" d="M113.56,-171.59C138.73,-176.72 169.9,-183.07 196.38,-188.46"/>
<polygon fill="midnightblue" stroke="midnightblue" points="195.78,-191.91 206.28,-190.48 197.18,-185.05 195.78,-191.91"/>
</g>
<!-- Node9 -->
<g id="node9" class="node">
<title>Node9</title>
<g id="a_node9"><a xlink:href="Metric_8c.html#af935307ea3e9727a63b6ef9a3932caa8" target="_top" xlink:title="Computes metrics centered on constant&#45;i faces (i&#45;faces).">
<polygon fill="none" stroke="black" points="193,-152.5 193,-171.5 315,-171.5 315,-152.5 193,-152.5"/>
<text text-anchor="middle" x="254" y="-159.5" font-family="Helvetica,sans-Serif" font-size="10.00">ComputeIFaceMetrics</text>
</a>
</g>
</g>
<!-- Node1&#45;&gt;Node9 -->
<g id="edge11" class="edge">
<title>Node1&#45;&gt;Node9</title>
<path fill="none" stroke="midnightblue" d="M131.21,-162C147.76,-162 165.64,-162 182.47,-162"/>
<polygon fill="midnightblue" stroke="midnightblue" points="182.79,-165.5 192.79,-162 182.79,-158.5 182.79,-165.5"/>
</g>
<!-- Node10 -->
<g id="node10" class="node">
<title>Node10</title>
<g id="a_node10"><a xlink:href="Metric_8c.html#a4ecbe44ffb23d82193f9278ab61c1b47" target="_top" xlink:title="Computes metrics centered on constant&#45;j faces (j&#45;faces).">
<polygon fill="none" stroke="black" points="193,-114.5 193,-133.5 315,-133.5 315,-114.5 193,-114.5"/>
<text text-anchor="middle" x="254" y="-121.5" font-family="Helvetica,sans-Serif" font-size="10.00">ComputeJFaceMetrics</text>
</a>
</g>
</g>
<!-- Node1&#45;&gt;Node10 -->
<g id="edge13" class="edge">
<title>Node1&#45;&gt;Node10</title>
<path fill="none" stroke="midnightblue" d="M113.56,-152.41C138.73,-147.28 169.9,-140.93 196.38,-135.54"/>
<polygon fill="midnightblue" stroke="midnightblue" points="197.18,-138.95 206.28,-133.52 195.78,-132.09 197.18,-138.95"/>
</g>
<!-- Node11 -->
<g id="node11" class="node">
<title>Node11</title>
<g id="a_node11"><a xlink:href="Metric_8c.html#a95e22e5238b2cd02b992366766730687" target="_top" xlink:title="Computes metrics centered on constant&#45;k faces (k&#45;faces).">
<polygon fill="none" stroke="black" points="191,-76.5 191,-95.5 317,-95.5 317,-76.5 191,-76.5"/>
<text text-anchor="middle" x="254" y="-83.5" font-family="Helvetica,sans-Serif" font-size="10.00">ComputeKFaceMetrics</text>
</a>
</g>
</g>
<!-- Node1&#45;&gt;Node11 -->
<g id="edge15" class="edge">
<title>Node1&#45;&gt;Node11</title>
<path fill="none" stroke="midnightblue" d="M80.15,-152.49C98.9,-139.85 134.04,-117.66 167,-105 173.77,-102.4 180.99,-100.11 188.25,-98.11"/>
<polygon fill="midnightblue" stroke="midnightblue" points="189.34,-101.44 198.14,-95.55 187.58,-94.66 189.34,-101.44"/>
</g>
<!-- Node12 -->
<g id="node12" class="node">
<title>Node12</title>
<g id="a_node12"><a xlink:href="Metric_8c.html#a2a99180f2d9db426e1cf73771b795498" target="_top" xlink:title="Computes the max&#45;min values of the grid metrics.">
<polygon fill="none" stroke="black" points="192,-38.5 192,-57.5 316,-57.5 316,-38.5 192,-38.5"/>
<text text-anchor="middle" x="254" y="-45.5" font-family="Helvetica,sans-Serif" font-size="10.00">ComputeMetricNorms</text>
</a>
</g>
</g>
<!-- Node1&#45;&gt;Node12 -->
<g id="edge17" class="edge">
<title>Node1&#45;&gt;Node12</title>
<path fill="none" stroke="midnightblue" d="M73.62,-152.42C88.6,-133.02 125.42,-89.04 167,-67 171.81,-64.45 176.95,-62.24 182.23,-60.33"/>
<polygon fill="midnightblue" stroke="midnightblue" points="183.43,-63.62 191.85,-57.19 181.26,-56.96 183.43,-63.62"/>
</g>
<!-- Node14 -->
<g id="node14" class="node">
<title>Node14</title>
<g id="a_node14"><a xlink:href="Metric_8c.html#a63e70e9aa6a59c320cb2b1af6bd0a7e6" target="_top" xlink:title="Computes the divergence of the grid metrics and identifies the maximum value.">
<polygon fill="none" stroke="black" points="178,-0.5 178,-19.5 330,-19.5 330,-0.5 178,-0.5"/>
<text text-anchor="middle" x="254" y="-7.5" font-family="Helvetica,sans-Serif" font-size="10.00">ComputeMetricsDivergence</text>
</a>
</g>
</g>
<!-- Node1&#45;&gt;Node14 -->
<g id="edge19" class="edge">
<title>Node1&#45;&gt;Node14</title>
<path fill="none" stroke="midnightblue" d="M70.76,-152.45C82.32,-127.7 116.83,-61.2 167,-29 170.31,-26.88 173.82,-24.99 177.46,-23.31"/>
<polygon fill="midnightblue" stroke="midnightblue" points="178.77,-26.55 186.73,-19.55 176.14,-20.07 178.77,-26.55"/>
</g>
<!-- Node3 -->
<g id="node3" class="node">
<title>Node3</title>
<g id="a_node3"><a xlink:href="setup_8h.html#ad5f82951adcce74b3d37cb5880acf43a" target="_top" xlink:title="Updates the local vector (including ghost points) from its corresponding global vector.">
<polygon fill="none" stroke="black" points="377,-190.5 377,-209.5 488,-209.5 488,-190.5 377,-190.5"/>
<text text-anchor="middle" x="432.5" y="-197.5" font-family="Helvetica,sans-Serif" font-size="10.00">UpdateLocalGhosts</text>
</a>
</g>
</g>
<!-- Node2&#45;&gt;Node3 -->
<g id="edge2" class="edge">
<title>Node2&#45;&gt;Node3</title>
<path fill="none" stroke="midnightblue" d="M320.17,-316.42C327.48,-313.96 334.59,-310.87 341,-307 377.61,-284.9 406.62,-242.7 421.2,-218.42"/>
<polygon fill="midnightblue" stroke="midnightblue" points="424.38,-219.91 426.38,-209.51 418.33,-216.39 424.38,-219.91"/>
</g>
<!-- Node4 -->
<g id="node4" class="node">
<title>Node4</title>
<g id="a_node4"><a xlink:href="logging_8h.html#a9585f583c260f40a73f2490914edc689" target="_top" xlink:title="Retrieves the current logging level from the environment variable LOG_LEVEL.">
<polygon fill="none" stroke="black" points="539.5,-209.5 539.5,-228.5 621.5,-228.5 621.5,-209.5 539.5,-209.5"/>
<text text-anchor="middle" x="580.5" y="-216.5" font-family="Helvetica,sans-Serif" font-size="10.00">get_log_level</text>
</a>
</g>
</g>
<!-- Node3&#45;&gt;Node4 -->
<g id="edge3" class="edge">
<title>Node3&#45;&gt;Node4</title>
<path fill="none" stroke="midnightblue" d="M488.28,-207.13C501.69,-208.87 515.97,-210.73 529.16,-212.45"/>
<polygon fill="midnightblue" stroke="midnightblue" points="529.1,-215.97 539.46,-213.79 530,-209.03 529.1,-215.97"/>
</g>
<!-- Node5 -->
<g id="node5" class="node">
<title>Node5</title>
<g id="a_node5"><a xlink:href="logging_8h.html#a2358badbcda33fc9d80ebd6a59d2a2cd" target="_top" xlink:title="Checks if a given function is in the allow&#45;list.">
<polygon fill="none" stroke="black" points="524,-171.5 524,-190.5 637,-190.5 637,-171.5 524,-171.5"/>
<text text-anchor="middle" x="580.5" y="-178.5" font-family="Helvetica,sans-Serif" font-size="10.00">is_function_allowed</text>
</a>
</g>
</g>
<!-- Node3&#45;&gt;Node5 -->
<g id="edge4" class="edge">
<title>Node3&#45;&gt;Node5</title>
<path fill="none" stroke="midnightblue" d="M488.28,-192.87C496.66,-191.78 505.37,-190.65 513.95,-189.53"/>
<polygon fill="midnightblue" stroke="midnightblue" points="514.46,-192.99 523.93,-188.23 513.56,-186.05 514.46,-192.99"/>
</g>
<!-- Node6&#45;&gt;Node3 -->
<g id="edge6" class="edge">
<title>Node6&#45;&gt;Node3</title>
<path fill="none" stroke="midnightblue" d="M315,-266.9C323.86,-264 332.77,-260.7 341,-257 366.24,-245.65 392.76,-228.2 410.52,-215.6"/>
<polygon fill="midnightblue" stroke="midnightblue" points="412.9,-218.2 418.95,-209.51 408.8,-212.52 412.9,-218.2"/>
</g>
<!-- Node7&#45;&gt;Node3 -->
<g id="edge8" class="edge">
<title>Node7&#45;&gt;Node3</title>
<path fill="none" stroke="midnightblue" d="M299.54,-228.41C323.14,-223.33 352.33,-217.04 377.25,-211.68"/>
<polygon fill="midnightblue" stroke="midnightblue" points="378.24,-215.05 387.28,-209.52 376.77,-208.2 378.24,-215.05"/>
</g>
<!-- Node8&#45;&gt;Node3 -->
<g id="edge10" class="edge">
<title>Node8&#45;&gt;Node3</title>
<path fill="none" stroke="midnightblue" d="M313.77,-200C330.79,-200 349.46,-200 366.82,-200"/>
<polygon fill="midnightblue" stroke="midnightblue" points="366.86,-203.5 376.86,-200 366.86,-196.5 366.86,-203.5"/>
</g>
<!-- Node9&#45;&gt;Node3 -->
<g id="edge12" class="edge">
<title>Node9&#45;&gt;Node3</title>
<path fill="none" stroke="midnightblue" d="M299.54,-171.59C323.14,-176.67 352.33,-182.96 377.25,-188.32"/>
<polygon fill="midnightblue" stroke="midnightblue" points="376.77,-191.8 387.28,-190.48 378.24,-184.95 376.77,-191.8"/>
</g>
<!-- Node10&#45;&gt;Node3 -->
<g id="edge14" class="edge">
<title>Node10&#45;&gt;Node3</title>
<path fill="none" stroke="midnightblue" d="M311.37,-133.53C321.43,-136.05 331.67,-139.17 341,-143 366.74,-153.57 393.36,-171.3 411.01,-184.19"/>
<polygon fill="midnightblue" stroke="midnightblue" points="409.26,-187.25 419.37,-190.42 413.44,-181.63 409.26,-187.25"/>
</g>
<!-- Node11&#45;&gt;Node3 -->
<g id="edge16" class="edge">
<title>Node11&#45;&gt;Node3</title>
<path fill="none" stroke="midnightblue" d="M317.25,-95.11C325.53,-97.64 333.67,-100.87 341,-105 375.03,-124.19 404.08,-160.31 419.55,-182.05"/>
<polygon fill="midnightblue" stroke="midnightblue" points="416.76,-184.17 425.32,-190.41 422.52,-180.19 416.76,-184.17"/>
</g>
<!-- Node13 -->
<g id="node13" class="node">
<title>Node13</title>
<g id="a_node13"><a xlink:href="Metric_8c.html#a3d538200fed5b9ee9d1ef391bb61036c" target="_top" xlink:title=" ">
<polygon fill="none" stroke="black" points="413,-19.5 413,-38.5 452,-38.5 452,-19.5 413,-19.5"/>
<text text-anchor="middle" x="432.5" y="-26.5" font-family="Helvetica,sans-Serif" font-size="10.00">Gidx</text>
</a>
</g>
</g>
<!-- Node12&#45;&gt;Node13 -->
<g id="edge18" class="edge">
<title>Node12&#45;&gt;Node13</title>
<path fill="none" stroke="midnightblue" d="M316.24,-41.41C345.59,-38.25 379.36,-34.61 402.73,-32.1"/>
<polygon fill="midnightblue" stroke="midnightblue" points="403.11,-35.58 412.68,-31.03 402.36,-28.62 403.11,-35.58"/>
</g>
<!-- Node14&#45;&gt;Node13 -->
<g id="edge20" class="edge">
<title>Node14&#45;&gt;Node13</title>
<path fill="none" stroke="midnightblue" d="M330.11,-18.09C355.76,-20.85 382.92,-23.77 402.67,-25.9"/>
<polygon fill="midnightblue" stroke="midnightblue" points="402.51,-29.4 412.82,-26.99 403.26,-22.44 402.51,-29.4"/>
</g>
</g>
</svg>
        <g id="navigator" transform="translate(0 0)" fill="#404254">
                <rect fill="#f2f5e9" fill-opacity="0.5" stroke="#606060" stroke-width=".5" x="0" y="0" width="60" height="60"/>
                <use id="zoomplus" xlink:href="#zoomPlus" x="17" y="9" onmousedown="handleZoom(evt,'in')"/>
                <use id="zoomminus" xlink:href="#zoomMin" x="42" y="9" onmousedown="handleZoom(evt,'out')"/>
                <use id="reset" xlink:href="#resetDef" x="30" y="36" onmousedown="handleReset()"/>
                <g id="arrowUp" xlink:href="#dirArrow" transform="translate(30 24)" onmousedown="handlePan(0,-1)">
                  <use xlink:href="#rim" fill="#404040">
                        <set attributeName="fill" to="#808080" begin="arrowUp.mouseover" end="arrowUp.mouseout"/>
                  </use>
                  <path fill="none" stroke="white" stroke-width="1.5" d="M0,-3.0v7 M-2.5,-0.5L0,-3.0L2.5,-0.5"/>
                </g>
                <g id="arrowRight" xlink:href="#dirArrow" transform="rotate(90) translate(36 -43)" onmousedown="handlePan(1,0)">
                  <use xlink:href="#rim" fill="#404040">
                        <set attributeName="fill" to="#808080" begin="arrowRight.mouseover" end="arrowRight.mouseout"/>
                  </use>
                  <path fill="none" stroke="white" stroke-width="1.5" d="M0,-3.0v7 M-2.5,-0.5L0,-3.0L2.5,-0.5"/>
                </g>
                <g id="arrowDown" xlink:href="#dirArrow" transform="rotate(180) translate(-30 -48)" onmousedown="handlePan(0,1)">
                  <use xlink:href="#rim" fill="#404040">
                        <set attributeName="fill" to="#808080" begin="arrowDown.mouseover" end="arrowDown.mouseout"/>
                  </use>
                  <path fill="none" stroke="white" stroke-width="1.5" d="M0,-3.0v7 M-2.5,-0.5L0,-3.0L2.5,-0.5"/>
                </g>
                <g id="arrowLeft" xlink:href="#dirArrow" transform="rotate(270) translate(-36 17)" onmousedown="handlePan(-1,0)">
                  <use xlink:href="#rim" fill="#404040">
                        <set attributeName="fill" to="#808080" begin="arrowLeft.mouseover" end="arrowLeft.mouseout"/>
                  </use>
                  <path fill="none" stroke="white" stroke-width="1.5" d="M0,-3.0v7 M-2.5,-0.5L0,-3.0L2.5,-0.5"/>
                </g>
        </g>
        <svg viewBox="0 0 15 15" width="100%" height="30px" preserveAspectRatio="xMaxYMin meet">
         <g id="arrow_out" transform="scale(0.3 0.3)">
          <a xlink:href="Metric_8h_a063043da47b68702c78c7e0769325b36_cgraph_org.svg" target="_base">
           <rect id="button" ry="5" rx="5" y="6" x="6" height="38" width="38"
                fill="#f2f5e9" fill-opacity="0.5" stroke="#606060" stroke-width="1.0"/>
           <path id="arrow"
             d="M 11.500037,31.436501 C 11.940474,20.09759 22.043105,11.32322 32.158766,21.979434 L 37.068811,17.246167 C 37.068811,17.246167 37.088388,32 37.088388,32 L 22.160133,31.978069 C 22.160133,31.978069 26.997745,27.140456 26.997745,27.140456 C 18.528582,18.264221 13.291696,25.230495 11.500037,31.436501 z"
             style="fill:#404040;"/>
          </a>
         </g>
        </svg>
</svg>
