<?xml version="1.0" encoding="UTF-8" standalone="no"?>
<!DOCTYPE svg PUBLIC "-//W3C//DTD SVG 1.1//EN"
 "http://www.w3.org/Graphics/SVG/1.1/DTD/svg11.dtd">
<!-- Generated by graphviz version 2.43.0 (0)
 -->
<!-- Title: PerformMigration Pages: 1 -->
<svg width="539pt" height="97pt"
 viewBox="0.00 0.00 539.00 96.50" xmlns="http://www.w3.org/2000/svg" xmlns:xlink="http://www.w3.org/1999/xlink">
<g id="graph0" class="graph" transform="scale(1 1) rotate(0) translate(4 92.5)">
<title>PerformMigration</title>
<!-- Node1 -->
<g id="node1" class="node">
<title>Node1</title>
<g id="a_node1"><a xlink:title="Performs particle migration based on the pre&#45;populated DMSwarmPICField_rank field.">
<polygon fill="#bfbfbf" stroke="black" points="429,-28 429,-47 531,-47 531,-28 429,-28"/>
<text text-anchor="middle" x="480" y="-35" font-family="Helvetica,sans-Serif" font-size="10.00">PerformMigration</text>
</a>
</g>
</g>
<!-- Node2 -->
<g id="node2" class="node">
<title>Node2</title>
<g id="a_node2"><a xlink:href="ParticleMotion_8c.html#a727054a4a467fd8504a19caed5a5916b" target="_top" xlink:title="Orchestrates the complete particle location and migration process for one timestep.">
<polygon fill="none" stroke="black" points="227.5,-50 227.5,-69 389.5,-69 389.5,-50 227.5,-50"/>
<text text-anchor="middle" x="308.5" y="-57" font-family="Helvetica,sans-Serif" font-size="10.00">LocateAllParticlesInGrid_TEST</text>
</a>
</g>
</g>
<!-- Node1&#45;&gt;Node2 -->
<g id="edge1" class="edge">
<title>Node1&#45;&gt;Node2</title>
<path fill="none" stroke="midnightblue" d="M418.63,-45.34C407.07,-46.84 394.84,-48.42 382.92,-49.97"/>
<polygon fill="midnightblue" stroke="midnightblue" points="419.14,-48.8 428.6,-44.04 418.24,-41.86 419.14,-48.8"/>
</g>
<!-- Node6 -->
<g id="node6" class="node">
<title>Node6</title>
<g id="a_node6"><a xlink:href="ParticleMotion_8c.html#ab2eeab12258446f697695ebdaef3f011" target="_top" xlink:title="Performs one full cycle of particle migration: identify, set ranks, and migrate.">
<polygon fill="none" stroke="black" points="224,-0.5 224,-30.5 393,-30.5 393,-0.5 224,-0.5"/>
<text text-anchor="start" x="232" y="-18.5" font-family="Helvetica,sans-Serif" font-size="10.00">PerformSingleParticleMigration</text>
<text text-anchor="middle" x="308.5" y="-7.5" font-family="Helvetica,sans-Serif" font-size="10.00">Cycle</text>
</a>
</g>
</g>
<!-- Node1&#45;&gt;Node6 -->
<g id="edge6" class="edge">
<title>Node1&#45;&gt;Node6</title>
<path fill="none" stroke="midnightblue" d="M418.65,-29.67C410.34,-28.59 401.68,-27.46 393.03,-26.34"/>
<polygon fill="midnightblue" stroke="midnightblue" points="418.24,-33.14 428.6,-30.96 419.14,-26.2 418.24,-33.14"/>
</g>
<!-- Node3 -->
<g id="node3" class="node">
<title>Node3</title>
<g id="a_node3"><a xlink:href="simulation_8c.html#a5cfb2f783604af7f20171d19f969d5d3" target="_top" xlink:title="Executes the main time&#45;marching loop for the coupled Euler&#45;Lagrange simulation.">
<polygon fill="none" stroke="black" points="77,-69 77,-88 188,-88 188,-69 77,-69"/>
<text text-anchor="middle" x="132.5" y="-76" font-family="Helvetica,sans-Serif" font-size="10.00">AdvanceSimulation</text>
</a>
</g>
</g>
<!-- Node2&#45;&gt;Node3 -->
<g id="edge2" class="edge">
<title>Node2&#45;&gt;Node3</title>
<path fill="none" stroke="midnightblue" d="M217.39,-69.34C207.4,-70.43 197.46,-71.52 188.11,-72.54"/>
<polygon fill="midnightblue" stroke="midnightblue" points="217.81,-72.81 227.38,-68.25 217.05,-65.86 217.81,-72.81"/>
</g>
<!-- Node5 -->
<g id="node5" class="node">
<title>Node5</title>
<g id="a_node5"><a xlink:href="simulation_8c.html#a4e2cad25ac1fbdc6745d6fd8fcc1bbc1" target="_top" xlink:title="Finalizes the simulation setup at t=0, ensuring a consistent state before time marching.">
<polygon fill="none" stroke="black" points="77,-31 77,-50 188,-50 188,-31 77,-31"/>
<text text-anchor="middle" x="132.5" y="-38" font-family="Helvetica,sans-Serif" font-size="10.00">PerformInitialSetup</text>
</a>
</g>
</g>
<!-- Node2&#45;&gt;Node5 -->
<g id="edge4" class="edge">
<title>Node2&#45;&gt;Node5</title>
<path fill="none" stroke="midnightblue" d="M217.39,-49.66C207.4,-48.57 197.46,-47.48 188.11,-46.46"/>
<polygon fill="midnightblue" stroke="midnightblue" points="217.05,-53.14 227.38,-50.75 217.81,-46.19 217.05,-53.14"/>
</g>
<!-- Node4 -->
<g id="node4" class="node">
<title>Node4</title>
<g id="a_node4"><a xlink:href="picsolver_8c.html#a3c04138a5bfe5d72780bb7e82a18e627" target="_top" xlink:title=" ">
<polygon fill="none" stroke="black" points="0,-50 0,-69 41,-69 41,-50 0,-50"/>
<text text-anchor="middle" x="20.5" y="-57" font-family="Helvetica,sans-Serif" font-size="10.00">main</text>
</a>
</g>
</g>
<!-- Node3&#45;&gt;Node4 -->
<g id="edge3" class="edge">
<title>Node3&#45;&gt;Node4</title>
<path fill="none" stroke="midnightblue" d="M66.94,-67.35C57.54,-65.73 48.53,-64.17 41.05,-62.88"/>
<polygon fill="midnightblue" stroke="midnightblue" points="66.37,-70.8 76.82,-69.06 67.56,-63.9 66.37,-70.8"/>
</g>
<!-- Node5&#45;&gt;Node4 -->
<g id="edge5" class="edge">
<title>Node5&#45;&gt;Node4</title>
<path fill="none" stroke="midnightblue" d="M66.94,-51.65C57.54,-53.27 48.53,-54.83 41.05,-56.12"/>
<polygon fill="midnightblue" stroke="midnightblue" points="67.56,-55.1 76.82,-49.94 66.37,-48.2 67.56,-55.1"/>
</g>
</g>
</svg>
