<?xml version="1.0" encoding="UTF-8" standalone="no"?>
<!DOCTYPE svg PUBLIC "-//W3C//DTD SVG 1.1//EN"
 "http://www.w3.org/Graphics/SVG/1.1/DTD/svg11.dtd">
<!-- Generated by graphviz version 2.43.0 (0)
 -->
<!-- Title: IdentifyMigratingParticles Pages: 1 -->
<svg width="297pt" height="66pt"
 viewBox="0.00 0.00 297.00 66.00" xmlns="http://www.w3.org/2000/svg" xmlns:xlink="http://www.w3.org/1999/xlink">
<g id="graph0" class="graph" transform="scale(1 1) rotate(0) translate(4 62)">
<title>IdentifyMigratingParticles</title>
<!-- Node1 -->
<g id="node1" class="node">
<title>Node1</title>
<g id="a_node1"><a xlink:title="Identifies particles leaving the local bounding box and finds their target neighbor rank.">
<polygon fill="#bfbfbf" stroke="black" points="0,-19.5 0,-38.5 143,-38.5 143,-19.5 0,-19.5"/>
<text text-anchor="middle" x="71.5" y="-26.5" font-family="Helvetica,sans-Serif" font-size="10.00">IdentifyMigratingParticles</text>
</a>
</g>
</g>
<!-- Node2 -->
<g id="node2" class="node">
<title>Node2</title>
<g id="a_node2"><a xlink:href="ParticleMotion_8c.html#a43df9caf0f5cbb317050f6258ac46fff" target="_top" xlink:title="Safely adds a new migration task to a dynamically sized list.">
<polygon fill="none" stroke="black" points="179,-38.5 179,-57.5 289,-57.5 289,-38.5 179,-38.5"/>
<text text-anchor="middle" x="234" y="-45.5" font-family="Helvetica,sans-Serif" font-size="10.00">AddToMigrationList</text>
</a>
</g>
</g>
<!-- Node1&#45;&gt;Node2 -->
<g id="edge1" class="edge">
<title>Node1&#45;&gt;Node2</title>
<path fill="none" stroke="midnightblue" d="M143.36,-37.39C151.84,-38.39 160.46,-39.41 168.84,-40.4"/>
<polygon fill="midnightblue" stroke="midnightblue" points="168.56,-43.9 178.91,-41.6 169.39,-36.95 168.56,-43.9"/>
</g>
<!-- Node3 -->
<g id="node3" class="node">
<title>Node3</title>
<g id="a_node3"><a xlink:href="ParticleMotion_8c.html#ad2b9ac6b5e4d13799fa82dcd34432da4" target="_top" xlink:title="Checks if a particle position is within the bounds of a given bounding box.">
<polygon fill="none" stroke="black" points="189.5,-0.5 189.5,-19.5 278.5,-19.5 278.5,-0.5 189.5,-0.5"/>
<text text-anchor="middle" x="234" y="-7.5" font-family="Helvetica,sans-Serif" font-size="10.00">IsParticleInBox</text>
</a>
</g>
</g>
<!-- Node1&#45;&gt;Node3 -->
<g id="edge2" class="edge">
<title>Node1&#45;&gt;Node3</title>
<path fill="none" stroke="midnightblue" d="M143.36,-20.61C155.32,-19.2 167.56,-17.75 179,-16.39"/>
<polygon fill="midnightblue" stroke="midnightblue" points="179.74,-19.83 189.26,-15.18 178.91,-12.88 179.74,-19.83"/>
</g>
</g>
</svg>
