<?xml version="1.0" encoding="UTF-8" standalone="no"?>
<!DOCTYPE svg PUBLIC "-//W3C//DTD SVG 1.1//EN"
 "http://www.w3.org/Graphics/SVG/1.1/DTD/svg11.dtd">
<!-- Generated by graphviz version 2.43.0 (0)
 -->
<!-- Title: IsParticleInBox Pages: 1 -->
<svg width="726pt" height="127pt"
 viewBox="0.00 0.00 726.00 127.00" xmlns="http://www.w3.org/2000/svg" xmlns:xlink="http://www.w3.org/1999/xlink">
<g id="graph0" class="graph" transform="scale(1 1) rotate(0) translate(4 123)">
<title>IsParticleInBox</title>
<!-- Node1 -->
<g id="node1" class="node">
<title>Node1</title>
<g id="a_node1"><a xlink:title="Checks if a particle position is within the bounds of a given bounding box.">
<polygon fill="#bfbfbf" stroke="black" points="629,-50 629,-69 718,-69 718,-50 629,-50"/>
<text text-anchor="middle" x="673.5" y="-57" font-family="Helvetica,sans-Serif" font-size="10.00">IsParticleInBox</text>
</a>
</g>
</g>
<!-- Node2 -->
<g id="node2" class="node">
<title>Node2</title>
<g id="a_node2"><a xlink:href="ParticleMotion_8c.html#a55852c79d34ca903c6e631941e210975" target="_top" xlink:title="Checks for particles outside the global physical domain and removes them.">
<polygon fill="none" stroke="black" points="224,-88.5 224,-118.5 394,-118.5 394,-88.5 224,-88.5"/>
<text text-anchor="start" x="232" y="-106.5" font-family="Helvetica,sans-Serif" font-size="10.00">CheckAndRemoveOutOfBounds</text>
<text text-anchor="middle" x="309" y="-95.5" font-family="Helvetica,sans-Serif" font-size="10.00">Particles</text>
</a>
</g>
</g>
<!-- Node1&#45;&gt;Node2 -->
<g id="edge1" class="edge">
<title>Node1&#45;&gt;Node2</title>
<path fill="none" stroke="midnightblue" d="M627.49,-71.47C616.29,-74.11 604.26,-76.67 593,-78.5 526.67,-89.3 450.78,-95.68 394.3,-99.29"/>
<polygon fill="midnightblue" stroke="midnightblue" points="628.61,-74.8 637.5,-69.03 626.96,-68 628.61,-74.8"/>
</g>
<!-- Node5 -->
<g id="node5" class="node">
<title>Node5</title>
<g id="a_node5"><a xlink:href="ParticleMotion_8c.html#a1050c4075c2fb507d4579008921dd7b6" target="_top" xlink:title="Provides a fast, heuristic&#45;based guess for a particle&#39;s owner rank using bounding boxes.">
<polygon fill="none" stroke="black" points="430,-50 430,-69 593,-69 593,-50 430,-50"/>
<text text-anchor="middle" x="511.5" y="-57" font-family="Helvetica,sans-Serif" font-size="10.00">GuessParticleOwnerWithBBox</text>
</a>
</g>
</g>
<!-- Node1&#45;&gt;Node5 -->
<g id="edge4" class="edge">
<title>Node1&#45;&gt;Node5</title>
<path fill="none" stroke="midnightblue" d="M618.61,-59.5C610.38,-59.5 601.74,-59.5 593.09,-59.5"/>
<polygon fill="midnightblue" stroke="midnightblue" points="618.78,-63 628.78,-59.5 618.78,-56 618.78,-63"/>
</g>
<!-- Node8 -->
<g id="node8" class="node">
<title>Node8</title>
<g id="a_node8"><a xlink:href="ParticleMotion_8c.html#acf00ed7232c9aa111858b5a4cff43922" target="_top" xlink:title="Identifies particles that have left the local MPI rank&#39;s domain and determines their target rank.">
<polygon fill="none" stroke="black" points="440,-9 440,-28 583,-28 583,-9 440,-9"/>
<text text-anchor="middle" x="511.5" y="-16" font-family="Helvetica,sans-Serif" font-size="10.00">IdentifyMigratingParticles</text>
</a>
</g>
</g>
<!-- Node1&#45;&gt;Node8 -->
<g id="edge9" class="edge">
<title>Node1&#45;&gt;Node8</title>
<path fill="none" stroke="midnightblue" d="M625.69,-47.51C601.48,-41.3 572.34,-33.83 549.68,-28.03"/>
<polygon fill="midnightblue" stroke="midnightblue" points="624.83,-50.9 635.39,-49.99 626.57,-44.12 624.83,-50.9"/>
</g>
<!-- Node3 -->
<g id="node3" class="node">
<title>Node3</title>
<g id="a_node3"><a xlink:href="simulation_8c.html#a5cfb2f783604af7f20171d19f969d5d3" target="_top" xlink:title="Executes the main time&#45;marching loop for the coupled Euler&#45;Lagrange simulation.">
<polygon fill="none" stroke="black" points="77,-88 77,-107 188,-107 188,-88 77,-88"/>
<text text-anchor="middle" x="132.5" y="-95" font-family="Helvetica,sans-Serif" font-size="10.00">AdvanceSimulation</text>
</a>
</g>
</g>
<!-- Node2&#45;&gt;Node3 -->
<g id="edge2" class="edge">
<title>Node2&#45;&gt;Node3</title>
<path fill="none" stroke="midnightblue" d="M213.67,-100.26C205.05,-99.96 196.52,-99.67 188.42,-99.39"/>
<polygon fill="midnightblue" stroke="midnightblue" points="213.7,-103.76 223.82,-100.61 213.94,-96.76 213.7,-103.76"/>
</g>
<!-- Node4 -->
<g id="node4" class="node">
<title>Node4</title>
<g id="a_node4"><a xlink:href="picsolver_8c.html#a3c04138a5bfe5d72780bb7e82a18e627" target="_top" xlink:title=" ">
<polygon fill="none" stroke="black" points="0,-69 0,-88 41,-88 41,-69 0,-69"/>
<text text-anchor="middle" x="20.5" y="-76" font-family="Helvetica,sans-Serif" font-size="10.00">main</text>
</a>
</g>
</g>
<!-- Node3&#45;&gt;Node4 -->
<g id="edge3" class="edge">
<title>Node3&#45;&gt;Node4</title>
<path fill="none" stroke="midnightblue" d="M66.94,-86.35C57.54,-84.73 48.53,-83.17 41.05,-81.88"/>
<polygon fill="midnightblue" stroke="midnightblue" points="66.37,-89.8 76.82,-88.06 67.56,-82.9 66.37,-89.8"/>
</g>
<!-- Node6 -->
<g id="node6" class="node">
<title>Node6</title>
<g id="a_node6"><a xlink:href="ParticleMotion_8c.html#a727054a4a467fd8504a19caed5a5916b" target="_top" xlink:title="Orchestrates the complete particle location and migration process for one timestep.">
<polygon fill="none" stroke="black" points="228,-50 228,-69 390,-69 390,-50 228,-50"/>
<text text-anchor="middle" x="309" y="-57" font-family="Helvetica,sans-Serif" font-size="10.00">LocateAllParticlesInGrid_TEST</text>
</a>
</g>
</g>
<!-- Node5&#45;&gt;Node6 -->
<g id="edge5" class="edge">
<title>Node5&#45;&gt;Node6</title>
<path fill="none" stroke="midnightblue" d="M419.64,-59.5C409.82,-59.5 399.88,-59.5 390.19,-59.5"/>
<polygon fill="midnightblue" stroke="midnightblue" points="419.82,-63 429.82,-59.5 419.82,-56 419.82,-63"/>
</g>
<!-- Node6&#45;&gt;Node3 -->
<g id="edge6" class="edge">
<title>Node6&#45;&gt;Node3</title>
<path fill="none" stroke="midnightblue" d="M254.03,-71.25C229.36,-76.63 200.51,-82.91 177.22,-87.98"/>
<polygon fill="midnightblue" stroke="midnightblue" points="254.94,-74.64 263.97,-69.09 253.45,-67.8 254.94,-74.64"/>
</g>
<!-- Node7 -->
<g id="node7" class="node">
<title>Node7</title>
<g id="a_node7"><a xlink:href="simulation_8c.html#a4e2cad25ac1fbdc6745d6fd8fcc1bbc1" target="_top" xlink:title="Finalizes the simulation setup at t=0, ensuring a consistent state before time marching.">
<polygon fill="none" stroke="black" points="77,-50 77,-69 188,-69 188,-50 77,-50"/>
<text text-anchor="middle" x="132.5" y="-57" font-family="Helvetica,sans-Serif" font-size="10.00">PerformInitialSetup</text>
</a>
</g>
</g>
<!-- Node6&#45;&gt;Node7 -->
<g id="edge7" class="edge">
<title>Node6&#45;&gt;Node7</title>
<path fill="none" stroke="midnightblue" d="M217.8,-59.5C207.69,-59.5 197.64,-59.5 188.19,-59.5"/>
<polygon fill="midnightblue" stroke="midnightblue" points="217.9,-63 227.9,-59.5 217.9,-56 217.9,-63"/>
</g>
<!-- Node7&#45;&gt;Node4 -->
<g id="edge8" class="edge">
<title>Node7&#45;&gt;Node4</title>
<path fill="none" stroke="midnightblue" d="M66.94,-70.65C57.54,-72.27 48.53,-73.83 41.05,-75.12"/>
<polygon fill="midnightblue" stroke="midnightblue" points="67.56,-74.1 76.82,-68.94 66.37,-67.2 67.56,-74.1"/>
</g>
<!-- Node9 -->
<g id="node9" class="node">
<title>Node9</title>
<g id="a_node9"><a xlink:href="ParticleMotion_8c.html#ab2eeab12258446f697695ebdaef3f011" target="_top" xlink:title="Performs one full cycle of particle migration: identify, set ranks, and migrate.">
<polygon fill="none" stroke="black" points="224.5,-0.5 224.5,-30.5 393.5,-30.5 393.5,-0.5 224.5,-0.5"/>
<text text-anchor="start" x="232.5" y="-18.5" font-family="Helvetica,sans-Serif" font-size="10.00">PerformSingleParticleMigration</text>
<text text-anchor="middle" x="309" y="-7.5" font-family="Helvetica,sans-Serif" font-size="10.00">Cycle</text>
</a>
</g>
</g>
<!-- Node8&#45;&gt;Node9 -->
<g id="edge10" class="edge">
<title>Node8&#45;&gt;Node9</title>
<path fill="none" stroke="midnightblue" d="M429.57,-17.29C417.78,-17.11 405.62,-16.93 393.78,-16.75"/>
<polygon fill="midnightblue" stroke="midnightblue" points="429.76,-20.79 439.81,-17.44 429.86,-13.79 429.76,-20.79"/>
</g>
</g>
</svg>
