<?xml version="1.0" encoding="UTF-8" standalone="no"?>
<!DOCTYPE svg PUBLIC "-//W3C//DTD SVG 1.1//EN"
 "http://www.w3.org/Graphics/SVG/1.1/DTD/svg11.dtd">
<!-- Generated by graphviz version 2.43.0 (0)
 -->
<!-- Title: InitializeParticleBasicProperties Pages: 1 -->
<svg width="569pt" height="173pt"
 viewBox="0.00 0.00 569.00 173.00" xmlns="http://www.w3.org/2000/svg" xmlns:xlink="http://www.w3.org/1999/xlink">
<g id="graph0" class="graph" transform="scale(1 1) rotate(0) translate(4 169)">
<title>InitializeParticleBasicProperties</title>
<!-- Node1 -->
<g id="node1" class="node">
<title>Node1</title>
<g id="a_node1"><a xlink:title="Initializes basic properties for particles on the local process.">
<polygon fill="#bfbfbf" stroke="black" points="0,-79.5 0,-98.5 171,-98.5 171,-79.5 0,-79.5"/>
<text text-anchor="middle" x="85.5" y="-86.5" font-family="Helvetica,sans-Serif" font-size="10.00">InitializeParticleBasicProperties</text>
</a>
</g>
</g>
<!-- Node2 -->
<g id="node2" class="node">
<title>Node2</title>
<g id="a_node2"><a xlink:href="Boundaries_8h.html#ab679d620b2d750179fbc2363fc562a1f" target="_top" xlink:title="Determines if the current MPI rank owns any part of the globally defined inlet face,...">
<polygon fill="none" stroke="black" points="234.5,-145.5 234.5,-164.5 374.5,-164.5 374.5,-145.5 234.5,-145.5"/>
<text text-anchor="middle" x="304.5" y="-152.5" font-family="Helvetica,sans-Serif" font-size="10.00">CanRankServiceInletFace</text>
</a>
</g>
</g>
<!-- Node1&#45;&gt;Node2 -->
<g id="edge1" class="edge">
<title>Node1&#45;&gt;Node2</title>
<path fill="none" stroke="midnightblue" d="M107.87,-98.67C131.65,-109.12 171.42,-125.65 207,-136 216.41,-138.74 226.44,-141.2 236.36,-143.38"/>
<polygon fill="midnightblue" stroke="midnightblue" points="235.69,-146.82 246.2,-145.46 237.14,-139.97 235.69,-146.82"/>
</g>
<!-- Node4 -->
<g id="node4" class="node">
<title>Node4</title>
<g id="a_node4"><a xlink:href="ParticleSwarm_8c.html#ae333eaf5cdf54d396fb84ef574a4945b" target="_top" xlink:title="Determines cell selection and intra&#45;cell logical coordinates for volumetric initialization (Mode 1).">
<polygon fill="none" stroke="black" points="213.5,-96 213.5,-126 395.5,-126 395.5,-96 213.5,-96"/>
<text text-anchor="start" x="221.5" y="-114" font-family="Helvetica,sans-Serif" font-size="10.00">DetermineVolumetricInitialization</text>
<text text-anchor="middle" x="304.5" y="-103" font-family="Helvetica,sans-Serif" font-size="10.00">Parameters</text>
</a>
</g>
</g>
<!-- Node1&#45;&gt;Node4 -->
<g id="edge3" class="edge">
<title>Node1&#45;&gt;Node4</title>
<path fill="none" stroke="midnightblue" d="M171.02,-97.57C181.57,-98.64 192.44,-99.74 203.2,-100.83"/>
<polygon fill="midnightblue" stroke="midnightblue" points="203.17,-104.35 213.47,-101.87 203.88,-97.38 203.17,-104.35"/>
</g>
<!-- Node5 -->
<g id="node5" class="node">
<title>Node5</title>
<g id="a_node5"><a xlink:href="Boundaries_8h.html#ac07befc354128d23bac8ed5f2612ffdf" target="_top" xlink:title="Assuming the current rank services the inlet face, this function selects a random cell (owned by this...">
<polygon fill="none" stroke="black" points="207,-57.5 207,-76.5 402,-76.5 402,-57.5 207,-57.5"/>
<text text-anchor="middle" x="304.5" y="-64.5" font-family="Helvetica,sans-Serif" font-size="10.00">GetRandomCellAndLogicOnInletFace</text>
</a>
</g>
</g>
<!-- Node1&#45;&gt;Node5 -->
<g id="edge4" class="edge">
<title>Node1&#45;&gt;Node5</title>
<path fill="none" stroke="midnightblue" d="M171.02,-80.43C180.28,-79.49 189.79,-78.53 199.26,-77.57"/>
<polygon fill="midnightblue" stroke="midnightblue" points="199.9,-81.02 209.5,-76.53 199.2,-74.06 199.9,-81.02"/>
</g>
<!-- Node6 -->
<g id="node6" class="node">
<title>Node6</title>
<g id="a_node6"><a xlink:href="Metric_8h.html#af0ba1966641e609476ac6fc3d5cdbbfc" target="_top" xlink:title="Public wrapper: map (cell index, ξ,η,ζ) to (x,y,z).">
<polygon fill="none" stroke="black" points="238,-19.5 238,-38.5 371,-38.5 371,-19.5 238,-19.5"/>
<text text-anchor="middle" x="304.5" y="-26.5" font-family="Helvetica,sans-Serif" font-size="10.00">MetricLogicalToPhysical</text>
</a>
</g>
</g>
<!-- Node1&#45;&gt;Node6 -->
<g id="edge6" class="edge">
<title>Node1&#45;&gt;Node6</title>
<path fill="none" stroke="midnightblue" d="M111.59,-79.37C135.75,-70.35 173.48,-56.96 207,-48 217.06,-45.31 227.81,-42.82 238.34,-40.6"/>
<polygon fill="midnightblue" stroke="midnightblue" points="239.26,-43.98 248.35,-38.54 237.85,-37.12 239.26,-43.98"/>
</g>
<!-- Node3 -->
<g id="node3" class="node">
<title>Node3</title>
<g id="a_node3"><a xlink:href="setup_8h.html#a9b17552f79ebe16d0363986217a01ff3" target="_top" xlink:title="Determines the global starting index and number of CELLS owned by the current processor in a specifie...">
<polygon fill="none" stroke="black" points="441,-110.5 441,-129.5 558,-129.5 558,-110.5 441,-110.5"/>
<text text-anchor="middle" x="499.5" y="-117.5" font-family="Helvetica,sans-Serif" font-size="10.00">GetOwnedCellRange</text>
</a>
</g>
</g>
<!-- Node2&#45;&gt;Node3 -->
<g id="edge2" class="edge">
<title>Node2&#45;&gt;Node3</title>
<path fill="none" stroke="midnightblue" d="M357.98,-145.48C382.13,-141.1 410.95,-135.88 436.19,-131.3"/>
<polygon fill="midnightblue" stroke="midnightblue" points="436.81,-134.74 446.03,-129.52 435.56,-127.86 436.81,-134.74"/>
</g>
<!-- Node5&#45;&gt;Node3 -->
<g id="edge5" class="edge">
<title>Node5&#45;&gt;Node3</title>
<path fill="none" stroke="midnightblue" d="M357.37,-76.51C371.9,-79.51 387.64,-83.07 402,-87 422.75,-92.67 445.54,-100.4 463.76,-106.94"/>
<polygon fill="midnightblue" stroke="midnightblue" points="462.78,-110.31 473.37,-110.44 465.17,-103.73 462.78,-110.31"/>
</g>
<!-- Node7 -->
<g id="node7" class="node">
<title>Node7</title>
<g id="a_node7"><a xlink:href="Metric_8c.html#a4859ff8031c003e036eab9cf8fb351f6" target="_top" xlink:title="Extract the eight vertex coordinates of the hexahedral cell (i,j,k).">
<polygon fill="none" stroke="black" points="438,-38.5 438,-57.5 561,-57.5 561,-38.5 438,-38.5"/>
<text text-anchor="middle" x="499.5" y="-45.5" font-family="Helvetica,sans-Serif" font-size="10.00">MetricGetCellVertices</text>
</a>
</g>
</g>
<!-- Node6&#45;&gt;Node7 -->
<g id="edge7" class="edge">
<title>Node6&#45;&gt;Node7</title>
<path fill="none" stroke="midnightblue" d="M371.11,-35.46C389.37,-37.26 409.27,-39.22 427.81,-41.04"/>
<polygon fill="midnightblue" stroke="midnightblue" points="427.65,-44.54 437.94,-42.04 428.33,-37.58 427.65,-44.54"/>
</g>
<!-- Node8 -->
<g id="node8" class="node">
<title>Node8</title>
<g id="a_node8"><a xlink:href="Metric_8c.html#a379d85074cc67dd1230cecc94b9169aa" target="_top" xlink:title="Map logical coordinates to physical space using trilinear basis.">
<polygon fill="none" stroke="black" points="457.5,-0.5 457.5,-19.5 541.5,-19.5 541.5,-0.5 457.5,-0.5"/>
<text text-anchor="middle" x="499.5" y="-7.5" font-family="Helvetica,sans-Serif" font-size="10.00">TrilinearBlend</text>
</a>
</g>
</g>
<!-- Node6&#45;&gt;Node8 -->
<g id="edge8" class="edge">
<title>Node6&#45;&gt;Node8</title>
<path fill="none" stroke="midnightblue" d="M371.11,-22.54C395.96,-20.1 423.85,-17.35 447.2,-15.05"/>
<polygon fill="midnightblue" stroke="midnightblue" points="447.63,-18.53 457.23,-14.06 446.94,-11.56 447.63,-18.53"/>
</g>
</g>
</svg>
