<?xml version="1.0" encoding="UTF-8" standalone="no"?>
<!DOCTYPE svg PUBLIC "-//W3C//DTD SVG 1.1//EN"
 "http://www.w3.org/Graphics/SVG/1.1/DTD/svg11.dtd">
<!-- Generated by graphviz version 2.43.0 (0)
 -->
<!-- Title: InitializeLogicalSpaceRNGs Pages: 1 -->
<svg width="584pt" height="76pt"
 viewBox="0.00 0.00 584.00 75.50" xmlns="http://www.w3.org/2000/svg" xmlns:xlink="http://www.w3.org/1999/xlink">
<g id="graph0" class="graph" transform="scale(1 1) rotate(0) translate(4 71.5)">
<title>InitializeLogicalSpaceRNGs</title>
<!-- Node1 -->
<g id="node1" class="node">
<title>Node1</title>
<g id="a_node1"><a xlink:title="Initializes random number generators for logical space operations [0.0, 1.0).">
<polygon fill="#bfbfbf" stroke="black" points="427,-28 427,-47 576,-47 576,-28 427,-28"/>
<text text-anchor="middle" x="501.5" y="-35" font-family="Helvetica,sans-Serif" font-size="10.00">InitializeLogicalSpaceRNGs</text>
</a>
</g>
</g>
<!-- Node2 -->
<g id="node2" class="node">
<title>Node2</title>
<g id="a_node2"><a xlink:href="ParticleSwarm_8c.html#ada215a5db25227a8fd2cd2596e7d3e57" target="_top" xlink:title="Perform particle swarm initialization, particle&#45;grid interaction, and related operations.">
<polygon fill="none" stroke="black" points="77,-48 77,-67 206,-67 206,-48 77,-48"/>
<text text-anchor="middle" x="141.5" y="-55" font-family="Helvetica,sans-Serif" font-size="10.00">InitializeParticleSwarm</text>
</a>
</g>
</g>
<!-- Node1&#45;&gt;Node2 -->
<g id="edge1" class="edge">
<title>Node1&#45;&gt;Node2</title>
<path fill="none" stroke="midnightblue" d="M416.64,-42.18C352.33,-45.78 264.93,-50.66 206.26,-53.94"/>
<polygon fill="midnightblue" stroke="midnightblue" points="416.97,-45.67 426.76,-41.62 416.58,-38.68 416.97,-45.67"/>
</g>
<!-- Node4 -->
<g id="node4" class="node">
<title>Node4</title>
<g id="a_node4"><a xlink:href="ParticleMotion_8c.html#abb62172d12ae65122070a3674196c8e2" target="_top" xlink:title="Re&#45;initializes the positions of particles currently on this rank if this rank owns part of the design...">
<polygon fill="none" stroke="black" points="242,-0.5 242,-30.5 391,-30.5 391,-0.5 242,-0.5"/>
<text text-anchor="start" x="250" y="-18.5" font-family="Helvetica,sans-Serif" font-size="10.00">ReinitializeParticlesOnInlet</text>
<text text-anchor="middle" x="316.5" y="-7.5" font-family="Helvetica,sans-Serif" font-size="10.00">Surface</text>
</a>
</g>
</g>
<!-- Node1&#45;&gt;Node4 -->
<g id="edge3" class="edge">
<title>Node1&#45;&gt;Node4</title>
<path fill="none" stroke="midnightblue" d="M416.89,-27.45C408.35,-26.42 399.72,-25.38 391.29,-24.37"/>
<polygon fill="midnightblue" stroke="midnightblue" points="416.51,-30.93 426.86,-28.65 417.35,-23.98 416.51,-30.93"/>
</g>
<!-- Node3 -->
<g id="node3" class="node">
<title>Node3</title>
<g id="a_node3"><a xlink:href="picsolver_8c.html#a3c04138a5bfe5d72780bb7e82a18e627" target="_top" xlink:title=" ">
<polygon fill="none" stroke="black" points="0,-28 0,-47 41,-47 41,-28 0,-28"/>
<text text-anchor="middle" x="20.5" y="-35" font-family="Helvetica,sans-Serif" font-size="10.00">main</text>
</a>
</g>
</g>
<!-- Node2&#45;&gt;Node3 -->
<g id="edge2" class="edge">
<title>Node2&#45;&gt;Node3</title>
<path fill="none" stroke="midnightblue" d="M73.74,-46.28C61.83,-44.28 50.32,-42.34 41.15,-40.8"/>
<polygon fill="midnightblue" stroke="midnightblue" points="73.35,-49.76 83.79,-47.97 74.51,-42.86 73.35,-49.76"/>
</g>
<!-- Node5 -->
<g id="node5" class="node">
<title>Node5</title>
<g id="a_node5"><a xlink:href="simulation_8c.html#a4e2cad25ac1fbdc6745d6fd8fcc1bbc1" target="_top" xlink:title="Finalizes the simulation setup at t=0, ensuring a consistent state before time marching.">
<polygon fill="none" stroke="black" points="86,-9 86,-28 197,-28 197,-9 86,-9"/>
<text text-anchor="middle" x="141.5" y="-16" font-family="Helvetica,sans-Serif" font-size="10.00">PerformInitialSetup</text>
</a>
</g>
</g>
<!-- Node4&#45;&gt;Node5 -->
<g id="edge4" class="edge">
<title>Node4&#45;&gt;Node5</title>
<path fill="none" stroke="midnightblue" d="M231.63,-16.95C219.93,-17.16 208.16,-17.36 197.18,-17.55"/>
<polygon fill="midnightblue" stroke="midnightblue" points="231.94,-20.45 241.88,-16.78 231.82,-13.45 231.94,-20.45"/>
</g>
<!-- Node5&#45;&gt;Node3 -->
<g id="edge5" class="edge">
<title>Node5&#45;&gt;Node3</title>
<path fill="none" stroke="midnightblue" d="M75.73,-28.84C63.1,-30.86 50.8,-32.82 41.11,-34.37"/>
<polygon fill="midnightblue" stroke="midnightblue" points="76.55,-32.25 85.88,-27.22 75.45,-25.34 76.55,-32.25"/>
</g>
</g>
</svg>
