<?xml version="1.0" encoding="UTF-8" standalone="no"?>
<!DOCTYPE svg PUBLIC "-//W3C//DTD SVG 1.1//EN"
 "http://www.w3.org/Graphics/SVG/1.1/DTD/svg11.dtd">
<!-- Generated by graphviz version 2.43.0 (0)
 -->
<!-- Title: PerformSingleParticleMigrationCycle Pages: 1 -->
<svg width="511pt" height="180pt"
 viewBox="0.00 0.00 511.00 180.00" xmlns="http://www.w3.org/2000/svg" xmlns:xlink="http://www.w3.org/1999/xlink">
<g id="graph0" class="graph" transform="scale(1 1) rotate(0) translate(4 176)">
<title>PerformSingleParticleMigrationCycle</title>
<!-- Node1 -->
<g id="node1" class="node">
<title>Node1</title>
<g id="a_node1"><a xlink:title="Performs one full cycle of particle migration: identify, set ranks, and migrate.">
<polygon fill="#bfbfbf" stroke="black" points="0,-71 0,-101 169,-101 169,-71 0,-71"/>
<text text-anchor="start" x="8" y="-89" font-family="Helvetica,sans-Serif" font-size="10.00">PerformSingleParticleMigration</text>
<text text-anchor="middle" x="84.5" y="-78" font-family="Helvetica,sans-Serif" font-size="10.00">Cycle</text>
</a>
</g>
</g>
<!-- Node2 -->
<g id="node2" class="node">
<title>Node2</title>
<g id="a_node2"><a xlink:href="ParticleMotion_8c.html#ad247152a0dd47d07243fad4c2fd89c0a" target="_top" xlink:title="Identifies newly arrived particles after migration and flags them for a location search.">
<polygon fill="none" stroke="black" points="205,-152.5 205,-171.5 357,-171.5 357,-152.5 205,-152.5"/>
<text text-anchor="middle" x="281" y="-159.5" font-family="Helvetica,sans-Serif" font-size="10.00">FlagNewcomersForLocation</text>
</a>
</g>
</g>
<!-- Node1&#45;&gt;Node2 -->
<g id="edge1" class="edge">
<title>Node1&#45;&gt;Node2</title>
<path fill="none" stroke="midnightblue" d="M113.32,-101.2C137.12,-113.73 172.57,-131.29 205,-143 211.86,-145.48 219.19,-147.76 226.47,-149.82"/>
<polygon fill="midnightblue" stroke="midnightblue" points="225.77,-153.25 236.33,-152.48 227.59,-146.49 225.77,-153.25"/>
</g>
<!-- Node4 -->
<g id="node4" class="node">
<title>Node4</title>
<g id="a_node4"><a xlink:href="ParticleMotion_8c.html#a5d388b62daa726aa7ea467a71313a328" target="_top" xlink:title="Creates a sorted snapshot of all Particle IDs (PIDs) from a raw data array.">
<polygon fill="none" stroke="black" points="220.5,-114.5 220.5,-133.5 341.5,-133.5 341.5,-114.5 220.5,-114.5"/>
<text text-anchor="middle" x="281" y="-121.5" font-family="Helvetica,sans-Serif" font-size="10.00">GetLocalPIDSnapshot</text>
</a>
</g>
</g>
<!-- Node1&#45;&gt;Node4 -->
<g id="edge3" class="edge">
<title>Node1&#45;&gt;Node4</title>
<path fill="none" stroke="midnightblue" d="M162.37,-101.02C181.99,-104.85 202.77,-108.91 221.32,-112.54"/>
<polygon fill="midnightblue" stroke="midnightblue" points="220.88,-116.02 231.37,-114.5 222.23,-109.15 220.88,-116.02"/>
</g>
<!-- Node5 -->
<g id="node5" class="node">
<title>Node5</title>
<g id="a_node5"><a xlink:href="ParticleMotion_8c.html#acf00ed7232c9aa111858b5a4cff43922" target="_top" xlink:title="Identifies particles that have left the local MPI rank&#39;s domain and determines their target rank.">
<polygon fill="none" stroke="black" points="209.5,-76.5 209.5,-95.5 352.5,-95.5 352.5,-76.5 209.5,-76.5"/>
<text text-anchor="middle" x="281" y="-83.5" font-family="Helvetica,sans-Serif" font-size="10.00">IdentifyMigratingParticles</text>
</a>
</g>
</g>
<!-- Node1&#45;&gt;Node5 -->
<g id="edge4" class="edge">
<title>Node1&#45;&gt;Node5</title>
<path fill="none" stroke="midnightblue" d="M169.11,-86C179.05,-86 189.18,-86 199.07,-86"/>
<polygon fill="midnightblue" stroke="midnightblue" points="199.28,-89.5 209.28,-86 199.28,-82.5 199.28,-89.5"/>
</g>
<!-- Node8 -->
<g id="node8" class="node">
<title>Node8</title>
<g id="a_node8"><a xlink:href="ParticleMotion_8c.html#af68865be3bc987bdf1be2c5c7a1903fa" target="_top" xlink:title="Performs particle migration based on the pre&#45;populated DMSwarmPICField_rank field.">
<polygon fill="none" stroke="black" points="230,-38.5 230,-57.5 332,-57.5 332,-38.5 230,-38.5"/>
<text text-anchor="middle" x="281" y="-45.5" font-family="Helvetica,sans-Serif" font-size="10.00">PerformMigration</text>
</a>
</g>
</g>
<!-- Node1&#45;&gt;Node8 -->
<g id="edge7" class="edge">
<title>Node1&#45;&gt;Node8</title>
<path fill="none" stroke="midnightblue" d="M162.37,-70.98C181.99,-67.15 202.77,-63.09 221.32,-59.46"/>
<polygon fill="midnightblue" stroke="midnightblue" points="222.23,-62.85 231.37,-57.5 220.88,-55.98 222.23,-62.85"/>
</g>
<!-- Node9 -->
<g id="node9" class="node">
<title>Node9</title>
<g id="a_node9"><a xlink:href="ParticleMotion_8c.html#a461def358c0f7c5337c283ba06dd65a0" target="_top" xlink:title="Sets the target rank field (DMSwarmPICField_rank) for particles scheduled for migration.">
<polygon fill="none" stroke="black" points="226.5,-0.5 226.5,-19.5 335.5,-19.5 335.5,-0.5 226.5,-0.5"/>
<text text-anchor="middle" x="281" y="-7.5" font-family="Helvetica,sans-Serif" font-size="10.00">SetMigrationRanks</text>
</a>
</g>
</g>
<!-- Node1&#45;&gt;Node9 -->
<g id="edge8" class="edge">
<title>Node1&#45;&gt;Node9</title>
<path fill="none" stroke="midnightblue" d="M113.32,-70.8C137.12,-58.27 172.57,-40.71 205,-29 211.86,-26.52 219.19,-24.24 226.47,-22.18"/>
<polygon fill="midnightblue" stroke="midnightblue" points="227.59,-25.51 236.33,-19.52 225.77,-18.75 227.59,-25.51"/>
</g>
<!-- Node3 -->
<g id="node3" class="node">
<title>Node3</title>
<g id="a_node3"><a xlink:href="setup_8h.html#acd8d87dc85f19ba3e32811a623bf5b36" target="_top" xlink:title="Performs a binary search for a key in a sorted array of PetscInt64.">
<polygon fill="none" stroke="black" points="395,-152.5 395,-171.5 501,-171.5 501,-152.5 395,-152.5"/>
<text text-anchor="middle" x="448" y="-159.5" font-family="Helvetica,sans-Serif" font-size="10.00">BinarySearchInt64</text>
</a>
</g>
</g>
<!-- Node2&#45;&gt;Node3 -->
<g id="edge2" class="edge">
<title>Node2&#45;&gt;Node3</title>
<path fill="none" stroke="midnightblue" d="M357.26,-162C366.52,-162 375.91,-162 384.94,-162"/>
<polygon fill="midnightblue" stroke="midnightblue" points="384.97,-165.5 394.97,-162 384.97,-158.5 384.97,-165.5"/>
</g>
<!-- Node6 -->
<g id="node6" class="node">
<title>Node6</title>
<g id="a_node6"><a xlink:href="ParticleMotion_8c.html#a43df9caf0f5cbb317050f6258ac46fff" target="_top" xlink:title="Safely adds a new migration task to a dynamically sized list.">
<polygon fill="none" stroke="black" points="393,-95.5 393,-114.5 503,-114.5 503,-95.5 393,-95.5"/>
<text text-anchor="middle" x="448" y="-102.5" font-family="Helvetica,sans-Serif" font-size="10.00">AddToMigrationList</text>
</a>
</g>
</g>
<!-- Node5&#45;&gt;Node6 -->
<g id="edge5" class="edge">
<title>Node5&#45;&gt;Node6</title>
<path fill="none" stroke="midnightblue" d="M352.93,-94.17C362.79,-95.3 372.86,-96.46 382.59,-97.58"/>
<polygon fill="midnightblue" stroke="midnightblue" points="382.24,-101.07 392.57,-98.73 383.04,-94.11 382.24,-101.07"/>
</g>
<!-- Node7 -->
<g id="node7" class="node">
<title>Node7</title>
<g id="a_node7"><a xlink:href="ParticleMotion_8c.html#ad2b9ac6b5e4d13799fa82dcd34432da4" target="_top" xlink:title="Checks if a particle position is within the bounds of a given bounding box.">
<polygon fill="none" stroke="black" points="403.5,-57.5 403.5,-76.5 492.5,-76.5 492.5,-57.5 403.5,-57.5"/>
<text text-anchor="middle" x="448" y="-64.5" font-family="Helvetica,sans-Serif" font-size="10.00">IsParticleInBox</text>
</a>
</g>
</g>
<!-- Node5&#45;&gt;Node7 -->
<g id="edge6" class="edge">
<title>Node5&#45;&gt;Node7</title>
<path fill="none" stroke="midnightblue" d="M352.93,-77.83C366.44,-76.28 380.37,-74.67 393.24,-73.19"/>
<polygon fill="midnightblue" stroke="midnightblue" points="393.76,-76.65 403.3,-72.03 392.96,-69.7 393.76,-76.65"/>
</g>
</g>
</svg>
