<?xml version="1.0" encoding="UTF-8" standalone="no"?>
<!DOCTYPE svg PUBLIC "-//W3C//DTD SVG 1.1//EN"
 "http://www.w3.org/Graphics/SVG/1.1/DTD/svg11.dtd">
<!-- Generated by graphviz version 2.43.0 (0)
 -->
<!-- Title: AddToMigrationList Pages: 1 -->
<svg width="598pt" height="116pt"
 viewBox="0.00 0.00 598.00 115.50" xmlns="http://www.w3.org/2000/svg" xmlns:xlink="http://www.w3.org/1999/xlink">
<g id="graph0" class="graph" transform="scale(1 1) rotate(0) translate(4 111.5)">
<title>AddToMigrationList</title>
<!-- Node1 -->
<g id="node1" class="node">
<title>Node1</title>
<g id="a_node1"><a xlink:title="Safely adds a new migration task to a dynamically sized list.">
<polygon fill="#bfbfbf" stroke="black" points="480,-57.5 480,-76.5 590,-76.5 590,-57.5 480,-57.5"/>
<text text-anchor="middle" x="535" y="-64.5" font-family="Helvetica,sans-Serif" font-size="10.00">AddToMigrationList</text>
</a>
</g>
</g>
<!-- Node2 -->
<g id="node2" class="node">
<title>Node2</title>
<g id="a_node2"><a xlink:href="ParticleMotion_8c.html#acf00ed7232c9aa111858b5a4cff43922" target="_top" xlink:title="Identifies particles that have left the local MPI rank&#39;s domain and determines their target rank.">
<polygon fill="none" stroke="black" points="291.5,-79.5 291.5,-98.5 434.5,-98.5 434.5,-79.5 291.5,-79.5"/>
<text text-anchor="middle" x="363" y="-86.5" font-family="Helvetica,sans-Serif" font-size="10.00">IdentifyMigratingParticles</text>
</a>
</g>
</g>
<!-- Node1&#45;&gt;Node2 -->
<g id="edge1" class="edge">
<title>Node1&#45;&gt;Node2</title>
<path fill="none" stroke="midnightblue" d="M469.78,-75.31C458.26,-76.8 446.2,-78.36 434.51,-79.87"/>
<polygon fill="midnightblue" stroke="midnightblue" points="470.28,-78.78 479.74,-74.02 469.38,-71.83 470.28,-78.78"/>
</g>
<!-- Node4 -->
<g id="node4" class="node">
<title>Node4</title>
<g id="a_node4"><a xlink:href="ParticleMotion_8c.html#a727054a4a467fd8504a19caed5a5916b" target="_top" xlink:title="Orchestrates the complete particle location and migration process for one timestep.">
<polygon fill="none" stroke="black" points="282,-38.5 282,-57.5 444,-57.5 444,-38.5 282,-38.5"/>
<text text-anchor="middle" x="363" y="-45.5" font-family="Helvetica,sans-Serif" font-size="10.00">LocateAllParticlesInGrid_TEST</text>
</a>
</g>
</g>
<!-- Node1&#45;&gt;Node4 -->
<g id="edge3" class="edge">
<title>Node1&#45;&gt;Node4</title>
<path fill="none" stroke="midnightblue" d="M469.7,-59.81C461.32,-58.88 452.66,-57.91 444.07,-56.95"/>
<polygon fill="midnightblue" stroke="midnightblue" points="469.42,-63.3 479.74,-60.94 470.19,-56.35 469.42,-63.3"/>
</g>
<!-- Node3 -->
<g id="node3" class="node">
<title>Node3</title>
<g id="a_node3"><a xlink:href="ParticleMotion_8c.html#ab2eeab12258446f697695ebdaef3f011" target="_top" xlink:title="Performs one full cycle of particle migration: identify, set ranks, and migrate.">
<polygon fill="none" stroke="black" points="77,-77 77,-107 246,-107 246,-77 77,-77"/>
<text text-anchor="start" x="85" y="-95" font-family="Helvetica,sans-Serif" font-size="10.00">PerformSingleParticleMigration</text>
<text text-anchor="middle" x="161.5" y="-84" font-family="Helvetica,sans-Serif" font-size="10.00">Cycle</text>
</a>
</g>
</g>
<!-- Node2&#45;&gt;Node3 -->
<g id="edge2" class="edge">
<title>Node2&#45;&gt;Node3</title>
<path fill="none" stroke="midnightblue" d="M281.36,-90.21C269.82,-90.39 257.93,-90.56 246.34,-90.74"/>
<polygon fill="midnightblue" stroke="midnightblue" points="281.44,-93.71 291.38,-90.06 281.33,-86.71 281.44,-93.71"/>
</g>
<!-- Node5 -->
<g id="node5" class="node">
<title>Node5</title>
<g id="a_node5"><a xlink:href="simulation_8c.html#a5cfb2f783604af7f20171d19f969d5d3" target="_top" xlink:title="Executes the main time&#45;marching loop for the coupled Euler&#45;Lagrange simulation.">
<polygon fill="none" stroke="black" points="106,-38.5 106,-57.5 217,-57.5 217,-38.5 106,-38.5"/>
<text text-anchor="middle" x="161.5" y="-45.5" font-family="Helvetica,sans-Serif" font-size="10.00">AdvanceSimulation</text>
</a>
</g>
</g>
<!-- Node4&#45;&gt;Node5 -->
<g id="edge4" class="edge">
<title>Node4&#45;&gt;Node5</title>
<path fill="none" stroke="midnightblue" d="M271.49,-48C252.97,-48 234.03,-48 217.23,-48"/>
<polygon fill="midnightblue" stroke="midnightblue" points="271.72,-51.5 281.72,-48 271.72,-44.5 271.72,-51.5"/>
</g>
<!-- Node7 -->
<g id="node7" class="node">
<title>Node7</title>
<g id="a_node7"><a xlink:href="simulation_8c.html#a4e2cad25ac1fbdc6745d6fd8fcc1bbc1" target="_top" xlink:title="Finalizes the simulation setup at t=0, ensuring a consistent state before time marching.">
<polygon fill="none" stroke="black" points="106,-0.5 106,-19.5 217,-19.5 217,-0.5 106,-0.5"/>
<text text-anchor="middle" x="161.5" y="-7.5" font-family="Helvetica,sans-Serif" font-size="10.00">PerformInitialSetup</text>
</a>
</g>
</g>
<!-- Node4&#45;&gt;Node7 -->
<g id="edge6" class="edge">
<title>Node4&#45;&gt;Node7</title>
<path fill="none" stroke="midnightblue" d="M302.05,-36.58C273.51,-31.14 239.76,-24.72 212.61,-19.54"/>
<polygon fill="midnightblue" stroke="midnightblue" points="301.44,-40.03 311.92,-38.46 302.75,-33.15 301.44,-40.03"/>
</g>
<!-- Node6 -->
<g id="node6" class="node">
<title>Node6</title>
<g id="a_node6"><a xlink:href="picsolver_8c.html#a3c04138a5bfe5d72780bb7e82a18e627" target="_top" xlink:title=" ">
<polygon fill="none" stroke="black" points="0,-19.5 0,-38.5 41,-38.5 41,-19.5 0,-19.5"/>
<text text-anchor="middle" x="20.5" y="-26.5" font-family="Helvetica,sans-Serif" font-size="10.00">main</text>
</a>
</g>
</g>
<!-- Node5&#45;&gt;Node6 -->
<g id="edge5" class="edge">
<title>Node5&#45;&gt;Node6</title>
<path fill="none" stroke="midnightblue" d="M95.96,-39.18C76.07,-36.46 55.63,-33.67 41.21,-31.69"/>
<polygon fill="midnightblue" stroke="midnightblue" points="95.58,-42.66 105.96,-40.55 96.53,-35.72 95.58,-42.66"/>
</g>
<!-- Node7&#45;&gt;Node6 -->
<g id="edge7" class="edge">
<title>Node7&#45;&gt;Node6</title>
<path fill="none" stroke="midnightblue" d="M95.96,-18.82C76.07,-21.54 55.63,-24.33 41.21,-26.31"/>
<polygon fill="midnightblue" stroke="midnightblue" points="96.53,-22.28 105.96,-17.45 95.58,-15.34 96.53,-22.28"/>
</g>
</g>
</svg>
