<?xml version="1.0" encoding="UTF-8" standalone="no"?>
<!DOCTYPE svg PUBLIC "-//W3C//DTD SVG 1.1//EN"
 "http://www.w3.org/Graphics/SVG/1.1/DTD/svg11.dtd">
<!-- Generated by graphviz version 2.43.0 (0)
 -->
<!-- Title: InitializeParticleSwarm Pages: 1 -->
<!--zoomable 452 -->
<svg id="main" version="1.1" xmlns="http://www.w3.org/2000/svg" xmlns:xlink="http://www.w3.org/1999/xlink" xml:space="preserve" onload="init(evt)">
<style type="text/css"><![CDATA[
.edge:hover path { stroke: red; }
.edge:hover polygon { stroke: red; fill: red; }
]]></style>
<script type="text/javascript"><![CDATA[
var edges = document.getElementsByTagName('g');
if (edges && edges.length) {
  for (var i=0;i<edges.length;i++) {
    if (edges[i].id.substr(0,4)=='edge') {
      edges[i].setAttribute('class','edge');
    }
  }
}
]]></script>
        <defs>
                <circle id="rim" cx="0" cy="0" r="7"/>
                <circle id="rim2" cx="0" cy="0" r="3.5"/>
                <g id="zoomPlus">
                        <use xlink:href="#rim" fill="#404040">
                                <set attributeName="fill" to="#808080" begin="zoomplus.mouseover" end="zoomplus.mouseout"/>
                        </use>
                        <path d="M-4,0h8M0,-4v8" fill="none" stroke="white" stroke-width="1.5" pointer-events="none"/>
                </g>
                <g id="zoomMin">
                        <use xlink:href="#rim" fill="#404040">
                                <set attributeName="fill" to="#808080" begin="zoomminus.mouseover" end="zoomminus.mouseout"/>
                        </use>
                        <path d="M-4,0h8" fill="none" stroke="white" stroke-width="1.5" pointer-events="none"/>
                </g>
                <g id="dirArrow">
                        <path fill="none" stroke="white" stroke-width="1.5" d="M0,-3.0v7 M-2.5,-0.5L0,-3.0L2.5,-0.5"/>
                </g>
               <g id="resetDef">
                       <use xlink:href="#rim2" fill="#404040">
                               <set attributeName="fill" to="#808080" begin="reset.mouseover" end="reset.mouseout"/>
                       </use>
               </g>
        </defs>

<script type="text/javascript">
var viewWidth = 960;
var viewHeight = 452;
var sectionId = 'dynsection-9';
</script>
<script xlink:href="svgpan.js"/>
<svg id="graph" class="graph">
<g id="viewport">
<title>InitializeParticleSwarm</title>
<!-- Node1 -->
<g id="node1" class="node">
<title>Node1</title>
<g id="a_node1"><a xlink:title="Perform particle swarm initialization, particle&#45;grid interaction, and related operations.">
<polygon fill="#bfbfbf" stroke="black" points="0,-152.5 0,-171.5 129,-171.5 129,-152.5 0,-152.5"/>
<text text-anchor="middle" x="64.5" y="-159.5" font-family="Helvetica,sans-Serif" font-size="10.00">InitializeParticleSwarm</text>
</a>
</g>
</g>
<!-- Node2 -->
<g id="node2" class="node">
<title>Node2</title>
<g id="a_node2"><a xlink:href="ParticleSwarm_8c.html#af2b3080ee0e5c8e0175ac594a2c497b5" target="_top" xlink:title="Initializes all particle properties in the swarm.">
<polygon fill="none" stroke="black" points="191.5,-337 191.5,-367 328.5,-367 328.5,-337 191.5,-337"/>
<text text-anchor="start" x="199.5" y="-355" font-family="Helvetica,sans-Serif" font-size="10.00">AssignInitialPropertiesTo</text>
<text text-anchor="middle" x="260" y="-344" font-family="Helvetica,sans-Serif" font-size="10.00">Swarm</text>
</a>
</g>
</g>
<!-- Node1&#45;&gt;Node2 -->
<g id="edge1" class="edge">
<title>Node1&#45;&gt;Node2</title>
<path fill="none" stroke="midnightblue" d="M72.98,-171.65C88.9,-191.94 127.72,-240.1 165,-276 185.67,-295.91 211.09,-316.24 230.27,-330.85"/>
<polygon fill="midnightblue" stroke="midnightblue" points="228.26,-333.72 238.35,-336.95 232.47,-328.13 228.26,-333.72"/>
</g>
<!-- Node13 -->
<g id="node13" class="node">
<title>Node13</title>
<g id="a_node13"><a xlink:href="ParticleSwarm_8c.html#a063f4fd13a24b248fabd0268c49fd38c" target="_top" xlink:title="Creates and initializes a Particle Swarm.">
<polygon fill="none" stroke="black" points="200.5,-247.5 200.5,-266.5 319.5,-266.5 319.5,-247.5 200.5,-247.5"/>
<text text-anchor="middle" x="260" y="-254.5" font-family="Helvetica,sans-Serif" font-size="10.00">CreateParticleSwarm</text>
</a>
</g>
</g>
<!-- Node1&#45;&gt;Node13 -->
<g id="edge13" class="edge">
<title>Node1&#45;&gt;Node13</title>
<path fill="none" stroke="midnightblue" d="M74.95,-171.66C91.57,-188.04 127.78,-221.12 165,-238 172.93,-241.6 181.55,-244.52 190.24,-246.89"/>
<polygon fill="midnightblue" stroke="midnightblue" points="189.49,-250.31 200.04,-249.34 191.19,-243.52 189.49,-250.31"/>
</g>
<!-- Node20 -->
<g id="node20" class="node">
<title>Node20</title>
<g id="a_node20"><a xlink:href="ParticleSwarm_8c.html#a075e674353bc5b06344aa4c17063babf" target="_top" xlink:title="Finalizes the swarm setup by destroying random generators and logging completion.">
<polygon fill="none" stroke="black" points="202.5,-209.5 202.5,-228.5 317.5,-228.5 317.5,-209.5 202.5,-209.5"/>
<text text-anchor="middle" x="260" y="-216.5" font-family="Helvetica,sans-Serif" font-size="10.00">FinalizeSwarmSetup</text>
</a>
</g>
</g>
<!-- Node1&#45;&gt;Node20 -->
<g id="edge20" class="edge">
<title>Node1&#45;&gt;Node20</title>
<path fill="none" stroke="midnightblue" d="M87.27,-171.51C107.2,-179.93 137.65,-192.07 165,-200 174.26,-202.68 184.13,-205.12 193.88,-207.3"/>
<polygon fill="midnightblue" stroke="midnightblue" points="193.44,-210.78 203.95,-209.46 194.91,-203.94 193.44,-210.78"/>
</g>
<!-- Node21 -->
<g id="node21" class="node">
<title>Node21</title>
<g id="a_node21"><a xlink:href="ParticleSwarm_8c.html#ab723e91906e01ec26aab97de6623000c" target="_top" xlink:title="Initializes random number generators for logical space operations [0.0, 1.0).">
<polygon fill="none" stroke="black" points="185.5,-171.5 185.5,-190.5 334.5,-190.5 334.5,-171.5 185.5,-171.5"/>
<text text-anchor="middle" x="260" y="-178.5" font-family="Helvetica,sans-Serif" font-size="10.00">InitializeLogicalSpaceRNGs</text>
</a>
</g>
</g>
<!-- Node1&#45;&gt;Node21 -->
<g id="edge21" class="edge">
<title>Node1&#45;&gt;Node21</title>
<path fill="none" stroke="midnightblue" d="M129.13,-168.25C143.86,-169.69 159.75,-171.25 175.19,-172.77"/>
<polygon fill="midnightblue" stroke="midnightblue" points="174.97,-176.27 185.26,-173.76 175.65,-169.3 174.97,-176.27"/>
</g>
<!-- Node22 -->
<g id="node22" class="node">
<title>Node22</title>
<g id="a_node22"><a xlink:href="ParticleSwarm_8c.html#a26fa0cca0aa8b05f2705cdd0e7d37658" target="_top" xlink:title="Initializes random number generators for assigning particle properties.">
<polygon fill="none" stroke="black" points="183.5,-133.5 183.5,-152.5 336.5,-152.5 336.5,-133.5 183.5,-133.5"/>
<text text-anchor="middle" x="260" y="-140.5" font-family="Helvetica,sans-Serif" font-size="10.00">InitializeRandomGenerators</text>
</a>
</g>
</g>
<!-- Node1&#45;&gt;Node22 -->
<g id="edge22" class="edge">
<title>Node1&#45;&gt;Node22</title>
<path fill="none" stroke="midnightblue" d="M129.13,-155.75C143.18,-154.37 158.29,-152.89 173.06,-151.44"/>
<polygon fill="midnightblue" stroke="midnightblue" points="173.6,-154.9 183.22,-150.44 172.92,-147.94 173.6,-154.9"/>
</g>
<!-- Node23 -->
<g id="node23" class="node">
<title>Node23</title>
<g id="a_node23"><a xlink:href="ParticleMotion_8h.html#ae0c7489fc52fda6c92cd1f22c3f50c38" target="_top" xlink:title="Checks particle count in the reference file and resizes the swarm if needed.">
<polygon fill="none" stroke="black" points="186.5,-95.5 186.5,-114.5 333.5,-114.5 333.5,-95.5 186.5,-95.5"/>
<text text-anchor="middle" x="260" y="-102.5" font-family="Helvetica,sans-Serif" font-size="10.00">PreCheckAndResizeSwarm</text>
</a>
</g>
</g>
<!-- Node1&#45;&gt;Node23 -->
<g id="edge23" class="edge">
<title>Node1&#45;&gt;Node23</title>
<path fill="none" stroke="midnightblue" d="M87.27,-152.49C107.2,-144.07 137.65,-131.93 165,-124 174.26,-121.32 184.13,-118.88 193.88,-116.7"/>
<polygon fill="midnightblue" stroke="midnightblue" points="194.91,-120.06 203.95,-114.54 193.44,-113.22 194.91,-120.06"/>
</g>
<!-- Node25 -->
<g id="node25" class="node">
<title>Node25</title>
<g id="a_node25"><a xlink:href="ParticleSwarm_8c.html#a5488e87ab4fa163467b3db9ce10233a5" target="_top" xlink:title="Resets the location&#45;dependent state of a loaded swarm to force relocation.">
<polygon fill="none" stroke="black" points="165,-57.5 165,-76.5 355,-76.5 355,-57.5 165,-57.5"/>
<text text-anchor="middle" x="260" y="-64.5" font-family="Helvetica,sans-Serif" font-size="10.00">PrepareLoadedSwarmForRelocation</text>
</a>
</g>
</g>
<!-- Node1&#45;&gt;Node25 -->
<g id="edge25" class="edge">
<title>Node1&#45;&gt;Node25</title>
<path fill="none" stroke="midnightblue" d="M74.95,-152.34C91.57,-135.96 127.78,-102.88 165,-86 170.44,-83.53 176.2,-81.38 182.09,-79.51"/>
<polygon fill="midnightblue" stroke="midnightblue" points="183.44,-82.76 192.07,-76.62 181.49,-76.04 183.44,-82.76"/>
</g>
<!-- Node26 -->
<g id="node26" class="node">
<title>Node26</title>
<g id="a_node26"><a xlink:href="io_8h.html#a64286adf953993b2a0c5c3fbee40d5a2" target="_top" xlink:title="Reads multiple fields (positions, velocity, CellID, and weight) into a DMSwarm.">
<polygon fill="none" stroke="black" points="202,-19.5 202,-38.5 318,-38.5 318,-19.5 202,-19.5"/>
<text text-anchor="middle" x="260" y="-26.5" font-family="Helvetica,sans-Serif" font-size="10.00">ReadAllSwarmFields</text>
</a>
</g>
</g>
<!-- Node1&#45;&gt;Node26 -->
<g id="edge26" class="edge">
<title>Node1&#45;&gt;Node26</title>
<path fill="none" stroke="midnightblue" d="M70.79,-152.48C83.69,-130.22 119.12,-74.66 165,-48 173.23,-43.22 182.47,-39.63 191.85,-36.93"/>
<polygon fill="midnightblue" stroke="midnightblue" points="192.83,-40.29 201.66,-34.43 191.1,-33.51 192.83,-40.29"/>
</g>
<!-- Node3 -->
<g id="node3" class="node">
<title>Node3</title>
<g id="a_node3"><a xlink:href="ParticleSwarm_8c.html#a38c3c55ea49021ac59eea87b61e942d1" target="_top" xlink:title="Initializes a generic swarm field with point&#45;level updates.">
<polygon fill="none" stroke="black" points="405,-402.5 405,-421.5 548,-421.5 548,-402.5 405,-402.5"/>
<text text-anchor="middle" x="476.5" y="-409.5" font-family="Helvetica,sans-Serif" font-size="10.00">AssignInitialFieldToSwarm</text>
</a>
</g>
</g>
<!-- Node2&#45;&gt;Node3 -->
<g id="edge2" class="edge">
<title>Node2&#45;&gt;Node3</title>
<path fill="none" stroke="midnightblue" d="M314.85,-367.06C350.84,-377.13 397.6,-390.21 431.38,-399.66"/>
<polygon fill="midnightblue" stroke="midnightblue" points="430.85,-403.14 441.42,-402.47 432.74,-396.4 430.85,-403.14"/>
</g>
<!-- Node5 -->
<g id="node5" class="node">
<title>Node5</title>
<g id="a_node5"><a xlink:href="ParticleSwarm_8c.html#a95efc9f04a0187f2a1d920952bd610e0" target="_top" xlink:title="Initializes basic properties for particles on the local process.">
<polygon fill="none" stroke="black" points="391,-342.5 391,-361.5 562,-361.5 562,-342.5 391,-342.5"/>
<text text-anchor="middle" x="476.5" y="-349.5" font-family="Helvetica,sans-Serif" font-size="10.00">InitializeParticleBasicProperties</text>
</a>
</g>
</g>
<!-- Node2&#45;&gt;Node5 -->
<g id="edge4" class="edge">
<title>Node2&#45;&gt;Node5</title>
<path fill="none" stroke="midnightblue" d="M328.57,-352C345.1,-352 363.09,-352 380.64,-352"/>
<polygon fill="midnightblue" stroke="midnightblue" points="380.9,-355.5 390.9,-352 380.9,-348.5 380.9,-355.5"/>
</g>
<!-- Node4 -->
<g id="node4" class="node">
<title>Node4</title>
<g id="a_node4"><a xlink:href="ParticleSwarm_8c.html#a836356591a56313ee45df507a984907d" target="_top" xlink:title="Helper function to update a given particle’s field value.">
<polygon fill="none" stroke="black" points="627.5,-424.5 627.5,-443.5 763.5,-443.5 763.5,-424.5 627.5,-424.5"/>
<text text-anchor="middle" x="695.5" y="-431.5" font-family="Helvetica,sans-Serif" font-size="10.00">UpdateSwarmFieldValue</text>
</a>
</g>
</g>
<!-- Node3&#45;&gt;Node4 -->
<g id="edge3" class="edge">
<title>Node3&#45;&gt;Node4</title>
<path fill="none" stroke="midnightblue" d="M548.25,-419.17C570.24,-421.4 594.59,-423.87 617.01,-426.14"/>
<polygon fill="midnightblue" stroke="midnightblue" points="616.86,-429.65 627.16,-427.17 617.57,-422.68 616.86,-429.65"/>
</g>
<!-- Node6 -->
<g id="node6" class="node">
<title>Node6</title>
<g id="a_node6"><a xlink:href="Boundaries_8h.html#ab679d620b2d750179fbc2363fc562a1f" target="_top" xlink:title="Determines if the current MPI rank owns any part of the globally defined inlet face,...">
<polygon fill="none" stroke="black" points="625.5,-386.5 625.5,-405.5 765.5,-405.5 765.5,-386.5 625.5,-386.5"/>
<text text-anchor="middle" x="695.5" y="-393.5" font-family="Helvetica,sans-Serif" font-size="10.00">CanRankServiceInletFace</text>
</a>
</g>
</g>
<!-- Node5&#45;&gt;Node6 -->
<g id="edge5" class="edge">
<title>Node5&#45;&gt;Node6</title>
<path fill="none" stroke="midnightblue" d="M522.97,-361.55C545.52,-366.25 573.18,-371.98 598,-377 610.03,-379.43 622.91,-382 635.22,-384.43"/>
<polygon fill="midnightblue" stroke="midnightblue" points="634.9,-387.93 645.39,-386.43 636.25,-381.06 634.9,-387.93"/>
</g>
<!-- Node8 -->
<g id="node8" class="node">
<title>Node8</title>
<g id="a_node8"><a xlink:href="ParticleSwarm_8c.html#ae333eaf5cdf54d396fb84ef574a4945b" target="_top" xlink:title="Determines cell selection and intra&#45;cell logical coordinates for volumetric initialization (Mode 1).">
<polygon fill="none" stroke="black" points="604.5,-337 604.5,-367 786.5,-367 786.5,-337 604.5,-337"/>
<text text-anchor="start" x="612.5" y="-355" font-family="Helvetica,sans-Serif" font-size="10.00">DetermineVolumetricInitialization</text>
<text text-anchor="middle" x="695.5" y="-344" font-family="Helvetica,sans-Serif" font-size="10.00">Parameters</text>
</a>
</g>
</g>
<!-- Node5&#45;&gt;Node8 -->
<g id="edge7" class="edge">
<title>Node5&#45;&gt;Node8</title>
<path fill="none" stroke="midnightblue" d="M562.02,-352C572.57,-352 583.44,-352 594.2,-352"/>
<polygon fill="midnightblue" stroke="midnightblue" points="594.47,-355.5 604.47,-352 594.47,-348.5 594.47,-355.5"/>
</g>
<!-- Node9 -->
<g id="node9" class="node">
<title>Node9</title>
<g id="a_node9"><a xlink:href="Boundaries_8h.html#ac07befc354128d23bac8ed5f2612ffdf" target="_top" xlink:title="Assuming the current rank services the inlet face, this function selects a random cell (owned by this...">
<polygon fill="none" stroke="black" points="598,-298.5 598,-317.5 793,-317.5 793,-298.5 598,-298.5"/>
<text text-anchor="middle" x="695.5" y="-305.5" font-family="Helvetica,sans-Serif" font-size="10.00">GetRandomCellAndLogicOnInletFace</text>
</a>
</g>
</g>
<!-- Node5&#45;&gt;Node9 -->
<g id="edge8" class="edge">
<title>Node5&#45;&gt;Node9</title>
<path fill="none" stroke="midnightblue" d="M524.59,-342.45C557.71,-335.74 602.23,-326.71 637.39,-319.58"/>
<polygon fill="midnightblue" stroke="midnightblue" points="638.4,-322.95 647.51,-317.53 637.01,-316.09 638.4,-322.95"/>
</g>
<!-- Node10 -->
<g id="node10" class="node">
<title>Node10</title>
<g id="a_node10"><a xlink:href="Metric_8h.html#af0ba1966641e609476ac6fc3d5cdbbfc" target="_top" xlink:title="Public wrapper: map (cell index, ξ,η,ζ) to (x,y,z).">
<polygon fill="none" stroke="black" points="629,-260.5 629,-279.5 762,-279.5 762,-260.5 629,-260.5"/>
<text text-anchor="middle" x="695.5" y="-267.5" font-family="Helvetica,sans-Serif" font-size="10.00">MetricLogicalToPhysical</text>
</a>
</g>
</g>
<!-- Node5&#45;&gt;Node10 -->
<g id="edge10" class="edge">
<title>Node5&#45;&gt;Node10</title>
<path fill="none" stroke="midnightblue" d="M541.6,-342.41C548.77,-339.96 555.73,-336.87 562,-333 583.5,-319.73 576.32,-301.98 598,-289 604.45,-285.14 611.53,-282.04 618.83,-279.57"/>
<polygon fill="midnightblue" stroke="midnightblue" points="620.32,-282.77 628.9,-276.55 618.31,-276.07 620.32,-282.77"/>
</g>
<!-- Node7 -->
<g id="node7" class="node">
<title>Node7</title>
<g id="a_node7"><a xlink:href="setup_8h.html#a9b17552f79ebe16d0363986217a01ff3" target="_top" xlink:title="Determines the global starting index and number of CELLS owned by the current processor in a specifie...">
<polygon fill="none" stroke="black" points="832,-317.5 832,-336.5 949,-336.5 949,-317.5 832,-317.5"/>
<text text-anchor="middle" x="890.5" y="-324.5" font-family="Helvetica,sans-Serif" font-size="10.00">GetOwnedCellRange</text>
</a>
</g>
</g>
<!-- Node6&#45;&gt;Node7 -->
<g id="edge6" class="edge">
<title>Node6&#45;&gt;Node7</title>
<path fill="none" stroke="midnightblue" d="M758.71,-386.45C770.27,-383.92 782.12,-380.8 793,-377 819.02,-367.91 846.77,-352.91 865.8,-341.71"/>
<polygon fill="midnightblue" stroke="midnightblue" points="867.62,-344.7 874.4,-336.55 864.02,-338.69 867.62,-344.7"/>
</g>
<!-- Node9&#45;&gt;Node7 -->
<g id="edge9" class="edge">
<title>Node9&#45;&gt;Node7</title>
<path fill="none" stroke="midnightblue" d="M793.28,-317.53C802.85,-318.47 812.41,-319.41 821.6,-320.32"/>
<polygon fill="midnightblue" stroke="midnightblue" points="821.49,-323.82 831.78,-321.32 822.17,-316.86 821.49,-323.82"/>
</g>
<!-- Node11 -->
<g id="node11" class="node">
<title>Node11</title>
<g id="a_node11"><a xlink:href="Metric_8c.html#a4859ff8031c003e036eab9cf8fb351f6" target="_top" xlink:title="Extract the eight vertex coordinates of the hexahedral cell (i,j,k).">
<polygon fill="none" stroke="black" points="829,-279.5 829,-298.5 952,-298.5 952,-279.5 829,-279.5"/>
<text text-anchor="middle" x="890.5" y="-286.5" font-family="Helvetica,sans-Serif" font-size="10.00">MetricGetCellVertices</text>
</a>
</g>
</g>
<!-- Node10&#45;&gt;Node11 -->
<g id="edge11" class="edge">
<title>Node10&#45;&gt;Node11</title>
<path fill="none" stroke="midnightblue" d="M762.11,-276.46C780.37,-278.26 800.27,-280.22 818.81,-282.04"/>
<polygon fill="midnightblue" stroke="midnightblue" points="818.65,-285.54 828.94,-283.04 819.33,-278.58 818.65,-285.54"/>
</g>
<!-- Node12 -->
<g id="node12" class="node">
<title>Node12</title>
<g id="a_node12"><a xlink:href="Metric_8c.html#a379d85074cc67dd1230cecc94b9169aa" target="_top" xlink:title="Map logical coordinates to physical space using trilinear basis.">
<polygon fill="none" stroke="black" points="848.5,-241.5 848.5,-260.5 932.5,-260.5 932.5,-241.5 848.5,-241.5"/>
<text text-anchor="middle" x="890.5" y="-248.5" font-family="Helvetica,sans-Serif" font-size="10.00">TrilinearBlend</text>
</a>
</g>
</g>
<!-- Node10&#45;&gt;Node12 -->
<g id="edge12" class="edge">
<title>Node10&#45;&gt;Node12</title>
<path fill="none" stroke="midnightblue" d="M762.11,-263.54C786.96,-261.1 814.85,-258.35 838.2,-256.05"/>
<polygon fill="midnightblue" stroke="midnightblue" points="838.63,-259.53 848.23,-255.06 837.94,-252.56 838.63,-259.53"/>
</g>
<!-- Node14 -->
<g id="node14" class="node">
<title>Node14</title>
<g id="a_node14"><a xlink:href="ParticleSwarm_8c.html#a1cc0975a3eec2e2f817d0e3a09040620" target="_top" xlink:title="Distributes particles evenly across MPI processes, handling any remainders.">
<polygon fill="none" stroke="black" points="423,-304.5 423,-323.5 530,-323.5 530,-304.5 423,-304.5"/>
<text text-anchor="middle" x="476.5" y="-311.5" font-family="Helvetica,sans-Serif" font-size="10.00">DistributeParticles</text>
</a>
</g>
</g>
<!-- Node13&#45;&gt;Node14 -->
<g id="edge14" class="edge">
<title>Node13&#45;&gt;Node14</title>
<path fill="none" stroke="midnightblue" d="M291.58,-266.53C317.83,-274.57 356.74,-286.15 391,-295 400.61,-297.48 410.88,-299.95 420.83,-302.24"/>
<polygon fill="midnightblue" stroke="midnightblue" points="420.12,-305.67 430.64,-304.47 421.67,-298.84 420.12,-305.67"/>
</g>
<!-- Node15 -->
<g id="node15" class="node">
<title>Node15</title>
<g id="a_node15"><a xlink:href="logging_8h.html#a9585f583c260f40a73f2490914edc689" target="_top" xlink:title="Retrieves the current logging level from the environment variable LOG_LEVEL.">
<polygon fill="none" stroke="black" points="435.5,-266.5 435.5,-285.5 517.5,-285.5 517.5,-266.5 435.5,-266.5"/>
<text text-anchor="middle" x="476.5" y="-273.5" font-family="Helvetica,sans-Serif" font-size="10.00">get_log_level</text>
</a>
</g>
</g>
<!-- Node13&#45;&gt;Node15 -->
<g id="edge15" class="edge">
<title>Node13&#45;&gt;Node15</title>
<path fill="none" stroke="midnightblue" d="M319.61,-262.19C352.6,-265.11 393.38,-268.73 424.95,-271.52"/>
<polygon fill="midnightblue" stroke="midnightblue" points="425.01,-275.04 435.28,-272.44 425.63,-268.07 425.01,-275.04"/>
</g>
<!-- Node16 -->
<g id="node16" class="node">
<title>Node16</title>
<g id="a_node16"><a xlink:href="ParticleSwarm_8c.html#ac3566e0b51587686bc6c1366a67c44af" target="_top" xlink:title="Initializes the DMSwarm object within the UserCtx structure.">
<polygon fill="none" stroke="black" points="430.5,-228.5 430.5,-247.5 522.5,-247.5 522.5,-228.5 430.5,-228.5"/>
<text text-anchor="middle" x="476.5" y="-235.5" font-family="Helvetica,sans-Serif" font-size="10.00">InitializeSwarm</text>
</a>
</g>
</g>
<!-- Node13&#45;&gt;Node16 -->
<g id="edge16" class="edge">
<title>Node13&#45;&gt;Node16</title>
<path fill="none" stroke="midnightblue" d="M319.61,-251.81C350.93,-249.03 389.26,-245.64 420.08,-242.91"/>
<polygon fill="midnightblue" stroke="midnightblue" points="420.57,-246.38 430.22,-242.01 419.95,-239.41 420.57,-246.38"/>
</g>
<!-- Node17 -->
<g id="node17" class="node">
<title>Node17</title>
<g id="a_node17"><a xlink:href="logging_8h.html#a2358badbcda33fc9d80ebd6a59d2a2cd" target="_top" xlink:title="Checks if a given function is in the allow&#45;list.">
<polygon fill="none" stroke="black" points="420,-190.5 420,-209.5 533,-209.5 533,-190.5 420,-190.5"/>
<text text-anchor="middle" x="476.5" y="-197.5" font-family="Helvetica,sans-Serif" font-size="10.00">is_function_allowed</text>
</a>
</g>
</g>
<!-- Node13&#45;&gt;Node17 -->
<g id="edge17" class="edge">
<title>Node13&#45;&gt;Node17</title>
<path fill="none" stroke="midnightblue" d="M319.88,-247.79C331.68,-245.2 343.87,-241.97 355,-238 372.04,-231.92 374.03,-225.26 391,-219 398.06,-216.39 405.59,-214.08 413.14,-212.05"/>
<polygon fill="midnightblue" stroke="midnightblue" points="414.21,-215.39 423.03,-209.53 412.48,-208.6 414.21,-215.39"/>
</g>
<!-- Node18 -->
<g id="node18" class="node">
<title>Node18</title>
<g id="a_node18"><a xlink:href="ParticleSwarm_8c.html#aeae3fd559e91d7379302acb6ccd13011" target="_top" xlink:title="Registers necessary particle fields within the DMSwarm.">
<polygon fill="none" stroke="black" points="415.5,-152.5 415.5,-171.5 537.5,-171.5 537.5,-152.5 415.5,-152.5"/>
<text text-anchor="middle" x="476.5" y="-159.5" font-family="Helvetica,sans-Serif" font-size="10.00">RegisterParticleFields</text>
</a>
</g>
</g>
<!-- Node13&#45;&gt;Node18 -->
<g id="edge18" class="edge">
<title>Node13&#45;&gt;Node18</title>
<path fill="none" stroke="midnightblue" d="M319.61,-252.68C332.06,-249.77 344.58,-245.18 355,-238 379.67,-221 366.52,-198.27 391,-181 395.53,-177.8 400.51,-175.13 405.71,-172.91"/>
<polygon fill="midnightblue" stroke="midnightblue" points="407.12,-176.12 415.27,-169.35 404.68,-169.56 407.12,-176.12"/>
</g>
<!-- Node19 -->
<g id="node19" class="node">
<title>Node19</title>
<g id="a_node19"><a xlink:href="ParticleSwarm_8c.html#a1b5741b17ffa7a57d8c1f6636e956d08" target="_top" xlink:title="Registers a swarm field without finalizing registration.">
<polygon fill="none" stroke="black" points="639,-152.5 639,-171.5 752,-171.5 752,-152.5 639,-152.5"/>
<text text-anchor="middle" x="695.5" y="-159.5" font-family="Helvetica,sans-Serif" font-size="10.00">RegisterSwarmField</text>
</a>
</g>
</g>
<!-- Node18&#45;&gt;Node19 -->
<g id="edge19" class="edge">
<title>Node18&#45;&gt;Node19</title>
<path fill="none" stroke="midnightblue" d="M537.66,-162C565.93,-162 599.71,-162 628.67,-162"/>
<polygon fill="midnightblue" stroke="midnightblue" points="628.69,-165.5 638.69,-162 628.69,-158.5 628.69,-165.5"/>
</g>
<!-- Node24 -->
<g id="node24" class="node">
<title>Node24</title>
<g id="a_node24"><a xlink:href="ParticleMotion_8c.html#a38b5e7348bc556d505e2c4b31c29b086" target="_top" xlink:title=" ">
<polygon fill="none" stroke="black" points="415,-95.5 415,-114.5 538,-114.5 538,-95.5 415,-95.5"/>
<text text-anchor="middle" x="476.5" y="-102.5" font-family="Helvetica,sans-Serif" font-size="10.00">ResizeSwarmGlobally</text>
</a>
</g>
</g>
<!-- Node23&#45;&gt;Node24 -->
<g id="edge24" class="edge">
<title>Node23&#45;&gt;Node24</title>
<path fill="none" stroke="midnightblue" d="M333.62,-105C356.49,-105 381.72,-105 404.47,-105"/>
<polygon fill="midnightblue" stroke="midnightblue" points="404.74,-108.5 414.74,-105 404.74,-101.5 404.74,-108.5"/>
</g>
<!-- Node27 -->
<g id="node27" class="node">
<title>Node27</title>
<g id="a_node27"><a xlink:href="io_8c.html#ab7d7097c8ad047feb1d460e4694b8b4f" target="_top" xlink:title="Checks for a data file&#39;s existence in a parallel&#45;safe manner.">
<polygon fill="none" stroke="black" points="433.5,-38.5 433.5,-57.5 519.5,-57.5 519.5,-38.5 433.5,-38.5"/>
<text text-anchor="middle" x="476.5" y="-45.5" font-family="Helvetica,sans-Serif" font-size="10.00">CheckDataFile</text>
</a>
</g>
</g>
<!-- Node26&#45;&gt;Node27 -->
<g id="edge27" class="edge">
<title>Node26&#45;&gt;Node27</title>
<path fill="none" stroke="midnightblue" d="M318.2,-34.07C350.9,-36.96 391.6,-40.57 423.41,-43.39"/>
<polygon fill="midnightblue" stroke="midnightblue" points="423.13,-46.88 433.4,-44.27 423.75,-39.9 423.13,-46.88"/>
</g>
<!-- Node28 -->
<g id="node28" class="node">
<title>Node28</title>
<g id="a_node28"><a xlink:href="io_8c.html#a84fff45b8cbd148ed2429ba8fe12428f" target="_top" xlink:title="Reads data from a file into a specified field of a PETSc DMSwarm.">
<polygon fill="none" stroke="black" points="427.5,-0.5 427.5,-19.5 525.5,-19.5 525.5,-0.5 427.5,-0.5"/>
<text text-anchor="middle" x="476.5" y="-7.5" font-family="Helvetica,sans-Serif" font-size="10.00">ReadSwarmField</text>
</a>
</g>
</g>
<!-- Node26&#45;&gt;Node28 -->
<g id="edge28" class="edge">
<title>Node26&#45;&gt;Node28</title>
<path fill="none" stroke="midnightblue" d="M318.2,-23.93C348.75,-21.23 386.29,-17.9 417.03,-15.18"/>
<polygon fill="midnightblue" stroke="midnightblue" points="417.52,-18.65 427.18,-14.28 416.91,-11.68 417.52,-18.65"/>
</g>
<!-- Node29 -->
<g id="node29" class="node">
<title>Node29</title>
<g id="a_node29"><a xlink:href="io_8c.html#a570806d7e0694b5d996e0c6018b48908" target="_top" xlink:title="Reads data for a specific field from a file into the provided vector.">
<polygon fill="none" stroke="black" points="652,-0.5 652,-19.5 739,-19.5 739,-0.5 652,-0.5"/>
<text text-anchor="middle" x="695.5" y="-7.5" font-family="Helvetica,sans-Serif" font-size="10.00">ReadFieldData</text>
</a>
</g>
</g>
<!-- Node28&#45;&gt;Node29 -->
<g id="edge29" class="edge">
<title>Node28&#45;&gt;Node29</title>
<path fill="none" stroke="midnightblue" d="M525.66,-10C560.09,-10 606.42,-10 641.83,-10"/>
<polygon fill="midnightblue" stroke="midnightblue" points="641.98,-13.5 651.98,-10 641.98,-6.5 641.98,-13.5"/>
</g>
</g>
</svg>
        <g id="navigator" transform="translate(0 0)" fill="#404254">
                <rect fill="#f2f5e9" fill-opacity="0.5" stroke="#606060" stroke-width=".5" x="0" y="0" width="60" height="60"/>
                <use id="zoomplus" xlink:href="#zoomPlus" x="17" y="9" onmousedown="handleZoom(evt,'in')"/>
                <use id="zoomminus" xlink:href="#zoomMin" x="42" y="9" onmousedown="handleZoom(evt,'out')"/>
                <use id="reset" xlink:href="#resetDef" x="30" y="36" onmousedown="handleReset()"/>
                <g id="arrowUp" xlink:href="#dirArrow" transform="translate(30 24)" onmousedown="handlePan(0,-1)">
                  <use xlink:href="#rim" fill="#404040">
                        <set attributeName="fill" to="#808080" begin="arrowUp.mouseover" end="arrowUp.mouseout"/>
                  </use>
                  <path fill="none" stroke="white" stroke-width="1.5" d="M0,-3.0v7 M-2.5,-0.5L0,-3.0L2.5,-0.5"/>
                </g>
                <g id="arrowRight" xlink:href="#dirArrow" transform="rotate(90) translate(36 -43)" onmousedown="handlePan(1,0)">
                  <use xlink:href="#rim" fill="#404040">
                        <set attributeName="fill" to="#808080" begin="arrowRight.mouseover" end="arrowRight.mouseout"/>
                  </use>
                  <path fill="none" stroke="white" stroke-width="1.5" d="M0,-3.0v7 M-2.5,-0.5L0,-3.0L2.5,-0.5"/>
                </g>
                <g id="arrowDown" xlink:href="#dirArrow" transform="rotate(180) translate(-30 -48)" onmousedown="handlePan(0,1)">
                  <use xlink:href="#rim" fill="#404040">
                        <set attributeName="fill" to="#808080" begin="arrowDown.mouseover" end="arrowDown.mouseout"/>
                  </use>
                  <path fill="none" stroke="white" stroke-width="1.5" d="M0,-3.0v7 M-2.5,-0.5L0,-3.0L2.5,-0.5"/>
                </g>
                <g id="arrowLeft" xlink:href="#dirArrow" transform="rotate(270) translate(-36 17)" onmousedown="handlePan(-1,0)">
                  <use xlink:href="#rim" fill="#404040">
                        <set attributeName="fill" to="#808080" begin="arrowLeft.mouseover" end="arrowLeft.mouseout"/>
                  </use>
                  <path fill="none" stroke="white" stroke-width="1.5" d="M0,-3.0v7 M-2.5,-0.5L0,-3.0L2.5,-0.5"/>
                </g>
        </g>
        <svg viewBox="0 0 15 15" width="100%" height="30px" preserveAspectRatio="xMaxYMin meet">
         <g id="arrow_out" transform="scale(0.3 0.3)">
          <a xlink:href="ParticleSwarm_8h_ada215a5db25227a8fd2cd2596e7d3e57_cgraph_org.svg" target="_base">
           <rect id="button" ry="5" rx="5" y="6" x="6" height="38" width="38"
                fill="#f2f5e9" fill-opacity="0.5" stroke="#606060" stroke-width="1.0"/>
           <path id="arrow"
             d="M 11.500037,31.436501 C 11.940474,20.09759 22.043105,11.32322 32.158766,21.979434 L 37.068811,17.246167 C 37.068811,17.246167 37.088388,32 37.088388,32 L 22.160133,31.978069 C 22.160133,31.978069 26.997745,27.140456 26.997745,27.140456 C 18.528582,18.264221 13.291696,25.230495 11.500037,31.436501 z"
             style="fill:#404040;"/>
          </a>
         </g>
        </svg>
</svg>
