<?xml version="1.0" encoding="UTF-8" standalone="no"?>
<!DOCTYPE svg PUBLIC "-//W3C//DTD SVG 1.1//EN"
 "http://www.w3.org/Graphics/SVG/1.1/DTD/svg11.dtd">
<!-- Generated by graphviz version 2.43.0 (0)
 -->
<!-- Title: GhostNodeVelocity Pages: 1 -->
<svg width="407pt" height="72pt"
 viewBox="0.00 0.00 407.00 71.50" xmlns="http://www.w3.org/2000/svg" xmlns:xlink="http://www.w3.org/1999/xlink">
<g id="graph0" class="graph" transform="scale(1 1) rotate(0) translate(4 67.5)">
<title>GhostNodeVelocity</title>
<!-- Node1 -->
<g id="node1" class="node">
<title>Node1</title>
<g id="a_node1"><a xlink:title=" ">
<polygon fill="#bfbfbf" stroke="black" points="0,-19.5 0,-38.5 110,-38.5 110,-19.5 0,-19.5"/>
<text text-anchor="middle" x="55" y="-26.5" font-family="Helvetica,sans-Serif" font-size="10.00">GhostNodeVelocity</text>
</a>
</g>
</g>
<!-- Node2 -->
<g id="node2" class="node">
<title>Node2</title>
<g id="a_node2"><a xlink:href="poisson_8c.html#aa52d855d542bca0968fd51febf43adc0" target="_top" xlink:title=" ">
<polygon fill="none" stroke="black" points="146,-38.5 146,-57.5 248,-57.5 248,-38.5 146,-38.5"/>
<text text-anchor="middle" x="197" y="-45.5" font-family="Helvetica,sans-Serif" font-size="10.00">Calculate_normal</text>
</a>
</g>
</g>
<!-- Node1&#45;&gt;Node2 -->
<g id="edge1" class="edge">
<title>Node1&#45;&gt;Node2</title>
<path fill="none" stroke="midnightblue" d="M110.13,-36.35C118.44,-37.47 127.07,-38.65 135.52,-39.79"/>
<polygon fill="midnightblue" stroke="midnightblue" points="135.31,-43.29 145.69,-41.17 136.25,-36.36 135.31,-43.29"/>
</g>
<!-- Node4 -->
<g id="node4" class="node">
<title>Node4</title>
<g id="a_node4"><a xlink:href="variables__old_8h.html#a74ed1b371c557b826d503a1627351eec" target="_top" xlink:title=" ">
<polygon fill="none" stroke="black" points="156,-0.5 156,-19.5 238,-19.5 238,-0.5 156,-0.5"/>
<text text-anchor="middle" x="197" y="-7.5" font-family="Helvetica,sans-Serif" font-size="10.00">wall_function</text>
</a>
</g>
</g>
<!-- Node1&#45;&gt;Node4 -->
<g id="edge3" class="edge">
<title>Node1&#45;&gt;Node4</title>
<path fill="none" stroke="midnightblue" d="M110.13,-21.65C121.91,-20.05 134.33,-18.37 145.95,-16.79"/>
<polygon fill="midnightblue" stroke="midnightblue" points="146.47,-20.25 155.91,-15.44 145.53,-13.32 146.47,-20.25"/>
</g>
<!-- Node3 -->
<g id="node3" class="node">
<title>Node3</title>
<g id="a_node3"><a xlink:href="poisson_8c.html#a932a672b919024b4d158a3b3ba569ac5" target="_top" xlink:title=" ">
<polygon fill="none" stroke="black" points="284,-33 284,-63 399,-63 399,-33 284,-33"/>
<text text-anchor="start" x="292" y="-51" font-family="Helvetica,sans-Serif" font-size="10.00">Calculate_Covariant</text>
<text text-anchor="middle" x="341.5" y="-40" font-family="Helvetica,sans-Serif" font-size="10.00">_metrics</text>
</a>
</g>
</g>
<!-- Node2&#45;&gt;Node3 -->
<g id="edge2" class="edge">
<title>Node2&#45;&gt;Node3</title>
<path fill="none" stroke="midnightblue" d="M248.24,-48C256.53,-48 265.24,-48 273.86,-48"/>
<polygon fill="midnightblue" stroke="midnightblue" points="273.91,-51.5 283.91,-48 273.91,-44.5 273.91,-51.5"/>
</g>
</g>
</svg>
