<?xml version="1.0" encoding="UTF-8" standalone="no"?>
<!DOCTYPE svg PUBLIC "-//W3C//DTD SVG 1.1//EN"
 "http://www.w3.org/Graphics/SVG/1.1/DTD/svg11.dtd">
<!-- Generated by graphviz version 2.43.0 (0)
 -->
<!-- Title: PoissonSolver_MG Pages: 1 -->
<svg width="451pt" height="28pt"
 viewBox="0.00 0.00 451.00 28.00" xmlns="http://www.w3.org/2000/svg" xmlns:xlink="http://www.w3.org/1999/xlink">
<g id="graph0" class="graph" transform="scale(1 1) rotate(0) translate(4 24)">
<title>PoissonSolver_MG</title>
<!-- Node1 -->
<g id="node1" class="node">
<title>Node1</title>
<g id="a_node1"><a xlink:title="Solves the pressure&#45;Poisson equation using a geometric multigrid method.">
<polygon fill="#bfbfbf" stroke="black" points="336,-0.5 336,-19.5 443,-19.5 443,-0.5 336,-0.5"/>
<text text-anchor="middle" x="389.5" y="-7.5" font-family="Helvetica,sans-Serif" font-size="10.00">PoissonSolver_MG</text>
</a>
</g>
</g>
<!-- Node2 -->
<g id="node2" class="node">
<title>Node2</title>
<g id="a_node2"><a xlink:href="solvers_8c.html#a2ed4825273a593f371a3d48071708255" target="_top" xlink:title="Orchestrates a single time step of the Eulerian fluid solver.">
<polygon fill="none" stroke="black" points="224,-0.5 224,-19.5 300,-19.5 300,-0.5 224,-0.5"/>
<text text-anchor="middle" x="262" y="-7.5" font-family="Helvetica,sans-Serif" font-size="10.00">Flow_Solver</text>
</a>
</g>
</g>
<!-- Node1&#45;&gt;Node2 -->
<g id="edge1" class="edge">
<title>Node1&#45;&gt;Node2</title>
<path fill="none" stroke="midnightblue" d="M325.5,-10C316.84,-10 308.18,-10 300.18,-10"/>
<polygon fill="midnightblue" stroke="midnightblue" points="325.64,-13.5 335.64,-10 325.64,-6.5 325.64,-13.5"/>
</g>
<!-- Node3 -->
<g id="node3" class="node">
<title>Node3</title>
<g id="a_node3"><a xlink:href="simulation_8c.html#a5cfb2f783604af7f20171d19f969d5d3" target="_top" xlink:title="Executes the main time&#45;marching loop for the coupled Euler&#45;Lagrange simulation.">
<polygon fill="none" stroke="black" points="77,-0.5 77,-19.5 188,-19.5 188,-0.5 77,-0.5"/>
<text text-anchor="middle" x="132.5" y="-7.5" font-family="Helvetica,sans-Serif" font-size="10.00">AdvanceSimulation</text>
</a>
</g>
</g>
<!-- Node2&#45;&gt;Node3 -->
<g id="edge2" class="edge">
<title>Node2&#45;&gt;Node3</title>
<path fill="none" stroke="midnightblue" d="M213.53,-10C205.23,-10 196.53,-10 188.06,-10"/>
<polygon fill="midnightblue" stroke="midnightblue" points="213.78,-13.5 223.78,-10 213.78,-6.5 213.78,-13.5"/>
</g>
<!-- Node4 -->
<g id="node4" class="node">
<title>Node4</title>
<g id="a_node4"><a xlink:href="picsolver_8c.html#a3c04138a5bfe5d72780bb7e82a18e627" target="_top" xlink:title=" ">
<polygon fill="none" stroke="black" points="0,-0.5 0,-19.5 41,-19.5 41,-0.5 0,-0.5"/>
<text text-anchor="middle" x="20.5" y="-7.5" font-family="Helvetica,sans-Serif" font-size="10.00">main</text>
</a>
</g>
</g>
<!-- Node3&#45;&gt;Node4 -->
<g id="edge3" class="edge">
<title>Node3&#45;&gt;Node4</title>
<path fill="none" stroke="midnightblue" d="M66.64,-10C57.35,-10 48.45,-10 41.05,-10"/>
<polygon fill="midnightblue" stroke="midnightblue" points="66.82,-13.5 76.82,-10 66.82,-6.5 66.82,-13.5"/>
</g>
</g>
</svg>
