<?xml version="1.0" encoding="UTF-8" standalone="no"?>
<!DOCTYPE svg PUBLIC "-//W3C//DTD SVG 1.1//EN"
 "http://www.w3.org/Graphics/SVG/1.1/DTD/svg11.dtd">
<!-- Generated by graphviz version 2.43.0 (0)
 -->
<!-- Title: Calculate_Covariant_metrics Pages: 1 -->
<svg width="844pt" height="39pt"
 viewBox="0.00 0.00 844.00 39.00" xmlns="http://www.w3.org/2000/svg" xmlns:xlink="http://www.w3.org/1999/xlink">
<g id="graph0" class="graph" transform="scale(1 1) rotate(0) translate(4 35)">
<title>Calculate_Covariant_metrics</title>
<!-- Node1 -->
<g id="node1" class="node">
<title>Node1</title>
<g id="a_node1"><a xlink:title=" ">
<polygon fill="#bfbfbf" stroke="black" points="721,-0.5 721,-30.5 836,-30.5 836,-0.5 721,-0.5"/>
<text text-anchor="start" x="729" y="-18.5" font-family="Helvetica,sans-Serif" font-size="10.00">Calculate_Covariant</text>
<text text-anchor="middle" x="778.5" y="-7.5" font-family="Helvetica,sans-Serif" font-size="10.00">_metrics</text>
</a>
</g>
</g>
<!-- Node2 -->
<g id="node2" class="node">
<title>Node2</title>
<g id="a_node2"><a xlink:href="poisson_8c.html#aa52d855d542bca0968fd51febf43adc0" target="_top" xlink:title=" ">
<polygon fill="none" stroke="black" points="583,-6 583,-25 685,-25 685,-6 583,-6"/>
<text text-anchor="middle" x="634" y="-13" font-family="Helvetica,sans-Serif" font-size="10.00">Calculate_normal</text>
</a>
</g>
</g>
<!-- Node1&#45;&gt;Node2 -->
<g id="edge1" class="edge">
<title>Node1&#45;&gt;Node2</title>
<path fill="none" stroke="midnightblue" d="M710.72,-15.5C702.09,-15.5 693.38,-15.5 685.08,-15.5"/>
<polygon fill="midnightblue" stroke="midnightblue" points="710.77,-19 720.77,-15.5 710.77,-12 710.77,-19"/>
</g>
<!-- Node3 -->
<g id="node3" class="node">
<title>Node3</title>
<g id="a_node3"><a xlink:href="poisson_8c.html#a6046e36e2334fa29a86d652a0b8f0593" target="_top" xlink:title=" ">
<polygon fill="none" stroke="black" points="437,-6 437,-25 547,-25 547,-6 437,-6"/>
<text text-anchor="middle" x="492" y="-13" font-family="Helvetica,sans-Serif" font-size="10.00">GhostNodeVelocity</text>
</a>
</g>
</g>
<!-- Node2&#45;&gt;Node3 -->
<g id="edge2" class="edge">
<title>Node2&#45;&gt;Node3</title>
<path fill="none" stroke="midnightblue" d="M572.62,-15.5C564.12,-15.5 555.43,-15.5 547.06,-15.5"/>
<polygon fill="midnightblue" stroke="midnightblue" points="572.85,-19 582.85,-15.5 572.85,-12 572.85,-19"/>
</g>
<!-- Node4 -->
<g id="node4" class="node">
<title>Node4</title>
<g id="a_node4"><a xlink:href="poisson_8c.html#a34a113dcc9ca606d914c3d021a4d85fc" target="_top" xlink:title="Performs the projection step to enforce an incompressible velocity field.">
<polygon fill="none" stroke="black" points="336,-6 336,-25 401,-25 401,-6 336,-6"/>
<text text-anchor="middle" x="368.5" y="-13" font-family="Helvetica,sans-Serif" font-size="10.00">Projection</text>
</a>
</g>
</g>
<!-- Node3&#45;&gt;Node4 -->
<g id="edge3" class="edge">
<title>Node3&#45;&gt;Node4</title>
<path fill="none" stroke="midnightblue" d="M426.37,-15.5C417.63,-15.5 408.99,-15.5 401.18,-15.5"/>
<polygon fill="midnightblue" stroke="midnightblue" points="426.65,-19 436.65,-15.5 426.65,-12 426.65,-19"/>
</g>
<!-- Node5 -->
<g id="node5" class="node">
<title>Node5</title>
<g id="a_node5"><a xlink:href="solvers_8c.html#a2ed4825273a593f371a3d48071708255" target="_top" xlink:title="Orchestrates a single time step of the Eulerian fluid solver.">
<polygon fill="none" stroke="black" points="224,-6 224,-25 300,-25 300,-6 224,-6"/>
<text text-anchor="middle" x="262" y="-13" font-family="Helvetica,sans-Serif" font-size="10.00">Flow_Solver</text>
</a>
</g>
</g>
<!-- Node4&#45;&gt;Node5 -->
<g id="edge4" class="edge">
<title>Node4&#45;&gt;Node5</title>
<path fill="none" stroke="midnightblue" d="M325.75,-15.5C317.25,-15.5 308.36,-15.5 300.04,-15.5"/>
<polygon fill="midnightblue" stroke="midnightblue" points="325.86,-19 335.86,-15.5 325.86,-12 325.86,-19"/>
</g>
<!-- Node6 -->
<g id="node6" class="node">
<title>Node6</title>
<g id="a_node6"><a xlink:href="simulation_8c.html#a5cfb2f783604af7f20171d19f969d5d3" target="_top" xlink:title="Executes the main time&#45;marching loop for the coupled Euler&#45;Lagrange simulation.">
<polygon fill="none" stroke="black" points="77,-6 77,-25 188,-25 188,-6 77,-6"/>
<text text-anchor="middle" x="132.5" y="-13" font-family="Helvetica,sans-Serif" font-size="10.00">AdvanceSimulation</text>
</a>
</g>
</g>
<!-- Node5&#45;&gt;Node6 -->
<g id="edge5" class="edge">
<title>Node5&#45;&gt;Node6</title>
<path fill="none" stroke="midnightblue" d="M213.53,-15.5C205.23,-15.5 196.53,-15.5 188.06,-15.5"/>
<polygon fill="midnightblue" stroke="midnightblue" points="213.78,-19 223.78,-15.5 213.78,-12 213.78,-19"/>
</g>
<!-- Node7 -->
<g id="node7" class="node">
<title>Node7</title>
<g id="a_node7"><a xlink:href="picsolver_8c.html#a3c04138a5bfe5d72780bb7e82a18e627" target="_top" xlink:title=" ">
<polygon fill="none" stroke="black" points="0,-6 0,-25 41,-25 41,-6 0,-6"/>
<text text-anchor="middle" x="20.5" y="-13" font-family="Helvetica,sans-Serif" font-size="10.00">main</text>
</a>
</g>
</g>
<!-- Node6&#45;&gt;Node7 -->
<g id="edge6" class="edge">
<title>Node6&#45;&gt;Node7</title>
<path fill="none" stroke="midnightblue" d="M66.64,-15.5C57.35,-15.5 48.45,-15.5 41.05,-15.5"/>
<polygon fill="midnightblue" stroke="midnightblue" points="66.82,-19 76.82,-15.5 66.82,-12 66.82,-19"/>
</g>
</g>
</svg>
