<?xml version="1.0" encoding="UTF-8" standalone="no"?>
<!DOCTYPE svg PUBLIC "-//W3C//DTD SVG 1.1//EN"
 "http://www.w3.org/Graphics/SVG/1.1/DTD/svg11.dtd">
<!-- Generated by graphviz version 2.43.0 (0)
 -->
<!-- Title: GridRestriction Pages: 1 -->
<svg width="768pt" height="104pt"
 viewBox="0.00 0.00 768.00 104.00" xmlns="http://www.w3.org/2000/svg" xmlns:xlink="http://www.w3.org/1999/xlink">
<g id="graph0" class="graph" transform="scale(1 1) rotate(0) translate(4 100)">
<title>GridRestriction</title>
<!-- Node1 -->
<g id="node1" class="node">
<title>Node1</title>
<g id="a_node1"><a xlink:title=" ">
<polygon fill="#bfbfbf" stroke="black" points="671,-38.5 671,-57.5 760,-57.5 760,-38.5 671,-38.5"/>
<text text-anchor="middle" x="715.5" y="-45.5" font-family="Helvetica,sans-Serif" font-size="10.00">GridRestriction</text>
</a>
</g>
</g>
<!-- Node2 -->
<g id="node2" class="node">
<title>Node2</title>
<g id="a_node2"><a xlink:href="poisson_8c.html#a0f0addfc422c642ad5eb5315ace4ff2f" target="_top" xlink:title=" ">
<polygon fill="none" stroke="black" points="501.5,-76.5 501.5,-95.5 612.5,-95.5 612.5,-76.5 501.5,-76.5"/>
<text text-anchor="middle" x="557" y="-83.5" font-family="Helvetica,sans-Serif" font-size="10.00">MyNvertRestriction</text>
</a>
</g>
</g>
<!-- Node1&#45;&gt;Node2 -->
<g id="edge1" class="edge">
<title>Node1&#45;&gt;Node2</title>
<path fill="none" stroke="midnightblue" d="M665.21,-59.97C643.28,-65.29 617.82,-71.48 597.21,-76.48"/>
<polygon fill="midnightblue" stroke="midnightblue" points="666.12,-63.35 675.01,-57.59 664.46,-56.55 666.12,-63.35"/>
</g>
<!-- Node7 -->
<g id="node7" class="node">
<title>Node7</title>
<g id="a_node7"><a xlink:href="poisson_8c.html#a5fa351d4c691fef0d76cedf5cc5cbb72" target="_top" xlink:title="The callback function for the multigrid restriction operator (MatShell).">
<polygon fill="none" stroke="black" points="515,-38.5 515,-57.5 599,-57.5 599,-38.5 515,-38.5"/>
<text text-anchor="middle" x="557" y="-45.5" font-family="Helvetica,sans-Serif" font-size="10.00">MyRestriction</text>
</a>
</g>
</g>
<!-- Node1&#45;&gt;Node7 -->
<g id="edge6" class="edge">
<title>Node1&#45;&gt;Node7</title>
<path fill="none" stroke="midnightblue" d="M660.64,-48C640.52,-48 618.01,-48 599.21,-48"/>
<polygon fill="midnightblue" stroke="midnightblue" points="660.91,-51.5 670.91,-48 660.91,-44.5 660.91,-51.5"/>
</g>
<!-- Node8 -->
<g id="node8" class="node">
<title>Node8</title>
<g id="a_node8"><a xlink:href="poisson_8c.html#a85e1eff3b6e34605b863323d6336eecd" target="_top" xlink:title=" ">
<polygon fill="none" stroke="black" points="479,-0.5 479,-19.5 635,-19.5 635,-0.5 479,-0.5"/>
<text text-anchor="middle" x="557" y="-7.5" font-family="Helvetica,sans-Serif" font-size="10.00">RestrictResidual_SolidAware</text>
</a>
</g>
</g>
<!-- Node1&#45;&gt;Node8 -->
<g id="edge7" class="edge">
<title>Node1&#45;&gt;Node8</title>
<path fill="none" stroke="midnightblue" d="M665.21,-36.03C643.28,-30.71 617.82,-24.52 597.21,-19.52"/>
<polygon fill="midnightblue" stroke="midnightblue" points="664.46,-39.45 675.01,-38.41 666.12,-32.65 664.46,-39.45"/>
</g>
<!-- Node3 -->
<g id="node3" class="node">
<title>Node3</title>
<g id="a_node3"><a xlink:href="poisson_8c.html#acfdf6d56006b1b5f68d400deb6cf0959" target="_top" xlink:title="Solves the pressure&#45;Poisson equation using a geometric multigrid method.">
<polygon fill="none" stroke="black" points="336,-38.5 336,-57.5 443,-57.5 443,-38.5 336,-38.5"/>
<text text-anchor="middle" x="389.5" y="-45.5" font-family="Helvetica,sans-Serif" font-size="10.00">PoissonSolver_MG</text>
</a>
</g>
</g>
<!-- Node2&#45;&gt;Node3 -->
<g id="edge2" class="edge">
<title>Node2&#45;&gt;Node3</title>
<path fill="none" stroke="midnightblue" d="M504.19,-74.1C480.93,-68.76 453.85,-62.55 431.96,-57.52"/>
<polygon fill="midnightblue" stroke="midnightblue" points="503.71,-77.58 514.24,-76.41 505.27,-70.76 503.71,-77.58"/>
</g>
<!-- Node4 -->
<g id="node4" class="node">
<title>Node4</title>
<g id="a_node4"><a xlink:href="solvers_8c.html#a2ed4825273a593f371a3d48071708255" target="_top" xlink:title="Orchestrates a single time step of the Eulerian fluid solver.">
<polygon fill="none" stroke="black" points="224,-38.5 224,-57.5 300,-57.5 300,-38.5 224,-38.5"/>
<text text-anchor="middle" x="262" y="-45.5" font-family="Helvetica,sans-Serif" font-size="10.00">Flow_Solver</text>
</a>
</g>
</g>
<!-- Node3&#45;&gt;Node4 -->
<g id="edge3" class="edge">
<title>Node3&#45;&gt;Node4</title>
<path fill="none" stroke="midnightblue" d="M325.5,-48C316.84,-48 308.18,-48 300.18,-48"/>
<polygon fill="midnightblue" stroke="midnightblue" points="325.64,-51.5 335.64,-48 325.64,-44.5 325.64,-51.5"/>
</g>
<!-- Node5 -->
<g id="node5" class="node">
<title>Node5</title>
<g id="a_node5"><a xlink:href="simulation_8c.html#a5cfb2f783604af7f20171d19f969d5d3" target="_top" xlink:title="Executes the main time&#45;marching loop for the coupled Euler&#45;Lagrange simulation.">
<polygon fill="none" stroke="black" points="77,-38.5 77,-57.5 188,-57.5 188,-38.5 77,-38.5"/>
<text text-anchor="middle" x="132.5" y="-45.5" font-family="Helvetica,sans-Serif" font-size="10.00">AdvanceSimulation</text>
</a>
</g>
</g>
<!-- Node4&#45;&gt;Node5 -->
<g id="edge4" class="edge">
<title>Node4&#45;&gt;Node5</title>
<path fill="none" stroke="midnightblue" d="M213.53,-48C205.23,-48 196.53,-48 188.06,-48"/>
<polygon fill="midnightblue" stroke="midnightblue" points="213.78,-51.5 223.78,-48 213.78,-44.5 213.78,-51.5"/>
</g>
<!-- Node6 -->
<g id="node6" class="node">
<title>Node6</title>
<g id="a_node6"><a xlink:href="picsolver_8c.html#a3c04138a5bfe5d72780bb7e82a18e627" target="_top" xlink:title=" ">
<polygon fill="none" stroke="black" points="0,-38.5 0,-57.5 41,-57.5 41,-38.5 0,-38.5"/>
<text text-anchor="middle" x="20.5" y="-45.5" font-family="Helvetica,sans-Serif" font-size="10.00">main</text>
</a>
</g>
</g>
<!-- Node5&#45;&gt;Node6 -->
<g id="edge5" class="edge">
<title>Node5&#45;&gt;Node6</title>
<path fill="none" stroke="midnightblue" d="M66.64,-48C57.35,-48 48.45,-48 41.05,-48"/>
<polygon fill="midnightblue" stroke="midnightblue" points="66.82,-51.5 76.82,-48 66.82,-44.5 66.82,-51.5"/>
</g>
<!-- Node8&#45;&gt;Node3 -->
<g id="edge8" class="edge">
<title>Node8&#45;&gt;Node3</title>
<path fill="none" stroke="midnightblue" d="M504.19,-21.9C480.93,-27.24 453.85,-33.45 431.96,-38.48"/>
<polygon fill="midnightblue" stroke="midnightblue" points="505.27,-25.24 514.24,-19.59 503.71,-18.42 505.27,-25.24"/>
</g>
</g>
</svg>
