<?xml version="1.0" encoding="UTF-8" standalone="no"?>
<!DOCTYPE svg PUBLIC "-//W3C//DTD SVG 1.1//EN"
 "http://www.w3.org/Graphics/SVG/1.1/DTD/svg11.dtd">
<!-- Generated by graphviz version 2.43.0 (0)
 -->
<!-- Title: postprocess.h Pages: 1 -->
<svg width="2630pt" height="700pt"
 viewBox="0.00 0.00 2630.00 700.00" xmlns="http://www.w3.org/2000/svg" xmlns:xlink="http://www.w3.org/1999/xlink">
<g id="graph0" class="graph" transform="scale(1 1) rotate(0) translate(4 696)">
<title>postprocess.h</title>
<!-- Node1 -->
<g id="node1" class="node">
<title>Node1</title>
<g id="a_node1"><a xlink:title=" ">
<polygon fill="#bfbfbf" stroke="black" points="1692,-672.5 1692,-691.5 1776,-691.5 1776,-672.5 1692,-672.5"/>
<text text-anchor="middle" x="1734" y="-679.5" font-family="Helvetica,sans-Serif" font-size="10.00">postprocess.h</text>
</a>
</g>
</g>
<!-- Node2 -->
<g id="node2" class="node">
<title>Node2</title>
<g id="a_node2"><a xlink:href="io_8h.html" target="_top" xlink:title="Public interface for data input/output routines.">
<polygon fill="none" stroke="black" points="1631.5,-616.5 1631.5,-635.5 1666.5,-635.5 1666.5,-616.5 1631.5,-616.5"/>
<text text-anchor="middle" x="1649" y="-623.5" font-family="Helvetica,sans-Serif" font-size="10.00">io.h</text>
</a>
</g>
</g>
<!-- Node1&#45;&gt;Node2 -->
<g id="edge1" class="edge">
<title>Node1&#45;&gt;Node2</title>
<path fill="none" stroke="midnightblue" d="M1720.34,-672.32C1707.08,-663.9 1686.73,-650.97 1671.15,-641.07"/>
<polygon fill="midnightblue" stroke="midnightblue" points="1672.94,-638.06 1662.62,-635.65 1669.19,-643.97 1672.94,-638.06"/>
</g>
<!-- Node3 -->
<g id="node3" class="node">
<title>Node3</title>
<g id="a_node3"><a xlink:href="variables_8h.html" target="_top" xlink:title="Main header file for a complex fluid dynamics solver.">
<polygon fill="none" stroke="black" points="2092.5,-56.5 2092.5,-75.5 2163.5,-75.5 2163.5,-56.5 2092.5,-56.5"/>
<text text-anchor="middle" x="2128" y="-63.5" font-family="Helvetica,sans-Serif" font-size="10.00">variables.h</text>
</a>
</g>
</g>
<!-- Node1&#45;&gt;Node3 -->
<g id="edge147" class="edge">
<title>Node1&#45;&gt;Node3</title>
<path fill="none" stroke="midnightblue" d="M1776.23,-680.27C1952.71,-676.67 2622,-657.31 2622,-571 2622,-571 2622,-571 2622,-289 2622,-191.4 2579.11,-156.03 2492,-112 2437.24,-84.32 2258.65,-72.82 2173.7,-68.82"/>
<polygon fill="midnightblue" stroke="midnightblue" points="2173.72,-65.31 2163.57,-68.35 2173.4,-72.31 2173.72,-65.31"/>
</g>
<!-- Node13 -->
<g id="node13" class="node">
<title>Node13</title>
<g id="a_node13"><a xlink:href="logging_8h.html" target="_top" xlink:title="Logging utilities and macros for PETSc&#45;based applications.">
<polygon fill="none" stroke="black" points="1788,-560.5 1788,-579.5 1850,-579.5 1850,-560.5 1788,-560.5"/>
<text text-anchor="middle" x="1819" y="-567.5" font-family="Helvetica,sans-Serif" font-size="10.00">logging.h</text>
</a>
</g>
</g>
<!-- Node1&#45;&gt;Node13 -->
<g id="edge148" class="edge">
<title>Node1&#45;&gt;Node13</title>
<path fill="none" stroke="midnightblue" d="M1740.67,-672.37C1754.76,-654.14 1787.76,-611.43 1806.11,-587.68"/>
<polygon fill="midnightblue" stroke="midnightblue" points="1809.02,-589.64 1812.36,-579.59 1803.48,-585.36 1809.02,-589.64"/>
</g>
<!-- Node23 -->
<g id="node23" class="node">
<title>Node23</title>
<g id="a_node23"><a xlink:href="ParticleSwarm_8h.html" target="_top" xlink:title="Header file for Particle Motion and migration related functions.">
<polygon fill="none" stroke="black" points="1594,-168.5 1594,-187.5 1690,-187.5 1690,-168.5 1594,-168.5"/>
<text text-anchor="middle" x="1642" y="-175.5" font-family="Helvetica,sans-Serif" font-size="10.00">ParticleSwarm.h</text>
</a>
</g>
</g>
<!-- Node1&#45;&gt;Node23 -->
<g id="edge149" class="edge">
<title>Node1&#45;&gt;Node23</title>
<path fill="none" stroke="midnightblue" d="M1776.21,-679.18C1932.6,-671.88 2470,-641.65 2470,-571 2470,-571 2470,-571 2470,-457 2470,-217.06 2213.01,-292.32 1983,-224 1886.49,-195.33 1769.2,-184.91 1700.36,-181.13"/>
<polygon fill="midnightblue" stroke="midnightblue" points="1700.32,-177.62 1690.15,-180.6 1699.95,-184.61 1700.32,-177.62"/>
</g>
<!-- Node26 -->
<g id="node26" class="node">
<title>Node26</title>
<g id="a_node26"><a xlink:href="setup_8h.html" target="_top" xlink:title=" ">
<polygon fill="none" stroke="black" points="1077.5,-336.5 1077.5,-355.5 1130.5,-355.5 1130.5,-336.5 1077.5,-336.5"/>
<text text-anchor="middle" x="1104" y="-343.5" font-family="Helvetica,sans-Serif" font-size="10.00">setup.h</text>
</a>
</g>
</g>
<!-- Node1&#45;&gt;Node26 -->
<g id="edge152" class="edge">
<title>Node1&#45;&gt;Node26</title>
<path fill="none" stroke="midnightblue" d="M1691.77,-679.59C1585.24,-675.66 1307.85,-663.08 1220,-636 1163.53,-618.59 1104,-630.1 1104,-571 1104,-571 1104,-571 1104,-457 1104,-424.95 1104,-387.64 1104,-365.75"/>
<polygon fill="midnightblue" stroke="midnightblue" points="1107.5,-365.56 1104,-355.56 1100.5,-365.56 1107.5,-365.56"/>
</g>
<!-- Node28 -->
<g id="node28" class="node">
<title>Node28</title>
<g id="a_node28"><a xlink:href="grid_8h.html" target="_top" xlink:title="Public interface for grid, solver, and metric setup routines.">
<polygon fill="none" stroke="black" points="1492,-392.5 1492,-411.5 1536,-411.5 1536,-392.5 1492,-392.5"/>
<text text-anchor="middle" x="1514" y="-399.5" font-family="Helvetica,sans-Serif" font-size="10.00">grid.h</text>
</a>
</g>
</g>
<!-- Node1&#45;&gt;Node28 -->
<g id="edge151" class="edge">
<title>Node1&#45;&gt;Node28</title>
<path fill="none" stroke="midnightblue" d="M1693.54,-672.44C1670.29,-665.78 1641.87,-654.49 1622,-636 1556.08,-574.66 1526.95,-465.1 1517.59,-421.57"/>
<polygon fill="midnightblue" stroke="midnightblue" points="1520.98,-420.66 1515.55,-411.56 1514.12,-422.06 1520.98,-420.66"/>
</g>
<!-- Node29 -->
<g id="node29" class="node">
<title>Node29</title>
<g id="a_node29"><a xlink:href="interpolation_8h.html" target="_top" xlink:title=" ">
<polygon fill="none" stroke="black" points="1170,-448.5 1170,-467.5 1258,-467.5 1258,-448.5 1170,-448.5"/>
<text text-anchor="middle" x="1214" y="-455.5" font-family="Helvetica,sans-Serif" font-size="10.00">interpolation.h</text>
</a>
</g>
</g>
<!-- Node1&#45;&gt;Node29 -->
<g id="edge150" class="edge">
<title>Node1&#45;&gt;Node29</title>
<path fill="none" stroke="midnightblue" d="M1691.65,-680.13C1577.62,-677.36 1270.49,-667.08 1238,-636 1194.53,-594.41 1203.16,-514.21 1209.89,-477.8"/>
<polygon fill="midnightblue" stroke="midnightblue" points="1213.4,-478.11 1211.94,-467.62 1206.54,-476.73 1213.4,-478.11"/>
</g>
<!-- Node35 -->
<g id="node35" class="node">
<title>Node35</title>
<g id="a_node35"><a xlink:href="Metric_8h.html" target="_top" xlink:title=" ">
<polygon fill="none" stroke="black" points="2044,-112.5 2044,-131.5 2100,-131.5 2100,-112.5 2044,-112.5"/>
<text text-anchor="middle" x="2072" y="-119.5" font-family="Helvetica,sans-Serif" font-size="10.00">Metric.h</text>
</a>
</g>
</g>
<!-- Node1&#45;&gt;Node35 -->
<g id="edge153" class="edge">
<title>Node1&#45;&gt;Node35</title>
<path fill="none" stroke="midnightblue" d="M1776.23,-679.77C1942.91,-674.39 2546,-649.47 2546,-571 2546,-571 2546,-571 2546,-457 2546,-285.41 2443.66,-244.36 2290,-168 2231.69,-139.02 2155.7,-128.7 2110.56,-125.02"/>
<polygon fill="midnightblue" stroke="midnightblue" points="2110.56,-121.51 2100.33,-124.26 2110.04,-128.49 2110.56,-121.51"/>
</g>
<!-- Node2&#45;&gt;Node3 -->
<g id="edge2" class="edge">
<title>Node2&#45;&gt;Node3</title>
<path fill="none" stroke="midnightblue" d="M1666.55,-624.66C1788.76,-622.06 2508,-603.05 2508,-515 2508,-515 2508,-515 2508,-457 2508,-302.31 2601.8,-178.23 2462,-112 2411.9,-88.27 2252.97,-75.01 2173.77,-69.73"/>
<polygon fill="midnightblue" stroke="midnightblue" points="2173.81,-66.22 2163.6,-69.06 2173.35,-73.21 2173.81,-66.22"/>
</g>
<!-- Node2&#45;&gt;Node13 -->
<g id="edge12" class="edge">
<title>Node2&#45;&gt;Node13</title>
<path fill="none" stroke="midnightblue" d="M1666.55,-619.42C1693.77,-610.78 1746.74,-593.95 1782.5,-582.6"/>
<polygon fill="midnightblue" stroke="midnightblue" points="1783.62,-585.91 1792.09,-579.55 1781.5,-579.24 1783.62,-585.91"/>
</g>
<!-- Node32 -->
<g id="node32" class="node">
<title>Node32</title>
<g id="a_node32"><a xlink:href="Boundaries_8h.html" target="_top" xlink:title=" ">
<polygon fill="none" stroke="black" points="1344,-280.5 1344,-299.5 1424,-299.5 1424,-280.5 1344,-280.5"/>
<text text-anchor="middle" x="1384" y="-287.5" font-family="Helvetica,sans-Serif" font-size="10.00">Boundaries.h</text>
</a>
</g>
</g>
<!-- Node2&#45;&gt;Node32 -->
<g id="edge146" class="edge">
<title>Node2&#45;&gt;Node32</title>
<path fill="none" stroke="midnightblue" d="M1644.16,-616.44C1640,-597.94 1640,-552.81 1640,-515 1640,-515 1640,-515 1640,-457 1640,-359.26 1508.94,-316.9 1434.29,-300.36"/>
<polygon fill="midnightblue" stroke="midnightblue" points="1434.66,-296.86 1424.15,-298.19 1433.2,-303.7 1434.66,-296.86"/>
</g>
<!-- Node4 -->
<g id="node4" class="node">
<title>Node4</title>
<g id="a_node4"><a xlink:title=" ">
<polygon fill="none" stroke="#bfbfbf" points="2133.5,-0.5 2133.5,-19.5 2202.5,-19.5 2202.5,-0.5 2133.5,-0.5"/>
<text text-anchor="middle" x="2168" y="-7.5" font-family="Helvetica,sans-Serif" font-size="10.00">petscvec.h</text>
</a>
</g>
</g>
<!-- Node3&#45;&gt;Node4 -->
<g id="edge3" class="edge">
<title>Node3&#45;&gt;Node4</title>
<path fill="none" stroke="midnightblue" d="M2134.61,-56.08C2140.26,-48.46 2148.54,-37.26 2155.45,-27.94"/>
<polygon fill="midnightblue" stroke="midnightblue" points="2158.38,-29.87 2161.52,-19.75 2152.75,-25.7 2158.38,-29.87"/>
</g>
<!-- Node5 -->
<g id="node5" class="node">
<title>Node5</title>
<g id="a_node5"><a xlink:title=" ">
<polygon fill="none" stroke="#bfbfbf" points="2221,-0.5 2221,-19.5 2301,-19.5 2301,-0.5 2221,-0.5"/>
<text text-anchor="middle" x="2261" y="-7.5" font-family="Helvetica,sans-Serif" font-size="10.00">petscdmda.h</text>
</a>
</g>
</g>
<!-- Node3&#45;&gt;Node5 -->
<g id="edge4" class="edge">
<title>Node3&#45;&gt;Node5</title>
<path fill="none" stroke="midnightblue" d="M2149.07,-56.44C2171.06,-47.52 2205.73,-33.44 2230.66,-23.32"/>
<polygon fill="midnightblue" stroke="midnightblue" points="2232.08,-26.52 2240.02,-19.52 2229.44,-20.04 2232.08,-26.52"/>
</g>
<!-- Node6 -->
<g id="node6" class="node">
<title>Node6</title>
<g id="a_node6"><a xlink:title=" ">
<polygon fill="none" stroke="#bfbfbf" points="2319.5,-0.5 2319.5,-19.5 2388.5,-19.5 2388.5,-0.5 2319.5,-0.5"/>
<text text-anchor="middle" x="2354" y="-7.5" font-family="Helvetica,sans-Serif" font-size="10.00">petscksp.h</text>
</a>
</g>
</g>
<!-- Node3&#45;&gt;Node6 -->
<g id="edge5" class="edge">
<title>Node3&#45;&gt;Node6</title>
<path fill="none" stroke="midnightblue" d="M2163.56,-56.5C2203.03,-47.07 2266.8,-31.84 2309.54,-21.62"/>
<polygon fill="midnightblue" stroke="midnightblue" points="2310.47,-25 2319.39,-19.27 2308.85,-18.19 2310.47,-25"/>
</g>
<!-- Node7 -->
<g id="node7" class="node">
<title>Node7</title>
<g id="a_node7"><a xlink:title=" ">
<polygon fill="none" stroke="#bfbfbf" points="1899,-0.5 1899,-19.5 1973,-19.5 1973,-0.5 1899,-0.5"/>
<text text-anchor="middle" x="1936" y="-7.5" font-family="Helvetica,sans-Serif" font-size="10.00">petscsnes.h</text>
</a>
</g>
</g>
<!-- Node3&#45;&gt;Node7 -->
<g id="edge6" class="edge">
<title>Node3&#45;&gt;Node7</title>
<path fill="none" stroke="midnightblue" d="M2097.58,-56.44C2064.72,-47.2 2012.22,-32.44 1976.03,-22.26"/>
<polygon fill="midnightblue" stroke="midnightblue" points="1976.85,-18.85 1966.28,-19.52 1974.96,-25.59 1976.85,-18.85"/>
</g>
<!-- Node8 -->
<g id="node8" class="node">
<title>Node8</title>
<g id="a_node8"><a xlink:title=" ">
<polygon fill="none" stroke="#bfbfbf" points="1440.5,-0.5 1440.5,-19.5 1541.5,-19.5 1541.5,-0.5 1440.5,-0.5"/>
<text text-anchor="middle" x="1491" y="-7.5" font-family="Helvetica,sans-Serif" font-size="10.00">petscdmswarm.h</text>
</a>
</g>
</g>
<!-- Node3&#45;&gt;Node8 -->
<g id="edge7" class="edge">
<title>Node3&#45;&gt;Node8</title>
<path fill="none" stroke="midnightblue" d="M2092.26,-58.7C2085.86,-57.7 2079.24,-56.75 2073,-56 1883.6,-33.22 1658.08,-19.61 1551.94,-14"/>
<polygon fill="midnightblue" stroke="midnightblue" points="1551.91,-10.5 1541.74,-13.47 1551.55,-17.49 1551.91,-10.5"/>
</g>
<!-- Node9 -->
<g id="node9" class="node">
<title>Node9</title>
<g id="a_node9"><a xlink:title=" ">
<polygon fill="none" stroke="#bfbfbf" points="1991,-0.5 1991,-19.5 2041,-19.5 2041,-0.5 1991,-0.5"/>
<text text-anchor="middle" x="2016" y="-7.5" font-family="Helvetica,sans-Serif" font-size="10.00">stdio.h</text>
</a>
</g>
</g>
<!-- Node3&#45;&gt;Node9 -->
<g id="edge8" class="edge">
<title>Node3&#45;&gt;Node9</title>
<path fill="none" stroke="midnightblue" d="M2110.01,-56.32C2091.96,-47.62 2063.95,-34.12 2043.2,-24.11"/>
<polygon fill="midnightblue" stroke="midnightblue" points="2044.48,-20.84 2033.95,-19.65 2041.44,-27.15 2044.48,-20.84"/>
</g>
<!-- Node10 -->
<g id="node10" class="node">
<title>Node10</title>
<g id="a_node10"><a xlink:title=" ">
<polygon fill="none" stroke="#bfbfbf" points="247.5,-0.5 247.5,-19.5 300.5,-19.5 300.5,-0.5 247.5,-0.5"/>
<text text-anchor="middle" x="274" y="-7.5" font-family="Helvetica,sans-Serif" font-size="10.00">stdlib.h</text>
</a>
</g>
</g>
<!-- Node3&#45;&gt;Node10 -->
<g id="edge9" class="edge">
<title>Node3&#45;&gt;Node10</title>
<path fill="none" stroke="midnightblue" d="M2092.29,-58.43C2085.89,-57.46 2079.26,-56.59 2073,-56 1713.21,-22.22 534.62,-12.74 310.86,-11.23"/>
<polygon fill="midnightblue" stroke="midnightblue" points="310.66,-7.73 300.64,-11.16 310.62,-14.73 310.66,-7.73"/>
</g>
<!-- Node11 -->
<g id="node11" class="node">
<title>Node11</title>
<g id="a_node11"><a xlink:title=" ">
<polygon fill="none" stroke="#bfbfbf" points="2501.5,-0.5 2501.5,-19.5 2554.5,-19.5 2554.5,-0.5 2501.5,-0.5"/>
<text text-anchor="middle" x="2528" y="-7.5" font-family="Helvetica,sans-Serif" font-size="10.00">string.h</text>
</a>
</g>
</g>
<!-- Node3&#45;&gt;Node11 -->
<g id="edge10" class="edge">
<title>Node3&#45;&gt;Node11</title>
<path fill="none" stroke="midnightblue" d="M2163.85,-60.16C2239.49,-49.95 2414.71,-26.29 2491.19,-15.97"/>
<polygon fill="midnightblue" stroke="midnightblue" points="2491.86,-19.41 2501.3,-14.6 2490.93,-12.47 2491.86,-19.41"/>
</g>
<!-- Node12 -->
<g id="node12" class="node">
<title>Node12</title>
<g id="a_node12"><a xlink:title=" ">
<polygon fill="none" stroke="#bfbfbf" points="2059,-0.5 2059,-19.5 2115,-19.5 2115,-0.5 2059,-0.5"/>
<text text-anchor="middle" x="2087" y="-7.5" font-family="Helvetica,sans-Serif" font-size="10.00">unistd.h</text>
</a>
</g>
</g>
<!-- Node3&#45;&gt;Node12 -->
<g id="edge11" class="edge">
<title>Node3&#45;&gt;Node12</title>
<path fill="none" stroke="midnightblue" d="M2121.23,-56.08C2115.44,-48.46 2106.94,-37.26 2099.86,-27.94"/>
<polygon fill="midnightblue" stroke="midnightblue" points="2102.48,-25.6 2093.64,-19.75 2096.9,-29.83 2102.48,-25.6"/>
</g>
<!-- Node13&#45;&gt;Node3 -->
<g id="edge18" class="edge">
<title>Node13&#45;&gt;Node3</title>
<path fill="none" stroke="midnightblue" d="M1850.06,-567.87C1929.89,-564.58 2140.38,-553.3 2203,-524 2224.14,-514.11 2508,-258.34 2508,-235 2508,-235 2508,-235 2508,-177 2508,-108.18 2275.12,-79.7 2173.98,-70.57"/>
<polygon fill="midnightblue" stroke="midnightblue" points="2174.02,-67.06 2163.75,-69.68 2173.41,-74.04 2174.02,-67.06"/>
</g>
<!-- Node13&#45;&gt;Node10 -->
<g id="edge14" class="edge">
<title>Node13&#45;&gt;Node10</title>
<path fill="none" stroke="midnightblue" d="M1787.81,-568.8C1547.52,-567.08 0,-552.38 0,-459 0,-459 0,-459 0,-121 0,-84.28 19.74,-75.27 51,-56 109.18,-20.15 190.58,-12.2 237.24,-10.82"/>
<polygon fill="midnightblue" stroke="midnightblue" points="237.56,-14.31 247.48,-10.6 237.41,-7.31 237.56,-14.31"/>
</g>
<!-- Node13&#45;&gt;Node11 -->
<g id="edge15" class="edge">
<title>Node13&#45;&gt;Node11</title>
<path fill="none" stroke="midnightblue" d="M1850.29,-567.91C1934.02,-564.62 2161.48,-553.18 2230,-524 2395.13,-453.67 2459.79,-412.72 2521,-244 2548.32,-168.7 2537.58,-70.56 2531.3,-29.91"/>
<polygon fill="midnightblue" stroke="midnightblue" points="2534.72,-29.13 2529.65,-19.83 2527.81,-30.26 2534.72,-29.13"/>
</g>
<!-- Node14 -->
<g id="node14" class="node">
<title>Node14</title>
<g id="a_node14"><a xlink:title=" ">
<polygon fill="none" stroke="#bfbfbf" points="1598,-56.5 1598,-75.5 1650,-75.5 1650,-56.5 1598,-56.5"/>
<text text-anchor="middle" x="1624" y="-63.5" font-family="Helvetica,sans-Serif" font-size="10.00">petsc.h</text>
</a>
</g>
</g>
<!-- Node13&#45;&gt;Node14 -->
<g id="edge13" class="edge">
<title>Node13&#45;&gt;Node14</title>
<path fill="none" stroke="midnightblue" d="M1850.35,-565.61C1902.18,-559.47 2002.79,-545.18 2031,-524 2125.56,-453 2042.19,-228.93 2039,-224 1954.36,-93.33 1744.7,-71.13 1660.18,-67.57"/>
<polygon fill="midnightblue" stroke="midnightblue" points="1660.16,-64.07 1650.04,-67.21 1659.91,-71.06 1660.16,-64.07"/>
</g>
<!-- Node15 -->
<g id="node15" class="node">
<title>Node15</title>
<g id="a_node15"><a xlink:title=" ">
<polygon fill="none" stroke="#bfbfbf" points="1766,-112.5 1766,-131.5 1834,-131.5 1834,-112.5 1766,-112.5"/>
<text text-anchor="middle" x="1800" y="-119.5" font-family="Helvetica,sans-Serif" font-size="10.00">petscsys.h</text>
</a>
</g>
</g>
<!-- Node13&#45;&gt;Node15 -->
<g id="edge16" class="edge">
<title>Node13&#45;&gt;Node15</title>
<path fill="none" stroke="midnightblue" d="M1850.23,-569.14C1928.3,-568.89 2129.28,-564.23 2180,-524 2204.13,-504.86 2204,-489.8 2204,-459 2204,-459 2204,-459 2204,-289 2204,-211.85 1948.78,-152.47 1844.04,-131.35"/>
<polygon fill="midnightblue" stroke="midnightblue" points="1844.59,-127.89 1834.1,-129.37 1843.22,-134.76 1844.59,-127.89"/>
</g>
<!-- Node16 -->
<g id="node16" class="node">
<title>Node16</title>
<g id="a_node16"><a xlink:title=" ">
<polygon fill="none" stroke="#bfbfbf" points="1932.5,-504.5 1932.5,-523.5 1985.5,-523.5 1985.5,-504.5 1932.5,-504.5"/>
<text text-anchor="middle" x="1959" y="-511.5" font-family="Helvetica,sans-Serif" font-size="10.00">ctype.h</text>
</a>
</g>
</g>
<!-- Node13&#45;&gt;Node16 -->
<g id="edge17" class="edge">
<title>Node13&#45;&gt;Node16</title>
<path fill="none" stroke="midnightblue" d="M1841.18,-560.44C1864.43,-551.48 1901.15,-537.31 1927.42,-527.18"/>
<polygon fill="midnightblue" stroke="midnightblue" points="1928.85,-530.38 1936.92,-523.52 1926.33,-523.85 1928.85,-530.38"/>
</g>
<!-- Node17 -->
<g id="node17" class="node">
<title>Node17</title>
<g id="a_node17"><a xlink:href="AnalyticalSolution_8h.html" target="_top" xlink:title=" ">
<polygon fill="none" stroke="black" points="848,-504.5 848,-523.5 962,-523.5 962,-504.5 848,-504.5"/>
<text text-anchor="middle" x="905" y="-511.5" font-family="Helvetica,sans-Serif" font-size="10.00">AnalyticalSolution.h</text>
</a>
</g>
</g>
<!-- Node13&#45;&gt;Node17 -->
<g id="edge19" class="edge">
<title>Node13&#45;&gt;Node17</title>
<path fill="none" stroke="midnightblue" d="M1787.83,-567.31C1657.47,-559.91 1155.06,-530.25 972.08,-519.19"/>
<polygon fill="midnightblue" stroke="midnightblue" points="972.24,-515.69 962.05,-518.58 971.82,-522.68 972.24,-515.69"/>
</g>
<!-- Node13&#45;&gt;Node32 -->
<g id="edge145" class="edge">
<title>Node13&#45;&gt;Node32</title>
<path fill="none" stroke="midnightblue" d="M1814.16,-560.44C1810,-541.94 1810,-496.81 1810,-459 1810,-459 1810,-459 1810,-401 1810,-323.48 1547.05,-300.01 1434.26,-293.4"/>
<polygon fill="midnightblue" stroke="midnightblue" points="1434.33,-289.9 1424.15,-292.83 1433.93,-296.89 1434.33,-289.9"/>
</g>
<!-- Node17&#45;&gt;Node2 -->
<g id="edge142" class="edge">
<title>Node17&#45;&gt;Node2</title>
<path fill="none" stroke="midnightblue" d="M949.14,-523.52C1018.53,-536.74 1157.46,-562.48 1276,-580 1404.74,-599.03 1559.38,-615.73 1621.34,-622.17"/>
<polygon fill="midnightblue" stroke="midnightblue" points="1621.17,-625.67 1631.48,-623.22 1621.89,-618.71 1621.17,-625.67"/>
</g>
<!-- Node17&#45;&gt;Node3 -->
<g id="edge27" class="edge">
<title>Node17&#45;&gt;Node3</title>
<path fill="none" stroke="midnightblue" d="M962.15,-513.61C1146.09,-513.49 1735.96,-496.8 2168,-300 2240.43,-267.01 2301.33,-246.63 2289,-168 2284.95,-142.17 2289.54,-130.43 2271,-112 2245.21,-86.37 2204.98,-75.31 2173.75,-70.55"/>
<polygon fill="midnightblue" stroke="midnightblue" points="2173.92,-67.04 2163.54,-69.17 2172.98,-73.98 2173.92,-67.04"/>
</g>
<!-- Node17&#45;&gt;Node8 -->
<g id="edge21" class="edge">
<title>Node17&#45;&gt;Node8</title>
<path fill="none" stroke="midnightblue" d="M847.81,-512.17C680.16,-509.39 197.68,-498.78 134,-468 99.14,-451.15 76,-441.72 76,-403 76,-403 76,-403 76,-289 76,-120.21 249.72,-158.4 412,-112 527.74,-78.9 557.66,-71.81 677,-56 956.65,-18.94 1294.25,-12.31 1430.06,-11.19"/>
<polygon fill="midnightblue" stroke="midnightblue" points="1430.29,-14.69 1440.26,-11.11 1430.24,-7.69 1430.29,-14.69"/>
</g>
<!-- Node17&#45;&gt;Node10 -->
<g id="edge22" class="edge">
<title>Node17&#45;&gt;Node10</title>
<path fill="none" stroke="midnightblue" d="M847.7,-512.37C674.16,-510.11 162.15,-500.7 95,-468 60.46,-451.18 38,-441.42 38,-403 38,-403 38,-403 38,-121 38,-34.11 171.05,-15.69 237.35,-11.9"/>
<polygon fill="midnightblue" stroke="midnightblue" points="237.57,-15.39 247.39,-11.41 237.23,-8.4 237.57,-15.39"/>
</g>
<!-- Node17&#45;&gt;Node13 -->
<g id="edge141" class="edge">
<title>Node17&#45;&gt;Node13</title>
<path fill="none" stroke="midnightblue" d="M962.3,-518.18C1132.2,-527.95 1630.06,-557.37 1777.48,-566.36"/>
<polygon fill="midnightblue" stroke="midnightblue" points="1777.68,-569.88 1787.88,-567 1778.11,-562.89 1777.68,-569.88"/>
</g>
<!-- Node18 -->
<g id="node18" class="node">
<title>Node18</title>
<g id="a_node18"><a xlink:title=" ">
<polygon fill="none" stroke="#bfbfbf" points="508.5,-168.5 508.5,-187.5 569.5,-187.5 569.5,-168.5 508.5,-168.5"/>
<text text-anchor="middle" x="539" y="-175.5" font-family="Helvetica,sans-Serif" font-size="10.00">petscpf.h</text>
</a>
</g>
</g>
<!-- Node17&#45;&gt;Node18 -->
<g id="edge20" class="edge">
<title>Node17&#45;&gt;Node18</title>
<path fill="none" stroke="midnightblue" d="M847.82,-509.58C774.16,-504.27 651.04,-492.05 613,-468 520.84,-409.74 530.21,-251.85 536.45,-197.6"/>
<polygon fill="midnightblue" stroke="midnightblue" points="539.92,-198.03 537.7,-187.67 532.98,-197.16 539.92,-198.03"/>
</g>
<!-- Node19 -->
<g id="node19" class="node">
<title>Node19</title>
<g id="a_node19"><a xlink:title=" ">
<polygon fill="none" stroke="#bfbfbf" points="588,-168.5 588,-187.5 636,-187.5 636,-168.5 588,-168.5"/>
<text text-anchor="middle" x="612" y="-175.5" font-family="Helvetica,sans-Serif" font-size="10.00">time.h</text>
</a>
</g>
</g>
<!-- Node17&#45;&gt;Node19 -->
<g id="edge23" class="edge">
<title>Node17&#45;&gt;Node19</title>
<path fill="none" stroke="midnightblue" d="M847.81,-508.75C780.78,-502.83 674.7,-490.24 642,-468 569.02,-418.36 563.73,-367.1 578,-280 582.92,-249.98 595.55,-216.85 603.95,-196.99"/>
<polygon fill="midnightblue" stroke="midnightblue" points="607.23,-198.24 608,-187.67 600.81,-195.45 607.23,-198.24"/>
</g>
<!-- Node20 -->
<g id="node20" class="node">
<title>Node20</title>
<g id="a_node20"><a xlink:title=" ">
<polygon fill="none" stroke="#bfbfbf" points="1062.5,-56.5 1062.5,-75.5 1113.5,-75.5 1113.5,-56.5 1062.5,-56.5"/>
<text text-anchor="middle" x="1088" y="-63.5" font-family="Helvetica,sans-Serif" font-size="10.00">math.h</text>
</a>
</g>
</g>
<!-- Node17&#45;&gt;Node20 -->
<g id="edge24" class="edge">
<title>Node17&#45;&gt;Node20</title>
<path fill="none" stroke="midnightblue" d="M847.63,-511.19C713.59,-506.59 383.03,-493.01 275,-468 199.82,-450.59 114,-480.17 114,-403 114,-403 114,-403 114,-289 114,-243.19 154.11,-246.52 194,-224 321.93,-151.77 361.36,-142.82 505,-112 708.6,-68.32 960.24,-65.75 1052.2,-66.45"/>
<polygon fill="midnightblue" stroke="midnightblue" points="1052.33,-69.95 1062.36,-66.55 1052.4,-62.95 1052.33,-69.95"/>
</g>
<!-- Node21 -->
<g id="node21" class="node">
<title>Node21</title>
<g id="a_node21"><a xlink:title=" ">
<polygon fill="none" stroke="#bfbfbf" points="654,-168.5 654,-187.5 728,-187.5 728,-168.5 654,-168.5"/>
<text text-anchor="middle" x="691" y="-175.5" font-family="Helvetica,sans-Serif" font-size="10.00">petsctime.h</text>
</a>
</g>
</g>
<!-- Node17&#45;&gt;Node21 -->
<g id="edge25" class="edge">
<title>Node17&#45;&gt;Node21</title>
<path fill="none" stroke="midnightblue" d="M847.61,-512.61C797.57,-509.9 724.63,-500.07 670,-468 641.98,-451.55 639.6,-439.93 623,-412 591.99,-359.83 564.5,-335.96 588,-280 604.15,-241.54 642.88,-210.38 667.98,-193.29"/>
<polygon fill="midnightblue" stroke="midnightblue" points="670.12,-196.07 676.54,-187.65 666.26,-190.23 670.12,-196.07"/>
</g>
<!-- Node22 -->
<g id="node22" class="node">
<title>Node22</title>
<g id="a_node22"><a xlink:title=" ">
<polygon fill="none" stroke="#bfbfbf" points="746.5,-168.5 746.5,-187.5 865.5,-187.5 865.5,-168.5 746.5,-168.5"/>
<text text-anchor="middle" x="806" y="-175.5" font-family="Helvetica,sans-Serif" font-size="10.00">petscdmcomposite.h</text>
</a>
</g>
</g>
<!-- Node17&#45;&gt;Node22 -->
<g id="edge26" class="edge">
<title>Node17&#45;&gt;Node22</title>
<path fill="none" stroke="midnightblue" d="M847.79,-512.26C803.55,-509.09 742.7,-498.78 699,-468 627.01,-417.3 618.27,-384.64 594,-300 591.55,-291.46 589.26,-287.52 594,-280 626.75,-228.13 694.24,-202.34 744.32,-189.89"/>
<polygon fill="midnightblue" stroke="midnightblue" points="745.16,-193.29 754.09,-187.58 743.55,-186.48 745.16,-193.29"/>
</g>
<!-- Node17&#45;&gt;Node23 -->
<g id="edge28" class="edge">
<title>Node17&#45;&gt;Node23</title>
<path fill="none" stroke="midnightblue" d="M962.22,-511.63C1087.86,-508.12 1384.28,-496.96 1480,-468 1675.4,-408.89 1777.68,-420.07 1881,-244 1885.5,-236.33 1886.67,-230.84 1881,-224 1858.5,-196.87 1763.7,-185.99 1700.47,-181.7"/>
<polygon fill="midnightblue" stroke="midnightblue" points="1700.42,-178.19 1690.22,-181.04 1699.97,-185.17 1700.42,-178.19"/>
</g>
<!-- Node25 -->
<g id="node25" class="node">
<title>Node25</title>
<g id="a_node25"><a xlink:href="walkingsearch_8h.html" target="_top" xlink:title="Header file for particle location functions using the walking search algorithm.">
<polygon fill="none" stroke="black" points="1348,-112.5 1348,-131.5 1444,-131.5 1444,-112.5 1348,-112.5"/>
<text text-anchor="middle" x="1396" y="-119.5" font-family="Helvetica,sans-Serif" font-size="10.00">walkingsearch.h</text>
</a>
</g>
</g>
<!-- Node17&#45;&gt;Node25 -->
<g id="edge139" class="edge">
<title>Node17&#45;&gt;Node25</title>
<path fill="none" stroke="midnightblue" d="M848,-510.22C678.61,-501.21 190,-469.45 190,-403 190,-403 190,-403 190,-289 190,-141.51 354.8,-198.99 499,-168 659.88,-133.43 1165.21,-125.27 1337.66,-123.48"/>
<polygon fill="midnightblue" stroke="midnightblue" points="1337.84,-126.98 1347.8,-123.37 1337.77,-119.98 1337.84,-126.98"/>
</g>
<!-- Node17&#45;&gt;Node26 -->
<g id="edge143" class="edge">
<title>Node17&#45;&gt;Node26</title>
<path fill="none" stroke="midnightblue" d="M903.36,-504.29C906.12,-482.24 928.46,-423.75 967,-392 995.54,-368.49 1037.21,-356.89 1067.25,-351.44"/>
<polygon fill="midnightblue" stroke="midnightblue" points="1068.07,-354.85 1077.35,-349.75 1066.92,-347.94 1068.07,-354.85"/>
</g>
<!-- Node17&#45;&gt;Node28 -->
<g id="edge140" class="edge">
<title>Node17&#45;&gt;Node28</title>
<path fill="none" stroke="midnightblue" d="M962.21,-511.37C1034.51,-508.06 1162.15,-498.1 1267,-468 1287.26,-462.19 1290.01,-454.69 1310,-448 1382.41,-423.75 1403.62,-429.26 1478,-412 1479.27,-411.71 1480.57,-411.4 1481.87,-411.09"/>
<polygon fill="midnightblue" stroke="midnightblue" points="1483.05,-414.4 1491.94,-408.64 1481.4,-407.6 1483.05,-414.4"/>
</g>
<!-- Node17&#45;&gt;Node29 -->
<g id="edge144" class="edge">
<title>Node17&#45;&gt;Node29</title>
<path fill="none" stroke="midnightblue" d="M953.96,-504.44C1009.99,-494.65 1101.48,-478.66 1159.67,-468.49"/>
<polygon fill="midnightblue" stroke="midnightblue" points="1160.52,-471.9 1169.77,-466.73 1159.32,-465 1160.52,-471.9"/>
</g>
<!-- Node23&#45;&gt;Node2 -->
<g id="edge138" class="edge">
<title>Node23&#45;&gt;Node2</title>
<path fill="none" stroke="midnightblue" d="M1690.13,-182.46C1765.69,-188.46 1908.26,-202.3 1954,-224 1987.25,-239.77 1989.06,-253.89 2015,-280 2423.83,-691.47 2254.2,-480.81 2218,-524 2147.43,-608.2 1781.19,-622.25 1676.8,-624.56"/>
<polygon fill="midnightblue" stroke="midnightblue" points="1676.65,-621.06 1666.73,-624.76 1676.79,-628.06 1676.65,-621.06"/>
</g>
<!-- Node23&#45;&gt;Node3 -->
<g id="edge33" class="edge">
<title>Node23&#45;&gt;Node3</title>
<path fill="none" stroke="midnightblue" d="M1655.65,-168.38C1681.29,-152.35 1735.98,-118.91 1757,-112 1869.71,-74.95 2010.7,-67.87 2082.06,-66.85"/>
<polygon fill="midnightblue" stroke="midnightblue" points="2082.52,-70.34 2092.48,-66.74 2082.45,-63.34 2082.52,-70.34"/>
</g>
<!-- Node23&#45;&gt;Node8 -->
<g id="edge30" class="edge">
<title>Node23&#45;&gt;Node8</title>
<path fill="none" stroke="midnightblue" d="M1647.08,-168.3C1658.91,-146.78 1685.35,-90.33 1659,-56 1645.77,-38.76 1594.29,-26.68 1551.77,-19.41"/>
<polygon fill="midnightblue" stroke="midnightblue" points="1552.17,-15.93 1541.74,-17.75 1551.03,-22.83 1552.17,-15.93"/>
</g>
<!-- Node23&#45;&gt;Node13 -->
<g id="edge34" class="edge">
<title>Node23&#45;&gt;Node13</title>
<path fill="none" stroke="midnightblue" d="M1690.25,-179.13C1790.91,-182.19 2014,-204.79 2014,-345 2014,-459 2014,-459 2014,-459 2014,-489.23 2015.87,-503.13 1994,-524 1958.06,-558.29 1899.63,-567.38 1860.28,-569.32"/>
<polygon fill="midnightblue" stroke="midnightblue" points="1860.08,-565.83 1850.21,-569.68 1860.33,-572.82 1860.08,-565.83"/>
</g>
<!-- Node23&#45;&gt;Node14 -->
<g id="edge29" class="edge">
<title>Node23&#45;&gt;Node14</title>
<path fill="none" stroke="midnightblue" d="M1640.59,-168.37C1637.68,-150.62 1630.98,-109.67 1627.04,-85.6"/>
<polygon fill="midnightblue" stroke="midnightblue" points="1630.47,-84.89 1625.41,-75.59 1623.57,-86.03 1630.47,-84.89"/>
</g>
<!-- Node23&#45;&gt;Node20 -->
<g id="edge32" class="edge">
<title>Node23&#45;&gt;Node20</title>
<path fill="none" stroke="midnightblue" d="M1607.71,-168.43C1577.14,-160.37 1531.42,-147.28 1493,-132 1474.53,-124.66 1472.03,-117.74 1453,-112 1336.33,-76.78 1190.73,-69.07 1124.2,-67.42"/>
<polygon fill="midnightblue" stroke="midnightblue" points="1123.91,-63.91 1113.84,-67.2 1123.76,-70.91 1123.91,-63.91"/>
</g>
<!-- Node24 -->
<g id="node24" class="node">
<title>Node24</title>
<g id="a_node24"><a xlink:title=" ">
<polygon fill="none" stroke="#bfbfbf" points="1365,-56.5 1365,-75.5 1427,-75.5 1427,-56.5 1365,-56.5"/>
<text text-anchor="middle" x="1396" y="-63.5" font-family="Helvetica,sans-Serif" font-size="10.00">stdbool.h</text>
</a>
</g>
</g>
<!-- Node23&#45;&gt;Node24 -->
<g id="edge31" class="edge">
<title>Node23&#45;&gt;Node24</title>
<path fill="none" stroke="midnightblue" d="M1622.7,-168.37C1579.58,-149.09 1475.29,-102.45 1424.6,-79.79"/>
<polygon fill="midnightblue" stroke="midnightblue" points="1425.77,-76.48 1415.21,-75.59 1422.91,-82.87 1425.77,-76.48"/>
</g>
<!-- Node23&#45;&gt;Node25 -->
<g id="edge35" class="edge">
<title>Node23&#45;&gt;Node25</title>
<path fill="none" stroke="midnightblue" d="M1603.02,-168.44C1560.11,-159.02 1491.05,-143.87 1444.63,-133.68"/>
<polygon fill="midnightblue" stroke="midnightblue" points="1445.31,-130.24 1434.8,-131.52 1443.81,-137.08 1445.31,-130.24"/>
</g>
<!-- Node23&#45;&gt;Node35 -->
<g id="edge131" class="edge">
<title>Node23&#45;&gt;Node35</title>
<path fill="none" stroke="midnightblue" d="M1690.07,-170.96C1776.28,-160.14 1955.44,-137.64 2033.86,-127.79"/>
<polygon fill="midnightblue" stroke="midnightblue" points="2034.31,-131.26 2043.79,-126.54 2033.43,-124.32 2034.31,-131.26"/>
</g>
<!-- Node25&#45;&gt;Node3 -->
<g id="edge39" class="edge">
<title>Node25&#45;&gt;Node3</title>
<path fill="none" stroke="midnightblue" d="M1444.03,-117.46C1577.5,-107.61 1951.64,-80.01 2082.29,-70.37"/>
<polygon fill="midnightblue" stroke="midnightblue" points="2082.64,-73.86 2092.35,-69.63 2082.12,-66.87 2082.64,-73.86"/>
</g>
<!-- Node25&#45;&gt;Node13 -->
<g id="edge40" class="edge">
<title>Node25&#45;&gt;Node13</title>
<path fill="none" stroke="midnightblue" d="M1418.48,-131.53C1516.8,-168.96 1904,-318.11 1904,-345 1904,-459 1904,-459 1904,-459 1904,-500.24 1866.14,-535.43 1840.95,-554.27"/>
<polygon fill="midnightblue" stroke="midnightblue" points="1838.73,-551.56 1832.66,-560.24 1842.82,-557.24 1838.73,-551.56"/>
</g>
<!-- Node25&#45;&gt;Node14 -->
<g id="edge36" class="edge">
<title>Node25&#45;&gt;Node14</title>
<path fill="none" stroke="midnightblue" d="M1432.13,-112.44C1474.82,-102.33 1545.41,-85.61 1588.03,-75.52"/>
<polygon fill="midnightblue" stroke="midnightblue" points="1589.05,-78.88 1597.97,-73.16 1587.43,-72.06 1589.05,-78.88"/>
</g>
<!-- Node25&#45;&gt;Node20 -->
<g id="edge38" class="edge">
<title>Node25&#45;&gt;Node20</title>
<path fill="none" stroke="midnightblue" d="M1347.88,-112.56C1285.73,-101.67 1178.99,-82.95 1123.64,-73.25"/>
<polygon fill="midnightblue" stroke="midnightblue" points="1124.05,-69.77 1113.6,-71.49 1122.84,-76.66 1124.05,-69.77"/>
</g>
<!-- Node25&#45;&gt;Node24 -->
<g id="edge37" class="edge">
<title>Node25&#45;&gt;Node24</title>
<path fill="none" stroke="midnightblue" d="M1396,-112.08C1396,-105.01 1396,-94.86 1396,-85.99"/>
<polygon fill="midnightblue" stroke="midnightblue" points="1399.5,-85.75 1396,-75.75 1392.5,-85.75 1399.5,-85.75"/>
</g>
<!-- Node25&#45;&gt;Node26 -->
<g id="edge41" class="edge">
<title>Node25&#45;&gt;Node26</title>
<path fill="none" stroke="midnightblue" d="M1347.71,-122.87C1272.17,-123.96 1131.78,-131.18 1100,-168 1079.98,-191.19 1098.9,-285.14 1104.13,-325.94"/>
<polygon fill="midnightblue" stroke="midnightblue" points="1100.68,-326.56 1105.22,-336.14 1107.64,-325.82 1100.68,-326.56"/>
</g>
<!-- Node26&#45;&gt;Node2 -->
<g id="edge60" class="edge">
<title>Node26&#45;&gt;Node2</title>
<path fill="none" stroke="midnightblue" d="M1105.67,-355.7C1110.35,-377.72 1125.61,-436.16 1161,-468 1273.64,-569.34 1337.8,-536.69 1483,-580 1543.01,-597.9 1562.36,-595.75 1621.47,-614.34"/>
<polygon fill="midnightblue" stroke="midnightblue" points="1620.72,-617.78 1631.31,-617.51 1622.86,-611.11 1620.72,-617.78"/>
</g>
<!-- Node26&#45;&gt;Node3 -->
<g id="edge51" class="edge">
<title>Node26&#45;&gt;Node3</title>
<path fill="none" stroke="midnightblue" d="M1130.62,-344.85C1233.97,-343.63 1617.76,-333 1917,-244 2019.14,-213.62 2085.35,-229.21 2129,-132 2135.5,-117.52 2134.56,-99.34 2132.39,-85.89"/>
<polygon fill="midnightblue" stroke="midnightblue" points="2135.78,-85.02 2130.41,-75.88 2128.92,-86.37 2135.78,-85.02"/>
</g>
<!-- Node26&#45;&gt;Node8 -->
<g id="edge43" class="edge">
<title>Node26&#45;&gt;Node8</title>
<path fill="none" stroke="midnightblue" d="M1077.5,-343.28C1016.75,-339 862.99,-326.3 737,-300 651.66,-282.19 625.17,-286.41 549,-244 510.67,-222.66 458.27,-202 486,-168 605.8,-21.13 1231.31,-10.18 1430.21,-10.47"/>
<polygon fill="midnightblue" stroke="midnightblue" points="1430.46,-13.97 1440.47,-10.5 1430.48,-6.97 1430.46,-13.97"/>
</g>
<!-- Node26&#45;&gt;Node10 -->
<g id="edge44" class="edge">
<title>Node26&#45;&gt;Node10</title>
<path fill="none" stroke="midnightblue" d="M1077.36,-345.52C1004.62,-346.27 797.01,-344.1 632,-300 573.97,-284.49 558.43,-278.12 509,-244 412.53,-177.41 320.56,-68.96 287.2,-27.68"/>
<polygon fill="midnightblue" stroke="midnightblue" points="289.8,-25.33 280.82,-19.72 284.34,-29.71 289.8,-25.33"/>
</g>
<!-- Node26&#45;&gt;Node13 -->
<g id="edge59" class="edge">
<title>Node26&#45;&gt;Node13</title>
<path fill="none" stroke="midnightblue" d="M1130.51,-348.35C1213.38,-352.77 1466.65,-367.95 1545,-392 1642.76,-422.01 1663.1,-444.12 1746,-504 1766.93,-519.12 1788.76,-539.22 1803.04,-553.05"/>
<polygon fill="midnightblue" stroke="midnightblue" points="1800.92,-555.87 1810.5,-560.38 1805.82,-550.88 1800.92,-555.87"/>
</g>
<!-- Node26&#45;&gt;Node15 -->
<g id="edge48" class="edge">
<title>Node26&#45;&gt;Node15</title>
<path fill="none" stroke="midnightblue" d="M1130.76,-343.12C1187.24,-338.76 1322.51,-326.27 1433,-300 1507.52,-282.28 1524.37,-271.13 1596,-244 1656.75,-220.99 1676.47,-223.29 1731,-188 1752.25,-174.25 1772.87,-153.56 1785.95,-139.23"/>
<polygon fill="midnightblue" stroke="midnightblue" points="1788.69,-141.42 1792.73,-131.63 1783.46,-136.76 1788.69,-141.42"/>
</g>
<!-- Node26&#45;&gt;Node17 -->
<g id="edge78" class="edge">
<title>Node26&#45;&gt;Node17</title>
<path fill="none" stroke="midnightblue" d="M1077.29,-352.26C1051.27,-358.02 1012.18,-369.61 985,-392 950.98,-420.03 929.58,-468.9 916.77,-495.14"/>
<polygon fill="midnightblue" stroke="midnightblue" points="913.53,-493.79 912.12,-504.29 919.77,-496.96 913.53,-493.79"/>
</g>
<!-- Node26&#45;&gt;Node18 -->
<g id="edge42" class="edge">
<title>Node26&#45;&gt;Node18</title>
<path fill="none" stroke="midnightblue" d="M1077.33,-340.77C1034.4,-333.73 947.42,-318.55 875,-300 846.54,-292.71 840.19,-288.26 812,-280 752.82,-262.67 735.93,-265.14 678,-244 636.81,-228.97 591.13,-206.4 563.75,-192.19"/>
<polygon fill="midnightblue" stroke="midnightblue" points="565.36,-189.08 554.87,-187.54 562.11,-195.28 565.36,-189.08"/>
</g>
<!-- Node26&#45;&gt;Node19 -->
<g id="edge45" class="edge">
<title>Node26&#45;&gt;Node19</title>
<path fill="none" stroke="midnightblue" d="M1077.29,-338.68C1043.96,-330.61 985.32,-315.78 936,-300 826.48,-264.97 699.51,-214.64 642.48,-191.5"/>
<polygon fill="midnightblue" stroke="midnightblue" points="643.56,-188.16 632.98,-187.64 640.93,-194.65 643.56,-188.16"/>
</g>
<!-- Node26&#45;&gt;Node20 -->
<g id="edge46" class="edge">
<title>Node26&#45;&gt;Node20</title>
<path fill="none" stroke="midnightblue" d="M1077.19,-342.15C1025.48,-336.37 908.53,-321.93 812,-300 770.11,-290.48 667.3,-258.86 627,-244 564.92,-221.12 456.35,-218.58 499,-168 570.74,-82.91 935.95,-69.5 1052.32,-67.39"/>
<polygon fill="midnightblue" stroke="midnightblue" points="1052.54,-70.89 1062.48,-67.23 1052.42,-63.89 1052.54,-70.89"/>
</g>
<!-- Node26&#45;&gt;Node21 -->
<g id="edge47" class="edge">
<title>Node26&#45;&gt;Node21</title>
<path fill="none" stroke="midnightblue" d="M1080.87,-336.37C1057.03,-327.44 1018.82,-312.99 986,-300 888.56,-261.44 773.92,-213.75 720.8,-191.51"/>
<polygon fill="midnightblue" stroke="midnightblue" points="721.89,-188.17 711.32,-187.54 719.19,-194.63 721.89,-188.17"/>
</g>
<!-- Node26&#45;&gt;Node22 -->
<g id="edge49" class="edge">
<title>Node26&#45;&gt;Node22</title>
<path fill="none" stroke="midnightblue" d="M1088.41,-336.37C1056.93,-318.96 983.54,-278.32 922,-244 890.28,-226.31 853.74,-205.82 830.28,-192.64"/>
<polygon fill="midnightblue" stroke="midnightblue" points="831.81,-189.49 821.38,-187.64 828.38,-195.59 831.81,-189.49"/>
</g>
<!-- Node26&#45;&gt;Node23 -->
<g id="edge52" class="edge">
<title>Node26&#45;&gt;Node23</title>
<path fill="none" stroke="midnightblue" d="M1130.33,-336.4C1192.21,-316.25 1351.83,-264.59 1486,-224 1525.2,-212.14 1570.14,-199.25 1601.69,-190.32"/>
<polygon fill="midnightblue" stroke="midnightblue" points="1602.77,-193.65 1611.44,-187.56 1600.87,-186.91 1602.77,-193.65"/>
</g>
<!-- Node26&#45;&gt;Node25 -->
<g id="edge53" class="edge">
<title>Node26&#45;&gt;Node25</title>
<path fill="none" stroke="midnightblue" d="M1098.33,-336.14C1084.91,-303.9 1060.05,-193.42 1082,-168 1113.99,-130.94 1255.99,-123.87 1337.74,-122.85"/>
<polygon fill="midnightblue" stroke="midnightblue" points="1337.92,-126.35 1347.88,-122.75 1337.85,-119.35 1337.92,-126.35"/>
</g>
<!-- Node27 -->
<g id="node27" class="node">
<title>Node27</title>
<g id="a_node27"><a xlink:title=" ">
<polygon fill="none" stroke="#bfbfbf" points="1100.5,-168.5 1100.5,-187.5 1195.5,-187.5 1195.5,-168.5 1100.5,-168.5"/>
<text text-anchor="middle" x="1148" y="-175.5" font-family="Helvetica,sans-Serif" font-size="10.00">petscsystypes.h</text>
</a>
</g>
</g>
<!-- Node26&#45;&gt;Node27 -->
<g id="edge50" class="edge">
<title>Node26&#45;&gt;Node27</title>
<path fill="none" stroke="midnightblue" d="M1108.58,-336.26C1113.09,-327.36 1119.87,-313.04 1124,-300 1135.18,-264.74 1142.2,-221.97 1145.58,-197.88"/>
<polygon fill="midnightblue" stroke="midnightblue" points="1149.09,-198.05 1146.95,-187.67 1142.15,-197.12 1149.09,-198.05"/>
</g>
<!-- Node26&#45;&gt;Node28 -->
<g id="edge54" class="edge">
<title>Node26&#45;&gt;Node28</title>
<path fill="none" stroke="midnightblue" d="M1130.58,-349.53C1145.68,-351.33 1164.47,-353.82 1181,-356 1291.62,-370.6 1422.37,-387.78 1481.89,-396.06"/>
<polygon fill="midnightblue" stroke="midnightblue" points="1481.43,-399.53 1491.82,-397.45 1482.4,-392.59 1481.43,-399.53"/>
</g>
<!-- Node26&#45;&gt;Node29 -->
<g id="edge61" class="edge">
<title>Node26&#45;&gt;Node29</title>
<path fill="none" stroke="midnightblue" d="M1116.43,-355.59C1138.16,-373.87 1181.55,-416.87 1202.56,-440.59"/>
<polygon fill="midnightblue" stroke="midnightblue" points="1200.05,-443.04 1209.21,-448.37 1205.38,-438.49 1200.05,-443.04"/>
</g>
<!-- Node31 -->
<g id="node31" class="node">
<title>Node31</title>
<g id="a_node31"><a xlink:href="ParticleMotion_8h.html" target="_top" xlink:title=" ">
<polygon fill="none" stroke="black" points="1290,-168.5 1290,-187.5 1386,-187.5 1386,-168.5 1290,-168.5"/>
<text text-anchor="middle" x="1338" y="-175.5" font-family="Helvetica,sans-Serif" font-size="10.00">ParticleMotion.h</text>
</a>
</g>
</g>
<!-- Node26&#45;&gt;Node31 -->
<g id="edge79" class="edge">
<title>Node26&#45;&gt;Node31</title>
<path fill="none" stroke="midnightblue" d="M1116.25,-336.31C1154.24,-309.36 1270.32,-227.01 1317.62,-193.46"/>
<polygon fill="midnightblue" stroke="midnightblue" points="1319.74,-196.25 1325.87,-187.61 1315.69,-190.54 1319.74,-196.25"/>
</g>
<!-- Node26&#45;&gt;Node32 -->
<g id="edge88" class="edge">
<title>Node26&#45;&gt;Node32</title>
<path fill="none" stroke="midnightblue" d="M1130.59,-339.87C1177.18,-330.89 1274.24,-312.17 1333.79,-300.68"/>
<polygon fill="midnightblue" stroke="midnightblue" points="1334.58,-304.1 1343.74,-298.77 1333.25,-297.22 1334.58,-304.1"/>
</g>
<!-- Node28&#45;&gt;Node2 -->
<g id="edge57" class="edge">
<title>Node28&#45;&gt;Node2</title>
<path fill="none" stroke="midnightblue" d="M1519.4,-411.88C1539.66,-445.2 1611.36,-563.11 1638.49,-607.72"/>
<polygon fill="midnightblue" stroke="midnightblue" points="1635.52,-609.57 1643.71,-616.3 1641.5,-605.93 1635.52,-609.57"/>
</g>
<!-- Node28&#45;&gt;Node3 -->
<g id="edge55" class="edge">
<title>Node28&#45;&gt;Node3</title>
<path fill="none" stroke="midnightblue" d="M1536.04,-399.74C1612,-394.82 1869.05,-373.42 2066,-300 2157.85,-265.76 2207.37,-273.11 2256,-188 2283.62,-139.66 2207.22,-98.88 2160.78,-79.36"/>
<polygon fill="midnightblue" stroke="midnightblue" points="2161.96,-76.06 2151.38,-75.52 2159.31,-82.54 2161.96,-76.06"/>
</g>
<!-- Node28&#45;&gt;Node13 -->
<g id="edge56" class="edge">
<title>Node28&#45;&gt;Node13</title>
<path fill="none" stroke="midnightblue" d="M1535.45,-411.57C1556.34,-420.12 1588.83,-433.97 1616,-448 1683.89,-483.04 1760.43,-531.13 1797.11,-554.74"/>
<polygon fill="midnightblue" stroke="midnightblue" points="1795.25,-557.71 1805.54,-560.19 1799.04,-551.83 1795.25,-557.71"/>
</g>
<!-- Node28&#45;&gt;Node26 -->
<g id="edge58" class="edge">
<title>Node28&#45;&gt;Node26</title>
<path fill="none" stroke="midnightblue" d="M1491.69,-398.61C1435.8,-391.91 1286.79,-372.34 1163,-356 1155.78,-355.05 1148.12,-354.04 1140.78,-353.05"/>
<polygon fill="midnightblue" stroke="midnightblue" points="1141.06,-349.55 1130.68,-351.68 1140.12,-356.49 1141.06,-349.55"/>
</g>
<!-- Node29&#45;&gt;Node2 -->
<g id="edge76" class="edge">
<title>Node29&#45;&gt;Node2</title>
<path fill="none" stroke="midnightblue" d="M1236.36,-467.53C1309.51,-495.45 1541.58,-584.01 1621.58,-614.54"/>
<polygon fill="midnightblue" stroke="midnightblue" points="1620.82,-617.99 1631.41,-618.29 1623.31,-611.45 1620.82,-617.99"/>
</g>
<!-- Node29&#45;&gt;Node3 -->
<g id="edge71" class="edge">
<title>Node29&#45;&gt;Node3</title>
<path fill="none" stroke="midnightblue" d="M1258.04,-453.31C1433.7,-437.81 2082.06,-372.66 2235,-244 2280.15,-206.02 2291.72,-152.69 2249,-112 2228.39,-92.37 2198.45,-81.14 2173.51,-74.81"/>
<polygon fill="midnightblue" stroke="midnightblue" points="2174.06,-71.34 2163.52,-72.46 2172.45,-78.16 2174.06,-71.34"/>
</g>
<!-- Node29&#45;&gt;Node8 -->
<g id="edge63" class="edge">
<title>Node29&#45;&gt;Node8</title>
<path fill="none" stroke="midnightblue" d="M1258.06,-448.63C1318.12,-437.13 1420.16,-417.29 1437,-412 1458.27,-405.31 1461.77,-398.79 1483,-392 1635.79,-343.16 1691.78,-377.91 1832,-300 1865.33,-281.48 1881.11,-278.66 1897,-244 1924.22,-184.62 2028.42,-209.6 1853,-56 1809.41,-17.84 1643.25,-11.24 1551.96,-10.58"/>
<polygon fill="midnightblue" stroke="midnightblue" points="1551.77,-7.08 1541.75,-10.53 1551.73,-14.08 1551.77,-7.08"/>
</g>
<!-- Node29&#45;&gt;Node10 -->
<g id="edge64" class="edge">
<title>Node29&#45;&gt;Node10</title>
<path fill="none" stroke="midnightblue" d="M1169.72,-455.13C968.73,-445.44 152,-392.93 152,-179 152,-179 152,-179 152,-121 152,-72.57 205.69,-39.99 241.83,-23.54"/>
<polygon fill="midnightblue" stroke="midnightblue" points="243.29,-26.72 251.05,-19.52 240.49,-20.31 243.29,-26.72"/>
</g>
<!-- Node29&#45;&gt;Node13 -->
<g id="edge75" class="edge">
<title>Node29&#45;&gt;Node13</title>
<path fill="none" stroke="midnightblue" d="M1258,-467C1370.64,-487.48 1668.18,-541.58 1777.74,-561.5"/>
<polygon fill="midnightblue" stroke="midnightblue" points="1777.28,-564.97 1787.75,-563.32 1778.53,-558.09 1777.28,-564.97"/>
</g>
<!-- Node29&#45;&gt;Node15 -->
<g id="edge70" class="edge">
<title>Node29&#45;&gt;Node15</title>
<path fill="none" stroke="midnightblue" d="M1254.12,-448.44C1291.23,-440.21 1347.78,-426.84 1396,-412 1420.46,-404.47 1425.9,-400.6 1450,-392 1545.38,-357.97 1822.16,-326.42 1881,-244 1886.16,-236.77 1884.22,-232.28 1881,-224 1873.13,-203.77 1861.8,-204.75 1848,-188 1834.96,-172.16 1821.15,-153.21 1811.71,-139.86"/>
<polygon fill="midnightblue" stroke="midnightblue" points="1814.54,-137.81 1805.93,-131.63 1808.81,-141.83 1814.54,-137.81"/>
</g>
<!-- Node29&#45;&gt;Node18 -->
<g id="edge62" class="edge">
<title>Node29&#45;&gt;Node18</title>
<path fill="none" stroke="midnightblue" d="M1169.71,-452.12C1121.26,-445.98 1041.74,-433.54 976,-412 804.25,-355.72 619.91,-234.77 559.46,-193.3"/>
<polygon fill="midnightblue" stroke="midnightblue" points="561.36,-190.36 551.15,-187.56 557.39,-196.12 561.36,-190.36"/>
</g>
<!-- Node29&#45;&gt;Node19 -->
<g id="edge65" class="edge">
<title>Node29&#45;&gt;Node19</title>
<path fill="none" stroke="midnightblue" d="M1169.89,-450.23C1130.29,-443.33 1071.03,-430.92 1022,-412 862.49,-350.46 690.39,-234.28 632.38,-193.55"/>
<polygon fill="midnightblue" stroke="midnightblue" points="634.26,-190.59 624.07,-187.68 630.22,-196.31 634.26,-190.59"/>
</g>
<!-- Node29&#45;&gt;Node20 -->
<g id="edge66" class="edge">
<title>Node29&#45;&gt;Node20</title>
<path fill="none" stroke="midnightblue" d="M1169.84,-457.63C1035.55,-456.81 632.31,-433.33 486,-188 459.68,-143.87 531.49,-120.19 551,-112 641.91,-73.85 947.11,-68.01 1052.14,-67.14"/>
<polygon fill="midnightblue" stroke="midnightblue" points="1052.26,-70.64 1062.23,-67.07 1052.21,-63.64 1052.26,-70.64"/>
</g>
<!-- Node29&#45;&gt;Node21 -->
<g id="edge67" class="edge">
<title>Node29&#45;&gt;Node21</title>
<path fill="none" stroke="midnightblue" d="M1175.96,-448.46C1145.24,-440.88 1101.31,-428.44 1065,-412 920.4,-346.52 764.5,-234.11 710.62,-193.87"/>
<polygon fill="midnightblue" stroke="midnightblue" points="712.41,-190.84 702.31,-187.63 708.21,-196.44 712.41,-190.84"/>
</g>
<!-- Node29&#45;&gt;Node22 -->
<g id="edge68" class="edge">
<title>Node29&#45;&gt;Node22</title>
<path fill="none" stroke="midnightblue" d="M1185.81,-448.38C1162.1,-440.55 1127.72,-427.82 1100,-412 983.62,-345.6 864.41,-235.43 822.09,-194.74"/>
<polygon fill="midnightblue" stroke="midnightblue" points="824.51,-192.21 814.89,-187.77 819.64,-197.23 824.51,-192.21"/>
</g>
<!-- Node29&#45;&gt;Node23 -->
<g id="edge72" class="edge">
<title>Node29&#45;&gt;Node23</title>
<path fill="none" stroke="midnightblue" d="M1258.05,-448.47C1288.89,-441.4 1330.41,-429.62 1364,-412 1479.02,-351.67 1589.15,-237.31 1627.62,-195.14"/>
<polygon fill="midnightblue" stroke="midnightblue" points="1630.22,-197.48 1634.33,-187.71 1625.03,-192.78 1630.22,-197.48"/>
</g>
<!-- Node29&#45;&gt;Node25 -->
<g id="edge73" class="edge">
<title>Node29&#45;&gt;Node25</title>
<path fill="none" stroke="midnightblue" d="M1247.45,-448.46C1271.74,-441.24 1304.66,-429.29 1330,-412 1385.87,-373.89 1408.43,-363.01 1433,-300 1454.81,-244.07 1423.39,-172.94 1406.1,-140.52"/>
<polygon fill="midnightblue" stroke="midnightblue" points="1409.16,-138.82 1401.26,-131.76 1403.03,-142.21 1409.16,-138.82"/>
</g>
<!-- Node29&#45;&gt;Node26 -->
<g id="edge77" class="edge">
<title>Node29&#45;&gt;Node26</title>
<path fill="none" stroke="midnightblue" d="M1201.53,-448.37C1179.76,-430.05 1136.38,-387.05 1115.39,-363.36"/>
<polygon fill="midnightblue" stroke="midnightblue" points="1117.91,-360.92 1108.76,-355.59 1112.59,-365.47 1117.91,-360.92"/>
</g>
<!-- Node29&#45;&gt;Node28 -->
<g id="edge74" class="edge">
<title>Node29&#45;&gt;Node28</title>
<path fill="none" stroke="midnightblue" d="M1258.1,-449.9C1321.9,-439.56 1436.82,-420.64 1478,-412 1479.28,-411.73 1480.58,-411.45 1481.89,-411.16"/>
<polygon fill="midnightblue" stroke="midnightblue" points="1483.04,-414.48 1491.98,-408.79 1481.44,-407.67 1483.04,-414.48"/>
</g>
<!-- Node30 -->
<g id="node30" class="node">
<title>Node30</title>
<g id="a_node30"><a xlink:title=" ">
<polygon fill="none" stroke="#bfbfbf" points="1246.5,-392.5 1246.5,-411.5 1321.5,-411.5 1321.5,-392.5 1246.5,-392.5"/>
<text text-anchor="middle" x="1284" y="-399.5" font-family="Helvetica,sans-Serif" font-size="10.00">petscerror.h</text>
</a>
</g>
</g>
<!-- Node29&#45;&gt;Node30 -->
<g id="edge69" class="edge">
<title>Node29&#45;&gt;Node30</title>
<path fill="none" stroke="midnightblue" d="M1225.25,-448.32C1235.8,-440.18 1251.8,-427.84 1264.44,-418.09"/>
<polygon fill="midnightblue" stroke="midnightblue" points="1266.77,-420.71 1272.55,-411.83 1262.49,-415.17 1266.77,-420.71"/>
</g>
<!-- Node31&#45;&gt;Node3 -->
<g id="edge85" class="edge">
<title>Node31&#45;&gt;Node3</title>
<path fill="none" stroke="midnightblue" d="M1372.63,-168.4C1429.68,-154.53 1547.14,-127.25 1648,-112 1806.49,-88.03 1996.48,-74.74 2082.14,-69.57"/>
<polygon fill="midnightblue" stroke="midnightblue" points="2082.53,-73.05 2092.3,-68.96 2082.11,-66.06 2082.53,-73.05"/>
</g>
<!-- Node31&#45;&gt;Node8 -->
<g id="edge81" class="edge">
<title>Node31&#45;&gt;Node8</title>
<path fill="none" stroke="midnightblue" d="M1336.01,-168.43C1334.03,-159.42 1331.13,-144.8 1330,-132 1326.86,-96.44 1329.37,-79.78 1356,-56 1376.58,-37.62 1404.89,-26.72 1430.28,-20.26"/>
<polygon fill="midnightblue" stroke="midnightblue" points="1431.28,-23.62 1440.21,-17.92 1429.67,-16.81 1431.28,-23.62"/>
</g>
<!-- Node31&#45;&gt;Node13 -->
<g id="edge86" class="edge">
<title>Node31&#45;&gt;Node13</title>
<path fill="none" stroke="midnightblue" d="M1365.8,-187.55C1450.75,-213.88 1705.82,-294.46 1782,-336 1823.44,-358.6 1866,-353.79 1866,-401 1866,-459 1866,-459 1866,-459 1866,-494.3 1845.28,-531.21 1831.36,-552.04"/>
<polygon fill="midnightblue" stroke="midnightblue" points="1828.37,-550.2 1825.54,-560.41 1834.12,-554.2 1828.37,-550.2"/>
</g>
<!-- Node31&#45;&gt;Node14 -->
<g id="edge80" class="edge">
<title>Node31&#45;&gt;Node14</title>
<path fill="none" stroke="midnightblue" d="M1360.44,-168.37C1410.98,-148.93 1533.85,-101.67 1592.21,-79.23"/>
<polygon fill="midnightblue" stroke="midnightblue" points="1593.59,-82.45 1601.66,-75.59 1591.07,-75.91 1593.59,-82.45"/>
</g>
<!-- Node31&#45;&gt;Node15 -->
<g id="edge83" class="edge">
<title>Node31&#45;&gt;Node15</title>
<path fill="none" stroke="midnightblue" d="M1386.04,-169.87C1390.76,-169.22 1395.47,-168.58 1400,-168 1528.98,-151.39 1681.82,-135.15 1755.67,-127.52"/>
<polygon fill="midnightblue" stroke="midnightblue" points="1756.39,-130.96 1765.98,-126.46 1755.67,-124 1756.39,-130.96"/>
</g>
<!-- Node31&#45;&gt;Node20 -->
<g id="edge84" class="edge">
<title>Node31&#45;&gt;Node20</title>
<path fill="none" stroke="midnightblue" d="M1324.24,-168.38C1302.63,-155.08 1259.15,-129.3 1220,-112 1188.19,-97.94 1150.51,-85.49 1123.57,-77.27"/>
<polygon fill="midnightblue" stroke="midnightblue" points="1124.39,-73.86 1113.81,-74.33 1122.38,-80.57 1124.39,-73.86"/>
</g>
<!-- Node31&#45;&gt;Node24 -->
<g id="edge82" class="edge">
<title>Node31&#45;&gt;Node24</title>
<path fill="none" stroke="midnightblue" d="M1335.92,-168.46C1333.23,-155.5 1329.9,-130.42 1339,-112 1345.5,-98.85 1357.86,-88.36 1369.42,-80.82"/>
<polygon fill="midnightblue" stroke="midnightblue" points="1371.24,-83.81 1377.99,-75.64 1367.62,-77.82 1371.24,-83.81"/>
</g>
<!-- Node31&#45;&gt;Node25 -->
<g id="edge87" class="edge">
<title>Node31&#45;&gt;Node25</title>
<path fill="none" stroke="midnightblue" d="M1347.32,-168.32C1355.89,-160.34 1368.81,-148.31 1379.19,-138.65"/>
<polygon fill="midnightblue" stroke="midnightblue" points="1381.58,-141.21 1386.51,-131.83 1376.81,-136.09 1381.58,-141.21"/>
</g>
<!-- Node32&#45;&gt;Node2 -->
<g id="edge103" class="edge">
<title>Node32&#45;&gt;Node2</title>
<path fill="none" stroke="midnightblue" d="M1424.06,-296.25C1500.28,-309.2 1658,-349.78 1658,-457 1658,-515 1658,-515 1658,-515 1658,-547.2 1658,-584.7 1655.43,-606.55"/>
<polygon fill="midnightblue" stroke="midnightblue" points="1651.97,-606.01 1653.84,-616.44 1658.88,-607.13 1651.97,-606.01"/>
</g>
<!-- Node32&#45;&gt;Node3 -->
<g id="edge98" class="edge">
<title>Node32&#45;&gt;Node3</title>
<path fill="none" stroke="midnightblue" d="M1424.21,-287.78C1489.86,-284.92 1623.6,-275.4 1732,-244 1752.24,-238.14 1755.16,-231.12 1775,-224 1835.07,-202.45 1855.4,-213.27 1914,-188 1972.32,-162.85 1979.44,-142.77 2035,-112 2056.25,-100.23 2081.03,-88.33 2099.67,-79.72"/>
<polygon fill="midnightblue" stroke="midnightblue" points="2101.17,-82.88 2108.81,-75.54 2098.26,-76.52 2101.17,-82.88"/>
</g>
<!-- Node32&#45;&gt;Node8 -->
<g id="edge90" class="edge">
<title>Node32&#45;&gt;Node8</title>
<path fill="none" stroke="midnightblue" d="M1424.02,-282.77C1467.07,-275.54 1537.25,-262.25 1596,-244 1711.11,-208.24 1779.63,-234.53 1843,-132 1909.37,-24.61 1669.47,-10.66 1552.08,-10.07"/>
<polygon fill="midnightblue" stroke="midnightblue" points="1551.8,-6.57 1541.8,-10.06 1551.79,-13.57 1551.8,-6.57"/>
</g>
<!-- Node32&#45;&gt;Node10 -->
<g id="edge91" class="edge">
<title>Node32&#45;&gt;Node10</title>
<path fill="none" stroke="midnightblue" d="M1368.07,-280.35C1352.29,-271.62 1327.56,-257.54 1307,-244 1283.24,-228.36 1230.18,-179.12 1204,-168 878.18,-29.68 439.48,-13.01 310.87,-11.17"/>
<polygon fill="midnightblue" stroke="midnightblue" points="310.81,-7.67 300.76,-11.05 310.72,-14.67 310.81,-7.67"/>
</g>
<!-- Node32&#45;&gt;Node13 -->
<g id="edge102" class="edge">
<title>Node32&#45;&gt;Node13</title>
<path fill="none" stroke="midnightblue" d="M1424.34,-292.42C1533.89,-297.48 1828,-319.01 1828,-401 1828,-459 1828,-459 1828,-459 1828,-491.2 1828,-528.7 1825.43,-550.55"/>
<polygon fill="midnightblue" stroke="midnightblue" points="1821.97,-550.01 1823.84,-560.44 1828.88,-551.13 1821.97,-550.01"/>
</g>
<!-- Node32&#45;&gt;Node15 -->
<g id="edge95" class="edge">
<title>Node32&#45;&gt;Node15</title>
<path fill="none" stroke="midnightblue" d="M1421.59,-280.4C1481.92,-265.85 1603.28,-233.45 1699,-188 1729.06,-173.73 1760.88,-152 1780.6,-137.65"/>
<polygon fill="midnightblue" stroke="midnightblue" points="1782.78,-140.38 1788.75,-131.63 1778.63,-134.75 1782.78,-140.38"/>
</g>
<!-- Node32&#45;&gt;Node17 -->
<g id="edge105" class="edge">
<title>Node32&#45;&gt;Node17</title>
<path fill="none" stroke="midnightblue" d="M1415.18,-299.51C1472.99,-316.79 1587.21,-358.9 1545,-412 1474.84,-500.24 1122.2,-512.22 972.44,-513.26"/>
<polygon fill="midnightblue" stroke="midnightblue" points="971.99,-509.76 962.01,-513.32 972.03,-516.76 971.99,-509.76"/>
</g>
<!-- Node32&#45;&gt;Node18 -->
<g id="edge89" class="edge">
<title>Node32&#45;&gt;Node18</title>
<path fill="none" stroke="midnightblue" d="M1343.68,-289C1244.22,-288.36 979.52,-282.81 763,-244 693.67,-231.57 615.13,-206.02 571.91,-190.92"/>
<polygon fill="midnightblue" stroke="midnightblue" points="573.07,-187.62 562.48,-187.59 570.75,-194.22 573.07,-187.62"/>
</g>
<!-- Node32&#45;&gt;Node19 -->
<g id="edge92" class="edge">
<title>Node32&#45;&gt;Node19</title>
<path fill="none" stroke="midnightblue" d="M1343.8,-288.01C1254.87,-285.3 1035.02,-275.68 854,-244 778.35,-230.76 691.95,-204.87 645.6,-190.07"/>
<polygon fill="midnightblue" stroke="midnightblue" points="646.66,-186.73 636.07,-187 644.51,-193.4 646.66,-186.73"/>
</g>
<!-- Node32&#45;&gt;Node20 -->
<g id="edge93" class="edge">
<title>Node32&#45;&gt;Node20</title>
<path fill="none" stroke="midnightblue" d="M1374.36,-280.44C1351.37,-260.14 1291.25,-207.84 1238,-168 1194.22,-135.25 1140.59,-100.32 1110.77,-81.33"/>
<polygon fill="midnightblue" stroke="midnightblue" points="1112.29,-78.14 1101.97,-75.74 1108.54,-84.06 1112.29,-78.14"/>
</g>
<!-- Node32&#45;&gt;Node21 -->
<g id="edge94" class="edge">
<title>Node32&#45;&gt;Node21</title>
<path fill="none" stroke="midnightblue" d="M1343.85,-287.38C1263.78,-283.63 1078.78,-272.42 926,-244 916.3,-242.2 795.98,-208.51 731.39,-190.37"/>
<polygon fill="midnightblue" stroke="midnightblue" points="732.1,-186.93 721.53,-187.59 730.21,-193.67 732.1,-186.93"/>
</g>
<!-- Node32&#45;&gt;Node22 -->
<g id="edge96" class="edge">
<title>Node32&#45;&gt;Node22</title>
<path fill="none" stroke="midnightblue" d="M1344,-288.97C1269.02,-287.97 1102.87,-281.29 969,-244 948.7,-238.34 945.44,-232.15 926,-224 897.33,-211.98 864.2,-199.67 840.02,-190.97"/>
<polygon fill="midnightblue" stroke="midnightblue" points="841.17,-187.67 830.58,-187.59 838.81,-194.26 841.17,-187.67"/>
</g>
<!-- Node32&#45;&gt;Node23 -->
<g id="edge99" class="edge">
<title>Node32&#45;&gt;Node23</title>
<path fill="none" stroke="midnightblue" d="M1404.24,-280.37C1449.55,-261.05 1559.3,-214.26 1612.33,-191.65"/>
<polygon fill="midnightblue" stroke="midnightblue" points="1614.02,-194.73 1621.85,-187.59 1611.28,-188.29 1614.02,-194.73"/>
</g>
<!-- Node32&#45;&gt;Node25 -->
<g id="edge100" class="edge">
<title>Node32&#45;&gt;Node25</title>
<path fill="none" stroke="midnightblue" d="M1385.21,-280.38C1387.6,-262.96 1392.87,-222.33 1395,-188 1395.96,-172.49 1396.18,-154.87 1396.17,-141.88"/>
<polygon fill="midnightblue" stroke="midnightblue" points="1399.67,-141.82 1396.12,-131.84 1392.67,-141.86 1399.67,-141.82"/>
</g>
<!-- Node32&#45;&gt;Node27 -->
<g id="edge97" class="edge">
<title>Node32&#45;&gt;Node27</title>
<path fill="none" stroke="midnightblue" d="M1350.37,-280.48C1322.26,-272.75 1281.51,-260.1 1248,-244 1218.22,-229.69 1186.71,-207.97 1167.2,-193.63"/>
<polygon fill="midnightblue" stroke="midnightblue" points="1169.24,-190.78 1159.13,-187.62 1165.06,-196.4 1169.24,-190.78"/>
</g>
<!-- Node32&#45;&gt;Node28 -->
<g id="edge101" class="edge">
<title>Node32&#45;&gt;Node28</title>
<path fill="none" stroke="midnightblue" d="M1394.15,-299.59C1416.13,-318.19 1468.37,-362.39 1496.05,-385.82"/>
<polygon fill="midnightblue" stroke="midnightblue" points="1493.9,-388.58 1503.8,-392.37 1498.43,-383.24 1493.9,-388.58"/>
</g>
<!-- Node32&#45;&gt;Node29 -->
<g id="edge104" class="edge">
<title>Node32&#45;&gt;Node29</title>
<path fill="none" stroke="midnightblue" d="M1364.4,-299.51C1333.11,-314.05 1271.87,-346.55 1237,-392 1226.54,-405.64 1220.57,-424.43 1217.36,-438.3"/>
<polygon fill="midnightblue" stroke="midnightblue" points="1213.91,-437.68 1215.33,-448.18 1220.77,-439.09 1213.91,-437.68"/>
</g>
<!-- Node32&#45;&gt;Node31 -->
<g id="edge106" class="edge">
<title>Node32&#45;&gt;Node31</title>
<path fill="none" stroke="midnightblue" d="M1380.39,-280.37C1372.9,-262.46 1355.53,-220.92 1345.51,-196.95"/>
<polygon fill="midnightblue" stroke="midnightblue" points="1348.68,-195.47 1341.59,-187.59 1342.22,-198.17 1348.68,-195.47"/>
</g>
<!-- Node33 -->
<g id="node33" class="node">
<title>Node33</title>
<g id="a_node33"><a xlink:href="BC__Handlers_8h.html" target="_top" xlink:title=" ">
<polygon fill="none" stroke="black" points="1784,-224.5 1784,-243.5 1872,-243.5 1872,-224.5 1784,-224.5"/>
<text text-anchor="middle" x="1828" y="-231.5" font-family="Helvetica,sans-Serif" font-size="10.00">BC_Handlers.h</text>
</a>
</g>
</g>
<!-- Node32&#45;&gt;Node33 -->
<g id="edge107" class="edge">
<title>Node32&#45;&gt;Node33</title>
<path fill="none" stroke="midnightblue" d="M1424.14,-284.23C1493.19,-276.56 1638.32,-260.66 1761,-244 1765.15,-243.44 1769.45,-242.82 1773.8,-242.19"/>
<polygon fill="midnightblue" stroke="midnightblue" points="1774.59,-245.61 1783.97,-240.69 1773.56,-238.69 1774.59,-245.61"/>
</g>
<!-- Node34 -->
<g id="node34" class="node">
<title>Node34</title>
<g id="a_node34"><a xlink:href="wallfunction_8h.html" target="_top" xlink:title=" ">
<polygon fill="none" stroke="black" points="978,-224.5 978,-243.5 1064,-243.5 1064,-224.5 978,-224.5"/>
<text text-anchor="middle" x="1021" y="-231.5" font-family="Helvetica,sans-Serif" font-size="10.00">wallfunction.h</text>
</a>
</g>
</g>
<!-- Node32&#45;&gt;Node34 -->
<g id="edge111" class="edge">
<title>Node32&#45;&gt;Node34</title>
<path fill="none" stroke="midnightblue" d="M1343.97,-283.67C1278.15,-274.34 1147.39,-254.93 1073.99,-243.64"/>
<polygon fill="midnightblue" stroke="midnightblue" points="1074.44,-240.17 1064.02,-242.11 1073.37,-247.09 1074.44,-240.17"/>
</g>
<!-- Node33&#45;&gt;Node3 -->
<g id="edge108" class="edge">
<title>Node33&#45;&gt;Node3</title>
<path fill="none" stroke="midnightblue" d="M1872.08,-230.28C1934.7,-223.92 2048.51,-202.71 2109,-132 2120.1,-119.03 2124.72,-99.86 2126.64,-85.7"/>
<polygon fill="midnightblue" stroke="midnightblue" points="2130.13,-85.94 2127.67,-75.63 2123.17,-85.22 2130.13,-85.94"/>
</g>
<!-- Node33&#45;&gt;Node13 -->
<g id="edge110" class="edge">
<title>Node33&#45;&gt;Node13</title>
<path fill="none" stroke="midnightblue" d="M1858.49,-243.59C1877.96,-250.51 1902.39,-262.09 1918,-280 2147.29,-542.95 2017.79,-493.32 1994,-524 1977.74,-544.97 1906.52,-557.88 1860.1,-564.22"/>
<polygon fill="midnightblue" stroke="midnightblue" points="1859.49,-560.77 1850.03,-565.55 1860.4,-567.71 1859.49,-560.77"/>
</g>
<!-- Node33&#45;&gt;Node32 -->
<g id="edge109" class="edge">
<title>Node33&#45;&gt;Node32</title>
<path fill="none" stroke="midnightblue" d="M1783.91,-243.32C1782.26,-243.55 1780.62,-243.78 1779,-244 1655.61,-260.76 1509.5,-276.74 1434.19,-284.36"/>
<polygon fill="midnightblue" stroke="midnightblue" points="1433.65,-280.9 1424.05,-285.38 1434.35,-287.86 1433.65,-280.9"/>
</g>
<!-- Node34&#45;&gt;Node2 -->
<g id="edge126" class="edge">
<title>Node34&#45;&gt;Node2</title>
<path fill="none" stroke="midnightblue" d="M977.87,-237.98C906.06,-243.52 765.58,-256.99 722,-280 647.56,-319.31 641.09,-406.91 699,-468 829.86,-606.04 1478.79,-622.73 1621.3,-624.73"/>
<polygon fill="midnightblue" stroke="midnightblue" points="1621.34,-628.23 1631.39,-624.86 1621.43,-621.23 1621.34,-628.23"/>
</g>
<!-- Node34&#45;&gt;Node3 -->
<g id="edge121" class="edge">
<title>Node34&#45;&gt;Node3</title>
<path fill="none" stroke="midnightblue" d="M1064.15,-229.43C1134.01,-223.29 1276.07,-209.29 1395,-188 1538.04,-162.39 1569.81,-136.77 1713,-112 1845.99,-88.99 2005.12,-75.64 2081.97,-70.08"/>
<polygon fill="midnightblue" stroke="midnightblue" points="2082.53,-73.55 2092.26,-69.34 2082.04,-66.56 2082.53,-73.55"/>
</g>
<!-- Node34&#45;&gt;Node8 -->
<g id="edge113" class="edge">
<title>Node34&#45;&gt;Node8</title>
<path fill="none" stroke="midnightblue" d="M1019.26,-224.5C1013.84,-195.28 1000.6,-98.47 1053,-56 1081.69,-32.75 1316.58,-18.96 1430.07,-13.6"/>
<polygon fill="midnightblue" stroke="midnightblue" points="1430.51,-17.08 1440.33,-13.12 1430.18,-10.09 1430.51,-17.08"/>
</g>
<!-- Node34&#45;&gt;Node10 -->
<g id="edge114" class="edge">
<title>Node34&#45;&gt;Node10</title>
<path fill="none" stroke="midnightblue" d="M1004.16,-224.49C977.21,-211.11 922.47,-184.94 874,-168 665.31,-95.09 405.46,-38.15 310.72,-18.45"/>
<polygon fill="midnightblue" stroke="midnightblue" points="311.27,-15 300.77,-16.4 309.86,-21.85 311.27,-15"/>
</g>
<!-- Node34&#45;&gt;Node13 -->
<g id="edge125" class="edge">
<title>Node34&#45;&gt;Node13</title>
<path fill="none" stroke="midnightblue" d="M1021.12,-243.56C1021.47,-256.13 1022.83,-280.24 1028,-300 1052.12,-392.13 1075.85,-425.36 1161,-468 1270.69,-522.92 1650.92,-556.21 1777.58,-565.97"/>
<polygon fill="midnightblue" stroke="midnightblue" points="1777.42,-569.47 1787.65,-566.74 1777.95,-562.49 1777.42,-569.47"/>
</g>
<!-- Node34&#45;&gt;Node15 -->
<g id="edge118" class="edge">
<title>Node34&#45;&gt;Node15</title>
<path fill="none" stroke="midnightblue" d="M1064.26,-228.35C1133.99,-220.74 1275.51,-204.77 1395,-188 1526.68,-169.52 1681.72,-143.42 1756,-130.64"/>
<polygon fill="midnightblue" stroke="midnightblue" points="1756.67,-134.08 1765.93,-128.93 1755.48,-127.18 1756.67,-134.08"/>
</g>
<!-- Node34&#45;&gt;Node17 -->
<g id="edge128" class="edge">
<title>Node34&#45;&gt;Node17</title>
<path fill="none" stroke="midnightblue" d="M977.98,-239.87C887.13,-251.34 684,-283.84 684,-345 684,-403 684,-403 684,-403 684,-472.46 772.59,-498.06 837.59,-507.5"/>
<polygon fill="midnightblue" stroke="midnightblue" points="837.42,-511 847.8,-508.87 838.36,-504.07 837.42,-511"/>
</g>
<!-- Node34&#45;&gt;Node18 -->
<g id="edge112" class="edge">
<title>Node34&#45;&gt;Node18</title>
<path fill="none" stroke="midnightblue" d="M977.8,-230.33C900.13,-225.15 731.66,-212.21 579.5,-187.88"/>
<polygon fill="midnightblue" stroke="midnightblue" points="579.93,-184.4 569.5,-186.26 578.81,-191.31 579.93,-184.4"/>
</g>
<!-- Node34&#45;&gt;Node19 -->
<g id="edge115" class="edge">
<title>Node34&#45;&gt;Node19</title>
<path fill="none" stroke="midnightblue" d="M977.82,-229.91C909.43,-224.56 771.88,-211.98 646.23,-187.97"/>
<polygon fill="midnightblue" stroke="midnightblue" points="646.54,-184.47 636.05,-186 645.2,-191.34 646.54,-184.47"/>
</g>
<!-- Node34&#45;&gt;Node20 -->
<g id="edge116" class="edge">
<title>Node34&#45;&gt;Node20</title>
<path fill="none" stroke="midnightblue" d="M1020.02,-224.34C1018.89,-211.65 1017.88,-187.39 1024,-168 1034.39,-135.04 1058.34,-102.23 1073.81,-83.32"/>
<polygon fill="midnightblue" stroke="midnightblue" points="1076.5,-85.56 1080.25,-75.65 1071.14,-81.06 1076.5,-85.56"/>
</g>
<!-- Node34&#45;&gt;Node21 -->
<g id="edge117" class="edge">
<title>Node34&#45;&gt;Node21</title>
<path fill="none" stroke="midnightblue" d="M977.62,-226.62C923.8,-218.6 829,-204.12 738.06,-188.14"/>
<polygon fill="midnightblue" stroke="midnightblue" points="738.59,-184.68 728.14,-186.38 737.37,-191.57 738.59,-184.68"/>
</g>
<!-- Node34&#45;&gt;Node22 -->
<g id="edge119" class="edge">
<title>Node34&#45;&gt;Node22</title>
<path fill="none" stroke="midnightblue" d="M986.93,-224.44C949.82,-215.12 890.34,-200.18 849.79,-190"/>
<polygon fill="midnightblue" stroke="midnightblue" points="850.46,-186.56 839.91,-187.52 848.75,-193.35 850.46,-186.56"/>
</g>
<!-- Node34&#45;&gt;Node23 -->
<g id="edge122" class="edge">
<title>Node34&#45;&gt;Node23</title>
<path fill="none" stroke="midnightblue" d="M1064.17,-229.25C1173.2,-219.77 1459.7,-194.85 1583.57,-184.08"/>
<polygon fill="midnightblue" stroke="midnightblue" points="1583.96,-187.56 1593.62,-183.21 1583.36,-180.59 1583.96,-187.56"/>
</g>
<!-- Node34&#45;&gt;Node25 -->
<g id="edge123" class="edge">
<title>Node34&#45;&gt;Node25</title>
<path fill="none" stroke="midnightblue" d="M1020.75,-224.26C1020.87,-210.07 1023.36,-182.19 1040,-168 1083.6,-130.82 1248.38,-123.84 1337.66,-122.85"/>
<polygon fill="midnightblue" stroke="midnightblue" points="1337.93,-126.35 1347.9,-122.76 1337.87,-119.35 1337.93,-126.35"/>
</g>
<!-- Node34&#45;&gt;Node27 -->
<g id="edge120" class="edge">
<title>Node34&#45;&gt;Node27</title>
<path fill="none" stroke="midnightblue" d="M1041.12,-224.44C1062.02,-215.56 1094.93,-201.56 1118.72,-191.45"/>
<polygon fill="midnightblue" stroke="midnightblue" points="1120.14,-194.65 1127.97,-187.52 1117.4,-188.21 1120.14,-194.65"/>
</g>
<!-- Node34&#45;&gt;Node28 -->
<g id="edge124" class="edge">
<title>Node34&#45;&gt;Node28</title>
<path fill="none" stroke="midnightblue" d="M1046.26,-243.51C1128.9,-271.33 1391.1,-359.62 1482.34,-390.34"/>
<polygon fill="midnightblue" stroke="midnightblue" points="1481.26,-393.67 1491.86,-393.54 1483.5,-387.04 1481.26,-393.67"/>
</g>
<!-- Node34&#45;&gt;Node29 -->
<g id="edge127" class="edge">
<title>Node34&#45;&gt;Node29</title>
<path fill="none" stroke="midnightblue" d="M1022.61,-243.76C1026.84,-264.94 1039.98,-319.84 1068,-356 1099.79,-397.02 1152.92,-427.77 1185.57,-444.02"/>
<polygon fill="midnightblue" stroke="midnightblue" points="1184.07,-447.18 1194.6,-448.4 1187.13,-440.89 1184.07,-447.18"/>
</g>
<!-- Node34&#45;&gt;Node31 -->
<g id="edge129" class="edge">
<title>Node34&#45;&gt;Node31</title>
<path fill="none" stroke="midnightblue" d="M1064.08,-225.66C1119.89,-216.16 1217.38,-199.55 1279.75,-188.92"/>
<polygon fill="midnightblue" stroke="midnightblue" points="1280.55,-192.34 1289.82,-187.21 1279.38,-185.44 1280.55,-192.34"/>
</g>
<!-- Node34&#45;&gt;Node32 -->
<g id="edge130" class="edge">
<title>Node34&#45;&gt;Node32</title>
<path fill="none" stroke="midnightblue" d="M1064.06,-240.76C1131.59,-250.36 1261.82,-269.7 1333.6,-280.76"/>
<polygon fill="midnightblue" stroke="midnightblue" points="1333.34,-284.26 1343.75,-282.32 1334.41,-277.34 1333.34,-284.26"/>
</g>
<!-- Node35&#45;&gt;Node2 -->
<g id="edge136" class="edge">
<title>Node35&#45;&gt;Node2</title>
<path fill="none" stroke="midnightblue" d="M2100.01,-126.03C2171.66,-135.47 2356,-171.21 2356,-289 2356,-515 2356,-515 2356,-515 2356,-585 1807.85,-617.01 1676.87,-623.66"/>
<polygon fill="midnightblue" stroke="midnightblue" points="1676.64,-620.17 1666.83,-624.16 1676.99,-627.16 1676.64,-620.17"/>
</g>
<!-- Node35&#45;&gt;Node3 -->
<g id="edge133" class="edge">
<title>Node35&#45;&gt;Node3</title>
<path fill="none" stroke="midnightblue" d="M2081,-112.32C2089.19,-104.42 2101.51,-92.55 2111.47,-82.94"/>
<polygon fill="midnightblue" stroke="midnightblue" points="2114.07,-85.29 2118.84,-75.83 2109.21,-80.26 2114.07,-85.29"/>
</g>
<!-- Node35&#45;&gt;Node10 -->
<g id="edge135" class="edge">
<title>Node35&#45;&gt;Node10</title>
<path fill="none" stroke="midnightblue" d="M2043.61,-115.29C1976.87,-102.13 1804.61,-69.77 1659,-56 1386.18,-30.2 502.09,-14.68 310.74,-11.58"/>
<polygon fill="midnightblue" stroke="midnightblue" points="310.69,-8.08 300.64,-11.42 310.58,-15.08 310.69,-8.08"/>
</g>
<!-- Node35&#45;&gt;Node13 -->
<g id="edge134" class="edge">
<title>Node35&#45;&gt;Node13</title>
<path fill="none" stroke="midnightblue" d="M2100.07,-128.95C2142.61,-139.66 2222.04,-166.61 2256,-224 2328.65,-346.75 2254.57,-436.4 2142,-524 2098.9,-557.54 1937.32,-566.09 1860.31,-568.26"/>
<polygon fill="midnightblue" stroke="midnightblue" points="1859.93,-564.77 1850.03,-568.53 1860.12,-571.77 1859.93,-564.77"/>
</g>
<!-- Node35&#45;&gt;Node14 -->
<g id="edge132" class="edge">
<title>Node35&#45;&gt;Node14</title>
<path fill="none" stroke="midnightblue" d="M2043.98,-117.62C1966.1,-108.24 1747.11,-81.84 1660.2,-71.36"/>
<polygon fill="midnightblue" stroke="midnightblue" points="1660.38,-67.86 1650.03,-70.14 1659.54,-74.81 1660.38,-67.86"/>
</g>
<!-- Node35&#45;&gt;Node26 -->
<g id="edge137" class="edge">
<title>Node35&#45;&gt;Node26</title>
<path fill="none" stroke="midnightblue" d="M2062.07,-131.52C2035.08,-154.16 1957.27,-215.98 1881,-244 1741.76,-295.15 1275.83,-332.45 1140.9,-342.38"/>
<polygon fill="midnightblue" stroke="midnightblue" points="1140.4,-338.9 1130.68,-343.12 1140.91,-345.89 1140.4,-338.9"/>
</g>
</g>
</svg>
