<?xml version="1.0" encoding="UTF-8" standalone="no"?>
<!DOCTYPE svg PUBLIC "-//W3C//DTD SVG 1.1//EN"
 "http://www.w3.org/Graphics/SVG/1.1/DTD/svg11.dtd">
<!-- Generated by graphviz version 2.43.0 (0)
 -->
<!-- Title: rhs.h Pages: 1 -->
<svg width="314pt" height="308pt"
 viewBox="0.00 0.00 314.00 308.00" xmlns="http://www.w3.org/2000/svg" xmlns:xlink="http://www.w3.org/1999/xlink">
<g id="graph0" class="graph" transform="scale(1 1) rotate(0) translate(4 304)">
<title>rhs.h</title>
<!-- Node1 -->
<g id="node1" class="node">
<title>Node1</title>
<g id="a_node1"><a xlink:title=" ">
<polygon fill="#bfbfbf" stroke="black" points="214.5,-280.5 214.5,-299.5 255.5,-299.5 255.5,-280.5 214.5,-280.5"/>
<text text-anchor="middle" x="235" y="-287.5" font-family="Helvetica,sans-Serif" font-size="10.00">rhs.h</text>
</a>
</g>
</g>
<!-- Node2 -->
<g id="node2" class="node">
<title>Node2</title>
<g id="a_node2"><a xlink:href="implicitsolvers_8h.html" target="_top" xlink:title=" ">
<polygon fill="none" stroke="black" points="186,-224.5 186,-243.5 284,-243.5 284,-224.5 186,-224.5"/>
<text text-anchor="middle" x="235" y="-231.5" font-family="Helvetica,sans-Serif" font-size="10.00">implicitsolvers.h</text>
</a>
</g>
</g>
<!-- Node1&#45;&gt;Node2 -->
<g id="edge1" class="edge">
<title>Node1&#45;&gt;Node2</title>
<path fill="none" stroke="midnightblue" d="M235,-269.8C235,-260.91 235,-250.78 235,-243.75"/>
<polygon fill="midnightblue" stroke="midnightblue" points="231.5,-270.08 235,-280.08 238.5,-270.08 231.5,-270.08"/>
</g>
<!-- Node3 -->
<g id="node3" class="node">
<title>Node3</title>
<g id="a_node3"><a xlink:href="solvers_8h.html" target="_top" xlink:title=" ">
<polygon fill="none" stroke="black" points="112.5,-168.5 112.5,-187.5 173.5,-187.5 173.5,-168.5 112.5,-168.5"/>
<text text-anchor="middle" x="143" y="-175.5" font-family="Helvetica,sans-Serif" font-size="10.00">solvers.h</text>
</a>
</g>
</g>
<!-- Node1&#45;&gt;Node3 -->
<g id="edge12" class="edge">
<title>Node1&#45;&gt;Node3</title>
<path fill="none" stroke="midnightblue" d="M212.36,-274.86C200.78,-266.83 187.03,-256 177,-244 162.13,-226.22 151.22,-200.87 146.15,-187.7"/>
<polygon fill="midnightblue" stroke="midnightblue" points="210.45,-277.79 220.71,-280.43 214.33,-271.97 210.45,-277.79"/>
</g>
<!-- Node9 -->
<g id="node9" class="node">
<title>Node9</title>
<g id="a_node9"><a xlink:href="rhs_8c.html" target="_top" xlink:title=" ">
<polygon fill="none" stroke="black" points="266,-112.5 266,-131.5 306,-131.5 306,-112.5 266,-112.5"/>
<text text-anchor="middle" x="286" y="-119.5" font-family="Helvetica,sans-Serif" font-size="10.00">rhs.c</text>
</a>
</g>
</g>
<!-- Node1&#45;&gt;Node9 -->
<g id="edge13" class="edge">
<title>Node1&#45;&gt;Node9</title>
<path fill="none" stroke="midnightblue" d="M261.47,-275.26C273.22,-267.7 285.96,-257.16 293,-244 313.15,-206.33 296.94,-152.32 289.37,-131.57"/>
<polygon fill="midnightblue" stroke="midnightblue" points="259.57,-272.32 252.78,-280.46 263.16,-278.33 259.57,-272.32"/>
</g>
<!-- Node2&#45;&gt;Node3 -->
<g id="edge2" class="edge">
<title>Node2&#45;&gt;Node3</title>
<path fill="none" stroke="midnightblue" d="M211.45,-219.18C194.52,-209.24 172.22,-196.15 157.74,-187.65"/>
<polygon fill="midnightblue" stroke="midnightblue" points="209.82,-222.28 220.22,-224.32 213.37,-216.24 209.82,-222.28"/>
</g>
<!-- Node11 -->
<g id="node11" class="node">
<title>Node11</title>
<g id="a_node11"><a xlink:href="implicitsolvers_8c.html" target="_top" xlink:title=" ">
<polygon fill="none" stroke="black" points="191.5,-168.5 191.5,-187.5 288.5,-187.5 288.5,-168.5 191.5,-168.5"/>
<text text-anchor="middle" x="240" y="-175.5" font-family="Helvetica,sans-Serif" font-size="10.00">implicitsolvers.c</text>
</a>
</g>
</g>
<!-- Node2&#45;&gt;Node11 -->
<g id="edge11" class="edge">
<title>Node2&#45;&gt;Node11</title>
<path fill="none" stroke="midnightblue" d="M236.75,-214.1C237.58,-205.14 238.53,-194.86 239.19,-187.75"/>
<polygon fill="midnightblue" stroke="midnightblue" points="233.26,-213.8 235.83,-224.08 240.23,-214.45 233.26,-213.8"/>
</g>
<!-- Node4 -->
<g id="node4" class="node">
<title>Node4</title>
<g id="a_node4"><a xlink:href="simulation_8h.html" target="_top" xlink:title=" ">
<polygon fill="none" stroke="black" points="61.5,-112.5 61.5,-131.5 138.5,-131.5 138.5,-112.5 61.5,-112.5"/>
<text text-anchor="middle" x="100" y="-119.5" font-family="Helvetica,sans-Serif" font-size="10.00">simulation.h</text>
</a>
</g>
</g>
<!-- Node3&#45;&gt;Node4 -->
<g id="edge3" class="edge">
<title>Node3&#45;&gt;Node4</title>
<path fill="none" stroke="midnightblue" d="M129.58,-160.14C122.09,-150.74 113.06,-139.4 106.97,-131.75"/>
<polygon fill="midnightblue" stroke="midnightblue" points="126.93,-162.44 135.9,-168.08 132.41,-158.08 126.93,-162.44"/>
</g>
<!-- Node3&#45;&gt;Node9 -->
<g id="edge9" class="edge">
<title>Node3&#45;&gt;Node9</title>
<path fill="none" stroke="midnightblue" d="M175.32,-164.8C203.07,-154.31 242.23,-139.53 265.76,-130.64"/>
<polygon fill="midnightblue" stroke="midnightblue" points="173.78,-161.64 165.66,-168.44 176.25,-168.19 173.78,-161.64"/>
</g>
<!-- Node10 -->
<g id="node10" class="node">
<title>Node10</title>
<g id="a_node10"><a xlink:href="solvers_8c.html" target="_top" xlink:title=" ">
<polygon fill="none" stroke="black" points="157,-112.5 157,-131.5 217,-131.5 217,-112.5 157,-112.5"/>
<text text-anchor="middle" x="187" y="-119.5" font-family="Helvetica,sans-Serif" font-size="10.00">solvers.c</text>
</a>
</g>
</g>
<!-- Node3&#45;&gt;Node10 -->
<g id="edge10" class="edge">
<title>Node3&#45;&gt;Node10</title>
<path fill="none" stroke="midnightblue" d="M156.73,-160.14C164.4,-150.74 173.63,-139.4 179.87,-131.75"/>
<polygon fill="midnightblue" stroke="midnightblue" points="153.87,-158.12 150.27,-168.08 159.3,-162.54 153.87,-158.12"/>
</g>
<!-- Node5 -->
<g id="node5" class="node">
<title>Node5</title>
<g id="a_node5"><a xlink:href="initialcondition_8h.html" target="_top" xlink:title=" ">
<polygon fill="none" stroke="black" points="0,-56.5 0,-75.5 98,-75.5 98,-56.5 0,-56.5"/>
<text text-anchor="middle" x="49" y="-63.5" font-family="Helvetica,sans-Serif" font-size="10.00">initialcondition.h</text>
</a>
</g>
</g>
<!-- Node4&#45;&gt;Node5 -->
<g id="edge4" class="edge">
<title>Node4&#45;&gt;Node5</title>
<path fill="none" stroke="midnightblue" d="M79.23,-105.54C69.1,-95.91 58.07,-83.87 52.19,-75.83"/>
<polygon fill="midnightblue" stroke="midnightblue" points="76.94,-108.19 86.69,-112.32 81.65,-103.01 76.94,-108.19"/>
</g>
<!-- Node7 -->
<g id="node7" class="node">
<title>Node7</title>
<g id="a_node7"><a xlink:href="picsolver_8c.html" target="_top" xlink:title=" ">
<polygon fill="none" stroke="black" points="116.5,-56.5 116.5,-75.5 185.5,-75.5 185.5,-56.5 116.5,-56.5"/>
<text text-anchor="middle" x="151" y="-63.5" font-family="Helvetica,sans-Serif" font-size="10.00">picsolver.c</text>
</a>
</g>
</g>
<!-- Node4&#45;&gt;Node7 -->
<g id="edge7" class="edge">
<title>Node4&#45;&gt;Node7</title>
<path fill="none" stroke="midnightblue" d="M115.38,-104.72C124.37,-95.2 135.36,-83.56 142.74,-75.75"/>
<polygon fill="midnightblue" stroke="midnightblue" points="112.74,-102.41 108.42,-112.08 117.83,-107.22 112.74,-102.41"/>
</g>
<!-- Node8 -->
<g id="node8" class="node">
<title>Node8</title>
<g id="a_node8"><a xlink:href="simulation_8c.html" target="_top" xlink:title="Test program for DMSwarm interpolation using the fdf&#45;curvIB method. Provides the setup to start any s...">
<polygon fill="none" stroke="black" points="203.5,-56.5 203.5,-75.5 280.5,-75.5 280.5,-56.5 203.5,-56.5"/>
<text text-anchor="middle" x="242" y="-63.5" font-family="Helvetica,sans-Serif" font-size="10.00">simulation.c</text>
</a>
</g>
</g>
<!-- Node4&#45;&gt;Node8 -->
<g id="edge8" class="edge">
<title>Node4&#45;&gt;Node8</title>
<path fill="none" stroke="midnightblue" d="M132.16,-108.77C158.83,-98.63 196.07,-84.47 219.6,-75.52"/>
<polygon fill="midnightblue" stroke="midnightblue" points="130.6,-105.62 122.5,-112.44 133.09,-112.16 130.6,-105.62"/>
</g>
<!-- Node5&#45;&gt;Node4 -->
<g id="edge5" class="edge">
<title>Node5&#45;&gt;Node4</title>
<path fill="none" stroke="midnightblue" d="M69.83,-82.51C79.9,-92.1 90.86,-104.06 96.74,-112.08"/>
<polygon fill="midnightblue" stroke="midnightblue" points="72.15,-79.89 62.4,-75.75 67.44,-85.07 72.15,-79.89"/>
</g>
<!-- Node6 -->
<g id="node6" class="node">
<title>Node6</title>
<g id="a_node6"><a xlink:href="initialcondition_8c.html" target="_top" xlink:title="Test program for DMSwarm interpolation using the fdf&#45;curvIB method.">
<polygon fill="none" stroke="black" points="0,-0.5 0,-19.5 98,-19.5 98,-0.5 0,-0.5"/>
<text text-anchor="middle" x="49" y="-7.5" font-family="Helvetica,sans-Serif" font-size="10.00">initialcondition.c</text>
</a>
</g>
</g>
<!-- Node5&#45;&gt;Node6 -->
<g id="edge6" class="edge">
<title>Node5&#45;&gt;Node6</title>
<path fill="none" stroke="midnightblue" d="M49,-45.8C49,-36.91 49,-26.78 49,-19.75"/>
<polygon fill="midnightblue" stroke="midnightblue" points="45.5,-46.08 49,-56.08 52.5,-46.08 45.5,-46.08"/>
</g>
</g>
</svg>
