<?xml version="1.0" encoding="UTF-8" standalone="no"?>
<!DOCTYPE svg PUBLIC "-//W3C//DTD SVG 1.1//EN"
 "http://www.w3.org/Graphics/SVG/1.1/DTD/svg11.dtd">
<!-- Generated by graphviz version 2.43.0 (0)
 -->
<!-- Title: Viscous Pages: 1 -->
<svg width="540pt" height="72pt"
 viewBox="0.00 0.00 540.00 71.50" xmlns="http://www.w3.org/2000/svg" xmlns:xlink="http://www.w3.org/1999/xlink">
<g id="graph0" class="graph" transform="scale(1 1) rotate(0) translate(4 67.5)">
<title>Viscous</title>
<!-- Node1 -->
<g id="node1" class="node">
<title>Node1</title>
<g id="a_node1"><a xlink:title=" ">
<polygon fill="#bfbfbf" stroke="black" points="0,-19.5 0,-38.5 54,-38.5 54,-19.5 0,-19.5"/>
<text text-anchor="middle" x="27" y="-26.5" font-family="Helvetica,sans-Serif" font-size="10.00">Viscous</text>
</a>
</g>
</g>
<!-- Node2 -->
<g id="node2" class="node">
<title>Node2</title>
<g id="a_node2"><a xlink:href="rhs_8c.html#ad963b19ced6286425dc175745e4831ef" target="_top" xlink:title=" ">
<polygon fill="none" stroke="black" points="90,-38.5 90,-57.5 193,-57.5 193,-38.5 90,-38.5"/>
<text text-anchor="middle" x="141.5" y="-45.5" font-family="Helvetica,sans-Serif" font-size="10.00">Calculate_dxdydz</text>
</a>
</g>
</g>
<!-- Node1&#45;&gt;Node2 -->
<g id="edge1" class="edge">
<title>Node1&#45;&gt;Node2</title>
<path fill="none" stroke="midnightblue" d="M54.09,-33.41C61.83,-34.71 70.64,-36.2 79.61,-37.72"/>
<polygon fill="midnightblue" stroke="midnightblue" points="79.32,-41.22 89.76,-39.43 80.49,-34.31 79.32,-41.22"/>
</g>
<!-- Node5 -->
<g id="node5" class="node">
<title>Node5</title>
<g id="a_node5"><a xlink:href="wallfunction_8h.html#adc08703381597f75ccb620bf30d90ae1" target="_top" xlink:title=" ">
<polygon fill="none" stroke="black" points="122.5,-0.5 122.5,-19.5 160.5,-19.5 160.5,-0.5 122.5,-0.5"/>
<text text-anchor="middle" x="141.5" y="-7.5" font-family="Helvetica,sans-Serif" font-size="10.00">nu_t</text>
</a>
</g>
</g>
<!-- Node1&#45;&gt;Node5 -->
<g id="edge4" class="edge">
<title>Node1&#45;&gt;Node5</title>
<path fill="none" stroke="midnightblue" d="M54.09,-24.59C71.48,-21.66 94.33,-17.8 112.17,-14.79"/>
<polygon fill="midnightblue" stroke="midnightblue" points="112.99,-18.2 122.27,-13.08 111.83,-11.29 112.99,-18.2"/>
</g>
<!-- Node3 -->
<g id="node3" class="node">
<title>Node3</title>
<g id="a_node3"><a xlink:href="rhs_8c.html#a3b9843c09e4984afec9e44b685ef1a43" target="_top" xlink:title=" ">
<polygon fill="none" stroke="black" points="229,-38.5 229,-57.5 381,-57.5 381,-38.5 229,-38.5"/>
<text text-anchor="middle" x="305" y="-45.5" font-family="Helvetica,sans-Serif" font-size="10.00">Calculate_normal_and_area</text>
</a>
</g>
</g>
<!-- Node2&#45;&gt;Node3 -->
<g id="edge2" class="edge">
<title>Node2&#45;&gt;Node3</title>
<path fill="none" stroke="midnightblue" d="M193.16,-48C201.33,-48 209.99,-48 218.72,-48"/>
<polygon fill="midnightblue" stroke="midnightblue" points="218.98,-51.5 228.98,-48 218.98,-44.5 218.98,-51.5"/>
</g>
<!-- Node4 -->
<g id="node4" class="node">
<title>Node4</title>
<g id="a_node4"><a xlink:href="rhs_8c.html#a932a672b919024b4d158a3b3ba569ac5" target="_top" xlink:title=" ">
<polygon fill="none" stroke="black" points="417,-33 417,-63 532,-63 532,-33 417,-33"/>
<text text-anchor="start" x="425" y="-51" font-family="Helvetica,sans-Serif" font-size="10.00">Calculate_Covariant</text>
<text text-anchor="middle" x="474.5" y="-40" font-family="Helvetica,sans-Serif" font-size="10.00">_metrics</text>
</a>
</g>
</g>
<!-- Node3&#45;&gt;Node4 -->
<g id="edge3" class="edge">
<title>Node3&#45;&gt;Node4</title>
<path fill="none" stroke="midnightblue" d="M381.42,-48C389.72,-48 398.14,-48 406.33,-48"/>
<polygon fill="midnightblue" stroke="midnightblue" points="406.57,-51.5 416.57,-48 406.57,-44.5 406.57,-51.5"/>
</g>
</g>
</svg>
