<?xml version="1.0" encoding="UTF-8" standalone="no"?>
<!DOCTYPE svg PUBLIC "-//W3C//DTD SVG 1.1//EN"
 "http://www.w3.org/Graphics/SVG/1.1/DTD/svg11.dtd">
<!-- Generated by graphviz version 2.43.0 (0)
 -->
<!-- Title: Contra2Cart Pages: 1 -->
<!--zoomable 180 -->
<svg id="main" version="1.1" xmlns="http://www.w3.org/2000/svg" xmlns:xlink="http://www.w3.org/1999/xlink" xml:space="preserve" onload="init(evt)">
<style type="text/css"><![CDATA[
.edge:hover path { stroke: red; }
.edge:hover polygon { stroke: red; fill: red; }
]]></style>
<script type="text/javascript"><![CDATA[
var edges = document.getElementsByTagName('g');
if (edges && edges.length) {
  for (var i=0;i<edges.length;i++) {
    if (edges[i].id.substr(0,4)=='edge') {
      edges[i].setAttribute('class','edge');
    }
  }
}
]]></script>
        <defs>
                <circle id="rim" cx="0" cy="0" r="7"/>
                <circle id="rim2" cx="0" cy="0" r="3.5"/>
                <g id="zoomPlus">
                        <use xlink:href="#rim" fill="#404040">
                                <set attributeName="fill" to="#808080" begin="zoomplus.mouseover" end="zoomplus.mouseout"/>
                        </use>
                        <path d="M-4,0h8M0,-4v8" fill="none" stroke="white" stroke-width="1.5" pointer-events="none"/>
                </g>
                <g id="zoomMin">
                        <use xlink:href="#rim" fill="#404040">
                                <set attributeName="fill" to="#808080" begin="zoomminus.mouseover" end="zoomminus.mouseout"/>
                        </use>
                        <path d="M-4,0h8" fill="none" stroke="white" stroke-width="1.5" pointer-events="none"/>
                </g>
                <g id="dirArrow">
                        <path fill="none" stroke="white" stroke-width="1.5" d="M0,-3.0v7 M-2.5,-0.5L0,-3.0L2.5,-0.5"/>
                </g>
               <g id="resetDef">
                       <use xlink:href="#rim2" fill="#404040">
                               <set attributeName="fill" to="#808080" begin="reset.mouseover" end="reset.mouseout"/>
                       </use>
               </g>
        </defs>

<script type="text/javascript">
var viewWidth = 793;
var viewHeight = 180;
var sectionId = 'dynsection-5';
</script>
<script xlink:href="svgpan.js"/>
<svg id="graph" class="graph">
<g id="viewport">
<title>Contra2Cart</title>
<!-- Node1 -->
<g id="node1" class="node">
<title>Node1</title>
<g id="a_node1"><a xlink:title="Reconstructs Cartesian velocity (Ucat) at cell centers from contravariant velocity (Ucont) defined on...">
<polygon fill="#bfbfbf" stroke="black" points="710,-57.5 710,-76.5 785,-76.5 785,-57.5 710,-57.5"/>
<text text-anchor="middle" x="747.5" y="-64.5" font-family="Helvetica,sans-Serif" font-size="10.00">Contra2Cart</text>
</a>
</g>
</g>
<!-- Node2 -->
<g id="node2" class="node">
<title>Node2</title>
<g id="a_node2"><a xlink:href="initialcondition_8c.html#af6a26611066aa455efddcca2fd80fe35" target="_top" xlink:title="(HELPER) Finalizes a block&#39;s state by applying BCs, converting to Cartesian, and synchronizing ghost ...">
<polygon fill="none" stroke="black" points="413,-152.5 413,-171.5 519,-171.5 519,-152.5 413,-152.5"/>
<text text-anchor="middle" x="466" y="-159.5" font-family="Helvetica,sans-Serif" font-size="10.00">FinalizeBlockState</text>
</a>
</g>
</g>
<!-- Node1&#45;&gt;Node2 -->
<g id="edge1" class="edge">
<title>Node1&#45;&gt;Node2</title>
<path fill="none" stroke="midnightblue" d="M721.66,-81.5C707.91,-89.15 690.35,-98.3 674,-105 620.88,-126.77 556.76,-142.97 514.1,-152.43"/>
<polygon fill="midnightblue" stroke="midnightblue" points="723.52,-84.47 730.51,-76.5 720.08,-78.38 723.52,-84.47"/>
</g>
<!-- Node6 -->
<g id="node6" class="node">
<title>Node6</title>
<g id="a_node6"><a xlink:href="Boundaries_8c.html#adcd96cff4b9e15e03cdff9f5ea695dec" target="_top" xlink:title=" ">
<polygon fill="none" stroke="black" points="599,-76.5 599,-95.5 660,-95.5 660,-76.5 599,-76.5"/>
<text text-anchor="middle" x="629.5" y="-83.5" font-family="Helvetica,sans-Serif" font-size="10.00">FormBCS</text>
</a>
</g>
</g>
<!-- Node1&#45;&gt;Node6 -->
<g id="edge5" class="edge">
<title>Node1&#45;&gt;Node6</title>
<path fill="none" stroke="midnightblue" d="M699.83,-74.64C686.52,-76.82 672.39,-79.14 660.37,-81.11"/>
<polygon fill="midnightblue" stroke="midnightblue" points="700.49,-78.08 709.8,-73.01 699.36,-71.17 700.49,-78.08"/>
</g>
<!-- Node12 -->
<g id="node12" class="node">
<title>Node12</title>
<g id="a_node12"><a xlink:href="rhs_8c.html#ae8a0a7cb4587034d295f6c7f23d70465" target="_top" xlink:title="Computes the Right&#45;Hand&#45;Side (RHS) of the momentum equations.">
<polygon fill="none" stroke="black" points="585,-38.5 585,-57.5 674,-57.5 674,-38.5 585,-38.5"/>
<text text-anchor="middle" x="629.5" y="-45.5" font-family="Helvetica,sans-Serif" font-size="10.00">FormFunction1</text>
</a>
</g>
</g>
<!-- Node1&#45;&gt;Node12 -->
<g id="edge14" class="edge">
<title>Node1&#45;&gt;Node12</title>
<path fill="none" stroke="midnightblue" d="M699.75,-59.34C691.34,-57.96 682.6,-56.53 674.27,-55.17"/>
<polygon fill="midnightblue" stroke="midnightblue" points="699.36,-62.83 709.8,-60.99 700.49,-55.92 699.36,-62.83"/>
</g>
<!-- Node13 -->
<g id="node13" class="node">
<title>Node13</title>
<g id="a_node13"><a xlink:href="poisson_8c.html#a34a113dcc9ca606d914c3d021a4d85fc" target="_top" xlink:title="Performs the projection step to enforce an incompressible velocity field.">
<polygon fill="none" stroke="black" points="597,-0.5 597,-19.5 662,-19.5 662,-0.5 597,-0.5"/>
<text text-anchor="middle" x="629.5" y="-7.5" font-family="Helvetica,sans-Serif" font-size="10.00">Projection</text>
</a>
</g>
</g>
<!-- Node1&#45;&gt;Node13 -->
<g id="edge17" class="edge">
<title>Node1&#45;&gt;Node13</title>
<path fill="none" stroke="midnightblue" d="M720.23,-52.66C706.57,-45.34 689.51,-36.44 674,-29 667.31,-25.79 659.95,-22.49 653.22,-19.56"/>
<polygon fill="midnightblue" stroke="midnightblue" points="718.63,-55.77 729.1,-57.43 721.95,-49.61 718.63,-55.77"/>
</g>
<!-- Node3 -->
<g id="node3" class="node">
<title>Node3</title>
<g id="a_node3"><a xlink:href="initialcondition_8c.html#a51d0251f84a962a611ff0c0a8797a3e4" target="_top" xlink:title="(HELPER) Sets the t=0 fluid state for all blocks.">
<polygon fill="none" stroke="black" points="237,-115 237,-145 347,-145 347,-115 237,-115"/>
<text text-anchor="start" x="245" y="-133" font-family="Helvetica,sans-Serif" font-size="10.00">SetInitialFluidState</text>
<text text-anchor="middle" x="292" y="-122" font-family="Helvetica,sans-Serif" font-size="10.00">_FreshStart</text>
</a>
</g>
</g>
<!-- Node2&#45;&gt;Node3 -->
<g id="edge2" class="edge">
<title>Node2&#45;&gt;Node3</title>
<path fill="none" stroke="midnightblue" d="M403.8,-150.61C385.34,-147.18 365.21,-143.43 347.23,-140.09"/>
<polygon fill="midnightblue" stroke="midnightblue" points="403.39,-154.1 413.86,-152.49 404.67,-147.22 403.39,-154.1"/>
</g>
<!-- Node4 -->
<g id="node4" class="node">
<title>Node4</title>
<g id="a_node4"><a xlink:href="initialcondition_8c.html#ad0dd7d3f2528b6a7802fcd551e88ea99" target="_top" xlink:title="High&#45;level orchestrator to set the complete initial state of the Eulerian solver.">
<polygon fill="none" stroke="black" points="77,-87.5 77,-106.5 201,-106.5 201,-87.5 77,-87.5"/>
<text text-anchor="middle" x="139" y="-94.5" font-family="Helvetica,sans-Serif" font-size="10.00">InitializeEulerianState</text>
</a>
</g>
</g>
<!-- Node3&#45;&gt;Node4 -->
<g id="edge3" class="edge">
<title>Node3&#45;&gt;Node4</title>
<path fill="none" stroke="midnightblue" d="M226.96,-116C212.41,-112.82 197.27,-109.52 183.79,-106.57"/>
<polygon fill="midnightblue" stroke="midnightblue" points="226.4,-119.46 236.91,-118.18 227.89,-112.63 226.4,-119.46"/>
</g>
<!-- Node5 -->
<g id="node5" class="node">
<title>Node5</title>
<g id="a_node5"><a xlink:href="picsolver_8c.html#a3c04138a5bfe5d72780bb7e82a18e627" target="_top" xlink:title=" ">
<polygon fill="none" stroke="black" points="0,-67.5 0,-86.5 41,-86.5 41,-67.5 0,-67.5"/>
<text text-anchor="middle" x="20.5" y="-74.5" font-family="Helvetica,sans-Serif" font-size="10.00">main</text>
</a>
</g>
</g>
<!-- Node4&#45;&gt;Node5 -->
<g id="edge4" class="edge">
<title>Node4&#45;&gt;Node5</title>
<path fill="none" stroke="midnightblue" d="M72.37,-85.73C60.93,-83.77 49.87,-81.87 41.01,-80.35"/>
<polygon fill="midnightblue" stroke="midnightblue" points="72.03,-89.23 82.48,-87.47 73.22,-82.33 72.03,-89.23"/>
</g>
<!-- Node6&#45;&gt;Node2 -->
<g id="edge7" class="edge">
<title>Node6&#45;&gt;Node2</title>
<path fill="none" stroke="midnightblue" d="M610.37,-102.21C595.05,-115.09 571.98,-132.6 549,-143 539.68,-147.22 529.33,-150.55 519.2,-153.16"/>
<polygon fill="midnightblue" stroke="midnightblue" points="612.75,-104.79 618.04,-95.61 608.18,-99.48 612.75,-104.79"/>
</g>
<!-- Node7 -->
<g id="node7" class="node">
<title>Node7</title>
<g id="a_node7"><a xlink:href="Boundaries_8c.html#a47c050460ff0da893f9510ee9a459bfa" target="_top" xlink:title="Acts as a temporary bridge to the legacy boundary condition implementation.">
<polygon fill="none" stroke="black" points="383,-103 383,-133 549,-133 549,-103 383,-103"/>
<text text-anchor="start" x="391" y="-121" font-family="Helvetica,sans-Serif" font-size="10.00">BoundarySystem_ExecuteStep</text>
<text text-anchor="middle" x="466" y="-110" font-family="Helvetica,sans-Serif" font-size="10.00">_Legacy</text>
</a>
</g>
</g>
<!-- Node6&#45;&gt;Node7 -->
<g id="edge6" class="edge">
<title>Node6&#45;&gt;Node7</title>
<path fill="none" stroke="midnightblue" d="M588.71,-93.88C574.8,-96.64 558.68,-99.83 542.82,-102.98"/>
<polygon fill="midnightblue" stroke="midnightblue" points="589.75,-97.25 598.88,-91.87 588.39,-90.38 589.75,-97.25"/>
</g>
<!-- Node8 -->
<g id="node8" class="node">
<title>Node8</title>
<g id="a_node8"><a xlink:href="implicitsolvers_8c.html#a148a238901a4674420c87137c087e3ac" target="_top" xlink:title="Advances the momentum equations using an iterative explicit Runge&#45;Kutta scheme.">
<polygon fill="none" stroke="black" points="441.5,-64.5 441.5,-83.5 490.5,-83.5 490.5,-64.5 441.5,-64.5"/>
<text text-anchor="middle" x="466" y="-71.5" font-family="Helvetica,sans-Serif" font-size="10.00">ImpRK</text>
</a>
</g>
</g>
<!-- Node6&#45;&gt;Node8 -->
<g id="edge8" class="edge">
<title>Node6&#45;&gt;Node8</title>
<path fill="none" stroke="midnightblue" d="M588.89,-83.06C558.11,-80.77 516.44,-77.67 490.66,-75.76"/>
<polygon fill="midnightblue" stroke="midnightblue" points="588.65,-86.55 598.88,-83.8 589.17,-79.57 588.65,-86.55"/>
</g>
<!-- Node11 -->
<g id="node11" class="node">
<title>Node11</title>
<g id="a_node11"><a xlink:href="implicitsolvers_8c.html#a89ae58d48076ba82dc70438b5e389bf5" target="_top" xlink:title="Advances the momentum equations for ALL blocks by one time step using an explicit 4&#45;stage,...">
<polygon fill="none" stroke="black" points="429.5,-26.5 429.5,-45.5 502.5,-45.5 502.5,-26.5 429.5,-26.5"/>
<text text-anchor="middle" x="466" y="-33.5" font-family="Helvetica,sans-Serif" font-size="10.00">RungeKutta</text>
</a>
</g>
</g>
<!-- Node6&#45;&gt;Node11 -->
<g id="edge12" class="edge">
<title>Node6&#45;&gt;Node11</title>
<path fill="none" stroke="midnightblue" d="M597.05,-72.53C582.59,-66.65 565.1,-59.98 549,-55 534.06,-50.38 517.28,-46.31 502.82,-43.12"/>
<polygon fill="midnightblue" stroke="midnightblue" points="595.95,-75.86 606.53,-76.45 598.62,-69.39 595.95,-75.86"/>
</g>
<!-- Node9 -->
<g id="node9" class="node">
<title>Node9</title>
<g id="a_node9"><a xlink:href="solvers_8c.html#a2ed4825273a593f371a3d48071708255" target="_top" xlink:title="Orchestrates a single time step of the Eulerian fluid solver.">
<polygon fill="none" stroke="black" points="254,-45.5 254,-64.5 330,-64.5 330,-45.5 254,-45.5"/>
<text text-anchor="middle" x="292" y="-52.5" font-family="Helvetica,sans-Serif" font-size="10.00">Flow_Solver</text>
</a>
</g>
</g>
<!-- Node8&#45;&gt;Node9 -->
<g id="edge9" class="edge">
<title>Node8&#45;&gt;Node9</title>
<path fill="none" stroke="midnightblue" d="M431.35,-70.28C402.23,-67.07 360.2,-62.42 330.12,-59.1"/>
<polygon fill="midnightblue" stroke="midnightblue" points="431.12,-73.78 441.44,-71.4 431.89,-66.82 431.12,-73.78"/>
</g>
<!-- Node10 -->
<g id="node10" class="node">
<title>Node10</title>
<g id="a_node10"><a xlink:href="simulation_8c.html#a5cfb2f783604af7f20171d19f969d5d3" target="_top" xlink:title="Executes the main time&#45;marching loop for the coupled Euler&#45;Lagrange simulation.">
<polygon fill="none" stroke="black" points="83.5,-48.5 83.5,-67.5 194.5,-67.5 194.5,-48.5 83.5,-48.5"/>
<text text-anchor="middle" x="139" y="-55.5" font-family="Helvetica,sans-Serif" font-size="10.00">AdvanceSimulation</text>
</a>
</g>
</g>
<!-- Node9&#45;&gt;Node10 -->
<g id="edge10" class="edge">
<title>Node9&#45;&gt;Node10</title>
<path fill="none" stroke="midnightblue" d="M243.29,-55.95C227.81,-56.26 210.51,-56.6 194.57,-56.92"/>
<polygon fill="midnightblue" stroke="midnightblue" points="243.75,-59.44 253.67,-55.74 243.61,-52.44 243.75,-59.44"/>
</g>
<!-- Node10&#45;&gt;Node5 -->
<g id="edge11" class="edge">
<title>Node10&#45;&gt;Node5</title>
<path fill="none" stroke="midnightblue" d="M72.97,-68.61C61.43,-70.49 50.25,-72.31 41.27,-73.78"/>
<polygon fill="midnightblue" stroke="midnightblue" points="73.86,-72.01 83.16,-66.94 72.73,-65.1 73.86,-72.01"/>
</g>
<!-- Node11&#45;&gt;Node9 -->
<g id="edge13" class="edge">
<title>Node11&#45;&gt;Node9</title>
<path fill="none" stroke="midnightblue" d="M419.08,-41.07C391.23,-44.15 356.16,-48.02 330.08,-50.9"/>
<polygon fill="midnightblue" stroke="midnightblue" points="419.81,-44.51 429.36,-39.94 419.04,-37.56 419.81,-44.51"/>
</g>
<!-- Node12&#45;&gt;Node8 -->
<g id="edge15" class="edge">
<title>Node12&#45;&gt;Node8</title>
<path fill="none" stroke="midnightblue" d="M574.58,-56.68C546.14,-61.26 512.7,-66.64 490.74,-70.18"/>
<polygon fill="midnightblue" stroke="midnightblue" points="575.48,-60.08 584.8,-55.04 574.37,-53.17 575.48,-60.08"/>
</g>
<!-- Node12&#45;&gt;Node11 -->
<g id="edge16" class="edge">
<title>Node12&#45;&gt;Node11</title>
<path fill="none" stroke="midnightblue" d="M574.54,-43.99C550.84,-42.23 523.67,-40.21 502.58,-38.64"/>
<polygon fill="midnightblue" stroke="midnightblue" points="574.56,-47.5 584.8,-44.75 575.08,-40.52 574.56,-47.5"/>
</g>
<!-- Node13&#45;&gt;Node9 -->
<g id="edge18" class="edge">
<title>Node13&#45;&gt;Node9</title>
<path fill="none" stroke="midnightblue" d="M586.37,-6.53C537.01,-3.53 453.07,-1.77 383,-17 356.48,-22.76 327.96,-36.17 310.29,-45.41"/>
<polygon fill="midnightblue" stroke="midnightblue" points="586.45,-10.04 596.66,-7.2 586.91,-3.06 586.45,-10.04"/>
</g>
</g>
</svg>
        <g id="navigator" transform="translate(0 0)" fill="#404254">
                <rect fill="#f2f5e9" fill-opacity="0.5" stroke="#606060" stroke-width=".5" x="0" y="0" width="60" height="60"/>
                <use id="zoomplus" xlink:href="#zoomPlus" x="17" y="9" onmousedown="handleZoom(evt,'in')"/>
                <use id="zoomminus" xlink:href="#zoomMin" x="42" y="9" onmousedown="handleZoom(evt,'out')"/>
                <use id="reset" xlink:href="#resetDef" x="30" y="36" onmousedown="handleReset()"/>
                <g id="arrowUp" xlink:href="#dirArrow" transform="translate(30 24)" onmousedown="handlePan(0,-1)">
                  <use xlink:href="#rim" fill="#404040">
                        <set attributeName="fill" to="#808080" begin="arrowUp.mouseover" end="arrowUp.mouseout"/>
                  </use>
                  <path fill="none" stroke="white" stroke-width="1.5" d="M0,-3.0v7 M-2.5,-0.5L0,-3.0L2.5,-0.5"/>
                </g>
                <g id="arrowRight" xlink:href="#dirArrow" transform="rotate(90) translate(36 -43)" onmousedown="handlePan(1,0)">
                  <use xlink:href="#rim" fill="#404040">
                        <set attributeName="fill" to="#808080" begin="arrowRight.mouseover" end="arrowRight.mouseout"/>
                  </use>
                  <path fill="none" stroke="white" stroke-width="1.5" d="M0,-3.0v7 M-2.5,-0.5L0,-3.0L2.5,-0.5"/>
                </g>
                <g id="arrowDown" xlink:href="#dirArrow" transform="rotate(180) translate(-30 -48)" onmousedown="handlePan(0,1)">
                  <use xlink:href="#rim" fill="#404040">
                        <set attributeName="fill" to="#808080" begin="arrowDown.mouseover" end="arrowDown.mouseout"/>
                  </use>
                  <path fill="none" stroke="white" stroke-width="1.5" d="M0,-3.0v7 M-2.5,-0.5L0,-3.0L2.5,-0.5"/>
                </g>
                <g id="arrowLeft" xlink:href="#dirArrow" transform="rotate(270) translate(-36 17)" onmousedown="handlePan(-1,0)">
                  <use xlink:href="#rim" fill="#404040">
                        <set attributeName="fill" to="#808080" begin="arrowLeft.mouseover" end="arrowLeft.mouseout"/>
                  </use>
                  <path fill="none" stroke="white" stroke-width="1.5" d="M0,-3.0v7 M-2.5,-0.5L0,-3.0L2.5,-0.5"/>
                </g>
        </g>
        <svg viewBox="0 0 15 15" width="100%" height="30px" preserveAspectRatio="xMaxYMin meet">
         <g id="arrow_out" transform="scale(0.3 0.3)">
          <a xlink:href="setup_8c_a515c9a96eb4bcac29f79e78c8882d7aa_icgraph_org.svg" target="_base">
           <rect id="button" ry="5" rx="5" y="6" x="6" height="38" width="38"
                fill="#f2f5e9" fill-opacity="0.5" stroke="#606060" stroke-width="1.0"/>
           <path id="arrow"
             d="M 11.500037,31.436501 C 11.940474,20.09759 22.043105,11.32322 32.158766,21.979434 L 37.068811,17.246167 C 37.068811,17.246167 37.088388,32 37.088388,32 L 22.160133,31.978069 C 22.160133,31.978069 26.997745,27.140456 26.997745,27.140456 C 18.528582,18.264221 13.291696,25.230495 11.500037,31.436501 z"
             style="fill:#404040;"/>
          </a>
         </g>
        </svg>
</svg>
