<?xml version="1.0" encoding="UTF-8" standalone="no"?>
<!DOCTYPE svg PUBLIC "-//W3C//DTD SVG 1.1//EN"
 "http://www.w3.org/Graphics/SVG/1.1/DTD/svg11.dtd">
<!-- Generated by graphviz version 2.43.0 (0)
 -->
<!-- Title: GetOwnedCellRange Pages: 1 -->
<!--zoomable 339 -->
<svg id="main" version="1.1" xmlns="http://www.w3.org/2000/svg" xmlns:xlink="http://www.w3.org/1999/xlink" xml:space="preserve" onload="init(evt)">
<style type="text/css"><![CDATA[
.edge:hover path { stroke: red; }
.edge:hover polygon { stroke: red; fill: red; }
]]></style>
<script type="text/javascript"><![CDATA[
var edges = document.getElementsByTagName('g');
if (edges && edges.length) {
  for (var i=0;i<edges.length;i++) {
    if (edges[i].id.substr(0,4)=='edge') {
      edges[i].setAttribute('class','edge');
    }
  }
}
]]></script>
        <defs>
                <circle id="rim" cx="0" cy="0" r="7"/>
                <circle id="rim2" cx="0" cy="0" r="3.5"/>
                <g id="zoomPlus">
                        <use xlink:href="#rim" fill="#404040">
                                <set attributeName="fill" to="#808080" begin="zoomplus.mouseover" end="zoomplus.mouseout"/>
                        </use>
                        <path d="M-4,0h8M0,-4v8" fill="none" stroke="white" stroke-width="1.5" pointer-events="none"/>
                </g>
                <g id="zoomMin">
                        <use xlink:href="#rim" fill="#404040">
                                <set attributeName="fill" to="#808080" begin="zoomminus.mouseover" end="zoomminus.mouseout"/>
                        </use>
                        <path d="M-4,0h8" fill="none" stroke="white" stroke-width="1.5" pointer-events="none"/>
                </g>
                <g id="dirArrow">
                        <path fill="none" stroke="white" stroke-width="1.5" d="M0,-3.0v7 M-2.5,-0.5L0,-3.0L2.5,-0.5"/>
                </g>
               <g id="resetDef">
                       <use xlink:href="#rim2" fill="#404040">
                               <set attributeName="fill" to="#808080" begin="reset.mouseover" end="reset.mouseout"/>
                       </use>
               </g>
        </defs>

<script type="text/javascript">
var viewWidth = 1003;
var viewHeight = 339;
var sectionId = 'dynsection-10';
</script>
<script xlink:href="svgpan.js"/>
<svg id="graph" class="graph">
<g id="viewport">
<title>GetOwnedCellRange</title>
<!-- Node1 -->
<g id="node1" class="node">
<title>Node1</title>
<g id="a_node1"><a xlink:title="Determines the global starting index and number of CELLS owned by the current processor in a specifie...">
<polygon fill="#bfbfbf" stroke="black" points="878,-175 878,-194 995,-194 995,-175 878,-175"/>
<text text-anchor="middle" x="936.5" y="-182" font-family="Helvetica,sans-Serif" font-size="10.00">GetOwnedCellRange</text>
</a>
</g>
</g>
<!-- Node2 -->
<g id="node2" class="node">
<title>Node2</title>
<g id="a_node2"><a xlink:href="Boundaries_8c.html#a542a84809c7767ba2a314faaa08ee0a0" target="_top" xlink:title="Determines if the current MPI rank owns any part of a specified global face.">
<polygon fill="none" stroke="black" points="685,-311 685,-330 804,-330 804,-311 685,-311"/>
<text text-anchor="middle" x="744.5" y="-318" font-family="Helvetica,sans-Serif" font-size="10.00">CanRankServiceFace</text>
</a>
</g>
</g>
<!-- Node1&#45;&gt;Node2 -->
<g id="edge1" class="edge">
<title>Node1&#45;&gt;Node2</title>
<path fill="none" stroke="midnightblue" d="M926.04,-203.28C911.69,-229.71 881.81,-277.34 842,-301.5 830.61,-308.41 817.21,-312.87 804.07,-315.74"/>
<polygon fill="midnightblue" stroke="midnightblue" points="929.21,-204.76 930.77,-194.28 923.02,-201.51 929.21,-204.76"/>
</g>
<!-- Node3 -->
<g id="node3" class="node">
<title>Node3</title>
<g id="a_node3"><a xlink:href="Boundaries_8c.html#ab679d620b2d750179fbc2363fc562a1f" target="_top" xlink:title="Determines if the current MPI rank owns any part of the globally defined inlet face,...">
<polygon fill="none" stroke="black" points="674.5,-273 674.5,-292 814.5,-292 814.5,-273 674.5,-273"/>
<text text-anchor="middle" x="744.5" y="-280" font-family="Helvetica,sans-Serif" font-size="10.00">CanRankServiceInletFace</text>
</a>
</g>
</g>
<!-- Node1&#45;&gt;Node3 -->
<g id="edge2" class="edge">
<title>Node1&#45;&gt;Node3</title>
<path fill="none" stroke="midnightblue" d="M920.36,-201.67C903.23,-219.97 873.56,-248.33 842,-263.5 833.46,-267.6 824.08,-270.82 814.64,-273.35"/>
<polygon fill="midnightblue" stroke="midnightblue" points="923.16,-203.8 927.32,-194.06 917.99,-199.08 923.16,-203.8"/>
</g>
<!-- Node10 -->
<g id="node10" class="node">
<title>Node10</title>
<g id="a_node10"><a xlink:href="setup_8c.html#a25ce912d8aafa319a8c915cd350c7322" target="_top" xlink:title="Gets the global cell range for a rank, including boundary cells.">
<polygon fill="none" stroke="black" points="682.5,-197 682.5,-216 806.5,-216 806.5,-197 682.5,-197"/>
<text text-anchor="middle" x="744.5" y="-204" font-family="Helvetica,sans-Serif" font-size="10.00">GetGhostedCellRange</text>
</a>
</g>
</g>
<!-- Node1&#45;&gt;Node10 -->
<g id="edge10" class="edge">
<title>Node1&#45;&gt;Node10</title>
<path fill="none" stroke="midnightblue" d="M868.03,-192.31C848.07,-194.62 826.34,-197.14 806.79,-199.4"/>
<polygon fill="midnightblue" stroke="midnightblue" points="868.45,-195.79 877.98,-191.16 867.64,-188.83 868.45,-195.79"/>
</g>
<!-- Node16 -->
<g id="node16" class="node">
<title>Node16</title>
<g id="a_node16"><a xlink:href="Boundaries_8c.html#ac07befc354128d23bac8ed5f2612ffdf" target="_top" xlink:title="Assuming the current rank services the inlet face, this function selects a random cell (owned by this...">
<polygon fill="none" stroke="black" points="647,-235 647,-254 842,-254 842,-235 647,-235"/>
<text text-anchor="middle" x="744.5" y="-242" font-family="Helvetica,sans-Serif" font-size="10.00">GetRandomCellAndLogicOnInletFace</text>
</a>
</g>
</g>
<!-- Node1&#45;&gt;Node16 -->
<g id="edge18" class="edge">
<title>Node1&#45;&gt;Node16</title>
<path fill="none" stroke="midnightblue" d="M907.79,-198.57C889.5,-207.37 864.79,-218.35 842,-225.5 830.11,-229.23 817.15,-232.38 804.7,-234.97"/>
<polygon fill="midnightblue" stroke="midnightblue" points="909.54,-201.61 916.98,-194.07 906.46,-195.32 909.54,-201.61"/>
</g>
<!-- Node17 -->
<g id="node17" class="node">
<title>Node17</title>
<g id="a_node17"><a xlink:href="interpolation_8c.html#ac3e3d9d03447563e1062d257af6046d2" target="_top" xlink:title="Interpolates a scalar field from corner nodes to all face centers.">
<polygon fill="none" stroke="black" points="661,-147.5 661,-177.5 828,-177.5 828,-147.5 661,-147.5"/>
<text text-anchor="start" x="669" y="-165.5" font-family="Helvetica,sans-Serif" font-size="10.00">InterpolateCornerToFaceCenter</text>
<text text-anchor="middle" x="744.5" y="-154.5" font-family="Helvetica,sans-Serif" font-size="10.00">_Scalar</text>
</a>
</g>
</g>
<!-- Node1&#45;&gt;Node17 -->
<g id="edge21" class="edge">
<title>Node1&#45;&gt;Node17</title>
<path fill="none" stroke="midnightblue" d="M867.83,-176.66C854.95,-175.17 841.34,-173.6 828.06,-172.06"/>
<polygon fill="midnightblue" stroke="midnightblue" points="867.64,-180.17 877.98,-177.84 868.45,-173.21 867.64,-180.17"/>
</g>
<!-- Node18 -->
<g id="node18" class="node">
<title>Node18</title>
<g id="a_node18"><a xlink:href="interpolation_8c.html#a173e2e54a5c09762ab6868eb78889886" target="_top" xlink:title="Interpolates a vector field from corner nodes to all face centers.">
<polygon fill="none" stroke="black" points="661,-98.5 661,-128.5 828,-128.5 828,-98.5 661,-98.5"/>
<text text-anchor="start" x="669" y="-116.5" font-family="Helvetica,sans-Serif" font-size="10.00">InterpolateCornerToFaceCenter</text>
<text text-anchor="middle" x="744.5" y="-105.5" font-family="Helvetica,sans-Serif" font-size="10.00">_Vector</text>
</a>
</g>
</g>
<!-- Node1&#45;&gt;Node18 -->
<g id="edge22" class="edge">
<title>Node1&#45;&gt;Node18</title>
<path fill="none" stroke="midnightblue" d="M910.2,-169.85C891.77,-159.66 865.94,-146.37 842,-137.5 833.1,-134.2 823.56,-131.21 814.08,-128.55"/>
<polygon fill="midnightblue" stroke="midnightblue" points="908.68,-173.01 919.11,-174.85 912.11,-166.91 908.68,-173.01"/>
</g>
<!-- Node19 -->
<g id="node19" class="node">
<title>Node19</title>
<g id="a_node19"><a xlink:href="interpolation_8c.html#a178ae55ed2a5ace793e5ead8933d5c76" target="_top" xlink:title="Interpolates a scalar field from corner nodes to cell centers.">
<polygon fill="none" stroke="black" points="670,-49.5 670,-79.5 819,-79.5 819,-49.5 670,-49.5"/>
<text text-anchor="start" x="678" y="-67.5" font-family="Helvetica,sans-Serif" font-size="10.00">InterpolateFieldFromCorner</text>
<text text-anchor="middle" x="744.5" y="-56.5" font-family="Helvetica,sans-Serif" font-size="10.00">ToCenter_Scalar</text>
</a>
</g>
</g>
<!-- Node1&#45;&gt;Node19 -->
<g id="edge23" class="edge">
<title>Node1&#45;&gt;Node19</title>
<path fill="none" stroke="midnightblue" d="M922.97,-166.52C906.81,-144.7 876.6,-108.37 842,-88.5 834.89,-84.42 827.09,-81.02 819.11,-78.2"/>
<polygon fill="midnightblue" stroke="midnightblue" points="920.33,-168.83 929.02,-174.89 926,-164.74 920.33,-168.83"/>
</g>
<!-- Node20 -->
<g id="node20" class="node">
<title>Node20</title>
<g id="a_node20"><a xlink:href="interpolation_8c.html#a1572054c1f369e31e37b0f44b04828d6" target="_top" xlink:title="Interpolates a vector field from corner nodes to cell centers.">
<polygon fill="none" stroke="black" points="670,-0.5 670,-30.5 819,-30.5 819,-0.5 670,-0.5"/>
<text text-anchor="start" x="678" y="-18.5" font-family="Helvetica,sans-Serif" font-size="10.00">InterpolateFieldFromCorner</text>
<text text-anchor="middle" x="744.5" y="-7.5" font-family="Helvetica,sans-Serif" font-size="10.00">ToCenter_Vector</text>
</a>
</g>
</g>
<!-- Node1&#45;&gt;Node20 -->
<g id="edge24" class="edge">
<title>Node1&#45;&gt;Node20</title>
<path fill="none" stroke="midnightblue" d="M928.53,-165.21C916.16,-133.81 887.33,-71.92 842,-39.5 835.12,-34.58 827.34,-30.66 819.25,-27.55"/>
<polygon fill="midnightblue" stroke="midnightblue" points="925.4,-166.83 932.22,-174.94 931.95,-164.35 925.4,-166.83"/>
</g>
<!-- Node4 -->
<g id="node4" class="node">
<title>Node4</title>
<g id="a_node4"><a xlink:href="ParticleSwarm_8c.html#a95efc9f04a0187f2a1d920952bd610e0" target="_top" xlink:title="Initializes basic properties for particles on the local process.">
<polygon fill="none" stroke="black" points="427.5,-282 427.5,-301 598.5,-301 598.5,-282 427.5,-282"/>
<text text-anchor="middle" x="513" y="-289" font-family="Helvetica,sans-Serif" font-size="10.00">InitializeParticleBasicProperties</text>
</a>
</g>
</g>
<!-- Node3&#45;&gt;Node4 -->
<g id="edge3" class="edge">
<title>Node3&#45;&gt;Node4</title>
<path fill="none" stroke="midnightblue" d="M664.14,-285.61C643.06,-286.44 620.21,-287.33 598.85,-288.17"/>
<polygon fill="midnightblue" stroke="midnightblue" points="664.48,-289.1 674.33,-285.21 664.2,-282.11 664.48,-289.1"/>
</g>
<!-- Node8 -->
<g id="node8" class="node">
<title>Node8</title>
<g id="a_node8"><a xlink:href="ParticleMotion_8c.html#abb62172d12ae65122070a3674196c8e2" target="_top" xlink:title="Re&#45;initializes the positions of particles currently on this rank if this rank owns part of the design...">
<polygon fill="none" stroke="black" points="438.5,-232.5 438.5,-262.5 587.5,-262.5 587.5,-232.5 438.5,-232.5"/>
<text text-anchor="start" x="446.5" y="-250.5" font-family="Helvetica,sans-Serif" font-size="10.00">ReinitializeParticlesOnInlet</text>
<text text-anchor="middle" x="513" y="-239.5" font-family="Helvetica,sans-Serif" font-size="10.00">Surface</text>
</a>
</g>
</g>
<!-- Node3&#45;&gt;Node8 -->
<g id="edge7" class="edge">
<title>Node3&#45;&gt;Node8</title>
<path fill="none" stroke="midnightblue" d="M671.1,-271.46C644.55,-267.41 614.48,-262.82 587.8,-258.76"/>
<polygon fill="midnightblue" stroke="midnightblue" points="670.68,-274.93 681.09,-272.98 671.73,-268.01 670.68,-274.93"/>
</g>
<!-- Node5 -->
<g id="node5" class="node">
<title>Node5</title>
<g id="a_node5"><a xlink:href="ParticleSwarm_8c.html#af2b3080ee0e5c8e0175ac594a2c497b5" target="_top" xlink:title="Initializes all particle properties in the swarm.">
<polygon fill="none" stroke="black" points="242,-276.5 242,-306.5 379,-306.5 379,-276.5 242,-276.5"/>
<text text-anchor="start" x="250" y="-294.5" font-family="Helvetica,sans-Serif" font-size="10.00">AssignInitialPropertiesTo</text>
<text text-anchor="middle" x="310.5" y="-283.5" font-family="Helvetica,sans-Serif" font-size="10.00">Swarm</text>
</a>
</g>
</g>
<!-- Node4&#45;&gt;Node5 -->
<g id="edge4" class="edge">
<title>Node4&#45;&gt;Node5</title>
<path fill="none" stroke="midnightblue" d="M417.06,-291.5C404.29,-291.5 391.4,-291.5 379.23,-291.5"/>
<polygon fill="midnightblue" stroke="midnightblue" points="417.26,-295 427.26,-291.5 417.26,-288 417.26,-295"/>
</g>
<!-- Node6 -->
<g id="node6" class="node">
<title>Node6</title>
<g id="a_node6"><a xlink:href="ParticleSwarm_8c.html#ada215a5db25227a8fd2cd2596e7d3e57" target="_top" xlink:title="Perform particle swarm initialization, particle&#45;grid interaction, and related operations.">
<polygon fill="none" stroke="black" points="77,-278 77,-297 206,-297 206,-278 77,-278"/>
<text text-anchor="middle" x="141.5" y="-285" font-family="Helvetica,sans-Serif" font-size="10.00">InitializeParticleSwarm</text>
</a>
</g>
</g>
<!-- Node5&#45;&gt;Node6 -->
<g id="edge5" class="edge">
<title>Node5&#45;&gt;Node6</title>
<path fill="none" stroke="midnightblue" d="M231.31,-289.63C222.85,-289.42 214.31,-289.22 206.05,-289.02"/>
<polygon fill="midnightblue" stroke="midnightblue" points="231.49,-293.13 241.57,-289.87 231.66,-286.13 231.49,-293.13"/>
</g>
<!-- Node7 -->
<g id="node7" class="node">
<title>Node7</title>
<g id="a_node7"><a xlink:href="picsolver_8c.html#a3c04138a5bfe5d72780bb7e82a18e627" target="_top" xlink:title=" ">
<polygon fill="none" stroke="black" points="0,-215 0,-234 41,-234 41,-215 0,-215"/>
<text text-anchor="middle" x="20.5" y="-222" font-family="Helvetica,sans-Serif" font-size="10.00">main</text>
</a>
</g>
</g>
<!-- Node6&#45;&gt;Node7 -->
<g id="edge6" class="edge">
<title>Node6&#45;&gt;Node7</title>
<path fill="none" stroke="midnightblue" d="M99.3,-274.47C91.72,-271.54 84,-268.2 77,-264.5 60.62,-255.85 43.59,-242.89 32.79,-234.08"/>
<polygon fill="midnightblue" stroke="midnightblue" points="98.16,-277.78 108.76,-277.94 100.57,-271.21 98.16,-277.78"/>
</g>
<!-- Node9 -->
<g id="node9" class="node">
<title>Node9</title>
<g id="a_node9"><a xlink:href="simulation_8c.html#a4e2cad25ac1fbdc6745d6fd8fcc1bbc1" target="_top" xlink:title="Finalizes the simulation setup at t=0, ensuring a consistent state before time marching.">
<polygon fill="none" stroke="black" points="86,-236 86,-255 197,-255 197,-236 86,-236"/>
<text text-anchor="middle" x="141.5" y="-243" font-family="Helvetica,sans-Serif" font-size="10.00">PerformInitialSetup</text>
</a>
</g>
</g>
<!-- Node8&#45;&gt;Node9 -->
<g id="edge8" class="edge">
<title>Node8&#45;&gt;Node9</title>
<path fill="none" stroke="midnightblue" d="M427.88,-247.04C357.08,-246.66 257.91,-246.12 197.06,-245.8"/>
<polygon fill="midnightblue" stroke="midnightblue" points="428.1,-250.55 438.11,-247.1 428.13,-243.55 428.1,-250.55"/>
</g>
<!-- Node9&#45;&gt;Node7 -->
<g id="edge9" class="edge">
<title>Node9&#45;&gt;Node7</title>
<path fill="none" stroke="midnightblue" d="M76.65,-234.23C63.69,-231.95 51.01,-229.71 41.08,-227.96"/>
<polygon fill="midnightblue" stroke="midnightblue" points="76.11,-237.69 86.57,-235.98 77.33,-230.8 76.11,-237.69"/>
</g>
<!-- Node11 -->
<g id="node11" class="node">
<title>Node11</title>
<g id="a_node11"><a xlink:href="initialcondition_8c.html#a62dfa993750dc34d1729c575bb1dde66" target="_top" xlink:title="Sets the initial values for the INTERIOR of a specified Eulerian field.">
<polygon fill="none" stroke="black" points="454,-194 454,-213 572,-213 572,-194 454,-194"/>
<text text-anchor="middle" x="513" y="-201" font-family="Helvetica,sans-Serif" font-size="10.00">SetInitialInteriorField</text>
</a>
</g>
</g>
<!-- Node10&#45;&gt;Node11 -->
<g id="edge11" class="edge">
<title>Node10&#45;&gt;Node11</title>
<path fill="none" stroke="midnightblue" d="M672.08,-205.57C640,-205.15 602.62,-204.66 572.26,-204.26"/>
<polygon fill="midnightblue" stroke="midnightblue" points="672.25,-209.07 682.3,-205.7 672.35,-202.07 672.25,-209.07"/>
</g>
<!-- Node14 -->
<g id="node14" class="node">
<title>Node14</title>
<g id="a_node14"><a xlink:href="setup_8c.html#aeb77337317f41972d1c75c8d80527892" target="_top" xlink:title="Creates and distributes a map of the domain&#39;s cell decomposition to all ranks.">
<polygon fill="none" stroke="black" points="415,-153 415,-172 611,-172 611,-153 415,-153"/>
<text text-anchor="middle" x="513" y="-160" font-family="Helvetica,sans-Serif" font-size="10.00">SetupDomainCellDecompositionMap</text>
</a>
</g>
</g>
<!-- Node10&#45;&gt;Node14 -->
<g id="edge15" class="edge">
<title>Node10&#45;&gt;Node14</title>
<path fill="none" stroke="midnightblue" d="M683.47,-194.99C646.2,-187.85 598.87,-178.77 563.7,-172.03"/>
<polygon fill="midnightblue" stroke="midnightblue" points="683.22,-198.51 693.7,-196.95 684.54,-191.63 683.22,-198.51"/>
</g>
<!-- Node12 -->
<g id="node12" class="node">
<title>Node12</title>
<g id="a_node12"><a xlink:href="initialcondition_8c.html#a51d0251f84a962a611ff0c0a8797a3e4" target="_top" xlink:title="(HELPER) Sets the t=0 fluid state for all blocks.">
<polygon fill="none" stroke="black" points="255.5,-188.5 255.5,-218.5 365.5,-218.5 365.5,-188.5 255.5,-188.5"/>
<text text-anchor="start" x="263.5" y="-206.5" font-family="Helvetica,sans-Serif" font-size="10.00">SetInitialFluidState</text>
<text text-anchor="middle" x="310.5" y="-195.5" font-family="Helvetica,sans-Serif" font-size="10.00">_FreshStart</text>
</a>
</g>
</g>
<!-- Node11&#45;&gt;Node12 -->
<g id="edge12" class="edge">
<title>Node11&#45;&gt;Node12</title>
<path fill="none" stroke="midnightblue" d="M443.45,-203.5C418.08,-203.5 389.7,-203.5 365.78,-203.5"/>
<polygon fill="midnightblue" stroke="midnightblue" points="443.74,-207 453.74,-203.5 443.74,-200 443.74,-207"/>
</g>
<!-- Node13 -->
<g id="node13" class="node">
<title>Node13</title>
<g id="a_node13"><a xlink:href="initialcondition_8c.html#ad0dd7d3f2528b6a7802fcd551e88ea99" target="_top" xlink:title="High&#45;level orchestrator to set the complete initial state of the Eulerian solver.">
<polygon fill="none" stroke="black" points="79.5,-195 79.5,-214 203.5,-214 203.5,-195 79.5,-195"/>
<text text-anchor="middle" x="141.5" y="-202" font-family="Helvetica,sans-Serif" font-size="10.00">InitializeEulerianState</text>
</a>
</g>
</g>
<!-- Node12&#45;&gt;Node13 -->
<g id="edge13" class="edge">
<title>Node12&#45;&gt;Node13</title>
<path fill="none" stroke="midnightblue" d="M245.05,-203.89C231.46,-203.97 217.15,-204.05 203.68,-204.13"/>
<polygon fill="midnightblue" stroke="midnightblue" points="245.3,-207.38 255.28,-203.82 245.26,-200.38 245.3,-207.38"/>
</g>
<!-- Node13&#45;&gt;Node7 -->
<g id="edge14" class="edge">
<title>Node13&#45;&gt;Node7</title>
<path fill="none" stroke="midnightblue" d="M73.74,-215.72C61.83,-217.72 50.32,-219.66 41.15,-221.2"/>
<polygon fill="midnightblue" stroke="midnightblue" points="74.51,-219.14 83.79,-214.03 73.35,-212.24 74.51,-219.14"/>
</g>
<!-- Node15 -->
<g id="node15" class="node">
<title>Node15</title>
<g id="a_node15"><a xlink:href="setup_8c.html#a1c08bf327e1aee897c56610a89f75814" target="_top" xlink:title="Sets up the full rank communication infrastructure for all blocks.">
<polygon fill="none" stroke="black" points="247.5,-150 247.5,-169 373.5,-169 373.5,-150 247.5,-150"/>
<text text-anchor="middle" x="310.5" y="-157" font-family="Helvetica,sans-Serif" font-size="10.00">SetupDomainRankInfo</text>
</a>
</g>
</g>
<!-- Node14&#45;&gt;Node15 -->
<g id="edge16" class="edge">
<title>Node14&#45;&gt;Node15</title>
<path fill="none" stroke="midnightblue" d="M404.74,-160.9C394.08,-160.74 383.52,-160.58 373.56,-160.43"/>
<polygon fill="midnightblue" stroke="midnightblue" points="404.93,-164.4 414.98,-161.05 405.03,-157.4 404.93,-164.4"/>
</g>
<!-- Node15&#45;&gt;Node7 -->
<g id="edge17" class="edge">
<title>Node15&#45;&gt;Node7</title>
<path fill="none" stroke="midnightblue" d="M237.24,-158.42C190.21,-159.91 128.31,-166.07 77,-185.5 59.38,-192.17 42.1,-205.74 31.63,-214.97"/>
<polygon fill="midnightblue" stroke="midnightblue" points="237.43,-161.92 247.34,-158.16 237.25,-154.92 237.43,-161.92"/>
</g>
<!-- Node16&#45;&gt;Node4 -->
<g id="edge19" class="edge">
<title>Node16&#45;&gt;Node4</title>
<path fill="none" stroke="midnightblue" d="M682.18,-256.09C670.47,-258.44 658.34,-260.97 647,-263.5 630.9,-267.09 627.1,-268.91 611,-272.5 596.18,-275.8 580.01,-279.09 565.2,-281.98"/>
<polygon fill="midnightblue" stroke="midnightblue" points="683.19,-259.46 692.32,-254.08 681.83,-252.59 683.19,-259.46"/>
</g>
<!-- Node16&#45;&gt;Node8 -->
<g id="edge20" class="edge">
<title>Node16&#45;&gt;Node8</title>
<path fill="none" stroke="midnightblue" d="M636.55,-245.9C619.97,-246.11 603.16,-246.33 587.54,-246.54"/>
<polygon fill="midnightblue" stroke="midnightblue" points="636.88,-249.39 646.84,-245.76 636.79,-242.39 636.88,-249.39"/>
</g>
</g>
</svg>
        <g id="navigator" transform="translate(0 0)" fill="#404254">
                <rect fill="#f2f5e9" fill-opacity="0.5" stroke="#606060" stroke-width=".5" x="0" y="0" width="60" height="60"/>
                <use id="zoomplus" xlink:href="#zoomPlus" x="17" y="9" onmousedown="handleZoom(evt,'in')"/>
                <use id="zoomminus" xlink:href="#zoomMin" x="42" y="9" onmousedown="handleZoom(evt,'out')"/>
                <use id="reset" xlink:href="#resetDef" x="30" y="36" onmousedown="handleReset()"/>
                <g id="arrowUp" xlink:href="#dirArrow" transform="translate(30 24)" onmousedown="handlePan(0,-1)">
                  <use xlink:href="#rim" fill="#404040">
                        <set attributeName="fill" to="#808080" begin="arrowUp.mouseover" end="arrowUp.mouseout"/>
                  </use>
                  <path fill="none" stroke="white" stroke-width="1.5" d="M0,-3.0v7 M-2.5,-0.5L0,-3.0L2.5,-0.5"/>
                </g>
                <g id="arrowRight" xlink:href="#dirArrow" transform="rotate(90) translate(36 -43)" onmousedown="handlePan(1,0)">
                  <use xlink:href="#rim" fill="#404040">
                        <set attributeName="fill" to="#808080" begin="arrowRight.mouseover" end="arrowRight.mouseout"/>
                  </use>
                  <path fill="none" stroke="white" stroke-width="1.5" d="M0,-3.0v7 M-2.5,-0.5L0,-3.0L2.5,-0.5"/>
                </g>
                <g id="arrowDown" xlink:href="#dirArrow" transform="rotate(180) translate(-30 -48)" onmousedown="handlePan(0,1)">
                  <use xlink:href="#rim" fill="#404040">
                        <set attributeName="fill" to="#808080" begin="arrowDown.mouseover" end="arrowDown.mouseout"/>
                  </use>
                  <path fill="none" stroke="white" stroke-width="1.5" d="M0,-3.0v7 M-2.5,-0.5L0,-3.0L2.5,-0.5"/>
                </g>
                <g id="arrowLeft" xlink:href="#dirArrow" transform="rotate(270) translate(-36 17)" onmousedown="handlePan(-1,0)">
                  <use xlink:href="#rim" fill="#404040">
                        <set attributeName="fill" to="#808080" begin="arrowLeft.mouseover" end="arrowLeft.mouseout"/>
                  </use>
                  <path fill="none" stroke="white" stroke-width="1.5" d="M0,-3.0v7 M-2.5,-0.5L0,-3.0L2.5,-0.5"/>
                </g>
        </g>
        <svg viewBox="0 0 15 15" width="100%" height="30px" preserveAspectRatio="xMaxYMin meet">
         <g id="arrow_out" transform="scale(0.3 0.3)">
          <a xlink:href="setup_8h_a9b17552f79ebe16d0363986217a01ff3_icgraph_org.svg" target="_base">
           <rect id="button" ry="5" rx="5" y="6" x="6" height="38" width="38"
                fill="#f2f5e9" fill-opacity="0.5" stroke="#606060" stroke-width="1.0"/>
           <path id="arrow"
             d="M 11.500037,31.436501 C 11.940474,20.09759 22.043105,11.32322 32.158766,21.979434 L 37.068811,17.246167 C 37.068811,17.246167 37.088388,32 37.088388,32 L 22.160133,31.978069 C 22.160133,31.978069 26.997745,27.140456 26.997745,27.140456 C 18.528582,18.264221 13.291696,25.230495 11.500037,31.436501 z"
             style="fill:#404040;"/>
          </a>
         </g>
        </svg>
</svg>
