<?xml version="1.0" encoding="UTF-8" standalone="no"?>
<!DOCTYPE svg PUBLIC "-//W3C//DTD SVG 1.1//EN"
 "http://www.w3.org/Graphics/SVG/1.1/DTD/svg11.dtd">
<!-- Generated by graphviz version 2.43.0 (0)
 -->
<!-- Title: UpdateLocalGhosts Pages: 1 -->
<svg width="733pt" height="458pt"
 viewBox="0.00 0.00 733.00 458.00" xmlns="http://www.w3.org/2000/svg" xmlns:xlink="http://www.w3.org/1999/xlink">
<g id="graph0" class="graph" transform="scale(1 1) rotate(0) translate(4 454)">
<title>UpdateLocalGhosts</title>
<!-- Node1 -->
<g id="node1" class="node">
<title>Node1</title>
<g id="a_node1"><a xlink:title="Updates the local vector (including ghost points) from its corresponding global vector.">
<polygon fill="#bfbfbf" stroke="black" points="614,-218.5 614,-237.5 725,-237.5 725,-218.5 614,-218.5"/>
<text text-anchor="middle" x="669.5" y="-225.5" font-family="Helvetica,sans-Serif" font-size="10.00">UpdateLocalGhosts</text>
</a>
</g>
</g>
<!-- Node2 -->
<g id="node2" class="node">
<title>Node2</title>
<g id="a_node2"><a xlink:href="Metric_8c.html#a436bb94905ee06971f632571f5bc8cbb" target="_top" xlink:title="Ensure a right&#45;handed metric basis (Csi, Eta, Zet) and a positive Jacobian (Aj) over the whole domain...">
<polygon fill="none" stroke="black" points="414,-240.5 414,-259.5 568,-259.5 568,-240.5 414,-240.5"/>
<text text-anchor="middle" x="491" y="-247.5" font-family="Helvetica,sans-Serif" font-size="10.00">CheckAndFixGridOrientation</text>
</a>
</g>
</g>
<!-- Node1&#45;&gt;Node2 -->
<g id="edge1" class="edge">
<title>Node1&#45;&gt;Node2</title>
<path fill="none" stroke="midnightblue" d="M603.66,-236.08C592.14,-237.52 580.04,-239.03 568.23,-240.5"/>
<polygon fill="midnightblue" stroke="midnightblue" points="604.13,-239.55 613.62,-234.84 603.27,-232.6 604.13,-239.55"/>
</g>
<!-- Node6 -->
<g id="node6" class="node">
<title>Node6</title>
<g id="a_node6"><a xlink:href="Metric_8c.html#a92d28e2f14645b0eb563144f4ccf2b49" target="_top" xlink:title="Calculates the cell&#45;centered inverse Jacobian determinant (1/J), including boundary extrapolation,...">
<polygon fill="none" stroke="black" points="408.5,-191 408.5,-221 573.5,-221 573.5,-191 408.5,-191"/>
<text text-anchor="start" x="416.5" y="-209" font-family="Helvetica,sans-Serif" font-size="10.00">ComputeCellCenteredJacobian</text>
<text text-anchor="middle" x="491" y="-198" font-family="Helvetica,sans-Serif" font-size="10.00">Inverse</text>
</a>
</g>
</g>
<!-- Node1&#45;&gt;Node6 -->
<g id="edge5" class="edge">
<title>Node1&#45;&gt;Node6</title>
<path fill="none" stroke="midnightblue" d="M603.65,-219.92C593.91,-218.7 583.77,-217.44 573.73,-216.19"/>
<polygon fill="midnightblue" stroke="midnightblue" points="603.27,-223.4 613.62,-221.16 604.13,-216.45 603.27,-223.4"/>
</g>
<!-- Node7 -->
<g id="node7" class="node">
<title>Node7</title>
<g id="a_node7"><a xlink:href="Metric_8c.html#a46e70c0ae8f36f97321c5c892fc56be5" target="_top" xlink:title="Computes the physical location of cell centers and the spacing between them.">
<polygon fill="none" stroke="black" points="404,-430.5 404,-449.5 578,-449.5 578,-430.5 404,-430.5"/>
<text text-anchor="middle" x="491" y="-437.5" font-family="Helvetica,sans-Serif" font-size="10.00">ComputeCellCentersAndSpacing</text>
</a>
</g>
</g>
<!-- Node1&#45;&gt;Node7 -->
<g id="edge7" class="edge">
<title>Node1&#45;&gt;Node7</title>
<path fill="none" stroke="midnightblue" d="M665.15,-247.86C657.41,-287.36 634.4,-375.87 578,-421 573.22,-424.82 567.84,-427.91 562.16,-430.41"/>
<polygon fill="midnightblue" stroke="midnightblue" points="668.62,-248.35 666.98,-237.88 661.74,-247.09 668.62,-248.35"/>
</g>
<!-- Node8 -->
<g id="node8" class="node">
<title>Node8</title>
<g id="a_node8"><a xlink:href="Metric_8c.html#a6f0dfb324211e230a387501f93cfd316" target="_top" xlink:title="Computes the primary face metric components (Csi, Eta, Zet), including boundary extrapolation,...">
<polygon fill="none" stroke="black" points="431.5,-392.5 431.5,-411.5 550.5,-411.5 550.5,-392.5 431.5,-392.5"/>
<text text-anchor="middle" x="491" y="-399.5" font-family="Helvetica,sans-Serif" font-size="10.00">ComputeFaceMetrics</text>
</a>
</g>
</g>
<!-- Node1&#45;&gt;Node8 -->
<g id="edge9" class="edge">
<title>Node1&#45;&gt;Node8</title>
<path fill="none" stroke="midnightblue" d="M662.72,-247.82C651.89,-281.24 625.28,-348.53 578,-383 569.97,-388.85 560.47,-392.96 550.77,-395.83"/>
<polygon fill="midnightblue" stroke="midnightblue" points="666.18,-248.46 665.79,-237.88 659.49,-246.4 666.18,-248.46"/>
</g>
<!-- Node9 -->
<g id="node9" class="node">
<title>Node9</title>
<g id="a_node9"><a xlink:href="Metric_8c.html#af935307ea3e9727a63b6ef9a3932caa8" target="_top" xlink:title="Computes metrics centered on constant&#45;i faces (i&#45;faces).">
<polygon fill="none" stroke="black" points="430,-354.5 430,-373.5 552,-373.5 552,-354.5 430,-354.5"/>
<text text-anchor="middle" x="491" y="-361.5" font-family="Helvetica,sans-Serif" font-size="10.00">ComputeIFaceMetrics</text>
</a>
</g>
</g>
<!-- Node1&#45;&gt;Node9 -->
<g id="edge11" class="edge">
<title>Node1&#45;&gt;Node9</title>
<path fill="none" stroke="midnightblue" d="M659.43,-246.66C645.64,-272.93 616.85,-320.38 578,-345 570.25,-349.91 561.41,-353.56 552.42,-356.28"/>
<polygon fill="midnightblue" stroke="midnightblue" points="662.56,-248.22 663.97,-237.71 656.32,-245.05 662.56,-248.22"/>
</g>
<!-- Node10 -->
<g id="node10" class="node">
<title>Node10</title>
<g id="a_node10"><a xlink:href="Metric_8c.html#a4ecbe44ffb23d82193f9278ab61c1b47" target="_top" xlink:title="Computes metrics centered on constant&#45;j faces (j&#45;faces).">
<polygon fill="none" stroke="black" points="430,-316.5 430,-335.5 552,-335.5 552,-316.5 430,-316.5"/>
<text text-anchor="middle" x="491" y="-323.5" font-family="Helvetica,sans-Serif" font-size="10.00">ComputeJFaceMetrics</text>
</a>
</g>
</g>
<!-- Node1&#45;&gt;Node10 -->
<g id="edge13" class="edge">
<title>Node1&#45;&gt;Node10</title>
<path fill="none" stroke="midnightblue" d="M653.64,-245.34C637.05,-263.53 608.51,-291.59 578,-307 569.95,-311.07 561.04,-314.27 552.09,-316.79"/>
<polygon fill="midnightblue" stroke="midnightblue" points="656.35,-247.55 660.38,-237.75 651.12,-242.9 656.35,-247.55"/>
</g>
<!-- Node11 -->
<g id="node11" class="node">
<title>Node11</title>
<g id="a_node11"><a xlink:href="Metric_8c.html#a95e22e5238b2cd02b992366766730687" target="_top" xlink:title="Computes metrics centered on constant&#45;k faces (k&#45;faces).">
<polygon fill="none" stroke="black" points="428,-278.5 428,-297.5 554,-297.5 554,-278.5 428,-278.5"/>
<text text-anchor="middle" x="491" y="-285.5" font-family="Helvetica,sans-Serif" font-size="10.00">ComputeKFaceMetrics</text>
</a>
</g>
</g>
<!-- Node1&#45;&gt;Node11 -->
<g id="edge15" class="edge">
<title>Node1&#45;&gt;Node11</title>
<path fill="none" stroke="midnightblue" d="M641.1,-242.22C623.45,-250.92 599.82,-261.74 578,-269 566.97,-272.67 554.92,-275.84 543.41,-278.47"/>
<polygon fill="midnightblue" stroke="midnightblue" points="642.86,-245.25 650.23,-237.64 639.73,-238.99 642.86,-245.25"/>
</g>
<!-- Node12 -->
<g id="node12" class="node">
<title>Node12</title>
<g id="a_node12"><a xlink:href="initialcondition_8c.html#af6a26611066aa455efddcca2fd80fe35" target="_top" xlink:title="(HELPER) Finalizes a block&#39;s state by applying BCs, converting to Cartesian, and synchronizing ghost ...">
<polygon fill="none" stroke="black" points="438,-0.5 438,-19.5 544,-19.5 544,-0.5 438,-0.5"/>
<text text-anchor="middle" x="491" y="-7.5" font-family="Helvetica,sans-Serif" font-size="10.00">FinalizeBlockState</text>
</a>
</g>
</g>
<!-- Node1&#45;&gt;Node12 -->
<g id="edge17" class="edge">
<title>Node1&#45;&gt;Node12</title>
<path fill="none" stroke="midnightblue" d="M664.97,-208.3C656.9,-169.07 633.33,-80.91 578,-34 568.42,-25.88 556.3,-20.5 544.19,-16.93"/>
<polygon fill="midnightblue" stroke="midnightblue" points="661.55,-209.05 666.89,-218.2 668.42,-207.72 661.55,-209.05"/>
</g>
<!-- Node13 -->
<g id="node13" class="node">
<title>Node13</title>
<g id="a_node13"><a xlink:href="initialcondition_8c.html#a51d0251f84a962a611ff0c0a8797a3e4" target="_top" xlink:title="(HELPER) Sets the t=0 fluid state for all blocks.">
<polygon fill="none" stroke="black" points="247.5,-27 247.5,-57 357.5,-57 357.5,-27 247.5,-27"/>
<text text-anchor="start" x="255.5" y="-45" font-family="Helvetica,sans-Serif" font-size="10.00">SetInitialFluidState</text>
<text text-anchor="middle" x="302.5" y="-34" font-family="Helvetica,sans-Serif" font-size="10.00">_FreshStart</text>
</a>
</g>
</g>
<!-- Node1&#45;&gt;Node13 -->
<g id="edge24" class="edge">
<title>Node1&#45;&gt;Node13</title>
<path fill="none" stroke="midnightblue" d="M663.42,-208.44C653.42,-174.29 627.73,-104.37 578,-72 511.7,-28.85 416.84,-28.86 357.77,-34.32"/>
<polygon fill="midnightblue" stroke="midnightblue" points="660.07,-209.48 666.12,-218.17 666.82,-207.6 660.07,-209.48"/>
</g>
<!-- Node15 -->
<g id="node15" class="node">
<title>Node15</title>
<g id="a_node15"><a xlink:href="solvers_8c.html#a2ed4825273a593f371a3d48071708255" target="_top" xlink:title="Orchestrates a single time step of the Eulerian fluid solver.">
<polygon fill="none" stroke="black" points="264.5,-141.5 264.5,-160.5 340.5,-160.5 340.5,-141.5 264.5,-141.5"/>
<text text-anchor="middle" x="302.5" y="-148.5" font-family="Helvetica,sans-Serif" font-size="10.00">Flow_Solver</text>
</a>
</g>
</g>
<!-- Node1&#45;&gt;Node15 -->
<g id="edge21" class="edge">
<title>Node1&#45;&gt;Node15</title>
<path fill="none" stroke="midnightblue" d="M645.67,-213.11C627.95,-202.32 602.39,-188.38 578,-181 495.87,-156.14 394.39,-151.38 340.77,-150.76"/>
<polygon fill="midnightblue" stroke="midnightblue" points="643.83,-216.08 654.17,-218.41 647.54,-210.15 643.83,-216.08"/>
</g>
<!-- Node17 -->
<g id="node17" class="node">
<title>Node17</title>
<g id="a_node17"><a xlink:href="initialcondition_8c.html#aff0951526ed36a87e2745da0154a68e5" target="_top" xlink:title="(HELPER) Reads fluid state for all blocks from restart files.">
<polygon fill="none" stroke="black" points="247.5,-76 247.5,-106 357.5,-106 357.5,-76 247.5,-76"/>
<text text-anchor="start" x="255.5" y="-94" font-family="Helvetica,sans-Serif" font-size="10.00">SetInitialFluidState</text>
<text text-anchor="middle" x="302.5" y="-83" font-family="Helvetica,sans-Serif" font-size="10.00">_Restart</text>
</a>
</g>
</g>
<!-- Node1&#45;&gt;Node17 -->
<g id="edge25" class="edge">
<title>Node1&#45;&gt;Node17</title>
<path fill="none" stroke="midnightblue" d="M660.96,-209.11C648.48,-180.72 620.62,-127.94 578,-105 509.09,-67.91 415.81,-72.6 357.67,-80.76"/>
<polygon fill="midnightblue" stroke="midnightblue" points="657.75,-210.51 664.85,-218.37 664.2,-207.79 657.75,-210.51"/>
</g>
<!-- Node18 -->
<g id="node18" class="node">
<title>Node18</title>
<g id="a_node18"><a xlink:href="poisson_8c.html#a7cf2cfc0383ba0076f827f7d3856f2ed" target="_top" xlink:title="Updates the pressure field and handles periodic boundary conditions.">
<polygon fill="none" stroke="black" points="444,-114.5 444,-133.5 538,-133.5 538,-114.5 444,-114.5"/>
<text text-anchor="middle" x="491" y="-121.5" font-family="Helvetica,sans-Serif" font-size="10.00">UpdatePressure</text>
</a>
</g>
</g>
<!-- Node1&#45;&gt;Node18 -->
<g id="edge27" class="edge">
<title>Node1&#45;&gt;Node18</title>
<path fill="none" stroke="midnightblue" d="M653.51,-210.76C636.82,-192.61 608.2,-164.42 578,-148 565.74,-141.34 551.48,-136.39 538.13,-132.78"/>
<polygon fill="midnightblue" stroke="midnightblue" points="651.02,-213.22 660.3,-218.32 656.22,-208.54 651.02,-213.22"/>
</g>
<!-- Node3 -->
<g id="node3" class="node">
<title>Node3</title>
<g id="a_node3"><a xlink:href="Metric_8c.html#a063043da47b68702c78c7e0769325b36" target="_top" xlink:title="Orchestrates the calculation of all grid metrics.">
<polygon fill="none" stroke="black" points="237,-297.5 237,-316.5 368,-316.5 368,-297.5 237,-297.5"/>
<text text-anchor="middle" x="302.5" y="-304.5" font-family="Helvetica,sans-Serif" font-size="10.00">CalculateAllGridMetrics</text>
</a>
</g>
</g>
<!-- Node2&#45;&gt;Node3 -->
<g id="edge2" class="edge">
<title>Node2&#45;&gt;Node3</title>
<path fill="none" stroke="midnightblue" d="M431.18,-261.81C422.03,-263.99 412.72,-266.4 404,-269 376.65,-277.15 346.09,-289.13 325.93,-297.45"/>
<polygon fill="midnightblue" stroke="midnightblue" points="432.06,-265.2 441.02,-259.54 430.49,-258.38 432.06,-265.2"/>
</g>
<!-- Node4 -->
<g id="node4" class="node">
<title>Node4</title>
<g id="a_node4"><a xlink:href="setup_8c.html#a2be2815aeb79afe9b95caf39c7b3312c" target="_top" xlink:title="The main orchestrator for setting up all grid&#45;related components.">
<polygon fill="none" stroke="black" points="79.5,-231.5 79.5,-250.5 198.5,-250.5 198.5,-231.5 79.5,-231.5"/>
<text text-anchor="middle" x="139" y="-238.5" font-family="Helvetica,sans-Serif" font-size="10.00">SetupGridAndSolvers</text>
</a>
</g>
</g>
<!-- Node3&#45;&gt;Node4 -->
<g id="edge3" class="edge">
<title>Node3&#45;&gt;Node4</title>
<path fill="none" stroke="midnightblue" d="M268.41,-293.48C237.08,-280.68 190.85,-261.78 163.25,-250.5"/>
<polygon fill="midnightblue" stroke="midnightblue" points="267.44,-296.86 278.02,-297.4 270.08,-290.38 267.44,-296.86"/>
</g>
<!-- Node5 -->
<g id="node5" class="node">
<title>Node5</title>
<g id="a_node5"><a xlink:href="picsolver_8c.html#a3c04138a5bfe5d72780bb7e82a18e627" target="_top" xlink:title=" ">
<polygon fill="none" stroke="black" points="0,-141.5 0,-160.5 41,-160.5 41,-141.5 0,-141.5"/>
<text text-anchor="middle" x="20.5" y="-148.5" font-family="Helvetica,sans-Serif" font-size="10.00">main</text>
</a>
</g>
</g>
<!-- Node4&#45;&gt;Node5 -->
<g id="edge4" class="edge">
<title>Node4&#45;&gt;Node5</title>
<path fill="none" stroke="midnightblue" d="M117.36,-225.06C93.15,-206.35 53.79,-175.95 33.88,-160.56"/>
<polygon fill="midnightblue" stroke="midnightblue" points="115.48,-228.02 125.53,-231.37 119.76,-222.49 115.48,-228.02"/>
</g>
<!-- Node6&#45;&gt;Node3 -->
<g id="edge6" class="edge">
<title>Node6&#45;&gt;Node3</title>
<path fill="none" stroke="midnightblue" d="M418.32,-224.64C413.39,-226.59 408.57,-228.7 404,-231 367.44,-249.35 330.67,-281.44 313.5,-297.41"/>
<polygon fill="midnightblue" stroke="midnightblue" points="419.72,-227.85 427.88,-221.1 417.29,-221.29 419.72,-227.85"/>
</g>
<!-- Node7&#45;&gt;Node3 -->
<g id="edge8" class="edge">
<title>Node7&#45;&gt;Node3</title>
<path fill="none" stroke="midnightblue" d="M415.69,-426.83C411.63,-425.12 407.7,-423.18 404,-421 358.32,-394.06 322.42,-339.15 309.1,-316.79"/>
<polygon fill="midnightblue" stroke="midnightblue" points="414.76,-430.22 425.35,-430.44 417.21,-423.66 414.76,-430.22"/>
</g>
<!-- Node8&#45;&gt;Node3 -->
<g id="edge10" class="edge">
<title>Node8&#45;&gt;Node3</title>
<path fill="none" stroke="midnightblue" d="M421.09,-389.59C415.2,-387.69 409.43,-385.5 404,-383 366.66,-365.76 329.96,-332.86 313.1,-316.59"/>
<polygon fill="midnightblue" stroke="midnightblue" points="420.48,-393.06 431.06,-392.53 422.46,-386.34 420.48,-393.06"/>
</g>
<!-- Node9&#45;&gt;Node3 -->
<g id="edge12" class="edge">
<title>Node9&#45;&gt;Node3</title>
<path fill="none" stroke="midnightblue" d="M431.18,-352.19C422.03,-350.01 412.72,-347.6 404,-345 376.65,-336.85 346.09,-324.87 325.93,-316.55"/>
<polygon fill="midnightblue" stroke="midnightblue" points="430.49,-355.62 441.02,-354.46 432.06,-348.8 430.49,-355.62"/>
</g>
<!-- Node10&#45;&gt;Node3 -->
<g id="edge14" class="edge">
<title>Node10&#45;&gt;Node3</title>
<path fill="none" stroke="midnightblue" d="M419.63,-318.83C402.77,-317.11 384.85,-315.29 368.26,-313.6"/>
<polygon fill="midnightblue" stroke="midnightblue" points="419.66,-322.35 429.96,-319.88 420.37,-315.39 419.66,-322.35"/>
</g>
<!-- Node11&#45;&gt;Node3 -->
<g id="edge16" class="edge">
<title>Node11&#45;&gt;Node3</title>
<path fill="none" stroke="midnightblue" d="M417.85,-295.35C401.5,-297.02 384.23,-298.78 368.2,-300.41"/>
<polygon fill="midnightblue" stroke="midnightblue" points="418.3,-298.82 427.9,-294.33 417.59,-291.86 418.3,-298.82"/>
</g>
<!-- Node12&#45;&gt;Node13 -->
<g id="edge18" class="edge">
<title>Node12&#45;&gt;Node13</title>
<path fill="none" stroke="midnightblue" d="M427.4,-20.74C404.85,-24.61 379.61,-28.94 357.82,-32.68"/>
<polygon fill="midnightblue" stroke="midnightblue" points="428.29,-24.14 437.55,-19 427.11,-17.24 428.29,-24.14"/>
</g>
<!-- Node14 -->
<g id="node14" class="node">
<title>Node14</title>
<g id="a_node14"><a xlink:href="initialcondition_8c.html#ad0dd7d3f2528b6a7802fcd551e88ea99" target="_top" xlink:title="High&#45;level orchestrator to set the complete initial state of the Eulerian solver.">
<polygon fill="none" stroke="black" points="77,-81.5 77,-100.5 201,-100.5 201,-81.5 77,-81.5"/>
<text text-anchor="middle" x="139" y="-88.5" font-family="Helvetica,sans-Serif" font-size="10.00">InitializeEulerianState</text>
</a>
</g>
</g>
<!-- Node13&#45;&gt;Node14 -->
<g id="edge19" class="edge">
<title>Node13&#45;&gt;Node14</title>
<path fill="none" stroke="midnightblue" d="M242.03,-60.04C218.15,-67.29 191.59,-75.35 171.56,-81.42"/>
<polygon fill="midnightblue" stroke="midnightblue" points="243.17,-63.35 251.73,-57.1 241.14,-56.66 243.17,-63.35"/>
</g>
<!-- Node14&#45;&gt;Node5 -->
<g id="edge20" class="edge">
<title>Node14&#45;&gt;Node5</title>
<path fill="none" stroke="midnightblue" d="M110.51,-105.16C88.86,-116.31 59.26,-131.55 40.26,-141.34"/>
<polygon fill="midnightblue" stroke="midnightblue" points="112.25,-108.2 119.54,-100.51 109.05,-101.97 112.25,-108.2"/>
</g>
<!-- Node16 -->
<g id="node16" class="node">
<title>Node16</title>
<g id="a_node16"><a xlink:href="simulation_8c.html#a5cfb2f783604af7f20171d19f969d5d3" target="_top" xlink:title="Executes the main time&#45;marching loop for the coupled Euler&#45;Lagrange simulation.">
<polygon fill="none" stroke="black" points="83.5,-141.5 83.5,-160.5 194.5,-160.5 194.5,-141.5 83.5,-141.5"/>
<text text-anchor="middle" x="139" y="-148.5" font-family="Helvetica,sans-Serif" font-size="10.00">AdvanceSimulation</text>
</a>
</g>
</g>
<!-- Node15&#45;&gt;Node16 -->
<g id="edge22" class="edge">
<title>Node15&#45;&gt;Node16</title>
<path fill="none" stroke="midnightblue" d="M254.39,-151C235.68,-151 214.04,-151 194.65,-151"/>
<polygon fill="midnightblue" stroke="midnightblue" points="254.45,-154.5 264.45,-151 254.45,-147.5 254.45,-154.5"/>
</g>
<!-- Node16&#45;&gt;Node5 -->
<g id="edge23" class="edge">
<title>Node16&#45;&gt;Node5</title>
<path fill="none" stroke="midnightblue" d="M72.97,-151C61.43,-151 50.25,-151 41.27,-151"/>
<polygon fill="midnightblue" stroke="midnightblue" points="73.16,-154.5 83.16,-151 73.16,-147.5 73.16,-154.5"/>
</g>
<!-- Node17&#45;&gt;Node14 -->
<g id="edge26" class="edge">
<title>Node17&#45;&gt;Node14</title>
<path fill="none" stroke="midnightblue" d="M237,-91C225.14,-91 212.79,-91 201.04,-91"/>
<polygon fill="midnightblue" stroke="midnightblue" points="237.27,-94.5 247.27,-91 237.27,-87.5 237.27,-94.5"/>
</g>
<!-- Node18&#45;&gt;Node15 -->
<g id="edge28" class="edge">
<title>Node18&#45;&gt;Node15</title>
<path fill="none" stroke="midnightblue" d="M433.92,-132.12C403.72,-136.49 367.3,-141.76 340.63,-145.62"/>
<polygon fill="midnightblue" stroke="midnightblue" points="434.5,-135.57 443.9,-130.67 433.5,-128.64 434.5,-135.57"/>
</g>
</g>
</svg>
