<?xml version="1.0" encoding="UTF-8" standalone="no"?>
<!DOCTYPE svg PUBLIC "-//W3C//DTD SVG 1.1//EN"
 "http://www.w3.org/Graphics/SVG/1.1/DTD/svg11.dtd">
<!-- Generated by graphviz version 2.43.0 (0)
 -->
<!-- Title: CreateSimulationContext Pages: 1 -->
<svg width="469pt" height="104pt"
 viewBox="0.00 0.00 469.00 104.00" xmlns="http://www.w3.org/2000/svg" xmlns:xlink="http://www.w3.org/1999/xlink">
<g id="graph0" class="graph" transform="scale(1 1) rotate(0) translate(4 100)">
<title>CreateSimulationContext</title>
<!-- Node1 -->
<g id="node1" class="node">
<title>Node1</title>
<g id="a_node1"><a xlink:title="Allocates and populates the master SimulationContext object.">
<polygon fill="#bfbfbf" stroke="black" points="0,-38.5 0,-57.5 140,-57.5 140,-38.5 0,-38.5"/>
<text text-anchor="middle" x="70" y="-45.5" font-family="Helvetica,sans-Serif" font-size="10.00">CreateSimulationContext</text>
</a>
</g>
</g>
<!-- Node2 -->
<g id="node2" class="node">
<title>Node2</title>
<g id="a_node2"><a xlink:href="logging_8h.html#a6c0ddc8d3a828f3ab26c557ba0aedf75" target="_top" xlink:title="Load function names from a text file.">
<polygon fill="none" stroke="black" points="176,-76.5 176,-95.5 343,-95.5 343,-76.5 176,-76.5"/>
<text text-anchor="middle" x="259.5" y="-83.5" font-family="Helvetica,sans-Serif" font-size="10.00">LoadAllowedFunctionsFromFile</text>
</a>
</g>
</g>
<!-- Node1&#45;&gt;Node2 -->
<g id="edge1" class="edge">
<title>Node1&#45;&gt;Node2</title>
<path fill="none" stroke="midnightblue" d="M118.31,-57.59C143.61,-62.72 174.95,-69.07 201.57,-74.46"/>
<polygon fill="midnightblue" stroke="midnightblue" points="201.03,-77.92 211.53,-76.48 202.42,-71.06 201.03,-77.92"/>
</g>
<!-- Node4 -->
<g id="node4" class="node">
<title>Node4</title>
<g id="a_node4"><a xlink:href="logging_8h.html#a4d4a385a6fac09d0e106eeb2dfde18ba" target="_top" xlink:title="Prints the current logging level to the console.">
<polygon fill="none" stroke="black" points="215,-38.5 215,-57.5 304,-57.5 304,-38.5 215,-38.5"/>
<text text-anchor="middle" x="259.5" y="-45.5" font-family="Helvetica,sans-Serif" font-size="10.00">print_log_level</text>
</a>
</g>
</g>
<!-- Node1&#45;&gt;Node4 -->
<g id="edge3" class="edge">
<title>Node1&#45;&gt;Node4</title>
<path fill="none" stroke="midnightblue" d="M140.02,-48C161.36,-48 184.54,-48 204.69,-48"/>
<polygon fill="midnightblue" stroke="midnightblue" points="204.93,-51.5 214.93,-48 204.93,-44.5 204.93,-51.5"/>
</g>
<!-- Node6 -->
<g id="node6" class="node">
<title>Node6</title>
<g id="a_node6"><a xlink:href="logging_8h.html#a0c30361e55f762e47599a9e2a5999d24" target="_top" xlink:title="Sets the global list of function names that are allowed to log.">
<polygon fill="none" stroke="black" points="197,-0.5 197,-19.5 322,-19.5 322,-0.5 197,-0.5"/>
<text text-anchor="middle" x="259.5" y="-7.5" font-family="Helvetica,sans-Serif" font-size="10.00">set_allowed_functions</text>
</a>
</g>
</g>
<!-- Node1&#45;&gt;Node6 -->
<g id="edge5" class="edge">
<title>Node1&#45;&gt;Node6</title>
<path fill="none" stroke="midnightblue" d="M118.31,-38.41C143.61,-33.28 174.95,-26.93 201.57,-21.54"/>
<polygon fill="midnightblue" stroke="midnightblue" points="202.42,-24.94 211.53,-19.52 201.03,-18.08 202.42,-24.94"/>
</g>
<!-- Node3 -->
<g id="node3" class="node">
<title>Node3</title>
<g id="a_node3"><a xlink:href="logging_8c.html#a6b21b3f128c91055d8784740fcf05519" target="_top" xlink:title=" ">
<polygon fill="none" stroke="black" points="401.5,-76.5 401.5,-95.5 438.5,-95.5 438.5,-76.5 401.5,-76.5"/>
<text text-anchor="middle" x="420" y="-83.5" font-family="Helvetica,sans-Serif" font-size="10.00">trim</text>
</a>
</g>
</g>
<!-- Node2&#45;&gt;Node3 -->
<g id="edge2" class="edge">
<title>Node2&#45;&gt;Node3</title>
<path fill="none" stroke="midnightblue" d="M343.46,-86C360.72,-86 377.74,-86 391.25,-86"/>
<polygon fill="midnightblue" stroke="midnightblue" points="391.26,-89.5 401.26,-86 391.26,-82.5 391.26,-89.5"/>
</g>
<!-- Node5 -->
<g id="node5" class="node">
<title>Node5</title>
<g id="a_node5"><a xlink:href="logging_8c.html#a9585f583c260f40a73f2490914edc689" target="_top" xlink:title="Retrieves the current logging level from the environment variable LOG_LEVEL.">
<polygon fill="none" stroke="black" points="379,-38.5 379,-57.5 461,-57.5 461,-38.5 379,-38.5"/>
<text text-anchor="middle" x="420" y="-45.5" font-family="Helvetica,sans-Serif" font-size="10.00">get_log_level</text>
</a>
</g>
</g>
<!-- Node4&#45;&gt;Node5 -->
<g id="edge4" class="edge">
<title>Node4&#45;&gt;Node5</title>
<path fill="none" stroke="midnightblue" d="M304.23,-48C324.22,-48 348.01,-48 368.73,-48"/>
<polygon fill="midnightblue" stroke="midnightblue" points="368.94,-51.5 378.94,-48 368.94,-44.5 368.94,-51.5"/>
</g>
</g>
</svg>
