<?xml version="1.0" encoding="UTF-8" standalone="no"?>
<!DOCTYPE svg PUBLIC "-//W3C//DTD SVG 1.1//EN"
 "http://www.w3.org/Graphics/SVG/1.1/DTD/svg11.dtd">
<!-- Generated by graphviz version 2.43.0 (0)
 -->
<!-- Title: SetupBoundaryConditions Pages: 1 -->
<svg width="545pt" height="294pt"
 viewBox="0.00 0.00 545.00 294.00" xmlns="http://www.w3.org/2000/svg" xmlns:xlink="http://www.w3.org/1999/xlink">
<g id="graph0" class="graph" transform="scale(1 1) rotate(0) translate(4 290)">
<title>SetupBoundaryConditions</title>
<!-- Node1 -->
<g id="node1" class="node">
<title>Node1</title>
<g id="a_node1"><a xlink:title="(Orchestrator) Sets up all boundary conditions for the simulation.">
<polygon fill="#bfbfbf" stroke="black" points="0,-95.5 0,-114.5 143,-114.5 143,-95.5 0,-95.5"/>
<text text-anchor="middle" x="71.5" y="-102.5" font-family="Helvetica,sans-Serif" font-size="10.00">SetupBoundaryConditions</text>
</a>
</g>
</g>
<!-- Node2 -->
<g id="node2" class="node">
<title>Node2</title>
<g id="a_node2"><a xlink:href="io_8h.html#a5cc5e40cd538efc87ebd94ebdbb2a8e8" target="_top" xlink:title="Parses the boundary conditions file to configure the type, handler, and any associated parameters for...">
<polygon fill="none" stroke="black" points="182.5,-152.5 182.5,-171.5 337.5,-171.5 337.5,-152.5 182.5,-152.5"/>
<text text-anchor="middle" x="260" y="-159.5" font-family="Helvetica,sans-Serif" font-size="10.00">ParseAllBoundaryConditions</text>
</a>
</g>
</g>
<!-- Node1&#45;&gt;Node2 -->
<g id="edge1" class="edge">
<title>Node1&#45;&gt;Node2</title>
<path fill="none" stroke="midnightblue" d="M103.72,-114.54C135.05,-124.12 183.49,-138.92 217.92,-149.45"/>
<polygon fill="midnightblue" stroke="midnightblue" points="217.1,-152.85 227.68,-152.43 219.14,-146.16 217.1,-152.85"/>
</g>
<!-- Node9 -->
<g id="node9" class="node">
<title>Node9</title>
<g id="a_node9"><a xlink:href="Boundaries_8h.html#ae7f472e68b4ebad054e1391e5de8c9a0" target="_top" xlink:title=" ">
<polygon fill="none" stroke="black" points="179,-38.5 179,-57.5 341,-57.5 341,-38.5 179,-38.5"/>
<text text-anchor="middle" x="260" y="-45.5" font-family="Helvetica,sans-Serif" font-size="10.00">TranslateModernBCsToLegacy</text>
</a>
</g>
</g>
<!-- Node1&#45;&gt;Node9 -->
<g id="edge8" class="edge">
<title>Node1&#45;&gt;Node9</title>
<path fill="none" stroke="midnightblue" d="M103.72,-95.46C135.05,-85.88 183.49,-71.08 217.92,-60.55"/>
<polygon fill="midnightblue" stroke="midnightblue" points="219.14,-63.84 227.68,-57.57 217.1,-57.15 219.14,-63.84"/>
</g>
<!-- Node3 -->
<g id="node3" class="node">
<title>Node3</title>
<g id="a_node3"><a xlink:href="logging_8h.html#ab17ab5ac0ff52ba6a344790a496f6111" target="_top" xlink:title="Converts a BCHandlerType enum to its string representation.">
<polygon fill="none" stroke="black" points="392,-266.5 392,-285.5 522,-285.5 522,-266.5 392,-266.5"/>
<text text-anchor="middle" x="457" y="-273.5" font-family="Helvetica,sans-Serif" font-size="10.00">BCHandlerTypeToString</text>
</a>
</g>
</g>
<!-- Node2&#45;&gt;Node3 -->
<g id="edge2" class="edge">
<title>Node2&#45;&gt;Node3</title>
<path fill="none" stroke="midnightblue" d="M269.88,-171.76C288.03,-191.12 331.54,-234.41 377,-257 381.82,-259.39 386.95,-261.49 392.2,-263.34"/>
<polygon fill="midnightblue" stroke="midnightblue" points="391.14,-266.67 401.73,-266.39 393.27,-260.01 391.14,-266.67"/>
</g>
<!-- Node4 -->
<g id="node4" class="node">
<title>Node4</title>
<g id="a_node4"><a xlink:href="io_8c.html#acee53553fb7d51eb948f1d4030518860" target="_top" xlink:title="Frees the memory allocated for a linked list of BC_Param structs.">
<polygon fill="none" stroke="black" points="404.5,-228.5 404.5,-247.5 509.5,-247.5 509.5,-228.5 404.5,-228.5"/>
<text text-anchor="middle" x="457" y="-235.5" font-family="Helvetica,sans-Serif" font-size="10.00">FreeBC_ParamList</text>
</a>
</g>
</g>
<!-- Node2&#45;&gt;Node4 -->
<g id="edge3" class="edge">
<title>Node2&#45;&gt;Node4</title>
<path fill="none" stroke="midnightblue" d="M277.4,-171.5C299.42,-183.93 340.06,-205.67 377,-219 384.01,-221.53 391.49,-223.83 398.96,-225.88"/>
<polygon fill="midnightblue" stroke="midnightblue" points="398.15,-229.28 408.71,-228.43 399.92,-222.51 398.15,-229.28"/>
</g>
<!-- Node5 -->
<g id="node5" class="node">
<title>Node5</title>
<g id="a_node5"><a xlink:href="io_8c.html#ab6896c293521673fcbff33001706d3ec" target="_top" xlink:title="Converts a string representation of a face to a BCFace enum.">
<polygon fill="none" stroke="black" points="411,-190.5 411,-209.5 503,-209.5 503,-190.5 411,-190.5"/>
<text text-anchor="middle" x="457" y="-197.5" font-family="Helvetica,sans-Serif" font-size="10.00">StringToBCFace</text>
</a>
</g>
</g>
<!-- Node2&#45;&gt;Node5 -->
<g id="edge4" class="edge">
<title>Node2&#45;&gt;Node5</title>
<path fill="none" stroke="midnightblue" d="M309.96,-171.54C337.61,-176.93 372.25,-183.68 400.86,-189.25"/>
<polygon fill="midnightblue" stroke="midnightblue" points="400.22,-192.7 410.7,-191.17 401.56,-185.83 400.22,-192.7"/>
</g>
<!-- Node6 -->
<g id="node6" class="node">
<title>Node6</title>
<g id="a_node6"><a xlink:href="io_8c.html#a15bdb2122be30f52df280e1d7204f578" target="_top" xlink:title="Converts a string representation of a handler to a BCHandlerType enum.">
<polygon fill="none" stroke="black" points="392,-152.5 392,-171.5 522,-171.5 522,-152.5 392,-152.5"/>
<text text-anchor="middle" x="457" y="-159.5" font-family="Helvetica,sans-Serif" font-size="10.00">StringToBCHandlerType</text>
</a>
</g>
</g>
<!-- Node2&#45;&gt;Node6 -->
<g id="edge5" class="edge">
<title>Node2&#45;&gt;Node6</title>
<path fill="none" stroke="midnightblue" d="M337.51,-162C352.02,-162 367.18,-162 381.62,-162"/>
<polygon fill="midnightblue" stroke="midnightblue" points="381.99,-165.5 391.99,-162 381.99,-158.5 381.99,-165.5"/>
</g>
<!-- Node7 -->
<g id="node7" class="node">
<title>Node7</title>
<g id="a_node7"><a xlink:href="io_8c.html#ad5fc2fe7ae3aa77361c5ab62343358a7" target="_top" xlink:title="Converts a string representation of a BC type to a BCType enum.">
<polygon fill="none" stroke="black" points="411,-114.5 411,-133.5 503,-133.5 503,-114.5 411,-114.5"/>
<text text-anchor="middle" x="457" y="-121.5" font-family="Helvetica,sans-Serif" font-size="10.00">StringToBCType</text>
</a>
</g>
</g>
<!-- Node2&#45;&gt;Node7 -->
<g id="edge6" class="edge">
<title>Node2&#45;&gt;Node7</title>
<path fill="none" stroke="midnightblue" d="M309.96,-152.46C337.61,-147.07 372.25,-140.32 400.86,-134.75"/>
<polygon fill="midnightblue" stroke="midnightblue" points="401.56,-138.17 410.7,-132.83 400.22,-131.3 401.56,-138.17"/>
</g>
<!-- Node8 -->
<g id="node8" class="node">
<title>Node8</title>
<g id="a_node8"><a xlink:href="io_8c.html#a5fe767286174b757deb2d404f2b4843f" target="_top" xlink:title="Validates that a specific handler is compatible with a general BC type.">
<polygon fill="none" stroke="black" points="377,-76.5 377,-95.5 537,-95.5 537,-76.5 377,-76.5"/>
<text text-anchor="middle" x="457" y="-83.5" font-family="Helvetica,sans-Serif" font-size="10.00">ValidateBCHandlerForBCType</text>
</a>
</g>
</g>
<!-- Node2&#45;&gt;Node8 -->
<g id="edge7" class="edge">
<title>Node2&#45;&gt;Node8</title>
<path fill="none" stroke="midnightblue" d="M277.4,-152.5C299.42,-140.07 340.06,-118.33 377,-105 384.01,-102.47 391.49,-100.17 398.96,-98.12"/>
<polygon fill="midnightblue" stroke="midnightblue" points="399.92,-101.49 408.71,-95.57 398.15,-94.72 399.92,-101.49"/>
</g>
<!-- Node10 -->
<g id="node10" class="node">
<title>Node10</title>
<g id="a_node10"><a xlink:href="logging_8h.html#a9b417fe56a110c0f6a3e64860e3e5cdb" target="_top" xlink:title="Helper function to convert BCFace enum to a string representation.">
<polygon fill="none" stroke="black" points="411,-38.5 411,-57.5 503,-57.5 503,-38.5 411,-38.5"/>
<text text-anchor="middle" x="457" y="-45.5" font-family="Helvetica,sans-Serif" font-size="10.00">BCFaceToString</text>
</a>
</g>
</g>
<!-- Node9&#45;&gt;Node10 -->
<g id="edge9" class="edge">
<title>Node9&#45;&gt;Node10</title>
<path fill="none" stroke="midnightblue" d="M341.16,-48C361.19,-48 382.23,-48 400.75,-48"/>
<polygon fill="midnightblue" stroke="midnightblue" points="400.75,-51.5 410.75,-48 400.75,-44.5 400.75,-51.5"/>
</g>
<!-- Node11 -->
<g id="node11" class="node">
<title>Node11</title>
<g id="a_node11"><a xlink:href="logging_8h.html#a804d193057ea6054b3911ae508808821" target="_top" xlink:title="Helper function to convert BCType enum to a string representation.">
<polygon fill="none" stroke="black" points="411,-0.5 411,-19.5 503,-19.5 503,-0.5 411,-0.5"/>
<text text-anchor="middle" x="457" y="-7.5" font-family="Helvetica,sans-Serif" font-size="10.00">BCTypeToString</text>
</a>
</g>
</g>
<!-- Node9&#45;&gt;Node11 -->
<g id="edge10" class="edge">
<title>Node9&#45;&gt;Node11</title>
<path fill="none" stroke="midnightblue" d="M309.96,-38.46C337.61,-33.07 372.25,-26.32 400.86,-20.75"/>
<polygon fill="midnightblue" stroke="midnightblue" points="401.56,-24.17 410.7,-18.83 400.22,-17.3 401.56,-24.17"/>
</g>
</g>
</svg>
