<?xml version="1.0" encoding="UTF-8" standalone="no"?>
<!DOCTYPE svg PUBLIC "-//W3C//DTD SVG 1.1//EN"
 "http://www.w3.org/Graphics/SVG/1.1/DTD/svg11.dtd">
<!-- Generated by graphviz version 2.43.0 (0)
 -->
<!-- Title: UpdateSolverHistoryVectors Pages: 1 -->
<svg width="400pt" height="104pt"
 viewBox="0.00 0.00 400.00 104.00" xmlns="http://www.w3.org/2000/svg" xmlns:xlink="http://www.w3.org/1999/xlink">
<g id="graph0" class="graph" transform="scale(1 1) rotate(0) translate(4 100)">
<title>UpdateSolverHistoryVectors</title>
<!-- Node1 -->
<g id="node1" class="node">
<title>Node1</title>
<g id="a_node1"><a xlink:title="Copies the current time step&#39;s solution fields into history vectors (e.g., U(t_n) &#45;&gt; U_o,...">
<polygon fill="#bfbfbf" stroke="black" points="237,-38.5 237,-57.5 392,-57.5 392,-38.5 237,-38.5"/>
<text text-anchor="middle" x="314.5" y="-45.5" font-family="Helvetica,sans-Serif" font-size="10.00">UpdateSolverHistoryVectors</text>
</a>
</g>
</g>
<!-- Node2 -->
<g id="node2" class="node">
<title>Node2</title>
<g id="a_node2"><a xlink:href="simulation_8c.html#a5cfb2f783604af7f20171d19f969d5d3" target="_top" xlink:title="Executes the main time&#45;marching loop for the coupled Euler&#45;Lagrange simulation.">
<polygon fill="none" stroke="black" points="83.5,-76.5 83.5,-95.5 194.5,-95.5 194.5,-76.5 83.5,-76.5"/>
<text text-anchor="middle" x="139" y="-83.5" font-family="Helvetica,sans-Serif" font-size="10.00">AdvanceSimulation</text>
</a>
</g>
</g>
<!-- Node1&#45;&gt;Node2 -->
<g id="edge1" class="edge">
<title>Node1&#45;&gt;Node2</title>
<path fill="none" stroke="midnightblue" d="M259.84,-59.75C235.31,-65.13 206.62,-71.41 183.47,-76.48"/>
<polygon fill="midnightblue" stroke="midnightblue" points="260.7,-63.15 269.72,-57.59 259.2,-56.31 260.7,-63.15"/>
</g>
<!-- Node4 -->
<g id="node4" class="node">
<title>Node4</title>
<g id="a_node4"><a xlink:href="initialcondition_8c.html#ad0dd7d3f2528b6a7802fcd551e88ea99" target="_top" xlink:title="High&#45;level orchestrator to set the complete initial state of the Eulerian solver.">
<polygon fill="none" stroke="black" points="77,-38.5 77,-57.5 201,-57.5 201,-38.5 77,-38.5"/>
<text text-anchor="middle" x="139" y="-45.5" font-family="Helvetica,sans-Serif" font-size="10.00">InitializeEulerianState</text>
</a>
</g>
</g>
<!-- Node1&#45;&gt;Node4 -->
<g id="edge3" class="edge">
<title>Node1&#45;&gt;Node4</title>
<path fill="none" stroke="midnightblue" d="M226.74,-48C218.08,-48 209.41,-48 201.09,-48"/>
<polygon fill="midnightblue" stroke="midnightblue" points="226.9,-51.5 236.9,-48 226.9,-44.5 226.9,-51.5"/>
</g>
<!-- Node5 -->
<g id="node5" class="node">
<title>Node5</title>
<g id="a_node5"><a xlink:href="simulation_8c.html#a4e2cad25ac1fbdc6745d6fd8fcc1bbc1" target="_top" xlink:title="Finalizes the simulation setup at t=0, ensuring a consistent state before time marching.">
<polygon fill="none" stroke="black" points="83.5,-0.5 83.5,-19.5 194.5,-19.5 194.5,-0.5 83.5,-0.5"/>
<text text-anchor="middle" x="139" y="-7.5" font-family="Helvetica,sans-Serif" font-size="10.00">PerformInitialSetup</text>
</a>
</g>
</g>
<!-- Node1&#45;&gt;Node5 -->
<g id="edge5" class="edge">
<title>Node1&#45;&gt;Node5</title>
<path fill="none" stroke="midnightblue" d="M259.84,-36.25C235.31,-30.87 206.62,-24.59 183.47,-19.52"/>
<polygon fill="midnightblue" stroke="midnightblue" points="259.2,-39.69 269.72,-38.41 260.7,-32.85 259.2,-39.69"/>
</g>
<!-- Node3 -->
<g id="node3" class="node">
<title>Node3</title>
<g id="a_node3"><a xlink:href="picsolver_8c.html#a3c04138a5bfe5d72780bb7e82a18e627" target="_top" xlink:title=" ">
<polygon fill="none" stroke="black" points="0,-38.5 0,-57.5 41,-57.5 41,-38.5 0,-38.5"/>
<text text-anchor="middle" x="20.5" y="-45.5" font-family="Helvetica,sans-Serif" font-size="10.00">main</text>
</a>
</g>
</g>
<!-- Node2&#45;&gt;Node3 -->
<g id="edge2" class="edge">
<title>Node2&#45;&gt;Node3</title>
<path fill="none" stroke="midnightblue" d="M96.98,-73.4C90.29,-71.29 83.45,-69.11 77,-67 65.09,-63.11 51.82,-58.57 41.23,-54.91"/>
<polygon fill="midnightblue" stroke="midnightblue" points="96.01,-76.76 106.6,-76.4 98.1,-70.08 96.01,-76.76"/>
</g>
<!-- Node4&#45;&gt;Node3 -->
<g id="edge4" class="edge">
<title>Node4&#45;&gt;Node3</title>
<path fill="none" stroke="midnightblue" d="M66.46,-48C57.17,-48 48.36,-48 41.04,-48"/>
<polygon fill="midnightblue" stroke="midnightblue" points="66.68,-51.5 76.68,-48 66.68,-44.5 66.68,-51.5"/>
</g>
<!-- Node5&#45;&gt;Node3 -->
<g id="edge6" class="edge">
<title>Node5&#45;&gt;Node3</title>
<path fill="none" stroke="midnightblue" d="M96.98,-22.6C90.29,-24.71 83.45,-26.89 77,-29 65.09,-32.89 51.82,-37.43 41.23,-41.09"/>
<polygon fill="midnightblue" stroke="midnightblue" points="98.1,-25.92 106.6,-19.6 96.01,-19.24 98.1,-25.92"/>
</g>
</g>
</svg>
