<?xml version="1.0" encoding="UTF-8" standalone="no"?>
<!DOCTYPE svg PUBLIC "-//W3C//DTD SVG 1.1//EN"
 "http://www.w3.org/Graphics/SVG/1.1/DTD/svg11.dtd">
<!-- Generated by graphviz version 2.43.0 (0)
 -->
<!-- Title: simulation.h Pages: 1 -->
<!--zoomable 868 -->
<svg id="main" version="1.1" xmlns="http://www.w3.org/2000/svg" xmlns:xlink="http://www.w3.org/1999/xlink" xml:space="preserve" onload="init(evt)">
<style type="text/css"><![CDATA[
.edge:hover path { stroke: red; }
.edge:hover polygon { stroke: red; fill: red; }
]]></style>
<script type="text/javascript"><![CDATA[
var edges = document.getElementsByTagName('g');
if (edges && edges.length) {
  for (var i=0;i<edges.length;i++) {
    if (edges[i].id.substr(0,4)=='edge') {
      edges[i].setAttribute('class','edge');
    }
  }
}
]]></script>
        <defs>
                <circle id="rim" cx="0" cy="0" r="7"/>
                <circle id="rim2" cx="0" cy="0" r="3.5"/>
                <g id="zoomPlus">
                        <use xlink:href="#rim" fill="#404040">
                                <set attributeName="fill" to="#808080" begin="zoomplus.mouseover" end="zoomplus.mouseout"/>
                        </use>
                        <path d="M-4,0h8M0,-4v8" fill="none" stroke="white" stroke-width="1.5" pointer-events="none"/>
                </g>
                <g id="zoomMin">
                        <use xlink:href="#rim" fill="#404040">
                                <set attributeName="fill" to="#808080" begin="zoomminus.mouseover" end="zoomminus.mouseout"/>
                        </use>
                        <path d="M-4,0h8" fill="none" stroke="white" stroke-width="1.5" pointer-events="none"/>
                </g>
                <g id="dirArrow">
                        <path fill="none" stroke="white" stroke-width="1.5" d="M0,-3.0v7 M-2.5,-0.5L0,-3.0L2.5,-0.5"/>
                </g>
               <g id="resetDef">
                       <use xlink:href="#rim2" fill="#404040">
                               <set attributeName="fill" to="#808080" begin="reset.mouseover" end="reset.mouseout"/>
                       </use>
               </g>
        </defs>

<script type="text/javascript">
var viewWidth = 3882;
var viewHeight = 868;
var sectionId = 'dynsection-0';
</script>
<script xlink:href="svgpan.js"/>
<svg id="graph" class="graph">
<g id="viewport">
<title>simulation.h</title>
<!-- Node1 -->
<g id="node1" class="node">
<title>Node1</title>
<g id="a_node1"><a xlink:title=" ">
<polygon fill="#bfbfbf" stroke="black" points="1581.5,-840.5 1581.5,-859.5 1658.5,-859.5 1658.5,-840.5 1581.5,-840.5"/>
<text text-anchor="middle" x="1620" y="-847.5" font-family="Helvetica,sans-Serif" font-size="10.00">simulation.h</text>
</a>
</g>
</g>
<!-- Node2 -->
<g id="node2" class="node">
<title>Node2</title>
<g id="a_node2"><a xlink:title=" ">
<polygon fill="none" stroke="#bfbfbf" points="1377.5,-112.5 1377.5,-131.5 1438.5,-131.5 1438.5,-112.5 1377.5,-112.5"/>
<text text-anchor="middle" x="1408" y="-119.5" font-family="Helvetica,sans-Serif" font-size="10.00">petscpf.h</text>
</a>
</g>
</g>
<!-- Node1&#45;&gt;Node2 -->
<g id="edge1" class="edge">
<title>Node1&#45;&gt;Node2</title>
<path fill="none" stroke="midnightblue" d="M1581.33,-848.71C1393.92,-847.16 584.74,-838.49 478,-804 428.27,-787.93 380,-791.27 380,-739 380,-739 380,-739 380,-569 380,-507.97 538.43,-424.64 590,-392 741.92,-295.84 787.59,-281.33 958,-224 1105.07,-174.52 1287.36,-142.07 1367.26,-129.23"/>
<polygon fill="midnightblue" stroke="midnightblue" points="1368.06,-132.64 1377.39,-127.62 1366.96,-125.73 1368.06,-132.64"/>
</g>
<!-- Node3 -->
<g id="node3" class="node">
<title>Node3</title>
<g id="a_node3"><a xlink:title=" ">
<polygon fill="none" stroke="#bfbfbf" points="519.5,-0.5 519.5,-19.5 620.5,-19.5 620.5,-0.5 519.5,-0.5"/>
<text text-anchor="middle" x="570" y="-7.5" font-family="Helvetica,sans-Serif" font-size="10.00">petscdmswarm.h</text>
</a>
</g>
</g>
<!-- Node1&#45;&gt;Node3 -->
<g id="edge2" class="edge">
<title>Node1&#45;&gt;Node3</title>
<path fill="none" stroke="midnightblue" d="M1581.3,-849.12C1358.39,-849.67 243.03,-850.07 98,-804 48.19,-788.18 0,-791.27 0,-739 0,-739 0,-739 0,-121 0,-81.68 24.71,-73.34 60,-56 137.54,-17.9 391.37,-11.72 509.06,-10.94"/>
<polygon fill="midnightblue" stroke="midnightblue" points="509.36,-14.44 519.34,-10.89 509.32,-7.44 509.36,-14.44"/>
</g>
<!-- Node4 -->
<g id="node4" class="node">
<title>Node4</title>
<g id="a_node4"><a xlink:title=" ">
<polygon fill="none" stroke="#bfbfbf" points="1909.5,-0.5 1909.5,-19.5 1962.5,-19.5 1962.5,-0.5 1909.5,-0.5"/>
<text text-anchor="middle" x="1936" y="-7.5" font-family="Helvetica,sans-Serif" font-size="10.00">stdlib.h</text>
</a>
</g>
</g>
<!-- Node1&#45;&gt;Node4 -->
<g id="edge3" class="edge">
<title>Node1&#45;&gt;Node4</title>
<path fill="none" stroke="midnightblue" d="M1658.64,-849.05C1737.83,-848.32 1923.75,-842.26 2074,-804 2197.91,-772.45 2268.34,-798.57 2339,-692 2511.7,-431.52 2264.51,-272.39 2039,-56 2020.52,-38.27 1993.93,-26.89 1972.39,-20.02"/>
<polygon fill="midnightblue" stroke="midnightblue" points="1973.17,-16.6 1962.59,-17.08 1971.16,-23.3 1973.17,-16.6"/>
</g>
<!-- Node5 -->
<g id="node5" class="node">
<title>Node5</title>
<g id="a_node5"><a xlink:title=" ">
<polygon fill="none" stroke="#bfbfbf" points="907,-112.5 907,-131.5 955,-131.5 955,-112.5 907,-112.5"/>
<text text-anchor="middle" x="931" y="-119.5" font-family="Helvetica,sans-Serif" font-size="10.00">time.h</text>
</a>
</g>
</g>
<!-- Node1&#45;&gt;Node5 -->
<g id="edge4" class="edge">
<title>Node1&#45;&gt;Node5</title>
<path fill="none" stroke="midnightblue" d="M1581.21,-848.42C1384.54,-845.36 502.23,-830.25 383,-804 310.05,-787.94 228,-813.7 228,-739 228,-739 228,-739 228,-513 228,-431.86 304,-428.14 304,-347 304,-347 304,-347 304,-289 304,-165.37 765.28,-131.7 896.54,-124.62"/>
<polygon fill="midnightblue" stroke="midnightblue" points="897,-128.1 906.81,-124.08 896.64,-121.11 897,-128.1"/>
</g>
<!-- Node6 -->
<g id="node6" class="node">
<title>Node6</title>
<g id="a_node6"><a xlink:title=" ">
<polygon fill="none" stroke="#bfbfbf" points="2459.5,-112.5 2459.5,-131.5 2510.5,-131.5 2510.5,-112.5 2459.5,-112.5"/>
<text text-anchor="middle" x="2485" y="-119.5" font-family="Helvetica,sans-Serif" font-size="10.00">math.h</text>
</a>
</g>
</g>
<!-- Node1&#45;&gt;Node6 -->
<g id="edge5" class="edge">
<title>Node1&#45;&gt;Node6</title>
<path fill="none" stroke="midnightblue" d="M1658.7,-849.1C1920.28,-849.67 3425.32,-850.85 3623,-804 3688.58,-788.46 3760,-806.39 3760,-739 3760,-739 3760,-739 3760,-625 3760,-543.86 3684,-540.14 3684,-459 3684,-459 3684,-459 3684,-401 3684,-204.78 3496.15,-226.97 3309,-168 3158.84,-120.68 2659.21,-121.44 2520.81,-122.61"/>
<polygon fill="midnightblue" stroke="midnightblue" points="2520.71,-119.11 2510.74,-122.7 2520.77,-126.11 2520.71,-119.11"/>
</g>
<!-- Node7 -->
<g id="node7" class="node">
<title>Node7</title>
<g id="a_node7"><a xlink:title=" ">
<polygon fill="none" stroke="#bfbfbf" points="456,-112.5 456,-131.5 530,-131.5 530,-112.5 456,-112.5"/>
<text text-anchor="middle" x="493" y="-119.5" font-family="Helvetica,sans-Serif" font-size="10.00">petsctime.h</text>
</a>
</g>
</g>
<!-- Node1&#45;&gt;Node7 -->
<g id="edge6" class="edge">
<title>Node1&#45;&gt;Node7</title>
<path fill="none" stroke="midnightblue" d="M1581.41,-848.75C1368.64,-847.25 343.42,-838.28 207,-804 143.96,-788.16 76,-804 76,-739 76,-739 76,-739 76,-345 76,-178.94 336.84,-136.69 445.92,-126.28"/>
<polygon fill="midnightblue" stroke="midnightblue" points="446.35,-129.75 455.99,-125.37 445.72,-122.78 446.35,-129.75"/>
</g>
<!-- Node8 -->
<g id="node8" class="node">
<title>Node8</title>
<g id="a_node8"><a xlink:title=" ">
<polygon fill="none" stroke="#bfbfbf" points="1807,-112.5 1807,-131.5 1875,-131.5 1875,-112.5 1807,-112.5"/>
<text text-anchor="middle" x="1841" y="-119.5" font-family="Helvetica,sans-Serif" font-size="10.00">petscsys.h</text>
</a>
</g>
</g>
<!-- Node1&#45;&gt;Node8 -->
<g id="edge7" class="edge">
<title>Node1&#45;&gt;Node8</title>
<path fill="none" stroke="midnightblue" d="M1624.58,-840.37C1633.42,-823.28 1652.79,-783.67 1662,-748 1688.04,-647.11 1688,-619.2 1688,-515 1688,-515 1688,-515 1688,-457 1688,-439.56 1799.76,-207.96 1832.24,-141.01"/>
<polygon fill="midnightblue" stroke="midnightblue" points="1835.53,-142.26 1836.75,-131.73 1829.23,-139.2 1835.53,-142.26"/>
</g>
<!-- Node9 -->
<g id="node9" class="node">
<title>Node9</title>
<g id="a_node9"><a xlink:title=" ">
<polygon fill="none" stroke="#bfbfbf" points="548.5,-112.5 548.5,-131.5 667.5,-131.5 667.5,-112.5 548.5,-112.5"/>
<text text-anchor="middle" x="608" y="-119.5" font-family="Helvetica,sans-Serif" font-size="10.00">petscdmcomposite.h</text>
</a>
</g>
</g>
<!-- Node1&#45;&gt;Node9 -->
<g id="edge8" class="edge">
<title>Node1&#45;&gt;Node9</title>
<path fill="none" stroke="midnightblue" d="M1581.25,-848.6C1364.41,-846.24 308.88,-833.27 247,-804 212.27,-787.57 190,-777.42 190,-739 190,-739 190,-739 190,-513 190,-441.74 273.21,-268.34 329,-224 393.18,-173 485.38,-146.37 545.97,-133.53"/>
<polygon fill="midnightblue" stroke="midnightblue" points="546.69,-136.96 555.78,-131.51 545.28,-130.1 546.69,-136.96"/>
</g>
<!-- Node10 -->
<g id="node10" class="node">
<title>Node10</title>
<g id="a_node10"><a xlink:title=" ">
<polygon fill="none" stroke="#bfbfbf" points="1111.5,-112.5 1111.5,-131.5 1206.5,-131.5 1206.5,-112.5 1111.5,-112.5"/>
<text text-anchor="middle" x="1159" y="-119.5" font-family="Helvetica,sans-Serif" font-size="10.00">petscsystypes.h</text>
</a>
</g>
</g>
<!-- Node1&#45;&gt;Node10 -->
<g id="edge9" class="edge">
<title>Node1&#45;&gt;Node10</title>
<path fill="none" stroke="midnightblue" d="M1581.4,-848.66C1379.87,-846.74 455.81,-836.21 405,-804 381.33,-788.99 385.01,-774.54 376,-748 340.99,-644.86 328.84,-587.32 399,-504 595.85,-270.21 971.49,-165.36 1107.89,-133.81"/>
<polygon fill="midnightblue" stroke="midnightblue" points="1108.7,-137.22 1117.68,-131.58 1107.15,-130.39 1108.7,-137.22"/>
</g>
<!-- Node11 -->
<g id="node11" class="node">
<title>Node11</title>
<g id="a_node11"><a xlink:href="variables_8h.html" target="_top" xlink:title="Main header file for a complex fluid dynamics solver.">
<polygon fill="none" stroke="black" points="3059.5,-56.5 3059.5,-75.5 3130.5,-75.5 3130.5,-56.5 3059.5,-56.5"/>
<text text-anchor="middle" x="3095" y="-63.5" font-family="Helvetica,sans-Serif" font-size="10.00">variables.h</text>
</a>
</g>
</g>
<!-- Node1&#45;&gt;Node11 -->
<g id="edge10" class="edge">
<title>Node1&#45;&gt;Node11</title>
<path fill="none" stroke="midnightblue" d="M1658.87,-848.67C1938.89,-846.2 3639.87,-830.17 3745,-804 3807.3,-788.49 3874,-803.2 3874,-739 3874,-739 3874,-739 3874,-177 3874,-140.28 3855.51,-129.07 3823,-112 3762.85,-80.41 3291.97,-70.16 3141.24,-67.67"/>
<polygon fill="midnightblue" stroke="midnightblue" points="3141.01,-64.17 3130.95,-67.51 3140.89,-71.17 3141.01,-64.17"/>
</g>
<!-- Node19 -->
<g id="node19" class="node">
<title>Node19</title>
<g id="a_node19"><a xlink:href="ParticleSwarm_8h.html" target="_top" xlink:title="Header file for Particle Motion and migration related functions.">
<polygon fill="none" stroke="black" points="2077,-728.5 2077,-747.5 2173,-747.5 2173,-728.5 2077,-728.5"/>
<text text-anchor="middle" x="2125" y="-735.5" font-family="Helvetica,sans-Serif" font-size="10.00">ParticleSwarm.h</text>
</a>
</g>
</g>
<!-- Node1&#45;&gt;Node19 -->
<g id="edge20" class="edge">
<title>Node1&#45;&gt;Node19</title>
<path fill="none" stroke="midnightblue" d="M1658.73,-847.67C1749.74,-844.1 1974.71,-832.56 2044,-804 2070.69,-793 2095.67,-770.34 2110.65,-754.9"/>
<polygon fill="midnightblue" stroke="midnightblue" points="2113.23,-757.27 2117.52,-747.59 2108.12,-752.48 2113.23,-757.27"/>
</g>
<!-- Node22 -->
<g id="node22" class="node">
<title>Node22</title>
<g id="a_node22"><a xlink:href="logging_8h.html" target="_top" xlink:title="Logging utilities and macros for PETSc&#45;based applications.">
<polygon fill="none" stroke="black" points="2593,-616.5 2593,-635.5 2655,-635.5 2655,-616.5 2593,-616.5"/>
<text text-anchor="middle" x="2624" y="-623.5" font-family="Helvetica,sans-Serif" font-size="10.00">logging.h</text>
</a>
</g>
</g>
<!-- Node1&#45;&gt;Node22 -->
<g id="edge159" class="edge">
<title>Node1&#45;&gt;Node22</title>
<path fill="none" stroke="midnightblue" d="M1658.79,-848.83C1844.62,-847.8 2636.29,-841.27 2672,-804 2715.27,-758.84 2663.87,-678.76 2637.61,-643.95"/>
<polygon fill="midnightblue" stroke="midnightblue" points="2640.15,-641.51 2631.26,-635.76 2634.62,-645.8 2640.15,-641.51"/>
</g>
<!-- Node25 -->
<g id="node25" class="node">
<title>Node25</title>
<g id="a_node25"><a xlink:href="walkingsearch_8h.html" target="_top" xlink:title="Header file for particle location functions using the walking search algorithm.">
<polygon fill="none" stroke="black" points="2800,-224.5 2800,-243.5 2896,-243.5 2896,-224.5 2800,-224.5"/>
<text text-anchor="middle" x="2848" y="-231.5" font-family="Helvetica,sans-Serif" font-size="10.00">walkingsearch.h</text>
</a>
</g>
</g>
<!-- Node1&#45;&gt;Node25 -->
<g id="edge157" class="edge">
<title>Node1&#45;&gt;Node25</title>
<path fill="none" stroke="midnightblue" d="M1658.71,-848.82C1926.58,-847.3 3494,-834.38 3494,-739 3494,-739 3494,-739 3494,-625 3494,-524.97 3342,-559.03 3342,-459 3342,-459 3342,-459 3342,-401 3342,-310.05 3037.3,-259.57 2906.5,-242.09"/>
<polygon fill="midnightblue" stroke="midnightblue" points="2906.64,-238.58 2896.27,-240.74 2905.72,-245.52 2906.64,-238.58"/>
</g>
<!-- Node26 -->
<g id="node26" class="node">
<title>Node26</title>
<g id="a_node26"><a xlink:href="setup_8h.html" target="_top" xlink:title=" ">
<polygon fill="none" stroke="black" points="1326.5,-168.5 1326.5,-187.5 1379.5,-187.5 1379.5,-168.5 1326.5,-168.5"/>
<text text-anchor="middle" x="1353" y="-175.5" font-family="Helvetica,sans-Serif" font-size="10.00">setup.h</text>
</a>
</g>
</g>
<!-- Node1&#45;&gt;Node26 -->
<g id="edge185" class="edge">
<title>Node1&#45;&gt;Node26</title>
<path fill="none" stroke="midnightblue" d="M1581.37,-848.97C1398.66,-848.64 625.98,-844.83 527,-804 487.45,-787.69 456,-781.78 456,-739 456,-739 456,-739 456,-681 456,-280.04 1146.95,-196.21 1316.01,-181.7"/>
<polygon fill="midnightblue" stroke="midnightblue" points="1316.48,-185.17 1326.15,-180.86 1315.9,-178.2 1316.48,-185.17"/>
</g>
<!-- Node27 -->
<g id="node27" class="node">
<title>Node27</title>
<g id="a_node27"><a xlink:href="grid_8h.html" target="_top" xlink:title="Public interface for grid, solver, and metric setup routines.">
<polygon fill="none" stroke="black" points="3073,-112.5 3073,-131.5 3117,-131.5 3117,-112.5 3073,-112.5"/>
<text text-anchor="middle" x="3095" y="-119.5" font-family="Helvetica,sans-Serif" font-size="10.00">grid.h</text>
</a>
</g>
</g>
<!-- Node1&#45;&gt;Node27 -->
<g id="edge158" class="edge">
<title>Node1&#45;&gt;Node27</title>
<path fill="none" stroke="midnightblue" d="M1658.83,-848.74C1934.82,-846.81 3591.77,-833.99 3693,-804 3745.62,-788.41 3798,-793.88 3798,-739 3798,-739 3798,-739 3798,-569 3798,-387.38 3746.02,-295.33 3579,-224 3418.41,-155.42 3207.41,-132.05 3127.53,-125.35"/>
<polygon fill="midnightblue" stroke="midnightblue" points="3127.4,-121.83 3117.15,-124.51 3126.83,-128.81 3127.4,-121.83"/>
</g>
<!-- Node28 -->
<g id="node28" class="node">
<title>Node28</title>
<g id="a_node28"><a xlink:href="io_8h.html" target="_top" xlink:title="Public interface for data input/output routines.">
<polygon fill="none" stroke="black" points="2078.5,-448.5 2078.5,-467.5 2113.5,-467.5 2113.5,-448.5 2078.5,-448.5"/>
<text text-anchor="middle" x="2096" y="-455.5" font-family="Helvetica,sans-Serif" font-size="10.00">io.h</text>
</a>
</g>
</g>
<!-- Node1&#45;&gt;Node28 -->
<g id="edge160" class="edge">
<title>Node1&#45;&gt;Node28</title>
<path fill="none" stroke="midnightblue" d="M1658.57,-846.88C1760.64,-840.24 2030,-815.46 2030,-739 2030,-739 2030,-739 2030,-569 2030,-530.86 2059.54,-494.52 2079.09,-474.64"/>
<polygon fill="midnightblue" stroke="midnightblue" points="2081.56,-477.12 2086.26,-467.63 2076.67,-472.12 2081.56,-477.12"/>
</g>
<!-- Node29 -->
<g id="node29" class="node">
<title>Node29</title>
<g id="a_node29"><a xlink:href="Boundaries_8h.html" target="_top" xlink:title=" ">
<polygon fill="none" stroke="black" points="1828,-392.5 1828,-411.5 1908,-411.5 1908,-392.5 1828,-392.5"/>
<text text-anchor="middle" x="1868" y="-399.5" font-family="Helvetica,sans-Serif" font-size="10.00">Boundaries.h</text>
</a>
</g>
</g>
<!-- Node1&#45;&gt;Node29 -->
<g id="edge184" class="edge">
<title>Node1&#45;&gt;Node29</title>
<path fill="none" stroke="midnightblue" d="M1581.44,-845.36C1500.42,-837.72 1306.59,-819.43 1144,-804 881.67,-779.11 416.68,-951.66 556,-728 598.08,-660.45 1079.84,-474.28 1193,-448 1311.75,-420.43 1681.77,-407.98 1817.46,-404.26"/>
<polygon fill="midnightblue" stroke="midnightblue" points="1817.68,-407.76 1827.58,-403.99 1817.49,-400.76 1817.68,-407.76"/>
</g>
<!-- Node30 -->
<g id="node30" class="node">
<title>Node30</title>
<g id="a_node30"><a xlink:href="interpolation_8h.html" target="_top" xlink:title=" ">
<polygon fill="none" stroke="black" points="1398,-504.5 1398,-523.5 1486,-523.5 1486,-504.5 1398,-504.5"/>
<text text-anchor="middle" x="1442" y="-511.5" font-family="Helvetica,sans-Serif" font-size="10.00">interpolation.h</text>
</a>
</g>
</g>
<!-- Node1&#45;&gt;Node30 -->
<g id="edge161" class="edge">
<title>Node1&#45;&gt;Node30</title>
<path fill="none" stroke="midnightblue" d="M1581.14,-847.77C1469.37,-843.33 1151.03,-824.12 1088,-748 992.48,-632.64 1272.71,-553.41 1391.51,-525.8"/>
<polygon fill="midnightblue" stroke="midnightblue" points="1392.51,-529.16 1401.47,-523.52 1390.94,-522.34 1392.51,-529.16"/>
</g>
<!-- Node32 -->
<g id="node32" class="node">
<title>Node32</title>
<g id="a_node32"><a xlink:href="ParticleMotion_8h.html" target="_top" xlink:title=" ">
<polygon fill="none" stroke="black" points="2534,-280.5 2534,-299.5 2630,-299.5 2630,-280.5 2534,-280.5"/>
<text text-anchor="middle" x="2582" y="-287.5" font-family="Helvetica,sans-Serif" font-size="10.00">ParticleMotion.h</text>
</a>
</g>
</g>
<!-- Node1&#45;&gt;Node32 -->
<g id="edge183" class="edge">
<title>Node1&#45;&gt;Node32</title>
<path fill="none" stroke="midnightblue" d="M1658.83,-848.2C1906.8,-842.94 3260.08,-811.34 3318,-748 3540.46,-504.72 2842.51,-343.03 2637.12,-301.55"/>
<polygon fill="midnightblue" stroke="midnightblue" points="2637.63,-298.08 2627.14,-299.55 2636.26,-304.94 2637.63,-298.08"/>
</g>
<!-- Node36 -->
<g id="node36" class="node">
<title>Node36</title>
<g id="a_node36"><a xlink:href="initialcondition_8h.html" target="_top" xlink:title=" ">
<polygon fill="none" stroke="black" points="1514,-784.5 1514,-803.5 1612,-803.5 1612,-784.5 1514,-784.5"/>
<text text-anchor="middle" x="1563" y="-791.5" font-family="Helvetica,sans-Serif" font-size="10.00">initialcondition.h</text>
</a>
</g>
</g>
<!-- Node1&#45;&gt;Node36 -->
<g id="edge162" class="edge">
<title>Node1&#45;&gt;Node36</title>
<path fill="none" stroke="midnightblue" d="M1605.73,-840.32C1595.87,-832.58 1583.28,-821.02 1574.15,-811.51"/>
<polygon fill="midnightblue" stroke="midnightblue" points="1576.49,-808.88 1567.18,-803.83 1571.31,-813.59 1576.49,-808.88"/>
</g>
<!-- Node37 -->
<g id="node37" class="node">
<title>Node37</title>
<g id="a_node37"><a xlink:href="solvers_8h.html" target="_top" xlink:title=" ">
<polygon fill="none" stroke="black" points="3552.5,-784.5 3552.5,-803.5 3613.5,-803.5 3613.5,-784.5 3552.5,-784.5"/>
<text text-anchor="middle" x="3583" y="-791.5" font-family="Helvetica,sans-Serif" font-size="10.00">solvers.h</text>
</a>
</g>
</g>
<!-- Node1&#45;&gt;Node37 -->
<g id="edge186" class="edge">
<title>Node1&#45;&gt;Node37</title>
<path fill="none" stroke="midnightblue" d="M1658.55,-848.58C1892.96,-845.98 3129.67,-831.15 3508,-804 3519.1,-803.2 3531.09,-801.95 3542.15,-800.62"/>
<polygon fill="midnightblue" stroke="midnightblue" points="3542.92,-804.05 3552.41,-799.34 3542.06,-797.1 3542.92,-804.05"/>
</g>
<!-- Node11&#45;&gt;Node3 -->
<g id="edge15" class="edge">
<title>Node11&#45;&gt;Node3</title>
<path fill="none" stroke="midnightblue" d="M3059.31,-64.24C2782.93,-58.33 985.56,-19.89 630.77,-12.3"/>
<polygon fill="midnightblue" stroke="midnightblue" points="630.77,-8.8 620.7,-12.08 630.62,-15.8 630.77,-8.8"/>
</g>
<!-- Node11&#45;&gt;Node4 -->
<g id="edge17" class="edge">
<title>Node11&#45;&gt;Node4</title>
<path fill="none" stroke="midnightblue" d="M3059.36,-63.34C2887.82,-55.35 2148.24,-20.89 1973.23,-12.73"/>
<polygon fill="midnightblue" stroke="midnightblue" points="1973.14,-9.23 1962.99,-12.26 1972.82,-16.22 1973.14,-9.23"/>
</g>
<!-- Node12 -->
<g id="node12" class="node">
<title>Node12</title>
<g id="a_node12"><a xlink:title=" ">
<polygon fill="none" stroke="#bfbfbf" points="3176.5,-0.5 3176.5,-19.5 3245.5,-19.5 3245.5,-0.5 3176.5,-0.5"/>
<text text-anchor="middle" x="3211" y="-7.5" font-family="Helvetica,sans-Serif" font-size="10.00">petscvec.h</text>
</a>
</g>
</g>
<!-- Node11&#45;&gt;Node12 -->
<g id="edge11" class="edge">
<title>Node11&#45;&gt;Node12</title>
<path fill="none" stroke="midnightblue" d="M3113.38,-56.44C3132.22,-47.68 3161.73,-33.94 3183.38,-23.86"/>
<polygon fill="midnightblue" stroke="midnightblue" points="3185.12,-26.91 3192.71,-19.52 3182.16,-20.56 3185.12,-26.91"/>
</g>
<!-- Node13 -->
<g id="node13" class="node">
<title>Node13</title>
<g id="a_node13"><a xlink:title=" ">
<polygon fill="none" stroke="#bfbfbf" points="3264,-0.5 3264,-19.5 3344,-19.5 3344,-0.5 3264,-0.5"/>
<text text-anchor="middle" x="3304" y="-7.5" font-family="Helvetica,sans-Serif" font-size="10.00">petscdmda.h</text>
</a>
</g>
</g>
<!-- Node11&#45;&gt;Node13 -->
<g id="edge12" class="edge">
<title>Node11&#45;&gt;Node13</title>
<path fill="none" stroke="midnightblue" d="M3128.12,-56.44C3164.12,-47.14 3221.77,-32.25 3261.19,-22.06"/>
<polygon fill="midnightblue" stroke="midnightblue" points="3262.23,-25.41 3271.04,-19.52 3260.48,-18.63 3262.23,-25.41"/>
</g>
<!-- Node14 -->
<g id="node14" class="node">
<title>Node14</title>
<g id="a_node14"><a xlink:title=" ">
<polygon fill="none" stroke="#bfbfbf" points="2854.5,-0.5 2854.5,-19.5 2923.5,-19.5 2923.5,-0.5 2854.5,-0.5"/>
<text text-anchor="middle" x="2889" y="-7.5" font-family="Helvetica,sans-Serif" font-size="10.00">petscksp.h</text>
</a>
</g>
</g>
<!-- Node11&#45;&gt;Node14 -->
<g id="edge13" class="edge">
<title>Node11&#45;&gt;Node14</title>
<path fill="none" stroke="midnightblue" d="M3062.36,-56.44C3026.95,-47.16 2970.29,-32.31 2931.45,-22.13"/>
<polygon fill="midnightblue" stroke="midnightblue" points="2932.05,-18.67 2921.49,-19.52 2930.27,-25.44 2932.05,-18.67"/>
</g>
<!-- Node15 -->
<g id="node15" class="node">
<title>Node15</title>
<g id="a_node15"><a xlink:title=" ">
<polygon fill="none" stroke="#bfbfbf" points="2942,-0.5 2942,-19.5 3016,-19.5 3016,-0.5 2942,-0.5"/>
<text text-anchor="middle" x="2979" y="-7.5" font-family="Helvetica,sans-Serif" font-size="10.00">petscsnes.h</text>
</a>
</g>
</g>
<!-- Node11&#45;&gt;Node15 -->
<g id="edge14" class="edge">
<title>Node11&#45;&gt;Node15</title>
<path fill="none" stroke="midnightblue" d="M3076.62,-56.44C3057.78,-47.68 3028.27,-33.94 3006.62,-23.86"/>
<polygon fill="midnightblue" stroke="midnightblue" points="3007.84,-20.56 2997.29,-19.52 3004.88,-26.91 3007.84,-20.56"/>
</g>
<!-- Node16 -->
<g id="node16" class="node">
<title>Node16</title>
<g id="a_node16"><a xlink:title=" ">
<polygon fill="none" stroke="#bfbfbf" points="3034,-0.5 3034,-19.5 3084,-19.5 3084,-0.5 3034,-0.5"/>
<text text-anchor="middle" x="3059" y="-7.5" font-family="Helvetica,sans-Serif" font-size="10.00">stdio.h</text>
</a>
</g>
</g>
<!-- Node11&#45;&gt;Node16 -->
<g id="edge16" class="edge">
<title>Node11&#45;&gt;Node16</title>
<path fill="none" stroke="midnightblue" d="M3089.06,-56.08C3084.02,-48.53 3076.66,-37.49 3070.49,-28.23"/>
<polygon fill="midnightblue" stroke="midnightblue" points="3073.29,-26.13 3064.83,-19.75 3067.47,-30.01 3073.29,-26.13"/>
</g>
<!-- Node17 -->
<g id="node17" class="node">
<title>Node17</title>
<g id="a_node17"><a xlink:title=" ">
<polygon fill="none" stroke="#bfbfbf" points="3502.5,-0.5 3502.5,-19.5 3555.5,-19.5 3555.5,-0.5 3502.5,-0.5"/>
<text text-anchor="middle" x="3529" y="-7.5" font-family="Helvetica,sans-Serif" font-size="10.00">string.h</text>
</a>
</g>
</g>
<!-- Node11&#45;&gt;Node17 -->
<g id="edge18" class="edge">
<title>Node11&#45;&gt;Node17</title>
<path fill="none" stroke="midnightblue" d="M3130.52,-60.58C3211.68,-50.48 3410.08,-25.8 3492.33,-15.56"/>
<polygon fill="midnightblue" stroke="midnightblue" points="3492.97,-19.01 3502.46,-14.3 3492.11,-12.06 3492.97,-19.01"/>
</g>
<!-- Node18 -->
<g id="node18" class="node">
<title>Node18</title>
<g id="a_node18"><a xlink:title=" ">
<polygon fill="none" stroke="#bfbfbf" points="3102,-0.5 3102,-19.5 3158,-19.5 3158,-0.5 3102,-0.5"/>
<text text-anchor="middle" x="3130" y="-7.5" font-family="Helvetica,sans-Serif" font-size="10.00">unistd.h</text>
</a>
</g>
</g>
<!-- Node11&#45;&gt;Node18 -->
<g id="edge19" class="edge">
<title>Node11&#45;&gt;Node18</title>
<path fill="none" stroke="midnightblue" d="M3100.78,-56.08C3105.67,-48.53 3112.83,-37.49 3118.83,-28.23"/>
<polygon fill="midnightblue" stroke="midnightblue" points="3121.83,-30.05 3124.33,-19.75 3115.95,-26.24 3121.83,-30.05"/>
</g>
<!-- Node19&#45;&gt;Node3 -->
<g id="edge22" class="edge">
<title>Node19&#45;&gt;Node3</title>
<path fill="none" stroke="midnightblue" d="M2076.74,-733.5C1992.68,-727.13 1814,-712.4 1664,-692 1332.33,-646.89 449.22,-616.21 184,-412 138.93,-377.29 76,-263.76 76,-179 76,-179 76,-179 76,-121 76,-33.21 377.03,-15.45 509.11,-11.88"/>
<polygon fill="midnightblue" stroke="midnightblue" points="509.55,-15.37 519.45,-11.62 509.37,-8.38 509.55,-15.37"/>
</g>
<!-- Node19&#45;&gt;Node6 -->
<g id="edge24" class="edge">
<title>Node19&#45;&gt;Node6</title>
<path fill="none" stroke="midnightblue" d="M2173.11,-736.54C2284.74,-734.87 2569.81,-727.21 2805,-692 2912.47,-675.91 2939.33,-668.59 3043,-636 3107.32,-615.78 3124.04,-610.84 3184,-580 3299.58,-520.56 3348.81,-483.89 3372,-356 3388.63,-264.28 3361.89,-210.65 3279,-168 3211.03,-133.02 2666.47,-124.89 2520.75,-123.33"/>
<polygon fill="midnightblue" stroke="midnightblue" points="2520.61,-119.82 2510.58,-123.22 2520.54,-126.82 2520.61,-119.82"/>
</g>
<!-- Node19&#45;&gt;Node11 -->
<g id="edge25" class="edge">
<title>Node19&#45;&gt;Node11</title>
<path fill="none" stroke="midnightblue" d="M2173.08,-736.7C2427.79,-733.84 3608,-704.36 3608,-403 3608,-403 3608,-403 3608,-345 3608,-200.11 3518.56,-154.35 3380,-112 3297.92,-86.91 3198.05,-75.25 3140.97,-70.28"/>
<polygon fill="midnightblue" stroke="midnightblue" points="3141.08,-66.78 3130.82,-69.43 3140.49,-73.75 3141.08,-66.78"/>
</g>
<!-- Node20 -->
<g id="node20" class="node">
<title>Node20</title>
<g id="a_node20"><a xlink:title=" ">
<polygon fill="none" stroke="#bfbfbf" points="3218,-168.5 3218,-187.5 3270,-187.5 3270,-168.5 3218,-168.5"/>
<text text-anchor="middle" x="3244" y="-175.5" font-family="Helvetica,sans-Serif" font-size="10.00">petsc.h</text>
</a>
</g>
</g>
<!-- Node19&#45;&gt;Node20 -->
<g id="edge21" class="edge">
<title>Node19&#45;&gt;Node20</title>
<path fill="none" stroke="midnightblue" d="M2173.31,-735.02C2273.03,-730.55 2508.76,-717.97 2705,-692 2838.6,-674.32 2876.78,-683.23 3003,-636 3190.55,-565.82 3288,-544.35 3356,-356 3379.78,-290.14 3304.42,-223.21 3265.6,-194.09"/>
<polygon fill="midnightblue" stroke="midnightblue" points="3267.18,-190.91 3257.05,-187.83 3263.05,-196.56 3267.18,-190.91"/>
</g>
<!-- Node21 -->
<g id="node21" class="node">
<title>Node21</title>
<g id="a_node21"><a xlink:title=" ">
<polygon fill="none" stroke="#bfbfbf" points="2836,-168.5 2836,-187.5 2898,-187.5 2898,-168.5 2836,-168.5"/>
<text text-anchor="middle" x="2867" y="-175.5" font-family="Helvetica,sans-Serif" font-size="10.00">stdbool.h</text>
</a>
</g>
</g>
<!-- Node19&#45;&gt;Node21 -->
<g id="edge23" class="edge">
<title>Node19&#45;&gt;Node21</title>
<path fill="none" stroke="midnightblue" d="M2173.14,-733.76C2366.46,-720.1 3076,-663.65 3076,-571 3076,-571 3076,-571 3076,-513 3076,-458.49 3117.77,-441.97 3096,-392 3053.53,-294.49 2941.99,-221.5 2891.93,-192.59"/>
<polygon fill="midnightblue" stroke="midnightblue" points="2893.48,-189.45 2883.06,-187.56 2890.03,-195.54 2893.48,-189.45"/>
</g>
<!-- Node19&#45;&gt;Node22 -->
<g id="edge26" class="edge">
<title>Node19&#45;&gt;Node22</title>
<path fill="none" stroke="midnightblue" d="M2173.43,-730.05C2217.35,-723 2283.53,-710.46 2339,-692 2359,-685.34 2361.92,-678.42 2382,-672 2450.64,-650.04 2533.85,-637.49 2582.66,-631.47"/>
<polygon fill="midnightblue" stroke="midnightblue" points="2583.31,-634.92 2592.83,-630.26 2582.48,-627.97 2583.31,-634.92"/>
</g>
<!-- Node19&#45;&gt;Node25 -->
<g id="edge148" class="edge">
<title>Node19&#45;&gt;Node25</title>
<path fill="none" stroke="midnightblue" d="M2173.18,-729.57C2345.93,-702.62 2924,-609.56 2924,-571 2924,-571 2924,-571 2924,-457 2924,-376.94 2879.21,-288.97 2858.4,-252.42"/>
<polygon fill="midnightblue" stroke="midnightblue" points="2861.28,-250.4 2853.22,-243.52 2855.23,-253.92 2861.28,-250.4"/>
</g>
<!-- Node19&#45;&gt;Node28 -->
<g id="edge156" class="edge">
<title>Node19&#45;&gt;Node28</title>
<path fill="none" stroke="midnightblue" d="M2122.44,-728.25C2117.25,-709.74 2106,-665.18 2106,-627 2106,-627 2106,-627 2106,-569 2106,-536.82 2101.7,-499.55 2098.74,-477.7"/>
<polygon fill="midnightblue" stroke="midnightblue" points="2102.17,-476.95 2097.31,-467.53 2095.24,-477.92 2102.17,-476.95"/>
</g>
<!-- Node35 -->
<g id="node35" class="node">
<title>Node35</title>
<g id="a_node35"><a xlink:href="Metric_8h.html" target="_top" xlink:title=" ">
<polygon fill="none" stroke="black" points="2274,-672.5 2274,-691.5 2330,-691.5 2330,-672.5 2274,-672.5"/>
<text text-anchor="middle" x="2302" y="-679.5" font-family="Helvetica,sans-Serif" font-size="10.00">Metric.h</text>
</a>
</g>
</g>
<!-- Node19&#45;&gt;Node35 -->
<g id="edge149" class="edge">
<title>Node19&#45;&gt;Node35</title>
<path fill="none" stroke="midnightblue" d="M2153.05,-728.44C2183.08,-719.28 2230.91,-704.69 2264.24,-694.52"/>
<polygon fill="midnightblue" stroke="midnightblue" points="2265.54,-697.78 2274.09,-691.52 2263.5,-691.09 2265.54,-697.78"/>
</g>
<!-- Node22&#45;&gt;Node4 -->
<g id="edge28" class="edge">
<title>Node22&#45;&gt;Node4</title>
<path fill="none" stroke="midnightblue" d="M2624,-616.44C2624,-597.94 2624,-552.81 2624,-515 2624,-515 2624,-515 2624,-457 2624,-402.81 2671.03,-379.71 2639,-336 2607.59,-293.14 2557.09,-342.35 2525,-300 2474.51,-233.37 2573.85,-175.09 2519,-112 2447.03,-29.21 2089.34,-14.26 1972.79,-11.58"/>
<polygon fill="midnightblue" stroke="midnightblue" points="1972.66,-8.08 1962.59,-11.36 1972.51,-15.08 1972.66,-8.08"/>
</g>
<!-- Node22&#45;&gt;Node8 -->
<g id="edge30" class="edge">
<title>Node22&#45;&gt;Node8</title>
<path fill="none" stroke="midnightblue" d="M2613.97,-616.16C2599.13,-603.24 2570.23,-578.7 2544,-560 2288,-377.53 1956.18,-187.81 1865.05,-136.47"/>
<polygon fill="midnightblue" stroke="midnightblue" points="1866.73,-133.4 1856.29,-131.55 1863.3,-139.5 1866.73,-133.4"/>
</g>
<!-- Node22&#45;&gt;Node11 -->
<g id="edge32" class="edge">
<title>Node22&#45;&gt;Node11</title>
<path fill="none" stroke="midnightblue" d="M2655.04,-621.59C2724.93,-613.78 2892.78,-594.16 2948,-580 3203.02,-514.61 3368.18,-542.78 3470,-300 3530.8,-155.03 3253.48,-92.8 3140.79,-73.78"/>
<polygon fill="midnightblue" stroke="midnightblue" points="3141.17,-70.29 3130.74,-72.12 3140.04,-77.2 3141.17,-70.29"/>
</g>
<!-- Node22&#45;&gt;Node17 -->
<g id="edge29" class="edge">
<title>Node22&#45;&gt;Node17</title>
<path fill="none" stroke="midnightblue" d="M2655.35,-622.43C2720.81,-616.81 2876.67,-602.16 3006,-580 3172.83,-551.42 3222.35,-550.75 3370,-468 3450.23,-423.04 3467.3,-406.74 3544,-356 3623.78,-303.22 3722,-330.66 3722,-235 3722,-235 3722,-235 3722,-121 3722,-49.84 3621.74,-24.11 3565.74,-15.29"/>
<polygon fill="midnightblue" stroke="midnightblue" points="3566.24,-11.83 3555.84,-13.84 3565.22,-18.76 3566.24,-11.83"/>
</g>
<!-- Node22&#45;&gt;Node20 -->
<g id="edge27" class="edge">
<title>Node22&#45;&gt;Node20</title>
<path fill="none" stroke="midnightblue" d="M2655.08,-620.85C2692.25,-615.1 2755.74,-602.75 2806,-580 2964.82,-508.1 3006.44,-480.97 3128,-356 3177.45,-305.16 3218.28,-230.36 3235.37,-196.63"/>
<polygon fill="midnightblue" stroke="midnightblue" points="3238.57,-198.07 3239.9,-187.56 3232.3,-194.94 3238.57,-198.07"/>
</g>
<!-- Node23 -->
<g id="node23" class="node">
<title>Node23</title>
<g id="a_node23"><a xlink:title=" ">
<polygon fill="none" stroke="#bfbfbf" points="2728.5,-560.5 2728.5,-579.5 2781.5,-579.5 2781.5,-560.5 2728.5,-560.5"/>
<text text-anchor="middle" x="2755" y="-567.5" font-family="Helvetica,sans-Serif" font-size="10.00">ctype.h</text>
</a>
</g>
</g>
<!-- Node22&#45;&gt;Node23 -->
<g id="edge31" class="edge">
<title>Node22&#45;&gt;Node23</title>
<path fill="none" stroke="midnightblue" d="M2644.76,-616.44C2666.32,-607.56 2700.26,-593.56 2724.79,-583.45"/>
<polygon fill="midnightblue" stroke="midnightblue" points="2726.43,-586.56 2734.34,-579.52 2723.76,-580.09 2726.43,-586.56"/>
</g>
<!-- Node24 -->
<g id="node24" class="node">
<title>Node24</title>
<g id="a_node24"><a xlink:href="AnalyticalSolution_8h.html" target="_top" xlink:title=" ">
<polygon fill="none" stroke="black" points="1764,-560.5 1764,-579.5 1878,-579.5 1878,-560.5 1764,-560.5"/>
<text text-anchor="middle" x="1821" y="-567.5" font-family="Helvetica,sans-Serif" font-size="10.00">AnalyticalSolution.h</text>
</a>
</g>
</g>
<!-- Node22&#45;&gt;Node24 -->
<g id="edge33" class="edge">
<title>Node22&#45;&gt;Node24</title>
<path fill="none" stroke="midnightblue" d="M2592.71,-623.08C2474.38,-615.45 2053.45,-587.17 1888.2,-575.79"/>
<polygon fill="midnightblue" stroke="midnightblue" points="1888.38,-572.3 1878.17,-575.1 1887.9,-579.28 1888.38,-572.3"/>
</g>
<!-- Node22&#45;&gt;Node29 -->
<g id="edge147" class="edge">
<title>Node22&#45;&gt;Node29</title>
<path fill="none" stroke="midnightblue" d="M2593,-616.47C2564.95,-607.42 2523.1,-592.72 2487,-580 2320.74,-521.44 2283.47,-492.86 2113,-448 2046.35,-430.46 1968.04,-417.75 1918.13,-410.39"/>
<polygon fill="midnightblue" stroke="midnightblue" points="1918.63,-406.93 1908.23,-408.95 1917.62,-413.86 1918.63,-406.93"/>
</g>
<!-- Node24&#45;&gt;Node2 -->
<g id="edge34" class="edge">
<title>Node24&#45;&gt;Node2</title>
<path fill="none" stroke="midnightblue" d="M1803.53,-560.35C1752.78,-534.63 1602.68,-454.23 1504,-356 1441.67,-293.95 1418.03,-185.67 1410.76,-142.03"/>
<polygon fill="midnightblue" stroke="midnightblue" points="1414.18,-141.3 1409.18,-131.96 1407.27,-142.38 1414.18,-141.3"/>
</g>
<!-- Node24&#45;&gt;Node3 -->
<g id="edge35" class="edge">
<title>Node24&#45;&gt;Node3</title>
<path fill="none" stroke="midnightblue" d="M1763.76,-568.75C1615.16,-567.58 1205.08,-560.97 866,-524 719.86,-508.07 682.65,-503.54 540,-468 356.08,-422.18 152,-480.54 152,-291 152,-291 152,-291 152,-121 152,-90.2 151.77,-75.01 176,-56 226.41,-16.44 411.86,-10.62 509.29,-10.39"/>
<polygon fill="midnightblue" stroke="midnightblue" points="509.29,-13.89 519.29,-10.38 509.29,-6.89 509.29,-13.89"/>
</g>
<!-- Node24&#45;&gt;Node4 -->
<g id="edge36" class="edge">
<title>Node24&#45;&gt;Node4</title>
<path fill="none" stroke="midnightblue" d="M1807.52,-560.29C1759.71,-528.23 1602.11,-411.72 1620,-280 1626.95,-228.82 1620.17,-209.44 1651,-168 1706.79,-93.01 1746.09,-99.15 1829,-56 1853.18,-43.41 1881.69,-31.56 1903.19,-23.19"/>
<polygon fill="midnightblue" stroke="midnightblue" points="1904.46,-26.45 1912.54,-19.59 1901.95,-19.91 1904.46,-26.45"/>
</g>
<!-- Node24&#45;&gt;Node5 -->
<g id="edge37" class="edge">
<title>Node24&#45;&gt;Node5</title>
<path fill="none" stroke="midnightblue" d="M1763.82,-565.41C1585.37,-553.27 1042.16,-509 899,-412 870.88,-392.95 860.81,-387.03 847,-356 823.11,-302.33 834.95,-279.58 854,-224 862.96,-197.86 864.42,-190.1 881,-168 889.46,-156.73 901.05,-146.09 910.94,-137.98"/>
<polygon fill="midnightblue" stroke="midnightblue" points="913.39,-140.51 919.08,-131.56 909.06,-135.01 913.39,-140.51"/>
</g>
<!-- Node24&#45;&gt;Node6 -->
<g id="edge38" class="edge">
<title>Node24&#45;&gt;Node6</title>
<path fill="none" stroke="midnightblue" d="M1857.06,-560.45C1914.9,-545.97 2031.14,-513.67 2122,-468 2277.76,-389.7 2339.21,-383.33 2444,-244 2467.47,-212.8 2478.05,-167.29 2482.37,-141.91"/>
<polygon fill="midnightblue" stroke="midnightblue" points="2485.86,-142.2 2483.94,-131.78 2478.95,-141.13 2485.86,-142.2"/>
</g>
<!-- Node24&#45;&gt;Node7 -->
<g id="edge39" class="edge">
<title>Node24&#45;&gt;Node7</title>
<path fill="none" stroke="midnightblue" d="M1763.66,-567.44C1641.84,-563.69 1348.39,-552.26 1104,-524 807.57,-489.72 719.99,-520.46 442,-412 392.62,-392.73 342,-400.01 342,-347 342,-347 342,-347 342,-289 342,-215.68 423.6,-160.45 466.83,-136.34"/>
<polygon fill="midnightblue" stroke="midnightblue" points="468.56,-139.38 475.68,-131.54 465.22,-133.23 468.56,-139.38"/>
</g>
<!-- Node24&#45;&gt;Node9 -->
<g id="edge40" class="edge">
<title>Node24&#45;&gt;Node9</title>
<path fill="none" stroke="midnightblue" d="M1763.67,-567.72C1655.45,-564.65 1413.89,-554.68 1213,-524 1104.72,-507.46 1078.87,-496.09 973,-468 888.73,-445.64 865.08,-446.48 785,-412 704.27,-377.24 663.81,-377.32 622,-300 594.07,-248.36 599.95,-175.58 604.79,-141.7"/>
<polygon fill="midnightblue" stroke="midnightblue" points="608.25,-142.22 606.34,-131.79 601.34,-141.13 608.25,-142.22"/>
</g>
<!-- Node24&#45;&gt;Node11 -->
<g id="edge41" class="edge">
<title>Node24&#45;&gt;Node11</title>
<path fill="none" stroke="midnightblue" d="M1878.24,-565.28C2066.04,-551.43 2677.81,-493.3 3139,-300 3217.87,-266.94 3322.56,-241.6 3279,-168 3249.24,-117.71 3184.55,-90.79 3140.38,-77.7"/>
<polygon fill="midnightblue" stroke="midnightblue" points="3141.31,-74.32 3130.74,-74.96 3139.4,-81.06 3141.31,-74.32"/>
</g>
<!-- Node24&#45;&gt;Node19 -->
<g id="edge42" class="edge">
<title>Node24&#45;&gt;Node19</title>
<path fill="none" stroke="midnightblue" d="M1836.76,-579.61C1886.4,-606.71 2039.84,-690.5 2100.22,-723.47"/>
<polygon fill="midnightblue" stroke="midnightblue" points="2098.63,-726.59 2109.08,-728.31 2101.98,-720.44 2098.63,-726.59"/>
</g>
<!-- Node24&#45;&gt;Node22 -->
<g id="edge143" class="edge">
<title>Node24&#45;&gt;Node22</title>
<path fill="none" stroke="midnightblue" d="M1878,-574.59C2031.34,-584.61 2449.58,-612.75 2582.76,-622"/>
<polygon fill="midnightblue" stroke="midnightblue" points="2582.72,-625.51 2592.94,-622.71 2583.21,-618.53 2582.72,-625.51"/>
</g>
<!-- Node24&#45;&gt;Node25 -->
<g id="edge43" class="edge">
<title>Node24&#45;&gt;Node25</title>
<path fill="none" stroke="midnightblue" d="M1868.24,-560.47C1995.52,-536.7 2355.17,-464.24 2639,-356 2691.37,-336.03 2703.57,-328.22 2752,-300 2779.32,-284.08 2809.27,-263.22 2828.33,-249.47"/>
<polygon fill="midnightblue" stroke="midnightblue" points="2830.47,-252.24 2836.51,-243.53 2826.36,-246.58 2830.47,-252.24"/>
</g>
<!-- Node24&#45;&gt;Node26 -->
<g id="edge145" class="edge">
<title>Node24&#45;&gt;Node26</title>
<path fill="none" stroke="midnightblue" d="M1791.42,-560.5C1719.87,-537.04 1535.78,-465.75 1419,-356 1372.04,-311.86 1353.25,-233.6 1350.72,-197.81"/>
<polygon fill="midnightblue" stroke="midnightblue" points="1354.21,-197.68 1350.45,-187.78 1347.22,-197.87 1354.21,-197.68"/>
</g>
<!-- Node24&#45;&gt;Node27 -->
<g id="edge142" class="edge">
<title>Node24&#45;&gt;Node27</title>
<path fill="none" stroke="midnightblue" d="M1878.23,-561.28C1935.38,-553.24 2025.61,-539.65 2103,-524 2473.72,-449.03 2572.6,-439.91 2924,-300 3005.32,-267.62 3050.9,-268.19 3086,-188 3092.36,-173.47 3094.46,-155.52 3095.06,-142.17"/>
<polygon fill="midnightblue" stroke="midnightblue" points="3098.57,-141.89 3095.27,-131.82 3091.57,-141.75 3098.57,-141.89"/>
</g>
<!-- Node24&#45;&gt;Node28 -->
<g id="edge144" class="edge">
<title>Node24&#45;&gt;Node28</title>
<path fill="none" stroke="midnightblue" d="M1834.44,-560.38C1855.99,-546.85 1899.94,-520.48 1940,-504 1946.05,-501.51 2025.4,-478.96 2068.53,-466.76"/>
<polygon fill="midnightblue" stroke="midnightblue" points="2069.73,-470.05 2078.4,-463.97 2067.82,-463.32 2069.73,-470.05"/>
</g>
<!-- Node24&#45;&gt;Node30 -->
<g id="edge146" class="edge">
<title>Node24&#45;&gt;Node30</title>
<path fill="none" stroke="midnightblue" d="M1763.85,-560.86C1691.42,-550.54 1567.45,-532.87 1496.37,-522.75"/>
<polygon fill="midnightblue" stroke="midnightblue" points="1496.67,-519.25 1486.28,-521.31 1495.68,-526.18 1496.67,-519.25"/>
</g>
<!-- Node25&#45;&gt;Node6 -->
<g id="edge46" class="edge">
<title>Node25&#45;&gt;Node6</title>
<path fill="none" stroke="midnightblue" d="M2819.82,-224.46C2754.56,-204.69 2593.16,-155.78 2520.94,-133.89"/>
<polygon fill="midnightblue" stroke="midnightblue" points="2521.54,-130.42 2510.95,-130.86 2519.51,-137.11 2521.54,-130.42"/>
</g>
<!-- Node25&#45;&gt;Node11 -->
<g id="edge47" class="edge">
<title>Node25&#45;&gt;Node11</title>
<path fill="none" stroke="midnightblue" d="M2840.87,-224.18C2831.37,-211.29 2816.88,-186.79 2827,-168 2848.46,-128.17 2870.54,-130.11 2912,-112 2956.67,-92.49 3011.33,-80.44 3049.22,-73.79"/>
<polygon fill="midnightblue" stroke="midnightblue" points="3050.17,-77.18 3059.44,-72.05 3049,-70.27 3050.17,-77.18"/>
</g>
<!-- Node25&#45;&gt;Node20 -->
<g id="edge44" class="edge">
<title>Node25&#45;&gt;Node20</title>
<path fill="none" stroke="midnightblue" d="M2896.16,-226.43C2976.35,-215.5 3135.5,-193.8 3207.32,-184"/>
<polygon fill="midnightblue" stroke="midnightblue" points="3208.23,-187.41 3217.67,-182.59 3207.29,-180.47 3208.23,-187.41"/>
</g>
<!-- Node25&#45;&gt;Node21 -->
<g id="edge45" class="edge">
<title>Node25&#45;&gt;Node21</title>
<path fill="none" stroke="midnightblue" d="M2851.14,-224.08C2853.68,-216.85 2857.36,-206.41 2860.53,-197.4"/>
<polygon fill="midnightblue" stroke="midnightblue" points="2863.9,-198.35 2863.92,-187.75 2857.3,-196.02 2863.9,-198.35"/>
</g>
<!-- Node25&#45;&gt;Node22 -->
<g id="edge48" class="edge">
<title>Node25&#45;&gt;Node22</title>
<path fill="none" stroke="midnightblue" d="M2844.65,-243.54C2828.66,-283.7 2757.25,-456.95 2668,-580 2660.24,-590.7 2649.99,-601.34 2641.33,-609.58"/>
<polygon fill="midnightblue" stroke="midnightblue" points="2638.91,-607.05 2633.95,-616.41 2643.67,-612.19 2638.91,-607.05"/>
</g>
<!-- Node25&#45;&gt;Node26 -->
<g id="edge49" class="edge">
<title>Node25&#45;&gt;Node26</title>
<path fill="none" stroke="midnightblue" d="M2799.91,-231.35C2570.68,-223.28 1592.22,-187.94 1389.73,-180.41"/>
<polygon fill="midnightblue" stroke="midnightblue" points="1389.73,-176.91 1379.61,-180.03 1389.47,-183.9 1389.73,-176.91"/>
</g>
<!-- Node26&#45;&gt;Node2 -->
<g id="edge50" class="edge">
<title>Node26&#45;&gt;Node2</title>
<path fill="none" stroke="midnightblue" d="M1362.08,-168.08C1370.17,-160.14 1382.2,-148.34 1391.91,-138.8"/>
<polygon fill="midnightblue" stroke="midnightblue" points="1394.4,-141.25 1399.09,-131.75 1389.5,-136.26 1394.4,-141.25"/>
</g>
<!-- Node26&#45;&gt;Node3 -->
<g id="edge51" class="edge">
<title>Node26&#45;&gt;Node3</title>
<path fill="none" stroke="midnightblue" d="M1338.25,-168.32C1313.6,-154.22 1262.09,-126.45 1215,-112 1006.48,-48.01 746.97,-23.15 630.97,-14.75"/>
<polygon fill="midnightblue" stroke="midnightblue" points="631.09,-11.25 620.87,-14.04 630.59,-18.23 631.09,-11.25"/>
</g>
<!-- Node26&#45;&gt;Node4 -->
<g id="edge52" class="edge">
<title>Node26&#45;&gt;Node4</title>
<path fill="none" stroke="midnightblue" d="M1352.26,-168.42C1351.58,-154.46 1352.45,-126.9 1368,-112 1444.89,-38.33 1785.93,-17.36 1899.25,-12.37"/>
<polygon fill="midnightblue" stroke="midnightblue" points="1899.65,-15.86 1909.49,-11.94 1899.35,-8.86 1899.65,-15.86"/>
</g>
<!-- Node26&#45;&gt;Node5 -->
<g id="edge53" class="edge">
<title>Node26&#45;&gt;Node5</title>
<path fill="none" stroke="midnightblue" d="M1326.17,-170.71C1321.46,-169.72 1316.6,-168.77 1312,-168 1184.82,-146.58 1032.05,-131.82 965.17,-125.9"/>
<polygon fill="midnightblue" stroke="midnightblue" points="965.46,-122.41 955.19,-125.02 964.84,-129.38 965.46,-122.41"/>
</g>
<!-- Node26&#45;&gt;Node6 -->
<g id="edge54" class="edge">
<title>Node26&#45;&gt;Node6</title>
<path fill="none" stroke="midnightblue" d="M1379.59,-175.73C1530.29,-168.54 2276.54,-132.94 2449.27,-124.7"/>
<polygon fill="midnightblue" stroke="midnightblue" points="2449.53,-128.2 2459.35,-124.22 2449.19,-121.2 2449.53,-128.2"/>
</g>
<!-- Node26&#45;&gt;Node7 -->
<g id="edge55" class="edge">
<title>Node26&#45;&gt;Node7</title>
<path fill="none" stroke="midnightblue" d="M1326.18,-176.86C1224.72,-176.04 854.64,-170.52 540.31,-131.98"/>
<polygon fill="midnightblue" stroke="midnightblue" points="540.44,-128.47 530.09,-130.71 539.58,-135.42 540.44,-128.47"/>
</g>
<!-- Node26&#45;&gt;Node8 -->
<g id="edge56" class="edge">
<title>Node26&#45;&gt;Node8</title>
<path fill="none" stroke="midnightblue" d="M1379.58,-174.06C1459.4,-165.23 1697.56,-138.87 1796.81,-127.89"/>
<polygon fill="midnightblue" stroke="midnightblue" points="1797.26,-131.36 1806.81,-126.78 1796.49,-124.4 1797.26,-131.36"/>
</g>
<!-- Node26&#45;&gt;Node9 -->
<g id="edge57" class="edge">
<title>Node26&#45;&gt;Node9</title>
<path fill="none" stroke="midnightblue" d="M1326.49,-175.08C1222.05,-167.51 837.06,-139.6 677.74,-128.05"/>
<polygon fill="midnightblue" stroke="midnightblue" points="677.8,-124.55 667.57,-127.32 677.29,-131.53 677.8,-124.55"/>
</g>
<!-- Node26&#45;&gt;Node10 -->
<g id="edge58" class="edge">
<title>Node26&#45;&gt;Node10</title>
<path fill="none" stroke="midnightblue" d="M1326.43,-169.6C1293.66,-160.48 1237.62,-144.89 1199.49,-134.27"/>
<polygon fill="midnightblue" stroke="midnightblue" points="1200.29,-130.86 1189.72,-131.55 1198.41,-137.6 1200.29,-130.86"/>
</g>
<!-- Node26&#45;&gt;Node11 -->
<g id="edge59" class="edge">
<title>Node26&#45;&gt;Node11</title>
<path fill="none" stroke="midnightblue" d="M1379.71,-172.04C1448.67,-159.48 1638.39,-126.38 1798,-112 2286.26,-68.01 2881.48,-66.29 3049.13,-66.76"/>
<polygon fill="midnightblue" stroke="midnightblue" points="3049.31,-70.26 3059.32,-66.8 3049.33,-63.26 3049.31,-70.26"/>
</g>
<!-- Node26&#45;&gt;Node19 -->
<g id="edge60" class="edge">
<title>Node26&#45;&gt;Node19</title>
<path fill="none" stroke="midnightblue" d="M1327.73,-187.53C1310.55,-194.63 1288.71,-206.44 1276,-224 1261.08,-244.62 1268.03,-254.87 1264,-280 1246.36,-390.06 1238.77,-449.85 1322,-524 1483.27,-667.67 1566.39,-648.74 1778,-692 1878.48,-712.54 1997.35,-725.56 2066.66,-732.05"/>
<polygon fill="midnightblue" stroke="midnightblue" points="2066.65,-735.56 2076.93,-732.99 2067.29,-728.59 2066.65,-735.56"/>
</g>
<!-- Node26&#45;&gt;Node22 -->
<g id="edge136" class="edge">
<title>Node26&#45;&gt;Node22</title>
<path fill="none" stroke="midnightblue" d="M1343.12,-187.65C1333.65,-196.26 1319.31,-210.15 1309,-224 1273.02,-272.34 1268.19,-296.54 1278,-356 1292.57,-444.3 1308.74,-484.41 1389,-524 1491.12,-574.37 1526.14,-564.9 1639,-580 1825.78,-604.99 2419.84,-620.28 2582.48,-624.07"/>
<polygon fill="midnightblue" stroke="midnightblue" points="2582.49,-627.57 2592.56,-624.3 2582.65,-620.57 2582.49,-627.57"/>
</g>
<!-- Node26&#45;&gt;Node24 -->
<g id="edge139" class="edge">
<title>Node26&#45;&gt;Node24</title>
<path fill="none" stroke="midnightblue" d="M1357.93,-187.78C1367.51,-216.26 1384.96,-307.09 1437,-356 1548.3,-460.61 1720.76,-530.27 1790.46,-556.89"/>
<polygon fill="midnightblue" stroke="midnightblue" points="1789.39,-560.22 1799.98,-560.5 1791.87,-553.68 1789.39,-560.22"/>
</g>
<!-- Node26&#45;&gt;Node25 -->
<g id="edge61" class="edge">
<title>Node26&#45;&gt;Node25</title>
<path fill="none" stroke="midnightblue" d="M1379.76,-179.9C1555.03,-186.01 2538.41,-221.52 2789.61,-230.79"/>
<polygon fill="midnightblue" stroke="midnightblue" points="2789.51,-234.29 2799.63,-231.16 2789.77,-227.29 2789.51,-234.29"/>
</g>
<!-- Node26&#45;&gt;Node27 -->
<g id="edge62" class="edge">
<title>Node26&#45;&gt;Node27</title>
<path fill="none" stroke="midnightblue" d="M1379.54,-176.12C1579.25,-169.73 2843.33,-130.54 3062.63,-123.94"/>
<polygon fill="midnightblue" stroke="midnightblue" points="3062.94,-127.44 3072.83,-123.64 3062.73,-120.44 3062.94,-127.44"/>
</g>
<!-- Node26&#45;&gt;Node28 -->
<g id="edge137" class="edge">
<title>Node26&#45;&gt;Node28</title>
<path fill="none" stroke="midnightblue" d="M1379.64,-186.6C1406.49,-194.63 1448.89,-208.27 1484,-224 1639.81,-293.8 1657.83,-355.67 1819,-412 1906.63,-442.62 2017.25,-452.59 2068.1,-455.68"/>
<polygon fill="midnightblue" stroke="midnightblue" points="2068.12,-459.19 2078.3,-456.26 2068.51,-452.2 2068.12,-459.19"/>
</g>
<!-- Node26&#45;&gt;Node29 -->
<g id="edge141" class="edge">
<title>Node26&#45;&gt;Node29</title>
<path fill="none" stroke="midnightblue" d="M1371.19,-187.64C1413.96,-207.89 1524.38,-259.74 1618,-300 1695.89,-333.49 1788.7,-370.15 1836.33,-388.73"/>
<polygon fill="midnightblue" stroke="midnightblue" points="1835.2,-392.04 1845.79,-392.41 1837.74,-385.52 1835.2,-392.04"/>
</g>
<!-- Node26&#45;&gt;Node30 -->
<g id="edge138" class="edge">
<title>Node26&#45;&gt;Node30</title>
<path fill="none" stroke="midnightblue" d="M1350.57,-187.74C1340.17,-205.55 1310,-247.81 1310,-289 1310,-403 1310,-403 1310,-403 1310,-434.46 1315.45,-446.07 1338,-468 1354.52,-484.07 1377.49,-494.62 1397.72,-501.43"/>
<polygon fill="midnightblue" stroke="midnightblue" points="1396.79,-504.81 1407.38,-504.48 1398.9,-498.13 1396.79,-504.81"/>
</g>
<!-- Node26&#45;&gt;Node32 -->
<g id="edge140" class="edge">
<title>Node26&#45;&gt;Node32</title>
<path fill="none" stroke="midnightblue" d="M1379.72,-181.39C1533.33,-195.14 2304.59,-264.17 2523.8,-283.79"/>
<polygon fill="midnightblue" stroke="midnightblue" points="2523.55,-287.28 2533.82,-284.69 2524.17,-280.31 2523.55,-287.28"/>
</g>
<!-- Node27&#45;&gt;Node11 -->
<g id="edge63" class="edge">
<title>Node27&#45;&gt;Node11</title>
<path fill="none" stroke="midnightblue" d="M3095,-112.08C3095,-105.01 3095,-94.86 3095,-85.99"/>
<polygon fill="midnightblue" stroke="midnightblue" points="3098.5,-85.75 3095,-75.75 3091.5,-85.75 3098.5,-85.75"/>
</g>
<!-- Node27&#45;&gt;Node22 -->
<g id="edge64" class="edge">
<title>Node27&#45;&gt;Node22</title>
<path fill="none" stroke="midnightblue" d="M3117.06,-122.04C3155.05,-121.61 3233.13,-126.3 3279,-168 3349.73,-232.29 3339.19,-258.07 3318,-300 3190.19,-552.94 2794.58,-609.96 2665.32,-621.98"/>
<polygon fill="midnightblue" stroke="midnightblue" points="2664.72,-618.52 2655.07,-622.89 2665.34,-625.49 2664.72,-618.52"/>
</g>
<!-- Node27&#45;&gt;Node26 -->
<g id="edge135" class="edge">
<title>Node27&#45;&gt;Node26</title>
<path fill="none" stroke="midnightblue" d="M3072.73,-123.74C2888.71,-129.65 1622.62,-168.9 1389.73,-175.93"/>
<polygon fill="midnightblue" stroke="midnightblue" points="1389.63,-172.43 1379.74,-176.23 1389.84,-179.42 1389.63,-172.43"/>
</g>
<!-- Node27&#45;&gt;Node28 -->
<g id="edge65" class="edge">
<title>Node27&#45;&gt;Node28</title>
<path fill="none" stroke="midnightblue" d="M3089.38,-131.6C3080.61,-144.64 3062.74,-169.82 3044,-188 2968.64,-261.11 2935.02,-265.08 2836,-300 2567.4,-394.74 2222.82,-441.64 2123.76,-453.76"/>
<polygon fill="midnightblue" stroke="midnightblue" points="2123.18,-450.3 2113.67,-454.97 2124.01,-457.25 2123.18,-450.3"/>
</g>
<!-- Node28&#45;&gt;Node11 -->
<g id="edge66" class="edge">
<title>Node28&#45;&gt;Node11</title>
<path fill="none" stroke="midnightblue" d="M2113.73,-457.12C2230.1,-457.63 2885.23,-455.95 3052,-356 3129.4,-309.61 3139.5,-274.25 3166,-188 3178.73,-146.58 3139.48,-104.3 3114.35,-82.35"/>
<polygon fill="midnightblue" stroke="midnightblue" points="3116.37,-79.48 3106.46,-75.72 3111.86,-84.83 3116.37,-79.48"/>
</g>
<!-- Node28&#45;&gt;Node22 -->
<g id="edge67" class="edge">
<title>Node28&#45;&gt;Node22</title>
<path fill="none" stroke="midnightblue" d="M2113.55,-467.22C2159.79,-488.58 2289.17,-546.54 2402,-580 2463.91,-598.36 2537.74,-611.68 2582.72,-618.87"/>
<polygon fill="midnightblue" stroke="midnightblue" points="2582.27,-622.34 2592.69,-620.44 2583.36,-615.43 2582.27,-622.34"/>
</g>
<!-- Node28&#45;&gt;Node29 -->
<g id="edge68" class="edge">
<title>Node28&#45;&gt;Node29</title>
<path fill="none" stroke="midnightblue" d="M2078.25,-453.62C2041.93,-445.85 1959.11,-426.4 1908.86,-413.99"/>
<polygon fill="midnightblue" stroke="midnightblue" points="1909.51,-410.55 1898.96,-411.54 1907.83,-417.34 1909.51,-410.55"/>
</g>
<!-- Node29&#45;&gt;Node2 -->
<g id="edge69" class="edge">
<title>Node29&#45;&gt;Node2</title>
<path fill="none" stroke="midnightblue" d="M1846.92,-392.42C1808.08,-376.29 1723.1,-339.52 1656,-300 1565.98,-246.98 1467.24,-170.42 1426.83,-138.2"/>
<polygon fill="midnightblue" stroke="midnightblue" points="1428.89,-135.36 1418.9,-131.85 1424.51,-140.83 1428.89,-135.36"/>
</g>
<!-- Node29&#45;&gt;Node3 -->
<g id="edge70" class="edge">
<title>Node29&#45;&gt;Node3</title>
<path fill="none" stroke="midnightblue" d="M1827.94,-397.11C1770.19,-391.02 1660.44,-377.64 1569,-356 1175.15,-262.8 718.36,-74.09 599.48,-23.64"/>
<polygon fill="midnightblue" stroke="midnightblue" points="600.52,-20.28 589.95,-19.59 597.78,-26.72 600.52,-20.28"/>
</g>
<!-- Node29&#45;&gt;Node4 -->
<g id="edge71" class="edge">
<title>Node29&#45;&gt;Node4</title>
<path fill="none" stroke="midnightblue" d="M1859.97,-392.47C1832.96,-362.71 1748.22,-260.25 1770,-168 1786.82,-96.75 1865.65,-46.64 1908.35,-24.22"/>
<polygon fill="midnightblue" stroke="midnightblue" points="1910.06,-27.27 1917.38,-19.61 1906.88,-21.04 1910.06,-27.27"/>
</g>
<!-- Node29&#45;&gt;Node5 -->
<g id="edge72" class="edge">
<title>Node29&#45;&gt;Node5</title>
<path fill="none" stroke="midnightblue" d="M1827.61,-394.36C1782.51,-386.61 1707.49,-372.69 1644,-356 1377.03,-285.82 1063.33,-172.12 963.33,-135.08"/>
<polygon fill="midnightblue" stroke="midnightblue" points="964.38,-131.74 953.79,-131.54 961.95,-138.3 964.38,-131.74"/>
</g>
<!-- Node29&#45;&gt;Node6 -->
<g id="edge73" class="edge">
<title>Node29&#45;&gt;Node6</title>
<path fill="none" stroke="midnightblue" d="M1908.09,-392.55C1941.98,-384.83 1991.49,-372.15 2033,-356 2205.13,-289.02 2397.79,-175.9 2462.47,-136.79"/>
<polygon fill="midnightblue" stroke="midnightblue" points="2464.34,-139.75 2471.07,-131.57 2460.7,-133.77 2464.34,-139.75"/>
</g>
<!-- Node29&#45;&gt;Node7 -->
<g id="edge74" class="edge">
<title>Node29&#45;&gt;Node7</title>
<path fill="none" stroke="midnightblue" d="M1827.8,-400.59C1684.69,-398.87 1200.58,-390.56 1050,-356 832.98,-306.2 592.62,-178.63 517.07,-136.63"/>
<polygon fill="midnightblue" stroke="midnightblue" points="518.73,-133.55 508.29,-131.73 515.31,-139.66 518.73,-133.55"/>
</g>
<!-- Node29&#45;&gt;Node8 -->
<g id="edge75" class="edge">
<title>Node29&#45;&gt;Node8</title>
<path fill="none" stroke="midnightblue" d="M1869.44,-392.45C1873.51,-366.77 1884.2,-288.07 1874,-224 1869.23,-194.04 1856.97,-160.9 1848.81,-141.02"/>
<polygon fill="midnightblue" stroke="midnightblue" points="1851.99,-139.54 1844.88,-131.68 1845.54,-142.26 1851.99,-139.54"/>
</g>
<!-- Node29&#45;&gt;Node9 -->
<g id="edge76" class="edge">
<title>Node29&#45;&gt;Node9</title>
<path fill="none" stroke="midnightblue" d="M1827.8,-396.07C1770.37,-388.77 1661.65,-373.98 1570,-356 1209.67,-285.3 780.63,-170.29 648.63,-134.2"/>
<polygon fill="midnightblue" stroke="midnightblue" points="649.49,-130.81 638.93,-131.54 647.65,-137.56 649.49,-130.81"/>
</g>
<!-- Node29&#45;&gt;Node10 -->
<g id="edge77" class="edge">
<title>Node29&#45;&gt;Node10</title>
<path fill="none" stroke="midnightblue" d="M1830.97,-392.5C1797.04,-384.35 1745.6,-371.08 1702,-356 1498.39,-285.58 1263.4,-173.89 1185.56,-136.04"/>
<polygon fill="midnightblue" stroke="midnightblue" points="1186.97,-132.83 1176.44,-131.59 1183.9,-139.12 1186.97,-132.83"/>
</g>
<!-- Node29&#45;&gt;Node11 -->
<g id="edge78" class="edge">
<title>Node29&#45;&gt;Node11</title>
<path fill="none" stroke="midnightblue" d="M1908.16,-398.67C1987.84,-393.68 2171.41,-380.39 2324,-356 2364.46,-349.53 2373.61,-342.91 2414,-336 2545.5,-313.5 2581.29,-326.68 2712,-300 2755.76,-291.07 2866.47,-266.58 2905,-244 2977.12,-201.73 2976.56,-167.59 3039,-112 3050.76,-101.53 3064.54,-90.44 3075.49,-81.89"/>
<polygon fill="midnightblue" stroke="midnightblue" points="3077.8,-84.53 3083.57,-75.64 3073.52,-78.99 3077.8,-84.53"/>
</g>
<!-- Node29&#45;&gt;Node19 -->
<g id="edge79" class="edge">
<title>Node29&#45;&gt;Node19</title>
<path fill="none" stroke="midnightblue" d="M1827.85,-403.29C1708.59,-404.58 1362.62,-411.46 1329,-448 1322.98,-454.54 1325.46,-459.85 1329,-468 1390.49,-609.5 1893.86,-700.83 2066.87,-728.28"/>
<polygon fill="midnightblue" stroke="midnightblue" points="2066.38,-731.75 2076.81,-729.84 2067.47,-724.83 2066.38,-731.75"/>
</g>
<!-- Node29&#45;&gt;Node22 -->
<g id="edge82" class="edge">
<title>Node29&#45;&gt;Node22</title>
<path fill="none" stroke="midnightblue" d="M1908.44,-407.28C1960.7,-413.8 2053.69,-427.66 2131,-448 2301.47,-492.86 2338.74,-521.44 2505,-580 2536.49,-591.09 2572.35,-603.7 2596.56,-612.74"/>
<polygon fill="midnightblue" stroke="midnightblue" points="2595.59,-616.11 2606.18,-616.38 2598.07,-609.57 2595.59,-616.11"/>
</g>
<!-- Node29&#45;&gt;Node24 -->
<g id="edge101" class="edge">
<title>Node29&#45;&gt;Node24</title>
<path fill="none" stroke="midnightblue" d="M1865.57,-411.57C1858.28,-437.34 1836.41,-514.59 1826.27,-550.39"/>
<polygon fill="midnightblue" stroke="midnightblue" points="1822.88,-549.5 1823.53,-560.08 1829.62,-551.41 1822.88,-549.5"/>
</g>
<!-- Node29&#45;&gt;Node25 -->
<g id="edge80" class="edge">
<title>Node29&#45;&gt;Node25</title>
<path fill="none" stroke="midnightblue" d="M1908.3,-395.93C1995.44,-384.97 2207.93,-358.26 2386,-336 2514.44,-319.94 2550.29,-334.66 2675,-300 2696.09,-294.14 2699.66,-288.08 2720,-280 2750.73,-267.79 2786.24,-255.44 2812.05,-246.78"/>
<polygon fill="midnightblue" stroke="midnightblue" points="2813.41,-250.02 2821.79,-243.53 2811.19,-243.38 2813.41,-250.02"/>
</g>
<!-- Node29&#45;&gt;Node27 -->
<g id="edge81" class="edge">
<title>Node29&#45;&gt;Node27</title>
<path fill="none" stroke="midnightblue" d="M1908.19,-398.85C1998.73,-393.75 2225.48,-379.57 2414,-356 2467.22,-349.35 2480,-344.22 2533,-336 2645.23,-318.59 2675.87,-327.79 2786,-300 2897.02,-271.99 2927.26,-257.83 3018,-188 3039.06,-171.8 3062.23,-151.94 3077.6,-138.47"/>
<polygon fill="midnightblue" stroke="midnightblue" points="3080.08,-140.95 3085.27,-131.71 3075.45,-135.69 3080.08,-140.95"/>
</g>
<!-- Node29&#45;&gt;Node28 -->
<g id="edge83" class="edge">
<title>Node29&#45;&gt;Node28</title>
<path fill="none" stroke="midnightblue" d="M1908.13,-411.31C1954.23,-421.68 2028.39,-439.25 2068.44,-449.32"/>
<polygon fill="midnightblue" stroke="midnightblue" points="2067.76,-452.75 2078.32,-451.82 2069.49,-445.97 2067.76,-452.75"/>
</g>
<!-- Node29&#45;&gt;Node30 -->
<g id="edge84" class="edge">
<title>Node29&#45;&gt;Node30</title>
<path fill="none" stroke="midnightblue" d="M1827.56,-406.81C1774.2,-412.5 1677.7,-425.09 1598,-448 1550.67,-461.61 1498.35,-485.31 1467.92,-500.02"/>
<polygon fill="midnightblue" stroke="midnightblue" points="1466.3,-496.92 1458.85,-504.46 1469.37,-503.21 1466.3,-496.92"/>
</g>
<!-- Node29&#45;&gt;Node32 -->
<g id="edge102" class="edge">
<title>Node29&#45;&gt;Node32</title>
<path fill="none" stroke="midnightblue" d="M1908.34,-394.52C1962.76,-385.79 2062.69,-369.73 2148,-356 2203.11,-347.13 2216.82,-344.45 2272,-336 2359.71,-322.56 2461.55,-307.97 2523.87,-299.16"/>
<polygon fill="midnightblue" stroke="midnightblue" points="2524.49,-302.61 2533.9,-297.74 2523.51,-295.68 2524.49,-302.61"/>
</g>
<!-- Node33 -->
<g id="node33" class="node">
<title>Node33</title>
<g id="a_node33"><a xlink:href="BC__Handlers_8h.html" target="_top" xlink:title=" ">
<polygon fill="none" stroke="black" points="2542,-336.5 2542,-355.5 2630,-355.5 2630,-336.5 2542,-336.5"/>
<text text-anchor="middle" x="2586" y="-343.5" font-family="Helvetica,sans-Serif" font-size="10.00">BC_Handlers.h</text>
</a>
</g>
</g>
<!-- Node29&#45;&gt;Node33 -->
<g id="edge111" class="edge">
<title>Node29&#45;&gt;Node33</title>
<path fill="none" stroke="midnightblue" d="M1908.21,-398.08C2006.31,-391.35 2264.94,-373.94 2481,-356 2497.44,-354.63 2515.45,-352.99 2531.9,-351.48"/>
<polygon fill="midnightblue" stroke="midnightblue" points="2532.27,-354.96 2541.91,-350.56 2531.63,-347.99 2532.27,-354.96"/>
</g>
<!-- Node34 -->
<g id="node34" class="node">
<title>Node34</title>
<g id="a_node34"><a xlink:href="wallfunction_8h.html" target="_top" xlink:title=" ">
<polygon fill="none" stroke="black" points="1938,-336.5 1938,-355.5 2024,-355.5 2024,-336.5 1938,-336.5"/>
<text text-anchor="middle" x="1981" y="-343.5" font-family="Helvetica,sans-Serif" font-size="10.00">wallfunction.h</text>
</a>
</g>
</g>
<!-- Node29&#45;&gt;Node34 -->
<g id="edge115" class="edge">
<title>Node29&#45;&gt;Node34</title>
<path fill="none" stroke="midnightblue" d="M1881.04,-392.32C1897.58,-383.51 1926.13,-369.75 1948.58,-359.71"/>
<polygon fill="midnightblue" stroke="midnightblue" points="1950.04,-362.89 1957.78,-355.65 1947.22,-356.48 1950.04,-362.89"/>
</g>
<!-- Node30&#45;&gt;Node2 -->
<g id="edge85" class="edge">
<title>Node30&#45;&gt;Node2</title>
<path fill="none" stroke="midnightblue" d="M1397.93,-508.92C1368.59,-503.91 1331.27,-492.77 1308,-468 1272.71,-430.44 1284.72,-407.09 1278,-356 1266.87,-271.4 1260.52,-231.97 1317,-168 1330.39,-152.84 1350.06,-142.23 1367.69,-135.13"/>
<polygon fill="midnightblue" stroke="midnightblue" points="1369.09,-138.35 1377.22,-131.55 1366.63,-131.79 1369.09,-138.35"/>
</g>
<!-- Node30&#45;&gt;Node3 -->
<g id="edge86" class="edge">
<title>Node30&#45;&gt;Node3</title>
<path fill="none" stroke="midnightblue" d="M1397.81,-513.54C1305.65,-513.75 1086.72,-509.38 909,-468 709.57,-421.57 659.29,-398.91 480,-300 443.26,-279.73 422.92,-281.45 404,-244 376.17,-188.93 409.95,-161.34 447,-112 475.05,-74.64 519.7,-42.58 546.79,-25.11"/>
<polygon fill="midnightblue" stroke="midnightblue" points="548.99,-27.85 555.58,-19.55 545.26,-21.93 548.99,-27.85"/>
</g>
<!-- Node30&#45;&gt;Node4 -->
<g id="edge87" class="edge">
<title>Node30&#45;&gt;Node4</title>
<path fill="none" stroke="midnightblue" d="M1397.97,-505.72C1366.17,-499.15 1323.01,-487.45 1289,-468 1162.63,-395.72 1107.88,-377.58 1050,-244 1028.81,-195.09 1044.22,-156.1 1102,-112 1229.68,-14.56 1754.94,-10.02 1899.2,-10.66"/>
<polygon fill="midnightblue" stroke="midnightblue" points="1899.28,-14.16 1909.3,-10.71 1899.32,-7.16 1899.28,-14.16"/>
</g>
<!-- Node30&#45;&gt;Node5 -->
<g id="edge88" class="edge">
<title>Node30&#45;&gt;Node5</title>
<path fill="none" stroke="midnightblue" d="M1397.56,-508.6C1271.67,-495.06 918.03,-449.16 860,-356 814.69,-283.25 885.62,-179.65 917.14,-139.65"/>
<polygon fill="midnightblue" stroke="midnightblue" points="920,-141.69 923.55,-131.71 914.55,-137.29 920,-141.69"/>
</g>
<!-- Node30&#45;&gt;Node6 -->
<g id="edge89" class="edge">
<title>Node30&#45;&gt;Node6</title>
<path fill="none" stroke="midnightblue" d="M1486.1,-504.51C1605.52,-481.5 1927.71,-419.15 1950,-412 2065.17,-375.08 2088.97,-352.34 2198,-300 2247.46,-276.26 2259.67,-269.96 2308,-244 2352.54,-220.08 2365.41,-216.74 2407,-188 2429.27,-172.61 2452.89,-152.29 2468.22,-138.5"/>
<polygon fill="midnightblue" stroke="midnightblue" points="2470.79,-140.9 2475.83,-131.58 2466.08,-135.72 2470.79,-140.9"/>
</g>
<!-- Node30&#45;&gt;Node7 -->
<g id="edge90" class="edge">
<title>Node30&#45;&gt;Node7</title>
<path fill="none" stroke="midnightblue" d="M1397.74,-512.76C1314.29,-511.43 1128.45,-504.24 977,-468 910.62,-452.12 896.42,-439.62 834,-412 782.74,-389.31 768.57,-385.64 721,-356 622.55,-294.65 535.59,-182.18 504.83,-139.78"/>
<polygon fill="midnightblue" stroke="midnightblue" points="507.66,-137.71 498.99,-131.62 501.97,-141.79 507.66,-137.71"/>
</g>
<!-- Node30&#45;&gt;Node8 -->
<g id="edge93" class="edge">
<title>Node30&#45;&gt;Node8</title>
<path fill="none" stroke="midnightblue" d="M1440.67,-504.33C1436.96,-476.92 1429,-390.72 1466,-336 1546.33,-217.18 1716.41,-156.92 1796.95,-134.11"/>
<polygon fill="midnightblue" stroke="midnightblue" points="1798.07,-137.43 1806.77,-131.39 1796.2,-130.68 1798.07,-137.43"/>
</g>
<!-- Node30&#45;&gt;Node9 -->
<g id="edge91" class="edge">
<title>Node30&#45;&gt;Node9</title>
<path fill="none" stroke="midnightblue" d="M1397.77,-511.68C1323.62,-508.66 1169.95,-498.9 1044,-468 955.51,-446.29 738.81,-359.72 670,-300 622.29,-258.6 611.29,-178.3 608.75,-141.83"/>
<polygon fill="midnightblue" stroke="midnightblue" points="612.24,-141.43 608.19,-131.64 605.25,-141.81 612.24,-141.43"/>
</g>
<!-- Node30&#45;&gt;Node11 -->
<g id="edge94" class="edge">
<title>Node30&#45;&gt;Node11</title>
<path fill="none" stroke="midnightblue" d="M1467.94,-504.48C1510.25,-490.85 1596.93,-464.05 1672,-448 1779.63,-424.99 1813.44,-449.26 1917,-412 1933.14,-406.19 1934.76,-399.87 1950,-392 1985.72,-373.54 1998.89,-377.28 2033,-356 2174.76,-267.56 2163.97,-174.3 2319,-112 2386.63,-84.82 2892.74,-71.47 3049.12,-67.96"/>
<polygon fill="midnightblue" stroke="midnightblue" points="3049.41,-71.45 3059.33,-67.73 3049.26,-64.46 3049.41,-71.45"/>
</g>
<!-- Node30&#45;&gt;Node19 -->
<g id="edge95" class="edge">
<title>Node30&#45;&gt;Node19</title>
<path fill="none" stroke="midnightblue" d="M1467.8,-523.57C1505.42,-536.05 1577.55,-559.94 1639,-580 1806.93,-634.83 2007.83,-699.41 2088.67,-725.35"/>
<polygon fill="midnightblue" stroke="midnightblue" points="2087.79,-728.74 2098.38,-728.46 2089.92,-722.08 2087.79,-728.74"/>
</g>
<!-- Node30&#45;&gt;Node22 -->
<g id="edge98" class="edge">
<title>Node30&#45;&gt;Node22</title>
<path fill="none" stroke="midnightblue" d="M1475.07,-523.61C1531.86,-538.01 1651.79,-566.69 1755,-580 1918.14,-601.04 2432.58,-618.85 2582.57,-623.7"/>
<polygon fill="midnightblue" stroke="midnightblue" points="2582.62,-627.2 2592.73,-624.02 2582.85,-620.2 2582.62,-627.2"/>
</g>
<!-- Node30&#45;&gt;Node25 -->
<g id="edge96" class="edge">
<title>Node30&#45;&gt;Node25</title>
<path fill="none" stroke="midnightblue" d="M1486.12,-507.73C1550.43,-499.91 1673.63,-484.37 1778,-468 1830.09,-459.83 2661.82,-316.18 2712,-300 2753.26,-286.7 2798.07,-263.39 2824.56,-248.6"/>
<polygon fill="midnightblue" stroke="midnightblue" points="2826.47,-251.54 2833.45,-243.57 2823.02,-245.45 2826.47,-251.54"/>
</g>
<!-- Node30&#45;&gt;Node26 -->
<g id="edge100" class="edge">
<title>Node30&#45;&gt;Node26</title>
<path fill="none" stroke="midnightblue" d="M1397.83,-506.08C1372.09,-499.81 1340.89,-488.32 1320,-468 1297.45,-446.07 1292,-434.46 1292,-403 1292,-403 1292,-403 1292,-289 1292,-252.8 1315.31,-215.77 1333.41,-195.24"/>
<polygon fill="midnightblue" stroke="midnightblue" points="1336.18,-197.41 1340.53,-187.74 1331.11,-192.59 1336.18,-197.41"/>
</g>
<!-- Node30&#45;&gt;Node27 -->
<g id="edge97" class="edge">
<title>Node30&#45;&gt;Node27</title>
<path fill="none" stroke="midnightblue" d="M1486.02,-508.58C1560.73,-500.98 1717.11,-484.64 1849,-468 2309.18,-409.95 2439.49,-448.2 2879,-300 2971.16,-268.92 3010.06,-266.85 3067,-188 3077.33,-173.69 3084.88,-154.98 3089.52,-141.31"/>
<polygon fill="midnightblue" stroke="midnightblue" points="3092.91,-142.2 3092.62,-131.61 3086.24,-140.07 3092.91,-142.2"/>
</g>
<!-- Node30&#45;&gt;Node28 -->
<g id="edge99" class="edge">
<title>Node30&#45;&gt;Node28</title>
<path fill="none" stroke="midnightblue" d="M1486.11,-512.85C1588.45,-511.86 1849.64,-505.5 2064,-468 2065.46,-467.75 2066.94,-467.45 2068.44,-467.13"/>
<polygon fill="midnightblue" stroke="midnightblue" points="2069.35,-470.51 2078.21,-464.69 2067.66,-463.72 2069.35,-470.51"/>
</g>
<!-- Node31 -->
<g id="node31" class="node">
<title>Node31</title>
<g id="a_node31"><a xlink:title=" ">
<polygon fill="none" stroke="#bfbfbf" points="1338.5,-448.5 1338.5,-467.5 1413.5,-467.5 1413.5,-448.5 1338.5,-448.5"/>
<text text-anchor="middle" x="1376" y="-455.5" font-family="Helvetica,sans-Serif" font-size="10.00">petscerror.h</text>
</a>
</g>
</g>
<!-- Node30&#45;&gt;Node31 -->
<g id="edge92" class="edge">
<title>Node30&#45;&gt;Node31</title>
<path fill="none" stroke="midnightblue" d="M1431.4,-504.32C1421.54,-496.26 1406.65,-484.08 1394.78,-474.37"/>
<polygon fill="midnightblue" stroke="midnightblue" points="1396.75,-471.46 1386.8,-467.83 1392.32,-476.88 1396.75,-471.46"/>
</g>
<!-- Node32&#45;&gt;Node3 -->
<g id="edge104" class="edge">
<title>Node32&#45;&gt;Node3</title>
<path fill="none" stroke="midnightblue" d="M2585.54,-280.19C2590.13,-267.72 2597.16,-244.18 2594,-224 2584.72,-164.82 2573.68,-136.47 2519,-112 2343.17,-33.31 941.66,-14.72 630.89,-11.55"/>
<polygon fill="midnightblue" stroke="midnightblue" points="630.76,-8.05 620.73,-11.45 630.69,-15.05 630.76,-8.05"/>
</g>
<!-- Node32&#45;&gt;Node6 -->
<g id="edge107" class="edge">
<title>Node32&#45;&gt;Node6</title>
<path fill="none" stroke="midnightblue" d="M2582.33,-280.19C2582.68,-258.9 2580.94,-203.78 2556,-168 2546.21,-153.96 2530.48,-143.33 2516.32,-135.95"/>
<polygon fill="midnightblue" stroke="midnightblue" points="2517.84,-132.79 2507.31,-131.56 2514.77,-139.08 2517.84,-132.79"/>
</g>
<!-- Node32&#45;&gt;Node8 -->
<g id="edge106" class="edge">
<title>Node32&#45;&gt;Node8</title>
<path fill="none" stroke="midnightblue" d="M2543.98,-280.48C2418.64,-252.4 2018.88,-162.85 1885.09,-132.88"/>
<polygon fill="midnightblue" stroke="midnightblue" points="1885.71,-129.43 1875.19,-130.66 1884.18,-136.26 1885.71,-129.43"/>
</g>
<!-- Node32&#45;&gt;Node11 -->
<g id="edge108" class="edge">
<title>Node32&#45;&gt;Node11</title>
<path fill="none" stroke="midnightblue" d="M2601.42,-280.35C2619.96,-271.84 2648.48,-258.11 2672,-244 2758.92,-191.85 2764.73,-151.7 2858,-112 2921.14,-85.13 3000.54,-74.22 3049.52,-69.85"/>
<polygon fill="midnightblue" stroke="midnightblue" points="3049.82,-73.34 3059.5,-69.01 3049.24,-66.36 3049.82,-73.34"/>
</g>
<!-- Node32&#45;&gt;Node20 -->
<g id="edge103" class="edge">
<title>Node32&#45;&gt;Node20</title>
<path fill="none" stroke="midnightblue" d="M2620.82,-280.46C2654.84,-272.51 2705.37,-259.56 2748,-244 2767.8,-236.77 2770.67,-229.56 2791,-224 2941.71,-182.75 3129.81,-178.37 3207.67,-178.52"/>
<polygon fill="midnightblue" stroke="midnightblue" points="3207.89,-182.02 3217.91,-178.57 3207.92,-175.02 3207.89,-182.02"/>
</g>
<!-- Node32&#45;&gt;Node21 -->
<g id="edge105" class="edge">
<title>Node32&#45;&gt;Node21</title>
<path fill="none" stroke="midnightblue" d="M2607.66,-280.46C2633.61,-271.71 2674.81,-257.5 2710,-244 2731.58,-235.72 2736.65,-232.85 2758,-224 2784.57,-212.98 2814.8,-200.5 2836.68,-191.49"/>
<polygon fill="midnightblue" stroke="midnightblue" points="2838.18,-194.65 2846.1,-187.61 2835.52,-188.18 2838.18,-194.65"/>
</g>
<!-- Node32&#45;&gt;Node22 -->
<g id="edge109" class="edge">
<title>Node32&#45;&gt;Node22</title>
<path fill="none" stroke="midnightblue" d="M2619.1,-299.54C2638.44,-306.08 2660.43,-317.28 2672,-336 2727.42,-425.67 2661.64,-559.57 2634.58,-607.31"/>
<polygon fill="midnightblue" stroke="midnightblue" points="2631.45,-605.74 2629.46,-616.14 2637.5,-609.25 2631.45,-605.74"/>
</g>
<!-- Node32&#45;&gt;Node25 -->
<g id="edge110" class="edge">
<title>Node32&#45;&gt;Node25</title>
<path fill="none" stroke="midnightblue" d="M2624.15,-280.44C2670.75,-270.98 2745.84,-255.74 2796.05,-245.55"/>
<polygon fill="midnightblue" stroke="midnightblue" points="2796.94,-248.94 2806.05,-243.52 2795.55,-242.08 2796.94,-248.94"/>
</g>
<!-- Node33&#45;&gt;Node11 -->
<g id="edge112" class="edge">
<title>Node33&#45;&gt;Node11</title>
<path fill="none" stroke="midnightblue" d="M2630.08,-341.28C2700.68,-333.47 2841,-310.23 2938,-244 2972.38,-220.53 3050.72,-123.28 3081.87,-83.79"/>
<polygon fill="midnightblue" stroke="midnightblue" points="3084.67,-85.9 3088.09,-75.87 3079.16,-81.57 3084.67,-85.9"/>
</g>
<!-- Node33&#45;&gt;Node22 -->
<g id="edge114" class="edge">
<title>Node33&#45;&gt;Node22</title>
<path fill="none" stroke="midnightblue" d="M2599.79,-355.68C2638.86,-381.19 2750.02,-460.46 2790,-560 2810.64,-611.4 2721.3,-622.7 2665.66,-624.85"/>
<polygon fill="midnightblue" stroke="midnightblue" points="2665.25,-621.36 2655.36,-625.16 2665.46,-628.36 2665.25,-621.36"/>
</g>
<!-- Node33&#45;&gt;Node29 -->
<g id="edge113" class="edge">
<title>Node33&#45;&gt;Node29</title>
<path fill="none" stroke="midnightblue" d="M2541.88,-352.15C2528.17,-353.47 2513.01,-354.84 2499,-356 2283.37,-373.91 2025.35,-391.28 1918.25,-398.04"/>
<polygon fill="midnightblue" stroke="midnightblue" points="1917.82,-394.56 1908.06,-398.68 1918.26,-401.55 1917.82,-394.56"/>
</g>
<!-- Node34&#45;&gt;Node2 -->
<g id="edge116" class="edge">
<title>Node34&#45;&gt;Node2</title>
<path fill="none" stroke="midnightblue" d="M1971.6,-336.1C1939.64,-306.44 1831.13,-210.44 1722,-168 1628.84,-131.77 1509.95,-124.29 1448.63,-123.01"/>
<polygon fill="midnightblue" stroke="midnightblue" points="1448.64,-119.51 1438.59,-122.85 1448.53,-126.51 1448.64,-119.51"/>
</g>
<!-- Node34&#45;&gt;Node3 -->
<g id="edge117" class="edge">
<title>Node34&#45;&gt;Node3</title>
<path fill="none" stroke="midnightblue" d="M1980.5,-336.24C1977.97,-300.84 1963.3,-167.58 1884,-112 1780.45,-39.42 875.82,-16.87 630.92,-12.07"/>
<polygon fill="midnightblue" stroke="midnightblue" points="630.84,-8.57 620.77,-11.88 630.71,-15.57 630.84,-8.57"/>
</g>
<!-- Node34&#45;&gt;Node4 -->
<g id="edge118" class="edge">
<title>Node34&#45;&gt;Node4</title>
<path fill="none" stroke="midnightblue" d="M1985.18,-336.39C1993.64,-318.16 2012,-274.09 2012,-235 2012,-235 2012,-235 2012,-121 2012,-81.28 1978.04,-45.5 1955.52,-26.15"/>
<polygon fill="midnightblue" stroke="midnightblue" points="1957.48,-23.24 1947.54,-19.57 1953.02,-28.63 1957.48,-23.24"/>
</g>
<!-- Node34&#45;&gt;Node5 -->
<g id="edge119" class="edge">
<title>Node34&#45;&gt;Node5</title>
<path fill="none" stroke="midnightblue" d="M1949.83,-336.49C1872.85,-315.66 1667.37,-261.05 1494,-224 1294.77,-181.43 1053.28,-142.22 965.22,-128.33"/>
<polygon fill="midnightblue" stroke="midnightblue" points="965.68,-124.86 955.26,-126.76 964.59,-131.77 965.68,-124.86"/>
</g>
<!-- Node34&#45;&gt;Node6 -->
<g id="edge120" class="edge">
<title>Node34&#45;&gt;Node6</title>
<path fill="none" stroke="midnightblue" d="M1993.55,-336.47C2035.42,-308.37 2174.86,-217.68 2302,-168 2351.58,-148.63 2412.06,-135.7 2449.55,-128.85"/>
<polygon fill="midnightblue" stroke="midnightblue" points="2450.26,-132.28 2459.49,-127.08 2449.03,-125.39 2450.26,-132.28"/>
</g>
<!-- Node34&#45;&gt;Node7 -->
<g id="edge121" class="edge">
<title>Node34&#45;&gt;Node7</title>
<path fill="none" stroke="midnightblue" d="M1937.89,-340.85C1864.35,-333.62 1709.97,-317.77 1580,-300 1118.95,-236.97 1002.01,-214.65 540.07,-132.15"/>
<polygon fill="midnightblue" stroke="midnightblue" points="540.6,-128.69 530.14,-130.38 539.37,-135.58 540.6,-128.69"/>
</g>
<!-- Node34&#45;&gt;Node8 -->
<g id="edge122" class="edge">
<title>Node34&#45;&gt;Node8</title>
<path fill="none" stroke="midnightblue" d="M1976.37,-336.36C1965.58,-316.32 1937.7,-265.25 1912,-224 1896.09,-198.47 1891.34,-192.58 1874,-168 1867.36,-158.58 1859.76,-148.2 1853.53,-139.78"/>
<polygon fill="midnightblue" stroke="midnightblue" points="1856.19,-137.5 1847.42,-131.56 1850.58,-141.67 1856.19,-137.5"/>
</g>
<!-- Node34&#45;&gt;Node9 -->
<g id="edge123" class="edge">
<title>Node34&#45;&gt;Node9</title>
<path fill="none" stroke="midnightblue" d="M1937.64,-337.99C1737.99,-305.71 906.9,-171.33 670.8,-133.15"/>
<polygon fill="midnightblue" stroke="midnightblue" points="671.1,-129.66 660.67,-131.52 669.99,-136.57 671.1,-129.66"/>
</g>
<!-- Node34&#45;&gt;Node10 -->
<g id="edge124" class="edge">
<title>Node34&#45;&gt;Node10</title>
<path fill="none" stroke="midnightblue" d="M1965.93,-336.37C1919.74,-309.96 1781.96,-231.61 1760,-224 1568.01,-157.44 1325.83,-133.9 1216.83,-126.3"/>
<polygon fill="midnightblue" stroke="midnightblue" points="1216.91,-122.8 1206.7,-125.61 1216.44,-129.78 1216.91,-122.8"/>
</g>
<!-- Node34&#45;&gt;Node11 -->
<g id="edge125" class="edge">
<title>Node34&#45;&gt;Node11</title>
<path fill="none" stroke="midnightblue" d="M1991.4,-336.26C2034.85,-300.37 2207.4,-163.73 2376,-112 2502.58,-73.16 2911.62,-67.78 3049.3,-67.09"/>
<polygon fill="midnightblue" stroke="midnightblue" points="3049.51,-70.59 3059.49,-67.04 3049.48,-63.59 3049.51,-70.59"/>
</g>
<!-- Node34&#45;&gt;Node19 -->
<g id="edge126" class="edge">
<title>Node34&#45;&gt;Node19</title>
<path fill="none" stroke="midnightblue" d="M2004.62,-355.54C2038.19,-369.14 2098.26,-399.28 2122,-448 2167.17,-540.7 2141.75,-670.83 2129.96,-718.54"/>
<polygon fill="midnightblue" stroke="midnightblue" points="2126.54,-717.8 2127.44,-728.36 2133.32,-719.55 2126.54,-717.8"/>
</g>
<!-- Node34&#45;&gt;Node22 -->
<g id="edge129" class="edge">
<title>Node34&#45;&gt;Node22</title>
<path fill="none" stroke="midnightblue" d="M2024.21,-355.46C2060.1,-363.11 2112.2,-375.67 2156,-392 2333.93,-458.33 2533.6,-571.86 2600.65,-611.14"/>
<polygon fill="midnightblue" stroke="midnightblue" points="2599.16,-614.33 2609.56,-616.38 2602.71,-608.3 2599.16,-614.33"/>
</g>
<!-- Node34&#45;&gt;Node24 -->
<g id="edge132" class="edge">
<title>Node34&#45;&gt;Node24</title>
<path fill="none" stroke="midnightblue" d="M1974.6,-355.88C1950.53,-389.27 1865.25,-507.6 1833.25,-552"/>
<polygon fill="midnightblue" stroke="midnightblue" points="1830.28,-550.14 1827.27,-560.3 1835.96,-554.23 1830.28,-550.14"/>
</g>
<!-- Node34&#45;&gt;Node25 -->
<g id="edge127" class="edge">
<title>Node34&#45;&gt;Node25</title>
<path fill="none" stroke="midnightblue" d="M2024,-344.11C2150.87,-341.15 2522.01,-330.1 2639,-300 2659.41,-294.75 2662.2,-287.23 2682,-280 2720.64,-265.89 2765.76,-253.94 2799.2,-245.91"/>
<polygon fill="midnightblue" stroke="midnightblue" points="2800.26,-249.25 2809.18,-243.54 2798.64,-242.44 2800.26,-249.25"/>
</g>
<!-- Node34&#45;&gt;Node27 -->
<g id="edge128" class="edge">
<title>Node34&#45;&gt;Node27</title>
<path fill="none" stroke="midnightblue" d="M2019.26,-336.43C2138.48,-309.84 2514.02,-226.99 2827,-168 2911.84,-152.01 3012.32,-135.89 3062.74,-127.99"/>
<polygon fill="midnightblue" stroke="midnightblue" points="3063.37,-131.43 3072.71,-126.43 3062.29,-124.52 3063.37,-131.43"/>
</g>
<!-- Node34&#45;&gt;Node28 -->
<g id="edge130" class="edge">
<title>Node34&#45;&gt;Node28</title>
<path fill="none" stroke="midnightblue" d="M1989.98,-355.59C2009.26,-374.03 2054.84,-417.63 2079.49,-441.21"/>
<polygon fill="midnightblue" stroke="midnightblue" points="2077.33,-443.99 2086.98,-448.37 2082.17,-438.93 2077.33,-443.99"/>
</g>
<!-- Node34&#45;&gt;Node29 -->
<g id="edge134" class="edge">
<title>Node34&#45;&gt;Node29</title>
<path fill="none" stroke="midnightblue" d="M1968.26,-355.52C1951.72,-364.35 1922.87,-378.26 1900.25,-388.37"/>
<polygon fill="midnightblue" stroke="midnightblue" points="1898.74,-385.21 1890.99,-392.44 1901.56,-391.62 1898.74,-385.21"/>
</g>
<!-- Node34&#45;&gt;Node30 -->
<g id="edge131" class="edge">
<title>Node34&#45;&gt;Node30</title>
<path fill="none" stroke="midnightblue" d="M1937.83,-351.47C1856.65,-361.02 1676.92,-387.67 1538,-448 1508.49,-460.81 1478.4,-482.97 1459.97,-497.8"/>
<polygon fill="midnightblue" stroke="midnightblue" points="1457.41,-495.37 1451.91,-504.42 1461.85,-500.78 1457.41,-495.37"/>
</g>
<!-- Node34&#45;&gt;Node32 -->
<g id="edge133" class="edge">
<title>Node34&#45;&gt;Node32</title>
<path fill="none" stroke="midnightblue" d="M2024.22,-341.12C2130.27,-331.59 2403.43,-307.04 2523.69,-296.24"/>
<polygon fill="midnightblue" stroke="midnightblue" points="2524.16,-299.71 2533.81,-295.33 2523.53,-292.74 2524.16,-299.71"/>
</g>
<!-- Node35&#45;&gt;Node4 -->
<g id="edge153" class="edge">
<title>Node35&#45;&gt;Node4</title>
<path fill="none" stroke="midnightblue" d="M2296.97,-672.18C2261.45,-609.82 2050,-236.17 2050,-179 2050,-179 2050,-179 2050,-121 2050,-74.11 1999.45,-40.89 1965.67,-23.93"/>
<polygon fill="midnightblue" stroke="midnightblue" points="1967.17,-20.77 1956.64,-19.58 1964.13,-27.07 1967.17,-20.77"/>
</g>
<!-- Node35&#45;&gt;Node11 -->
<g id="edge151" class="edge">
<title>Node35&#45;&gt;Node11</title>
<path fill="none" stroke="midnightblue" d="M2330.1,-679.3C2404.96,-674.58 2615.32,-660.05 2789,-636 3059.87,-598.49 3141.36,-628.64 3394,-524 3481.7,-487.68 3570,-497.93 3570,-403 3570,-403 3570,-403 3570,-345 3570,-199.49 3477.38,-159.95 3340,-112 3272.91,-88.58 3191.01,-76.69 3140.95,-71.17"/>
<polygon fill="midnightblue" stroke="midnightblue" points="3141.08,-67.67 3130.77,-70.09 3140.34,-74.63 3141.08,-67.67"/>
</g>
<!-- Node35&#45;&gt;Node20 -->
<g id="edge150" class="edge">
<title>Node35&#45;&gt;Node20</title>
<path fill="none" stroke="midnightblue" d="M2330.19,-678.98C2473.29,-668.1 3117.4,-611.61 3242,-468 3297.86,-403.61 3294.52,-364 3280,-280 3274.78,-249.84 3261.41,-216.75 3252.52,-196.94"/>
<polygon fill="midnightblue" stroke="midnightblue" points="3255.6,-195.26 3248.23,-187.64 3249.24,-198.19 3255.6,-195.26"/>
</g>
<!-- Node35&#45;&gt;Node22 -->
<g id="edge152" class="edge">
<title>Node35&#45;&gt;Node22</title>
<path fill="none" stroke="midnightblue" d="M2330.43,-674.7C2334.96,-673.76 2339.6,-672.82 2344,-672 2428.56,-656.16 2528.14,-640.98 2582.83,-632.93"/>
<polygon fill="midnightblue" stroke="midnightblue" points="2583.45,-636.38 2592.83,-631.47 2582.43,-629.46 2583.45,-636.38"/>
</g>
<!-- Node35&#45;&gt;Node26 -->
<g id="edge155" class="edge">
<title>Node35&#45;&gt;Node26</title>
<path fill="none" stroke="midnightblue" d="M2273.81,-680.42C2167.82,-677.62 1783.87,-662.06 1481,-580 1420.28,-563.55 1402.22,-560.52 1351,-524 1258.08,-457.74 1250.64,-392.29 1271,-280 1275.74,-253.85 1275.98,-245.21 1292,-224 1301.48,-211.45 1315.41,-200.81 1327.56,-193.03"/>
<polygon fill="midnightblue" stroke="midnightblue" points="1329.68,-195.84 1336.41,-187.66 1326.04,-189.86 1329.68,-195.84"/>
</g>
<!-- Node35&#45;&gt;Node28 -->
<g id="edge154" class="edge">
<title>Node35&#45;&gt;Node28</title>
<path fill="none" stroke="midnightblue" d="M2293.92,-672.3C2263.04,-639.01 2152.07,-519.42 2111.23,-475.41"/>
<polygon fill="midnightblue" stroke="midnightblue" points="2113.61,-472.83 2104.24,-467.88 2108.48,-477.59 2113.61,-472.83"/>
</g>
<!-- Node36&#45;&gt;Node1 -->
<g id="edge182" class="edge">
<title>Node36&#45;&gt;Node1</title>
<path fill="none" stroke="midnightblue" d="M1577.37,-803.75C1587.19,-811.48 1599.7,-822.97 1608.79,-832.43"/>
<polygon fill="midnightblue" stroke="midnightblue" points="1606.44,-835.04 1615.75,-840.08 1611.61,-830.33 1606.44,-835.04"/>
</g>
<!-- Node36&#45;&gt;Node2 -->
<g id="edge163" class="edge">
<title>Node36&#45;&gt;Node2</title>
<path fill="none" stroke="midnightblue" d="M1513.98,-791.14C1345.14,-784.08 798,-755.62 798,-683 798,-683 798,-683 798,-625 798,-328.96 1231.66,-175.26 1367.69,-134.33"/>
<polygon fill="midnightblue" stroke="midnightblue" points="1368.74,-137.66 1377.33,-131.46 1366.75,-130.95 1368.74,-137.66"/>
</g>
<!-- Node36&#45;&gt;Node3 -->
<g id="edge164" class="edge">
<title>Node36&#45;&gt;Node3</title>
<path fill="none" stroke="midnightblue" d="M1513.95,-792.22C1323.76,-789 641,-775.6 548,-748 409.79,-706.98 38,-491.17 38,-347 38,-347 38,-347 38,-121 38,-79.19 67.99,-73.42 106,-56 176.29,-23.78 400.17,-14.59 509.19,-12"/>
<polygon fill="midnightblue" stroke="midnightblue" points="509.45,-15.49 519.37,-11.77 509.29,-8.49 509.45,-15.49"/>
</g>
<!-- Node36&#45;&gt;Node4 -->
<g id="edge165" class="edge">
<title>Node36&#45;&gt;Node4</title>
<path fill="none" stroke="midnightblue" d="M1513.85,-793.58C1370.42,-794.69 954.61,-793.79 828,-748 656.92,-686.12 190,-416.93 190,-235 190,-235 190,-235 190,-121 190,-32.2 1647.44,-13.84 1899.18,-11.33"/>
<polygon fill="midnightblue" stroke="midnightblue" points="1899.31,-14.83 1909.27,-11.23 1899.24,-7.83 1899.31,-14.83"/>
</g>
<!-- Node36&#45;&gt;Node5 -->
<g id="edge166" class="edge">
<title>Node36&#45;&gt;Node5</title>
<path fill="none" stroke="midnightblue" d="M1513.7,-792.32C1323.23,-789.04 646,-771.19 646,-683 646,-683 646,-683 646,-625 646,-399.96 709.63,-331.74 864,-168 875.87,-155.41 891.88,-144.49 905.27,-136.57"/>
<polygon fill="midnightblue" stroke="midnightblue" points="907.09,-139.56 914.05,-131.57 903.62,-133.48 907.09,-139.56"/>
</g>
<!-- Node36&#45;&gt;Node6 -->
<g id="edge167" class="edge">
<title>Node36&#45;&gt;Node6</title>
<path fill="none" stroke="midnightblue" d="M1612.27,-792.12C1795.47,-788.67 2431.29,-774.84 2518,-748 2653.73,-705.98 2720.79,-704.09 2790,-580 2843.33,-484.37 3153.09,-720.18 2639,-336 2596.44,-304.19 2560.97,-339.11 2525,-300 2503.75,-276.9 2491.35,-182.52 2486.89,-141.82"/>
<polygon fill="midnightblue" stroke="midnightblue" points="2490.37,-141.45 2485.85,-131.87 2483.41,-142.18 2490.37,-141.45"/>
</g>
<!-- Node36&#45;&gt;Node7 -->
<g id="edge168" class="edge">
<title>Node36&#45;&gt;Node7</title>
<path fill="none" stroke="midnightblue" d="M1513.86,-792.88C1328.11,-792.13 675.11,-786.72 591,-748 364.19,-643.58 304.64,-544.08 252,-300 244.88,-266.98 233.29,-252.12 252,-224 295.05,-159.28 388.43,-135.95 445.48,-127.6"/>
<polygon fill="midnightblue" stroke="midnightblue" points="446.26,-131.02 455.69,-126.21 445.31,-124.09 446.26,-131.02"/>
</g>
<!-- Node36&#45;&gt;Node8 -->
<g id="edge169" class="edge">
<title>Node36&#45;&gt;Node8</title>
<path fill="none" stroke="midnightblue" d="M1562.5,-784.38C1562.01,-775.32 1561.28,-760.67 1561,-748 1560.8,-739.11 1560.06,-736.84 1561,-728 1563.68,-702.69 1566,-696.47 1573,-672 1640.98,-434.38 1671.33,-373.93 1808,-168 1814.29,-158.52 1821.76,-148.26 1828,-139.93"/>
<polygon fill="midnightblue" stroke="midnightblue" points="1830.92,-141.87 1834.17,-131.79 1825.34,-137.64 1830.92,-141.87"/>
</g>
<!-- Node36&#45;&gt;Node9 -->
<g id="edge170" class="edge">
<title>Node36&#45;&gt;Node9</title>
<path fill="none" stroke="midnightblue" d="M1513.94,-792.64C1357.72,-791.13 873.25,-783.64 721,-748 649.86,-731.35 570,-756.06 570,-683 570,-683 570,-683 570,-569 570,-405.45 361.86,-366.57 442,-224 468.59,-176.69 527.31,-148.96 567.28,-134.88"/>
<polygon fill="midnightblue" stroke="midnightblue" points="568.66,-138.11 577.01,-131.59 566.42,-131.48 568.66,-138.11"/>
</g>
<!-- Node36&#45;&gt;Node10 -->
<g id="edge171" class="edge">
<title>Node36&#45;&gt;Node10</title>
<path fill="none" stroke="midnightblue" d="M1513.58,-792.65C1378.54,-791.23 1005.67,-784.05 889,-748 842.17,-733.53 821.97,-732.24 794,-692 668.2,-511.02 800.93,-378.62 958,-224 1004.22,-178.5 1075.05,-149.53 1119.12,-134.79"/>
<polygon fill="midnightblue" stroke="midnightblue" points="1120.48,-138.03 1128.91,-131.61 1118.31,-131.37 1120.48,-138.03"/>
</g>
<!-- Node36&#45;&gt;Node11 -->
<g id="edge172" class="edge">
<title>Node36&#45;&gt;Node11</title>
<path fill="none" stroke="midnightblue" d="M1612.19,-792.27C1801.44,-788.81 2472,-770.38 2472,-683 2472,-683 2472,-683 2472,-457 2472,-303.36 2342.24,-221.52 2450,-112 2491.82,-69.5 2908.5,-66.55 3049.01,-66.77"/>
<polygon fill="midnightblue" stroke="midnightblue" points="3049.41,-70.28 3059.42,-66.8 3049.43,-63.28 3049.41,-70.28"/>
</g>
<!-- Node36&#45;&gt;Node19 -->
<g id="edge173" class="edge">
<title>Node36&#45;&gt;Node19</title>
<path fill="none" stroke="midnightblue" d="M1612.38,-788.26C1716.02,-778.3 1955.77,-755.26 2066.72,-744.6"/>
<polygon fill="midnightblue" stroke="midnightblue" points="2067.11,-748.08 2076.73,-743.64 2066.44,-741.11 2067.11,-748.08"/>
</g>
<!-- Node36&#45;&gt;Node22 -->
<g id="edge176" class="edge">
<title>Node36&#45;&gt;Node22</title>
<path fill="none" stroke="midnightblue" d="M1612.31,-792.49C1791.91,-790.37 2404.89,-780.8 2486,-748 2541.44,-725.58 2589.77,-671 2611.61,-643.46"/>
<polygon fill="midnightblue" stroke="midnightblue" points="2614.38,-645.59 2617.74,-635.55 2608.85,-641.3 2614.38,-645.59"/>
</g>
<!-- Node36&#45;&gt;Node24 -->
<g id="edge179" class="edge">
<title>Node36&#45;&gt;Node24</title>
<path fill="none" stroke="midnightblue" d="M1562.86,-784.28C1562.91,-754.34 1567.64,-655.47 1626,-616 1663.6,-590.57 1713.6,-579.38 1753.55,-574.51"/>
<polygon fill="midnightblue" stroke="midnightblue" points="1754.19,-577.96 1763.75,-573.38 1753.42,-571.01 1754.19,-577.96"/>
</g>
<!-- Node36&#45;&gt;Node25 -->
<g id="edge174" class="edge">
<title>Node36&#45;&gt;Node25</title>
<path fill="none" stroke="midnightblue" d="M1612.03,-793.13C1802.21,-793.33 2491.14,-790.98 2705,-748 2774.77,-733.98 2792.01,-725.11 2855,-692 2974.93,-628.95 3130.22,-634.84 3095,-504 3061.59,-379.86 2926.14,-283.61 2871.26,-248.95"/>
<polygon fill="midnightblue" stroke="midnightblue" points="2872.92,-245.86 2862.58,-243.56 2869.23,-251.81 2872.92,-245.86"/>
</g>
<!-- Node36&#45;&gt;Node27 -->
<g id="edge175" class="edge">
<title>Node36&#45;&gt;Node27</title>
<path fill="none" stroke="midnightblue" d="M1612.23,-793.19C1808.13,-793.63 2532.47,-792.18 2757,-748 2970.15,-706.06 3021.23,-676.21 3216,-580 3328.02,-524.67 3444.35,-515.43 3425,-392 3407.44,-280 3404.85,-217.78 3303,-168 3245.01,-139.66 3169.31,-129.04 3127.07,-125.16"/>
<polygon fill="midnightblue" stroke="midnightblue" points="3127.34,-121.67 3117.08,-124.31 3126.75,-128.64 3127.34,-121.67"/>
</g>
<!-- Node36&#45;&gt;Node28 -->
<g id="edge177" class="edge">
<title>Node36&#45;&gt;Node28</title>
<path fill="none" stroke="midnightblue" d="M1576.23,-784.33C1595.35,-771.83 1631.81,-748.03 1663,-728 1819.34,-627.59 1856.53,-599.36 2016,-504 2034.23,-493.1 2055.18,-481.34 2071.06,-472.58"/>
<polygon fill="midnightblue" stroke="midnightblue" points="2073.14,-475.43 2080.22,-467.55 2069.77,-469.3 2073.14,-475.43"/>
</g>
<!-- Node36&#45;&gt;Node29 -->
<g id="edge181" class="edge">
<title>Node36&#45;&gt;Node29</title>
<path fill="none" stroke="midnightblue" d="M1513.66,-791.62C1394.74,-786.95 1102,-766.93 1102,-683 1102,-683 1102,-683 1102,-513 1102,-440.46 1647.22,-412.02 1817.69,-404.91"/>
<polygon fill="midnightblue" stroke="midnightblue" points="1818.05,-408.39 1827.9,-404.49 1817.76,-401.4 1818.05,-408.39"/>
</g>
<!-- Node36&#45;&gt;Node30 -->
<g id="edge178" class="edge">
<title>Node36&#45;&gt;Node30</title>
<path fill="none" stroke="midnightblue" d="M1540.24,-784.43C1505.19,-769.58 1442,-735.52 1442,-683 1442,-683 1442,-683 1442,-625 1442,-592.95 1442,-555.64 1442,-533.75"/>
<polygon fill="midnightblue" stroke="midnightblue" points="1445.5,-533.56 1442,-523.56 1438.5,-533.56 1445.5,-533.56"/>
</g>
<!-- Node36&#45;&gt;Node32 -->
<g id="edge180" class="edge">
<title>Node36&#45;&gt;Node32</title>
<path fill="none" stroke="midnightblue" d="M1612.3,-792.53C1795.03,-790.52 2433.42,-781.26 2634,-748 2720.85,-733.6 2748.41,-737.13 2824,-692 2907.9,-641.91 2978.15,-593.09 2938,-504 2891.69,-401.23 2847.22,-389.48 2748,-336 2714.53,-317.96 2673.29,-306.73 2640.29,-300.01"/>
<polygon fill="midnightblue" stroke="midnightblue" points="2640.81,-296.54 2630.33,-298.06 2639.47,-303.41 2640.81,-296.54"/>
</g>
<!-- Node37&#45;&gt;Node11 -->
<g id="edge187" class="edge">
<title>Node37&#45;&gt;Node11</title>
<path fill="none" stroke="midnightblue" d="M3612.14,-784.43C3652.9,-770.45 3722,-738.55 3722,-683 3722,-683 3722,-683 3722,-625 3722,-468.15 3836,-447.85 3836,-291 3836,-291 3836,-291 3836,-177 3836,-143.31 3825.77,-129.53 3797,-112 3741.17,-77.99 3287.67,-69.39 3140.75,-67.49"/>
<polygon fill="midnightblue" stroke="midnightblue" points="3140.76,-63.99 3130.71,-67.36 3140.67,-70.99 3140.76,-63.99"/>
</g>
<!-- Node37&#45;&gt;Node22 -->
<g id="edge196" class="edge">
<title>Node37&#45;&gt;Node22</title>
<path fill="none" stroke="midnightblue" d="M3552.45,-787.71C3411.76,-763.36 2826.35,-662.03 2665.21,-634.13"/>
<polygon fill="midnightblue" stroke="midnightblue" points="2665.67,-630.66 2655.22,-632.4 2664.48,-637.56 2665.67,-630.66"/>
</g>
<!-- Node38 -->
<g id="node38" class="node">
<title>Node38</title>
<g id="a_node38"><a xlink:href="implicitsolvers_8h.html" target="_top" xlink:title=" ">
<polygon fill="none" stroke="black" points="3534,-728.5 3534,-747.5 3632,-747.5 3632,-728.5 3534,-728.5"/>
<text text-anchor="middle" x="3583" y="-735.5" font-family="Helvetica,sans-Serif" font-size="10.00">implicitsolvers.h</text>
</a>
</g>
</g>
<!-- Node37&#45;&gt;Node38 -->
<g id="edge188" class="edge">
<title>Node37&#45;&gt;Node38</title>
<path fill="none" stroke="midnightblue" d="M3583,-784.08C3583,-777.01 3583,-766.86 3583,-757.99"/>
<polygon fill="midnightblue" stroke="midnightblue" points="3586.5,-757.75 3583,-747.75 3579.5,-757.75 3586.5,-757.75"/>
</g>
<!-- Node39 -->
<g id="node39" class="node">
<title>Node39</title>
<g id="a_node39"><a xlink:href="rhs_8h.html" target="_top" xlink:title=" ">
<polygon fill="none" stroke="black" points="3652.5,-672.5 3652.5,-691.5 3693.5,-691.5 3693.5,-672.5 3652.5,-672.5"/>
<text text-anchor="middle" x="3673" y="-679.5" font-family="Helvetica,sans-Serif" font-size="10.00">rhs.h</text>
</a>
</g>
</g>
<!-- Node37&#45;&gt;Node39 -->
<g id="edge195" class="edge">
<title>Node37&#45;&gt;Node39</title>
<path fill="none" stroke="midnightblue" d="M3597.88,-784.19C3610.6,-776.06 3628.76,-763.01 3641,-748 3652.53,-733.86 3661.27,-714.88 3666.67,-701.08"/>
<polygon fill="midnightblue" stroke="midnightblue" points="3669.96,-702.3 3670.15,-691.71 3663.39,-699.87 3669.96,-702.3"/>
</g>
<!-- Node38&#45;&gt;Node11 -->
<g id="edge189" class="edge">
<title>Node38&#45;&gt;Node11</title>
<path fill="none" stroke="midnightblue" d="M3586.03,-728.49C3596.94,-697.94 3635.37,-591.06 3670,-504 3707.98,-408.51 3760,-393.77 3760,-291 3760,-291 3760,-291 3760,-177 3760,-121.74 3706.54,-129.13 3654,-112 3558.96,-81.01 3256.74,-70.78 3140.84,-67.95"/>
<polygon fill="midnightblue" stroke="midnightblue" points="3140.63,-64.44 3130.55,-67.7 3140.46,-71.44 3140.63,-64.44"/>
</g>
<!-- Node38&#45;&gt;Node22 -->
<g id="edge190" class="edge">
<title>Node38&#45;&gt;Node22</title>
<path fill="none" stroke="midnightblue" d="M3533.79,-731.36C3366.23,-712.14 2819.69,-649.45 2665.08,-631.71"/>
<polygon fill="midnightblue" stroke="midnightblue" points="2665.39,-628.22 2655.06,-630.56 2664.59,-635.18 2665.39,-628.22"/>
</g>
<!-- Node38&#45;&gt;Node29 -->
<g id="edge194" class="edge">
<title>Node38&#45;&gt;Node29</title>
<path fill="none" stroke="midnightblue" d="M3533.94,-737.02C3309.53,-736.91 2386.56,-733.87 2265,-692 2092.82,-632.7 1931.57,-471.15 1882.89,-419.27"/>
<polygon fill="midnightblue" stroke="midnightblue" points="1885.19,-416.61 1875.82,-411.66 1880.06,-421.37 1885.19,-416.61"/>
</g>
<!-- Node38&#45;&gt;Node39 -->
<g id="edge191" class="edge">
<title>Node38&#45;&gt;Node39</title>
<path fill="none" stroke="midnightblue" d="M3597.46,-728.32C3611.5,-719.9 3633.05,-706.97 3649.54,-697.07"/>
<polygon fill="midnightblue" stroke="midnightblue" points="3651.8,-699.8 3658.58,-691.65 3648.2,-693.8 3651.8,-699.8"/>
</g>
<!-- Node39&#45;&gt;Node11 -->
<g id="edge192" class="edge">
<title>Node39&#45;&gt;Node11</title>
<path fill="none" stroke="midnightblue" d="M3675.34,-672.46C3680.8,-652.62 3694.92,-601.96 3708,-560 3745.52,-439.64 3798,-417.07 3798,-291 3798,-291 3798,-291 3798,-177 3798,-146.2 3798.67,-130.43 3774,-112 3723.5,-74.28 3285.33,-68.18 3140.94,-67.19"/>
<polygon fill="midnightblue" stroke="midnightblue" points="3140.68,-63.69 3130.66,-67.12 3140.63,-70.69 3140.68,-63.69"/>
</g>
<!-- Node39&#45;&gt;Node22 -->
<g id="edge193" class="edge">
<title>Node39&#45;&gt;Node22</title>
<path fill="none" stroke="midnightblue" d="M3652.05,-679.92C3523.43,-673.3 2840.59,-638.15 2665.13,-629.12"/>
<polygon fill="midnightblue" stroke="midnightblue" points="2665.19,-625.62 2655.02,-628.6 2664.83,-632.61 2665.19,-625.62"/>
</g>
</g>
</svg>
        <g id="navigator" transform="translate(0 0)" fill="#404254">
                <rect fill="#f2f5e9" fill-opacity="0.5" stroke="#606060" stroke-width=".5" x="0" y="0" width="60" height="60"/>
                <use id="zoomplus" xlink:href="#zoomPlus" x="17" y="9" onmousedown="handleZoom(evt,'in')"/>
                <use id="zoomminus" xlink:href="#zoomMin" x="42" y="9" onmousedown="handleZoom(evt,'out')"/>
                <use id="reset" xlink:href="#resetDef" x="30" y="36" onmousedown="handleReset()"/>
                <g id="arrowUp" xlink:href="#dirArrow" transform="translate(30 24)" onmousedown="handlePan(0,-1)">
                  <use xlink:href="#rim" fill="#404040">
                        <set attributeName="fill" to="#808080" begin="arrowUp.mouseover" end="arrowUp.mouseout"/>
                  </use>
                  <path fill="none" stroke="white" stroke-width="1.5" d="M0,-3.0v7 M-2.5,-0.5L0,-3.0L2.5,-0.5"/>
                </g>
                <g id="arrowRight" xlink:href="#dirArrow" transform="rotate(90) translate(36 -43)" onmousedown="handlePan(1,0)">
                  <use xlink:href="#rim" fill="#404040">
                        <set attributeName="fill" to="#808080" begin="arrowRight.mouseover" end="arrowRight.mouseout"/>
                  </use>
                  <path fill="none" stroke="white" stroke-width="1.5" d="M0,-3.0v7 M-2.5,-0.5L0,-3.0L2.5,-0.5"/>
                </g>
                <g id="arrowDown" xlink:href="#dirArrow" transform="rotate(180) translate(-30 -48)" onmousedown="handlePan(0,1)">
                  <use xlink:href="#rim" fill="#404040">
                        <set attributeName="fill" to="#808080" begin="arrowDown.mouseover" end="arrowDown.mouseout"/>
                  </use>
                  <path fill="none" stroke="white" stroke-width="1.5" d="M0,-3.0v7 M-2.5,-0.5L0,-3.0L2.5,-0.5"/>
                </g>
                <g id="arrowLeft" xlink:href="#dirArrow" transform="rotate(270) translate(-36 17)" onmousedown="handlePan(-1,0)">
                  <use xlink:href="#rim" fill="#404040">
                        <set attributeName="fill" to="#808080" begin="arrowLeft.mouseover" end="arrowLeft.mouseout"/>
                  </use>
                  <path fill="none" stroke="white" stroke-width="1.5" d="M0,-3.0v7 M-2.5,-0.5L0,-3.0L2.5,-0.5"/>
                </g>
        </g>
        <svg viewBox="0 0 15 15" width="100%" height="30px" preserveAspectRatio="xMaxYMin meet">
         <g id="arrow_out" transform="scale(0.3 0.3)">
          <a xlink:href="simulation_8h__incl_org.svg" target="_base">
           <rect id="button" ry="5" rx="5" y="6" x="6" height="38" width="38"
                fill="#f2f5e9" fill-opacity="0.5" stroke="#606060" stroke-width="1.0"/>
           <path id="arrow"
             d="M 11.500037,31.436501 C 11.940474,20.09759 22.043105,11.32322 32.158766,21.979434 L 37.068811,17.246167 C 37.068811,17.246167 37.088388,32 37.088388,32 L 22.160133,31.978069 C 22.160133,31.978069 26.997745,27.140456 26.997745,27.140456 C 18.528582,18.264221 13.291696,25.230495 11.500037,31.436501 z"
             style="fill:#404040;"/>
          </a>
         </g>
        </svg>
</svg>
