<?xml version="1.0" encoding="UTF-8" standalone="no"?>
<!DOCTYPE svg PUBLIC "-//W3C//DTD SVG 1.1//EN"
 "http://www.w3.org/Graphics/SVG/1.1/DTD/svg11.dtd">
<!-- Generated by graphviz version 2.43.0 (0)
 -->
<!-- Title: solvers.c Pages: 1 -->
<svg width="2970pt" height="980pt"
 viewBox="0.00 0.00 2970.00 980.00" xmlns="http://www.w3.org/2000/svg" xmlns:xlink="http://www.w3.org/1999/xlink">
<g id="graph0" class="graph" transform="scale(1 1) rotate(0) translate(4 976)">
<title>solvers.c</title>
<!-- Node1 -->
<g id="node1" class="node">
<title>Node1</title>
<g id="a_node1"><a xlink:title=" ">
<polygon fill="#bfbfbf" stroke="black" points="2820,-952.5 2820,-971.5 2880,-971.5 2880,-952.5 2820,-952.5"/>
<text text-anchor="middle" x="2850" y="-959.5" font-family="Helvetica,sans-Serif" font-size="10.00">solvers.c</text>
</a>
</g>
</g>
<!-- Node2 -->
<g id="node2" class="node">
<title>Node2</title>
<g id="a_node2"><a xlink:href="solvers_8h.html" target="_top" xlink:title=" ">
<polygon fill="none" stroke="black" points="2819.5,-896.5 2819.5,-915.5 2880.5,-915.5 2880.5,-896.5 2819.5,-896.5"/>
<text text-anchor="middle" x="2850" y="-903.5" font-family="Helvetica,sans-Serif" font-size="10.00">solvers.h</text>
</a>
</g>
</g>
<!-- Node1&#45;&gt;Node2 -->
<g id="edge1" class="edge">
<title>Node1&#45;&gt;Node2</title>
<path fill="none" stroke="midnightblue" d="M2850,-952.08C2850,-945.01 2850,-934.86 2850,-925.99"/>
<polygon fill="midnightblue" stroke="midnightblue" points="2853.5,-925.75 2850,-915.75 2846.5,-925.75 2853.5,-925.75"/>
</g>
<!-- Node3 -->
<g id="node3" class="node">
<title>Node3</title>
<g id="a_node3"><a xlink:href="variables_8h.html" target="_top" xlink:title="Main header file for a complex fluid dynamics solver.">
<polygon fill="none" stroke="black" points="2394.5,-56.5 2394.5,-75.5 2465.5,-75.5 2465.5,-56.5 2394.5,-56.5"/>
<text text-anchor="middle" x="2430" y="-63.5" font-family="Helvetica,sans-Serif" font-size="10.00">variables.h</text>
</a>
</g>
</g>
<!-- Node2&#45;&gt;Node3 -->
<g id="edge2" class="edge">
<title>Node2&#45;&gt;Node3</title>
<path fill="none" stroke="midnightblue" d="M2870.02,-896.44C2902.24,-881.17 2962,-845.97 2962,-795 2962,-795 2962,-795 2962,-177 2962,-78.15 2605.35,-67.43 2476.08,-66.79"/>
<polygon fill="midnightblue" stroke="midnightblue" points="2475.74,-63.29 2465.73,-66.76 2475.72,-70.29 2475.74,-63.29"/>
</g>
<!-- Node13 -->
<g id="node13" class="node">
<title>Node13</title>
<g id="a_node13"><a xlink:href="implicitsolvers_8h.html" target="_top" xlink:title=" ">
<polygon fill="none" stroke="black" points="2763,-840.5 2763,-859.5 2861,-859.5 2861,-840.5 2763,-840.5"/>
<text text-anchor="middle" x="2812" y="-847.5" font-family="Helvetica,sans-Serif" font-size="10.00">implicitsolvers.h</text>
</a>
</g>
</g>
<!-- Node2&#45;&gt;Node13 -->
<g id="edge12" class="edge">
<title>Node2&#45;&gt;Node13</title>
<path fill="none" stroke="midnightblue" d="M2843.73,-896.08C2838.36,-888.46 2830.48,-877.26 2823.92,-867.94"/>
<polygon fill="midnightblue" stroke="midnightblue" points="2826.78,-865.91 2818.16,-859.75 2821.05,-869.94 2826.78,-865.91"/>
</g>
<!-- Node14 -->
<g id="node14" class="node">
<title>Node14</title>
<g id="a_node14"><a xlink:href="logging_8h.html" target="_top" xlink:title="Logging utilities and macros for PETSc&#45;based applications.">
<polygon fill="none" stroke="black" points="2171,-728.5 2171,-747.5 2233,-747.5 2233,-728.5 2171,-728.5"/>
<text text-anchor="middle" x="2202" y="-735.5" font-family="Helvetica,sans-Serif" font-size="10.00">logging.h</text>
</a>
</g>
</g>
<!-- Node2&#45;&gt;Node14 -->
<g id="edge156" class="edge">
<title>Node2&#45;&gt;Node14</title>
<path fill="none" stroke="midnightblue" d="M2819.46,-897.46C2752.25,-880.84 2586.5,-839.69 2448,-804 2375.72,-785.37 2291.68,-763.01 2242.89,-749.97"/>
<polygon fill="midnightblue" stroke="midnightblue" points="2243.6,-746.53 2233.04,-747.33 2241.79,-753.3 2243.6,-746.53"/>
</g>
<!-- Node38 -->
<g id="node38" class="node">
<title>Node38</title>
<g id="a_node38"><a xlink:href="rhs_8h.html" target="_top" xlink:title=" ">
<polygon fill="none" stroke="black" points="2868.5,-784.5 2868.5,-803.5 2909.5,-803.5 2909.5,-784.5 2868.5,-784.5"/>
<text text-anchor="middle" x="2889" y="-791.5" font-family="Helvetica,sans-Serif" font-size="10.00">rhs.h</text>
</a>
</g>
</g>
<!-- Node2&#45;&gt;Node38 -->
<g id="edge155" class="edge">
<title>Node2&#45;&gt;Node38</title>
<path fill="none" stroke="midnightblue" d="M2854.34,-896.18C2858.66,-887.21 2865.29,-872.84 2870,-860 2875.69,-844.48 2880.86,-826.39 2884.37,-813.25"/>
<polygon fill="midnightblue" stroke="midnightblue" points="2887.77,-814.09 2886.9,-803.53 2880.99,-812.33 2887.77,-814.09"/>
</g>
<!-- Node4 -->
<g id="node4" class="node">
<title>Node4</title>
<g id="a_node4"><a xlink:title=" ">
<polygon fill="none" stroke="#bfbfbf" points="2436.5,-0.5 2436.5,-19.5 2505.5,-19.5 2505.5,-0.5 2436.5,-0.5"/>
<text text-anchor="middle" x="2471" y="-7.5" font-family="Helvetica,sans-Serif" font-size="10.00">petscvec.h</text>
</a>
</g>
</g>
<!-- Node3&#45;&gt;Node4 -->
<g id="edge3" class="edge">
<title>Node3&#45;&gt;Node4</title>
<path fill="none" stroke="midnightblue" d="M2436.77,-56.08C2442.56,-48.46 2451.06,-37.26 2458.14,-27.94"/>
<polygon fill="midnightblue" stroke="midnightblue" points="2461.1,-29.83 2464.36,-19.75 2455.52,-25.6 2461.1,-29.83"/>
</g>
<!-- Node5 -->
<g id="node5" class="node">
<title>Node5</title>
<g id="a_node5"><a xlink:title=" ">
<polygon fill="none" stroke="#bfbfbf" points="2524,-0.5 2524,-19.5 2604,-19.5 2604,-0.5 2524,-0.5"/>
<text text-anchor="middle" x="2564" y="-7.5" font-family="Helvetica,sans-Serif" font-size="10.00">petscdmda.h</text>
</a>
</g>
</g>
<!-- Node3&#45;&gt;Node5 -->
<g id="edge4" class="edge">
<title>Node3&#45;&gt;Node5</title>
<path fill="none" stroke="midnightblue" d="M2451.23,-56.44C2473.38,-47.52 2508.32,-33.44 2533.44,-23.32"/>
<polygon fill="midnightblue" stroke="midnightblue" points="2534.9,-26.5 2542.87,-19.52 2532.28,-20.01 2534.9,-26.5"/>
</g>
<!-- Node6 -->
<g id="node6" class="node">
<title>Node6</title>
<g id="a_node6"><a xlink:title=" ">
<polygon fill="none" stroke="#bfbfbf" points="2622.5,-0.5 2622.5,-19.5 2691.5,-19.5 2691.5,-0.5 2622.5,-0.5"/>
<text text-anchor="middle" x="2657" y="-7.5" font-family="Helvetica,sans-Serif" font-size="10.00">petscksp.h</text>
</a>
</g>
</g>
<!-- Node3&#45;&gt;Node6 -->
<g id="edge5" class="edge">
<title>Node3&#45;&gt;Node6</title>
<path fill="none" stroke="midnightblue" d="M2465.72,-56.5C2505.37,-47.07 2569.41,-31.84 2612.34,-21.62"/>
<polygon fill="midnightblue" stroke="midnightblue" points="2613.32,-24.99 2622.23,-19.27 2611.7,-18.18 2613.32,-24.99"/>
</g>
<!-- Node7 -->
<g id="node7" class="node">
<title>Node7</title>
<g id="a_node7"><a xlink:title=" ">
<polygon fill="none" stroke="#bfbfbf" points="2202,-0.5 2202,-19.5 2276,-19.5 2276,-0.5 2202,-0.5"/>
<text text-anchor="middle" x="2239" y="-7.5" font-family="Helvetica,sans-Serif" font-size="10.00">petscsnes.h</text>
</a>
</g>
</g>
<!-- Node3&#45;&gt;Node7 -->
<g id="edge6" class="edge">
<title>Node3&#45;&gt;Node7</title>
<path fill="none" stroke="midnightblue" d="M2399.74,-56.44C2367.04,-47.2 2314.82,-32.44 2278.82,-22.26"/>
<polygon fill="midnightblue" stroke="midnightblue" points="2279.7,-18.87 2269.12,-19.52 2277.79,-25.61 2279.7,-18.87"/>
</g>
<!-- Node8 -->
<g id="node8" class="node">
<title>Node8</title>
<g id="a_node8"><a xlink:title=" ">
<polygon fill="none" stroke="#bfbfbf" points="785.5,-0.5 785.5,-19.5 886.5,-19.5 886.5,-0.5 785.5,-0.5"/>
<text text-anchor="middle" x="836" y="-7.5" font-family="Helvetica,sans-Serif" font-size="10.00">petscdmswarm.h</text>
</a>
</g>
</g>
<!-- Node3&#45;&gt;Node8 -->
<g id="edge7" class="edge">
<title>Node3&#45;&gt;Node8</title>
<path fill="none" stroke="midnightblue" d="M2394.47,-63.8C2189.58,-56.86 1158.89,-21.94 896.73,-13.06"/>
<polygon fill="midnightblue" stroke="midnightblue" points="896.75,-9.56 886.64,-12.72 896.51,-16.55 896.75,-9.56"/>
</g>
<!-- Node9 -->
<g id="node9" class="node">
<title>Node9</title>
<g id="a_node9"><a xlink:title=" ">
<polygon fill="none" stroke="#bfbfbf" points="2294,-0.5 2294,-19.5 2344,-19.5 2344,-0.5 2294,-0.5"/>
<text text-anchor="middle" x="2319" y="-7.5" font-family="Helvetica,sans-Serif" font-size="10.00">stdio.h</text>
</a>
</g>
</g>
<!-- Node3&#45;&gt;Node9 -->
<g id="edge8" class="edge">
<title>Node3&#45;&gt;Node9</title>
<path fill="none" stroke="midnightblue" d="M2412.17,-56.32C2394.28,-47.62 2366.52,-34.12 2345.95,-24.11"/>
<polygon fill="midnightblue" stroke="midnightblue" points="2347.31,-20.88 2336.79,-19.65 2344.25,-27.18 2347.31,-20.88"/>
</g>
<!-- Node10 -->
<g id="node10" class="node">
<title>Node10</title>
<g id="a_node10"><a xlink:title=" ">
<polygon fill="none" stroke="#bfbfbf" points="163.5,-0.5 163.5,-19.5 216.5,-19.5 216.5,-0.5 163.5,-0.5"/>
<text text-anchor="middle" x="190" y="-7.5" font-family="Helvetica,sans-Serif" font-size="10.00">stdlib.h</text>
</a>
</g>
</g>
<!-- Node3&#45;&gt;Node10 -->
<g id="edge9" class="edge">
<title>Node3&#45;&gt;Node10</title>
<path fill="none" stroke="midnightblue" d="M2394.36,-64.14C2131.47,-57.8 495.48,-18.36 227.2,-11.9"/>
<polygon fill="midnightblue" stroke="midnightblue" points="226.92,-8.39 216.84,-11.65 226.75,-15.39 226.92,-8.39"/>
</g>
<!-- Node11 -->
<g id="node11" class="node">
<title>Node11</title>
<g id="a_node11"><a xlink:title=" ">
<polygon fill="none" stroke="#bfbfbf" points="2783.5,-0.5 2783.5,-19.5 2836.5,-19.5 2836.5,-0.5 2783.5,-0.5"/>
<text text-anchor="middle" x="2810" y="-7.5" font-family="Helvetica,sans-Serif" font-size="10.00">string.h</text>
</a>
</g>
</g>
<!-- Node3&#45;&gt;Node11 -->
<g id="edge10" class="edge">
<title>Node3&#45;&gt;Node11</title>
<path fill="none" stroke="midnightblue" d="M2465.75,-59.92C2537.95,-49.66 2700.48,-26.56 2773.39,-16.2"/>
<polygon fill="midnightblue" stroke="midnightblue" points="2774.07,-19.64 2783.47,-14.77 2773.08,-12.71 2774.07,-19.64"/>
</g>
<!-- Node12 -->
<g id="node12" class="node">
<title>Node12</title>
<g id="a_node12"><a xlink:title=" ">
<polygon fill="none" stroke="#bfbfbf" points="2362,-0.5 2362,-19.5 2418,-19.5 2418,-0.5 2362,-0.5"/>
<text text-anchor="middle" x="2390" y="-7.5" font-family="Helvetica,sans-Serif" font-size="10.00">unistd.h</text>
</a>
</g>
</g>
<!-- Node3&#45;&gt;Node12 -->
<g id="edge11" class="edge">
<title>Node3&#45;&gt;Node12</title>
<path fill="none" stroke="midnightblue" d="M2423.39,-56.08C2417.74,-48.46 2409.46,-37.26 2402.55,-27.94"/>
<polygon fill="midnightblue" stroke="midnightblue" points="2405.25,-25.7 2396.48,-19.75 2399.62,-29.87 2405.25,-25.7"/>
</g>
<!-- Node13&#45;&gt;Node3 -->
<g id="edge13" class="edge">
<title>Node13&#45;&gt;Node3</title>
<path fill="none" stroke="midnightblue" d="M2814.47,-840.2C2822.61,-810.47 2848,-710.95 2848,-627 2848,-627 2848,-627 2848,-177 2848,-100.67 2584.03,-76.19 2475.63,-69.35"/>
<polygon fill="midnightblue" stroke="midnightblue" points="2475.83,-65.86 2465.64,-68.75 2475.41,-72.85 2475.83,-65.86"/>
</g>
<!-- Node13&#45;&gt;Node14 -->
<g id="edge14" class="edge">
<title>Node13&#45;&gt;Node14</title>
<path fill="none" stroke="midnightblue" d="M2764.64,-840.46C2648.71,-819.55 2352.21,-766.09 2243.1,-746.41"/>
<polygon fill="midnightblue" stroke="midnightblue" points="2243.6,-742.95 2233.14,-744.62 2242.36,-749.83 2243.6,-742.95"/>
</g>
<!-- Node31 -->
<g id="node31" class="node">
<title>Node31</title>
<g id="a_node31"><a xlink:href="Boundaries_8h.html" target="_top" xlink:title=" ">
<polygon fill="none" stroke="black" points="1146,-392.5 1146,-411.5 1226,-411.5 1226,-392.5 1146,-392.5"/>
<text text-anchor="middle" x="1186" y="-399.5" font-family="Helvetica,sans-Serif" font-size="10.00">Boundaries.h</text>
</a>
</g>
</g>
<!-- Node13&#45;&gt;Node31 -->
<g id="edge154" class="edge">
<title>Node13&#45;&gt;Node31</title>
<path fill="none" stroke="midnightblue" d="M2762.91,-848.2C2409.62,-842.3 269,-803.87 269,-739 269,-739 269,-739 269,-681 269,-498.35 943.67,-424.5 1135.61,-407.19"/>
<polygon fill="midnightblue" stroke="midnightblue" points="1136.06,-410.66 1145.71,-406.29 1135.44,-403.69 1136.06,-410.66"/>
</g>
<!-- Node13&#45;&gt;Node38 -->
<g id="edge151" class="edge">
<title>Node13&#45;&gt;Node38</title>
<path fill="none" stroke="midnightblue" d="M2824.37,-840.32C2836.16,-832.06 2854.13,-819.45 2868.14,-809.63"/>
<polygon fill="midnightblue" stroke="midnightblue" points="2870.48,-812.26 2876.66,-803.65 2866.46,-806.53 2870.48,-812.26"/>
</g>
<!-- Node14&#45;&gt;Node3 -->
<g id="edge20" class="edge">
<title>Node14&#45;&gt;Node3</title>
<path fill="none" stroke="midnightblue" d="M2233.1,-736.19C2335.68,-733.26 2658.74,-721.71 2694,-692 2853.56,-557.56 2799.2,-421.19 2731,-224 2694.94,-119.73 2550.67,-84 2475.73,-72.33"/>
<polygon fill="midnightblue" stroke="midnightblue" points="2476.03,-68.84 2465.63,-70.84 2475.01,-75.76 2476.03,-68.84"/>
</g>
<!-- Node14&#45;&gt;Node10 -->
<g id="edge16" class="edge">
<title>Node14&#45;&gt;Node10</title>
<path fill="none" stroke="midnightblue" d="M2170.87,-737.13C1903.23,-738.09 0,-740.87 0,-627 0,-627 0,-627 0,-121 0,-51 97.8,-24.82 153.06,-15.62"/>
<polygon fill="midnightblue" stroke="midnightblue" points="153.84,-19.04 163.18,-14.04 152.76,-12.12 153.84,-19.04"/>
</g>
<!-- Node14&#45;&gt;Node11 -->
<g id="edge17" class="edge">
<title>Node14&#45;&gt;Node11</title>
<path fill="none" stroke="midnightblue" d="M2233.06,-736.9C2343.57,-736.24 2717.08,-731.07 2829,-692 2877.3,-675.14 2924,-678.16 2924,-627 2924,-627 2924,-627 2924,-121 2924,-74.11 2873.45,-40.89 2839.67,-23.93"/>
<polygon fill="midnightblue" stroke="midnightblue" points="2841.17,-20.77 2830.64,-19.58 2838.13,-27.07 2841.17,-20.77"/>
</g>
<!-- Node15 -->
<g id="node15" class="node">
<title>Node15</title>
<g id="a_node15"><a xlink:title=" ">
<polygon fill="none" stroke="#bfbfbf" points="2252,-168.5 2252,-187.5 2304,-187.5 2304,-168.5 2252,-168.5"/>
<text text-anchor="middle" x="2278" y="-175.5" font-family="Helvetica,sans-Serif" font-size="10.00">petsc.h</text>
</a>
</g>
</g>
<!-- Node14&#45;&gt;Node15 -->
<g id="edge15" class="edge">
<title>Node14&#45;&gt;Node15</title>
<path fill="none" stroke="midnightblue" d="M2233.41,-737.73C2286.32,-737.71 2395.34,-732.25 2476,-692 2513.41,-673.33 2544,-668.81 2544,-627 2544,-627 2544,-627 2544,-513 2544,-357.8 2459.08,-332.38 2348,-224 2335.23,-211.54 2318.49,-200.63 2304.58,-192.67"/>
<polygon fill="midnightblue" stroke="midnightblue" points="2305.94,-189.42 2295.49,-187.65 2302.55,-195.55 2305.94,-189.42"/>
</g>
<!-- Node16 -->
<g id="node16" class="node">
<title>Node16</title>
<g id="a_node16"><a xlink:title=" ">
<polygon fill="none" stroke="#bfbfbf" points="2116,-112.5 2116,-131.5 2184,-131.5 2184,-112.5 2116,-112.5"/>
<text text-anchor="middle" x="2150" y="-119.5" font-family="Helvetica,sans-Serif" font-size="10.00">petscsys.h</text>
</a>
</g>
</g>
<!-- Node14&#45;&gt;Node16 -->
<g id="edge18" class="edge">
<title>Node14&#45;&gt;Node16</title>
<path fill="none" stroke="midnightblue" d="M2233.34,-735.91C2332.88,-732.19 2637.3,-718.73 2672,-692 2696.4,-673.21 2696,-657.8 2696,-627 2696,-627 2696,-627 2696,-289 2696,-194.44 2609.4,-201.56 2521,-168 2462.12,-145.65 2279.16,-131.32 2194.19,-125.7"/>
<polygon fill="midnightblue" stroke="midnightblue" points="2194.29,-122.2 2184.08,-125.04 2193.84,-129.18 2194.29,-122.2"/>
</g>
<!-- Node17 -->
<g id="node17" class="node">
<title>Node17</title>
<g id="a_node17"><a xlink:title=" ">
<polygon fill="none" stroke="#bfbfbf" points="2766.5,-672.5 2766.5,-691.5 2819.5,-691.5 2819.5,-672.5 2766.5,-672.5"/>
<text text-anchor="middle" x="2793" y="-679.5" font-family="Helvetica,sans-Serif" font-size="10.00">ctype.h</text>
</a>
</g>
</g>
<!-- Node14&#45;&gt;Node17 -->
<g id="edge19" class="edge">
<title>Node14&#45;&gt;Node17</title>
<path fill="none" stroke="midnightblue" d="M2233.18,-735.92C2317.32,-732.68 2555.88,-721.41 2752,-692 2753.3,-691.81 2754.61,-691.59 2755.94,-691.37"/>
<polygon fill="midnightblue" stroke="midnightblue" points="2757.02,-694.73 2766.19,-689.43 2755.71,-687.85 2757.02,-694.73"/>
</g>
<!-- Node18 -->
<g id="node18" class="node">
<title>Node18</title>
<g id="a_node18"><a xlink:href="AnalyticalSolution_8h.html" target="_top" xlink:title=" ">
<polygon fill="none" stroke="black" points="1047,-672.5 1047,-691.5 1161,-691.5 1161,-672.5 1047,-672.5"/>
<text text-anchor="middle" x="1104" y="-679.5" font-family="Helvetica,sans-Serif" font-size="10.00">AnalyticalSolution.h</text>
</a>
</g>
</g>
<!-- Node14&#45;&gt;Node18 -->
<g id="edge21" class="edge">
<title>Node14&#45;&gt;Node18</title>
<path fill="none" stroke="midnightblue" d="M2170.84,-735.58C2021.91,-728.53 1382.18,-697.08 1171.51,-686.49"/>
<polygon fill="midnightblue" stroke="midnightblue" points="1171.37,-682.98 1161.21,-685.98 1171.02,-689.97 1171.37,-682.98"/>
</g>
<!-- Node14&#45;&gt;Node31 -->
<g id="edge150" class="edge">
<title>Node14&#45;&gt;Node31</title>
<path fill="none" stroke="midnightblue" d="M2170.94,-736.88C1989.41,-736.04 1073.63,-729.85 1029,-692 946.27,-621.83 940.24,-518.12 1023,-448 1054.24,-421.53 1100.37,-410.62 1135.71,-406.13"/>
<polygon fill="midnightblue" stroke="midnightblue" points="1136.29,-409.59 1145.83,-404.98 1135.5,-402.63 1136.29,-409.59"/>
</g>
<!-- Node18&#45;&gt;Node3 -->
<g id="edge29" class="edge">
<title>Node18&#45;&gt;Node3</title>
<path fill="none" stroke="midnightblue" d="M1161.45,-675.97C1296.38,-663.5 1629.68,-628.57 1730,-580 1771.6,-559.86 1809.07,-549.51 1801,-504 1791.75,-451.81 1785.08,-438.7 1760,-392 1738.94,-352.79 1626.12,-260.9 1651,-224 1725.24,-113.9 1798.91,-143.15 1928,-112 2092.66,-72.26 2295.35,-66.89 2384.39,-66.63"/>
<polygon fill="midnightblue" stroke="midnightblue" points="2384.43,-70.13 2394.43,-66.63 2384.42,-63.13 2384.43,-70.13"/>
</g>
<!-- Node18&#45;&gt;Node8 -->
<g id="edge23" class="edge">
<title>Node18&#45;&gt;Node8</title>
<path fill="none" stroke="midnightblue" d="M1046.89,-679.55C906.93,-675.61 549.85,-663.14 434,-636 281.52,-600.28 204.73,-562.66 162,-412 114.77,-245.46 169.17,-140.94 320,-56 396.42,-12.96 655.97,-9.38 775.2,-10.12"/>
<polygon fill="midnightblue" stroke="midnightblue" points="775.23,-13.62 785.26,-10.19 775.29,-6.62 775.23,-13.62"/>
</g>
<!-- Node18&#45;&gt;Node10 -->
<g id="edge24" class="edge">
<title>Node18&#45;&gt;Node10</title>
<path fill="none" stroke="midnightblue" d="M1046.69,-681.16C825.27,-681.02 38,-673.33 38,-571 38,-571 38,-571 38,-121 38,-64.22 108.48,-33.76 153.45,-20.11"/>
<polygon fill="midnightblue" stroke="midnightblue" points="154.54,-23.44 163.18,-17.29 152.6,-16.71 154.54,-23.44"/>
</g>
<!-- Node18&#45;&gt;Node14 -->
<g id="edge146" class="edge">
<title>Node18&#45;&gt;Node14</title>
<path fill="none" stroke="midnightblue" d="M1161.13,-685.66C1356.05,-695 1991.73,-726.27 2160.56,-734.82"/>
<polygon fill="midnightblue" stroke="midnightblue" points="2160.61,-738.33 2170.77,-735.34 2160.97,-731.34 2160.61,-738.33"/>
</g>
<!-- Node19 -->
<g id="node19" class="node">
<title>Node19</title>
<g id="a_node19"><a xlink:title=" ">
<polygon fill="none" stroke="#bfbfbf" points="518.5,-112.5 518.5,-131.5 579.5,-131.5 579.5,-112.5 518.5,-112.5"/>
<text text-anchor="middle" x="549" y="-119.5" font-family="Helvetica,sans-Serif" font-size="10.00">petscpf.h</text>
</a>
</g>
</g>
<!-- Node18&#45;&gt;Node19 -->
<g id="edge22" class="edge">
<title>Node18&#45;&gt;Node19</title>
<path fill="none" stroke="midnightblue" d="M1046.93,-678.59C928.19,-673.18 658.19,-658.74 569,-636 509.22,-620.76 489.38,-619.5 442,-580 301.34,-462.73 326.14,-314.52 436,-168 453.03,-145.28 483.35,-134.01 508.3,-128.44"/>
<polygon fill="midnightblue" stroke="midnightblue" points="509.14,-131.84 518.25,-126.44 507.76,-124.97 509.14,-131.84"/>
</g>
<!-- Node20 -->
<g id="node20" class="node">
<title>Node20</title>
<g id="a_node20"><a xlink:title=" ">
<polygon fill="none" stroke="#bfbfbf" points="660,-112.5 660,-131.5 708,-131.5 708,-112.5 660,-112.5"/>
<text text-anchor="middle" x="684" y="-119.5" font-family="Helvetica,sans-Serif" font-size="10.00">time.h</text>
</a>
</g>
</g>
<!-- Node18&#45;&gt;Node20 -->
<g id="edge25" class="edge">
<title>Node18&#45;&gt;Node20</title>
<path fill="none" stroke="midnightblue" d="M1046.92,-679.91C934.38,-677.08 687.99,-667.4 610,-636 573.04,-621.12 563.64,-612.07 540,-580 428.07,-428.15 538.95,-326.01 642,-168 648.99,-157.28 658.63,-146.75 666.91,-138.57"/>
<polygon fill="midnightblue" stroke="midnightblue" points="669.48,-140.95 674.3,-131.52 664.65,-135.89 669.48,-140.95"/>
</g>
<!-- Node21 -->
<g id="node21" class="node">
<title>Node21</title>
<g id="a_node21"><a xlink:title=" ">
<polygon fill="none" stroke="#bfbfbf" points="1549.5,-112.5 1549.5,-131.5 1600.5,-131.5 1600.5,-112.5 1549.5,-112.5"/>
<text text-anchor="middle" x="1575" y="-119.5" font-family="Helvetica,sans-Serif" font-size="10.00">math.h</text>
</a>
</g>
</g>
<!-- Node18&#45;&gt;Node21 -->
<g id="edge26" class="edge">
<title>Node18&#45;&gt;Node21</title>
<path fill="none" stroke="midnightblue" d="M1161.26,-678.81C1317.72,-671.32 1744.58,-640.35 1801,-524 1804.88,-516 1803.68,-512.47 1801,-504 1758.34,-369.28 1682.92,-369.51 1618,-244 1600.06,-209.31 1586.54,-165.44 1579.79,-141.2"/>
<polygon fill="midnightblue" stroke="midnightblue" points="1583.16,-140.28 1577.17,-131.54 1576.41,-142.11 1583.16,-140.28"/>
</g>
<!-- Node22 -->
<g id="node22" class="node">
<title>Node22</title>
<g id="a_node22"><a xlink:title=" ">
<polygon fill="none" stroke="#bfbfbf" points="1054,-112.5 1054,-131.5 1128,-131.5 1128,-112.5 1054,-112.5"/>
<text text-anchor="middle" x="1091" y="-119.5" font-family="Helvetica,sans-Serif" font-size="10.00">petsctime.h</text>
</a>
</g>
</g>
<!-- Node18&#45;&gt;Node22 -->
<g id="edge27" class="edge">
<title>Node18&#45;&gt;Node22</title>
<path fill="none" stroke="midnightblue" d="M1046.65,-679.33C919.05,-674.27 618.05,-654.53 556,-580 383.5,-372.81 906.07,-183.2 1053.46,-134.85"/>
<polygon fill="midnightblue" stroke="midnightblue" points="1054.98,-138.04 1063.4,-131.62 1052.81,-131.38 1054.98,-138.04"/>
</g>
<!-- Node23 -->
<g id="node23" class="node">
<title>Node23</title>
<g id="a_node23"><a xlink:title=" ">
<polygon fill="none" stroke="#bfbfbf" points="294.5,-112.5 294.5,-131.5 413.5,-131.5 413.5,-112.5 294.5,-112.5"/>
<text text-anchor="middle" x="354" y="-119.5" font-family="Helvetica,sans-Serif" font-size="10.00">petscdmcomposite.h</text>
</a>
</g>
</g>
<!-- Node18&#45;&gt;Node23 -->
<g id="edge28" class="edge">
<title>Node18&#45;&gt;Node23</title>
<path fill="none" stroke="midnightblue" d="M1046.64,-680.6C915.16,-679.08 595.67,-671.7 495,-636 330.69,-577.73 253.73,-566.51 173,-412 115.63,-302.2 272.99,-178.8 332.36,-137.4"/>
<polygon fill="midnightblue" stroke="midnightblue" points="334.43,-140.23 340.69,-131.69 330.46,-134.46 334.43,-140.23"/>
</g>
<!-- Node24 -->
<g id="node24" class="node">
<title>Node24</title>
<g id="a_node24"><a xlink:href="ParticleSwarm_8h.html" target="_top" xlink:title="Header file for Particle Motion and migration related functions.">
<polygon fill="none" stroke="black" points="1625,-560.5 1625,-579.5 1721,-579.5 1721,-560.5 1625,-560.5"/>
<text text-anchor="middle" x="1673" y="-567.5" font-family="Helvetica,sans-Serif" font-size="10.00">ParticleSwarm.h</text>
</a>
</g>
</g>
<!-- Node18&#45;&gt;Node24 -->
<g id="edge30" class="edge">
<title>Node18&#45;&gt;Node24</title>
<path fill="none" stroke="midnightblue" d="M1161.1,-675.94C1228.82,-669.37 1344.88,-656.27 1443,-636 1513.08,-621.52 1593.12,-597.05 1637.89,-582.62"/>
<polygon fill="midnightblue" stroke="midnightblue" points="1639,-585.95 1647.43,-579.53 1636.84,-579.29 1639,-585.95"/>
</g>
<!-- Node26 -->
<g id="node26" class="node">
<title>Node26</title>
<g id="a_node26"><a xlink:href="walkingsearch_8h.html" target="_top" xlink:title="Header file for particle location functions using the walking search algorithm.">
<polygon fill="none" stroke="black" points="1660,-224.5 1660,-243.5 1756,-243.5 1756,-224.5 1660,-224.5"/>
<text text-anchor="middle" x="1708" y="-231.5" font-family="Helvetica,sans-Serif" font-size="10.00">walkingsearch.h</text>
</a>
</g>
</g>
<!-- Node18&#45;&gt;Node26 -->
<g id="edge144" class="edge">
<title>Node18&#45;&gt;Node26</title>
<path fill="none" stroke="midnightblue" d="M1161.23,-681.27C1356,-681.8 1985.4,-680.04 2064,-636 2116.72,-606.46 2126,-575.43 2126,-515 2126,-515 2126,-515 2126,-457 2126,-388.63 2088.46,-373.05 2031,-336 1974.47,-299.55 1948.32,-319.68 1884,-300 1832.12,-284.12 1773.25,-261.39 1738.44,-247.45"/>
<polygon fill="midnightblue" stroke="midnightblue" points="1739.45,-244.08 1728.87,-243.59 1736.83,-250.57 1739.45,-244.08"/>
</g>
<!-- Node27 -->
<g id="node27" class="node">
<title>Node27</title>
<g id="a_node27"><a xlink:href="setup_8h.html" target="_top" xlink:title=" ">
<polygon fill="none" stroke="black" points="1254.5,-168.5 1254.5,-187.5 1307.5,-187.5 1307.5,-168.5 1254.5,-168.5"/>
<text text-anchor="middle" x="1281" y="-175.5" font-family="Helvetica,sans-Serif" font-size="10.00">setup.h</text>
</a>
</g>
</g>
<!-- Node18&#45;&gt;Node27 -->
<g id="edge148" class="edge">
<title>Node18&#45;&gt;Node27</title>
<path fill="none" stroke="midnightblue" d="M1105.98,-672.07C1120.3,-638.94 1189.94,-519.35 1226,-412 1251.99,-334.64 1265.29,-237.62 1274.14,-197.59"/>
<polygon fill="midnightblue" stroke="midnightblue" points="1277.59,-198.22 1276.59,-187.67 1270.8,-196.54 1277.59,-198.22"/>
</g>
<!-- Node29 -->
<g id="node29" class="node">
<title>Node29</title>
<g id="a_node29"><a xlink:href="grid_8h.html" target="_top" xlink:title="Public interface for grid, solver, and metric setup routines.">
<polygon fill="none" stroke="black" points="2016,-112.5 2016,-131.5 2060,-131.5 2060,-112.5 2016,-112.5"/>
<text text-anchor="middle" x="2038" y="-119.5" font-family="Helvetica,sans-Serif" font-size="10.00">grid.h</text>
</a>
</g>
</g>
<!-- Node18&#45;&gt;Node29 -->
<g id="edge145" class="edge">
<title>Node18&#45;&gt;Node29</title>
<path fill="none" stroke="midnightblue" d="M1161.3,-680.03C1358.66,-676.47 2003.1,-662.89 2092,-636 2166.05,-613.6 2544,-352.13 2544,-347 2544,-347 2544,-347 2544,-289 2544,-189.63 2449.13,-202.65 2356,-168 2342.68,-163.04 2148.83,-137.43 2070.49,-127.22"/>
<polygon fill="midnightblue" stroke="midnightblue" points="2070.6,-123.7 2060.23,-125.88 2069.69,-130.64 2070.6,-123.7"/>
</g>
<!-- Node30 -->
<g id="node30" class="node">
<title>Node30</title>
<g id="a_node30"><a xlink:href="io_8h.html" target="_top" xlink:title="Public interface for data input/output routines.">
<polygon fill="none" stroke="black" points="1417.5,-448.5 1417.5,-467.5 1452.5,-467.5 1452.5,-448.5 1417.5,-448.5"/>
<text text-anchor="middle" x="1435" y="-455.5" font-family="Helvetica,sans-Serif" font-size="10.00">io.h</text>
</a>
</g>
</g>
<!-- Node18&#45;&gt;Node30 -->
<g id="edge147" class="edge">
<title>Node18&#45;&gt;Node30</title>
<path fill="none" stroke="midnightblue" d="M1116.98,-672.3C1167.44,-638.45 1350.96,-515.37 1413.76,-473.25"/>
<polygon fill="midnightblue" stroke="midnightblue" points="1415.76,-476.12 1422.11,-467.64 1411.86,-470.31 1415.76,-476.12"/>
</g>
<!-- Node32 -->
<g id="node32" class="node">
<title>Node32</title>
<g id="a_node32"><a xlink:href="interpolation_8h.html" target="_top" xlink:title=" ">
<polygon fill="none" stroke="black" points="1346,-616.5 1346,-635.5 1434,-635.5 1434,-616.5 1346,-616.5"/>
<text text-anchor="middle" x="1390" y="-623.5" font-family="Helvetica,sans-Serif" font-size="10.00">interpolation.h</text>
</a>
</g>
</g>
<!-- Node18&#45;&gt;Node32 -->
<g id="edge149" class="edge">
<title>Node18&#45;&gt;Node32</title>
<path fill="none" stroke="midnightblue" d="M1149.32,-672.44C1199.92,-662.89 1281.79,-647.43 1335.76,-637.24"/>
<polygon fill="midnightblue" stroke="midnightblue" points="1336.66,-640.63 1345.83,-635.34 1335.36,-633.76 1336.66,-640.63"/>
</g>
<!-- Node24&#45;&gt;Node3 -->
<g id="edge35" class="edge">
<title>Node24&#45;&gt;Node3</title>
<path fill="none" stroke="midnightblue" d="M1721.3,-567.59C1827.76,-562.18 2086.35,-536.22 2253,-412 2359.77,-332.42 2382.36,-301.5 2452,-188 2470.39,-158.03 2487.27,-144.56 2474,-112 2469.2,-100.23 2459.67,-89.86 2450.71,-82.05"/>
<polygon fill="midnightblue" stroke="midnightblue" points="2452.75,-79.2 2442.78,-75.63 2448.35,-84.64 2452.75,-79.2"/>
</g>
<!-- Node24&#45;&gt;Node8 -->
<g id="edge32" class="edge">
<title>Node24&#45;&gt;Node8</title>
<path fill="none" stroke="midnightblue" d="M1624.82,-561.2C1621.84,-560.78 1618.88,-560.37 1616,-560 1460.05,-539.73 1417.04,-560.19 1264,-524 1103.71,-486.1 608,-343.71 608,-179 608,-179 608,-179 608,-121 608,-46.59 707.73,-22.49 775.27,-14.7"/>
<polygon fill="midnightblue" stroke="midnightblue" points="775.82,-18.16 785.4,-13.63 775.09,-11.2 775.82,-18.16"/>
</g>
<!-- Node24&#45;&gt;Node14 -->
<g id="edge36" class="edge">
<title>Node24&#45;&gt;Node14</title>
<path fill="none" stroke="midnightblue" d="M1700.16,-579.52C1787.99,-607.08 2064.38,-693.82 2164.95,-725.37"/>
<polygon fill="midnightblue" stroke="midnightblue" points="2164.08,-728.77 2174.67,-728.42 2166.18,-722.09 2164.08,-728.77"/>
</g>
<!-- Node24&#45;&gt;Node15 -->
<g id="edge31" class="edge">
<title>Node24&#45;&gt;Node15</title>
<path fill="none" stroke="midnightblue" d="M1719.12,-560.42C1756.8,-552.78 1811.13,-540.28 1857,-524 2076.21,-446.19 2205.61,-496.55 2330,-300 2348.06,-271.46 2344.04,-254.72 2330,-224 2324.22,-211.36 2312.95,-200.91 2302.37,-193.27"/>
<polygon fill="midnightblue" stroke="midnightblue" points="2304.04,-190.18 2293.78,-187.53 2300.15,-196 2304.04,-190.18"/>
</g>
<!-- Node24&#45;&gt;Node21 -->
<g id="edge34" class="edge">
<title>Node24&#45;&gt;Node21</title>
<path fill="none" stroke="midnightblue" d="M1669.22,-560.19C1659.07,-535.74 1632,-464.75 1632,-403 1632,-403 1632,-403 1632,-345 1632,-314.2 1622.96,-306.92 1608,-280 1598.15,-262.28 1586.97,-263.03 1580,-244 1567.39,-209.57 1569.64,-165.9 1572.35,-141.56"/>
<polygon fill="midnightblue" stroke="midnightblue" points="1575.84,-141.92 1573.62,-131.56 1568.89,-141.04 1575.84,-141.92"/>
</g>
<!-- Node25 -->
<g id="node25" class="node">
<title>Node25</title>
<g id="a_node25"><a xlink:title=" ">
<polygon fill="none" stroke="#bfbfbf" points="1884,-168.5 1884,-187.5 1946,-187.5 1946,-168.5 1884,-168.5"/>
<text text-anchor="middle" x="1915" y="-175.5" font-family="Helvetica,sans-Serif" font-size="10.00">stdbool.h</text>
</a>
</g>
</g>
<!-- Node24&#45;&gt;Node25 -->
<g id="edge33" class="edge">
<title>Node24&#45;&gt;Node25</title>
<path fill="none" stroke="midnightblue" d="M1711.3,-560.44C1789.71,-540.54 1966.56,-482.87 2031,-356 2046.3,-325.88 2045,-310.74 2031,-280 2012.61,-239.61 1969.2,-209.09 1941.01,-192.65"/>
<polygon fill="midnightblue" stroke="midnightblue" points="1942.53,-189.49 1932.1,-187.62 1939.09,-195.58 1942.53,-189.49"/>
</g>
<!-- Node24&#45;&gt;Node26 -->
<g id="edge37" class="edge">
<title>Node24&#45;&gt;Node26</title>
<path fill="none" stroke="midnightblue" d="M1677.72,-560.46C1687.27,-542.34 1708,-498.48 1708,-459 1708,-459 1708,-459 1708,-345 1708,-312.95 1708,-275.64 1708,-253.75"/>
<polygon fill="midnightblue" stroke="midnightblue" points="1711.5,-253.56 1708,-243.56 1704.5,-253.56 1711.5,-253.56"/>
</g>
<!-- Node24&#45;&gt;Node30 -->
<g id="edge143" class="edge">
<title>Node24&#45;&gt;Node30</title>
<path fill="none" stroke="midnightblue" d="M1654.32,-560.37C1612.39,-540.99 1510.64,-493.96 1461.9,-471.43"/>
<polygon fill="midnightblue" stroke="midnightblue" points="1463.16,-468.16 1452.62,-467.14 1460.22,-474.51 1463.16,-468.16"/>
</g>
<!-- Node37 -->
<g id="node37" class="node">
<title>Node37</title>
<g id="a_node37"><a xlink:href="Metric_8h.html" target="_top" xlink:title=" ">
<polygon fill="none" stroke="black" points="1736,-504.5 1736,-523.5 1792,-523.5 1792,-504.5 1736,-504.5"/>
<text text-anchor="middle" x="1764" y="-511.5" font-family="Helvetica,sans-Serif" font-size="10.00">Metric.h</text>
</a>
</g>
</g>
<!-- Node24&#45;&gt;Node37 -->
<g id="edge136" class="edge">
<title>Node24&#45;&gt;Node37</title>
<path fill="none" stroke="midnightblue" d="M1687.62,-560.32C1701.95,-551.82 1724.01,-538.73 1740.75,-528.8"/>
<polygon fill="midnightblue" stroke="midnightblue" points="1742.6,-531.77 1749.42,-523.65 1739.03,-525.75 1742.6,-531.77"/>
</g>
<!-- Node26&#45;&gt;Node3 -->
<g id="edge41" class="edge">
<title>Node26&#45;&gt;Node3</title>
<path fill="none" stroke="midnightblue" d="M1724.2,-224.32C1749.1,-211.18 1798.46,-185.87 1842,-168 1913.64,-138.6 1931.37,-128.64 2007,-112 2142.02,-82.29 2305.75,-71.97 2384.02,-68.57"/>
<polygon fill="midnightblue" stroke="midnightblue" points="2384.63,-72.04 2394.48,-68.13 2384.34,-65.05 2384.63,-72.04"/>
</g>
<!-- Node26&#45;&gt;Node14 -->
<g id="edge42" class="edge">
<title>Node26&#45;&gt;Node14</title>
<path fill="none" stroke="midnightblue" d="M1742.68,-243.54C1775.33,-251.87 1825.43,-265.38 1868,-280 1890.25,-287.64 1894.65,-292.67 1917,-300 1979.27,-320.43 2001.72,-306.02 2060,-336 2094.21,-353.6 2104.57,-360.05 2126,-392 2198.88,-500.68 2196.53,-542.76 2217,-672 2218.39,-680.78 2218.42,-683.23 2217,-692 2215.53,-701.04 2212.51,-710.72 2209.56,-718.78"/>
<polygon fill="midnightblue" stroke="midnightblue" points="2206.24,-717.66 2205.86,-728.25 2212.76,-720.21 2206.24,-717.66"/>
</g>
<!-- Node26&#45;&gt;Node15 -->
<g id="edge38" class="edge">
<title>Node26&#45;&gt;Node15</title>
<path fill="none" stroke="midnightblue" d="M1756.11,-228.44C1867.85,-217.86 2142.94,-191.79 2241.85,-182.42"/>
<polygon fill="midnightblue" stroke="midnightblue" points="2242.32,-185.9 2251.94,-181.47 2241.66,-178.93 2242.32,-185.9"/>
</g>
<!-- Node26&#45;&gt;Node21 -->
<g id="edge40" class="edge">
<title>Node26&#45;&gt;Node21</title>
<path fill="none" stroke="midnightblue" d="M1697.56,-224.37C1675.03,-205.73 1621.59,-161.53 1593.3,-138.13"/>
<polygon fill="midnightblue" stroke="midnightblue" points="1595.32,-135.27 1585.39,-131.59 1590.86,-140.66 1595.32,-135.27"/>
</g>
<!-- Node26&#45;&gt;Node25 -->
<g id="edge39" class="edge">
<title>Node26&#45;&gt;Node25</title>
<path fill="none" stroke="midnightblue" d="M1740.8,-224.44C1776.8,-215.05 1834.66,-199.96 1873.72,-189.77"/>
<polygon fill="midnightblue" stroke="midnightblue" points="1874.92,-193.07 1883.71,-187.16 1873.15,-186.3 1874.92,-193.07"/>
</g>
<!-- Node26&#45;&gt;Node27 -->
<g id="edge43" class="edge">
<title>Node26&#45;&gt;Node27</title>
<path fill="none" stroke="midnightblue" d="M1659.6,-227.42C1573.27,-216.92 1394.87,-194.36 1317.73,-184.17"/>
<polygon fill="midnightblue" stroke="midnightblue" points="1317.91,-180.67 1307.54,-182.82 1316.99,-187.61 1317.91,-180.67"/>
</g>
<!-- Node27&#45;&gt;Node3 -->
<g id="edge53" class="edge">
<title>Node27&#45;&gt;Node3</title>
<path fill="none" stroke="midnightblue" d="M1307.6,-168.52C1354.29,-154.05 1454.25,-124.91 1541,-112 1706.11,-87.42 2225.65,-72.28 2383.84,-68.15"/>
<polygon fill="midnightblue" stroke="midnightblue" points="2384.26,-71.64 2394.16,-67.88 2384.08,-64.64 2384.26,-71.64"/>
</g>
<!-- Node27&#45;&gt;Node8 -->
<g id="edge45" class="edge">
<title>Node27&#45;&gt;Node8</title>
<path fill="none" stroke="midnightblue" d="M1268.53,-168.37C1248.52,-154.83 1207.66,-128.44 1170,-112 1072.24,-69.31 950.95,-37.57 884.75,-21.9"/>
<polygon fill="midnightblue" stroke="midnightblue" points="885.14,-18.4 874.61,-19.53 883.55,-25.22 885.14,-18.4"/>
</g>
<!-- Node27&#45;&gt;Node10 -->
<g id="edge46" class="edge">
<title>Node27&#45;&gt;Node10</title>
<path fill="none" stroke="midnightblue" d="M1256.69,-168.42C1233.87,-160.07 1198.99,-146.55 1170,-132 1154.67,-124.31 1153.12,-117.86 1137,-112 964.78,-49.34 380.72,-19.46 227.21,-12.58"/>
<polygon fill="midnightblue" stroke="midnightblue" points="227.06,-9.07 216.92,-12.12 226.75,-16.06 227.06,-9.07"/>
</g>
<!-- Node27&#45;&gt;Node14 -->
<g id="edge130" class="edge">
<title>Node27&#45;&gt;Node14</title>
<path fill="none" stroke="midnightblue" d="M1254.36,-179.19C1150.68,-181.33 768.95,-202.3 548,-392 465.42,-462.9 479.73,-573.73 569,-636 703.29,-729.67 1920.39,-736.54 2160.84,-736.98"/>
<polygon fill="midnightblue" stroke="midnightblue" points="2160.91,-740.48 2170.91,-737 2160.92,-733.48 2160.91,-740.48"/>
</g>
<!-- Node27&#45;&gt;Node16 -->
<g id="edge50" class="edge">
<title>Node27&#45;&gt;Node16</title>
<path fill="none" stroke="midnightblue" d="M1307.57,-176C1407.54,-172.13 1770.64,-157.08 2069,-132 2080.89,-131 2093.73,-129.68 2105.61,-128.37"/>
<polygon fill="midnightblue" stroke="midnightblue" points="2106.21,-131.82 2115.75,-127.22 2105.42,-124.87 2106.21,-131.82"/>
</g>
<!-- Node27&#45;&gt;Node18 -->
<g id="edge133" class="edge">
<title>Node27&#45;&gt;Node18</title>
<path fill="none" stroke="midnightblue" d="M1283.62,-187.67C1285.73,-218.74 1272.49,-327.18 1244,-412 1210.48,-511.8 1147.93,-622.18 1118.86,-663.84"/>
<polygon fill="midnightblue" stroke="midnightblue" points="1115.92,-661.93 1112.86,-672.07 1121.58,-666.05 1115.92,-661.93"/>
</g>
<!-- Node27&#45;&gt;Node19 -->
<g id="edge44" class="edge">
<title>Node27&#45;&gt;Node19</title>
<path fill="none" stroke="midnightblue" d="M1254.28,-175.25C1167.33,-169.53 884.64,-150.65 651,-132 630.91,-130.4 608.61,-128.45 589.99,-126.77"/>
<polygon fill="midnightblue" stroke="midnightblue" points="590.06,-123.27 579.79,-125.85 589.43,-130.24 590.06,-123.27"/>
</g>
<!-- Node27&#45;&gt;Node20 -->
<g id="edge47" class="edge">
<title>Node27&#45;&gt;Node20</title>
<path fill="none" stroke="midnightblue" d="M1254.19,-174.57C1157.36,-165.82 825.77,-135.82 718.08,-126.08"/>
<polygon fill="midnightblue" stroke="midnightblue" points="718.36,-122.59 708.08,-125.18 717.72,-129.56 718.36,-122.59"/>
</g>
<!-- Node27&#45;&gt;Node21 -->
<g id="edge48" class="edge">
<title>Node27&#45;&gt;Node21</title>
<path fill="none" stroke="midnightblue" d="M1307.61,-172.11C1360.55,-162.39 1479.11,-140.61 1538.96,-129.62"/>
<polygon fill="midnightblue" stroke="midnightblue" points="1539.88,-133.01 1549.08,-127.76 1538.62,-126.12 1539.88,-133.01"/>
</g>
<!-- Node27&#45;&gt;Node22 -->
<g id="edge49" class="edge">
<title>Node27&#45;&gt;Node22</title>
<path fill="none" stroke="midnightblue" d="M1254.18,-169.38C1222.11,-160.26 1168.13,-144.92 1131.09,-134.4"/>
<polygon fill="midnightblue" stroke="midnightblue" points="1131.71,-130.93 1121.13,-131.56 1129.79,-137.66 1131.71,-130.93"/>
</g>
<!-- Node27&#45;&gt;Node23 -->
<g id="edge51" class="edge">
<title>Node27&#45;&gt;Node23</title>
<path fill="none" stroke="midnightblue" d="M1254.26,-175.44C1130.74,-168.25 613.4,-138.11 423.93,-127.07"/>
<polygon fill="midnightblue" stroke="midnightblue" points="423.99,-123.57 413.81,-126.48 423.59,-130.56 423.99,-123.57"/>
</g>
<!-- Node27&#45;&gt;Node24 -->
<g id="edge54" class="edge">
<title>Node27&#45;&gt;Node24</title>
<path fill="none" stroke="midnightblue" d="M1287,-187.58C1298.72,-204.61 1324.97,-244.09 1342,-280 1380.01,-360.15 1349.41,-402.3 1409,-468 1439.5,-501.62 1563.79,-539.4 1630.38,-557.76"/>
<polygon fill="midnightblue" stroke="midnightblue" points="1629.59,-561.17 1640.16,-560.43 1631.44,-554.42 1629.59,-561.17"/>
</g>
<!-- Node27&#45;&gt;Node26 -->
<g id="edge55" class="edge">
<title>Node27&#45;&gt;Node26</title>
<path fill="none" stroke="midnightblue" d="M1307.58,-181.95C1375.49,-190.03 1555.89,-212.78 1649.67,-225"/>
<polygon fill="midnightblue" stroke="midnightblue" points="1649.47,-228.5 1659.84,-226.32 1650.38,-221.56 1649.47,-228.5"/>
</g>
<!-- Node28 -->
<g id="node28" class="node">
<title>Node28</title>
<g id="a_node28"><a xlink:title=" ">
<polygon fill="none" stroke="#bfbfbf" points="940.5,-112.5 940.5,-131.5 1035.5,-131.5 1035.5,-112.5 940.5,-112.5"/>
<text text-anchor="middle" x="988" y="-119.5" font-family="Helvetica,sans-Serif" font-size="10.00">petscsystypes.h</text>
</a>
</g>
</g>
<!-- Node27&#45;&gt;Node28 -->
<g id="edge52" class="edge">
<title>Node27&#45;&gt;Node28</title>
<path fill="none" stroke="midnightblue" d="M1254.48,-172.11C1207.24,-163.41 1107.57,-145.04 1044.42,-133.4"/>
<polygon fill="midnightblue" stroke="midnightblue" points="1044.69,-129.89 1034.22,-131.52 1043.42,-136.77 1044.69,-129.89"/>
</g>
<!-- Node27&#45;&gt;Node29 -->
<g id="edge56" class="edge">
<title>Node27&#45;&gt;Node29</title>
<path fill="none" stroke="midnightblue" d="M1307.84,-174.88C1423.74,-166.24 1879.93,-133.7 2005.78,-125.1"/>
<polygon fill="midnightblue" stroke="midnightblue" points="2006.18,-128.58 2015.92,-124.41 2005.71,-121.59 2006.18,-128.58"/>
</g>
<!-- Node27&#45;&gt;Node30 -->
<g id="edge131" class="edge">
<title>Node27&#45;&gt;Node30</title>
<path fill="none" stroke="midnightblue" d="M1304.42,-187.58C1340.11,-202.34 1404,-236.14 1404,-289 1404,-347 1404,-347 1404,-347 1404,-380.59 1417.56,-417.86 1426.74,-439.25"/>
<polygon fill="midnightblue" stroke="midnightblue" points="1423.55,-440.69 1430.82,-448.39 1429.94,-437.83 1423.55,-440.69"/>
</g>
<!-- Node27&#45;&gt;Node31 -->
<g id="edge135" class="edge">
<title>Node27&#45;&gt;Node31</title>
<path fill="none" stroke="midnightblue" d="M1254.4,-186.9C1236.46,-193.7 1213.95,-205.41 1202,-224 1170.06,-273.66 1176.93,-347.98 1182.44,-382.35"/>
<polygon fill="midnightblue" stroke="midnightblue" points="1179.02,-383.13 1184.19,-392.37 1185.92,-381.92 1179.02,-383.13"/>
</g>
<!-- Node27&#45;&gt;Node32 -->
<g id="edge132" class="edge">
<title>Node27&#45;&gt;Node32</title>
<path fill="none" stroke="midnightblue" d="M1288.68,-187.83C1302.91,-212.35 1328,-283.5 1328,-345 1328,-403 1328,-403 1328,-403 1328,-482.18 1369.48,-570.03 1385.01,-607.02"/>
<polygon fill="midnightblue" stroke="midnightblue" points="1381.82,-608.46 1388.79,-616.44 1388.31,-605.85 1381.82,-608.46"/>
</g>
<!-- Node34 -->
<g id="node34" class="node">
<title>Node34</title>
<g id="a_node34"><a xlink:href="ParticleMotion_8h.html" target="_top" xlink:title=" ">
<polygon fill="none" stroke="black" points="1926,-280.5 1926,-299.5 2022,-299.5 2022,-280.5 1926,-280.5"/>
<text text-anchor="middle" x="1974" y="-287.5" font-family="Helvetica,sans-Serif" font-size="10.00">ParticleMotion.h</text>
</a>
</g>
</g>
<!-- Node27&#45;&gt;Node34 -->
<g id="edge134" class="edge">
<title>Node27&#45;&gt;Node34</title>
<path fill="none" stroke="midnightblue" d="M1307.51,-179.53C1380.93,-181.4 1592.87,-189.62 1765,-224 1829.24,-236.83 1901.74,-261.86 1942.24,-276.83"/>
<polygon fill="midnightblue" stroke="midnightblue" points="1941.23,-280.19 1951.82,-280.41 1943.68,-273.64 1941.23,-280.19"/>
</g>
<!-- Node29&#45;&gt;Node3 -->
<g id="edge57" class="edge">
<title>Node29&#45;&gt;Node3</title>
<path fill="none" stroke="midnightblue" d="M2060.38,-114.97C2064.87,-113.88 2069.57,-112.83 2074,-112 2184.43,-91.29 2315.95,-77.43 2384.04,-71.04"/>
<polygon fill="midnightblue" stroke="midnightblue" points="2384.78,-74.49 2394.41,-70.08 2384.13,-67.52 2384.78,-74.49"/>
</g>
<!-- Node29&#45;&gt;Node14 -->
<g id="edge58" class="edge">
<title>Node29&#45;&gt;Node14</title>
<path fill="none" stroke="midnightblue" d="M2060.06,-125.93C2073.6,-127.72 2091.3,-130.03 2107,-132 2302.64,-156.58 2377.87,-113.25 2541,-224 2602.89,-266.02 2658,-270.19 2658,-345 2658,-627 2658,-627 2658,-627 2658,-711.81 2356.15,-731.43 2243.63,-735.8"/>
<polygon fill="midnightblue" stroke="midnightblue" points="2243.21,-732.31 2233.34,-736.18 2243.46,-739.31 2243.21,-732.31"/>
</g>
<!-- Node29&#45;&gt;Node27 -->
<g id="edge129" class="edge">
<title>Node29&#45;&gt;Node27</title>
<path fill="none" stroke="midnightblue" d="M2015.98,-124.76C1909.89,-132.71 1452.38,-165.35 1318.1,-174.57"/>
<polygon fill="midnightblue" stroke="midnightblue" points="1317.66,-171.09 1307.92,-175.26 1318.13,-178.07 1317.66,-171.09"/>
</g>
<!-- Node29&#45;&gt;Node30 -->
<g id="edge59" class="edge">
<title>Node29&#45;&gt;Node30</title>
<path fill="none" stroke="midnightblue" d="M2060.04,-127.37C2115.5,-139.45 2253.79,-176.94 2216,-244 2168.81,-327.73 2121.09,-322.49 2031,-356 2003.72,-366.15 1576.15,-434.55 1462.54,-452.63"/>
<polygon fill="midnightblue" stroke="midnightblue" points="1461.88,-449.19 1452.55,-454.22 1462.98,-456.1 1461.88,-449.19"/>
</g>
<!-- Node30&#45;&gt;Node3 -->
<g id="edge60" class="edge">
<title>Node30&#45;&gt;Node3</title>
<path fill="none" stroke="midnightblue" d="M1452.64,-455.16C1504.23,-449.69 1659.27,-432.6 1787,-412 1972.22,-382.12 2038.72,-405.29 2194,-300 2291.23,-234.07 2383.38,-125.23 2416.79,-83.76"/>
<polygon fill="midnightblue" stroke="midnightblue" points="2419.67,-85.76 2423.18,-75.76 2414.2,-81.39 2419.67,-85.76"/>
</g>
<!-- Node30&#45;&gt;Node14 -->
<g id="edge61" class="edge">
<title>Node30&#45;&gt;Node14</title>
<path fill="none" stroke="midnightblue" d="M1452.61,-464.7C1525.83,-488.51 1813.09,-582.83 2045,-672 2089.97,-689.29 2141.46,-710.98 2172.85,-724.41"/>
<polygon fill="midnightblue" stroke="midnightblue" points="2171.73,-727.74 2182.3,-728.47 2174.49,-721.31 2171.73,-727.74"/>
</g>
<!-- Node30&#45;&gt;Node31 -->
<g id="edge62" class="edge">
<title>Node30&#45;&gt;Node31</title>
<path fill="none" stroke="midnightblue" d="M1417.16,-453.86C1378.28,-446.21 1285.79,-426.31 1230.23,-413.79"/>
<polygon fill="midnightblue" stroke="midnightblue" points="1230.83,-410.34 1220.3,-411.54 1229.28,-417.16 1230.83,-410.34"/>
</g>
<!-- Node31&#45;&gt;Node3 -->
<g id="edge72" class="edge">
<title>Node31&#45;&gt;Node3</title>
<path fill="none" stroke="midnightblue" d="M1226.26,-400.53C1328.76,-398.84 1607.71,-391.11 1837,-356 1843.61,-354.99 2064.97,-302.88 2071,-300 2157.99,-258.54 2162.13,-220.4 2243,-168 2297.58,-132.64 2365.64,-98.09 2402.75,-80"/>
<polygon fill="midnightblue" stroke="midnightblue" points="2404.46,-83.07 2411.93,-75.56 2401.4,-76.77 2404.46,-83.07"/>
</g>
<!-- Node31&#45;&gt;Node8 -->
<g id="edge64" class="edge">
<title>Node31&#45;&gt;Node8</title>
<path fill="none" stroke="midnightblue" d="M1146.17,-392.48C1062.06,-371.91 874,-311.13 874,-179 874,-179 874,-179 874,-121 874,-86.81 857.4,-49.76 846.14,-28.57"/>
<polygon fill="midnightblue" stroke="midnightblue" points="849.18,-26.83 841.28,-19.77 843.05,-30.22 849.18,-26.83"/>
</g>
<!-- Node31&#45;&gt;Node10 -->
<g id="edge65" class="edge">
<title>Node31&#45;&gt;Node10</title>
<path fill="none" stroke="midnightblue" d="M1145.84,-399.05C1045.84,-393.9 787.79,-378.75 705,-356 599.13,-326.91 334.91,-174.59 285,-132 248.41,-100.78 216.29,-53.6 200.45,-28.37"/>
<polygon fill="midnightblue" stroke="midnightblue" points="203.26,-26.25 195.04,-19.57 197.3,-29.92 203.26,-26.25"/>
</g>
<!-- Node31&#45;&gt;Node14 -->
<g id="edge76" class="edge">
<title>Node31&#45;&gt;Node14</title>
<path fill="none" stroke="midnightblue" d="M1145.99,-406.77C1114.33,-411.62 1070.86,-422.7 1041,-448 958.24,-518.12 964.27,-621.83 1047,-692 1090.44,-728.85 1959.31,-735.69 2160.65,-736.8"/>
<polygon fill="midnightblue" stroke="midnightblue" points="2160.79,-740.3 2170.81,-736.86 2160.83,-733.3 2160.79,-740.3"/>
</g>
<!-- Node31&#45;&gt;Node16 -->
<g id="edge69" class="edge">
<title>Node31&#45;&gt;Node16</title>
<path fill="none" stroke="midnightblue" d="M1226.05,-399.58C1320.7,-395.87 1565.48,-384.12 1768,-356 1783.6,-353.83 2033.17,-309.14 2046,-300 2102.55,-259.7 2133.27,-178.21 2144.71,-141.58"/>
<polygon fill="midnightblue" stroke="midnightblue" points="2148.14,-142.33 2147.65,-131.74 2141.43,-140.32 2148.14,-142.33"/>
</g>
<!-- Node31&#45;&gt;Node18 -->
<g id="edge95" class="edge">
<title>Node31&#45;&gt;Node18</title>
<path fill="none" stroke="midnightblue" d="M1146,-410.93C1096.59,-423.32 1019,-452.42 1019,-513 1019,-571 1019,-571 1019,-571 1019,-612.24 1056.86,-647.43 1082.05,-666.27"/>
<polygon fill="midnightblue" stroke="midnightblue" points="1080.18,-669.24 1090.34,-672.24 1084.27,-663.56 1080.18,-669.24"/>
</g>
<!-- Node31&#45;&gt;Node19 -->
<g id="edge63" class="edge">
<title>Node31&#45;&gt;Node19</title>
<path fill="none" stroke="midnightblue" d="M1145.81,-398.53C1063.71,-393.08 879.57,-378.69 821,-356 703.96,-310.65 679.31,-280.07 594,-188 580.34,-173.26 567.58,-154.11 559.16,-140.42"/>
<polygon fill="midnightblue" stroke="midnightblue" points="561.99,-138.34 553.85,-131.56 555.99,-141.94 561.99,-138.34"/>
</g>
<!-- Node31&#45;&gt;Node20 -->
<g id="edge66" class="edge">
<title>Node31&#45;&gt;Node20</title>
<path fill="none" stroke="midnightblue" d="M1145.94,-400.47C1085.14,-398.51 966.74,-390.19 873,-356 796.17,-327.98 775.29,-310 727,-244 710.45,-221.38 707.48,-214.38 698,-188 692.57,-172.88 688.9,-154.98 686.69,-141.8"/>
<polygon fill="midnightblue" stroke="midnightblue" points="690.1,-140.96 685.11,-131.61 683.18,-142.03 690.1,-140.96"/>
</g>
<!-- Node31&#45;&gt;Node21 -->
<g id="edge67" class="edge">
<title>Node31&#45;&gt;Node21</title>
<path fill="none" stroke="midnightblue" d="M1198.07,-392.38C1253.54,-352.73 1484.34,-187.79 1554.61,-137.57"/>
<polygon fill="midnightblue" stroke="midnightblue" points="1556.97,-140.19 1563.07,-131.52 1552.9,-134.49 1556.97,-140.19"/>
</g>
<!-- Node31&#45;&gt;Node22 -->
<g id="edge68" class="edge">
<title>Node31&#45;&gt;Node22</title>
<path fill="none" stroke="midnightblue" d="M1183.05,-392.38C1169.81,-353.62 1115.65,-195.13 1097.19,-141.13"/>
<polygon fill="midnightblue" stroke="midnightblue" points="1100.46,-139.86 1093.91,-131.52 1093.83,-142.12 1100.46,-139.86"/>
</g>
<!-- Node31&#45;&gt;Node23 -->
<g id="edge70" class="edge">
<title>Node31&#45;&gt;Node23</title>
<path fill="none" stroke="midnightblue" d="M1145.86,-401.43C1070.67,-401.2 904.16,-395.75 771,-356 613.68,-309.04 581.61,-274.4 442,-188 416.97,-172.51 389.99,-151.95 372.6,-138.14"/>
<polygon fill="midnightblue" stroke="midnightblue" points="374.43,-135.12 364.44,-131.59 370.05,-140.58 374.43,-135.12"/>
</g>
<!-- Node31&#45;&gt;Node24 -->
<g id="edge73" class="edge">
<title>Node31&#45;&gt;Node24</title>
<path fill="none" stroke="midnightblue" d="M1196.73,-411.78C1225.12,-434.51 1305.39,-495.49 1383,-524 1478.38,-559.04 1510.53,-544.77 1614.82,-559.87"/>
<polygon fill="midnightblue" stroke="midnightblue" points="1614.39,-563.35 1624.8,-561.38 1615.43,-556.43 1614.39,-563.35"/>
</g>
<!-- Node31&#45;&gt;Node26 -->
<g id="edge74" class="edge">
<title>Node31&#45;&gt;Node26</title>
<path fill="none" stroke="midnightblue" d="M1213.78,-392.49C1269.86,-375.29 1400.57,-335.02 1510,-300 1567.06,-281.74 1633.14,-259.91 1672.7,-246.76"/>
<polygon fill="midnightblue" stroke="midnightblue" points="1674.02,-250.01 1682.41,-243.54 1671.82,-243.37 1674.02,-250.01"/>
</g>
<!-- Node31&#45;&gt;Node28 -->
<g id="edge71" class="edge">
<title>Node31&#45;&gt;Node28</title>
<path fill="none" stroke="midnightblue" d="M1179.86,-392.38C1152.02,-353.3 1037.48,-192.48 999.96,-139.79"/>
<polygon fill="midnightblue" stroke="midnightblue" points="1002.72,-137.64 994.07,-131.52 997.02,-141.7 1002.72,-137.64"/>
</g>
<!-- Node31&#45;&gt;Node29 -->
<g id="edge75" class="edge">
<title>Node31&#45;&gt;Node29</title>
<path fill="none" stroke="midnightblue" d="M1226.12,-397.66C1390.28,-383.81 2003.38,-330.21 2031,-300 2035.95,-294.58 2035.7,-175.33 2036,-168 2036.35,-159.4 2036.77,-149.87 2037.14,-141.8"/>
<polygon fill="midnightblue" stroke="midnightblue" points="2040.64,-141.77 2037.6,-131.63 2033.65,-141.46 2040.64,-141.77"/>
</g>
<!-- Node31&#45;&gt;Node30 -->
<g id="edge77" class="edge">
<title>Node31&#45;&gt;Node30</title>
<path fill="none" stroke="midnightblue" d="M1226.09,-410.64C1277.08,-421.14 1363.53,-439.9 1407.61,-450.04"/>
<polygon fill="midnightblue" stroke="midnightblue" points="1406.82,-453.45 1417.35,-452.3 1408.4,-446.63 1406.82,-453.45"/>
</g>
<!-- Node31&#45;&gt;Node32 -->
<g id="edge78" class="edge">
<title>Node31&#45;&gt;Node32</title>
<path fill="none" stroke="midnightblue" d="M1185.8,-411.79C1185.75,-433.02 1188.19,-488.04 1213,-524 1245.64,-571.32 1308.15,-599.26 1349.46,-613.35"/>
<polygon fill="midnightblue" stroke="midnightblue" points="1348.37,-616.68 1358.96,-616.48 1350.56,-610.03 1348.37,-616.68"/>
</g>
<!-- Node31&#45;&gt;Node34 -->
<g id="edge96" class="edge">
<title>Node31&#45;&gt;Node34</title>
<path fill="none" stroke="midnightblue" d="M1226.16,-395.39C1355.77,-377.3 1763.35,-320.41 1915.74,-299.13"/>
<polygon fill="midnightblue" stroke="midnightblue" points="1916.42,-302.57 1925.84,-297.72 1915.45,-295.64 1916.42,-302.57"/>
</g>
<!-- Node35 -->
<g id="node35" class="node">
<title>Node35</title>
<g id="a_node35"><a xlink:href="BC__Handlers_8h.html" target="_top" xlink:title=" ">
<polygon fill="none" stroke="black" points="1934,-336.5 1934,-355.5 2022,-355.5 2022,-336.5 1934,-336.5"/>
<text text-anchor="middle" x="1978" y="-343.5" font-family="Helvetica,sans-Serif" font-size="10.00">BC_Handlers.h</text>
</a>
</g>
</g>
<!-- Node31&#45;&gt;Node35 -->
<g id="edge105" class="edge">
<title>Node31&#45;&gt;Node35</title>
<path fill="none" stroke="midnightblue" d="M1226.02,-399.71C1335.88,-396.08 1650.47,-384.14 1911,-356 1915.1,-355.56 1919.36,-355.03 1923.65,-354.45"/>
<polygon fill="midnightblue" stroke="midnightblue" points="1924.27,-357.9 1933.69,-353.04 1923.3,-350.97 1924.27,-357.9"/>
</g>
<!-- Node36 -->
<g id="node36" class="node">
<title>Node36</title>
<g id="a_node36"><a xlink:href="wallfunction_8h.html" target="_top" xlink:title=" ">
<polygon fill="none" stroke="black" points="882,-336.5 882,-355.5 968,-355.5 968,-336.5 882,-336.5"/>
<text text-anchor="middle" x="925" y="-343.5" font-family="Helvetica,sans-Serif" font-size="10.00">wallfunction.h</text>
</a>
</g>
</g>
<!-- Node31&#45;&gt;Node36 -->
<g id="edge109" class="edge">
<title>Node31&#45;&gt;Node36</title>
<path fill="none" stroke="midnightblue" d="M1145.73,-393.66C1098.53,-384.38 1020.73,-368.33 971.16,-357.69"/>
<polygon fill="midnightblue" stroke="midnightblue" points="971.85,-354.26 961.33,-355.57 970.37,-361.1 971.85,-354.26"/>
</g>
<!-- Node32&#45;&gt;Node3 -->
<g id="edge88" class="edge">
<title>Node32&#45;&gt;Node3</title>
<path fill="none" stroke="midnightblue" d="M1434.15,-623.44C1533.58,-619.55 1782.53,-607.66 1989,-580 2329.72,-534.35 2533.92,-595.24 2710,-300 2775.8,-189.67 2560.88,-107.73 2469.31,-78.59"/>
<polygon fill="midnightblue" stroke="midnightblue" points="2470.14,-75.18 2459.55,-75.54 2468.05,-81.86 2470.14,-75.18"/>
</g>
<!-- Node32&#45;&gt;Node8 -->
<g id="edge80" class="edge">
<title>Node32&#45;&gt;Node8</title>
<path fill="none" stroke="midnightblue" d="M1345.98,-624.27C1258.2,-622.09 1055.51,-613.55 889,-580 561.36,-513.99 400.96,-445.47 285,-132 250.18,-37.87 624.29,-16.9 774.86,-12.29"/>
<polygon fill="midnightblue" stroke="midnightblue" points="775.42,-15.77 785.31,-11.98 775.21,-8.77 775.42,-15.77"/>
</g>
<!-- Node32&#45;&gt;Node10 -->
<g id="edge81" class="edge">
<title>Node32&#45;&gt;Node10</title>
<path fill="none" stroke="midnightblue" d="M1345.9,-624.96C1246.63,-624.17 998.38,-618.16 795,-580 615.19,-546.26 76,-361.95 76,-179 76,-179 76,-179 76,-121 76,-74.11 126.55,-40.89 160.33,-23.93"/>
<polygon fill="midnightblue" stroke="midnightblue" points="161.87,-27.07 169.36,-19.58 158.83,-20.77 161.87,-27.07"/>
</g>
<!-- Node32&#45;&gt;Node14 -->
<g id="edge92" class="edge">
<title>Node32&#45;&gt;Node14</title>
<path fill="none" stroke="midnightblue" d="M1434.01,-632.96C1576.19,-652.22 2021.91,-712.6 2160.47,-731.37"/>
<polygon fill="midnightblue" stroke="midnightblue" points="2160.29,-734.88 2170.67,-732.76 2161.23,-727.94 2160.29,-734.88"/>
</g>
<!-- Node32&#45;&gt;Node16 -->
<g id="edge87" class="edge">
<title>Node32&#45;&gt;Node16</title>
<path fill="none" stroke="midnightblue" d="M1434.34,-623.22C1524.3,-619.17 1734.54,-607.37 1909,-580 2229.88,-529.66 2414.81,-535.54 2558,-244 2582.99,-193.12 2491.46,-171.83 2482,-168 2384.97,-128.7 2260.27,-122.41 2194.77,-122.15"/>
<polygon fill="midnightblue" stroke="midnightblue" points="2194.4,-118.65 2184.4,-122.16 2194.4,-125.65 2194.4,-118.65"/>
</g>
<!-- Node32&#45;&gt;Node19 -->
<g id="edge79" class="edge">
<title>Node32&#45;&gt;Node19</title>
<path fill="none" stroke="midnightblue" d="M1345.98,-620.26C1287.52,-613.54 1181.26,-599.8 1092,-580 938.32,-545.92 897.46,-537.05 756,-468 587.97,-385.98 512.97,-360.99 442,-188 428.97,-156.25 472.73,-138.93 508.17,-130.33"/>
<polygon fill="midnightblue" stroke="midnightblue" points="509.38,-133.65 518.37,-128.03 507.84,-126.82 509.38,-133.65"/>
</g>
<!-- Node32&#45;&gt;Node20 -->
<g id="edge82" class="edge">
<title>Node32&#45;&gt;Node20</title>
<path fill="none" stroke="midnightblue" d="M1345.85,-616.67C1195.99,-587.39 711.69,-483.93 632,-356 587.77,-285 645.6,-181.13 672.06,-140.35"/>
<polygon fill="midnightblue" stroke="midnightblue" points="675.12,-142.07 677.75,-131.81 669.29,-138.19 675.12,-142.07"/>
</g>
<!-- Node32&#45;&gt;Node21 -->
<g id="edge83" class="edge">
<title>Node32&#45;&gt;Node21</title>
<path fill="none" stroke="midnightblue" d="M1434.27,-623.8C1508.9,-620.94 1664,-611.42 1791,-580 2002.72,-527.63 2132.54,-509.26 2194,-300 2231.79,-171.35 2126.95,-217.08 1955,-168 1832.21,-132.95 1679.58,-125.16 1611.15,-123.46"/>
<polygon fill="midnightblue" stroke="midnightblue" points="1610.98,-119.96 1600.9,-123.24 1610.82,-126.95 1610.98,-119.96"/>
</g>
<!-- Node32&#45;&gt;Node22 -->
<g id="edge84" class="edge">
<title>Node32&#45;&gt;Node22</title>
<path fill="none" stroke="midnightblue" d="M1396.07,-616.31C1402.11,-607.45 1411.39,-593.16 1418,-580 1442,-532.21 1452.05,-520.55 1462,-468 1483.04,-356.91 1461.97,-311.2 1390,-224 1327.43,-148.19 1205.71,-129.03 1138.48,-124.35"/>
<polygon fill="midnightblue" stroke="midnightblue" points="1138.37,-120.84 1128.18,-123.72 1137.94,-127.83 1138.37,-120.84"/>
</g>
<!-- Node32&#45;&gt;Node23 -->
<g id="edge85" class="edge">
<title>Node32&#45;&gt;Node23</title>
<path fill="none" stroke="midnightblue" d="M1345.96,-623.72C1225.25,-618.61 881.52,-593.26 632,-468 484.14,-393.78 388.5,-200.74 361.7,-140.93"/>
<polygon fill="midnightblue" stroke="midnightblue" points="364.85,-139.4 357.62,-131.65 358.44,-142.22 364.85,-139.4"/>
</g>
<!-- Node32&#45;&gt;Node24 -->
<g id="edge89" class="edge">
<title>Node32&#45;&gt;Node24</title>
<path fill="none" stroke="midnightblue" d="M1434.22,-616.56C1483.87,-607.09 1564.51,-591.7 1618.14,-581.47"/>
<polygon fill="midnightblue" stroke="midnightblue" points="1618.99,-584.87 1628.16,-579.56 1617.68,-577.99 1618.99,-584.87"/>
</g>
<!-- Node32&#45;&gt;Node26 -->
<g id="edge90" class="edge">
<title>Node32&#45;&gt;Node26</title>
<path fill="none" stroke="midnightblue" d="M1434.26,-622.96C1541.68,-616.93 1810.79,-594.88 1857,-524 1897.4,-462.03 2184.98,-756.26 1798,-280 1785.54,-264.67 1766.54,-254.1 1749.19,-247.08"/>
<polygon fill="midnightblue" stroke="midnightblue" points="1750.37,-243.79 1739.78,-243.54 1747.91,-250.34 1750.37,-243.79"/>
</g>
<!-- Node32&#45;&gt;Node27 -->
<g id="edge94" class="edge">
<title>Node32&#45;&gt;Node27</title>
<path fill="none" stroke="midnightblue" d="M1381.45,-616.44C1360.08,-587.45 1310,-490 1310,-403 1310,-403 1310,-403 1310,-345 1310,-290.47 1290.28,-228.35 1282.61,-197.88"/>
<polygon fill="midnightblue" stroke="midnightblue" points="1285.96,-196.81 1280.33,-187.83 1279.13,-198.36 1285.96,-196.81"/>
</g>
<!-- Node32&#45;&gt;Node29 -->
<g id="edge91" class="edge">
<title>Node32&#45;&gt;Node29</title>
<path fill="none" stroke="midnightblue" d="M1434.24,-623.46C1515.92,-619.98 1695.6,-609.41 1844,-580 2129.46,-523.43 2305.74,-517.2 2406,-244 2424.39,-193.89 2363.1,-186.41 2313,-168 2290.48,-159.73 2137.71,-137.25 2070.09,-127.55"/>
<polygon fill="midnightblue" stroke="midnightblue" points="2070.4,-124.06 2060.01,-126.11 2069.41,-130.99 2070.4,-124.06"/>
</g>
<!-- Node32&#45;&gt;Node30 -->
<g id="edge93" class="edge">
<title>Node32&#45;&gt;Node30</title>
<path fill="none" stroke="midnightblue" d="M1392.42,-616.08C1399.5,-589.95 1420.3,-513.21 1429.96,-477.58"/>
<polygon fill="midnightblue" stroke="midnightblue" points="1433.44,-478.14 1432.68,-467.57 1426.68,-476.3 1433.44,-478.14"/>
</g>
<!-- Node33 -->
<g id="node33" class="node">
<title>Node33</title>
<g id="a_node33"><a xlink:title=" ">
<polygon fill="none" stroke="#bfbfbf" points="1531.5,-560.5 1531.5,-579.5 1606.5,-579.5 1606.5,-560.5 1531.5,-560.5"/>
<text text-anchor="middle" x="1569" y="-567.5" font-family="Helvetica,sans-Serif" font-size="10.00">petscerror.h</text>
</a>
</g>
</g>
<!-- Node32&#45;&gt;Node33 -->
<g id="edge86" class="edge">
<title>Node32&#45;&gt;Node33</title>
<path fill="none" stroke="midnightblue" d="M1418.36,-616.44C1448.74,-607.28 1497.11,-592.69 1530.82,-582.52"/>
<polygon fill="midnightblue" stroke="midnightblue" points="1532.21,-585.76 1540.77,-579.52 1530.18,-579.05 1532.21,-585.76"/>
</g>
<!-- Node34&#45;&gt;Node3 -->
<g id="edge102" class="edge">
<title>Node34&#45;&gt;Node3</title>
<path fill="none" stroke="midnightblue" d="M1977.49,-280.47C1989.96,-251.18 2035.47,-154.14 2107,-112 2152.95,-84.93 2306.19,-73.33 2383.93,-69.09"/>
<polygon fill="midnightblue" stroke="midnightblue" points="2384.57,-72.56 2394.38,-68.54 2384.21,-65.57 2384.57,-72.56"/>
</g>
<!-- Node34&#45;&gt;Node8 -->
<g id="edge98" class="edge">
<title>Node34&#45;&gt;Node8</title>
<path fill="none" stroke="midnightblue" d="M1960.81,-280.42C1914.77,-250.94 1756.03,-153.39 1610,-112 1351.68,-38.77 1029.58,-18.4 897.17,-12.92"/>
<polygon fill="midnightblue" stroke="midnightblue" points="896.96,-9.41 886.83,-12.51 896.68,-16.41 896.96,-9.41"/>
</g>
<!-- Node34&#45;&gt;Node14 -->
<g id="edge103" class="edge">
<title>Node34&#45;&gt;Node14</title>
<path fill="none" stroke="midnightblue" d="M2022.24,-293.6C2072.45,-297.74 2152.49,-308.44 2216,-336 2344.98,-391.97 2430,-428.39 2430,-569 2430,-627 2430,-627 2430,-627 2430,-708.97 2308.96,-729.89 2243.27,-735.21"/>
<polygon fill="midnightblue" stroke="midnightblue" points="2242.95,-731.72 2233.22,-735.93 2243.45,-738.7 2242.95,-731.72"/>
</g>
<!-- Node34&#45;&gt;Node15 -->
<g id="edge97" class="edge">
<title>Node34&#45;&gt;Node15</title>
<path fill="none" stroke="midnightblue" d="M1997.6,-280.46C2051.25,-261.05 2182.51,-213.55 2244.52,-191.12"/>
<polygon fill="midnightblue" stroke="midnightblue" points="2245.99,-194.3 2254.2,-187.61 2243.61,-187.72 2245.99,-194.3"/>
</g>
<!-- Node34&#45;&gt;Node16 -->
<g id="edge100" class="edge">
<title>Node34&#45;&gt;Node16</title>
<path fill="none" stroke="midnightblue" d="M1983.46,-280.08C2012.01,-253.15 2097.5,-172.51 2133.62,-138.45"/>
<polygon fill="midnightblue" stroke="midnightblue" points="2136.04,-140.98 2140.92,-131.57 2131.24,-135.88 2136.04,-140.98"/>
</g>
<!-- Node34&#45;&gt;Node21 -->
<g id="edge101" class="edge">
<title>Node34&#45;&gt;Node21</title>
<path fill="none" stroke="midnightblue" d="M1953.39,-280.42C1887.72,-253.1 1683.17,-168 1605.41,-135.65"/>
<polygon fill="midnightblue" stroke="midnightblue" points="1606.31,-132.23 1595.73,-131.62 1603.62,-138.7 1606.31,-132.23"/>
</g>
<!-- Node34&#45;&gt;Node25 -->
<g id="edge99" class="edge">
<title>Node34&#45;&gt;Node25</title>
<path fill="none" stroke="midnightblue" d="M1969.37,-280.37C1959.72,-262.38 1937.29,-220.55 1924.45,-196.63"/>
<polygon fill="midnightblue" stroke="midnightblue" points="1927.42,-194.75 1919.61,-187.59 1921.25,-198.06 1927.42,-194.75"/>
</g>
<!-- Node34&#45;&gt;Node26 -->
<g id="edge104" class="edge">
<title>Node34&#45;&gt;Node26</title>
<path fill="none" stroke="midnightblue" d="M1931.85,-280.44C1885.25,-270.98 1810.16,-255.74 1759.95,-245.55"/>
<polygon fill="midnightblue" stroke="midnightblue" points="1760.45,-242.08 1749.95,-243.52 1759.06,-248.94 1760.45,-242.08"/>
</g>
<!-- Node35&#45;&gt;Node3 -->
<g id="edge106" class="edge">
<title>Node35&#45;&gt;Node3</title>
<path fill="none" stroke="midnightblue" d="M2018.82,-336.46C2052.11,-328.83 2100.01,-316.34 2140,-300 2282.9,-241.61 2365.57,-264.96 2444,-132 2452.59,-117.44 2446.77,-98.27 2440.22,-84.52"/>
<polygon fill="midnightblue" stroke="midnightblue" points="2443.28,-82.82 2435.51,-75.62 2437.09,-86.09 2443.28,-82.82"/>
</g>
<!-- Node35&#45;&gt;Node14 -->
<g id="edge108" class="edge">
<title>Node35&#45;&gt;Node14</title>
<path fill="none" stroke="midnightblue" d="M2022.11,-351.28C2149.01,-364.81 2506,-411.87 2506,-513 2506,-627 2506,-627 2506,-627 2506,-666.92 2479.1,-672.98 2444,-692 2379.8,-726.77 2293.51,-735.18 2243.2,-736.92"/>
<polygon fill="midnightblue" stroke="midnightblue" points="2242.94,-733.42 2233.04,-737.2 2243.13,-740.42 2242.94,-733.42"/>
</g>
<!-- Node35&#45;&gt;Node31 -->
<g id="edge107" class="edge">
<title>Node35&#45;&gt;Node31</title>
<path fill="none" stroke="midnightblue" d="M1933.92,-355.44C1932.27,-355.64 1930.62,-355.82 1929,-356 1669.68,-384.01 1356.8,-395.97 1236.42,-399.66"/>
<polygon fill="midnightblue" stroke="midnightblue" points="1236.28,-396.16 1226.39,-399.96 1236.49,-403.16 1236.28,-396.16"/>
</g>
<!-- Node36&#45;&gt;Node3 -->
<g id="edge119" class="edge">
<title>Node36&#45;&gt;Node3</title>
<path fill="none" stroke="midnightblue" d="M921.64,-336.21C909.12,-301.78 869.04,-174.96 932,-112 958.33,-85.67 2135.84,-70.44 2384.28,-67.52"/>
<polygon fill="midnightblue" stroke="midnightblue" points="2384.44,-71.02 2394.4,-67.4 2384.36,-64.02 2384.44,-71.02"/>
</g>
<!-- Node36&#45;&gt;Node8 -->
<g id="edge111" class="edge">
<title>Node36&#45;&gt;Node8</title>
<path fill="none" stroke="midnightblue" d="M915.87,-336.2C886.75,-307.74 798,-217.83 798,-179 798,-179 798,-179 798,-121 798,-86.81 814.6,-49.76 825.86,-28.57"/>
<polygon fill="midnightblue" stroke="midnightblue" points="828.95,-30.22 830.72,-19.77 822.82,-26.83 828.95,-30.22"/>
</g>
<!-- Node36&#45;&gt;Node10 -->
<g id="edge112" class="edge">
<title>Node36&#45;&gt;Node10</title>
<path fill="none" stroke="midnightblue" d="M905.1,-336.46C861.21,-316.15 760,-260.47 760,-179 760,-179 760,-179 760,-121 760,-12.05 353.46,-8.67 227.05,-10.25"/>
<polygon fill="midnightblue" stroke="midnightblue" points="226.68,-6.75 216.73,-10.4 226.78,-13.75 226.68,-6.75"/>
</g>
<!-- Node36&#45;&gt;Node14 -->
<g id="edge123" class="edge">
<title>Node36&#45;&gt;Node14</title>
<path fill="none" stroke="midnightblue" d="M881.99,-353.02C728.85,-375.52 221.89,-459.6 273,-580 303.33,-651.45 333.57,-666.84 407,-692 492.63,-721.33 1900.65,-734.48 2160.83,-736.67"/>
<polygon fill="midnightblue" stroke="midnightblue" points="2160.95,-740.17 2170.98,-736.75 2161.01,-733.17 2160.95,-740.17"/>
</g>
<!-- Node36&#45;&gt;Node16 -->
<g id="edge116" class="edge">
<title>Node36&#45;&gt;Node16</title>
<path fill="none" stroke="midnightblue" d="M968.16,-343.74C1065.38,-340.45 1308.71,-329.7 1510,-300 1624.79,-283.06 1658.6,-290.29 1765,-244 1819.49,-220.29 1819.89,-190.23 1875,-168 1915.99,-151.47 2038.57,-135.61 2105.38,-127.89"/>
<polygon fill="midnightblue" stroke="midnightblue" points="2106.07,-131.33 2115.6,-126.72 2105.27,-124.38 2106.07,-131.33"/>
</g>
<!-- Node36&#45;&gt;Node18 -->
<g id="edge126" class="edge">
<title>Node36&#45;&gt;Node18</title>
<path fill="none" stroke="midnightblue" d="M926.07,-355.57C931.13,-392.91 955.6,-543.71 1031,-636 1042.2,-649.71 1058.76,-660.4 1073.27,-667.91"/>
<polygon fill="midnightblue" stroke="midnightblue" points="1071.91,-671.14 1082.43,-672.39 1074.98,-664.85 1071.91,-671.14"/>
</g>
<!-- Node36&#45;&gt;Node19 -->
<g id="edge110" class="edge">
<title>Node36&#45;&gt;Node19</title>
<path fill="none" stroke="midnightblue" d="M885.93,-336.44C856.59,-329.12 815.96,-317.05 783,-300 693.36,-253.65 602.32,-173.03 565.73,-138.95"/>
<polygon fill="midnightblue" stroke="midnightblue" points="567.69,-135.99 558.01,-131.69 562.9,-141.09 567.69,-135.99"/>
</g>
<!-- Node36&#45;&gt;Node20 -->
<g id="edge113" class="edge">
<title>Node36&#45;&gt;Node20</title>
<path fill="none" stroke="midnightblue" d="M897.71,-336.41C858.8,-322.82 787.49,-292.8 746,-244 718.96,-212.2 699.7,-166.6 690.36,-141.44"/>
<polygon fill="midnightblue" stroke="midnightblue" points="693.55,-139.95 686.88,-131.72 686.96,-142.31 693.55,-139.95"/>
</g>
<!-- Node36&#45;&gt;Node21 -->
<g id="edge114" class="edge">
<title>Node36&#45;&gt;Node21</title>
<path fill="none" stroke="midnightblue" d="M951.21,-336.4C974.94,-328.23 1010.58,-314.99 1040,-300 1136.88,-250.62 1143.96,-205.58 1246,-168 1347.77,-130.52 1477.62,-123.82 1539.34,-122.91"/>
<polygon fill="midnightblue" stroke="midnightblue" points="1539.38,-126.41 1549.34,-122.8 1539.31,-119.41 1539.38,-126.41"/>
</g>
<!-- Node36&#45;&gt;Node22 -->
<g id="edge115" class="edge">
<title>Node36&#45;&gt;Node22</title>
<path fill="none" stroke="midnightblue" d="M931.51,-336.3C956.29,-303.15 1045.08,-184.41 1078.32,-139.96"/>
<polygon fill="midnightblue" stroke="midnightblue" points="1081.17,-141.99 1084.36,-131.88 1075.57,-137.8 1081.17,-141.99"/>
</g>
<!-- Node36&#45;&gt;Node23 -->
<g id="edge117" class="edge">
<title>Node36&#45;&gt;Node23</title>
<path fill="none" stroke="midnightblue" d="M881.94,-336.61C844.85,-328.84 790.18,-316.07 744,-300 601.35,-250.36 439.53,-168.06 378.78,-136.18"/>
<polygon fill="midnightblue" stroke="midnightblue" points="380.39,-133.07 369.91,-131.51 377.13,-139.26 380.39,-133.07"/>
</g>
<!-- Node36&#45;&gt;Node24 -->
<g id="edge120" class="edge">
<title>Node36&#45;&gt;Node24</title>
<path fill="none" stroke="midnightblue" d="M940.36,-355.58C993.11,-384.64 1172.55,-479.95 1333,-524 1452.16,-556.71 1488.63,-542.86 1614.77,-559.89"/>
<polygon fill="midnightblue" stroke="midnightblue" points="1614.43,-563.38 1624.81,-561.29 1615.39,-556.44 1614.43,-563.38"/>
</g>
<!-- Node36&#45;&gt;Node26 -->
<g id="edge121" class="edge">
<title>Node36&#45;&gt;Node26</title>
<path fill="none" stroke="midnightblue" d="M968.33,-343.79C1059.28,-340.71 1276.55,-330.52 1456,-300 1476.71,-296.48 1600.29,-263.78 1666.38,-246.14"/>
<polygon fill="midnightblue" stroke="midnightblue" points="1667.32,-249.52 1676.08,-243.55 1665.51,-242.75 1667.32,-249.52"/>
</g>
<!-- Node36&#45;&gt;Node28 -->
<g id="edge118" class="edge">
<title>Node36&#45;&gt;Node28</title>
<path fill="none" stroke="midnightblue" d="M926.07,-336.08C927.69,-323.47 931.08,-299.77 936,-280 948.72,-228.85 969.93,-170.34 980.92,-141.32"/>
<polygon fill="midnightblue" stroke="midnightblue" points="984.29,-142.3 984.59,-131.71 977.75,-139.8 984.29,-142.3"/>
</g>
<!-- Node36&#45;&gt;Node29 -->
<g id="edge122" class="edge">
<title>Node36&#45;&gt;Node29</title>
<path fill="none" stroke="midnightblue" d="M967.95,-336.43C1148.96,-300.33 1847.58,-160.98 2005.95,-129.39"/>
<polygon fill="midnightblue" stroke="midnightblue" points="2006.88,-132.78 2016,-127.39 2005.51,-125.91 2006.88,-132.78"/>
</g>
<!-- Node36&#45;&gt;Node30 -->
<g id="edge124" class="edge">
<title>Node36&#45;&gt;Node30</title>
<path fill="none" stroke="midnightblue" d="M964.87,-355.54C999.51,-363.44 1050.75,-376.32 1094,-392 1113.82,-399.18 1116.82,-405.92 1137,-412 1233.79,-441.16 1354.2,-451.94 1407.47,-455.47"/>
<polygon fill="midnightblue" stroke="midnightblue" points="1407.29,-458.96 1417.49,-456.1 1407.73,-451.98 1407.29,-458.96"/>
</g>
<!-- Node36&#45;&gt;Node31 -->
<g id="edge128" class="edge">
<title>Node36&#45;&gt;Node31</title>
<path fill="none" stroke="midnightblue" d="M968.13,-354.9C1015.54,-364.25 1091.21,-379.87 1139.8,-390.3"/>
<polygon fill="midnightblue" stroke="midnightblue" points="1139.22,-393.76 1149.73,-392.44 1140.7,-386.91 1139.22,-393.76"/>
</g>
<!-- Node36&#45;&gt;Node32 -->
<g id="edge125" class="edge">
<title>Node36&#45;&gt;Node32</title>
<path fill="none" stroke="midnightblue" d="M934.13,-355.55C970.38,-389.09 1108.79,-513.04 1244,-580 1274.62,-595.16 1311.39,-606.46 1340.37,-613.94"/>
<polygon fill="midnightblue" stroke="midnightblue" points="1339.72,-617.39 1350.27,-616.43 1341.42,-610.6 1339.72,-617.39"/>
</g>
<!-- Node36&#45;&gt;Node34 -->
<g id="edge127" class="edge">
<title>Node36&#45;&gt;Node34</title>
<path fill="none" stroke="midnightblue" d="M968.08,-342.78C1133.32,-334.28 1726.85,-303.72 1915.8,-294"/>
<polygon fill="midnightblue" stroke="midnightblue" points="1916,-297.49 1925.81,-293.48 1915.64,-290.5 1916,-297.49"/>
</g>
<!-- Node37&#45;&gt;Node3 -->
<g id="edge138" class="edge">
<title>Node37&#45;&gt;Node3</title>
<path fill="none" stroke="midnightblue" d="M1792.04,-505.53C1822.22,-497.26 1871.48,-483.09 1913,-468 2118.12,-393.44 2168.01,-364.47 2350,-244 2408.18,-205.49 2440.77,-199.07 2460,-132 2462.45,-123.46 2462.58,-120.51 2460,-112 2456.88,-101.7 2450.55,-91.61 2444.5,-83.6"/>
<polygon fill="midnightblue" stroke="midnightblue" points="2447.22,-81.4 2438.21,-75.82 2441.77,-85.8 2447.22,-81.4"/>
</g>
<!-- Node37&#45;&gt;Node10 -->
<g id="edge140" class="edge">
<title>Node37&#45;&gt;Node10</title>
<path fill="none" stroke="midnightblue" d="M1735.9,-509.63C1675.85,-502.4 1530.56,-484.66 1409,-468 1070.74,-421.64 976.03,-454.11 649,-356 592.63,-339.09 581.49,-326.62 529,-300 403.62,-236.41 361.52,-230.28 261,-132 238.17,-109.68 232.11,-103.57 216,-76 207.29,-61.09 200.24,-42.72 195.69,-29.31"/>
<polygon fill="midnightblue" stroke="midnightblue" points="199.02,-28.22 192.6,-19.79 192.36,-30.38 199.02,-28.22"/>
</g>
<!-- Node37&#45;&gt;Node14 -->
<g id="edge139" class="edge">
<title>Node37&#45;&gt;Node14</title>
<path fill="none" stroke="midnightblue" d="M1792.28,-517.97C1876.63,-527.4 2123.94,-559.45 2178,-616 2204.43,-643.64 2205.66,-691.6 2203.99,-718.08"/>
<polygon fill="midnightblue" stroke="midnightblue" points="2200.49,-718.03 2203.13,-728.29 2207.46,-718.61 2200.49,-718.03"/>
</g>
<!-- Node37&#45;&gt;Node15 -->
<g id="edge137" class="edge">
<title>Node37&#45;&gt;Node15</title>
<path fill="none" stroke="midnightblue" d="M1786.2,-504.41C1867.04,-472.88 2144.64,-362.04 2216,-300 2247.95,-272.22 2265.57,-223.97 2273.25,-197.57"/>
<polygon fill="midnightblue" stroke="midnightblue" points="2276.68,-198.28 2275.95,-187.71 2269.93,-196.43 2276.68,-198.28"/>
</g>
<!-- Node37&#45;&gt;Node27 -->
<g id="edge142" class="edge">
<title>Node37&#45;&gt;Node27</title>
<path fill="none" stroke="midnightblue" d="M1754.85,-504.4C1714.62,-466.93 1548.37,-315.67 1390,-224 1366.64,-210.48 1338.44,-198.95 1316.58,-190.95"/>
<polygon fill="midnightblue" stroke="midnightblue" points="1317.61,-187.6 1307.02,-187.53 1315.25,-194.19 1317.61,-187.6"/>
</g>
<!-- Node37&#45;&gt;Node30 -->
<g id="edge141" class="edge">
<title>Node37&#45;&gt;Node30</title>
<path fill="none" stroke="midnightblue" d="M1735.95,-508.4C1673.79,-498.19 1525.08,-473.79 1462.99,-463.59"/>
<polygon fill="midnightblue" stroke="midnightblue" points="1463.21,-460.08 1452.78,-461.92 1462.08,-466.99 1463.21,-460.08"/>
</g>
<!-- Node38&#45;&gt;Node3 -->
<g id="edge152" class="edge">
<title>Node38&#45;&gt;Node3</title>
<path fill="none" stroke="midnightblue" d="M2888.61,-784.44C2887.79,-765.94 2886,-720.83 2886,-683 2886,-683 2886,-683 2886,-177 2886,-146.2 2886.32,-130.89 2862,-112 2831.95,-88.66 2580.79,-74.15 2475.82,-69.06"/>
<polygon fill="midnightblue" stroke="midnightblue" points="2475.7,-65.55 2465.54,-68.57 2475.36,-72.54 2475.7,-65.55"/>
</g>
<!-- Node38&#45;&gt;Node14 -->
<g id="edge153" class="edge">
<title>Node38&#45;&gt;Node14</title>
<path fill="none" stroke="midnightblue" d="M2868.44,-791.38C2773.12,-783.89 2373.37,-752.47 2243.18,-742.24"/>
<polygon fill="midnightblue" stroke="midnightblue" points="2243.45,-738.75 2233.21,-741.45 2242.9,-745.73 2243.45,-738.75"/>
</g>
</g>
</svg>
