<?xml version="1.0" encoding="UTF-8" standalone="no"?>
<!DOCTYPE svg PUBLIC "-//W3C//DTD SVG 1.1//EN"
 "http://www.w3.org/Graphics/SVG/1.1/DTD/svg11.dtd">
<!-- Generated by graphviz version 2.43.0 (0)
 -->
<!-- Title: Flow_Solver Pages: 1 -->
<!--zoomable 332 -->
<svg id="main" version="1.1" xmlns="http://www.w3.org/2000/svg" xmlns:xlink="http://www.w3.org/1999/xlink" xml:space="preserve" onload="init(evt)">
<style type="text/css"><![CDATA[
.edge:hover path { stroke: red; }
.edge:hover polygon { stroke: red; fill: red; }
]]></style>
<script type="text/javascript"><![CDATA[
var edges = document.getElementsByTagName('g');
if (edges && edges.length) {
  for (var i=0;i<edges.length;i++) {
    if (edges[i].id.substr(0,4)=='edge') {
      edges[i].setAttribute('class','edge');
    }
  }
}
]]></script>
        <defs>
                <circle id="rim" cx="0" cy="0" r="7"/>
                <circle id="rim2" cx="0" cy="0" r="3.5"/>
                <g id="zoomPlus">
                        <use xlink:href="#rim" fill="#404040">
                                <set attributeName="fill" to="#808080" begin="zoomplus.mouseover" end="zoomplus.mouseout"/>
                        </use>
                        <path d="M-4,0h8M0,-4v8" fill="none" stroke="white" stroke-width="1.5" pointer-events="none"/>
                </g>
                <g id="zoomMin">
                        <use xlink:href="#rim" fill="#404040">
                                <set attributeName="fill" to="#808080" begin="zoomminus.mouseover" end="zoomminus.mouseout"/>
                        </use>
                        <path d="M-4,0h8" fill="none" stroke="white" stroke-width="1.5" pointer-events="none"/>
                </g>
                <g id="dirArrow">
                        <path fill="none" stroke="white" stroke-width="1.5" d="M0,-3.0v7 M-2.5,-0.5L0,-3.0L2.5,-0.5"/>
                </g>
               <g id="resetDef">
                       <use xlink:href="#rim2" fill="#404040">
                               <set attributeName="fill" to="#808080" begin="reset.mouseover" end="reset.mouseout"/>
                       </use>
               </g>
        </defs>

<script type="text/javascript">
var viewWidth = 568;
var viewHeight = 332;
var sectionId = 'dynsection-1';
</script>
<script xlink:href="svgpan.js"/>
<svg id="graph" class="graph">
<g id="viewport">
<title>Flow_Solver</title>
<!-- Node1 -->
<g id="node1" class="node">
<title>Node1</title>
<g id="a_node1"><a xlink:title="Orchestrates a single time step of the Eulerian fluid solver.">
<polygon fill="#bfbfbf" stroke="black" points="0,-133.5 0,-152.5 76,-152.5 76,-133.5 0,-133.5"/>
<text text-anchor="middle" x="38" y="-140.5" font-family="Helvetica,sans-Serif" font-size="10.00">Flow_Solver</text>
</a>
</g>
</g>
<!-- Node2 -->
<g id="node2" class="node">
<title>Node2</title>
<g id="a_node2"><a xlink:href="variables__old_8h.html#accdc3f1a3e5c7e95c6bdde11cde3b236" target="_top" xlink:title=" ">
<polygon fill="none" stroke="black" points="152,-285.5 152,-304.5 224,-304.5 224,-285.5 152,-285.5"/>
<text text-anchor="middle" x="188" y="-292.5" font-family="Helvetica,sans-Serif" font-size="10.00">Divergence</text>
</a>
</g>
</g>
<!-- Node1&#45;&gt;Node2 -->
<g id="edge1" class="edge">
<title>Node1&#45;&gt;Node2</title>
<path fill="none" stroke="midnightblue" d="M43.09,-152.77C52.44,-174.15 77.31,-225.63 112,-257 123.15,-267.08 137.47,-275.2 150.6,-281.31"/>
<polygon fill="midnightblue" stroke="midnightblue" points="149.33,-284.57 159.89,-285.4 152.15,-278.17 149.33,-284.57"/>
</g>
<!-- Node4 -->
<g id="node4" class="node">
<title>Node4</title>
<g id="a_node4"><a xlink:href="implicitsolvers_8c.html#a148a238901a4674420c87137c087e3ac" target="_top" xlink:title="Advances the momentum equations using an iterative explicit Runge&#45;Kutta scheme.">
<polygon fill="none" stroke="black" points="163.5,-228.5 163.5,-247.5 212.5,-247.5 212.5,-228.5 163.5,-228.5"/>
<text text-anchor="middle" x="188" y="-235.5" font-family="Helvetica,sans-Serif" font-size="10.00">ImpRK</text>
</a>
</g>
</g>
<!-- Node1&#45;&gt;Node4 -->
<g id="edge3" class="edge">
<title>Node1&#45;&gt;Node4</title>
<path fill="none" stroke="midnightblue" d="M45.42,-152.58C56.84,-168.83 82.27,-201.71 112,-219 124.58,-226.32 139.95,-230.85 153.5,-233.63"/>
<polygon fill="midnightblue" stroke="midnightblue" points="152.95,-237.09 163.42,-235.44 154.21,-230.21 152.95,-237.09"/>
</g>
<!-- Node10 -->
<g id="node10" class="node">
<title>Node10</title>
<g id="a_node10"><a xlink:href="logging_8h.html#ab2315d3303d45c97ca55836603a8acd3" target="_top" xlink:title="Logs continuity metrics for a single block to a file.">
<polygon fill="none" stroke="black" points="112,-190.5 112,-209.5 264,-209.5 264,-190.5 112,-190.5"/>
<text text-anchor="middle" x="188" y="-197.5" font-family="Helvetica,sans-Serif" font-size="10.00">LOG_CONTINUITY_METRICS</text>
</a>
</g>
</g>
<!-- Node1&#45;&gt;Node10 -->
<g id="edge9" class="edge">
<title>Node1&#45;&gt;Node10</title>
<path fill="none" stroke="midnightblue" d="M54.74,-152.56C69.2,-161.01 91.44,-173.17 112,-181 118.41,-183.44 125.25,-185.67 132.08,-187.66"/>
<polygon fill="midnightblue" stroke="midnightblue" points="131.48,-191.13 142.05,-190.42 133.35,-184.38 131.48,-191.13"/>
</g>
<!-- Node11 -->
<g id="node11" class="node">
<title>Node11</title>
<g id="a_node11"><a xlink:href="poisson_8h.html#acfdf6d56006b1b5f68d400deb6cf0959" target="_top" xlink:title="Solves the pressure&#45;Poisson equation using a geometric multigrid method.">
<polygon fill="none" stroke="black" points="134.5,-152.5 134.5,-171.5 241.5,-171.5 241.5,-152.5 134.5,-152.5"/>
<text text-anchor="middle" x="188" y="-159.5" font-family="Helvetica,sans-Serif" font-size="10.00">PoissonSolver_MG</text>
</a>
</g>
</g>
<!-- Node1&#45;&gt;Node11 -->
<g id="edge10" class="edge">
<title>Node1&#45;&gt;Node11</title>
<path fill="none" stroke="midnightblue" d="M76.35,-147.79C90.88,-149.66 107.95,-151.85 124.26,-153.95"/>
<polygon fill="midnightblue" stroke="midnightblue" points="123.93,-157.43 134.29,-155.23 124.82,-150.49 123.93,-157.43"/>
</g>
<!-- Node12 -->
<g id="node12" class="node">
<title>Node12</title>
<g id="a_node12"><a xlink:href="poisson_8h.html#a34a113dcc9ca606d914c3d021a4d85fc" target="_top" xlink:title="Corrects the contravariant velocity field Ucont to be divergence&#45;free using the gradient of the press...">
<polygon fill="none" stroke="black" points="155.5,-114.5 155.5,-133.5 220.5,-133.5 220.5,-114.5 155.5,-114.5"/>
<text text-anchor="middle" x="188" y="-121.5" font-family="Helvetica,sans-Serif" font-size="10.00">Projection</text>
</a>
</g>
</g>
<!-- Node1&#45;&gt;Node12 -->
<g id="edge11" class="edge">
<title>Node1&#45;&gt;Node12</title>
<path fill="none" stroke="midnightblue" d="M76.35,-138.21C97.25,-135.52 123.36,-132.17 144.98,-129.39"/>
<polygon fill="midnightblue" stroke="midnightblue" points="145.71,-132.83 155.18,-128.08 144.82,-125.89 145.71,-132.83"/>
</g>
<!-- Node13 -->
<g id="node13" class="node">
<title>Node13</title>
<g id="a_node13"><a xlink:href="implicitsolvers_8h.html#a89ae58d48076ba82dc70438b5e389bf5" target="_top" xlink:title="Advances the momentum equations using an explicit 4th&#45;order Runge&#45;Kutta scheme.">
<polygon fill="none" stroke="black" points="151.5,-76.5 151.5,-95.5 224.5,-95.5 224.5,-76.5 151.5,-76.5"/>
<text text-anchor="middle" x="188" y="-83.5" font-family="Helvetica,sans-Serif" font-size="10.00">RungeKutta</text>
</a>
</g>
</g>
<!-- Node1&#45;&gt;Node13 -->
<g id="edge12" class="edge">
<title>Node1&#45;&gt;Node13</title>
<path fill="none" stroke="midnightblue" d="M54.74,-133.44C69.2,-124.99 91.44,-112.83 112,-105 121.41,-101.41 131.75,-98.3 141.66,-95.68"/>
<polygon fill="midnightblue" stroke="midnightblue" points="142.53,-99.07 151.37,-93.24 140.82,-92.29 142.53,-99.07"/>
</g>
<!-- Node14 -->
<g id="node14" class="node">
<title>Node14</title>
<g id="a_node14"><a xlink:href="setup_8h.html#ad5f82951adcce74b3d37cb5880acf43a" target="_top" xlink:title="Updates the local vector (including ghost points) from its corresponding global vector.">
<polygon fill="none" stroke="black" points="300,-19.5 300,-38.5 411,-38.5 411,-19.5 300,-19.5"/>
<text text-anchor="middle" x="355.5" y="-26.5" font-family="Helvetica,sans-Serif" font-size="10.00">UpdateLocalGhosts</text>
</a>
</g>
</g>
<!-- Node1&#45;&gt;Node14 -->
<g id="edge13" class="edge">
<title>Node1&#45;&gt;Node14</title>
<path fill="none" stroke="midnightblue" d="M45.08,-133.39C56.16,-116.79 81.34,-82.98 112,-67 167.33,-38.16 238.69,-29.88 289.65,-28.07"/>
<polygon fill="midnightblue" stroke="midnightblue" points="289.98,-31.57 299.88,-27.79 289.78,-24.57 289.98,-31.57"/>
</g>
<!-- Node17 -->
<g id="node17" class="node">
<title>Node17</title>
<g id="a_node17"><a xlink:href="poisson_8h.html#a7cf2cfc0383ba0076f827f7d3856f2ed" target="_top" xlink:title="Updates the pressure field P with the pressure correction Phi computed by the Poisson solver.">
<polygon fill="none" stroke="black" points="141,-0.5 141,-19.5 235,-19.5 235,-0.5 141,-0.5"/>
<text text-anchor="middle" x="188" y="-7.5" font-family="Helvetica,sans-Serif" font-size="10.00">UpdatePressure</text>
</a>
</g>
</g>
<!-- Node1&#45;&gt;Node17 -->
<g id="edge16" class="edge">
<title>Node1&#45;&gt;Node17</title>
<path fill="none" stroke="midnightblue" d="M42.86,-133.25C51.76,-112 75.79,-61.26 112,-34 117.78,-29.65 124.38,-26.07 131.21,-23.13"/>
<polygon fill="midnightblue" stroke="midnightblue" points="132.54,-26.37 140.61,-19.51 130.02,-19.84 132.54,-26.37"/>
</g>
<!-- Node3 -->
<g id="node3" class="node">
<title>Node3</title>
<g id="a_node3"><a xlink:href="setup_8c.html#a3d538200fed5b9ee9d1ef391bb61036c" target="_top" xlink:title=" ">
<polygon fill="none" stroke="black" points="336,-304.5 336,-323.5 375,-323.5 375,-304.5 336,-304.5"/>
<text text-anchor="middle" x="355.5" y="-311.5" font-family="Helvetica,sans-Serif" font-size="10.00">Gidx</text>
</a>
</g>
</g>
<!-- Node2&#45;&gt;Node3 -->
<g id="edge2" class="edge">
<title>Node2&#45;&gt;Node3</title>
<path fill="none" stroke="midnightblue" d="M224.1,-299.03C254.39,-302.51 297.6,-307.47 325.84,-310.71"/>
<polygon fill="midnightblue" stroke="midnightblue" points="325.54,-314.2 335.88,-311.86 326.34,-307.24 325.54,-314.2"/>
</g>
<!-- Node5 -->
<g id="node5" class="node">
<title>Node5</title>
<g id="a_node5"><a xlink:href="Boundaries_8h.html#adcd96cff4b9e15e03cdff9f5ea695dec" target="_top" xlink:title=" ">
<polygon fill="none" stroke="black" points="325,-266.5 325,-285.5 386,-285.5 386,-266.5 325,-266.5"/>
<text text-anchor="middle" x="355.5" y="-273.5" font-family="Helvetica,sans-Serif" font-size="10.00">FormBCS</text>
</a>
</g>
</g>
<!-- Node4&#45;&gt;Node5 -->
<g id="edge4" class="edge">
<title>Node4&#45;&gt;Node5</title>
<path fill="none" stroke="midnightblue" d="M212.71,-243.44C239.41,-249.57 283.21,-259.63 315.07,-266.95"/>
<polygon fill="midnightblue" stroke="midnightblue" points="314.43,-270.39 324.96,-269.22 316,-263.57 314.43,-270.39"/>
</g>
<!-- Node6 -->
<g id="node6" class="node">
<title>Node6</title>
<g id="a_node6"><a xlink:href="rhs_8h.html#ae8a0a7cb4587034d295f6c7f23d70465" target="_top" xlink:title="Computes the Right&#45;Hand Side (RHS) of the momentum equations.">
<polygon fill="none" stroke="black" points="311,-228.5 311,-247.5 400,-247.5 400,-228.5 311,-228.5"/>
<text text-anchor="middle" x="355.5" y="-235.5" font-family="Helvetica,sans-Serif" font-size="10.00">FormFunction1</text>
</a>
</g>
</g>
<!-- Node4&#45;&gt;Node6 -->
<g id="edge5" class="edge">
<title>Node4&#45;&gt;Node6</title>
<path fill="none" stroke="midnightblue" d="M212.71,-238C235.58,-238 270.99,-238 300.71,-238"/>
<polygon fill="midnightblue" stroke="midnightblue" points="300.95,-241.5 310.95,-238 300.95,-234.5 300.95,-241.5"/>
</g>
<!-- Node7 -->
<g id="node7" class="node">
<title>Node7</title>
<g id="a_node7"><a xlink:href="Boundaries_8h.html#abd9b573f8f42ea93e265da37a0673f24" target="_top" xlink:title=" ">
<polygon fill="none" stroke="black" points="321.5,-190.5 321.5,-209.5 389.5,-209.5 389.5,-190.5 321.5,-190.5"/>
<text text-anchor="middle" x="355.5" y="-197.5" font-family="Helvetica,sans-Serif" font-size="10.00">InflowFlux</text>
</a>
</g>
</g>
<!-- Node4&#45;&gt;Node7 -->
<g id="edge6" class="edge">
<title>Node4&#45;&gt;Node7</title>
<path fill="none" stroke="midnightblue" d="M212.71,-232.56C238.44,-226.65 280.05,-217.09 311.56,-209.86"/>
<polygon fill="midnightblue" stroke="midnightblue" points="312.44,-213.25 321.4,-207.6 310.87,-206.43 312.44,-213.25"/>
</g>
<!-- Node9 -->
<g id="node9" class="node">
<title>Node9</title>
<g id="a_node9"><a xlink:href="Boundaries_8h.html#a684320111be78b3001fda2ba25638e79" target="_top" xlink:title=" ">
<polygon fill="none" stroke="black" points="317.5,-152.5 317.5,-171.5 393.5,-171.5 393.5,-152.5 317.5,-152.5"/>
<text text-anchor="middle" x="355.5" y="-159.5" font-family="Helvetica,sans-Serif" font-size="10.00">OutflowFlux</text>
</a>
</g>
</g>
<!-- Node4&#45;&gt;Node9 -->
<g id="edge8" class="edge">
<title>Node4&#45;&gt;Node9</title>
<path fill="none" stroke="midnightblue" d="M212.6,-235.48C228.06,-233.02 248.24,-228.24 264,-219 284.07,-207.23 280.46,-193.63 300,-181 303.08,-179.01 306.4,-177.19 309.83,-175.55"/>
<polygon fill="midnightblue" stroke="midnightblue" points="311.23,-178.76 319.04,-171.59 308.47,-172.32 311.23,-178.76"/>
</g>
<!-- Node8 -->
<g id="node8" class="node">
<title>Node8</title>
<g id="a_node8"><a xlink:href="Boundaries_8c.html#aa8017de37ede2f3151c445aafec42714" target="_top" xlink:title=" ">
<polygon fill="none" stroke="black" points="453,-190.5 453,-209.5 554,-209.5 554,-190.5 453,-190.5"/>
<text text-anchor="middle" x="503.5" y="-197.5" font-family="Helvetica,sans-Serif" font-size="10.00">InletInterpolation</text>
</a>
</g>
</g>
<!-- Node7&#45;&gt;Node8 -->
<g id="edge7" class="edge">
<title>Node7&#45;&gt;Node8</title>
<path fill="none" stroke="midnightblue" d="M389.63,-200C405.32,-200 424.55,-200 442.66,-200"/>
<polygon fill="midnightblue" stroke="midnightblue" points="442.86,-203.5 452.86,-200 442.86,-196.5 442.86,-203.5"/>
</g>
<!-- Node15 -->
<g id="node15" class="node">
<title>Node15</title>
<g id="a_node15"><a xlink:href="logging_8h.html#a9585f583c260f40a73f2490914edc689" target="_top" xlink:title="Retrieves the current logging level from the environment variable LOG_LEVEL.">
<polygon fill="none" stroke="black" points="462.5,-38.5 462.5,-57.5 544.5,-57.5 544.5,-38.5 462.5,-38.5"/>
<text text-anchor="middle" x="503.5" y="-45.5" font-family="Helvetica,sans-Serif" font-size="10.00">get_log_level</text>
</a>
</g>
</g>
<!-- Node14&#45;&gt;Node15 -->
<g id="edge14" class="edge">
<title>Node14&#45;&gt;Node15</title>
<path fill="none" stroke="midnightblue" d="M411.28,-36.13C424.69,-37.87 438.97,-39.73 452.16,-41.45"/>
<polygon fill="midnightblue" stroke="midnightblue" points="452.1,-44.97 462.46,-42.79 453,-38.03 452.1,-44.97"/>
</g>
<!-- Node16 -->
<g id="node16" class="node">
<title>Node16</title>
<g id="a_node16"><a xlink:href="logging_8h.html#a2358badbcda33fc9d80ebd6a59d2a2cd" target="_top" xlink:title="Checks if a given function is in the allow&#45;list.">
<polygon fill="none" stroke="black" points="447,-0.5 447,-19.5 560,-19.5 560,-0.5 447,-0.5"/>
<text text-anchor="middle" x="503.5" y="-7.5" font-family="Helvetica,sans-Serif" font-size="10.00">is_function_allowed</text>
</a>
</g>
</g>
<!-- Node14&#45;&gt;Node16 -->
<g id="edge15" class="edge">
<title>Node14&#45;&gt;Node16</title>
<path fill="none" stroke="midnightblue" d="M411.28,-21.87C419.66,-20.78 428.37,-19.65 436.95,-18.53"/>
<polygon fill="midnightblue" stroke="midnightblue" points="437.46,-21.99 446.93,-17.23 436.56,-15.05 437.46,-21.99"/>
</g>
<!-- Node17&#45;&gt;Node14 -->
<g id="edge17" class="edge">
<title>Node17&#45;&gt;Node14</title>
<path fill="none" stroke="midnightblue" d="M235.1,-15.29C252.05,-17.24 271.57,-19.48 289.84,-21.58"/>
<polygon fill="midnightblue" stroke="midnightblue" points="289.51,-25.06 299.85,-22.73 290.31,-18.11 289.51,-25.06"/>
</g>
</g>
</svg>
        <g id="navigator" transform="translate(0 0)" fill="#404254">
                <rect fill="#f2f5e9" fill-opacity="0.5" stroke="#606060" stroke-width=".5" x="0" y="0" width="60" height="60"/>
                <use id="zoomplus" xlink:href="#zoomPlus" x="17" y="9" onmousedown="handleZoom(evt,'in')"/>
                <use id="zoomminus" xlink:href="#zoomMin" x="42" y="9" onmousedown="handleZoom(evt,'out')"/>
                <use id="reset" xlink:href="#resetDef" x="30" y="36" onmousedown="handleReset()"/>
                <g id="arrowUp" xlink:href="#dirArrow" transform="translate(30 24)" onmousedown="handlePan(0,-1)">
                  <use xlink:href="#rim" fill="#404040">
                        <set attributeName="fill" to="#808080" begin="arrowUp.mouseover" end="arrowUp.mouseout"/>
                  </use>
                  <path fill="none" stroke="white" stroke-width="1.5" d="M0,-3.0v7 M-2.5,-0.5L0,-3.0L2.5,-0.5"/>
                </g>
                <g id="arrowRight" xlink:href="#dirArrow" transform="rotate(90) translate(36 -43)" onmousedown="handlePan(1,0)">
                  <use xlink:href="#rim" fill="#404040">
                        <set attributeName="fill" to="#808080" begin="arrowRight.mouseover" end="arrowRight.mouseout"/>
                  </use>
                  <path fill="none" stroke="white" stroke-width="1.5" d="M0,-3.0v7 M-2.5,-0.5L0,-3.0L2.5,-0.5"/>
                </g>
                <g id="arrowDown" xlink:href="#dirArrow" transform="rotate(180) translate(-30 -48)" onmousedown="handlePan(0,1)">
                  <use xlink:href="#rim" fill="#404040">
                        <set attributeName="fill" to="#808080" begin="arrowDown.mouseover" end="arrowDown.mouseout"/>
                  </use>
                  <path fill="none" stroke="white" stroke-width="1.5" d="M0,-3.0v7 M-2.5,-0.5L0,-3.0L2.5,-0.5"/>
                </g>
                <g id="arrowLeft" xlink:href="#dirArrow" transform="rotate(270) translate(-36 17)" onmousedown="handlePan(-1,0)">
                  <use xlink:href="#rim" fill="#404040">
                        <set attributeName="fill" to="#808080" begin="arrowLeft.mouseover" end="arrowLeft.mouseout"/>
                  </use>
                  <path fill="none" stroke="white" stroke-width="1.5" d="M0,-3.0v7 M-2.5,-0.5L0,-3.0L2.5,-0.5"/>
                </g>
        </g>
        <svg viewBox="0 0 15 15" width="100%" height="30px" preserveAspectRatio="xMaxYMin meet">
         <g id="arrow_out" transform="scale(0.3 0.3)">
          <a xlink:href="solvers_8c_a2ed4825273a593f371a3d48071708255_cgraph_org.svg" target="_base">
           <rect id="button" ry="5" rx="5" y="6" x="6" height="38" width="38"
                fill="#f2f5e9" fill-opacity="0.5" stroke="#606060" stroke-width="1.0"/>
           <path id="arrow"
             d="M 11.500037,31.436501 C 11.940474,20.09759 22.043105,11.32322 32.158766,21.979434 L 37.068811,17.246167 C 37.068811,17.246167 37.088388,32 37.088388,32 L 22.160133,31.978069 C 22.160133,31.978069 26.997745,27.140456 26.997745,27.140456 C 18.528582,18.264221 13.291696,25.230495 11.500037,31.436501 z"
             style="fill:#404040;"/>
          </a>
         </g>
        </svg>
</svg>
