<?xml version="1.0" encoding="UTF-8" standalone="no"?>
<!DOCTYPE svg PUBLIC "-//W3C//DTD SVG 1.1//EN"
 "http://www.w3.org/Graphics/SVG/1.1/DTD/svg11.dtd">
<!-- Generated by graphviz version 2.43.0 (0)
 -->
<!-- Title: UserCtx Pages: 1 -->
<svg width="1189pt" height="626pt"
 viewBox="0.00 0.00 1189.00 626.21" xmlns="http://www.w3.org/2000/svg" xmlns:xlink="http://www.w3.org/1999/xlink">
<g id="graph0" class="graph" transform="scale(1 1) rotate(0) translate(4 622.21)">
<title>UserCtx</title>
<!-- Node1 -->
<g id="node1" class="node">
<title>Node1</title>
<g id="a_node1"><a xlink:title="User&#45;defined context containing data specific to a single computational grid level.">
<polygon fill="#bfbfbf" stroke="black" points="756,-331.71 756,-350.71 812,-350.71 812,-331.71 756,-331.71"/>
<text text-anchor="middle" x="784" y="-338.71" font-family="Helvetica,sans-Serif" font-size="10.00">UserCtx</text>
</a>
</g>
</g>
<!-- Node1&#45;&gt;Node1 -->
<g id="edge29" class="edge">
<title>Node1&#45;&gt;Node1</title>
<path fill="none" stroke="#9a32cd" stroke-dasharray="5,2" d="M773.32,-360.97C774.16,-365.7 777.72,-369.21 784,-369.21 794.31,-369.21 797.29,-359.77 792.94,-350.96"/>
<polygon fill="#9a32cd" stroke="#9a32cd" points="776.79,-361.42 775.06,-350.96 769.9,-360.22 776.79,-361.42"/>
<text text-anchor="middle" x="784" y="-383.21" font-family="Helvetica,sans-Serif" font-size="10.00"> user_f</text>
<text text-anchor="middle" x="784" y="-372.21" font-family="Helvetica,sans-Serif" font-size="10.00">user_c</text>
</g>
<!-- Node4 -->
<g id="node4" class="node">
<title>Node4</title>
<g id="a_node4"><a xlink:href="variables__old_8h.html#structMGCtx" target="_top" xlink:title="Context for Multigrid operations.">
<polygon fill="none" stroke="black" points="873,-293.71 873,-312.71 923,-312.71 923,-293.71 873,-293.71"/>
<text text-anchor="middle" x="898" y="-300.71" font-family="Helvetica,sans-Serif" font-size="10.00">MGCtx</text>
</a>
</g>
</g>
<!-- Node1&#45;&gt;Node4 -->
<g id="edge4" class="edge">
<title>Node1&#45;&gt;Node4</title>
<path fill="none" stroke="#9a32cd" stroke-dasharray="5,2" d="M808.16,-326.52C814.98,-322.7 822.61,-318.9 830,-316.21 843.8,-311.18 859.96,-307.97 872.94,-306"/>
<polygon fill="#9a32cd" stroke="#9a32cd" points="806.28,-323.56 799.44,-331.64 809.83,-329.59 806.28,-323.56"/>
<text text-anchor="middle" x="842.5" y="-319.21" font-family="Helvetica,sans-Serif" font-size="10.00"> user</text>
</g>
<!-- Node2 -->
<g id="node2" class="node">
<title>Node2</title>
<g id="a_node2"><a xlink:href="variables_8h.html#structSimCtx" target="_top" xlink:title="The master context for the entire simulation.">
<polygon fill="none" stroke="black" points="1129,-293.71 1129,-312.71 1181,-312.71 1181,-293.71 1129,-293.71"/>
<text text-anchor="middle" x="1155" y="-300.71" font-family="Helvetica,sans-Serif" font-size="10.00">SimCtx</text>
</a>
</g>
</g>
<!-- Node2&#45;&gt;Node1 -->
<g id="edge1" class="edge">
<title>Node2&#45;&gt;Node1</title>
<path fill="none" stroke="#9a32cd" stroke-dasharray="5,2" d="M1120.67,-315.79C1117.44,-316.72 1114.18,-317.55 1111,-318.21 1002.08,-340.63 868.85,-342.2 812.38,-341.7"/>
<polygon fill="#9a32cd" stroke="#9a32cd" points="1121.74,-319.13 1130.21,-312.76 1119.62,-312.46 1121.74,-319.13"/>
<text text-anchor="middle" x="960" y="-341.21" font-family="Helvetica,sans-Serif" font-size="10.00"> simCtx</text>
</g>
<!-- Node3 -->
<g id="node3" class="node">
<title>Node3</title>
<g id="a_node3"><a xlink:href="variables__old_8h.html#structUserMG" target="_top" xlink:title="User&#45;level context for managing the entire multigrid hierarchy.">
<polygon fill="none" stroke="black" points="997,-293.71 997,-312.71 1053,-312.71 1053,-293.71 997,-293.71"/>
<text text-anchor="middle" x="1025" y="-300.71" font-family="Helvetica,sans-Serif" font-size="10.00">UserMG</text>
</a>
</g>
</g>
<!-- Node3&#45;&gt;Node2 -->
<g id="edge2" class="edge">
<title>Node3&#45;&gt;Node2</title>
<path fill="none" stroke="#9a32cd" stroke-dasharray="5,2" d="M1063.33,-303.21C1084.32,-303.21 1109.98,-303.21 1128.63,-303.21"/>
<polygon fill="#9a32cd" stroke="#9a32cd" points="1063.15,-299.71 1053.15,-303.21 1063.15,-306.71 1063.15,-299.71"/>
<text text-anchor="middle" x="1091" y="-306.21" font-family="Helvetica,sans-Serif" font-size="10.00"> usermg</text>
</g>
<!-- Node4&#45;&gt;Node3 -->
<g id="edge3" class="edge">
<title>Node4&#45;&gt;Node3</title>
<path fill="none" stroke="#9a32cd" stroke-dasharray="5,2" d="M933.37,-303.21C953.4,-303.21 978.3,-303.21 996.93,-303.21"/>
<polygon fill="#9a32cd" stroke="#9a32cd" points="933.1,-299.71 923.1,-303.21 933.1,-306.71 933.1,-299.71"/>
<text text-anchor="middle" x="960" y="-306.21" font-family="Helvetica,sans-Serif" font-size="10.00"> mgctx</text>
</g>
<!-- Node5 -->
<g id="node5" class="node">
<title>Node5</title>
<g id="a_node5"><a xlink:href="variables__old_8h.html#structIBMNodes" target="_top" xlink:title="Represents a collection of nodes forming a surface for the IBM.">
<polygon fill="none" stroke="black" points="521.5,-571.71 521.5,-590.71 587.5,-590.71 587.5,-571.71 521.5,-571.71"/>
<text text-anchor="middle" x="554.5" y="-578.71" font-family="Helvetica,sans-Serif" font-size="10.00">IBMNodes</text>
</a>
</g>
</g>
<!-- Node5&#45;&gt;Node1 -->
<g id="edge20" class="edge">
<title>Node5&#45;&gt;Node1</title>
<path fill="none" stroke="#9a32cd" stroke-dasharray="5,2" d="M597.8,-583.19C639.23,-582.71 701.31,-575.15 738,-538.21 764.95,-511.08 778.63,-387.3 782.1,-351.15"/>
<polygon fill="#9a32cd" stroke="#9a32cd" points="597.75,-579.69 587.74,-583.17 597.74,-586.69 597.75,-579.69"/>
<text text-anchor="middle" x="684.5" y="-583.21" font-family="Helvetica,sans-Serif" font-size="10.00"> ibm</text>
</g>
<!-- Node5&#45;&gt;Node2 -->
<g id="edge5" class="edge">
<title>Node5&#45;&gt;Node2</title>
<path fill="none" stroke="#9a32cd" stroke-dasharray="5,2" d="M597.87,-588.97C643.43,-596.63 718.09,-607.21 783,-607.21 783,-607.21 783,-607.21 1026,-607.21 1156.85,-607.21 1156.09,-365.01 1154.42,-312.98"/>
<polygon fill="#9a32cd" stroke="#9a32cd" points="598.21,-585.48 587.77,-587.24 597.03,-592.38 598.21,-585.48"/>
<text text-anchor="middle" x="898" y="-610.21" font-family="Helvetica,sans-Serif" font-size="10.00"> ibm</text>
</g>
<!-- Node6 -->
<g id="node6" class="node">
<title>Node6</title>
<g id="a_node6"><a xlink:href="variables__old_8h.html#structCmpnts" target="_top" xlink:title="A 3D point or vector with PetscScalar components.">
<polygon fill="none" stroke="black" points="0,-318.71 0,-337.71 54,-337.71 54,-318.71 0,-318.71"/>
<text text-anchor="middle" x="27" y="-325.71" font-family="Helvetica,sans-Serif" font-size="10.00">Cmpnts</text>
</a>
</g>
</g>
<!-- Node6&#45;&gt;Node1 -->
<g id="edge21" class="edge">
<title>Node6&#45;&gt;Node1</title>
<path fill="none" stroke="#9a32cd" stroke-dasharray="5,2" d="M64.45,-330.65C117.24,-334.04 218.07,-340.03 304,-342.21 352.87,-343.45 365.46,-348.04 414,-342.21 451.24,-337.73 458.76,-326.68 496,-322.21 547.63,-316 561.08,-319.32 613,-322.21 663.7,-325.03 722.52,-332.56 755.99,-337.25"/>
<polygon fill="#9a32cd" stroke="#9a32cd" points="64.45,-327.14 54.24,-329.98 63.99,-334.12 64.45,-327.14"/>
<text text-anchor="middle" x="359" y="-347.21" font-family="Helvetica,sans-Serif" font-size="10.00"> InitialConstantContra</text>
</g>
<!-- Node6&#45;&gt;Node2 -->
<g id="edge7" class="edge">
<title>Node6&#45;&gt;Node2</title>
<path fill="none" stroke="#9a32cd" stroke-dasharray="5,2" d="M28.56,-308.56C31.41,-248.15 48.86,-69.21 155.5,-69.21 155.5,-69.21 155.5,-69.21 1026,-69.21 1071.24,-69.21 1084.99,-88.2 1111,-125.21 1149.39,-179.83 1153.73,-264.62 1154.05,-293.32"/>
<polygon fill="#9a32cd" stroke="#9a32cd" points="25.05,-308.56 28.17,-318.68 32.05,-308.82 25.05,-308.56"/>
<text text-anchor="middle" x="684.5" y="-72.21" font-family="Helvetica,sans-Serif" font-size="10.00"> InitialConstantContra</text>
</g>
<!-- Node6&#45;&gt;Node5 -->
<g id="edge6" class="edge">
<title>Node6&#45;&gt;Node5</title>
<path fill="none" stroke="#9a32cd" stroke-dasharray="5,2" d="M36.36,-347.02C44.18,-363.4 56.89,-387.26 72,-405.21 121.31,-463.78 142.37,-474.63 213,-504.21 320.89,-549.39 459.63,-570.21 521.39,-577.72"/>
<polygon fill="#9a32cd" stroke="#9a32cd" points="39.53,-345.52 32.15,-337.91 33.17,-348.46 39.53,-345.52"/>
<text text-anchor="middle" x="249.5" y="-565.21" font-family="Helvetica,sans-Serif" font-size="10.00"> qvec</text>
<text text-anchor="middle" x="249.5" y="-554.21" font-family="Helvetica,sans-Serif" font-size="10.00">uold</text>
<text text-anchor="middle" x="249.5" y="-543.21" font-family="Helvetica,sans-Serif" font-size="10.00">urm1</text>
<text text-anchor="middle" x="249.5" y="-532.21" font-family="Helvetica,sans-Serif" font-size="10.00">u</text>
</g>
<!-- Node8 -->
<g id="node8" class="node">
<title>Node8</title>
<g id="a_node8"><a xlink:href="variables__old_8h.html#structIBMInfo" target="_top" xlink:title="Holds interpolation and distance information for a single IBM point.">
<polygon fill="none" stroke="black" points="129.5,-168.71 129.5,-187.71 183.5,-187.71 183.5,-168.71 129.5,-168.71"/>
<text text-anchor="middle" x="156.5" y="-175.71" font-family="Helvetica,sans-Serif" font-size="10.00">IBMInfo</text>
</a>
</g>
</g>
<!-- Node6&#45;&gt;Node8 -->
<g id="edge10" class="edge">
<title>Node6&#45;&gt;Node8</title>
<path fill="none" stroke="#9a32cd" stroke-dasharray="5,2" d="M42.86,-310.73C69.87,-278.95 126.16,-212.72 147.27,-187.89"/>
<polygon fill="#9a32cd" stroke="#9a32cd" points="40.18,-308.48 36.37,-318.37 45.51,-313.01 40.18,-308.48"/>
<text text-anchor="middle" x="86" y="-278.21" font-family="Helvetica,sans-Serif" font-size="10.00"> pmin</text>
</g>
<!-- Node10 -->
<g id="node10" class="node">
<title>Node10</title>
<g id="a_node10"><a xlink:href="variables__old_8h.html#structBoundingBox" target="_top" xlink:title="Defines a 3D axis&#45;aligned bounding box.">
<polygon fill="none" stroke="black" points="514,-521.71 514,-540.71 595,-540.71 595,-521.71 514,-521.71"/>
<text text-anchor="middle" x="554.5" y="-528.71" font-family="Helvetica,sans-Serif" font-size="10.00">BoundingBox</text>
</a>
</g>
</g>
<!-- Node6&#45;&gt;Node10 -->
<g id="edge13" class="edge">
<title>Node6&#45;&gt;Node10</title>
<path fill="none" stroke="#9a32cd" stroke-dasharray="5,2" d="M38.65,-346.63C46.47,-358.63 58.12,-373.77 72,-383.21 215.92,-481.06 427.04,-516.21 513.92,-527.02"/>
<polygon fill="#9a32cd" stroke="#9a32cd" points="41.46,-344.52 33.24,-337.84 35.5,-348.19 41.46,-344.52"/>
<text text-anchor="middle" x="249.5" y="-492.21" font-family="Helvetica,sans-Serif" font-size="10.00"> max_coords</text>
<text text-anchor="middle" x="249.5" y="-481.21" font-family="Helvetica,sans-Serif" font-size="10.00">min_coords</text>
</g>
<!-- Node11 -->
<g id="node11" class="node">
<title>Node11</title>
<g id="a_node11"><a xlink:href="variables__old_8h.html#structIBMVNodes" target="_top" xlink:title="Represents a collection of nodes forming a volume for the IBM.">
<polygon fill="none" stroke="black" points="213,-15.71 213,-34.71 286,-34.71 286,-15.71 213,-15.71"/>
<text text-anchor="middle" x="249.5" y="-22.71" font-family="Helvetica,sans-Serif" font-size="10.00">IBMVNodes</text>
</a>
</g>
</g>
<!-- Node6&#45;&gt;Node11 -->
<g id="edge15" class="edge">
<title>Node6&#45;&gt;Node11</title>
<path fill="none" stroke="#9a32cd" stroke-dasharray="5,2" d="M27.65,-308.19C27.03,-246.24 28.84,-59.6 72,-22.21 114.39,14.52 186.36,-2.79 223.97,-15.66"/>
<polygon fill="#9a32cd" stroke="#9a32cd" points="24.15,-308.59 27.79,-318.54 31.15,-308.49 24.15,-308.59"/>
<text text-anchor="middle" x="86" y="-47.21" font-family="Helvetica,sans-Serif" font-size="10.00"> uold</text>
<text text-anchor="middle" x="86" y="-36.21" font-family="Helvetica,sans-Serif" font-size="10.00">urm1</text>
<text text-anchor="middle" x="86" y="-25.21" font-family="Helvetica,sans-Serif" font-size="10.00">u</text>
</g>
<!-- Node7 -->
<g id="node7" class="node">
<title>Node7</title>
<g id="a_node7"><a xlink:href="variables__old_8h.html#structFSInfo" target="_top" xlink:title="Holds all data related to the state and motion of a body in FSI.">
<polygon fill="none" stroke="black" points="335.5,-103.71 335.5,-122.71 382.5,-122.71 382.5,-103.71 335.5,-103.71"/>
<text text-anchor="middle" x="359" y="-110.71" font-family="Helvetica,sans-Serif" font-size="10.00">FSInfo</text>
</a>
</g>
</g>
<!-- Node7&#45;&gt;Node2 -->
<g id="edge8" class="edge">
<title>Node7&#45;&gt;Node2</title>
<path fill="none" stroke="#9a32cd" stroke-dasharray="5,2" d="M392.74,-113.21C431.22,-113.21 497,-113.21 553.5,-113.21 553.5,-113.21 553.5,-113.21 1026,-113.21 1113.9,-113.21 1145.43,-254.81 1152.41,-293.52"/>
<polygon fill="#9a32cd" stroke="#9a32cd" points="392.64,-109.71 382.64,-113.21 392.64,-116.71 392.64,-109.71"/>
<text text-anchor="middle" x="842.5" y="-116.21" font-family="Helvetica,sans-Serif" font-size="10.00"> fsi</text>
</g>
<!-- Node8&#45;&gt;Node1 -->
<g id="edge16" class="edge">
<title>Node8&#45;&gt;Node1</title>
<path fill="none" stroke="#9a32cd" stroke-dasharray="5,2" d="M193.39,-172.15C306.47,-153.89 652.85,-104.57 738,-170.21 764.26,-190.45 778.24,-298.27 781.97,-331.47"/>
<polygon fill="#9a32cd" stroke="#9a32cd" points="192.81,-168.7 183.5,-173.76 193.93,-175.6 192.81,-168.7"/>
<text text-anchor="middle" x="455" y="-145.21" font-family="Helvetica,sans-Serif" font-size="10.00"> ibm_intp</text>
</g>
<!-- Node8&#45;&gt;Node7 -->
<g id="edge9" class="edge">
<title>Node8&#45;&gt;Node7</title>
<path fill="none" stroke="#9a32cd" stroke-dasharray="5,2" d="M175.39,-161.57C185.65,-152.95 199.21,-143.04 213,-137.21 253.89,-119.91 306.18,-115.04 335.49,-113.69"/>
<polygon fill="#9a32cd" stroke="#9a32cd" points="172.83,-159.16 167.61,-168.38 177.44,-164.43 172.83,-159.16"/>
<text text-anchor="middle" x="249.5" y="-140.21" font-family="Helvetica,sans-Serif" font-size="10.00"> fsi_intp</text>
</g>
<!-- Node18 -->
<g id="node18" class="node">
<title>Node18</title>
<g id="a_node18"><a xlink:href="variables__old_8h.html#structIBMListNode" target="_top" xlink:title="A linked list node containing IBM interpolation info.">
<polygon fill="none" stroke="black" points="320,-179.71 320,-198.71 398,-198.71 398,-179.71 320,-179.71"/>
<text text-anchor="middle" x="359" y="-186.71" font-family="Helvetica,sans-Serif" font-size="10.00">IBMListNode</text>
</a>
</g>
</g>
<!-- Node8&#45;&gt;Node18 -->
<g id="edge27" class="edge">
<title>Node8&#45;&gt;Node18</title>
<path fill="none" stroke="#9a32cd" stroke-dasharray="5,2" d="M194.14,-180.22C229.76,-182.17 283.63,-185.13 319.77,-187.11"/>
<polygon fill="#9a32cd" stroke="#9a32cd" points="193.89,-176.7 183.71,-179.65 193.51,-183.69 193.89,-176.7"/>
<text text-anchor="middle" x="249.5" y="-187.21" font-family="Helvetica,sans-Serif" font-size="10.00"> ibm_intp</text>
</g>
<!-- Node9 -->
<g id="node9" class="node">
<title>Node9</title>
<g id="a_node9"><a xlink:href="variables__old_8h.html#structSurfElmtInfo" target="_top" xlink:title="Information about a surface element for FSI calculations.">
<polygon fill="none" stroke="black" points="118,-97.71 118,-116.71 195,-116.71 195,-97.71 118,-97.71"/>
<text text-anchor="middle" x="156.5" y="-104.71" font-family="Helvetica,sans-Serif" font-size="10.00">SurfElmtInfo</text>
</a>
</g>
</g>
<!-- Node9&#45;&gt;Node7 -->
<g id="edge11" class="edge">
<title>Node9&#45;&gt;Node7</title>
<path fill="none" stroke="#9a32cd" stroke-dasharray="5,2" d="M205.25,-103.55C207.87,-103.41 210.47,-103.3 213,-103.21 245.42,-102.04 253.63,-100.97 286,-103.21 302.62,-104.36 321.24,-106.98 335.38,-109.25"/>
<polygon fill="#9a32cd" stroke="#9a32cd" points="204.88,-100.06 195.1,-104.13 205.28,-107.05 204.88,-100.06"/>
<text text-anchor="middle" x="249.5" y="-106.21" font-family="Helvetica,sans-Serif" font-size="10.00"> elmtinfo</text>
</g>
<!-- Node10&#45;&gt;Node1 -->
<g id="edge23" class="edge">
<title>Node10&#45;&gt;Node1</title>
<path fill="none" stroke="#9a32cd" stroke-dasharray="5,2" d="M602.06,-519.22C611.61,-516.84 621.62,-514.39 631,-512.21 678.37,-501.16 702.2,-522.14 738,-489.21 779.11,-451.39 783.12,-377.32 783.18,-350.88"/>
<polygon fill="#9a32cd" stroke="#9a32cd" points="601.15,-515.84 592.3,-521.67 602.85,-522.63 601.15,-515.84"/>
<text text-anchor="middle" x="684.5" y="-526.21" font-family="Helvetica,sans-Serif" font-size="10.00"> global_domain_bbox</text>
<text text-anchor="middle" x="684.5" y="-515.21" font-family="Helvetica,sans-Serif" font-size="10.00">bbox</text>
</g>
<!-- Node10&#45;&gt;Node2 -->
<g id="edge12" class="edge">
<title>Node10&#45;&gt;Node2</title>
<path fill="none" stroke="#9a32cd" stroke-dasharray="5,2" d="M605.31,-537.08C651.35,-541.99 721.69,-548.21 783,-548.21 783,-548.21 783,-548.21 1026,-548.21 1134.22,-548.21 1151.1,-358.11 1153.59,-312.81"/>
<polygon fill="#9a32cd" stroke="#9a32cd" points="605.62,-533.59 595.3,-535.99 604.86,-540.55 605.62,-533.59"/>
<text text-anchor="middle" x="898" y="-551.21" font-family="Helvetica,sans-Serif" font-size="10.00"> bboxlist</text>
</g>
<!-- Node11&#45;&gt;Node2 -->
<g id="edge14" class="edge">
<title>Node11&#45;&gt;Node2</title>
<path fill="none" stroke="#9a32cd" stroke-dasharray="5,2" d="M296.17,-26.27C337.41,-27.13 399.77,-28.21 454,-28.21 454,-28.21 454,-28.21 1026,-28.21 1065.64,-28.21 1084.94,-25.34 1111,-55.21 1142.96,-91.84 1151.85,-252.13 1153.63,-293.46"/>
<polygon fill="#9a32cd" stroke="#9a32cd" points="296.23,-22.77 286.16,-26.05 296.08,-29.76 296.23,-22.77"/>
<text text-anchor="middle" x="784" y="-31.21" font-family="Helvetica,sans-Serif" font-size="10.00"> ibmv</text>
</g>
<!-- Node12 -->
<g id="node12" class="node">
<title>Node12</title>
<g id="a_node12"><a xlink:href="variables__old_8h.html#structCmpnts2" target="_top" xlink:title="A 2D point or vector with PetscScalar components.">
<polygon fill="none" stroke="black" points="524.5,-483.71 524.5,-502.71 584.5,-502.71 584.5,-483.71 524.5,-483.71"/>
<text text-anchor="middle" x="554.5" y="-490.71" font-family="Helvetica,sans-Serif" font-size="10.00">Cmpnts2</text>
</a>
</g>
</g>
<!-- Node12&#45;&gt;Node1 -->
<g id="edge17" class="edge">
<title>Node12&#45;&gt;Node1</title>
<path fill="none" stroke="#9a32cd" stroke-dasharray="5,2" d="M594.67,-485.29C647.88,-474.5 736.61,-456.37 738,-455.21 770.71,-427.65 779.8,-373.09 782.19,-350.92"/>
<polygon fill="#9a32cd" stroke="#9a32cd" points="593.64,-481.93 584.54,-487.34 595.03,-488.79 593.64,-481.93"/>
<text text-anchor="middle" x="684.5" y="-479.21" font-family="Helvetica,sans-Serif" font-size="10.00"> komega_plane</text>
</g>
<!-- Node13 -->
<g id="node13" class="node">
<title>Node13</title>
<g id="a_node13"><a xlink:href="variables__old_8h.html#structRankNeighbors" target="_top" xlink:title="Stores the MPI ranks of neighboring subdomains.">
<polygon fill="none" stroke="black" points="509,-445.71 509,-464.71 600,-464.71 600,-445.71 509,-445.71"/>
<text text-anchor="middle" x="554.5" y="-452.71" font-family="Helvetica,sans-Serif" font-size="10.00">RankNeighbors</text>
</a>
</g>
</g>
<!-- Node13&#45;&gt;Node1 -->
<g id="edge18" class="edge">
<title>Node13&#45;&gt;Node1</title>
<path fill="none" stroke="#9a32cd" stroke-dasharray="5,2" d="M610.28,-446.16C662.1,-437.42 732.73,-424.98 738,-421.21 762.62,-403.58 775.48,-368.05 780.48,-350.9"/>
<polygon fill="#9a32cd" stroke="#9a32cd" points="609.47,-442.75 600.19,-447.85 610.63,-449.65 609.47,-442.75"/>
<text text-anchor="middle" x="684.5" y="-445.21" font-family="Helvetica,sans-Serif" font-size="10.00"> neighbors</text>
</g>
<!-- Node14 -->
<g id="node14" class="node">
<title>Node14</title>
<g id="a_node14"><a xlink:href="variables__old_8h.html#structRankCellInfo" target="_top" xlink:title="A lean struct to hold the global cell ownership range for a single MPI rank.">
<polygon fill="none" stroke="black" points="515,-407.71 515,-426.71 594,-426.71 594,-407.71 515,-407.71"/>
<text text-anchor="middle" x="554.5" y="-414.71" font-family="Helvetica,sans-Serif" font-size="10.00">RankCellInfo</text>
</a>
</g>
</g>
<!-- Node14&#45;&gt;Node1 -->
<g id="edge19" class="edge">
<title>Node14&#45;&gt;Node1</title>
<path fill="none" stroke="#9a32cd" stroke-dasharray="5,2" d="M604.44,-411.58C650.33,-405.73 715.19,-395.82 738,-384.21 753.79,-376.17 767.82,-360.78 775.86,-350.76"/>
<polygon fill="#9a32cd" stroke="#9a32cd" points="603.87,-408.13 594.38,-412.84 604.74,-415.07 603.87,-408.13"/>
<text text-anchor="middle" x="684.5" y="-410.21" font-family="Helvetica,sans-Serif" font-size="10.00"> RankCellInfoMap</text>
</g>
<!-- Node15 -->
<g id="node15" class="node">
<title>Node15</title>
<g id="a_node15"><a xlink:href="variables__old_8h.html#structPostProcessParams" target="_top" xlink:title="Parameters controlling post&#45;processing output actions.">
<polygon fill="none" stroke="black" points="498.5,-369.71 498.5,-388.71 610.5,-388.71 610.5,-369.71 498.5,-369.71"/>
<text text-anchor="middle" x="554.5" y="-376.71" font-family="Helvetica,sans-Serif" font-size="10.00">PostProcessParams</text>
</a>
</g>
</g>
<!-- Node15&#45;&gt;Node1 -->
<g id="edge22" class="edge">
<title>Node15&#45;&gt;Node1</title>
<path fill="none" stroke="#9a32cd" stroke-dasharray="5,2" d="M620.97,-371.8C655.88,-367.36 699.47,-361.06 738,-353.21 743.86,-352.01 750.1,-350.51 756,-348.97"/>
<polygon fill="#9a32cd" stroke="#9a32cd" points="620.39,-368.34 610.9,-373.06 621.26,-375.29 620.39,-368.34"/>
<text text-anchor="middle" x="684.5" y="-372.21" font-family="Helvetica,sans-Serif" font-size="10.00"> pp</text>
</g>
<!-- Node16 -->
<g id="node16" class="node">
<title>Node16</title>
<g id="a_node16"><a xlink:href="variables__old_8h.html#structFlowWave" target="_top" xlink:title="Represents a single point in a time&#45;varying flow waveform.">
<polygon fill="none" stroke="black" points="520.5,-331.71 520.5,-350.71 588.5,-350.71 588.5,-331.71 520.5,-331.71"/>
<text text-anchor="middle" x="554.5" y="-338.71" font-family="Helvetica,sans-Serif" font-size="10.00">FlowWave</text>
</a>
</g>
</g>
<!-- Node16&#45;&gt;Node1 -->
<g id="edge24" class="edge">
<title>Node16&#45;&gt;Node1</title>
<path fill="none" stroke="#9a32cd" stroke-dasharray="5,2" d="M598.61,-341.21C644.91,-341.21 717.03,-341.21 755.93,-341.21"/>
<polygon fill="#9a32cd" stroke="#9a32cd" points="598.58,-337.71 588.58,-341.21 598.58,-344.71 598.58,-337.71"/>
<text text-anchor="middle" x="684.5" y="-344.21" font-family="Helvetica,sans-Serif" font-size="10.00"> inflow</text>
</g>
<!-- Node17 -->
<g id="node17" class="node">
<title>Node17</title>
<g id="a_node17"><a xlink:href="variables__old_8h.html#structIBMList" target="_top" xlink:title="Head of a linked list for IBM data.">
<polygon fill="none" stroke="black" points="528,-179.71 528,-198.71 581,-198.71 581,-179.71 528,-179.71"/>
<text text-anchor="middle" x="554.5" y="-186.71" font-family="Helvetica,sans-Serif" font-size="10.00">IBMList</text>
</a>
</g>
</g>
<!-- Node17&#45;&gt;Node1 -->
<g id="edge25" class="edge">
<title>Node17&#45;&gt;Node1</title>
<path fill="none" stroke="#9a32cd" stroke-dasharray="5,2" d="M590.86,-180.53C630.91,-172.93 696.05,-167.58 738,-200.21 780.19,-233.02 783.53,-305.59 783.3,-331.66"/>
<polygon fill="#9a32cd" stroke="#9a32cd" points="590.1,-177.11 581,-182.54 591.5,-183.97 590.1,-177.11"/>
<text text-anchor="middle" x="684.5" y="-203.21" font-family="Helvetica,sans-Serif" font-size="10.00"> ibmlist</text>
</g>
<!-- Node18&#45;&gt;Node17 -->
<g id="edge26" class="edge">
<title>Node18&#45;&gt;Node17</title>
<path fill="none" stroke="#9a32cd" stroke-dasharray="5,2" d="M408.55,-189.21C446.48,-189.21 497.7,-189.21 528,-189.21"/>
<polygon fill="#9a32cd" stroke="#9a32cd" points="408.23,-185.71 398.23,-189.21 408.23,-192.71 408.23,-185.71"/>
<text text-anchor="middle" x="455" y="-192.21" font-family="Helvetica,sans-Serif" font-size="10.00"> head</text>
</g>
<!-- Node18&#45;&gt;Node18 -->
<g id="edge28" class="edge">
<title>Node18&#45;&gt;Node18</title>
<path fill="none" stroke="#9a32cd" stroke-dasharray="5,2" d="M341.22,-208.61C342.41,-213.52 348.34,-217.21 359,-217.21 376.06,-217.21 380.99,-207.77 373.8,-198.96"/>
<polygon fill="#9a32cd" stroke="#9a32cd" points="344.59,-209.55 344.2,-198.96 337.91,-207.49 344.59,-209.55"/>
<text text-anchor="middle" x="359" y="-220.21" font-family="Helvetica,sans-Serif" font-size="10.00"> next</text>
</g>
<!-- Node19 -->
<g id="node19" class="node">
<title>Node19</title>
<g id="a_node19"><a xlink:href="variables__old_8h.html#structBCS" target="_top" xlink:title="Legacy boundary condition data.">
<polygon fill="none" stroke="black" points="536.5,-255.71 536.5,-274.71 572.5,-274.71 572.5,-255.71 536.5,-255.71"/>
<text text-anchor="middle" x="554.5" y="-262.71" font-family="Helvetica,sans-Serif" font-size="10.00">BCS</text>
</a>
</g>
</g>
<!-- Node19&#45;&gt;Node1 -->
<g id="edge30" class="edge">
<title>Node19&#45;&gt;Node1</title>
<path fill="none" stroke="#9a32cd" stroke-dasharray="5,2" d="M582.88,-260.31C620.47,-255.03 688.95,-250.72 738,-278.21 759.34,-290.17 773.08,-316.96 779.24,-331.46"/>
<polygon fill="#9a32cd" stroke="#9a32cd" points="582.06,-256.89 572.71,-261.87 583.12,-263.81 582.06,-256.89"/>
<text text-anchor="middle" x="684.5" y="-281.21" font-family="Helvetica,sans-Serif" font-size="10.00"> Bcs</text>
</g>
<!-- Node20 -->
<g id="node20" class="node">
<title>Node20</title>
<g id="a_node20"><a xlink:href="variables_8h.html#structBoundaryFaceConfig" target="_top" xlink:title="Holds the complete configuration for one of the six boundary faces.">
<polygon fill="none" stroke="black" points="496,-217.71 496,-236.71 613,-236.71 613,-217.71 496,-217.71"/>
<text text-anchor="middle" x="554.5" y="-224.71" font-family="Helvetica,sans-Serif" font-size="10.00">BoundaryFaceConfig</text>
</a>
</g>
</g>
<!-- Node20&#45;&gt;Node1 -->
<g id="edge31" class="edge">
<title>Node20&#45;&gt;Node1</title>
<path fill="none" stroke="#9a32cd" stroke-dasharray="5,2" d="M619.82,-216.8C657.48,-214.21 704.13,-217.42 738,-241.21 768.85,-262.87 778.9,-310.84 781.87,-331.47"/>
<polygon fill="#9a32cd" stroke="#9a32cd" points="619.13,-213.35 609.46,-217.68 619.72,-220.33 619.13,-213.35"/>
<text text-anchor="middle" x="684.5" y="-244.21" font-family="Helvetica,sans-Serif" font-size="10.00"> boundary_faces</text>
</g>
<!-- Node21 -->
<g id="node21" class="node">
<title>Node21</title>
<g id="a_node21"><a xlink:href="variables__old_8h.html#structBC__Param__s" target="_top" xlink:title="A node in a linked list for storing key&#45;value parameters from the bcs.dat file.">
<polygon fill="none" stroke="black" points="320.5,-284.71 320.5,-303.71 397.5,-303.71 397.5,-284.71 320.5,-284.71"/>
<text text-anchor="middle" x="359" y="-291.71" font-family="Helvetica,sans-Serif" font-size="10.00">BC_Param_s</text>
</a>
</g>
</g>
<!-- Node21&#45;&gt;Node20 -->
<g id="edge32" class="edge">
<title>Node21&#45;&gt;Node20</title>
<path fill="none" stroke="#9a32cd" stroke-dasharray="5,2" d="M407.45,-284.03C429.55,-278.32 455.8,-270.12 478,-259.21 486.86,-254.85 487.21,-250.7 496,-246.21 503.12,-242.57 511.07,-239.42 518.75,-236.79"/>
<polygon fill="#9a32cd" stroke="#9a32cd" points="406.47,-280.67 397.61,-286.48 408.16,-287.46 406.47,-280.67"/>
<text text-anchor="middle" x="455" y="-279.21" font-family="Helvetica,sans-Serif" font-size="10.00"> params</text>
</g>
<!-- Node21&#45;&gt;Node21 -->
<g id="edge33" class="edge">
<title>Node21&#45;&gt;Node21</title>
<path fill="none" stroke="#9a32cd" stroke-dasharray="5,2" d="M341.22,-313.61C342.41,-318.52 348.34,-322.21 359,-322.21 376.06,-322.21 380.99,-312.77 373.8,-303.96"/>
<polygon fill="#9a32cd" stroke="#9a32cd" points="344.59,-314.55 344.2,-303.96 337.91,-312.49 344.59,-314.55"/>
<text text-anchor="middle" x="359" y="-325.21" font-family="Helvetica,sans-Serif" font-size="10.00"> next</text>
</g>
<!-- Node22 -->
<g id="node22" class="node">
<title>Node22</title>
<g id="a_node22"><a xlink:href="structBoundaryCondition.html" target="_top" xlink:title="The &quot;virtual table&quot; struct for a boundary condition handler object.">
<polygon fill="none" stroke="black" points="304,-246.71 304,-265.71 414,-265.71 414,-246.71 304,-246.71"/>
<text text-anchor="middle" x="359" y="-253.71" font-family="Helvetica,sans-Serif" font-size="10.00">BoundaryCondition</text>
</a>
</g>
</g>
<!-- Node22&#45;&gt;Node20 -->
<g id="edge34" class="edge">
<title>Node22&#45;&gt;Node20</title>
<path fill="none" stroke="#9a32cd" stroke-dasharray="5,2" d="M424.24,-246.58C447.42,-243.11 473.41,-239.21 495.97,-235.83"/>
<polygon fill="#9a32cd" stroke="#9a32cd" points="423.53,-243.15 414.16,-248.09 424.57,-250.07 423.53,-243.15"/>
<text text-anchor="middle" x="455" y="-247.21" font-family="Helvetica,sans-Serif" font-size="10.00"> handler</text>
</g>
</g>
</svg>
