<?xml version="1.0" encoding="UTF-8" standalone="no"?>
<!DOCTYPE svg PUBLIC "-//W3C//DTD SVG 1.1//EN"
 "http://www.w3.org/Graphics/SVG/1.1/DTD/svg11.dtd">
<!-- Generated by graphviz version 2.43.0 (0)
 -->
<!-- Title: MGCtx Pages: 1 -->
<svg width="834pt" height="652pt"
 viewBox="0.00 0.00 834.00 652.00" xmlns="http://www.w3.org/2000/svg" xmlns:xlink="http://www.w3.org/1999/xlink">
<g id="graph0" class="graph" transform="scale(1 1) rotate(0) translate(4 648)">
<title>MGCtx</title>
<!-- Node1 -->
<g id="node1" class="node">
<title>Node1</title>
<g id="a_node1"><a xlink:title="Context for Multigrid operations.">
<polygon fill="#bfbfbf" stroke="black" points="131.5,-468.5 131.5,-487.5 181.5,-487.5 181.5,-468.5 131.5,-468.5"/>
<text text-anchor="middle" x="156.5" y="-475.5" font-family="Helvetica,sans-Serif" font-size="10.00">MGCtx</text>
</a>
</g>
</g>
<!-- Node4 -->
<g id="node4" class="node">
<title>Node4</title>
<g id="a_node4"><a xlink:href="variables__old_8h.html#structUserMG" target="_top" xlink:title="User&#45;level context for managing the entire multigrid hierarchy.">
<polygon fill="none" stroke="black" points="365,-393.5 365,-412.5 421,-412.5 421,-393.5 365,-393.5"/>
<text text-anchor="middle" x="393" y="-400.5" font-family="Helvetica,sans-Serif" font-size="10.00">UserMG</text>
</a>
</g>
</g>
<!-- Node1&#45;&gt;Node4 -->
<g id="edge4" class="edge">
<title>Node1&#45;&gt;Node4</title>
<path fill="none" stroke="#9a32cd" stroke-dasharray="5,2" d="M190.33,-463.01C191.98,-461.75 193.56,-460.42 195,-459 207.2,-447.02 198.92,-434.7 213,-425 258.77,-393.48 327.12,-395.09 364.74,-399.05"/>
<polygon fill="#9a32cd" stroke="#9a32cd" points="188.12,-460.26 181.57,-468.58 191.88,-466.16 188.12,-460.26"/>
<text text-anchor="middle" x="266.5" y="-428" font-family="Helvetica,sans-Serif" font-size="10.00"> mgctx</text>
</g>
<!-- Node2 -->
<g id="node2" class="node">
<title>Node2</title>
<g id="a_node2"><a xlink:href="variables__old_8h.html#structUserCtx" target="_top" xlink:title="User&#45;defined context containing data specific to a single computational grid level.">
<polygon fill="none" stroke="black" points="770,-270.5 770,-289.5 826,-289.5 826,-270.5 770,-270.5"/>
<text text-anchor="middle" x="798" y="-277.5" font-family="Helvetica,sans-Serif" font-size="10.00">UserCtx</text>
</a>
</g>
</g>
<!-- Node2&#45;&gt;Node1 -->
<g id="edge1" class="edge">
<title>Node2&#45;&gt;Node1</title>
<path fill="none" stroke="#9a32cd" stroke-dasharray="5,2" d="M794.13,-299.63C789.48,-324.91 778.03,-368.83 752,-396 716.75,-432.79 696.34,-429.32 647,-442 557.35,-465.04 267.33,-474.9 181.59,-477.36"/>
<polygon fill="#9a32cd" stroke="#9a32cd" points="797.58,-300.18 795.77,-289.75 790.68,-299.04 797.58,-300.18"/>
<text text-anchor="middle" x="489" y="-466" font-family="Helvetica,sans-Serif" font-size="10.00"> user</text>
</g>
<!-- Node2&#45;&gt;Node2 -->
<g id="edge29" class="edge">
<title>Node2&#45;&gt;Node2</title>
<path fill="none" stroke="#9a32cd" stroke-dasharray="5,2" d="M781.7,-299.4C782.79,-304.31 788.22,-308 798,-308 813.64,-308 818.16,-298.57 811.56,-289.76"/>
<polygon fill="#9a32cd" stroke="#9a32cd" points="785.08,-300.33 784.44,-289.76 778.34,-298.42 785.08,-300.33"/>
<text text-anchor="middle" x="798" y="-322" font-family="Helvetica,sans-Serif" font-size="10.00"> user_f</text>
<text text-anchor="middle" x="798" y="-311" font-family="Helvetica,sans-Serif" font-size="10.00">user_c</text>
</g>
<!-- Node3 -->
<g id="node3" class="node">
<title>Node3</title>
<g id="a_node3"><a xlink:href="variables_8h.html#structSimCtx" target="_top" xlink:title="The master context for the entire simulation.">
<polygon fill="none" stroke="black" points="562.5,-343.5 562.5,-362.5 614.5,-362.5 614.5,-343.5 562.5,-343.5"/>
<text text-anchor="middle" x="588.5" y="-350.5" font-family="Helvetica,sans-Serif" font-size="10.00">SimCtx</text>
</a>
</g>
</g>
<!-- Node3&#45;&gt;Node2 -->
<g id="edge2" class="edge">
<title>Node3&#45;&gt;Node2</title>
<path fill="none" stroke="#9a32cd" stroke-dasharray="5,2" d="M625.01,-349.96C659.03,-345.95 711.09,-336.92 752,-317 766,-310.18 779.44,-298.18 787.93,-289.69"/>
<polygon fill="#9a32cd" stroke="#9a32cd" points="624.2,-346.53 614.64,-351.09 624.96,-353.48 624.2,-346.53"/>
<text text-anchor="middle" x="708.5" y="-346" font-family="Helvetica,sans-Serif" font-size="10.00"> simCtx</text>
</g>
<!-- Node4&#45;&gt;Node3 -->
<g id="edge3" class="edge">
<title>Node4&#45;&gt;Node3</title>
<path fill="none" stroke="#9a32cd" stroke-dasharray="5,2" d="M431.13,-393.41C469.74,-383.43 529.1,-368.09 562.48,-359.47"/>
<polygon fill="#9a32cd" stroke="#9a32cd" points="430.12,-390.05 421.31,-395.94 431.87,-396.83 430.12,-390.05"/>
<text text-anchor="middle" x="489" y="-386" font-family="Helvetica,sans-Serif" font-size="10.00"> usermg</text>
</g>
<!-- Node5 -->
<g id="node5" class="node">
<title>Node5</title>
<g id="a_node5"><a xlink:href="variables__old_8h.html#structIBMNodes" target="_top" xlink:title="Represents a collection of nodes forming a surface for the IBM.">
<polygon fill="none" stroke="black" points="360,-355.5 360,-374.5 426,-374.5 426,-355.5 360,-355.5"/>
<text text-anchor="middle" x="393" y="-362.5" font-family="Helvetica,sans-Serif" font-size="10.00">IBMNodes</text>
</a>
</g>
</g>
<!-- Node5&#45;&gt;Node2 -->
<g id="edge20" class="edge">
<title>Node5&#45;&gt;Node2</title>
<path fill="none" stroke="#9a32cd" stroke-dasharray="5,2" d="M435.72,-375.42C440.21,-377.73 444.43,-380.56 448,-384 463.79,-399.25 447.87,-417.62 466,-430 482.89,-441.53 491.77,-432.97 512,-430 622.18,-413.83 664.68,-427.11 752,-358 775.05,-339.76 788.51,-306.24 794.04,-289.73"/>
<polygon fill="#9a32cd" stroke="#9a32cd" points="436.81,-372.08 426.24,-371.35 434.05,-378.51 436.81,-372.08"/>
<text text-anchor="middle" x="588.5" y="-430" font-family="Helvetica,sans-Serif" font-size="10.00"> ibm</text>
</g>
<!-- Node5&#45;&gt;Node3 -->
<g id="edge5" class="edge">
<title>Node5&#45;&gt;Node3</title>
<path fill="none" stroke="#9a32cd" stroke-dasharray="5,2" d="M436.07,-357.54C445.86,-356.09 456.27,-354.78 466,-354 499.22,-351.34 537.72,-351.58 562.32,-352.16"/>
<polygon fill="#9a32cd" stroke="#9a32cd" points="435.49,-354.09 426.14,-359.08 436.56,-361 435.49,-354.09"/>
<text text-anchor="middle" x="489" y="-357" font-family="Helvetica,sans-Serif" font-size="10.00"> ibm</text>
</g>
<!-- Node6 -->
<g id="node6" class="node">
<title>Node6</title>
<g id="a_node6"><a xlink:href="variables__old_8h.html#structCmpnts" target="_top" xlink:title="A 3D point or vector with PetscScalar components.">
<polygon fill="none" stroke="black" points="0,-339.5 0,-358.5 54,-358.5 54,-339.5 0,-339.5"/>
<text text-anchor="middle" x="27" y="-346.5" font-family="Helvetica,sans-Serif" font-size="10.00">Cmpnts</text>
</a>
</g>
</g>
<!-- Node6&#45;&gt;Node2 -->
<g id="edge21" class="edge">
<title>Node6&#45;&gt;Node2</title>
<path fill="none" stroke="#9a32cd" stroke-dasharray="5,2" d="M27.82,-368.87C28.39,-433.4 39.51,-633 155.5,-633 155.5,-633 155.5,-633 589.5,-633 665.61,-633 702.99,-637.22 752,-579 790.11,-533.72 796,-336.21 796.86,-289.79"/>
<polygon fill="#9a32cd" stroke="#9a32cd" points="31.32,-368.77 27.82,-358.78 24.32,-368.78 31.32,-368.77"/>
<text text-anchor="middle" x="393" y="-636" font-family="Helvetica,sans-Serif" font-size="10.00"> InitialConstantContra</text>
</g>
<!-- Node6&#45;&gt;Node3 -->
<g id="edge7" class="edge">
<title>Node6&#45;&gt;Node3</title>
<path fill="none" stroke="#9a32cd" stroke-dasharray="5,2" d="M64.39,-347.19C101.69,-345.44 161.38,-342.92 213,-342 345.89,-339.64 379.28,-340 512,-347 528.81,-347.89 547.68,-349.39 562.36,-350.66"/>
<polygon fill="#9a32cd" stroke="#9a32cd" points="63.85,-343.71 54.03,-347.68 64.19,-350.7 63.85,-343.71"/>
<text text-anchor="middle" x="266.5" y="-345" font-family="Helvetica,sans-Serif" font-size="10.00"> InitialConstantContra</text>
</g>
<!-- Node6&#45;&gt;Node5 -->
<g id="edge6" class="edge">
<title>Node6&#45;&gt;Node5</title>
<path fill="none" stroke="#9a32cd" stroke-dasharray="5,2" d="M64.45,-350.6C135.7,-353.73 292.36,-360.62 359.94,-363.59"/>
<polygon fill="#9a32cd" stroke="#9a32cd" points="64.32,-347.09 54.18,-350.15 64.01,-354.09 64.32,-347.09"/>
<text text-anchor="middle" x="156.5" y="-392" font-family="Helvetica,sans-Serif" font-size="10.00"> qvec</text>
<text text-anchor="middle" x="156.5" y="-381" font-family="Helvetica,sans-Serif" font-size="10.00">uold</text>
<text text-anchor="middle" x="156.5" y="-370" font-family="Helvetica,sans-Serif" font-size="10.00">urm1</text>
<text text-anchor="middle" x="156.5" y="-359" font-family="Helvetica,sans-Serif" font-size="10.00">u</text>
</g>
<!-- Node8 -->
<g id="node8" class="node">
<title>Node8</title>
<g id="a_node8"><a xlink:href="variables__old_8h.html#structIBMInfo" target="_top" xlink:title="Holds interpolation and distance information for a single IBM point.">
<polygon fill="none" stroke="black" points="129.5,-511.5 129.5,-530.5 183.5,-530.5 183.5,-511.5 129.5,-511.5"/>
<text text-anchor="middle" x="156.5" y="-518.5" font-family="Helvetica,sans-Serif" font-size="10.00">IBMInfo</text>
</a>
</g>
</g>
<!-- Node6&#45;&gt;Node8 -->
<g id="edge10" class="edge">
<title>Node6&#45;&gt;Node8</title>
<path fill="none" stroke="#9a32cd" stroke-dasharray="5,2" d="M36.11,-368.01C49.66,-398.11 79.27,-457.37 118,-497 123.4,-502.53 130.31,-507.4 136.71,-511.28"/>
<polygon fill="#9a32cd" stroke="#9a32cd" points="39.23,-366.41 32,-358.66 32.83,-369.22 39.23,-366.41"/>
<text text-anchor="middle" x="86" y="-478" font-family="Helvetica,sans-Serif" font-size="10.00"> pmin</text>
</g>
<!-- Node10 -->
<g id="node10" class="node">
<title>Node10</title>
<g id="a_node10"><a xlink:href="variables__old_8h.html#structBoundingBox" target="_top" xlink:title="Defines a 3D axis&#45;aligned bounding box.">
<polygon fill="none" stroke="black" points="352.5,-226.5 352.5,-245.5 433.5,-245.5 433.5,-226.5 352.5,-226.5"/>
<text text-anchor="middle" x="393" y="-233.5" font-family="Helvetica,sans-Serif" font-size="10.00">BoundingBox</text>
</a>
</g>
</g>
<!-- Node6&#45;&gt;Node10 -->
<g id="edge13" class="edge">
<title>Node6&#45;&gt;Node10</title>
<path fill="none" stroke="#9a32cd" stroke-dasharray="5,2" d="M35.36,-329.83C42.71,-312.49 55.31,-287 72,-269 88.6,-251.11 94.64,-246.08 118,-239 198.35,-214.63 298.15,-222.44 352.39,-229.64"/>
<polygon fill="#9a32cd" stroke="#9a32cd" points="31.98,-328.85 31.47,-339.43 38.47,-331.48 31.98,-328.85"/>
<text text-anchor="middle" x="156.5" y="-253" font-family="Helvetica,sans-Serif" font-size="10.00"> max_coords</text>
<text text-anchor="middle" x="156.5" y="-242" font-family="Helvetica,sans-Serif" font-size="10.00">min_coords</text>
</g>
<!-- Node11 -->
<g id="node11" class="node">
<title>Node11</title>
<g id="a_node11"><a xlink:href="variables__old_8h.html#structIBMVNodes" target="_top" xlink:title="Represents a collection of nodes forming a volume for the IBM.">
<polygon fill="none" stroke="black" points="230,-273.5 230,-292.5 303,-292.5 303,-273.5 230,-273.5"/>
<text text-anchor="middle" x="266.5" y="-280.5" font-family="Helvetica,sans-Serif" font-size="10.00">IBMVNodes</text>
</a>
</g>
</g>
<!-- Node6&#45;&gt;Node11 -->
<g id="edge15" class="edge">
<title>Node6&#45;&gt;Node11</title>
<path fill="none" stroke="#9a32cd" stroke-dasharray="5,2" d="M35.18,-329.59C42.04,-314.15 54.03,-293.6 72,-284 121.64,-257.5 189.16,-265.25 229.91,-273.77"/>
<polygon fill="#9a32cd" stroke="#9a32cd" points="31.77,-328.69 31.23,-339.27 38.25,-331.33 31.77,-328.69"/>
<text text-anchor="middle" x="86" y="-309" font-family="Helvetica,sans-Serif" font-size="10.00"> uold</text>
<text text-anchor="middle" x="86" y="-298" font-family="Helvetica,sans-Serif" font-size="10.00">urm1</text>
<text text-anchor="middle" x="86" y="-287" font-family="Helvetica,sans-Serif" font-size="10.00">u</text>
</g>
<!-- Node7 -->
<g id="node7" class="node">
<title>Node7</title>
<g id="a_node7"><a xlink:href="variables__old_8h.html#structFSInfo" target="_top" xlink:title="Holds all data related to the state and motion of a body in FSI.">
<polygon fill="none" stroke="black" points="369.5,-431.5 369.5,-450.5 416.5,-450.5 416.5,-431.5 369.5,-431.5"/>
<text text-anchor="middle" x="393" y="-438.5" font-family="Helvetica,sans-Serif" font-size="10.00">FSInfo</text>
</a>
</g>
</g>
<!-- Node7&#45;&gt;Node3 -->
<g id="edge8" class="edge">
<title>Node7&#45;&gt;Node3</title>
<path fill="none" stroke="#9a32cd" stroke-dasharray="5,2" d="M426.13,-429.82C433.33,-427.28 440.94,-424.57 448,-422 476.55,-411.62 484.62,-411.16 512,-398 534.14,-387.36 558.3,-372.3 573.17,-362.59"/>
<polygon fill="#9a32cd" stroke="#9a32cd" points="424.91,-426.54 416.63,-433.15 427.23,-433.14 424.91,-426.54"/>
<text text-anchor="middle" x="489" y="-418" font-family="Helvetica,sans-Serif" font-size="10.00"> fsi</text>
</g>
<!-- Node8&#45;&gt;Node2 -->
<g id="edge16" class="edge">
<title>Node8&#45;&gt;Node2</title>
<path fill="none" stroke="#9a32cd" stroke-dasharray="5,2" d="M193.84,-520.9C310.7,-519.8 673.84,-509.88 752,-430 791.55,-389.58 796.54,-315.82 797.02,-289.58"/>
<polygon fill="#9a32cd" stroke="#9a32cd" points="193.6,-517.41 183.63,-520.98 193.65,-524.41 193.6,-517.41"/>
<text text-anchor="middle" x="489" y="-509" font-family="Helvetica,sans-Serif" font-size="10.00"> ibm_intp</text>
</g>
<!-- Node8&#45;&gt;Node7 -->
<g id="edge9" class="edge">
<title>Node8&#45;&gt;Node7</title>
<path fill="none" stroke="#9a32cd" stroke-dasharray="5,2" d="M191.41,-507.9C198.52,-505.23 205.99,-502.48 213,-500 268.83,-480.25 335.2,-458.93 369.29,-448.14"/>
<polygon fill="#9a32cd" stroke="#9a32cd" points="190.12,-504.65 182.01,-511.47 192.6,-511.2 190.12,-504.65"/>
<text text-anchor="middle" x="266.5" y="-503" font-family="Helvetica,sans-Serif" font-size="10.00"> fsi_intp</text>
</g>
<!-- Node18 -->
<g id="node18" class="node">
<title>Node18</title>
<g id="a_node18"><a xlink:href="variables__old_8h.html#structIBMListNode" target="_top" xlink:title="A linked list node containing IBM interpolation info.">
<polygon fill="none" stroke="black" points="354,-548.5 354,-567.5 432,-567.5 432,-548.5 354,-548.5"/>
<text text-anchor="middle" x="393" y="-555.5" font-family="Helvetica,sans-Serif" font-size="10.00">IBMListNode</text>
</a>
</g>
</g>
<!-- Node8&#45;&gt;Node18 -->
<g id="edge27" class="edge">
<title>Node8&#45;&gt;Node18</title>
<path fill="none" stroke="#9a32cd" stroke-dasharray="5,2" d="M193.46,-531.51C199.93,-533.18 206.64,-534.76 213,-536 261.09,-545.4 317.28,-551.53 353.69,-554.88"/>
<polygon fill="#9a32cd" stroke="#9a32cd" points="194.14,-528.07 183.58,-528.87 192.33,-534.83 194.14,-528.07"/>
<text text-anchor="middle" x="266.5" y="-554" font-family="Helvetica,sans-Serif" font-size="10.00"> ibm_intp</text>
</g>
<!-- Node9 -->
<g id="node9" class="node">
<title>Node9</title>
<g id="a_node9"><a xlink:href="variables__old_8h.html#structSurfElmtInfo" target="_top" xlink:title="Information about a surface element for FSI calculations.">
<polygon fill="none" stroke="black" points="118,-430.5 118,-449.5 195,-449.5 195,-430.5 118,-430.5"/>
<text text-anchor="middle" x="156.5" y="-437.5" font-family="Helvetica,sans-Serif" font-size="10.00">SurfElmtInfo</text>
</a>
</g>
</g>
<!-- Node9&#45;&gt;Node7 -->
<g id="edge11" class="edge">
<title>Node9&#45;&gt;Node7</title>
<path fill="none" stroke="#9a32cd" stroke-dasharray="5,2" d="M205.42,-440.2C255.41,-440.42 331.64,-440.74 369.31,-440.9"/>
<polygon fill="#9a32cd" stroke="#9a32cd" points="205.19,-436.7 195.18,-440.16 205.16,-443.7 205.19,-436.7"/>
<text text-anchor="middle" x="266.5" y="-443" font-family="Helvetica,sans-Serif" font-size="10.00"> elmtinfo</text>
</g>
<!-- Node10&#45;&gt;Node2 -->
<g id="edge23" class="edge">
<title>Node10&#45;&gt;Node2</title>
<path fill="none" stroke="#9a32cd" stroke-dasharray="5,2" d="M443.82,-232.94C466.07,-233.74 491.78,-237.83 512,-250 524.04,-257.25 517.88,-268.89 530,-276 581.99,-306.5 604.79,-286.11 665,-289 703.62,-290.86 713.52,-292.81 752,-289 757.71,-288.43 763.77,-287.48 769.52,-286.39"/>
<polygon fill="#9a32cd" stroke="#9a32cd" points="443.59,-229.44 433.54,-232.79 443.48,-236.44 443.59,-229.44"/>
<text text-anchor="middle" x="588.5" y="-307" font-family="Helvetica,sans-Serif" font-size="10.00"> global_domain_bbox</text>
<text text-anchor="middle" x="588.5" y="-296" font-family="Helvetica,sans-Serif" font-size="10.00">bbox</text>
</g>
<!-- Node10&#45;&gt;Node3 -->
<g id="edge12" class="edge">
<title>Node10&#45;&gt;Node3</title>
<path fill="none" stroke="#9a32cd" stroke-dasharray="5,2" d="M443.58,-245.34C471.21,-251.48 502.02,-260.18 512,-270 531.54,-289.23 511.6,-308.68 530,-329 538.42,-338.3 551.02,-344.1 562.27,-347.66"/>
<polygon fill="#9a32cd" stroke="#9a32cd" points="444.1,-241.88 433.58,-243.2 442.63,-248.72 444.1,-241.88"/>
<text text-anchor="middle" x="489" y="-273" font-family="Helvetica,sans-Serif" font-size="10.00"> bboxlist</text>
</g>
<!-- Node11&#45;&gt;Node3 -->
<g id="edge14" class="edge">
<title>Node11&#45;&gt;Node3</title>
<path fill="none" stroke="#9a32cd" stroke-dasharray="5,2" d="M313.51,-277.55C365.21,-273.67 450.02,-274.19 512,-309 522.43,-314.86 520.24,-322.08 530,-329 539.8,-335.94 551.91,-341.38 562.48,-345.31"/>
<polygon fill="#9a32cd" stroke="#9a32cd" points="312.98,-274.08 303.31,-278.41 313.57,-281.06 312.98,-274.08"/>
<text text-anchor="middle" x="393" y="-287" font-family="Helvetica,sans-Serif" font-size="10.00"> ibmv</text>
</g>
<!-- Node12 -->
<g id="node12" class="node">
<title>Node12</title>
<g id="a_node12"><a xlink:href="variables__old_8h.html#structCmpnts2" target="_top" xlink:title="A 2D point or vector with PetscScalar components.">
<polygon fill="none" stroke="black" points="558.5,-247.5 558.5,-266.5 618.5,-266.5 618.5,-247.5 558.5,-247.5"/>
<text text-anchor="middle" x="588.5" y="-254.5" font-family="Helvetica,sans-Serif" font-size="10.00">Cmpnts2</text>
</a>
</g>
</g>
<!-- Node12&#45;&gt;Node2 -->
<g id="edge17" class="edge">
<title>Node12&#45;&gt;Node2</title>
<path fill="none" stroke="#9a32cd" stroke-dasharray="5,2" d="M628.76,-261.35C670.02,-265.93 733.83,-273 769.84,-276.99"/>
<polygon fill="#9a32cd" stroke="#9a32cd" points="629.11,-257.87 618.79,-260.25 628.34,-264.83 629.11,-257.87"/>
<text text-anchor="middle" x="708.5" y="-277" font-family="Helvetica,sans-Serif" font-size="10.00"> komega_plane</text>
</g>
<!-- Node13 -->
<g id="node13" class="node">
<title>Node13</title>
<g id="a_node13"><a xlink:href="variables__old_8h.html#structRankNeighbors" target="_top" xlink:title="Stores the MPI ranks of neighboring subdomains.">
<polygon fill="none" stroke="black" points="543,-209.5 543,-228.5 634,-228.5 634,-209.5 543,-209.5"/>
<text text-anchor="middle" x="588.5" y="-216.5" font-family="Helvetica,sans-Serif" font-size="10.00">RankNeighbors</text>
</a>
</g>
</g>
<!-- Node13&#45;&gt;Node2 -->
<g id="edge18" class="edge">
<title>Node13&#45;&gt;Node2</title>
<path fill="none" stroke="#9a32cd" stroke-dasharray="5,2" d="M644.45,-223.96C676.69,-228.21 717.7,-235.97 752,-250 764.34,-255.05 776.84,-263.73 785.52,-270.45"/>
<polygon fill="#9a32cd" stroke="#9a32cd" points="644.67,-220.46 634.31,-222.7 643.81,-227.41 644.67,-220.46"/>
<text text-anchor="middle" x="708.5" y="-253" font-family="Helvetica,sans-Serif" font-size="10.00"> neighbors</text>
</g>
<!-- Node14 -->
<g id="node14" class="node">
<title>Node14</title>
<g id="a_node14"><a xlink:href="variables__old_8h.html#structRankCellInfo" target="_top" xlink:title="A lean struct to hold the global cell ownership range for a single MPI rank.">
<polygon fill="none" stroke="black" points="549,-171.5 549,-190.5 628,-190.5 628,-171.5 549,-171.5"/>
<text text-anchor="middle" x="588.5" y="-178.5" font-family="Helvetica,sans-Serif" font-size="10.00">RankCellInfo</text>
</a>
</g>
</g>
<!-- Node14&#45;&gt;Node2 -->
<g id="edge19" class="edge">
<title>Node14&#45;&gt;Node2</title>
<path fill="none" stroke="#9a32cd" stroke-dasharray="5,2" d="M638.4,-180.58C672.76,-182.49 718.42,-189.64 752,-212 773.68,-226.43 787.44,-255.25 793.47,-270.31"/>
<polygon fill="#9a32cd" stroke="#9a32cd" points="638.26,-177.07 628.12,-180.15 637.96,-184.07 638.26,-177.07"/>
<text text-anchor="middle" x="708.5" y="-215" font-family="Helvetica,sans-Serif" font-size="10.00"> RankCellInfoMap</text>
</g>
<!-- Node15 -->
<g id="node15" class="node">
<title>Node15</title>
<g id="a_node15"><a xlink:href="variables__old_8h.html#structPostProcessParams" target="_top" xlink:title="Parameters controlling post&#45;processing output actions.">
<polygon fill="none" stroke="black" points="532.5,-133.5 532.5,-152.5 644.5,-152.5 644.5,-133.5 532.5,-133.5"/>
<text text-anchor="middle" x="588.5" y="-140.5" font-family="Helvetica,sans-Serif" font-size="10.00">PostProcessParams</text>
</a>
</g>
</g>
<!-- Node15&#45;&gt;Node2 -->
<g id="edge22" class="edge">
<title>Node15&#45;&gt;Node2</title>
<path fill="none" stroke="#9a32cd" stroke-dasharray="5,2" d="M654.9,-138.62C687.21,-139.78 724.96,-146.55 752,-168 785,-194.18 793.92,-248.29 796.23,-270.34"/>
<polygon fill="#9a32cd" stroke="#9a32cd" points="654.69,-135.11 644.63,-138.42 654.56,-142.11 654.69,-135.11"/>
<text text-anchor="middle" x="708.5" y="-171" font-family="Helvetica,sans-Serif" font-size="10.00"> pp</text>
</g>
<!-- Node16 -->
<g id="node16" class="node">
<title>Node16</title>
<g id="a_node16"><a xlink:href="variables__old_8h.html#structFlowWave" target="_top" xlink:title="Represents a single point in a time&#45;varying flow waveform.">
<polygon fill="none" stroke="black" points="554.5,-95.5 554.5,-114.5 622.5,-114.5 622.5,-95.5 554.5,-95.5"/>
<text text-anchor="middle" x="588.5" y="-102.5" font-family="Helvetica,sans-Serif" font-size="10.00">FlowWave</text>
</a>
</g>
</g>
<!-- Node16&#45;&gt;Node2 -->
<g id="edge24" class="edge">
<title>Node16&#45;&gt;Node2</title>
<path fill="none" stroke="#9a32cd" stroke-dasharray="5,2" d="M632.84,-97.95C668.87,-94.65 719.36,-96.33 752,-124 797.15,-162.28 798.51,-242.73 797.54,-270.41"/>
<polygon fill="#9a32cd" stroke="#9a32cd" points="632.19,-94.5 622.62,-99.05 632.94,-101.45 632.19,-94.5"/>
<text text-anchor="middle" x="708.5" y="-127" font-family="Helvetica,sans-Serif" font-size="10.00"> inflow</text>
</g>
<!-- Node17 -->
<g id="node17" class="node">
<title>Node17</title>
<g id="a_node17"><a xlink:href="variables__old_8h.html#structIBMList" target="_top" xlink:title="Head of a linked list for IBM data.">
<polygon fill="none" stroke="black" points="562,-548.5 562,-567.5 615,-567.5 615,-548.5 562,-548.5"/>
<text text-anchor="middle" x="588.5" y="-555.5" font-family="Helvetica,sans-Serif" font-size="10.00">IBMList</text>
</a>
</g>
</g>
<!-- Node17&#45;&gt;Node2 -->
<g id="edge25" class="edge">
<title>Node17&#45;&gt;Node2</title>
<path fill="none" stroke="#9a32cd" stroke-dasharray="5,2" d="M625.42,-563.66C662.27,-567.26 718.77,-566.29 752,-534 787.89,-499.12 795.41,-331.54 796.74,-289.56"/>
<polygon fill="#9a32cd" stroke="#9a32cd" points="625.46,-560.14 615.12,-562.49 624.66,-567.1 625.46,-560.14"/>
<text text-anchor="middle" x="708.5" y="-567" font-family="Helvetica,sans-Serif" font-size="10.00"> ibmlist</text>
</g>
<!-- Node18&#45;&gt;Node17 -->
<g id="edge26" class="edge">
<title>Node18&#45;&gt;Node17</title>
<path fill="none" stroke="#9a32cd" stroke-dasharray="5,2" d="M442.55,-558C480.48,-558 531.7,-558 562,-558"/>
<polygon fill="#9a32cd" stroke="#9a32cd" points="442.23,-554.5 432.23,-558 442.23,-561.5 442.23,-554.5"/>
<text text-anchor="middle" x="489" y="-561" font-family="Helvetica,sans-Serif" font-size="10.00"> head</text>
</g>
<!-- Node18&#45;&gt;Node18 -->
<g id="edge28" class="edge">
<title>Node18&#45;&gt;Node18</title>
<path fill="none" stroke="#9a32cd" stroke-dasharray="5,2" d="M375.22,-577.4C376.41,-582.31 382.34,-586 393,-586 410.06,-586 414.99,-576.57 407.8,-567.76"/>
<polygon fill="#9a32cd" stroke="#9a32cd" points="378.59,-578.34 378.2,-567.76 371.91,-576.28 378.59,-578.34"/>
<text text-anchor="middle" x="393" y="-589" font-family="Helvetica,sans-Serif" font-size="10.00"> next</text>
</g>
<!-- Node19 -->
<g id="node19" class="node">
<title>Node19</title>
<g id="a_node19"><a xlink:href="variables__old_8h.html#structBCS" target="_top" xlink:title="Legacy boundary condition data.">
<polygon fill="none" stroke="black" points="570.5,-57.5 570.5,-76.5 606.5,-76.5 606.5,-57.5 570.5,-57.5"/>
<text text-anchor="middle" x="588.5" y="-64.5" font-family="Helvetica,sans-Serif" font-size="10.00">BCS</text>
</a>
</g>
</g>
<!-- Node19&#45;&gt;Node2 -->
<g id="edge30" class="edge">
<title>Node19&#45;&gt;Node2</title>
<path fill="none" stroke="#9a32cd" stroke-dasharray="5,2" d="M616.87,-60.73C652.54,-54.3 714.73,-49.34 752,-82 781.03,-107.44 793.32,-234.26 796.27,-270.38"/>
<polygon fill="#9a32cd" stroke="#9a32cd" points="615.84,-57.36 606.71,-62.73 617.2,-64.23 615.84,-57.36"/>
<text text-anchor="middle" x="708.5" y="-85" font-family="Helvetica,sans-Serif" font-size="10.00"> Bcs</text>
</g>
<!-- Node20 -->
<g id="node20" class="node">
<title>Node20</title>
<g id="a_node20"><a xlink:href="variables_8h.html#structBoundaryFaceConfig" target="_top" xlink:title="Holds the complete configuration for one of the six boundary faces.">
<polygon fill="none" stroke="black" points="530,-19.5 530,-38.5 647,-38.5 647,-19.5 530,-19.5"/>
<text text-anchor="middle" x="588.5" y="-26.5" font-family="Helvetica,sans-Serif" font-size="10.00">BoundaryFaceConfig</text>
</a>
</g>
</g>
<!-- Node20&#45;&gt;Node2 -->
<g id="edge31" class="edge">
<title>Node20&#45;&gt;Node2</title>
<path fill="none" stroke="#9a32cd" stroke-dasharray="5,2" d="M642.47,-18.13C677.77,-14.15 722.87,-15.83 752,-42 786.8,-73.26 795.1,-229.97 796.68,-270.45"/>
<polygon fill="#9a32cd" stroke="#9a32cd" points="641.78,-14.69 632.32,-19.46 642.69,-21.63 641.78,-14.69"/>
<text text-anchor="middle" x="708.5" y="-45" font-family="Helvetica,sans-Serif" font-size="10.00"> boundary_faces</text>
</g>
<!-- Node21 -->
<g id="node21" class="node">
<title>Node21</title>
<g id="a_node21"><a xlink:href="variables__old_8h.html#structBC__Param__s" target="_top" xlink:title="A node in a linked list for storing key&#45;value parameters from the bcs.dat file.">
<polygon fill="none" stroke="black" points="354.5,-38.5 354.5,-57.5 431.5,-57.5 431.5,-38.5 354.5,-38.5"/>
<text text-anchor="middle" x="393" y="-45.5" font-family="Helvetica,sans-Serif" font-size="10.00">BC_Param_s</text>
</a>
</g>
</g>
<!-- Node21&#45;&gt;Node20 -->
<g id="edge32" class="edge">
<title>Node21&#45;&gt;Node20</title>
<path fill="none" stroke="#9a32cd" stroke-dasharray="5,2" d="M441.96,-43.29C468.49,-40.69 501.66,-37.43 529.63,-34.68"/>
<polygon fill="#9a32cd" stroke="#9a32cd" points="441.38,-39.83 431.77,-44.29 442.06,-46.8 441.38,-39.83"/>
<text text-anchor="middle" x="489" y="-44" font-family="Helvetica,sans-Serif" font-size="10.00"> params</text>
</g>
<!-- Node21&#45;&gt;Node21 -->
<g id="edge33" class="edge">
<title>Node21&#45;&gt;Node21</title>
<path fill="none" stroke="#9a32cd" stroke-dasharray="5,2" d="M375.22,-67.4C376.41,-72.31 382.34,-76 393,-76 410.06,-76 414.99,-66.57 407.8,-57.76"/>
<polygon fill="#9a32cd" stroke="#9a32cd" points="378.59,-68.34 378.2,-57.76 371.91,-66.28 378.59,-68.34"/>
<text text-anchor="middle" x="393" y="-79" font-family="Helvetica,sans-Serif" font-size="10.00"> next</text>
</g>
<!-- Node22 -->
<g id="node22" class="node">
<title>Node22</title>
<g id="a_node22"><a xlink:href="structBoundaryCondition.html" target="_top" xlink:title="The &quot;virtual table&quot; struct for a boundary condition handler object.">
<polygon fill="none" stroke="black" points="338,-0.5 338,-19.5 448,-19.5 448,-0.5 338,-0.5"/>
<text text-anchor="middle" x="393" y="-7.5" font-family="Helvetica,sans-Serif" font-size="10.00">BoundaryCondition</text>
</a>
</g>
</g>
<!-- Node22&#45;&gt;Node20 -->
<g id="edge34" class="edge">
<title>Node22&#45;&gt;Node20</title>
<path fill="none" stroke="#9a32cd" stroke-dasharray="5,2" d="M458.24,-16.31C481.42,-18.58 507.41,-21.14 529.97,-23.35"/>
<polygon fill="#9a32cd" stroke="#9a32cd" points="458.45,-12.81 448.16,-15.32 457.77,-19.78 458.45,-12.81"/>
<text text-anchor="middle" x="489" y="-25" font-family="Helvetica,sans-Serif" font-size="10.00"> handler</text>
</g>
</g>
</svg>
