<?xml version="1.0" encoding="UTF-8" standalone="no"?>
<!DOCTYPE svg PUBLIC "-//W3C//DTD SVG 1.1//EN"
 "http://www.w3.org/Graphics/SVG/1.1/DTD/svg11.dtd">
<!-- Generated by graphviz version 2.43.0 (0)
 -->
<!-- Title: SimCtx Pages: 1 -->
<!--zoomable 642 -->
<svg id="main" version="1.1" xmlns="http://www.w3.org/2000/svg" xmlns:xlink="http://www.w3.org/1999/xlink" xml:space="preserve" onload="init(evt)">
<style type="text/css"><![CDATA[
.edge:hover path { stroke: red; }
.edge:hover polygon { stroke: red; fill: red; }
]]></style>
<script type="text/javascript"><![CDATA[
var edges = document.getElementsByTagName('g');
if (edges && edges.length) {
  for (var i=0;i<edges.length;i++) {
    if (edges[i].id.substr(0,4)=='edge') {
      edges[i].setAttribute('class','edge');
    }
  }
}
]]></script>
        <defs>
                <circle id="rim" cx="0" cy="0" r="7"/>
                <circle id="rim2" cx="0" cy="0" r="3.5"/>
                <g id="zoomPlus">
                        <use xlink:href="#rim" fill="#404040">
                                <set attributeName="fill" to="#808080" begin="zoomplus.mouseover" end="zoomplus.mouseout"/>
                        </use>
                        <path d="M-4,0h8M0,-4v8" fill="none" stroke="white" stroke-width="1.5" pointer-events="none"/>
                </g>
                <g id="zoomMin">
                        <use xlink:href="#rim" fill="#404040">
                                <set attributeName="fill" to="#808080" begin="zoomminus.mouseover" end="zoomminus.mouseout"/>
                        </use>
                        <path d="M-4,0h8" fill="none" stroke="white" stroke-width="1.5" pointer-events="none"/>
                </g>
                <g id="dirArrow">
                        <path fill="none" stroke="white" stroke-width="1.5" d="M0,-3.0v7 M-2.5,-0.5L0,-3.0L2.5,-0.5"/>
                </g>
               <g id="resetDef">
                       <use xlink:href="#rim2" fill="#404040">
                               <set attributeName="fill" to="#808080" begin="reset.mouseover" end="reset.mouseout"/>
                       </use>
               </g>
        </defs>

<script type="text/javascript">
var viewWidth = 1086;
var viewHeight = 642;
var sectionId = 'dynsection-19';
</script>
<script xlink:href="svgpan.js"/>
<svg id="graph" class="graph">
<g id="viewport">
<title>SimCtx</title>
<!-- Node1 -->
<g id="node1" class="node">
<title>Node1</title>
<g id="a_node1"><a xlink:title="The master context for the entire simulation.">
<polygon fill="#bfbfbf" stroke="black" points="562.5,-450.35 562.5,-469.35 614.5,-469.35 614.5,-450.35 562.5,-450.35"/>
<text text-anchor="middle" x="588.5" y="-457.35" font-family="Helvetica,sans-Serif" font-size="10.00">SimCtx</text>
</a>
</g>
</g>
<!-- Node4 -->
<g id="node4" class="node">
<title>Node4</title>
<g id="a_node4"><a xlink:href="variables__old_8h.html#structUserCtx" target="_top" xlink:title="User&#45;defined context containing data specific to a single computational grid level.">
<polygon fill="none" stroke="black" points="770,-250.35 770,-269.35 826,-269.35 826,-250.35 770,-250.35"/>
<text text-anchor="middle" x="798" y="-257.35" font-family="Helvetica,sans-Serif" font-size="10.00">UserCtx</text>
</a>
</g>
</g>
<!-- Node1&#45;&gt;Node4 -->
<g id="edge4" class="edge">
<title>Node1&#45;&gt;Node4</title>
<path fill="none" stroke="#9a32cd" stroke-dasharray="5,2" d="M624.32,-447.83C637.06,-443.56 651.63,-438.83 665,-434.85 703.34,-423.45 723.31,-439.72 752,-411.85 793.07,-371.97 797.11,-296.55 797.18,-269.67"/>
<polygon fill="#9a32cd" stroke="#9a32cd" points="622.9,-444.61 614.54,-451.13 625.14,-451.25 622.9,-444.61"/>
<text text-anchor="middle" x="708.5" y="-437.85" font-family="Helvetica,sans-Serif" font-size="10.00"> simCtx</text>
</g>
<!-- Node2 -->
<g id="node2" class="node">
<title>Node2</title>
<g id="a_node2"><a xlink:href="variables__old_8h.html#structUserMG" target="_top" xlink:title="User&#45;level context for managing the entire multigrid hierarchy.">
<polygon fill="none" stroke="black" points="1022,-431.35 1022,-450.35 1078,-450.35 1078,-431.35 1022,-431.35"/>
<text text-anchor="middle" x="1050" y="-438.35" font-family="Helvetica,sans-Serif" font-size="10.00">UserMG</text>
</a>
</g>
</g>
<!-- Node2&#45;&gt;Node1 -->
<g id="edge1" class="edge">
<title>Node2&#45;&gt;Node1</title>
<path fill="none" stroke="#9a32cd" stroke-dasharray="5,2" d="M1011.86,-442.39C921.3,-446.13 690.91,-455.66 614.53,-458.82"/>
<polygon fill="#9a32cd" stroke="#9a32cd" points="1012.1,-445.88 1021.95,-441.97 1011.81,-438.89 1012.1,-445.88"/>
<text text-anchor="middle" x="864" y="-451.85" font-family="Helvetica,sans-Serif" font-size="10.00"> usermg</text>
</g>
<!-- Node3 -->
<g id="node3" class="node">
<title>Node3</title>
<g id="a_node3"><a xlink:href="variables__old_8h.html#structMGCtx" target="_top" xlink:title="Context for Multigrid operations.">
<polygon fill="none" stroke="black" points="902,-376.35 902,-395.35 952,-395.35 952,-376.35 902,-376.35"/>
<text text-anchor="middle" x="927" y="-383.35" font-family="Helvetica,sans-Serif" font-size="10.00">MGCtx</text>
</a>
</g>
</g>
<!-- Node3&#45;&gt;Node2 -->
<g id="edge2" class="edge">
<title>Node3&#45;&gt;Node2</title>
<path fill="none" stroke="#9a32cd" stroke-dasharray="5,2" d="M958.47,-399.7C980.09,-409.53 1008.56,-422.47 1027.76,-431.2"/>
<polygon fill="#9a32cd" stroke="#9a32cd" points="959.63,-396.39 949.08,-395.43 956.73,-402.76 959.63,-396.39"/>
<text text-anchor="middle" x="987" y="-422.85" font-family="Helvetica,sans-Serif" font-size="10.00"> mgctx</text>
</g>
<!-- Node4&#45;&gt;Node3 -->
<g id="edge3" class="edge">
<title>Node4&#45;&gt;Node3</title>
<path fill="none" stroke="#9a32cd" stroke-dasharray="5,2" d="M816.18,-276.9C843.14,-303.65 894.52,-354.62 916.08,-376.01"/>
<polygon fill="#9a32cd" stroke="#9a32cd" points="818.53,-274.3 808.97,-269.74 813.6,-279.27 818.53,-274.3"/>
<text text-anchor="middle" x="864" y="-343.85" font-family="Helvetica,sans-Serif" font-size="10.00"> user</text>
</g>
<!-- Node4&#45;&gt;Node4 -->
<g id="edge21" class="edge">
<title>Node4&#45;&gt;Node4</title>
<path fill="none" stroke="#9a32cd" stroke-dasharray="5,2" d="M785.85,-279.62C786.8,-284.35 790.85,-287.85 798,-287.85 809.73,-287.85 813.12,-278.42 808.17,-269.61"/>
<polygon fill="#9a32cd" stroke="#9a32cd" points="789.32,-280.1 787.83,-269.61 782.45,-278.74 789.32,-280.1"/>
<text text-anchor="middle" x="798" y="-301.85" font-family="Helvetica,sans-Serif" font-size="10.00"> user_f</text>
<text text-anchor="middle" x="798" y="-290.85" font-family="Helvetica,sans-Serif" font-size="10.00">user_c</text>
</g>
<!-- Node5 -->
<g id="node5" class="node">
<title>Node5</title>
<g id="a_node5"><a xlink:href="variables__old_8h.html#structIBMInfo" target="_top" xlink:title="Holds interpolation and distance information for a single IBM point.">
<polygon fill="none" stroke="black" points="129.5,-234.35 129.5,-253.35 183.5,-253.35 183.5,-234.35 129.5,-234.35"/>
<text text-anchor="middle" x="156.5" y="-241.35" font-family="Helvetica,sans-Serif" font-size="10.00">IBMInfo</text>
</a>
</g>
</g>
<!-- Node5&#45;&gt;Node4 -->
<g id="edge5" class="edge">
<title>Node5&#45;&gt;Node4</title>
<path fill="none" stroke="#9a32cd" stroke-dasharray="5,2" d="M193.72,-239.36C274.92,-229.91 477.68,-209.82 647,-221.85 694.02,-225.19 707.07,-222.6 752,-236.85 762.2,-240.09 772.9,-245.47 781.31,-250.21"/>
<polygon fill="#9a32cd" stroke="#9a32cd" points="193.05,-235.91 183.53,-240.56 193.87,-242.87 193.05,-235.91"/>
<text text-anchor="middle" x="489" y="-221.85" font-family="Helvetica,sans-Serif" font-size="10.00"> ibm_intp</text>
</g>
<!-- Node15 -->
<g id="node15" class="node">
<title>Node15</title>
<g id="a_node15"><a xlink:href="variables__old_8h.html#structIBMListNode" target="_top" xlink:title="A linked list node containing IBM interpolation info.">
<polygon fill="none" stroke="black" points="354,-123.35 354,-142.35 432,-142.35 432,-123.35 354,-123.35"/>
<text text-anchor="middle" x="393" y="-130.35" font-family="Helvetica,sans-Serif" font-size="10.00">IBMListNode</text>
</a>
</g>
</g>
<!-- Node5&#45;&gt;Node15 -->
<g id="edge19" class="edge">
<title>Node5&#45;&gt;Node15</title>
<path fill="none" stroke="#9a32cd" stroke-dasharray="5,2" d="M168.23,-225.62C178.03,-210.57 193.87,-189.82 213,-177.85 256.47,-150.67 315.52,-139.88 353.7,-135.62"/>
<polygon fill="#9a32cd" stroke="#9a32cd" points="165.25,-223.78 162.94,-234.12 171.2,-227.48 165.25,-223.78"/>
<text text-anchor="middle" x="266.5" y="-180.85" font-family="Helvetica,sans-Serif" font-size="10.00"> ibm_intp</text>
</g>
<!-- Node20 -->
<g id="node20" class="node">
<title>Node20</title>
<g id="a_node20"><a xlink:href="variables__old_8h.html#structFSInfo" target="_top" xlink:title="Holds all data related to the state and motion of a body in FSI.">
<polygon fill="none" stroke="black" points="369.5,-483.35 369.5,-502.35 416.5,-502.35 416.5,-483.35 369.5,-483.35"/>
<text text-anchor="middle" x="393" y="-490.35" font-family="Helvetica,sans-Serif" font-size="10.00">FSInfo</text>
</a>
</g>
</g>
<!-- Node5&#45;&gt;Node20 -->
<g id="edge30" class="edge">
<title>Node5&#45;&gt;Node20</title>
<path fill="none" stroke="#9a32cd" stroke-dasharray="5,2" d="M175.76,-260.53C208.25,-290.97 276.76,-358.73 320,-426.85 330.88,-444 323.74,-454.4 338,-468.85 346.5,-477.47 358.64,-483.24 369.25,-486.96"/>
<polygon fill="#9a32cd" stroke="#9a32cd" points="178.02,-257.85 168.31,-253.61 173.26,-262.98 178.02,-257.85"/>
<text text-anchor="middle" x="266.5" y="-429.85" font-family="Helvetica,sans-Serif" font-size="10.00"> fsi_intp</text>
</g>
<!-- Node6 -->
<g id="node6" class="node">
<title>Node6</title>
<g id="a_node6"><a xlink:href="variables__old_8h.html#structCmpnts" target="_top" xlink:title="A 3D point or vector with PetscScalar components.">
<polygon fill="none" stroke="black" points="0,-414.35 0,-433.35 54,-433.35 54,-414.35 0,-414.35"/>
<text text-anchor="middle" x="27" y="-421.35" font-family="Helvetica,sans-Serif" font-size="10.00">Cmpnts</text>
</a>
</g>
</g>
<!-- Node6&#45;&gt;Node1 -->
<g id="edge28" class="edge">
<title>Node6&#45;&gt;Node1</title>
<path fill="none" stroke="#9a32cd" stroke-dasharray="5,2" d="M39.55,-441.79C54.59,-463.28 83.14,-498.1 118,-511.85 254.43,-565.69 302.57,-530.84 448,-511.85 493.88,-505.86 543.8,-482.83 569.68,-469.51"/>
<polygon fill="#9a32cd" stroke="#9a32cd" points="42.45,-439.83 33.95,-433.5 36.65,-443.74 42.45,-439.83"/>
<text text-anchor="middle" x="266.5" y="-542.85" font-family="Helvetica,sans-Serif" font-size="10.00"> InitialConstantContra</text>
</g>
<!-- Node6&#45;&gt;Node4 -->
<g id="edge12" class="edge">
<title>Node6&#45;&gt;Node4</title>
<path fill="none" stroke="#9a32cd" stroke-dasharray="5,2" d="M30.36,-404.01C40.09,-326.81 80.15,-50.85 155.5,-50.85 155.5,-50.85 155.5,-50.85 589.5,-50.85 662.51,-50.85 698.06,-25.66 752,-74.85 778.5,-99.02 792.41,-215.14 796.03,-249.96"/>
<polygon fill="#9a32cd" stroke="#9a32cd" points="26.85,-403.91 29.1,-414.26 33.8,-404.76 26.85,-403.91"/>
<text text-anchor="middle" x="393" y="-53.85" font-family="Helvetica,sans-Serif" font-size="10.00"> InitialConstantContra</text>
</g>
<!-- Node6&#45;&gt;Node5 -->
<g id="edge6" class="edge">
<title>Node6&#45;&gt;Node5</title>
<path fill="none" stroke="#9a32cd" stroke-dasharray="5,2" d="M40.86,-405.69C67.55,-368.01 128.16,-282.45 148.61,-253.58"/>
<polygon fill="#9a32cd" stroke="#9a32cd" points="37.78,-403.99 34.85,-414.18 43.49,-408.04 37.78,-403.99"/>
<text text-anchor="middle" x="86" y="-362.85" font-family="Helvetica,sans-Serif" font-size="10.00"> pmin</text>
</g>
<!-- Node10 -->
<g id="node10" class="node">
<title>Node10</title>
<g id="a_node10"><a xlink:href="variables__old_8h.html#structIBMNodes" target="_top" xlink:title="Represents a collection of nodes forming a surface for the IBM.">
<polygon fill="none" stroke="black" points="360,-567.35 360,-586.35 426,-586.35 426,-567.35 360,-567.35"/>
<text text-anchor="middle" x="393" y="-574.35" font-family="Helvetica,sans-Serif" font-size="10.00">IBMNodes</text>
</a>
</g>
</g>
<!-- Node6&#45;&gt;Node10 -->
<g id="edge11" class="edge">
<title>Node6&#45;&gt;Node10</title>
<path fill="none" stroke="#9a32cd" stroke-dasharray="5,2" d="M29,-443.71C31.54,-471.24 40.51,-520.37 72,-544.85 157.51,-611.34 297.19,-595.43 359.83,-583.83"/>
<polygon fill="#9a32cd" stroke="#9a32cd" points="32.49,-443.4 28.27,-433.68 25.5,-443.91 32.49,-443.4"/>
<text text-anchor="middle" x="156.5" y="-625.85" font-family="Helvetica,sans-Serif" font-size="10.00"> qvec</text>
<text text-anchor="middle" x="156.5" y="-614.85" font-family="Helvetica,sans-Serif" font-size="10.00">uold</text>
<text text-anchor="middle" x="156.5" y="-603.85" font-family="Helvetica,sans-Serif" font-size="10.00">urm1</text>
<text text-anchor="middle" x="156.5" y="-592.85" font-family="Helvetica,sans-Serif" font-size="10.00">u</text>
</g>
<!-- Node12 -->
<g id="node12" class="node">
<title>Node12</title>
<g id="a_node12"><a xlink:href="variables__old_8h.html#structBoundingBox" target="_top" xlink:title="Defines a 3D axis&#45;aligned bounding box.">
<polygon fill="none" stroke="black" points="352.5,-398.35 352.5,-417.35 433.5,-417.35 433.5,-398.35 352.5,-398.35"/>
<text text-anchor="middle" x="393" y="-405.35" font-family="Helvetica,sans-Serif" font-size="10.00">BoundingBox</text>
</a>
</g>
</g>
<!-- Node6&#45;&gt;Node12 -->
<g id="edge15" class="edge">
<title>Node6&#45;&gt;Node12</title>
<path fill="none" stroke="#9a32cd" stroke-dasharray="5,2" d="M64.45,-416.4C80.75,-413.43 100.26,-410.35 118,-408.85 201.19,-401.82 299.09,-403.96 352.44,-406"/>
<polygon fill="#9a32cd" stroke="#9a32cd" points="63.42,-413.04 54.24,-418.33 64.72,-419.91 63.42,-413.04"/>
<text text-anchor="middle" x="156.5" y="-422.85" font-family="Helvetica,sans-Serif" font-size="10.00"> max_coords</text>
<text text-anchor="middle" x="156.5" y="-411.85" font-family="Helvetica,sans-Serif" font-size="10.00">min_coords</text>
</g>
<!-- Node22 -->
<g id="node22" class="node">
<title>Node22</title>
<g id="a_node22"><a xlink:href="variables__old_8h.html#structIBMVNodes" target="_top" xlink:title="Represents a collection of nodes forming a volume for the IBM.">
<polygon fill="none" stroke="black" points="230,-444.35 230,-463.35 303,-463.35 303,-444.35 230,-444.35"/>
<text text-anchor="middle" x="266.5" y="-451.35" font-family="Helvetica,sans-Serif" font-size="10.00">IBMVNodes</text>
</a>
</g>
</g>
<!-- Node6&#45;&gt;Node22 -->
<g id="edge34" class="edge">
<title>Node6&#45;&gt;Node22</title>
<path fill="none" stroke="#9a32cd" stroke-dasharray="5,2" d="M64.5,-428.46C109.43,-434.14 185.23,-443.71 229.8,-449.34"/>
<polygon fill="#9a32cd" stroke="#9a32cd" points="64.68,-424.96 54.32,-427.18 63.81,-431.9 64.68,-424.96"/>
<text text-anchor="middle" x="86" y="-456.85" font-family="Helvetica,sans-Serif" font-size="10.00"> uold</text>
<text text-anchor="middle" x="86" y="-445.85" font-family="Helvetica,sans-Serif" font-size="10.00">urm1</text>
<text text-anchor="middle" x="86" y="-434.85" font-family="Helvetica,sans-Serif" font-size="10.00">u</text>
</g>
<!-- Node7 -->
<g id="node7" class="node">
<title>Node7</title>
<g id="a_node7"><a xlink:href="variables__old_8h.html#structCmpnts2" target="_top" xlink:title="A 2D point or vector with PetscScalar components.">
<polygon fill="none" stroke="black" points="558.5,-307.35 558.5,-326.35 618.5,-326.35 618.5,-307.35 558.5,-307.35"/>
<text text-anchor="middle" x="588.5" y="-314.35" font-family="Helvetica,sans-Serif" font-size="10.00">Cmpnts2</text>
</a>
</g>
</g>
<!-- Node7&#45;&gt;Node4 -->
<g id="edge7" class="edge">
<title>Node7&#45;&gt;Node4</title>
<path fill="none" stroke="#9a32cd" stroke-dasharray="5,2" d="M629.08,-313.06C662.62,-308.96 711.56,-300.9 752,-285.85 762.99,-281.76 774.43,-275.12 783.02,-269.58"/>
<polygon fill="#9a32cd" stroke="#9a32cd" points="628.3,-309.62 618.76,-314.25 629.1,-316.58 628.3,-309.62"/>
<text text-anchor="middle" x="708.5" y="-309.85" font-family="Helvetica,sans-Serif" font-size="10.00"> komega_plane</text>
</g>
<!-- Node8 -->
<g id="node8" class="node">
<title>Node8</title>
<g id="a_node8"><a xlink:href="variables__old_8h.html#structRankNeighbors" target="_top" xlink:title="Stores the MPI ranks of neighboring subdomains.">
<polygon fill="none" stroke="black" points="543,-269.35 543,-288.35 634,-288.35 634,-269.35 543,-269.35"/>
<text text-anchor="middle" x="588.5" y="-276.35" font-family="Helvetica,sans-Serif" font-size="10.00">RankNeighbors</text>
</a>
</g>
</g>
<!-- Node8&#45;&gt;Node4 -->
<g id="edge8" class="edge">
<title>Node8&#45;&gt;Node4</title>
<path fill="none" stroke="#9a32cd" stroke-dasharray="5,2" d="M643.99,-273.86C684.43,-270.16 737.86,-265.27 769.7,-262.35"/>
<polygon fill="#9a32cd" stroke="#9a32cd" points="643.65,-270.38 634.01,-274.78 644.29,-277.35 643.65,-270.38"/>
<text text-anchor="middle" x="708.5" y="-273.85" font-family="Helvetica,sans-Serif" font-size="10.00"> neighbors</text>
</g>
<!-- Node9 -->
<g id="node9" class="node">
<title>Node9</title>
<g id="a_node9"><a xlink:href="variables__old_8h.html#structRankCellInfo" target="_top" xlink:title="A lean struct to hold the global cell ownership range for a single MPI rank.">
<polygon fill="none" stroke="black" points="549,-231.35 549,-250.35 628,-250.35 628,-231.35 549,-231.35"/>
<text text-anchor="middle" x="588.5" y="-238.35" font-family="Helvetica,sans-Serif" font-size="10.00">RankCellInfo</text>
</a>
</g>
</g>
<!-- Node9&#45;&gt;Node4 -->
<g id="edge9" class="edge">
<title>Node9&#45;&gt;Node4</title>
<path fill="none" stroke="#9a32cd" stroke-dasharray="5,2" d="M638.23,-240.84C670.63,-241.42 714.04,-243.33 752,-248.85 757.73,-249.69 763.8,-250.92 769.56,-252.27"/>
<polygon fill="#9a32cd" stroke="#9a32cd" points="638.16,-237.33 628.11,-240.69 638.06,-244.33 638.16,-237.33"/>
<text text-anchor="middle" x="708.5" y="-251.85" font-family="Helvetica,sans-Serif" font-size="10.00"> RankCellInfoMap</text>
</g>
<!-- Node10&#45;&gt;Node1 -->
<g id="edge27" class="edge">
<title>Node10&#45;&gt;Node1</title>
<path fill="none" stroke="#9a32cd" stroke-dasharray="5,2" d="M436.29,-570.05C459.87,-564.9 489.02,-556.18 512,-541.85 543.2,-522.4 569.68,-486.65 581.25,-469.51"/>
<polygon fill="#9a32cd" stroke="#9a32cd" points="435.32,-566.68 426.23,-572.11 436.73,-573.54 435.32,-566.68"/>
<text text-anchor="middle" x="489" y="-564.85" font-family="Helvetica,sans-Serif" font-size="10.00"> ibm</text>
</g>
<!-- Node10&#45;&gt;Node4 -->
<g id="edge10" class="edge">
<title>Node10&#45;&gt;Node4</title>
<path fill="none" stroke="#9a32cd" stroke-dasharray="5,2" d="M436.11,-581.26C458.9,-582.47 487.36,-582.04 512,-575.85 628.85,-546.52 678.14,-545.03 752,-449.85 796.06,-393.08 798.01,-300.04 797.37,-269.73"/>
<polygon fill="#9a32cd" stroke="#9a32cd" points="436.27,-577.77 426.07,-580.61 435.82,-584.75 436.27,-577.77"/>
<text text-anchor="middle" x="588.5" y="-573.85" font-family="Helvetica,sans-Serif" font-size="10.00"> ibm</text>
</g>
<!-- Node11 -->
<g id="node11" class="node">
<title>Node11</title>
<g id="a_node11"><a xlink:href="variables__old_8h.html#structPostProcessParams" target="_top" xlink:title="Parameters controlling post&#45;processing output actions.">
<polygon fill="none" stroke="black" points="532.5,-155.35 532.5,-174.35 644.5,-174.35 644.5,-155.35 532.5,-155.35"/>
<text text-anchor="middle" x="588.5" y="-162.35" font-family="Helvetica,sans-Serif" font-size="10.00">PostProcessParams</text>
</a>
</g>
</g>
<!-- Node11&#45;&gt;Node4 -->
<g id="edge13" class="edge">
<title>Node11&#45;&gt;Node4</title>
<path fill="none" stroke="#9a32cd" stroke-dasharray="5,2" d="M654.92,-156.32C686.56,-155.45 723.7,-159.54 752,-177.85 778.18,-194.79 790.4,-232.45 794.88,-250.22"/>
<polygon fill="#9a32cd" stroke="#9a32cd" points="654.7,-152.82 644.87,-156.76 655.01,-159.82 654.7,-152.82"/>
<text text-anchor="middle" x="708.5" y="-180.85" font-family="Helvetica,sans-Serif" font-size="10.00"> pp</text>
</g>
<!-- Node12&#45;&gt;Node1 -->
<g id="edge32" class="edge">
<title>Node12&#45;&gt;Node1</title>
<path fill="none" stroke="#9a32cd" stroke-dasharray="5,2" d="M443.35,-418.05C464.59,-422.72 489.63,-428.61 512,-434.85 528.89,-439.57 547.6,-445.76 562.17,-450.8"/>
<polygon fill="#9a32cd" stroke="#9a32cd" points="444.08,-414.63 433.57,-415.93 442.6,-421.47 444.08,-414.63"/>
<text text-anchor="middle" x="489" y="-437.85" font-family="Helvetica,sans-Serif" font-size="10.00"> bboxlist</text>
</g>
<!-- Node12&#45;&gt;Node4 -->
<g id="edge14" class="edge">
<title>Node12&#45;&gt;Node4</title>
<path fill="none" stroke="#9a32cd" stroke-dasharray="5,2" d="M443.92,-407.86C530.65,-406.9 704.45,-400.46 752,-364.85 783.59,-341.2 793.26,-290.87 796,-269.63"/>
<polygon fill="#9a32cd" stroke="#9a32cd" points="443.76,-404.36 433.79,-407.95 443.82,-411.36 443.76,-404.36"/>
<text text-anchor="middle" x="588.5" y="-418.85" font-family="Helvetica,sans-Serif" font-size="10.00"> global_domain_bbox</text>
<text text-anchor="middle" x="588.5" y="-407.85" font-family="Helvetica,sans-Serif" font-size="10.00">bbox</text>
</g>
<!-- Node13 -->
<g id="node13" class="node">
<title>Node13</title>
<g id="a_node13"><a xlink:href="variables__old_8h.html#structFlowWave" target="_top" xlink:title="Represents a single point in a time&#45;varying flow waveform.">
<polygon fill="none" stroke="black" points="554.5,-79.35 554.5,-98.35 622.5,-98.35 622.5,-79.35 554.5,-79.35"/>
<text text-anchor="middle" x="588.5" y="-86.35" font-family="Helvetica,sans-Serif" font-size="10.00">FlowWave</text>
</a>
</g>
</g>
<!-- Node13&#45;&gt;Node4 -->
<g id="edge16" class="edge">
<title>Node13&#45;&gt;Node4</title>
<path fill="none" stroke="#9a32cd" stroke-dasharray="5,2" d="M632.69,-80.24C668.63,-75.69 719.07,-75.74 752,-102.85 797.97,-140.7 798.8,-222.1 797.62,-250.13"/>
<polygon fill="#9a32cd" stroke="#9a32cd" points="631.9,-76.81 622.5,-81.7 632.9,-83.74 631.9,-76.81"/>
<text text-anchor="middle" x="708.5" y="-105.85" font-family="Helvetica,sans-Serif" font-size="10.00"> inflow</text>
</g>
<!-- Node14 -->
<g id="node14" class="node">
<title>Node14</title>
<g id="a_node14"><a xlink:href="variables__old_8h.html#structIBMList" target="_top" xlink:title="Head of a linked list for IBM data.">
<polygon fill="none" stroke="black" points="562,-117.35 562,-136.35 615,-136.35 615,-117.35 562,-117.35"/>
<text text-anchor="middle" x="588.5" y="-124.35" font-family="Helvetica,sans-Serif" font-size="10.00">IBMList</text>
</a>
</g>
</g>
<!-- Node14&#45;&gt;Node4 -->
<g id="edge17" class="edge">
<title>Node14&#45;&gt;Node4</title>
<path fill="none" stroke="#9a32cd" stroke-dasharray="5,2" d="M625.25,-120.09C661.01,-115.45 715.75,-114.34 752,-141.85 787.45,-168.76 794.98,-227.19 796.57,-250.23"/>
<polygon fill="#9a32cd" stroke="#9a32cd" points="624.65,-116.64 615.26,-121.55 625.66,-123.57 624.65,-116.64"/>
<text text-anchor="middle" x="708.5" y="-144.85" font-family="Helvetica,sans-Serif" font-size="10.00"> ibmlist</text>
</g>
<!-- Node15&#45;&gt;Node14 -->
<g id="edge18" class="edge">
<title>Node15&#45;&gt;Node14</title>
<path fill="none" stroke="#9a32cd" stroke-dasharray="5,2" d="M442.55,-131.35C480.48,-130.17 531.7,-128.58 562,-127.64"/>
<polygon fill="#9a32cd" stroke="#9a32cd" points="442.12,-127.86 432.23,-131.67 442.33,-134.86 442.12,-127.86"/>
<text text-anchor="middle" x="489" y="-133.85" font-family="Helvetica,sans-Serif" font-size="10.00"> head</text>
</g>
<!-- Node15&#45;&gt;Node15 -->
<g id="edge20" class="edge">
<title>Node15&#45;&gt;Node15</title>
<path fill="none" stroke="#9a32cd" stroke-dasharray="5,2" d="M375.22,-152.25C376.41,-157.17 382.34,-160.85 393,-160.85 410.06,-160.85 414.99,-151.42 407.8,-142.61"/>
<polygon fill="#9a32cd" stroke="#9a32cd" points="378.59,-153.2 378.2,-142.61 371.91,-151.13 378.59,-153.2"/>
<text text-anchor="middle" x="393" y="-163.85" font-family="Helvetica,sans-Serif" font-size="10.00"> next</text>
</g>
<!-- Node16 -->
<g id="node16" class="node">
<title>Node16</title>
<g id="a_node16"><a xlink:href="variables__old_8h.html#structBCS" target="_top" xlink:title="Legacy boundary condition data.">
<polygon fill="none" stroke="black" points="570.5,-3.35 570.5,-22.35 606.5,-22.35 606.5,-3.35 570.5,-3.35"/>
<text text-anchor="middle" x="588.5" y="-10.35" font-family="Helvetica,sans-Serif" font-size="10.00">BCS</text>
</a>
</g>
</g>
<!-- Node16&#45;&gt;Node4 -->
<g id="edge22" class="edge">
<title>Node16&#45;&gt;Node4</title>
<path fill="none" stroke="#9a32cd" stroke-dasharray="5,2" d="M616.71,-6.05C652.46,1.11 715.03,7.26 752,-25.85 786.21,-56.49 794.93,-209.96 796.64,-250.19"/>
<polygon fill="#9a32cd" stroke="#9a32cd" points="615.56,-2.72 606.53,-8.27 617.05,-9.56 615.56,-2.72"/>
<text text-anchor="middle" x="708.5" y="-28.85" font-family="Helvetica,sans-Serif" font-size="10.00"> Bcs</text>
</g>
<!-- Node17 -->
<g id="node17" class="node">
<title>Node17</title>
<g id="a_node17"><a xlink:href="variables_8h.html#structBoundaryFaceConfig" target="_top" xlink:title="Holds the complete configuration for one of the six boundary faces.">
<polygon fill="none" stroke="black" points="530,-345.35 530,-364.35 647,-364.35 647,-345.35 530,-345.35"/>
<text text-anchor="middle" x="588.5" y="-352.35" font-family="Helvetica,sans-Serif" font-size="10.00">BoundaryFaceConfig</text>
</a>
</g>
</g>
<!-- Node17&#45;&gt;Node4 -->
<g id="edge23" class="edge">
<title>Node17&#45;&gt;Node4</title>
<path fill="none" stroke="#9a32cd" stroke-dasharray="5,2" d="M657.39,-352.19C688.26,-348.31 724.05,-339.83 752,-321.85 772.13,-308.9 786.2,-283.51 792.78,-269.58"/>
<polygon fill="#9a32cd" stroke="#9a32cd" points="656.67,-348.75 647.12,-353.34 657.45,-355.71 656.67,-348.75"/>
<text text-anchor="middle" x="708.5" y="-352.85" font-family="Helvetica,sans-Serif" font-size="10.00"> boundary_faces</text>
</g>
<!-- Node18 -->
<g id="node18" class="node">
<title>Node18</title>
<g id="a_node18"><a xlink:href="variables__old_8h.html#structBC__Param__s" target="_top" xlink:title="A node in a linked list for storing key&#45;value parameters from the bcs.dat file.">
<polygon fill="none" stroke="black" points="354.5,-331.35 354.5,-350.35 431.5,-350.35 431.5,-331.35 354.5,-331.35"/>
<text text-anchor="middle" x="393" y="-338.35" font-family="Helvetica,sans-Serif" font-size="10.00">BC_Param_s</text>
</a>
</g>
</g>
<!-- Node18&#45;&gt;Node17 -->
<g id="edge24" class="edge">
<title>Node18&#45;&gt;Node17</title>
<path fill="none" stroke="#9a32cd" stroke-dasharray="5,2" d="M441.96,-344.32C468.49,-346.24 501.66,-348.64 529.63,-350.67"/>
<polygon fill="#9a32cd" stroke="#9a32cd" points="441.99,-340.82 431.77,-343.59 441.49,-347.8 441.99,-340.82"/>
<text text-anchor="middle" x="489" y="-351.85" font-family="Helvetica,sans-Serif" font-size="10.00"> params</text>
</g>
<!-- Node18&#45;&gt;Node18 -->
<g id="edge25" class="edge">
<title>Node18&#45;&gt;Node18</title>
<path fill="none" stroke="#9a32cd" stroke-dasharray="5,2" d="M375.22,-360.25C376.41,-365.17 382.34,-368.85 393,-368.85 410.06,-368.85 414.99,-359.42 407.8,-350.61"/>
<polygon fill="#9a32cd" stroke="#9a32cd" points="378.59,-361.2 378.2,-350.61 371.91,-359.13 378.59,-361.2"/>
<text text-anchor="middle" x="393" y="-371.85" font-family="Helvetica,sans-Serif" font-size="10.00"> next</text>
</g>
<!-- Node19 -->
<g id="node19" class="node">
<title>Node19</title>
<g id="a_node19"><a xlink:href="structBoundaryCondition.html" target="_top" xlink:title="The &quot;virtual table&quot; struct for a boundary condition handler object.">
<polygon fill="none" stroke="black" points="338,-293.35 338,-312.35 448,-312.35 448,-293.35 338,-293.35"/>
<text text-anchor="middle" x="393" y="-300.35" font-family="Helvetica,sans-Serif" font-size="10.00">BoundaryCondition</text>
</a>
</g>
</g>
<!-- Node19&#45;&gt;Node17 -->
<g id="edge26" class="edge">
<title>Node19&#45;&gt;Node17</title>
<path fill="none" stroke="#9a32cd" stroke-dasharray="5,2" d="M447.62,-314.68C467.88,-319.39 491.08,-325.06 512,-330.85 527.77,-335.22 545.2,-340.72 559.33,-345.35"/>
<polygon fill="#9a32cd" stroke="#9a32cd" points="448.16,-311.22 437.63,-312.39 446.59,-318.04 448.16,-311.22"/>
<text text-anchor="middle" x="489" y="-333.85" font-family="Helvetica,sans-Serif" font-size="10.00"> handler</text>
</g>
<!-- Node20&#45;&gt;Node1 -->
<g id="edge29" class="edge">
<title>Node20&#45;&gt;Node1</title>
<path fill="none" stroke="#9a32cd" stroke-dasharray="5,2" d="M426.69,-487.28C464.98,-480.75 527.6,-470.07 562.32,-464.15"/>
<polygon fill="#9a32cd" stroke="#9a32cd" points="425.84,-483.87 416.58,-489 427.02,-490.77 425.84,-483.87"/>
<text text-anchor="middle" x="489" y="-482.85" font-family="Helvetica,sans-Serif" font-size="10.00"> fsi</text>
</g>
<!-- Node21 -->
<g id="node21" class="node">
<title>Node21</title>
<g id="a_node21"><a xlink:href="variables__old_8h.html#structSurfElmtInfo" target="_top" xlink:title="Information about a surface element for FSI calculations.">
<polygon fill="none" stroke="black" points="118,-483.35 118,-502.35 195,-502.35 195,-483.35 118,-483.35"/>
<text text-anchor="middle" x="156.5" y="-490.35" font-family="Helvetica,sans-Serif" font-size="10.00">SurfElmtInfo</text>
</a>
</g>
</g>
<!-- Node21&#45;&gt;Node20 -->
<g id="edge31" class="edge">
<title>Node21&#45;&gt;Node20</title>
<path fill="none" stroke="#9a32cd" stroke-dasharray="5,2" d="M205.42,-492.85C255.41,-492.85 331.64,-492.85 369.31,-492.85"/>
<polygon fill="#9a32cd" stroke="#9a32cd" points="205.18,-489.35 195.18,-492.85 205.18,-496.35 205.18,-489.35"/>
<text text-anchor="middle" x="266.5" y="-495.85" font-family="Helvetica,sans-Serif" font-size="10.00"> elmtinfo</text>
</g>
<!-- Node22&#45;&gt;Node1 -->
<g id="edge33" class="edge">
<title>Node22&#45;&gt;Node1</title>
<path fill="none" stroke="#9a32cd" stroke-dasharray="5,2" d="M313.35,-454.71C381.89,-456 508.73,-458.38 562.44,-459.38"/>
<polygon fill="#9a32cd" stroke="#9a32cd" points="313.34,-451.21 303.28,-454.52 313.21,-458.21 313.34,-451.21"/>
<text text-anchor="middle" x="393" y="-459.85" font-family="Helvetica,sans-Serif" font-size="10.00"> ibmv</text>
</g>
</g>
</svg>
        <g id="navigator" transform="translate(0 0)" fill="#404254">
                <rect fill="#f2f5e9" fill-opacity="0.5" stroke="#606060" stroke-width=".5" x="0" y="0" width="60" height="60"/>
                <use id="zoomplus" xlink:href="#zoomPlus" x="17" y="9" onmousedown="handleZoom(evt,'in')"/>
                <use id="zoomminus" xlink:href="#zoomMin" x="42" y="9" onmousedown="handleZoom(evt,'out')"/>
                <use id="reset" xlink:href="#resetDef" x="30" y="36" onmousedown="handleReset()"/>
                <g id="arrowUp" xlink:href="#dirArrow" transform="translate(30 24)" onmousedown="handlePan(0,-1)">
                  <use xlink:href="#rim" fill="#404040">
                        <set attributeName="fill" to="#808080" begin="arrowUp.mouseover" end="arrowUp.mouseout"/>
                  </use>
                  <path fill="none" stroke="white" stroke-width="1.5" d="M0,-3.0v7 M-2.5,-0.5L0,-3.0L2.5,-0.5"/>
                </g>
                <g id="arrowRight" xlink:href="#dirArrow" transform="rotate(90) translate(36 -43)" onmousedown="handlePan(1,0)">
                  <use xlink:href="#rim" fill="#404040">
                        <set attributeName="fill" to="#808080" begin="arrowRight.mouseover" end="arrowRight.mouseout"/>
                  </use>
                  <path fill="none" stroke="white" stroke-width="1.5" d="M0,-3.0v7 M-2.5,-0.5L0,-3.0L2.5,-0.5"/>
                </g>
                <g id="arrowDown" xlink:href="#dirArrow" transform="rotate(180) translate(-30 -48)" onmousedown="handlePan(0,1)">
                  <use xlink:href="#rim" fill="#404040">
                        <set attributeName="fill" to="#808080" begin="arrowDown.mouseover" end="arrowDown.mouseout"/>
                  </use>
                  <path fill="none" stroke="white" stroke-width="1.5" d="M0,-3.0v7 M-2.5,-0.5L0,-3.0L2.5,-0.5"/>
                </g>
                <g id="arrowLeft" xlink:href="#dirArrow" transform="rotate(270) translate(-36 17)" onmousedown="handlePan(-1,0)">
                  <use xlink:href="#rim" fill="#404040">
                        <set attributeName="fill" to="#808080" begin="arrowLeft.mouseover" end="arrowLeft.mouseout"/>
                  </use>
                  <path fill="none" stroke="white" stroke-width="1.5" d="M0,-3.0v7 M-2.5,-0.5L0,-3.0L2.5,-0.5"/>
                </g>
        </g>
        <svg viewBox="0 0 15 15" width="100%" height="30px" preserveAspectRatio="xMaxYMin meet">
         <g id="arrow_out" transform="scale(0.3 0.3)">
          <a xlink:href="structSimCtx__coll__graph_org.svg" target="_base">
           <rect id="button" ry="5" rx="5" y="6" x="6" height="38" width="38"
                fill="#f2f5e9" fill-opacity="0.5" stroke="#606060" stroke-width="1.0"/>
           <path id="arrow"
             d="M 11.500037,31.436501 C 11.940474,20.09759 22.043105,11.32322 32.158766,21.979434 L 37.068811,17.246167 C 37.068811,17.246167 37.088388,32 37.088388,32 L 22.160133,31.978069 C 22.160133,31.978069 26.997745,27.140456 26.997745,27.140456 C 18.528582,18.264221 13.291696,25.230495 11.500037,31.436501 z"
             style="fill:#404040;"/>
          </a>
         </g>
        </svg>
</svg>
