<?xml version="1.0" encoding="UTF-8" standalone="no"?>
<!DOCTYPE svg PUBLIC "-//W3C//DTD SVG 1.1//EN"
 "http://www.w3.org/Graphics/SVG/1.1/DTD/svg11.dtd">
<!-- Generated by graphviz version 2.43.0 (0)
 -->
<!-- Title: BCContext Pages: 1 -->
<!--zoomable 627 -->
<svg id="main" version="1.1" xmlns="http://www.w3.org/2000/svg" xmlns:xlink="http://www.w3.org/1999/xlink" xml:space="preserve" onload="init(evt)">
<style type="text/css"><![CDATA[
.edge:hover path { stroke: red; }
.edge:hover polygon { stroke: red; fill: red; }
]]></style>
<script type="text/javascript"><![CDATA[
var edges = document.getElementsByTagName('g');
if (edges && edges.length) {
  for (var i=0;i<edges.length;i++) {
    if (edges[i].id.substr(0,4)=='edge') {
      edges[i].setAttribute('class','edge');
    }
  }
}
]]></script>
        <defs>
                <circle id="rim" cx="0" cy="0" r="7"/>
                <circle id="rim2" cx="0" cy="0" r="3.5"/>
                <g id="zoomPlus">
                        <use xlink:href="#rim" fill="#404040">
                                <set attributeName="fill" to="#808080" begin="zoomplus.mouseover" end="zoomplus.mouseout"/>
                        </use>
                        <path d="M-4,0h8M0,-4v8" fill="none" stroke="white" stroke-width="1.5" pointer-events="none"/>
                </g>
                <g id="zoomMin">
                        <use xlink:href="#rim" fill="#404040">
                                <set attributeName="fill" to="#808080" begin="zoomminus.mouseover" end="zoomminus.mouseout"/>
                        </use>
                        <path d="M-4,0h8" fill="none" stroke="white" stroke-width="1.5" pointer-events="none"/>
                </g>
                <g id="dirArrow">
                        <path fill="none" stroke="white" stroke-width="1.5" d="M0,-3.0v7 M-2.5,-0.5L0,-3.0L2.5,-0.5"/>
                </g>
               <g id="resetDef">
                       <use xlink:href="#rim2" fill="#404040">
                               <set attributeName="fill" to="#808080" begin="reset.mouseover" end="reset.mouseout"/>
                       </use>
               </g>
        </defs>

<script type="text/javascript">
var viewWidth = 1207;
var viewHeight = 627;
var sectionId = 'dynsection-6';
</script>
<script xlink:href="svgpan.js"/>
<svg id="graph" class="graph">
<g id="viewport">
<title>BCContext</title>
<!-- Node1 -->
<g id="node1" class="node">
<title>Node1</title>
<g id="a_node1"><a xlink:title="Provides execution context for a boundary condition handler.">
<polygon fill="#bfbfbf" stroke="black" points="873,-272.2 873,-291.2 941,-291.2 941,-272.2 873,-272.2"/>
<text text-anchor="middle" x="907" y="-279.2" font-family="Helvetica,sans-Serif" font-size="10.00">BCContext</text>
</a>
</g>
</g>
<!-- Node2 -->
<g id="node2" class="node">
<title>Node2</title>
<g id="a_node2"><a xlink:href="variables__old_8h.html#structUserCtx" target="_top" xlink:title="User&#45;defined context containing data specific to a single computational grid level.">
<polygon fill="none" stroke="black" points="756,-332.2 756,-351.2 812,-351.2 812,-332.2 756,-332.2"/>
<text text-anchor="middle" x="784" y="-339.2" font-family="Helvetica,sans-Serif" font-size="10.00">UserCtx</text>
</a>
</g>
</g>
<!-- Node2&#45;&gt;Node1 -->
<g id="edge1" class="edge">
<title>Node2&#45;&gt;Node1</title>
<path fill="none" stroke="#9a32cd" stroke-dasharray="5,2" d="M806.89,-326.44C814.09,-321.74 822.23,-316.74 830,-312.7 845.8,-304.48 864.29,-296.89 879.08,-291.29"/>
<polygon fill="#9a32cd" stroke="#9a32cd" points="804.75,-323.66 798.39,-332.14 808.65,-329.48 804.75,-323.66"/>
<text text-anchor="middle" x="842.5" y="-315.7" font-family="Helvetica,sans-Serif" font-size="10.00"> user</text>
</g>
<!-- Node2&#45;&gt;Node2 -->
<g id="edge30" class="edge">
<title>Node2&#45;&gt;Node2</title>
<path fill="none" stroke="#9a32cd" stroke-dasharray="5,2" d="M773.32,-361.47C774.16,-366.2 777.72,-369.7 784,-369.7 794.31,-369.7 797.29,-360.27 792.94,-351.46"/>
<polygon fill="#9a32cd" stroke="#9a32cd" points="776.79,-361.91 775.06,-351.46 769.9,-360.71 776.79,-361.91"/>
<text text-anchor="middle" x="784" y="-383.7" font-family="Helvetica,sans-Serif" font-size="10.00"> user_f</text>
<text text-anchor="middle" x="784" y="-372.7" font-family="Helvetica,sans-Serif" font-size="10.00">user_c</text>
</g>
<!-- Node5 -->
<g id="node5" class="node">
<title>Node5</title>
<g id="a_node5"><a xlink:href="variables__old_8h.html#structMGCtx" target="_top" xlink:title="Context for Multigrid operations.">
<polygon fill="none" stroke="black" points="882,-310.2 882,-329.2 932,-329.2 932,-310.2 882,-310.2"/>
<text text-anchor="middle" x="907" y="-317.2" font-family="Helvetica,sans-Serif" font-size="10.00">MGCtx</text>
</a>
</g>
</g>
<!-- Node2&#45;&gt;Node5 -->
<g id="edge5" class="edge">
<title>Node2&#45;&gt;Node5</title>
<path fill="none" stroke="#9a32cd" stroke-dasharray="5,2" d="M821.94,-334.23C824.66,-333.7 827.37,-333.19 830,-332.7 847.24,-329.5 866.74,-326.17 881.67,-323.69"/>
<polygon fill="#9a32cd" stroke="#9a32cd" points="821.24,-330.8 812.1,-336.15 822.59,-337.67 821.24,-330.8"/>
<text text-anchor="middle" x="842.5" y="-335.7" font-family="Helvetica,sans-Serif" font-size="10.00"> user</text>
</g>
<!-- Node3 -->
<g id="node3" class="node">
<title>Node3</title>
<g id="a_node3"><a xlink:href="variables_8h.html#structSimCtx" target="_top" xlink:title="The master context for the entire simulation.">
<polygon fill="none" stroke="black" points="1147,-310.2 1147,-329.2 1199,-329.2 1199,-310.2 1147,-310.2"/>
<text text-anchor="middle" x="1173" y="-317.2" font-family="Helvetica,sans-Serif" font-size="10.00">SimCtx</text>
</a>
</g>
</g>
<!-- Node3&#45;&gt;Node2 -->
<g id="edge2" class="edge">
<title>Node3&#45;&gt;Node2</title>
<path fill="none" stroke="#9a32cd" stroke-dasharray="5,2" d="M1138.68,-332.29C1135.44,-333.22 1132.18,-334.05 1129,-334.7 1103.69,-339.89 1096.81,-337.51 1071,-338.7 975.08,-343.12 951.02,-342.59 855,-343.7 843.89,-343.83 841.11,-343.95 830,-343.7 824.21,-343.57 818.01,-343.35 812.12,-343.1"/>
<polygon fill="#9a32cd" stroke="#9a32cd" points="1139.74,-335.63 1148.21,-329.27 1137.62,-328.96 1139.74,-335.63"/>
<text text-anchor="middle" x="978" y="-344.7" font-family="Helvetica,sans-Serif" font-size="10.00"> simCtx</text>
</g>
<!-- Node4 -->
<g id="node4" class="node">
<title>Node4</title>
<g id="a_node4"><a xlink:href="variables__old_8h.html#structUserMG" target="_top" xlink:title="User&#45;level context for managing the entire multigrid hierarchy.">
<polygon fill="none" stroke="black" points="1015,-310.2 1015,-329.2 1071,-329.2 1071,-310.2 1015,-310.2"/>
<text text-anchor="middle" x="1043" y="-317.2" font-family="Helvetica,sans-Serif" font-size="10.00">UserMG</text>
</a>
</g>
</g>
<!-- Node4&#45;&gt;Node3 -->
<g id="edge3" class="edge">
<title>Node4&#45;&gt;Node3</title>
<path fill="none" stroke="#9a32cd" stroke-dasharray="5,2" d="M1081.33,-319.7C1102.32,-319.7 1127.98,-319.7 1146.63,-319.7"/>
<polygon fill="#9a32cd" stroke="#9a32cd" points="1081.15,-316.2 1071.15,-319.7 1081.15,-323.2 1081.15,-316.2"/>
<text text-anchor="middle" x="1109" y="-322.7" font-family="Helvetica,sans-Serif" font-size="10.00"> usermg</text>
</g>
<!-- Node5&#45;&gt;Node4 -->
<g id="edge4" class="edge">
<title>Node5&#45;&gt;Node4</title>
<path fill="none" stroke="#9a32cd" stroke-dasharray="5,2" d="M942.4,-319.7C964.86,-319.7 993.8,-319.7 1014.68,-319.7"/>
<polygon fill="#9a32cd" stroke="#9a32cd" points="942.27,-316.2 932.27,-319.7 942.27,-323.2 942.27,-316.2"/>
<text text-anchor="middle" x="978" y="-322.7" font-family="Helvetica,sans-Serif" font-size="10.00"> mgctx</text>
</g>
<!-- Node6 -->
<g id="node6" class="node">
<title>Node6</title>
<g id="a_node6"><a xlink:href="variables__old_8h.html#structIBMNodes" target="_top" xlink:title="Represents a collection of nodes forming a surface for the IBM.">
<polygon fill="none" stroke="black" points="521.5,-572.2 521.5,-591.2 587.5,-591.2 587.5,-572.2 521.5,-572.2"/>
<text text-anchor="middle" x="554.5" y="-579.2" font-family="Helvetica,sans-Serif" font-size="10.00">IBMNodes</text>
</a>
</g>
</g>
<!-- Node6&#45;&gt;Node2 -->
<g id="edge21" class="edge">
<title>Node6&#45;&gt;Node2</title>
<path fill="none" stroke="#9a32cd" stroke-dasharray="5,2" d="M597.8,-583.69C639.23,-583.21 701.31,-575.64 738,-538.7 764.95,-511.57 778.63,-387.79 782.1,-351.64"/>
<polygon fill="#9a32cd" stroke="#9a32cd" points="597.75,-580.19 587.74,-583.67 597.74,-587.19 597.75,-580.19"/>
<text text-anchor="middle" x="684.5" y="-583.7" font-family="Helvetica,sans-Serif" font-size="10.00"> ibm</text>
</g>
<!-- Node6&#45;&gt;Node3 -->
<g id="edge6" class="edge">
<title>Node6&#45;&gt;Node3</title>
<path fill="none" stroke="#9a32cd" stroke-dasharray="5,2" d="M597.87,-589.46C643.43,-597.12 718.09,-607.7 783,-607.7 783,-607.7 783,-607.7 1044,-607.7 1168.75,-607.7 1172.82,-379.26 1172.22,-329.28"/>
<polygon fill="#9a32cd" stroke="#9a32cd" points="598.21,-585.97 587.77,-587.73 597.03,-592.87 598.21,-585.97"/>
<text text-anchor="middle" x="907" y="-610.7" font-family="Helvetica,sans-Serif" font-size="10.00"> ibm</text>
</g>
<!-- Node7 -->
<g id="node7" class="node">
<title>Node7</title>
<g id="a_node7"><a xlink:href="variables__old_8h.html#structCmpnts" target="_top" xlink:title="A 3D point or vector with PetscScalar components.">
<polygon fill="none" stroke="black" points="0,-319.2 0,-338.2 54,-338.2 54,-319.2 0,-319.2"/>
<text text-anchor="middle" x="27" y="-326.2" font-family="Helvetica,sans-Serif" font-size="10.00">Cmpnts</text>
</a>
</g>
</g>
<!-- Node7&#45;&gt;Node2 -->
<g id="edge22" class="edge">
<title>Node7&#45;&gt;Node2</title>
<path fill="none" stroke="#9a32cd" stroke-dasharray="5,2" d="M64.45,-331.14C117.24,-334.54 218.07,-340.52 304,-342.7 352.87,-343.94 365.46,-348.54 414,-342.7 451.24,-338.23 458.76,-327.18 496,-322.7 547.63,-316.5 561.08,-319.81 613,-322.7 663.7,-325.53 722.52,-333.05 755.99,-337.74"/>
<polygon fill="#9a32cd" stroke="#9a32cd" points="64.45,-327.63 54.24,-330.48 63.99,-334.62 64.45,-327.63"/>
<text text-anchor="middle" x="359" y="-347.7" font-family="Helvetica,sans-Serif" font-size="10.00"> InitialConstantContra</text>
</g>
<!-- Node7&#45;&gt;Node3 -->
<g id="edge8" class="edge">
<title>Node7&#45;&gt;Node3</title>
<path fill="none" stroke="#9a32cd" stroke-dasharray="5,2" d="M28.56,-309.05C31.41,-248.64 48.86,-69.7 155.5,-69.7 155.5,-69.7 155.5,-69.7 1044,-69.7 1088.76,-69.7 1103.35,-87.03 1129,-123.7 1171.53,-184.5 1173.06,-279.81 1172.37,-310.12"/>
<polygon fill="#9a32cd" stroke="#9a32cd" points="25.05,-309.05 28.17,-319.18 32.05,-309.32 25.05,-309.05"/>
<text text-anchor="middle" x="684.5" y="-72.7" font-family="Helvetica,sans-Serif" font-size="10.00"> InitialConstantContra</text>
</g>
<!-- Node7&#45;&gt;Node6 -->
<g id="edge7" class="edge">
<title>Node7&#45;&gt;Node6</title>
<path fill="none" stroke="#9a32cd" stroke-dasharray="5,2" d="M36.36,-347.51C44.18,-363.89 56.89,-387.75 72,-405.7 121.31,-464.28 142.37,-475.12 213,-504.7 320.89,-549.89 459.63,-570.71 521.39,-578.22"/>
<polygon fill="#9a32cd" stroke="#9a32cd" points="39.53,-346.01 32.15,-338.4 33.17,-348.95 39.53,-346.01"/>
<text text-anchor="middle" x="249.5" y="-565.7" font-family="Helvetica,sans-Serif" font-size="10.00"> qvec</text>
<text text-anchor="middle" x="249.5" y="-554.7" font-family="Helvetica,sans-Serif" font-size="10.00">uold</text>
<text text-anchor="middle" x="249.5" y="-543.7" font-family="Helvetica,sans-Serif" font-size="10.00">urm1</text>
<text text-anchor="middle" x="249.5" y="-532.7" font-family="Helvetica,sans-Serif" font-size="10.00">u</text>
</g>
<!-- Node9 -->
<g id="node9" class="node">
<title>Node9</title>
<g id="a_node9"><a xlink:href="variables__old_8h.html#structIBMInfo" target="_top" xlink:title="Holds interpolation and distance information for a single IBM point.">
<polygon fill="none" stroke="black" points="129.5,-169.2 129.5,-188.2 183.5,-188.2 183.5,-169.2 129.5,-169.2"/>
<text text-anchor="middle" x="156.5" y="-176.2" font-family="Helvetica,sans-Serif" font-size="10.00">IBMInfo</text>
</a>
</g>
</g>
<!-- Node7&#45;&gt;Node9 -->
<g id="edge11" class="edge">
<title>Node7&#45;&gt;Node9</title>
<path fill="none" stroke="#9a32cd" stroke-dasharray="5,2" d="M42.86,-311.22C69.87,-279.45 126.16,-213.22 147.27,-188.38"/>
<polygon fill="#9a32cd" stroke="#9a32cd" points="40.18,-308.97 36.37,-318.86 45.51,-313.51 40.18,-308.97"/>
<text text-anchor="middle" x="86" y="-278.7" font-family="Helvetica,sans-Serif" font-size="10.00"> pmin</text>
</g>
<!-- Node11 -->
<g id="node11" class="node">
<title>Node11</title>
<g id="a_node11"><a xlink:href="variables__old_8h.html#structBoundingBox" target="_top" xlink:title="Defines a 3D axis&#45;aligned bounding box.">
<polygon fill="none" stroke="black" points="514,-522.2 514,-541.2 595,-541.2 595,-522.2 514,-522.2"/>
<text text-anchor="middle" x="554.5" y="-529.2" font-family="Helvetica,sans-Serif" font-size="10.00">BoundingBox</text>
</a>
</g>
</g>
<!-- Node7&#45;&gt;Node11 -->
<g id="edge14" class="edge">
<title>Node7&#45;&gt;Node11</title>
<path fill="none" stroke="#9a32cd" stroke-dasharray="5,2" d="M38.65,-347.12C46.47,-359.13 58.12,-374.26 72,-383.7 215.92,-481.56 427.04,-516.71 513.92,-527.51"/>
<polygon fill="#9a32cd" stroke="#9a32cd" points="41.46,-345.01 33.24,-338.33 35.5,-348.68 41.46,-345.01"/>
<text text-anchor="middle" x="249.5" y="-492.7" font-family="Helvetica,sans-Serif" font-size="10.00"> max_coords</text>
<text text-anchor="middle" x="249.5" y="-481.7" font-family="Helvetica,sans-Serif" font-size="10.00">min_coords</text>
</g>
<!-- Node12 -->
<g id="node12" class="node">
<title>Node12</title>
<g id="a_node12"><a xlink:href="variables__old_8h.html#structIBMVNodes" target="_top" xlink:title="Represents a collection of nodes forming a volume for the IBM.">
<polygon fill="none" stroke="black" points="213,-14.2 213,-33.2 286,-33.2 286,-14.2 213,-14.2"/>
<text text-anchor="middle" x="249.5" y="-21.2" font-family="Helvetica,sans-Serif" font-size="10.00">IBMVNodes</text>
</a>
</g>
</g>
<!-- Node7&#45;&gt;Node12 -->
<g id="edge16" class="edge">
<title>Node7&#45;&gt;Node12</title>
<path fill="none" stroke="#9a32cd" stroke-dasharray="5,2" d="M27.65,-308.68C27.03,-246.74 28.84,-60.1 72,-22.7 113.92,13.62 184.79,-1.92 222.72,-14.14"/>
<polygon fill="#9a32cd" stroke="#9a32cd" points="24.15,-309.08 27.79,-319.03 31.15,-308.99 24.15,-309.08"/>
<text text-anchor="middle" x="86" y="-47.7" font-family="Helvetica,sans-Serif" font-size="10.00"> uold</text>
<text text-anchor="middle" x="86" y="-36.7" font-family="Helvetica,sans-Serif" font-size="10.00">urm1</text>
<text text-anchor="middle" x="86" y="-25.7" font-family="Helvetica,sans-Serif" font-size="10.00">u</text>
</g>
<!-- Node8 -->
<g id="node8" class="node">
<title>Node8</title>
<g id="a_node8"><a xlink:href="variables__old_8h.html#structFSInfo" target="_top" xlink:title="Holds all data related to the state and motion of a body in FSI.">
<polygon fill="none" stroke="black" points="335.5,-104.2 335.5,-123.2 382.5,-123.2 382.5,-104.2 335.5,-104.2"/>
<text text-anchor="middle" x="359" y="-111.2" font-family="Helvetica,sans-Serif" font-size="10.00">FSInfo</text>
</a>
</g>
</g>
<!-- Node8&#45;&gt;Node3 -->
<g id="edge9" class="edge">
<title>Node8&#45;&gt;Node3</title>
<path fill="none" stroke="#9a32cd" stroke-dasharray="5,2" d="M392.74,-113.7C431.22,-113.7 497,-113.7 553.5,-113.7 553.5,-113.7 553.5,-113.7 1044,-113.7 1137.68,-113.7 1165.21,-269.31 1170.81,-310.04"/>
<polygon fill="#9a32cd" stroke="#9a32cd" points="392.64,-110.2 382.64,-113.7 392.64,-117.2 392.64,-110.2"/>
<text text-anchor="middle" x="842.5" y="-116.7" font-family="Helvetica,sans-Serif" font-size="10.00"> fsi</text>
</g>
<!-- Node9&#45;&gt;Node2 -->
<g id="edge17" class="edge">
<title>Node9&#45;&gt;Node2</title>
<path fill="none" stroke="#9a32cd" stroke-dasharray="5,2" d="M193.39,-172.64C306.47,-154.38 652.85,-105.06 738,-170.7 764.26,-190.94 778.24,-298.76 781.97,-331.96"/>
<polygon fill="#9a32cd" stroke="#9a32cd" points="192.81,-169.19 183.5,-174.26 193.93,-176.1 192.81,-169.19"/>
<text text-anchor="middle" x="455" y="-145.7" font-family="Helvetica,sans-Serif" font-size="10.00"> ibm_intp</text>
</g>
<!-- Node9&#45;&gt;Node8 -->
<g id="edge10" class="edge">
<title>Node9&#45;&gt;Node8</title>
<path fill="none" stroke="#9a32cd" stroke-dasharray="5,2" d="M175.39,-162.06C185.65,-153.45 199.21,-143.53 213,-137.7 253.89,-120.41 306.18,-115.53 335.49,-114.19"/>
<polygon fill="#9a32cd" stroke="#9a32cd" points="172.83,-159.66 167.61,-168.88 177.44,-164.92 172.83,-159.66"/>
<text text-anchor="middle" x="249.5" y="-140.7" font-family="Helvetica,sans-Serif" font-size="10.00"> fsi_intp</text>
</g>
<!-- Node19 -->
<g id="node19" class="node">
<title>Node19</title>
<g id="a_node19"><a xlink:href="variables__old_8h.html#structIBMListNode" target="_top" xlink:title="A linked list node containing IBM interpolation info.">
<polygon fill="none" stroke="black" points="320,-180.2 320,-199.2 398,-199.2 398,-180.2 320,-180.2"/>
<text text-anchor="middle" x="359" y="-187.2" font-family="Helvetica,sans-Serif" font-size="10.00">IBMListNode</text>
</a>
</g>
</g>
<!-- Node9&#45;&gt;Node19 -->
<g id="edge28" class="edge">
<title>Node9&#45;&gt;Node19</title>
<path fill="none" stroke="#9a32cd" stroke-dasharray="5,2" d="M194.14,-180.71C229.76,-182.67 283.63,-185.62 319.77,-187.6"/>
<polygon fill="#9a32cd" stroke="#9a32cd" points="193.89,-177.19 183.71,-180.14 193.51,-184.18 193.89,-177.19"/>
<text text-anchor="middle" x="249.5" y="-187.7" font-family="Helvetica,sans-Serif" font-size="10.00"> ibm_intp</text>
</g>
<!-- Node10 -->
<g id="node10" class="node">
<title>Node10</title>
<g id="a_node10"><a xlink:href="variables__old_8h.html#structSurfElmtInfo" target="_top" xlink:title="Information about a surface element for FSI calculations.">
<polygon fill="none" stroke="black" points="118,-98.2 118,-117.2 195,-117.2 195,-98.2 118,-98.2"/>
<text text-anchor="middle" x="156.5" y="-105.2" font-family="Helvetica,sans-Serif" font-size="10.00">SurfElmtInfo</text>
</a>
</g>
</g>
<!-- Node10&#45;&gt;Node8 -->
<g id="edge12" class="edge">
<title>Node10&#45;&gt;Node8</title>
<path fill="none" stroke="#9a32cd" stroke-dasharray="5,2" d="M205.25,-104.04C207.87,-103.91 210.47,-103.79 213,-103.7 245.42,-102.53 253.63,-101.46 286,-103.7 302.62,-104.85 321.24,-107.47 335.38,-109.74"/>
<polygon fill="#9a32cd" stroke="#9a32cd" points="204.88,-100.55 195.1,-104.62 205.28,-107.54 204.88,-100.55"/>
<text text-anchor="middle" x="249.5" y="-106.7" font-family="Helvetica,sans-Serif" font-size="10.00"> elmtinfo</text>
</g>
<!-- Node11&#45;&gt;Node2 -->
<g id="edge24" class="edge">
<title>Node11&#45;&gt;Node2</title>
<path fill="none" stroke="#9a32cd" stroke-dasharray="5,2" d="M602.06,-519.72C611.61,-517.33 621.62,-514.89 631,-512.7 678.37,-501.65 702.2,-522.63 738,-489.7 779.11,-451.88 783.12,-377.82 783.18,-351.37"/>
<polygon fill="#9a32cd" stroke="#9a32cd" points="601.15,-516.33 592.3,-522.17 602.85,-523.12 601.15,-516.33"/>
<text text-anchor="middle" x="684.5" y="-526.7" font-family="Helvetica,sans-Serif" font-size="10.00"> global_domain_bbox</text>
<text text-anchor="middle" x="684.5" y="-515.7" font-family="Helvetica,sans-Serif" font-size="10.00">bbox</text>
</g>
<!-- Node11&#45;&gt;Node3 -->
<g id="edge13" class="edge">
<title>Node11&#45;&gt;Node3</title>
<path fill="none" stroke="#9a32cd" stroke-dasharray="5,2" d="M605.31,-537.57C651.35,-542.49 721.69,-548.7 783,-548.7 783,-548.7 783,-548.7 1044,-548.7 1146.25,-548.7 1167.6,-372.59 1171.31,-329.25"/>
<polygon fill="#9a32cd" stroke="#9a32cd" points="605.62,-534.08 595.3,-536.48 604.86,-541.04 605.62,-534.08"/>
<text text-anchor="middle" x="907" y="-551.7" font-family="Helvetica,sans-Serif" font-size="10.00"> bboxlist</text>
</g>
<!-- Node12&#45;&gt;Node3 -->
<g id="edge15" class="edge">
<title>Node12&#45;&gt;Node3</title>
<path fill="none" stroke="#9a32cd" stroke-dasharray="5,2" d="M296.17,-25.11C337.41,-26.26 399.76,-27.7 454,-27.7 454,-27.7 454,-27.7 1044,-27.7 1083.77,-27.7 1103.16,-25.46 1129,-55.7 1162.71,-95.16 1170.33,-266.94 1171.73,-309.92"/>
<polygon fill="#9a32cd" stroke="#9a32cd" points="296.25,-21.61 286.15,-24.83 296.05,-28.61 296.25,-21.61"/>
<text text-anchor="middle" x="784" y="-30.7" font-family="Helvetica,sans-Serif" font-size="10.00"> ibmv</text>
</g>
<!-- Node13 -->
<g id="node13" class="node">
<title>Node13</title>
<g id="a_node13"><a xlink:href="variables__old_8h.html#structCmpnts2" target="_top" xlink:title="A 2D point or vector with PetscScalar components.">
<polygon fill="none" stroke="black" points="524.5,-484.2 524.5,-503.2 584.5,-503.2 584.5,-484.2 524.5,-484.2"/>
<text text-anchor="middle" x="554.5" y="-491.2" font-family="Helvetica,sans-Serif" font-size="10.00">Cmpnts2</text>
</a>
</g>
</g>
<!-- Node13&#45;&gt;Node2 -->
<g id="edge18" class="edge">
<title>Node13&#45;&gt;Node2</title>
<path fill="none" stroke="#9a32cd" stroke-dasharray="5,2" d="M594.67,-485.78C647.88,-474.99 736.61,-456.87 738,-455.7 770.71,-428.15 779.8,-373.58 782.19,-351.41"/>
<polygon fill="#9a32cd" stroke="#9a32cd" points="593.64,-482.42 584.54,-487.84 595.03,-489.28 593.64,-482.42"/>
<text text-anchor="middle" x="684.5" y="-479.7" font-family="Helvetica,sans-Serif" font-size="10.00"> komega_plane</text>
</g>
<!-- Node14 -->
<g id="node14" class="node">
<title>Node14</title>
<g id="a_node14"><a xlink:href="variables__old_8h.html#structRankNeighbors" target="_top" xlink:title="Stores the MPI ranks of neighboring subdomains.">
<polygon fill="none" stroke="black" points="509,-446.2 509,-465.2 600,-465.2 600,-446.2 509,-446.2"/>
<text text-anchor="middle" x="554.5" y="-453.2" font-family="Helvetica,sans-Serif" font-size="10.00">RankNeighbors</text>
</a>
</g>
</g>
<!-- Node14&#45;&gt;Node2 -->
<g id="edge19" class="edge">
<title>Node14&#45;&gt;Node2</title>
<path fill="none" stroke="#9a32cd" stroke-dasharray="5,2" d="M610.28,-446.65C662.1,-437.92 732.73,-425.47 738,-421.7 762.62,-404.08 775.48,-368.55 780.48,-351.4"/>
<polygon fill="#9a32cd" stroke="#9a32cd" points="609.47,-443.24 600.19,-448.35 610.63,-450.14 609.47,-443.24"/>
<text text-anchor="middle" x="684.5" y="-445.7" font-family="Helvetica,sans-Serif" font-size="10.00"> neighbors</text>
</g>
<!-- Node15 -->
<g id="node15" class="node">
<title>Node15</title>
<g id="a_node15"><a xlink:href="variables__old_8h.html#structRankCellInfo" target="_top" xlink:title="A lean struct to hold the global cell ownership range for a single MPI rank.">
<polygon fill="none" stroke="black" points="515,-408.2 515,-427.2 594,-427.2 594,-408.2 515,-408.2"/>
<text text-anchor="middle" x="554.5" y="-415.2" font-family="Helvetica,sans-Serif" font-size="10.00">RankCellInfo</text>
</a>
</g>
</g>
<!-- Node15&#45;&gt;Node2 -->
<g id="edge20" class="edge">
<title>Node15&#45;&gt;Node2</title>
<path fill="none" stroke="#9a32cd" stroke-dasharray="5,2" d="M604.44,-412.08C650.33,-406.23 715.19,-396.31 738,-384.7 753.79,-376.66 767.82,-361.28 775.86,-351.26"/>
<polygon fill="#9a32cd" stroke="#9a32cd" points="603.87,-408.62 594.38,-413.33 604.74,-415.57 603.87,-408.62"/>
<text text-anchor="middle" x="684.5" y="-410.7" font-family="Helvetica,sans-Serif" font-size="10.00"> RankCellInfoMap</text>
</g>
<!-- Node16 -->
<g id="node16" class="node">
<title>Node16</title>
<g id="a_node16"><a xlink:href="variables__old_8h.html#structPostProcessParams" target="_top" xlink:title="Parameters controlling post&#45;processing output actions.">
<polygon fill="none" stroke="black" points="498.5,-370.2 498.5,-389.2 610.5,-389.2 610.5,-370.2 498.5,-370.2"/>
<text text-anchor="middle" x="554.5" y="-377.2" font-family="Helvetica,sans-Serif" font-size="10.00">PostProcessParams</text>
</a>
</g>
</g>
<!-- Node16&#45;&gt;Node2 -->
<g id="edge23" class="edge">
<title>Node16&#45;&gt;Node2</title>
<path fill="none" stroke="#9a32cd" stroke-dasharray="5,2" d="M620.97,-372.29C655.88,-367.86 699.47,-361.55 738,-353.7 743.86,-352.51 750.1,-351 756,-349.46"/>
<polygon fill="#9a32cd" stroke="#9a32cd" points="620.39,-368.84 610.9,-373.55 621.26,-375.78 620.39,-368.84"/>
<text text-anchor="middle" x="684.5" y="-372.7" font-family="Helvetica,sans-Serif" font-size="10.00"> pp</text>
</g>
<!-- Node17 -->
<g id="node17" class="node">
<title>Node17</title>
<g id="a_node17"><a xlink:href="variables__old_8h.html#structFlowWave" target="_top" xlink:title="Represents a single point in a time&#45;varying flow waveform.">
<polygon fill="none" stroke="black" points="520.5,-332.2 520.5,-351.2 588.5,-351.2 588.5,-332.2 520.5,-332.2"/>
<text text-anchor="middle" x="554.5" y="-339.2" font-family="Helvetica,sans-Serif" font-size="10.00">FlowWave</text>
</a>
</g>
</g>
<!-- Node17&#45;&gt;Node2 -->
<g id="edge25" class="edge">
<title>Node17&#45;&gt;Node2</title>
<path fill="none" stroke="#9a32cd" stroke-dasharray="5,2" d="M598.61,-341.7C644.91,-341.7 717.03,-341.7 755.93,-341.7"/>
<polygon fill="#9a32cd" stroke="#9a32cd" points="598.58,-338.2 588.58,-341.7 598.58,-345.2 598.58,-338.2"/>
<text text-anchor="middle" x="684.5" y="-344.7" font-family="Helvetica,sans-Serif" font-size="10.00"> inflow</text>
</g>
<!-- Node18 -->
<g id="node18" class="node">
<title>Node18</title>
<g id="a_node18"><a xlink:href="variables__old_8h.html#structIBMList" target="_top" xlink:title="Head of a linked list for IBM data.">
<polygon fill="none" stroke="black" points="528,-180.2 528,-199.2 581,-199.2 581,-180.2 528,-180.2"/>
<text text-anchor="middle" x="554.5" y="-187.2" font-family="Helvetica,sans-Serif" font-size="10.00">IBMList</text>
</a>
</g>
</g>
<!-- Node18&#45;&gt;Node2 -->
<g id="edge26" class="edge">
<title>Node18&#45;&gt;Node2</title>
<path fill="none" stroke="#9a32cd" stroke-dasharray="5,2" d="M590.86,-181.02C630.91,-173.42 696.05,-168.07 738,-200.7 780.19,-233.51 783.53,-306.09 783.3,-332.15"/>
<polygon fill="#9a32cd" stroke="#9a32cd" points="590.1,-177.61 581,-183.04 591.5,-184.46 590.1,-177.61"/>
<text text-anchor="middle" x="684.5" y="-203.7" font-family="Helvetica,sans-Serif" font-size="10.00"> ibmlist</text>
</g>
<!-- Node19&#45;&gt;Node18 -->
<g id="edge27" class="edge">
<title>Node19&#45;&gt;Node18</title>
<path fill="none" stroke="#9a32cd" stroke-dasharray="5,2" d="M408.55,-189.7C446.48,-189.7 497.7,-189.7 528,-189.7"/>
<polygon fill="#9a32cd" stroke="#9a32cd" points="408.23,-186.2 398.23,-189.7 408.23,-193.2 408.23,-186.2"/>
<text text-anchor="middle" x="455" y="-192.7" font-family="Helvetica,sans-Serif" font-size="10.00"> head</text>
</g>
<!-- Node19&#45;&gt;Node19 -->
<g id="edge29" class="edge">
<title>Node19&#45;&gt;Node19</title>
<path fill="none" stroke="#9a32cd" stroke-dasharray="5,2" d="M341.22,-209.1C342.41,-214.02 348.34,-217.7 359,-217.7 376.06,-217.7 380.99,-208.27 373.8,-199.46"/>
<polygon fill="#9a32cd" stroke="#9a32cd" points="344.59,-210.05 344.2,-199.46 337.91,-207.98 344.59,-210.05"/>
<text text-anchor="middle" x="359" y="-220.7" font-family="Helvetica,sans-Serif" font-size="10.00"> next</text>
</g>
<!-- Node20 -->
<g id="node20" class="node">
<title>Node20</title>
<g id="a_node20"><a xlink:href="variables__old_8h.html#structBCS" target="_top" xlink:title="Legacy boundary condition data.">
<polygon fill="none" stroke="black" points="536.5,-256.2 536.5,-275.2 572.5,-275.2 572.5,-256.2 536.5,-256.2"/>
<text text-anchor="middle" x="554.5" y="-263.2" font-family="Helvetica,sans-Serif" font-size="10.00">BCS</text>
</a>
</g>
</g>
<!-- Node20&#45;&gt;Node2 -->
<g id="edge31" class="edge">
<title>Node20&#45;&gt;Node2</title>
<path fill="none" stroke="#9a32cd" stroke-dasharray="5,2" d="M582.88,-260.8C620.47,-255.52 688.95,-251.21 738,-278.7 759.34,-290.66 773.08,-317.46 779.24,-331.95"/>
<polygon fill="#9a32cd" stroke="#9a32cd" points="582.06,-257.39 572.71,-262.36 583.12,-264.31 582.06,-257.39"/>
<text text-anchor="middle" x="684.5" y="-281.7" font-family="Helvetica,sans-Serif" font-size="10.00"> Bcs</text>
</g>
<!-- Node21 -->
<g id="node21" class="node">
<title>Node21</title>
<g id="a_node21"><a xlink:href="variables_8h.html#structBoundaryFaceConfig" target="_top" xlink:title="Holds the complete configuration for one of the six boundary faces.">
<polygon fill="none" stroke="black" points="496,-218.2 496,-237.2 613,-237.2 613,-218.2 496,-218.2"/>
<text text-anchor="middle" x="554.5" y="-225.2" font-family="Helvetica,sans-Serif" font-size="10.00">BoundaryFaceConfig</text>
</a>
</g>
</g>
<!-- Node21&#45;&gt;Node2 -->
<g id="edge32" class="edge">
<title>Node21&#45;&gt;Node2</title>
<path fill="none" stroke="#9a32cd" stroke-dasharray="5,2" d="M619.82,-217.3C657.48,-214.71 704.13,-217.91 738,-241.7 768.85,-263.37 778.9,-311.34 781.87,-331.96"/>
<polygon fill="#9a32cd" stroke="#9a32cd" points="619.13,-213.84 609.46,-218.17 619.72,-220.82 619.13,-213.84"/>
<text text-anchor="middle" x="684.5" y="-244.7" font-family="Helvetica,sans-Serif" font-size="10.00"> boundary_faces</text>
</g>
<!-- Node22 -->
<g id="node22" class="node">
<title>Node22</title>
<g id="a_node22"><a xlink:href="variables__old_8h.html#structBC__Param__s" target="_top" xlink:title="A node in a linked list for storing key&#45;value parameters from the bcs.dat file.">
<polygon fill="none" stroke="black" points="320.5,-285.2 320.5,-304.2 397.5,-304.2 397.5,-285.2 320.5,-285.2"/>
<text text-anchor="middle" x="359" y="-292.2" font-family="Helvetica,sans-Serif" font-size="10.00">BC_Param_s</text>
</a>
</g>
</g>
<!-- Node22&#45;&gt;Node21 -->
<g id="edge33" class="edge">
<title>Node22&#45;&gt;Node21</title>
<path fill="none" stroke="#9a32cd" stroke-dasharray="5,2" d="M407.45,-284.53C429.55,-278.82 455.8,-270.62 478,-259.7 486.86,-255.35 487.21,-251.19 496,-246.7 503.12,-243.07 511.07,-239.91 518.75,-237.28"/>
<polygon fill="#9a32cd" stroke="#9a32cd" points="406.47,-281.16 397.61,-286.97 408.16,-287.95 406.47,-281.16"/>
<text text-anchor="middle" x="455" y="-279.7" font-family="Helvetica,sans-Serif" font-size="10.00"> params</text>
</g>
<!-- Node22&#45;&gt;Node22 -->
<g id="edge34" class="edge">
<title>Node22&#45;&gt;Node22</title>
<path fill="none" stroke="#9a32cd" stroke-dasharray="5,2" d="M341.22,-314.1C342.41,-319.02 348.34,-322.7 359,-322.7 376.06,-322.7 380.99,-313.27 373.8,-304.46"/>
<polygon fill="#9a32cd" stroke="#9a32cd" points="344.59,-315.05 344.2,-304.46 337.91,-312.98 344.59,-315.05"/>
<text text-anchor="middle" x="359" y="-325.7" font-family="Helvetica,sans-Serif" font-size="10.00"> next</text>
</g>
<!-- Node23 -->
<g id="node23" class="node">
<title>Node23</title>
<g id="a_node23"><a xlink:href="structBoundaryCondition.html" target="_top" xlink:title="The &quot;virtual table&quot; struct for a boundary condition handler object.">
<polygon fill="none" stroke="black" points="304,-247.2 304,-266.2 414,-266.2 414,-247.2 304,-247.2"/>
<text text-anchor="middle" x="359" y="-254.2" font-family="Helvetica,sans-Serif" font-size="10.00">BoundaryCondition</text>
</a>
</g>
</g>
<!-- Node23&#45;&gt;Node21 -->
<g id="edge35" class="edge">
<title>Node23&#45;&gt;Node21</title>
<path fill="none" stroke="#9a32cd" stroke-dasharray="5,2" d="M424.24,-247.07C447.42,-243.6 473.41,-239.7 495.97,-236.32"/>
<polygon fill="#9a32cd" stroke="#9a32cd" points="423.53,-243.64 414.16,-248.58 424.57,-250.56 423.53,-243.64"/>
<text text-anchor="middle" x="455" y="-247.7" font-family="Helvetica,sans-Serif" font-size="10.00"> handler</text>
</g>
</g>
</svg>
        <g id="navigator" transform="translate(0 0)" fill="#404254">
                <rect fill="#f2f5e9" fill-opacity="0.5" stroke="#606060" stroke-width=".5" x="0" y="0" width="60" height="60"/>
                <use id="zoomplus" xlink:href="#zoomPlus" x="17" y="9" onmousedown="handleZoom(evt,'in')"/>
                <use id="zoomminus" xlink:href="#zoomMin" x="42" y="9" onmousedown="handleZoom(evt,'out')"/>
                <use id="reset" xlink:href="#resetDef" x="30" y="36" onmousedown="handleReset()"/>
                <g id="arrowUp" xlink:href="#dirArrow" transform="translate(30 24)" onmousedown="handlePan(0,-1)">
                  <use xlink:href="#rim" fill="#404040">
                        <set attributeName="fill" to="#808080" begin="arrowUp.mouseover" end="arrowUp.mouseout"/>
                  </use>
                  <path fill="none" stroke="white" stroke-width="1.5" d="M0,-3.0v7 M-2.5,-0.5L0,-3.0L2.5,-0.5"/>
                </g>
                <g id="arrowRight" xlink:href="#dirArrow" transform="rotate(90) translate(36 -43)" onmousedown="handlePan(1,0)">
                  <use xlink:href="#rim" fill="#404040">
                        <set attributeName="fill" to="#808080" begin="arrowRight.mouseover" end="arrowRight.mouseout"/>
                  </use>
                  <path fill="none" stroke="white" stroke-width="1.5" d="M0,-3.0v7 M-2.5,-0.5L0,-3.0L2.5,-0.5"/>
                </g>
                <g id="arrowDown" xlink:href="#dirArrow" transform="rotate(180) translate(-30 -48)" onmousedown="handlePan(0,1)">
                  <use xlink:href="#rim" fill="#404040">
                        <set attributeName="fill" to="#808080" begin="arrowDown.mouseover" end="arrowDown.mouseout"/>
                  </use>
                  <path fill="none" stroke="white" stroke-width="1.5" d="M0,-3.0v7 M-2.5,-0.5L0,-3.0L2.5,-0.5"/>
                </g>
                <g id="arrowLeft" xlink:href="#dirArrow" transform="rotate(270) translate(-36 17)" onmousedown="handlePan(-1,0)">
                  <use xlink:href="#rim" fill="#404040">
                        <set attributeName="fill" to="#808080" begin="arrowLeft.mouseover" end="arrowLeft.mouseout"/>
                  </use>
                  <path fill="none" stroke="white" stroke-width="1.5" d="M0,-3.0v7 M-2.5,-0.5L0,-3.0L2.5,-0.5"/>
                </g>
        </g>
        <svg viewBox="0 0 15 15" width="100%" height="30px" preserveAspectRatio="xMaxYMin meet">
         <g id="arrow_out" transform="scale(0.3 0.3)">
          <a xlink:href="structBCContext__coll__graph_org.svg" target="_base">
           <rect id="button" ry="5" rx="5" y="6" x="6" height="38" width="38"
                fill="#f2f5e9" fill-opacity="0.5" stroke="#606060" stroke-width="1.0"/>
           <path id="arrow"
             d="M 11.500037,31.436501 C 11.940474,20.09759 22.043105,11.32322 32.158766,21.979434 L 37.068811,17.246167 C 37.068811,17.246167 37.088388,32 37.088388,32 L 22.160133,31.978069 C 22.160133,31.978069 26.997745,27.140456 26.997745,27.140456 C 18.528582,18.264221 13.291696,25.230495 11.500037,31.436501 z"
             style="fill:#404040;"/>
          </a>
         </g>
        </svg>
</svg>
