<?xml version="1.0" encoding="UTF-8" standalone="no"?>
<!DOCTYPE svg PUBLIC "-//W3C//DTD SVG 1.1//EN"
 "http://www.w3.org/Graphics/SVG/1.1/DTD/svg11.dtd">
<!-- Generated by graphviz version 2.43.0 (0)
 -->
<!-- Title: BoundaryFaceConfig_s Pages: 1 -->
<svg width="257pt" height="95pt"
 viewBox="0.00 0.00 256.50 95.00" xmlns="http://www.w3.org/2000/svg" xmlns:xlink="http://www.w3.org/1999/xlink">
<g id="graph0" class="graph" transform="scale(1 1) rotate(0) translate(4 91)">
<title>BoundaryFaceConfig_s</title>
<!-- Node1 -->
<g id="node1" class="node">
<title>Node1</title>
<g id="a_node1"><a xlink:title="Holds the complete configuration for one of the six boundary faces.">
<polygon fill="#bfbfbf" stroke="black" points="51.5,-0.5 51.5,-19.5 179.5,-19.5 179.5,-0.5 51.5,-0.5"/>
<text text-anchor="middle" x="115.5" y="-7.5" font-family="Helvetica,sans-Serif" font-size="10.00">BoundaryFaceConfig_s</text>
</a>
</g>
</g>
<!-- Node2 -->
<g id="node2" class="node">
<title>Node2</title>
<g id="a_node2"><a xlink:href="variables__old_8h.html#structBC__Param__s" target="_top" xlink:title="A node in a linked list for storing key&#45;value parameters from the bcs.dat file.">
<polygon fill="none" stroke="black" points="0,-67.5 0,-86.5 77,-86.5 77,-67.5 0,-67.5"/>
<text text-anchor="middle" x="38.5" y="-74.5" font-family="Helvetica,sans-Serif" font-size="10.00">BC_Param_s</text>
</a>
</g>
</g>
<!-- Node2&#45;&gt;Node1 -->
<g id="edge1" class="edge">
<title>Node2&#45;&gt;Node1</title>
<path fill="none" stroke="#9a32cd" stroke-dasharray="5,2" d="M56.61,-60.71C71.78,-47.91 92.89,-30.09 105.28,-19.63"/>
<polygon fill="#9a32cd" stroke="#9a32cd" points="54.27,-58.11 48.88,-67.23 58.78,-63.46 54.27,-58.11"/>
<text text-anchor="middle" x="102.5" y="-41" font-family="Helvetica,sans-Serif" font-size="10.00"> params</text>
</g>
<!-- Node2&#45;&gt;Node2 -->
<g id="edge2" class="edge">
<title>Node2&#45;&gt;Node2</title>
<path fill="none" stroke="#9a32cd" stroke-dasharray="5,2" d="M87.22,-81.87C91.98,-80.89 95,-79.27 95,-77 95,-73.38 87.27,-71.39 77.06,-71.05"/>
<polygon fill="#9a32cd" stroke="#9a32cd" points="86.63,-78.41 77.06,-82.95 87.37,-85.38 86.63,-78.41"/>
<text text-anchor="middle" x="107.5" y="-74.5" font-family="Helvetica,sans-Serif" font-size="10.00"> next</text>
</g>
<!-- Node3 -->
<g id="node3" class="node">
<title>Node3</title>
<g id="a_node3"><a xlink:href="structBoundaryCondition.html" target="_top" xlink:title="The &quot;virtual table&quot; struct for a boundary condition handler object.">
<polygon fill="none" stroke="black" points="138.5,-67.5 138.5,-86.5 248.5,-86.5 248.5,-67.5 138.5,-67.5"/>
<text text-anchor="middle" x="193.5" y="-74.5" font-family="Helvetica,sans-Serif" font-size="10.00">BoundaryCondition</text>
</a>
</g>
</g>
<!-- Node3&#45;&gt;Node1 -->
<g id="edge3" class="edge">
<title>Node3&#45;&gt;Node1</title>
<path fill="none" stroke="#9a32cd" stroke-dasharray="5,2" d="M175.16,-60.71C159.79,-47.91 138.41,-30.09 125.85,-19.63"/>
<polygon fill="#9a32cd" stroke="#9a32cd" points="173.06,-63.52 182.98,-67.23 177.54,-58.14 173.06,-63.52"/>
<text text-anchor="middle" x="178.5" y="-41" font-family="Helvetica,sans-Serif" font-size="10.00"> handler</text>
</g>
</g>
</svg>
