<?xml version="1.0" encoding="UTF-8" standalone="no"?>
<!DOCTYPE svg PUBLIC "-//W3C//DTD SVG 1.1//EN"
 "http://www.w3.org/Graphics/SVG/1.1/DTD/svg11.dtd">
<!-- Generated by graphviz version 2.43.0 (0)
 -->
<!-- Title: UserMG Pages: 1 -->
<svg width="945pt" height="697pt"
 viewBox="0.00 0.00 945.00 696.89" xmlns="http://www.w3.org/2000/svg" xmlns:xlink="http://www.w3.org/1999/xlink">
<g id="graph0" class="graph" transform="scale(1 1) rotate(0) translate(4 692.89)">
<title>UserMG</title>
<!-- Node1 -->
<g id="node1" class="node">
<title>Node1</title>
<g id="a_node1"><a xlink:title="User&#45;level context for managing the entire multigrid hierarchy.">
<polygon fill="#bfbfbf" stroke="black" points="365,-669.39 365,-688.39 421,-688.39 421,-669.39 365,-669.39"/>
<text text-anchor="middle" x="393" y="-676.39" font-family="Helvetica,sans-Serif" font-size="10.00">UserMG</text>
</a>
</g>
</g>
<!-- Node4 -->
<g id="node4" class="node">
<title>Node4</title>
<g id="a_node4"><a xlink:href="variables_8h.html#structSimCtx" target="_top" xlink:title="The master context for the entire simulation.">
<polygon fill="none" stroke="black" points="562.5,-441.39 562.5,-460.39 614.5,-460.39 614.5,-441.39 562.5,-441.39"/>
<text text-anchor="middle" x="588.5" y="-448.39" font-family="Helvetica,sans-Serif" font-size="10.00">SimCtx</text>
</a>
</g>
</g>
<!-- Node1&#45;&gt;Node4 -->
<g id="edge4" class="edge">
<title>Node1&#45;&gt;Node4</title>
<path fill="none" stroke="#9a32cd" stroke-dasharray="5,2" d="M430.81,-667.64C436.69,-665.37 442.61,-662.77 448,-659.89 479.36,-643.13 493.85,-642.46 512,-611.89 540.43,-564 499.87,-534.73 530,-487.89 537.9,-475.61 551.48,-466.59 563.46,-460.53"/>
<polygon fill="#9a32cd" stroke="#9a32cd" points="429.27,-664.48 421.05,-671.17 431.65,-671.06 429.27,-664.48"/>
<text text-anchor="middle" x="489" y="-652.89" font-family="Helvetica,sans-Serif" font-size="10.00"> usermg</text>
</g>
<!-- Node2 -->
<g id="node2" class="node">
<title>Node2</title>
<g id="a_node2"><a xlink:href="variables__old_8h.html#structMGCtx" target="_top" xlink:title="Context for Multigrid operations.">
<polygon fill="none" stroke="black" points="887,-472.39 887,-491.39 937,-491.39 937,-472.39 887,-472.39"/>
<text text-anchor="middle" x="912" y="-479.39" font-family="Helvetica,sans-Serif" font-size="10.00">MGCtx</text>
</a>
</g>
</g>
<!-- Node2&#45;&gt;Node1 -->
<g id="edge1" class="edge">
<title>Node2&#45;&gt;Node1</title>
<path fill="none" stroke="#9a32cd" stroke-dasharray="5,2" d="M889.69,-497.64C860.04,-518.98 804.1,-557.26 752,-581.89 650.35,-629.94 621.41,-635.99 512,-661.89 481.39,-669.14 445.53,-673.77 421.44,-676.34"/>
<polygon fill="#9a32cd" stroke="#9a32cd" points="891.98,-500.3 898.01,-491.59 887.86,-494.63 891.98,-500.3"/>
<text text-anchor="middle" x="708.5" y="-621.89" font-family="Helvetica,sans-Serif" font-size="10.00"> mgctx</text>
</g>
<!-- Node3 -->
<g id="node3" class="node">
<title>Node3</title>
<g id="a_node3"><a xlink:href="variables__old_8h.html#structUserCtx" target="_top" xlink:title="User&#45;defined context containing data specific to a single computational grid level.">
<polygon fill="none" stroke="black" points="770,-254.39 770,-273.39 826,-273.39 826,-254.39 770,-254.39"/>
<text text-anchor="middle" x="798" y="-261.39" font-family="Helvetica,sans-Serif" font-size="10.00">UserCtx</text>
</a>
</g>
</g>
<!-- Node3&#45;&gt;Node2 -->
<g id="edge2" class="edge">
<title>Node3&#45;&gt;Node2</title>
<path fill="none" stroke="#9a32cd" stroke-dasharray="5,2" d="M808.53,-282.43C831.43,-327.01 888.95,-438.97 906.1,-472.35"/>
<polygon fill="#9a32cd" stroke="#9a32cd" points="811.64,-280.83 803.96,-273.54 805.41,-284.03 811.64,-280.83"/>
<text text-anchor="middle" x="856.5" y="-400.89" font-family="Helvetica,sans-Serif" font-size="10.00"> user</text>
</g>
<!-- Node3&#45;&gt;Node3 -->
<g id="edge29" class="edge">
<title>Node3&#45;&gt;Node3</title>
<path fill="none" stroke="#9a32cd" stroke-dasharray="5,2" d="M787.32,-283.66C788.16,-288.39 791.72,-291.89 798,-291.89 808.31,-291.89 811.29,-282.46 806.94,-273.65"/>
<polygon fill="#9a32cd" stroke="#9a32cd" points="790.79,-284.1 789.06,-273.65 783.9,-282.9 790.79,-284.1"/>
<text text-anchor="middle" x="798" y="-305.89" font-family="Helvetica,sans-Serif" font-size="10.00"> user_f</text>
<text text-anchor="middle" x="798" y="-294.89" font-family="Helvetica,sans-Serif" font-size="10.00">user_c</text>
</g>
<!-- Node4&#45;&gt;Node3 -->
<g id="edge3" class="edge">
<title>Node4&#45;&gt;Node3</title>
<path fill="none" stroke="#9a32cd" stroke-dasharray="5,2" d="M624.97,-446.13C661.45,-439.45 717.64,-423.91 752,-388.89 784.79,-355.47 793.87,-296.45 796.23,-273.45"/>
<polygon fill="#9a32cd" stroke="#9a32cd" points="624.05,-442.74 614.78,-447.86 625.23,-449.64 624.05,-442.74"/>
<text text-anchor="middle" x="708.5" y="-438.89" font-family="Helvetica,sans-Serif" font-size="10.00"> simCtx</text>
</g>
<!-- Node5 -->
<g id="node5" class="node">
<title>Node5</title>
<g id="a_node5"><a xlink:href="variables__old_8h.html#structIBMNodes" target="_top" xlink:title="Represents a collection of nodes forming a surface for the IBM.">
<polygon fill="none" stroke="black" points="360,-479.39 360,-498.39 426,-498.39 426,-479.39 360,-479.39"/>
<text text-anchor="middle" x="393" y="-486.39" font-family="Helvetica,sans-Serif" font-size="10.00">IBMNodes</text>
</a>
</g>
</g>
<!-- Node5&#45;&gt;Node3 -->
<g id="edge20" class="edge">
<title>Node5&#45;&gt;Node3</title>
<path fill="none" stroke="#9a32cd" stroke-dasharray="5,2" d="M436.11,-498.92C510.57,-513.9 665.75,-532.35 752,-450.89 778.34,-426.01 792.36,-308.95 796.02,-273.86"/>
<polygon fill="#9a32cd" stroke="#9a32cd" points="436.66,-495.46 426.15,-496.84 435.23,-502.31 436.66,-495.46"/>
<text text-anchor="middle" x="588.5" y="-514.89" font-family="Helvetica,sans-Serif" font-size="10.00"> ibm</text>
</g>
<!-- Node5&#45;&gt;Node4 -->
<g id="edge5" class="edge">
<title>Node5&#45;&gt;Node4</title>
<path fill="none" stroke="#9a32cd" stroke-dasharray="5,2" d="M436.28,-480.59C474.82,-473.02 530.47,-462.09 562.41,-455.82"/>
<polygon fill="#9a32cd" stroke="#9a32cd" points="435.53,-477.17 426.39,-482.53 436.87,-484.04 435.53,-477.17"/>
<text text-anchor="middle" x="489" y="-476.89" font-family="Helvetica,sans-Serif" font-size="10.00"> ibm</text>
</g>
<!-- Node6 -->
<g id="node6" class="node">
<title>Node6</title>
<g id="a_node6"><a xlink:href="variables__old_8h.html#structCmpnts" target="_top" xlink:title="A 3D point or vector with PetscScalar components.">
<polygon fill="none" stroke="black" points="0,-427.39 0,-446.39 54,-446.39 54,-427.39 0,-427.39"/>
<text text-anchor="middle" x="27" y="-434.39" font-family="Helvetica,sans-Serif" font-size="10.00">Cmpnts</text>
</a>
</g>
</g>
<!-- Node6&#45;&gt;Node3 -->
<g id="edge21" class="edge">
<title>Node6&#45;&gt;Node3</title>
<path fill="none" stroke="#9a32cd" stroke-dasharray="5,2" d="M30.11,-417.35C39.11,-338.88 77.47,-50.89 155.5,-50.89 155.5,-50.89 155.5,-50.89 589.5,-50.89 662.71,-50.89 698.38,-28.04 752,-77.89 778.4,-102.44 792.38,-219.01 796.02,-253.96"/>
<polygon fill="#9a32cd" stroke="#9a32cd" points="26.62,-417.02 28.99,-427.35 33.58,-417.8 26.62,-417.02"/>
<text text-anchor="middle" x="393" y="-53.89" font-family="Helvetica,sans-Serif" font-size="10.00"> InitialConstantContra</text>
</g>
<!-- Node6&#45;&gt;Node4 -->
<g id="edge7" class="edge">
<title>Node6&#45;&gt;Node4</title>
<path fill="none" stroke="#9a32cd" stroke-dasharray="5,2" d="M64.36,-437.8C169.61,-440.43 472.71,-448.02 562.28,-450.26"/>
<polygon fill="#9a32cd" stroke="#9a32cd" points="64.32,-434.3 54.24,-437.55 64.14,-441.3 64.32,-434.3"/>
<text text-anchor="middle" x="266.5" y="-446.89" font-family="Helvetica,sans-Serif" font-size="10.00"> InitialConstantContra</text>
</g>
<!-- Node6&#45;&gt;Node5 -->
<g id="edge6" class="edge">
<title>Node6&#45;&gt;Node5</title>
<path fill="none" stroke="#9a32cd" stroke-dasharray="5,2" d="M47.87,-452.46C55.08,-457.29 63.54,-462.08 72,-464.89 172.72,-498.36 300.74,-495.3 359.65,-491.55"/>
<polygon fill="#9a32cd" stroke="#9a32cd" points="49.67,-449.44 39.51,-446.47 45.6,-455.13 49.67,-449.44"/>
<text text-anchor="middle" x="156.5" y="-524.89" font-family="Helvetica,sans-Serif" font-size="10.00"> qvec</text>
<text text-anchor="middle" x="156.5" y="-513.89" font-family="Helvetica,sans-Serif" font-size="10.00">uold</text>
<text text-anchor="middle" x="156.5" y="-502.89" font-family="Helvetica,sans-Serif" font-size="10.00">urm1</text>
<text text-anchor="middle" x="156.5" y="-491.89" font-family="Helvetica,sans-Serif" font-size="10.00">u</text>
</g>
<!-- Node8 -->
<g id="node8" class="node">
<title>Node8</title>
<g id="a_node8"><a xlink:href="variables__old_8h.html#structIBMInfo" target="_top" xlink:title="Holds interpolation and distance information for a single IBM point.">
<polygon fill="none" stroke="black" points="129.5,-352.39 129.5,-371.39 183.5,-371.39 183.5,-352.39 129.5,-352.39"/>
<text text-anchor="middle" x="156.5" y="-359.39" font-family="Helvetica,sans-Serif" font-size="10.00">IBMInfo</text>
</a>
</g>
</g>
<!-- Node6&#45;&gt;Node8 -->
<g id="edge10" class="edge">
<title>Node6&#45;&gt;Node8</title>
<path fill="none" stroke="#9a32cd" stroke-dasharray="5,2" d="M53.15,-422.1C78.66,-407.09 117.38,-384.31 139.16,-371.5"/>
<polygon fill="#9a32cd" stroke="#9a32cd" points="51.25,-419.15 44.41,-427.24 54.8,-425.19 51.25,-419.15"/>
<text text-anchor="middle" x="86" y="-412.89" font-family="Helvetica,sans-Serif" font-size="10.00"> pmin</text>
</g>
<!-- Node10 -->
<g id="node10" class="node">
<title>Node10</title>
<g id="a_node10"><a xlink:href="variables__old_8h.html#structBoundingBox" target="_top" xlink:title="Defines a 3D axis&#45;aligned bounding box.">
<polygon fill="none" stroke="black" points="352.5,-260.39 352.5,-279.39 433.5,-279.39 433.5,-260.39 352.5,-260.39"/>
<text text-anchor="middle" x="393" y="-267.39" font-family="Helvetica,sans-Serif" font-size="10.00">BoundingBox</text>
</a>
</g>
</g>
<!-- Node6&#45;&gt;Node10 -->
<g id="edge13" class="edge">
<title>Node6&#45;&gt;Node10</title>
<path fill="none" stroke="#9a32cd" stroke-dasharray="5,2" d="M37.15,-417.94C50.87,-391.69 79.35,-344.81 118,-320.89 191.44,-275.44 295.68,-268.58 352.06,-268.59"/>
<polygon fill="#9a32cd" stroke="#9a32cd" points="33.86,-416.7 32.48,-427.2 40.11,-419.85 33.86,-416.7"/>
<text text-anchor="middle" x="156.5" y="-334.89" font-family="Helvetica,sans-Serif" font-size="10.00"> max_coords</text>
<text text-anchor="middle" x="156.5" y="-323.89" font-family="Helvetica,sans-Serif" font-size="10.00">min_coords</text>
</g>
<!-- Node11 -->
<g id="node11" class="node">
<title>Node11</title>
<g id="a_node11"><a xlink:href="variables__old_8h.html#structIBMVNodes" target="_top" xlink:title="Represents a collection of nodes forming a volume for the IBM.">
<polygon fill="none" stroke="black" points="230,-542.39 230,-561.39 303,-561.39 303,-542.39 230,-542.39"/>
<text text-anchor="middle" x="266.5" y="-549.39" font-family="Helvetica,sans-Serif" font-size="10.00">IBMVNodes</text>
</a>
</g>
</g>
<!-- Node6&#45;&gt;Node11 -->
<g id="edge15" class="edge">
<title>Node6&#45;&gt;Node11</title>
<path fill="none" stroke="#9a32cd" stroke-dasharray="5,2" d="M36.14,-455.9C48.93,-482.75 76.61,-530.16 118,-544.89 154.47,-557.87 199.23,-557.97 229.82,-555.87"/>
<polygon fill="#9a32cd" stroke="#9a32cd" points="39.3,-454.38 31.97,-446.72 32.92,-457.28 39.3,-454.38"/>
<text text-anchor="middle" x="86" y="-559.89" font-family="Helvetica,sans-Serif" font-size="10.00"> uold</text>
<text text-anchor="middle" x="86" y="-548.89" font-family="Helvetica,sans-Serif" font-size="10.00">urm1</text>
<text text-anchor="middle" x="86" y="-537.89" font-family="Helvetica,sans-Serif" font-size="10.00">u</text>
</g>
<!-- Node7 -->
<g id="node7" class="node">
<title>Node7</title>
<g id="a_node7"><a xlink:href="variables__old_8h.html#structFSInfo" target="_top" xlink:title="Holds all data related to the state and motion of a body in FSI.">
<polygon fill="none" stroke="black" points="369.5,-403.39 369.5,-422.39 416.5,-422.39 416.5,-403.39 369.5,-403.39"/>
<text text-anchor="middle" x="393" y="-410.39" font-family="Helvetica,sans-Serif" font-size="10.00">FSInfo</text>
</a>
</g>
</g>
<!-- Node7&#45;&gt;Node4 -->
<g id="edge8" class="edge">
<title>Node7&#45;&gt;Node4</title>
<path fill="none" stroke="#9a32cd" stroke-dasharray="5,2" d="M427.12,-414.67C450.94,-416.41 483.71,-419.72 512,-425.89 529.4,-429.69 548.44,-436 563.04,-441.34"/>
<polygon fill="#9a32cd" stroke="#9a32cd" points="427.06,-411.16 416.85,-413.98 426.59,-418.15 427.06,-411.16"/>
<text text-anchor="middle" x="489" y="-428.89" font-family="Helvetica,sans-Serif" font-size="10.00"> fsi</text>
</g>
<!-- Node8&#45;&gt;Node3 -->
<g id="edge16" class="edge">
<title>Node8&#45;&gt;Node3</title>
<path fill="none" stroke="#9a32cd" stroke-dasharray="5,2" d="M193.74,-362.93C275,-364.95 477.86,-368.16 647,-355.89 693.96,-352.48 712.88,-368.08 752,-341.89 776.68,-325.36 789.51,-290.4 794.49,-273.47"/>
<polygon fill="#9a32cd" stroke="#9a32cd" points="193.64,-359.43 183.55,-362.67 193.46,-366.43 193.64,-359.43"/>
<text text-anchor="middle" x="489" y="-365.89" font-family="Helvetica,sans-Serif" font-size="10.00"> ibm_intp</text>
</g>
<!-- Node8&#45;&gt;Node7 -->
<g id="edge9" class="edge">
<title>Node8&#45;&gt;Node7</title>
<path fill="none" stroke="#9a32cd" stroke-dasharray="5,2" d="M193.82,-369.79C242.88,-380.46 328.83,-399.15 369.48,-407.99"/>
<polygon fill="#9a32cd" stroke="#9a32cd" points="194.46,-366.35 183.94,-367.64 192.97,-373.19 194.46,-366.35"/>
<text text-anchor="middle" x="266.5" y="-398.89" font-family="Helvetica,sans-Serif" font-size="10.00"> fsi_intp</text>
</g>
<!-- Node18 -->
<g id="node18" class="node">
<title>Node18</title>
<g id="a_node18"><a xlink:href="variables__old_8h.html#structIBMListNode" target="_top" xlink:title="A linked list node containing IBM interpolation info.">
<polygon fill="none" stroke="black" points="354,-298.39 354,-317.39 432,-317.39 432,-298.39 354,-298.39"/>
<text text-anchor="middle" x="393" y="-305.39" font-family="Helvetica,sans-Serif" font-size="10.00">IBMListNode</text>
</a>
</g>
</g>
<!-- Node8&#45;&gt;Node18 -->
<g id="edge27" class="edge">
<title>Node8&#45;&gt;Node18</title>
<path fill="none" stroke="#9a32cd" stroke-dasharray="5,2" d="M176.6,-345.72C186.75,-338.05 199.83,-329.57 213,-324.89 259.48,-308.38 316.77,-305.77 353.82,-306.2"/>
<polygon fill="#9a32cd" stroke="#9a32cd" points="174.17,-343.18 168.5,-352.13 178.51,-348.67 174.17,-343.18"/>
<text text-anchor="middle" x="266.5" y="-327.89" font-family="Helvetica,sans-Serif" font-size="10.00"> ibm_intp</text>
</g>
<!-- Node9 -->
<g id="node9" class="node">
<title>Node9</title>
<g id="a_node9"><a xlink:href="variables__old_8h.html#structSurfElmtInfo" target="_top" xlink:title="Information about a surface element for FSI calculations.">
<polygon fill="none" stroke="black" points="118,-403.39 118,-422.39 195,-422.39 195,-403.39 118,-403.39"/>
<text text-anchor="middle" x="156.5" y="-410.39" font-family="Helvetica,sans-Serif" font-size="10.00">SurfElmtInfo</text>
</a>
</g>
</g>
<!-- Node9&#45;&gt;Node7 -->
<g id="edge11" class="edge">
<title>Node9&#45;&gt;Node7</title>
<path fill="none" stroke="#9a32cd" stroke-dasharray="5,2" d="M205.42,-412.89C255.41,-412.89 331.64,-412.89 369.31,-412.89"/>
<polygon fill="#9a32cd" stroke="#9a32cd" points="205.18,-409.39 195.18,-412.89 205.18,-416.39 205.18,-409.39"/>
<text text-anchor="middle" x="266.5" y="-415.89" font-family="Helvetica,sans-Serif" font-size="10.00"> elmtinfo</text>
</g>
<!-- Node10&#45;&gt;Node3 -->
<g id="edge23" class="edge">
<title>Node10&#45;&gt;Node3</title>
<path fill="none" stroke="#9a32cd" stroke-dasharray="5,2" d="M443.78,-273.66C513.06,-278.14 642.42,-283.74 752,-272.89 757.71,-272.32 763.77,-271.37 769.52,-270.28"/>
<polygon fill="#9a32cd" stroke="#9a32cd" points="443.8,-270.15 433.59,-272.98 443.34,-277.13 443.8,-270.15"/>
<text text-anchor="middle" x="588.5" y="-292.89" font-family="Helvetica,sans-Serif" font-size="10.00"> global_domain_bbox</text>
<text text-anchor="middle" x="588.5" y="-281.89" font-family="Helvetica,sans-Serif" font-size="10.00">bbox</text>
</g>
<!-- Node10&#45;&gt;Node4 -->
<g id="edge12" class="edge">
<title>Node10&#45;&gt;Node4</title>
<path fill="none" stroke="#9a32cd" stroke-dasharray="5,2" d="M443.71,-280.35C471.21,-287.03 501.84,-296.22 512,-305.89 529.11,-322.17 519.84,-334.57 530,-355.89 545.6,-388.61 569.3,-424.5 580.79,-441.27"/>
<polygon fill="#9a32cd" stroke="#9a32cd" points="444.29,-276.89 433.76,-278.01 442.69,-283.71 444.29,-276.89"/>
<text text-anchor="middle" x="489" y="-308.89" font-family="Helvetica,sans-Serif" font-size="10.00"> bboxlist</text>
</g>
<!-- Node11&#45;&gt;Node4 -->
<g id="edge14" class="edge">
<title>Node11&#45;&gt;Node4</title>
<path fill="none" stroke="#9a32cd" stroke-dasharray="5,2" d="M313.04,-543.71C362.97,-533.93 444.9,-515.49 512,-488.89 532.73,-480.67 555.46,-468.81 570.51,-460.54"/>
<polygon fill="#9a32cd" stroke="#9a32cd" points="312.35,-540.28 303.2,-545.61 313.68,-547.15 312.35,-540.28"/>
<text text-anchor="middle" x="393" y="-540.89" font-family="Helvetica,sans-Serif" font-size="10.00"> ibmv</text>
</g>
<!-- Node12 -->
<g id="node12" class="node">
<title>Node12</title>
<g id="a_node12"><a xlink:href="variables__old_8h.html#structCmpnts2" target="_top" xlink:title="A 2D point or vector with PetscScalar components.">
<polygon fill="none" stroke="black" points="558.5,-231.39 558.5,-250.39 618.5,-250.39 618.5,-231.39 558.5,-231.39"/>
<text text-anchor="middle" x="588.5" y="-238.39" font-family="Helvetica,sans-Serif" font-size="10.00">Cmpnts2</text>
</a>
</g>
</g>
<!-- Node12&#45;&gt;Node3 -->
<g id="edge17" class="edge">
<title>Node12&#45;&gt;Node3</title>
<path fill="none" stroke="#9a32cd" stroke-dasharray="5,2" d="M628.76,-245.24C670.02,-249.82 733.83,-256.89 769.84,-260.88"/>
<polygon fill="#9a32cd" stroke="#9a32cd" points="629.11,-241.76 618.79,-244.14 628.34,-248.72 629.11,-241.76"/>
<text text-anchor="middle" x="708.5" y="-260.89" font-family="Helvetica,sans-Serif" font-size="10.00"> komega_plane</text>
</g>
<!-- Node13 -->
<g id="node13" class="node">
<title>Node13</title>
<g id="a_node13"><a xlink:href="variables__old_8h.html#structRankNeighbors" target="_top" xlink:title="Stores the MPI ranks of neighboring subdomains.">
<polygon fill="none" stroke="black" points="543,-193.39 543,-212.39 634,-212.39 634,-193.39 543,-193.39"/>
<text text-anchor="middle" x="588.5" y="-200.39" font-family="Helvetica,sans-Serif" font-size="10.00">RankNeighbors</text>
</a>
</g>
</g>
<!-- Node13&#45;&gt;Node3 -->
<g id="edge18" class="edge">
<title>Node13&#45;&gt;Node3</title>
<path fill="none" stroke="#9a32cd" stroke-dasharray="5,2" d="M644.45,-207.85C676.69,-212.1 717.7,-219.86 752,-233.89 764.34,-238.94 776.84,-247.62 785.52,-254.34"/>
<polygon fill="#9a32cd" stroke="#9a32cd" points="644.67,-204.35 634.31,-206.59 643.81,-211.3 644.67,-204.35"/>
<text text-anchor="middle" x="708.5" y="-236.89" font-family="Helvetica,sans-Serif" font-size="10.00"> neighbors</text>
</g>
<!-- Node14 -->
<g id="node14" class="node">
<title>Node14</title>
<g id="a_node14"><a xlink:href="variables__old_8h.html#structRankCellInfo" target="_top" xlink:title="A lean struct to hold the global cell ownership range for a single MPI rank.">
<polygon fill="none" stroke="black" points="549,-155.39 549,-174.39 628,-174.39 628,-155.39 549,-155.39"/>
<text text-anchor="middle" x="588.5" y="-162.39" font-family="Helvetica,sans-Serif" font-size="10.00">RankCellInfo</text>
</a>
</g>
</g>
<!-- Node14&#45;&gt;Node3 -->
<g id="edge19" class="edge">
<title>Node14&#45;&gt;Node3</title>
<path fill="none" stroke="#9a32cd" stroke-dasharray="5,2" d="M638.37,-164.89C672.72,-167.07 718.37,-174.52 752,-196.89 773.47,-211.17 787.32,-239.53 793.42,-254.36"/>
<polygon fill="#9a32cd" stroke="#9a32cd" points="638.26,-161.38 628.09,-164.38 637.91,-168.37 638.26,-161.38"/>
<text text-anchor="middle" x="708.5" y="-199.89" font-family="Helvetica,sans-Serif" font-size="10.00"> RankCellInfoMap</text>
</g>
<!-- Node15 -->
<g id="node15" class="node">
<title>Node15</title>
<g id="a_node15"><a xlink:href="variables__old_8h.html#structPostProcessParams" target="_top" xlink:title="Parameters controlling post&#45;processing output actions.">
<polygon fill="none" stroke="black" points="532.5,-117.39 532.5,-136.39 644.5,-136.39 644.5,-117.39 532.5,-117.39"/>
<text text-anchor="middle" x="588.5" y="-124.39" font-family="Helvetica,sans-Serif" font-size="10.00">PostProcessParams</text>
</a>
</g>
</g>
<!-- Node15&#45;&gt;Node3 -->
<g id="edge22" class="edge">
<title>Node15&#45;&gt;Node3</title>
<path fill="none" stroke="#9a32cd" stroke-dasharray="5,2" d="M654.91,-123.49C687.22,-125.1 724.97,-132.32 752,-153.89 784.25,-179.63 793.58,-232.29 796.11,-254.1"/>
<polygon fill="#9a32cd" stroke="#9a32cd" points="654.74,-119.98 644.63,-123.15 654.51,-126.98 654.74,-119.98"/>
<text text-anchor="middle" x="708.5" y="-156.89" font-family="Helvetica,sans-Serif" font-size="10.00"> pp</text>
</g>
<!-- Node16 -->
<g id="node16" class="node">
<title>Node16</title>
<g id="a_node16"><a xlink:href="variables__old_8h.html#structFlowWave" target="_top" xlink:title="Represents a single point in a time&#45;varying flow waveform.">
<polygon fill="none" stroke="black" points="554.5,-79.39 554.5,-98.39 622.5,-98.39 622.5,-79.39 554.5,-79.39"/>
<text text-anchor="middle" x="588.5" y="-86.39" font-family="Helvetica,sans-Serif" font-size="10.00">FlowWave</text>
</a>
</g>
</g>
<!-- Node16&#45;&gt;Node3 -->
<g id="edge24" class="edge">
<title>Node16&#45;&gt;Node3</title>
<path fill="none" stroke="#9a32cd" stroke-dasharray="5,2" d="M632.88,-82.48C668.93,-79.69 719.44,-82.04 752,-109.89 796.24,-147.73 798.24,-226.43 797.48,-254.05"/>
<polygon fill="#9a32cd" stroke="#9a32cd" points="632.28,-79.02 622.65,-83.44 632.93,-85.99 632.28,-79.02"/>
<text text-anchor="middle" x="708.5" y="-112.89" font-family="Helvetica,sans-Serif" font-size="10.00"> inflow</text>
</g>
<!-- Node17 -->
<g id="node17" class="node">
<title>Node17</title>
<g id="a_node17"><a xlink:href="variables__old_8h.html#structIBMList" target="_top" xlink:title="Head of a linked list for IBM data.">
<polygon fill="none" stroke="black" points="562,-327.39 562,-346.39 615,-346.39 615,-327.39 562,-327.39"/>
<text text-anchor="middle" x="588.5" y="-334.39" font-family="Helvetica,sans-Serif" font-size="10.00">IBMList</text>
</a>
</g>
</g>
<!-- Node17&#45;&gt;Node3 -->
<g id="edge25" class="edge">
<title>Node17&#45;&gt;Node3</title>
<path fill="none" stroke="#9a32cd" stroke-dasharray="5,2" d="M625.16,-333.83C659.18,-329.82 711.15,-320.78 752,-300.89 766,-294.07 779.44,-282.07 787.93,-273.58"/>
<polygon fill="#9a32cd" stroke="#9a32cd" points="624.77,-330.35 615.21,-334.92 625.53,-337.31 624.77,-330.35"/>
<text text-anchor="middle" x="708.5" y="-329.89" font-family="Helvetica,sans-Serif" font-size="10.00"> ibmlist</text>
</g>
<!-- Node18&#45;&gt;Node17 -->
<g id="edge26" class="edge">
<title>Node18&#45;&gt;Node17</title>
<path fill="none" stroke="#9a32cd" stroke-dasharray="5,2" d="M442.07,-315.26C450.06,-316.48 458.26,-317.73 466,-318.89 499.11,-323.87 537.3,-329.51 561.9,-333.13"/>
<polygon fill="#9a32cd" stroke="#9a32cd" points="442.52,-311.79 432.11,-313.75 441.47,-318.71 442.52,-311.79"/>
<text text-anchor="middle" x="489" y="-327.89" font-family="Helvetica,sans-Serif" font-size="10.00"> head</text>
</g>
<!-- Node18&#45;&gt;Node18 -->
<g id="edge28" class="edge">
<title>Node18&#45;&gt;Node18</title>
<path fill="none" stroke="#9a32cd" stroke-dasharray="5,2" d="M375.22,-327.29C376.41,-332.2 382.34,-335.89 393,-335.89 410.06,-335.89 414.99,-326.46 407.8,-317.65"/>
<polygon fill="#9a32cd" stroke="#9a32cd" points="378.59,-328.23 378.2,-317.65 371.91,-326.17 378.59,-328.23"/>
<text text-anchor="middle" x="393" y="-338.89" font-family="Helvetica,sans-Serif" font-size="10.00"> next</text>
</g>
<!-- Node19 -->
<g id="node19" class="node">
<title>Node19</title>
<g id="a_node19"><a xlink:href="variables__old_8h.html#structBCS" target="_top" xlink:title="Legacy boundary condition data.">
<polygon fill="none" stroke="black" points="570.5,-3.39 570.5,-22.39 606.5,-22.39 606.5,-3.39 570.5,-3.39"/>
<text text-anchor="middle" x="588.5" y="-10.39" font-family="Helvetica,sans-Serif" font-size="10.00">BCS</text>
</a>
</g>
</g>
<!-- Node19&#45;&gt;Node3 -->
<g id="edge30" class="edge">
<title>Node19&#45;&gt;Node3</title>
<path fill="none" stroke="#9a32cd" stroke-dasharray="5,2" d="M616.72,-6.07C652.49,1.1 715.08,7.28 752,-25.89 786.8,-57.15 795.1,-213.86 796.68,-254.34"/>
<polygon fill="#9a32cd" stroke="#9a32cd" points="615.57,-2.74 606.54,-8.29 617.06,-9.58 615.57,-2.74"/>
<text text-anchor="middle" x="708.5" y="-28.89" font-family="Helvetica,sans-Serif" font-size="10.00"> Bcs</text>
</g>
<!-- Node20 -->
<g id="node20" class="node">
<title>Node20</title>
<g id="a_node20"><a xlink:href="variables_8h.html#structBoundaryFaceConfig" target="_top" xlink:title="Holds the complete configuration for one of the six boundary faces.">
<polygon fill="none" stroke="black" points="530,-564.39 530,-583.39 647,-583.39 647,-564.39 530,-564.39"/>
<text text-anchor="middle" x="588.5" y="-571.39" font-family="Helvetica,sans-Serif" font-size="10.00">BoundaryFaceConfig</text>
</a>
</g>
</g>
<!-- Node20&#45;&gt;Node3 -->
<g id="edge31" class="edge">
<title>Node20&#45;&gt;Node3</title>
<path fill="none" stroke="#9a32cd" stroke-dasharray="5,2" d="M657.36,-569.27C690.53,-563.43 728.31,-550.79 752,-523.89 785.83,-485.47 794.89,-315.96 796.64,-273.54"/>
<polygon fill="#9a32cd" stroke="#9a32cd" points="656.56,-565.85 647.23,-570.87 657.66,-572.77 656.56,-565.85"/>
<text text-anchor="middle" x="708.5" y="-569.89" font-family="Helvetica,sans-Serif" font-size="10.00"> boundary_faces</text>
</g>
<!-- Node21 -->
<g id="node21" class="node">
<title>Node21</title>
<g id="a_node21"><a xlink:href="variables__old_8h.html#structBC__Param__s" target="_top" xlink:title="A node in a linked list for storing key&#45;value parameters from the bcs.dat file.">
<polygon fill="none" stroke="black" points="354.5,-602.39 354.5,-621.39 431.5,-621.39 431.5,-602.39 354.5,-602.39"/>
<text text-anchor="middle" x="393" y="-609.39" font-family="Helvetica,sans-Serif" font-size="10.00">BC_Param_s</text>
</a>
</g>
</g>
<!-- Node21&#45;&gt;Node20 -->
<g id="edge32" class="edge">
<title>Node21&#45;&gt;Node20</title>
<path fill="none" stroke="#9a32cd" stroke-dasharray="5,2" d="M441.84,-602.5C471.36,-596.7 509.13,-589.28 538.81,-583.45"/>
<polygon fill="#9a32cd" stroke="#9a32cd" points="440.91,-599.11 431.77,-604.47 442.26,-605.98 440.91,-599.11"/>
<text text-anchor="middle" x="489" y="-599.89" font-family="Helvetica,sans-Serif" font-size="10.00"> params</text>
</g>
<!-- Node21&#45;&gt;Node21 -->
<g id="edge33" class="edge">
<title>Node21&#45;&gt;Node21</title>
<path fill="none" stroke="#9a32cd" stroke-dasharray="5,2" d="M375.22,-631.29C376.41,-636.2 382.34,-639.89 393,-639.89 410.06,-639.89 414.99,-630.46 407.8,-621.65"/>
<polygon fill="#9a32cd" stroke="#9a32cd" points="378.59,-632.23 378.2,-621.65 371.91,-630.17 378.59,-632.23"/>
<text text-anchor="middle" x="393" y="-642.89" font-family="Helvetica,sans-Serif" font-size="10.00"> next</text>
</g>
<!-- Node22 -->
<g id="node22" class="node">
<title>Node22</title>
<g id="a_node22"><a xlink:href="structBoundaryCondition.html" target="_top" xlink:title="The &quot;virtual table&quot; struct for a boundary condition handler object.">
<polygon fill="none" stroke="black" points="338,-564.39 338,-583.39 448,-583.39 448,-564.39 338,-564.39"/>
<text text-anchor="middle" x="393" y="-571.39" font-family="Helvetica,sans-Serif" font-size="10.00">BoundaryCondition</text>
</a>
</g>
</g>
<!-- Node22&#45;&gt;Node20 -->
<g id="edge34" class="edge">
<title>Node22&#45;&gt;Node20</title>
<path fill="none" stroke="#9a32cd" stroke-dasharray="5,2" d="M458.24,-573.89C481.42,-573.89 507.41,-573.89 529.97,-573.89"/>
<polygon fill="#9a32cd" stroke="#9a32cd" points="458.16,-570.39 448.16,-573.89 458.16,-577.39 458.16,-570.39"/>
<text text-anchor="middle" x="489" y="-576.89" font-family="Helvetica,sans-Serif" font-size="10.00"> handler</text>
</g>
</g>
</svg>
