<?xml version="1.0" encoding="UTF-8" standalone="no"?>
<!DOCTYPE svg PUBLIC "-//W3C//DTD SVG 1.1//EN"
 "http://www.w3.org/Graphics/SVG/1.1/DTD/svg11.dtd">
<!-- Generated by graphviz version 2.43.0 (0)
 -->
<!-- Title: FindOwnerOfCell Pages: 1 -->
<svg width="727pt" height="66pt"
 viewBox="0.00 0.00 727.00 66.00" xmlns="http://www.w3.org/2000/svg" xmlns:xlink="http://www.w3.org/1999/xlink">
<g id="graph0" class="graph" transform="scale(1 1) rotate(0) translate(4 62)">
<title>FindOwnerOfCell</title>
<!-- Node1 -->
<g id="node1" class="node">
<title>Node1</title>
<g id="a_node1"><a xlink:title="Finds the MPI rank that owns a given global cell index.">
<polygon fill="#bfbfbf" stroke="black" points="621,-19.5 621,-38.5 719,-38.5 719,-19.5 621,-19.5"/>
<text text-anchor="middle" x="670" y="-26.5" font-family="Helvetica,sans-Serif" font-size="10.00">FindOwnerOfCell</text>
</a>
</g>
</g>
<!-- Node2 -->
<g id="node2" class="node">
<title>Node2</title>
<g id="a_node2"><a xlink:href="walkingsearch_8c.html#a0b63dfe82e0fdee5c2c3bdd477f9901f" target="_top" xlink:title="Locates a particle&#39;s host cell or identifies its migration target using a robust walk search.">
<polygon fill="none" stroke="black" points="422,-14 422,-44 585,-44 585,-14 422,-14"/>
<text text-anchor="start" x="430" y="-32" font-family="Helvetica,sans-Serif" font-size="10.00">LocateParticleOrFindMigration</text>
<text text-anchor="middle" x="503.5" y="-21" font-family="Helvetica,sans-Serif" font-size="10.00">Target_TEST</text>
</a>
</g>
</g>
<!-- Node1&#45;&gt;Node2 -->
<g id="edge1" class="edge">
<title>Node1&#45;&gt;Node2</title>
<path fill="none" stroke="midnightblue" d="M610.96,-29C602.57,-29 593.81,-29 585.08,-29"/>
<polygon fill="midnightblue" stroke="midnightblue" points="610.98,-32.5 620.98,-29 610.98,-25.5 610.98,-32.5"/>
</g>
<!-- Node3 -->
<g id="node3" class="node">
<title>Node3</title>
<g id="a_node3"><a xlink:href="ParticleMotion_8c.html#a727054a4a467fd8504a19caed5a5916b" target="_top" xlink:title="Orchestrates the complete particle location and migration process for one timestep.">
<polygon fill="none" stroke="black" points="224,-19.5 224,-38.5 386,-38.5 386,-19.5 224,-19.5"/>
<text text-anchor="middle" x="305" y="-26.5" font-family="Helvetica,sans-Serif" font-size="10.00">LocateAllParticlesInGrid_TEST</text>
</a>
</g>
</g>
<!-- Node2&#45;&gt;Node3 -->
<g id="edge2" class="edge">
<title>Node2&#45;&gt;Node3</title>
<path fill="none" stroke="midnightblue" d="M411.47,-29C403.01,-29 394.49,-29 386.14,-29"/>
<polygon fill="midnightblue" stroke="midnightblue" points="411.73,-32.5 421.73,-29 411.73,-25.5 411.73,-32.5"/>
</g>
<!-- Node4 -->
<g id="node4" class="node">
<title>Node4</title>
<g id="a_node4"><a xlink:href="simulation_8c.html#a5cfb2f783604af7f20171d19f969d5d3" target="_top" xlink:title="Executes the main time&#45;marching loop for the coupled Euler&#45;Lagrange simulation.">
<polygon fill="none" stroke="black" points="77,-38.5 77,-57.5 188,-57.5 188,-38.5 77,-38.5"/>
<text text-anchor="middle" x="132.5" y="-45.5" font-family="Helvetica,sans-Serif" font-size="10.00">AdvanceSimulation</text>
</a>
</g>
</g>
<!-- Node3&#45;&gt;Node4 -->
<g id="edge3" class="edge">
<title>Node3&#45;&gt;Node4</title>
<path fill="none" stroke="midnightblue" d="M213.53,-39.08C204.84,-40.05 196.22,-41.01 188.04,-41.92"/>
<polygon fill="midnightblue" stroke="midnightblue" points="214.19,-42.53 223.74,-37.94 213.42,-35.57 214.19,-42.53"/>
</g>
<!-- Node6 -->
<g id="node6" class="node">
<title>Node6</title>
<g id="a_node6"><a xlink:href="simulation_8c.html#a4e2cad25ac1fbdc6745d6fd8fcc1bbc1" target="_top" xlink:title="Finalizes the simulation setup at t=0, ensuring a consistent state before time marching.">
<polygon fill="none" stroke="black" points="77,-0.5 77,-19.5 188,-19.5 188,-0.5 77,-0.5"/>
<text text-anchor="middle" x="132.5" y="-7.5" font-family="Helvetica,sans-Serif" font-size="10.00">PerformInitialSetup</text>
</a>
</g>
</g>
<!-- Node3&#45;&gt;Node6 -->
<g id="edge5" class="edge">
<title>Node3&#45;&gt;Node6</title>
<path fill="none" stroke="midnightblue" d="M213.53,-18.92C204.84,-17.95 196.22,-16.99 188.04,-16.08"/>
<polygon fill="midnightblue" stroke="midnightblue" points="213.42,-22.43 223.74,-20.06 214.19,-15.47 213.42,-22.43"/>
</g>
<!-- Node5 -->
<g id="node5" class="node">
<title>Node5</title>
<g id="a_node5"><a xlink:href="picsolver_8c.html#a3c04138a5bfe5d72780bb7e82a18e627" target="_top" xlink:title=" ">
<polygon fill="none" stroke="black" points="0,-19.5 0,-38.5 41,-38.5 41,-19.5 0,-19.5"/>
<text text-anchor="middle" x="20.5" y="-26.5" font-family="Helvetica,sans-Serif" font-size="10.00">main</text>
</a>
</g>
</g>
<!-- Node4&#45;&gt;Node5 -->
<g id="edge4" class="edge">
<title>Node4&#45;&gt;Node5</title>
<path fill="none" stroke="midnightblue" d="M66.94,-36.85C57.54,-35.23 48.53,-33.67 41.05,-32.38"/>
<polygon fill="midnightblue" stroke="midnightblue" points="66.37,-40.3 76.82,-38.56 67.56,-33.4 66.37,-40.3"/>
</g>
<!-- Node6&#45;&gt;Node5 -->
<g id="edge6" class="edge">
<title>Node6&#45;&gt;Node5</title>
<path fill="none" stroke="midnightblue" d="M66.94,-21.15C57.54,-22.77 48.53,-24.33 41.05,-25.62"/>
<polygon fill="midnightblue" stroke="midnightblue" points="67.56,-24.6 76.82,-19.44 66.37,-17.7 67.56,-24.6"/>
</g>
</g>
</svg>
