<?xml version="1.0" encoding="UTF-8" standalone="no"?>
<!DOCTYPE svg PUBLIC "-//W3C//DTD SVG 1.1//EN"
 "http://www.w3.org/Graphics/SVG/1.1/DTD/svg11.dtd">
<!-- Generated by graphviz version 2.43.0 (0)
 -->
<!-- Title: wallfunction.c Pages: 1 -->
<!--zoomable 812 -->
<svg id="main" version="1.1" xmlns="http://www.w3.org/2000/svg" xmlns:xlink="http://www.w3.org/1999/xlink" xml:space="preserve" onload="init(evt)">
<style type="text/css"><![CDATA[
.edge:hover path { stroke: red; }
.edge:hover polygon { stroke: red; fill: red; }
]]></style>
<script type="text/javascript"><![CDATA[
var edges = document.getElementsByTagName('g');
if (edges && edges.length) {
  for (var i=0;i<edges.length;i++) {
    if (edges[i].id.substr(0,4)=='edge') {
      edges[i].setAttribute('class','edge');
    }
  }
}
]]></script>
        <defs>
                <circle id="rim" cx="0" cy="0" r="7"/>
                <circle id="rim2" cx="0" cy="0" r="3.5"/>
                <g id="zoomPlus">
                        <use xlink:href="#rim" fill="#404040">
                                <set attributeName="fill" to="#808080" begin="zoomplus.mouseover" end="zoomplus.mouseout"/>
                        </use>
                        <path d="M-4,0h8M0,-4v8" fill="none" stroke="white" stroke-width="1.5" pointer-events="none"/>
                </g>
                <g id="zoomMin">
                        <use xlink:href="#rim" fill="#404040">
                                <set attributeName="fill" to="#808080" begin="zoomminus.mouseover" end="zoomminus.mouseout"/>
                        </use>
                        <path d="M-4,0h8" fill="none" stroke="white" stroke-width="1.5" pointer-events="none"/>
                </g>
                <g id="dirArrow">
                        <path fill="none" stroke="white" stroke-width="1.5" d="M0,-3.0v7 M-2.5,-0.5L0,-3.0L2.5,-0.5"/>
                </g>
               <g id="resetDef">
                       <use xlink:href="#rim2" fill="#404040">
                               <set attributeName="fill" to="#808080" begin="reset.mouseover" end="reset.mouseout"/>
                       </use>
               </g>
        </defs>

<script type="text/javascript">
var viewWidth = 3000;
var viewHeight = 812;
var sectionId = 'dynsection-0';
</script>
<script xlink:href="svgpan.js"/>
<svg id="graph" class="graph">
<g id="viewport">
<title>wallfunction.c</title>
<!-- Node1 -->
<g id="node1" class="node">
<title>Node1</title>
<g id="a_node1"><a xlink:title=" ">
<polygon fill="#bfbfbf" stroke="black" points="2451.55,-784.5 2451.55,-803.5 2536.55,-803.5 2536.55,-784.5 2451.55,-784.5"/>
<text text-anchor="middle" x="2494.05" y="-791.5" font-family="Helvetica,sans-Serif" font-size="10.00">wallfunction.c</text>
</a>
</g>
</g>
<!-- Node2 -->
<g id="node2" class="node">
<title>Node2</title>
<g id="a_node2"><a xlink:href="wallfunction_8h.html" target="_top" xlink:title=" ">
<polygon fill="none" stroke="black" points="2015.05,-728.5 2015.05,-747.5 2101.05,-747.5 2101.05,-728.5 2015.05,-728.5"/>
<text text-anchor="middle" x="2058.05" y="-735.5" font-family="Helvetica,sans-Serif" font-size="10.00">wallfunction.h</text>
</a>
</g>
</g>
<!-- Node1&#45;&gt;Node2 -->
<g id="edge1" class="edge">
<title>Node1&#45;&gt;Node2</title>
<path fill="none" stroke="midnightblue" d="M2451.45,-787.72C2371.38,-777.81 2198.61,-756.41 2111.13,-745.57"/>
<polygon fill="midnightblue" stroke="midnightblue" points="2111.5,-742.09 2101.15,-744.34 2110.64,-749.04 2111.5,-742.09"/>
</g>
<!-- Node5 -->
<g id="node5" class="node">
<title>Node5</title>
<g id="a_node5"><a xlink:title=" ">
<polygon fill="none" stroke="#bfbfbf" points="2737.55,-0.5 2737.55,-19.5 2790.55,-19.5 2790.55,-0.5 2737.55,-0.5"/>
<text text-anchor="middle" x="2764.05" y="-7.5" font-family="Helvetica,sans-Serif" font-size="10.00">stdlib.h</text>
</a>
</g>
</g>
<!-- Node1&#45;&gt;Node5 -->
<g id="edge148" class="edge">
<title>Node1&#45;&gt;Node5</title>
<path fill="none" stroke="midnightblue" d="M2536.91,-791.84C2651.11,-787.59 2954.05,-768.29 2954.05,-683 2954.05,-683 2954.05,-683 2954.05,-121 2954.05,-51 2856.26,-24.82 2800.99,-15.62"/>
<polygon fill="midnightblue" stroke="midnightblue" points="2801.29,-12.12 2790.87,-14.04 2800.21,-19.04 2801.29,-12.12"/>
</g>
<!-- Node7 -->
<g id="node7" class="node">
<title>Node7</title>
<g id="a_node7"><a xlink:title=" ">
<polygon fill="none" stroke="#bfbfbf" points="561.55,-112.5 561.55,-131.5 612.55,-131.5 612.55,-112.5 561.55,-112.5"/>
<text text-anchor="middle" x="587.05" y="-119.5" font-family="Helvetica,sans-Serif" font-size="10.00">math.h</text>
</a>
</g>
</g>
<!-- Node1&#45;&gt;Node7 -->
<g id="edge147" class="edge">
<title>Node1&#45;&gt;Node7</title>
<path fill="none" stroke="midnightblue" d="M2451.55,-792.28C2122.96,-786.54 0.05,-746.98 0.05,-683 0.05,-683 0.05,-683 0.05,-625 0.05,-549.31 38.05,-534.69 38.05,-459 38.05,-459 38.05,-459 38.05,-289 38.05,-243.87 78.07,-248.37 116.05,-224 164.57,-192.86 177.75,-184.29 233.05,-168 345.92,-134.76 486.16,-126.07 551.04,-123.8"/>
<polygon fill="midnightblue" stroke="midnightblue" points="551.27,-127.3 561.15,-123.48 551.05,-120.3 551.27,-127.3"/>
</g>
<!-- Node17 -->
<g id="node17" class="node">
<title>Node17</title>
<g id="a_node17"><a xlink:title=" ">
<polygon fill="none" stroke="#bfbfbf" points="2888.05,-0.5 2888.05,-19.5 2938.05,-19.5 2938.05,-0.5 2888.05,-0.5"/>
<text text-anchor="middle" x="2913.05" y="-7.5" font-family="Helvetica,sans-Serif" font-size="10.00">stdio.h</text>
</a>
</g>
</g>
<!-- Node1&#45;&gt;Node17 -->
<g id="edge149" class="edge">
<title>Node1&#45;&gt;Node17</title>
<path fill="none" stroke="midnightblue" d="M2536.94,-792.62C2657.74,-790.4 2992.05,-775.86 2992.05,-683 2992.05,-683 2992.05,-683 2992.05,-121 2992.05,-80.79 2956.8,-45.22 2933.4,-26.03"/>
<polygon fill="midnightblue" stroke="midnightblue" points="2935.42,-23.17 2925.4,-19.72 2931.08,-28.66 2935.42,-23.17"/>
</g>
<!-- Node3 -->
<g id="node3" class="node">
<title>Node3</title>
<g id="a_node3"><a xlink:title=" ">
<polygon fill="none" stroke="#bfbfbf" points="2201.55,-112.5 2201.55,-131.5 2262.55,-131.5 2262.55,-112.5 2201.55,-112.5"/>
<text text-anchor="middle" x="2232.05" y="-119.5" font-family="Helvetica,sans-Serif" font-size="10.00">petscpf.h</text>
</a>
</g>
</g>
<!-- Node2&#45;&gt;Node3 -->
<g id="edge2" class="edge">
<title>Node2&#45;&gt;Node3</title>
<path fill="none" stroke="midnightblue" d="M2101.26,-735.88C2210.24,-732.63 2493.93,-721.52 2583.05,-692 2635.15,-674.74 2688.05,-681.88 2688.05,-627 2688.05,-627 2688.05,-627 2688.05,-513 2688.05,-293.54 2379.23,-171.16 2269.88,-134.71"/>
<polygon fill="midnightblue" stroke="midnightblue" points="2270.83,-131.34 2260.23,-131.55 2268.64,-137.99 2270.83,-131.34"/>
</g>
<!-- Node4 -->
<g id="node4" class="node">
<title>Node4</title>
<g id="a_node4"><a xlink:title=" ">
<polygon fill="none" stroke="#bfbfbf" points="1557.55,-0.5 1557.55,-19.5 1658.55,-19.5 1658.55,-0.5 1557.55,-0.5"/>
<text text-anchor="middle" x="1608.05" y="-7.5" font-family="Helvetica,sans-Serif" font-size="10.00">petscdmswarm.h</text>
</a>
</g>
</g>
<!-- Node2&#45;&gt;Node4 -->
<g id="edge3" class="edge">
<title>Node2&#45;&gt;Node4</title>
<path fill="none" stroke="midnightblue" d="M2101.38,-736.94C2235.81,-736.34 2644.28,-731.24 2770.05,-692 2823.53,-675.31 2878.05,-683.02 2878.05,-627 2878.05,-627 2878.05,-627 2878.05,-345 2878.05,-222.56 2836.94,-173.48 2731.05,-112 2638.78,-58.42 1889.04,-22.84 1668.72,-13.47"/>
<polygon fill="midnightblue" stroke="midnightblue" points="1668.77,-9.97 1658.63,-13.04 1668.48,-16.96 1668.77,-9.97"/>
</g>
<!-- Node2&#45;&gt;Node5 -->
<g id="edge4" class="edge">
<title>Node2&#45;&gt;Node5</title>
<path fill="none" stroke="midnightblue" d="M2101.22,-737.53C2242.28,-738.78 2688.27,-738.83 2823.05,-692 2870.69,-675.45 2916.05,-677.43 2916.05,-627 2916.05,-627 2916.05,-627 2916.05,-121 2916.05,-64.22 2845.58,-33.76 2800.6,-20.11"/>
<polygon fill="midnightblue" stroke="midnightblue" points="2801.46,-16.71 2790.88,-17.29 2799.51,-23.44 2801.46,-16.71"/>
</g>
<!-- Node6 -->
<g id="node6" class="node">
<title>Node6</title>
<g id="a_node6"><a xlink:title=" ">
<polygon fill="none" stroke="#bfbfbf" points="2070.05,-112.5 2070.05,-131.5 2118.05,-131.5 2118.05,-112.5 2070.05,-112.5"/>
<text text-anchor="middle" x="2094.05" y="-119.5" font-family="Helvetica,sans-Serif" font-size="10.00">time.h</text>
</a>
</g>
</g>
<!-- Node2&#45;&gt;Node6 -->
<g id="edge5" class="edge">
<title>Node2&#45;&gt;Node6</title>
<path fill="none" stroke="midnightblue" d="M2101.34,-736.89C2206.28,-736.02 2471.37,-730.02 2550.05,-692 2586,-674.63 2612.05,-666.92 2612.05,-627 2612.05,-627 2612.05,-627 2612.05,-457 2612.05,-226.12 2244.09,-147.17 2128.42,-128.05"/>
<polygon fill="midnightblue" stroke="midnightblue" points="2128.77,-124.56 2118.34,-126.43 2127.66,-131.47 2128.77,-124.56"/>
</g>
<!-- Node2&#45;&gt;Node7 -->
<g id="edge6" class="edge">
<title>Node2&#45;&gt;Node7</title>
<path fill="none" stroke="midnightblue" d="M2014.82,-737.06C1737.03,-737.29 211.9,-736.56 125.05,-692 92.86,-675.48 76.05,-663.18 76.05,-627 76.05,-627 76.05,-627 76.05,-345 76.05,-223.95 172.88,-218.15 283.05,-168 373.11,-127 492.23,-121.79 551.04,-122.03"/>
<polygon fill="midnightblue" stroke="midnightblue" points="551.26,-125.53 561.3,-122.13 551.33,-118.53 551.26,-125.53"/>
</g>
<!-- Node8 -->
<g id="node8" class="node">
<title>Node8</title>
<g id="a_node8"><a xlink:title=" ">
<polygon fill="none" stroke="#bfbfbf" points="2412.05,-112.5 2412.05,-131.5 2486.05,-131.5 2486.05,-112.5 2412.05,-112.5"/>
<text text-anchor="middle" x="2449.05" y="-119.5" font-family="Helvetica,sans-Serif" font-size="10.00">petsctime.h</text>
</a>
</g>
</g>
<!-- Node2&#45;&gt;Node8 -->
<g id="edge7" class="edge">
<title>Node2&#45;&gt;Node8</title>
<path fill="none" stroke="midnightblue" d="M2101.44,-735.76C2217.63,-732.11 2533.78,-719.84 2634.05,-692 2696.3,-674.72 2764.05,-691.6 2764.05,-627 2764.05,-627 2764.05,-627 2764.05,-401 2764.05,-253.29 2566.92,-165.3 2484.55,-134.99"/>
<polygon fill="midnightblue" stroke="midnightblue" points="2485.69,-131.68 2475.1,-131.58 2483.32,-138.26 2485.69,-131.68"/>
</g>
<!-- Node9 -->
<g id="node9" class="node">
<title>Node9</title>
<g id="a_node9"><a xlink:title=" ">
<polygon fill="none" stroke="#bfbfbf" points="1315.05,-112.5 1315.05,-131.5 1383.05,-131.5 1383.05,-112.5 1315.05,-112.5"/>
<text text-anchor="middle" x="1349.05" y="-119.5" font-family="Helvetica,sans-Serif" font-size="10.00">petscsys.h</text>
</a>
</g>
</g>
<!-- Node2&#45;&gt;Node9 -->
<g id="edge8" class="edge">
<title>Node2&#45;&gt;Node9</title>
<path fill="none" stroke="midnightblue" d="M2015.03,-730.77C1891.83,-710.48 1535.95,-634.26 1371.05,-412 1309.02,-328.4 1332.88,-191.18 1344.32,-141.6"/>
<polygon fill="midnightblue" stroke="midnightblue" points="1347.77,-142.22 1346.72,-131.68 1340.97,-140.57 1347.77,-142.22"/>
</g>
<!-- Node10 -->
<g id="node10" class="node">
<title>Node10</title>
<g id="a_node10"><a xlink:title=" ">
<polygon fill="none" stroke="#bfbfbf" points="2602.55,-112.5 2602.55,-131.5 2721.55,-131.5 2721.55,-112.5 2602.55,-112.5"/>
<text text-anchor="middle" x="2662.05" y="-119.5" font-family="Helvetica,sans-Serif" font-size="10.00">petscdmcomposite.h</text>
</a>
</g>
</g>
<!-- Node2&#45;&gt;Node10 -->
<g id="edge9" class="edge">
<title>Node2&#45;&gt;Node10</title>
<path fill="none" stroke="midnightblue" d="M2101.27,-735.99C2226.08,-732.77 2585.45,-721.13 2699.05,-692 2765.89,-674.86 2840.05,-696 2840.05,-627 2840.05,-627 2840.05,-627 2840.05,-345 2840.05,-247.08 2733.33,-167.7 2685.16,-136.86"/>
<polygon fill="midnightblue" stroke="midnightblue" points="2686.95,-133.85 2676.62,-131.5 2683.23,-139.78 2686.95,-133.85"/>
</g>
<!-- Node11 -->
<g id="node11" class="node">
<title>Node11</title>
<g id="a_node11"><a xlink:title=" ">
<polygon fill="none" stroke="#bfbfbf" points="1956.55,-112.5 1956.55,-131.5 2051.55,-131.5 2051.55,-112.5 1956.55,-112.5"/>
<text text-anchor="middle" x="2004.05" y="-119.5" font-family="Helvetica,sans-Serif" font-size="10.00">petscsystypes.h</text>
</a>
</g>
</g>
<!-- Node2&#45;&gt;Node11 -->
<g id="edge10" class="edge">
<title>Node2&#45;&gt;Node11</title>
<path fill="none" stroke="midnightblue" d="M2101.31,-736.21C2218.98,-732.91 2536.05,-715.77 2536.05,-627 2536.05,-627 2536.05,-627 2536.05,-457 2536.05,-338.32 2151.48,-180.01 2036.28,-135.25"/>
<polygon fill="midnightblue" stroke="midnightblue" points="2037.5,-131.97 2026.91,-131.63 2034.98,-138.5 2037.5,-131.97"/>
</g>
<!-- Node12 -->
<g id="node12" class="node">
<title>Node12</title>
<g id="a_node12"><a xlink:href="variables_8h.html" target="_top" xlink:title="Main header file for a complex fluid dynamics solver.">
<polygon fill="none" stroke="black" points="850.55,-56.5 850.55,-75.5 921.55,-75.5 921.55,-56.5 850.55,-56.5"/>
<text text-anchor="middle" x="886.05" y="-63.5" font-family="Helvetica,sans-Serif" font-size="10.00">variables.h</text>
</a>
</g>
</g>
<!-- Node2&#45;&gt;Node12 -->
<g id="edge11" class="edge">
<title>Node2&#45;&gt;Node12</title>
<path fill="none" stroke="midnightblue" d="M2014.7,-736.67C1729.34,-734.43 130.79,-720.63 90.05,-692 -0.78,-628.18 0.05,-570.01 0.05,-459 0.05,-459 0.05,-459 0.05,-177 0.05,-91.43 659.38,-71.63 840.5,-67.81"/>
<polygon fill="midnightblue" stroke="midnightblue" points="840.57,-71.31 850.5,-67.61 840.43,-64.31 840.57,-71.31"/>
</g>
<!-- Node20 -->
<g id="node20" class="node">
<title>Node20</title>
<g id="a_node20"><a xlink:href="ParticleSwarm_8h.html" target="_top" xlink:title="Header file for Particle Motion and migration related functions.">
<polygon fill="none" stroke="black" points="847.05,-672.5 847.05,-691.5 943.05,-691.5 943.05,-672.5 847.05,-672.5"/>
<text text-anchor="middle" x="895.05" y="-679.5" font-family="Helvetica,sans-Serif" font-size="10.00">ParticleSwarm.h</text>
</a>
</g>
</g>
<!-- Node2&#45;&gt;Node20 -->
<g id="edge21" class="edge">
<title>Node2&#45;&gt;Node20</title>
<path fill="none" stroke="midnightblue" d="M2014.93,-735C1836.74,-726.72 1157.6,-695.19 953.44,-685.71"/>
<polygon fill="midnightblue" stroke="midnightblue" points="953.38,-682.2 943.23,-685.24 953.05,-689.2 953.38,-682.2"/>
</g>
<!-- Node23 -->
<g id="node23" class="node">
<title>Node23</title>
<g id="a_node23"><a xlink:href="logging_8h.html" target="_top" xlink:title="Logging utilities and macros for PETSc&#45;based applications.">
<polygon fill="none" stroke="black" points="833.05,-560.5 833.05,-579.5 895.05,-579.5 895.05,-560.5 833.05,-560.5"/>
<text text-anchor="middle" x="864.05" y="-567.5" font-family="Helvetica,sans-Serif" font-size="10.00">logging.h</text>
</a>
</g>
</g>
<!-- Node2&#45;&gt;Node23 -->
<g id="edge141" class="edge">
<title>Node2&#45;&gt;Node23</title>
<path fill="none" stroke="midnightblue" d="M2015.04,-736.85C1803.82,-735.94 884.66,-729.8 838.05,-692 811.37,-670.37 811.85,-648.1 824.05,-616 828.39,-604.6 837.08,-594.24 845.26,-586.34"/>
<polygon fill="midnightblue" stroke="midnightblue" points="847.69,-588.86 852.79,-579.57 843.01,-583.66 847.69,-588.86"/>
</g>
<!-- Node25 -->
<g id="node25" class="node">
<title>Node25</title>
<g id="a_node25"><a xlink:href="AnalyticalSolution_8h.html" target="_top" xlink:title=" ">
<polygon fill="none" stroke="black" points="1863.05,-504.5 1863.05,-523.5 1977.05,-523.5 1977.05,-504.5 1863.05,-504.5"/>
<text text-anchor="middle" x="1920.05" y="-511.5" font-family="Helvetica,sans-Serif" font-size="10.00">AnalyticalSolution.h</text>
</a>
</g>
</g>
<!-- Node2&#45;&gt;Node25 -->
<g id="edge144" class="edge">
<title>Node2&#45;&gt;Node25</title>
<path fill="none" stroke="midnightblue" d="M2058.17,-728.44C2058.1,-707.7 2055.68,-653.71 2034.05,-616 2012.04,-577.63 1970.12,-546.28 1943.71,-529.16"/>
<polygon fill="midnightblue" stroke="midnightblue" points="1945.4,-526.09 1935.07,-523.71 1941.66,-532.01 1945.4,-526.09"/>
</g>
<!-- Node26 -->
<g id="node26" class="node">
<title>Node26</title>
<g id="a_node26"><a xlink:href="walkingsearch_8h.html" target="_top" xlink:title="Header file for particle location functions using the walking search algorithm.">
<polygon fill="none" stroke="black" points="370.05,-224.5 370.05,-243.5 466.05,-243.5 466.05,-224.5 370.05,-224.5"/>
<text text-anchor="middle" x="418.05" y="-231.5" font-family="Helvetica,sans-Serif" font-size="10.00">walkingsearch.h</text>
</a>
</g>
</g>
<!-- Node2&#45;&gt;Node26 -->
<g id="edge139" class="edge">
<title>Node2&#45;&gt;Node26</title>
<path fill="none" stroke="midnightblue" d="M2014.72,-737.23C1782.55,-738.27 683.86,-740.51 348.05,-692 241.22,-676.57 114.05,-734.94 114.05,-627 114.05,-627 114.05,-627 114.05,-569 114.05,-434.81 240.21,-457.45 328.05,-356 358.61,-320.7 390.27,-275.87 406.66,-251.91"/>
<polygon fill="midnightblue" stroke="midnightblue" points="409.62,-253.78 412.35,-243.54 403.83,-249.85 409.62,-253.78"/>
</g>
<!-- Node28 -->
<g id="node28" class="node">
<title>Node28</title>
<g id="a_node28"><a xlink:href="grid_8h.html" target="_top" xlink:title="Public interface for grid, solver, and metric setup routines.">
<polygon fill="none" stroke="black" points="1194.05,-112.5 1194.05,-131.5 1238.05,-131.5 1238.05,-112.5 1194.05,-112.5"/>
<text text-anchor="middle" x="1216.05" y="-119.5" font-family="Helvetica,sans-Serif" font-size="10.00">grid.h</text>
</a>
</g>
</g>
<!-- Node2&#45;&gt;Node28 -->
<g id="edge140" class="edge">
<title>Node2&#45;&gt;Node28</title>
<path fill="none" stroke="midnightblue" d="M2014.9,-737.13C1823.97,-737.44 1054.08,-735.9 817.05,-692 666,-664.03 590.04,-696.62 490.05,-580 358.18,-426.19 512.09,-475.35 1123.05,-168 1145.02,-156.95 1170.13,-144.83 1188.72,-135.95"/>
<polygon fill="midnightblue" stroke="midnightblue" points="1190.27,-139.09 1197.79,-131.63 1187.26,-132.77 1190.27,-139.09"/>
</g>
<!-- Node29 -->
<g id="node29" class="node">
<title>Node29</title>
<g id="a_node29"><a xlink:href="io_8h.html" target="_top" xlink:title="Public interface for data input/output routines.">
<polygon fill="none" stroke="black" points="1112.55,-392.5 1112.55,-411.5 1147.55,-411.5 1147.55,-392.5 1112.55,-392.5"/>
<text text-anchor="middle" x="1130.05" y="-399.5" font-family="Helvetica,sans-Serif" font-size="10.00">io.h</text>
</a>
</g>
</g>
<!-- Node2&#45;&gt;Node29 -->
<g id="edge142" class="edge">
<title>Node2&#45;&gt;Node29</title>
<path fill="none" stroke="midnightblue" d="M2015.02,-735.58C1850.16,-729.6 1268.05,-703.08 1268.05,-627 1268.05,-627 1268.05,-627 1268.05,-569 1268.05,-498.57 1193.68,-442.08 1154.13,-417.03"/>
<polygon fill="midnightblue" stroke="midnightblue" points="1155.7,-413.88 1145.35,-411.62 1152.03,-419.84 1155.7,-413.88"/>
</g>
<!-- Node30 -->
<g id="node30" class="node">
<title>Node30</title>
<g id="a_node30"><a xlink:href="Boundaries_8h.html" target="_top" xlink:title=" ">
<polygon fill="none" stroke="black" points="1548.05,-336.5 1548.05,-355.5 1628.05,-355.5 1628.05,-336.5 1548.05,-336.5"/>
<text text-anchor="middle" x="1588.05" y="-343.5" font-family="Helvetica,sans-Serif" font-size="10.00">Boundaries.h</text>
</a>
</g>
</g>
<!-- Node2&#45;&gt;Node30 -->
<g id="edge146" class="edge">
<title>Node2&#45;&gt;Node30</title>
<path fill="none" stroke="midnightblue" d="M2063.3,-728.5C2078.85,-711.44 2119.05,-670.91 2119.05,-627 2119.05,-627 2119.05,-627 2119.05,-569 2119.05,-464.78 1770.6,-384.75 1638.18,-357.29"/>
<polygon fill="midnightblue" stroke="midnightblue" points="1638.78,-353.84 1628.28,-355.25 1637.37,-360.7 1638.78,-353.84"/>
</g>
<!-- Node31 -->
<g id="node31" class="node">
<title>Node31</title>
<g id="a_node31"><a xlink:href="interpolation_8h.html" target="_top" xlink:title=" ">
<polygon fill="none" stroke="black" points="1662.05,-448.5 1662.05,-467.5 1750.05,-467.5 1750.05,-448.5 1662.05,-448.5"/>
<text text-anchor="middle" x="1706.05" y="-455.5" font-family="Helvetica,sans-Serif" font-size="10.00">interpolation.h</text>
</a>
</g>
</g>
<!-- Node2&#45;&gt;Node31 -->
<g id="edge143" class="edge">
<title>Node2&#45;&gt;Node31</title>
<path fill="none" stroke="midnightblue" d="M2047.13,-728.38C1997.04,-688.81 1788.94,-524.46 1724.89,-473.88"/>
<polygon fill="midnightblue" stroke="midnightblue" points="1726.86,-470.98 1716.85,-467.52 1722.52,-476.47 1726.86,-470.98"/>
</g>
<!-- Node33 -->
<g id="node33" class="node">
<title>Node33</title>
<g id="a_node33"><a xlink:href="ParticleMotion_8h.html" target="_top" xlink:title=" ">
<polygon fill="none" stroke="black" points="598.05,-280.5 598.05,-299.5 694.05,-299.5 694.05,-280.5 598.05,-280.5"/>
<text text-anchor="middle" x="646.05" y="-287.5" font-family="Helvetica,sans-Serif" font-size="10.00">ParticleMotion.h</text>
</a>
</g>
</g>
<!-- Node2&#45;&gt;Node33 -->
<g id="edge145" class="edge">
<title>Node2&#45;&gt;Node33</title>
<path fill="none" stroke="midnightblue" d="M2014.92,-736.68C1753.9,-734.62 395.7,-722.44 366.05,-692 301.16,-625.36 352.26,-496.52 442.05,-392 483.68,-343.55 554.07,-316.01 600.3,-302.3"/>
<polygon fill="midnightblue" stroke="midnightblue" points="601.42,-305.62 610.07,-299.5 599.49,-298.89 601.42,-305.62"/>
</g>
<!-- Node12&#45;&gt;Node4 -->
<g id="edge16" class="edge">
<title>Node12&#45;&gt;Node4</title>
<path fill="none" stroke="midnightblue" d="M921.76,-58.07C926.55,-57.29 931.41,-56.57 936.05,-56 1160.23,-28.4 1428.71,-16.83 1547,-12.81"/>
<polygon fill="midnightblue" stroke="midnightblue" points="1547.41,-16.3 1557.29,-12.47 1547.18,-9.31 1547.41,-16.3"/>
</g>
<!-- Node12&#45;&gt;Node5 -->
<g id="edge18" class="edge">
<title>Node12&#45;&gt;Node5</title>
<path fill="none" stroke="midnightblue" d="M921.89,-63.97C1157.99,-57.18 2488.05,-18.94 2727.21,-12.06"/>
<polygon fill="midnightblue" stroke="midnightblue" points="2727.57,-15.55 2737.46,-11.76 2727.36,-8.55 2727.57,-15.55"/>
</g>
<!-- Node13 -->
<g id="node13" class="node">
<title>Node13</title>
<g id="a_node13"><a xlink:title=" ">
<polygon fill="none" stroke="#bfbfbf" points="851.55,-0.5 851.55,-19.5 920.55,-19.5 920.55,-0.5 851.55,-0.5"/>
<text text-anchor="middle" x="886.05" y="-7.5" font-family="Helvetica,sans-Serif" font-size="10.00">petscvec.h</text>
</a>
</g>
</g>
<!-- Node12&#45;&gt;Node13 -->
<g id="edge12" class="edge">
<title>Node12&#45;&gt;Node13</title>
<path fill="none" stroke="midnightblue" d="M886.05,-56.08C886.05,-49.01 886.05,-38.86 886.05,-29.99"/>
<polygon fill="midnightblue" stroke="midnightblue" points="889.55,-29.75 886.05,-19.75 882.55,-29.75 889.55,-29.75"/>
</g>
<!-- Node14 -->
<g id="node14" class="node">
<title>Node14</title>
<g id="a_node14"><a xlink:title=" ">
<polygon fill="none" stroke="#bfbfbf" points="939.05,-0.5 939.05,-19.5 1019.05,-19.5 1019.05,-0.5 939.05,-0.5"/>
<text text-anchor="middle" x="979.05" y="-7.5" font-family="Helvetica,sans-Serif" font-size="10.00">petscdmda.h</text>
</a>
</g>
</g>
<!-- Node12&#45;&gt;Node14 -->
<g id="edge13" class="edge">
<title>Node12&#45;&gt;Node14</title>
<path fill="none" stroke="midnightblue" d="M900.99,-56.32C915.64,-47.82 938.19,-34.73 955.29,-24.8"/>
<polygon fill="midnightblue" stroke="midnightblue" points="957.26,-27.7 964.15,-19.65 953.74,-21.65 957.26,-27.7"/>
</g>
<!-- Node15 -->
<g id="node15" class="node">
<title>Node15</title>
<g id="a_node15"><a xlink:title=" ">
<polygon fill="none" stroke="#bfbfbf" points="1037.55,-0.5 1037.55,-19.5 1106.55,-19.5 1106.55,-0.5 1037.55,-0.5"/>
<text text-anchor="middle" x="1072.05" y="-7.5" font-family="Helvetica,sans-Serif" font-size="10.00">petscksp.h</text>
</a>
</g>
</g>
<!-- Node12&#45;&gt;Node15 -->
<g id="edge14" class="edge">
<title>Node12&#45;&gt;Node15</title>
<path fill="none" stroke="midnightblue" d="M915.52,-56.44C947.22,-47.24 997.78,-32.56 1032.83,-22.39"/>
<polygon fill="midnightblue" stroke="midnightblue" points="1034.09,-25.67 1042.72,-19.52 1032.14,-18.94 1034.09,-25.67"/>
</g>
<!-- Node16 -->
<g id="node16" class="node">
<title>Node16</title>
<g id="a_node16"><a xlink:title=" ">
<polygon fill="none" stroke="#bfbfbf" points="685.05,-0.5 685.05,-19.5 759.05,-19.5 759.05,-0.5 685.05,-0.5"/>
<text text-anchor="middle" x="722.05" y="-7.5" font-family="Helvetica,sans-Serif" font-size="10.00">petscsnes.h</text>
</a>
</g>
</g>
<!-- Node12&#45;&gt;Node16 -->
<g id="edge15" class="edge">
<title>Node12&#45;&gt;Node16</title>
<path fill="none" stroke="midnightblue" d="M860.07,-56.44C832.36,-47.32 788.3,-32.81 757.44,-22.65"/>
<polygon fill="midnightblue" stroke="midnightblue" points="758.51,-19.32 747.92,-19.52 756.32,-25.97 758.51,-19.32"/>
</g>
<!-- Node12&#45;&gt;Node17 -->
<g id="edge17" class="edge">
<title>Node12&#45;&gt;Node17</title>
<path fill="none" stroke="midnightblue" d="M921.62,-64.91C1113.24,-64.24 2041.98,-59.07 2800.05,-20 2826.18,-18.65 2855.65,-16.28 2877.94,-14.31"/>
<polygon fill="midnightblue" stroke="midnightblue" points="2878.3,-17.79 2887.95,-13.4 2877.67,-10.82 2878.3,-17.79"/>
</g>
<!-- Node18 -->
<g id="node18" class="node">
<title>Node18</title>
<g id="a_node18"><a xlink:title=" ">
<polygon fill="none" stroke="#bfbfbf" points="331.55,-0.5 331.55,-19.5 384.55,-19.5 384.55,-0.5 331.55,-0.5"/>
<text text-anchor="middle" x="358.05" y="-7.5" font-family="Helvetica,sans-Serif" font-size="10.00">string.h</text>
</a>
</g>
</g>
<!-- Node12&#45;&gt;Node18 -->
<g id="edge19" class="edge">
<title>Node12&#45;&gt;Node18</title>
<path fill="none" stroke="midnightblue" d="M850.18,-61.33C754.2,-51.52 492.26,-24.73 395.03,-14.78"/>
<polygon fill="midnightblue" stroke="midnightblue" points="395.11,-11.27 384.81,-13.74 394.4,-18.24 395.11,-11.27"/>
</g>
<!-- Node19 -->
<g id="node19" class="node">
<title>Node19</title>
<g id="a_node19"><a xlink:title=" ">
<polygon fill="none" stroke="#bfbfbf" points="777.05,-0.5 777.05,-19.5 833.05,-19.5 833.05,-0.5 777.05,-0.5"/>
<text text-anchor="middle" x="805.05" y="-7.5" font-family="Helvetica,sans-Serif" font-size="10.00">unistd.h</text>
</a>
</g>
</g>
<!-- Node12&#45;&gt;Node19 -->
<g id="edge20" class="edge">
<title>Node12&#45;&gt;Node19</title>
<path fill="none" stroke="midnightblue" d="M873.04,-56.32C860.52,-47.98 841.37,-35.21 826.58,-25.35"/>
<polygon fill="midnightblue" stroke="midnightblue" points="828.3,-22.29 818.03,-19.65 824.41,-28.11 828.3,-22.29"/>
</g>
<!-- Node20&#45;&gt;Node4 -->
<g id="edge23" class="edge">
<title>Node20&#45;&gt;Node4</title>
<path fill="none" stroke="midnightblue" d="M897.09,-672.16C910.27,-615.51 984.61,-303.3 1040.05,-224 1157.91,-55.43 1426.54,-20.09 1547.29,-12.81"/>
<polygon fill="midnightblue" stroke="midnightblue" points="1547.67,-16.3 1557.46,-12.25 1547.28,-9.31 1547.67,-16.3"/>
</g>
<!-- Node20&#45;&gt;Node7 -->
<g id="edge25" class="edge">
<title>Node20&#45;&gt;Node7</title>
<path fill="none" stroke="midnightblue" d="M846.8,-680.57C753.99,-678.93 554.64,-671.29 497.05,-636 369.88,-558.07 373.82,-491.77 312.05,-356 277.44,-279.92 240.4,-218.43 307.05,-168 344.88,-139.38 484.4,-128.35 551.09,-124.64"/>
<polygon fill="midnightblue" stroke="midnightblue" points="551.34,-128.14 561.14,-124.11 550.97,-121.15 551.34,-128.14"/>
</g>
<!-- Node20&#45;&gt;Node12 -->
<g id="edge26" class="edge">
<title>Node20&#45;&gt;Node12</title>
<path fill="none" stroke="midnightblue" d="M846.86,-679.28C732.13,-674.8 445.47,-661.38 353.05,-636 298.23,-620.95 280.79,-617.49 238.05,-580 197.34,-544.29 195.3,-521.9 190.05,-468 173.18,-294.61 193.98,-180.72 354.05,-112 441,-74.67 727.63,-68.26 840.14,-67.2"/>
<polygon fill="midnightblue" stroke="midnightblue" points="840.51,-70.69 850.48,-67.11 840.45,-63.69 840.51,-70.69"/>
</g>
<!-- Node21 -->
<g id="node21" class="node">
<title>Node21</title>
<g id="a_node21"><a xlink:title=" ">
<polygon fill="none" stroke="#bfbfbf" points="316.05,-168.5 316.05,-187.5 368.05,-187.5 368.05,-168.5 316.05,-168.5"/>
<text text-anchor="middle" x="342.05" y="-175.5" font-family="Helvetica,sans-Serif" font-size="10.00">petsc.h</text>
</a>
</g>
</g>
<!-- Node20&#45;&gt;Node21 -->
<g id="edge22" class="edge">
<title>Node20&#45;&gt;Node21</title>
<path fill="none" stroke="midnightblue" d="M846.72,-681.79C762.74,-681.93 585.13,-676.8 442.05,-636 333.48,-605.04 273.74,-619.83 214.05,-524 142.06,-408.43 278.67,-246.16 326.43,-195.06"/>
<polygon fill="midnightblue" stroke="midnightblue" points="329.18,-197.25 333.53,-187.58 324.11,-192.42 329.18,-197.25"/>
</g>
<!-- Node22 -->
<g id="node22" class="node">
<title>Node22</title>
<g id="a_node22"><a xlink:title=" ">
<polygon fill="none" stroke="#bfbfbf" points="615.05,-168.5 615.05,-187.5 677.05,-187.5 677.05,-168.5 615.05,-168.5"/>
<text text-anchor="middle" x="646.05" y="-175.5" font-family="Helvetica,sans-Serif" font-size="10.00">stdbool.h</text>
</a>
</g>
</g>
<!-- Node20&#45;&gt;Node22 -->
<g id="edge24" class="edge">
<title>Node20&#45;&gt;Node22</title>
<path fill="none" stroke="midnightblue" d="M846.96,-678.62C762.34,-671.38 592.34,-642.11 556.05,-524 553.44,-515.5 553.32,-512.46 556.05,-504 590.38,-397.65 668.73,-406.35 703.05,-300 715.69,-260.83 683.51,-217.9 662.51,-195.19"/>
<polygon fill="midnightblue" stroke="midnightblue" points="664.84,-192.56 655.38,-187.78 659.79,-197.42 664.84,-192.56"/>
</g>
<!-- Node20&#45;&gt;Node23 -->
<g id="edge27" class="edge">
<title>Node20&#45;&gt;Node23</title>
<path fill="none" stroke="midnightblue" d="M873.24,-672.45C858.11,-665.22 839.1,-653.26 830.05,-636 821.34,-619.37 833.93,-600.34 846.19,-587.19"/>
<polygon fill="midnightblue" stroke="midnightblue" points="848.96,-589.37 853.58,-579.83 844.02,-584.41 848.96,-589.37"/>
</g>
<!-- Node20&#45;&gt;Node26 -->
<g id="edge130" class="edge">
<title>Node20&#45;&gt;Node26</title>
<path fill="none" stroke="midnightblue" d="M846.87,-681.32C756.91,-680.97 567.99,-675.4 518.05,-636 493.87,-616.93 494.05,-601.8 494.05,-571 494.05,-571 494.05,-571 494.05,-401 494.05,-396.97 446.15,-294.71 426.4,-252.73"/>
<polygon fill="midnightblue" stroke="midnightblue" points="429.56,-251.22 422.14,-243.67 423.23,-254.2 429.56,-251.22"/>
</g>
<!-- Node20&#45;&gt;Node29 -->
<g id="edge138" class="edge">
<title>Node20&#45;&gt;Node29</title>
<path fill="none" stroke="midnightblue" d="M910.26,-672.38C947.02,-650.99 1042.2,-592.27 1104.05,-524 1123.6,-502.42 1130.21,-496.04 1138.05,-468 1142.36,-452.6 1139.52,-434.51 1136.09,-421.32"/>
<polygon fill="midnightblue" stroke="midnightblue" points="1139.4,-420.17 1133.21,-411.57 1132.68,-422.16 1139.4,-420.17"/>
</g>
<!-- Node35 -->
<g id="node35" class="node">
<title>Node35</title>
<g id="a_node35"><a xlink:href="Metric_8h.html" target="_top" xlink:title=" ">
<polygon fill="none" stroke="black" points="839.05,-616.5 839.05,-635.5 895.05,-635.5 895.05,-616.5 839.05,-616.5"/>
<text text-anchor="middle" x="867.05" y="-623.5" font-family="Helvetica,sans-Serif" font-size="10.00">Metric.h</text>
</a>
</g>
</g>
<!-- Node20&#45;&gt;Node35 -->
<g id="edge131" class="edge">
<title>Node20&#45;&gt;Node35</title>
<path fill="none" stroke="midnightblue" d="M890.43,-672.08C886.6,-664.69 881.03,-653.95 876.29,-644.81"/>
<polygon fill="midnightblue" stroke="midnightblue" points="879.3,-643.02 871.59,-635.75 873.09,-646.24 879.3,-643.02"/>
</g>
<!-- Node23&#45;&gt;Node5 -->
<g id="edge29" class="edge">
<title>Node23&#45;&gt;Node5</title>
<path fill="none" stroke="midnightblue" d="M895.28,-568.57C1053.41,-566.27 1766.75,-554.34 1986.05,-524 2091.98,-509.34 2119.84,-505.33 2220.05,-468 2315.21,-432.55 2574.05,-280.55 2574.05,-179 2574.05,-179 2574.05,-179 2574.05,-121 2574.05,-51 2671.85,-24.82 2727.11,-15.62"/>
<polygon fill="midnightblue" stroke="midnightblue" points="2727.89,-19.04 2737.23,-14.04 2726.81,-12.12 2727.89,-19.04"/>
</g>
<!-- Node23&#45;&gt;Node9 -->
<g id="edge31" class="edge">
<title>Node23&#45;&gt;Node9</title>
<path fill="none" stroke="midnightblue" d="M868.47,-560.16C875.13,-547.23 888.49,-522.69 903.05,-504 989.38,-393.18 1018.66,-370.56 1126.05,-280 1195.21,-221.69 1285.34,-162.97 1326.63,-136.93"/>
<polygon fill="midnightblue" stroke="midnightblue" points="1328.52,-139.88 1335.13,-131.6 1324.8,-133.95 1328.52,-139.88"/>
</g>
<!-- Node23&#45;&gt;Node12 -->
<g id="edge33" class="edge">
<title>Node23&#45;&gt;Node12</title>
<path fill="none" stroke="midnightblue" d="M832.77,-567.7C737.46,-561.87 449.71,-529.96 328.05,-356 279.87,-287.1 258.21,-236.43 307.05,-168 368.89,-81.36 714.5,-68.86 840.28,-67.2"/>
<polygon fill="midnightblue" stroke="midnightblue" points="840.39,-70.69 850.35,-67.08 840.31,-63.7 840.39,-70.69"/>
</g>
<!-- Node23&#45;&gt;Node18 -->
<g id="edge30" class="edge">
<title>Node23&#45;&gt;Node18</title>
<path fill="none" stroke="midnightblue" d="M832.66,-568.49C772.24,-566.71 636.17,-558.82 528.05,-524 440.87,-495.92 418.71,-477.86 355.05,-412 290.81,-345.53 247.34,-314.53 266.05,-224 281.94,-147.17 326.91,-63.95 347.51,-28.54"/>
<polygon fill="midnightblue" stroke="midnightblue" points="350.77,-29.89 352.84,-19.5 344.75,-26.33 350.77,-29.89"/>
</g>
<!-- Node23&#45;&gt;Node21 -->
<g id="edge28" class="edge">
<title>Node23&#45;&gt;Node21</title>
<path fill="none" stroke="midnightblue" d="M832.79,-564.94C797.51,-559.42 739.16,-547.43 694.05,-524 522.44,-434.89 466.7,-405.95 361.05,-244 351.92,-230 347.07,-211.5 344.56,-197.82"/>
<polygon fill="midnightblue" stroke="midnightblue" points="347.98,-197 342.97,-187.66 341.06,-198.08 347.98,-197"/>
</g>
<!-- Node24 -->
<g id="node24" class="node">
<title>Node24</title>
<g id="a_node24"><a xlink:title=" ">
<polygon fill="none" stroke="#bfbfbf" points="750.55,-504.5 750.55,-523.5 803.55,-523.5 803.55,-504.5 750.55,-504.5"/>
<text text-anchor="middle" x="777.05" y="-511.5" font-family="Helvetica,sans-Serif" font-size="10.00">ctype.h</text>
</a>
</g>
</g>
<!-- Node23&#45;&gt;Node24 -->
<g id="edge32" class="edge">
<title>Node23&#45;&gt;Node24</title>
<path fill="none" stroke="midnightblue" d="M850.07,-560.32C836.5,-551.9 815.67,-538.97 799.73,-529.07"/>
<polygon fill="midnightblue" stroke="midnightblue" points="801.34,-525.95 791,-523.65 797.65,-531.9 801.34,-525.95"/>
</g>
<!-- Node23&#45;&gt;Node25 -->
<g id="edge34" class="edge">
<title>Node23&#45;&gt;Node25</title>
<path fill="none" stroke="midnightblue" d="M895.12,-567.28C1039.83,-559.61 1648.54,-528.47 1852.89,-518.26"/>
<polygon fill="midnightblue" stroke="midnightblue" points="1853.07,-521.75 1862.89,-517.76 1852.73,-514.76 1853.07,-521.75"/>
</g>
<!-- Node23&#45;&gt;Node30 -->
<g id="edge129" class="edge">
<title>Node23&#45;&gt;Node30</title>
<path fill="none" stroke="midnightblue" d="M895.1,-562.21C921.87,-555.82 960.32,-544.14 989.05,-524 1050.44,-480.97 1028.11,-427.65 1094.05,-392 1169.18,-351.38 1427.68,-346.85 1537.84,-346.74"/>
<polygon fill="midnightblue" stroke="midnightblue" points="1538.03,-350.24 1548.03,-346.74 1538.03,-343.24 1538.03,-350.24"/>
</g>
<!-- Node25&#45;&gt;Node3 -->
<g id="edge35" class="edge">
<title>Node25&#45;&gt;Node3</title>
<path fill="none" stroke="midnightblue" d="M1977.24,-507.95C2038.29,-501.58 2130.05,-488.84 2158.05,-468 2263.07,-389.82 2244.31,-201.71 2235.26,-141.72"/>
<polygon fill="midnightblue" stroke="midnightblue" points="2238.7,-141.1 2233.66,-131.78 2231.79,-142.21 2238.7,-141.1"/>
</g>
<!-- Node25&#45;&gt;Node4 -->
<g id="edge36" class="edge">
<title>Node25&#45;&gt;Node4</title>
<path fill="none" stroke="midnightblue" d="M1931.39,-504.31C1988.82,-459.31 2240.41,-249.55 2127.05,-112 2069.56,-42.24 1793.31,-20.04 1668.95,-13.51"/>
<polygon fill="midnightblue" stroke="midnightblue" points="1669,-10 1658.83,-12.99 1668.64,-17 1669,-10"/>
</g>
<!-- Node25&#45;&gt;Node5 -->
<g id="edge37" class="edge">
<title>Node25&#45;&gt;Node5</title>
<path fill="none" stroke="midnightblue" d="M1977.18,-511.34C2072.91,-506.44 2269.54,-487.21 2415.05,-412 2563.19,-335.43 2613.95,-319.84 2716.05,-188 2749.66,-144.61 2759.12,-130.15 2768.05,-76 2770.59,-60.64 2769.24,-43 2767.45,-29.98"/>
<polygon fill="midnightblue" stroke="midnightblue" points="2770.87,-29.22 2765.85,-19.9 2763.96,-30.32 2770.87,-29.22"/>
</g>
<!-- Node25&#45;&gt;Node6 -->
<g id="edge38" class="edge">
<title>Node25&#45;&gt;Node6</title>
<path fill="none" stroke="midnightblue" d="M1977.1,-505.77C2030.98,-498.09 2107.15,-484.74 2132.05,-468 2157.01,-451.22 2161.22,-440.75 2170.05,-412 2201.42,-309.89 2133.17,-185.09 2105.25,-140.15"/>
<polygon fill="midnightblue" stroke="midnightblue" points="2108.13,-138.15 2099.81,-131.58 2102.22,-141.9 2108.13,-138.15"/>
</g>
<!-- Node25&#45;&gt;Node7 -->
<g id="edge39" class="edge">
<title>Node25&#45;&gt;Node7</title>
<path fill="none" stroke="midnightblue" d="M1862.88,-511.58C1721.4,-507.67 1357.92,-495.23 1240.05,-468 1050.93,-424.31 701.05,-175.77 686.05,-168 663.25,-156.19 636.73,-144.22 616.88,-135.6"/>
<polygon fill="midnightblue" stroke="midnightblue" points="618.01,-132.28 607.44,-131.54 615.24,-138.71 618.01,-132.28"/>
</g>
<!-- Node25&#45;&gt;Node8 -->
<g id="edge40" class="edge">
<title>Node25&#45;&gt;Node8</title>
<path fill="none" stroke="midnightblue" d="M1977.11,-506.21C2042.91,-497.86 2146.69,-482.95 2183.05,-468 2303.47,-418.49 2335.3,-396.19 2423.05,-300 2458.88,-260.73 2460.36,-240.96 2465.05,-188 2465.84,-179.15 2466.56,-176.76 2465.05,-168 2463.48,-158.91 2460.26,-149.22 2457.11,-141.17"/>
<polygon fill="midnightblue" stroke="midnightblue" points="2460.25,-139.6 2453.16,-131.72 2453.79,-142.3 2460.25,-139.6"/>
</g>
<!-- Node25&#45;&gt;Node10 -->
<g id="edge41" class="edge">
<title>Node25&#45;&gt;Node10</title>
<path fill="none" stroke="midnightblue" d="M1977.11,-510.7C2038.59,-506.79 2138.58,-496.27 2220.05,-468 2408.17,-402.72 2472.53,-389.89 2608.05,-244 2635.87,-214.05 2651.09,-167.38 2657.8,-141.63"/>
<polygon fill="midnightblue" stroke="midnightblue" points="2661.25,-142.24 2660.23,-131.69 2654.45,-140.57 2661.25,-142.24"/>
</g>
<!-- Node25&#45;&gt;Node12 -->
<g id="edge42" class="edge">
<title>Node25&#45;&gt;Node12</title>
<path fill="none" stroke="midnightblue" d="M1862.92,-512.4C1735.13,-508.65 1420.16,-485.86 1200.05,-356 1065.79,-276.79 940.12,-132.56 899.61,-83.7"/>
<polygon fill="midnightblue" stroke="midnightblue" points="902.11,-81.23 893.05,-75.72 896.7,-85.67 902.11,-81.23"/>
</g>
<!-- Node25&#45;&gt;Node20 -->
<g id="edge43" class="edge">
<title>Node25&#45;&gt;Node20</title>
<path fill="none" stroke="midnightblue" d="M1894.67,-523.65C1826.95,-546.33 1636,-607.72 1472.05,-636 1284.24,-668.4 1057.97,-677.49 953.34,-680.03"/>
<polygon fill="midnightblue" stroke="midnightblue" points="953.22,-676.53 943.3,-680.26 953.38,-683.53 953.22,-676.53"/>
</g>
<!-- Node25&#45;&gt;Node23 -->
<g id="edge125" class="edge">
<title>Node25&#45;&gt;Node23</title>
<path fill="none" stroke="midnightblue" d="M1863.05,-518.09C1673.78,-528.01 1069.42,-558.9 905.4,-567.03"/>
<polygon fill="midnightblue" stroke="midnightblue" points="905.06,-563.54 895.25,-567.53 905.41,-570.53 905.06,-563.54"/>
</g>
<!-- Node25&#45;&gt;Node26 -->
<g id="edge44" class="edge">
<title>Node25&#45;&gt;Node26</title>
<path fill="none" stroke="midnightblue" d="M1862.87,-511.79C1697.09,-508.01 1218.24,-494.98 1064.05,-468 864.62,-433.1 821.9,-394.42 628.05,-336 574.74,-319.93 557.98,-324.64 508.05,-300 480.72,-286.51 452.82,-264.89 435.47,-250.32"/>
<polygon fill="midnightblue" stroke="midnightblue" points="437.73,-247.65 427.86,-243.81 433.18,-252.97 437.73,-247.65"/>
</g>
<!-- Node27 -->
<g id="node27" class="node">
<title>Node27</title>
<g id="a_node27"><a xlink:href="setup_8h.html" target="_top" xlink:title=" ">
<polygon fill="none" stroke="black" points="1696.55,-168.5 1696.55,-187.5 1749.55,-187.5 1749.55,-168.5 1696.55,-168.5"/>
<text text-anchor="middle" x="1723.05" y="-175.5" font-family="Helvetica,sans-Serif" font-size="10.00">setup.h</text>
</a>
</g>
</g>
<!-- Node25&#45;&gt;Node27 -->
<g id="edge127" class="edge">
<title>Node25&#45;&gt;Node27</title>
<path fill="none" stroke="midnightblue" d="M1920.36,-504.43C1928.55,-464.38 1982.26,-294.76 1894.05,-224 1855.12,-192.77 1797.38,-182.86 1759.86,-179.9"/>
<polygon fill="midnightblue" stroke="midnightblue" points="1760.05,-176.41 1749.84,-179.24 1759.59,-183.39 1760.05,-176.41"/>
</g>
<!-- Node25&#45;&gt;Node28 -->
<g id="edge124" class="edge">
<title>Node25&#45;&gt;Node28</title>
<path fill="none" stroke="midnightblue" d="M1863.01,-506.77C1745.24,-493.13 1479.76,-458.13 1402.05,-412 1294.28,-348.02 1238.14,-194.46 1221.46,-141.4"/>
<polygon fill="midnightblue" stroke="midnightblue" points="1224.76,-140.22 1218.5,-131.67 1218.06,-142.26 1224.76,-140.22"/>
</g>
<!-- Node25&#45;&gt;Node29 -->
<g id="edge126" class="edge">
<title>Node25&#45;&gt;Node29</title>
<path fill="none" stroke="midnightblue" d="M1862.85,-511.26C1729.19,-506.81 1399.6,-493.54 1292.05,-468 1269.57,-462.66 1265.47,-456.69 1244.05,-448 1214.51,-436.02 1180.5,-422.65 1157.37,-413.62"/>
<polygon fill="midnightblue" stroke="midnightblue" points="1158.45,-410.28 1147.86,-409.91 1155.91,-416.8 1158.45,-410.28"/>
</g>
<!-- Node25&#45;&gt;Node31 -->
<g id="edge128" class="edge">
<title>Node25&#45;&gt;Node31</title>
<path fill="none" stroke="midnightblue" d="M1886.14,-504.44C1849.2,-495.12 1790,-480.18 1749.63,-470"/>
<polygon fill="midnightblue" stroke="midnightblue" points="1750.35,-466.57 1739.8,-467.52 1748.64,-473.36 1750.35,-466.57"/>
</g>
<!-- Node26&#45;&gt;Node7 -->
<g id="edge47" class="edge">
<title>Node26&#45;&gt;Node7</title>
<path fill="none" stroke="midnightblue" d="M431.31,-224.37C460.31,-205.49 529.61,-160.38 565.18,-137.24"/>
<polygon fill="midnightblue" stroke="midnightblue" points="567.38,-139.98 573.85,-131.59 563.56,-134.11 567.38,-139.98"/>
</g>
<!-- Node26&#45;&gt;Node12 -->
<g id="edge48" class="edge">
<title>Node26&#45;&gt;Node12</title>
<path fill="none" stroke="midnightblue" d="M420.77,-224.4C428.49,-201.57 452.88,-139.31 497.05,-112 553.51,-77.09 750.16,-69.26 840.29,-67.5"/>
<polygon fill="midnightblue" stroke="midnightblue" points="840.55,-71 850.48,-67.32 840.42,-64 840.55,-71"/>
</g>
<!-- Node26&#45;&gt;Node21 -->
<g id="edge45" class="edge">
<title>Node26&#45;&gt;Node21</title>
<path fill="none" stroke="midnightblue" d="M405.84,-224.32C394.28,-216.11 376.68,-203.6 362.89,-193.81"/>
<polygon fill="midnightblue" stroke="midnightblue" points="364.66,-190.77 354.48,-187.83 360.61,-196.48 364.66,-190.77"/>
</g>
<!-- Node26&#45;&gt;Node22 -->
<g id="edge46" class="edge">
<title>Node26&#45;&gt;Node22</title>
<path fill="none" stroke="midnightblue" d="M454.18,-224.44C495.21,-214.72 562.04,-198.9 605.01,-188.72"/>
<polygon fill="midnightblue" stroke="midnightblue" points="605.93,-192.1 614.86,-186.39 604.32,-185.29 605.93,-192.1"/>
</g>
<!-- Node26&#45;&gt;Node23 -->
<g id="edge49" class="edge">
<title>Node26&#45;&gt;Node23</title>
<path fill="none" stroke="midnightblue" d="M423.92,-243.62C433.07,-256.69 451.69,-281.91 471.05,-300 522.78,-348.32 547.76,-345.42 601.05,-392 661.43,-444.77 656.36,-481.01 724.05,-524 754.41,-543.28 793.76,-554.97 823.01,-561.58"/>
<polygon fill="midnightblue" stroke="midnightblue" points="822.39,-565.03 832.9,-563.72 823.86,-558.19 822.39,-565.03"/>
</g>
<!-- Node26&#45;&gt;Node27 -->
<g id="edge50" class="edge">
<title>Node26&#45;&gt;Node27</title>
<path fill="none" stroke="midnightblue" d="M466.38,-230.88C675.73,-222 1501.48,-187.84 1686.28,-180.42"/>
<polygon fill="midnightblue" stroke="midnightblue" points="1686.45,-183.92 1696.3,-180.02 1686.17,-176.93 1686.45,-183.92"/>
</g>
<!-- Node27&#45;&gt;Node3 -->
<g id="edge51" class="edge">
<title>Node27&#45;&gt;Node3</title>
<path fill="none" stroke="midnightblue" d="M1749.7,-174.17C1833.27,-165.31 2090.59,-138.01 2191.16,-127.34"/>
<polygon fill="midnightblue" stroke="midnightblue" points="2191.66,-130.8 2201.24,-126.27 2190.92,-123.84 2191.66,-130.8"/>
</g>
<!-- Node27&#45;&gt;Node4 -->
<g id="edge52" class="edge">
<title>Node27&#45;&gt;Node4</title>
<path fill="none" stroke="midnightblue" d="M1717.52,-168.38C1704.64,-148.38 1671.51,-97.4 1642.05,-56 1635.23,-46.41 1627.31,-35.9 1620.84,-27.45"/>
<polygon fill="midnightblue" stroke="midnightblue" points="1623.6,-25.3 1614.72,-19.52 1618.05,-29.57 1623.6,-25.3"/>
</g>
<!-- Node27&#45;&gt;Node5 -->
<g id="edge53" class="edge">
<title>Node27&#45;&gt;Node5</title>
<path fill="none" stroke="midnightblue" d="M1747.93,-168.44C1788.95,-154.63 1873.54,-127.44 1947.05,-112 2244.43,-49.54 2611.39,-21.16 2727.23,-13.34"/>
<polygon fill="midnightblue" stroke="midnightblue" points="2727.59,-16.82 2737.33,-12.66 2727.12,-9.84 2727.59,-16.82"/>
</g>
<!-- Node27&#45;&gt;Node6 -->
<g id="edge54" class="edge">
<title>Node27&#45;&gt;Node6</title>
<path fill="none" stroke="midnightblue" d="M1749.89,-170.73C1754.59,-169.74 1759.45,-168.78 1764.05,-168 1894.7,-145.77 1929.91,-157.02 2060.05,-132 2060.15,-131.98 2060.25,-131.96 2060.36,-131.94"/>
<polygon fill="midnightblue" stroke="midnightblue" points="2060.99,-135.38 2070,-129.81 2059.48,-128.55 2060.99,-135.38"/>
</g>
<!-- Node27&#45;&gt;Node7 -->
<g id="edge55" class="edge">
<title>Node27&#45;&gt;Node7</title>
<path fill="none" stroke="midnightblue" d="M1696.37,-175.73C1545.13,-168.54 796.25,-132.94 622.91,-124.7"/>
<polygon fill="midnightblue" stroke="midnightblue" points="622.95,-121.2 612.79,-124.22 622.61,-128.19 622.95,-121.2"/>
</g>
<!-- Node27&#45;&gt;Node8 -->
<g id="edge56" class="edge">
<title>Node27&#45;&gt;Node8</title>
<path fill="none" stroke="midnightblue" d="M1749.75,-175.01C1857.58,-166.99 2261.84,-136.92 2401.36,-126.55"/>
<polygon fill="midnightblue" stroke="midnightblue" points="2402,-130.01 2411.71,-125.78 2401.48,-123.03 2402,-130.01"/>
</g>
<!-- Node27&#45;&gt;Node9 -->
<g id="edge57" class="edge">
<title>Node27&#45;&gt;Node9</title>
<path fill="none" stroke="midnightblue" d="M1696.45,-173.16C1632.89,-163.98 1471.63,-140.7 1393.22,-129.38"/>
<polygon fill="midnightblue" stroke="midnightblue" points="1393.57,-125.89 1383.17,-127.93 1392.57,-132.82 1393.57,-125.89"/>
</g>
<!-- Node27&#45;&gt;Node10 -->
<g id="edge58" class="edge">
<title>Node27&#45;&gt;Node10</title>
<path fill="none" stroke="midnightblue" d="M1749.64,-175.47C1874.05,-168.32 2400.63,-138.03 2592.09,-127.02"/>
<polygon fill="midnightblue" stroke="midnightblue" points="2592.53,-130.5 2602.32,-126.44 2592.13,-123.52 2592.53,-130.5"/>
</g>
<!-- Node27&#45;&gt;Node11 -->
<g id="edge59" class="edge">
<title>Node27&#45;&gt;Node11</title>
<path fill="none" stroke="midnightblue" d="M1749.93,-170.98C1754.63,-169.96 1759.48,-168.93 1764.05,-168 1826.1,-155.37 1897.45,-142.16 1946.13,-133.35"/>
<polygon fill="midnightblue" stroke="midnightblue" points="1946.94,-136.76 1956.16,-131.53 1945.69,-129.87 1946.94,-136.76"/>
</g>
<!-- Node27&#45;&gt;Node12 -->
<g id="edge60" class="edge">
<title>Node27&#45;&gt;Node12</title>
<path fill="none" stroke="midnightblue" d="M1706.92,-168.35C1678.82,-153.76 1618.68,-124.63 1564.05,-112 1443.33,-84.09 1064.23,-71.69 932.05,-68.13"/>
<polygon fill="midnightblue" stroke="midnightblue" points="931.96,-64.63 921.87,-67.86 931.77,-71.63 931.96,-64.63"/>
</g>
<!-- Node27&#45;&gt;Node20 -->
<g id="edge61" class="edge">
<title>Node27&#45;&gt;Node20</title>
<path fill="none" stroke="midnightblue" d="M1749.86,-178.93C1795.96,-179.88 1892.02,-186.62 1962.05,-224 1992.83,-240.43 1996.78,-251.61 2017.05,-280 2080.1,-368.31 2096.39,-459.62 2009.05,-524 1838.58,-649.65 1157.56,-675.08 953.27,-679.92"/>
<polygon fill="midnightblue" stroke="midnightblue" points="952.97,-676.43 943.05,-680.16 953.13,-683.43 952.97,-676.43"/>
</g>
<!-- Node27&#45;&gt;Node23 -->
<g id="edge118" class="edge">
<title>Node27&#45;&gt;Node23</title>
<path fill="none" stroke="midnightblue" d="M1724.89,-187.54C1727.26,-200.09 1730.58,-224.18 1726.05,-244 1711.89,-305.98 1692.43,-324.77 1637.05,-356 1411.46,-483.23 1330.04,-460.08 1079.05,-524 1019.01,-539.29 948.58,-553.3 905.13,-561.49"/>
<polygon fill="midnightblue" stroke="midnightblue" points="904.41,-558.07 895.22,-563.35 905.69,-564.95 904.41,-558.07"/>
</g>
<!-- Node27&#45;&gt;Node25 -->
<g id="edge121" class="edge">
<title>Node27&#45;&gt;Node25</title>
<path fill="none" stroke="midnightblue" d="M1749.84,-178.82C1789.88,-179.6 1864.81,-186.11 1912.05,-224 1994.58,-290.2 1952.88,-442.93 1930.45,-495.13"/>
<polygon fill="midnightblue" stroke="midnightblue" points="1927.17,-493.88 1926.13,-504.43 1933.52,-496.83 1927.17,-493.88"/>
</g>
<!-- Node27&#45;&gt;Node26 -->
<g id="edge62" class="edge">
<title>Node27&#45;&gt;Node26</title>
<path fill="none" stroke="midnightblue" d="M1696.42,-180.19C1536.65,-187.04 705.67,-221.44 476.56,-230.7"/>
<polygon fill="midnightblue" stroke="midnightblue" points="476.27,-227.21 466.42,-231.11 476.56,-234.2 476.27,-227.21"/>
</g>
<!-- Node27&#45;&gt;Node28 -->
<g id="edge63" class="edge">
<title>Node27&#45;&gt;Node28</title>
<path fill="none" stroke="midnightblue" d="M1696.21,-174.47C1609.98,-165.78 1341.18,-137.18 1248.07,-126.8"/>
<polygon fill="midnightblue" stroke="midnightblue" points="1248.44,-123.32 1238.11,-125.69 1247.66,-130.28 1248.44,-123.32"/>
</g>
<!-- Node27&#45;&gt;Node29 -->
<g id="edge119" class="edge">
<title>Node27&#45;&gt;Node29</title>
<path fill="none" stroke="midnightblue" d="M1696.47,-185.56C1639.08,-200.02 1499.67,-236.84 1387.05,-280 1299.75,-313.46 1200.8,-363.73 1155.34,-387.55"/>
<polygon fill="midnightblue" stroke="midnightblue" points="1153.44,-384.6 1146.22,-392.35 1156.7,-390.79 1153.44,-384.6"/>
</g>
<!-- Node27&#45;&gt;Node30 -->
<g id="edge123" class="edge">
<title>Node27&#45;&gt;Node30</title>
<path fill="none" stroke="midnightblue" d="M1722.02,-187.74C1719.04,-209.34 1708.6,-265.98 1678.05,-300 1664.56,-315.03 1644.9,-325.66 1627.4,-332.8"/>
<polygon fill="midnightblue" stroke="midnightblue" points="1626.04,-329.57 1617.95,-336.41 1628.54,-336.11 1626.04,-329.57"/>
</g>
<!-- Node27&#45;&gt;Node31 -->
<g id="edge120" class="edge">
<title>Node27&#45;&gt;Node31</title>
<path fill="none" stroke="midnightblue" d="M1749.6,-181.07C1782.73,-184.98 1838.93,-195.75 1877.05,-224 1907.39,-246.48 1926.14,-263.9 1915.05,-300 1897.38,-357.5 1886.52,-375.05 1839.05,-412 1816.3,-429.71 1785.93,-440.89 1759.87,-447.67"/>
<polygon fill="midnightblue" stroke="midnightblue" points="1759,-444.28 1750.12,-450.06 1760.66,-451.08 1759,-444.28"/>
</g>
<!-- Node27&#45;&gt;Node33 -->
<g id="edge122" class="edge">
<title>Node27&#45;&gt;Node33</title>
<path fill="none" stroke="midnightblue" d="M1696.44,-181.72C1556.37,-196.02 903.48,-262.71 704.05,-283.08"/>
<polygon fill="midnightblue" stroke="midnightblue" points="703.66,-279.6 694.07,-284.1 704.37,-286.56 703.66,-279.6"/>
</g>
<!-- Node28&#45;&gt;Node12 -->
<g id="edge64" class="edge">
<title>Node28&#45;&gt;Node12</title>
<path fill="none" stroke="midnightblue" d="M1193.89,-117.37C1140.44,-108.63 1003.61,-86.24 931.72,-74.47"/>
<polygon fill="midnightblue" stroke="midnightblue" points="932.04,-70.98 921.61,-72.82 930.91,-77.89 932.04,-70.98"/>
</g>
<!-- Node28&#45;&gt;Node23 -->
<g id="edge65" class="edge">
<title>Node28&#45;&gt;Node23</title>
<path fill="none" stroke="midnightblue" d="M1204.38,-131.65C1176.56,-152.12 1103.88,-204.8 1040.05,-244 1011.58,-261.49 998.97,-257.74 974.05,-280 905.99,-340.77 883.55,-361 856.05,-448 845.04,-482.83 852.63,-526.04 858.67,-550.26"/>
<polygon fill="midnightblue" stroke="midnightblue" points="855.37,-551.48 861.34,-560.23 862.13,-549.67 855.37,-551.48"/>
</g>
<!-- Node28&#45;&gt;Node27 -->
<g id="edge117" class="edge">
<title>Node28&#45;&gt;Node27</title>
<path fill="none" stroke="midnightblue" d="M1238.12,-125.05C1317.37,-132.97 1586.9,-161.64 1686.12,-172.65"/>
<polygon fill="midnightblue" stroke="midnightblue" points="1685.94,-176.15 1696.27,-173.78 1686.72,-169.2 1685.94,-176.15"/>
</g>
<!-- Node28&#45;&gt;Node29 -->
<g id="edge66" class="edge">
<title>Node28&#45;&gt;Node29</title>
<path fill="none" stroke="midnightblue" d="M1208.73,-131.8C1190.37,-154.53 1142.63,-217.76 1126.05,-280 1116.67,-315.24 1121.84,-358.3 1126.15,-382.39"/>
<polygon fill="midnightblue" stroke="midnightblue" points="1122.73,-383.15 1128.07,-392.3 1129.61,-381.81 1122.73,-383.15"/>
</g>
<!-- Node29&#45;&gt;Node12 -->
<g id="edge67" class="edge">
<title>Node29&#45;&gt;Node12</title>
<path fill="none" stroke="midnightblue" d="M1118.08,-392.46C1095.68,-376.11 1046.56,-338.6 1012.05,-300 951.91,-232.73 932.31,-215.48 898.05,-132 891.99,-117.22 888.97,-99.29 887.48,-86.01"/>
<polygon fill="midnightblue" stroke="midnightblue" points="890.93,-85.37 886.52,-75.73 883.96,-86.01 890.93,-85.37"/>
</g>
<!-- Node29&#45;&gt;Node23 -->
<g id="edge68" class="edge">
<title>Node29&#45;&gt;Node23</title>
<path fill="none" stroke="midnightblue" d="M1127.24,-411.64C1119.5,-434.03 1095.61,-494.26 1054.05,-524 1009.93,-555.58 946.7,-565.26 905.51,-568.08"/>
<polygon fill="midnightblue" stroke="midnightblue" points="905.06,-564.6 895.28,-568.67 905.47,-571.59 905.06,-564.6"/>
</g>
<!-- Node29&#45;&gt;Node30 -->
<g id="edge69" class="edge">
<title>Node29&#45;&gt;Node30</title>
<path fill="none" stroke="midnightblue" d="M1147.61,-398.57C1212.16,-390.43 1436.56,-363.92 1537.87,-352.42"/>
<polygon fill="midnightblue" stroke="midnightblue" points="1538.32,-355.89 1547.86,-351.28 1537.53,-348.93 1538.32,-355.89"/>
</g>
<!-- Node30&#45;&gt;Node2 -->
<g id="edge116" class="edge">
<title>Node30&#45;&gt;Node2</title>
<path fill="none" stroke="midnightblue" d="M1628.39,-353.79C1755.28,-377.32 2137.05,-459.91 2137.05,-569 2137.05,-627 2137.05,-627 2137.05,-627 2137.05,-666.28 2104.88,-702.86 2081.36,-722.34"/>
<polygon fill="midnightblue" stroke="midnightblue" points="2079.2,-719.59 2073.46,-728.5 2083.5,-725.11 2079.2,-719.59"/>
</g>
<!-- Node30&#45;&gt;Node3 -->
<g id="edge70" class="edge">
<title>Node30&#45;&gt;Node3</title>
<path fill="none" stroke="midnightblue" d="M1615.49,-336.42C1643.76,-327.52 1689.09,-313.1 1728.05,-300 1906.34,-240.05 2118.49,-163.99 2198.93,-134.98"/>
<polygon fill="midnightblue" stroke="midnightblue" points="2200.29,-138.21 2208.51,-131.52 2197.92,-131.62 2200.29,-138.21"/>
</g>
<!-- Node30&#45;&gt;Node4 -->
<g id="edge71" class="edge">
<title>Node30&#45;&gt;Node4</title>
<path fill="none" stroke="midnightblue" d="M1589.29,-336.4C1590.53,-327.36 1592.35,-312.71 1593.05,-300 1593.54,-291.12 1593.27,-288.89 1593.05,-280 1591.94,-235.07 1588.05,-223.94 1588.05,-179 1588.05,-179 1588.05,-179 1588.05,-121 1588.05,-88.44 1596.64,-51.32 1602.56,-29.59"/>
<polygon fill="midnightblue" stroke="midnightblue" points="1605.99,-30.32 1605.35,-19.74 1599.26,-28.41 1605.99,-30.32"/>
</g>
<!-- Node30&#45;&gt;Node5 -->
<g id="edge72" class="edge">
<title>Node30&#45;&gt;Node5</title>
<path fill="none" stroke="midnightblue" d="M1628.22,-337.73C1674.39,-329.24 1752.38,-314.52 1819.05,-300 2026.76,-254.78 2088.45,-271.24 2284.05,-188 2341.8,-163.43 2346.7,-139.61 2403.05,-112 2469.58,-79.41 2488.85,-76.46 2560.05,-56 2617.89,-39.38 2686.46,-25.4 2727.55,-17.62"/>
<polygon fill="midnightblue" stroke="midnightblue" points="2728.19,-21.06 2737.38,-15.78 2726.9,-14.18 2728.19,-21.06"/>
</g>
<!-- Node30&#45;&gt;Node6 -->
<g id="edge73" class="edge">
<title>Node30&#45;&gt;Node6</title>
<path fill="none" stroke="midnightblue" d="M1614.47,-336.4C1637.51,-328.41 1671.47,-315.44 1699.05,-300 1748.69,-272.21 1751.7,-250.49 1802.05,-224 1848.33,-199.65 1993.52,-153.8 2060.09,-133.33"/>
<polygon fill="midnightblue" stroke="midnightblue" points="2061.16,-136.66 2069.7,-130.38 2059.11,-129.97 2061.16,-136.66"/>
</g>
<!-- Node30&#45;&gt;Node7 -->
<g id="edge74" class="edge">
<title>Node30&#45;&gt;Node7</title>
<path fill="none" stroke="midnightblue" d="M1549.42,-336.43C1389.09,-300.87 777.18,-165.17 622.66,-130.9"/>
<polygon fill="midnightblue" stroke="midnightblue" points="623.26,-127.45 612.74,-128.7 621.75,-134.28 623.26,-127.45"/>
</g>
<!-- Node30&#45;&gt;Node8 -->
<g id="edge75" class="edge">
<title>Node30&#45;&gt;Node8</title>
<path fill="none" stroke="midnightblue" d="M1622.78,-336.49C1659.24,-327.52 1718.22,-312.94 1769.05,-300 2010.99,-238.44 2300.67,-162.19 2407.15,-134.08"/>
<polygon fill="midnightblue" stroke="midnightblue" points="2408.1,-137.45 2416.87,-131.51 2406.31,-130.68 2408.1,-137.45"/>
</g>
<!-- Node30&#45;&gt;Node9 -->
<g id="edge76" class="edge">
<title>Node30&#45;&gt;Node9</title>
<path fill="none" stroke="midnightblue" d="M1580.25,-336.37C1568.7,-323.71 1546.26,-299.49 1526.05,-280 1469.87,-225.82 1399.57,-165.57 1367.07,-138.11"/>
<polygon fill="midnightblue" stroke="midnightblue" points="1369.2,-135.33 1359.3,-131.57 1364.69,-140.69 1369.2,-135.33"/>
</g>
<!-- Node30&#45;&gt;Node10 -->
<g id="edge77" class="edge">
<title>Node30&#45;&gt;Node10</title>
<path fill="none" stroke="midnightblue" d="M1628.15,-337.37C1674.25,-328.56 1752.17,-313.53 1819.05,-300 2120.53,-238.99 2481.73,-161.76 2612.09,-133.76"/>
<polygon fill="midnightblue" stroke="midnightblue" points="2613.12,-137.11 2622.16,-131.59 2611.65,-130.27 2613.12,-137.11"/>
</g>
<!-- Node30&#45;&gt;Node11 -->
<g id="edge78" class="edge">
<title>Node30&#45;&gt;Node11</title>
<path fill="none" stroke="midnightblue" d="M1601.3,-336.49C1612.96,-328.38 1629.67,-315.18 1640.05,-300 1675.2,-248.59 1638.82,-207.39 1687.05,-168 1725.63,-136.49 1865.53,-127.05 1946,-124.21"/>
<polygon fill="midnightblue" stroke="midnightblue" points="1946.59,-127.7 1956.46,-123.87 1946.36,-120.7 1946.59,-127.7"/>
</g>
<!-- Node30&#45;&gt;Node12 -->
<g id="edge79" class="edge">
<title>Node30&#45;&gt;Node12</title>
<path fill="none" stroke="midnightblue" d="M1587.05,-336.27C1582.49,-300.98 1560.26,-168.09 1479.05,-112 1434.39,-81.15 1062.91,-70.62 931.72,-67.84"/>
<polygon fill="midnightblue" stroke="midnightblue" points="931.67,-64.34 921.6,-67.63 931.53,-71.34 931.67,-64.34"/>
</g>
<!-- Node30&#45;&gt;Node20 -->
<g id="edge80" class="edge">
<title>Node30&#45;&gt;Node20</title>
<path fill="none" stroke="midnightblue" d="M1574.7,-355.63C1532.71,-382.57 1399.2,-466.7 1282.05,-524 1155.36,-585.97 997.77,-644.41 929.38,-668.9"/>
<polygon fill="midnightblue" stroke="midnightblue" points="927.81,-665.75 919.56,-672.4 930.16,-672.34 927.81,-665.75"/>
</g>
<!-- Node30&#45;&gt;Node23 -->
<g id="edge83" class="edge">
<title>Node30&#45;&gt;Node23</title>
<path fill="none" stroke="midnightblue" d="M1547.77,-346.74C1447,-346.82 1187.37,-351.28 1112.05,-392 1046.11,-427.65 1068.44,-480.97 1007.05,-524 976.72,-545.26 935.57,-557.1 905.06,-563.23"/>
<polygon fill="midnightblue" stroke="midnightblue" points="904.34,-559.8 895.16,-565.09 905.63,-566.68 904.34,-559.8"/>
</g>
<!-- Node30&#45;&gt;Node25 -->
<g id="edge102" class="edge">
<title>Node30&#45;&gt;Node25</title>
<path fill="none" stroke="midnightblue" d="M1613.83,-355.57C1638.05,-363.92 1675.1,-377.45 1706.05,-392 1778.33,-425.98 1859.3,-474.94 1897.62,-498.82"/>
<polygon fill="midnightblue" stroke="midnightblue" points="1896.08,-501.99 1906.41,-504.33 1899.8,-496.05 1896.08,-501.99"/>
</g>
<!-- Node30&#45;&gt;Node26 -->
<g id="edge81" class="edge">
<title>Node30&#45;&gt;Node26</title>
<path fill="none" stroke="midnightblue" d="M1547.81,-344.11C1372.88,-340.12 683.17,-323.05 589.05,-300 568.58,-294.99 565.57,-287.95 546.05,-280 515.62,-267.61 480.35,-255.36 454.55,-246.78"/>
<polygon fill="midnightblue" stroke="midnightblue" points="455.4,-243.37 444.81,-243.56 453.21,-250.02 455.4,-243.37"/>
</g>
<!-- Node30&#45;&gt;Node28 -->
<g id="edge82" class="edge">
<title>Node30&#45;&gt;Node28</title>
<path fill="none" stroke="midnightblue" d="M1576.27,-336.46C1558.52,-323.71 1523.74,-299.15 1493.05,-280 1402.26,-223.35 1290.38,-162.6 1241.22,-136.34"/>
<polygon fill="midnightblue" stroke="midnightblue" points="1242.73,-133.18 1232.25,-131.56 1239.43,-139.35 1242.73,-133.18"/>
</g>
<!-- Node30&#45;&gt;Node29 -->
<g id="edge84" class="edge">
<title>Node30&#45;&gt;Node29</title>
<path fill="none" stroke="midnightblue" d="M1547.9,-352.23C1456.54,-363.44 1235.54,-389.46 1157.65,-398.13"/>
<polygon fill="midnightblue" stroke="midnightblue" points="1157.2,-394.66 1147.64,-399.23 1157.96,-401.62 1157.2,-394.66"/>
</g>
<!-- Node30&#45;&gt;Node31 -->
<g id="edge85" class="edge">
<title>Node30&#45;&gt;Node31</title>
<path fill="none" stroke="midnightblue" d="M1623.77,-355.51C1644.61,-362.2 1669.89,-373.55 1686.05,-392 1697.35,-404.89 1702.26,-424.07 1704.4,-438.25"/>
<polygon fill="midnightblue" stroke="midnightblue" points="1700.95,-438.82 1705.59,-448.35 1707.9,-438 1700.95,-438.82"/>
</g>
<!-- Node30&#45;&gt;Node33 -->
<g id="edge103" class="edge">
<title>Node30&#45;&gt;Node33</title>
<path fill="none" stroke="midnightblue" d="M1547.88,-342.7C1399.13,-334.17 879.3,-304.37 704.16,-294.33"/>
<polygon fill="midnightblue" stroke="midnightblue" points="704.3,-290.83 694.11,-293.76 703.9,-297.82 704.3,-290.83"/>
</g>
<!-- Node34 -->
<g id="node34" class="node">
<title>Node34</title>
<g id="a_node34"><a xlink:href="BC__Handlers_8h.html" target="_top" xlink:title=" ">
<polygon fill="none" stroke="black" points="1396.05,-280.5 1396.05,-299.5 1484.05,-299.5 1484.05,-280.5 1396.05,-280.5"/>
<text text-anchor="middle" x="1440.05" y="-287.5" font-family="Helvetica,sans-Serif" font-size="10.00">BC_Handlers.h</text>
</a>
</g>
</g>
<!-- Node30&#45;&gt;Node34 -->
<g id="edge112" class="edge">
<title>Node30&#45;&gt;Node34</title>
<path fill="none" stroke="midnightblue" d="M1559.51,-336.44C1532.97,-327.48 1493.93,-313.31 1467.69,-303.18"/>
<polygon fill="midnightblue" stroke="midnightblue" points="1468.9,-299.9 1458.31,-299.52 1466.35,-306.42 1468.9,-299.9"/>
</g>
<!-- Node31&#45;&gt;Node3 -->
<g id="edge86" class="edge">
<title>Node31&#45;&gt;Node3</title>
<path fill="none" stroke="midnightblue" d="M1750.12,-452.1C1789.47,-446.43 1847.85,-434.79 1894.05,-412 2040.69,-339.65 2176.03,-189.22 2218.41,-139.41"/>
<polygon fill="midnightblue" stroke="midnightblue" points="2221.25,-141.47 2225.02,-131.57 2215.9,-136.96 2221.25,-141.47"/>
</g>
<!-- Node31&#45;&gt;Node4 -->
<g id="edge87" class="edge">
<title>Node31&#45;&gt;Node4</title>
<path fill="none" stroke="midnightblue" d="M1706.75,-448.12C1707.59,-435.57 1708.57,-411.93 1706.05,-392 1688,-249.37 1633.38,-83.7 1614.53,-29.31"/>
<polygon fill="midnightblue" stroke="midnightblue" points="1617.77,-27.98 1611.17,-19.7 1611.16,-30.3 1617.77,-27.98"/>
</g>
<!-- Node31&#45;&gt;Node5 -->
<g id="edge88" class="edge">
<title>Node31&#45;&gt;Node5</title>
<path fill="none" stroke="midnightblue" d="M1750.2,-457.6C1841.75,-457.89 2058.37,-453.65 2234.05,-412 2364.47,-381.08 2391.5,-354.26 2514.05,-300 2625.58,-250.62 2672.31,-238.89 2731.05,-132 2749.34,-98.72 2758.02,-54.64 2761.7,-29.91"/>
<polygon fill="midnightblue" stroke="midnightblue" points="2765.21,-30.12 2763.09,-19.73 2758.27,-29.17 2765.21,-30.12"/>
</g>
<!-- Node31&#45;&gt;Node6 -->
<g id="edge89" class="edge">
<title>Node31&#45;&gt;Node6</title>
<path fill="none" stroke="midnightblue" d="M1750.2,-451.24C1783.68,-445.33 1829.8,-433.81 1865.05,-412 1979.4,-341.27 2060.26,-192.07 2085.61,-140.77"/>
<polygon fill="midnightblue" stroke="midnightblue" points="2088.84,-142.14 2090.06,-131.62 2082.54,-139.08 2088.84,-142.14"/>
</g>
<!-- Node31&#45;&gt;Node7 -->
<g id="edge90" class="edge">
<title>Node31&#45;&gt;Node7</title>
<path fill="none" stroke="midnightblue" d="M1661.95,-453.32C1602.31,-447.7 1492.93,-435.11 1402.05,-412 1096.54,-334.29 1035.07,-267.83 736.05,-168 697.48,-155.12 652.77,-141.83 622.46,-133.07"/>
<polygon fill="midnightblue" stroke="midnightblue" points="623.35,-129.68 612.77,-130.28 621.41,-136.41 623.35,-129.68"/>
</g>
<!-- Node31&#45;&gt;Node8 -->
<g id="edge91" class="edge">
<title>Node31&#45;&gt;Node8</title>
<path fill="none" stroke="midnightblue" d="M1750.18,-457.87C1866.82,-458.03 2188.67,-444.48 2398.05,-300 2449.57,-264.45 2452.12,-179.77 2450.47,-141.89"/>
<polygon fill="midnightblue" stroke="midnightblue" points="2453.95,-141.52 2449.87,-131.74 2446.96,-141.93 2453.95,-141.52"/>
</g>
<!-- Node31&#45;&gt;Node9 -->
<g id="edge94" class="edge">
<title>Node31&#45;&gt;Node9</title>
<path fill="none" stroke="midnightblue" d="M1674.14,-448.47C1611.96,-430.46 1473.18,-383.2 1387.05,-300 1366.27,-279.93 1362.23,-271.71 1354.05,-244 1343.77,-209.17 1345.09,-166.25 1347.03,-142.02"/>
<polygon fill="midnightblue" stroke="midnightblue" points="1350.55,-142.02 1347.99,-131.74 1343.58,-141.38 1350.55,-142.02"/>
</g>
<!-- Node31&#45;&gt;Node10 -->
<g id="edge92" class="edge">
<title>Node31&#45;&gt;Node10</title>
<path fill="none" stroke="midnightblue" d="M1750.24,-456.91C1835.88,-455.86 2029.94,-449.16 2188.05,-412 2255.3,-396.19 2268.73,-381.19 2333.05,-356 2395.84,-331.41 2412.41,-327.33 2474.05,-300 2525.66,-277.12 2546.34,-282.03 2588.05,-244 2592.44,-240 2632.29,-173.24 2651.62,-140.63"/>
<polygon fill="midnightblue" stroke="midnightblue" points="2654.81,-142.11 2656.9,-131.72 2648.79,-138.54 2654.81,-142.11"/>
</g>
<!-- Node31&#45;&gt;Node12 -->
<g id="edge95" class="edge">
<title>Node31&#45;&gt;Node12</title>
<path fill="none" stroke="midnightblue" d="M1661.88,-450.55C1589.06,-437.26 1446.04,-399.22 1387.05,-300 1344.34,-228.15 1448.48,-173.67 1392.05,-112 1361.31,-78.41 1050.88,-69.73 932.01,-67.63"/>
<polygon fill="midnightblue" stroke="midnightblue" points="931.85,-64.13 921.79,-67.46 931.73,-71.12 931.85,-64.13"/>
</g>
<!-- Node31&#45;&gt;Node20 -->
<g id="edge96" class="edge">
<title>Node31&#45;&gt;Node20</title>
<path fill="none" stroke="midnightblue" d="M1695.85,-467.7C1660.15,-497.57 1536.44,-596.26 1415.05,-636 1330.62,-663.64 1070.46,-675.34 953.3,-679.3"/>
<polygon fill="midnightblue" stroke="midnightblue" points="952.97,-675.81 943.09,-679.64 953.2,-682.81 952.97,-675.81"/>
</g>
<!-- Node31&#45;&gt;Node23 -->
<g id="edge99" class="edge">
<title>Node31&#45;&gt;Node23</title>
<path fill="none" stroke="midnightblue" d="M1662.01,-464.75C1515.75,-483.86 1047.41,-545.05 905.31,-563.61"/>
<polygon fill="midnightblue" stroke="midnightblue" points="904.73,-560.16 895.27,-564.92 905.64,-567.1 904.73,-560.16"/>
</g>
<!-- Node31&#45;&gt;Node26 -->
<g id="edge97" class="edge">
<title>Node31&#45;&gt;Node26</title>
<path fill="none" stroke="midnightblue" d="M1662,-453.28C1584.01,-446.5 1416.63,-431.05 1276.05,-412 1222.47,-404.74 1209.45,-400.48 1156.05,-392 1020.66,-370.51 676.31,-342.74 546.05,-300 527.92,-294.05 525.03,-288.71 508.05,-280 486.81,-269.1 462.59,-257.01 444.63,-248.11"/>
<polygon fill="midnightblue" stroke="midnightblue" points="445.87,-244.82 435.36,-243.52 442.77,-251.09 445.87,-244.82"/>
</g>
<!-- Node31&#45;&gt;Node27 -->
<g id="edge101" class="edge">
<title>Node31&#45;&gt;Node27</title>
<path fill="none" stroke="midnightblue" d="M1741.14,-448.47C1765.46,-441.78 1797.38,-430.43 1821.05,-412 1868.52,-375.05 1879.38,-357.5 1897.05,-300 1908.14,-263.9 1889.39,-246.48 1859.05,-224 1829.53,-202.13 1789.18,-190.73 1759.98,-184.89"/>
<polygon fill="midnightblue" stroke="midnightblue" points="1760.25,-181.38 1749.77,-182.98 1758.96,-188.26 1760.25,-181.38"/>
</g>
<!-- Node31&#45;&gt;Node28 -->
<g id="edge98" class="edge">
<title>Node31&#45;&gt;Node28</title>
<path fill="none" stroke="midnightblue" d="M1661.83,-453.92C1593.59,-448.49 1466.47,-435.51 1428.05,-412 1371.1,-377.15 1260.64,-197.62 1226.42,-140.48"/>
<polygon fill="midnightblue" stroke="midnightblue" points="1229.23,-138.37 1221.1,-131.57 1223.22,-141.96 1229.23,-138.37"/>
</g>
<!-- Node31&#45;&gt;Node29 -->
<g id="edge100" class="edge">
<title>Node31&#45;&gt;Node29</title>
<path fill="none" stroke="midnightblue" d="M1661.81,-452.85C1548.41,-442.22 1249.82,-414.23 1157.59,-405.58"/>
<polygon fill="midnightblue" stroke="midnightblue" points="1157.91,-402.1 1147.63,-404.65 1157.26,-409.07 1157.91,-402.1"/>
</g>
<!-- Node32 -->
<g id="node32" class="node">
<title>Node32</title>
<g id="a_node32"><a xlink:title=" ">
<polygon fill="none" stroke="#bfbfbf" points="1602.55,-392.5 1602.55,-411.5 1677.55,-411.5 1677.55,-392.5 1602.55,-392.5"/>
<text text-anchor="middle" x="1640.05" y="-399.5" font-family="Helvetica,sans-Serif" font-size="10.00">petscerror.h</text>
</a>
</g>
</g>
<!-- Node31&#45;&gt;Node32 -->
<g id="edge93" class="edge">
<title>Node31&#45;&gt;Node32</title>
<path fill="none" stroke="midnightblue" d="M1695.45,-448.32C1685.6,-440.26 1670.7,-428.08 1658.84,-418.37"/>
<polygon fill="midnightblue" stroke="midnightblue" points="1660.8,-415.46 1650.85,-411.83 1656.37,-420.88 1660.8,-415.46"/>
</g>
<!-- Node33&#45;&gt;Node4 -->
<g id="edge105" class="edge">
<title>Node33&#45;&gt;Node4</title>
<path fill="none" stroke="midnightblue" d="M656.38,-280.49C703.64,-241.7 900.25,-82.46 974.05,-56 1078.32,-18.62 1408.99,-12.19 1546.82,-11.16"/>
<polygon fill="midnightblue" stroke="midnightblue" points="1547.21,-14.66 1557.19,-11.09 1547.16,-7.66 1547.21,-14.66"/>
</g>
<!-- Node33&#45;&gt;Node7 -->
<g id="edge108" class="edge">
<title>Node33&#45;&gt;Node7</title>
<path fill="none" stroke="midnightblue" d="M642.59,-280.38C638.95,-271.33 633.08,-256.67 628.05,-244 618.2,-219.14 614.7,-213.3 606.05,-188 600.76,-172.53 595.61,-154.69 592.01,-141.61"/>
<polygon fill="midnightblue" stroke="midnightblue" points="595.38,-140.65 589.38,-131.91 588.62,-142.48 595.38,-140.65"/>
</g>
<!-- Node33&#45;&gt;Node9 -->
<g id="edge107" class="edge">
<title>Node33&#45;&gt;Node9</title>
<path fill="none" stroke="midnightblue" d="M682.37,-280.42C800.9,-252.44 1176.24,-163.81 1305.11,-133.38"/>
<polygon fill="midnightblue" stroke="midnightblue" points="1306.1,-136.74 1315.03,-131.03 1304.49,-129.93 1306.1,-136.74"/>
</g>
<!-- Node33&#45;&gt;Node12 -->
<g id="edge109" class="edge">
<title>Node33&#45;&gt;Node12</title>
<path fill="none" stroke="midnightblue" d="M634.86,-280.42C600.74,-253.28 503.27,-167.79 552.05,-112 588.94,-69.81 757.63,-65.56 840.23,-66.1"/>
<polygon fill="midnightblue" stroke="midnightblue" points="840.3,-69.6 850.33,-66.19 840.37,-62.6 840.3,-69.6"/>
</g>
<!-- Node33&#45;&gt;Node21 -->
<g id="edge104" class="edge">
<title>Node33&#45;&gt;Node21</title>
<path fill="none" stroke="midnightblue" d="M619.29,-280.44C593.2,-271.89 552.52,-258.04 518.05,-244 498.53,-236.05 494.62,-231.83 475.05,-224 442.64,-211.03 404.88,-198.49 377.88,-189.95"/>
<polygon fill="midnightblue" stroke="midnightblue" points="378.69,-186.54 368.1,-186.89 376.6,-193.22 378.69,-186.54"/>
</g>
<!-- Node33&#45;&gt;Node22 -->
<g id="edge106" class="edge">
<title>Node33&#45;&gt;Node22</title>
<path fill="none" stroke="midnightblue" d="M642.45,-280.22C639,-271.28 634.02,-256.94 632.05,-244 629.64,-228.13 633.98,-210.32 638.45,-197.36"/>
<polygon fill="midnightblue" stroke="midnightblue" points="641.81,-198.36 642.09,-187.77 635.27,-195.88 641.81,-198.36"/>
</g>
<!-- Node33&#45;&gt;Node23 -->
<g id="edge110" class="edge">
<title>Node33&#45;&gt;Node23</title>
<path fill="none" stroke="midnightblue" d="M657.59,-299.57C678.86,-316.43 722.05,-356.2 722.05,-401 722.05,-459 722.05,-459 722.05,-459 722.05,-489.1 720.49,-502.02 741.05,-524 762.41,-546.82 796.28,-558.11 823.08,-563.67"/>
<polygon fill="midnightblue" stroke="midnightblue" points="822.49,-567.12 832.97,-565.53 823.79,-560.24 822.49,-567.12"/>
</g>
<!-- Node33&#45;&gt;Node26 -->
<g id="edge111" class="edge">
<title>Node33&#45;&gt;Node26</title>
<path fill="none" stroke="midnightblue" d="M609.92,-280.44C570.4,-271.08 506.96,-256.06 463.94,-245.87"/>
<polygon fill="midnightblue" stroke="midnightblue" points="464.55,-242.42 454.01,-243.52 462.93,-249.23 464.55,-242.42"/>
</g>
<!-- Node34&#45;&gt;Node12 -->
<g id="edge113" class="edge">
<title>Node34&#45;&gt;Node12</title>
<path fill="none" stroke="midnightblue" d="M1444.97,-280.19C1460.2,-251.61 1502.92,-160.54 1458.05,-112 1422.62,-73.67 1061.74,-67.94 932.11,-67.12"/>
<polygon fill="midnightblue" stroke="midnightblue" points="931.75,-63.62 921.74,-67.06 931.72,-70.62 931.75,-63.62"/>
</g>
<!-- Node34&#45;&gt;Node23 -->
<g id="edge115" class="edge">
<title>Node34&#45;&gt;Node23</title>
<path fill="none" stroke="midnightblue" d="M1395.97,-296.83C1324.68,-307.6 1181.17,-334.94 1073.05,-392 990.09,-435.78 910.88,-517.2 878.9,-552.25"/>
<polygon fill="midnightblue" stroke="midnightblue" points="875.91,-550.33 871.82,-560.11 881.11,-555.02 875.91,-550.33"/>
</g>
<!-- Node34&#45;&gt;Node30 -->
<g id="edge114" class="edge">
<title>Node34&#45;&gt;Node30</title>
<path fill="none" stroke="midnightblue" d="M1468.47,-299.52C1494.98,-308.47 1534.02,-322.63 1560.3,-332.77"/>
<polygon fill="midnightblue" stroke="midnightblue" points="1559.1,-336.06 1569.69,-336.44 1561.65,-329.54 1559.1,-336.06"/>
</g>
<!-- Node35&#45;&gt;Node5 -->
<g id="edge135" class="edge">
<title>Node35&#45;&gt;Node5</title>
<path fill="none" stroke="midnightblue" d="M895.32,-624.96C1090.49,-624.3 2239.38,-614.18 2550.05,-468 2725.85,-385.28 2878.05,-373.29 2878.05,-179 2878.05,-179 2878.05,-179 2878.05,-121 2878.05,-74.11 2827.5,-40.89 2793.72,-23.93"/>
<polygon fill="midnightblue" stroke="midnightblue" points="2795.22,-20.77 2784.7,-19.58 2792.18,-27.07 2795.22,-20.77"/>
</g>
<!-- Node35&#45;&gt;Node12 -->
<g id="edge133" class="edge">
<title>Node35&#45;&gt;Node12</title>
<path fill="none" stroke="midnightblue" d="M847.57,-616.33C818.1,-601.99 763.25,-570.25 741.05,-524 737.21,-515.99 739.63,-512.78 741.05,-504 768.3,-335.37 851.1,-143.76 877.72,-85.04"/>
<polygon fill="midnightblue" stroke="midnightblue" points="881.03,-86.21 882.01,-75.66 874.66,-83.3 881.03,-86.21"/>
</g>
<!-- Node35&#45;&gt;Node21 -->
<g id="edge132" class="edge">
<title>Node35&#45;&gt;Node21</title>
<path fill="none" stroke="midnightblue" d="M838.66,-622.8C777.54,-617.68 635.64,-603.56 594.05,-580 480.46,-515.66 475.98,-464.94 404.05,-356 373.39,-309.56 363.32,-297.52 348.05,-244 343.72,-228.83 342.33,-210.93 341.96,-197.77"/>
<polygon fill="midnightblue" stroke="midnightblue" points="345.45,-197.56 341.84,-187.6 338.46,-197.64 345.45,-197.56"/>
</g>
<!-- Node35&#45;&gt;Node23 -->
<g id="edge134" class="edge">
<title>Node35&#45;&gt;Node23</title>
<path fill="none" stroke="midnightblue" d="M866.56,-616.08C866.16,-609.01 865.6,-598.86 865.11,-589.99"/>
<polygon fill="midnightblue" stroke="midnightblue" points="868.59,-589.54 864.54,-579.75 861.6,-589.93 868.59,-589.54"/>
</g>
<!-- Node35&#45;&gt;Node27 -->
<g id="edge137" class="edge">
<title>Node35&#45;&gt;Node27</title>
<path fill="none" stroke="midnightblue" d="M895.08,-624.67C1061.01,-622.46 1910.1,-607.11 1986.05,-524 2077.24,-424.21 2045.28,-303.63 1936.05,-224 1908.35,-203.81 1812.95,-189.63 1759.71,-183.09"/>
<polygon fill="midnightblue" stroke="midnightblue" points="1760,-179.6 1749.66,-181.89 1759.17,-186.55 1760,-179.6"/>
</g>
<!-- Node35&#45;&gt;Node29 -->
<g id="edge136" class="edge">
<title>Node35&#45;&gt;Node29</title>
<path fill="none" stroke="midnightblue" d="M895.21,-616.46C938.25,-602.39 1021.48,-571.13 1079.05,-524 1103.13,-504.29 1109.21,-496.77 1121.05,-468 1127.09,-453.33 1129.22,-435.4 1129.91,-422.08"/>
<polygon fill="midnightblue" stroke="midnightblue" points="1133.42,-421.87 1130.21,-411.77 1126.42,-421.67 1133.42,-421.87"/>
</g>
</g>
</svg>
        <g id="navigator" transform="translate(0 0)" fill="#404254">
                <rect fill="#f2f5e9" fill-opacity="0.5" stroke="#606060" stroke-width=".5" x="0" y="0" width="60" height="60"/>
                <use id="zoomplus" xlink:href="#zoomPlus" x="17" y="9" onmousedown="handleZoom(evt,'in')"/>
                <use id="zoomminus" xlink:href="#zoomMin" x="42" y="9" onmousedown="handleZoom(evt,'out')"/>
                <use id="reset" xlink:href="#resetDef" x="30" y="36" onmousedown="handleReset()"/>
                <g id="arrowUp" xlink:href="#dirArrow" transform="translate(30 24)" onmousedown="handlePan(0,-1)">
                  <use xlink:href="#rim" fill="#404040">
                        <set attributeName="fill" to="#808080" begin="arrowUp.mouseover" end="arrowUp.mouseout"/>
                  </use>
                  <path fill="none" stroke="white" stroke-width="1.5" d="M0,-3.0v7 M-2.5,-0.5L0,-3.0L2.5,-0.5"/>
                </g>
                <g id="arrowRight" xlink:href="#dirArrow" transform="rotate(90) translate(36 -43)" onmousedown="handlePan(1,0)">
                  <use xlink:href="#rim" fill="#404040">
                        <set attributeName="fill" to="#808080" begin="arrowRight.mouseover" end="arrowRight.mouseout"/>
                  </use>
                  <path fill="none" stroke="white" stroke-width="1.5" d="M0,-3.0v7 M-2.5,-0.5L0,-3.0L2.5,-0.5"/>
                </g>
                <g id="arrowDown" xlink:href="#dirArrow" transform="rotate(180) translate(-30 -48)" onmousedown="handlePan(0,1)">
                  <use xlink:href="#rim" fill="#404040">
                        <set attributeName="fill" to="#808080" begin="arrowDown.mouseover" end="arrowDown.mouseout"/>
                  </use>
                  <path fill="none" stroke="white" stroke-width="1.5" d="M0,-3.0v7 M-2.5,-0.5L0,-3.0L2.5,-0.5"/>
                </g>
                <g id="arrowLeft" xlink:href="#dirArrow" transform="rotate(270) translate(-36 17)" onmousedown="handlePan(-1,0)">
                  <use xlink:href="#rim" fill="#404040">
                        <set attributeName="fill" to="#808080" begin="arrowLeft.mouseover" end="arrowLeft.mouseout"/>
                  </use>
                  <path fill="none" stroke="white" stroke-width="1.5" d="M0,-3.0v7 M-2.5,-0.5L0,-3.0L2.5,-0.5"/>
                </g>
        </g>
        <svg viewBox="0 0 15 15" width="100%" height="30px" preserveAspectRatio="xMaxYMin meet">
         <g id="arrow_out" transform="scale(0.3 0.3)">
          <a xlink:href="wallfunction_8c__incl_org.svg" target="_base">
           <rect id="button" ry="5" rx="5" y="6" x="6" height="38" width="38"
                fill="#f2f5e9" fill-opacity="0.5" stroke="#606060" stroke-width="1.0"/>
           <path id="arrow"
             d="M 11.500037,31.436501 C 11.940474,20.09759 22.043105,11.32322 32.158766,21.979434 L 37.068811,17.246167 C 37.068811,17.246167 37.088388,32 37.088388,32 L 22.160133,31.978069 C 22.160133,31.978069 26.997745,27.140456 26.997745,27.140456 C 18.528582,18.264221 13.291696,25.230495 11.500037,31.436501 z"
             style="fill:#404040;"/>
          </a>
         </g>
        </svg>
</svg>
