<?xml version="1.0" encoding="UTF-8" standalone="no"?>
<!DOCTYPE svg PUBLIC "-//W3C//DTD SVG 1.1//EN"
 "http://www.w3.org/Graphics/SVG/1.1/DTD/svg11.dtd">
<!-- Generated by graphviz version 2.43.0 (0)
 -->
<!-- Title: integrate_1 Pages: 1 -->
<!--zoomable 142 -->
<svg id="main" version="1.1" xmlns="http://www.w3.org/2000/svg" xmlns:xlink="http://www.w3.org/1999/xlink" xml:space="preserve" onload="init(evt)">
<style type="text/css"><![CDATA[
.edge:hover path { stroke: red; }
.edge:hover polygon { stroke: red; fill: red; }
]]></style>
<script type="text/javascript"><![CDATA[
var edges = document.getElementsByTagName('g');
if (edges && edges.length) {
  for (var i=0;i<edges.length;i++) {
    if (edges[i].id.substr(0,4)=='edge') {
      edges[i].setAttribute('class','edge');
    }
  }
}
]]></script>
        <defs>
                <circle id="rim" cx="0" cy="0" r="7"/>
                <circle id="rim2" cx="0" cy="0" r="3.5"/>
                <g id="zoomPlus">
                        <use xlink:href="#rim" fill="#404040">
                                <set attributeName="fill" to="#808080" begin="zoomplus.mouseover" end="zoomplus.mouseout"/>
                        </use>
                        <path d="M-4,0h8M0,-4v8" fill="none" stroke="white" stroke-width="1.5" pointer-events="none"/>
                </g>
                <g id="zoomMin">
                        <use xlink:href="#rim" fill="#404040">
                                <set attributeName="fill" to="#808080" begin="zoomminus.mouseover" end="zoomminus.mouseout"/>
                        </use>
                        <path d="M-4,0h8" fill="none" stroke="white" stroke-width="1.5" pointer-events="none"/>
                </g>
                <g id="dirArrow">
                        <path fill="none" stroke="white" stroke-width="1.5" d="M0,-3.0v7 M-2.5,-0.5L0,-3.0L2.5,-0.5"/>
                </g>
               <g id="resetDef">
                       <use xlink:href="#rim2" fill="#404040">
                               <set attributeName="fill" to="#808080" begin="reset.mouseover" end="reset.mouseout"/>
                       </use>
               </g>
        </defs>

<script type="text/javascript">
var viewWidth = 623;
var viewHeight = 142;
var sectionId = 'dynsection-19';
</script>
<script xlink:href="svgpan.js"/>
<svg id="graph" class="graph">
<g id="viewport">
<title>integrate_1</title>
<!-- Node1 -->
<g id="node1" class="node">
<title>Node1</title>
<g id="a_node1"><a xlink:title=" ">
<polygon fill="#bfbfbf" stroke="black" points="543,-19.5 543,-38.5 615,-38.5 615,-19.5 543,-19.5"/>
<text text-anchor="middle" x="579" y="-26.5" font-family="Helvetica,sans-Serif" font-size="10.00">integrate_1</text>
</a>
</g>
</g>
<!-- Node2 -->
<g id="node2" class="node">
<title>Node2</title>
<g id="a_node2"><a xlink:href="wallfunction_8c.html#aac8ebe5267e4f3c1a5807e964a4f2837" target="_top" xlink:title=" ">
<polygon fill="none" stroke="black" points="472,-38.5 472,-57.5 507,-57.5 507,-38.5 472,-38.5"/>
<text text-anchor="middle" x="489.5" y="-45.5" font-family="Helvetica,sans-Serif" font-size="10.00">taw</text>
</a>
</g>
</g>
<!-- Node1&#45;&gt;Node2 -->
<g id="edge1" class="edge">
<title>Node1&#45;&gt;Node2</title>
<path fill="none" stroke="midnightblue" d="M532.94,-38.78C523.7,-40.79 514.54,-42.78 507.11,-44.39"/>
<polygon fill="midnightblue" stroke="midnightblue" points="533.89,-42.16 542.91,-36.62 532.4,-35.32 533.89,-42.16"/>
</g>
<!-- Node7 -->
<g id="node7" class="node">
<title>Node7</title>
<g id="a_node7"><a xlink:href="wallfunction_8c.html#aad20a76a53ecb1b953cb300203beb526" target="_top" xlink:title=" ">
<polygon fill="none" stroke="black" points="380,-0.5 380,-19.5 436,-19.5 436,-0.5 380,-0.5"/>
<text text-anchor="middle" x="408" y="-7.5" font-family="Helvetica,sans-Serif" font-size="10.00">u_Cabot</text>
</a>
</g>
</g>
<!-- Node1&#45;&gt;Node7 -->
<g id="edge10" class="edge">
<title>Node1&#45;&gt;Node7</title>
<path fill="none" stroke="midnightblue" d="M532.91,-23.93C502.09,-20.47 462.26,-15.99 436.19,-13.06"/>
<polygon fill="midnightblue" stroke="midnightblue" points="532.65,-27.42 542.98,-25.06 533.44,-20.47 532.65,-27.42"/>
</g>
<!-- Node3 -->
<g id="node3" class="node">
<title>Node3</title>
<g id="a_node3"><a xlink:href="wallfunction_8c.html#a5b2c3227760bb03b8d8cd420317fe319" target="_top" xlink:title=" ">
<polygon fill="none" stroke="black" points="381,-76.5 381,-95.5 435,-95.5 435,-76.5 381,-76.5"/>
<text text-anchor="middle" x="408" y="-83.5" font-family="Helvetica,sans-Serif" font-size="10.00">f_Cabot</text>
</a>
</g>
</g>
<!-- Node2&#45;&gt;Node3 -->
<g id="edge2" class="edge">
<title>Node2&#45;&gt;Node3</title>
<path fill="none" stroke="midnightblue" d="M462.55,-60.41C451.62,-65.63 439.11,-71.61 428.93,-76.48"/>
<polygon fill="midnightblue" stroke="midnightblue" points="464.13,-63.53 471.64,-56.06 461.11,-57.21 464.13,-63.53"/>
</g>
<!-- Node5 -->
<g id="node5" class="node">
<title>Node5</title>
<g id="a_node5"><a xlink:href="wallfunction_8c.html#a9412a050f6200558af52ae63ff39b0a8" target="_top" xlink:title=" ">
<polygon fill="none" stroke="black" points="152,-57.5 152,-76.5 248,-76.5 248,-57.5 152,-57.5"/>
<text text-anchor="middle" x="200" y="-64.5" font-family="Helvetica,sans-Serif" font-size="10.00">find_utau_Cabot</text>
</a>
</g>
</g>
<!-- Node2&#45;&gt;Node5 -->
<g id="edge7" class="edge">
<title>Node2&#45;&gt;Node5</title>
<path fill="none" stroke="midnightblue" d="M461.72,-49.77C412.93,-52.99 308.99,-59.86 248.12,-63.89"/>
<polygon fill="midnightblue" stroke="midnightblue" points="462.05,-53.26 471.8,-49.1 461.59,-46.27 462.05,-53.26"/>
</g>
<!-- Node2&#45;&gt;Node7 -->
<g id="edge8" class="edge">
<title>Node2&#45;&gt;Node7</title>
<path fill="none" stroke="midnightblue" d="M462.55,-35.59C451.62,-30.37 439.11,-24.39 428.93,-19.52"/>
<polygon fill="midnightblue" stroke="midnightblue" points="461.11,-38.79 471.64,-39.94 464.13,-32.47 461.11,-38.79"/>
</g>
<!-- Node4 -->
<g id="node4" class="node">
<title>Node4</title>
<g id="a_node4"><a xlink:href="wallfunction_8c.html#a55cc387bac11248c3e765d8bd550fbbc" target="_top" xlink:title=" ">
<polygon fill="none" stroke="black" points="284,-114.5 284,-133.5 344,-133.5 344,-114.5 284,-114.5"/>
<text text-anchor="middle" x="314" y="-121.5" font-family="Helvetica,sans-Serif" font-size="10.00">df_Cabot</text>
</a>
</g>
</g>
<!-- Node3&#45;&gt;Node4 -->
<g id="edge3" class="edge">
<title>Node3&#45;&gt;Node4</title>
<path fill="none" stroke="midnightblue" d="M374.53,-99.41C362.54,-104.36 349.21,-109.87 338.21,-114.41"/>
<polygon fill="midnightblue" stroke="midnightblue" points="375.88,-102.64 383.78,-95.59 373.21,-96.17 375.88,-102.64"/>
</g>
<!-- Node3&#45;&gt;Node5 -->
<g id="edge6" class="edge">
<title>Node3&#45;&gt;Node5</title>
<path fill="none" stroke="midnightblue" d="M370.91,-82.67C336.78,-79.52 285.37,-74.78 248.04,-71.34"/>
<polygon fill="midnightblue" stroke="midnightblue" points="370.63,-86.16 380.91,-83.59 371.27,-79.19 370.63,-86.16"/>
</g>
<!-- Node4&#45;&gt;Node5 -->
<g id="edge4" class="edge">
<title>Node4&#45;&gt;Node5</title>
<path fill="none" stroke="midnightblue" d="M285.14,-109.82C264.77,-99.45 237.68,-85.67 219.81,-76.57"/>
<polygon fill="midnightblue" stroke="midnightblue" points="283.75,-113.04 294.25,-114.46 286.93,-106.8 283.75,-113.04"/>
</g>
<!-- Node6 -->
<g id="node6" class="node">
<title>Node6</title>
<g id="a_node6"><a xlink:href="wallfunction_8c.html#a73da726e7c04f95e7ce9eeeda4afae7d" target="_top" xlink:title=" ">
<polygon fill="none" stroke="black" points="0,-28.5 0,-47.5 116,-47.5 116,-28.5 0,-28.5"/>
<text text-anchor="middle" x="58" y="-35.5" font-family="Helvetica,sans-Serif" font-size="10.00">wall_function_Cabot</text>
</a>
</g>
</g>
<!-- Node5&#45;&gt;Node6 -->
<g id="edge5" class="edge">
<title>Node5&#45;&gt;Node6</title>
<path fill="none" stroke="midnightblue" d="M142.9,-55.38C130.38,-52.79 117.24,-50.06 105.18,-47.57"/>
<polygon fill="midnightblue" stroke="midnightblue" points="142.27,-58.82 152.77,-57.42 143.69,-51.97 142.27,-58.82"/>
</g>
<!-- Node7&#45;&gt;Node6 -->
<g id="edge9" class="edge">
<title>Node7&#45;&gt;Node6</title>
<path fill="none" stroke="midnightblue" d="M369.69,-13C308.81,-17.9 187.72,-27.64 116.01,-33.41"/>
<polygon fill="midnightblue" stroke="midnightblue" points="370.3,-16.46 379.98,-12.17 369.73,-9.49 370.3,-16.46"/>
</g>
</g>
</svg>
        <g id="navigator" transform="translate(0 0)" fill="#404254">
                <rect fill="#f2f5e9" fill-opacity="0.5" stroke="#606060" stroke-width=".5" x="0" y="0" width="60" height="60"/>
                <use id="zoomplus" xlink:href="#zoomPlus" x="17" y="9" onmousedown="handleZoom(evt,'in')"/>
                <use id="zoomminus" xlink:href="#zoomMin" x="42" y="9" onmousedown="handleZoom(evt,'out')"/>
                <use id="reset" xlink:href="#resetDef" x="30" y="36" onmousedown="handleReset()"/>
                <g id="arrowUp" xlink:href="#dirArrow" transform="translate(30 24)" onmousedown="handlePan(0,-1)">
                  <use xlink:href="#rim" fill="#404040">
                        <set attributeName="fill" to="#808080" begin="arrowUp.mouseover" end="arrowUp.mouseout"/>
                  </use>
                  <path fill="none" stroke="white" stroke-width="1.5" d="M0,-3.0v7 M-2.5,-0.5L0,-3.0L2.5,-0.5"/>
                </g>
                <g id="arrowRight" xlink:href="#dirArrow" transform="rotate(90) translate(36 -43)" onmousedown="handlePan(1,0)">
                  <use xlink:href="#rim" fill="#404040">
                        <set attributeName="fill" to="#808080" begin="arrowRight.mouseover" end="arrowRight.mouseout"/>
                  </use>
                  <path fill="none" stroke="white" stroke-width="1.5" d="M0,-3.0v7 M-2.5,-0.5L0,-3.0L2.5,-0.5"/>
                </g>
                <g id="arrowDown" xlink:href="#dirArrow" transform="rotate(180) translate(-30 -48)" onmousedown="handlePan(0,1)">
                  <use xlink:href="#rim" fill="#404040">
                        <set attributeName="fill" to="#808080" begin="arrowDown.mouseover" end="arrowDown.mouseout"/>
                  </use>
                  <path fill="none" stroke="white" stroke-width="1.5" d="M0,-3.0v7 M-2.5,-0.5L0,-3.0L2.5,-0.5"/>
                </g>
                <g id="arrowLeft" xlink:href="#dirArrow" transform="rotate(270) translate(-36 17)" onmousedown="handlePan(-1,0)">
                  <use xlink:href="#rim" fill="#404040">
                        <set attributeName="fill" to="#808080" begin="arrowLeft.mouseover" end="arrowLeft.mouseout"/>
                  </use>
                  <path fill="none" stroke="white" stroke-width="1.5" d="M0,-3.0v7 M-2.5,-0.5L0,-3.0L2.5,-0.5"/>
                </g>
        </g>
        <svg viewBox="0 0 15 15" width="100%" height="30px" preserveAspectRatio="xMaxYMin meet">
         <g id="arrow_out" transform="scale(0.3 0.3)">
          <a xlink:href="wallfunction_8c_ab1b65534ee27b90f9400ef04724103e7_icgraph_org.svg" target="_base">
           <rect id="button" ry="5" rx="5" y="6" x="6" height="38" width="38"
                fill="#f2f5e9" fill-opacity="0.5" stroke="#606060" stroke-width="1.0"/>
           <path id="arrow"
             d="M 11.500037,31.436501 C 11.940474,20.09759 22.043105,11.32322 32.158766,21.979434 L 37.068811,17.246167 C 37.068811,17.246167 37.088388,32 37.088388,32 L 22.160133,31.978069 C 22.160133,31.978069 26.997745,27.140456 26.997745,27.140456 C 18.528582,18.264221 13.291696,25.230495 11.500037,31.436501 z"
             style="fill:#404040;"/>
          </a>
         </g>
        </svg>
</svg>
