<?xml version="1.0" encoding="UTF-8" standalone="no"?>
<!DOCTYPE svg PUBLIC "-//W3C//DTD SVG 1.1//EN"
 "http://www.w3.org/Graphics/SVG/1.1/DTD/svg11.dtd">
<!-- Generated by graphviz version 2.43.0 (0)
 -->
<!-- Title: find_utau_Werner Pages: 1 -->
<svg width="311pt" height="47pt"
 viewBox="0.00 0.00 311.00 47.00" xmlns="http://www.w3.org/2000/svg" xmlns:xlink="http://www.w3.org/1999/xlink">
<g id="graph0" class="graph" transform="scale(1 1) rotate(0) translate(4 43)">
<title>find_utau_Werner</title>
<!-- Node1 -->
<g id="node1" class="node">
<title>Node1</title>
<g id="a_node1"><a xlink:title=" ">
<polygon fill="#bfbfbf" stroke="black" points="0,-0.5 0,-19.5 103,-19.5 103,-0.5 0,-0.5"/>
<text text-anchor="middle" x="51.5" y="-7.5" font-family="Helvetica,sans-Serif" font-size="10.00">find_utau_Werner</text>
</a>
</g>
</g>
<!-- Node2 -->
<g id="node2" class="node">
<title>Node2</title>
<g id="a_node2"><a xlink:href="wallfunction_8c.html#a60837386ae8bf02d0032c426feb77785" target="_top" xlink:title=" ">
<polygon fill="none" stroke="black" points="139,-19.5 139,-38.5 206,-38.5 206,-19.5 139,-19.5"/>
<text text-anchor="middle" x="172.5" y="-26.5" font-family="Helvetica,sans-Serif" font-size="10.00">df_Werner</text>
</a>
</g>
</g>
<!-- Node1&#45;&gt;Node2 -->
<g id="edge1" class="edge">
<title>Node1&#45;&gt;Node2</title>
<path fill="none" stroke="midnightblue" d="M103.31,-18.11C111.75,-19.46 120.43,-20.85 128.65,-22.16"/>
<polygon fill="midnightblue" stroke="midnightblue" points="128.33,-25.65 138.76,-23.77 129.43,-18.74 128.33,-25.65"/>
</g>
<!-- Node3 -->
<g id="node3" class="node">
<title>Node3</title>
<g id="a_node3"><a xlink:href="wallfunction_8c.html#aab74e1771906c1467d6ca73846a28ee6" target="_top" xlink:title=" ">
<polygon fill="none" stroke="black" points="242,-0.5 242,-19.5 303,-19.5 303,-0.5 242,-0.5"/>
<text text-anchor="middle" x="272.5" y="-7.5" font-family="Helvetica,sans-Serif" font-size="10.00">f_Werner</text>
</a>
</g>
</g>
<!-- Node1&#45;&gt;Node3 -->
<g id="edge3" class="edge">
<title>Node1&#45;&gt;Node3</title>
<path fill="none" stroke="midnightblue" d="M103.02,-10C142.11,-10 195.49,-10 231.61,-10"/>
<polygon fill="midnightblue" stroke="midnightblue" points="231.77,-13.5 241.77,-10 231.77,-6.5 231.77,-13.5"/>
</g>
<!-- Node2&#45;&gt;Node3 -->
<g id="edge2" class="edge">
<title>Node2&#45;&gt;Node3</title>
<path fill="none" stroke="midnightblue" d="M206.13,-22.67C214.46,-21.06 223.49,-19.31 232.12,-17.64"/>
<polygon fill="midnightblue" stroke="midnightblue" points="232.83,-21.06 241.98,-15.72 231.5,-14.19 232.83,-21.06"/>
</g>
</g>
</svg>
