<?xml version="1.0" encoding="UTF-8" standalone="no"?>
<!DOCTYPE svg PUBLIC "-//W3C//DTD SVG 1.1//EN"
 "http://www.w3.org/Graphics/SVG/1.1/DTD/svg11.dtd">
<!-- Generated by graphviz version 2.43.0 (0)
 -->
<!-- Title: df_Cabot Pages: 1 -->
<svg width="411pt" height="28pt"
 viewBox="0.00 0.00 411.00 28.00" xmlns="http://www.w3.org/2000/svg" xmlns:xlink="http://www.w3.org/1999/xlink">
<g id="graph0" class="graph" transform="scale(1 1) rotate(0) translate(4 24)">
<title>df_Cabot</title>
<!-- Node1 -->
<g id="node1" class="node">
<title>Node1</title>
<g id="a_node1"><a xlink:title=" ">
<polygon fill="#bfbfbf" stroke="black" points="0,-0.5 0,-19.5 60,-19.5 60,-0.5 0,-0.5"/>
<text text-anchor="middle" x="30" y="-7.5" font-family="Helvetica,sans-Serif" font-size="10.00">df_Cabot</text>
</a>
</g>
</g>
<!-- Node2 -->
<g id="node2" class="node">
<title>Node2</title>
<g id="a_node2"><a xlink:href="wallfunction_8c.html#a5b2c3227760bb03b8d8cd420317fe319" target="_top" xlink:title=" ">
<polygon fill="none" stroke="black" points="96,-0.5 96,-19.5 150,-19.5 150,-0.5 96,-0.5"/>
<text text-anchor="middle" x="123" y="-7.5" font-family="Helvetica,sans-Serif" font-size="10.00">f_Cabot</text>
</a>
</g>
</g>
<!-- Node1&#45;&gt;Node2 -->
<g id="edge1" class="edge">
<title>Node1&#45;&gt;Node2</title>
<path fill="none" stroke="midnightblue" d="M60.04,-10C68.18,-10 77.13,-10 85.63,-10"/>
<polygon fill="midnightblue" stroke="midnightblue" points="85.7,-13.5 95.7,-10 85.7,-6.5 85.7,-13.5"/>
</g>
<!-- Node3 -->
<g id="node3" class="node">
<title>Node3</title>
<g id="a_node3"><a xlink:href="wallfunction_8c.html#aac8ebe5267e4f3c1a5807e964a4f2837" target="_top" xlink:title=" ">
<polygon fill="none" stroke="black" points="186,-0.5 186,-19.5 221,-19.5 221,-0.5 186,-0.5"/>
<text text-anchor="middle" x="203.5" y="-7.5" font-family="Helvetica,sans-Serif" font-size="10.00">taw</text>
</a>
</g>
</g>
<!-- Node2&#45;&gt;Node3 -->
<g id="edge2" class="edge">
<title>Node2&#45;&gt;Node3</title>
<path fill="none" stroke="midnightblue" d="M150.14,-10C158.33,-10 167.37,-10 175.61,-10"/>
<polygon fill="midnightblue" stroke="midnightblue" points="175.83,-13.5 185.83,-10 175.83,-6.5 175.83,-13.5"/>
</g>
<!-- Node4 -->
<g id="node4" class="node">
<title>Node4</title>
<g id="a_node4"><a xlink:href="wallfunction_8c.html#ab1b65534ee27b90f9400ef04724103e7" target="_top" xlink:title=" ">
<polygon fill="none" stroke="black" points="257,-0.5 257,-19.5 329,-19.5 329,-0.5 257,-0.5"/>
<text text-anchor="middle" x="293" y="-7.5" font-family="Helvetica,sans-Serif" font-size="10.00">integrate_1</text>
</a>
</g>
</g>
<!-- Node3&#45;&gt;Node4 -->
<g id="edge3" class="edge">
<title>Node3&#45;&gt;Node4</title>
<path fill="none" stroke="midnightblue" d="M221.37,-10C228.66,-10 237.57,-10 246.58,-10"/>
<polygon fill="midnightblue" stroke="midnightblue" points="246.71,-13.5 256.71,-10 246.71,-6.5 246.71,-13.5"/>
</g>
<!-- Node5 -->
<g id="node5" class="node">
<title>Node5</title>
<g id="a_node5"><a xlink:href="wallfunction_8c.html#adc08703381597f75ccb620bf30d90ae1" target="_top" xlink:title=" ">
<polygon fill="none" stroke="black" points="365,-0.5 365,-19.5 403,-19.5 403,-0.5 365,-0.5"/>
<text text-anchor="middle" x="384" y="-7.5" font-family="Helvetica,sans-Serif" font-size="10.00">nu_t</text>
</a>
</g>
</g>
<!-- Node4&#45;&gt;Node5 -->
<g id="edge4" class="edge">
<title>Node4&#45;&gt;Node5</title>
<path fill="none" stroke="midnightblue" d="M329.18,-10C337.69,-10 346.68,-10 354.82,-10"/>
<polygon fill="midnightblue" stroke="midnightblue" points="354.93,-13.5 364.93,-10 354.93,-6.5 354.93,-13.5"/>
</g>
</g>
</svg>
